<svg xmlns="http://www.w3.org/2000/svg" width="24" height="24" fill="none" viewBox="0 0 24 24"><path fill="#000" fill-rule="evenodd" d="M6.576 5.24C4.992 6.607 4 8.44 4 10.34V19H3v-8.658c0-2.258 1.173-4.347 2.922-5.859C7.672 2.97 10.036 2 12.5 2s4.828.97 6.578 2.483C20.828 5.995 22 8.084 22 10.341V19h-1v-8.659c0-1.901-.992-3.733-2.576-5.102C16.843 3.872 14.707 3 12.5 3s-4.343.872-5.924 2.24M19 20v1h-.918l.37.787-.904.426L16.977 21H7.952l-.49 1.19-.924-.38.333-.81H6v-1h1.283l.412-1H7v-1h1.106l.412-1H8v-1h.93l.412-1H9v-1h.753l.285-.69.924.38-.127.31h2.847l-.134-.287.904-.426.336.713H16v1h-.742l.471 1H17v1h-.8l.47 1H18v1h-.86l.471 1zm-2.494 0-.47-1h-7.26l-.412 1zm-.94-2-.472-1H9.6l-.411 1zm-.942-2-.47-1h-3.731l-.412 1h4.613" clip-rule="evenodd"/></svg>