<svg width="24" height="24" viewBox="0 0 24 24" fill="none" xmlns="http://www.w3.org/2000/svg"><path fill-rule="evenodd" clip-rule="evenodd" d="M6.576 5.24C4.992 6.607 4 8.44 4 10.34V19H3V10.342c0-2.258 1.173-4.347 2.922-5.859C7.672 2.97 10.036 2 12.5 2c2.464 0 4.828.97 6.578 2.483C20.828 5.995 22 8.084 22 10.341V19h-1v-8.659c0-1.901-.992-3.733-2.576-5.102C16.843 3.872 14.707 3 12.5 3c-2.207 0-4.343.872-5.924 2.24ZM19 20v1h-.918l.37.787-.904.426L16.977 21H7.952l-.49 1.19-.924-.38.333-.81H6v-1h1.283l.412-1H7v-1h1.106l.412-1H8v-1h.93l.412-1H9v-1h.753l.285-.69.924.38-.127.31H13.682l-.134-.287.904-.426.336.713H16v1h-.742l.471 1H17v1h-.8l.47 1H18v1h-.86l.471 1H19Zm-2.494 0-.47-1h-7.26l-.412 1h8.142Zm-.94-2-.472-1H9.6l-.411 1h6.377Zm-.942-2-.47-1h-3.731l-.412 1H14.624Z" fill="#000"/></svg>