<svg xmlns="http://www.w3.org/2000/svg" width="48" height="48" fill="none" viewBox="0 0 48 48"><path fill="#000" d="M24.5 2c3.606 0 6.88.208 9.263.547 1.187.169 2.174.374 2.875.61.347.116.654.25.884.41.21.146.478.401.478.783v7.07l-.002.027.001.001v.01l-.002.03-.007.118a126 126 0 0 1-.137 2.056c-.096 1.34-.241 3.151-.433 5.031s-.432 3.834-.719 5.461c-.143.813-.3 1.554-.47 2.164-.168.596-.362 1.12-.6 1.465v.001A21.7 21.7 0 0 1 33 30.942v3.243l8.316 4.005.013.005.012.007A7.06 7.06 0 0 1 45 44.38V46h-1v-1.62l-.014-.404a6.06 6.06 0 0 0-3.115-4.891l-8.075-3.888a8.83 8.83 0 0 1-2.993 4.042A8.83 8.83 0 0 1 25 40.992V46h-1v-5.008a8.83 8.83 0 0 1-4.803-1.753 8.83 8.83 0 0 1-2.994-4.042l-8.075 3.888A6.06 6.06 0 0 0 5 44.381V46H4v-1.621l.004-.236a7.06 7.06 0 0 1 3.655-5.94l.012-.008.013-.005L16 34.186V30.98a21.5 21.5 0 0 1-2.662-3.198c-.239-.346-.433-.87-.6-1.466-.17-.61-.327-1.35-.47-2.163-.284-1.627-.52-3.583-.707-5.462a173 173 0 0 1-.551-7.087l-.007-.118-.002-.03v-.012L11 11.421V4.35c0-.382.267-.637.479-.784.23-.16.536-.293.883-.41.701-.235 1.688-.44 2.875-.61C17.62 2.209 20.894 2 24.5 2M39 46h-8v-4h8zm-7-1h6v-2h-6zm0-13.145C29.031 34.359 26.201 35 24.48 35c-1.712 0-4.53-.635-7.48-3.111v2.533a7.83 7.83 0 0 0 7.5 5.587l.317-.007A7.83 7.83 0 0 0 32 34.422zM12.138 13.59a171 171 0 0 0 .419 5.002c.186 1.869.418 3.797.697 5.388.14.797.289 1.501.447 2.068q.185.652.353.981l.107.185.001.002C18.072 32.907 22.402 34 24.48 34c2.079 0 6.398-1.093 10.329-6.784.137-.2.296-.588.459-1.168a22 22 0 0 0 .449-2.067c.28-1.593.517-3.52.708-5.39.19-1.867.335-3.667.431-5.001l.035-.508q-.15.104-.314.202c-.8.474-1.905.886-3.17 1.226q-.248.066-.506.128c-.38 1.18-1.376 2.096-2.703 2.718-1.445.678-3.342 1.043-5.478 1.043s-4.122-.365-5.663-1.038c-1.416-.617-2.534-1.532-2.955-2.733a24 24 0 0 1-.508-.13c-1.266-.341-2.37-.754-3.17-1.226a6 6 0 0 1-.32-.207q.014.249.034.526M30 26.6l.327.378A8.34 8.34 0 0 1 24.528 29a8.5 8.5 0 0 1-5.556-1.806l.617-.787a7.5 7.5 0 0 0 4.922 1.594l.02-.001.02.001a7.34 7.34 0 0 0 5.123-1.778zM20.5 19a1.5 1.5 0 1 1 0 2.999 1.5 1.5 0 0 1 0-2.999m8 0a1.5 1.5 0 1 1 0 2.999 1.5 1.5 0 0 1 0-2.999m-8 1a.5.5 0 1 0 0 .999.5.5 0 0 0 0-.999m8 0a.5.5 0 1 0 0 .999.5.5 0 0 0 0-.999m3.179-5.092a38 38 0 0 1-7.179.702 37.6 37.6 0 0 1-7.133-.702c.416.586 1.118 1.114 2.09 1.537 1.385.605 3.23.954 5.263.954s3.776-.349 5.053-.948c.897-.42 1.534-.95 1.906-1.543M37 5.406a6 6 0 0 1-.362.138c-.701.236-1.688.44-2.875.61-2.383.338-5.657.546-9.263.546s-6.88-.208-9.263-.547c-1.187-.169-2.174-.373-2.875-.609A6 6 0 0 1 12 5.406v6.022c.002.096.045.229.191.402.153.18.396.377.74.58.69.407 1.698.792 2.924 1.123 2.444.66 5.65 1.077 8.645 1.077 2.996 0 6.202-.41 8.647-1.066 1.225-.329 2.232-.712 2.92-1.12.344-.204.588-.402.74-.583.146-.173.19-.31.192-.411L37 11.4zM24.5 3c-3.574 0-6.8.207-9.122.537-1.165.166-2.082.36-2.697.567a3 3 0 0 0-.57.246c.121.072.307.158.57.247.615.207 1.532.4 2.697.566 2.323.33 5.548.537 9.122.537s6.8-.206 9.122-.537c1.165-.166 2.082-.36 2.697-.566.263-.089.448-.175.57-.247a3 3 0 0 0-.57-.246c-.615-.207-1.532-.401-2.697-.567C31.3 3.207 28.074 3 24.5 3"/></svg>