<svg xmlns="http://www.w3.org/2000/svg" width="24" height="24" version="1.1" viewBox="0 0 24 24">
  <path fill="#000" fill-rule="evenodd" stroke="none" stroke-width="1" d="M13.002,20.001 L13.002,21.001 L12.001,21.001 L12.001,20.001 L13.002,20.001 Z M7.999,18.999 L7.999,21.001 L6.999,21.001 L6.999,18.999 L7.999,18.999 Z M11,20.001 L11,21.001 L8.999,21.001 L8.999,20.001 L11,20.001 Z M19.001,16 L19.001,17.998 L20.001,17.998 L20.001,18.998 L19.001,18.998 L19.001,18 L18.001,18 L18.001,19.998 L19.001,19.998 L19.001,20.998 L17.001,20.998 L17.001,18.998 L16.001,18.998 L16.001,20.001 L15.001,20.001 L15.001,21.001 L14.001,21.001 L14.001,19.001 L15.001,19.001 L15.001,18.001 L18.001,17.998 L18.001,16 L19.001,16 Z M21.001,19.998 L21.001,20.998 L20.001,20.998 L20.001,19.998 L21.001,19.998 Z M9.9995,16.998 L10.0005,17.998 L11.0005,17.998 L11.0005,18.998 L8.9995,18.998 L8.9995,18 L7.9995,18 L7.9995,17 L8.9995,17 L8.9995,16.998 L9.9995,16.998 Z M14.002,17.998 L14.002,18.998 L12.001,18.998 L12.001,17.998 L14.002,17.998 Z M4,15 L4,17 L3,17 L3,15 L4,15 Z M21.001,15 L21.001,17 L20.001,17 L20.001,15 L21.001,15 Z M10,15 L10,16 L7.999,16 L7.999,16.998 L6.999,16.998 L6.999,15.998 L7.999,15.998 L7.999,15 L10,15 Z M17,10.997 L17,16.997 L11,16.997 L11,10.997 L17,10.997 Z M16,11.996 L12,11.996 L12,15.996 L16,15.996 L16,11.996 Z M21.001,13 L21.001,14 L20.001,14 L20.001,14.998 L18.001,14.998 L18.001,13.998 L20.001,13.998 L20.001,13 L21.001,13 Z M10,13 L10,14 L7.999,14 L7.999,14.998 L6.999,14.998 L6.999,13.998 L7.999,13.998 L7.999,13 L10,13 Z M15,12.997 L15,14.997 L13,14.997 L13,12.997 L15,12.997 Z M5.001,13 L5.001,14 L4,14 L4,13 L5.001,13 Z M21.001,11 L21.001,12 L20.001,12 L20.001,12.998 L18.001,12.998 L18.001,11.998 L20.001,11.998 L20.001,11 L21.001,11 Z M5.001,11 L5.001,12 L4,12 L4,12.997 L3,12.997 L3,11.996 L4,11.996 L4,11 L5.001,11 Z M10,9.998 L10,10.998 L8.999,10.998 L8.999,11.997 L6.999,11.997 L6.999,10.997 L8.999,10.997 L8.999,9.998 L10,9.998 Z M19.001,9.998 L20.001,9.998 L20.001,10.998 L18.001,11 L18.001,9 L17.001,8.998 L17.001,7.998 L19.001,7.9976 L19.001,6.9976 L21.001,6.9976 L21.001,8.9976 L20.001,8.9976 L20.001,7.9976 L19.001,7.998 L19.001,9.998 Z M5.001,9 L5.001,10 L4,10 L4,10.998 L3,10.998 L3,9.998 L4,9.998 L4,9 L5.001,9 Z M14.001,8 L14.001,10 L13.001,10 L13.001,9.998 L12.001,9.998 L12.001,8.998 L13.001,8.998 L13.001,8 L14.001,8 Z M8.9995,6.9961 L8.9995,7.9961 L7.9995,7.9961 L7.9995,10.0001 L6.9995,10.0001 L6.9995,6.9961 L8.9995,6.9961 Z M16,7 L16,8.998 L17,8.998 L17,9.998 L16,9.998 L16,9 L15,9 L15,7 L16,7 Z M13.0005,6.998 L13.0005,7.998 L10.9995,7.998 L10.9995,9 L8.9995,9 L8.9995,8 L9.9995,8 L9.9995,7 L10.0005,7 L10.0005,6.998 L13.0005,6.998 Z M5.001,6.996 L5.001,7.996 L3,7.996 L3,6.996 L5.001,6.996 Z M4.9995,2.9955 L4.9995,3.9955 L3.9995,3.9955 L3.9995,5.9995 L2.9995,5.9995 L2.9995,2.9955 L4.9995,2.9955 Z M10,3.999 L10,4.999 L8.999,4.999 L8.999,3.999 L10,3.999 Z M12.001,2.999 L12.001,4.999 L11.001,4.999 L11.001,2.999 L12.001,2.999 Z M8.9995,2.9971 L8.9995,3.9971 L6.9995,3.9971 L6.9995,4.9991 L4.9995,4.9991 L4.9995,3.9991 L5.9995,3.9991 L5.9995,2.9971 L8.9995,2.9971 Z M17.001,2.9971 L17.001,4.9971 L16.001,4.9971 L16.001,3.9971 L15.001,3.9971 L15.001,4.997 L13.001,4.997 L13.001,3.996 L15.001,3.996 L15.001,2.9971 L17.001,2.9971 Z"/>
</svg>
