<svg xmlns="http://www.w3.org/2000/svg" width="48" height="48" fill="none" viewBox="0 0 48 48"><path fill="#000" fill-rule="evenodd" d="M6.5 14.99H6V27H4v-1H3v3h1v-1h2v1.99h4.034a3.5 3.5 0 0 0 6.931 0h14.07a3.5 3.5 0 0 0 6.93 0H42V28h2v1h1v-3h-1v1h-2V14.99H6.5m9.452 15h-4.903a2.5 2.5 0 0 0 4.903 0m16.78 1.278a2.5 2.5 0 0 1-.684-1.278h4.904a2.5 2.5 0 0 1-4.22 1.278M7 25.99v-10h34v10zm0 1v2h34v-2zM11 25v-8h-1v8zm3 0v-8h-1v8zm3 0v-8h-1v8zm3 0v-8h-1v8zm3 0v-8h-1v8zm3 0v-8h-1v8zm3 0v-8h-1v8zm3 0v-8h-1v8zm3 0v-8h-1v8zm3 0v-8h-1v8z" clip-rule="evenodd"/></svg>