<svg class="color-immutable" xmlns="http://www.w3.org/2000/svg" width="59" height="20" fill="none" viewBox="0 0 59 20"><g clip-path="url(#a)"><path fill="#EB0000" fill-rule="evenodd" d="M2 0a2 2 0 0 0-2 2v16a2 2 0 0 0 2 2h55a2 2 0 0 0 2-2V2a2 2 0 0 0-2-2z" clip-rule="evenodd"/><path fill="#fff" fill-rule="evenodd" d="M51.256 7.123h2.191a3.9 3.9 0 0 0-.748-1.875q-1.017-1.29-2.933-1.289a3.75 3.75 0 0 0-3.209 1.621q-1.215 1.678-1.214 4.636 0 2.769 1.135 4.315 1.135 1.545 3.178 1.546a3.84 3.84 0 0 0 2.727-1.068q1.261-1.185 1.261-3.14a4.05 4.05 0 0 0-.938-2.737 3.26 3.26 0 0 0-2.609-1.155 3 3 0 0 0-1.415.309c-.44.25-.82.595-1.108 1.012a9.3 9.3 0 0 1 .355-1.938q.536-1.574 1.813-1.574 1.206 0 1.514 1.337m-3.027 3.346a1.53 1.53 0 0 1 1.316-.696 1.64 1.64 0 0 1 1.411.736c.291.425.44.931.426 1.447a2.43 2.43 0 0 1-.473 1.495 1.59 1.59 0 0 1-1.332.672 1.55 1.55 0 0 1-1.34-.703 2.5 2.5 0 0 1-.45-1.48 2.46 2.46 0 0 1 .442-1.471" clip-rule="evenodd"/><path fill="#fff" d="M4.28 16 6.707 4.483h2.409L6.69 16zM8.939 16l2.409-11.517h2.722c2.129 0 4.587-.033 4.587 2.723 0 1.98-1.485 3.036-3.366 3.069v.032c.627.034 1.023.43 1.172 1.057L17.568 16h-2.425l-.561-2.706c-.264-1.22-.198-2.079-1.452-2.079h-.875L11.25 16zm4.372-9.702L12.668 9.4h.841c1.238 0 2.74-.38 2.74-1.897 0-1.205-1.04-1.205-1.98-1.205zM19.19 16l2.426-11.517h6.782l-.347 1.815h-4.504l-.594 2.838h4.026l-.363 1.815h-4.043l-.676 3.234h4.554L26.055 16z"/></g><defs><clipPath id="a"><path fill="#fff" d="M0 0h59v20H0z"/></clipPath></defs></svg>