<svg xmlns="http://www.w3.org/2000/svg" width="36" height="36" fill="none" viewBox="0 0 36 36"><path fill="#000" fill-rule="evenodd" d="M16.5 11.75h3v-1h-3zm-4.75 1.5a4.5 4.5 0 0 0-4.5 4.5v.5a4.5 4.5 0 0 0 4.5 4.5h12.5a4.5 4.5 0 0 0 4.5-4.5v-.5a4.5 4.5 0 0 0-4.5-4.5zm15.663 9.5a5.5 5.5 0 0 0 2.337-4.5v-.5a5.5 5.5 0 0 0-5.5-5.5h-12.5a5.5 5.5 0 0 0-5.5 5.5v.5c0 1.86.923 3.505 2.337 4.5H6.25v1.5h-2V22.5h-1V27h1v-1.75h2v1.5h1.5V27a2.75 2.75 0 1 0 5.5 0v-.25h9.5V27a2.75 2.75 0 1 0 5.5 0v-.25h1.5v-1.5h2V27h1v-4.5h-1v1.75h-2v-1.5h-2.337M8.75 27v-.25h3.5V27a1.75 1.75 0 1 1-3.5 0m15.5-3.25h-17v2h21.5v-2zm3 3h-3.5V27a1.75 1.75 0 1 0 3.5 0z" clip-rule="evenodd"/></svg>