<svg xmlns="http://www.w3.org/2000/svg" width="36" height="36" version="1.1" viewBox="0 0 36 36">
  <path fill="none" fill-rule="evenodd" stroke="#000" stroke-width="1" d="M21,33 L22.5,29.25 M30,29.25 L31.5,33 M32.25,23.25 L20.25,23.25 M30,15.75 L22.5,15.75 M32.25,29.25 L20.25,29.25 L20.25,21.057 C20.25,19.782 21.2835,18.75 22.5585,18.75 L29.9415,18.75 C31.2165,18.75 32.25,19.782 32.25,21.057 L32.25,29.25 Z M28.94895,26.10645 C28.94895,25.85895 28.74795,25.65645 28.50045,25.65645 C28.25145,25.65645 28.05045,25.85895 28.05045,26.10645 C28.05045,26.35395 28.25145,26.55645 28.50045,26.55645 C28.74795,26.55645 28.94895,26.35395 28.94895,26.10645 Z M24.44895,26.10645 C24.44895,25.85895 24.24795,25.65645 24.00045,25.65645 C23.75145,25.65645 23.55045,25.85895 23.55045,26.10645 C23.55045,26.35395 23.75145,26.55645 24.00045,26.55645 C24.24795,26.55645 24.44895,26.35395 24.44895,26.10645 Z M26.25,17.05815 L26.25,18.75015 L26.25,17.05815 L26.25,15.75015 L26.25,17.05815 Z M4.66995,20.36865 L6.76695,17.56365 L9.28695,16.95165 L13.23795,18.31365 L14.32845,20.12865 L16.88295,19.26915 L18.00045,19.63515 M16.5132,27.7266 C16.2612,27.7416 16.0047,27.7506 15.7482,27.7506 C9.1212,27.7506 3.7482,22.3776 3.7482,15.7506 C3.7482,9.1236 9.1212,3.7506 15.7482,3.7506 C21.4737,3.7506 26.2632,7.7586 27.4602,13.1241 M9.0828,5.77005 L10.6308,6.73905 L12.6288,6.73905 L13.3383,3.99105 M22.1382,5.59125 L20.1852,7.01025 L18.9852,8.92575 L15.4917,8.30475 L12.9702,10.95975 L9.4767,12.43425 L8.8842,13.34475 L12.3567,14.43525 L17.6382,13.43325 L18.5712,13.90275 L19.4997,16.49925"/>
</svg>
