<?xml version="1.0" encoding="utf-8"?>
<!-- Generator: Adobe Illustrator 24.2.0, SVG Export Plug-In . SVG Version: 6.00 Build 0)  -->
<svg version="1.0" xmlns="http://www.w3.org/2000/svg" xmlns:xlink="http://www.w3.org/1999/xlink" x="0px" y="0px"
	 viewBox="0 0 60 24" enable-background="new 0 0 60 24" xml:space="preserve">
<g id="SVG_x5F_24x24pt">
	<path id="backgroundBlue" fill="#2D327D" d="M0,22.5v-21C0,0.675,0.675,0,1.5,0h57C59.325,0,60,0.675,60,1.5v21
		c0,0.825-0.675,1.5-1.5,1.5h-57C0.675,24,0,23.325,0,22.5z"/>
	<g id="content">
		<path fill="#FFFFFF" d="M19.828,0.54c12.664,0,24.095,5.367,32.149,13.94l-0.504-11.6L55.5,6.907V21H41.407l-4.027-4.026
			l11.577,0.503l0.021,0.001C41.693,9.672,31.323,4.781,19.828,4.781c-5.051,0-9.885,0.946-14.336,2.667L3.968,3.49
			C8.892,1.587,14.24,0.54,19.828,0.54z"/>
	</g>
</g>
</svg>
