<?xml version="1.0" encoding="utf-8"?>
<!-- Generator: Adobe Illustrator 24.2.0, SVG Export Plug-In . SVG Version: 6.00 Build 0)  -->
<svg version="1.0" id="Ebene_1" xmlns="http://www.w3.org/2000/svg" xmlns:xlink="http://www.w3.org/1999/xlink" x="0px" y="0px"
	 viewBox="0 0 24 24" enable-background="new 0 0 24 24" xml:space="preserve">
<g id="SVG_x5F_24x24pt">
	<path id="backgroundBlue" fill="#2D327D" d="M0,22.5v-21C0,0.675,0.675,0,1.5,0h21C23.325,0,24,0.675,24,1.5v21
		c0,0.825-0.675,1.5-1.5,1.5h-21C0.675,24,0,23.325,0,22.5z"/>
	<g id="content">
		<g>
			<path fill="#FFFFFF" d="M13.224,12.755L10.991,21H9.186l-1.427-5.888L6.377,21H4.55l-2.199-8.245h1.81l1.325,6.057l1.449-6.057
				h1.703l1.449,6.012l1.342-6.012H13.224z"/>
			<path fill="#FFFFFF" d="M21.221,17.819c-0.06,0.853-0.346,1.583-0.857,2.188c-0.669,0.793-1.617,1.19-2.842,1.19
				c-1.305,0-2.32-0.461-3.045-1.382c-0.62-0.786-0.931-1.767-0.931-2.944c0-1.233,0.368-2.261,1.105-3.085
				c0.737-0.82,1.716-1.229,2.938-1.229c1.139,0,2.057,0.376,2.752,1.128c0.496,0.53,0.771,1.141,0.823,1.833h-1.776
				c-0.098-0.466-0.306-0.826-0.626-1.08c-0.32-0.254-0.724-0.381-1.213-0.381c-0.782,0-1.367,0.329-1.754,0.987
				c-0.29,0.5-0.434,1.113-0.434,1.839c0,0.744,0.152,1.365,0.457,1.861c0.387,0.635,0.961,0.953,1.72,0.953
				c0.541,0,0.973-0.16,1.294-0.479c0.321-0.32,0.52-0.786,0.595-1.399H21.221z"/>
		</g>
	</g>
</g>
</svg>
