<svg xmlns="http://www.w3.org/2000/svg" width="24" height="24" fill="none" viewBox="0 0 24 24"><path fill="#000" fill-rule="evenodd" d="M6.022 9c.065-.715.266-1.39.578-2h1.68a11 11 0 0 0-.27 2zm1.989 1H6.022c.065.715.266 1.39.578 2h1.68a11 11 0 0 1-.27-2m1.297 2a10 10 0 0 1-.296-2H11v2zM12 12v-2h1.988c-.033.7-.136 1.37-.296 2zm-2.374 1H11v1.978a6 6 0 0 1-.301-.036A7.7 7.7 0 0 1 9.626 13M12 13v1.978q.152-.014.301-.036A7.7 7.7 0 0 0 13.374 13zm0-6v2h1.988a10 10 0 0 0-.296-2zm-1 2V7H9.308a10 10 0 0 0-.296 2zm2.374-3H12V4.022q.152.014.302.036c.427.554.792 1.21 1.072 1.942M11 6V4.022q-.152.014-.302.036A7.7 7.7 0 0 0 9.626 6zm-2.437 7H7.257a5.5 5.5 0 0 0 1.968 1.509A9.4 9.4 0 0 1 8.563 13m.662-8.509A5.5 5.5 0 0 0 7.257 6h1.306q.273-.804.662-1.509M14.989 9a11 11 0 0 0-.268-2h1.68c.31.61.512 1.285.577 2zm0 1c-.03.692-.122 1.362-.269 2h1.68c.312-.61.513-1.285.578-2zm-.552 3a9.4 9.4 0 0 1-.662 1.509A5.5 5.5 0 0 0 15.743 13zm-.662-8.509c.258.468.48.974.662 1.509h1.306a5.5 5.5 0 0 0-1.968-1.509M11.5 3a6.5 6.5 0 1 0 0 13 6.5 6.5 0 0 0 0-13M8 20H6a1 1 0 1 0 2 0m-3 0H4v-1H3v1H2v-3h1v1h1v-1h16v1h1v-1h1v3h-1v-1h-1v1h-1a2 2 0 1 1-4 0H9a2 2 0 1 1-4 0m12 1a1 1 0 0 1-1-1h2a1 1 0 0 1-1 1M5 18v1h14v-1z" clip-rule="evenodd"/></svg>