<svg class="color-immutable" xmlns="http://www.w3.org/2000/svg" width="59" height="20" fill="none" viewBox="0 0 59 20"><path fill="#E84E10" fill-rule="evenodd" d="M2 0a2 2 0 0 0-2 2v16a2 2 0 0 0 2 2h55a2 2 0 0 0 2-2V2a2 2 0 0 0-2-2z" clip-rule="evenodd"/><path fill="#000" d="M14.153 4.17v2.142H7.98v2.476h5.657v1.991H7.98v2.849h6.284v2.142H5.45V4.17zM25.311 4.17l-3.856 11.6h-2.88l-3.8-11.6h2.65l2.61 8.688 2.65-8.688zM33.034 4.17v2.063H28.36l-.5 2.61q.842-.888 2.15-.888 1.286 0 2.238.69 1.413 1.039 1.413 3.158 0 2.079-1.508 3.293-1.175.951-2.809.952-1.84 0-2.96-.984-1.118-.992-1.182-2.674h2.278q.055.61.396 1.04.533.674 1.476.674.913 0 1.444-.659.516-.643.516-1.563 0-1-.54-1.595-.54-.603-1.436-.603-1.095 0-1.706.984l-2.07-.031 1.102-6.467zM36.075 9.542q-.81-.279-1.246-.913-.428-.634-.428-1.54 0-1.507 1.237-2.403 1.095-.795 2.603-.794 1.714 0 2.801.944 1.032.889 1.032 2.198 0 .914-.437 1.563-.435.651-1.238.944.627.183 1.024.469 1.103.801 1.103 2.34 0 1.77-1.357 2.817-1.143.88-2.936.88-1.944 0-3.094-.967-1.2-1.008-1.199-2.642 0-1.532 1.064-2.373.484-.372 1.07-.524m2.134-3.849q-.761 0-1.23.429-.468.42-.468 1.11 0 .723.468 1.159.477.429 1.27.428.794 0 1.254-.428t.46-1.166q0-.723-.468-1.127-.46-.405-1.286-.405m-.016 4.721q-.856 0-1.404.532-.54.524-.54 1.349 0 .849.548 1.38.555.532 1.436.532 1 0 1.5-.587.483-.564.484-1.301 0-.841-.556-1.381-.53-.524-1.468-.524"/></svg>