<svg xmlns="http://www.w3.org/2000/svg" width="23" height="16" fill="none" viewBox="0 0 23 16"><path fill="#000" fill-rule="evenodd" d="M19 1a3 3 0 0 1 3 3v8a3 3 0 0 1-3 3H4l-.154-.004A3 3 0 0 1 1 12V4a3 3 0 0 1 2.846-2.996L4 1zM3.554 13.433q.211.066.446.067h15q.222-.002.424-.062l-7.94-4.852zm8.89-5.434 7.831 4.787A1.5 1.5 0 0 0 20.5 12V4c0-.289-.083-.558-.225-.787zm-9.73-4.772c-.135.225-.214.49-.214.773v8c0 .283.079.547.215.773l7.81-4.774zM4 2.5a1.5 1.5 0 0 0-.446.066l7.93 4.847 7.94-4.851A1.5 1.5 0 0 0 19 2.5z" clip-rule="evenodd"/></svg>