<svg xmlns="http://www.w3.org/2000/svg" width="24" height="24" fill="none" viewBox="0 0 24 24"><path fill="#000" fill-rule="evenodd" d="M12 5.5a.5.5 0 1 1 1 0 .5.5 0 0 1-1 0m.5-1.5a1.5 1.5 0 0 0-1.354 2.147l-5 5a1.5 1.5 0 1 0 0 2.708l5 4.998a1.5 1.5 0 1 0 2.708 0l5-5a1.5 1.5 0 1 0 0-2.708l-5-4.998A1.5 1.5 0 0 0 12.5 4m5.585 9H14.95A2.5 2.5 0 0 1 13 14.95v3.135q.075.027.147.061l5-5a2 2 0 0 1-.062-.146m0-1H14.95A2.5 2.5 0 0 0 13 10.05V6.915q.076-.027.147-.061l5 5a2 2 0 0 0-.062.146m-8.035 1c.199.98.97 1.75 1.95 1.95v3.136q-.076.026-.147.06l-5-5q.035-.07.062-.147zm-3.196-1.147a2 2 0 0 1 .06.146h3.136c.2-.979.97-1.75 1.95-1.949V6.915q-.076-.027-.147-.061zM12.5 11a1.5 1.5 0 1 0 0 3 1.5 1.5 0 0 0 0-3m7 1a.5.5 0 1 0 0 1 .5.5 0 0 0 0-1M12 19.5a.5.5 0 1 1 1 0 .5.5 0 0 1-1 0M5.5 12a.5.5 0 1 0 0 1 .5.5 0 0 0 0-1" clip-rule="evenodd"/></svg>