<svg width="24" height="24" viewBox="0 0 24 24" fill="none" xmlns="http://www.w3.org/2000/svg"><path fill-rule="evenodd" clip-rule="evenodd" d="M10.436 2.122a10.07 10.07 0 0 1 3.128 0l-.155.988a9.07 9.07 0 0 0-2.818 0l-.155-.988Zm5.149.54c.988.38 1.9.911 2.709 1.566l-.63.777a8.99 8.99 0 0 0-2.438-1.41l.359-.933ZM5.706 4.228a9.99 9.99 0 0 1 2.71-1.566l.358.933a8.99 8.99 0 0 0-2.438 1.41l-.63-.777Zm14.066 1.478a9.99 9.99 0 0 1 1.566 2.71l-.933.358a8.99 8.99 0 0 0-1.41-2.438l.777-.63Zm-17.11 2.71a9.99 9.99 0 0 1 1.566-2.71l.777.63a8.99 8.99 0 0 0-1.41 2.438l-.933-.359Zm19.216 2.02a10.075 10.075 0 0 1 0 3.128l-.988-.155a9.07 9.07 0 0 0 0-2.818l.988-.155ZM2 12c0-.532.042-1.054.122-1.564l.988.155a9.07 9.07 0 0 0 0 2.818l-.988.155A10.07 10.07 0 0 1 2 12Zm19.338 3.585c-.38.988-.911 1.9-1.566 2.709l-.777-.63a8.991 8.991 0 0 0 1.41-2.438l.933.359Zm-17.11 2.709a9.99 9.99 0 0 1-1.566-2.71l.933-.358a8.99 8.99 0 0 0 1.41 2.438l-.777.63Zm14.066 1.478a9.991 9.991 0 0 1-2.71 1.566l-.358-.933a8.991 8.991 0 0 0 2.438-1.41l.63.777Zm-9.879 1.566a9.99 9.99 0 0 1-2.709-1.566l.63-.777a8.99 8.99 0 0 0 2.438 1.41l-.359.933ZM12 22c-.532 0-1.054-.042-1.564-.122l.155-.988a9.07 9.07 0 0 0 2.818 0l.155.988c-.51.08-1.032.122-1.564.122Z" fill="#000"/></svg>