<svg xmlns="http://www.w3.org/2000/svg" width="24" height="24" fill="none" viewBox="0 0 24 24"><path fill="#000" fill-rule="evenodd" d="M10.436 2.122a10 10 0 0 1 3.128 0l-.155.988a9 9 0 0 0-2.818 0zm5.149.54c.988.38 1.9.911 2.709 1.566l-.63.777a9 9 0 0 0-2.438-1.41zM5.706 4.228a10 10 0 0 1 2.71-1.566l.358.933a9 9 0 0 0-2.438 1.41zm14.066 1.478a10 10 0 0 1 1.566 2.71l-.933.358a9 9 0 0 0-1.41-2.438zm-17.11 2.71a10 10 0 0 1 1.566-2.71l.777.63a9 9 0 0 0-1.41 2.438zm19.216 2.02a10 10 0 0 1 0 3.128l-.988-.155a9 9 0 0 0 0-2.818zM2 12q.001-.799.122-1.564l.988.155a9 9 0 0 0 0 2.818l-.988.155A10 10 0 0 1 2 12m19.338 3.585c-.38.988-.911 1.9-1.566 2.709l-.777-.63a9 9 0 0 0 1.41-2.438zm-17.11 2.709a10 10 0 0 1-1.566-2.71l.933-.358a9 9 0 0 0 1.41 2.438zm14.066 1.478a10 10 0 0 1-2.71 1.566l-.358-.933a9 9 0 0 0 2.438-1.41zm-9.879 1.566a10 10 0 0 1-2.709-1.566l.63-.777a9 9 0 0 0 2.438 1.41zM12 22q-.799-.001-1.564-.122l.155-.988a9 9 0 0 0 2.818 0l.155.988Q12.798 22 12 22" clip-rule="evenodd"/></svg>