<?xml version="1.0" encoding="utf-8"?>
<!-- Generator: Adobe Illustrator 24.2.0, SVG Export Plug-In . SVG Version: 6.00 Build 0)  -->
<svg version="1.0" id="_x3C_Ebene_x3E_" xmlns="http://www.w3.org/2000/svg" xmlns:xlink="http://www.w3.org/1999/xlink" x="0px"
	 y="0px" viewBox="0 0 24 24" enable-background="new 0 0 24 24" xml:space="preserve">
<g id="SVG_x5F_24x24pt">
	<path id="backgroundBlue" fill="#2D327D" d="M0,22.5v-21C0,0.675,0.675,0,1.5,0h21C23.325,0,24,0.675,24,1.5v21
		c0,0.825-0.675,1.5-1.5,1.5h-21C0.675,24,0,23.325,0,22.5z"/>
	<g id="content">
		<path fill="#FFFFFF" d="M3,7.508h5.445c0.917,0,1.638,0.057,2.164,0.171c0.526,0.114,1.001,0.315,1.426,0.604
			c1.175,0.788,1.763,1.975,1.763,3.562c0,1.409-0.486,2.516-1.458,3.322c-0.412,0.345-0.883,0.592-1.412,0.743
			c-0.529,0.151-1.181,0.226-1.956,0.226H5.944V21H3V7.508z M5.944,10v3.821h2.63c0.781,0,1.344-0.138,1.689-0.415
			c0.425-0.344,0.637-0.852,0.637-1.523c0-0.677-0.246-1.181-0.738-1.513C9.804,10.123,9.223,10,8.417,10H5.944z"/>
		<path fill="#FFFFFF" d="M3.214,3h0.907c0.153,0,0.273,0.009,0.361,0.028C4.57,3.047,4.649,3.081,4.72,3.129
			C4.915,3.26,5.013,3.458,5.013,3.723c0,0.235-0.081,0.419-0.243,0.554C4.702,4.334,4.623,4.375,4.535,4.4
			C4.447,4.426,4.338,4.438,4.209,4.438H3.704v0.811H3.214V3z M3.704,3.415v0.637h0.438c0.13,0,0.224-0.023,0.281-0.069
			C4.495,3.925,4.53,3.841,4.53,3.729c0-0.113-0.041-0.197-0.123-0.252C4.348,3.436,4.251,3.415,4.117,3.415H3.704z"/>
		<path fill="#FFFFFF" d="M5.272,4.298V3.997h0.624V3.371h0.301v0.626h0.626v0.301H6.198v0.624H5.896V4.298H5.272z"/>
		<path fill="#FFFFFF" d="M7.197,3h1.089c0.215,0,0.38,0.034,0.495,0.102C8.877,3.157,8.95,3.231,9,3.323s0.075,0.196,0.075,0.312
			c0,0.131-0.032,0.246-0.095,0.343C8.918,4.076,8.83,4.145,8.717,4.187c0.099,0.025,0.177,0.08,0.234,0.166
			c0.036,0.054,0.06,0.111,0.072,0.171C9.035,4.584,9.051,4.72,9.071,4.932c0.014,0.156,0.036,0.253,0.066,0.291l0.022,0.026H8.646
			c-0.017-0.032-0.03-0.072-0.038-0.122s-0.018-0.163-0.03-0.341c-0.012-0.159-0.051-0.269-0.116-0.33
			C8.397,4.395,8.286,4.364,8.13,4.364H7.688v0.884H7.197V3z M7.688,3.386v0.618h0.469c0.151,0,0.257-0.022,0.318-0.065
			c0.078-0.054,0.117-0.136,0.117-0.246c0-0.107-0.033-0.185-0.1-0.234C8.426,3.411,8.321,3.386,8.177,3.386H7.688z"/>
		<path fill="#FFFFFF" d="M10.957,5.249h-0.455c-0.019-0.066-0.029-0.122-0.029-0.168c-0.139,0.143-0.319,0.214-0.54,0.214
			c-0.172,0-0.307-0.04-0.403-0.12C9.418,5.083,9.363,4.954,9.363,4.789c0-0.21,0.095-0.356,0.285-0.437
			c0.077-0.033,0.218-0.063,0.425-0.091c0.177-0.024,0.288-0.046,0.331-0.068c0.044-0.022,0.065-0.066,0.065-0.133
			c0-0.147-0.097-0.22-0.292-0.22c-0.104,0-0.179,0.018-0.227,0.055C9.902,3.932,9.871,3.996,9.855,4.087H9.434
			C9.447,3.901,9.517,3.76,9.645,3.665s0.308-0.142,0.543-0.142c0.259,0,0.451,0.053,0.575,0.158
			c0.057,0.049,0.096,0.102,0.115,0.158s0.028,0.146,0.028,0.268c0,0.026-0.002,0.138-0.005,0.338
			c-0.002,0.202-0.003,0.318-0.003,0.348c0,0.122,0.004,0.211,0.011,0.268C10.916,5.119,10.932,5.181,10.957,5.249z M10.466,4.438
			c-0.057,0.036-0.162,0.064-0.314,0.085C10.045,4.539,9.969,4.56,9.921,4.586c-0.067,0.036-0.1,0.097-0.1,0.183
			c0,0.07,0.022,0.124,0.066,0.163C9.932,4.971,9.993,4.99,10.072,4.99c0.131,0,0.237-0.046,0.318-0.138
			c0.029-0.032,0.048-0.065,0.059-0.099c0.011-0.034,0.016-0.08,0.016-0.136V4.438z"/>
		<path fill="#FFFFFF" d="M11.702,3v0.401h-0.446V3H11.702z M11.702,3.572v1.677h-0.446V3.572H11.702z"/>
		<path fill="#FFFFFF" d="M12.515,3v2.249h-0.446V3H12.515z"/>
	</g>
</g>
</svg>
