<svg xmlns="http://www.w3.org/2000/svg" width="24" height="24" viewBox="0 0 24 24">
  <g fill="none" fill-rule="evenodd">
    <path fill="#000" d="M12.9805,13 C13.4655,13 13.8705,13.13 14.1945,13.388 C14.5475,13.668 14.7245,14.045 14.7245,14.521 C14.7245,14.933 14.5845,15.289 14.3005,15.588 C14.2095,15.687 14.1225,15.765 14.0415,15.823 C13.9605,15.882 13.7485,16.025 13.4045,16.249 C13.0765,16.463 12.8425,16.627 12.7005,16.74 C12.5595,16.854 12.4295,16.983 12.3075,17.131 L14.7505,17.131 L14.7505,18 L11.0005,18 C11.0005,17.734 11.0455,17.481 11.1385,17.241 C11.2295,17.002 11.3585,16.794 11.5245,16.62 C11.6525,16.487 11.8025,16.356 11.9755,16.23 C12.1465,16.103 12.4895,15.87 13.0015,15.532 C13.2515,15.368 13.4255,15.218 13.5245,15.077 C13.6255,14.937 13.6745,14.774 13.6745,14.59 C13.6745,14.376 13.6075,14.203 13.4725,14.07 C13.3385,13.938 13.1635,13.872 12.9445,13.872 C12.4075,13.872 12.1325,14.233 12.1145,14.957 L11.1155,14.957 L11.1155,14.851 C11.1155,14.258 11.2915,13.799 11.6455,13.476 C11.9885,13.158 12.4345,13 12.9805,13 Z M8,7 L8,12 L6.854,12 L6.854,8.727 L5.5,8.727 L5.5,8.001 C5.782,7.995 6.01,7.971 6.188,7.927 C6.364,7.883 6.525,7.812 6.673,7.715 C6.885,7.573 7.027,7.334 7.1,7 L8,7 Z"/>
    <path stroke="#000" d="M4.5,5.5 C3.396,5.5 2.5,6.396 2.5,7.5 L2.5,17.5 C2.5,18.604 3.396,19.5 4.5,19.5 L19.5,19.5 C20.604,19.5 21.5,18.604 21.5,17.5 L21.5,7.5 C21.5,6.396 20.604,5.5 19.5,5.5 L4.5,5.5 Z M6,17 L14,8"/>
  </g>
</svg>
