<svg xmlns="http://www.w3.org/2000/svg" width="48" height="48" version="1.1" viewBox="0 0 48 48">
  <path fill="none" fill-rule="evenodd" stroke="#000" stroke-width="1" d="M35.8135,35.8135 C29.5475,42.0795 19.4525,42.0795 13.1865,35.8135 C6.9205,29.5475 6.9205,19.4525 13.1865,13.1865 M30.8643,30.8638 C27.3403,34.3888 21.6603,34.3888 18.1353,30.8638 C14.6113,27.3398 14.6113,21.6608 18.1353,18.1358 M8.5,24.5 L3,24.5 M40.5,24.5 L45.999,24.5 M24.5,40.5 L24.5,46 M24.5,8.5 L24.5,3 M3,3 L46,46 M32.5273,28.5273 C33.1373,27.3143 33.5003,25.9553 33.5003,24.5003 C33.5003,19.5153 29.4843,15.5003 24.5003,15.5003 C23.0453,15.5003 21.6853,15.8623 20.4723,16.4723 M37.625,33.6255 C39.427,31.0385 40.5,27.9035 40.5,24.5005 C40.5,15.6385 33.361,8.5005 24.5,8.5005 C21.096,8.5005 17.962,9.5735 15.375,11.3745"/>
</svg>
