<?xml version="1.0" encoding="utf-8"?>
<!-- Generator: Adobe Illustrator 24.2.0, SVG Export Plug-In . SVG Version: 6.00 Build 0)  -->
<svg version="1.0" id="Ebene_1" xmlns="http://www.w3.org/2000/svg" xmlns:xlink="http://www.w3.org/1999/xlink" x="0px" y="0px"
	 viewBox="0 0 24 24" enable-background="new 0 0 24 24" xml:space="preserve">
<g id="SVG_x5F_24x24pt">
	<path id="backgroundBlue" fill="#2D327D" d="M0,22.5v-21C0,0.675,0.675,0,1.5,0h21C23.325,0,24,0.675,24,1.5v21
		c0,0.825-0.675,1.5-1.5,1.5h-21C0.675,24,0,23.325,0,22.5z"/>
	<g id="content">
		<path fill="#FFFFFF" d="M4.293,13.511c0-0.942,0.765-1.706,1.706-1.706c0.942,0,1.706,0.764,1.706,1.706
			c0,0.942-0.764,1.706-1.706,1.706C5.057,15.217,4.293,14.452,4.293,13.511L4.293,13.511z M6.937,13.511
			c0-0.518-0.42-0.938-0.938-0.938c-0.517,0-0.937,0.42-0.937,0.938c0,0.517,0.42,0.937,0.937,0.937
			C6.517,14.448,6.937,14.028,6.937,13.511L6.937,13.511z"/>
		<path fill="#FFFFFF" d="M18.749,18.534c0-0.776,0.63-1.406,1.406-1.406c0.304,0,0.6,0.099,0.844,0.281v2.25
			c-0.243,0.183-0.539,0.281-0.844,0.281C19.379,19.94,18.749,19.31,18.749,18.534L18.749,18.534z"/>
		<path fill="#FFFFFF" d="M3.329,10.136L3.329,10.136l2.251-2.25c0.211-0.211,0.497-0.33,0.796-0.33h6.484
			c0.298,0,0.584,0.119,0.795,0.33l0,0l2.614,2.614l4.388,0.364C20.851,10.88,21,11.042,21,11.237v2.338
			c0,0.207-0.168,0.375-0.375,0.375h-0.412v-0.431c0-1.242-1.008-2.25-2.25-2.25c-1.242,0-2.25,1.008-2.25,2.25l0,0v0.431H8.25
			v-0.431c0-1.242-1.008-2.25-2.25-2.25c-1.242,0-2.25,1.008-2.25,2.25v0.431H3.375C3.168,13.95,3,13.782,3,13.575v-2.643
			C3,10.633,3.118,10.347,3.329,10.136L3.329,10.136z M10.087,10.182c0.001,0.207,0.168,0.374,0.375,0.374h4.259
			c0.124,0,0.225-0.101,0.225-0.225c0-0.06-0.024-0.117-0.066-0.159l-1.793-1.794l0,0c-0.07-0.07-0.166-0.11-0.265-0.11h-2.36
			c-0.207,0-0.375,0.168-0.375,0.375V10.182L10.087,10.182z M4.513,10.556h4.485c0.207,0,0.375-0.168,0.375-0.375V8.644
			c0-0.207-0.168-0.375-0.375-0.375H6.413c-0.099,0-0.195,0.04-0.265,0.11l-1.793,1.794c-0.042,0.042-0.066,0.099-0.066,0.159
			C4.288,10.456,4.389,10.556,4.513,10.556L4.513,10.556z"/>
		<polygon fill="#FFFFFF" points="3,15.6 21,15.6 21,16.763 3,16.763 3,15.6 		"/>
		<polygon fill="#FFFFFF" points="3,20.25 21,20.25 21,20.962 3,20.962 3,20.25 		"/>
		<path fill="#FFFFFF" d="M15.188,18.528c0-0.776,0.63-1.406,1.406-1.406c0.776,0,1.406,0.63,1.406,1.406
			c0,0.776-0.63,1.406-1.406,1.406C15.819,19.935,15.188,19.305,15.188,18.528L15.188,18.528z"/>
		<path fill="#FFFFFF" d="M7.918,18.528c0-0.776,0.63-1.406,1.406-1.406c0.776,0,1.406,0.63,1.406,1.406
			c0,0.776-0.63,1.406-1.406,1.406C8.548,19.935,7.918,19.305,7.918,18.528L7.918,18.528z"/>
		<path fill="#FFFFFF" d="M4.311,18.528c0-0.776,0.63-1.406,1.406-1.406c0.776,0,1.406,0.63,1.406,1.406
			c0,0.776-0.63,1.406-1.406,1.406C4.941,19.935,4.311,19.305,4.311,18.528L4.311,18.528z"/>
		<path fill="#FFFFFF" d="M16.241,13.511c0-0.942,0.765-1.706,1.706-1.706c0.942,0,1.706,0.764,1.706,1.706
			c0,0.942-0.764,1.706-1.706,1.706C17.006,15.217,16.241,14.452,16.241,13.511L16.241,13.511z M18.885,13.511
			c0-0.518-0.42-0.938-0.937-0.938c-0.518,0-0.937,0.42-0.937,0.938c0,0.517,0.42,0.937,0.937,0.937
			C18.465,14.448,18.885,14.028,18.885,13.511L18.885,13.511z"/>
	</g>
</g>
</svg>
