<svg class="color-immutable" xmlns="http://www.w3.org/2000/svg" width="59" height="20" fill="none" viewBox="0 0 59 20"><g clip-path="url(#a)"><path stroke="#fff" d="M2 .5h55A1.5 1.5 0 0 1 58.5 2v16a1.5 1.5 0 0 1-1.5 1.5H2A1.5 1.5 0 0 1 .5 18V2A1.5 1.5 0 0 1 2 .5Z"/><path fill="#fff" d="M4.069 4.224h5.704q1.692 0 2.594.532.749.434 1.144 1.16.395.725.395 1.635 0 1.032-.5 1.797-.491.765-1.377 1.096.78.192 1.224.87.282.426.379.894.097.467.25 2.135.112 1.224.346 1.523l.113.137h-2.683a2 2 0 0 1-.201-.637q-.058-.387-.154-1.788-.096-1.25-.612-1.724-.507-.484-1.74-.484H6.639v4.633h-2.57zm2.57 2.022v3.239h2.457q1.184 0 1.668-.339.612-.426.612-1.289 0-.837-.524-1.224t-1.651-.387zM15.509 7.954q.04-1.45.717-2.433 1.096-1.58 3.295-1.58 1.692 0 2.731.863 1.12.935 1.12 2.417 0 .886-.443 1.53a2.14 2.14 0 0 1-1.184.863q.95.217 1.498.967.556.75.556 1.812 0 1.75-1.289 2.86-1.193 1.032-3.013 1.032-1.974 0-3.134-1.136-1.152-1.136-1.152-3.07v-.153h2.264q0 1.087.515 1.684.516.588 1.459.588.942 0 1.45-.556.467-.523.467-1.249 0-.87-.596-1.377-.491-.42-1.515-.42-.29 0-.572.033V8.897q.21.015.403.016 2.03 0 2.03-1.507 0-.66-.443-1.063-.442-.411-1.168-.411-.83 0-1.28.516-.453.514-.484 1.506zM32.34 4.224v2.095h-4.746l-.508 2.65q.855-.902 2.184-.902 1.305 0 2.272.7 1.434 1.056 1.434 3.207 0 2.111-1.53 3.344-1.194.966-2.853.967-1.87 0-3.005-1-1.136-1.006-1.2-2.714H26.7q.056.62.402 1.055.54.685 1.5.685.925 0 1.465-.669.525-.652.524-1.587 0-1.015-.548-1.62-.547-.612-1.458-.612-1.112 0-1.732 1l-2.103-.033 1.12-6.566z"/></g><defs><clipPath id="a"><path fill="#fff" d="M0 0h59v20H0z"/></clipPath></defs></svg>