<svg xmlns="http://www.w3.org/2000/svg" width="36" height="36" viewBox="0 0 36 36">
  <path fill="none" stroke="#000" d="M18.75,13.5003 L18.75,9.0003 M16.5,11.2503 L21,11.2503 M27.75,17.24955 C27.75,14.69955 29.7,12.74955 32.25,12.74955 L32.25,6.74955 L25.5,6.74955 L3.75,6.74955 L3.75,27.74955 L32.25,27.74955 L32.25,21.74955 C29.7,21.74955 27.75,19.79955 27.75,17.24955 Z M24.75,10.5003 L24.75,9.0003 M24.75,13.5003 L24.75,12.0003 M24.75,16.5003 L24.75,15.0003 M24.75,19.5003 L24.75,18.0003 M24.75,22.49955 L24.75,20.99955 M24.75,25.49955 L24.75,23.99955 M20.25,20.99955 L20.25,16.49955 M18,18.7503 L22.5,18.7503 M11.25,17.24955 C11.25,15.47655 12.033,13.90005 13.257,12.80055 C13.0875,12.78555 12.924,12.74955 12.75,12.74955 C9.4365,12.74955 6.75,15.43605 6.75,18.74955 C6.75,22.06305 9.4365,24.74955 12.75,24.74955 C14.2905,24.74955 15.681,24.15405 16.743,23.19855 C13.671,22.93755 11.25,20.39055 11.25,17.24955 Z"/>
</svg>
