<svg xmlns="http://www.w3.org/2000/svg" width="36" height="36" viewBox="0 0 36 36">
  <g fill="none" fill-rule="evenodd">
    <path fill="#000" d="M16.488,26.988 L8.988,26.988 L8.988,24.001 L7.488,24.001 L7.488,25.4895 L7.5,25.4895 L7.499,26.989 L10.488,26.9895 L10.488,28.4895 L12,28.4895 L11.999,29.989 L14.9895,29.9895 L14.9895,31.4895 L11.9895,31.4895 L11.989,30.001 L10.499,30.001 L10.5,31.5015 L8.988,31.5015 L8.988,29.9895 L10.487,29.989 L10.488,28.4895 L7.488,28.4895 L7.488,27.001 L5.988,27.0015 L5.988,25.4895 L4.488,25.4895 L4.488,23.9895 L7.487,23.989 L7.488,22.4895 L8.988,22.489 L8.988,20.9895 L6,20.9895 L6,22.5015 L4.488,22.5015 L4.488,20.9895 L5.988,20.9895 L5.988,19.4895 L7.487,19.489 L7.488,17.988 L8.988,17.987 L8.988,16.4895 L11.988,16.4895 L11.988,17.987 L13.5,17.988 L13.499,19.488 L14.989,19.488 L14.9895,17.9895 L16.487,17.989 L16.488,16.488 L17.987,16.487 L17.988,14.988 L19.5,14.988 L19.499,14.989 L21.0015,14.9895 L21.0015,17.9895 L19.4895,17.9895 L19.489,16.499 L17.999,16.499 L18,18 L17.989,17.999 L17.9895,19.4895 L19.5,19.4895 L19.499,20.99 L20.9895,20.991 L20.9895,22.491 L17.999,22.49 L17.999,23.989 L20.9895,23.9895 L20.9895,25.4895 L19.491,25.4895 L19.491,26.9895 L16.4895,26.9895 L16.4895,25.4895 L17.988,25.4895 L17.987,24.001 L16.488,24.001 L16.488,26.988 Z M16.4895,26.9895 L16.4895,28.4895 L18,28.4895 L17.999,29.989 L19.489,29.989 L19.4895,28.491 L21.0015,28.491 L21.0015,31.491 L19.499,31.49 L19.5,31.5015 L17.988,31.5015 L17.987,30.001 L16.488,30.0015 L16.488,28.4895 L13.4895,28.4895 L13.4895,26.9895 L16.4895,26.9895 Z M6,28.491 L5.999,29.989 L7.5,29.9895 L7.5,31.5015 L5.988,31.5015 L5.987,31.49 L4.488,31.491 L4.488,28.491 L6,28.491 Z M14.988,20.988 L10.488,20.988 L10.488,25.488 L14.988,25.488 L14.988,20.988 Z M13.5,22.4895 L13.5,24.0015 L11.988,24.0015 L11.988,22.4895 L13.5,22.4895 Z M16.488,22.489 L17.987,22.489 L17.988,19.4895 L16.488,19.489 L16.488,22.489 Z M11.987,17.989 L8.999,17.989 L8.999,19.488 L11.987,19.488 L11.987,17.989 Z M7.5,14.988 L7.5,16.5 L5.999,16.499 L6,17.9895 L4.488,17.9895 L4.488,14.9895 L5.987,14.989 L5.988,14.988 L7.5,14.988 Z M14.9895,14.9895 L14.9895,16.4895 L11.9895,16.4895 L11.9895,14.9895 L14.9895,14.9895 Z"/>
    <path stroke="#000" d="M26.24865,12.0012 C26.24865,13.2447 25.24065,14.2512 23.99865,14.2512 C22.75515,14.2512 21.74865,13.2447 21.74865,12.0012 C21.74865,10.7577 22.75515,9.7512 23.99865,9.7512 C25.24065,9.7512 26.24865,10.7577 26.24865,12.0012 Z M22.4694,21.837 L24.0069,24.264 L29.8374,15.0615 C30.3804,14.1075 30.7284,13.116 30.7389,12.0105 C30.7389,8.283 27.7164,5.2605 23.9889,5.2605 C20.2599,5.2605 17.2389,8.283 17.2389,12.0105 C17.2584,12.531 17.3394,13.014 17.4714,13.4715"/>
  </g>
</svg>
