<svg xmlns="http://www.w3.org/2000/svg" width="24" height="24" version="1.1" viewBox="0 0 24 24">
  <path fill="none" fill-rule="evenodd" stroke="#000" stroke-width="1" d="M13.5137,17.4897 C13.5137,18.5937 12.6177,19.4897 11.5137,19.4897 C10.4087,19.4897 9.5137,18.5937 9.5137,17.4897 M7.5,17.4897 C7.5,18.5937 6.604,19.4897 5.5,19.4897 C4.396,19.4897 3.5,18.5937 3.5,17.4897 M2,19.4897 L22,19.4897 M2,17.4897 L18.897,17.4897 C20.334,17.4897 21.5,16.3227 21.5,14.8837 C21.5,13.9947 21.01,13.1787 20.226,12.7637 L8.08,6.3277 C7.01,5.7607 5.817,5.4897 4.606,5.4897 L4,5.4897 M2,5.4897 L3,5.4897 M3,15.4897 L2,15.4897 M6,15.4897 L4,15.4897 M21.4155,15.4897 L6.9995,15.4897 M10.0112,7.351 L9.8112,7.634 C9.0682,8.685 9.3812,10.222 10.5532,10.752 L10.5792,10.764 L13.0962,11.869 C14.0512,12.288 15.0822,12.503 16.1242,12.503 L19.7462,12.503 M4.9995,12.4907 L2.9995,12.4907 M4.9995,9.4897 C5.8285,9.4897 6.4995,10.1617 6.4995,10.9897 C6.4995,11.8187 5.8285,12.4907 4.9995,12.4907 M2,9.4897 L4,9.4897"/>
</svg>
