<svg xmlns="http://www.w3.org/2000/svg" width="36" height="36" version="1.1" viewBox="0 0 36 36">
  <path fill="none" fill-rule="evenodd" stroke="#000" stroke-width="1" d="M27.75,23.99955 C27.75,19.09455 25.278,14.62155 20.868,13.04505 M15.126,13.0455 C12.1365,14.124 10.0395,16.5345 9,19.494 M18,3.74955 C20.4855,3.74955 22.5,6.10005 22.5,8.99955 C22.5,11.89905 20.4855,14.24955 18,14.24955 C15.5145,14.24955 13.5,11.89905 13.5,8.99955 C13.5,6.10005 15.5145,3.74955 18,3.74955 Z M13.29195,25.542 L6.18945,20.58 C5.54295,20.0625 4.59945,20.1645 4.08045,20.811 C3.56145,21.456 3.66495,22.401 4.31145,22.92 L13.19895,30.75 L19.11345,30.75 L20.62545,32.25 L31.80045,32.25 L24.25845,24.654 C22.55295,23.013 20.38245,21.792 18.16395,21.75 L15.00045,21.75 C12.02295,21.75 11.95245,26.25 15.00045,26.25 L18.00045,26.25"/>
</svg>
