<svg xmlns="http://www.w3.org/2000/svg" width="36" height="36" fill="none" viewBox="0 0 36 36"><path fill="#000" fill-rule="evenodd" d="M10.5 4.75A7.25 7.25 0 0 0 3.25 12c0 1.575.58 4.826 1.724 7.64.574 1.409 1.305 2.747 2.207 3.716.9.967 2.018 1.61 3.34 1.504a4.23 4.23 0 0 0 2.609-.911q.305.18.626.337c.104 2.359 1.478 4.443 3.348 5.938C19.051 31.78 21.596 32.75 24 32.75h4.25v-4H25.5c-1.286 0-2.056-.505-2.535-1.297-.47-.777-.685-1.876-.712-3.171q.317-.156.617-.333a4.23 4.23 0 0 0 2.608.91c1.323.107 2.44-.536 3.341-1.503.902-.969 1.633-2.307 2.207-3.716 1.145-2.814 1.724-6.065 1.724-7.64a7.25 7.25 0 0 0-12.099-5.39A9.9 9.9 0 0 0 18 6.25c-.923 0-1.814.126-2.652.36A7.23 7.23 0 0 0 10.5 4.75m10.767 19.946A9.8 9.8 0 0 1 18 25.25a9.8 9.8 0 0 1-3.203-.532c.237 1.804 1.35 3.46 2.932 4.725 1.789 1.43 4.118 2.307 6.271 2.307h3.25v-2H25.5c-1.614 0-2.719-.67-3.39-1.779-.544-.898-.782-2.05-.843-3.275M9.25 17.55c0 2.33 1.173 4.4 2.996 5.802a3.23 3.23 0 0 1-1.746.508h-.022l-.021.002c-.919.08-1.763-.348-2.544-1.188-.785-.843-1.46-2.056-2.012-3.411C4.796 16.549 4.25 13.425 4.25 12a6.25 6.25 0 0 1 9.993-5.006c-2.923 1.225-4.991 3.853-4.993 6.952v3.604m1 0v-3.6c0-2.863 2.094-5.357 5.115-6.302A8.8 8.8 0 0 1 18 7.25c.927 0 1.814.14 2.635.398 3.021.945 5.115 3.44 5.115 6.302v3.6c0 2.173-1.201 4.126-3.103 5.361-1.291.839-2.899 1.339-4.647 1.339s-3.356-.5-4.647-1.339c-1.902-1.235-3.103-3.188-3.103-5.361m16.5-3.6v-.004c-.002-3.099-2.07-5.727-4.992-6.952A6.25 6.25 0 0 1 31.75 12c-.001 1.425-.547 4.549-1.652 7.263-.551 1.355-1.227 2.568-2.012 3.411-.781.84-1.625 1.268-2.544 1.188l-.021-.002H25.5a3.23 3.23 0 0 1-1.746-.508c1.823-1.401 2.996-3.471 2.996-5.802zm-13.25 2.3a.25.25 0 1 0 0 .5.25.25 0 0 0 0-.5m-1.25.25a1.25 1.25 0 1 1 2.5 0 1.25 1.25 0 0 1-2.5 0m10.25-.25a.25.25 0 1 0 0 .5.25.25 0 0 0 0-.5m-1.25.25a1.25 1.25 0 1 1 2.5 0 1.25 1.25 0 0 1-2.5 0" clip-rule="evenodd"/></svg>