<svg xmlns="http://www.w3.org/2000/svg" width="24" height="24" fill="none" viewBox="0 0 24 24"><path fill="#000" fill-rule="evenodd" d="M8.5 2a3.5 3.5 0 0 0-1.734 6.541 3.466 3.466 0 0 0-1.688 2.995 3.47 3.47 0 0 0 1.752 2.993 3.76 3.76 0 0 0-1.545 1.786A3.75 3.75 0 1 0 12.5 17.75v-3.8a3.5 3.5 0 1 0 4.53-5.3 3.5 3.5 0 0 0-1.53-6.65zm4.05 7-.05.05V9zm-.05-1h3a2.5 2.5 0 0 0 0-5h-3zm-1-5h-3a2.5 2.5 0 0 0 0 5h3zM15 9a2.5 2.5 0 1 1-2.5 2.502v-.004A2.5 2.5 0 0 1 15 9m-3.5.033V14H8.594a2.54 2.54 0 0 1-1.776-.725 2.47 2.47 0 0 1-.74-1.745 2.47 2.47 0 0 1 .72-1.752 2.53 2.53 0 0 1 1.766-.745zm0 5.967H8.75a2.75 2.75 0 1 0 2.75 2.75z" clip-rule="evenodd"/></svg>