<svg xmlns="http://www.w3.org/2000/svg" width="48" height="48" fill="none" viewBox="0 0 48 48"><path fill="#000" d="m28.884 7.18 4.85 5.82H37v1H3v27h42V14h-3v-1h4v29H2V10h9v3h2.266l4.85-5.82.15-.18h10.468zM24.5 16c1.138 0 2.239.165 3.278.474l-.285.959A10.5 10.5 0 0 0 24.5 17C18.701 17 14 21.701 14 27.5S18.701 38 24.5 38c4.805 0 8.858-3.228 10.105-7.636l.962.272C34.202 35.462 29.765 39 24.5 39 18.149 39 13 33.851 13 27.5S18.149 16 24.5 16m-.518 4.018a7.5 7.5 0 1 0 7.645 9.826l.95.312a8.5 8.5 0 1 1-8.662-11.137zM39 25c0 1.77 1.23 3 3 3v1c-1.77 0-3 1.23-3 3h-1c0-1.77-1.23-3-3-3v-1c1.77 0 3-1.23 3-3zm-.5 2.028a3.7 3.7 0 0 1-1.472 1.472 3.7 3.7 0 0 1 1.472 1.47 3.7 3.7 0 0 1 1.47-1.47 3.7 3.7 0 0 1-1.47-1.472M32 15c0 3.27 2.73 6 6 6v1c-3.27 0-6 2.73-6 6h-1c0-3.27-2.73-6-6-6v-1c3.27 0 6-2.73 6-6zm-.5 2.564a7.14 7.14 0 0 1-3.936 3.936 7.14 7.14 0 0 1 3.936 3.936 7.14 7.14 0 0 1 3.935-3.936 7.14 7.14 0 0 1-3.935-3.936M43 19h-8v-4h8zm-7-1h6v-2h-6zm4-15c0 1.91.388 3.12 1.134 3.866S43.09 8 45 8v1c-1.91 0-3.12.388-3.866 1.134S40 12.09 40 14h-1c0-1.91-.388-3.12-1.134-3.866S35.91 9 34 9V8c1.91 0 3.12-.388 3.866-1.134S39 4.91 39 3zM3 13h7v-2H3zm11.567 0h17.866l-4.167-5h-9.532zM39.5 6.14a4.2 4.2 0 0 1-.927 1.433c-.4.4-.878.704-1.432.927a4.2 4.2 0 0 1 1.432.927c.4.4.704.878.927 1.431a4.2 4.2 0 0 1 .927-1.431c.4-.4.878-.704 1.431-.927a4.2 4.2 0 0 1-1.431-.927c-.4-.4-.704-.878-.927-1.432"/></svg>