<svg xmlns="http://www.w3.org/2000/svg" width="48" height="48" fill="none" viewBox="0 0 48 48"><path fill="#000" fill-rule="evenodd" d="M29.89 5.188 29.5 4.7l-.39.488L26.86 8h-2.32l-.65-.812-.39-.488-.39.488-.65.812h-8.205l-.15.193-7 9-.105.135V42h28.75l.15-.2 6-8 .1-.133V8h-9.86zM14.746 9h6.915l-6.4 8H8.522zM8 41V18h27v23zm33-7.667L36 40V17.652l5-7.5zM32.94 9h7.626L37.1 14.2zm-7.6 0 .36.45.36-.45zm11.178 6.072L35.232 17H31.74l-5.4-6.75L29.5 6.3zM23.5 8.3l6.96 8.7H16.54zM17 24.32a.32.32 0 0 1 .32-.32h8.36a.32.32 0 0 1 .32.32v1.36a.32.32 0 0 1-.32.32h-8.36a.32.32 0 0 1-.32-.32zm.32-1.32A1.32 1.32 0 0 0 16 24.32v1.36c0 .73.591 1.32 1.32 1.32h8.36A1.32 1.32 0 0 0 27 25.68v-1.36A1.32 1.32 0 0 0 25.68 23z" clip-rule="evenodd"/></svg>