<svg xmlns="http://www.w3.org/2000/svg" width="24" height="24" version="1.1" viewBox="0 0 24 24">
  <path fill="none" fill-rule="evenodd" stroke="#000" stroke-width="1" d="M18.5,19.5 L18.5,20 C18.5,20.828 17.828,21.5 17,21.5 C16.172,21.5 15.5,20.828 15.5,20 L15.5,19.5 M19.5,19.5 L4.5,19.5 L4.5,18.5 L4.5,17.5 L19.5,17.5 L19.5,19.5 Z M2.5,20 L2.5,17 M2.5,18.5 L4.5,18.5 M21.5,17 L21.5,20 M21.5,18.5 L19.5,18.5 M8.5,19.5 L8.5,20 C8.5,20.828 7.828,21.5 7,21.5 C6.172,21.5 5.5,20.828 5.5,20 L5.5,19.5 M13.1963,4.5 L12.2903,5.606 L8.9223,6.475 L8.2603,6.136 L6.0773,7.669 L7.0643,7.99 L4.4663,10.715 L3.5003,14.061 L5.4143,13.601 L6.2593,13.134 L8.2613,14.946 L11.0863,14.646 L12.7143,12.98 L14.6403,15.5 L16.0483,12.675 L19.3263,13.485 L19.1203,11.791 L20.5003,11.824 L20.3583,9.057 L19.1573,8.19 L18.7663,8.889 L17.1783,8.436 L17.7713,6.764 L14.4463,5.543 L13.1963,4.5 Z"/>
</svg>
