<svg xmlns="http://www.w3.org/2000/svg" width="24" height="24" fill="none" viewBox="0 0 24 24"><path fill="#000" fill-rule="evenodd" d="M7.937 2.757 7.5 1.97l-.437.787-2.5 4.5L4.15 8h1.54l-2.137 4.276L3.19 13H4.69l-2.137 4.276L2.19 18H7v2h1v-2h4.809l-.362-.724L10.31 13h1.5l-.362-.724L9.31 8h1.54l-.412-.743zM6.5 7h-.65L7.5 4.03 9.15 7H7.69l.363.723L10.19 12H8.69l.363.723L11.19 17H3.809l2.138-4.277L6.31 12h-1.5l2.138-4.277L7.31 7zM18 10a1 1 0 0 0-1 1v1h2v-1a1 1 0 0 0-1-1m-2 1v1h-1.466l-.033.464-.5 7-.038.536h8.074l-.038-.536-.5-7-.034-.464H20v-1a2 2 0 1 0-4 0m-.963 8 .428-6h5.069l.429 6z" clip-rule="evenodd"/></svg>