<svg class="color-immutable" xmlns="http://www.w3.org/2000/svg" width="59" height="20" fill="none" viewBox="0 0 59 20"><g clip-path="url(#a)"><path stroke="#000" d="M2 .5h55A1.5 1.5 0 0 1 58.5 2v16a1.5 1.5 0 0 1-1.5 1.5H2A1.5 1.5 0 0 1 .5 18V2A1.5 1.5 0 0 1 2 .5Z"/><path fill="#000" d="M12.877 7.71h-2.449q-.072-.863-.644-1.314-.564-.459-1.587-.459-.91 0-1.418.363-.5.355-.5.999 0 .58.483.838.468.258 2.37.725 2.005.5 2.779 1.007 1.425.934 1.426 2.602 0 1.829-1.434 2.884-1.266.927-3.424.927-2.401 0-3.73-1.096T3.37 12.068h2.562q.056.984.507 1.459.71.757 2.135.757.967 0 1.531-.379.636-.434.636-1.184t-.894-1.096q-.49-.193-2.32-.7-1.144-.315-1.789-.597-.644-.282-1.031-.628-.903-.806-.902-2.224 0-1.7 1.41-2.69 1.2-.847 3.118-.847 1.683 0 2.82.669 1.635.96 1.723 3.102M14.312 7.951q.039-1.449.717-2.433 1.095-1.578 3.295-1.579 1.692 0 2.73.862 1.121.935 1.12 2.417 0 .886-.442 1.531a2.14 2.14 0 0 1-1.185.862q.951.217 1.499.967.556.75.556 1.813 0 1.747-1.29 2.86-1.192 1.03-3.012 1.031-1.974 0-3.135-1.136-1.151-1.135-1.152-3.07v-.153h2.264q0 1.088.516 1.684.516.588 1.458.588.943 0 1.45-.556.468-.524.468-1.248 0-.87-.596-1.378-.492-.42-1.515-.419-.29 0-.572.032V8.894q.21.015.403.016 2.03 0 2.03-1.506 0-.66-.443-1.064-.444-.41-1.168-.41-.83 0-1.281.515-.451.516-.484 1.506zM25.293 9.676q-.822-.282-1.265-.927-.435-.644-.435-1.563 0-1.53 1.257-2.441 1.111-.806 2.642-.806 1.74 0 2.844.959 1.048.902 1.048 2.232 0 .925-.444 1.587-.443.66-1.256.959.636.185 1.039.475 1.12.814 1.12 2.377 0 1.795-1.378 2.86-1.16.894-2.98.894-1.975 0-3.143-.983-1.216-1.023-1.216-2.683 0-1.555 1.08-2.409.491-.379 1.087-.531m2.167-3.908q-.774 0-1.249.435-.475.427-.475 1.128 0 .733.475 1.176.483.435 1.29.435.804 0 1.272-.435.468-.434.468-1.184 0-.733-.476-1.144-.466-.41-1.305-.41m-.016 4.794q-.87 0-1.426.54-.548.53-.548 1.37 0 .861.556 1.401.564.54 1.458.54 1.016 0 1.523-.596.49-.572.491-1.322 0-.854-.564-1.401-.54-.532-1.49-.532"/></g><defs><clipPath id="a"><path fill="#fff" d="M0 0h59v20H0z"/></clipPath></defs></svg>