<?xml version="1.0" encoding="utf-8"?>
<!-- Generator: Adobe Illustrator 24.2.0, SVG Export Plug-In . SVG Version: 6.00 Build 0)  -->
<svg version="1.0" xmlns="http://www.w3.org/2000/svg" xmlns:xlink="http://www.w3.org/1999/xlink" x="0px" y="0px"
	 viewBox="0 0 24 24" enable-background="new 0 0 24 24" xml:space="preserve">
<g id="SVG_x5F_24x24pt">
	<path id="backgroundBlue" fill="#2D327D" d="M0,22.5v-21C0,0.675,0.675,0,1.5,0h21C23.325,0,24,0.675,24,1.5v21
		c0,0.825-0.675,1.5-1.5,1.5h-21C0.675,24,0,23.325,0,22.5z"/>
	<g id="content">
		<path fill="#FFFFFF" d="M3.411,21h17.177c0.27,0,0.453-0.278,0.344-0.525c-0.949-2.162-2.66-3.914-4.793-4.916
			c-0.109-0.051-0.237-0.043-0.342,0.015c-1.112,0.616-2.411,0.971-3.798,0.971c-1.387,0-2.686-0.355-3.798-0.971
			c-0.106-0.059-0.233-0.067-0.342-0.015c-2.133,1.002-3.844,2.754-4.793,4.916C2.959,20.722,3.141,21,3.411,21z"/>
		<path fill="#FFFFFF" d="M21,6c0-1.657-1.343-3-3-3c-0.977,0-1.845,0.468-2.393,1.191C14.557,3.598,13.322,3.256,12,3.256
			c-1.322,0-2.557,0.342-3.607,0.935C7.845,3.468,6.977,3,6,3C4.343,3,3,4.343,3,6c0,1.354,0.897,2.498,2.13,2.871
			C5.097,9.125,5.079,9.383,5.079,9.645c0,3.529,3.098,6.389,6.921,6.389c3.822,0,6.921-2.86,6.921-6.389
			c0-0.262-0.017-0.52-0.051-0.773C20.102,8.498,21,7.354,21,6z M9.063,10.974c-0.44,0-0.797-0.357-0.797-0.797
			c0-0.44,0.357-0.797,0.797-0.797S9.86,9.736,9.86,10.176C9.86,10.617,9.503,10.974,9.063,10.974z M12.748,14.025
			c-0.278,0-0.544-0.064-0.748-0.178c-0.204,0.114-0.47,0.178-0.748,0.178c-0.637,0-1.132-0.466-1.132-0.866
			c0-0.092,0.074-0.166,0.166-0.166s0.166,0.074,0.166,0.166c0,0.21,0.343,0.534,0.8,0.534c0.218,0,0.429-0.049,0.582-0.134v-0.962
			c-0.434-0.056-0.764-0.327-0.764-0.653c0-0.367,0.416-0.664,0.93-0.664c0.514,0,0.93,0.297,0.93,0.664
			c0,0.326-0.33,0.597-0.764,0.653v0.962c0.153,0.085,0.364,0.134,0.582,0.134c0.456,0,0.8-0.324,0.8-0.534
			c0-0.092,0.074-0.166,0.166-0.166c0.092,0,0.166,0.074,0.166,0.166C13.88,13.56,13.385,14.025,12.748,14.025z M14.937,10.974
			c-0.44,0-0.797-0.357-0.797-0.797c0-0.44,0.357-0.797,0.797-0.797c0.44,0,0.797,0.357,0.797,0.797
			C15.734,10.617,15.377,10.974,14.937,10.974z"/>
	</g>
</g>
</svg>
