<svg xmlns="http://www.w3.org/2000/svg" width="48" height="48" fill="none" viewBox="0 0 48 48"><path fill="#000" fill-rule="evenodd" d="M34 16h4.902l-.478.765-2.342 3.747 1.633 2.857A4.504 4.504 0 0 1 44 27.5c0 2.482-2.018 4.5-4.5 4.5a4.504 4.504 0 0 1-4.5-4.5c0-1.491.728-2.815 1.848-3.634L35.21 21h-5.858l-.877 2.457A4.5 4.5 0 0 1 31 27.5c0 2.482-2.018 4.5-4.5 4.5a4.506 4.506 0 0 1-4.472-4H18v2h-7.337A3.5 3.5 0 1 1 5 26.05V20h5.685l.14.12 7 6 .175.15V27h4.028a4.506 4.506 0 0 1 5.506-3.88l.995-2.788.119-.332h6.575l1.875-3H34zM17 29h-6.035q.035-.245.035-.5a3.5 3.5 0 0 0-5-3.163V21h2.191l.862 1.724.049.098.086.068 5 4 .137.11H17zm20.348-4.259A3.5 3.5 0 0 0 36 27.5c0 1.93 1.57 3.5 3.5 3.5s3.5-1.57 3.5-3.5a3.504 3.504 0 0 0-4.785-3.256l1.72 3.008-.87.496zM26.5 24q.357 0 .694.07L26.148 27h-3.112a3.506 3.506 0 0 1 3.464-3m0 4h-3.464a3.506 3.506 0 0 0 3.464 3c1.93 0 3.5-1.57 3.5-3.5 0-1.34-.756-2.505-1.864-3.094l-1.165 3.262-.119.332zm3.5-9h-3v-1h3zM9.898 22.178 9.31 21h1.006l5.833 5h-1.473zM7.5 26a2.5 2.5 0 1 0 0 5 2.5 2.5 0 0 0 0-5M7 28.5a.5.5 0 1 1 1 0 .5.5 0 0 1-1 0m.5-1.5a1.5 1.5 0 1 0 0 3 1.5 1.5 0 0 0 0-3" clip-rule="evenodd"/></svg>