<svg class="color-immutable" xmlns="http://www.w3.org/2000/svg" width="59" height="20" fill="none" viewBox="0 0 59 20"><g fill="#EB0000" clip-path="url(#a)"><path d="M57.208 1c.439 0 .795.358.795.8v16.4c0 .442-.356.8-.795.8H1.792a.8.8 0 0 1-.795-.8V1.8c0-.442.356-.8.795-.8zm0-1H1.792C.803 0 0 .806 0 1.8v16.4c0 .994.803 1.8 1.792 1.8h55.416c.99 0 1.792-.806 1.792-1.8V1.8c0-.994-.803-1.8-1.792-1.8"/><path d="M4.16 4.234h5.6q1.662 0 2.547.522.735.427 1.124 1.139.387.712.387 1.606 0 1.013-.49 1.764-.483.751-1.353 1.076a1.95 1.95 0 0 1 1.203.854q.276.42.371.878t.245 2.096q.111 1.203.34 1.495l.111.135h-2.634a2 2 0 0 1-.197-.625q-.056-.38-.15-1.756-.095-1.227-.602-1.693-.498-.475-1.709-.475h-2.27V15.8H4.16zm2.523 1.985V9.4h2.413q1.162 0 1.637-.332.601-.42.601-1.266 0-.822-.514-1.202T9.2 6.219zM24.647 4.234V6.37h-6.154v2.468h5.64v1.985h-5.64v2.84h6.265v2.136H15.97V4.234zM33.83 7.121h-2.198q-.309-1.337-1.519-1.337-1.28 0-1.82 1.574-.22.642-.355 1.938.522-.703 1.107-1.012.594-.309 1.424-.309 1.63 0 2.618 1.155.942 1.092.942 2.737 0 1.955-1.266 3.14-1.14 1.068-2.737 1.068-2.049 0-3.188-1.542-1.139-1.55-1.139-4.319 0-2.958 1.218-4.635 1.18-1.622 3.22-1.622 1.922 0 2.942 1.29.585.743.752 1.874m-3.915 2.65q-.83 0-1.32.696-.444.617-.444 1.471 0 .847.451 1.48.491.704 1.345.704.831 0 1.337-.673.474-.633.474-1.495 0-.847-.427-1.447-.522-.736-1.416-.736M36.726 9.59q-.807-.279-1.242-.91-.427-.633-.427-1.535 0-1.503 1.234-2.397 1.092-.79 2.595-.791 1.709 0 2.792.941 1.028.886 1.028 2.191 0 .91-.435 1.559t-1.234.941q.625.182 1.02.467 1.1.798 1.1 2.333 0 1.764-1.353 2.808-1.139.878-2.926.878-1.938 0-3.085-.965-1.195-1.004-1.195-2.634 0-1.527 1.06-2.365a2.9 2.9 0 0 1 1.068-.522m2.128-3.837q-.76 0-1.226.427-.467.42-.467 1.107 0 .72.467 1.155.474.427 1.265.427t1.25-.427.459-1.163q0-.72-.467-1.123-.459-.403-1.281-.403m-.016 4.706q-.854 0-1.4.53-.538.522-.538 1.345 0 .846.546 1.376.553.53 1.432.53.996 0 1.495-.585.482-.562.482-1.297 0-.84-.554-1.377-.529-.522-1.463-.522"/></g><defs><clipPath id="a"><path fill="#fff" d="M0 0h59v20H0z"/></clipPath></defs></svg>