<svg xmlns="http://www.w3.org/2000/svg" width="24" height="24" fill="none" viewBox="0 0 24 24"><path fill="#000" fill-rule="evenodd" d="M12.172 1.03 12 .967l-.173.063-9.5 3.5L1.053 5l1.273.469 9.5 3.5.173.064.173-.064 9.5-3.5 1.274-.47-1.274-.469zM12 7.967 3.946 5l8.053-2.967L20.053 5zm.174 7.064L12 14.967l-.173.064-9.5 3.5L1.053 19l1.274.47 9.5 3.5.173.063.173-.064 9.5-3.5 1.273-.47-1.273-.468zM12 21.967 3.946 19 12 16.033 20.054 19zM7 9.969l1.996 2.026.712-.702-2.852-2.894-.357-.362-.356.363L3.3 11.296l.714.7L6 9.973V14h1zm11 4.06 1.987-2.027.714.7L17.86 15.6l-.356.363-.357-.362-2.853-2.894.712-.703L17 14.029V10h1z" clip-rule="evenodd"/></svg>