<svg xmlns="http://www.w3.org/2000/svg" width="24" height="24" version="1.1" viewBox="0 0 24 24">
  <path fill="none" fill-rule="evenodd" stroke="#000" stroke-width="1" d="M18.5,19.5 L18.5,20 C18.5,20.828 17.828,21.5 17,21.5 C16.172,21.5 15.5,20.828 15.5,20 L15.5,19.5 M18.5,15.5 L5.5,15.5 L5.5,11 L5.5,6.5 L18.5,6.5 L18.5,15.5 Z M19.5,19.5 L4.5,19.5 L4.5,18.5 L4.5,17.5 L19.5,17.5 L19.5,19.5 Z M2.5,20 L2.5,17 M2.5,18.5 L4.5,18.5 M21.5,17 L21.5,20 M21.5,18.5 L19.5,18.5 M8.5,19.5 L8.5,20 C8.5,20.828 7.829,21.5 7,21.5 C6.171,21.5 5.5,20.828 5.5,20 L5.5,19.5"/>
</svg>
