<svg class="color-immutable" xmlns="http://www.w3.org/2000/svg" width="59" height="20" fill="none" viewBox="0 0 59 20"><g clip-path="url(#a)"><path fill="#EB0000" fill-rule="evenodd" d="M2 0a2 2 0 0 0-2 2v16a2 2 0 0 0 2 2h55a2 2 0 0 0 2-2V2a2 2 0 0 0-2-2z" clip-rule="evenodd"/><path fill="#fff" d="M9.22 4.2h4.057L8.259 15.8H4.186zM15.948 4.2h14.395l-1.49 3.445h-10.28l-2.042 4.71h10.285l-1.49 3.445H10.93zM42.289 4.234v11.565h-2.31v-7.57h-2.721V6.552q.846-.024 1.376-.174.539-.15.98-.49.642-.492.863-1.654zM53.402 4.234v1.962q-.094.103-.561.64-.65.743-1.29 1.875-.64 1.124-.996 2.16-.751 2.16-.91 4.928h-2.389q.024-1.305.451-2.896.435-1.59 1.194-3.18 1.084-2.245 2.2-3.345h-5.459V4.234z"/></g><defs><clipPath id="a"><path fill="#fff" d="M0 0h59v20H0z"/></clipPath></defs></svg>