<?xml version="1.0" encoding="utf-8"?>
<!-- Generator: Adobe Illustrator 25.3.1, SVG Export Plug-In . SVG Version: 6.00 Build 0)  -->
<svg version="1.0" xmlns="http://www.w3.org/2000/svg" xmlns:xlink="http://www.w3.org/1999/xlink" x="0px" y="0px"
	 viewBox="0 0 24 24" enable-background="new 0 0 24 24" xml:space="preserve">
<g id="SVG_x5F_24x24pt">
	<path id="backgroundBlue" fill="#2D327D" d="M0,22.499v-21c0-0.825,0.675-1.5,1.5-1.5h21c0.825,0,1.5,0.675,1.5,1.5v21
		c0,0.825-0.675,1.5-1.5,1.5h-21C0.675,23.999,0,23.324,0,22.499z"/>
	<g id="content">
		<path fill="#FFFFFF" d="M20.458,11.624h-2.124c-0.283,0-0.512,0.229-0.512,0.512v5.073c0,0.283,0.229,0.512,0.512,0.512h2.124
			c0.283,0,0.512-0.229,0.512-0.512v-5.073C20.97,11.853,20.741,11.624,20.458,11.624z M19.391,17.428
			c-0.121-0.002-0.217-0.106-0.214-0.232c0.002-0.126,0.103-0.226,0.223-0.225c0.121,0.002,0.218,0.106,0.215,0.232
			C19.613,17.33,19.513,17.43,19.391,17.428z M20.555,16.579h-2.318v-4.381h2.318V16.579z"/>
		<path fill="#FFFFFF" d="M16.056,18.249c0,0,0-0.001,0-0.001v-6.304c0-0.176-0.143-0.32-0.32-0.32H4.848
			c-0.176,0-0.32,0.143-0.32,0.32v6.304c0,0,0,0.001,0,0.001l-1.31,2.275c0,0,0.024,0.476,0.224,0.476h13.7
			c0.2,0.001,0.224-0.476,0.224-0.476L16.056,18.249z M4.936,12.032h10.712v6.127H4.936V12.032z M12.274,20.522H8.311
			c-0.064,0-0.102-0.05-0.084-0.111l0.162-0.57c0.017-0.061,0.084-0.111,0.147-0.111h3.51c0.064,0,0.13,0.05,0.147,0.111l0.162,0.57
			C12.375,20.472,12.337,20.522,12.274,20.522z M16.161,19.449H4.424c-0.063,0-0.09-0.045-0.06-0.101l0.372-0.678
			c0.031-0.056,0.107-0.101,0.171-0.101h10.771c0.063,0,0.14,0.046,0.171,0.101l0.372,0.678
			C16.251,19.404,16.224,19.449,16.161,19.449z"/>
		<path fill="#FFFFFF" d="M3,3h1.012c0.217,0,0.379,0.027,0.486,0.082c0.1,0.051,0.176,0.126,0.228,0.223
			C4.769,3.386,4.79,3.473,4.79,3.566c0,0.103-0.026,0.194-0.078,0.274C4.66,3.919,4.584,3.982,4.484,4.029
			C4.57,4.057,4.635,4.087,4.678,4.119c0.146,0.107,0.218,0.262,0.218,0.466c0,0.121-0.027,0.23-0.081,0.326
			C4.762,5.008,4.685,5.085,4.584,5.144c-0.119,0.07-0.279,0.105-0.481,0.105H3V3z M3.491,3.386V3.91H3.94
			c0.105,0,0.181-0.012,0.231-0.037c0.091-0.044,0.137-0.12,0.137-0.228c0-0.091-0.029-0.157-0.086-0.198
			C4.164,3.406,4.07,3.386,3.94,3.386H3.491z M3.491,4.245v0.617h0.497c0.143,0,0.243-0.02,0.3-0.06
			c0.076-0.054,0.114-0.137,0.114-0.248c0-0.132-0.051-0.223-0.154-0.271C4.191,4.258,4.096,4.245,3.963,4.245H3.491z"/>
		<path fill="#FFFFFF" d="M6.705,3.569v1.68H6.281V5.004C6.153,5.197,5.973,5.294,5.742,5.294c-0.201,0-0.353-0.067-0.455-0.201
			C5.248,5.041,5.22,4.979,5.203,4.908C5.186,4.838,5.178,4.745,5.178,4.631V3.569h0.446v0.924c0,0.096,0.003,0.165,0.008,0.205
			c0.006,0.04,0.017,0.074,0.035,0.102c0.047,0.075,0.128,0.112,0.241,0.112c0.14,0,0.243-0.062,0.306-0.186
			c0.031-0.06,0.046-0.17,0.046-0.328V3.569H6.705z"/>
		<path fill="#FFFFFF" d="M8.416,4.059H7.997C7.989,4.002,7.973,3.958,7.95,3.929C7.903,3.869,7.818,3.839,7.693,3.839
			c-0.079,0-0.14,0.014-0.183,0.043C7.467,3.911,7.445,3.952,7.445,4.004c0,0.055,0.024,0.096,0.072,0.122
			c0.048,0.026,0.157,0.056,0.327,0.091C8.06,4.26,8.216,4.315,8.311,4.381C8.424,4.458,8.48,4.575,8.48,4.731
			c0,0.179-0.07,0.318-0.209,0.417C8.134,5.246,7.952,5.294,7.725,5.294c-0.281,0-0.487-0.069-0.618-0.208
			C7.019,4.992,6.969,4.864,6.959,4.701h0.428c0.008,0.076,0.028,0.133,0.058,0.172c0.057,0.07,0.152,0.105,0.285,0.105
			c0.092,0,0.166-0.019,0.22-0.056S8.031,4.833,8.031,4.77c0-0.057-0.023-0.1-0.07-0.128s-0.145-0.06-0.296-0.095
			c-0.146-0.034-0.249-0.06-0.309-0.079c-0.06-0.019-0.115-0.042-0.163-0.068C7.13,4.363,7.082,4.313,7.047,4.248
			C7.012,4.184,6.994,4.112,6.994,4.033c0-0.174,0.072-0.307,0.217-0.398C7.329,3.56,7.493,3.522,7.703,3.522
			c0.278,0,0.477,0.071,0.598,0.212C8.367,3.812,8.405,3.92,8.416,4.059z"/>
		<path fill="#FFFFFF" d="M9.195,3v0.401H8.749V3H9.195z M9.195,3.572v1.677H8.749V3.572H9.195z"/>
		<path fill="#FFFFFF" d="M9.975,3.573v0.235c0.052-0.072,0.101-0.125,0.146-0.158c0.111-0.086,0.244-0.129,0.4-0.129
			c0.137,0,0.254,0.035,0.349,0.105c0.076,0.055,0.129,0.125,0.159,0.21c0.03,0.085,0.045,0.204,0.045,0.358v1.055H10.63V4.287
			c0-0.108-0.009-0.187-0.028-0.237c-0.017-0.044-0.047-0.079-0.089-0.105c-0.048-0.028-0.103-0.042-0.165-0.042
			c-0.068,0-0.129,0.016-0.185,0.049c-0.055,0.033-0.096,0.077-0.123,0.134c-0.03,0.064-0.045,0.163-0.045,0.297v0.864H9.551V3.573
			H9.975z"/>
		<path fill="#FFFFFF" d="M12.934,4.725c-0.024,0.094-0.066,0.183-0.128,0.266c-0.148,0.202-0.36,0.303-0.637,0.303
			c-0.25,0-0.451-0.079-0.601-0.237c-0.074-0.077-0.13-0.17-0.169-0.278c-0.042-0.116-0.063-0.237-0.063-0.363
			c0-0.244,0.07-0.449,0.211-0.615c0.157-0.186,0.36-0.278,0.609-0.278c0.201,0,0.372,0.062,0.514,0.186
			c0.102,0.089,0.175,0.199,0.221,0.33c0.046,0.131,0.069,0.295,0.069,0.493h-1.17c0.004,0.082,0.017,0.15,0.038,0.205
			c0.06,0.147,0.175,0.22,0.345,0.22c0.083,0,0.151-0.018,0.203-0.055s0.095-0.095,0.129-0.176H12.934z M12.505,4.232
			c-0.008-0.081-0.027-0.148-0.055-0.201c-0.029-0.052-0.069-0.094-0.122-0.125c-0.053-0.031-0.11-0.046-0.173-0.046
			c-0.099,0-0.181,0.033-0.246,0.1c-0.065,0.067-0.103,0.157-0.115,0.272H12.505z"/>
		<path fill="#FFFFFF" d="M14.605,4.059h-0.418c-0.008-0.057-0.024-0.101-0.048-0.131c-0.046-0.059-0.132-0.089-0.257-0.089
			c-0.079,0-0.14,0.014-0.183,0.043c-0.043,0.029-0.065,0.069-0.065,0.122c0,0.055,0.024,0.096,0.071,0.122
			c0.048,0.026,0.157,0.056,0.327,0.091c0.216,0.044,0.372,0.099,0.468,0.165c0.113,0.077,0.169,0.194,0.169,0.351
			c0,0.179-0.07,0.318-0.209,0.417c-0.137,0.097-0.319,0.146-0.546,0.146c-0.281,0-0.487-0.069-0.618-0.208
			c-0.088-0.094-0.137-0.223-0.148-0.386h0.428c0.008,0.076,0.028,0.133,0.058,0.172c0.057,0.07,0.152,0.105,0.285,0.105
			c0.092,0,0.166-0.019,0.22-0.056c0.054-0.037,0.082-0.088,0.082-0.152c0-0.057-0.023-0.1-0.07-0.128
			c-0.047-0.028-0.145-0.06-0.296-0.095c-0.146-0.034-0.249-0.06-0.309-0.079s-0.115-0.042-0.163-0.068
			c-0.063-0.036-0.111-0.086-0.146-0.151s-0.052-0.136-0.052-0.215c0-0.174,0.072-0.307,0.217-0.398
			c0.118-0.075,0.282-0.112,0.492-0.112c0.278,0,0.477,0.071,0.598,0.212C14.557,3.812,14.595,3.92,14.605,4.059z"/>
		<path fill="#FFFFFF" d="M16.328,4.059h-0.418c-0.008-0.057-0.024-0.101-0.048-0.131c-0.046-0.059-0.132-0.089-0.257-0.089
			c-0.079,0-0.14,0.014-0.183,0.043c-0.043,0.029-0.065,0.069-0.065,0.122c0,0.055,0.024,0.096,0.071,0.122
			c0.048,0.026,0.157,0.056,0.327,0.091c0.216,0.044,0.372,0.099,0.468,0.165c0.113,0.077,0.169,0.194,0.169,0.351
			c0,0.179-0.07,0.318-0.209,0.417c-0.137,0.097-0.319,0.146-0.546,0.146c-0.281,0-0.487-0.069-0.618-0.208
			c-0.088-0.094-0.137-0.223-0.148-0.386h0.428c0.008,0.076,0.028,0.133,0.058,0.172c0.057,0.07,0.152,0.105,0.285,0.105
			c0.092,0,0.166-0.019,0.22-0.056c0.054-0.037,0.082-0.088,0.082-0.152c0-0.057-0.023-0.1-0.07-0.128
			c-0.047-0.028-0.145-0.06-0.296-0.095c-0.146-0.034-0.249-0.06-0.309-0.079s-0.115-0.042-0.163-0.068
			c-0.063-0.036-0.111-0.086-0.146-0.151s-0.052-0.136-0.052-0.215c0-0.174,0.072-0.307,0.217-0.398
			c0.118-0.075,0.282-0.112,0.492-0.112c0.278,0,0.477,0.071,0.598,0.212C16.279,3.812,16.317,3.92,16.328,4.059z"/>
	</g>
</g>
</svg>
