<?xml version="1.0" encoding="utf-8"?>
<!-- Generator: Adobe Illustrator 24.2.0, SVG Export Plug-In . SVG Version: 6.00 Build 0)  -->
<svg version="1.0" id="Ebene_1" xmlns="http://www.w3.org/2000/svg" xmlns:xlink="http://www.w3.org/1999/xlink" x="0px" y="0px"
	 viewBox="0 0 24 24" enable-background="new 0 0 24 24" xml:space="preserve">
<g id="SVG_x5F_24x24pt">
	<path id="backgroundBlue" fill="#2D327D" d="M0,22.5v-21C0,0.675,0.675,0,1.5,0h21C23.325,0,24,0.675,24,1.5v21
		c0,0.825-0.675,1.5-1.5,1.5h-21C0.675,24,0,23.325,0,22.5z"/>
	<g id="content">
		<g>
			<path fill="#FFFFFF" d="M7.778,3.709C7.463,3.468,7.071,3.324,6.643,3.324c-0.376,0-0.725,0.112-1.019,0.302l0,0L2.983,5.15
				h4.795V3.709L7.778,3.709z"/>
			<path fill="#FFFFFF" d="M10.41,7.648c1.79-0.252,3.417-1.009,4.733-2.122H10.41V7.648L10.41,7.648z"/>
			<path fill="#FFFFFF" d="M10.41,5.15h4.795l-2.641-1.525l-0.001,0c-0.293-0.19-0.643-0.302-1.019-0.302
				c-0.427,0-0.82,0.144-1.135,0.385V5.15L10.41,5.15z"/>
			<path fill="#FFFFFF" d="M7.778,5.525H3.045c1.316,1.113,2.944,1.87,4.733,2.122V5.525L7.778,5.525z"/>
		</g>
		<path fill="#FFFFFF" d="M15.846,10.064c-0.518,0-0.937,0.42-0.937,0.937v2.45h-0.376V9.869c0-0.518-0.42-0.937-0.937-0.937
			c-0.518,0-0.937,0.42-0.937,0.937v2.85h-0.376V9.121c0-0.518-0.419-0.937-0.937-0.937c-0.518,0-0.938,0.419-0.938,0.937v2.827
			h-0.375V3.917c0-0.518-0.419-0.938-0.938-0.938c-0.518,0-0.937,0.42-0.937,0.938V14.23H7.781L7.78,14.231v-2.408
			c0-0.595-0.374-1.125-0.936-1.324c-0.074-0.026-0.153-0.04-0.234-0.04c-0.386,0-0.701,0.315-0.701,0.701v4.524l-0.003,0.002
			c0,0.468,0.097,0.951,0.253,1.328C6.314,17.391,7.809,21,7.809,21l7.777-0.001l0.96-2.327c0.159-0.415,0.237-0.854,0.237-1.325
			c0-0.064,0-6.345,0-6.345C16.783,10.484,16.364,10.064,15.846,10.064z"/>
	</g>
</g>
</svg>
