<svg width="24" height="24" viewBox="0 0 24 24" fill="none" xmlns="http://www.w3.org/2000/svg"><path fill-rule="evenodd" clip-rule="evenodd" d="M12 3a9 9 0 0 0-9 9 9 9 0 0 0 9 9 9 9 0 0 0 9-9 9 9 0 0 0-9-9ZM2 12C2 6.477 6.477 2 12 2s10 4.477 10 10-4.477 10-10 10S2 17.523 2 12Zm13-5.997.353.353 2.29 2.28.354.353-.353.355-1.647 1.655-.17.17-.183.184-5.5 5.5-.147.147H7v-2.997l.146-.146 5.5-5.5 2-2L15 6.002ZM13.706 8.71l1.582 1.582 1.294-1.3-1.582-1.576-1.294 1.294ZM8 14.417l5-5L14.583 11l-5 5.001H8v-1.583Z" fill="#000"/></svg>