<?xml version="1.0" encoding="utf-8"?>
<!-- Generator: Adobe Illustrator 25.3.1, SVG Export Plug-In . SVG Version: 6.00 Build 0)  -->
<svg version="1.1" xmlns="http://www.w3.org/2000/svg" xmlns:xlink="http://www.w3.org/1999/xlink" x="0px" y="0px" width="750px"
	 height="1334px" viewBox="0 0 750 1334" style="enable-background:new 0 0 750 1334;" xml:space="preserve">
<style type="text/css">
	.st0{fill:#ECF7FF;}
	.st1{fill:#DCF2FF;}
	.st2{clip-path:url(#SVGID_2_);fill:#FFFFFF;}
	.st3{clip-path:url(#SVGID_2_);fill:#E8E8E8;}
	.st4{clip-path:url(#SVGID_2_);fill:#CEECFD;}
	.st5{clip-path:url(#SVGID_2_);fill:#CCCCCC;}
	.st6{clip-path:url(#SVGID_2_);fill:#706F6F;}
	.st7{clip-path:url(#SVGID_2_);fill:#ABA728;}
	.st8{clip-path:url(#SVGID_2_);fill:#D1D137;}
	.st9{clip-path:url(#SVGID_2_);fill:#949494;}
	.st10{clip-path:url(#SVGID_2_);fill:#5E5E5E;}
	.st11{clip-path:url(#SVGID_2_);fill:#ECF7FF;}
	.st12{clip-path:url(#SVGID_2_);fill:#F2EF7C;}
	.st13{clip-path:url(#SVGID_2_);fill:#203809;}
	.st14{clip-path:url(#SVGID_4_);fill:#EAE654;}
	.st15{clip-path:url(#SVGID_4_);fill:#D1D137;}
	.st16{clip-path:url(#SVGID_4_);fill:#FFFFFF;}
	.st17{clip-path:url(#SVGID_4_);fill:#CEECFD;}
	.st18{clip-path:url(#SVGID_4_);fill:#AAC654;}
	.st19{clip-path:url(#SVGID_4_);fill:#B3D2F0;}
	.st20{clip-path:url(#SVGID_4_);fill:#C9E8FC;}
	.st21{clip-path:url(#SVGID_4_);fill:#92AD46;}
	.st22{clip-path:url(#SVGID_4_);fill:#CCCCCC;}
	.st23{clip-path:url(#SVGID_4_);fill:#29490D;}
	.st24{clip-path:url(#SVGID_4_);fill:#7D9A28;}
	.st25{clip-path:url(#SVGID_4_);fill:#5D838C;}
	.st26{clip-path:url(#SVGID_4_);fill:#E8E8E8;}
	.st27{clip-path:url(#SVGID_4_);fill:#AC1E22;}
	.st28{clip-path:url(#SVGID_4_);fill:#EB0000;}
	.st29{clip-path:url(#SVGID_6_);fill:#203809;}
	.st30{clip-path:url(#SVGID_6_);fill:#29490D;}
	.st31{fill:#5C9FCE;}
	.st32{fill:#AC6165;}
	.st33{fill:#7299A5;}
	.st34{fill:#EB0000;}
	.st35{fill:#263A40;}
	.st36{fill:#86A1A9;}
	.st37{fill:#C8A59A;}
	.st38{fill:#AE8376;}
	.st39{fill:#E1F2ED;}
	.st40{fill:#7E726A;}
	.st41{fill:#FFFDEA;}
	.st42{opacity:0.2;fill:#E5E5E5;}
	.st43{fill:#101C50;}
	.st44{fill:#374B8E;}
	.st45{fill:#445495;}
	.st46{fill:#FFFFFF;}
	.st47{fill:#E5E5E5;}
	.st48{fill:#767676;}
	.st49{fill:#444444;}
	.st50{fill:#D2D2D2;}
	.st51{fill:#CAD1E5;}
	.st52{opacity:0.2;}
	.st53{fill:#1D1D1B;}
	.st54{opacity:0.1;}
	.st55{fill:#BDBDBD;}
	.st56{fill:#F1B186;}
	.st57{fill:#E1F4EE;}
	.st58{fill:#5F333A;}
	.st59{fill:#0F1B42;}
	.st60{fill:#050E28;}
	.st61{fill:#7A88BC;}
	.st62{fill:#DDA47F;}
	.st63{fill:#4A2930;}
	.st64{fill:#282827;}
	.st65{fill:#263238;}
	.st66{fill:#EEEEEE;}
	.st67{fill:#CCCBCB;}
	.st68{fill:#808080;}
	.st69{fill:#E84E10;}
	.st70{fill:#0079C7;}
	.st71{fill:#F27E00;}
	.st72{fill:#AC1E22;}
	.st73{fill:#8B3024;}
	.st74{fill:#F6F6F6;}
	.st75{fill:#FCBB00;}
	.st76{fill:#B3D2F0;}
	.st77{fill:#3E201D;}
	.st78{fill:#2C2C33;}
	.st79{fill:#B11921;}
	.st80{fill:#DF0C1D;}
	.st81{fill:#DEF1FC;}
	.st82{fill:#75AAD3;}
	.st83{fill:#E78E53;}
	.st84{opacity:0.48;}
	.st85{fill:#5D3F3A;}
	.st86{fill:#D1E7F9;}
	.st87{fill:#7A7A7A;}
	.st88{fill:#2A2A2B;}
	.st89{fill:#3C3C3B;}
	.st90{fill:#E52431;}
	.st91{fill:#060606;}
	.st92{fill:#F4B673;}
	.st93{fill:#F5C591;}
	.st94{fill:#B72533;}
	.st95{fill:#737373;}
	.st96{fill:#DBAC96;}
	.st97{fill:#E7BCA6;}
	.st98{fill:#CC9787;}
	.st99{fill:#D5A18D;}
	.st100{opacity:0.59;}
	.st101{fill:#BD887D;}
	.st102{fill:#ECD7CB;}
	.st103{fill:#F4BF98;}
	.st104{fill:#EDB288;}
	.st105{clip-path:url(#SVGID_10_);}
	.st106{clip-path:url(#SVGID_12_);fill:#474848;}
	.st107{clip-path:url(#SVGID_12_);}
	.st108{clip-path:url(#SVGID_14_);fill:#212121;}
	.st109{clip-path:url(#SVGID_16_);fill:#EB0000;}
	.st110{clip-path:url(#SVGID_16_);fill:#FFFFFF;}
	.st111{clip-path:url(#SVGID_18_);}
	.st112{clip-path:url(#SVGID_20_);fill:#474848;}
	.st113{clip-path:url(#SVGID_20_);}
	.st114{clip-path:url(#SVGID_22_);fill:#212121;}
	.st115{clip-path:url(#SVGID_24_);fill:url(#SVGID_25_);}
	.st116{clip-path:url(#SVGID_27_);fill:#EB0000;}
	.st117{clip-path:url(#SVGID_29_);}
	.st118{clip-path:url(#SVGID_31_);}
	.st119{clip-path:url(#SVGID_33_);fill:#929292;}
	.st120{clip-path:url(#SVGID_33_);}
	.st121{clip-path:url(#SVGID_33_);fill:none;stroke:#B3B3B3;stroke-width:2;stroke-miterlimit:10;}
	.st122{clip-path:url(#SVGID_33_);fill:#DFDFDF;}
	.st123{clip-path:url(#SVGID_35_);fill:url(#SVGID_36_);}
	.st124{clip-path:url(#SVGID_38_);fill:#DFDFDF;}
	.st125{clip-path:url(#SVGID_38_);fill:#EB0000;}
	.st126{clip-path:url(#SVGID_40_);fill:url(#SVGID_41_);}
	.st127{clip-path:url(#SVGID_43_);}
	.st128{clip-path:url(#SVGID_43_);fill:#0C0C0C;}
	.st129{clip-path:url(#SVGID_43_);fill:none;stroke:#B3B3B3;stroke-miterlimit:10;}
	.st130{filter:url(#Adobe_OpacityMaskFilter);}
	.st131{enable-background:new    ;}
	.st132{filter:url(#Adobe_OpacityMaskFilter_1_);}
	.st133{clip-path:url(#SVGID_43_);mask:url(#SVGID_44_);}
	.st134{clip-path:url(#SVGID_46_);fill:url(#SVGID_47_);}
	.st135{opacity:0.2;clip-path:url(#SVGID_43_);}
	.st136{clip-path:url(#SVGID_49_);}
	.st137{clip-path:url(#SVGID_51_);fill:url(#SVGID_52_);}
	.st138{clip-path:url(#SVGID_43_);fill:#808080;}
</style>
<g id="myway">
</g>
<g id="hintergrund">
	<g>
		<rect x="-534.8" y="-318.6" class="st33" width="1900.9" height="1721.6"/>
	</g>
</g>
<g id="fenster">
	<g>
		<rect x="387.6" y="82.1" class="st1" width="305.3" height="556.1"/>
	</g>
	<g>
		<rect x="-260" y="82.1" class="st1" width="305.3" height="556.1"/>
	</g>
	<g>
		<rect x="66.3" y="82.1" class="st1" width="305.3" height="556.1"/>
	</g>
	<g>
		<rect x="-262" y="39.3" class="st35" width="957.3" height="45.7"/>
	</g>
	<g>
		<rect x="-262" y="71" class="st36" width="957.3" height="14"/>
	</g>
	<g id="stadt_1_">
		
			<rect x="490.1" y="272.3" transform="matrix(-1 -1.224647e-16 1.224647e-16 -1 1090.121 567.0481)" class="st37" width="109.9" height="22.5"/>
		<polyline class="st38" points="600,272.3 534.7,272.3 534.7,294.8 600,294.8 		"/>
		<g>
			<rect x="548.1" y="293.7" class="st38" width="104.1" height="341.8"/>
		</g>
		<g>
			<rect x="445.8" y="293.7" class="st37" width="102.3" height="341.8"/>
		</g>
		<g>
			
				<rect x="621.2" y="351.5" transform="matrix(-1 -1.224647e-16 1.224647e-16 -1 1265.8081 739.8491)" class="st39" width="23.4" height="36.8"/>
		</g>
		<g>
			
				<rect x="456.1" y="351.5" transform="matrix(-1 -1.224647e-16 1.224647e-16 -1 928.5828 739.8491)" class="st39" width="16.3" height="36.8"/>
		</g>
		<g>
			
				<rect x="479.1" y="351.5" transform="matrix(-1 -1.224647e-16 1.224647e-16 -1 974.5441 739.8491)" class="st39" width="16.3" height="36.8"/>
		</g>
		<g>
			
				<rect x="502.1" y="351.5" transform="matrix(-1 -1.224647e-16 1.224647e-16 -1 1020.5062 739.8491)" class="st39" width="16.3" height="36.8"/>
		</g>
		<g>
			
				<rect x="525.1" y="351.5" transform="matrix(-1 -1.224647e-16 1.224647e-16 -1 1066.4675 739.8491)" class="st39" width="16.3" height="36.8"/>
		</g>
		<g>
			
				<rect x="456.1" y="399.8" transform="matrix(-1 -1.224647e-16 1.224647e-16 -1 928.5828 836.3679)" class="st40" width="16.3" height="36.8"/>
		</g>
		<g>
			
				<rect x="479.1" y="399.8" transform="matrix(-1 -1.224647e-16 1.224647e-16 -1 974.5441 836.3679)" class="st39" width="16.3" height="36.8"/>
		</g>
		<g>
			
				<rect x="502.1" y="399.8" transform="matrix(-1 -1.224647e-16 1.224647e-16 -1 1020.5062 836.3679)" class="st40" width="16.3" height="36.8"/>
		</g>
		<g>
			
				<rect x="525.1" y="399.8" transform="matrix(-1 -1.224647e-16 1.224647e-16 -1 1066.4675 836.3679)" class="st40" width="16.3" height="36.8"/>
		</g>
		<g>
			
				<rect x="456.1" y="448.1" transform="matrix(-1 -1.224647e-16 1.224647e-16 -1 928.5828 932.8875)" class="st40" width="16.3" height="36.8"/>
		</g>
		<g>
			
				<rect x="479.1" y="448.1" transform="matrix(-1 -1.224647e-16 1.224647e-16 -1 974.5441 932.8875)" class="st40" width="16.3" height="36.8"/>
		</g>
		<g>
			
				<rect x="502.1" y="448.1" transform="matrix(-1 -1.224647e-16 1.224647e-16 -1 1020.5062 932.8875)" class="st39" width="16.3" height="36.8"/>
		</g>
		<g>
			
				<rect x="525.1" y="448.1" transform="matrix(-1 -1.224647e-16 1.224647e-16 -1 1066.4675 932.8875)" class="st40" width="16.3" height="36.8"/>
		</g>
		<g>
			
				<rect x="590.6" y="351.5" transform="matrix(-1 -1.224647e-16 1.224647e-16 -1 1204.5256 739.8491)" class="st39" width="23.4" height="36.8"/>
		</g>
		<g>
			
				<rect x="559.9" y="351.5" transform="matrix(-1 -1.224647e-16 1.224647e-16 -1 1143.2439 739.8491)" class="st39" width="23.4" height="36.8"/>
		</g>
		<g>
			
				<rect x="621.2" y="399.8" transform="matrix(-1 -1.224647e-16 1.224647e-16 -1 1265.8081 836.3679)" class="st39" width="23.4" height="36.8"/>
		</g>
		<g>
			
				<rect x="590.6" y="399.8" transform="matrix(-1 -1.224647e-16 1.224647e-16 -1 1204.5256 836.3679)" class="st39" width="23.4" height="36.8"/>
		</g>
		<g>
			
				<rect x="559.9" y="399.8" transform="matrix(-1 -1.224647e-16 1.224647e-16 -1 1143.2439 836.3679)" class="st39" width="23.4" height="36.8"/>
		</g>
		<g>
			
				<rect x="621.2" y="448.1" transform="matrix(-1 -1.224647e-16 1.224647e-16 -1 1265.8081 932.8875)" class="st39" width="23.4" height="36.8"/>
		</g>
		<g>
			
				<rect x="590.6" y="448.1" transform="matrix(-1 -1.224647e-16 1.224647e-16 -1 1204.5256 932.8875)" class="st39" width="23.4" height="36.8"/>
		</g>
		<g>
			
				<rect x="559.9" y="448.1" transform="matrix(-1 -1.224647e-16 1.224647e-16 -1 1143.2439 932.8875)" class="st39" width="23.4" height="36.8"/>
		</g>
		<g>
			
				<rect x="456.1" y="496.7" transform="matrix(-1 -1.224647e-16 1.224647e-16 -1 928.5828 1030.2599)" class="st40" width="16.3" height="36.8"/>
		</g>
		<g>
			
				<rect x="479.1" y="496.7" transform="matrix(-1 -1.224647e-16 1.224647e-16 -1 974.5441 1030.2599)" class="st39" width="16.3" height="36.8"/>
		</g>
		<g>
			
				<rect x="502.1" y="496.7" transform="matrix(-1 -1.224647e-16 1.224647e-16 -1 1020.5062 1030.2599)" class="st40" width="16.3" height="36.8"/>
		</g>
		<g>
			
				<rect x="525.1" y="496.7" transform="matrix(-1 -1.224647e-16 1.224647e-16 -1 1066.4675 1030.2599)" class="st39" width="16.3" height="36.8"/>
		</g>
		<g>
			
				<rect x="621.2" y="496.7" transform="matrix(-1 -1.224647e-16 1.224647e-16 -1 1265.8081 1030.2599)" class="st39" width="23.4" height="36.8"/>
		</g>
		<g>
			
				<rect x="590.6" y="496.7" transform="matrix(-1 -1.224647e-16 1.224647e-16 -1 1204.5256 1030.2599)" class="st39" width="23.4" height="36.8"/>
		</g>
		<g>
			
				<rect x="559.9" y="496.7" transform="matrix(-1 -1.224647e-16 1.224647e-16 -1 1143.2439 1030.2599)" class="st39" width="23.4" height="36.8"/>
		</g>
		<g>
			
				<rect x="456.1" y="545.4" transform="matrix(-1 -1.224647e-16 1.224647e-16 -1 928.5828 1127.6316)" class="st39" width="16.3" height="36.8"/>
		</g>
		<g>
			
				<rect x="479.1" y="545.4" transform="matrix(-1 -1.224647e-16 1.224647e-16 -1 974.5441 1127.6316)" class="st39" width="16.3" height="36.8"/>
		</g>
		<g>
			
				<rect x="502.1" y="545.4" transform="matrix(-1 -1.224647e-16 1.224647e-16 -1 1020.5062 1127.6316)" class="st39" width="16.3" height="36.8"/>
		</g>
		<g>
			
				<rect x="525.1" y="545.4" transform="matrix(-1 -1.224647e-16 1.224647e-16 -1 1066.4675 1127.6316)" class="st39" width="16.3" height="36.8"/>
		</g>
		<g>
			
				<rect x="621.2" y="545.4" transform="matrix(-1 -1.224647e-16 1.224647e-16 -1 1265.8081 1127.6316)" class="st39" width="23.4" height="36.8"/>
		</g>
		<g>
			
				<rect x="590.6" y="545.4" transform="matrix(-1 -1.224647e-16 1.224647e-16 -1 1204.5256 1127.6316)" class="st39" width="23.4" height="36.8"/>
		</g>
		<g>
			
				<rect x="559.9" y="545.4" transform="matrix(-1 -1.224647e-16 1.224647e-16 -1 1143.2439 1127.6316)" class="st39" width="23.4" height="36.8"/>
		</g>
		<g>
			
				<rect x="456.1" y="594.1" transform="matrix(-1 -1.224647e-16 1.224647e-16 -1 928.5828 1225.0039)" class="st39" width="16.3" height="36.8"/>
		</g>
		<g>
			
				<rect x="479.1" y="594.1" transform="matrix(-1 -1.224647e-16 1.224647e-16 -1 974.5441 1225.0039)" class="st39" width="16.3" height="36.8"/>
		</g>
		<g>
			
				<rect x="502.1" y="594.1" transform="matrix(-1 -1.224647e-16 1.224647e-16 -1 1020.5062 1225.0039)" class="st39" width="16.3" height="36.8"/>
		</g>
		<g>
			
				<rect x="525.1" y="594.1" transform="matrix(-1 -1.224647e-16 1.224647e-16 -1 1066.4675 1225.0039)" class="st39" width="16.3" height="36.8"/>
		</g>
		<g>
			
				<rect x="621.2" y="594.1" transform="matrix(-1 -1.224647e-16 1.224647e-16 -1 1265.8081 1225.0039)" class="st39" width="23.4" height="36.8"/>
		</g>
		<g>
			
				<rect x="590.6" y="594.1" transform="matrix(-1 -1.224647e-16 1.224647e-16 -1 1204.5256 1225.0039)" class="st39" width="23.4" height="36.8"/>
		</g>
		<g>
			
				<rect x="559.9" y="594.1" transform="matrix(-1 -1.224647e-16 1.224647e-16 -1 1143.2439 1225.0039)" class="st39" width="23.4" height="36.8"/>
		</g>
	</g>
	<g>
		<rect x="-262" y="625.7" class="st35" width="955" height="12.5"/>
	</g>
</g>
<g id="licht">
	<polygon class="st42" points="-459.3,-181.7 264.8,-181.7 577,852 -806.6,846.1 	"/>
	<polygon class="st42" points="786.7,-167.7 1510.8,-167.7 1823,866 439.4,860.1 	"/>
	<polygon class="st42" points="-266,70 864.8,71 1177,852 -806.6,847.5 	"/>
</g>
<g id="büro_1_">
	<g>
		<g>
			
				<rect x="-34.4" y="723.1" transform="matrix(-1 -4.502544e-11 4.502544e-11 -1 -31.0697 1468.7351)" class="st43" width="37.8" height="22.5"/>
		</g>
		<g>
			<path class="st43" d="M549.8,969.4L549.8,969.4c3,0,5.4-2.4,5.4-5.4V738.4h-10.9v225.5C544.3,966.9,546.8,969.4,549.8,969.4z"/>
		</g>
		<g>
			
				<rect x="531.3" y="723.1" transform="matrix(-1 -4.468837e-11 4.468837e-11 -1 1100.2839 1468.7351)" class="st43" width="37.8" height="22.5"/>
		</g>
		<g>
			<path class="st43" d="M594.1,969.4L594.1,969.4c3,0,5.4-2.4,5.4-5.4V738.4h-10.9v225.5C588.7,966.9,591.1,969.4,594.1,969.4z"/>
		</g>
		<g>
			
				<rect x="575.6" y="723.1" transform="matrix(-1 -4.502544e-11 4.502544e-11 -1 1188.9303 1468.7351)" class="st43" width="37.8" height="22.5"/>
		</g>
		<g>
			
				<rect x="-111.4" y="675.9" transform="matrix(-1 -3.702961e-11 3.702961e-11 -1 530.627 1403.3586)" class="st43" width="753.5" height="51.6"/>
		</g>
		<g>
			
				<rect x="-111.4" y="675.9" transform="matrix(-1 -3.388768e-11 3.388768e-11 -1 535.862 1403.3586)" class="st44" width="758.7" height="51.6"/>
		</g>
		<g>
			<g>
				<g>
					<path class="st43" d="M44,656.1v-13.4h59.3v13.4c0,7.9,6.4,14.3,14.3,14.3h14.1v5.8H15.6v-5.8h14.1C37.6,670.4,44,664,44,656.1
						z"/>
				</g>
				<g>
					<g>
						<path class="st43" d="M-89.1,446.9c0-5.2,4.2-9.4,9.4-9.4h308.4c5.2,0,9.4,4.2,9.4,9.4v171.4H-89.1V446.9z"/>
					</g>
					<g>
						<path class="st45" d="M238.1,618.3v20.8c0,5.2-4.2,9.4-9.4,9.4H-79.7c-5.2,0-9.4-4.2-9.4-9.4v-20.8H238.1z"/>
					</g>
				</g>
				<g>
					
						<rect x="-81.5" y="447.3" transform="matrix(-1 -4.491886e-11 4.491886e-11 -1 147.0657 1061.4562)" class="st46" width="310.1" height="166.8"/>
				</g>
			</g>
			<g>
				
					<rect x="-81.5" y="481.5" transform="matrix(-1 -4.491886e-11 4.491886e-11 -1 147.0657 1000.673)" class="st47" width="310.1" height="37.6"/>
			</g>
			<g>
				
					<rect x="-76.6" y="473.8" transform="matrix(-1 -4.521995e-11 4.521995e-11 -1 -51.8985 951.5291)" class="st48" width="101.3" height="3.9"/>
			</g>
			<g>
				
					<rect x="-76.6" y="466" transform="matrix(-1 -4.521995e-11 4.521995e-11 -1 -51.8985 935.9069)" class="st48" width="101.3" height="3.9"/>
			</g>
			<g>
				
					<rect x="35.6" y="451.6" transform="matrix(-1 -4.538293e-11 4.538293e-11 -1 75.8737 1043.0498)" class="st49" width="4.6" height="139.9"/>
			</g>
			<g>
				<path class="st43" d="M238.3,628.2H-89.2v10.7c0,5.3,4.3,9.5,9.5,9.5H228c5.7,0,10.3-4.6,10.3-10.3V628.2z"/>
			</g>
			<g>
				<g>
					<rect x="59.4" y="496.2" class="st50" width="16.2" height="96"/>
				</g>
				<g>
					<rect x="81.4" y="510.8" class="st50" width="16.2" height="81.4"/>
				</g>
				<g>
					<rect x="103.3" y="529.7" class="st50" width="16.2" height="62.5"/>
				</g>
			</g>
		</g>
		<g>
			<g>
				<path class="st43" d="M380.6,656.1v-13.4H440v13.4c0,7.9,6.4,14.3,14.3,14.3h14.1v5.8H352.2v-5.8h14.1
					C374.2,670.4,380.6,664,380.6,656.1z"/>
			</g>
			<g>
				<g>
					<path class="st43" d="M247.6,446.9c0-5.2,4.2-9.4,9.4-9.4h308.4c5.2,0,9.4,4.2,9.4,9.4v171.4H247.6V446.9z"/>
				</g>
				<g>
					<path class="st45" d="M574.7,618.3v20.8c0,5.2-4.2,9.4-9.4,9.4H256.9c-5.2,0-9.4-4.2-9.4-9.4v-20.8H574.7z"/>
				</g>
			</g>
			<g>
				
					<rect x="255.1" y="447.3" transform="matrix(-1 -4.491886e-11 4.491886e-11 -1 820.3712 1061.4562)" class="st46" width="310.1" height="166.8"/>
			</g>
		</g>
		<g>
			
				<rect x="255.1" y="481.5" transform="matrix(-1 -1.310726e-10 1.310726e-10 -1 616.5358 1000.673)" class="st47" width="106.3" height="37.6"/>
		</g>
		<g>
			
				<rect x="355.8" y="481.5" transform="matrix(-1 -1.310726e-10 1.310726e-10 -1 817.907 1000.673)" class="st47" width="106.3" height="37.6"/>
		</g>
		<g>
			
				<rect x="456.5" y="481.5" transform="matrix(-1 -1.310726e-10 1.310726e-10 -1 1019.2782 1000.673)" class="st47" width="106.3" height="37.6"/>
		</g>
		<g>
			<path class="st43" d="M574.9,628.2H247.5v10.7c0,5.3,4.3,9.5,9.5,9.5h307.6c5.7,0,10.3-4.6,10.3-10.3V628.2z"/>
		</g>
		<g class="st52">
			<g>
				<path class="st53" d="M37.4,998.6v-4.2H37c5.3-1.5,9.1-6.2,9.1-11.9c0-6.9-5.6-12.4-12.4-12.4s-12.4,5.6-12.4,12.4
					c0,5.7,3.9,10.5,9.1,11.9h-1.3v4c0,3,2.5,5.5,5.5,5.5"/>
			</g>
		</g>
		<g class="st54">
			<defs>
				<path id="SVGID_7_" class="st54" d="M37.4,1000v-4.2H37c5.3-1.5,9.1-6.2,9.1-11.9c0-6.9-5.6-12.4-12.4-12.4s-12.4,5.6-12.4,12.4
					c0,5.7,3.9,10.5,9.1,11.9h-1.3v4c0,3,2.5,5.5,5.5,5.5"/>
			</defs>
			<use xlink:href="#SVGID_7_"  style="overflow:visible;fill:#1D1D1B;"/>
			<clipPath id="SVGID_2_">
				<use xlink:href="#SVGID_7_"  style="overflow:visible;"/>
			</clipPath>
		</g>
		<path class="st48" d="M207.8,791.2l48,170.2l-26.5,1.8c0,0-28-64.4-36.7-84.4c-8.6-20-25.3-85.5-25.3-85.5L207.8,791.2z"/>
		<path class="st55" d="M284.5,794.7c0,0-25.7,89-33.5,100.9s-29.2,61.4-29.2,61.4s-17.3-1.8-21.5-5.1c-4.2-3.3,11.6-32.5,11.3-43.2
			c-0.3-10.7,15.5-71.5,21.5-82c6-10.4,16.1-35.5,16.1-35.5L284.5,794.7z"/>
		<path class="st55" d="M150.4,734c0,0,133.1,43.6,135.8,47.9c2.8,4.4-2.8,15-2.8,15H170.2c0,0-78.3,4.1-83-4.7
			c-4.7-8.8-9.5-46.3-9.5-46.3L150.4,734z"/>
		<g>
			<g>
				<path class="st56" d="M327.4,678.1h-25c0,0-7.1-12.8-10.5-14s6.7-8.1,10.9-7.4c4.3,0.7,11.2,5.2,13.8,5.9c2.6,0.7,6.7,1,7.8,2.6
					C325.8,666.9,327.4,678.1,327.4,678.1z"/>
			</g>
			<g>
				<path class="st57" d="M303.8,678.1h-64.6c-9.2,0-17.8-4.5-23-12.1l-18.7-27c-1.5-2.1-4.8-1.7-5.7,0.7L172,692.1
					c-1.3,3.4-1.7,7.1-1,10.8c2,11.8,6.5,38.4,6.7,39.6c0.2,1.6-73.5,20-88.2,13.9s-24.6-75.1-18.1-108.3c6.5-33.2-0.4-68.6,25.5-91
					s37.7-19.1,42.3-18.6c32.7,4,43.6,17.7,51.3,19c7.8,1.3,12.9,16.4,15.1,23.3c2.2,6.9,35.4,72,41.8,73.3l41.9,8.4
					c4.9,1,9,4.2,11.2,8.6L303.8,678.1z"/>
			</g>
			<g>
				<path class="st39" d="M96.7,557.1c10.4-9,18.5-13.9,24.8-16.4c2.9,0.5,5.8,1,8.6,1.7c14.3,3.6,28.9,0.8,38.3,12.3
					c9,11,22.2,29.8,30,41c10.6,15.2,16,28.5,21.2,38.3c7.5,13.9,6.1,21.3,19.8,29.6c21.6,13.1,36.6,12.9,61.3,8.5l3,6.1h-64.6
					c-9.2,0-17.8-4.5-23-12.1l-18.7-27c-1.5-2.1-4.8-1.7-5.7,0.7L172,692.1c-1.3,3.4-1.7,7.1-1,10.8c2,11.8,6.5,38.4,6.7,39.6
					c0.2,1.6-73.5,20-88.2,13.9c-14.7-6-24.6-75.1-18.1-108.3C77.8,614.9,70.8,579.5,96.7,557.1z"/>
			</g>
			<g>
				<path class="st58" d="M200.3,471.8c0,0,3.1-0.8,4.4-2.9c1.3-2.2-1.2-6.1-1-8.5c0.2-2.4,0.9-5.3,0.9-5.3s-3.1-13.1-9.1-11.7
					c-6,1.4-14.4-2.9-17.6-3.4c-3.2-0.5-20.9,2.9-28.8,9.4c-7.8,6.5-11.1,21.5-10.6,27.5c0.5,6,2.3,21.1,2.3,25.3s0,8.5,4.8,8.4
					c4.8-0.1,26-9.6,30.2-11.2c4.1-1.6,11-2.4,12.4-10.4S200.3,471.8,200.3,471.8z"/>
			</g>
			<g>
				<path class="st56" d="M182,484.2c0.6-1.9-0.7-3.9-2.7-3.9c-3.4-0.1-7.8,0.9-8.3,6.1c-0.9,8.6,1.9,9.4,1.9,9.4
					s-8.1,8.3-16.8,10.9c-8.6,2.6-12.9,1.4-12.9,1.4s-13.8,31.1-15.7,31.8s4.1,9.9,33.7,6c0,0,7.4-20.6,9.5-20.5s14.6,2.1,15.7-0.7
					c1.1-2.8,0.2-4.6,1.9-6.9c1.8-2.3,6.7-6.4,7.6-8.5c0.9-2.1,1.8-8.6,1.6-12c-0.2-3.4,3.2-5.3,3.9-9.2c0.5-2.6,0.3-11,0.2-16.2
					c-0.1-2-2.2-3.2-4-2.3l-10.7,5.6c0,0-1.4,14.5-1.6,15.2c-0.2,0.7-5.3,2.1-5.5,1.1C179.9,491,181.1,487.1,182,484.2z"/>
			</g>
		</g>
		<g>
			<g>
				<line class="st44" x1="111.1" y1="822.5" x2="98.8" y2="822.5"/>
			</g>
			<g>
				<path class="st44" d="M38.1,945.5v4.2h-8.2v-4c0-3,2.5-5.5,5.5-5.5"/>
			</g>
			<g>
				<path class="st43" d="M46.9,961.7c0,6.9-5.6,12.4-12.4,12.4S22,968.6,22,961.7c0-6.9,5.6-12.4,12.4-12.4S46.9,954.8,46.9,961.7z
					"/>
			</g>
			<g>
				<path class="st45" d="M266.6,797.2L266.6,797.2c0,2.2-1.8,3.9-3.9,3.9H44.9c0,0-48.7-6.2-59.5-67.2
					c-7.9-44.7-14.9-96.5-18.2-121.1c-1.1-8.6,3.3-17,11-21l0,0c0,0,61.6-14.4,97.5,65.7c3.1,6.9,5.9,13.4,8.6,19.7
					c28.1,66.9,34.3,101,85.9,107.5c46.3,5.9,81.6,8,92.7,8.6C265,793.4,266.6,795.1,266.6,797.2z"/>
			</g>
			<g>
				<g>
					<path class="st59" d="M115.4,824.8H83.7c-3.3,0-6-2.7-6-6v-8.4h37.7V824.8z"/>
				</g>
				<g>
					<path class="st60" d="M132.1,810.4v8.4c0,3.3-2.7,6-6,6h-10.7v-14.4H132.1z"/>
				</g>
				<g>
					<path class="st59" d="M115.4,800.4v6.3H77.8v3.8H60.1c-3.1,0-5.7-2.5-5.7-5.7v-4.3H115.4z"/>
				</g>
				<g>
					<path class="st60" d="M115.4,806.7v-6.3h40v4.3c0,3.1-2.5,5.7-5.7,5.7h-17.6v-3.8H115.4z"/>
				</g>
				<g>
					<rect x="77.8" y="806.7" class="st59" width="37.7" height="3.8"/>
				</g>
				<g>
					<rect x="115.4" y="806.7" class="st60" width="16.7" height="3.8"/>
				</g>
			</g>
			<g>
				<polygon class="st43" points="111.6,824.9 111.6,918.6 98.7,914.2 98.8,824.9 				"/>
			</g>
			<g>
				<path class="st43" d="M155.4,789.8c0,0-38.8,0-53.4-32.4c-14.5-32.4-49.1-141.8-85-152.6c-17.9-5.4-29.1-6.1-35.8-5.5
					c-5,0.5-8.5,5.2-7.8,10.2L-7,739.1c0,0,1.2,43.3,44.5,53.5c43.3,10.2,147.1,5.3,147.1,5.3L155.4,789.8z"/>
			</g>
			<g>
				<path class="st61" d="M73.4,689.3c0,0-12.8-34.7-26-54.6c-30.6-46.2-69.2-42.9-69.2-42.9s19.4-3,36.9,3.2
					c17.5,6.2,37.5,22.7,42.9,32.5c12.1,14.9,26.3,49.7,26.3,49.7L73.4,689.3z"/>
			</g>
		</g>
		<g>
			<path class="st62" d="M126.3,539.9c1.9-0.7,15.7-31.8,15.7-31.8s3.9,1.1,11.8-1.1c-0.6,1-1.2,2.1-1.8,3.2
				c-4.9,9.4-9.2,27-2.1,36.6C129,547.7,124.6,540.6,126.3,539.9z"/>
		</g>
		<g>
			<path class="st63" d="M146.1,449.3c7.8-6.5,25.6-10,28.8-9.4c2.1,0.4,6.7,2.4,11.3,3.3c-3.6,1.7-7.2,3.6-10.6,5.7
				c-7.3,4.4-14.3,9.8-20,16.1c-8.3,9.1-12.4,21.3-4.8,32.2c2.8,3.9,6.1,6.2,9.8,7.2c-7.2,2.9-15.2,6-17.9,6.1
				c-4.8,0.1-4.8-4.3-4.8-8.4c0-4.1-1.7-19.3-2.3-25.3C134.9,470.8,138.2,455.9,146.1,449.3z"/>
		</g>
		<g>
			
				<rect x="260.1" y="522.2" transform="matrix(-1 -4.473323e-11 4.473323e-11 -1 621.3531 1048.329)" class="st51" width="101.3" height="3.9"/>
		</g>
		<g>
			
				<rect x="260.1" y="528.8" transform="matrix(-1 -4.493085e-11 4.493085e-11 -1 621.3531 1061.394)" class="st51" width="101.3" height="3.9"/>
		</g>
		<g>
			
				<rect x="260.1" y="535.3" transform="matrix(-1 -4.475099e-11 4.475099e-11 -1 621.3531 1074.4586)" class="st51" width="101.3" height="3.9"/>
		</g>
		<g>
			
				<rect x="260.1" y="541.8" transform="matrix(-1 -4.485002e-11 4.485002e-11 -1 621.3531 1087.5236)" class="st51" width="101.3" height="3.9"/>
		</g>
		<g>
			
				<rect x="260.1" y="548.4" transform="matrix(-1 -4.492152e-11 4.492152e-11 -1 621.3531 1100.5886)" class="st51" width="101.3" height="3.9"/>
		</g>
		<g>
			
				<rect x="260.1" y="554.9" transform="matrix(-1 -4.484070e-11 4.484070e-11 -1 621.3531 1113.6532)" class="st51" width="101.3" height="3.9"/>
		</g>
		<g>
			
				<rect x="260.1" y="561.4" transform="matrix(-1 -4.493085e-11 4.493085e-11 -1 621.3531 1126.7183)" class="st51" width="101.3" height="3.9"/>
		</g>
		<g>
			
				<rect x="260.1" y="568" transform="matrix(-1 -4.484070e-11 4.484070e-11 -1 621.3531 1139.7832)" class="st51" width="101.3" height="3.9"/>
		</g>
		<g>
			
				<rect x="260.1" y="574.5" transform="matrix(-1 -4.493085e-11 4.493085e-11 -1 621.3531 1152.8478)" class="st51" width="101.3" height="3.9"/>
		</g>
		<g>
			
				<rect x="260.1" y="581" transform="matrix(-1 -4.494861e-11 4.494861e-11 -1 621.3531 1165.9128)" class="st51" width="101.3" height="3.9"/>
		</g>
		<g>
			<g>
				
					<rect x="391.1" y="522.2" transform="matrix(-1 -2.727297e-11 2.727297e-11 -1 948.176 1048.3307)" class="st50" width="166.1" height="3.9"/>
			</g>
			<g>
				
					<rect x="391.1" y="528.8" transform="matrix(-1 -2.740442e-11 2.740442e-11 -1 948.176 1061.3958)" class="st50" width="166.1" height="3.9"/>
			</g>
			<g>
				
					<rect x="391.1" y="535.3" transform="matrix(-1 -2.733870e-11 2.733870e-11 -1 948.176 1074.4603)" class="st50" width="166.1" height="3.9"/>
			</g>
			<g>
				
					<rect x="391.1" y="541.8" transform="matrix(-1 -2.733870e-11 2.733870e-11 -1 948.176 1087.5253)" class="st50" width="166.1" height="3.9"/>
			</g>
			<g>
				
					<rect x="391.1" y="548.4" transform="matrix(-1 -2.739377e-11 2.739377e-11 -1 948.176 1100.5903)" class="st50" width="166.1" height="3.9"/>
			</g>
			<g>
				
					<rect x="391.1" y="554.9" transform="matrix(-1 -2.733870e-11 2.733870e-11 -1 948.176 1113.6549)" class="st50" width="166.1" height="3.9"/>
			</g>
			<g>
				
					<rect x="391.1" y="561.4" transform="matrix(-1 -2.739377e-11 2.739377e-11 -1 948.176 1126.7198)" class="st50" width="166.1" height="3.9"/>
			</g>
			<g>
				
					<rect x="391.1" y="568" transform="matrix(-1 -2.727297e-11 2.727297e-11 -1 948.176 1139.7849)" class="st50" width="166.1" height="3.9"/>
			</g>
			<g>
				
					<rect x="391.1" y="574.5" transform="matrix(-1 -2.739377e-11 2.739377e-11 -1 948.176 1152.8495)" class="st50" width="166.1" height="3.9"/>
			</g>
			<g>
				
					<rect x="391.1" y="581" transform="matrix(-1 -2.733870e-11 2.733870e-11 -1 948.176 1165.9144)" class="st50" width="166.1" height="3.9"/>
			</g>
		</g>
		<g>
			
				<rect x="372.2" y="451.6" transform="matrix(-1 -4.689772e-11 4.689772e-11 -1 749.359 1056.4442)" class="st48" width="4.9" height="153.3"/>
		</g>
	</g>
</g>
<g id="laptop">
	<g>
		<g>
			<g>
				<g>
					<path d="M720.5,890c0-9.9-8-17.9-17.9-17.9H43c-9.9,0-17.9,8-17.9,17.9v423.8c0,9.9,8,17.9,17.9,17.9h659.5
						c9.9,0,17.9-8,17.9-17.9V890z"/>
				</g>
			</g>
			<g>
				<g>
					<g>
						<circle class="st64" cx="374.6" cy="885.3" r="4.3"/>
					</g>
				</g>
				<g>
					<g>
						<circle cx="374.6" cy="885.3" r="1.6"/>
					</g>
				</g>
			</g>
			<g>
				<g>
					<path class="st65" d="M51.4,1264.5V906.1c0-5.6,4.5-10.1,10.1-10.1h620.3c5.6,0,10.1,4.5,10.1,10.1v358.4
						c0,5.6-4.5,10.1-10.1,10.1H61.5C55.9,1274.6,51.4,1270.1,51.4,1264.5z"/>
				</g>
			</g>
		</g>
		<g>
			<g>
				<g>
					<path class="st66" d="M-37,1300.8c-3.8,0-6.9,3.1-6.9,6.9v12.3c0,7.8,41.1,14.1,47.2,14.1h735.1c6.1,0,48.6-6.4,48.6-14.1
						v-12.3c0-3.8-3.1-6.9-6.9-6.9H-37z"/>
				</g>
			</g>
			<g>
				<path class="st67" d="M-43.9,1319.8v0.1c0,7.8,41.1,14.1,47.2,14.1h735.1c6.1,0,48.6-6.4,48.6-14.1v-0.1H-43.9z"/>
			</g>
			<g>
				<g>
					<path class="st68" d="M344.9,1300.8c0,5.6,4,8.9,8.9,8.9h36.8c4.9,0,8.9-3.3,8.9-8.9H344.9z"/>
				</g>
			</g>
			<g>
				<path class="st68" d="M37.6,1312.6H11.7c-1.4,0-2.5-1.1-2.5-2.5l0,0c0-1.4,1.1-2.5,2.5-2.5h25.9c1.4,0,2.5,1.1,2.5,2.5l0,0
					C40.2,1311.5,39,1312.6,37.6,1312.6z"/>
			</g>
		</g>
	</g>
</g>
<g id="code">
	<g>
		<path class="st69" d="M288.5,959.3h-182c-3.3,0-6-2.7-6-6s2.7-6,6-6h182c3.3,0,6,2.7,6,6S291.8,959.3,288.5,959.3z"/>
	</g>
	<g>
		<path class="st70" d="M547.6,985H318.4c-3.3,0-6-2.7-6-6s2.7-6,6-6h229.2c3.3,0,6,2.7,6,6S550.9,985,547.6,985z"/>
	</g>
	<g>
		<path class="st71" d="M422.4,1242.6H193.2c-3.3,0-6-2.7-6-6s2.7-6,6-6h229.2c3.3,0,6,2.7,6,6S425.7,1242.6,422.4,1242.6z"/>
	</g>
	<g>
		<path class="st46" d="M273.1,985H125.8c-3.3,0-6-2.7-6-6s2.7-6,6-6h147.3c3.3,0,6,2.7,6,6S276.4,985,273.1,985z"/>
	</g>
	<g>
		<path class="st46" d="M123.8,933.5H87.2c-3.3,0-6-2.7-6-6s2.7-6,6-6h36.6c3.3,0,6,2.7,6,6S127.1,933.5,123.8,933.5z"/>
	</g>
	<g>
		<path class="st46" d="M181.6,1088.1H145c-3.3,0-6-2.7-6-6s2.7-6,6-6h36.6c3.3,0,6,2.7,6,6S184.9,1088.1,181.6,1088.1z"/>
	</g>
	<g>
		<path class="st72" d="M338.6,1010.8H125.8c-3.3,0-6-2.7-6-6s2.7-6,6-6h212.8c3.3,0,6,2.7,6,6S341.9,1010.8,338.6,1010.8z"/>
	</g>
	<g>
		<g>
			<rect x="273.1" y="973" class="st71" width="52" height="12"/>
		</g>
	</g>
	<g>
		<g>
			<path class="st46" d="M216.3,1139.6h-23.1c-3.3,0-6-2.7-6-6s2.7-6,6-6h23.1c3.3,0,6,2.7,6,6S219.6,1139.6,216.3,1139.6z"/>
		</g>
	</g>
	<g>
		<g>
			<path class="st46" d="M577.4,959.3H423.3c-3.3,0-6-2.7-6-6s2.7-6,6-6h154.1c3.3,0,6,2.7,6,6S580.7,959.3,577.4,959.3z"/>
		</g>
	</g>
	<g>
		<path class="st46" d="M529.3,1010.8h-129c-3.3,0-6-2.7-6-6s2.7-6,6-6h129c3.3,0,6,2.7,6,6S532.6,1010.8,529.3,1010.8z"/>
	</g>
	<g>
		<g>
			<path class="st46" d="M207.6,1036.5h-81.9c-3.3,0-6-2.7-6-6s2.7-6,6-6h81.9c3.3,0,6,2.7,6,6S210.9,1036.5,207.6,1036.5z"/>
		</g>
	</g>
	<g>
		<g>
			<path class="st72" d="M367.5,1113.8H193.2c-3.3,0-6-2.7-6-6s2.7-6,6-6h174.3c3.3,0,6,2.7,6,6S370.8,1113.8,367.5,1113.8z"/>
		</g>
	</g>
	<g>
		<g>
			<path class="st48" d="M572.6,1242.6H330.5c-3.3,0-6-2.7-6-6s2.7-6,6-6h242.1c3.3,0,6,2.7,6,6S575.9,1242.6,572.6,1242.6z"/>
		</g>
	</g>
	<g>
		<g>
			<path class="st48" d="M567.8,1036.5H443.1c-3.3,0-6-2.7-6-6s2.7-6,6-6h124.7c3.3,0,6,2.7,6,6S571.1,1036.5,567.8,1036.5z"/>
		</g>
	</g>
	<g>
		<g>
			<path class="st73" d="M262.5,1062.3h-40.4c-3.3,0-6-2.7-6-6s2.7-6,6-6h40.4c3.3,0,6,2.7,6,6S265.8,1062.3,262.5,1062.3z"/>
		</g>
	</g>
	<g>
		<g>
			<path class="st69" d="M201.1,1062.3h-46.4c-3.3,0-6-2.7-6-6s2.7-6,6-6h46.4c3.3,0,6,2.7,6,6S204.4,1062.3,201.1,1062.3z"/>
		</g>
	</g>
	<g>
		<path class="st46" d="M606.3,1113.8H429.1c-3.3,0-6-2.7-6-6s2.7-6,6-6h177.2c3.3,0,6,2.7,6,6S609.6,1113.8,606.3,1113.8z"/>
	</g>
	<g>
		<path class="st74" d="M442.6,1165.3H193.2c-3.3,0-6-2.7-6-6s2.7-6,6-6h249.4c3.3,0,6,2.7,6,6S445.9,1165.3,442.6,1165.3z"/>
	</g>
	<g>
		<path class="st46" d="M497.5,1191.1H193.2c-3.3,0-6-2.7-6-6s2.7-6,6-6h304.3c3.3,0,6,2.7,6,6S500.8,1191.1,497.5,1191.1z"/>
	</g>
	<g>
		<path class="st74" d="M663.1,1216.9h-470c-3.3,0-6-2.7-6-6s2.7-6,6-6h470c3.3,0,6,2.7,6,6S666.4,1216.9,663.1,1216.9z"/>
	</g>
	<g>
		<path class="st46" d="M625.6,1139.6h-55.9c-3.3,0-6-2.7-6-6s2.7-6,6-6h55.9c3.3,0,6,2.7,6,6S628.9,1139.6,625.6,1139.6z"/>
	</g>
	<g>
		<g>
			<rect x="367.5" y="1101.8" class="st48" width="61.6" height="12"/>
		</g>
	</g>
	<g>
		<g>
			<rect x="508.1" y="1127.6" class="st75" width="61.6" height="12"/>
		</g>
	</g>
	<g>
		<g>
			<rect x="338.6" y="998.8" class="st75" width="61.6" height="12"/>
		</g>
	</g>
	<g>
		<g>
			<path class="st70" d="M385.7,1139.6h-60.8c-3.3,0-6-2.7-6-6s2.7-6,6-6h60.8c3.3,0,6,2.7,6,6S389,1139.6,385.7,1139.6z"/>
		</g>
	</g>
	<g>
		<g>
			<path class="st71" d="M598.6,1165.3H457.3c-3.3,0-6-2.7-6-6s2.7-6,6-6h141.3c3.3,0,6,2.7,6,6S601.9,1165.3,598.6,1165.3z"/>
		</g>
	</g>
	<g>
		<g>
			<path class="st75" d="M548.5,1139.6H423.8c-3.3,0-6-2.7-6-6s2.7-6,6-6h124.7c3.3,0,6,2.7,6,6S551.8,1139.6,548.5,1139.6z"/>
		</g>
	</g>
	<g>
		<g>
			<rect x="216.3" y="1127.6" class="st69" width="115.6" height="12"/>
		</g>
	</g>
	<g>
		<g>
			<rect x="241.3" y="947.3" class="st48" width="182" height="12"/>
		</g>
	</g>
	<g>
		<g>
			<rect x="205.3" y="1024.5" class="st75" width="242.1" height="12"/>
		</g>
	</g>
</g>
<g id="schalter">
</g>
<g id="hand">
	<g>
		<g>
			<polygon class="st96" points="594.6,1218.9 617.1,1196.4 643.4,1183.3 605.2,1165.2 574,1207 592.1,1220.2 			"/>
		</g>
		<g>
			<path class="st97" d="M707.7,1144.5c0,0-36.3,1.3-47.5-3.8c0,0-23.8-9.4-33.8-10.6c0,0-27.5-15-36.9,1.9l-25.6,39.4
				c0,0-9.4,8.1-16.3,23.1l-5.6,6.9c0,0-4.4,8.8,4.4,11.9c8.8,3.1,32.8-9.7,32.8-9.7s10.6-11.9,9.4-14.4c0,0,16.3-8.1,20.6-20.6
				c0,0,11.3,10.6,21.9,10.6l8.1,12.5L707.7,1144.5z"/>
		</g>
		<g>
			<path class="st96" d="M554.6,1234.5c0,0-11.9,10-4.4,21.3c5.4,8.1,15.3,4.2,20.5,1.4c2-1.1,3.3-2,3.3-2L554.6,1234.5z"/>
		</g>
		<g>
			<path class="st98" d="M605.9,1289.3c-2.5,3.7-6.1,6.9-10.4,8.6c-2.1,0.8-4.4,1.2-6.6,1.1c-3.6-0.2-6.5-1.2-8.3-4.4
				c-1-1.7-1.5-3.7-1.5-5.6c-0.2-7.8,5.8-14.9,11-20.1c0.4-0.4,0.7-0.7,1.1-1.1l15.9,19.8C607.1,1287.5,605.9,1289.3,605.9,1289.3z"
				/>
		</g>
		<g>
			<path class="st98" d="M610.2,1233.3c0-1,19.2-16.2,38.8-21.9c2-0.6-1.3-4.7,0.6-5c2.9-0.5,10.8,3,13.8,3.1l-7.5,10.6l-0.6,37.5
				l-48.1-20L610.2,1233.3z"/>
		</g>
		<g>
			<path class="st99" d="M572.1,1258.3l-0.2,0.2l-9.2,13.5c0,0-2.5,6.9,2.5,11.3s9.4,3.8,9.4,3.8s5,0,6.9-2.5s11.3-18.8,11.3-18.8
				L572.1,1258.3z"/>
		</g>
		<g class="st100">
			<g>
				<path class="st101" d="M598.3,1222l0.3-0.4l3.5-5.2l9.4-10l20.6-6.9l11.3-4.4l8.1,8.8l0.6,7.5c0,0-1.9,15-21.3,10.6
					c0,0-4.4,4.4-7.5,3.8c0,0-7.5,7.5-8.8,14.4l-17.5-16.9L598.3,1222z"/>
			</g>
		</g>
		<g>
			<path class="st99" d="M597.1,1218.3l0.3-0.4l3.5-5.2l9.4-10l20.6-6.9l11.3-4.4l8.1,8.8l0.6,7.5c0,0-1.9,15-21.3,10.6
				c0,0-4.4,4.4-7.5,3.8c0,0-7.5,7.5-8.8,14.4l-17.5-16.9L597.1,1218.3z"/>
		</g>
		<g>
			<path class="st96" d="M647.1,1203.9c0,0-3.1,10,2.5,12.5v6.3l2.5,8.1l16.3-21.3L647.1,1203.9z"/>
		</g>
		<g>
			<path class="st97" d="M782.8,1251.7v133.2c0,0-33.1-28.1-39.4-31.3c0,0-11.3-5.6-25.6-5.6c0,0-49.4-6.9-91.9-37.5
				c0,0-10.6-1.3-21.3-21.3c0,0-12.5-18.8-25-25l-11.9-6.9c0,0-5.6-3.1-5-9.4c0,0-7.5-11.3-11.3-15c0,0-15-21.3,6.3-28.1
				c0,0,11.3-2.5,26.3,5c0,0,24.4,16.3,28.8,25.6c0,0,19.4,15.6,36.3,12.5c0,0,4.4-26.3,8.8-35c0,0-15.9-12.8-18.4-17.8
				c0,0,88.1-41.3,88.1-41.3c2,1,2.5,0.6,3.8,2.5c5.6,8.4,8.7,17.8,11.8,27.2c2.8,8.4,6.9,15.9,11.2,23.6
				c8.4,15.1,16.7,31.4,28.3,44.3C782.6,1251.6,782.7,1251.6,782.8,1251.7z"/>
		</g>
		<g>
			<path class="st102" d="M571.5,1213.3c0,0-11.9,9.4-13.1,22.5c-2.2-1.2-4.3-2.7-5.9-4.6c-6.5-7.1-4.2-19.1,4.6-22.9
				C562.3,1206.1,568.3,1208.5,571.5,1213.3z"/>
		</g>
		<g>
			<path class="st97" d="M634.1,1185l5,10c0,0,19.7,10.7,32.3,40.5c19,44.7,194.5,119.6,219.1,93.3c37.6-40.3-74.4-36.2-65.7-49.5
				l-117.3-134.9l-38.1-1.6L634.1,1185z"/>
		</g>
	</g>
	<g>
		<g>
			<polygon class="st96" points="108.9,1218.6 86.3,1196.1 60.1,1183 98.2,1164.9 129.5,1206.7 111.4,1219.9 			"/>
		</g>
		<g>
			<path class="st97" d="M-4.3,1144.2c0,0,36.3,1.3,47.5-3.8c0,0,23.8-9.4,33.8-10.6c0,0,27.5-15,36.9,1.9l25.6,39.4
				c0,0,9.4,8.1,16.3,23.1l5.6,6.9c0,0,4.4,8.8-4.4,11.9c-8.8,3.1-32.8-9.7-32.8-9.7s-10.6-11.9-9.4-14.4c0,0-16.3-8.1-20.6-20.6
				c0,0-11.3,10.6-21.9,10.6l-8.1,12.5L-4.3,1144.2z"/>
		</g>
		<g>
			<path class="st96" d="M148.9,1234.2c0,0,11.9,10,4.4,21.3c-5.4,8.1-15.3,4.2-20.5,1.4c-2-1.1-3.3-2-3.3-2L148.9,1234.2z"/>
		</g>
		<g>
			<path class="st98" d="M97.6,1289c2.5,3.7,6.1,6.9,10.4,8.6c2.1,0.8,4.4,1.2,6.6,1.1c3.6-0.2,6.5-1.2,8.3-4.4
				c1-1.7,1.5-3.7,1.5-5.6c0.2-7.8-5.8-14.9-11-20.1c-0.4-0.4-0.7-0.7-1.1-1.1l-15.9,19.8C96.3,1287.2,97.6,1289,97.6,1289z"/>
		</g>
		<g>
			<path class="st98" d="M93.2,1233c0-1-19.2-16.2-38.8-21.9c-2-0.6,1.3-4.7-0.6-5c-2.9-0.5-10.8,3-13.8,3.1l7.5,10.6l0.6,37.5
				l48.1-20L93.2,1233z"/>
		</g>
		<g>
			<path class="st99" d="M131.4,1258l0.2,0.2l9.2,13.5c0,0,2.5,6.9-2.5,11.3c-5,4.4-9.4,3.8-9.4,3.8s-5,0-6.9-2.5
				c-1.9-2.5-11.3-18.8-11.3-18.8L131.4,1258z"/>
		</g>
		<g class="st100">
			<g>
				<path class="st101" d="M105.1,1221.7l-0.3-0.4l-3.5-5.2l-9.4-10l-20.6-6.9l-11.3-4.4l-8.1,8.8l-0.6,7.5c0,0,1.9,15,21.3,10.6
					c0,0,4.4,4.4,7.5,3.8c0,0,7.5,7.5,8.8,14.4l17.5-16.9L105.1,1221.7z"/>
			</g>
		</g>
		<g>
			<path class="st99" d="M106.4,1218l-0.3-0.4l-3.5-5.2l-9.4-10l-20.6-6.9l-11.3-4.4l-8.1,8.8l-0.6,7.5c0,0,1.9,15,21.3,10.6
				c0,0,4.4,4.4,7.5,3.8c0,0,7.5,7.5,8.8,14.4l17.5-16.9L106.4,1218z"/>
		</g>
		<g>
			<path class="st96" d="M56.3,1203.6c0,0,3.1,10-2.5,12.5v6.3l-2.5,8.1l-16.3-21.3L56.3,1203.6z"/>
		</g>
		<g>
			<path class="st97" d="M-79.3,1251.4v133.2c0,0,33.1-28.1,39.4-31.3c0,0,11.3-5.6,25.6-5.6c0,0,49.4-6.9,91.9-37.5
				c0,0,10.6-1.3,21.3-21.3c0,0,12.5-18.8,25-25l11.9-6.9c0,0,5.6-3.1,5-9.4c0,0,7.5-11.3,11.3-15c0,0,15-21.3-6.3-28.1
				c0,0-11.3-2.5-26.3,5c0,0-24.4,16.3-28.8,25.6c0,0-19.4,15.6-36.3,12.5c0,0-4.4-26.3-8.8-35c0,0,15.9-12.8,18.4-17.8
				c0,0-104-10.9-104-10.9c-2,1-21.1,29.9-3,25c9.8-2.6,6.5-35.1,3.3-25.7c-2.8,8.4-6.9,15.9-11.2,23.6
				c-8.4,15.1-16.7,31.4-28.3,44.3C-79.2,1251.3-79.2,1251.3-79.3,1251.4z"/>
		</g>
		<g>
			<path class="st102" d="M132,1213c0,0,11.9,9.4,13.1,22.5c2.2-1.2,4.3-2.7,5.9-4.6c6.5-7.1,4.2-19.1-4.6-22.9
				C141.1,1205.8,135.2,1208.2,132,1213z"/>
		</g>
		<g>
			<path class="st97" d="M69.3,1184.7l-5,10c0,0-19.7,10.7-32.3,40.5c-19,44.7-194.5,119.6-219.1,93.3
				c-37.6-40.3,74.4-36.2,65.7-49.5l117.3-134.9l38.1-1.6L69.3,1184.7z"/>
		</g>
	</g>
</g>
<g id="smartphone">
</g>
<g id="ipad">
</g>
</svg>
