<svg class="color-immutable" xmlns="http://www.w3.org/2000/svg" width="59" height="20" fill="none" viewBox="0 0 59 20"><path fill="#EB0000" fill-rule="evenodd" d="M2 0a2 2 0 0 0-2 2v16a2 2 0 0 0 2 2h55a2 2 0 0 0 2-2V2a2 2 0 0 0-2-2z" clip-rule="evenodd"/><path fill="#fff" d="M4.116 11.252q0-1.028.308-2.168.404-1.525 1.227-2.65a5.96 5.96 0 0 1 2.088-1.771q1.258-.657 2.863-.657 2.152 0 3.473 1.337 1.329 1.336 1.329 3.544a7.8 7.8 0 0 1-.862 3.551q-.863 1.716-2.342 2.642t-3.346.926q-1.621 0-2.72-.736-1.1-.735-1.56-1.82a5.6 5.6 0 0 1-.458-2.198m2.357-.048q0 1.195.728 2.002t1.914.806q.965 0 1.851-.633.894-.64 1.472-1.93.585-1.297.585-2.523 0-1.368-.736-2.144Q11.552 6 10.412 6 8.665 6 7.566 7.63a6.3 6.3 0 0 0-1.092 3.575M21.942 9.606h5.189l-1.044 4.976q-.918.593-2.254 1.004a9.1 9.1 0 0 1-2.714.412q-2.152 0-3.298-.973-1.566-1.329-1.566-3.852 0-1.693.672-3.244.807-1.867 2.294-2.895t3.496-1.028 3.22.933q1.218.934 1.613 2.721l-2.222.254q-.294-.98-.95-1.48-.648-.498-1.637-.498-1.155 0-2.12.601-.965.6-1.51 1.86-.547 1.257-.547 2.744 0 1.464.665 2.167.664.696 1.946.696.767 0 1.574-.213a7.3 7.3 0 0 0 1.392-.522l.356-1.725h-2.958zM33.408 15.8h-2.547l-2.08-11.596h2.38l1.472 8.772 4.801-8.772H39.8z"/></svg>