<svg class="color-immutable" xmlns="http://www.w3.org/2000/svg" width="59" height="20" fill="none" viewBox="0 0 59 20"><g clip-path="url(#a)"><path fill="#EB0000" fill-rule="evenodd" d="M2 0a2 2 0 0 0-2 2v16a2 2 0 0 0 2 2h55a2 2 0 0 0 2-2V2a2 2 0 0 0-2-2z" clip-rule="evenodd"/><path fill="#fff" d="M9.22 4.2h4.057L8.259 15.8H4.186zM15.948 4.2h14.395l-1.49 3.445h-10.28l-2.042 4.71h10.285l-1.49 3.445H10.93zM44.092 4.234V6.29h-4.659l-.498 2.602q.838-.886 2.143-.886 1.282 0 2.231.688 1.408 1.036 1.408 3.149 0 2.072-1.503 3.282-1.17.95-2.8.95-1.836 0-2.95-.982-1.116-.988-1.18-2.665h2.271q.056.609.395 1.036.53.672 1.472.672.909 0 1.44-.656.514-.641.514-1.558 0-.997-.538-1.59-.538-.602-1.432-.602-1.092 0-1.7.981l-2.065-.031 1.1-6.447zM45.556 12.896h2.183q.268 1.344 1.558 1.344.727 0 1.179-.49.459-.498.704-1.543.157-.664.229-1.51-.53.743-1.092 1.06-.554.308-1.352.308-1.275 0-2.215-.744a3.54 3.54 0 0 1-1.028-1.352 4.4 4.4 0 0 1-.364-1.804q0-1.953 1.337-3.164 1.147-1.044 2.752-1.044.99 0 1.828.443a3.96 3.96 0 0 1 1.407 1.258q1.005 1.447 1.005 4.066 0 2.42-.886 4.129-1.155 2.222-3.496 2.222-1.558 0-2.579-.862-1.012-.862-1.17-2.317M49.4 5.91q-.744 0-1.258.609-.514.616-.514 1.566 0 .768.372 1.36.506.816 1.424.815.83 0 1.328-.664.468-.625.467-1.487 0-.91-.482-1.543a1.6 1.6 0 0 0-1.337-.656"/></g><defs><clipPath id="a"><path fill="#fff" d="M0 0h59v20H0z"/></clipPath></defs></svg>