<svg xmlns="http://www.w3.org/2000/svg" width="24" height="24" viewBox="0 0 24 24">
  <path fill="none" stroke="#000" d="M17.5,8.0002 C17.5,11.0372 15.037,13.5002 12,13.5002 C8.962,13.5002 6.5,11.0372 6.5,8.0002 C6.5,4.9622 8.962,2.5002 12,2.5002 C15.037,2.5002 17.5,4.9622 17.5,8.0002 Z M15.5,8.0002 C15.5,9.9332 13.933,11.5002 12,11.5002 C10.067,11.5002 8.5,9.9332 8.5,8.0002 C8.5,6.0672 10.067,4.5002 12,4.5002 C13.933,4.5002 15.5,6.0672 15.5,8.0002 Z M8.5,12.2429 L8.5,20.9999 L10.5,18.9999 L12.5,20.9999 L12.5,13.4739 M12.5,17.9997 L13.5,16.9997 L15.5,18.9997 L15.5,12.2427"/>
</svg>
