<svg xmlns="http://www.w3.org/2000/svg" width="36" height="36" fill="none" viewBox="0 0 36 36"><path fill="#000" fill-rule="evenodd" d="M28.25 5.25a1 1 0 1 1 2 0 1 1 0 0 1-2 0m1-2a2 2 0 0 0-1.532 3.285l-5.249 7.348a1.996 1.996 0 0 0-2.332.683l-3.903-1.56q.016-.127.016-.256a2 2 0 1 0-3.825.819L7.95 17.15a2 2 0 1 0 .625.78l4.475-3.58a1.997 1.997 0 0 0 2.812-.416l3.904 1.56q-.016.126-.016.256a2 2 0 1 0 3.532-1.285l5.249-7.348a2 2 0 1 0 .719-3.867m-23.5 15.5a1 1 0 1 1 2.001.001 1 1 0 0 1-2.001-.001m6.5 1.006h4V31.75h3.5v-8.994h4v8.994h3.5V13.756h4V32.75H4.75v-6.994h4v5.994h3.5V19.756m3 11.994V20.756h-2V31.75zm7.5 0v-7.994h-2v7.994zm7.5-16.994V31.75h-2V14.756zm-22.5 12v4.994h-2v-4.994zm6.5-15.006a1 1 0 1 0 .001 2.001 1 1 0 0 0-.001-2.001m6.5 4a1 1 0 1 1 2 0 1 1 0 0 1-2 0" clip-rule="evenodd"/></svg>