<svg xmlns="http://www.w3.org/2000/svg" width="24" height="24" fill="none" viewBox="0 0 24 24"><path fill="#000" fill-rule="evenodd" d="M12.328 3C7.147 2.99 3.01 7.03 3 12.001L2 12C2.01 6.448 6.624 1.99 12.33 2c3.53.007 6.782 1.7 8.67 4.523V4h1v5h-5V8h3.707c-1.557-3.077-4.793-4.993-8.379-5l.001-.5zM21 11.998c-.02 4.983-4.126 9.021-9.29 9.002-3.516-.013-6.797-1.985-8.38-5H7v-1H2v5h1v-2.606c1.901 2.819 5.203 4.593 8.706 4.606 5.698.021 10.272-4.445 10.294-9.998zm-11.86.386v.047h-.732l-.363.836h1.17q.587 3.765 3.63 3.765 1.29 0 2.295-.497.07-.035.377-.21v-1.34q-1.094.592-1.545.755-.45.16-1.032.16-.704 0-1.21-.322-.486-.31-.834-1.018a5 5 0 0 1-.41-1.293h3.2l.374-.835h-3.67v-.003l-.007-.287q0-.188.014-.56h4.033l.376-.835h-4.293a5.4 5.4 0 0 1 .212-.835q.601-1.825 2.167-1.825.854 0 1.674.466.337.196.951.598l.485-1.09q-1.387-1.072-3.09-1.072-2.412 0-3.322 2.486-.219.593-.335 1.273h-.847l-.363.835H9.16l-.007.047q-.014.377-.014.478z" clip-rule="evenodd"/></svg>