<svg class="color-immutable" xmlns="http://www.w3.org/2000/svg" width="59" height="20" fill="none" viewBox="0 0 59 20"><g clip-path="url(#a)"><path stroke="#000" d="M.5 2A1.5 1.5 0 0 1 2 .5h55A1.5 1.5 0 0 1 58.5 2v16a1.5 1.5 0 0 1-1.5 1.5H2A1.5 1.5 0 0 1 .5 18z"/><path fill="#000" d="M4.069 4.224h5.704q1.692 0 2.594.531.749.435 1.144 1.16.395.727.395 1.636 0 1.032-.5 1.797-.491.765-1.377 1.095.78.195 1.224.87.282.427.379.895.097.467.25 2.135.112 1.224.346 1.523l.113.137h-2.683a2 2 0 0 1-.201-.637q-.058-.387-.154-1.788-.096-1.25-.612-1.725-.507-.483-1.74-.483H6.639v4.633h-2.57zm2.57 2.022v3.239h2.457q1.184 0 1.668-.339.612-.426.612-1.289 0-.837-.524-1.224t-1.651-.387zM24.436 13.827v2.176h-8.33V4.223h2.57v9.604zM25.338 7.954q.04-1.45.717-2.433 1.096-1.58 3.295-1.58 1.692 0 2.731.863 1.12.935 1.12 2.417 0 .885-.443 1.53a2.14 2.14 0 0 1-1.184.863q.95.218 1.498.966.556.75.556 1.813 0 1.75-1.289 2.86-1.192 1.032-3.013 1.032-1.973-.001-3.134-1.136-1.152-1.137-1.152-3.07v-.153h2.264q0 1.087.516 1.684.515.588 1.458.588.942 0 1.45-.556.468-.524.467-1.249 0-.87-.596-1.378-.491-.418-1.515-.418-.29 0-.572.032V8.897q.21.015.403.016 2.03 0 2.03-1.507 0-.66-.443-1.063-.442-.411-1.168-.411-.83 0-1.28.515-.453.516-.484 1.507zM38.567 3.942q1.346 0 2.369.822 1.014.82 1.474 2.53.347 1.305.347 2.835 0 2.538-.903 4.174-.531.95-1.394 1.466a3.6 3.6 0 0 1-1.909.516q-1.442 0-2.465-.87-1.821-1.547-1.821-5.286 0-2.659.95-4.27a3.84 3.84 0 0 1 1.41-1.418 3.86 3.86 0 0 1 1.942-.5m-.089 1.99q-1.16 0-1.579 1.337-.33 1.065-.33 2.981 0 1.692.338 2.715.436 1.33 1.612 1.33.975 0 1.45-1.032.475-1.03.475-3.15 0-1.804-.338-2.844-.435-1.337-1.628-1.337"/></g><defs><clipPath id="a"><path fill="#fff" d="M0 0h59v20H0z"/></clipPath></defs></svg>