<svg xmlns="http://www.w3.org/2000/svg" width="48" height="48" fill="none" viewBox="0 0 48 48"><path fill="#000" fill-rule="evenodd" d="M24 10C16.437 10 9.63 13.184 4.8 18.268l-.725-.688C9.086 12.307 16.15 9 24 9s14.914 3.307 19.923 8.58l-.725.688C38.368 13.184 31.563 10 24 10M9.148 22.397C12.885 18.463 18.15 16 24 16s11.115 2.463 14.851 6.397l.725-.69C35.66 17.586 30.138 15 24 15s-11.66 2.585-15.577 6.708zm4.357 4.137c2.643-2.784 6.368-4.527 10.506-4.527 4.134 0 7.854 1.738 10.496 4.515l.725-.69c-2.822-2.965-6.8-4.825-11.22-4.825-4.427 0-8.41 1.865-11.232 4.838zm4.345 4.126C19.401 29.027 21.576 28 24 28s4.598 1.027 6.15 2.66l.724-.689C29.146 28.151 26.714 27 24 27c-2.715 0-5.146 1.152-6.875 2.971zm3.65 5.84a2.5 2.5 0 1 1 5 0 2.5 2.5 0 0 1-5 0M24 33a3.5 3.5 0 1 0 0 7 3.5 3.5 0 0 0 0-7" clip-rule="evenodd"/></svg>