<svg xmlns="http://www.w3.org/2000/svg" width="24" height="24" fill="none" viewBox="0 0 24 24"><path fill="#000" d="m18 11.45.497.054-.495 4.55-.001.008-.496-.062.496.063v.002l-.001.007-.003.024-.013.082q-.016.107-.052.29c-.049.244-.127.581-.246.956-.234.733-.645 1.68-1.359 2.327-1.381 1.252-2.587 2.216-4.327 2.216s-2.944-.964-4.326-2.216h-.001c-.714-.647-1.125-1.594-1.359-2.327a9 9 0 0 1-.298-1.246l-.013-.082L6 16.072l-.001-.007v-.003L6.495 16 6 16.061v-.007l-.496-4.55.497-.055.497-.053.494 4.54v.004l.002.015.01.065a7.975 7.975 0 0 0 .264 1.1c.217.678.56 1.422 1.077 1.89 1.393 1.262 2.34 1.957 3.656 1.957 1.152 0 2.02-.532 3.152-1.51l.503-.447c.517-.468.861-1.211 1.077-1.89a8 8 0 0 0 .264-1.1q.008-.042.01-.065l.003-.015v-.003l.494-4.541zm-3.5 6.049.34.366-.001.002-.005.004-.013.013q-.016.015-.046.039a4.97 4.97 0 0 1-.745.513c-.49.274-1.2.563-2.03.563s-1.54-.289-2.03-.563a5 5 0 0 1-.745-.513q-.03-.024-.046-.04-.009-.007-.013-.012l-.005-.004-.002-.002.341-.366.34-.365q.002 0 .006.004l.027.024q.04.034.12.097c.108.082.266.193.465.305.402.225.942.435 1.542.435s1.14-.21 1.542-.435a4 4 0 0 0 .585-.402q.02-.017.027-.024l.005-.004zm-4.6-3.1c.5 0 .8.4.8.8 0 .5-.3.8-.8.801-.5 0-.8-.4-.8-.8 0-.5.3-.8.8-.8m4 0c.5 0 .8.4.8.8 0 .5-.3.8-.8.801-.5 0-.8-.4-.8-.8 0-.5.3-.8.8-.8M12 2c1.675 0 3.204.113 4.324.3.556.092 1.036.207 1.388.346.173.068.345.153.482.265.131.107.306.302.306.589v6c0 .495-.302.887-.662 1.17-.27.213-.612.398-1.002.557-.272.685-.9 1.227-1.657 1.6-.866.425-1.978.673-3.179.673s-2.313-.248-3.179-.674c-.757-.372-1.386-.914-1.659-1.6a4.2 4.2 0 0 1-1-.555c-.36-.284-.662-.676-.662-1.171v-6c0-.287.175-.482.306-.589.137-.112.309-.197.482-.265.352-.14.832-.254 1.388-.346C8.796 2.113 10.325 2 12 2m3.107 9.718c-.923.179-1.984.282-3.107.282s-2.185-.103-3.108-.282q.168.11.37.21c.71.35 1.665.572 2.738.572s2.029-.223 2.737-.571c.136-.067.258-.14.37-.211m2.393-7.29a8 8 0 0 1-1.176.272c-1.12.187-2.649.3-4.324.3s-3.204-.113-4.324-.3A8 8 0 0 1 6.5 4.428V9.5c0 .057.034.191.281.386.241.19.621.382 1.135.554 1.022.34 2.466.56 4.084.56s3.062-.22 4.084-.56c.514-.172.894-.364 1.135-.554.246-.195.281-.329.281-.386zM12 3c-1.638 0-3.109.111-4.16.286a8 8 0 0 0-.966.213q.369.114.966.215C8.89 3.889 10.362 4 12 4s3.109-.11 4.16-.286q.596-.1.965-.215a8 8 0 0 0-.965-.213C15.11 3.111 13.638 3 12 3"/></svg>