<svg xmlns="http://www.w3.org/2000/svg" width="24" height="24" fill="none" viewBox="0 0 24 24"><path fill="#000" fill-rule="evenodd" d="M19 8h-2v1h1.098l-.625 1H15V9h-2v1h1.14l-.114.342-.226.676A2.503 2.503 0 0 0 11.05 13H9v-.73l-.175-.15-3.5-3-.14-.12H2v5a2 2 0 0 0 3.732 1H9v-1h2.05c.232 1.14 1.242 2 2.45 2a2.5 2.5 0 0 0 1.249-4.665L14.86 11h2.603l.371.637A2.5 2.5 0 0 0 17 13.5c0 1.379 1.12 2.5 2.5 2.5s2.5-1.121 2.5-2.5a2.502 2.502 0 0 0-3.302-2.368l-.364-.623 1.09-1.744.478-.765zM6 14a2 2 0 0 0-3-1.732V10h1.815L8 12.73V14zm-3 0a1 1 0 1 1 2 0 1 1 0 0 1-2 0m16.932-.752-.713-1.222A1.503 1.503 0 0 1 21 13.5c0 .827-.673 1.5-1.5 1.5a1.502 1.502 0 0 1-1.144-2.469l.712 1.22zm-5.51-.93A1.499 1.499 0 0 1 13.5 15a1.5 1.5 0 0 1-1.414-1h1.774l.114-.342zM12.085 13a1.5 1.5 0 0 1 1.387-1l-.333 1z" clip-rule="evenodd"/></svg>