<svg class="color-immutable" xmlns="http://www.w3.org/2000/svg" width="59" height="20" fill="none" viewBox="0 0 59 20"><path fill="#EB0000" fill-rule="evenodd" d="M2 0a2 2 0 0 0-2 2v16a2 2 0 0 0 2 2h55a2 2 0 0 0 2-2V2a2 2 0 0 0-2-2z" clip-rule="evenodd"/><path fill="#fff" d="m12.296 16 2.516-11.866h2.635c2.771 0 4.828.408 4.828 2.907 0 1.972-1.445 2.958-3.4 3.179v.034c.833.187 1.224.629 1.666 2.159L21.578 16h-2.465l-.782-3.094c-.408-1.547-.68-1.938-2.312-1.938h-.289L14.66 16zm3.808-6.783c.323.051.578.034.714.034 1.972 0 3.077-.561 3.077-1.904 0-1.275-1.037-1.428-2.567-1.428h-.544zM4.19 16 6.706 4.134h6.579l-.357 1.836H8.661l-.646 3.111h4.012l-.374 1.819H7.624L6.554 16z"/></svg>