<svg xmlns="http://www.w3.org/2000/svg" width="24" height="24" fill="none" viewBox="0 0 24 24"><path fill="#000" fill-rule="evenodd" d="M8.515 6.857q-.617.95-.681 2.686h1.604q.196-3.06 2.686-3.059 1.203 0 1.819.774.513.634.513 1.566 0 .504-.178.989-.214.57-.904 1.278-1.073 1.1-1.385 1.501a3 3 0 0 0-.481.905q-.233.69-.251 2.117h1.585q0-.803.094-1.306.083-.504.293-.844t.742-.853q1.202-1.175 1.52-1.614.71-.96.709-2.294 0-1.613-1.045-2.602-1.119-1.072-3.012-1.072-1.176 0-2.117.475a3.8 3.8 0 0 0-1.511 1.353m4.514 12.123h-2.015v-1.939h2.015z" clip-rule="evenodd"/></svg>