<svg xmlns="http://www.w3.org/2000/svg" width="36" height="36" fill="none" viewBox="0 0 36 36"><path fill="#000" fill-rule="evenodd" d="M22.578 7.274c.437-1.737 1.834-2.824 3.522-2.824 1.03 0 1.952.389 2.615 1.096.661.705 1.035 1.696 1.035 2.854 0 1.07-.357 2.063-.94 2.82 1.948 1.457 2.924 3.662 3.417 5.487a16 16 0 0 1 .515 3.25l.007.213v.057l.001.016v.006l-.5.001h.5v.5h-4.78a16 16 0 0 1 .271 2.2 9 9 0 0 1 .009.277v.022l-.5.001h.5v.5h-8.018a18.7 18.7 0 0 1 1.231 3.286c.394 1.43.59 2.728.688 3.67a20 20 0 0 1 .097 1.43l.002.082v.031l-.5.001h.5v.5h-19v-.5h.5-.5v-.032q0-.029.002-.083.001-.108.01-.31a22.98 22.98 0 0 1 .774-4.79c.757-2.746 2.258-6.04 5.255-8.174l-.079-.095c-.898-1.102-1.462-2.602-1.462-4.216 0-3.234 2.284-5.6 5-5.6 2.707 0 5 2.206 5 5.6q0 .398-.042.782c.406-.44.839-.87 1.283-1.22-.658-.779-1.04-1.854-1.04-3.012s.373-2.15 1.034-2.855C19.648 7.54 20.57 7.15 21.6 7.15q.511 0 .978.124m.935.398q.386.238.702.573c.661.706 1.035 1.697 1.035 2.855q0 .194-.014.383c.255.112.526.167.864.167 1.306 0 2.65-1.353 2.65-3.25 0-.941-.301-1.676-.765-2.17-.462-.494-1.115-.78-1.885-.78-1.24 0-2.3.802-2.587 2.222m1.546 4.815a4.4 4.4 0 0 1-.842 1.616c1.985 1.461 2.984 3.682 3.49 5.527l.033.12h3.988q-.013-.195-.039-.452a15 15 0 0 0-.428-2.33c-.477-1.766-1.398-3.768-3.162-5.03-.577.448-1.265.712-1.999.712-.386 0-.726-.055-1.04-.163m2.17 10.263h-7.534c-.837-1.43-1.953-2.785-3.438-3.854l.206-.298q.123-.165.236-.34l.8-1.155c.7-.841 1.482-1.746 2.249-2.31a3.3 3.3 0 0 0 1.852.557 3.3 3.3 0 0 0 1.857-.561c1.834 1.265 2.791 3.303 3.286 5.106a15 15 0 0 1 .485 2.855m-11.593-4.714.274-.396c.518-.832.84-1.889.84-3.09 0-2.905-1.907-4.6-4-4.6-2.084 0-4 1.834-4 4.6 0 1.386.486 2.662 1.238 3.584.753.925 1.746 1.466 2.762 1.466 1.077 0 2.13-.58 2.886-1.564m4.079-9.107c-.464.495-.765 1.23-.765 2.171 0 1.913 1.208 3.25 2.65 3.25s2.65-1.337 2.65-3.25c0-.942-.301-1.676-.765-2.17-.462-.494-1.115-.78-1.885-.78s-1.423.286-1.885.78M15.51 19.593c-.792.636-1.741 1.007-2.761 1.007-1.008 0-1.95-.39-2.732-1.027C7.192 21.511 5.74 24.61 5 27.303a22 22 0 0 0-.733 4.448h16.964c-.013-.24-.036-.56-.075-.941-.094-.9-.282-2.143-.658-3.508-.738-2.682-2.181-5.77-4.988-7.708" clip-rule="evenodd"/></svg>