<svg width="36" height="36" viewBox="0 0 36 36" fill="none" xmlns="http://www.w3.org/2000/svg"><path fill-rule="evenodd" clip-rule="evenodd" d="M3.858 17.646 3.504 18l.354.354 5.303 5.303.354.353.353-.353 5.304-5.303.353-.354-.353-.354-5.304-5.303-.353-.353-.354.353-5.303 5.303Zm5.657 4.95L4.919 18l4.596-4.596L14.11 18l-4.596 4.596Zm2.828-13.435-.353.354.353.353 5.303 5.304.354.353.354-.353 5.303-5.304.354-.353-.354-.354-5.303-5.303L18 3.504l-.354.354-5.303 5.303ZM18 14.111l-4.596-4.596L18 4.919l4.596 4.596L18 14.11Zm-6.01 12.374.353-.353 5.303-5.304.354-.353.354.353 5.303 5.304.354.353-.354.354-5.303 5.303-.354.354-.354-.354-5.303-5.303-.353-.354Zm1.414 0L18 31.081l4.596-4.596L18 21.89l-4.596 4.596Zm7.424-8.839-.353.354.353.354 5.304 5.303.353.353.354-.353 5.303-5.303.354-.354-.354-.354-5.303-5.303-.354-.353-.353.353-5.304 5.303Zm5.657 4.95L21.89 18l4.596-4.596L31.082 18l-4.597 4.596Z" fill="#000"/></svg>