<svg class="color-immutable" xmlns="http://www.w3.org/2000/svg" width="59" height="20" fill="none" viewBox="0 0 59 20"><path fill="#EB0000" fill-rule="evenodd" d="M2 0a2 2 0 0 0-2 2v16a2 2 0 0 0 2 2h55a2 2 0 0 0 2-2V2a2 2 0 0 0-2-2z" clip-rule="evenodd"/><path fill="#fff" fill-rule="evenodd" d="M9.856 9.605h5.173l-1.041 4.977a9 9 0 0 1-2.244 1.005 9.1 9.1 0 0 1-2.708.411q-2.145 0-3.289-.973-1.56-1.329-1.561-3.853a8.1 8.1 0 0 1 .67-3.244 6.6 6.6 0 0 1 2.287-2.896 5.96 5.96 0 0 1 3.486-1.03q2.003 0 3.213.935 1.21.934 1.605 2.722l-2.216.253a2.8 2.8 0 0 0-.942-1.48 2.6 2.6 0 0 0-1.637-.498 3.805 3.805 0 0 0-3.62 2.46 6.8 6.8 0 0 0-.544 2.746q0 1.464.663 2.164t1.94.7a6 6 0 0 0 1.57-.217q.72-.187 1.387-.518l.355-1.725h-2.95zm5.602 6.196 2.413-11.6h8.572l-.402 1.938h-6.19l-.552 2.635h5.985l-.402 1.939h-5.986l-.725 3.149h6.727l-.41 1.939zm9.096 0h3.076l1.593-1.805q.841-.924 1.585-1.93.22.6.898 1.986l.868 1.749h2.681l-2.847-5.492L37.7 4.201H34.71L32.89 6.266a82 82 0 0 0-1.616 1.93 2 2 0 0 0-.103-.213l-.773-1.606L29.27 4.2h-2.484l2.87 5.728z" clip-rule="evenodd"/></svg>