<svg xmlns="http://www.w3.org/2000/svg" width="36" height="36" version="1.1" viewBox="0 0 36 36">
  <path fill="none" fill-rule="evenodd" stroke="#000" stroke-width="1" d="M30.75,17.25 C30.75,16.422 30.0795,15.75 29.25,15.75 L6.7455,15.7515 C5.9175,15.7515 5.2455,16.4235 5.2455,17.2515 L5.25,26.25 L30.7515,26.25 L30.7515,17.25 M8.25,26.25075 L8.25,20.25075 L12.75,20.25075 L12.75,26.25075 M15.75,23.25 L27.7515,23.25 L27.7515,20.25 L15.75,20.25 L15.75,23.25 Z M6.8877,26.24925 C6.8037,26.48475 6.7497,26.73525 6.7497,26.99925 C6.7497,28.24275 7.7577,29.24925 8.9997,29.24925 C10.2432,29.24925 11.2497,28.24275 11.2497,26.99925 C11.2497,26.73525 11.1957,26.48475 11.1117,26.24925 M24.8877,26.24925 C24.8037,26.48475 24.7497,26.73525 24.7497,26.99925 C24.7497,28.24275 25.7577,29.24925 26.9997,29.24925 C28.2417,29.24925 29.2497,28.24275 29.2497,26.99925 C29.2497,26.73525 29.1957,26.48475 29.1117,26.24925 M3,24.75 L5.25,24.75 M30.75,24.75 L33,24.75"/>
</svg>
