<svg xmlns="http://www.w3.org/2000/svg" width="24" height="24" fill="none" viewBox="0 0 24 24"><path fill="#000" fill-rule="evenodd" d="M6 5.9c0-1.768 1.118-2.8 2.4-2.8 1.303 0 2.5 1.055 2.5 2.8C10.9 7.729 9.73 9 8.5 9 7.251 9 6 7.705 6 5.9m2.4-3.8C6.482 2.1 5 3.668 5 5.9c0 1.051.355 2.036.94 2.777-1.955 1.408-2.931 3.574-3.422 5.366a15.2 15.2 0 0 0-.51 3.171 9 9 0 0 0-.008.263v.022l.5.001H2v.5h5v-1H3.023q.012-.185.037-.427c.06-.583.181-1.386.422-2.266.477-1.74 1.404-3.71 3.19-4.92.53.386 1.155.613 1.828.613.71 0 1.35-.25 1.879-.673 1.383 1.015 2.195 2.453 2.757 3.859l.928-.372c-.581-1.453-1.457-3.053-2.996-4.22.525-.734.832-1.688.832-2.694 0-2.255-1.603-3.8-3.5-3.8m10.3 6a3.19 3.19 0 0 0-3.2 3.2c0 .44.069.822.206 1.187l-.06.06-3.2 3.2-.059.059A3.3 3.3 0 0 0 11.2 15.6 3.19 3.19 0 0 0 8 18.8c0 .577.118 1.054.353 1.524l.31.62.49-.49.7-.7.954-.954h.393v.393l-1.654 1.653-.49.491.62.31c.47.235.947.353 1.524.353 1.776 0 3.2-1.424 3.2-3.2 0-.44-.069-.822-.206-1.187l.06-.06 3.2-3.2.059-.059a3.3 3.3 0 0 0 1.187.206c1.776 0 3.2-1.424 3.2-3.2 0-.577-.118-1.054-.353-1.524l-.31-.62-.49.49-.7.7-.954.954H18.7v-.393l1.654-1.653.49-.491-.62-.31A3.3 3.3 0 0 0 18.7 8.1m-2.2 3.2c0-1.224.976-2.2 2.2-2.2q.197 0 .369.024l-1.223 1.222-.146.147V12.3h1.807l.147-.147 1.1-1.1.122-.122q.024.173.024.369c0 1.224-.976 2.2-2.2 2.2a2.3 2.3 0 0 1-1.076-.247l-.323-.161-.255.254-.3.3-3.2 3.2-.3.3-.254.255.16.323c.166.33.248.653.248 1.076 0 1.224-.976 2.2-2.2 2.2q-.197 0-.369-.024l1.223-1.223.146-.146V17.8h-1.807l-.147.146-1.1 1.1-.122.123A3 3 0 0 1 9 18.8c0-1.224.976-2.2 2.2-2.2.423 0 .746.082 1.076.247l.323.161.255-.255.3-.3 3.2-3.2.3-.3.254-.254-.16-.323A2.3 2.3 0 0 1 16.5 11.3" clip-rule="evenodd"/></svg>