<?xml version="1.0" encoding="utf-8"?>
<!-- Generator: Adobe Illustrator 24.2.0, SVG Export Plug-In . SVG Version: 6.00 Build 0)  -->
<svg version="1.0" id="Ebene_1" xmlns="http://www.w3.org/2000/svg" xmlns:xlink="http://www.w3.org/1999/xlink" x="0px" y="0px"
	 viewBox="0 0 24 24" enable-background="new 0 0 24 24" xml:space="preserve">
<g id="SVG_x5F_24x24pt">
	<path id="backgroundGreen" fill="#237F52" d="M0,22.5v-21C0,0.675,0.675,0,1.5,0h21C23.325,0,24,0.675,24,1.5v21
		c0,0.825-0.675,1.5-1.5,1.5h-21C0.675,24,0,23.325,0,22.5z"/>
	<g id="content">
		<path fill="#FFFFFF" d="M4.065,3v16.757L5.313,21h3.791l-0.55-0.586c-0.257-0.276-0.133-0.604,0.278-0.733
			c0.412-0.13,0.954-0.011,1.211,0.263L11.033,21h6.023l-1.24-1.243v-4.365l3.083,0.001c0.573-0.002,1.036-0.464,1.036-1.037
			c0-0.571-0.463-1.035-1.036-1.035h-3.083V3H4.065z M7.207,5.963c0,0.745-0.605,1.35-1.349,1.35c-0.746,0-1.351-0.605-1.351-1.35
			c0-0.746,0.605-1.35,1.351-1.35C6.602,4.613,7.207,5.217,7.207,5.963z M4.319,11.413c0-0.288,0.232-0.519,0.52-0.519h1.973V8.47
			c0-0.955,0.775-1.732,1.733-1.732h2.42c0.184,0,0.361,0.074,0.49,0.204l2.043,2.043c0.091,0.09,0.142,0.213,0.142,0.343
			c0,0.267-0.217,0.484-0.485,0.484c-0.129,0-0.252-0.05-0.344-0.141l-1.927-1.928H9.514l5.922,5.923H18.9
			c0.383,0,0.692,0.31,0.692,0.693c0,0.382-0.309,0.692-0.692,0.692h-3.849c-0.184,0-0.359-0.071-0.489-0.202l-2.751-2.751
			l-2.608,2.606v3.809c0,0.382-0.311,0.693-0.693,0.693c-0.382,0-0.692-0.311-0.692-0.693v-4.193c0-0.185,0.072-0.36,0.202-0.491
			l2.075-2.075L7.818,9.474v1.939c0,0.288-0.233,0.52-0.52,0.52H4.84C4.552,11.933,4.319,11.701,4.319,11.413z"/>
	</g>
</g>
</svg>
