<svg xmlns="http://www.w3.org/2000/svg" width="48" height="48" fill="none" viewBox="0 0 48 48"><path fill="#000" fill-rule="evenodd" d="M4 19.84c0-2.674.927-5.893 3.031-8.434C9.122 8.88 12.394 7 17.152 7c6.083 0 9.276 2.514 10.974 5.178 1.72 2.7 1.94 5.617 1.94 6.412 0 1.77-.341 3.463-1.22 5.084a16 16 0 0 1-1.5-1.26c-1.335-1.278-2.118-2.585-2.165-3.886-.047-1.313-.402-3.003-1.6-4.37-1.212-1.383-3.218-2.358-6.402-2.358-3.212 0-5.36 1.17-6.694 2.808-1.32 1.62-1.803 3.648-1.803 5.32h.5l-.5.001v.022a5 5 0 0 0 .008.25c.008.171.023.415.053.72.06.606.181 1.453.422 2.417.437 1.745 1.276 3.907 2.896 5.725a78 78 0 0 1-4.662 1.71C5.078 27.072 4 22.957 4 19.84m28.44 6.082a32 32 0 0 1-2.773-1.664c1.014-1.823 1.4-3.722 1.4-5.667 0-.746-.163-3.022-1.277-5.441q.228-.066.541-.14c.649-.15 1.542-.299 2.527-.299.979 0 2.324.203 3.414 1.035 1.065.813 1.971 2.29 1.971 5.023 0 2.432-.903 5.76-2.57 8.729a49 49 0 0 1-3.233-1.576M28.97 11.64q.19.3.36.602a12.358 12.358 0 0 1 3.529-.532c1.086 0 2.684.22 4.02 1.24 1.36 1.039 2.364 2.84 2.364 5.818 0 2.608-.944 6.06-2.648 9.13a70 70 0 0 0 4.628 1.768C43.109 26.19 44 22.384 44 19.19c0-4.606-1.485-7.633-3.585-9.514C38.305 7.786 35.512 7 32.81 7c-2.056 0-4.662.405-6.922 1.408a11.4 11.4 0 0 1 3.081 3.233M45 19.19c0 3.315-.907 7.218-2.815 10.798q.36.117.66.21c2.002.621 2.83 2.298 2.563 3.83-.265 1.53-1.61 2.828-3.694 2.734-.465-.02-1.172-.17-2.024-.414a32 32 0 0 1-1.822-.586c-3.364 3.157-7.968 5.237-13.912 5.237-5.062 0-9.142-1.604-12.307-4.03a32 32 0 0 1-.98.335 18 18 0 0 1-2.151.572c-.628.12-1.197.173-1.655.119-2.324-.275-3.59-1.68-3.678-3.263-.086-1.553.983-3.088 2.897-3.563q.136-.033.33-.09C4.092 27.287 3 23.092 3 19.84c0-2.88.992-6.33 3.26-9.071C8.543 8.012 12.098 6 17.153 6c3.277 0 5.797.7 7.73 1.778C27.435 6.494 30.47 6 32.81 6c2.882 0 5.934.837 8.272 2.932C43.432 11.035 45 14.354 45 19.19M36.62 35.3l.19.073C33.667 38.166 29.426 40 23.957 40c-4.568 0-8.272-1.364-11.193-3.45a55 55 0 0 0 3.202-1.387c.627-.294 1.26-.604 1.887-.925 1.652.645 3.848 1.002 5.976 1.002 3.19 0 5.985-.893 8.057-2.036a55 55 0 0 0 4.736 2.096m-5.824-2.656a51 51 0 0 1-1.963-1.092 41 41 0 0 1-3.326-2.161c-1.585 1.364-3.93 2.856-6.434 4.206 1.387.41 3.08.643 4.755.643 2.703 0 5.103-.681 6.968-1.596m-9.188-6.649c.902.978 1.947 1.908 3.077 2.782-2.146 1.797-5.693 3.86-9.145 5.481-1.849.868-3.653 1.602-5.179 2.094-.762.247-1.448.43-2.03.542-.59.113-1.043.144-1.35.108-1.947-.23-2.742-1.325-2.798-2.326-.057-1.031.65-2.166 2.14-2.536.976-.243 3.938-1.235 7.054-2.535 2.872-1.198 5.966-2.693 7.757-4.144q.23.27.474.534m-3.255-7.022c0 2.03.837 3.95 2.156 5.707-1.64 1.333-4.583 2.775-7.461 3.979-1.631-1.704-2.477-3.82-2.912-5.563a16 16 0 0 1-.398-2.275 12 12 0 0 1-.055-.838v-.054c0-1.503.437-3.29 1.577-4.69 1.126-1.381 2.976-2.439 5.919-2.439.954 0 1.778.093 2.488.256-.828 1.64-1.314 3.599-1.314 5.917m2.29-5.625c-.803 1.52-1.29 3.374-1.29 5.625 0 2.195 1.139 4.336 2.99 6.344 1.848 2.005 4.36 3.827 6.996 5.372a54 54 0 0 0 7.642 3.679c1.137.439 2.155.782 2.984 1.018.841.24 1.453.362 1.794.377 1.585.072 2.485-.876 2.664-1.907.18-1.03-.348-2.229-1.875-2.703-2.1-.652-6.585-2.204-10.581-4.35-1.996-1.073-3.895-2.306-5.314-3.666-1.411-1.353-2.411-2.892-2.471-4.573-.042-1.184-.362-2.617-1.353-3.748-.508-.58-1.212-1.1-2.187-1.468M17.75 9.499a.25.25 0 1 1-.5 0 .25.25 0 0 1 .5 0m-.25-.75a.75.75 0 1 0 0 1.5.75.75 0 0 0 0-1.5m7 4a.25.25 0 1 0 0-.5.25.25 0 0 0 0 .5m-.75-.25a.75.75 0 1 1 1.5 0 .75.75 0 0 1-1.5 0m4 6a.25.25 0 1 1-.5 0 .25.25 0 0 1 .5 0m-.25-.75a.75.75 0 1 0 0 1.5.75.75 0 0 0 0-1.5m-6 1a.25.25 0 1 0 0-.5.25.25 0 0 0 0 .5m-.75-.25a.75.75 0 1 1 1.5 0 .75.75 0 0 1-1.5 0m-13-3a.25.25 0 1 1-.5 0 .25.25 0 0 1 .5 0m-.25-.75a.75.75 0 1 0 0 1.5.75.75 0 0 0 0-1.5m-1 10a.25.25 0 1 0 0-.5.25.25 0 0 0 0 .5m-.75-.25a.75.75 0 1 1 1.5 0 .75.75 0 0 1-1.5 0m7.75 8.75a.25.25 0 1 1-.5 0 .25.25 0 0 1 .5 0m-.25-.75a.75.75 0 1 0 0 1.5.75.75 0 0 0 0-1.5m-7 2a.25.25 0 1 0 0-.5.25.25 0 0 0 0 .5m-.75-.25a.75.75 0 1 1 1.5 0 .75.75 0 0 1-1.5 0m13.25-4.75a.25.25 0 1 1-.5 0 .25.25 0 0 1 .5 0m-.25-.75a.75.75 0 1 0 0 1.5.75.75 0 0 0 0-1.5m6-4a.25.25 0 1 0 0-.5.25.25 0 0 0 0 .5m-.75-.25a.75.75 0 1 1 1.5 0 .75.75 0 0 1-1.5 0m6 4a.25.25 0 1 1-.5 0 .25.25 0 0 1 .5 0m-.25-.75a.75.75 0 1 0 0 1.5.75.75 0 0 0 0-1.5m-10 9a.25.25 0 1 0 0-.5.25.25 0 0 0 0 .5m-.75-.25a.75.75 0 1 1 1.5 0 .75.75 0 0 1-1.5 0m12-27a.25.25 0 1 1-.5 0 .25.25 0 0 1 .5 0m-.25-.75a.75.75 0 1 0 0 1.5.75.75 0 0 0 0-1.5m7 2a.25.25 0 1 0 0-.5.25.25 0 0 0 0 .5m-.75-.25a.75.75 0 1 1 1.5 0 .75.75 0 0 1-1.5 0m4 5a.25.25 0 1 1-.5 0 .25.25 0 0 1 .5 0m-.25-.75a.75.75 0 1 0 0 1.5.75.75 0 0 0 0-1.5m1 7a.25.25 0 1 0 0-.5.25.25 0 0 0 0 .5m-.75-.25a.75.75 0 1 1 1.5 0 .75.75 0 0 1-1.5 0m0 5a.25.25 0 1 1-.5 0 .25.25 0 0 1 .5 0m-.25-.75a.75.75 0 1 0 0 1.5.75.75 0 0 0 0-1.5m-4 5a.25.25 0 1 0 0-.5.25.25 0 0 0 0 .5m-.75-.25a.75.75 0 1 1 1.5 0 .75.75 0 0 1-1.5 0m5 3a.25.25 0 1 1-.5 0 .25.25 0 0 1 .5 0m-.25-.75a.75.75 0 1 0 0 1.5.75.75 0 0 0 0-1.5m-14 5a.25.25 0 1 0 0-.5.25.25 0 0 0 0 .5m-.75-.25a.75.75 0 1 1 1.5 0 .75.75 0 0 1-1.5 0m7-1a.25.25 0 1 1-.5 0 .25.25 0 0 1 .5 0m-.25-.75a.75.75 0 1 0 0 1.5.75.75 0 0 0 0-1.5" clip-rule="evenodd"/></svg>