<svg xmlns="http://www.w3.org/2000/svg" width="48" height="48" fill="none" viewBox="0 0 48 48"><path fill="#000" fill-rule="evenodd" d="M24.5 6C14.836 6 7 13.836 7 23.5S14.836 41 24.5 41a17.5 17.5 0 0 0 7.282-1.585l.415.91A18.5 18.5 0 0 1 24.5 42C14.284 42 6 33.716 6 23.5S14.284 5 24.5 5 43 13.284 43 23.5c0 .656-.03 1.305-.103 1.946l-.994-.112c.068-.599.097-1.21.097-1.834C42 13.836 34.164 6 24.5 6M17 18.5c0-.826.674-1.5 1.5-1.5s1.5.674 1.5 1.5-.674 1.5-1.5 1.5-1.5-.674-1.5-1.5m1.5-.5c-.274 0-.5.226-.5.5s.226.5.5.5.5-.226.5-.5-.226-.5-.5-.5m10.5.5c0-.826.674-1.5 1.5-1.5s1.5.674 1.5 1.5-.674 1.5-1.5 1.5-1.5-.674-1.5-1.5m1.5-.5c-.274 0-.5.226-.5.5s.226.5.5.5.5-.226.5-.5-.226-.5-.5-.5m7 4.5.412-.283-.412-.6-.412.6zm0 0 .412-.283.001.002.004.004.01.017.044.064q.058.085.162.244a45.845 45.845 0 0 1 2.311 3.97C41.697 28.95 43 32.08 43 34.64c0 2.98-2.478 5.36-5.5 5.36-3.023 0-5.5-2.39-5.5-5.36 0-2.556 1.304-5.686 2.555-8.118a46 46 0 0 1 2.474-4.217l.043-.065.011-.016.003-.005.001-.001zm-.356 1.477q.2-.322.356-.566.157.243.356.565c.464.75 1.082 1.801 1.7 3C40.804 29.401 42 32.341 42 34.64c0 2.4-2.002 4.36-4.5 4.36-2.497 0-4.5-1.97-4.5-4.36 0-2.294 1.196-5.234 2.445-7.66a45 45 0 0 1 1.7-3.003M24.5 27c-3.929 0-7.385 1.825-9.568 4.698l.796.605C17.725 29.675 20.89 28 24.5 28c2.319 0 4.442.69 6.2 1.875l.56-.83A12.03 12.03 0 0 0 24.5 27" clip-rule="evenodd"/></svg>