<?xml version="1.0" encoding="utf-8"?>
<!-- Generator: Adobe Illustrator 24.2.0, SVG Export Plug-In . SVG Version: 6.00 Build 0)  -->
<svg version="1.0" xmlns="http://www.w3.org/2000/svg" xmlns:xlink="http://www.w3.org/1999/xlink" x="0px" y="0px"
	 viewBox="0 0 24 24" enable-background="new 0 0 24 24" xml:space="preserve">
<g id="SVG_x5F_24x24pt">
	<path id="backgroundBlue" fill="#2D327D" d="M0,22.5v-21C0,0.675,0.675,0,1.5,0h21C23.325,0,24,0.675,24,1.5v21
		c0,0.825-0.675,1.5-1.5,1.5h-21C0.675,24,0,23.325,0,22.5z"/>
	<g id="content">
		<path fill="#FFFFFF" d="M8.825,7.508V21H6.131v-8.832h-0.96h-0.96H3.279H2.956v-1.956c0.658-0.018,1.195-0.086,1.61-0.203
			c0.415-0.117,0.795-0.308,1.14-0.572C6.205,9.055,6.54,8.412,6.712,7.508H8.825z"/>
		<path fill="#FFFFFF" d="M13.541,13.756c-0.628-0.215-1.109-0.569-1.444-1.061c-0.335-0.492-0.503-1.089-0.503-1.79
			c0-1.169,0.48-2.101,1.44-2.796c0.849-0.615,1.858-0.923,3.027-0.923c1.329,0,2.415,0.366,3.258,1.098
			c0.8,0.689,1.2,1.541,1.2,2.556c0,0.708-0.169,1.314-0.508,1.818c-0.338,0.505-0.818,0.871-1.44,1.098
			c0.486,0.142,0.883,0.323,1.19,0.544c0.855,0.621,1.283,1.529,1.283,2.722c0,1.372-0.526,2.464-1.578,3.276
			c-0.886,0.683-2.024,1.024-3.415,1.024c-1.507,0-2.707-0.375-3.599-1.126c-0.929-0.781-1.394-1.806-1.394-3.073
			c0-1.187,0.412-2.107,1.237-2.759C12.671,14.076,13.086,13.873,13.541,13.756z M16.005,14.771c-0.664,0-1.207,0.205-1.629,0.614
			c-0.422,0.409-0.632,0.934-0.632,1.573c0,0.658,0.214,1.194,0.641,1.606c0.428,0.412,0.983,0.618,1.666,0.618
			c0.775,0,1.357-0.228,1.744-0.683c0.375-0.437,0.563-0.941,0.563-1.513c0-0.652-0.215-1.187-0.646-1.606
			C17.3,14.974,16.731,14.771,16.005,14.771z M16.024,9.28c-0.591,0-1.068,0.165-1.43,0.494c-0.363,0.329-0.544,0.761-0.544,1.297
			c0,0.56,0.183,1.008,0.549,1.343c0.366,0.335,0.857,0.503,1.472,0.503c0.615,0,1.101-0.166,1.458-0.498
			c0.357-0.332,0.535-0.784,0.535-1.357c0-0.56-0.18-0.997-0.54-1.31C17.163,9.437,16.663,9.28,16.024,9.28z"/>
		<path fill="#FFFFFF" d="M5.036,3L4.288,5.249H3.73L2.993,3h0.514l0.506,1.684L4.527,3H5.036z"/>
		<path fill="#FFFFFF" d="M5.874,3.523c0.244,0,0.443,0.081,0.598,0.243c0.153,0.16,0.229,0.373,0.229,0.64
			c0,0.276-0.082,0.496-0.245,0.66C6.304,5.218,6.105,5.295,5.86,5.295c-0.261,0-0.47-0.085-0.624-0.255
			C5.088,4.877,5.014,4.667,5.014,4.409c0-0.254,0.072-0.461,0.215-0.62C5.389,3.612,5.603,3.523,5.874,3.523z M5.851,3.871
			c-0.118,0-0.212,0.048-0.281,0.143C5.499,4.11,5.463,4.242,5.463,4.409c0,0.173,0.035,0.306,0.105,0.398
			c0.072,0.093,0.17,0.14,0.294,0.14c0.116,0,0.208-0.043,0.275-0.128c0.077-0.094,0.115-0.231,0.115-0.411
			c0-0.168-0.034-0.299-0.102-0.392C6.08,3.919,5.98,3.871,5.851,3.871z"/>
		<path fill="#FFFFFF" d="M7.449,3v0.401H7.003V3H7.449z M7.449,3.572v1.677H7.003V3.572H7.449z"/>
		<path fill="#FFFFFF" d="M9.321,4.726C9.297,4.82,9.255,4.909,9.193,4.992c-0.148,0.202-0.36,0.303-0.637,0.303
			c-0.25,0-0.451-0.079-0.601-0.237c-0.074-0.077-0.13-0.17-0.169-0.278C7.744,4.664,7.723,4.543,7.723,4.417
			c0-0.244,0.07-0.449,0.211-0.615c0.157-0.186,0.36-0.278,0.609-0.278c0.201,0,0.372,0.062,0.514,0.186
			c0.102,0.089,0.175,0.199,0.221,0.33s0.069,0.295,0.069,0.493h-1.17c0.004,0.082,0.017,0.15,0.038,0.205
			c0.06,0.147,0.175,0.22,0.345,0.22c0.083,0,0.151-0.018,0.203-0.055c0.052-0.036,0.095-0.095,0.129-0.176H9.321z M8.892,4.232
			C8.884,4.151,8.865,4.084,8.836,4.031C8.808,3.978,8.767,3.937,8.714,3.906C8.661,3.875,8.604,3.86,8.541,3.86
			c-0.099,0-0.181,0.033-0.246,0.1C8.23,4.026,8.192,4.117,8.18,4.232H8.892z"/>
	</g>
</g>
</svg>
