<svg xmlns="http://www.w3.org/2000/svg" width="24" height="24" viewBox="0 0 24 24">
  <path fill="none" stroke="#000" d="M14.5,9.4997 L14.5,18.4997 L10.49,18.4997 L10.49,14.4997 L7.49,14.4997 L7.49,18.4997 L3.5,18.4997 L3.5,9.4997 M2,10.9997 L9,3.9997 L16,10.9997 M19.5,14.4997 L19.5,17.9997 C19.503,18.5427 19.504,19.4997 18.5,19.4997 C17.5,19.4997 17.501,18.5197 17.5,17.9997 L17.5,16.9997 C17.477,15.9927 16.998,15.4997 16,15.4997 L14.5,15.4997 M21.5,12.4997 C21.5,13.6037 20.604,14.4997 19.5,14.4997 C18.396,14.4997 17.5,13.6037 17.5,12.4997 L17.5,11.4997 L21.5,11.4997 L21.5,12.4997 Z M18.5,11.4997 L18.5,8.9997 M20.5,11.4997 L20.5,8.9997"/>
</svg>
