<svg class="color-immutable" width="59" height="20" viewBox="0 0 59 20" fill="none" xmlns="http://www.w3.org/2000/svg"><g clip-path="url(#a)"><path fill-rule="evenodd" clip-rule="evenodd" d="M2 0a2 2 0 0 0-2 2v16a2 2 0 0 0 2 2h55a2 2 0 0 0 2-2V2a2 2 0 0 0-2-2H2Z" fill="#EB0000"/><path d="M9.22 4.2h4.057L8.259 15.8H4.186L9.22 4.2ZM15.948 4.2h14.395l-1.49 3.445h-10.28l-2.042 4.71h10.285l-1.49 3.445H10.93l5.017-11.6ZM44.472 7.121h-2.2c-.205-.891-.711-1.337-1.518-1.337-.854 0-1.46.525-1.82 1.574-.147.428-.266 1.074-.355 1.938.348-.469.717-.806 1.107-1.012.396-.206.87-.309 1.424-.309 1.086 0 1.959.385 2.618 1.155.628.728.941 1.64.941 2.737 0 1.303-.421 2.35-1.265 3.14-.76.712-1.672 1.068-2.737 1.068-1.366 0-2.428-.514-3.188-1.542-.76-1.034-1.139-2.473-1.139-4.319 0-1.972.406-3.517 1.218-4.635.786-1.081 1.86-1.622 3.22-1.622 1.281 0 2.262.43 2.942 1.29.39.495.641 1.12.752 1.874Zm-3.916 2.65c-.553 0-.994.232-1.32.696-.296.411-.444.902-.444 1.471 0 .565.15 1.058.451 1.48.327.469.775.704 1.345.704.554 0 1-.224 1.337-.673.316-.422.474-.92.474-1.495 0-.564-.142-1.047-.427-1.447-.348-.49-.82-.736-1.416-.736ZM53.11 4.234V6.29h-4.66l-.498 2.602c.56-.59 1.274-.886 2.144-.886.854 0 1.598.23 2.23.688.94.691 1.409 1.74 1.409 3.149 0 1.381-.501 2.475-1.503 3.282-.78.633-1.714.95-2.8.95-1.224 0-2.208-.328-2.951-.982-.744-.659-1.137-1.547-1.179-2.665h2.27c.037.406.17.751.396 1.036.353.448.844.672 1.471.672.607 0 1.087-.218 1.44-.656.343-.427.514-.947.514-1.558 0-.665-.18-1.195-.538-1.59-.358-.401-.836-.602-1.431-.602-.728 0-1.295.327-1.701.981l-2.065-.031 1.1-6.447h6.352Z" fill="#fff"/></g><defs><clipPath id="a"><path fill="#fff" d="M0 0h59v20H0z"/></clipPath></defs></svg>