<svg width="36" height="36" viewBox="0 0 36 36" fill="none" xmlns="http://www.w3.org/2000/svg"><path fill-rule="evenodd" clip-rule="evenodd" d="M18 3.25C9.853 3.25 3.25 9.853 3.25 18c0 8.146 6.603 14.75 14.75 14.75S32.75 26.145 32.75 18c0-8.147-6.603-14.75-14.75-14.75ZM4.25 18c0-7.595 6.156-13.75 13.75-13.75S31.75 10.405 31.75 18c0 7.594-6.156 13.75-13.75 13.75S4.25 25.594 4.25 18Zm8.741-9.438-.741-.407V27.133l.757-.454 15-9 .746-.448-.762-.419-15-8.25Zm.259 16.805V9.846l13.497 7.423-13.497 8.098Z" fill="#000"/></svg>