<svg xmlns="http://www.w3.org/2000/svg" width="24" height="24" viewBox="0 0 24 24">
  <path fill="none" stroke="#000" d="M10.5,10.0002 L10.5,4.5002 L12,4.5002 C12.985,4.5002 13.5,4.9972 13.5,6.0002 C13.5,7.0002 12.998,7.4982 12,7.5002 L10.5,7.5002 M11.5,11.5002 L11.5,22.0002 M8.5,2.5002 L14.5,2.5002 C15.053,2.5002 15.5,2.9472 15.5,3.5002 L15.5,10.5002 C15.5,11.0522 15.053,11.5002 14.5,11.5002 L8.5,11.5002 C7.948,11.5002 7.5,11.0522 7.5,10.5002 L7.5,3.5002 C7.5,2.9472 7.948,2.5002 8.5,2.5002 Z"/>
</svg>
