<svg xmlns="http://www.w3.org/2000/svg" width="24" height="24" fill="none" viewBox="0 0 24 24"><path fill="#000" d="M15 20h-1v-3h-3.493l-.14.009c-.314.035-.54.177-.718.38-.217.249-.374.602-.478 1a5.7 5.7 0 0 0-.164 1.096 6 6 0 0 0-.009.462l.001.024v.006l-.998.046L8 20.02v-.011l-.001-.034-.002-.123c0-.103.002-.248.012-.422.02-.346.07-.817.195-1.296.125-.474.333-.994.693-1.404.375-.427.9-.72 1.596-.73H15zm2.676-16.468 4 1.5.324.121V9h-2.678L17 14.107V20h-1v-6.108l.045-.099 2.5-5.5.133-.293H21V5.846L17.759 4.63l-2.805 6.079-.116.252-.275.034-7.744.968-2.592 4.86 1.944-1.7.829-.726V20H6v-3.4l-3.17 2.776-.771-.611 4-7.5.122-.229.256-.032 7.724-.966 2.885-6.248.194-.42zM18.5 6a.5.5 0 1 1 0 1 .5.5 0 0 1 0-1"/></svg>