<?xml version="1.0" encoding="utf-8"?>
<!-- Generator: Adobe Illustrator 24.2.0, SVG Export Plug-In . SVG Version: 6.00 Build 0)  -->
<svg version="1.0" id="Ebene_1" xmlns="http://www.w3.org/2000/svg" xmlns:xlink="http://www.w3.org/1999/xlink" x="0px" y="0px"
	 viewBox="0 0 24 24" enable-background="new 0 0 24 24" xml:space="preserve">
<g id="SVG_x5F_24x24pt">
	<path id="backgroundYellow" fill="#F7B500" d="M0,22.5v-21C0,0.675,0.675,0,1.5,0h21C23.325,0,24,0.675,24,1.5v21
		c0,0.825-0.675,1.5-1.5,1.5h-21C0.675,24,0,23.325,0,22.5z"/>
	<g id="content">
		<path d="M14.029,16.048c0,1.04-0.843,1.883-1.883,1.883c-1.04,0-1.883-0.843-1.883-1.883c0-1.04,0.843-1.883,1.883-1.883
			C13.186,14.165,14.029,15.008,14.029,16.048L14.029,16.048z"/>
		<path d="M12.147,8.921c-3.982,0-7.585,2.358-9.178,6.007c1.593,3.649,5.196,6.007,9.178,6.007c3.982,0,7.585-2.358,9.178-6.007
			C19.733,11.28,16.13,8.921,12.147,8.921 M12.146,19.811v-0.007c-2.075,0-3.757-1.682-3.757-3.757c0-2.075,1.682-3.757,3.757-3.757
			s3.757,1.682,3.757,3.757h1.122c0-2.694-2.185-4.879-4.879-4.879c-2.693,0-4.878,2.184-4.878,4.879
			c0,1.049,0.332,2.02,0.896,2.817c-1.675-0.84-3.076-2.2-3.953-3.936h0c1.512-2.994,4.581-4.883,7.937-4.883
			c3.354,0,6.423,1.888,7.936,4.883h0C18.571,17.923,15.502,19.811,12.146,19.811L12.146,19.811z"/>
	</g>
</g>
</svg>
