<svg xmlns="http://www.w3.org/2000/svg" width="24" height="24" fill="none" viewBox="0 0 24 24"><path fill="#000" fill-rule="evenodd" d="M13 3v2.016a7.5 7.5 0 0 1 2.813.746l1.004-1.74.866.5L16.68 6.26a7.5 7.5 0 0 1 2.06 2.06l1.737-1.003.5.866-1.739 1.004c.42.857.68 1.807.746 2.813H22v1h-2.016a7.5 7.5 0 0 1-.746 2.813l1.74 1.004-.5.866-1.738-1.003a7.5 7.5 0 0 1-2.06 2.06l1.003 1.737-.866.5-1.004-1.738a7.5 7.5 0 0 1-2.813.745V22h-1v-2.016a7.5 7.5 0 0 1-2.813-.745l-1.004 1.738-.866-.5L8.32 18.74a7.5 7.5 0 0 1-2.06-2.06l-1.737 1.003-.5-.866 1.738-1.004A7.5 7.5 0 0 1 5.016 13H3v-1h2.016a7.5 7.5 0 0 1 .745-2.813L4.024 8.183l.5-.866L6.26 8.32a7.5 7.5 0 0 1 2.06-2.06L7.317 4.523l.866-.5 1.004 1.739A7.5 7.5 0 0 1 12 5.016V3zm5.981 9A6.47 6.47 0 0 0 12.5 6c-1.01 0-1.962.226-2.812.63l1.509 2.613c.401-.157.84-.243 1.303-.243a3.46 3.46 0 0 1 3.466 3zm-3.015 1h3.015a6.47 6.47 0 0 1-6.481 6 6.5 6.5 0 0 1-2.812-.63l1.509-2.613c.401.157.84.243 1.303.243 1.79 0 3.23-1.285 3.466-3M6 12.5A6.48 6.48 0 0 1 8.821 7.13l1.507 2.61A3.48 3.48 0 0 0 9 12.5c0 1.133.515 2.126 1.328 2.762l-1.507 2.61A6.48 6.48 0 0 1 6 12.5m4 0c0-1.407 1.093-2.5 2.5-2.5s2.5 1.093 2.5 2.5-1.093 2.5-2.5 2.5a2.467 2.467 0 0 1-2.5-2.5" clip-rule="evenodd"/></svg>