<svg xmlns="http://www.w3.org/2000/svg" width="24" height="24" fill="none" viewBox="0 0 24 24"><path fill="#000" fill-rule="evenodd" d="M7.78 3.1q.85-.098 1.719-.1c2.876 0 5.561.791 7.869 2.158l.51-.86a16.4 16.4 0 0 0-8.379-2.299c-.622 0-1.232.04-1.832.108zM4.07 5.06A14.45 14.45 0 0 1 9.5 4c4.257 0 8.073 1.846 10.724 4.765l-.74.672C17.013 6.717 13.461 5 9.5 5c-1.788 0-3.49.355-5.054.987zM9.5 7c-2.173 0-4.198.613-5.933 1.663l-.518-.856A12.43 12.43 0 0 1 9.5 6c4.64 0 8.678 2.533 10.834 6.281l-.866.499C17.48 9.327 13.765 7 9.5 7m-5.855 6.82A7.48 7.48 0 0 1 9.5 11a7.5 7.5 0 0 1 7.497 7.444l1-.008A8.5 8.5 0 0 0 9.5 10a8.48 8.48 0 0 0-6.636 3.195zm-.966-3.294A10.45 10.45 0 0 1 9.499 8c4.778 0 8.802 3.193 10.075 7.557l-.96.28C17.462 11.887 13.82 9 9.5 9a9.45 9.45 0 0 0-6.17 2.286zm3.327 7.924A3.497 3.497 0 0 1 13 18.5v2.696h1V18.5a4.497 4.497 0 0 0-8.994-.065zM3.582 15.82A6.497 6.497 0 0 1 16 18.501v1.763h-1V18.5a5.497 5.497 0 0 0-10.507-2.266zM9.5 16A2.5 2.5 0 0 0 7 18.5v1.763h1V18.5a1.5 1.5 0 1 1 3 0v3h1v-3A2.5 2.5 0 0 0 9.5 16M9 21v-3h1v3z" clip-rule="evenodd"/></svg>