<svg xmlns="http://www.w3.org/2000/svg" width="24" height="24" fill="none" viewBox="0 0 24 24"><path stroke="#000" d="M5.996 11.08c-3.211 0-3.849 6.42 1.2 6.42h10.502c4.981 0 4.8-6.42 1.05-6.27 1.65-5.526-5.701-8.064-7.951-2.987-1.982-1.616-5.149-.065-4.8 2.836Z"/><path fill="#000" d="M9.517 14.27h.978v.127q-.003.652-.173.99a1.1 1.1 0 0 1-.471.495q-.302.158-.809.158-.633 0-.964-.296a1.24 1.24 0 0 1-.378-.651q-.1-.405-.1-1.294 0-.733.067-1.108.065-.375.235-.612.364-.504 1.184-.504.712 0 1.046.349.196.203.262.45t.066.777h-.973v-.093q0-.35-.052-.522-.08-.27-.355-.27-.334 0-.392.417a8 8 0 0 0-.053 1.051q0 .794.05 1.172.06.449.398.448.252 0 .343-.228.09-.228.09-.855M12.373 11.572q.961 0 1.277.645.127.255.174.602.05.346.049 1 0 .99-.17 1.462-.275.762-1.333.762-1.049 0-1.33-.782-.167-.464-.167-1.491 0-.621.056-.98.055-.36.193-.614.32-.604 1.251-.604m-.003.698q-.29 0-.378.295-.082.273-.082 1.21 0 .862.067 1.193.08.392.396.392.282.001.372-.289.09-.288.09-1.19 0-1.005-.081-1.304-.086-.307-.384-.307M14.324 13.023q0-.663.2-.961.322-.487 1.15-.487.663 0 1 .305.322.296.322.934 0 .475-.19.812-.132.234-.516.6-.437.417-.567.572a1.5 1.5 0 0 0-.221.369h1.512v.78h-2.71q-.003-.578.22-1.038.132-.278.275-.448t.794-.83q.252-.254.33-.413a.9.9 0 0 0 .08-.412q0-.293-.085-.428t-.27-.135q-.22 0-.3.166-.08.165-.08.614z"/></svg>