<svg xmlns="http://www.w3.org/2000/svg" width="36" height="36" fill="none" viewBox="0 0 36 36"><path fill="#000" fill-rule="evenodd" d="M16.75 6.261V3h1v3.261a10.96 10.96 0 0 1 6.917 2.866l2.306-2.306.707.707-2.306 2.306a10.96 10.96 0 0 1 2.865 6.916H31.5v1h-3.261a10.96 10.96 0 0 1-2.865 6.917l2.306 2.306-.707.707-2.306-2.306a10.96 10.96 0 0 1-6.917 2.865V31.5h-1v-3.261a10.96 10.96 0 0 1-6.917-2.865L7.527 27.68l-.707-.707 2.306-2.306a10.96 10.96 0 0 1-2.865-6.917H3v-1h3.261a10.96 10.96 0 0 1 2.865-6.916L6.82 7.528l.707-.707 2.306 2.306A10.96 10.96 0 0 1 16.75 6.26m.5.989c-5.523 0-10 4.477-10 10s4.477 10 10 10 10-4.477 10-10-4.477-10-10-10m-8 10a8 8 0 1 1 16 0c0 4.42-3.58 8-8 8s-8-3.58-8-8m1.018-.5h3.518a3.5 3.5 0 0 1 .66-1.595l-2.486-2.489a6.97 6.97 0 0 0-1.692 4.084m2.399-4.791 2.487 2.488a3.5 3.5 0 0 1 1.596-.661v-3.518a6.97 6.97 0 0 0-4.083 1.691m5.083-1.691v3.518a3.5 3.5 0 0 1 1.596.662l2.488-2.489a6.97 6.97 0 0 0-4.084-1.691m4.79 2.398-2.487 2.489c.343.458.577 1.002.662 1.595h3.517a6.97 6.97 0 0 0-1.691-4.084m1.692 5.084h-3.517a3.5 3.5 0 0 1-.662 1.596l2.488 2.488a6.97 6.97 0 0 0 1.691-4.084m-2.398 4.79-2.488-2.487a3.5 3.5 0 0 1-1.596.662v3.517a6.97 6.97 0 0 0 4.084-1.691m-5.084 1.692v-3.517a3.5 3.5 0 0 1-1.596-.662l-2.488 2.488a6.97 6.97 0 0 0 4.084 1.691m-4.791-2.398 2.488-2.488a3.5 3.5 0 0 1-.661-1.596h-3.518a6.97 6.97 0 0 0 1.69 4.084m5.291-7.084a2.501 2.501 0 0 0 0 5 2.501 2.501 0 0 0 0-5" clip-rule="evenodd"/></svg>