<svg xmlns="http://www.w3.org/2000/svg" width="48" height="48" fill="none" viewBox="0 0 48 48"><path fill="#000" fill-rule="evenodd" d="M11.08 12.958C10.3 13.52 10 14.047 10 14.5s.301.98 1.08 1.542c.766.553 1.91 1.072 3.372 1.516C17.369 18.445 21.443 19 26 19s8.63-.555 11.548-1.442c1.462-.444 2.606-.963 3.373-1.516C41.699 15.48 42 14.953 42 14.5s-.301-.98-1.08-1.542c-.766-.553-1.91-1.072-3.372-1.516C34.63 10.555 30.557 10 26 10s-8.63.555-11.548 1.442c-1.462.444-2.606.963-3.373 1.516m-.586-.81C9.614 12.782 9 13.57 9 14.5v.762c-.84.387-1.542.823-2.053 1.306-.573.541-.947 1.18-.947 1.903V22.5c0 1.07.665 1.934 1.632 2.607.396.276.856.529 1.368.761V32.5c0 1.083.659 1.964 1.628 2.653.97.69 2.323 1.243 3.895 1.678 3.152.871 7.325 1.301 11.477 1.301s8.325-.43 11.477-1.3c1.573-.436 2.925-.99 3.895-1.68.97-.688 1.628-1.569 1.628-2.652v-7.773q.012-.11.012-.224c0-.724-.376-1.365-.95-1.906-.389-.367-.887-.707-1.473-1.018q.421-.225.779-.472C42.335 20.434 43 19.57 43 18.5v-4c0-.929-.614-1.717-1.494-2.353-.892-.643-2.152-1.202-3.667-1.662C34.803 9.563 30.626 9 26 9s-8.802.563-11.839 1.485c-1.515.46-2.775 1.019-3.667 1.662M10 32.5c0 .628.373 1.244 1.208 1.838.685.487 1.633.921 2.792 1.294V32.68c-1.35-.41-2.511-.915-3.372-1.527a5.4 5.4 0 0 1-.628-.519zm5 .458v2.966c2.51.668 5.692 1.062 9 1.174V34.1c-3.262-.11-6.433-.488-9-1.141m11 4.174q-.5 0-1-.008v-3q.5.008 1 .008c3.138 0 6.288-.245 9-.741v2.983c-2.673.504-5.83.758-9 .758m10-3.94v2.976q.629-.14 1.21-.3c1.522-.421 2.748-.937 3.582-1.53.836-.594 1.208-1.21 1.208-1.838v-1.866q-.285.276-.628.519c-.97.69-2.322 1.243-3.895 1.678q-.706.195-1.477.361M10 28.5c0 .628.373 1.244 1.208 1.838.834.593 2.06 1.109 3.582 1.53l.21.056v-3.171c-1.147-.305-2.165-.659-3.018-1.054-.8-.37-1.477-.788-1.982-1.254V28.5m32-2.033V28.5c0 .628-.372 1.244-1.208 1.838-.834.593-2.06 1.109-3.581 1.53l-.211.056V28.76q.439-.116.85-.241c1.516-.46 2.776-1.019 3.668-1.662q.257-.186.482-.39m-17 6.657c-3.234-.055-6.402-.375-9-.956v-3.17c2.54.576 5.632.936 9 .996v3.13m1-3.12v3.128c3.575 0 7.134-.324 10-.964v-3.164c-2.79.63-6.242 1-9.988 1zM42 24.5h.012c-.001-.352-.181-.747-.636-1.176-.333-.314-.794-.626-1.376-.925v.101c0 1.07-.665 1.934-1.633 2.607-.97.675-2.32 1.216-3.893 1.642-3.15.852-7.323 1.272-11.474 1.272-3.42 0-6.856-.285-9.722-.863.765.291 1.645.557 2.624.79 2.758.66 6.263 1.055 10.11 1.055 4.556 0 8.63-.555 11.548-1.442 1.462-.444 2.606-.963 3.373-1.516.69-.498 1.004-.968 1.067-1.384zM7 20.424V22.5c0 .604.367 1.204 1.203 1.786.686.477 1.636.903 2.797 1.268v-3.117c-1.443-.45-2.645-.992-3.506-1.613a6 6 0 0 1-.494-.4m14 6.564c-3.307-.11-6.49-.495-9-1.148v-3.116c2.473.655 5.576 1.09 9 1.212v3.052m1-3.025v3.05q.5.008 1 .008c3.17 0 6.327-.249 9-.742v-2.562a58 58 0 0 1-6.493.302v.002c-.148.003-.719-.01-1.268-.023l-.194-.005c-.49-.011-.93-.021-1.045-.021q-.505 0-1-.01m12.213 1.82q-.582.158-1.213.295V23.6c1.622-.207 3.14-.49 4.474-.851A20 20 0 0 0 39 22.272v.228c0 .604-.367 1.204-1.203 1.786-.835.581-2.062 1.086-3.584 1.497m-26.58-8.488c.332-.313.789-.623 1.367-.921V18.5c0 1.07.665 1.934 1.633 2.607q.244.17.52.33c-1.32-.424-2.36-.909-3.074-1.424C7.301 19.452 7 18.924 7 18.471c0-.352.18-.747.633-1.176m2.861-.442a6 6 0 0 1-.494-.4V18.5c0 .604.367 1.204 1.204 1.786.834.581 2.06 1.086 3.583 1.497q.105.03.213.057v-3.087a24 24 0 0 1-.839-.238c-1.515-.46-2.775-1.019-3.667-1.662M16 18.998v3.08c2.599.568 5.767.881 9 .935v-3.022c-3.365-.06-6.458-.418-9-.993m20 3.08c-2.866.626-6.425.943-10 .943V20c3.752 0 7.208-.37 10-1.002v3.08m1-3.325v3.087l.213-.057c1.522-.411 2.749-.916 3.584-1.497C41.634 19.704 42 19.104 42 18.5v-2.047q-.229.21-.494.4c-.892.643-2.152 1.202-3.667 1.662q-.405.123-.839.238M26 12c3.837 0 6.89.38 9.17.885 2.292.508 3.775 1.136 4.492 1.61l.552-.833c-.862-.571-2.479-1.233-4.827-1.753C33.028 11.386 29.902 11 26 11a51 51 0 0 0-5.55.288c-4.52.498-7.42 1.545-8.673 2.379l.554.832c1.06-.704 3.775-1.727 8.228-2.217A50 50 0 0 1 26 12" clip-rule="evenodd"/></svg>