<svg xmlns="http://www.w3.org/2000/svg" width="24" height="24" fill="none" viewBox="0 0 24 24"><path fill="#000" fill-rule="evenodd" d="M5.5 4H5v4H4v1h1v3H4v1h1v3H4v1h1v3h14V4H5.5M6 17v2h12V5H6v3h1v1H6v3h1v1H6v3h1v1zm6-9c-.449 0-1 .511-1 1.5 0 .467.136.858.332 1.121.193.26.43.38.668.38.452 0 1-.505 1-1.49 0-.468-.136-.863-.333-1.128C12.473 8.121 12.237 8 12 8m-2 1.5c0-1.25.747-2.5 2-2.5.615 0 1.128.325 1.47.788.341.46.53 1.07.53 1.722 0 .378-.068.754-.197 1.095C15.146 11.53 16 13.412 16 15.5v.5H8v-.5c0-2.088.854-3.97 2.197-4.894A3.1 3.1 0 0 1 10 9.5m.732 1.953c-.89.635-1.592 1.928-1.713 3.547h5.963c-.121-1.616-.82-2.908-1.709-3.544A1.75 1.75 0 0 1 12 12c-.503 0-.938-.215-1.268-.547" clip-rule="evenodd"/></svg>