<svg xmlns="http://www.w3.org/2000/svg" width="48" height="48" version="1.1" viewBox="0 0 48 48">
  <path fill="none" fill-rule="evenodd" stroke="#000" stroke-width="1" d="M39.5,18.5 L39.5,42.5 L28.816,42.5 L19.184,42.5 L8.5,42.5 L8.5,18.5 M20.499,22.5151 L20.501,42.5001 M27.5,42.5 L27.5,21.803 M32.001,18.5 L38.681,18.5 L40.5,18.5 L40.5,12.5 L28.55,12.5 L7.5,12.5 L7.5,18.5 L9.32,18.5 L16.498,18.5 M15.6792,12.5 C14.8592,12.004 13.8452,10.956 13.6102,10.026 C13.3762,9.097 13.5182,8.113 14.0052,7.288 C14.4922,6.463 15.2852,5.863 16.2122,5.62 C17.1382,5.376 18.1242,5.508 18.9542,5.986 C20.6832,7.008 23.3682,12.5 23.3682,12.5 M32.3203,12.5 C33.1403,12.004 34.1553,10.956 34.3893,10.026 C34.6243,9.097 34.4823,8.113 33.9953,7.288 C33.5073,6.463 32.7153,5.863 31.7883,5.62 C30.8613,5.376 29.8763,5.508 29.0463,5.986 C27.3163,7.008 24.6313,12.5 24.6313,12.5 M27.7998,12.5073 L35.0168,22.8003 L31.8648,23.1063 L30.4458,26.0053 L20.9778,12.5003 M20.6997,12.5073 L13.4827,22.8003 L16.6547,23.0943 L18.0527,26.0053 L24.2497,17.1663"/>
</svg>
