<svg class="color-immutable" width="59" height="20" viewBox="0 0 59 20" fill="none" xmlns="http://www.w3.org/2000/svg"><path fill-rule="evenodd" clip-rule="evenodd" d="M2 0a2 2 0 0 0-2 2v16a2 2 0 0 0 2 2h55a2 2 0 0 0 2-2V2a2 2 0 0 0-2-2H2Z" fill="#F27E00"/><path d="M14.153 4.17v2.142H7.98v2.476h5.657v1.991H7.98v2.849h6.284v2.142H5.45V4.17h8.704ZM25.311 4.17l-3.856 11.6h-2.88l-3.8-11.6h2.65l2.61 8.688 2.65-8.688h2.626ZM33.613 13.707v2.063h-8.355c0-.63.1-1.23.301-1.801a4.438 4.438 0 0 1 .865-1.476 8.124 8.124 0 0 1 1-.928c.386-.302 1.15-.855 2.293-1.659.556-.386.944-.745 1.167-1.079a2.04 2.04 0 0 0 .333-1.158c0-.508-.151-.918-.452-1.23-.297-.317-.688-.476-1.175-.476-1.195 0-1.811.86-1.849 2.579h-2.23v-.254c0-1.407.395-2.497 1.183-3.27.767-.75 1.759-1.126 2.976-1.126 1.079 0 1.98.307 2.705.92.788.667 1.182 1.563 1.182 2.69 0 .984-.314 1.83-.944 2.54-.206.232-.4.42-.579.563-.18.137-.653.473-1.42 1.007-.73.508-1.254.897-1.571 1.167a6.37 6.37 0 0 0-.873.928h5.443ZM34.306 7.843c.026-.952.261-1.75.706-2.396.72-1.037 1.8-1.555 3.245-1.555 1.11 0 2.007.283 2.69.849.735.614 1.103 1.407 1.103 2.38 0 .582-.146 1.085-.437 1.508-.285.418-.674.7-1.166.849.624.143 1.116.46 1.476.952.365.492.547 1.087.547 1.785 0 1.148-.423 2.087-1.27 2.817-.782.677-1.771 1.016-2.967 1.016-1.296 0-2.325-.373-3.086-1.119-.757-.746-1.135-1.754-1.135-3.023v-.15h2.23c0 .713.169 1.266.507 1.658.339.386.818.579 1.437.579.618 0 1.095-.183 1.428-.548.307-.344.46-.754.46-1.23 0-.571-.196-1.023-.587-1.357-.323-.274-.82-.412-1.492-.412-.19 0-.378.01-.563.032V8.772c.137.01.27.016.396.016 1.333 0 2-.495 2-1.484 0-.434-.146-.783-.436-1.048-.291-.27-.675-.404-1.15-.404-.546 0-.966.17-1.262.508-.297.338-.455.833-.477 1.483h-2.197Z" fill="#000"/></svg>