<svg class="color-immutable" xmlns="http://www.w3.org/2000/svg" width="59" height="20" fill="none" viewBox="0 0 59 20"><path fill="#E84E10" fill-rule="evenodd" d="M2 0a2 2 0 0 0-2 2v16a2 2 0 0 0 2 2h55a2 2 0 0 0 2-2V2a2 2 0 0 0-2-2z" clip-rule="evenodd"/><path fill="#000" d="M14.153 4.17v2.142H7.98v2.476h5.657v1.991H7.98v2.849h6.284v2.142H5.45V4.17zM25.311 4.17l-3.856 11.6h-2.88l-3.8-11.6h2.65l2.61 8.688 2.65-8.688zM27.273 9.542q-.81-.279-1.245-.913-.429-.634-.429-1.54 0-1.507 1.238-2.403 1.095-.795 2.602-.794 1.715 0 2.801.944 1.032.889 1.032 2.198 0 .914-.437 1.563-.435.651-1.237.944.627.183 1.023.469 1.103.801 1.103 2.34 0 1.77-1.357 2.817-1.142.88-2.935.88-1.944 0-3.095-.967-1.198-1.008-1.198-2.642 0-1.532 1.063-2.373.484-.372 1.071-.524m2.135-3.849q-.762 0-1.23.429-.468.42-.468 1.11 0 .723.468 1.159.475.429 1.27.428.792 0 1.253-.428t.46-1.166q0-.723-.468-1.127-.46-.405-1.285-.405m-.016 4.721q-.858 0-1.405.532-.54.524-.54 1.349 0 .849.548 1.38.556.532 1.436.532 1 0 1.5-.587.484-.564.484-1.301 0-.841-.555-1.381-.532-.524-1.468-.524M40.026 4.17v11.6H37.71V8.177H34.98V6.495q.849-.024 1.38-.175.54-.15.984-.492.643-.492.865-1.658z"/></svg>