<svg width="36" height="36" viewBox="0 0 36 36" fill="none" xmlns="http://www.w3.org/2000/svg"><path fill-rule="evenodd" clip-rule="evenodd" d="M14.75 12c0-1.905 1.218-3.25 2.5-3.25s2.5 1.345 2.5 3.25-1.218 3.25-2.5 3.25-2.5-1.345-2.5-3.25Zm2.5-4.25c-2.03 0-3.5 2.012-3.5 4.25 0 1.074.339 2.096.915 2.869-.642.594-1.18 1.394-1.582 2.333a5.827 5.827 0 0 0-.743-.84c.574-.772.91-1.791.91-2.862 0-2.238-1.47-4.25-3.5-4.25-2.03 0-3.5 2.012-3.5 4.25 0 1.071.337 2.09.91 2.862-1.386 1.278-2.29 3.52-2.391 6.045a5.86 5.86 0 0 0-.268.199c-.74.583-1.251 1.304-1.251 2.144 0 .84.511 1.561 1.251 2.144.746.588 1.794 1.096 3.045 1.512 2.506.836 5.937 1.344 9.704 1.344 3.767 0 7.198-.508 9.704-1.344 1.25-.416 2.299-.924 3.045-1.512.74-.583 1.251-1.304 1.251-2.144 0-.84-.511-1.561-1.251-2.144a5.854 5.854 0 0 0-.266-.197c-.1-2.525-1-4.772-2.39-6.05.571-.771.907-1.79.907-2.859 0-2.238-1.47-4.25-3.5-4.25-2.03 0-3.5 2.012-3.5 4.25 0 1.07.336 2.088.908 2.86a5.747 5.747 0 0 0-.742.839c-.402-.938-.94-1.737-1.581-2.33.576-.773.915-1.795.915-2.869 0-2.238-1.47-4.25-3.5-4.25Zm4.584 10.647c.146.526.254 1.08.32 1.655 1.809.232 3.44.588 4.8 1.042.635.211 1.218.446 1.735.703-.21-2.074-1.005-3.774-2.042-4.718a3.04 3.04 0 0 1-1.897.671 3.04 3.04 0 0 1-1.897-.671c-.375.342-.72.785-1.019 1.318Zm-16.02 3.399c.516-.257 1.098-.491 1.732-.702 1.36-.454 2.991-.81 4.8-1.042.066-.573.174-1.127.32-1.652a5.303 5.303 0 0 0-1.021-1.32 3.04 3.04 0 0 1-1.895.67 3.04 3.04 0 0 1-1.894-.669c-1.035.944-1.832 2.643-2.042 4.715Zm7.555-1.86a39.739 39.739 0 0 1 3.881-.186c1.346 0 2.648.065 3.881.186-.261-1.912-1.023-3.462-1.993-4.35a3.039 3.039 0 0 1-1.888.664c-.71 0-1.353-.247-1.887-.663-.97.887-1.732 2.437-1.994 4.35ZM4.25 24.75c0-.402.244-.866.87-1.359.62-.489 1.55-.951 2.742-1.349 2.38-.793 5.698-1.292 9.388-1.292 3.69 0 7.009.5 9.388 1.292 1.192.398 2.121.86 2.742 1.349.626.493.87.957.87 1.359s-.244.866-.87 1.359c-.62.489-1.55.951-2.742 1.349-2.38.793-5.699 1.292-9.388 1.292-3.69 0-7.009-.5-9.388-1.292-1.192-.398-2.121-.86-2.742-1.349-.626-.493-.87-.957-.87-1.359Zm18-11.25c0-1.905 1.218-3.25 2.5-3.25s2.5 1.345 2.5 3.25-1.218 3.25-2.5 3.25-2.5-1.345-2.5-3.25Zm-12.5-3.25c-1.282 0-2.5 1.345-2.5 3.25s1.218 3.25 2.5 3.25 2.5-1.345 2.5-3.25-1.218-3.25-2.5-3.25Z" fill="#000"/></svg>