<svg xmlns="http://www.w3.org/2000/svg" width="13" height="16" fill="none" viewBox="0 0 13 16"><path fill="#000" fill-rule="evenodd" d="M5.718 3.5a1.25 1.25 0 1 0 0-2.5 1.25 1.25 0 0 0 0 2.5M9.334 11l.862 2.38a.94.94 0 0 0 .872.62c.645 0 1.1-.65.873-1.26l-1.289-3.58a.98.98 0 0 0-.931-.66H7.194V5.75c0-.83-.664-1.5-1.487-1.5-.822 0-1.486.67-1.486 1.5V9.5c0 .83.664 1.5 1.486 1.5zm-.743.68.614 1.7v.01c-.862.98-2.1 1.61-3.498 1.61C3.111 15 1 12.87 1 10.25c0-1.7.892-3.18 2.23-4.02V8.2a3.24 3.24 0 0 0-.744 2.05c0 1.79 1.447 3.25 3.221 3.25 1.269 0 2.359-.75 2.884-1.82" clip-rule="evenodd"/></svg>