<?xml version="1.0" encoding="utf-8"?>
<!-- Generator: Adobe Illustrator 24.2.0, SVG Export Plug-In . SVG Version: 6.00 Build 0)  -->
<svg version="1.0" id="Ebene_1" xmlns="http://www.w3.org/2000/svg" xmlns:xlink="http://www.w3.org/1999/xlink" x="0px" y="0px"
	 viewBox="0 0 24 24" enable-background="new 0 0 24 24" xml:space="preserve">
<g id="SVG_x5F_24x24pt">
	<path id="backgroundBlue" fill="#2D327D" d="M0,22.5v-21C0,0.675,0.675,0,1.5,0h21C23.325,0,24,0.675,24,1.5v21
		c0,0.825-0.675,1.5-1.5,1.5h-21C0.675,24,0,23.325,0,22.5z"/>
	<g id="content">
		<path fill="#FFFFFF" d="M7.687,16.688h9.75c0.829,0,1.5-0.673,1.5-1.5V10.5c0-0.828-0.672-1.5-1.5-1.5h-2.812V8.249
			c0-0.413-0.336-0.748-0.751-0.748H11.25c-0.414,0-0.751,0.335-0.751,0.748V9H7.687c-0.828,0-1.5,0.671-1.5,1.5v4.689
			C6.187,16.015,6.86,16.688,7.687,16.688L7.687,16.688z M11.25,8.249h2.624V9H11.25V8.249L11.25,8.249z"/>
		<path fill="#FFFFFF" d="M18.938,18v-0.749H5.624V7.875c0-0.206-0.167-0.374-0.374-0.374H3.375C3.168,7.501,3,7.669,3,7.875
			c0,0.207,0.168,0.374,0.375,0.374h1.5V18H18.938L18.938,18z"/>
		<path fill="#FFFFFF" d="M17.768,18.552c-0.673,0-1.219,0.546-1.219,1.218c0,0.673,0.545,1.219,1.219,1.219
			c0.672,0,1.218-0.546,1.218-1.219C18.986,19.098,18.44,18.552,17.768,18.552L17.768,18.552z"/>
		<path fill="#FFFFFF" d="M6.124,18.552c-0.673,0-1.219,0.546-1.219,1.218c0,0.673,0.546,1.219,1.219,1.219
			c0.673,0,1.218-0.546,1.218-1.219C7.342,19.098,6.796,18.552,6.124,18.552L6.124,18.552z"/>
	</g>
</g>
</svg>
