<svg xmlns="http://www.w3.org/2000/svg" width="24" height="24" viewBox="0 0 24 24">
  <path fill="none" stroke="#000" d="M13.6973,10.501 C12.0403,7.631 8.3703,6.648 5.5013,8.305 C2.6313,9.962 1.6483,13.631 3.3043,16.501 L13.6973,10.501 Z M5.9033,15.001 C4.2463,12.131 4.0663,9.133 5.5013,8.305 C6.9363,7.476 9.4423,9.131 11.0993,12.001 M8.501,13.501 L12.5,21.5 M2,21.5 L22,21.5 M21.5,6.5 C21.5,8.157 20.157,9.5 18.5,9.5 C16.843,9.5 15.5,8.157 15.5,6.5 C15.5,4.843 16.843,3.5 18.5,3.5 C20.157,3.5 21.5,4.843 21.5,6.5 Z"/>
</svg>
