<svg xmlns="http://www.w3.org/2000/svg" width="48" height="48" fill="none" viewBox="0 0 48 48"><path fill="#000" fill-rule="evenodd" d="M22.434 3.027q.282-.015.566-.021v20.783l.25.144L41 34.181C37.4 40.071 30.909 44 23.5 44 12.178 44 3 34.822 3 23.5 3 12.536 11.608 3.581 22.434 3.027M44 23.5c0 3.556-.906 6.9-2.498 9.816L24.5 23.5l17.002-9.816A20.4 20.4 0 0 1 44 23.5m-3-10.681c-3.52-5.756-9.8-9.64-17-9.813v19.628zM22.384 2.029q.555-.03 1.117-.029C35.374 2 45 11.626 45 23.5S35.374 45 23.5 45 2 35.374 2 23.5C2 12 11.028 2.61 22.383 2.029" clip-rule="evenodd"/></svg>