<?xml version="1.0" encoding="utf-8"?>
<!-- Generator: Adobe Illustrator 24.2.0, SVG Export Plug-In . SVG Version: 6.00 Build 0)  -->
<svg version="1.0" id="Ebene_1" xmlns="http://www.w3.org/2000/svg" xmlns:xlink="http://www.w3.org/1999/xlink" x="0px" y="0px"
	 viewBox="0 0 24 24" enable-background="new 0 0 24 24" xml:space="preserve">
<g id="SVG_x5F_24x24pt">
	<path id="backgroundBlue" fill="#2D327D" d="M0,22.5v-21C0,0.675,0.675,0,1.5,0h21C23.325,0,24,0.675,24,1.5v21
		c0,0.825-0.675,1.5-1.5,1.5h-21C0.675,24,0,23.325,0,22.5z"/>
	<g id="content">
		<g>
			<path fill="#FFFFFF" d="M18.68,18.483c0-1.45-1.18-2.63-2.63-2.63c-1.45,0-2.63,1.18-2.63,2.63c0,1.45,1.18,2.63,2.63,2.63
				C17.5,21.113,18.68,19.933,18.68,18.483 M17.92,18.483c0,1.031-0.839,1.87-1.87,1.87c-1.031,0-1.87-0.839-1.87-1.87
				c0-1.032,0.839-1.871,1.87-1.871C17.081,16.612,17.92,17.451,17.92,18.483L17.92,18.483z"/>
			<path fill="#FFFFFF" d="M11.925,18.483c0-1.45-1.18-2.63-2.63-2.63c-1.45,0-2.63,1.18-2.63,2.63c0,1.45,1.18,2.63,2.63,2.63
				C10.745,21.113,11.925,19.933,11.925,18.483 M11.166,18.483c0,1.031-0.839,1.87-1.87,1.87c-1.031,0-1.871-0.839-1.871-1.87
				c0-1.032,0.839-1.871,1.871-1.871C10.327,16.612,11.166,17.451,11.166,18.483L11.166,18.483z"/>
			<path fill="#FFFFFF" d="M20.113,9.483c-0.227,2.13-1.09,4.07-2.397,5.625H7.564c-1.307-1.555-2.17-3.495-2.397-5.625H20.113
				L20.113,9.483z"/>
			<path fill="#FFFFFF" d="M13.641,8.733c-0.412,0-0.581-0.292-0.375-0.649l3.142-5.443c2.13,1.233,3.595,3.487,3.724,6.092H13.641
				L13.641,8.733z"/>
			<path fill="#FFFFFF" d="M2.925,8.435h4.5v0.6h-4.5c-0.165,0-0.3-0.135-0.3-0.3C2.625,8.57,2.76,8.435,2.925,8.435L2.925,8.435z"
				/>
		</g>
	</g>
</g>
</svg>
