<svg xmlns="http://www.w3.org/2000/svg" width="24" height="24" viewBox="0 0 24 24">
  <path fill="none" stroke="#000" d="M12.5,4.4963 L12.5,9.4963 L17.5,9.4963 M9.001,11.5002 L15.001,11.5002 M8.999,13.4997 L15.001,13.4997 M17.5,19.4997 L6.5,19.4997 L6.5,4.4997 L12.5,4.4997 L17.5,9.4997 L17.5,19.4997 Z M15.001,17.4997 C14.993,17.4867 14.611,16.9297 14.145,16.9997 C13.471,17.1027 13.047,18.0547 12.594,17.8007 C12.323,17.6487 12.883,16.5567 12.145,16.5147 C11.716,16.4897 10.913,18.1387 10.41,17.9907 C9.961,17.8587 10.579,16.2487 10.171,16.0367 C9.607,15.7437 9.001,16.9997 9.001,16.9997"/>
</svg>
