<?xml version="1.0" encoding="utf-8"?>
<!-- Generator: Adobe Illustrator 29.0.0, SVG Export Plug-In . SVG Version: 9.03 Build 54978)  -->
<svg version="1.0" id="Ebene_1" xmlns="http://www.w3.org/2000/svg" xmlns:xlink="http://www.w3.org/1999/xlink" x="0px" y="0px"
	 viewBox="0 0 24 24" enable-background="new 0 0 24 24" xml:space="preserve">
<g id="SVG_x5F_24x24pt">
	<path id="backgroundBlue" fill="#2D327D" d="M0,22.5v-21C0,0.675,0.675,0,1.5,0h21C23.325,0,24,0.675,24,1.5v21
		c0,0.825-0.675,1.5-1.5,1.5h-21C0.675,24,0,23.325,0,22.5z"/>
	<g id="content">
		<g>
			<path fill="#FFFFFF" d="M7.341,9.758h5.445c1.077,0,1.902,0.169,2.476,0.508c0.477,0.277,0.841,0.646,1.092,1.107
				c0.251,0.461,0.377,0.982,0.377,1.561c0,0.656-0.158,1.228-0.473,1.715c-0.315,0.487-0.755,0.836-1.319,1.046
				c0.497,0.123,0.887,0.4,1.169,0.831c0.179,0.272,0.3,0.556,0.361,0.854c0.062,0.297,0.141,0.977,0.238,2.038
				c0.072,0.779,0.182,1.264,0.331,1.453l0.108,0.131h-2.561c-0.087-0.159-0.15-0.361-0.188-0.608
				c-0.039-0.246-0.088-0.815-0.15-1.707c-0.062-0.795-0.255-1.345-0.581-1.65c-0.326-0.305-0.881-0.458-1.665-0.458H9.794v4.422
				H7.341V9.758z M9.794,11.689v3.092h2.346c0.754,0,1.284-0.108,1.592-0.323c0.39-0.272,0.584-0.682,0.584-1.23
				c0-0.533-0.167-0.923-0.5-1.169c-0.333-0.246-0.859-0.369-1.577-0.369H9.794z"/>
		</g>
		<g>
			<path fill="#FFFFFF" d="M4.812,3.666H4.344c-0.009-0.11-0.05-0.194-0.122-0.251S4.049,3.328,3.918,3.328
				c-0.116,0-0.206,0.023-0.27,0.068C3.584,3.442,3.552,3.506,3.552,3.588c0,0.074,0.031,0.127,0.092,0.16
				c0.059,0.033,0.21,0.079,0.452,0.138c0.255,0.064,0.432,0.128,0.531,0.192C4.809,4.197,4.9,4.363,4.9,4.575
				c0,0.233-0.091,0.416-0.274,0.551C4.465,5.244,4.247,5.303,3.972,5.303c-0.306,0-0.543-0.07-0.712-0.209
				C3.091,4.954,3.003,4.755,2.997,4.498h0.489c0.007,0.125,0.039,0.218,0.097,0.278c0.09,0.096,0.226,0.145,0.408,0.145
				c0.123,0,0.22-0.024,0.292-0.072c0.081-0.055,0.122-0.131,0.122-0.226S4.348,4.458,4.234,4.413
				C4.171,4.389,4.023,4.344,3.791,4.28C3.645,4.24,3.531,4.202,3.449,4.166S3.302,4.09,3.252,4.046
				C3.138,3.943,3.08,3.802,3.08,3.621c0-0.216,0.09-0.388,0.269-0.514C3.502,3,3.701,2.946,3.945,2.946
				c0.214,0,0.394,0.043,0.538,0.128C4.691,3.196,4.801,3.393,4.812,3.666z"/>
			<path fill="#FFFFFF" d="M6.696,4.726C6.673,4.82,6.63,4.909,6.569,4.992c-0.148,0.202-0.36,0.303-0.637,0.303
				c-0.25,0-0.451-0.079-0.601-0.237C5.257,4.981,5.2,4.888,5.161,4.78C5.119,4.664,5.098,4.543,5.098,4.417
				c0-0.244,0.07-0.449,0.211-0.615c0.157-0.186,0.36-0.278,0.609-0.278c0.201,0,0.372,0.062,0.514,0.186
				c0.102,0.089,0.175,0.199,0.221,0.33s0.069,0.295,0.069,0.493h-1.17c0.004,0.082,0.017,0.15,0.038,0.205
				c0.06,0.147,0.175,0.22,0.345,0.22c0.083,0,0.151-0.018,0.203-0.055C6.19,4.865,6.233,4.807,6.267,4.726H6.696z M6.267,4.232
				C6.259,4.151,6.24,4.084,6.212,4.031C6.183,3.978,6.142,3.937,6.089,3.906C6.037,3.875,5.979,3.86,5.916,3.86
				c-0.099,0-0.181,0.033-0.246,0.1C5.606,4.026,5.567,4.117,5.555,4.232H6.267z"/>
			<path fill="#FFFFFF" d="M7.864,3.566v0.315H7.53V4.67c0,0.094,0.009,0.154,0.026,0.18c0.026,0.037,0.083,0.055,0.172,0.055
				c0.035,0,0.08-0.003,0.135-0.008v0.357c-0.1,0.011-0.193,0.017-0.277,0.017c-0.127,0-0.224-0.014-0.291-0.043
				c-0.104-0.046-0.168-0.13-0.194-0.252c-0.011-0.052-0.017-0.16-0.017-0.325V3.881H6.813V3.566h0.272V3.172H7.53v0.394H7.864z"/>
			<path fill="#FFFFFF" d="M9.059,3.566v0.315H8.725V4.67c0,0.094,0.009,0.154,0.026,0.18c0.026,0.037,0.083,0.055,0.172,0.055
				c0.035,0,0.08-0.003,0.135-0.008v0.357c-0.1,0.011-0.193,0.017-0.277,0.017c-0.127,0-0.224-0.014-0.291-0.043
				c-0.104-0.046-0.168-0.13-0.194-0.252C8.286,4.924,8.28,4.816,8.28,4.652V3.881H8.008V3.566H8.28V3.172h0.445v0.394H9.059z"/>
			<path fill="#FFFFFF" d="M10.065,3.523c0.244,0,0.443,0.081,0.598,0.243c0.153,0.16,0.229,0.373,0.229,0.64
				c0,0.276-0.082,0.496-0.245,0.66c-0.153,0.153-0.352,0.229-0.597,0.229c-0.261,0-0.47-0.085-0.624-0.255
				C9.279,4.877,9.205,4.667,9.205,4.409c0-0.254,0.072-0.461,0.215-0.62C9.579,3.612,9.794,3.523,10.065,3.523z M10.042,3.871
				c-0.118,0-0.212,0.048-0.281,0.143C9.689,4.11,9.654,4.242,9.654,4.409c0,0.173,0.035,0.306,0.105,0.398
				c0.072,0.093,0.17,0.14,0.294,0.14c0.116,0,0.208-0.043,0.275-0.128c0.077-0.094,0.115-0.231,0.115-0.411
				c0-0.168-0.034-0.299-0.102-0.392C10.271,3.919,10.171,3.871,10.042,3.871z"/>
			<path fill="#FFFFFF" d="M12.23,3.541v0.432c-0.072-0.013-0.13-0.02-0.174-0.02c-0.166,0-0.288,0.07-0.366,0.209
				c-0.044,0.078-0.066,0.208-0.066,0.391v0.695h-0.446v-1.68h0.425v0.306c0.121-0.228,0.297-0.341,0.528-0.341
				C12.159,3.534,12.192,3.536,12.23,3.541z"/>
			<path fill="#FFFFFF" d="M13.941,4.726c-0.024,0.094-0.066,0.183-0.128,0.266c-0.148,0.202-0.36,0.303-0.637,0.303
				c-0.25,0-0.451-0.079-0.601-0.237c-0.074-0.077-0.13-0.17-0.169-0.278c-0.042-0.116-0.063-0.237-0.063-0.363
				c0-0.244,0.07-0.449,0.211-0.615c0.157-0.186,0.36-0.278,0.609-0.278c0.201,0,0.372,0.062,0.514,0.186
				c0.102,0.089,0.175,0.199,0.221,0.33s0.069,0.295,0.069,0.493h-1.17c0.004,0.082,0.017,0.15,0.038,0.205
				c0.06,0.147,0.175,0.22,0.345,0.22c0.083,0,0.151-0.018,0.203-0.055c0.052-0.036,0.095-0.095,0.129-0.176H13.941z M13.511,4.232
				c-0.008-0.081-0.027-0.148-0.055-0.201c-0.029-0.052-0.07-0.094-0.122-0.125s-0.11-0.046-0.173-0.046
				c-0.099,0-0.181,0.033-0.246,0.1c-0.065,0.067-0.103,0.157-0.115,0.272H13.511z"/>
		</g>
	</g>
</g>
</svg>
