<svg xmlns="http://www.w3.org/2000/svg" width="24" height="24" version="1.1" viewBox="0 0 24 24">
  <path fill="none" fill-rule="evenodd" stroke="#000" stroke-width="1" d="M2.5,12 C2.5,6.753 6.753,2.5 12,2.5 C17.247,2.5 21.5,6.753 21.5,12 C21.5,17.247 17.247,21.5 12,21.5 C6.753,21.5 2.5,17.247 2.5,12 Z M12,5.123 L12,6.388 M11.2139,7.5664 L11.9999,6.3874 L12.7859,7.5664 M10.7588,5.9736 L11.9998,6.3876 L13.2408,5.9736 M16,6.7666 L16,8.0316 M15.2139,9.21 L15.9999,8.031 L16.7859,9.21 M14.7588,7.6172 L15.9998,8.0312 L17.2408,7.6172 M17.5,10.7354 L17.5,12.0004 M16.7139,13.1787 L17.4999,11.9997 L18.2859,13.1787 M16.2588,11.5859 L17.4998,11.9999 L18.7408,11.5859 M16,14.7041 L16,15.9691 M15.2139,17.1475 L15.9999,15.9685 L16.7859,17.1475 M14.7588,15.5547 L15.9998,15.9687 L17.2408,15.5547 M12,16.3477 L12,17.6127 M11.2139,18.792 L11.9999,17.612 L12.7859,18.792 M10.7588,17.1992 L11.9998,17.6122 L13.2408,17.1992 M8,14.7041 L8,15.9691 M7.2139,17.1475 L7.9999,15.9685 L8.7859,17.1475 M6.7588,15.5547 L7.9998,15.9687 L9.2408,15.5547 M6.5,10.7354 L6.5,12.0004 M5.7139,13.1787 L6.4999,11.9997 L7.2859,13.1787 M5.2588,11.5859 L6.4998,11.9999 L7.7408,11.5859 M8,6.7666 L8,8.0316 M7.2139,9.21 L7.9999,8.031 L8.7859,9.21 M6.7588,7.6172 L7.9998,8.0312 L9.2408,7.6172"/>
</svg>
