<svg width="36" height="36" viewBox="0 0 36 36" fill="none" xmlns="http://www.w3.org/2000/svg"><path fill-rule="evenodd" clip-rule="evenodd" d="M28.5 12.25h-3v1h2.098l-1.25 2H21.39l-.114.342-.405 1.213a3.503 3.503 0 0 0-4.085 2.945H13.25v-1.23l-.175-.15-5.25-4.5-.14-.12H3.25V21a2.75 2.75 0 0 0 5.2 1.25h4.8v-1.5h3.536a3.505 3.505 0 0 0 3.464 3c1.93 0 3.5-1.57 3.5-3.5a3.503 3.503 0 0 0-1.93-3.128l.29-.872h4.228l.735 1.26a3.495 3.495 0 0 0-1.323 2.74c0 1.93 1.569 3.5 3.5 3.5 1.93 0 3.5-1.57 3.5-3.5a3.503 3.503 0 0 0-4.814-3.244l-.727-1.247 1.715-2.744.478-.765H28.5Zm-19.761 9a2.75 2.75 0 0 0-4.489-2.371V14.75h3.065l4.935 4.23v2.27H8.739ZM4.25 21a1.75 1.75 0 1 1 3.5 0 1.75 1.75 0 0 1-3.5 0Zm25.432-1.002-1.234-2.116a2.503 2.503 0 0 1 3.302 2.368c0 1.378-1.122 2.5-2.5 2.5a2.503 2.503 0 0 1-2.5-2.5c0-.74.323-1.405.834-1.863l1.234 2.115.864-.504Zm-8.183-1.913a2.502 2.502 0 0 1 1.251 2.165c0 1.378-1.122 2.5-2.5 2.5a2.505 2.505 0 0 1-2.45-2h2.81l.114-.342.775-2.323ZM17.8 19.75a2.505 2.505 0 0 1 2.75-1.982l-.66 1.982H17.8Zm1.7-5h3v-1h-3v1Z" fill="#000"/></svg>