<svg class="color-immutable" xmlns="http://www.w3.org/2000/svg" width="59" height="20" fill="none" viewBox="0 0 59 20"><path fill="#EB0000" fill-rule="evenodd" d="M2 0a2 2 0 0 0-2 2v16a2 2 0 0 0 2 2h55a2 2 0 0 0 2-2V2a2 2 0 0 0-2-2z" clip-rule="evenodd"/><path fill="#fff" fill-rule="evenodd" d="M18.855 6.511a4.4 4.4 0 0 0-1.11-.498 5.2 5.2 0 0 0-1.473-.183q-1.953 0-3.195 1.28-1.242 1.278-1.242 3.305 0 1.662.927 2.708a3.06 3.06 0 0 0 2.4 1.047c.381.002.76-.048 1.127-.15.444-.14.872-.329 1.275-.564l-.365 2.226q-.232.05-.645.133-.415.083-.82.132a9 9 0 0 1-1.084.05q-2.45 0-3.841-1.445t-1.391-4.02q0-2.975 1.82-4.752 1.822-1.777 4.902-1.777a9.4 9.4 0 0 1 1.697.124q.654.125.894.2t.703.24zM6.62 4.202h2.417L6.603 15.798H4.186zm21.474 0h-6.805l-2.434 11.596h6.888l.397-1.828h-4.57l.68-3.256h4.055l.365-1.827h-4.04l.596-2.857h4.52z" clip-rule="evenodd"/></svg>