<svg xmlns="http://www.w3.org/2000/svg" width="24" height="24" fill="none" viewBox="0 0 24 24"><path fill="#000" fill-rule="evenodd" d="M5 5.5a.5.5 0 1 1 .999 0 .5.5 0 0 1-1 0M5.5 4a1.5 1.5 0 1 0-.001 3 1.5 1.5 0 0 0 0-3m-2 4H3v6h1v6h3v-6h1V8H3.5m1 5H4V9h3v4H6v6H5v-6zM17 19v-3h1v3zm-1 .5V16h-2.163l.182-.638 2-7L16.123 8h2.754l.104.362 2 7 .182.638H19v4h-3zm1-14a.5.5 0 1 1 1 0 .5.5 0 0 1-1 0m.5-1.5a1.5 1.5 0 1 0 0 3 1.5 1.5 0 0 0 0-3m-.623 5-1.714 6h4.674l-1.714-6zM11 4v16h1V4z" clip-rule="evenodd"/></svg>