<svg xmlns="http://www.w3.org/2000/svg" width="48" height="48" fill="none" viewBox="0 0 48 48"><path fill="#000" fill-rule="evenodd" d="m2.646 2.354 9.41 9.41a27.9 27.9 0 0 0-7.977 5.81l.722.692a26.9 26.9 0 0 1 8.006-5.752l3.796 3.796a21.6 21.6 0 0 0-8.176 5.396l.726.688a20.6 20.6 0 0 1 8.233-5.301l4.123 4.123a15.5 15.5 0 0 0-8.732 4.63l.726.688a14.5 14.5 0 0 1 8.892-4.432l5.978 5.978a9.4 9.4 0 0 0-4.363-1.071h-.02a9.42 9.42 0 0 0-6.864 2.969l.729.684.009-.01.01.01A8.42 8.42 0 0 1 24 28.01a8.42 8.42 0 0 1 6.126 2.653l.01-.01.01.01.417-.392 15.084 15.084.707-.708-43-43zm12.52 9.118a26.5 26.5 0 0 1 28.001 6.762l.726-.688a27.5 27.5 0 0 0-29.059-7.018zM24 16a20.4 20.4 0 0 1 14.846 6.393l.728-.686A21.4 21.4 0 0 0 24 15a22 22 0 0 0-4.196.41l.192.98c1.32-.258 2.66-.39 4.004-.39m1.642 5.093a15.4 15.4 0 0 1 9.591 4.744l-.727.686a14.4 14.4 0 0 0-8.968-4.436zM21.5 36.5a2.5 2.5 0 1 1 5 0 2.5 2.5 0 0 1-5 0M24 33a3.5 3.5 0 1 0 0 7 3.5 3.5 0 0 0 0-7" clip-rule="evenodd"/></svg>