<svg xmlns="http://www.w3.org/2000/svg" width="24" height="24" fill="none" viewBox="0 0 24 24"><path fill="#000" fill-rule="evenodd" d="M12 4.008a6 6 0 0 0-6 6v.02c.041 1.039.35 1.913.837 2.723l.007.01 4.75 7.499.422.666.422-.666 4.75-7.5.007-.01.005-.01c.473-.827.791-1.72.8-2.728v-.004a6 6 0 0 0-6-6m-4.308 8.223c-.41-.684-.657-1.392-.692-2.233a5 5 0 0 1 10 .008c-.007.787-.253 1.508-.663 2.23l-4.321 6.822zm3.14.972v-2.466h1.527q.855 0 1.122.115.686.287.686 1.14 0 .756-.509 1.043-.299.168-1.161.168zm0-3.213V7.811h1.583q.669 0 .897.091a.84.84 0 0 1 .423.37q.152.258.152.621 0 .364-.175.637a.86.86 0 0 1-.468.37q-.293.09-.911.09zm1.704-2.983H9.999v7.001h2.93q.711 0 1.147-.254.927-.547.928-1.796 0-.953-.664-1.45a1.7 1.7 0 0 0-.548-.255q.435-.186.684-.584.248-.397.248-.91 0-.483-.227-.893a1.56 1.56 0 0 0-.615-.625q-.422-.234-1.346-.234" clip-rule="evenodd"/></svg>