<svg xmlns="http://www.w3.org/2000/svg" width="24" height="24" fill="none" viewBox="0 0 24 24"><path fill="#000" d="M15 7.009h6V21H3V7.009h6v-3h6zM4 20h16V8.009H4zm6-12.991h4v-2h-4z"/><path fill="#000" d="M12.571 17.565v1.218h-1.266v-1.219zm-.556-7.547q1.189 0 1.892.673.657.622.656 1.635 0 .838-.445 1.442-.199.275-.955 1.013a3 3 0 0 0-.466.536q-.133.215-.184.53-.06.317-.059.821h-.996q.012-.897.158-1.33.106-.317.302-.568.197-.252.87-.944.435-.445.568-.803a1.8 1.8 0 0 0 .112-.62q0-.586-.322-.985-.388-.486-1.143-.486-1.565 0-1.688 1.922H9.31q.041-1.09.426-1.688.36-.55.95-.85a2.9 2.9 0 0 1 1.33-.298"/></svg>