<?xml version="1.0" encoding="utf-8"?>
<!-- Generator: Adobe Illustrator 29.0.0, SVG Export Plug-In . SVG Version: 9.03 Build 54978)  -->
<svg version="1.0" id="Ebene_1" xmlns="http://www.w3.org/2000/svg" xmlns:xlink="http://www.w3.org/1999/xlink" x="0px" y="0px"
	 viewBox="0 0 24 24" enable-background="new 0 0 24 24" xml:space="preserve">
<g id="SVG_x5F_24x24pt">
	<path id="backgroundBlue" fill="#2D327D" d="M0,22.5v-21C0,0.675,0.675,0,1.5,0h21C23.325,0,24,0.675,24,1.5v21
		c0,0.825-0.675,1.5-1.5,1.5h-21C0.675,24,0,23.325,0,22.5z"/>
	<g id="content">
		<g>
			<path fill="#FFFFFF" d="M17.18,11.506h-2.805c-0.055-0.658-0.3-1.161-0.734-1.509c-0.434-0.347-1.041-0.521-1.823-0.521
				c-0.695,0-1.235,0.137-1.62,0.411c-0.385,0.274-0.577,0.657-0.577,1.149c0,0.443,0.185,0.763,0.554,0.96
				c0.357,0.197,1.261,0.474,2.713,0.831c1.532,0.382,2.593,0.766,3.184,1.154c1.089,0.714,1.633,1.707,1.633,2.981
				c0,1.397-0.548,2.498-1.643,3.304c-0.966,0.708-2.273,1.061-3.922,1.061c-1.833,0-3.258-0.418-4.273-1.255
				c-1.015-0.837-1.541-2.027-1.578-3.571h2.935c0.043,0.751,0.237,1.307,0.581,1.67c0.541,0.578,1.357,0.867,2.446,0.867
				c0.738,0,1.323-0.145,1.753-0.434c0.486-0.332,0.729-0.784,0.729-1.357s-0.341-0.99-1.024-1.255
				c-0.375-0.148-1.261-0.415-2.658-0.803c-0.874-0.24-1.557-0.468-2.049-0.683c-0.492-0.215-0.886-0.455-1.181-0.72
				c-0.689-0.615-1.034-1.464-1.034-2.547c0-1.298,0.538-2.326,1.615-3.082C9.32,7.51,10.51,7.187,11.975,7.187
				c1.286,0,2.363,0.255,3.23,0.766C16.453,8.685,17.112,9.869,17.18,11.506z"/>
		</g>
		<g>
			<path fill="#FFFFFF" d="M4.886,3.666H4.418c-0.009-0.11-0.05-0.194-0.122-0.251C4.224,3.357,4.122,3.328,3.992,3.328
				c-0.116,0-0.206,0.023-0.27,0.068S3.626,3.506,3.626,3.588c0,0.074,0.031,0.127,0.092,0.16C3.778,3.78,3.928,3.826,4.17,3.886
				C4.426,3.95,4.603,4.014,4.701,4.078c0.181,0.119,0.272,0.285,0.272,0.497c0,0.233-0.091,0.416-0.274,0.551
				C4.539,5.244,4.321,5.303,4.046,5.303c-0.306,0-0.543-0.07-0.712-0.209C3.165,4.954,3.077,4.755,3.071,4.498H3.56
				c0.007,0.125,0.039,0.218,0.097,0.278c0.09,0.096,0.226,0.145,0.408,0.145c0.123,0,0.22-0.024,0.292-0.072
				c0.081-0.055,0.122-0.131,0.122-0.226S4.421,4.458,4.307,4.414C4.245,4.389,4.097,4.344,3.864,4.28
				C3.719,4.24,3.605,4.202,3.523,4.166S3.375,4.09,3.326,4.046C3.211,3.943,3.154,3.802,3.154,3.621
				c0-0.216,0.09-0.388,0.269-0.514C3.576,3,3.774,2.946,4.018,2.946c0.214,0,0.394,0.043,0.538,0.128
				C4.765,3.196,4.874,3.393,4.886,3.666z"/>
			<path fill="#FFFFFF" d="M6.77,4.726C6.746,4.82,6.704,4.909,6.642,4.992c-0.148,0.202-0.36,0.303-0.637,0.303
				c-0.25,0-0.451-0.079-0.601-0.237C5.33,4.981,5.274,4.888,5.235,4.78C5.193,4.664,5.172,4.543,5.172,4.417
				c0-0.244,0.07-0.449,0.211-0.615c0.157-0.186,0.36-0.278,0.609-0.278c0.201,0,0.372,0.062,0.514,0.186
				c0.102,0.089,0.175,0.199,0.221,0.33s0.069,0.295,0.069,0.493h-1.17c0.004,0.082,0.017,0.15,0.038,0.205
				c0.06,0.147,0.175,0.22,0.345,0.22c0.083,0,0.151-0.018,0.203-0.055c0.052-0.036,0.095-0.095,0.129-0.176H6.77z M6.341,4.232
				C6.333,4.151,6.314,4.084,6.285,4.031C6.257,3.978,6.216,3.937,6.163,3.906C6.11,3.875,6.053,3.86,5.99,3.86
				c-0.099,0-0.181,0.033-0.246,0.1C5.679,4.026,5.641,4.117,5.629,4.232H6.341z"/>
			<path fill="#FFFFFF" d="M8.62,4.604C8.599,4.771,8.543,4.911,8.453,5.023C8.307,5.204,8.101,5.295,7.836,5.295
				c-0.273,0-0.485-0.093-0.637-0.28C7.071,4.856,7.007,4.66,7.007,4.426c0-0.289,0.086-0.517,0.257-0.684
				c0.15-0.146,0.343-0.218,0.58-0.218c0.218,0,0.396,0.057,0.532,0.17C8.512,3.806,8.59,3.961,8.609,4.158H8.171
				C8.155,4.069,8.118,4,8.062,3.951C8.005,3.901,7.934,3.877,7.848,3.877c-0.124,0-0.22,0.047-0.288,0.141
				C7.491,4.111,7.457,4.243,7.457,4.412c0,0.15,0.027,0.27,0.082,0.361c0.067,0.112,0.167,0.168,0.3,0.168
				c0.197,0,0.312-0.112,0.346-0.337H8.62z"/>
			<path fill="#FFFFFF" d="M9.781,3.566v0.315H9.448V4.67c0,0.094,0.009,0.154,0.026,0.18c0.026,0.037,0.083,0.055,0.172,0.055
				c0.035,0,0.08-0.003,0.135-0.008v0.357c-0.1,0.011-0.193,0.017-0.277,0.017c-0.127,0-0.224-0.014-0.291-0.043
				C9.11,5.183,9.046,5.098,9.02,4.976c-0.011-0.052-0.017-0.16-0.017-0.325V3.881H8.731V3.566h0.272V3.172h0.445v0.394H9.781z"/>
			<path fill="#FFFFFF" d="M10.787,3.523c0.244,0,0.443,0.081,0.598,0.243c0.153,0.16,0.229,0.373,0.229,0.64
				c0,0.276-0.082,0.496-0.245,0.66c-0.153,0.153-0.352,0.229-0.597,0.229c-0.261,0-0.47-0.085-0.624-0.255
				c-0.148-0.162-0.221-0.372-0.221-0.631c0-0.254,0.072-0.461,0.215-0.62C10.302,3.612,10.517,3.523,10.787,3.523z M10.764,3.871
				c-0.118,0-0.212,0.048-0.281,0.143c-0.071,0.096-0.106,0.228-0.106,0.395c0,0.173,0.035,0.306,0.105,0.398
				c0.072,0.093,0.17,0.14,0.294,0.14c0.116,0,0.208-0.043,0.275-0.128c0.077-0.094,0.115-0.231,0.115-0.411
				c0-0.168-0.034-0.299-0.102-0.392C10.993,3.919,10.893,3.871,10.764,3.871z"/>
			<path fill="#FFFFFF" d="M12.953,3.541v0.432c-0.072-0.013-0.13-0.02-0.174-0.02c-0.166,0-0.288,0.07-0.366,0.209
				c-0.044,0.078-0.066,0.208-0.066,0.391v0.695h-0.446v-1.68h0.425v0.306c0.121-0.228,0.297-0.341,0.528-0.341
				C12.882,3.534,12.915,3.536,12.953,3.541z"/>
		</g>
	</g>
</g>
</svg>
