<svg xmlns="http://www.w3.org/2000/svg" width="48" height="48" fill="none" viewBox="0 0 48 48"><path fill="#000" fill-rule="evenodd" d="m7.146 16.147 13-13 .708.707c-1.7 1.7-1.504 4.86.707 7.07 2.212 2.213 5.387 2.42 7.086.723l.538-.54.28.71 7.462 18.903C37.737 31.517 38.8 32 40 32a6 6 0 0 1 0 12v-1a5 5 0 0 0 4.584-3H31.5c-1.525 0-2.865-.635-3.856-1.648L7.114 17.82a4.41 4.41 0 0 0 .74 5.325l18.5 18.5.004.005C27.177 42.489 28.265 43 29.5 43H40v1H29.5c-1.525 0-2.865-.635-3.856-1.648L7.146 23.854a5.415 5.415 0 0 1 0-7.707m28.996 15.202C37.133 32.364 38.474 33 40 33V33a5 5 0 0 1 4.9 6H31.5c-1.235 0-2.323-.51-3.142-1.35l-.004-.003L7.71 17.003q.07-.075.144-.15l10.92-10.92c-.275 1.925.473 4.092 2.08 5.699 2.274 2.275 5.688 2.842 7.938 1.202l1.205 3.054-4.18 1.647-.465.183.183.465.733 1.861.183.465.465-.183L31.1 18.68l.734 1.86-4.184 1.648-.465.183.183.465.733 1.861.184.465.465-.183 4.186-1.649.734 1.86-4.187 1.65-.465.183.183.466.733 1.86.183.466.465-.184 4.19-1.65 1.264 3.204.037.093zm-9.494-13.067 3.716-1.464.367.93-3.716 1.464zm1.833 4.652 3.72-1.465.366.93-3.72 1.465zm1.832 4.652 3.723-1.466.367.93-3.723 1.467zM9 29H2v1h7zm-3 5h8v1H6zm13 5h-9v1h9z" clip-rule="evenodd"/></svg>