<svg xmlns="http://www.w3.org/2000/svg" width="36" height="36" version="1.1" viewBox="0 0 36 36">
  <path fill="none" fill-rule="evenodd" stroke="#000" stroke-width="1" d="M6.8859,26.24565 C6.8019,26.48115 6.7479,26.73165 6.7479,26.99565 C6.7479,28.23915 7.7559,29.24565 8.9979,29.24565 C10.2399,29.24565 11.2479,28.23915 11.2479,26.99565 C11.2479,26.73165 11.1939,26.48115 11.1099,26.24565 M24.8859,26.24565 C24.8019,26.48115 24.7479,26.73165 24.7479,26.99565 C24.7479,28.23915 25.7559,29.24565 26.9979,29.24565 C28.2399,29.24565 29.2479,28.23915 29.2479,26.99565 C29.2479,26.73165 29.1939,26.48115 29.1099,26.24565 M2.9982,24.7464 L5.2482,24.7464 M30.7482,24.7464 L32.9982,24.7464 M15.7485,23.247 L27.75,23.247 L27.75,20.247 L15.7485,20.247 L15.7485,23.247 Z M8.2485,17.2455 L27.75,17.2455 L27.75,14.2455 L8.2485,14.2455 L8.2485,17.2455 Z M30.7482,12.74565 C30.7482,11.91765 30.0777,11.24565 29.2482,11.24565 L6.7437,11.24715 C5.9157,11.24715 5.2437,11.91915 5.2437,12.74715 L5.2467,26.24715 L30.7497,26.24715 L30.7497,12.74565 M8.2482,26.24715 L8.2482,20.24715 L12.7482,20.24715 L12.7482,26.24715"/>
</svg>
