<svg xmlns="http://www.w3.org/2000/svg" width="36" height="36" fill="none" viewBox="0 0 36 36"><path fill="#000" fill-rule="evenodd" d="M27.75 9.25H24v1h2.816l-2.334 3.5H20.75v-3H16.5v1h3.25v2h-6.5v-3H9v1h3.25v2.382l-.827 1.654A5.7 5.7 0 0 0 9 15.25 5.756 5.756 0 0 0 3.25 21 5.756 5.756 0 0 0 9 26.75a5.756 5.756 0 0 0 5.745-6h6.51a5.756 5.756 0 0 0 5.745 6A5.756 5.756 0 0 0 32.75 21a5.756 5.756 0 0 0-6.885-5.638l-.538-1.076 2.839-4.259.518-.777zm-8.309 5.5-2.5 5h-2.328a5.76 5.76 0 0 0-2.322-3.463l.768-1.537zM22.25 21q0-.126.006-.25h6.303l-.362-.724-1.865-3.73A4.756 4.756 0 0 1 31.75 21 4.756 4.756 0 0 1 27 25.751 4.756 4.756 0 0 1 22.25 21m4.691-1.25-1.6-3.2a4.77 4.77 0 0 0-2.924 3.2zm-5.554 0a5.77 5.77 0 0 1 3.504-4.1l-.45-.9h-3.882l-2.5 5zm-10.411-3.07A4.7 4.7 0 0 0 9 16.25 4.756 4.756 0 0 0 4.25 21 4.756 4.756 0 0 0 9 25.75a4.756 4.756 0 0 0 4.743-5H8.942l.362-.724zm2.607 3.07H10.56l1.279-2.557a4.77 4.77 0 0 1 1.745 2.557" clip-rule="evenodd"/></svg>