<svg xmlns="http://www.w3.org/2000/svg" width="24" height="24" fill="none" viewBox="0 0 24 24"><path fill="#000" fill-rule="evenodd" d="M3.606 4.104C3.156 4.729 3 5.494 3 6H2c0-.665.195-1.649.794-2.481C3.412 2.661 4.437 2 6 2s2.588.661 3.206 1.519C9.806 4.351 10 5.335 10 6c0 1.708-1.127 2.835-1.63 3.336l-.016.018C7.846 9.86 7 10.728 7 12c0 .33-.095.814-.394 1.23-.318.44-.843.77-1.606.77s-1.288-.33-1.606-.77C3.094 12.814 3 12.33 3 12h1c0 .17.055.436.206.645.132.184.357.355.794.355s.662-.17.794-.355C5.944 12.436 6 12.17 6 12c0-1.708 1.127-2.835 1.63-3.336l.016-.018C8.154 8.14 9 7.272 9 6c0-.505-.155-1.271-.606-1.896C7.962 3.504 7.237 3 6 3s-1.962.504-2.394 1.104m.04 14.542 15-15 .708.708-15 15zM14 18c0-1.106.894-2 2-2s2 .894 2 2-.894 2-2 2-2-.894-2-2m2-1c-.554 0-1 .446-1 1s.446 1 1 1 1-.446 1-1-.446-1-1-1M5.316 5.265c-.142.164-.277.462-.31.994.103.084.232.2.362.34C5.643 6.9 6 7.393 6 8c0 1.106-.894 2-2 2V9c.554 0 1-.446 1-1 0-.223-.143-.478-.368-.722a2.8 2.8 0 0 0-.407-.36l-.004-.003L4 6.767V6.5c0-.815.18-1.452.561-1.89C4.952 4.16 5.483 4 6 4c1.106 0 2 .894 2 2H7c0-.554-.446-1-1-1-.313 0-.532.09-.684.265M16 14c-2.25 0-4.373 1.658-5.755 3.722l-.187.278.187.278C11.627 20.342 13.75 22 16 22c2.24 0 4.372-1.657 5.755-3.722l.187-.278-.187-.278C20.373 15.658 18.25 14 16 14m0 7c-1.684 0-3.447-1.215-4.731-3 1.284-1.785 3.047-3 4.731-3s3.447 1.215 4.731 3c-1.285 1.785-3.056 3-4.731 3" clip-rule="evenodd"/></svg>