<svg xmlns="http://www.w3.org/2000/svg" width="48" height="48" fill="none" viewBox="0 0 48 48"><path fill="#000" fill-rule="evenodd" d="M11 3a3 3 0 0 1-3 3v1a3 3 0 0 1 3 3h1a3 3 0 0 1 3-3V6a3 3 0 0 1-3-3zm1.884 3.605A4 4 0 0 0 11.5 8.062 4 4 0 0 0 9.938 6.5a4 4 0 0 0 1.457-1.384 3.5 3.5 0 0 0 1.489 1.489M16.368 10h-.266l-.149.222-7.368 11-.197.293.211.284 17.5 23.5.402.538.4-.538 17.5-23.5.211-.284-.197-.293-7.368-11-.148-.222H16.368m-.178 1.665L9.937 21h8.995zM9.996 22l15.24 20.466L19.227 22zm17.77 20.465L43.003 22h-9.228zM43.062 21l-6.253-9.334L34.07 21zm-7.1-10h-8.559l5.83 9.293zm-16.197 9.293L25.596 11h-8.56zm6.734-8.852L20.503 21h11.994zM32.733 22l-6.232 21.221L20.268 22zM6 11a2 2 0 0 1-2 2v1a2 2 0 0 1 2 2h1a2 2 0 0 1 2-2v-1a2 2 0 0 1-2-2zm.5 3.341a3 3 0 0 0-.841-.841c.333-.222.62-.508.841-.841.222.333.508.62.841.841-.333.222-.62.508-.841.841" clip-rule="evenodd"/></svg>