<svg class="color-immutable" xmlns="http://www.w3.org/2000/svg" width="59" height="20" fill="none" viewBox="0 0 59 20"><g clip-path="url(#a)"><path stroke="#FFDE15" d="M.5 2A1.5 1.5 0 0 1 2 .5h55A1.5 1.5 0 0 1 58.5 2v16a1.5 1.5 0 0 1-1.5 1.5H2A1.5 1.5 0 0 1 .5 18z"/><path fill="#FFDE15" d="M4.16 4.235h5.6q1.662 0 2.547.522.735.428 1.124 1.14.387.712.387 1.605 0 1.012-.49 1.764-.483.752-1.353 1.076a1.95 1.95 0 0 1 1.203.854q.276.42.371.878.095.459.245 2.097.111 1.202.34 1.495l.111.134h-2.634a2 2 0 0 1-.197-.625q-.056-.38-.15-1.756-.095-1.226-.602-1.693-.498-.474-1.709-.474h-2.27V15.8H4.16zm2.523 1.986V9.4h2.413q1.162 0 1.637-.333.601-.418.601-1.265 0-.824-.514-1.203T9.2 6.22zM24.647 4.235v2.136h-6.154V8.84h5.64v1.986h-5.64v2.84h6.265V15.8H15.97V4.235zM36.251 4.235V15.8h-2.539l-4.84-7.879.03 7.879h-2.428V4.235h2.571l4.81 7.863-.032-7.863zM46.036 13.743V15.8h-8.33q0-.941.301-1.796.31-.855.863-1.47.427-.476.996-.926.578-.451 2.286-1.654.831-.577 1.163-1.075.333-.5.332-1.155 0-.76-.45-1.226-.444-.475-1.171-.475-1.788 0-1.843 2.57H37.96v-.252q0-2.105 1.179-3.26 1.146-1.122 2.966-1.123 1.614 0 2.697.918 1.179.997 1.179 2.682 0 1.47-.941 2.53-.309.349-.578.563-.27.206-1.416 1.004-1.091.76-1.566 1.163a6.4 6.4 0 0 0-.87.925z"/></g><defs><clipPath id="a"><path fill="#fff" d="M0 0h59v20H0z"/></clipPath></defs></svg>