<svg xmlns="http://www.w3.org/2000/svg" width="36" height="36" fill="none" viewBox="0 0 36 36"><path stroke="#000" d="M32.25 18c0 7.956-6.294 14.25-14.25 14.25S3.75 25.956 3.75 18c0-7.958 6.294-14.25 14.25-14.25S32.25 10.042 32.25 18Z" clip-rule="evenodd"/><path fill="#000" d="M21.99 19.88q-.236 1.794-1.31 2.787-1.071.993-2.76.993-2.266 0-3.462-1.635-.958-1.318-.958-3.313 0-2.593 1.38-3.982 1.213-1.23 3.102-1.23 1.705 0 2.734.888 1.028.887 1.221 2.522h-1.59q-.159-.809-.572-1.292-.667-.773-1.801-.773-1.53 0-2.294 1.265-.607 1.002-.607 2.479 0 1.547.615 2.522.765 1.196 2.198 1.196 1.045 0 1.705-.633t.835-1.793z"/></svg>