<svg xmlns="http://www.w3.org/2000/svg" width="24" height="24" version="1.1" viewBox="0 0 24 24">
  <path fill="none" fill-rule="evenodd" stroke="#000" stroke-width="1" d="M4.5906,17.4971 C4.5346,17.6541 4.4986,17.8211 4.4986,17.9971 C4.4986,18.8261 5.1706,19.4971 5.9986,19.4971 C6.8266,19.4971 7.4986,18.8261 7.4986,17.9971 C7.4986,17.8211 7.4626,17.6541 7.4066,17.4971 M16.5906,17.4971 C16.5346,17.6541 16.4986,17.8211 16.4986,17.9971 C16.4986,18.8261 17.1706,19.4971 17.9986,19.4971 C18.8266,19.4971 19.4986,18.8261 19.4986,17.9971 C19.4986,17.8211 19.4626,17.6541 19.4066,17.4971 M1.9988,16.4976 L3.4988,16.4976 M20.4988,16.4976 L21.9988,16.4976 M10.499,15.498 L18.5,15.498 L18.5,13.498 L10.499,13.498 L10.499,15.498 Z M5.499,11.497 L18.5,11.497 L18.5,9.497 L5.499,9.497 L5.499,11.497 Z M20.4988,8.4971 C20.4988,7.9451 20.0518,7.4971 19.4988,7.4971 L4.4958,7.4981 C3.9438,7.4981 3.4958,7.9461 3.4958,8.4981 L3.4978,17.4981 L20.4998,17.4981 L20.4998,8.4971 M5.4988,17.4981 L5.4988,13.4981 L8.4988,13.4981 L8.4988,17.4981"/>
</svg>
