<svg xmlns="http://www.w3.org/2000/svg" width="16" height="16" fill="none" viewBox="0 0 16 16"><path fill="#000" fill-rule="evenodd" d="M3.301 2.301c-.17.17-.301.475-.301 1.032V7h10V3.333c0-.557-.13-.861-.301-1.032-.17-.17-.475-.301-1.032-.301H4.333c-.557 0-.861.13-1.032.301M2 3.333V5H1v2h1v6h1v2h3v-2h4v2h3v-2h1V7h1V5h-1V3.333c0-.693-.16-1.306-.594-1.739S12.36 1 11.666 1H4.334c-.693 0-1.306.16-1.739.594S2 2.64 2 3.334M4 14v-1h1v1zm7 0v-1h1v1zm2-6H3v4h10zm-2-5H5v1h6zM5 9a1 1 0 1 0 .002 2.002A1 1 0 0 0 5 9m5 1a1 1 0 1 1 2.002.002A1 1 0 0 1 10 10" clip-rule="evenodd"/></svg>