<svg xmlns="http://www.w3.org/2000/svg" width="36" height="36" fill="none" viewBox="0 0 36 36"><path fill="#000" fill-rule="evenodd" d="M5.75 18c0-6.844 5.407-12.25 12.25-12.25S30.25 11.156 30.25 18c0 6.843-5.407 12.25-12.25 12.25S5.75 24.843 5.75 18M18 4.75C10.605 4.75 4.75 10.604 4.75 18c0 7.395 5.855 13.25 13.25 13.25S31.25 25.395 31.25 18c0-7.396-5.855-13.25-13.25-13.25m-7.29 17.197c1.22 2.83 3.975 4.803 7.29 4.803s6.07-1.973 7.288-4.803l-.918-.395c-1.068 2.48-3.47 4.198-6.37 4.198-2.898 0-5.303-1.718-6.37-4.198zm1.54-8.447a1.25 1.25 0 1 1 2.5 0 1.25 1.25 0 0 1-2.5 0m1.25-.25a.25.25 0 1 0 0 .5.25.25 0 0 0 0-.5m9-1a1.25 1.25 0 1 0 0 2.5 1.25 1.25 0 0 0 0-2.5m-.25 1.25a.25.25 0 1 1 .5 0 .25.25 0 0 1-.5 0" clip-rule="evenodd"/></svg>