<svg class="color-immutable" xmlns="http://www.w3.org/2000/svg" width="16" height="16" fill="none" viewBox="0 0 16 16"><rect width="16" height="16" fill="#EB0000" rx="2"/><path fill="#fff" fill-rule="evenodd" d="M8.68 10.655a2.7 2.7 0 0 1-.68.095 2.7 2.7 0 0 1-.791-.13A2.74 2.74 0 0 1 5.249 8c0-.236.04-.461.096-.68l1.864 1.864zl.03-.008v.038zm2.39.269-1.06-1.06-1.301-1.301-1.5-1.5L6.137 5.99l-1.06-1.06-2.411-2.41-1.06 1.06 2.58 2.58A4.2 4.2 0 0 0 3.75 8a4.25 4.25 0 0 0 3.459 4.17V16h1.5v-3.821c.4-.068.777-.193 1.13-.365l3.08 3.08 1.06-1.06z" clip-rule="evenodd"/><path fill="#fff" fill-rule="evenodd" d="m8.68 10.655.029.029v-.038zM8 5.25c.247 0 .481.043.709.104A2.746 2.746 0 0 1 10.75 8c0 .152-.019.3-.044.445l1.202 1.202A4.2 4.2 0 0 0 12.25 8c0-2.101-1.535-3.838-3.541-4.178V0h-1.5v3.83a4 4 0 0 0-.849.268l1.197 1.198c.144-.028.291-.046.443-.046" clip-rule="evenodd"/></svg>