<svg xmlns="http://www.w3.org/2000/svg" width="48" height="48" fill="none" viewBox="0 0 48 48"><path fill="#000" fill-rule="evenodd" d="M16 8c-1.227 0-2.668.487-3.63 1.28-.778.642-1.24 1.578-1.51 2.576-.27 1-.36 2.107-.36 3.146 0 1.573.459 3.04 1.252 4.18-2.31 1.505-4.172 3.986-5.487 6.789C4.857 28.972 4.05 32.39 4 35.49l-.008.51h8.76a25 25 0 0 0-.253 3.5v.5h23v-.5c0-1.142-.08-2.32-.243-3.501H44v-.5c0-3.02-.802-6.367-2.244-9.328a20 20 0 0 0-2.005-3.294q.66-.115 1.103-.229a3.6 3.6 0 0 0 .574-.193c.156-.071.33-.175.454-.34a.76.76 0 0 0 .134-.637 1.2 1.2 0 0 0-.255-.483c-.207-.258-.544-.551-.942-.881-.76-.63-1.601-1.62-2.25-2.682-.657-1.075-1.069-2.142-1.069-2.933h-.016c-.206-3.295-2.427-6.002-5.484-6.002-2.682 0-4.707 2.1-5.3 4.829a4.84 4.84 0 0 0-2.7-.829c-.992 0-1.894.301-2.67.808-.085-.599-.204-1.221-.379-1.803-.261-.867-.669-1.719-1.35-2.251C18.656 8.516 17.266 8 16 8m21.225 9.07a6.8 6.8 0 0 1-1.133 2.327c1.078.695 2.061 1.578 2.939 2.59.695-.116 1.208-.211 1.571-.305q.218-.058.34-.106c-.14-.161-.386-.38-.761-.691-.86-.713-1.77-1.792-2.465-2.93a12 12 0 0 1-.49-.885M21.28 14.612c-.476.438-.879.99-1.18 1.627l1.325-.696h.002a1.17 1.17 0 0 1 1.225.087c.418.3 1.255.801 2.272 1.02.905.195 1.94.165 2.973-.422a5.3 5.3 0 0 0-1.174-1.616c-.757-.698-1.686-1.114-2.722-1.114s-1.965.416-2.721 1.114m6.972 2.562c-1.24.658-2.485.68-3.538.454-1.199-.258-2.162-.84-2.646-1.186l-.001-.002a.17.17 0 0 0-.177-.011l-2.247 1.18a6.8 6.8 0 0 0-.142 1.393c0 .172.018.33.038.517l.02.186C19.84 22.425 21.71 24.5 24 24.5c2.273 0 4.121-2.062 4.437-4.746l.005-.049.018-.172c.022-.193.04-.356.04-.531 0-.646-.088-1.26-.249-1.828m-9.547 3.498c-.783.52-1.698.83-2.704.83-1.422 0-2.664-.586-3.605-1.544-2.148 1.362-3.939 3.697-5.225 6.438C5.896 29.11 5.138 32.183 5.015 35h7.9c.32-1.756.826-3.493 1.511-5.106 1.197-2.819 2.959-5.3 5.28-6.846a7.1 7.1 0 0 1-1.002-2.376m-6.878-8.555c.24-.888.621-1.605 1.18-2.065l5.979-.012c.438.342.768.954 1.009 1.751.127.423.223.877.297 1.335a8 8 0 0 1-.559-.582 14 14 0 0 1-.875-1.111l-.013-.018-.003-.004v-.001l-.027-.038-.032-.032a1.44 1.44 0 0 0-1.45-.355c-1.087.356-2.141.16-2.737-.019a1.44 1.44 0 0 0-1.432.363l-.048.047-.033.058v.001l-.003.004-.01.017-.041.069a9.365 9.365 0 0 1-.72 1.022 4.7 4.7 0 0 1-.705.72c.051-.398.124-.785.223-1.15m6.674 6.885c0-1.847.63-3.508 1.68-4.696a3 3 0 0 1-.326-.235 7.5 7.5 0 0 1-.874-.868 16 16 0 0 1-.928-1.176.43.43 0 0 0-.408-.092l-.156-.475.156.475c-1.364.447-2.648.196-3.337-.011h-.001a.44.44 0 0 0-.4.08l-.024.041a11 11 0 0 1-.799 1.134c-.252.31-.555.637-.883.89-.2.155-.433.301-.69.39q-.01.27-.01.543c0 3.153 2.013 5.5 4.5 5.5.953 0 1.814-.351 2.536-.95a5 5 0 0 1-.036-.55M16 9c-1.008 0-2.22.415-2.994 1.052l5.979-.012C18.208 9.434 17.032 9 16 9m12.288 14.042a7.2 7.2 0 0 0 1.004-2.373c.784.522 1.7.833 2.708.833 1.326 0 2.495-.509 3.41-1.354 2.26 1.41 4.127 3.752 5.447 6.462 1.301 2.672 2.053 5.664 2.135 8.39H35.1a24 24 0 0 0-1.448-5.014c-1.178-2.832-2.946-5.35-5.363-6.944m1.212-4.04c0-1.736-.558-3.308-1.496-4.477.555-.118 1.066-.404 1.498-.656l.265-.156c.288-.17.554-.328.824-.457.346-.166.642-.256.909-.256.051 0 .136.02.273.108.14.09.298.228.491.417q.147.146.32.323c.312.32.685.703 1.101 1.04.59.478 1.273.852 1.857 1.117.304.137.59.25.832.333-.477 2.457-2.253 4.164-4.374 4.164-.953 0-1.814-.351-2.535-.95.018-.17.035-.359.035-.55m7-4q0 .16-.007.316a9 9 0 0 1-.538-.224c-.536-.243-1.139-.576-1.64-.982-.368-.299-.674-.613-.974-.92q-.187-.194-.377-.38c-.204-.2-.42-.397-.648-.544S31.813 12 31.5 12c-.483 0-.937.16-1.341.354-.314.15-.631.338-.926.513l-.235.139c-.527.307-.951.514-1.328.563.506-2.41 2.24-4.071 4.33-4.071 2.487 0 4.5 2.35 4.5 5.504M24 25.5c.578 0 1.124-.101 1.632-.286l-1.047 1.546-.163.242.13.262.889 1.776L24 31.922l-1.441-2.882.888-1.776.13-.262-.163-.242-1.045-1.544a4.8 4.8 0 0 0 1.63.284M13 28h-2v-1h-1v1H9v1h4zm12.578-.922 2.165-3.198c2.2 1.454 3.858 3.781 4.985 6.49 1.126 2.71 1.706 5.768 1.766 8.63H13.505c.064-2.916.69-6.003 1.842-8.715 1.148-2.704 2.804-5 4.91-6.404l2.165 3.197-.87 1.739-.111.223.111.224 2 4 .448.894.447-.894 2-4 .112-.224-.112-.223z" clip-rule="evenodd"/></svg>