<svg class="color-immutable" xmlns="http://www.w3.org/2000/svg" width="59" height="20" fill="none" viewBox="0 0 59 20"><path fill="#000" d="M1.792 0h55.416C58.197 0 59 .806 59 1.8v16.4c0 .994-.801 1.8-1.792 1.8H1.792A1.797 1.797 0 0 1 0 18.2V1.8C0 .806.803 0 1.792 0"/><path fill="#FFDE15" d="M12.8 7.661h-2.405q-.07-.846-.633-1.289-.553-.45-1.558-.45-.894 0-1.392.355-.49.349-.49.981 0 .57.474.823.459.252 2.326.712 1.97.49 2.729.988 1.4.918 1.4 2.555 0 1.796-1.408 2.832-1.242.91-3.362.91-2.357 0-3.662-1.076t-1.353-3.061h2.515q.055.964.499 1.432.696.743 2.096.743.95 0 1.503-.372.624-.427.625-1.162 0-.736-.878-1.076-.483-.19-2.278-.688-1.125-.309-1.756-.586-.633-.276-1.013-.617-.886-.79-.886-2.183 0-1.669 1.384-2.642 1.18-.83 3.062-.83 1.653 0 2.768.656 1.606.942 1.693 3.045M24.515 4.236v11.565h-2.54l-4.84-7.879.031 7.879h-2.428V4.236h2.57l4.81 7.863-.031-7.863zM26.168 12.898h2.183q.27 1.345 1.559 1.345.728 0 1.178-.49.459-.5.704-1.543.159-.665.23-1.511-.53.744-1.092 1.06-.554.308-1.353.308-1.273 0-2.214-.743a3.54 3.54 0 0 1-1.029-1.353 4.4 4.4 0 0 1-.364-1.803q0-1.955 1.337-3.164 1.147-1.044 2.753-1.045.99 0 1.827.443a3.96 3.96 0 0 1 1.408 1.258Q34.3 7.107 34.3 9.726q0 2.42-.886 4.13-1.156 2.221-3.496 2.222-1.56 0-2.58-.862-1.011-.863-1.17-2.318m3.845-6.985q-.744 0-1.258.61-.514.616-.514 1.566 0 .767.371 1.36.507.815 1.424.815.83 0 1.33-.665.465-.624.466-1.487 0-.909-.483-1.542a1.6 1.6 0 0 0-1.337-.657M39.204 3.96q1.32 0 2.326.806.997.807 1.447 2.484.34 1.282.34 2.784 0 2.492-.886 4.098-.522.933-1.368 1.44a3.56 3.56 0 0 1-1.875.506q-1.416 0-2.42-.854-1.788-1.52-1.788-5.19 0-2.61.934-4.192a3.77 3.77 0 0 1 1.384-1.392 3.8 3.8 0 0 1 1.906-.49m-.087 1.953q-1.14 0-1.55 1.313-.325 1.044-.325 2.927 0 1.662.333 2.666.426 1.305 1.582 1.305.956 0 1.424-1.013.465-1.012.466-3.092 0-1.772-.332-2.793-.428-1.313-1.598-1.313"/></svg>