<svg xmlns="http://www.w3.org/2000/svg" width="48" height="48" version="1.1" viewBox="0 0 48 48">
  <path fill="none" fill-rule="evenodd" stroke="#000" stroke-width="1" d="M44,21.5 L9,21.5 M16.3687,10.5 L26.5007,44.996 M36.6318,10.5 L26.5008,44.996 M26.501,45 L44,21.5 L36.632,10.5 L16.369,10.5 L9,21.5 L26.501,45 Z M19.5996,21.5 L26.4996,10.5 L33.4016,21.5 M6.5,11 C6.5,12.381 5.381,13.5 4,13.5 C5.381,13.5 6.5,14.619 6.5,16 C6.5,14.619 7.619,13.5 9,13.5 C7.619,13.5 6.5,12.381 6.5,11 Z M11.5,3 C11.5,4.933 9.933,6.5 8,6.5 C9.933,6.5 11.5,8.067 11.5,10 C11.5,8.067 13.067,6.5 15,6.5 C13.067,6.5 11.5,4.933 11.5,3 Z"/>
</svg>
