<svg class="color-immutable" xmlns="http://www.w3.org/2000/svg" width="59" height="20" fill="none" viewBox="0 0 59 20"><g clip-path="url(#a)"><path fill="#EB0000" fill-rule="evenodd" d="M2 0a2 2 0 0 0-2 2v16a2 2 0 0 0 2 2h55a2 2 0 0 0 2-2V2a2 2 0 0 0-2-2z" clip-rule="evenodd"/><path fill="#fff" d="M9.22 4.2h4.057L8.259 15.8H4.186zM15.948 4.2h14.395l-1.49 3.445h-10.28l-2.042 4.71h10.285l-1.49 3.445H10.93zM36.538 12.896h2.183q.27 1.344 1.558 1.344.727 0 1.179-.49.459-.498.704-1.543a10 10 0 0 0 .23-1.51q-.531.743-1.092 1.06-.554.308-1.353.308-1.273 0-2.215-.744a3.54 3.54 0 0 1-1.028-1.352 4.4 4.4 0 0 1-.364-1.804q0-1.953 1.337-3.164 1.147-1.044 2.753-1.044.989 0 1.827.443a3.96 3.96 0 0 1 1.408 1.258q1.005 1.447 1.005 4.066 0 2.42-.887 4.129-1.155 2.222-3.496 2.222-1.558 0-2.578-.862-1.014-.862-1.171-2.317m3.844-6.985q-.743 0-1.258.609-.514.616-.514 1.566 0 .768.372 1.36.507.816 1.424.815.831 0 1.329-.664.466-.625.467-1.487 0-.91-.483-1.543a1.6 1.6 0 0 0-1.337-.656M49.574 3.957q1.32 0 2.325.807.997.807 1.448 2.484.34 1.281.34 2.784 0 2.492-.886 4.098-.522.933-1.368 1.44a3.56 3.56 0 0 1-1.875.505q-1.416 0-2.42-.854-1.788-1.518-1.788-5.189 0-2.61.933-4.192a3.77 3.77 0 0 1 1.384-1.393 3.8 3.8 0 0 1 1.907-.49m-.087 1.954q-1.14 0-1.55 1.313-.325 1.044-.325 2.927 0 1.661.332 2.665.427 1.305 1.582 1.306.957 0 1.424-1.013t.467-3.093q0-1.772-.332-2.792-.428-1.313-1.598-1.313"/></g><defs><clipPath id="a"><path fill="#fff" d="M0 0h59v20H0z"/></clipPath></defs></svg>