<svg xmlns="http://www.w3.org/2000/svg" width="36" height="36" fill="none" viewBox="0 0 36 36"><path fill="#000" fill-rule="evenodd" d="M7.762 10.297q.236-.047.488-.048h.488v-1H8.25q-.35 0-.683.067zm1.95-.048h.976v-1h-.976zm1.95 0h.975v-1h-.975zm1.95 0h.976v-1h-.975zm1.95 0h.976v-1h-.976zm1.95 0h.976v-1h-.976zm1.95 0h.976v-1h-.976zm1.95 0h.976v-1h-.976zm1.95 0h.976v-1h-.976zm1.95 0h.976v-1h-.976zm1.95 0h.488q.251 0 .488.048l.195-.98a3.5 3.5 0 0 0-.683-.067h-.488zM6.171 11.362c.183-.273.418-.508.69-.69l-.556-.831a3.5 3.5 0 0 0-.965.965zm22.967-.69c.273.182.508.417.691.69l.83-.556a3.5 3.5 0 0 0-.964-.965zM5.75 12.75q0-.252.048-.489l-.981-.194q-.067.333-.067.682v.525h1zm24.452-.489q.048.237.048.489v.524h1v-.524q0-.351-.067-.683zM5.75 15.375v-1.05h-1v1.05zm24.5-1.05v1.05h1v-1.05zm0 2.1v1.05h1v-1.05zm-24.5 1.05v-1.05h-1v1.05zm24.5 1.05v1.05h1v-1.05zm-24.5 1.05v-1.05h-1v1.05zm0 2.1v-1.05h-1v1.05zm24.5-1.05v1.05h1v-1.05zM5.75 23.25v-.526h-1v.526q0 .35.067.682l.98-.194a2.5 2.5 0 0 1-.047-.488m24.5-.526v.526q0 .25-.048.488l.981.194q.067-.333.067-.682v-.526zM6.862 25.329a2.5 2.5 0 0 1-.691-.69l-.83.556c.255.382.583.71.964.965zm22.967-.69a2.5 2.5 0 0 1-.69.69l.556.831c.381-.255.71-.583.965-.965zM8.25 25.749q-.252 0-.488-.047l-.195.98q.333.068.683.068h.488v-1zm19.988-.047q-.236.047-.488.047h-.488v1h.488q.35 0 .683-.066zm-17.55.047h-.976v1h.976zm1.95 0h-.976v1h.975zm1.95 0h-.975v1h.975zm1.95 0h-.976v1h.976zm1.95 1v-1h-.976v1zm1.95-1h-.976v1h.976zm1.95 0h-.976v1h.976zm1.95 0h-.976v1h.976zm1.95 0h-.976v1h.976zM25.25 15.252v-1.75h-1v1.75H22.5v1h1.75v1.75h1v-1.75H27v-1zM15 16.25H9v-1h6zm-6 3h9v-1H9zm7.5 3H9v-1h7.5z" clip-rule="evenodd"/></svg>