<svg xmlns="http://www.w3.org/2000/svg" width="36" height="36" fill="none" viewBox="0 0 36 36"><path fill="#000" fill-rule="evenodd" d="M30.544 3.002H27.12v7.496h.99v-3.25h1.973q.85 0 1.205.23.507.328.569 1.543.04.846.077 1.082a.94.94 0 0 0 .149.395h1.133l-.093-.108q-.205-.225-.292-1.19-.097-1.06-.144-1.291a1.4 1.4 0 0 0-.215-.492q-.282-.425-.825-.539.626-.21.953-.681.329-.473.328-1.154 0-.56-.235-1a1.8 1.8 0 0 0-.672-.712q-.533-.33-1.477-.329M28.11 6.448V3.864h2.133q.533 0 .836.082.302.077.507.266.35.334.349.918 0 .765-.554 1.087a1.5 1.5 0 0 1-.528.18 6 6 0 0 1-.877.05zM19.5 9.249h6.184l-.518.778-2.846 4.268 1.265 2.783a5.756 5.756 0 0 1 7.666 5.422 5.756 5.756 0 0 1-5.75 5.75 5.755 5.755 0 0 1-5.75-5.75 5.75 5.75 0 0 1 2.925-5.007l-1.248-2.744H13.85l-.923 2.539A5.76 5.76 0 0 1 16.25 22.5a5.756 5.756 0 0 1-5.75 5.75 5.756 5.756 0 0 1-5.75-5.75 5.756 5.756 0 0 1 7.238-5.555l1.042-2.867.12-.329h8.332l2.334-3.5H19.5zm3.592 9.159a4.75 4.75 0 0 0-2.34 4.092c0 2.619 2.13 4.75 4.75 4.75a4.756 4.756 0 0 0 4.75-4.75 4.756 4.756 0 0 0-6.25-4.507l1.955 4.3-.91.413zm-13.062 3.92 1.614-4.439A4.756 4.756 0 0 0 5.75 22.5a4.756 4.756 0 0 0 4.75 4.751 4.756 4.756 0 0 0 4.75-4.75 4.76 4.76 0 0 0-2.666-4.268L10.97 22.67zM15 11.75h-4.187v-1H15z" clip-rule="evenodd"/></svg>