<svg class="color-immutable" xmlns="http://www.w3.org/2000/svg" width="59" height="20" fill="none" viewBox="0 0 59 20"><g fill="#EB0000" clip-path="url(#a)"><path d="M57.208 1c.439 0 .795.358.795.8v16.4c0 .442-.356.8-.795.8H1.792a.8.8 0 0 1-.795-.8V1.8c0-.442.356-.8.795-.8zm0-1H1.792C.803 0 0 .806 0 1.8v16.4c0 .994.803 1.8 1.792 1.8h55.416c.99 0 1.792-.806 1.792-1.8V1.8c0-.994-.803-1.8-1.792-1.8"/><path d="M4.16 4.234h5.6q1.662 0 2.547.522.735.427 1.124 1.139.387.712.387 1.606 0 1.013-.49 1.764-.483.751-1.353 1.076a1.95 1.95 0 0 1 1.203.854q.276.42.371.878t.245 2.096q.111 1.203.34 1.495l.111.135h-2.634a2 2 0 0 1-.197-.625q-.056-.38-.15-1.756-.095-1.227-.602-1.693-.498-.475-1.709-.475h-2.27V15.8H4.16zm2.523 1.985V9.4h2.413q1.162 0 1.637-.332.601-.42.601-1.266 0-.822-.514-1.202T9.2 6.219zM24.647 4.234V6.37h-6.154v2.468h5.64v1.985h-5.64v2.84h6.265v2.136H15.97V4.234zM25.945 7.896q.039-1.423.703-2.389 1.076-1.55 3.236-1.55 1.66 0 2.681.846 1.1.918 1.1 2.373 0 .87-.435 1.503a2.1 2.1 0 0 1-1.163.847q.934.213 1.471.949.546.736.546 1.78 0 1.716-1.266 2.808-1.17 1.012-2.958 1.012-1.938 0-3.077-1.115-1.131-1.115-1.131-3.014v-.15h2.223q0 1.068.506 1.653.506.578 1.432.578t1.423-.546a1.78 1.78 0 0 0 .46-1.226q0-.854-.586-1.353-.483-.411-1.487-.411-.285 0-.562.032V8.822q.206.015.396.016 1.992 0 1.993-1.48 0-.648-.435-1.044-.435-.403-1.147-.403-.814 0-1.258.506-.443.506-.474 1.48zM36.726 9.59q-.807-.279-1.242-.91-.427-.633-.427-1.535 0-1.503 1.234-2.397 1.092-.79 2.595-.791 1.709 0 2.792.941 1.028.886 1.028 2.191 0 .91-.435 1.559t-1.234.941q.625.182 1.02.467 1.1.798 1.1 2.333 0 1.764-1.353 2.808-1.139.878-2.926.878-1.938 0-3.085-.965-1.195-1.004-1.195-2.634 0-1.527 1.06-2.365a2.9 2.9 0 0 1 1.068-.522m2.128-3.837q-.76 0-1.226.427-.467.42-.467 1.107 0 .72.467 1.155.474.427 1.265.427t1.25-.427.459-1.163q0-.72-.467-1.123-.459-.403-1.281-.403m-.016 4.706q-.854 0-1.4.53-.538.522-.538 1.345 0 .846.546 1.376.553.53 1.432.53.996 0 1.495-.585.482-.562.482-1.297 0-.84-.554-1.377-.529-.522-1.463-.522"/></g><defs><clipPath id="a"><path fill="#fff" d="M0 0h59v20H0z"/></clipPath></defs></svg>