<svg xmlns="http://www.w3.org/2000/svg" width="36" height="36" version="1.1" viewBox="0 0 36 36">
  <path fill="none" fill-rule="evenodd" stroke="#000" stroke-width="1" d="M6.75,27.74955 L6.75,8.24955 C6.75,6.59355 8.094,5.24955 9.75,5.24955 L29.25,5.24955 L29.25,24.75255 L9.75,24.75255 C8.094,24.75255 6.75,26.09355 6.75,27.74955 C6.75,29.40555 8.094,30.75255 9.75,30.75255 L30,30.74955 M10.5,27.74955 L30,27.74955 M20.25,15.0003 C20.25,16.2423 19.2435,17.2503 18,17.2503 C16.7565,17.2503 15.75,16.2423 15.75,15.0003 C15.75,13.7568 16.7565,12.7503 18,12.7503 C19.2435,12.7503 20.25,13.7568 20.25,15.0003 Z M18,12.7503 C16.7565,12.7503 15.75,11.7423 15.75,10.5003 C15.75,9.2568 16.7565,8.2503 18,8.2503 C19.2435,8.2503 20.25,9.2568 20.25,10.5003 M18,17.2503 C19.2435,17.2503 20.25,18.2568 20.25,19.5003 C20.25,20.7438 19.2435,21.7503 18,21.7503 C16.7565,21.7503 15.75,20.7438 15.75,19.5003"/>
</svg>
