<svg class="color-immutable" xmlns="http://www.w3.org/2000/svg" width="59" height="20" fill="none" viewBox="0 0 59 20"><path fill="#EB0000" fill-rule="evenodd" d="M2 0a2 2 0 0 0-2 2v16a2 2 0 0 0 2 2h55a2 2 0 0 0 2-2V2a2 2 0 0 0-2-2z" clip-rule="evenodd"/><path fill="#fff" d="M42.292 4.235V15.8H39.99V8.23h-2.712V6.553a5.8 5.8 0 0 0 1.376-.174c.353-.1.683-.266.974-.49q.638-.49.859-1.654zM53.069 4.235v2.057h-4.643l-.497 2.603a2.8 2.8 0 0 1 2.136-.886 3.68 3.68 0 0 1 2.224.688q1.403 1.035 1.403 3.148 0 2.073-1.498 3.283a4.28 4.28 0 0 1-2.79.949q-1.83 0-2.941-.985-1.112-.985-1.175-2.662h2.263a1.9 1.9 0 0 0 .394 1.037 1.917 1.917 0 0 0 2.9.015c.348-.443.53-.994.513-1.558.03-.58-.162-1.15-.536-1.594a1.82 1.82 0 0 0-1.427-.597 1.9 1.9 0 0 0-1.695.98l-2.057-.03 1.096-6.448zM9.22 4.2h4.056L8.258 15.8H4.185zM25.98 12.366a.93.93 0 0 0 .847-.553L30.119 4.2H15.984l-5.018 11.6h4.038l3.8-8.69h5.993l-1.201 2.775-5.226-.019 4.217 5.934h4.597l-3.124-3.434z"/></svg>