<svg xmlns="http://www.w3.org/2000/svg" width="36" height="36" fill="none" viewBox="0 0 36 36"><path fill="#000" fill-rule="evenodd" d="M7.75 3.25h20.5v29.5H7.75V3.25m1 1v27.5h18.5V4.25zM24 23.75H12v-1h12zm-12 3h12v-1H12zm6.053-9.206c-.034-.037-.147-.216-.219-.992-.065-.71-.108-1.093-.137-1.243a1.5 1.5 0 0 0-.238-.541 1.35 1.35 0 0 0-.404-.401c.206-.13.384-.299.523-.498.24-.36.362-.784.35-1.216a2.24 2.24 0 0 0-.246-1.049 1.97 1.97 0 0 0-.716-.757 2.9 2.9 0 0 0-1.512-.344H12v7.518h1.384v-3.065h1.636c.348-.032.699.03 1.014.181.25.162.4.604.434 1.278.027.569.051.89.074 1.04.023.167.083.327.176.469l.068.097h1.681zm-1.928-3.977q-.195.11-.418.14a5 5 0 0 1-.789.045h-1.534v-1.986h1.786q.369-.01.73.067c.142.034.272.103.38.199a.92.92 0 0 1 .26.703.87.87 0 0 1-.415.832m5.291 2.567 1.887-5.631h1.473l-2.689 7.517h-1.38l-.054-.149-2.631-7.368h1.516z" clip-rule="evenodd"/></svg>