<svg class="color-immutable" xmlns="http://www.w3.org/2000/svg" width="59" height="20" fill="none" viewBox="0 0 59 20"><path fill="#EB0000" fill-rule="evenodd" d="M2 0a2 2 0 0 0-2 2v16a2 2 0 0 0 2 2h55a2 2 0 0 0 2-2V2a2 2 0 0 0-2-2z" clip-rule="evenodd"/><path fill="#fff" d="M9.251 4.2h4.07L8.286 15.8H4.2zM26.069 12.366c.367 0 .7-.217.849-.553L30.22 4.2H16.038l-5.035 11.6h4.052l3.812-8.69h6.014l-1.205 2.775-5.244-.019 4.231 5.934h4.613l-3.134-3.434zM44.929 11.203v1.954h-1.455v2.642h-2.255v-2.642h-4.825V10.99l4.944-6.755h2.136v6.968zm-3.662.024V6.924l-2.974 4.303zM53.55 4.235v1.961q-.094.103-.56.641-.65.744-1.29 1.87-.641 1.128-.997 2.164-.75 2.16-.91 4.928h-2.388q.024-1.305.455-2.895.43-1.59 1.19-3.18 1.084-2.246 2.2-3.346H45.79V4.235z"/></svg>