<svg xmlns="http://www.w3.org/2000/svg" width="36" height="36" fill="none" viewBox="0 0 36 36"><path fill="#000" fill-rule="evenodd" d="M18.158 3.276 18 3.223l-.158.053-13.5 4.5-.389.13.05.406 2.25 18 .033.257.229.122 11.25 6 .235.126.235-.126 11.25-6 .229-.122.032-.257.002-.018.001-.001.032-.252 2.215-17.635-.011-.001.011-.093.05-.407-.388-.13zM28.82 25.665l2.134-17.07L18.5 4.444V9h-1V4.444L5.047 8.594l2.167 17.337L17.5 31.417V21.75h1v9.62zM18 11.057l.424.678 7.5 12-.848.53L22.41 20h-8.82l-2.666 4.265-.848-.53 7.5-12zM14.215 19 18 12.943 21.785 19z" clip-rule="evenodd"/></svg>