<svg xmlns="http://www.w3.org/2000/svg" width="24" height="24" viewBox="0 0 24 24">
  <path fill="none" stroke="#000" d="M7.5,16.5 L7.5,19.5 L4.5,19.5 L4.5,16.5 L7.5,16.5 Z M13.5,16.5 L13.5,19.5 L10.5,19.5 L10.5,16.5 L13.5,16.5 Z M19.5,16.5 L19.5,19.5 L16.5,19.5 L16.5,16.5 L19.5,16.5 Z M7.5,10.5 L7.5,13.5 L4.5,13.5 L4.5,10.5 L7.5,10.5 Z M13.5,10.5 L13.5,13.5 L10.5,13.5 L10.5,10.5 L13.5,10.5 Z M19.5,10.5 L19.5,13.5 L16.5,13.5 L16.5,10.5 L19.5,10.5 Z M7.5,4.5 L7.5,7.5 L4.5,7.5 L4.5,4.5 L7.5,4.5 Z M13.5,4.5 L13.5,7.5 L10.5,7.5 L10.5,4.5 L13.5,4.5 Z M19.5,4.5 L19.5,7.5 L16.5,7.5 L16.5,4.5 L19.5,4.5 Z"/>
</svg>
