<?xml version="1.0" encoding="utf-8"?>
<!-- Generator: Adobe Illustrator 24.2.0, SVG Export Plug-In . SVG Version: 6.00 Build 0)  -->
<svg version="1.0" xmlns="http://www.w3.org/2000/svg" xmlns:xlink="http://www.w3.org/1999/xlink" x="0px" y="0px"
	 viewBox="0 0 24 24" enable-background="new 0 0 24 24" xml:space="preserve">
<g id="SVG_x5F_24x24pt">
	<path id="backgroundGreen" fill="#237F52" d="M0,22.5v-21C0,0.675,0.675,0,1.5,0h21C23.325,0,24,0.675,24,1.5v21
		c0,0.825-0.675,1.5-1.5,1.5h-21C0.675,24,0,23.325,0,22.5z"/>
	<g id="content">
		<g>
			<path fill="#FFFFFF" d="M6.45,7.35c0,0.745-0.605,1.35-1.349,1.35C4.355,8.7,3.75,8.095,3.75,7.35C3.75,6.604,4.355,6,5.101,6
				C5.845,6,6.45,6.604,6.45,7.35z M12.57,15l-1.517-1.517L8.446,16.09v3.809c0,0.382-0.311,0.693-0.693,0.693
				c-0.382,0-0.692-0.311-0.692-0.693v-4.193c0-0.185,0.072-0.36,0.202-0.491l2.075-2.075l-2.277-2.279V12.8
				c0,0.288-0.233,0.52-0.52,0.52H4.083c-0.288,0-0.52-0.232-0.52-0.52c0-0.288,0.232-0.519,0.52-0.519h1.973V9.857
				c0-0.955,0.775-1.732,1.733-1.732h2.42c0.184,0,0.361,0.074,0.49,0.204l2.043,2.043c0.091,0.09,0.142,0.213,0.142,0.343
				c0,0.267-0.217,0.484-0.485,0.484c-0.129,0-0.252-0.05-0.344-0.141l-1.927-1.928H8.757L14.628,15H12.57z"/>
		</g>
		<g>
			<polygon fill="#FFFFFF" points="7.5,14.447 8.625,13.323 8.625,12.956 7.5,11.831 			"/>
			<path fill="#FFFFFF" d="M7.5,3v4.77c0.094-0.013,0.191-0.02,0.289-0.02h0.836V4.125h11.25v11.25H9.691l-0.871,0.87V16.5H21V3H7.5
				z"/>
		</g>
	</g>
</g>
</svg>
