<svg width="24" height="24" viewBox="0 0 24 24" fill="none" xmlns="http://www.w3.org/2000/svg"><path fill-rule="evenodd" clip-rule="evenodd" d="M11.5 2.012c-.36.018-.715.055-1.064.11l.155.988a9.03 9.03 0 0 1 .909-.096v9.146l.092.13 5.203 7.328a8.961 8.961 0 0 1-1.569.787l.359.933a9.972 9.972 0 0 0 1.79-.904l.007.01.408-.29.038-.027a10.181 10.181 0 0 0 .466-.355 10.013 10.013 0 0 0 2.598-3.19A9.957 9.957 0 0 0 22 11.999c0-5.39-4.264-9.784-9.603-9.992A10.167 10.167 0 0 0 12 2h-.5v.012Zm9.49 10.402a9.148 9.148 0 0 0 .008-.593A9 9 0 0 0 12.5 3.014v8.827l5.11 7.197.054-.043a9.013 9.013 0 0 0 2.308-2.813 8.951 8.951 0 0 0 1.019-3.769ZM8.416 2.662a9.99 9.99 0 0 0-2.709 1.566l.63.777a8.99 8.99 0 0 1 2.438-1.41l-.359-.933ZM4.228 5.706a9.99 9.99 0 0 0-1.566 2.71l.933.358a8.99 8.99 0 0 1 1.41-2.438l-.777-.63Zm-2.106 4.73a10.07 10.07 0 0 0 0 3.128l.988-.155a9.07 9.07 0 0 1 0-2.818l-.988-.155Zm.54 5.149c.38.988.911 1.9 1.566 2.709l.777-.63a8.99 8.99 0 0 1-1.41-2.438l-.933.359Zm3.044 4.187a9.991 9.991 0 0 0 2.71 1.566l.358-.933a8.99 8.99 0 0 1-2.438-1.41l-.63.777Zm4.73 2.106a10.075 10.075 0 0 0 3.128 0l-.155-.988a9.07 9.07 0 0 1-2.818 0l-.155.988Z" fill="#000"/></svg>