<svg xmlns="http://www.w3.org/2000/svg" width="24" height="24" fill="none" viewBox="0 0 24 24"><path fill="#000" fill-rule="evenodd" d="M11.5 2.012q-.54.027-1.064.11l.155.988a9 9 0 0 1 .909-.096v9.146l.092.13 5.203 7.328a9 9 0 0 1-1.569.787l.359.933a10 10 0 0 0 1.79-.904l.007.01.408-.29.038-.027a10 10 0 0 0 .466-.355 10.013 10.013 0 0 0 2.598-3.19A9.96 9.96 0 0 0 22 11.999c0-5.39-4.264-9.784-9.603-9.992A10 10 0 0 0 12 2h-.5zm9.49 10.402a9 9 0 0 0 .008-.593A9 9 0 0 0 12.5 3.014v8.827l5.11 7.197.054-.043a9.013 9.013 0 0 0 2.308-2.813 8.95 8.95 0 0 0 1.019-3.769M8.416 2.662a10 10 0 0 0-2.709 1.566l.63.777a9 9 0 0 1 2.438-1.41zM4.228 5.706a10 10 0 0 0-1.566 2.71l.933.358a9 9 0 0 1 1.41-2.438zm-2.106 4.73a10 10 0 0 0 0 3.128l.988-.155a9 9 0 0 1 0-2.818zm.54 5.149c.38.988.911 1.9 1.566 2.709l.777-.63a9 9 0 0 1-1.41-2.438zm3.044 4.187a10 10 0 0 0 2.71 1.566l.358-.933a9 9 0 0 1-2.438-1.41zm4.73 2.106a10 10 0 0 0 3.128 0l-.155-.988a9 9 0 0 1-2.818 0z" clip-rule="evenodd"/></svg>