<?xml version="1.0" encoding="utf-8"?>
<!-- Generator: Adobe Illustrator 24.2.0, SVG Export Plug-In . SVG Version: 6.00 Build 0)  -->
<svg version="1.0" xmlns="http://www.w3.org/2000/svg" xmlns:xlink="http://www.w3.org/1999/xlink" x="0px" y="0px"
	 viewBox="0 0 24 24" enable-background="new 0 0 24 24" xml:space="preserve">
<g id="SVG_x5F_24x24pt">
	<path id="backgroundBlue" fill="#2D327D" d="M0,22.5v-21C0,0.675,0.675,0,1.5,0h21C23.325,0,24,0.675,24,1.5v21
		c0,0.825-0.675,1.5-1.5,1.5h-21C0.675,24,0,23.325,0,22.5z"/>
	<g id="content">
		<g>
			<path fill="#FFFFFF" d="M4.967,12.721c-0.257,0-0.465,0.208-0.465,0.465c0,0.257,0.208,0.465,0.465,0.465h7.645l-0.93-0.93H4.967
				z"/>
		</g>
		<g>
			<path fill="#FFFFFF" d="M16.034,13.65c0.257,0,0.465-0.208,0.465-0.465c0-0.257-0.208-0.465-0.465-0.465H13.76l0.93,0.93H16.034z
				"/>
		</g>
		<polygon fill="#FFFFFF" points="15.658,10.754 14.225,10.754 13.916,8.796 13.057,8.796 11.878,10.839 13.46,12.421 
			14.696,12.421 		"/>
		<path fill="#FFFFFF" d="M14.343,8.296l0.31,1.958l1.294,0l0.37-0.641c0.573-0.993,0.118-2.165,0.447-2.735l-0.001-0.001
			c0.329-0.57,0.922-1.896,0.922-1.896l0.01,0.005c0.058,0.028,0.128,0.006,0.16-0.049l0.128-0.221
			c0.034-0.059,0.014-0.134-0.046-0.168l-0.857-0.495c-0.059-0.034-0.135-0.014-0.169,0.045l-0.127,0.22
			c-0.032,0.056-0.016,0.128,0.038,0.164l0.006,0.004c0,0-0.837,1.187-1.166,1.757c-0.329,0.57-1.572,0.763-2.145,1.755l-0.173,0.3
			L14.343,8.296z"/>
		<g>
			<path fill="#FFFFFF" d="M16.495,14.382c0.035-0.226-0.142-0.43-0.371-0.43h-1.132l1.29,1.29
				C16.376,14.967,16.449,14.68,16.495,14.382z"/>
		</g>
		<g>
			<path fill="#FFFFFF" d="M3.375,13.952C3.168,13.952,3,14.12,3,14.327v6.298C3,20.832,3.168,21,3.375,21H7.07
				c0.916,0,1.724-0.457,2.21-1.155c0.013-0.019,0.026-0.038,0.039-0.057c0.486-0.699,1.295-1.157,2.211-1.157
				c0.006,0,0.013,0,0.019,0c1.643-0.072,3.095-0.841,4.006-2.038l-2.642-2.642H3.375z"/>
		</g>
		<path fill="#FFFFFF" d="M9.546,7.26l-1.247,0l1.396,1.396C9.514,8.206,9.464,7.726,9.546,7.26z"/>
		<path fill="#FFFFFF" d="M10.165,6.922c0.207-0.509,0.599-0.907,1.105-1.122l0.144,0.342l-1.313,2.156
			C9.964,7.847,9.985,7.365,10.165,6.922z"/>
		<path fill="#FFFFFF" d="M6.764,9.696L4.349,9.121L4.205,8.779C5.171,8.391,6.262,8.808,6.764,9.696z"/>
		<path fill="#FFFFFF" d="M3.564,7.259l0.445,1.055c0.623-0.253,1.308-0.253,1.932,0.001C6.574,8.573,7.069,9.06,7.337,9.689
			l0.924-0.39l-2.04-2.04L3.564,7.259z"/>
		<path fill="#FFFFFF" d="M10.41,3.759L7.303,6.264l0.49,0.49l1.895,0c0.003-0.008,0.006-0.015,0.009-0.023
			c0.258-0.634,0.747-1.13,1.377-1.397L10.41,3.759z"/>
		<polygon fill="#FFFFFF" points="3.025,5.979 3.351,6.754 5.715,6.754 4.372,5.411 		"/>
		<polygon fill="#FFFFFF" points="10.206,3.275 10.09,3 5.833,4.795 6.944,5.905 		"/>
		<polygon fill="#EB0000" points="4.009,2.971 2.971,4.009 19.957,20.996 20.995,19.956 4.009,2.971 		"/>
	</g>
</g>
</svg>
