<svg xmlns="http://www.w3.org/2000/svg" width="24" height="24" fill="none" viewBox="0 0 24 24"><path fill="#000" fill-rule="evenodd" d="M11.9 2.772c-.256-.57-.905-.92-1.551-.712a12.9 12.9 0 0 0-8.289 8.316c-.161.502.011 1.01.366 1.332a1.2 1.2 0 0 0-.16.437 10.5 10.5 0 0 0 .272 4.434c.125.448.486.749.9.84.335 1.45 1.062 2.654 1.872 3.46.44.438.922.774 1.397.959.47.183.992.24 1.452.012.456-.225.748-.65.93-1.11.183-.463.276-1.015.303-1.585a9 9 0 0 0-.39-2.99c.3-.155.514-.43.61-.742q.175-.573.447-1.085c.082-.154.127-.318.14-.48l.338.086a1.29 1.29 0 0 0 1.316-.442c.5-.613 1.053-1.178 1.659-1.677.346-.285.534-.732.468-1.187.164-.014.33-.061.486-.148q.507-.279 1.073-.46a1.24 1.24 0 0 0 .701-.562 8.7 8.7 0 0 0 2.974.35c.563-.035 1.106-.138 1.562-.33.453-.19.868-.49 1.084-.948.217-.46.16-.98-.023-1.448-.185-.475-.518-.954-.953-1.392-.796-.801-1.982-1.516-3.41-1.843a1.19 1.19 0 0 0-.855-.95 10.3 10.3 0 0 0-4.413-.23q-.165.027-.307.095m5.449 2.083-.837 3.65c.83.253 1.796.37 2.638.316.492-.032.917-.12 1.238-.255.324-.136.495-.3.568-.454.058-.121.075-.335-.05-.657-.124-.316-.367-.683-.732-1.05-.647-.652-1.628-1.256-2.825-1.55m-13.833 7.29 5.54 1.42c.122.039.185.18.12.304q-.318.6-.521 1.262c-.03.095-.092.145-.15.159l-4.75 1.152c-.123.03-.23-.046-.254-.133a9.5 9.5 0 0 1-.246-4.012c.014-.095.126-.187.26-.153m5.776.448.029.007 1.464.376c.1.025.213-.008.293-.106a13 13 0 0 1 1.798-1.816.3.3 0 0 0 .107-.305l-.265-1.007v-.004l-1.715-6.512c-.047-.178-.22-.255-.347-.214a11.9 11.9 0 0 0-7.644 7.67c-.044.135.041.311.214.356zm-3.277 7.576c-.659-.655-1.274-1.65-1.577-2.864l3.6-.873c.265.836.396 1.817.355 2.676-.023.5-.104.935-.234 1.264-.132.334-.293.508-.443.582-.116.057-.324.078-.646-.048-.316-.123-.684-.368-1.055-.737m7.67-10.686v.002a.205.205 0 0 0 .3.13 7 7 0 0 1 1.249-.537c.091-.03.141-.092.156-.155l1.099-4.79c.03-.131-.052-.238-.134-.26a9.3 9.3 0 0 0-3.985-.21.17.17 0 0 0-.12.087.24.24 0 0 0-.027.183z" clip-rule="evenodd"/></svg>