<?xml version="1.0" encoding="utf-8"?>
<!-- Generator: Adobe Illustrator 24.2.0, SVG Export Plug-In . SVG Version: 6.00 Build 0)  -->
<svg version="1.0" xmlns="http://www.w3.org/2000/svg" xmlns:xlink="http://www.w3.org/1999/xlink" x="0px" y="0px"
	 viewBox="0 0 24 24" enable-background="new 0 0 24 24" xml:space="preserve">
<g id="SVG_x5F_24x24pt">
	<path id="backgroundBlue" fill="#2D327D" d="M0,22.5v-21C0,0.675,0.675,0,1.5,0h21C23.325,0,24,0.675,24,1.5v21
		c0,0.825-0.675,1.5-1.5,1.5h-21C0.675,24,0,23.325,0,22.5z"/>
	<g id="content">
		<path fill="#FFFFFF" d="M16.306,10.595c0.167,0.165,0.259,0.387,0.259,0.623c0,0.484-0.394,0.878-0.879,0.878
			c-0.141,0-0.276-0.033-0.399-0.095l2.601,2.602h2.875c0.081,0,0.16,0.01,0.237,0.028V3h-6v6.29L16.306,10.595z M16.875,4.5
			c0-0.207,0.168-0.375,0.375-0.375h2.25c0.207,0,0.375,0.168,0.375,0.375v8.625c0,0.207-0.168,0.375-0.375,0.375h-2.25
			c-0.207,0-0.375-0.168-0.375-0.375V4.5z"/>
		<polygon fill="#FFFFFF" points="20.341,21 21,21 21,20.341 		"/>
		<path fill="#FFFFFF" d="M21,19.939v-3.24c-0.076,0.017-0.155,0.028-0.237,0.028h-2.976L21,19.939z"/>
		<polygon fill="#FFFFFF" points="15,16.06 15,21 19.94,21 		"/>
		<path fill="#FFFFFF" d="M11.936,10.875l2.25,2.25l3.151,3.151c0.008,0,0.017,0.001,0.025,0.001h3.402
			c0.338,0,0.612-0.274,0.612-0.611c0-0.339-0.273-0.613-0.612-0.613h-3.061l-5.235-5.236h1.213l1.703,1.704
			c0.081,0.08,0.19,0.125,0.304,0.125c0.237,0,0.429-0.192,0.429-0.428c0-0.115-0.045-0.223-0.126-0.303l-1.806-1.806
			c-0.114-0.115-0.271-0.18-0.433-0.18h-2.139c-0.446,0-0.846,0.192-1.125,0.495L11.936,10.875z"/>
		<path fill="#FFFFFF" d="M12.641,13.701l-1.495,1.495c-0.116,0.116-0.179,0.271-0.179,0.434v3.707c0,0.338,0.274,0.613,0.612,0.613
			c0.338,0,0.613-0.275,0.613-0.613V15.97l1.359-1.359L12.641,13.701z"/>
		<path fill="#FFFFFF" d="M10.967,12.028l-0.366-0.366l-0.522-0.522v1.463H9.45v0.919h1.058c0.254,0,0.46-0.205,0.46-0.46V12.028z"
			/>
		<path fill="#FFFFFF" d="M10.112,9.051c0.196-0.212,0.316-0.495,0.316-0.806c0-0.586-0.422-1.071-0.977-1.173v1.318L10.112,9.051z"
			/>
		<path fill="#FFFFFF" d="M5.186,4.125H6.75c0.207,0,0.375,0.168,0.375,0.375v1.564L9,7.939V3H4.061L5.186,4.125z"/>
		<path fill="#FFFFFF" d="M7.125,8.185v4.94c0,0.207-0.168,0.375-0.375,0.375H4.5c-0.207,0-0.375-0.168-0.375-0.375v-7.94L3,4.06V21
			h6V10.06L7.125,8.185z"/>
		<polygon fill="#FFFFFF" points="3.658,3 3,3 3,3.658 		"/>
		<polygon fill="#EB0000" points="14.185,13.125 11.936,10.875 11.936,10.875 3.859,2.798 2.799,3.859 10.601,11.662 12.064,13.125 
			12.064,13.125 20.14,21.201 21.201,20.14 14.185,13.125 14.185,13.125 		"/>
	</g>
</g>
</svg>
