<svg xmlns="http://www.w3.org/2000/svg" width="36" height="36" fill="none" viewBox="0 0 36 36"><path fill="#000" fill-rule="evenodd" d="M21.56 7.501v-4.5h1v4.5zm-5.5-2.958.354.354 13.5 13.5.353.353-.352.353-.354-.353.354.353-.001.001-.003.003-.014.014-.055.055-.246.247-1.182 1.181-.171.17-.24-.027c-4.305-.502-6.496-.455-7.86-.063-1.169.336-1.746.921-2.62 1.807v.001l-.359.362-.354.353-.353-.353-.008-.009-.009-.008-.008-.008-.008-.009-.009-.008-.008-.008-.009-.009-.008-.008-.008-.009-.009-.008-.008-.008-.009-.009-.008-.008-.008-.009-.009-.008-.008-.009-.009-.008-.008-.008-.009-.009-.008-.008-.009-.009-.008-.008-.008-.009-.009-.008-.008-.009-.009-.008-.008-.009-.009-.008-.008-.009-.009-.008-.008-.009-.009-.008-.008-.009-.009-.008-.008-.009-.009-.008-.008-.009-.009-.008-.008-.009-.01-.008-.008-.009-.008-.008-.009-.009-.008-.008-.009-.01-.008-.008-.009-.008-.009-.009-.008-.008-.009-.009-.008-.009-.009-.008-.008-.009-.01-.008-.008-.009-.008-.009-.009-.008-.009-.009-.008-.008-.009-.009-.008-.009-.009-.008-.009-.009-.008-.009-.009-.008-.009-.009-.008-.009-.009-.008-.008-.009-.01-.008-.008-.01-.008-.008-.01-.008-.008-.01-.008-.008-.01-.008-.008-.01-.009-.008-.008-.009-.009-.008-.009-.009-.008-.009-.01-.008-.008-.01-.009-.008-.008-.008-.009-.01-.009-.008-.008-.009-.01-.008-.008-.01-.009-.008-.008-.009-.01-.008-.008-.01-.009-.008-.008-.009-.01-.008-.008-.01-.009-.008-.008-.009-.01-.008-.008-.01-.009-.008-.008-.009-.01-.009-.008-.008-.009-.009-.009-.009-.008-.009-.01-.008-.008-.01-.009-.008-.008-.009-.01-.009-.008-.008-.009-.01-.009-.008-.009-.009-.008-.009-.01-.009-.008-.008-.009-.01-.009-.008-.008-.009-.01-.009-.008-.008-.009-.01-.009-.008-.009-.009-.009-.009-.008-.009-.01-.009-.008-.008-.009-.01-.009-.008-.009-.009-.009-.009-.008-.009-.01-.009-.008-.008-.009-.01-.009-.008-.009-.01-.009-.008-.009-.009-.008-.009-.01-.009-.008-.008-.01-.01-.008-.008-.009-.01-.009-.008-.009-.009-.009-.009-.008-.009-.01-.009-.008-.009-.01-.009-.008-.008-.009-.01-.009-.008-.009-.01-.009-.008-.009-.009-.009-.009-.008-.009-.01-.009-.008-.009-.01-.009-.008-.009-.01-.008-.008-.01-.009-.008-.009-.01-.009-.008-.009-.01-.009-.008-.009-.009-.009-.009-.009-.009-.009-.009-.008-.009-.01-.009-.008-.009-.01-.009-.008-.009-.01-.009-.008-.009-.01-.008-.008-.01-.01-.008-.008-.01-.009-.008-.009-.01-.009-.008-.009-.01-.009-.008-.009-.01-.009-.008-.009-.01-.009-.008-.009-.009-.009-.009-.009-.009-.009-.009-.009-.009-.009-.009-.009-.009-.009-.009-.009-.009-.009-.009-.008-.009-.01-.009-.009-.009-.008-.009-.01-.009-.008-.009-.01-.009-.008-.009-.01-.009-.008-.009-.01-.009-.008-.009-.01-.009-.008-.009-.01-.009-.008-.009-.01-.009-.008-.009-.01-.009-.008-.009-.01-.009-.008-.009-.01-.009-.008-.009-.01-.009-.008-.009-.01-.009-.008-.009-.01-.009-.008-.009-.01-.009-.008-.009-.01-.009-.008-.009-.01-.009-.008-.009-.01-.009-.008-.009-.01-.009-.008-.009-.01-.009-.008-.009-.01-.009-.008-.009-.01-.009-.008-.009-.01-.009-.008-.009-.01-.009-.008-.009-.01-.009-.008-.009-.01-.009-.008-.009-.01-.009-.008-.009-.01-.009-.008-.009-.01-.009-.008-.009-.01-.009-.008-.009-.01-.009-.008-.009-.01-.009-.008-.009-.01-.009-.008-.009-.01-.009-.008-.009-.01-.009-.008-.009-.01-.009-.008-.009-.01-.009-.008-.009-.01-.009-.008-.009-.01-.009-.008-.009-.01-.009-.008-.009-.01-.009-.008-.009-.01-.009-.008-.008-.01-.01-.008-.008-.01-.01-.008-.008-.01-.01-.008-.008-.01-.01-.008-.008-.01-.01-.008-.008-.009-.01-.009-.008-.009-.01-.009-.008-.009-.01-.009-.008-.009-.01-.009-.008-.009-.01-.009-.008-.009-.009-.009-.009-.009-.009-.009-.009-.009-.009-.008-.009-.01-.009-.008-.009-.01-.009-.008-.009-.01-.009-.008-.009-.01-.009-.008-.008-.01-.01-.008-.008-.009-.01-.009-.008-.009-.01-.009-.008-.009-.009-.009-.009-.009-.009-.009-.009-.008-.009-.01-.009-.008-.009-.01-.008-.008-.01-.01-.008-.008-.01-.009-.008-.009-.01-.009-.008-.009-.009-.009-.009-.008-.009-.01-.009-.008-.009-.01-.009-.008-.008-.009-.01-.009-.008-.009-.01-.009-.008-.009-.009-.009-.009-.008-.009-.01-.008-.008-.01-.009-.008-.009-.01-.009-.008-.009-.009-.008-.009-.01-.009-.008-.009-.01-.008-.008-.01-.009-.008-.009-.009-.009-.009-.008-.009-.01-.008-.008-.01-.009-.008-.009-.01-.009-.008-.008-.009-.01-.009-.008-.008-.009-.01-.009-.008-.009-.009-.008-.009-.01-.009-.008-.008-.009-.01-.009-.008-.008-.009-.01-.009-.008-.008-.009-.01-.009-.008-.008-.009-.01-.009-.008-.008-.009-.01-.009-.008-.008-.009-.01-.009-.008-.008-.009-.01-.009-.008-.008-.009-.01-.008-.008-.01-.009-.008-.008-.009-.01-.008-.008-.01-.009-.008-.008-.009-.01-.008-.008-.01-.009-.008-.008-.009-.009-.008-.009-.009-.008-.009-.01-.008-.008-.01-.009-.008-.008-.009-.009-.008-.009-.009-.008-.009-.01-.008-.008-.009-.008-.009-.01-.008-.008-.01-.008-.008-.01-.008-.008-.01-.008-.008-.01-.008-.008-.01-.008-.008-.01-.008-.008-.009-.008-.009-.009-.008-.009-.009-.008-.009-.009-.008-.008-.009-.01-.008-.008-.009-.008-.009-.009-.008-.009-.009-.008-.008-.009-.009-.008-.009-.009-.008-.009-.009-.008-.008-.009-.009-.008-.008-.009-.01-.008-.008-.009-.008-.008-.009-.009-.008-.009-.009-.008-.008-.009-.009-.008-.008-.009-.009-.008-.008-.009-.009-.008-.008-.009-.009-.008-.008-.009-.009-.008-.009-.009-.008-.008-.009-.009-.008-.008-.009-.009-.008-.008-.008-.009-.009-.008-.008-.009-.009-.008-.008-.008-.009-.009-.008-.008-.009-.009-.008-.008-.008-.009-.009-.008-.008-.008-.009-.009-.008-.008-.008-.009-.009-.008-.008-.008-.009-.009-.008-.008-.009-.009-.008-.008-.008-.354-.354.354-.353q.188-.188.36-.357c.889-.875 1.474-1.451 1.81-2.621.392-1.365.439-3.556-.063-7.86l-.028-.241.171-.171 1.5-1.5zM28.855 18.75 16.06 5.958l-.976.976c.473 4.149.448 6.463.003 8.012-.411 1.433-1.183 2.19-2.068 3.058l.008.008.009.008.008.009.009.009.009.008.008.009.009.008.008.009.009.008.008.01.01.008.008.008.008.009.009.008.009.01.008.008.009.008.008.009.01.009.008.008.008.009.009.009.009.008.008.009.009.009.009.008.008.009.009.009.009.008.008.009.009.009.009.008.008.009.009.009.009.008.008.009.01.009.008.008.008.009.01.009.008.009.009.008.008.009.01.009.008.008.008.01.01.008.008.009.009.008.008.009.01.009.008.009.009.008.009.009.008.009.009.009.009.008.009.009.008.009.01.009.008.008.009.01.008.008.01.009.008.009.009.008.009.01.008.008.01.009.008.008.009.01.009.008.008.009.01.009.008.008.009.01.009.008.008.009.01.009.008.009.009.008.009.01.009.008.008.009.01.009.008.009.009.009.009.008.009.01.009.008.008.009.01.009.008.009.009.009.009.008.009.01.009.008.008.009.01.009.008.009.01.009.008.008.009.01.009.008.009.01.008.008.01.009.008.009.01.009.008.009.009.009.009.008.009.01.009.008.009.01.009.008.008.009.01.009.008.009.01.009.008.009.009.009.009.008.009.01.009.008.009.01.009.008.009.01.008.008.01.009.008.009.01.009.008.009.01.009.008.009.01.009.008.009.009.009.009.008.009.01.009.008.009.01.009.008.009.01.009.008.009.01.008.008.01.009.009.009.008.009.01.009.008.009.01.009.008.009.01.009.008.009.01.009.008.009.01.009.008.009.01.009.008.009.009.009.009.009.009.008.009.01.009.008.009.01.009.008.009.01.009.008.009.01.009.008.009.01.009.008.009.01.009.008.009.01.009.008.009.01.009.008.009.01.009.008.009.01.009.008.009.01.009.008.009.01.009.008.009.01.009.008.009.01.009.008.009.01.009.008.009.01.009.008.009.01.009.008.009.01.009.008.009.01.009.008.009.01.009.008.009.01.009.008.009.01.009.008.009.01.009.008.009.01.009.008.009.01.009.008.009.01.009.008.009.01.009.008.009.01.009.008.009.01.009.008.009.01.009.008.009.01.009.008.009.01.009.008.009.01.009.008.009.01.009.008.009.01.009.008.009.01.009.008.009.01.009.008.009.01.009.008.009.01.009.008.009.01.009.008.009.01.009.008.009.01.009.008.009.01.009.008.009.01.009.008.009.01.009.008.009.01.009.008.008.01.01.008.008.009.01.009.009.009.008.009.01.009.008.009.01.009.008.009.01.009.008.009.01.009.008.009.01.009.008.009.01.009.008.009.01.009.008.009.009.009.009.009.009.008.009.01.009.008.009.01.009.008.009.01.009.008.009.01.008.008.01.009.008.009.01.009.008.009.01.009.008.009.01.009.008.009.009.008.009.01.009.008.009.01.009.008.009.01.009.008.008.009.01.009.008.009.01.009.008.009.01.009.008.009.009.008.009.01.009.008.009.01.008.008.01.009.008.009.01.009.008.009.009.009.009.008.009.01.009.008.008.01.01.008.008.009.01.009.008.009.009.008.009.01.009.008.009.01.008.008.01.009.008.009.009.008.009.01.009.008.009.009.008.009.01.009.008.009.009.008.009.01.009.008.008.009.01.009.008.009.009.008.009.01.009.008.008.009.01.009.008.008.009.01.009.008.008.009.01.009.008.008.009.01.008.008.01.009.008.009.009.008.009.01.008.008.01.009.008.008.009.01.009.008.008.009.009.009.009.008.009.01.008.008.009.009.009.008.009.009.008.009.009.009.009.008.008.009.01.009.008.008.009.01.008.008.009.009.009.008.008.009.01.009.008.008.009.009.008.009.009.008.009.01.008.008.009.008.009.01.008.008.009.008.009.01.008.008.009.008.008.01.01.008.008.008.008.009.01.009.008.008.008.009.009.008.009.01.008.008.009.008.008.009.009.009.009.008.008.009.009.008.008.009.009.009.009.008.008.009.009.008.008.009.009.008.008.009.008.008c.868-.884 1.626-1.656 3.058-2.068 1.549-.445 3.863-.47 8.012.003zm-18.793.793.353.354 9 9 .354.353-.354.354-3 3-.353.353-.354-.353-4.146-4.147-1.147 1.147-.353.353-.354-.353-4.5-4.5-.353-.354.353-.353 4.5-4.5zM6.268 24.75l3.793 3.793 1.146-1.146.354-.354.353.354 4.147 4.146 2.293-2.293-8.293-8.293zm22.19-19.103-4.5 4.5.706.707 4.5-4.5zm3.353 6.604h-4.5v1h4.5z" clip-rule="evenodd"/></svg>