<svg xmlns="http://www.w3.org/2000/svg" width="48" height="48" fill="none" viewBox="0 0 48 48"><path fill="#000" fill-rule="evenodd" d="M8 10a2 2 0 0 0-2 2l-.002 7.5c0 1.772.725 3.463 2.001 4.683V26H7v12.004L7.503 38l10-.076.496-.004V26h-1v-1.817a6.48 6.48 0 0 0 2-4.683V12a2 2 0 1 0-4 0v3.268a1.995 1.995 0 0 0-2.5.41 1.996 1.996 0 0 0-2.5-.41V12a2 2 0 0 0-2-2m7.999 16v-2.26l.167-.15A5.48 5.48 0 0 0 18 19.5V12a1 1 0 1 0-2 0v7h-1v-2a1 1 0 0 0-2 0v2h-1v-2a1 1 0 0 0-2 0v2H9v-7a1 1 0 0 0-2 0v7.5c0 1.564.666 3.052 1.833 4.09l.167.15V26zm-8 10.996V29h9v7.928l-7 .053V31h-1v5.989zm9-8.996h-9v-1h9zm8.002 2a3 3 0 1 0 0 6 3 3 0 0 0 0-6m0-1a4 4 0 0 1 3 1.354V15.043l.39-.088 13-2.943.611-.138V29.31h-.012a4 4 0 1 1-.988-2.955V16.126l-12.001 2.717V33a4 4 0 1 1-4-4m4-11.182L41.002 15.1v-1.975l-12.001 2.717zM35.002 29a3 3 0 1 1 5.999-.001 3 3 0 0 1-5.999.001" clip-rule="evenodd"/></svg>