<svg xmlns="http://www.w3.org/2000/svg" width="36" height="36" fill="none" viewBox="0 0 36 36"><path fill="#000" fill-rule="evenodd" d="M15 21h6v-6h-6zm-1.5 1.5h9v-9h-9zm3-3h3v-3h-3zM10.499 5.994H15V4.492h-4.501zm0 3.005V7.5h-3V9l1.5.005v3h1.5v-1.5h3V9.001h3v-1.5h-3v.003h-1.5v1.5h-1.5zm0 4.5H7.5v-3H6V9H4.5v3H6v1.5h1.499V15h3zm7.5-5.994h1.5v-3H18v1.497h-1.5v1.5H18zm12.001 3h1.5V9.002H30zm-3 7.5h1.5v-1.5H27v1.497h-3v1.5h3zm-21.001-12 3-.012v-1.5h-4.5v3.012h1.5zM27 19.505v3h1.5v-1.5H30v1.5h1.5v-3zm-7.5-12v3H21v-1.5l4.5-.003v-1.5H27v-1.5h-1.5V4.505H24v2.997h-1.5V6.005H21v1.5zm4.5 3v3h1.5v-.003H27v-1.5h-1.5v-1.497zm1.5 21.002H27v-3h-1.5zm4.5-1.505h-1.5v1.5H30v.005h1.5v-3H30zm0-22.497h1.5v-3H30v-.003h-3v1.5h3zm0 15h-1.5v4.497H27v1.5h3v-1.5h1.5v-1.5H30zm0-4.5h1.5v-3H30zm-4.5-7.504h3v-1.5h-3zm3 1.5v3.004H30v-1.5l1.5-.003v-1.5zm-12 19.502h3V30h-3zM15 12.002h1.5v.003H18v-3h-1.5v1.497H15zm0 16.5h-1.5v1.5H15v.005h1.5v-3H15zm7.5.005H21v3h1.5v-.005H24v-1.5h-1.5zm-10.501-6.004-3 .003v1.5h1.5v1.497h3v-1.5h-1.5zm3.001 3h3v-1.5h-3zm9-9.002h3v-1.5h-3zm-19.501 10.5h1.5v-1.5h-1.5zm3-7.5H9v-1.5H7.499zm3-6h1.5v-1.5h-1.5zM21 12.003h1.5V10.5H21zM5.999 18h1.5v-1.5h-1.5zm-1.5-1.5h1.5v-3h-1.5zm0 4.502h1.5V18h-1.5zm3 6.001H10.5v-1.5H7.499zm0-6.001h-1.5v1.5l-1.5.003v1.5h3zm3 7.5v.004h-1.5v1.5h1.5v1.495h1.5v-2.996h1.5v-1.5h-3zm-4.5 0h-1.5v3h1.5v.004h3v-1.5h-3zm3-7.497h3v-1.5h-3zm0-3h3v-1.5h-3zM25.5 25.503H27v-1.5h-1.5zm-4.5 0h1.5v3h3v-1.5H24v-2.997h1.5v-3H24v2.997l-4.5.003v1.5H18v3h1.5v-1.5H21z" clip-rule="evenodd"/></svg>