<svg class="color-immutable" xmlns="http://www.w3.org/2000/svg" width="59" height="20" fill="none" viewBox="0 0 59 20"><path fill="#EB0000" fill-rule="evenodd" d="M2 0a2 2 0 0 0-2 2v16a2 2 0 0 0 2 2h55a2 2 0 0 0 2-2V2a2 2 0 0 0-2-2z" clip-rule="evenodd"/><path fill="#fff" fill-rule="evenodd" d="M7.002 9.378h.745q1.913 0 2.554-.24a2.1 2.1 0 0 0 1.009-.769q.369-.528.368-1.16 0-.426-.188-.697a1.07 1.07 0 0 0-.528-.397q-.34-.124-1.518-.124h-1.73zm-1.338 6.423H3.246L5.705 4.06h4.772q1.273 0 2.014.3t1.173.993.433 1.654q0 .89-.345 1.73t-.844 1.345a3.6 3.6 0 0 1-1.077.765q-.578.26-1.554.396-.57.08-2.13.08H6.601zM13.602 15.8l2.45-11.739h8.705l-.408 1.962h-6.286l-.56 2.667h6.077l-.408 1.962h-6.078l-.737 3.187h6.83l-.416 1.962z" clip-rule="evenodd"/></svg>