<svg xmlns="http://www.w3.org/2000/svg" width="16" height="16" fill="none" viewBox="0 0 16 16"><path fill="#000" fill-rule="evenodd" d="M5 6.814v-.022l.005-.084A3.415 3.415 0 0 1 5.38 5.39c.187-.353.46-.694.864-.95.403-.253.963-.44 1.755-.44h.004c1.572 0 2.282.657 2.629 1.252a2.8 2.8 0 0 1 .368 1.234L11 6.5v3.686c0 .405.067 1.084.41 1.68q.04.068.083.133H4.61c.245-.378.39-.872.39-1.5V6.814m4-3.729c1.301.236 2.066.93 2.494 1.663A3.8 3.8 0 0 1 12 6.482v.017l-.5.001h.5v3.688c0 .324.058.801.277 1.18.196.34.536.632 1.223.632v1H9.947c-.09.405-.29.742-.568.995a2 2 0 0 1-1.346.505c-.475 0-.978-.16-1.369-.496-.291-.25-.51-.59-.607-1.004H2.5v-1c.323 0 .703-.058.99-.256.253-.174.51-.508.51-1.244V6.813h.5L4 6.812v-.018a2 2 0 0 1 .008-.161 4.414 4.414 0 0 1 .487-1.71A3.46 3.46 0 0 1 5.71 3.595 3.8 3.8 0 0 1 7 3.093V2h2v1.085M8.888 13h.008a.8.8 0 0 1-.19.255 1 1 0 0 1-.673.245c-.262 0-.526-.09-.717-.254a.9.9 0 0 1-.2-.246h1.772" clip-rule="evenodd"/></svg>