<svg xmlns="http://www.w3.org/2000/svg" width="48" height="48" viewBox="0 0 48 48">
  <path fill="none" stroke="#000" d="M10.5,8 L10.5,40 M20.5,35.5195 L20.5,39.9995 M8,11.5 L10.5,11.5 M8,17.5 L10.5,17.5 M8,23.5 L10.5,23.5 M8,29.5 L10.5,29.5 M8,35.5 L10.5,35.5 M13,11.5 L23,11.5 M13,17.5 L23.5,17.5 M13,23.5 L19.206,23.5 M20.5,8 L20.5,21.885 M14,35.5 L25,35.5 M13,29.5 L15.29,29.5 M25,11.5 L27.646,11.5 M18,29.5 L29,29.5 M22,23.5 L33,23.5 M26,17.5 L37,17.5 M30,11.5 L41,11.5 M10.5,36.5 L30,8 M20.5,36.5 L40,8"/>
</svg>
