<svg xmlns="http://www.w3.org/2000/svg" width="16" height="16" fill="none" viewBox="0 0 16 16"><path fill="#000" d="M11 3h4v11H1V3h4V1h6zM2 13h12V4H2zm6.55-1H7.314v-1.178H8.55zm-.541-6.504q.888 0 1.367.483.453.457.452 1.245 0 .585-.246 1.01-.123.216-.633.778-.294.325-.378.54-.083.216-.083.664H7.346q0-.59.056-.862.049-.255.176-.465.128-.21.404-.514.379-.404.48-.603.15-.29.15-.654 0-.338-.133-.532-.166-.232-.492-.232-.347 0-.5.285-.154.28-.15.923H6.163V7.47q0-1.011.501-1.5.483-.474 1.345-.474M6 3h4V2H6z"/></svg>