<?xml version="1.0" encoding="utf-8"?>
<!-- Generator: Adobe Illustrator 26.0.1, SVG Export Plug-In . SVG Version: 6.00 Build 0)  -->
<svg version="1.0" xmlns="http://www.w3.org/2000/svg" xmlns:xlink="http://www.w3.org/1999/xlink" x="0px" y="0px"
	 viewBox="0 0 24 24" enable-background="new 0 0 24 24" xml:space="preserve">
<g id="SVG_x5F_24x24pt">
	<path id="backgroundBlue" fill="#2D327D" d="M0,22.5v-21C0,0.675,0.675,0,1.5,0h21C23.325,0,24,0.675,24,1.5v21
		c0,0.825-0.675,1.5-1.5,1.5h-21C0.675,24,0,23.325,0,22.5z"/>
	<g id="content">
		<path fill="#FFFFFF" d="M5.642,3v2.249H5.176L5.193,3.54L4.626,5.249H4.24L3.663,3.588L3.68,5.249H3.214V3h0.698l0.529,1.617
			L4.95,3H5.642z"/>
		<path fill="#FFFFFF" d="M7.547,4.726C7.523,4.82,7.48,4.909,7.419,4.992c-0.148,0.202-0.36,0.303-0.637,0.303
			c-0.25,0-0.451-0.079-0.601-0.237c-0.074-0.077-0.13-0.17-0.169-0.278C5.97,4.664,5.949,4.543,5.949,4.417
			c0-0.244,0.07-0.449,0.211-0.615c0.157-0.186,0.36-0.278,0.609-0.278c0.201,0,0.372,0.062,0.514,0.186
			c0.102,0.089,0.175,0.199,0.221,0.33s0.069,0.295,0.069,0.493h-1.17c0.004,0.082,0.017,0.15,0.038,0.205
			c0.06,0.147,0.175,0.22,0.345,0.22c0.083,0,0.151-0.018,0.203-0.055c0.052-0.036,0.095-0.095,0.129-0.176H7.547z M7.117,4.232
			C7.109,4.151,7.091,4.084,7.062,4.031C7.033,3.978,6.993,3.937,6.94,3.906C6.887,3.875,6.829,3.86,6.767,3.86
			c-0.099,0-0.181,0.033-0.246,0.1C6.456,4.026,6.418,4.117,6.405,4.232H7.117z"/>
		<path fill="#FFFFFF" d="M8.714,3.566v0.315H8.38V4.67c0,0.094,0.009,0.154,0.026,0.18c0.026,0.037,0.083,0.055,0.172,0.055
			c0.035,0,0.08-0.003,0.135-0.008v0.357c-0.1,0.011-0.193,0.017-0.277,0.017c-0.127,0-0.224-0.014-0.291-0.043
			c-0.104-0.046-0.168-0.13-0.194-0.252c-0.011-0.052-0.017-0.16-0.017-0.325V3.881H7.663V3.566h0.272V3.172H8.38v0.394H8.714z"/>
		<path fill="#FFFFFF" d="M10.015,3.541v0.432c-0.072-0.013-0.13-0.02-0.174-0.02c-0.166,0-0.288,0.07-0.366,0.209
			C9.431,4.241,9.409,4.371,9.409,4.553v0.695H8.963v-1.68h0.425v0.306c0.121-0.228,0.297-0.341,0.528-0.341
			C9.944,3.534,9.977,3.536,10.015,3.541z"/>
		<path fill="#FFFFFF" d="M11.004,3.523c0.244,0,0.443,0.081,0.598,0.243c0.153,0.16,0.229,0.373,0.229,0.64
			c0,0.276-0.082,0.496-0.245,0.66c-0.153,0.153-0.352,0.229-0.597,0.229c-0.261,0-0.47-0.085-0.624-0.255
			c-0.148-0.162-0.221-0.372-0.221-0.631c0-0.254,0.072-0.461,0.215-0.62C10.519,3.612,10.733,3.523,11.004,3.523z M10.981,3.871
			c-0.118,0-0.212,0.048-0.281,0.143c-0.071,0.096-0.106,0.228-0.106,0.395c0,0.173,0.035,0.306,0.105,0.398
			c0.072,0.093,0.17,0.14,0.294,0.14c0.116,0,0.208-0.043,0.275-0.128c0.077-0.094,0.115-0.231,0.115-0.411
			c0-0.168-0.034-0.299-0.102-0.392C11.21,3.919,11.11,3.871,10.981,3.871z"/>
		<rect x="3" y="20.25" fill="#FFFFFF" width="18" height="0.75"/>
		<path fill="#FFFFFF" d="M20.422,8.755c-0.066-0.719-0.364-1.179-1.202-1.179H13.81H3v0.675h2.401c0.207,0,0.375,0.168,0.375,0.375
			v5.559c0,0.207-0.168,0.375-0.375,0.375H3V19.5h17.624c0.207,0,0.375-0.168,0.375-0.375v-4.281
			C20.999,14.785,20.422,8.755,20.422,8.755z M7.713,18.172c0,0.319-0.259,0.577-0.577,0.577c-0.319,0-0.577-0.259-0.577-0.577
			V8.754c0-0.319,0.259-0.577,0.577-0.577c0.319,0,0.577,0.259,0.577,0.577V18.172z M9.65,18.172c0,0.319-0.259,0.577-0.577,0.577
			c-0.319,0-0.577-0.259-0.577-0.577V8.754c0-0.319,0.259-0.577,0.577-0.577c0.319,0,0.577,0.259,0.577,0.577V18.172z M14.98,14.185
			c0,0.207-0.168,0.375-0.375,0.375h-3.798c-0.207,0-0.375-0.168-0.375-0.375V8.626c0-0.207,0.168-0.375,0.375-0.375h3.798
			c0.207,0,0.375,0.168,0.375,0.375V14.185z M19.949,14.527l-3.934,0.032c-0.207,0-0.375-0.168-0.375-0.375V8.626
			c0-0.207,0.168-0.375,0.375-0.375h3.464c0.207,0,0.348,0.133,0.375,0.375l0.44,5.53C20.314,14.372,20.156,14.527,19.949,14.527z"
			/>
	</g>
</g>
</svg>
