<svg xmlns="http://www.w3.org/2000/svg" width="36" height="36" viewBox="0 0 36 36">
  <path fill="none" stroke="#000" d="M15.75,15.0003 L15.75,6.7503 L18,6.7503 C19.4775,6.7503 20.25,7.4958 20.25,9.0003 C20.25,10.5003 19.497,11.2473 18,11.2503 L15.75,11.2503 M17.25,17.2503 L17.25,33.0003 M12.75,3.7503 L21.75,3.7503 C22.5795,3.7503 23.25,4.4208 23.25,5.2503 L23.25,15.7503 C23.25,16.5783 22.5795,17.2503 21.75,17.2503 L12.75,17.2503 C11.922,17.2503 11.25,16.5783 11.25,15.7503 L11.25,5.2503 C11.25,4.4208 11.922,3.7503 12.75,3.7503 Z"/>
</svg>
