<svg xmlns="http://www.w3.org/2000/svg" width="24" height="24" viewBox="0 0 24 24">
  <path fill="none" stroke="#000" d="M14.5625,14.2549 L16.3335,12.4909 C16.7235,12.0999 16.7235,11.4659 16.3335,11.0749 C15.9415,10.6839 15.3075,10.6839 14.9165,11.0749 L13.1455,12.8479 L18.4545,7.5409 C18.8455,7.1499 18.8455,6.5159 18.4545,6.1249 C18.0635,5.7339 17.4285,5.7339 17.0385,6.1249 L10.5005,12.4999 L10.5025,9.5019 C10.5025,8.9479 10.0545,8.4999 9.5015,8.4999 C8.9485,8.4999 8.6555,8.9049 8.5005,9.5019 L6.4995,16.4999 L11.4545,21.7519 C11.4545,21.7519 13.1955,21.2829 15.2725,19.2059 C17.3495,17.1289 17.7485,16.7339 17.7485,16.7339 C18.1395,16.3439 18.1395,15.7089 17.7485,15.3179 C17.3575,14.9269 16.7225,14.9269 16.3325,15.3179 L15.9785,15.6709 L17.0415,14.6089 C17.4315,14.2179 17.4315,13.5839 17.0415,13.1929 C16.6495,12.8019 16.0155,12.8019 15.6245,13.1929 M11.5,7 L11.5,2 M14,6 L16,3 M9,6 L7,3"/>
</svg>
