<?xml version="1.0" encoding="utf-8"?>
<!-- Generator: Adobe Illustrator 24.2.0, SVG Export Plug-In . SVG Version: 6.00 Build 0)  -->
<svg version="1.0" id="Ebene_1" xmlns="http://www.w3.org/2000/svg" xmlns:xlink="http://www.w3.org/1999/xlink" x="0px" y="0px"
	 viewBox="0 0 24 24" enable-background="new 0 0 24 24" xml:space="preserve">
<g id="SVG_x5F_24x24pt">
	<path id="backgroundBlue" fill="#2D327D" d="M0,22.5v-21C0,0.675,0.675,0,1.5,0h21C23.325,0,24,0.675,24,1.5v21
		c0,0.825-0.675,1.5-1.5,1.5h-21C0.675,24,0,23.325,0,22.5z"/>
	<g id="content">
		<path fill="#FFFFFF" d="M20.625,17.145c0.207,0,0.375-0.168,0.375-0.375V8.017c0-0.377-0.256-0.706-0.621-0.799l-16.35-4.17l0,0
			C3.962,3.03,3.894,3.022,3.825,3.022C3.369,3.022,3,3.391,3,3.847v8.611c0,0.172,0.117,0.322,0.284,0.364l17.25,4.312l0,0
			C20.564,17.141,20.594,17.145,20.625,17.145L20.625,17.145z M7.312,5.025v4.5c0,0.207-0.168,0.375-0.375,0.375H4.125
			C3.918,9.9,3.75,9.732,3.75,9.525v-4.5c0-0.207,0.168-0.375,0.375-0.375h2.812C7.144,4.65,7.312,4.818,7.312,5.025L7.312,5.025z
			 M11.625,6.127v4.5c0,0.207-0.168,0.375-0.375,0.375H8.437c-0.207,0-0.375-0.168-0.375-0.375v-4.5
			c0-0.207,0.168-0.375,0.375-0.375h2.812C11.457,5.751,11.625,5.92,11.625,6.127L11.625,6.127z M15.937,7.225v4.5
			c0,0.207-0.168,0.375-0.375,0.375H12.75c-0.207,0-0.375-0.168-0.375-0.375v-4.5c0-0.207,0.168-0.375,0.375-0.375h2.813
			C15.77,6.85,15.937,7.018,15.937,7.225L15.937,7.225z M20.25,8.325v4.5c0,0.207-0.168,0.375-0.375,0.375h-2.812
			c-0.207,0-0.375-0.168-0.375-0.375v-4.5c0-0.207,0.168-0.375,0.375-0.375h2.812C20.082,7.95,20.25,8.118,20.25,8.325L20.25,8.325z
			"/>
		<polygon fill="#FFFFFF" points="3,15.727 21,20.227 21,21 3,16.5 3,15.727 		"/>
		<path fill="#FFFFFF" d="M16.821,17.399c0,0.6-0.487,1.088-1.088,1.088c-0.6,0-1.088-0.487-1.088-1.088
			c0-0.6,0.487-1.088,1.088-1.088C16.334,16.311,16.821,16.798,16.821,17.399L16.821,17.399z"/>
		<path fill="#FFFFFF" d="M19.527,18.131c0,0.6-0.487,1.088-1.088,1.088c-0.6,0-1.088-0.487-1.088-1.088
			c0-0.6,0.487-1.087,1.088-1.087C19.039,17.044,19.527,17.531,19.527,18.131L19.527,18.131z"/>
		<path fill="#FFFFFF" d="M9.382,15.538c0,0.6-0.487,1.088-1.088,1.088c-0.6,0-1.087-0.487-1.087-1.088
			c0-0.6,0.487-1.088,1.087-1.088C8.895,14.45,9.382,14.938,9.382,15.538L9.382,15.538z"/>
		<path fill="#FFFFFF" d="M6.62,14.861c0,0.6-0.487,1.088-1.088,1.088c-0.6,0-1.087-0.487-1.087-1.088
			c0-0.6,0.487-1.087,1.087-1.087C6.133,13.774,6.62,14.261,6.62,14.861L6.62,14.861z"/>
	</g>
</g>
</svg>
