<?xml version="1.0" encoding="utf-8"?>
<!-- Generator: Adobe Illustrator 29.6.1, SVG Export Plug-In . SVG Version: 9.03 Build 0)  -->
<svg version="1.0" xmlns="http://www.w3.org/2000/svg" xmlns:xlink="http://www.w3.org/1999/xlink" x="0px" y="0px"
	 viewBox="0 0 24 24" enable-background="new 0 0 24 24" xml:space="preserve">
<g id="SVG_x5F_24x24pt">
	<path id="backgroundBlue" fill="#2D327D" d="M0,22.5v-21C0,0.675,0.675,0,1.5,0h21C23.325,0,24,0.675,24,1.5v21
		c0,0.825-0.675,1.5-1.5,1.5h-21C0.675,24,0,23.325,0,22.5z"/>
	<g id="content">
		<polygon fill="#FFFFFF" points="2.996,14.973 20.995,20.223 20.995,20.996 2.996,15.746 		"/>
		<path fill="#FFFFFF" d="M12.005,15.868c0.081,0.827,0.655,1.523,1.452,1.758c0.797,0.235,1.657-0.037,2.173-0.688L12.005,15.868
			L12.005,15.868L12.005,15.868z"/>
		<path fill="#FFFFFF" d="M7.782,14.633c0.081,0.827,0.655,1.523,1.452,1.758c0.797,0.235,1.657-0.037,2.173-0.688L7.782,14.633
			L7.782,14.633L7.782,14.633z"/>
		<path fill="#FFFFFF" d="M17.781,6.318l3.209,0.934V6.423L9.177,2.986C8.356,2.748,7.5,3.233,7.283,4.06l-1.563,5.951
			c-0.042,0.159-0.057,0.323-0.047,0.487l0.151,2.273c0.021,0.318,0.238,0.589,0.544,0.679l14.62,4.27v-3.101l-3.275-0.947
			c-0.163-0.047-0.274-0.196-0.274-0.365V6.573C17.44,6.396,17.61,6.268,17.781,6.318z M11.401,11.492
			c0,0.177-0.17,0.305-0.34,0.256l-3.714-1.074c-0.499-0.144-0.789-0.662-0.652-1.163l1.42-5.2C8.226,3.9,8.652,3.662,9.059,3.78
			l2.067,0.601c0.162,0.047,0.274,0.196,0.274,0.365V11.492z M16.682,13.019c0,0.177-0.17,0.305-0.34,0.256l-3.909-1.131
			c-0.163-0.047-0.274-0.196-0.274-0.365V5.036c0-0.177,0.17-0.305,0.34-0.255l3.909,1.137c0.162,0.047,0.274,0.196,0.274,0.365
			V13.019z"/>
	</g>
</g>
</svg>
