<svg xmlns="http://www.w3.org/2000/svg" width="36" height="36" viewBox="0 0 36 36">
  <path fill="none" stroke="#000" d="M6.75,21 C5.094,21 3.75,19.656 3.75,18 M14.25,6.75 C14.25,8.406 12.906,9.75 11.25,9.75 C9.594,9.75 8.25,8.406 8.25,6.75 C8.25,5.094 9.594,3.75 11.25,3.75 C12.906,3.75 14.25,5.094 14.25,6.75 Z M21.75,12.75 C21.75,14.406 20.406,15.75 18.75,15.75 C17.094,15.75 15.75,14.406 15.75,12.75 C15.75,11.094 17.094,9.75 18.75,9.75 C20.406,9.75 21.75,11.094 21.75,12.75 Z M23.25,16.46565 C21.8595,16.00815 20.343,15.75015 18.75,15.75015 C17.157,15.75015 15.6405,16.00815 14.25,16.46565 M25.5,18.75 L27,18.75 M12.75,12.5655 C9.1665,14.2515 6.75,17.394 6.75,21 C6.75,24.078 8.5095,26.817 11.25,28.6035 L11.25,32.25 L14.25,32.25 L14.25,30.0345 C15.6405,30.492 17.157,30.75 18.75,30.75 C19.7895,30.75 20.787,30.6195 21.75,30.417 L21.75,32.25 L24.75,32.25 L24.75,29.415 C27.006,28.3485 28.8135,26.724 29.8275,24.75 L32.25,24.75 L32.25,18.75 L30.4155,18.75 C29.958,17.1735 29.022,15.7515 27.75,14.574 L27.75,9.75 C26.1525,9.75 24.8565,11.004 24.768,12.579"/>
</svg>
