<svg xmlns="http://www.w3.org/2000/svg" width="24" height="24" version="1.1" viewBox="0 0 24 24">
  <path fill="none" fill-rule="evenodd" stroke="#000" stroke-width="1" d="M17.5,9.5 L5.5,9.5 M17.5,9.5 C17.5,6.187 14.813,3.5 11.5,3.5 C8.187,3.5 5.5,6.187 5.5,9.5 C5.5,12.813 8.187,15.5 11.5,15.5 C14.813,15.5 17.5,12.813 17.5,9.5 Z M16.6904,6.5 L6.3094,6.5 M16.6904,12.5 L6.3094,12.5 M12.5781,3.6016 C13.7531,5.0416 14.5001,7.1456 14.5001,9.4996 C14.5001,11.8536 13.7531,13.9586 12.5781,15.3986 M10.4219,15.3984 C9.2469,13.9594 8.4999,11.8544 8.4999,9.5004 C8.4999,7.1464 9.2469,5.0414 10.4219,3.6014 M11.5,3.5 L11.5,15.5 M18.5,19.5 L18.5,20 C18.5,20.828 17.828,21.5 17,21.5 C16.172,21.5 15.5,20.828 15.5,20 L15.5,19.5 M19.5,19.5 L4.5,19.5 L4.5,18.5 L4.5,17.5 L19.5,17.5 L19.5,19.5 Z M2.5,20 L2.5,17 M2.5,18.5 L4.5,18.5 M21.5,17 L21.5,20 M21.5,18.5 L19.5,18.5 M8.5,19.5 L8.5,20 C8.5,20.828 7.828,21.5 7,21.5 C6.172,21.5 5.5,20.828 5.5,20 L5.5,19.5"/>
</svg>
