<svg xmlns="http://www.w3.org/2000/svg" width="16" height="16" fill="none" viewBox="0 0 16 16"><path fill="#000" fill-rule="evenodd" d="M2 4.14A2.14 2.14 0 0 1 4.14 2h7.72A2.14 2.14 0 0 1 14 4.14v7.719C14 13.04 13.04 14 11.86 14H4.14A2.14 2.14 0 0 1 2 11.859zM4.14 1A3.14 3.14 0 0 0 1 4.14v7.719A3.14 3.14 0 0 0 4.14 15h7.72A3.14 3.14 0 0 0 15 11.859V4.14A3.14 3.14 0 0 0 11.86 1zm6.26 6.6L8.843 6h1.165L12 8l-1.992 2H8.843l1.568-1.535H8.46V10H7.54V8.465H5.601L7.169 10H6.003L4 8l2.003-2h1.166L5.6 7.545h1.938V6h.922l-.01 1.6z" clip-rule="evenodd"/></svg>