<svg xmlns="http://www.w3.org/2000/svg" width="36" height="36" fill="none" viewBox="0 0 36 36"><path fill="#000" fill-rule="evenodd" d="m31.314 8.432-5.51 5.72.152.31c.289.581.633 1.23.988 1.9l.49.927c.513.979 1.008 1.958 1.321 2.748.155.393.277.765.327 1.082.024.159.036.327.011.49a.85.85 0 0 1-.252.506q-.149.14-.285.274l-.007.007q-.14.137-.278.266c-.18.166-.38.333-.607.45a1.4 1.4 0 0 1-.942.132c-.088.325-.271.613-.547.799a1.12 1.12 0 0 1-.937.151c-.32-.087-.608-.301-.857-.604a14.9 14.9 0 0 0-4.332-2.882l.4-.916c1.72.75 3.292 1.8 4.647 3.097l.023.023.02.026c.169.21.298.274.362.292.053.014.084.005.114-.016.086-.058.219-.278.146-.606l-.26-1.182 1.018.653c.215.138.356.182.448.193.08.01.15-.004.24-.05.103-.053.222-.144.386-.295q.118-.11.259-.248l.009-.009q.114-.112.246-.237a1 1 0 0 0-.013-.158q-.049-.313-.269-.87c-.29-.734-.762-1.67-1.277-2.652-.157-.3-.32-.605-.48-.908a88 88 0 0 1-1.007-1.937 17 17 0 0 1-.543-1.181c-.132-.33-.24-.655-.266-.923a2.53 2.53 0 0 0-1.251-1.87l-.41-.235.211-.423 1.082-2.163q-.105.024-.216.055c-.603.173-1.189.49-1.471 1.056l-.19.377-.403-.123a10.57 10.57 0 0 0-10.026 2.149l-.008.007c-2.216 1.853-3.613 4.575-4.487 7.516-.82 2.763-1.167 5.68-1.31 8.162 5.37.68 9.583 1.377 14.852 2.647-1.213-1.841-2.138-3.34-2.774-5.028-.76-2.016-1.101-4.273-1.101-7.681h1c0 3.342.334 5.466 1.036 7.328.707 1.873 1.795 3.51 3.375 5.888l.005.007.714 1.075-1.252-.313c-5.975-1.494-10.455-2.24-16.44-2.989l-.46-.057.022-.463c.128-2.617.47-5.816 1.375-8.86.902-3.04 2.377-5.969 4.8-7.996A11.57 11.57 0 0 1 21.52 8.415c.5-.69 1.262-1.034 1.872-1.208A5.6 5.6 0 0 1 24.713 7h.036v.5V7h.81l-.362.724-1.303 2.606q.191.147.36.319l6.488-3.017 2.43-1.13zm-2.58 1.236-3.363 3.492a2 2 0 0 1-.123-.451l-.001-.011-.002-.01a3.5 3.5 0 0 0-.386-1.218zM20.75 13.5a.25.25 0 1 1 .5 0 .25.25 0 0 1-.5 0m.25-1.25a1.25 1.25 0 1 0 0 2.5 1.25 1.25 0 0 0 0-2.5" clip-rule="evenodd"/></svg>