<svg class="color-immutable" xmlns="http://www.w3.org/2000/svg" width="59" height="20" fill="none" viewBox="0 0 59 20"><g clip-path="url(#a)"><path fill="#EB0000" fill-rule="evenodd" d="M2 0a2 2 0 0 0-2 2v16a2 2 0 0 0 2 2h55a2 2 0 0 0 2-2V2a2 2 0 0 0-2-2z" clip-rule="evenodd"/><path fill="#fff" d="M53.687 13.742v2.057h-8.33q0-.942.301-1.796.309-.855.862-1.471.427-.475.997-.926.578-.45 2.286-1.653.831-.578 1.163-1.076t.332-1.155q0-.76-.45-1.226-.444-.474-1.171-.474-1.788 0-1.843 2.57H45.61V8.34q0-2.103 1.178-3.259 1.148-1.123 2.967-1.123 1.614 0 2.697.918 1.179.996 1.179 2.681 0 1.472-.942 2.531-.308.348-.577.562-.27.205-1.416 1.005-1.092.759-1.566 1.162a6.3 6.3 0 0 0-.87.926zM4.28 16 6.707 4.483h2.409L6.689 16zM8.939 16l2.409-11.517h2.722c2.129 0 4.587-.033 4.587 2.723 0 1.98-1.485 3.036-3.366 3.069v.032c.627.034 1.023.43 1.172 1.057L17.568 16h-2.425l-.561-2.706c-.264-1.22-.198-2.079-1.452-2.079h-.875L11.25 16zm4.372-9.702L12.668 9.4h.841c1.238 0 2.74-.38 2.74-1.897 0-1.205-1.04-1.205-1.98-1.205zM19.19 16l2.426-11.517h6.782l-.347 1.815h-4.504l-.594 2.838h4.026l-.363 1.815h-4.043l-.676 3.234h4.554L26.055 16z"/></g><defs><clipPath id="a"><path fill="#fff" d="M0 0h59v20H0z"/></clipPath></defs></svg>