<svg width="36" height="36" viewBox="0 0 36 36" fill="none" xmlns="http://www.w3.org/2000/svg"><path fill-rule="evenodd" clip-rule="evenodd" d="m21.75 3.4.39.488L24.39 6.7h6.86v18.667l-.1.133-4.5 6-.15.2H4.75V13.034l.1-.134 4.5-6 .15-.2h6.31l1.05-1.312.39-.488.39.488 1.26 1.574 2.459-3.074.39-.488Zm5.793 7.243L25.189 7.7h4.56l-2.206 2.943Zm-.62.826L21.75 5l-2.21 2.761L23.49 12.7H26l.923-1.231ZM25.75 13.7h-20v17h20v-17Zm1 16 3.5-4.666V8.7l-3.5 4.667v16.334Zm-4.54-17-4.96-6.2-4.96 6.2h9.92Zm-11.2 0 4-5H10l-3.75 5h4.76Zm.99 5.5h7.5v-1H12v1Z" fill="#000"/></svg>