<svg xmlns="http://www.w3.org/2000/svg" width="36" height="36" fill="none" viewBox="0 0 36 36"><path fill="#000" fill-rule="evenodd" d="M25.453 5.75c-1.426-.012-2.484.126-3.243.514-.718.368-1.221.987-1.48 2.092l-.942 4.737a12.6 12.6 0 0 1 2.41-2.582c2.114-1.686 5.226-2.953 9.986-2.76l.4.016.072.392c.202 1.1.077 2.598-.363 4.141-.442 1.552-1.215 3.194-2.351 4.579-1.139 1.387-2.651 2.525-4.564 3.033a8.7 8.7 0 0 1-2.184.286c.557.344 1.104.735 1.62 1.185 1.914 1.672 3.374 4.136 3.379 7.866v.519l-.518-.018c-1.746-.06-3.117-.126-4.2-.303-1.09-.179-1.944-.479-2.624-1.048-.68-.568-1.131-1.36-1.509-2.41a21 21 0 0 1-.592-2.027c-.194.778-.384 1.45-.592 2.027-.378 1.05-.83 1.842-1.509 2.41-.68.57-1.534.87-2.624 1.048-1.083.177-2.454.242-4.2.303l-.518.018v-.519c.005-3.73 1.465-6.194 3.38-7.866.515-.45 1.062-.841 1.619-1.185a8.7 8.7 0 0 1-2.183-.286c-1.914-.508-3.426-1.646-4.565-3.033-1.136-1.385-1.909-3.027-2.351-4.579-.44-1.543-.565-3.041-.363-4.14l.073-.393.399-.016c4.76-.193 7.872 1.074 9.985 2.76a12.6 12.6 0 0 1 2.411 2.582l-.941-4.737c-.26-1.105-.763-1.724-1.481-2.092-.76-.388-1.817-.526-3.242-.514l-.01-1c1.458-.013 2.722.12 3.707.624 1.024.524 1.687 1.415 2.002 2.762l.001.009.002.008 1 5.032 1-5.032.002-.008.002-.009c.314-1.347.977-2.238 2-2.762.986-.504 2.25-.637 3.707-.624zM19.25 15.882v2.514q.382.135.794.292c1.98.623 3.663.634 5.077.258 1.672-.445 3.015-1.443 4.048-2.702 1.035-1.26 1.751-2.775 2.162-4.218.357-1.25.475-2.415.395-3.29-4.305-.095-7.057 1.083-8.903 2.556-1.793 1.43-2.769 3.163-3.487 4.437zm0 3.594v2.22c.381 1.715.686 2.99 1.033 3.955.349.97.723 1.574 1.21 1.981.486.407 1.14.664 2.143.828.906.148 2.05.215 3.546.271-.13-3.13-1.404-5.178-3.026-6.595-1.367-1.193-2.992-1.95-4.446-2.505q-.229-.073-.46-.155m-1-1.08v-2.514l-.087-.153c-.717-1.274-1.694-3.007-3.486-4.437-1.846-1.473-4.598-2.651-8.903-2.555-.08.874.038 2.038.395 3.29.41 1.442 1.127 2.956 2.162 4.217s2.376 2.257 4.048 2.702c1.414.376 3.097.365 5.077-.258q.412-.157.794-.292m-4.905 3.74c1.366-1.193 2.992-1.95 4.446-2.505q.227-.073.459-.155v2.22c-.381 1.715-.686 2.99-1.033 3.955-.349.97-.723 1.574-1.21 1.981-.486.407-1.14.664-2.143.828-.906.148-2.05.215-3.546.271.13-3.13 1.405-5.178 3.027-6.595" clip-rule="evenodd"/></svg>