<svg xmlns="http://www.w3.org/2000/svg" width="36" height="36" fill="none" viewBox="0 0 36 36"><path fill="#000" fill-rule="evenodd" d="M26.039 16.065a2.84 2.84 0 0 0-1.86-1.08c.247-1.254.066-2.374-.416-3.294a4.66 4.66 0 0 0-2.555-2.204c-1.997-.725-4.471-.138-5.8 2.23-2.192-1.226-5.127.33-5.134 3.133-.744.144-1.342.586-1.758 1.167-.504.705-.753 1.624-.714 2.53.04.91.372 1.841 1.073 2.548.708.713 1.75 1.156 3.125 1.156h10.5c1.32 0 2.35-.447 3.068-1.148a3.97 3.97 0 0 0 1.163-2.518c.074-.9-.15-1.822-.692-2.52m-9.981-3.413c1.01-2.29 3.124-2.837 4.81-2.225.848.308 1.58.908 2.01 1.728.426.814.572 1.879.193 3.153l-.2.67.7-.028c.776-.03 1.325.273 1.678.728.364.47.543 1.133.486 1.825a2.97 2.97 0 0 1-.866 1.884c-.515.504-1.287.864-2.369.864H12c-1.15 0-1.922-.364-2.415-.86-.498-.503-.753-1.184-.784-1.887-.03-.707.167-1.4.528-1.905.355-.495.855-.798 1.471-.798h.563l-.066-.56c-.296-2.472 2.358-3.737 3.986-2.403l.51.416zM11.25 24l-.447-.223-.001.001-.002.004-.007.015-.025.052a12 12 0 0 0-.357.81 8 8 0 0 0-.275.786c-.074.26-.136.548-.136.805a1.25 1.25 0 0 0 2.5 0c0-.257-.062-.545-.136-.805a8 8 0 0 0-.275-.787 13 13 0 0 0-.357-.81l-.025-.051-.007-.015-.002-.004v-.001zm-.447-.223.447.223.447-.223-.447-.895zm.295 1.943a6 6 0 0 1 .152-.459c.057.154.11.31.152.459.066.231.098.413.098.53a.25.25 0 0 1-.5 0c0-.117.032-.299.098-.53m5.705-1.943.447.223.447-.223.001.001.002.004.007.015.026.052a12 12 0 0 1 .356.81c.098.243.198.518.275.786.074.26.136.548.136.805a1.25 1.25 0 0 1-2.5 0c0-.257.062-.545.136-.805.077-.268.177-.543.275-.787a13 13 0 0 1 .356-.81l.026-.051.007-.015.002-.004zm.447.223-.447-.223.447-.895.447.895zm0 1.261a6 6 0 0 0-.152.459 2.1 2.1 0 0 0-.098.53.25.25 0 0 0 .5 0c0-.117-.032-.299-.098-.53a6 6 0 0 0-.152-.459m5.553-1.484.447.223zl-.001.001-.002.004-.007.015-.026.052a12 12 0 0 0-.356.81 8 8 0 0 0-.275.786c-.074.26-.136.548-.136.805a1.25 1.25 0 0 0 2.5 0c0-.257-.062-.545-.136-.805a8 8 0 0 0-.275-.787 13 13 0 0 0-.356-.81l-.026-.051-.007-.015-.002-.004v-.001L23.25 24l.447-.223-.447-.895zm.295 1.943a6 6 0 0 1 .152-.459c.057.154.11.31.152.459.066.231.098.413.098.53a.25.25 0 0 1-.5 0c0-.117.032-.299.098-.53m-3.295 1.057.447.223.447-.223.001.001.002.004.007.015.026.052a12 12 0 0 1 .356.81c.098.243.198.518.275.786.074.26.136.548.136.805a1.25 1.25 0 0 1-2.5 0c0-.257.062-.545.136-.805.077-.268.177-.543.275-.787a13 13 0 0 1 .356-.81l.026-.051.007-.015.002-.004zm.447.223-.447-.223.447-.895.447.895zm0 1.261a6 6 0 0 0-.152.459 2.1 2.1 0 0 0-.098.53.25.25 0 0 0 .5 0c0-.117-.032-.299-.098-.53a6 6 0 0 0-.152-.459m-6.447-1.484.447.223zl-.001.001-.002.004-.007.015-.025.052a12 12 0 0 0-.357.81 8 8 0 0 0-.275.786c-.074.26-.136.548-.136.805a1.25 1.25 0 0 0 2.5 0c0-.257-.062-.545-.136-.805a8 8 0 0 0-.275-.787 13 13 0 0 0-.357-.81l-.025-.051-.007-.015-.002-.004v-.001L14.25 27l.447-.223-.447-.895zm.295 1.943a6 6 0 0 1 .152-.459c.057.154.11.31.152.459.066.231.098.413.098.53a.25.25 0 0 1-.5 0c0-.117.032-.299.098-.53" clip-rule="evenodd"/></svg>