<svg xmlns="http://www.w3.org/2000/svg" width="24" height="24" fill="none" viewBox="0 0 24 24"><path fill="#000" fill-rule="evenodd" d="M8 2h8v1h-1.732l-1.333 2H16a3 3 0 0 1 3 3v10h-2.191l.5 1H18v1h-.191l.5 1H19v1H5v-1h.691l.5-1H6v-1h.691l.5-1H5V8a3 3 0 0 1 3-3h3.065L9.732 3H8zm4 2.599L13.066 3h-2.132zM10 8V7h4v1zM6.809 21l.5-1h9.382l.5 1zm9.382-2-.5-1H8.309l-.5 1zM6 13v4h12v-4zm12-1V8a2 2 0 0 0-2-2H8a2 2 0 0 0-2 2v4zm-4 3a1 1 0 1 1 2.002.001A1 1 0 0 1 14 15m-5-1A1 1 0 1 0 9.002 16 1 1 0 0 0 9 14" clip-rule="evenodd"/></svg>