<svg xmlns="http://www.w3.org/2000/svg" width="24" height="24" fill="none" viewBox="0 0 24 24"><path fill="#000" fill-rule="evenodd" d="M11.5 5c-.257 0-.5.243-.5.5s.243.5.5.5.5-.243.5-.5-.243-.5-.5-.5m-1.5.5c0-.81.69-1.5 1.5-1.5s1.5.69 1.5 1.5S12.309 7 11.5 7 10 6.31 10 5.5M11 9v4h1V9zm-1 .434v6.914l-1.916 2.874.832.555 2-3 .084-.126V14h1.293L14 15.707V20h1v-4.707l-.146-.147L13 13.293V9.707l1.146 1.146.147.147H17v-1h-2.293l-1.853-1.854L12.707 8H10.35l-.126.084-3 2-.223.148V14h1v-3.233z" clip-rule="evenodd"/></svg>