<svg xmlns="http://www.w3.org/2000/svg" width="10" height="16" fill="none" viewBox="0 0 10 16"><path fill="#000" d="M7.243 14.527a.66.66 0 0 1-.784-.51L4.278 3.755A3.3 3.3 0 0 1 4.59 1.52l.09-.168a.661.661 0 1 1 1.168.619l-.09.168a1.98 1.98 0 0 0-.187 1.341l.609 2.863a.96.96 0 0 1 .504.162c.242.159.407.405.516.61.094.178.165.361.215.511l.656-.054c.22-.019.42.128.467.343l.02.091.145.686.061.288a.44.44 0 0 1-.34.523l-1.505.32.833 3.92a.66.66 0 0 1-.509.784M2.122 8.751a3.4 3.4 0 0 1-.011-.554c.016-.232.066-.524.222-.767a.96.96 0 0 1 .396-.353L2.12 4.214a1.98 1.98 0 0 0-.717-1.15l-.15-.116a.661.661 0 0 1 .816-1.041l.15.117a3.3 3.3 0 0 1 1.195 1.915l2.181 10.262a.661.661 0 1 1-1.294.275l-.833-3.92-1.505.32a.44.44 0 0 1-.523-.34l-.061-.287a21 21 0 0 1-.147-.686l-.018-.09a.44.44 0 0 1 .287-.505z"/></svg>