<svg xmlns="http://www.w3.org/2000/svg" width="24" height="24" fill="none" viewBox="0 0 24 24"><path fill="#000" fill-rule="evenodd" d="M11.5 2c-2.179 0-4.12.191-5.24.495l.262.965C7.515 3.19 9.352 3 11.5 3c1.638 0 3.11.111 4.16.286.397.066.72.14.965.214a8 8 0 0 1-.965.214C14.61 3.889 13.138 4 11.5 4c-1.431 0-2.736-.085-3.746-.223l-.136.99C8.682 4.914 10.033 5 11.5 5c1.675 0 3.204-.113 4.325-.3A8 8 0 0 0 17 4.43V9.5c0 .078-.073.287-.544.56-.44.255-1.102.486-1.935.656l.199.98q.175-.037.344-.076l.522.601c.319-.277.594-.609.752-.996q.34-.139.62-.3C17.496 10.613 18 10.145 18 9.5v-6c0-.287-.175-.482-.306-.59a1.8 1.8 0 0 0-.482-.264c-.352-.14-.831-.254-1.387-.346-1.12-.187-2.65-.3-4.325-.3m5.568 1.309-.002.002zM3.354 2.646l16 16-.707.707-1.581-1.58c-.248.673-.636 1.432-1.24 1.978-1.38 1.252-2.586 2.216-4.326 2.216s-2.942-.95-4.328-2.216c-.713-.647-1.124-1.594-1.358-2.327a9 9 0 0 1-.31-1.328l-.004-.024v-.008l-.001-.001.496-.063-.496.062-.001-.008-.495-4.55.994-.108.495 4.545.002.015.01.065q.013.089.045.253c.043.216.113.515.218.847.216.678.561 1.421 1.078 1.89h.001c1.39 1.272 2.337 1.956 3.654 1.956s2.263-.695 3.655-1.956c.563-.51.913-1.332 1.12-2.03l-2.157-2.156a.75.75 0 1 1-.193-.193l-1.233-1.234c-.374.06-.77.103-1.192.103-1.201 0-2.313-.248-3.179-.675-.757-.372-1.387-.913-1.66-1.599a4.2 4.2 0 0 1-.999-.556C5.302 10.387 5 9.995 5 9.501V5.706L2.646 3.353zm5.037 9.075q.168.108.372.208c.708.349 1.665.572 2.737.572q.145 0 .286-.008L11.292 12a16.4 16.4 0 0 1-2.901-.278M6 6.707l4.249 4.248c-1.106-.08-2.083-.265-2.833-.515-.514-.171-.894-.364-1.135-.554C6.034 9.69 6 9.557 6 9.5zm3.958 10.857c.402.225.942.436 1.542.436s1.14-.211 1.542-.436a4 4 0 0 0 .612-.426l.005-.004.341.366.341.365v.001l-.002.002-.005.004-.013.012a3 3 0 0 1-.207.17 5 5 0 0 1-.583.382c-.491.275-1.201.564-2.031.564s-1.54-.29-2.03-.564a5 5 0 0 1-.746-.513l-.045-.04-.013-.011-.005-.004-.001-.002h-.001L9 17.5l.341-.366.005.004.027.024q.04.034.12.097c.108.082.266.193.465.305m7.78-3.683.26-2.377-.995-.108-.259 2.377zm-4.863-4.42 1.025-.96H12l-1-1V6h1v1.5h1.9L12.3 6h1.2l2 2-2.06 2.06zM10.7 6.001l-.664.621L9.5 6zM9.5 14.5a.75.75 0 1 0 0 1.5.75.75 0 0 0 0-1.5" clip-rule="evenodd"/></svg>