<svg width="24" height="24" viewBox="0 0 24 24" fill="none" xmlns="http://www.w3.org/2000/svg"><path fill-rule="evenodd" clip-rule="evenodd" d="M11.5 2c-2.179 0-4.12.191-5.24.495l.262.965C7.515 3.19 9.352 3 11.5 3c1.638 0 3.11.111 4.16.286.397.066.72.14.965.214a7.786 7.786 0 0 1-.965.214C14.61 3.889 13.138 4 11.5 4c-1.431 0-2.736-.085-3.746-.223l-.136.99C8.682 4.914 10.033 5 11.5 5c1.675 0 3.204-.113 4.325-.3A8.327 8.327 0 0 0 17 4.43V9.5c0 .078-.073.287-.544.56-.44.255-1.102.486-1.935.656l.199.98c.117-.024.231-.05.344-.076l.522.601c.319-.277.594-.609.752-.996.226-.092.434-.193.62-.3.538-.312 1.042-.78 1.042-1.425v-6c0-.287-.175-.482-.306-.59a1.83 1.83 0 0 0-.482-.264c-.352-.14-.831-.254-1.387-.346-1.12-.187-2.65-.3-4.325-.3Zm5.568 1.309-.002.002.002-.002ZM3.354 2.646l16 16-.707.707-1.581-1.58c-.248.673-.636 1.432-1.24 1.978-1.38 1.252-2.586 2.216-4.326 2.216-1.739 0-2.942-.95-4.328-2.216-.713-.647-1.124-1.594-1.358-2.327a8.955 8.955 0 0 1-.31-1.328l-.004-.024v-.008l-.001-.001.496-.063-.496.062-.001-.008-.495-4.55.994-.108.495 4.545.002.015.01.065a7.961 7.961 0 0 0 .264 1.1c.215.678.56 1.421 1.077 1.89h.001c1.39 1.272 2.337 1.956 3.654 1.956 1.316 0 2.263-.695 3.655-1.956.563-.51.913-1.332 1.12-2.03l-2.157-2.156a.75.75 0 1 1-.193-.193l-1.233-1.234c-.374.06-.77.103-1.192.103-1.201 0-2.313-.248-3.179-.675-.757-.372-1.387-.913-1.66-1.599a4.163 4.163 0 0 1-.999-.556C5.302 10.387 5 9.995 5 9.501V5.706L2.646 3.353l.708-.707Zm5.037 9.075c.112.072.236.142.372.208.708.349 1.665.572 2.737.572.097 0 .192-.003.286-.008L11.292 12a16.36 16.36 0 0 1-2.901-.278ZM6 6.707l4.248 4.248c-1.105-.08-2.082-.265-2.832-.515-.514-.171-.894-.364-1.135-.554C6.034 9.69 6 9.557 6 9.5V6.707Zm3.958 10.857c.402.225.942.436 1.542.436.6 0 1.14-.211 1.542-.436a3.96 3.96 0 0 0 .612-.426l.005-.004.341.366.341.365v.001l-.002.002-.005.004-.013.012a2.79 2.79 0 0 1-.207.17 4.981 4.981 0 0 1-.583.382c-.491.275-1.201.564-2.031.564-.83 0-1.54-.29-2.03-.564a4.98 4.98 0 0 1-.746-.513 2.575 2.575 0 0 1-.045-.04l-.013-.011-.005-.004-.001-.002h-.001L9 17.5l.341-.366.005.004.027.024a3.959 3.959 0 0 0 .585.401Zm7.78-3.683.26-2.377-.995-.108-.259 2.377.994.108Zm-4.863-4.42 1.025-.96H12l-1-1V6h1v1.5h1.9L12.3 6h1.2l2 2-2.06 2.06-.565-.6ZM10.7 6.001l-.664.621L9.5 6h1.2ZM9.5 14.5a.75.75 0 1 0 0 1.5.75.75 0 0 0 0-1.5Z" fill="#000"/></svg>