<?xml version="1.0" encoding="utf-8"?>
<!-- Generator: Adobe Illustrator 24.2.0, SVG Export Plug-In . SVG Version: 6.00 Build 0)  -->
<svg version="1.0" id="Inhalt" xmlns="http://www.w3.org/2000/svg" xmlns:xlink="http://www.w3.org/1999/xlink" x="0px" y="0px"
	 viewBox="0 0 24 24" enable-background="new 0 0 24 24" xml:space="preserve">
<g id="SVG_x5F_24x24pt">
	<path id="backgroundBlue" fill="#2D327D" d="M0,22.5v-21C0,0.675,0.675,0,1.5,0h21C23.325,0,24,0.675,24,1.5v21
		c0,0.825-0.675,1.5-1.5,1.5h-21C0.675,24,0,23.325,0,22.5z"/>
	<g id="content">
		<path fill="#FFFFFF" d="M19.811,15.311c-0.583-0.583-1.464-0.657-1.957-0.164c-0.341,0.341-1.088,1.088-1.518,1.518l-3.586-2.629
			V7.5c0,0,0,0,0,0c-0.001-0.484-0.235-0.959-0.668-1.248C11.826,6.081,11.536,6,11.25,6c0,0,0,0,0,0h0c-0.004,0-0.008,0-0.012,0
			H7.875c-0.19,0-0.358,0.095-0.46,0.24c0,0,0,0,0,0L5.617,8.804L5.472,8.698C5.305,8.575,5.07,8.611,4.948,8.778
			C4.825,8.945,4.861,9.18,5.028,9.302l0.158,0.116L5.18,9.427c-0.178,0.254-0.117,0.605,0.138,0.784
			c0.098,0.069,0.211,0.102,0.322,0.102c0.173,0,0.344-0.08,0.453-0.229l0.793,0.582l0.416-0.625L6.524,9.469l1.644-2.344h1.53
			l-2.695,4.043c-0.074,0.111-0.131,0.228-0.172,0.349c-0.001,0.003-0.002,0.006-0.003,0.009l-2.829,8.487
			c-0.131,0.393,0.081,0.818,0.474,0.949C4.551,20.988,4.631,21,4.709,21c0.314,0,0.607-0.199,0.711-0.513l2.496-7.488L9,16.61v3.64
			C9,20.664,9.336,21,9.75,21c0.414,0,0.75-0.336,0.75-0.75v-3.738c0-0.017,0-0.033-0.001-0.05c0-0.001,0-0.002,0-0.003
			c-0.001-0.011-0.001-0.022-0.002-0.033c0-0.004-0.001-0.009-0.001-0.013c-0.001-0.007-0.002-0.015-0.003-0.022
			c-0.001-0.008-0.003-0.016-0.004-0.024c-0.001-0.004-0.001-0.007-0.002-0.011c-0.002-0.011-0.005-0.022-0.007-0.034
			c0-0.001,0-0.001,0-0.002c-0.004-0.017-0.009-0.033-0.014-0.049l-1.013-3.375c0.016-0.021,0.031-0.043,0.046-0.065l2.127-3.19
			v3.568l-1.295-0.95l-0.416,0.625l1.711,1.255v0.485c0,0.311,0.252,0.562,0.562,0.562c0.207,0,0.388-0.112,0.485-0.279l3.105,2.277
			c-0.123,0.092-0.257,0.179-0.363,0.232l-0.829,0.415c-0.184,0.092-0.437,0.303-0.56,0.468L12,21h9v-4.5L19.811,15.311z"/>
		<path fill="#FFFFFF" d="M13.5,6.75c0.828,0,1.5-0.672,1.5-1.5c0-0.828-0.672-1.5-1.5-1.5c-0.828,0-1.5,0.672-1.5,1.5
			C12,6.078,12.672,6.75,13.5,6.75z"/>
	</g>
</g>
</svg>
