<svg xmlns="http://www.w3.org/2000/svg" width="28" height="16" fill="none" viewBox="0 0 28 16"><path fill="#000" fill-rule="evenodd" d="M22 3a7.06 7.06 0 0 1 3.91 1l.7-2.42A13.2 13.2 0 0 0 21.95.8c-5.04 0-8.38 3.14-8.38 8.24 0 4.32 2.74 6.2 6.84 6.2a11.3 11.3 0 0 0 3.74-.62L25.75 7h-5.66l-.5 2.16h3l-.78 3.7a3.7 3.7 0 0 1-1.38.14 3.88 3.88 0 0 1-3.97-4c0-3.34 2.14-6 5.54-6M1.39 15h2.8l1.12-5.38h1.62c3.12 0 5.9-1.52 5.9-5S9.29 1 6.71 1H4.39zm5.4-7.5h-1l.9-4.26h.88c1.2 0 2.34.3 2.34 1.72 0 1.74-1.58 2.54-3.12 2.54" clip-rule="evenodd"/></svg>