<svg xmlns="http://www.w3.org/2000/svg" width="48" height="48" fill="none" viewBox="0 0 48 48"><path fill="#000" fill-rule="evenodd" d="m21.5 5.667.4.533 9.006 12-.624.747-.276-.138v2.81l-.053.106L29 23.619v4.154l11.968-.772.064.998L10.3 29.982l-2.382 3.963 33.054-1.944.058.998L8.5 34.913v2.056L40.97 35l.06.998-3.028.184V39h-1v-2.757l-13.001.788V40h-1v-2.908L10 37.88V41H9v-3.06l-.97.06-.53.031v-3.06L7.03 35l-.947.056.488-.812 3.005-5 .135-.225.262-.017 4.032-.26v-5.123l-.952-1.893-.053-.106V18.81l-.276.137-.624-.747 9-12zm-6.495 23.01 1.001-.065V23.64l-1 .25zm2.001-.13L21 28.29V23.5h-3.994zM22 28.225l4-.258V23.5h-4zm5-.323 1-.064V23.89l-1-.25zm.178-5.248 1.055.264.609-1.21-1.069-.532zm-.383-1.727-.633 1.573H22V20.53zm1.211-.753 1 .498V18.31l-1-.5zm-1-2.865v2.632L22 19.525v-2.973l4.365.436zM21 22.5v-1.97l-4.79.397.634 1.573zm0-2.974v-2.973l-4.359.435-.641.321v2.632zm-7-1.217 1-.5v2.365l-1 .498zm.164 3.399 1.069-.532.595 1.478-1.055.264zM21.5 7.333l-7.33 9.773 2.106-1.053.083-.041.091-.01 5-.5.025-.002h.056l.025.003 5 .5.091.009.083.04 2.104 1.053z" clip-rule="evenodd"/></svg>