<svg xmlns="http://www.w3.org/2000/svg" width="24" height="24" fill="none" viewBox="0 0 24 24"><path fill="#000" d="M20 18c-1.103 0-2 .896-2 2 0 1.103.897 2 2 2s2-.897 2-2c0-1.104-.897-2-2-2m0 1c.55 0 1 .449 1 1s-.45 1-1 1-1-.45-1-1c0-.551.45-1 1-1m-16.354.646.708.707 15-15-.707-.707zM18 9h1v7.035A3.51 3.51 0 0 0 16.036 19H8v1h9v-.5c0-1.378 1.122-2.5 2.5-2.5h.5V8h-2zM6.085 2.777l1.847 2.768-.745 1.636-.16-.047a4 4 0 0 0-4.724 2.34A4 4 0 0 0 4 14.464l.25-.432.25-.434A3 3 0 0 1 6.77 8.1l-1.225 2.693.91.414L7.68 8.515a3 3 0 0 1 1.135 1.45l.47-.173.469-.171a4 4 0 0 0-1.656-2.027L8.823 6h5.178V5H8.769L7.436 3H10V2H5.566zM13 4h3V3h-3z"/></svg>