<svg xmlns="http://www.w3.org/2000/svg" width="48" height="48" viewBox="0 0 48 48">
  <path fill="none" stroke="#000" d="M12.5,39.5 L36.5,39.5 L36.5,9.5 L12.5,9.5 L12.5,39.5 Z M30.4697,9.5 L28.6447,5.757 L20.9707,9.5 L30.4697,9.5 Z M18.3994,39.5 L20.2244,43.242 L27.8974,39.5 L18.3994,39.5 Z M36.5,35.3037 L41.796,32.7217 L36.5,21.8647 L36.5,35.3037 Z M12.5,13.6318 L7.073,16.2778 L12.5,27.4038 L12.5,13.6318 Z M21.9287,15.5107 C21.9287,16.6297 21.0937,17.4997 19.9997,17.4997 C18.9067,17.4997 18.0717,16.6197 18.0717,15.4997 C18.0717,14.3797 18.9067,13.4997 19.9997,13.4997 C21.0937,13.4997 21.9287,14.3907 21.9287,15.5107 Z M18.6875,16.9814 C16.9285,17.9034 15.4995,20.5384 15.4995,23.5004 L24.4995,23.5004 C24.4995,20.5404 23.0735,17.9044 21.3165,16.9814 M27,23.5 L34,23.5 M27,19.5 L34,19.5 M27,15.5 L34,15.5 M15,27.5 L34,27.5 M15,31.5 L34,31.5 M17,35.5 L19,35.5 M20,35.5 L22,35.5 M23,35.5 L25,35.5"/>
</svg>
