<svg xmlns="http://www.w3.org/2000/svg" width="36" height="36" fill="none" viewBox="0 0 36 36"><path fill="#000" fill-rule="evenodd" d="M3.25 3.25h29.5v29.5H3.25V3.25m1 1v27.5h27.5V4.25zm8 17.5V15h1v6.25h6v7.25h-1v-6.25h-6zM7 22.8c0-2.135 1.155-3.97 2.993-4.805l.414.91C8.945 19.57 8 21.035 8 22.8c0 2.424 2.026 4.45 4.45 4.45 1.732 0 3.23-1.067 4.061-2.59l.878.48c-.97 1.777-2.771 3.11-4.939 3.11C9.474 28.25 7 25.776 7 22.8M12.5 12a.25.25 0 1 1 .5 0 .25.25 0 0 1-.5 0m.25-1.25a1.25 1.25 0 1 0 0 2.5 1.25 1.25 0 0 0 0-2.5m7.544-2.441c.369-.369.877-.559 1.44-.559h4.5c1.209 0 2 1.007 2 2v.882h.462v.25l.002 1.5v.25h-.463v3.618h-.002v.744h-2.5v-.744h-3.499V17h-2.5v-4.368h-.453v-.25l.001-1.5v-.25h.453V9.75c0-.564.19-1.072.559-1.441m.707.707c-.156.156-.266.398-.266.734v2.5h6.5v-2.5c0-.507-.408-1-1-1h-4.5c-.337 0-.578.11-.734.266m6.234 4.234h-6.5v2h6.5z" clip-rule="evenodd"/></svg>