<svg class="color-immutable" xmlns="http://www.w3.org/2000/svg" width="59" height="20" fill="none" viewBox="0 0 59 20"><g clip-path="url(#a)"><path fill="#EB0000" fill-rule="evenodd" d="M2 0a2 2 0 0 0-2 2v16a2 2 0 0 0 2 2h55a2 2 0 0 0 2-2V2a2 2 0 0 0-2-2z" clip-rule="evenodd"/><path fill="#fff" d="M9.388 4.2h4.042L8.43 15.8h-4.06zM26.092 12.366a.92.92 0 0 0 .843-.553L30.216 4.2H16.13l-5.001 11.6h4.025l3.786-8.69h5.973l-1.197 2.775-5.209-.019L22.71 15.8h4.582l-3.114-3.434zM44.67 13.742v2.057h-8.33q0-.942.3-1.796.31-.855.863-1.471.427-.475.997-.926.577-.45 2.286-1.653.83-.578 1.162-1.076.333-.498.333-1.155 0-.76-.451-1.226-.444-.474-1.171-.474-1.788 0-1.843 2.57h-2.223V8.34q0-2.103 1.179-3.259 1.146-1.123 2.966-1.123 1.614 0 2.697.918 1.18.996 1.18 2.681 0 1.472-.942 2.531-.309.348-.578.562-.268.205-1.416 1.005-1.091.759-1.566 1.162a6.4 6.4 0 0 0-.87.926zM53.79 11.203v1.954h-1.456v2.642H50.08v-2.642h-4.825v-2.168l4.944-6.755h2.135v6.969zm-3.663.024V6.922l-2.974 4.304z"/></g><defs><clipPath id="a"><path fill="#fff" d="M0 0h59v20H0z"/></clipPath></defs></svg>