<svg width="48" height="48" viewBox="0 0 48 48" fill="none" xmlns="http://www.w3.org/2000/svg"><path fill-rule="evenodd" clip-rule="evenodd" d="M31.933 8.211c-.262.498-.357 1.158-.117 1.965l.2.67-.699-.027c-.466-.019-.79.16-1.001.424-.222.277-.34.674-.312 1.095.029.418.2.829.518 1.134.313.3.798.528 1.515.528h6.996c.73 0 1.2-.229 1.492-.522.298-.299.454-.709.473-1.14.02-.435-.104-.857-.32-1.158-.21-.292-.496-.46-.845-.46h-.563l.067-.56c.178-1.488-1.416-2.236-2.386-1.444l-.508.414-.265-.6c-.635-1.43-1.947-1.765-2.997-1.386-.53.191-.983.563-1.248 1.067Zm4.893-.591c-.945-1.533-2.624-1.908-3.984-1.417-.745.27-1.403.8-1.794 1.543-.318.605-.447 1.329-.323 2.129a2.101 2.101 0 0 0-1.19.742c-.4.499-.572 1.153-.528 1.79a2.73 2.73 0 0 0 .823 1.786c.52.5 1.264.807 2.207.807h6.996c.953 0 1.692-.306 2.2-.816.502-.503.736-1.164.764-1.802.028-.636-.147-1.284-.507-1.785a2.065 2.065 0 0 0-1.142-.811c-.093-1.846-2.01-2.88-3.522-2.166ZM22.374 33.763A2.915 2.915 0 0 1 24.377 35h10.34c2.202 0 3.73-.697 4.721-1.692.998-1.002 1.496-2.348 1.556-3.715.06-1.371-.323-2.73-1.044-3.733-.714-.994-1.749-1.63-3.034-1.63h-.563l.067-.56c.584-4.872-4.703-7.43-7.984-4.754l-.507.414-.266-.6c-1.946-4.392-6.057-5.467-9.337-4.282-1.645.594-3.07 1.755-3.91 3.35-.836 1.59-1.106 3.644-.384 6.062l.2.67-.7-.027c-2.027-.081-3.398.985-4.067 2.473-.574 1.275-.628 2.86-.098 4.28 1.04-1.154 2.801-1.546 4.24-.746 1.328-2.358 3.8-2.94 5.796-2.22 1.063.384 2 1.14 2.554 2.195.481.915.662 2.03.417 3.278ZM8.727 32.286c-.923-1.824-.952-3.992-.174-5.72.745-1.656 2.235-2.909 4.35-3.054-.57-2.384-.262-4.486.628-6.179.965-1.835 2.596-3.154 4.456-3.826 3.584-1.295 8.05-.189 10.325 4.262 3.856-2.525 9.39.302 9.145 5.49 1.404.16 2.532.94 3.305 2.018.865 1.203 1.3 2.788 1.23 4.36-.068 1.575-.644 3.171-1.846 4.377C38.94 35.225 37.142 36 34.717 36H24.85c.125.431.172.889.14 1.343a3.844 3.844 0 0 1-1.158 2.517c-.728.7-1.78 1.14-3.137 1.14H10.2c-1.374 0-2.415-.44-3.123-1.15-.701-.704-1.033-1.632-1.073-2.538-.04-.903.21-1.819.714-2.521.416-.58 1.013-1.02 1.756-1.162a3.64 3.64 0 0 1 .253-1.343Zm10.336-3.055c-1.686-.61-3.799-.064-4.808 2.214l-.265.6-.508-.415c-1.63-1.33-4.28-.065-3.985 2.39l.067.56H9c-.616 0-1.116.301-1.47.794-.36.502-.558 1.191-.527 1.894.03.699.285 1.376.783 1.876.492.494 1.263.856 2.414.856h10.495c1.131 0 1.924-.362 2.445-.862a2.844 2.844 0 0 0 .853-1.864c.047-.685-.144-1.345-.521-1.815-.368-.458-.93-.762-1.708-.73l-.7.027.2-.67c.38-1.268.234-2.326-.192-3.136a3.658 3.658 0 0 0-2.01-1.72Z" fill="#000"/></svg>