<svg xmlns="http://www.w3.org/2000/svg" width="24" height="24" version="1.1" viewBox="0 0 24 24">
  <path fill="none" fill-rule="evenodd" stroke="#000" stroke-width="1" d="M7,20.5002 L17,20.5002 M11.5,20.5002 L11.5,16.5002 M12.5,16.5002 L12.5,20.5002 M10.5,14.5002 L5,14.5002 M13.5,12.7683 L16.25,8.0053 M17.5,14.5002 L20,14.5002 M16.8301,12.0002 L18.9951,10.7502 M12.5,9.5002 L12.5,7.0002 M10,10.1701 L8.75,8.0051 M8.1699,12.0002 L6.0049,10.7502 M17.084,16.4997 C17.349,15.8877 17.5,15.2137 17.5,14.4997 C17.5,11.7237 15.276,9.4997 12.5,9.4997 C9.724,9.4997 7.5,11.7237 7.5,14.4997 C7.5,15.2137 7.651,15.8877 7.917,16.4997 M10.5,14.5002 C10.5,13.3782 11.378,12.5002 12.5,12.5002 C13.622,12.5002 14.5,13.3782 14.5,14.5002 C14.5,15.6222 13.622,16.5002 12.5,16.5002 C11.378,16.5002 10.5,15.6222 10.5,14.5002 Z M2.5,16.5 L21.5,16.5 L21.5,5.5 L2.5,5.5 L2.5,16.5 Z"/>
</svg>
