<svg xmlns="http://www.w3.org/2000/svg" width="30" height="16" fill="none" viewBox="0 0 30 16"><path fill="#000" fill-rule="evenodd" d="M21.54 2.75c0-.96-.79-1.75-1.75-1.75h-15c-.96 0-1.75.79-1.75 1.75V12h18.5zm-1.5 7.75H4.54V2.75c0-.14.11-.25.25-.25h15c.14 0 .25.11.25.25zM14.39 13v1h-4v-1h-9.1c0 1.1.9 2 2 2h18c1.1 0 2-.9 2-2zM25.997 1h-3.388v6.996h1.526V5.244h1.374q.732 0 1.033.288.306.282.364 1.024.058.832.09 1.062.039.23.12.378h1.594l-.067-.081q-.139-.177-.206-.905-.09-.99-.148-1.268a1.5 1.5 0 0 0-.225-.531 1.18 1.18 0 0 0-.727-.517q.525-.196.818-.65.297-.456.297-1.068 0-.54-.235-.971a1.76 1.76 0 0 0-.68-.69Q27.003 1 25.998 1m-1.862 3.125V2.2h1.522q.67 0 .981.23t.311.727q0 .512-.364.766-.287.2-.99.2z" clip-rule="evenodd"/></svg>