<svg xmlns="http://www.w3.org/2000/svg" width="24" height="24" fill="none" viewBox="0 0 24 24"><path fill="#000" fill-rule="evenodd" d="M2 4.5A2.5 2.5 0 0 1 6.5 3h5.207l.147.147.984.984.353.353-.353.354-1.015 1.016-.147.146H6.5A2.5 2.5 0 0 1 2 4.5m5 0q0-.257-.05-.5h4.343l.484.484-.515.516H6.95Q7 4.758 7 4.5M4.5 3a1.5 1.5 0 1 0 0 3 1.5 1.5 0 0 0 0-3m-2 5H2v14h20V8H2.5M3 21V9h18v12zm2-7.5c0-.829.672-1.5 1.5-1.5H10v-1h4v1h3.5c.828 0 1.5.671 1.5 1.5v4a1.5 1.5 0 0 1-1.5 1.5h-11A1.5 1.5 0 0 1 5 17.5zm1.5-.5a.5.5 0 0 0-.5.5v4a.5.5 0 0 0 .5.5h11a.5.5 0 0 0 .5-.5v-4a.5.5 0 0 0-.5-.5z" clip-rule="evenodd"/></svg>