<svg width="36" height="36" viewBox="0 0 36 36" fill="none" xmlns="http://www.w3.org/2000/svg"><path fill-rule="evenodd" clip-rule="evenodd" d="M3.25 6.75a3.5 3.5 0 0 1 6.373-2h7.834l.146.147 1.476 1.476.354.353-.353.354-1.523 1.524-.146.146H9.623a3.501 3.501 0 0 1-6.372-2Zm6.855 1a3.498 3.498 0 0 0 0-2h6.938l.976.977-1.023 1.023h-6.891ZM6.75 4.25a2.5 2.5 0 1 0 0 5 2.5 2.5 0 0 0 0-5Zm17.113 7.27.222-.064.192.128 9 6-.554.832-8.808-5.872-20.778 5.937-.274-.962 21-6ZM8.75 28.492a3.255 3.255 0 0 1 4.376-3.049l-1.563 2.813.874.486L14 25.933A3.247 3.247 0 0 1 12 31.742c-1.79 0-3.25-1.46-3.25-3.25Zm5.739-3.443A4.248 4.248 0 0 1 12 32.743a4.255 4.255 0 0 1-4.25-4.25 4.255 4.255 0 0 1 5.866-3.931l1.697-3.055.143-.257h5.794v-2H19.5v-1h2.75v3.419l.89 2.668a4.253 4.253 0 0 1 5.11 4.163A4.254 4.254 0 0 1 24 32.75a4.254 4.254 0 0 1-4.25-4.25c0-1.698 1-3.166 2.442-3.846l-.802-2.404h-5.346l-1.555 2.8Zm8.971.245 1.014 3.04-.948.316-1.015-3.04a3.253 3.253 0 0 0-1.761 2.89A3.254 3.254 0 0 0 24 31.75a3.254 3.254 0 0 0 3.25-3.25 3.253 3.253 0 0 0-3.79-3.206ZM16.5 20.75h-3v-1h3v1Z" fill="#000"/></svg>