<?xml version="1.0" encoding="utf-8"?>
<!-- Generator: Adobe Illustrator 24.2.0, SVG Export Plug-In . SVG Version: 6.00 Build 0)  -->
<svg version="1.0" id="Ebene_4" xmlns="http://www.w3.org/2000/svg" xmlns:xlink="http://www.w3.org/1999/xlink" x="0px" y="0px"
	 viewBox="0 0 24 24" enable-background="new 0 0 24 24" xml:space="preserve">
<g id="SVG_x5F_24x24pt">
	<path id="backgroundGreen" fill="#237F52" d="M0,22.5v-21C0,0.675,0.675,0,1.5,0h21C23.325,0,24,0.675,24,1.5v21
		c0,0.825-0.675,1.5-1.5,1.5h-21C0.675,24,0,23.325,0,22.5z"/>
	<g id="content">
		<g>
			<path fill="#FFFFFF" d="M17.979,12.183c-0.181-0.258-0.395-0.409-0.395-0.409l-0.736-0.438l-1.188-0.689
				c-0.051-0.014-0.099-0.02-0.143-0.02c-0.129,0-0.227,0.057-0.293,0.163c-0.031,0.051-0.049,0.145-0.051,0.155
				c-0.056,0.253,0.104,0.552,0.324,0.689l0.959,0.573l0.298,0.183l-2.134,3.707c0.506,0.316,0.548,0.305,0.559,0.311
				c0.201,0.106,0.399,0.217,0.62,0.217l2.006,0.007L21,18.53v-3.418l-1.734-1.022C19.266,14.091,18.08,12.328,17.979,12.183z"/>
			<g>
				<path fill="#FFFFFF" d="M20.642,18.567v0.629c0,0.138-0.112,0.251-0.251,0.251H3.608c-0.138,0-0.251-0.112-0.251-0.251V6.608
					c0-0.136,0.115-0.251,0.251-0.251h16.784c0.138,0,0.251,0.112,0.251,0.251v8.045L21,14.863V6.608C21,6.274,20.726,6,20.392,6
					H3.608C3.274,6,3,6.274,3,6.608v12.588c0,0.335,0.274,0.608,0.608,0.608h16.784c0.335,0,0.608-0.274,0.608-0.608V18.78
					l-0.109-0.065L20.642,18.567z"/>
				<g>
					<path fill="#FFFFFF" d="M19.266,14.091c0,0-1.186-1.763-1.288-1.908c-0.181-0.258-0.395-0.409-0.395-0.409l-0.736-0.438
						l-1.188-0.689c-0.051-0.014-0.099-0.02-0.143-0.02c-0.129,0-0.227,0.057-0.293,0.163c-0.031,0.051-0.049,0.145-0.051,0.155
						c-0.056,0.253,0.104,0.552,0.324,0.689l0.959,0.573l0.298,0.183l-2.134,3.707c0.506,0.316,0.548,0.305,0.559,0.311
						c0.201,0.106,0.399,0.217,0.62,0.217l2.006,0.007l2.839,1.686L21,18.53v-3.418l-0.358-0.211L19.266,14.091z"/>
				</g>
			</g>
			<g>
				<polygon fill="#FFFFFF" points="16.833,11.079 17.138,11.254 17.842,10.025 19.259,10.841 20.115,9.357 17.474,7.845 
					15.208,8.515 16.643,9.345 15.945,10.564 15.943,10.568 				"/>
			</g>
		</g>
		<g>
			<g>
				<g>
					<g>
						<polygon fill="#FFFFFF" points="13.787,16.346 14.124,16.54 14.124,16.54 						"/>
					</g>
				</g>
			</g>
		</g>
		<g>
			<g>
				<path fill="#FFFFFF" d="M15.829,12.079l-0.189-0.113c0.025,0.144-0.001,0.294-0.075,0.422c-0.089,0.152-0.238,0.257-0.407,0.293
					c0.028,0.037,0.053,0.076,0.072,0.119c0.081,0.183,0.069,0.394-0.031,0.566c-0.105,0.18-0.296,0.295-0.503,0.307
					c0.003,0.006,0.007,0.011,0.009,0.018c0.08,0.181,0.069,0.392-0.031,0.566c-0.106,0.181-0.298,0.295-0.505,0.306
					c0.008,0.014,0.017,0.028,0.023,0.043c0.08,0.182,0.068,0.393-0.032,0.566c-0.111,0.19-0.317,0.308-0.538,0.308
					c-0.11,0-0.219-0.03-0.316-0.086l-0.105-0.063l-0.29,0.506l0.876,0.507l0.337,0.194l2.329-4.084L15.829,12.079z"/>
			</g>
		</g>
		<polygon fill="#FFFFFF" points="8.297,8.319 6.038,8.319 6.038,7.961 8.212,7.961 9.523,7.298 10.963,7.68 10.871,8.027 
			9.563,7.679 		"/>
		<polygon fill="#FFFFFF" points="14.55,9.183 13.753,8.319 13.028,8.319 13.028,7.961 13.91,7.961 14.813,8.94 		"/>
		<polygon fill="#FFFFFF" points="7.963,9.328 7.829,8.995 9.395,8.364 10.141,8.663 10.897,8.313 11.048,8.639 10.151,9.053 
			9.395,8.75 		"/>
		<polygon fill="#FFFFFF" points="11.188,13.401 10.555,11.675 11.492,10.467 11.663,9.139 12.019,9.184 11.834,10.61 10.96,11.738 
			11.524,13.277 		"/>
		<path fill="#FFFFFF" d="M14.341,13.592l-0.107-0.063l-0.012-0.007l-0.188-0.113l-0.546-0.327c-0.067-0.041-0.141-0.06-0.213-0.06
			c-0.137,0-0.271,0.069-0.348,0.195c-0.073,0.118-0.078,0.26-0.025,0.379c0.032,0.073,0.086,0.138,0.16,0.183l0.554,0.332
			l0.188,0.113l0.026,0.016l0.101,0.06c0.065,0.038,0.135,0.056,0.205,0.056c0.14,0,0.277-0.073,0.353-0.202
			c0.068-0.118,0.072-0.255,0.02-0.371C14.476,13.703,14.418,13.637,14.341,13.592z"/>
		<path fill="#FFFFFF" d="M14.064,13.173l-0.187-0.113l-0.554-0.332c-0.073-0.045-0.127-0.109-0.159-0.182
			c-0.053-0.119-0.048-0.26,0.025-0.379c0.077-0.125,0.211-0.195,0.348-0.195c0.073,0,0.147,0.019,0.213,0.06l0.546,0.327
			l0.187,0.112l0.264,0.159l0.118,0.071c0.077,0.045,0.134,0.111,0.167,0.187c0.051,0.116,0.048,0.254-0.02,0.371
			c-0.076,0.13-0.212,0.203-0.353,0.203c-0.07,0-0.141-0.018-0.206-0.056l-0.112-0.067L14.064,13.173z"/>
		<path fill="#FFFFFF" d="M14.822,12.428l-0.06-0.036l-0.187-0.112l-0.554-0.332c-0.073-0.045-0.127-0.109-0.16-0.182
			c-0.052-0.119-0.047-0.26,0.026-0.379c0.077-0.125,0.211-0.194,0.348-0.194c0.073,0,0.147,0.019,0.213,0.06l0.546,0.327
			l0.187,0.113l0.052,0.031c0.009,0.005,0.017,0.012,0.026,0.018c0.064,0.044,0.113,0.103,0.142,0.169
			c0.051,0.116,0.048,0.253-0.021,0.371c-0.076,0.13-0.212,0.202-0.353,0.202c-0.058,0-0.115-0.016-0.17-0.041
			C14.845,12.437,14.833,12.434,14.822,12.428z"/>
		<path fill="#FFFFFF" d="M13.974,15.065c-0.076,0.13-0.212,0.202-0.353,0.202c-0.07,0-0.141-0.018-0.206-0.056l-0.109-0.065
			l-0.019-0.011l-0.188-0.112l-0.142-0.085c-0.073-0.045-0.127-0.109-0.159-0.182c-0.053-0.119-0.048-0.26,0.025-0.379
			c0.077-0.125,0.211-0.194,0.348-0.194c0.073,0,0.147,0.02,0.213,0.061l0.134,0.08l0.188,0.113l0.005,0.003l0.114,0.068
			c0.078,0.045,0.134,0.112,0.168,0.187C14.046,14.81,14.042,14.947,13.974,15.065z"/>
		<path fill="#EB0000" d="M12.589,8.14c0-0.34-0.276-0.617-0.616-0.617c-0.341,0-0.617,0.276-0.617,0.617
			c0,0.341,0.276,0.617,0.617,0.617C12.313,8.757,12.589,8.481,12.589,8.14z"/>
	</g>
</g>
</svg>
