<svg xmlns="http://www.w3.org/2000/svg" width="36" height="36" version="1.1" viewBox="0 0 36 36">
  <path fill="none" fill-rule="evenodd" stroke="#000" stroke-width="1" d="M23.25,31.5 C28.5195,29.4075 32.25,24.015 32.25,18 C32.25,10.1295 25.8705,3.75 18,3.75 C10.1295,3.75 3.75,10.1295 3.75,18 C3.75,25.8705 10.1295,32.25 18,32.25 M28.5,32.25 L23.25,32.25 L23.25,27 M19.3725,11.25 L18.333,12.519 L14.469,13.515 L13.7115,13.1265 L11.2065,14.886 L12.339,15.2535 L9.3585,18.378 L8.25,22.218 L10.446,21.6885 L11.415,21.1545 L13.713,23.232 L16.9515,22.8885 L18.819,20.9775 L21.0285,23.868 L22.644,20.628 L26.403,21.5565 L26.166,19.6125 L27.75,19.6515 L27.588,16.4775 L26.211,15.483 L25.7625,16.284 L23.94,15.765 L24.621,13.8465 L20.805,12.4455 L19.3725,11.25 Z"/>
</svg>
