<?xml version="1.0" encoding="utf-8"?>
<!-- Generator: Adobe Illustrator 24.2.0, SVG Export Plug-In . SVG Version: 6.00 Build 0)  -->
<svg version="1.0" xmlns="http://www.w3.org/2000/svg" xmlns:xlink="http://www.w3.org/1999/xlink" x="0px" y="0px"
	 viewBox="0 0 24 24" enable-background="new 0 0 24 24" xml:space="preserve">
<g id="SVG_x5F_24x24pt">
	<path id="backgroundGreen" fill="#237F52" d="M0,22.5v-21C0,0.675,0.675,0,1.5,0h21C23.325,0,24,0.675,24,1.5v21
		c0,0.825-0.675,1.5-1.5,1.5h-21C0.675,24,0,23.325,0,22.5z"/>
	<g id="content">
		<g>
			<path fill="#FFFFFF" d="M10.087,6.263c0,0.559-0.454,1.013-1.012,1.013c-0.56,0-1.013-0.454-1.013-1.013
				c0-0.56,0.454-1.013,1.013-1.013C9.634,5.25,10.087,5.703,10.087,6.263z"/>
		</g>
		<g>
			<path fill="#FFFFFF" d="M14.678,12l-1.137-1.137l-1.956,1.955v2.857c0,0.287-0.233,0.52-0.52,0.52
				c-0.287,0-0.519-0.233-0.519-0.52V12.53c0-0.139,0.054-0.27,0.152-0.369l1.556-1.556l-1.708-1.709v1.454
				c0,0.216-0.175,0.39-0.39,0.39H8.312c-0.216,0-0.39-0.174-0.39-0.39c0-0.216,0.174-0.389,0.39-0.389h1.48V8.142
				c0-0.716,0.581-1.299,1.3-1.299h1.815c0.138,0,0.27,0.055,0.367,0.153l1.532,1.532c0.068,0.068,0.107,0.16,0.107,0.257
				c0,0.2-0.163,0.363-0.364,0.363c-0.097,0-0.189-0.038-0.258-0.106l-1.445-1.446h-1.029L16.221,12H14.678z"/>
		</g>
		<polygon fill="#FFFFFF" points="13.125,11.586 12.281,10.742 12.281,10.467 13.125,9.623 		"/>
		<path fill="#FFFFFF" d="M10.875,3v3.578c0.071-0.01,0.143-0.015,0.216-0.015h0.627V3.844h8.438v8.438h-7.638l-0.653,0.653v0.191
			H21V3H10.875z"/>
		<path fill="#FFFFFF" d="M3,3.375v17.25c0,0.219,0.19,0.396,0.413,0.373c0.195-0.02,0.337-0.195,0.337-0.391v-0.92h4.5
			c0.002,0,0.003,0.001,0.003,0.003v0.935c0,0.218,0.189,0.394,0.411,0.373c0.196-0.019,0.339-0.197,0.339-0.394v-9.583H8.312
			c-0.02,0-0.04-0.001-0.059-0.003v2.291c0,0.002-0.001,0.003-0.003,0.003h-4.5v-2.625h3.983c-0.058-0.099-0.092-0.214-0.092-0.337
			c0-0.013,0.001-0.025,0.002-0.038H3.75V7.688h4.5c0.002,0,0.003,0.001,0.003,0.003v1.992c0.019-0.002,0.039-0.003,0.059-0.003
			h0.691V7.553c-0.284-0.016-0.544-0.122-0.75-0.292V7.31c0,0.002-0.001,0.003-0.003,0.003h-4.5V4.688h4.5
			c0.002,0,0.003,0.001,0.003,0.003v0.574c0.206-0.17,0.466-0.276,0.75-0.292V3.375c0-0.218-0.189-0.394-0.411-0.373
			C8.396,3.02,8.253,3.198,8.253,3.395V4.31c0,0.002-0.001,0.003-0.003,0.003h-4.5v-0.92c0-0.196-0.142-0.371-0.337-0.391
			C3.19,2.979,3,3.156,3,3.375z M3.75,16.688h4.5c0.002,0,0.003,0.001,0.003,0.003v2.619c0,0.002-0.001,0.003-0.003,0.003h-4.5
			V16.688z M3.75,13.688h4.5c0.002,0,0.003,0.001,0.003,0.003v2.619c0,0.002-0.001,0.003-0.003,0.003h-4.5V13.688z"/>
	</g>
</g>
</svg>
