<svg xmlns="http://www.w3.org/2000/svg" width="24" height="24" version="1.1" viewBox="0 0 24 24">
  <path fill="none" fill-rule="evenodd" stroke="#000" stroke-width="1" d="M13.46,10.4948 C13.474,10.4958 13.486,10.4998 13.5,10.4998 C14.605,10.4998 15.5,9.3808 15.5,7.9998 C15.5,6.6188 14.605,5.4998 13.5,5.4998 C12.531,5.4998 11.724,6.3608 11.54,7.5048 M2.5,18.9997 L2.5,15.4997 L6,15.4997 M3,15.4997 C4.395,19.0127 7.991,21.4997 12,21.4997 C17.247,21.4997 21.5,17.2467 21.5,11.9997 C21.5,6.7537 17.247,2.4997 12,2.4997 C6.753,2.4997 2.5,6.7537 2.5,11.9997 M15.2168,15.4997 L17.4998,15.4997 C17.4998,12.9257 16.2108,10.7707 14.4738,10.1707 M13.5,9.9997 C13.5,11.3807 12.604,12.4997 11.5,12.4997 C10.396,12.4997 9.5,11.3807 9.5,9.9997 C9.5,8.6187 10.396,7.4997 11.5,7.4997 C12.604,7.4997 13.5,8.6187 13.5,9.9997 Z M10.5264,12.1706 C8.7884,12.7706 7.5004,14.9256 7.5004,17.4996 L15.5004,17.4996 C15.5004,14.9256 14.2114,12.7706 12.4734,12.1706"/>
</svg>
