<svg xmlns="http://www.w3.org/2000/svg" width="16" height="16" fill="none" viewBox="0 0 16 16"><path fill="#000" d="M15 13.55H1v-1h14zm-2.42-8.66c.6 0 1.05.09 1.37.28.26.15.46.36.6.61.14.26.21.54.21.86 0 .36-.09.68-.26.95s-.42.46-.73.58c.28.07.49.22.65.46.1.15.17.31.2.47s.08.54.13 1.13c.04.43.1.7.18.8l.06.07h-1.42a1 1 0 0 1-.1-.34c-.02-.14-.05-.45-.08-.94-.03-.44-.14-.74-.32-.91s-.49-.25-.92-.25h-1.22v2.45H9.57V4.89zm-9.08 0c.42 0 .76.03 1 .08s.46.15.66.28c.54.36.81.91.81 1.64 0 .65-.22 1.16-.67 1.53-.19.16-.41.27-.65.34s-.55.1-.9.1h-1.4v2.24H.99V4.89zm4.38 3.19h1.2v.69h-1.2v1.2h-.69v-1.2h-1.2v-.69h1.2v-1.2h.69zM2.35 7.8h1.21c.36 0 .62-.06.78-.19.2-.16.29-.39.29-.7s-.11-.55-.34-.7c-.16-.11-.43-.17-.8-.17H2.35zm8.58-.13h1.3c.42 0 .71-.06.88-.18.22-.15.32-.38.32-.68s-.09-.51-.28-.65c-.18-.14-.48-.2-.87-.2h-1.35zM15 3.44H1v-1h14z"/></svg>