<?xml version="1.0" encoding="utf-8"?>
<!-- Generator: Adobe Illustrator 24.2.0, SVG Export Plug-In . SVG Version: 6.00 Build 0)  -->
<svg version="1.0" id="Ebene_1" xmlns="http://www.w3.org/2000/svg" xmlns:xlink="http://www.w3.org/1999/xlink" x="0px" y="0px"
	 viewBox="0 0 24 24" enable-background="new 0 0 24 24" xml:space="preserve">
<g id="SVG_x5F_24x24pt">
	<path id="backgroundBlue" fill="#2D327D" d="M0,22.5v-21C0,0.675,0.675,0,1.5,0h21C23.325,0,24,0.675,24,1.5v21
		c0,0.825-0.675,1.5-1.5,1.5h-21C0.675,24,0,23.325,0,22.5z"/>
	<g id="content">
		<polygon fill="#FFFFFF" points="21,12.488 21,11.25 12,7.125 3,11.25 3,12.488 12,8.363 21,12.488 		"/>
		<polygon fill="#FFFFFF" points="16.243,14.438 16.243,14.437 16.243,14.437 16.243,14.437 16.243,14.438 		"/>
		<g>
			<path fill="#FFFFFF" d="M9.038,11.325h3.904c0.657,0,1.175,0.041,1.552,0.122c0.377,0.082,0.718,0.226,1.022,0.433
				c0.843,0.565,1.264,1.416,1.264,2.554c0,1.01-0.349,1.804-1.046,2.382c-0.296,0.247-0.633,0.425-1.012,0.533
				c-0.379,0.108-0.847,0.162-1.403,0.162h-2.171V21H9.038V11.325z M11.149,13.112v2.74h1.886c0.56,0,0.964-0.099,1.211-0.298
				c0.304-0.247,0.457-0.611,0.457-1.092c0-0.485-0.177-0.847-0.529-1.085c-0.256-0.176-0.673-0.265-1.251-0.265H11.149z"/>
		</g>
	</g>
</g>
</svg>
