<svg xmlns="http://www.w3.org/2000/svg" width="36" height="36" fill="none" viewBox="0 0 36 36"><path fill="#000" fill-rule="evenodd" d="M4.248 15.75c0-3.873 1.914-7.298 4.848-9.382l1.271.794.122.076h2.528l.097-.375.63-2.439q.976-.173 2.004-.174c1.983 0 3.85.502 5.478 1.386l-1.334.97-.078.056-.052.083-1.02 1.629-3.162-.562-.265-.047-.185.195-2.45 2.58-3.397 1.433-.141.059-.084.128-.593.911-.36.553.63.197 3.473 1.09.12.038.123-.024 5.114-.97.603.305.862 2.408.941-.336-.928-2.597-.068-.188-.178-.09-.933-.471-.152-.077-.166.032-5.159.978-2.724-.854.15-.23 3.352-1.414.096-.04.072-.076 2.337-2.462 3.229.574.332.06.18-.286 1.147-1.833 1.596-1.16a11.5 11.5 0 0 1 4.818 7.034l.976-.217C26.7 7.427 21.712 3.25 15.748 3.25c-6.904 0-12.5 5.596-12.5 12.5s5.596 12.5 12.5 12.5q.402 0 .797-.025l-.063-.998q-.364.023-.734.023c-4.682 0-8.71-2.798-10.504-6.813l1.817-2.43 2.203-.535 3.64 1.255.997 1.66.207.344.38-.129 2.398-.806.96.313.31-.95-1.117-.365-.158-.052-.157.053-2.173.731-.884-1.47-.094-.156-.172-.06-3.95-1.362-.139-.047-.142.034-2.52.613-.175.043-.108.144-1.549 2.071a11.5 11.5 0 0 1-.57-3.586m6.527-9.512-.747-.467c.816-.468 1.694-.84 2.619-1.098l-.404 1.565zM30 15.25h-7.5v1h3.25v2h-3.192a2.81 2.81 0 0 0-2.808 2.808v8.692h2.012l-1.226 3.064.928.372 1.375-3.436h6.823l1.374 3.436.928-.372-1.225-3.064h2.011v-8.692a2.81 2.81 0 0 0-2.807-2.808H26.75v-2H30zm-9.25 13.5v-5h11v5zm11-7.692v1.692h-11v-1.692c0-.999.81-1.808 1.808-1.808h7.385c.998 0 1.807.81 1.807 1.808m-8 5.192a.25.25 0 1 1 .5 0 .25.25 0 0 1-.5 0M24 25a1.25 1.25 0 1 0 0 2.5 1.25 1.25 0 0 0 0-2.5m4.5 1a.25.25 0 1 0 0 .5.25.25 0 0 0 0-.5m-1.25.25a1.25 1.25 0 1 1 2.5 0 1.25 1.25 0 0 1-2.5 0" clip-rule="evenodd"/></svg>