<svg class="color-immutable" xmlns="http://www.w3.org/2000/svg" width="59" height="20" fill="none" viewBox="0 0 59 20"><g clip-path="url(#a)"><path fill="#EB0000" fill-rule="evenodd" d="M2 0a2 2 0 0 0-2 2v16a2 2 0 0 0 2 2h55a2 2 0 0 0 2-2V2a2 2 0 0 0-2-2z" clip-rule="evenodd"/><path fill="#fff" d="M9.22 4.2h4.057L8.259 15.8H4.186zM15.948 4.2h14.395l-1.49 3.445h-10.28l-2.042 4.71h10.285l-1.49 3.445H10.93zM44.67 13.742v2.057h-8.33q0-.942.3-1.796.31-.855.863-1.471.427-.475.997-.926.577-.45 2.286-1.653.83-.578 1.162-1.076.333-.498.333-1.155 0-.76-.451-1.226-.444-.474-1.171-.474-1.788 0-1.843 2.57h-2.223V8.34q0-2.103 1.179-3.259 1.146-1.123 2.966-1.123 1.614 0 2.697.918 1.18.996 1.18 2.681 0 1.472-.942 2.531-.309.348-.578.562-.268.205-1.416 1.005-1.091.759-1.566 1.162a6.4 6.4 0 0 0-.87.926zM45.603 7.896q.039-1.423.704-2.389 1.075-1.55 3.235-1.55 1.661 0 2.682.846 1.1.918 1.1 2.373 0 .87-.436 1.503a2.1 2.1 0 0 1-1.163.847q.934.213 1.472.949.545.736.545 1.78 0 1.716-1.265 2.808-1.17 1.012-2.959 1.012-1.938 0-3.077-1.115-1.13-1.115-1.13-3.014v-.15h2.222q0 1.068.506 1.653.507.578 1.432.578.926 0 1.424-.546a1.78 1.78 0 0 0 .459-1.226q0-.854-.586-1.353-.483-.411-1.487-.411-.285 0-.562.032V8.822q.207.015.396.016 1.993 0 1.993-1.48 0-.648-.435-1.044-.435-.403-1.147-.403-.815 0-1.257.506-.444.506-.475 1.48z"/></g><defs><clipPath id="a"><path fill="#fff" d="M0 0h59v20H0z"/></clipPath></defs></svg>