<svg width="10" height="8" viewBox="0 0 10 8" fill="none" xmlns="http://www.w3.org/2000/svg">
<path fill-rule="evenodd" clip-rule="evenodd" d="M3.85366 7.87097L9.87805 1.67742C9.91057 1.64301 9.93902 1.6043 9.96341 1.56129C9.9878 1.51828 10 1.47097 10 1.41935C10 1.36774 9.9878 1.31613 9.96341 1.26452C9.93902 1.2129 9.91057 1.16989 9.87805 1.13548L8.90244 0.129032C8.86992 0.0946235 8.82927 0.0645163 8.78049 0.0387097C8.73171 0.0129031 8.68293 0 8.63415 0C8.58537 0 8.53658 0.0129031 8.4878 0.0387097C8.43902 0.0645163 8.39837 0.0946235 8.36585 0.129032L3.58537 5.03226L1.63415 3.07097C1.60163 3.01935 1.56098 2.98495 1.5122 2.96774C1.46341 2.95054 1.41463 2.94194 1.36585 2.94194C1.31707 2.94194 1.27236 2.95054 1.23171 2.96774C1.19106 2.98495 1.14634 3.01935 1.09756 3.07097L0.121951 4.07742C0.0894307 4.11183 0.0609757 4.15484 0.0365854 4.20645C0.012195 4.25806 0 4.30108 0 4.33548C0 4.4043 0.012195 4.46021 0.0365854 4.50323C0.0609757 4.54624 0.0894307 4.58495 0.121951 4.61935L3.31707 7.87097C3.34959 7.92258 3.39024 7.95699 3.43902 7.97419C3.48781 7.9914 3.53659 8 3.58537 8C3.63415 8 3.68293 7.9914 3.73171 7.97419C3.78049 7.95699 3.82114 7.92258 3.85366 7.87097Z" fill="#EB0000"/>
</svg>
