<svg xmlns="http://www.w3.org/2000/svg" width="48" height="48" fill="none" viewBox="0 0 48 48"><path fill="#000" fill-rule="evenodd" d="m36.73 4.203.354.353 6.36 6.36.353.354-.353.354-3.182 3.18.005.006-.353.354-26.17 26.16-.098.098-.134.033-8.48 2.12-.809.202.202-.808 2.12-8.48.034-.135.098-.097 26.16-26.17.353-.354.005.005 3.182-3.182zm5.653 7.067-2.828 2.828-5.653-5.653 2.828-2.828zM33.19 9.147 7.737 34.61l5.653 5.653L38.853 14.81zM6.172 40.105l1.13-4.517 5.11 5.111-4.516 1.13zm-.283 1.131-.291 1.167 1.166-.292zm7.505-2.383 24.04-24.05-.707-.707-24.04 24.05z" clip-rule="evenodd"/></svg>