<svg xmlns="http://www.w3.org/2000/svg" width="36" height="36" fill="none" viewBox="0 0 36 36"><path fill="#000" fill-rule="evenodd" d="M13.25 9.044a1.8 1.8 0 0 1 1.805-1.794h4.39c.999 0 1.805.806 1.805 1.793v.206h-8zm-1 .205v-.206a2.8 2.8 0 0 1 2.805-2.793h4.39a2.8 2.8 0 0 1 2.805 2.794v.205h6.206a2.794 2.794 0 0 1 2.793 2.795v16.037a2.793 2.793 0 0 1-2.793 2.793H6.044a2.795 2.795 0 0 1-2.795-2.793V12.044A2.795 2.795 0 0 1 6.044 9.25zm-8.001 2.795c0-.991.804-1.795 1.795-1.795h22.412c.99 0 1.793.803 1.793 1.795v4.706h-9.5V15.4a1.65 1.65 0 0 0-1.648-1.65h-3.702a1.65 1.65 0 0 0-1.65 1.65v1.35h-9.5zm9.5 5.706h-9.5v10.33c0 .99.803 1.794 1.795 1.794h22.412c.99 0 1.793-.803 1.793-1.793V17.75h-9.5v1.35a1.65 1.65 0 0 1-1.648 1.65h-3.702a1.65 1.65 0 0 1-1.65-1.65zm6 0v1.35a.65.65 0 0 1-.648.65h-3.702a.65.65 0 0 1-.65-.65v-1.35zm0-1h-5V15.4c0-.36.292-.65.65-.65H19.1a.65.65 0 0 1 .649.65z" clip-rule="evenodd"/></svg>