<svg xmlns="http://www.w3.org/2000/svg" width="36" height="36" fill="none" viewBox="0 0 36 36"><path fill="#000" fill-rule="evenodd" d="M3.25 11.25c0-1.932 1.568-3.5 3.5-3.5h22.5c1.932 0 3.5 1.568 3.5 3.5v15c0 1.932-1.568 3.5-3.5 3.5H6.75a3.5 3.5 0 0 1-3.5-3.5zm3.5-2.5c-1.38 0-2.5 1.12-2.5 2.5v15c0 1.38 1.12 2.5 2.5 2.5h22.5c1.38 0 2.5-1.12 2.5-2.5v-15c0-1.38-1.12-2.5-2.5-2.5zM12 18v-7.5h-1.35q-.164.753-.64 1.072a2.4 2.4 0 0 1-.728.319A5 5 0 0 1 8.25 12v1.09h2.031V18zm9.292 2.082q-.73-.581-1.821-.582-1.23 0-2.003.714-.795.728-.795 2.063v.159h1.499q.039-1.63 1.245-1.628.49 0 .792.297.303.3.303.78 0 .415-.225.73c-.149.212-.41.437-.785.683q-1.153.761-1.539 1.047a5 5 0 0 0-.676.585 2.8 2.8 0 0 0-.58.931q-.207.54-.206 1.139h5.625v-1.303H18.46q.273-.332.59-.587.319-.255 1.056-.736.774-.505.955-.64.183-.13.389-.352.637-.674.636-1.6 0-1.071-.795-1.7m-11.918 5.75 12-13.5-.748-.664-12 13.5z" clip-rule="evenodd"/></svg>