<svg xmlns="http://www.w3.org/2000/svg" width="36" height="36" fill="none" viewBox="0 0 36 36"><path fill="#000" fill-rule="evenodd" d="M20.75 9.1V8.033l-.82.682-7.84 6.527H6.25v5.498h5.84l7.84 6.541.82.684V9.1m-8.159 7.026 7.159-5.96V25.83l-7.158-5.973-.14-.116H7.25v-3.498h5.202zm15.08 10.3-3.398-2.101-.526.85 3.399 2.102zm-3.924-15.601 3.399-2.102.526.85-3.4 2.102zm5.538 2.353-5.395 1.338.24.97 5.396-1.338zm-.001 9.646-5.394-1.34.24-.97 5.395 1.34zM30 17.5h-5.99v1H30z" clip-rule="evenodd"/></svg>