<svg class="color-immutable" xmlns="http://www.w3.org/2000/svg" width="59" height="20" fill="none" viewBox="0 0 59 20"><path fill="#E84E10" fill-rule="evenodd" d="M2 0a2 2 0 0 0-2 2v16a2 2 0 0 0 2 2h55a2 2 0 0 0 2-2V2a2 2 0 0 0-2-2z" clip-rule="evenodd"/><path fill="#000" d="M14.153 4.17v2.142H7.98v2.476h5.657v1.991H7.98v2.849h6.284v2.142H5.45V4.17zM25.311 4.17l-3.856 11.6h-2.88l-3.8-11.6h2.65l2.61 8.688 2.65-8.688zM33.034 4.17v2.063H28.36l-.5 2.61q.842-.888 2.15-.888 1.286 0 2.238.69 1.413 1.039 1.413 3.158 0 2.079-1.508 3.293-1.175.951-2.809.952-1.84 0-2.96-.984-1.118-.992-1.182-2.674h2.278q.055.61.396 1.04.533.674 1.476.674.913 0 1.444-.659.516-.643.516-1.563 0-1-.54-1.595-.54-.603-1.436-.603-1.095 0-1.706.984l-2.07-.031 1.102-6.467zM38.289 3.892q1.324 0 2.332.81 1 .81 1.453 2.49.34 1.287.34 2.794 0 2.499-.888 4.11-.524.936-1.373 1.444a3.57 3.57 0 0 1-1.88.508q-1.42 0-2.428-.857-1.793-1.523-1.793-5.205 0-2.62.936-4.205a3.8 3.8 0 0 1 1.388-1.397 3.8 3.8 0 0 1 1.913-.492m-.088 1.96q-1.142 0-1.555 1.317-.325 1.047-.325 2.936 0 1.665.333 2.674.429 1.31 1.587 1.309.96 0 1.428-1.016.468-1.015.468-3.102 0-1.778-.333-2.8-.428-1.318-1.603-1.318"/></svg>