<svg xmlns="http://www.w3.org/2000/svg" width="36" height="36" viewBox="0 0 36 36">
  <path fill="none" stroke="#000" d="M27.75,8.2503 C27.75,9.9663 26.466,11.2503 24.75,11.2503 C23.5845,11.2503 22.617,10.6563 22.1175,9.7383 C21.882,9.3048 21.75,8.7993 21.75,8.2503 C21.75,6.5343 23.034,5.2503 24.75,5.2503 C26.466,5.2503 27.75,6.5343 27.75,8.2503 Z M12.75,17.2503 C12.75,17.8293 12.609,18.3558 12.3555,18.8013 C11.853,19.6878 10.9065,20.2503 9.75,20.2503 C8.0145,20.2503 6.75,18.9843 6.75,17.2503 C6.75,15.5148 8.0145,14.2503 9.75,14.2503 C10.827,14.2503 11.724,14.7378 12.249,15.5238 C12.5685,16.0023 12.75,16.5933 12.75,17.2503 Z M27.75,26.24955 C27.75,27.92655 26.4255,29.24955 24.75,29.24955 C23.0745,29.24955 21.759,27.92655 21.759,26.24955 C21.759,25.69455 21.9075,25.12755 22.167,24.67905 C22.6935,23.77605 23.6295,23.24955 24.75,23.24955 C26.4255,23.24955 27.75,24.57405 27.75,26.24955 Z M22.16745,24.67935 L12.35595,18.80235 M12.24825,15.5232 L22.11825,9.7377"/>
</svg>
