<svg xmlns="http://www.w3.org/2000/svg" width="16" height="16" fill="none" viewBox="0 0 16 16"><path fill="#000" fill-rule="evenodd" d="M8 4c-1.745 0-3.188.703-4.263 1.507a10.1 10.1 0 0 0-2.146 2.206l-.198.282.193.285c.305.452 1.039 1.37 2.12 2.182C4.79 11.274 6.252 12 8 12c1.745 0 3.187-.703 4.262-1.507a10.1 10.1 0 0 0 2.147-2.206l.198-.282-.193-.285c-.306-.452-1.04-1.37-2.12-2.182C11.21 4.726 9.747 4 8 4M4.306 9.662a9 9 0 0 1-1.686-1.66 9.2 9.2 0 0 1 1.716-1.694C5.296 5.59 6.534 5 8 5c1.463 0 2.72.608 3.693 1.338a9 9 0 0 1 1.687 1.66 9.2 9.2 0 0 1-1.716 1.694C10.703 10.41 9.466 11 8 11c-1.463 0-2.72-.608-3.694-1.338M8 6a2 2 0 1 0 0 4 2 2 0 0 0 0-4M7 8a1 1 0 1 1 2 0 1 1 0 0 1-2 0" clip-rule="evenodd"/></svg>