<svg xmlns="http://www.w3.org/2000/svg" width="48" height="48" fill="none" viewBox="0 0 48 48"><path fill="#000" fill-rule="evenodd" d="M24 2a7 7 0 0 0-7 7v1h-3v1h3v9h-3v1h2.936l-2.88 24H6v1h36v-1h-8.056l-2.88-24H34v-1h-3v-9h3v-1h-3V9a7 7 0 0 0-7-7m6 8V9a6 6 0 0 0-12 0v1zm-12 1v9h3v-6h6v6h3v-9zm8 9v-5h-4v5zm-8.056 1-.6 5h13.312l-.6-5zm-2.04 17 .6-5h14.992l.6 5zm14.872-11 .6 5H16.624l.6-5zM15.784 39l-.72 6h17.872l-.72-6zM42 16h-5v-1h5zm-4.755-5.064 8-4.5-.49-.872-8 4.5zm7.51 14.5-8-4.5.49-.872 8 4.5zM44 16h2v-1h-2zM6 15h5v1H6zm5.245-4.936-8-4.5-.49.872 8 4.5zm-8.49 14.5 8-4.5.49.872-8 4.5zM4 15H2v1h2z" clip-rule="evenodd"/></svg>