<svg xmlns="http://www.w3.org/2000/svg" width="48" height="48" viewBox="0 0 48 48">
  <g fill="none" fill-rule="evenodd">
    <path stroke="#000" d="M18.5,7.5 C18.5,10.261 16.261,12.5 13.5,12.5 C10.739,12.5 8.5,10.261 8.5,7.5 C8.5,4.739 10.739,2.5 13.5,2.5 C16.261,2.5 18.5,4.739 18.5,7.5 Z M30.5,14 C30.5,17.038 28.037,19.5 25,19.5 C21.962,19.5 19.5,17.038 19.5,14 C19.5,10.962 21.962,8.5 25,8.5 C28.037,8.5 30.5,10.962 30.5,14 Z M9.5,29 C7.291,29 5.5,27.209 5.5,25 C5.5,24.171 6.171,23.5 7,23.5 C7.829,23.5 8.5,24.171 8.5,25 C8.5,25.828 7.829,26.5 7,26.5 C5.067,26.5 3.5,24.933 3.5,23 M31.5,20.228 C29.775,19.765 27.928,19.5 25.994,19.5 C23.292,19.5 20.75,20.001 18.5,20.873 M18.5,17.873 C13.158,19.942 9.494,24.143 9.494,29 C9.494,32.884 11.832,36.353 15.5,38.646 L15.5,45.5 L20.5,45.5 L20.5,40.775 C22.221,41.236 24.064,41.5 25.994,41.5 C27.559,41.5 29.066,41.324 30.5,41.016 L30.5,45.5 L35.5,45.5 L35.5,39.206 C38.135,37.795 40.192,35.815 41.374,33.5 L44.5,33.5 L44.5,25.5 L41.826,25.5 C41.159,23.768 40.013,22.193 38.5,20.86 L38.5,15.5 C36.681,15.5 35.162,16.723 34.677,18.385 C33.683,17.917 32.618,17.529 31.5,17.227 M17,7.5 L13.5,7.5 L13.5,4 M36.5,25 C36.5,25.276 36.276,25.5 36,25.5 C35.724,25.5 35.5,25.276 35.5,25 C35.5,24.724 35.724,24.5 36,24.5 C36.276,24.5 36.5,24.724 36.5,25 Z"/>
    <path fill="#000" d="M25.2461,10.3789 L25.2461,11.0819 C25.8011,11.1109 26.2271,11.2649 26.5251,11.5449 C26.8231,11.8249 26.9771,12.2149 26.9881,12.7149 L25.9301,12.7149 C25.9191,12.2409 25.6911,11.9749 25.2461,11.9179 L25.2461,13.3749 C25.2821,13.3849 25.3861,13.4119 25.5551,13.4529 C26.1141,13.5989 26.5111,13.7769 26.7421,13.9879 C27.0281,14.2519 27.1721,14.6089 27.1721,15.0629 C27.1721,15.5239 27.0241,15.9099 26.7301,16.2229 C26.5431,16.4229 26.3351,16.5699 26.1071,16.6619 C25.8801,16.7539 25.5931,16.8099 25.2461,16.8279 L25.2461,17.6209 L24.7731,17.6209 L24.7731,16.8239 C24.2241,16.7929 23.7941,16.6539 23.4841,16.4059 C23.0521,16.0599 22.8331,15.5719 22.8281,14.9409 L23.9371,14.9409 C23.9331,15.5609 24.2111,15.9009 24.7731,15.9609 L24.7731,14.3089 C24.2531,14.1629 23.8931,14.0329 23.6951,13.9179 C23.4421,13.7719 23.2581,13.5999 23.1411,13.3999 C23.0231,13.2009 22.9651,12.9599 22.9651,12.6759 C22.9651,12.3609 23.0471,12.0799 23.2111,11.8339 C23.3751,11.5879 23.6081,11.3969 23.9101,11.2619 C24.1261,11.1659 24.4141,11.1059 24.7731,11.0819 L24.7731,10.3789 L25.2461,10.3789 Z M25.2461,14.4259 L25.2461,15.9609 C25.7961,15.8929 26.0701,15.6379 26.0701,15.1949 C26.0701,14.9299 25.9641,14.7339 25.7501,14.6089 C25.6901,14.5729 25.5221,14.5119 25.2461,14.4259 Z M24.7731,11.9059 C24.2761,11.9509 24.0271,12.1769 24.0271,12.5859 C24.0271,12.7709 24.0821,12.9139 24.1911,13.0139 C24.3011,13.1139 24.4951,13.1979 24.7731,13.2659 L24.7731,11.9059 Z"/>
  </g>
</svg>
