<svg xmlns="http://www.w3.org/2000/svg" width="48" height="48" version="1.1" viewBox="0 0 48 48">
  <path fill="none" fill-rule="evenodd" stroke="#000" stroke-width="1" d="M2.5,46 L2.5,2 M2.5,38.1377 L8.535,36.2837 C11.035,35.5137 13.67,35.2857 16.266,35.6167 C18.86,35.9467 21.355,36.8257 23.583,38.1977 C25.758,39.5347 28.187,40.4067 30.717,40.7537 C33.247,41.1017 36.023,40.9387 38.276,40.2177 C40.234,39.5917 45.5,37.8457 45.5,37.8457 L45.5,5.1257 C45.5,5.1257 40.234,6.8717 38.276,7.4977 C36.023,8.2187 33.247,8.3817 30.717,8.0337 C28.187,7.6867 25.758,6.8157 23.583,5.4777 C21.355,4.1067 18.86,3.2267 16.266,2.8967 C13.67,2.5667 11.035,2.7937 8.535,3.5647 L2.5,5.4177 M24,10 L24,11.265 M23.2139,12.4434 L23.9999,11.2644 L24.7859,12.4434 M22.7588,10.8506 L23.9998,11.2646 L25.2408,10.8506 M29.2793,11.4775 L29.2793,12.7425 M28.4932,13.9209 L29.2792,12.7419 L30.0652,13.9209 M28.0381,12.3281 L29.2791,12.7421 L30.5201,12.3281 M33.125,15.3223 L33.125,16.5873 M32.3389,17.7656 L33.1249,16.5866 L33.9099,17.7656 M31.8838,16.1738 L33.1248,16.5868 L34.3648,16.1738 M34.5322,20.5752 L34.5322,21.8402 M33.7461,23.0186 L34.5321,21.8396 L35.3181,23.0186 M33.291,21.4258 L34.532,21.8398 L35.773,21.4258 M33.125,25.8281 L33.125,27.0931 M32.3389,28.2715 L33.1249,27.0925 L33.9099,28.2715 M31.8838,26.6787 L33.1248,27.0927 L34.3648,26.6787 M29.2793,29.6729 L29.2793,30.9379 M28.4932,32.1162 L29.2792,30.9372 L30.0652,32.1162 M28.0381,30.5244 L29.2791,30.9374 L30.5201,30.5244 M24.0356,31.0801 L24.0356,32.3451 M23.25,33.5244 L24.036,32.3444 L24.822,33.5244 M22.7944,31.9316 L24.0354,32.3446 L25.2764,31.9316 M18.7739,29.6729 L18.7739,30.9379 M17.9883,32.1162 L18.7743,30.9372 L19.5603,32.1162 M17.5332,30.5244 L18.7742,30.9374 L20.0152,30.5244 M14.9287,25.8281 L14.9287,27.0931 M14.1431,28.2715 L14.9291,27.0925 L15.7151,28.2715 M13.688,26.6787 L14.929,27.0927 L16.17,26.6787 M13.5215,20.5752 L13.5215,21.8402 M12.7354,23.0186 L13.5214,21.8396 L14.3074,23.0186 M12.2803,21.4258 L13.5213,21.8398 L14.7623,21.4258 M14.9287,15.3223 L14.9287,16.5873 M14.1431,17.7656 L14.9291,16.5866 L15.7151,17.7656 M13.688,16.1738 L14.929,16.5868 L16.17,16.1738 M18.7739,11.4775 L18.7739,12.7425 M17.9883,13.9209 L18.7743,12.7419 L19.5603,13.9209 M17.5332,12.3281 L18.7742,12.7421 L20.0152,12.3281"/>
</svg>
