<svg class="color-immutable" width="59" height="20" viewBox="0 0 59 20" fill="none" xmlns="http://www.w3.org/2000/svg"><path d="M1.792.5h55.416c.71 0 1.292.58 1.292 1.3v16.4c0 .72-.58 1.3-1.292 1.3H1.792C1.082 19.5.5 18.92.5 18.2V1.8c0-.72.581-1.3 1.292-1.3Z" stroke="#FFDE15"/><path d="M12.8 7.661h-2.405c-.047-.564-.258-.994-.633-1.289-.369-.3-.888-.45-1.558-.45-.596 0-1.06.118-1.392.355-.327.232-.49.56-.49.981 0 .38.158.654.474.823.306.168 1.081.406 2.326.712 1.313.327 2.223.656 2.729.988.933.612 1.4 1.464 1.4 2.555 0 1.197-.47 2.141-1.408 2.832-.828.607-1.949.91-3.362.91-1.571 0-2.792-.359-3.662-1.076-.87-.717-1.321-1.738-1.353-3.061H5.98c.037.643.203 1.12.499 1.432.464.495 1.162.743 2.096.743.633 0 1.134-.124 1.503-.372.416-.284.625-.672.625-1.162 0-.49-.293-.85-.878-1.076-.322-.127-1.081-.356-2.278-.688-.75-.206-1.335-.401-1.756-.586-.422-.184-.76-.39-1.013-.617-.59-.527-.886-1.255-.886-2.183 0-1.113.462-1.993 1.384-2.642.786-.554 1.807-.83 3.062-.83 1.102 0 2.025.218 2.768.656 1.07.628 1.635 1.643 1.693 3.045ZM24.515 4.236v11.565h-2.54l-4.84-7.879.031 7.879h-2.428V4.236h2.57l4.81 7.863-.031-7.863h2.428ZM27.98 9.591c-.538-.184-.952-.487-1.242-.91-.285-.421-.427-.933-.427-1.534 0-1.002.41-1.8 1.233-2.397.728-.527 1.593-.79 2.595-.79 1.14 0 2.07.313 2.792.94.686.591 1.029 1.322 1.029 2.192 0 .606-.145 1.126-.435 1.558-.29.433-.702.746-1.234.941.416.122.756.277 1.02.467.733.533 1.1 1.31 1.1 2.334 0 1.176-.451 2.112-1.353 2.808-.76.585-1.735.878-2.927.878-1.292 0-2.32-.322-3.085-.965-.796-.67-1.194-1.548-1.194-2.634 0-1.018.353-1.806 1.06-2.365a2.924 2.924 0 0 1 1.068-.523Zm2.127-3.836c-.506 0-.915.142-1.226.427-.31.28-.466.649-.466 1.108 0 .48.155.864.466 1.155.317.284.739.427 1.266.427s.944-.143 1.25-.427c.306-.285.459-.673.459-1.163 0-.48-.156-.855-.467-1.123-.306-.27-.733-.404-1.282-.404Zm-.015 4.707c-.57 0-1.037.176-1.4.53-.36.348-.538.796-.538 1.344 0 .565.181 1.023.545 1.377.37.353.847.53 1.432.53.665 0 1.163-.195 1.495-.586.322-.374.483-.806.483-1.297 0-.559-.185-1.018-.554-1.376-.353-.348-.841-.522-1.463-.522ZM40.936 4.236v11.565h-2.31v-7.57h-2.72V6.554c.564-.016 1.023-.074 1.376-.174.359-.1.685-.264.98-.49.428-.327.715-.878.863-1.654h1.811Z" fill="#FFDE15"/></svg>