<svg xmlns="http://www.w3.org/2000/svg" width="36" height="36" fill="none" viewBox="0 0 36 36"><path fill="#000" fill-rule="evenodd" d="M3.75 6.25h-.5v22h29.5v-7h-.5c-2.274 0-4-1.727-4-4 0-2.274 1.726-4 4-4h.5v-7h-29m.5 21v-20h27.5v5.023c-2.578.239-4.5 2.32-4.5 4.977s1.922 4.737 4.5 4.977v5.023zm2.5-16.5h-.5v14.462l.499.002 15 .036h.501v-14.5h-3V9h-1v1.75h-8V9h-1v1.75zm.5 13.465V14.75h14v9.498zm14-10.465h-14v-2h14zm-7.5 5.5H12v-1h1.75V16.5h1v6h-1zM24.25 7.5v.487h1V7.5zm0 1.462v.975h1v-.975zm0 1.95v.975h1v-.975zm0 1.95v.975h1v-.975zm0 1.95v.975h1v-.975zm0 1.95v.975h1v-.975zm0 1.95v.975h1v-.975zm0 1.95v.975h1v-.975zm0 1.95v.975h1v-.975zm0 1.95v.975h1v-.975zm0 1.95V27h1v-.488z" clip-rule="evenodd"/></svg>