<svg xmlns="http://www.w3.org/2000/svg" width="16" height="16" fill="none" viewBox="0 0 16 16"><path fill="#000" fill-rule="evenodd" d="M5.239 1.04h5.539v1h-1.12L9.012 3h1.758C12.04 3 13 4.102 13 5.375V13h-1.14l.593 1.04h.402v1H3.162v-1h.4L4.144 13H3V5.375C3 4.102 3.962 3 5.23 3h1.776l-.648-.96h-1.12zm2.77 1.658.443-.658h-.888zM4 8v4h8V8zm8-1V5.375C12 4.578 11.412 4 10.77 4H5.23C4.589 4 4 4.578 4 5.375V7zm-1.29 6 .592 1.04H4.708L5.293 13zM9 10c0-.556.456-1 1.006-1s1.006.444 1.006 1c0 .558-.456 1-1.006 1S9 10.558 9 10M6.006 9C5.456 9 5 9.444 5 10c0 .558.456 1 1.006 1s1.006-.442 1.006-1c0-.556-.455-1-1.006-1" clip-rule="evenodd"/></svg>