<?xml version="1.0" encoding="utf-8"?>
<!-- Generator: Adobe Illustrator 24.2.0, SVG Export Plug-In . SVG Version: 6.00 Build 0)  -->
<svg version="1.0" id="Ebene_1" xmlns="http://www.w3.org/2000/svg" xmlns:xlink="http://www.w3.org/1999/xlink" x="0px" y="0px"
	 viewBox="0 0 24 24" enable-background="new 0 0 24 24" xml:space="preserve">
<g id="SVG_x5F_24x24pt">
	<path id="backgroundBlue" fill="#2D327D" d="M0,22.5v-21C0,0.675,0.675,0,1.5,0h21C23.325,0,24,0.675,24,1.5v21
		c0,0.825-0.675,1.5-1.5,1.5h-21C0.675,24,0,23.325,0,22.5z"/>
	<g id="content_1_">
		<g>
			<path fill="#FFFFFF" d="M11.276,19.001v2H3.178c0-0.61,0.099-1.192,0.296-1.746c0.197-0.554,0.475-1.031,0.834-1.43
				c0.277-0.308,0.601-0.608,0.973-0.9c0.372-0.292,1.111-0.828,2.219-1.607c0.538-0.374,0.915-0.723,1.13-1.046
				s0.323-0.697,0.323-1.123c0-0.492-0.145-0.891-0.435-1.196c-0.29-0.305-0.67-0.458-1.142-0.458c-1.159,0-1.756,0.833-1.792,2.499
				H3.424c0-0.108,0-0.19,0-0.246c0-1.364,0.382-2.42,1.146-3.168c0.743-0.728,1.705-1.092,2.884-1.092
				c1.046,0,1.92,0.297,2.622,0.892c0.764,0.646,1.146,1.515,1.146,2.607c0,0.954-0.305,1.774-0.915,2.461
				c-0.2,0.226-0.387,0.406-0.561,0.542c-0.174,0.136-0.633,0.463-1.377,0.981c-0.708,0.492-1.214,0.869-1.519,1.13
				c-0.305,0.261-0.588,0.561-0.85,0.9H11.276z"/>
			<path fill="#FFFFFF" d="M16.823,9.487c0.856,0,1.61,0.261,2.261,0.784c0.646,0.523,1.115,1.328,1.407,2.415
				c0.22,0.831,0.331,1.733,0.331,2.707c0,1.615-0.287,2.943-0.861,3.984c-0.338,0.605-0.781,1.072-1.327,1.4
				c-0.546,0.328-1.155,0.492-1.827,0.492c-0.918,0-1.702-0.277-2.353-0.831c-1.159-0.984-1.738-2.666-1.738-5.045
				c0-1.692,0.302-3.05,0.907-4.076c0.343-0.584,0.793-1.036,1.35-1.354C15.53,9.646,16.147,9.487,16.823,9.487z M16.739,11.387
				c-0.738,0-1.241,0.426-1.507,1.277c-0.21,0.677-0.315,1.625-0.315,2.845c0,1.077,0.108,1.941,0.323,2.592
				c0.277,0.846,0.789,1.269,1.538,1.269c0.62,0,1.082-0.328,1.384-0.984c0.302-0.656,0.454-1.658,0.454-3.007
				c0-1.148-0.108-2.053-0.323-2.715C18.015,11.813,17.498,11.387,16.739,11.387z"/>
		</g>
		<g id="Voie">
			<path fill="#FFFFFF" d="M5.036,3L4.288,5.249H3.73L2.993,3h0.514l0.506,1.684L4.527,3H5.036z"/>
			<path fill="#FFFFFF" d="M5.874,3.523c0.244,0,0.443,0.081,0.598,0.243c0.153,0.16,0.229,0.373,0.229,0.64
				c0,0.276-0.082,0.496-0.245,0.66C6.304,5.218,6.105,5.295,5.86,5.295c-0.261,0-0.47-0.085-0.624-0.255
				C5.088,4.877,5.014,4.667,5.014,4.409c0-0.254,0.072-0.461,0.215-0.62C5.389,3.612,5.603,3.523,5.874,3.523z M5.851,3.871
				c-0.118,0-0.212,0.048-0.281,0.143C5.499,4.11,5.463,4.242,5.463,4.409c0,0.173,0.035,0.306,0.105,0.398
				c0.072,0.093,0.17,0.14,0.294,0.14c0.116,0,0.208-0.043,0.275-0.128c0.077-0.094,0.115-0.231,0.115-0.411
				c0-0.168-0.034-0.299-0.102-0.392C6.08,3.919,5.98,3.871,5.851,3.871z"/>
			<path fill="#FFFFFF" d="M7.449,3v0.401H7.003V3H7.449z M7.449,3.572v1.677H7.003V3.572H7.449z"/>
			<path fill="#FFFFFF" d="M9.321,4.726C9.297,4.82,9.255,4.909,9.193,4.992c-0.148,0.202-0.36,0.303-0.637,0.303
				c-0.25,0-0.451-0.079-0.601-0.237c-0.074-0.077-0.13-0.17-0.169-0.278C7.744,4.664,7.723,4.543,7.723,4.417
				c0-0.244,0.07-0.449,0.211-0.615c0.157-0.186,0.36-0.278,0.609-0.278c0.201,0,0.372,0.062,0.514,0.186
				c0.102,0.089,0.175,0.199,0.221,0.33s0.069,0.295,0.069,0.493h-1.17c0.004,0.082,0.017,0.15,0.038,0.205
				c0.06,0.147,0.175,0.22,0.345,0.22c0.083,0,0.151-0.018,0.203-0.055c0.052-0.036,0.095-0.095,0.129-0.176H9.321z M8.892,4.232
				C8.884,4.151,8.865,4.084,8.836,4.031C8.808,3.978,8.767,3.937,8.714,3.906C8.661,3.875,8.604,3.86,8.541,3.86
				c-0.099,0-0.181,0.033-0.246,0.1C8.23,4.026,8.192,4.117,8.18,4.232H8.892z"/>
		</g>
	</g>
</g>
</svg>
