<svg xmlns="http://www.w3.org/2000/svg" width="36" height="36" fill="none" viewBox="0 0 36 36"><path fill="#000" fill-rule="evenodd" d="M5.75 8.25a2.5 2.5 0 1 1 5 0 2.5 2.5 0 0 1-5 0m2.5-3.5a3.5 3.5 0 1 0 0 7 3.5 3.5 0 0 0 0-7m16.941 4.765-.317-.596-.478.477-8.693 8.694-5.653-4.24-.423-.317-.293.44-4.5 6.75.832.554 4.207-6.31 5.577 4.183.347.26.306-.306 8.523-8.523 5.683 10.654.882-.47zM8.061 29.268c.655-.315 1.433-.518 2.443-.518s1.788.203 2.444.518c.638.306 1.145.711 1.605 1.079l.015.012c.475.38.902.718 1.429.971.517.248 1.146.42 2.011.42s1.494-.172 2.01-.42c.527-.252.954-.591 1.428-.97l.015-.013c.46-.368.966-.773 1.604-1.079.655-.315 1.432-.518 2.442-.518s1.786.203 2.441.518c.637.306 1.143.711 1.602 1.079l.016.013c.474.379.9.718 1.426.97.516.248 1.144.42 2.008.42v1c-1.01 0-1.786-.203-2.44-.518-.638-.306-1.144-.711-1.603-1.079l-.016-.013c-.473-.379-.9-.718-1.426-.97-.515-.248-1.144-.42-2.008-.42s-1.493.172-2.01.42c-.526.252-.953.591-1.427.97l-.015.013c-.46.368-.966.773-1.604 1.079-.655.315-1.433.518-2.443.518s-1.788-.203-2.444-.518c-.637-.306-1.144-.711-1.604-1.079l-.016-.012c-.474-.38-.9-.718-1.428-.971-.517-.248-1.146-.42-2.012-.42-.865 0-1.495.172-2.011.42-.528.252-.955.591-1.429.97l-.016.013c-.46.368-.966.773-1.604 1.08-.656.314-1.433.517-2.444.517v-1c.866 0 1.495-.172 2.012-.42.527-.252.954-.591 1.428-.97l.016-.013c.46-.368.966-.773 1.604-1.08m2.443-6.518c-1.01 0-1.788.203-2.444.518-.638.306-1.145.711-1.604 1.079l-.016.012c-.474.38-.901.718-1.428.971-.517.248-1.146.42-2.012.42v1c1.01 0 1.788-.203 2.444-.518.638-.306 1.145-.711 1.604-1.079l.016-.012c.474-.38.901-.718 1.429-.971.516-.248 1.146-.42 2.011-.42s1.495.172 2.012.42c.527.252.954.591 1.428.97l.016.013c.46.368.966.773 1.604 1.08.656.314 1.434.517 2.444.517s1.788-.203 2.443-.518c.637-.306 1.144-.711 1.604-1.079l.015-.013c.474-.379.9-.718 1.428-.97.516-.248 1.145-.42 2.01-.42.863 0 1.492.172 2.007.42.527.252.953.591 1.426.97l.016.013c.46.368.965.773 1.602 1.079.655.315 1.432.518 2.441.518v-1c-.864 0-1.492-.172-2.008-.42-.526-.252-.952-.591-1.426-.97l-.016-.013c-.459-.368-.965-.773-1.602-1.079-.655-.315-1.431-.518-2.44-.518-1.01 0-1.788.203-2.443.518-.638.306-1.144.711-1.604 1.079l-.015.013c-.474.379-.9.718-1.428.97-.516.248-1.145.42-2.01.42s-1.494-.172-2.011-.42c-.527-.252-.954-.591-1.428-.97l-.016-.013c-.46-.368-.967-.773-1.605-1.08-.656-.314-1.433-.517-2.444-.517" clip-rule="evenodd"/></svg>