<svg xmlns="http://www.w3.org/2000/svg" width="24" height="24" fill="none" viewBox="0 0 24 24"><path fill="#000" fill-rule="evenodd" d="m15.67 2 .252.168 6 4 .367.244-.197.395-2 4-.206.412-.427-.171-1.814-.726v.762h-1V8.845l.685.274 2.073.83L21 6.754 15.61 3.16a11 11 0 0 1-.916.39c-.689.259-1.63.533-2.55.533s-1.86-.274-2.548-.532a11 11 0 0 1-.916-.39L3.29 6.754l1.596 3.193L6.96 9.12l.65-.26.035.7.476 9.525h1.025v1H7.169l-.024-.476-.465-9.3-1.85.74-.427.17-.206-.41-2-4L2 6.411l.367-.244 6-4L8.618 2l.265.144.003.002.013.007a5 5 0 0 0 .272.135c.189.089.457.208.775.327.646.242 1.455.469 2.199.469s1.553-.227 2.198-.469a10 10 0 0 0 1.047-.462l.013-.007.002-.002zm-4.913 10.084h5.278l.095.38.001.003.005.018.02.074q.026.1.083.287c.075.249.192.604.353 1.026.325.847.825 1.948 1.534 2.986.537.787 1.174 1.17 1.844 1.573q.236.14.476.292c.41.261.824.571 1.141 1.03.322.465.516 1.043.557 1.804l.028.527h-4.551c-.316 0-.823 0-1.432-.377-.601-.371-1.254-1.078-1.98-2.38l-.003-.004a4.7 4.7 0 0 0-1.061-1.334v4.095h-2.388l-.097-.376.485-.124-.485.123v-.001l-.001-.003-.003-.012-.01-.043-.037-.158q-.047-.209-.118-.59a22 22 0 0 1-.277-2.086c-.147-1.72-.149-4.031.446-6.355zm.788 9h.6V17.37a3.8 3.8 0 0 0-1.012-.27 21.5 21.5 0 0 0 .412 3.983m-.396-4.989c.289.028.674.094 1.105.246.916.321 2.02 1.021 2.828 2.5.686 1.228 1.236 1.77 1.633 2.016.366.227.639.227.913.227h3.451a2.05 2.05 0 0 0-.314-.763c-.204-.295-.486-.519-.857-.756q-.186-.118-.4-.243c-.682-.407-1.536-.916-2.208-1.9-.767-1.124-1.3-2.3-1.642-3.192a17 17 0 0 1-.392-1.146h-3.728a17 17 0 0 0-.389 3.011" clip-rule="evenodd"/></svg>