<svg xmlns="http://www.w3.org/2000/svg" width="36" height="36" version="1.1" viewBox="0 0 36 36">
  <path fill="none" fill-rule="evenodd" stroke="#000" stroke-width="1" d="M3,32.25 L9.75,32.25 L9.75,27.75 L15.75,27.75 L15.75,23.25 L21.75,23.25 L21.75,18.75 L27.75,18.75 L27.75,14.25 L33,14.25 M12.75,17.25 L12.75,21.75 L11.25,27.75 M17.25,23.25 L17.25,19.5 L15.75,17.25 M15.75,9.75 L15.75,17.25 L12.75,17.25 L12.75,9.7185 M9.75,16.5 L9.75,12.75 L12.75,9.75 L15.75,9.75 L17.25,12.75 L19.5,15.75 M14.25,6.75 C13.4505,6.75 12.75,6.0495 12.75,5.25 C12.75,4.4505 13.4505,3.75 14.25,3.75 C15.0495,3.75 15.75,4.4505 15.75,5.25 C15.75,6.0495 15.0495,6.75 14.25,6.75 Z"/>
</svg>
