<svg xmlns="http://www.w3.org/2000/svg" width="23" height="16" fill="none" viewBox="0 0 23 16"><path fill="#000" d="m1.753 2.506 19.331 10.993-.74 1.304-1.647-.937v.384a.75.75 0 0 1-1.5 0v-1.237l-.5-.284v1.521a.75.75 0 0 1-1.5 0v-2.374l-2.147-1.222v3.596a.75.75 0 0 1-1.5 0v-4.083h-.5v4.083a.75.75 0 0 1-1.5 0v-4.127l-.058-.027a.75.75 0 0 1-.43-.681l.001-1.027-1.043-.594v1.623a.75.75 0 0 1-.463.693l-.091.038v4.102a.75.75 0 0 1-1.5 0v-4.083h-.5v4.083a.75.75 0 0 1-1.5 0v-4.127l-.058-.027a.75.75 0 0 1-.43-.681l.005-1.843-1.344.801a.75.75 0 0 1-.768-1.289l1.36-.81.597-1.148L1 3.803l.741-1.304zM12.853 4.25a.75.75 0 0 1 .75.73l1.485-.665a.8.8 0 0 1 .307-.065h3.028a.75.75 0 0 1 .665.403l.844 1.62 1.36.811a.75.75 0 0 1-.768 1.289l-1.343-.8.005 1.842a.75.75 0 0 1-.431.68l-.058.028v.292L14.645 8.11V6.156l-1.043.466v.896L9.078 4.945a.75.75 0 0 1 .746-.695zM11.332 1a1.25 1.25 0 1 1 0 2.5 1.25 1.25 0 0 1 0-2.5M16.915 1a1.25 1.25 0 1 1 0 2.5 1.25 1.25 0 0 1 0-2.5M5.748 1a1.25 1.25 0 0 1 .556 2.368L4.503 2.344q-.004-.046-.005-.094c0-.69.56-1.25 1.25-1.25"/></svg>