<svg xmlns="http://www.w3.org/2000/svg" width="24" height="24" version="1.1" viewBox="0 0 24 24">
  <path fill="none" fill-rule="evenodd" stroke="#000" stroke-width="1" d="M10,8.4987 L13,8.4987 M7.5,8.4978 L7.5,20.4988 C7.5,21.0518 7.948,21.4988 8.5,21.4988 L14.5,21.4988 C15.052,21.4988 15.5,21.0518 15.5,20.4988 L15.5,8.4988 C15.5,7.9468 15.053,7.4988 14.5,7.4988 L8.5,7.4978 C7.948,7.4978 7.5,7.9458 7.5,8.4978 Z M6,8.1071 L3.08,9.1691 C2.626,9.3351 2.389,9.8301 2.551,10.2741 L6,19.7511 M17,19.7517 L20.449,10.2747 C20.611,9.8307 20.374,9.3357 19.92,9.1707 L17,8.1067 M17,1.9997 L18.5,4.4997 L16,5.9997 M7,5.9997 L4.5,4.4997 L6,1.9997 M4.5,4.4997 C6.706,3.8317 9.076,3.4997 11.5,3.4997 C13.91,3.4997 16.305,3.8387 18.5,4.4997"/>
</svg>
