<svg xmlns="http://www.w3.org/2000/svg" width="36" height="36" fill="none" viewBox="0 0 36 36"><path fill="#000" fill-rule="evenodd" d="M15.5 8.25a2.5 2.5 0 1 1 5 0 2.5 2.5 0 0 1-5 0m4.949 2.5a3.5 3.5 0 1 0-4.898 0h-7.73l-.065.424-3 19.5-.089.576h26.666l-.089-.576-3-19.5-.065-.424h-7.73m-2.449 1H8.679l-2.846 18.5h24.334l-2.846-18.5zm-.25 6.266-3.356 3.387 3.673 5.18h-2.36l-2.602-3.845-1.078 1.079v2.766h-1.87v-8.567h1.87v3.545l3.357-3.545zm8.192 8.566v-4.617h-3.597v1.371h1.904q-.03.866-.594 1.401-.566.532-1.45.533-1.226-.001-1.853-.92-.51-.75-.509-2.028 0-1.307.545-2.074.621-.878 1.758-.878.75 0 1.239.386t.63 1.078h1.81a3.2 3.2 0 0 0-.909-1.933q-1.06-1.09-2.748-1.09-1.827 0-2.982 1.219-1.23 1.29-1.23 3.31 0 1.781.944 2.994 1.136 1.455 3.099 1.454 1.61-.001 2.56-1.184l.188.978z" clip-rule="evenodd"/></svg>