<svg xmlns="http://www.w3.org/2000/svg" width="24" height="24" version="1.1" viewBox="0 0 24 24">
  <path fill="none" fill-rule="evenodd" stroke="#000" stroke-width="1" d="M9,22 L7,16.5 L4.5,16.5 L4.5,19 L3,21 M5.5,10.5 C4.967,10.5 4.5,10.033 4.5,9.5 C4.5,8.967 4.967,8.5 5.5,8.5 C6.033,8.5 6.5,8.967 6.5,9.5 C6.5,10.033 6.033,10.5 5.5,10.5 Z M4.5,12.5 L4.5,16.5 L7,16.5 L7,12.5 M11.5,13.5 L9,13.5 L7,12.5 L5.237,12.5 L4,12.5 L2.5,14 L2.5,17 M17.5,7.5 L17.5,13.5 L14.5,13.5 L14.5,7.5 M14.5,13.5 L14.5,17.557 L12,21 M19.5,22 L19.5,16.557 L17.5,13.5 M16,5.5566 C15.2,5.5566 14.5,4.8566 14.5,4.0566 C14.5,3.2566 15.2,2.5566 16,2.5566 C16.8,2.5566 17.5,3.2566 17.5,4.0566 C17.5,4.8566 16.8,5.5566 16,5.5566 Z M11.5,14 L11.5,10.5 L14.5,7.5 L17.5,7.5 L19.5,10.5 L22,12"/>
</svg>
