<?xml version="1.0" encoding="utf-8"?>
<!-- Generator: Adobe Illustrator 24.2.0, SVG Export Plug-In . SVG Version: 6.00 Build 0)  -->
<svg version="1.0" id="Ebene_1" xmlns="http://www.w3.org/2000/svg" xmlns:xlink="http://www.w3.org/1999/xlink" x="0px" y="0px"
	 viewBox="0 0 24 24" enable-background="new 0 0 24 24" xml:space="preserve">
<g id="SVG_x5F_24x24pt">
	<path id="backgroundBlue" fill="#2D327D" d="M0,22.5v-21C0,0.675,0.675,0,1.5,0h21C23.325,0,24,0.675,24,1.5v21
		c0,0.825-0.675,1.5-1.5,1.5h-21C0.675,24,0,23.325,0,22.5z"/>
	<g id="content">
		<g>
			<path fill="#FFFFFF" d="M3.73,19.575h4.502L8.961,8.654C8.962,8.632,8.962,8.61,8.962,8.586c0-0.557-0.453-1.011-1.012-1.011
				H4.014C3.453,7.575,3,8.029,3,8.586C3,8.61,3.001,8.632,3.001,8.654L3.73,19.575L3.73,19.575z M3.796,8.7
				c0-0.207,0.167-0.376,0.375-0.376h3.62c0.208,0,0.377,0.169,0.377,0.376c0,0.008,0,0.017-0.002,0.025l-0.223,3.35H4.021
				l-0.225-3.35C3.796,8.717,3.796,8.709,3.796,8.7L3.796,8.7z"/>
			<polygon fill="#FFFFFF" points="7.719,9.196 7.457,9.047 7.086,9.697 7.345,9.848 7.719,9.196 			"/>
			<polygon fill="#FFFFFF" points="6.952,8.844 6.662,8.767 6.472,9.493 6.763,9.569 6.952,8.844 			"/>
			<polygon fill="#FFFFFF" points="5.831,8.7 6.132,8.7 6.132,9.45 5.831,9.45 5.831,8.7 			"/>
			<path fill="#FFFFFF" d="M5.787,11.7h0.39L5.369,8.934C5.343,8.855,5.271,8.801,5.187,8.801C5.084,8.801,5,8.884,5,8.987
				C5,9.005,5.003,9.023,5.007,9.04L5.787,11.7L5.787,11.7z"/>
			<polygon fill="#FFFFFF" points="4.872,9.702 4.499,9.051 4.238,9.2 4.611,9.851 4.872,9.702 			"/>
		</g>
		<path fill="#FFFFFF" d="M19.876,12.075H17.25v-0.751c0-0.456-0.369-0.825-0.825-0.825h-2.1c-0.456,0-0.825,0.369-0.825,0.825
			v0.751h-2.625c-0.622,0-1.125,0.503-1.125,1.124v5.251c0,0.621,0.503,1.125,1.125,1.125h9.001c0.62,0,1.124-0.504,1.124-1.125
			v-5.251C21,12.578,20.496,12.075,19.876,12.075L19.876,12.075z M15.188,16.349c0,0.167-0.135,0.301-0.3,0.301h-2.026
			c-0.165,0-0.3-0.134-0.3-0.301v-2.597c0-0.08,0.032-0.156,0.088-0.212l0.66-0.66c0.036-0.035,0.084-0.054,0.133-0.054h0.244v0.373
			h0.376v-0.373h0.244c0.049,0,0.098,0.02,0.132,0.054l0.66,0.66c0.056,0.056,0.088,0.132,0.088,0.212V16.349L15.188,16.349z
			 M16.574,12.075h-2.4v-0.901h2.4V12.075L16.574,12.075z"/>
		<polygon fill="#FFFFFF" points="3,20.325 20.989,20.325 20.989,21 3,21 3,20.325 		"/>
	</g>
</g>
</svg>
