<svg xmlns="http://www.w3.org/2000/svg" width="24" height="24" fill="none" viewBox="0 0 24 24"><path fill="#000" fill-rule="evenodd" d="m15.37 2.92 1.5-.403.26.966-1.13.304V6h4a1 1 0 1 0 0-2V3a2 2 0 1 1 0 4h-4v2.213l1.13.304-.26.966-1.5-.404-11.5-3.096L2.077 6.5l1.793-.483zM15 4.057 5.923 6.5 15 8.944zM7.5 12a.5.5 0 0 0 0 1H9v1H4.5a.5.5 0 0 0 0 1H8v1H3.5a.5.5 0 0 0 0 1H8v1H4.5a.5.5 0 0 0 0 1H8v1H5.5a.5.5 0 0 0 0 1H9c1.443 0 2.515-.24 3.217-.474.351-.117.61-.233.778-.317l.005-.002V13.74L10.825 12zm6 8.5.277.416-.001.001-.003.002-.006.004-.02.012q-.023.016-.065.04a4 4 0 0 1-.24.128c-.207.104-.51.238-.909.371C11.735 21.74 10.557 22 9 22H5.5a1.5 1.5 0 0 1-1.395-2.052 1.5 1.5 0 0 1-1-2 1.5 1.5 0 0 1 0-2.895A1.5 1.5 0 0 1 4.5 13h1.585A1.5 1.5 0 0 1 7.5 11h3.675l.137.109 2.5 2 .188.15v7.508l-.223.148zm3.89-6.451q-.352.546-.39 1.541h.92q.114-1.755 1.542-1.755.69 0 1.044.444.294.363.294.899 0 .289-.102.567-.123.326-.519.734-.615.631-.795.86-.179.232-.276.52-.133.397-.144 1.215h.91q0-.46.054-.75.047-.289.168-.484.12-.195.426-.49.69-.674.872-.925.407-.552.407-1.317 0-.926-.6-1.493Q20.559 13 19.473 13q-.675 0-1.215.273-.541.273-.867.776m2.591 6.957h-1.156v-1.113h1.156z" clip-rule="evenodd"/></svg>