<svg width="24" height="24" viewBox="0 0 24 24" fill="none" xmlns="http://www.w3.org/2000/svg"><path fill-rule="evenodd" clip-rule="evenodd" d="m15.37 2.92 1.5-.403.26.966-1.13.304V6h4a1 1 0 1 0 0-2V3a2 2 0 1 1 0 4h-4v2.213l1.13.304-.26.966-1.5-.404-11.5-3.096L2.077 6.5l1.793-.483 11.5-3.096ZM15 4.057 5.923 6.5 15 8.944V4.056ZM7.5 12a.5.5 0 0 0 0 1H9v1H4.5a.5.5 0 0 0 0 1H8v1H3.5a.5.5 0 0 0 0 1H8v1H4.5a.5.5 0 0 0 0 1H8v1H5.5a.5.5 0 0 0 0 1H9c1.443 0 2.515-.24 3.217-.474.351-.117.61-.233.778-.317l.005-.002V13.74L10.825 12H7.5Zm6 8.5.277.416-.001.001-.003.002-.006.004-.02.012a4.344 4.344 0 0 1-.305.168c-.207.104-.51.238-.909.371C11.735 21.74 10.557 22 9 22H5.5a1.5 1.5 0 0 1-1.395-2.052 1.5 1.5 0 0 1-1-2 1.5 1.5 0 0 1 0-2.896A1.5 1.5 0 0 1 4.5 13h1.585A1.5 1.5 0 0 1 7.5 11h3.675l.137.11 2.5 2 .188.15V20.769l-.223.148-.277-.416Zm3.89-6.451c-.235.364-.365.877-.39 1.541h.92c.076-1.17.59-1.755 1.542-1.755.46 0 .808.148 1.044.444.196.242.294.542.294.899 0 .192-.035.382-.102.567-.082.218-.255.462-.519.734-.41.42-.675.708-.795.86-.12.155-.21.327-.276.52-.089.264-.137.67-.144 1.215h.91c0-.307.018-.557.054-.75.031-.192.088-.354.168-.484.08-.13.222-.293.426-.49.46-.45.75-.757.872-.925.271-.368.407-.807.407-1.317 0-.617-.2-1.115-.6-1.493-.428-.41-1.004-.615-1.728-.615-.45 0-.855.09-1.215.273-.361.182-.65.44-.867.776Zm2.591 6.957h-1.156v-1.113h1.156v1.113Z" fill="#000"/></svg>