<svg xmlns="http://www.w3.org/2000/svg" width="36" height="36" fill="none" viewBox="0 0 36 36"><path fill="#000" fill-rule="evenodd" d="M9.606 8.168c-.581.494-.856 1.02-.856 1.582s.275 1.088.856 1.583c.587.5 1.457.94 2.55 1.299 2.183.717 5.125 1.077 8.093 1.069s5.91-.384 8.094-1.106c1.094-.362 1.965-.8 2.553-1.296.583-.491.854-1.007.854-1.549s-.271-1.057-.854-1.548c-.588-.497-1.46-.935-2.553-1.296-2.184-.722-5.127-1.098-8.094-1.106-2.968-.008-5.91.351-8.093 1.069-1.093.36-1.963.798-2.55 1.299m-.649-.762C8.225 8.03 7.75 8.812 7.75 9.75v2.04c-1.208.361-2.264.83-3.049 1.42-.868.654-1.451 1.5-1.451 2.54v4.5c0 .937.475 1.721 1.206 2.348.724.62 1.729 1.115 2.886 1.5q.201.067.408.13v2.021c0 .938.475 1.722 1.206 2.349.724.62 1.729 1.115 2.886 1.5 2.317.773 5.375 1.152 8.408 1.152s6.09-.379 8.408-1.151c1.157-.386 2.162-.88 2.886-1.501.731-.627 1.206-1.41 1.206-2.348v-4.5c0-1.027-.588-1.861-1.454-2.507-.647-.482-1.479-.885-2.428-1.215 1.069-.375 1.996-.846 2.676-1.43.731-.626 1.206-1.41 1.206-2.348v-4.5c0-.925-.479-1.697-1.209-2.313-.724-.61-1.728-1.099-2.884-1.48C26.34 5.19 23.284 4.807 20.25 4.8c-3.032-.009-6.09.357-8.407 1.119-1.157.38-2.162.87-2.887 1.487m20.818 17.712c.765-.336 1.454-.747 1.975-1.242v2.374c0 .562-.275 1.09-.857 1.589-.588.504-1.458.947-2.551 1.311l-.092.03v-3.508a13 13 0 0 0 1.525-.554m-2.525.824a27 27 0 0 1-3.94.621c-.838.074-1.697.119-2.56.133v3.55c2.326-.033 4.611-.294 6.5-.777v-3.527m-11.405.496c1.252.16 2.575.246 3.905.26v3.548c-2.326-.033-4.611-.294-6.5-.777v-3.494a25 25 0 0 0 2.595.463m-3.595-.73c-.886-.264-1.683-.585-2.349-.963a22 22 0 0 1-1.151-.246v1.75c0 .563.275 1.091.857 1.59.588.504 1.458.947 2.551 1.311l.092.03v-3.472m3.72-.262q-.72-.091-1.398-.216.588.02 1.178.02c3.033 0 6.09-.379 8.408-1.151 1.157-.386 2.162-.88 2.886-1.501.731-.627 1.206-1.411 1.206-2.349v-1.374c1.013.327 1.847.72 2.448 1.17.72.537 1.052 1.107 1.052 1.705 0 .895-.765 1.745-2.377 2.453-1.571.69-3.758 1.152-6.15 1.364-2.388.212-4.948.172-7.252-.121M4.25 15.781v-.03c0-.62.336-1.202 1.053-1.742.6-.452 1.434-.846 2.447-1.172v1.413c0 .938.475 1.722 1.206 2.349.724.62 1.729 1.115 2.886 1.5 2.317.773 5.375 1.151 8.408 1.151q.491 0 .982-.013-.643.115-1.323.202c-2.3.294-4.846.341-7.215.137-2.376-.204-4.54-.658-6.094-1.346-1.571-.696-2.333-1.54-2.35-2.449m0 2.126v2.342c0 .563.275 1.091.857 1.59.588.504 1.458.947 2.551 1.311l.092.03V19.71a13 13 0 0 1-1.555-.565c-.754-.334-1.43-.743-1.945-1.237m11 6.339c-2.326-.033-4.611-.294-6.5-.777v-3.493c1.19.282 2.501.48 3.858.596.865.075 1.751.117 2.642.126zm1-3.55v3.55c2.326-.033 4.611-.294 6.5-.777v-3.527a26 26 0 0 1-2.714.489 35 35 0 0 1-3.786.265m7.592 2.454-.092.03v-3.508c.843-.253 1.604-.556 2.25-.908q.644-.117 1.25-.264v1.75c0 .562-.275 1.09-.857 1.588-.588.505-1.458.948-2.551 1.312m7.908-8.9v-2.374a5 5 0 0 1-.209.187c-.724.611-1.728 1.1-2.884 1.481q-.2.066-.407.129v3.508l.092-.03c1.093-.364 1.963-.808 2.551-1.312.582-.498.857-1.026.857-1.589m-4.5 3.22c-1.889.482-4.174.744-6.5.777v-3.551c2.286-.037 4.562-.287 6.5-.754v3.528m-14 0c1.889.482 4.174.744 6.5.777v-3.548c-2.285-.025-4.561-.263-6.5-.723v3.494m-1-.289-.092-.03c-1.093-.364-1.963-.808-2.551-1.312-.582-.498-.857-1.026-.857-1.589v-2.343q.099.096.207.187c.725.618 1.73 1.107 2.887 1.488q.2.065.406.127v3.472" clip-rule="evenodd"/></svg>