<?xml version="1.0" encoding="utf-8"?>
<!-- Generator: Adobe Illustrator 24.2.0, SVG Export Plug-In . SVG Version: 6.00 Build 0)  -->
<svg version="1.0" id="Grundaufbau" xmlns="http://www.w3.org/2000/svg" xmlns:xlink="http://www.w3.org/1999/xlink" x="0px"
	 y="0px" viewBox="0 0 24 24" enable-background="new 0 0 24 24" xml:space="preserve">
<g id="SVG_x5F_24x24pt">
	<path id="backgroundBlue" fill="#2D327D" d="M0,22.5v-21C0,0.675,0.675,0,1.5,0h21C23.325,0,24,0.675,24,1.5v21
		c0,0.825-0.675,1.5-1.5,1.5h-21C0.675,24,0,23.325,0,22.5z"/>
	<g id="content">
		<path fill="#FFFFFF" d="M14.499,16.509h-4.303v0.003H9.327c-0.148,0-0.303-0.118-0.341-0.263L6.489,6.881
			C6.484,6.863,6.477,6.842,6.468,6.819L6.415,6.616C6.36,6.412,6.15,6.291,5.947,6.344C5.743,6.399,5.62,6.609,5.676,6.813
			l2.173,8.16c0.003-0.001,0.003-0.001,0.003-0.001l0.547,2.044c0.038,0.144,0.193,0.261,0.341,0.261h5.494
			c0.013,0,0.03-0.002,0.044-0.003h0.223c0.212,0,0.383-0.17,0.383-0.382C14.881,16.681,14.711,16.509,14.499,16.509"/>
		<path fill="#FFFFFF" d="M18.328,19.988l-1.21-5.086c-0.098-0.354-0.466-0.631-0.831-0.631h-0.81
			c0.158-0.359,0.246-0.756,0.246-1.173c0-1.616-1.311-2.927-2.927-2.927c-0.242,0-0.476,0.03-0.7,0.086L12.053,10.1
			c-0.005-0.016-0.014-0.035-0.018-0.053l-0.202-0.772C11.623,8.47,10.8,7.989,9.996,8.201c-0.804,0.21-1.285,1.035-1.073,1.838
			H8.921L9.01,10.38c-0.003-0.001-0.005-0.001-0.007-0.002l0.384,1.438l0.489,1.859l0.004-0.001l0.381,1.46
			c0.093,0.346,0.462,0.629,0.819,0.629l4.683-0.003l0.572,2.417h-0.003c0.003,0.013,0.006,0.026,0.01,0.038
			c0.003,0.013,0.006,0.026,0.01,0.038l0.499,2.108c0.117,0.325,0.437,0.536,0.788,0.504c0.421-0.038,0.734-0.413,0.695-0.835
			C18.333,20.016,18.33,20.002,18.328,19.988"/>
		<path fill="#FFFFFF" d="M11.367,6.18c0,0.827-0.671,1.497-1.499,1.497C9.04,7.678,8.37,7.007,8.37,6.18
			c0-0.828,0.67-1.5,1.498-1.5C10.697,4.681,11.367,5.352,11.367,6.18"/>
	</g>
</g>
</svg>
