<svg xmlns="http://www.w3.org/2000/svg" width="36" height="36" version="1.1" viewBox="0 0 36 36">
  <path fill="none" fill-rule="evenodd" stroke="#000" stroke-width="1" d="M13.29195,25.542 L6.18945,20.58 C5.54295,20.0625 4.59945,20.1645 4.08045,20.811 C3.56145,21.456 3.66495,22.401 4.31145,22.92 L13.19895,30.75 L19.11345,30.75 L20.62545,32.25 L31.80045,32.25 L24.25845,24.654 C22.55295,23.013 20.38245,21.792 18.16395,21.75 L15.00045,21.75 C12.02295,21.75 11.95245,26.25 15.00045,26.25 L18.00045,26.25 M8.25,14.24955 L32.25,14.24955 M22.1001,17.24955 L18.3996,17.24955 C17.7636,17.24955 17.2506,16.73505 17.2506,16.10055 L17.2506,12.40005 C17.2506,11.76555 17.7636,11.24955 18.3996,11.24955 L22.1001,11.24955 C22.7361,11.24955 23.2506,11.76555 23.2506,12.40005 L23.2506,16.10055 C23.2506,16.73505 22.7361,17.24955 22.1001,17.24955 Z M8.25,19.49955 L8.25,10.49955 C8.25,9.25755 9.2565,8.24955 10.5,8.24955 L30,8.24955 C31.242,8.24955 32.25,9.25755 32.25,10.49955 L32.25,22.49955 C32.25,23.74305 31.242,24.74955 30,24.74955 L28.503,24.74955 M24.75,8.24955 L24.75,7.49955 C24.75,6.25755 23.742,5.24955 22.5,5.24955 L18,5.24955 C16.7565,5.24955 15.75,6.25755 15.75,7.49955 L15.75,8.24955"/>
</svg>
