<?xml version="1.0" encoding="utf-8"?>
<!-- Generator: Adobe Illustrator 24.2.0, SVG Export Plug-In . SVG Version: 6.00 Build 0)  -->
<svg version="1.0" id="Ebene_1" xmlns="http://www.w3.org/2000/svg" xmlns:xlink="http://www.w3.org/1999/xlink" x="0px" y="0px"
	 viewBox="0 0 24 24" enable-background="new 0 0 24 24" xml:space="preserve">
<g id="SVG_x5F_24x24pt">
	<path id="backgroundBlue" fill="#2D327D" d="M0,22.5v-21C0,0.675,0.675,0,1.5,0h21C23.325,0,24,0.675,24,1.5v21
		c0,0.825-0.675,1.5-1.5,1.5h-21C0.675,24,0,23.325,0,22.5z"/>
	<g id="content">
		<path fill="#FFFFFF" d="M15.224,5.438L8.76,4.306C8.428,4.248,8.186,3.959,8.186,3.623c0-0.383,0.311-0.694,0.694-0.694
			c0.04,0,0.08,0.004,0.12,0.01l6.464,1.132c0.332,0.058,0.574,0.347,0.574,0.683c0,0.383-0.311,0.694-0.694,0.694
			C15.303,5.449,15.263,5.445,15.224,5.438L15.224,5.438z"/>
		<polygon fill="#FFFFFF" points="21.001,7.516 3.001,4.363 3.001,3.678 21.001,6.831 21.001,7.516 		"/>
		<path fill="#FFFFFF" d="M3.75,11.25C3.336,11.25,3,11.586,3,12v8.25C3,20.664,3.336,21,3.75,21h16.5c0.414,0,0.75-0.336,0.75-0.75
			V12c0-0.414-0.336-0.75-0.75-0.75h-3.712l-2.37-4.553l-1.302-0.228l2.488,4.781H8.608l2.68-5.057L10.24,6.01l-2.778,5.24H3.75
			L3.75,11.25z M15.25,16.125v-3.75c0-0.207,0.168-0.375,0.375-0.375h4.25c0.207,0,0.375,0.168,0.375,0.375v3.75
			c0,0.207-0.168,0.375-0.375,0.375h-4.25C15.418,16.5,15.25,16.332,15.25,16.125L15.25,16.125z M9.5,16.125v-3.75
			C9.5,12.168,9.668,12,9.875,12h4.25c0.207,0,0.375,0.168,0.375,0.375v3.75c0,0.207-0.168,0.375-0.375,0.375h-4.25
			C9.668,16.5,9.5,16.332,9.5,16.125L9.5,16.125z M3.75,16.125v-3.75C3.75,12.168,3.918,12,4.125,12h4.25
			c0.207,0,0.375,0.168,0.375,0.375v3.75c0,0.207-0.168,0.375-0.375,0.375h-4.25C3.918,16.5,3.75,16.332,3.75,16.125L3.75,16.125z"
			/>
	</g>
</g>
</svg>
