<?xml version="1.0" encoding="utf-8"?>
<!-- Generator: Adobe Illustrator 29.6.1, SVG Export Plug-In . SVG Version: 9.03 Build 0)  -->
<svg version="1.0" xmlns="http://www.w3.org/2000/svg" xmlns:xlink="http://www.w3.org/1999/xlink" x="0px" y="0px"
	 viewBox="0 0 24 24" enable-background="new 0 0 24 24" xml:space="preserve">
<g id="SVG_x5F_24x24pt">
	<path id="backgroundBlue" fill="#2D327D" d="M0,22.5v-21C0,0.675,0.675,0,1.5,0h21C23.325,0,24,0.675,24,1.5v21
		c0,0.825-0.675,1.5-1.5,1.5h-21C0.675,24,0,23.325,0,22.5z"/>
	<g id="content">
		<path fill="#FFFFFF" d="M15.22,5.376L8.756,4.243C8.425,4.185,8.182,3.897,8.182,3.56c0-0.383,0.311-0.694,0.694-0.694
			c0.04,0,0.08,0.004,0.12,0.01l6.464,1.132c0.332,0.058,0.574,0.346,0.574,0.683c0,0.383-0.311,0.694-0.694,0.694
			C15.3,5.386,15.26,5.383,15.22,5.376L15.22,5.376z"/>
		<polygon fill="#FFFFFF" points="20.997,6.831 2.997,3.678 2.997,4.363 20.997,7.516 		"/>
		<path fill="#FFFFFF" d="M19.724,11.625c-0.133-0.232-0.381-0.375-0.649-0.375H4.914c-0.268,0-0.517,0.143-0.65,0.376
			c-0.42,0.736-1.269,2.473-1.269,4.499c0,2.026,0.849,3.763,1.269,4.499C4.397,20.857,4.645,21,4.914,21h14.161
			c0.268,0,0.516-0.142,0.649-0.375C20.146,19.89,21,18.152,21,16.125C21,14.098,20.146,12.36,19.724,11.625z M8.772,17.625
			C8.772,17.832,8.604,18,8.397,18h-4.11c-0.179,0-0.332-0.127-0.368-0.302c-0.1-0.485-0.156-1.016-0.156-1.573
			c0-1.841,0.767-3.401,1.061-3.931C4.89,12.074,5.015,12,5.152,12h3.246c0.207,0,0.375,0.168,0.375,0.375V17.625z M14.472,17.625
			c0,0.207-0.168,0.375-0.375,0.375h-4.2c-0.207,0-0.375-0.168-0.375-0.375v-5.25C9.522,12.168,9.69,12,9.897,12h4.2
			c0.207,0,0.375,0.168,0.375,0.375V17.625z M19.723,18h-4.126c-0.207,0-0.375-0.168-0.375-0.375v-5.25
			c0-0.207,0.168-0.375,0.375-0.375h3.289c0.138,0,0.265,0.076,0.33,0.197c0.288,0.534,1.031,2.09,1.031,3.928
			c0,0.557-0.056,1.088-0.156,1.573C20.055,17.873,19.902,18,19.723,18z"/>
		<polygon fill="#FFFFFF" points="10.573,6.078 7.819,10.892 8.978,10.892 11.626,6.264 		"/>
		<polygon fill="#FFFFFF" points="12.442,6.405 15.009,10.892 16.168,10.892 13.731,6.633 		"/>
	</g>
</g>
</svg>
