<?xml version="1.0" encoding="utf-8"?>
<!-- Generator: Adobe Illustrator 24.2.0, SVG Export Plug-In . SVG Version: 6.00 Build 0)  -->
<svg version="1.0" id="Ebene_1" xmlns="http://www.w3.org/2000/svg" xmlns:xlink="http://www.w3.org/1999/xlink" x="0px" y="0px"
	 viewBox="0 0 24 24" enable-background="new 0 0 24 24" xml:space="preserve">
<g id="SVG_x5F_24x24pt">
	<path id="backgroundBlue" fill="#2D327D" d="M0,22.5v-21C0,0.675,0.675,0,1.5,0h21C23.325,0,24,0.675,24,1.5v21
		c0,0.825-0.675,1.5-1.5,1.5h-21C0.675,24,0,23.325,0,22.5z"/>
	<g id="content">
		<polygon fill="#FFFFFF" points="7.088,17.552 10.501,17.552 10.501,18.94 13.914,18.94 13.914,20.328 17.328,20.328 
			17.328,21.003 13.239,21.003 13.239,19.615 9.826,19.615 9.826,18.227 6.413,18.227 6.413,16.839 2.999,16.839 2.999,16.164 
			7.088,16.164 7.088,17.552 		"/>
		<path fill="#FFFFFF" d="M20.474,11.563c-0.067,0-0.133-0.013-0.195-0.039l-0.551-0.23v-1.098l0.941,0.393
			c0.188,0.079,0.311,0.263,0.311,0.467C20.981,11.336,20.754,11.563,20.474,11.563L20.474,11.563z"/>
		<path fill="#FFFFFF" d="M20.31,21.003c-0.383,0-0.694-0.311-0.694-0.694v-3.282l-1.613-2.776V16.6c0,0.138-0.038,0.273-0.109,0.39
			l-1.593,2.616l0,0c-0.126,0.207-0.351,0.333-0.593,0.333c-0.383,0-0.694-0.311-0.694-0.694c0-0.127,0.035-0.252,0.101-0.361
			l1.387-2.278V8.391l-0.75,1.088v2.747c0,0.29-0.235,0.525-0.525,0.525c-0.29,0-0.525-0.235-0.525-0.525V9.319
			c0-0.152,0.046-0.301,0.133-0.426l1.558-2.259c0.28-0.406,0.742-0.649,1.235-0.649c0.828,0,1.5,0.672,1.5,1.5v5.715l1.774,3.053
			l0,0c0.066,0.115,0.102,0.245,0.102,0.377v3.678C21.004,20.692,20.693,21.003,20.31,21.003L20.31,21.003z"/>
		<path fill="#FFFFFF" d="M17.825,5.635c-0.725,0-1.313-0.588-1.313-1.313c0-0.725,0.588-1.313,1.313-1.313
			c0.725,0,1.313,0.588,1.313,1.313C19.138,5.047,18.55,5.635,17.825,5.635L17.825,5.635z"/>
	</g>
</g>
</svg>
