<svg xmlns="http://www.w3.org/2000/svg" width="48" height="48" fill="none" viewBox="0 0 48 48"><path fill="#000" fill-rule="evenodd" d="M45.647 45.354 40.293 40H5.5A2.5 2.5 0 0 1 3 37.5v-22A2.5 2.5 0 0 1 5.5 13h7.793L2.646 2.354l.708-.708 43 43zM14.293 14 35 34.707V39H13V14zM36 39v-3.293l2 2V39zm3 0v-.293l.293.293zM12 14v25h-2V14zM5.5 39H9V14H5.5A1.5 1.5 0 0 0 4 15.5v22A1.5 1.5 0 0 0 5.5 39M39 14h3.5a1.5 1.5 0 0 1 1.5 1.5v22.013a1.5 1.5 0 0 1-1.162 1.5l.224.974A2.5 2.5 0 0 0 45 37.494V15.5a2.5 2.5 0 0 0-2.5-2.5H31V9.5A2.5 2.5 0 0 0 28.5 7h-9A2.5 2.5 0 0 0 17 9.5V14h18v18h1V14h2v21h1zm-21-1h1v-2.5A1.5 1.5 0 0 1 20.5 9h7a1.5 1.5 0 0 1 1.5 1.5V13h1V9.5A1.5 1.5 0 0 0 28.5 8h-9A1.5 1.5 0 0 0 18 9.5zm10-2.5V13h-8v-2.5a.5.5 0 0 1 .5-.5h7a.5.5 0 0 1 .5.5" clip-rule="evenodd"/></svg>