<?xml version="1.0" encoding="utf-8"?>
<!-- Generator: Adobe Illustrator 24.2.0, SVG Export Plug-In . SVG Version: 6.00 Build 0)  -->
<svg version="1.0" id="Ebene_1" xmlns="http://www.w3.org/2000/svg" xmlns:xlink="http://www.w3.org/1999/xlink" x="0px" y="0px"
	 viewBox="0 0 24 24" enable-background="new 0 0 24 24" xml:space="preserve">
<g id="SVG_x5F_24x24pt">
	<path id="backgroundBlue" fill="#2D327D" d="M0,22.5v-21C0,0.675,0.675,0,1.5,0h21C23.325,0,24,0.675,24,1.5v21
		c0,0.825-0.675,1.5-1.5,1.5h-21C0.675,24,0,23.325,0,22.5z"/>
	<g id="content_1_">
		<g>
			<path fill="#FFFFFF" d="M6.412,7.508h6.534c1.292,0,2.282,0.203,2.972,0.609c0.572,0.332,1.009,0.775,1.31,1.329
				c0.301,0.554,0.452,1.178,0.452,1.873c0,0.788-0.189,1.474-0.568,2.058c-0.378,0.585-0.906,1.003-1.583,1.255
				c0.597,0.148,1.064,0.48,1.403,0.997c0.215,0.326,0.36,0.668,0.434,1.024c0.074,0.357,0.169,1.172,0.286,2.446
				c0.086,0.935,0.218,1.517,0.397,1.744L18.178,21h-3.073c-0.105-0.191-0.18-0.434-0.226-0.729
				c-0.046-0.295-0.106-0.978-0.18-2.049c-0.074-0.954-0.306-1.613-0.697-1.98c-0.391-0.366-1.057-0.549-1.998-0.549H9.356V21H6.412
				V7.508z M9.356,9.824v3.71h2.815c0.904,0,1.541-0.129,1.91-0.388c0.467-0.326,0.701-0.818,0.701-1.477
				c0-0.64-0.2-1.107-0.6-1.403c-0.4-0.295-1.031-0.443-1.892-0.443H9.356z"/>
		</g>
		<g>
			<path fill="#FFFFFF" d="M5.318,5.218L5.087,5.467l-0.332-0.3C4.609,5.257,4.428,5.303,4.21,5.303
				c-0.167,0-0.321-0.031-0.463-0.092c-0.142-0.062-0.26-0.15-0.355-0.266C3.21,4.725,3.118,4.451,3.118,4.124
				c0-0.354,0.107-0.64,0.321-0.858c0.21-0.213,0.475-0.32,0.794-0.32c0.165,0,0.318,0.031,0.458,0.092
				c0.14,0.061,0.259,0.148,0.356,0.261c0.19,0.221,0.285,0.493,0.285,0.814c0,0.175-0.026,0.336-0.079,0.482
				S5.125,4.861,5.027,4.955L5.318,5.218z M4.684,4.638c0.102-0.135,0.152-0.309,0.152-0.52c0-0.226-0.052-0.407-0.155-0.544
				C4.572,3.428,4.42,3.355,4.224,3.355c-0.19,0-0.34,0.072-0.451,0.215c-0.107,0.137-0.16,0.321-0.16,0.551
				c0,0.238,0.055,0.426,0.166,0.563c0.111,0.139,0.259,0.209,0.446,0.209c0.075,0,0.144-0.011,0.208-0.034L4.209,4.663L4.44,4.417
				L4.684,4.638z"/>
			<path fill="#FFFFFF" d="M7.191,3.569v1.68H6.767V5.004C6.639,5.198,6.459,5.295,6.228,5.295c-0.201,0-0.353-0.067-0.455-0.201
				C5.734,5.041,5.706,4.98,5.689,4.909C5.672,4.838,5.664,4.746,5.664,4.632V3.569H6.11v0.924c0,0.096,0.003,0.165,0.008,0.205
				C6.124,4.738,6.136,4.772,6.153,4.8C6.2,4.874,6.281,4.912,6.395,4.912c0.14,0,0.243-0.062,0.306-0.186
				c0.031-0.06,0.046-0.17,0.046-0.328V3.569H7.191z"/>
			<path fill="#FFFFFF" d="M9.052,5.249H8.597C8.578,5.183,8.568,5.127,8.568,5.081c-0.139,0.143-0.319,0.214-0.54,0.214
				c-0.172,0-0.307-0.04-0.403-0.12C7.514,5.083,7.459,4.954,7.459,4.789c0-0.21,0.095-0.356,0.285-0.437
				C7.82,4.319,7.962,4.289,8.168,4.261c0.177-0.024,0.288-0.046,0.331-0.068S8.565,4.126,8.565,4.06c0-0.147-0.097-0.22-0.292-0.22
				c-0.104,0-0.179,0.018-0.227,0.055S7.966,3.996,7.951,4.087H7.53C7.543,3.901,7.613,3.76,7.74,3.665s0.308-0.142,0.543-0.142
				c0.259,0,0.451,0.053,0.575,0.158C8.916,3.731,8.954,3.783,8.973,3.84s0.028,0.146,0.028,0.268c0,0.026-0.002,0.138-0.005,0.338
				C8.995,4.648,8.994,4.764,8.994,4.793c0,0.122,0.004,0.211,0.011,0.268C9.012,5.119,9.028,5.181,9.052,5.249z M8.562,4.438
				C8.504,4.474,8.4,4.502,8.248,4.523C8.141,4.539,8.064,4.56,8.017,4.586c-0.067,0.036-0.1,0.097-0.1,0.183
				c0,0.07,0.022,0.124,0.066,0.163S8.089,4.99,8.168,4.99c0.131,0,0.237-0.046,0.318-0.138C8.515,4.82,8.535,4.787,8.546,4.753
				c0.011-0.034,0.016-0.08,0.016-0.136V4.438z"/>
			<path fill="#FFFFFF" d="M9.798,3v0.401H9.352V3H9.798z M9.798,3.572v1.677H9.352V3.572H9.798z"/>
		</g>
	</g>
</g>
</svg>
