<svg xmlns="http://www.w3.org/2000/svg" width="36" height="36" fill="none" viewBox="0 0 36 36"><path fill="#000" d="M22.251 30h-1v-4.75h-5.493l-.238.015a1.87 1.87 0 0 0-1.234.654c-.362.413-.609.985-.77 1.6a8.7 8.7 0 0 0-.254 1.695 10 10 0 0 0-.014.714l.002.038v.01l-.499.024-.5.023v-.005l-.001-.014-.001-.049-.003-.177c0-.15.002-.364.017-.62a9.7 9.7 0 0 1 .285-1.893c.182-.692.481-1.43.986-2.005.519-.591 1.243-.997 2.21-1.01h6.507zm4.175-24.468 6 2.25.324.121v5.347h-3.928l-3.572 7.857V30h-1v-9.108l.045-.099 3.75-8.25.133-.293h3.572V8.596L26.509 6.63l-4.305 9.329-.116.252-.277.034-11.742 1.467-4.592 8.611 3.944-3.45.829-.726V30h-1v-5.65l-5.17 4.526-.771-.611 6-11.25.122-.229.257-.032 11.723-1.466 4.385-9.498.194-.42zM27.75 9a.75.75 0 1 1-.001 1.501A.75.75 0 0 1 27.75 9"/></svg>