<svg class="color-immutable" width="59" height="20" viewBox="0 0 59 20" fill="none" xmlns="http://www.w3.org/2000/svg"><path d="M1.792.5h55.416c.71 0 1.292.58 1.292 1.3v16.4c0 .72-.58 1.3-1.292 1.3H1.792C1.082 19.5.5 18.92.5 18.2V1.8c0-.72.581-1.3 1.292-1.3Z" stroke="#FFDE15"/><path d="M12.8 7.661h-2.405c-.047-.564-.258-.994-.633-1.289-.369-.3-.888-.45-1.558-.45-.596 0-1.06.118-1.392.355-.327.232-.49.56-.49.981 0 .38.158.654.474.823.306.168 1.081.406 2.326.712 1.313.327 2.223.656 2.729.988.933.612 1.4 1.464 1.4 2.555 0 1.197-.47 2.141-1.408 2.832-.828.607-1.949.91-3.362.91-1.571 0-2.792-.359-3.662-1.076-.87-.717-1.321-1.738-1.353-3.061H5.98c.037.643.203 1.12.499 1.432.464.495 1.162.743 2.096.743.633 0 1.134-.124 1.503-.372.416-.284.625-.672.625-1.162 0-.49-.293-.85-.878-1.076-.322-.127-1.081-.356-2.278-.688-.75-.206-1.335-.401-1.756-.586-.422-.184-.76-.39-1.013-.617-.59-.527-.886-1.255-.886-2.183 0-1.113.462-1.993 1.384-2.642.786-.554 1.807-.83 3.062-.83 1.102 0 2.025.218 2.768.656 1.07.628 1.635 1.643 1.693 3.045ZM24.515 4.236v11.565h-2.54l-4.84-7.879.031 7.879h-2.428V4.236h2.57l4.81 7.863-.031-7.863h2.428ZM34.3 13.744v2.057h-8.33c0-.628.1-1.226.3-1.796.207-.57.494-1.06.863-1.47.285-.317.617-.626.997-.926.385-.301 1.147-.852 2.286-1.654.554-.385.941-.743 1.163-1.075.221-.333.332-.718.332-1.155 0-.507-.15-.915-.451-1.226-.295-.317-.686-.475-1.17-.475-1.192 0-1.807.857-1.844 2.57h-2.223v-.252c0-1.403.393-2.49 1.18-3.26.764-.748 1.753-1.123 2.965-1.123 1.076 0 1.975.306 2.698.918.785.665 1.178 1.558 1.178 2.682 0 .98-.313 1.824-.94 2.53-.207.233-.4.42-.578.563-.18.137-.652.471-1.416 1.004-.728.506-1.25.894-1.566 1.163a6.353 6.353 0 0 0-.87.925H34.3ZM35.186 12.898h2.183c.18.896.699 1.345 1.558 1.345.485 0 .878-.164 1.179-.49.306-.333.54-.847.704-1.543.105-.443.182-.947.23-1.511-.354.496-.718.849-1.092 1.06-.37.206-.82.308-1.353.308-.85 0-1.587-.248-2.215-.743a3.54 3.54 0 0 1-1.028-1.353 4.444 4.444 0 0 1-.364-1.803c0-1.303.446-2.358 1.337-3.164.764-.696 1.682-1.045 2.752-1.045.66 0 1.269.148 1.828.443a3.96 3.96 0 0 1 1.408 1.258c.67.965 1.004 2.32 1.004 4.066 0 1.614-.295 2.99-.886 4.13-.77 1.48-1.935 2.222-3.496 2.222-1.039 0-1.898-.288-2.579-.862-.675-.575-1.065-1.348-1.17-2.318Zm3.844-6.985c-.496 0-.915.203-1.258.61-.343.41-.514.933-.514 1.566 0 .511.124.965.372 1.36.337.543.812.815 1.424.815.553 0 .996-.222 1.329-.665.31-.416.466-.912.466-1.487 0-.606-.16-1.12-.482-1.542a1.606 1.606 0 0 0-1.337-.657Z" fill="#FFDE15"/></svg>