<?xml version="1.0" encoding="utf-8"?>
<!-- Generator: Adobe Illustrator 24.2.0, SVG Export Plug-In . SVG Version: 6.00 Build 0)  -->
<svg version="1.0" id="Ebene_1" xmlns="http://www.w3.org/2000/svg" xmlns:xlink="http://www.w3.org/1999/xlink" x="0px" y="0px"
	 viewBox="0 0 24 24" enable-background="new 0 0 24 24" xml:space="preserve">
<g id="SVG_x5F_24x24pt">
	<path id="backgroundBlue" fill="#2D327D" d="M0,22.5v-21C0,0.675,0.675,0,1.5,0h21C23.325,0,24,0.675,24,1.5v21
		c0,0.825-0.675,1.5-1.5,1.5h-21C0.675,24,0,23.325,0,22.5z"/>
	<g id="content">
		<path fill="#FFFFFF" d="M20.562,10.089L7.404,14.879c-0.245,0.089-0.51,0.077-0.746-0.033c0,0-0.636-0.296-1.357-0.632
			l0.639,1.756c0.113,0.31,0.459,0.471,0.769,0.358l13.673-4.977c0.31-0.113,0.472-0.459,0.359-0.769L20.562,10.089z"/>
		<path fill="#FFFFFF" d="M2.949,12.112l0.174,0.478c0.052,0.144,0.16,0.269,0.31,0.339l3.383,1.577
			c0.139,0.065,0.303,0.077,0.459,0.02l13.298-4.841c0.31-0.113,0.472-0.459,0.359-0.769l-1.077-2.959L2.949,12.112z"/>
		<path fill="#FFFFFF" d="M14.928,16.125h0.656l-0.853-2.343l-2.115,0.769l0.918,2.523C13.754,16.519,14.295,16.125,14.928,16.125z"
			/>
		<path fill="#FFFFFF" d="M14.928,16.5c-0.621,0-1.125,0.504-1.125,1.125c0,0.621,0.504,1.125,1.125,1.125H21V16.5H14.928
			 M14.928,18.372c-0.414,0-0.75-0.336-0.75-0.75c0-0.414,0.336-0.75,0.75-0.75c0.414,0,0.75,0.336,0.75,0.75
			C15.678,18.036,15.342,18.372,14.928,18.372z"/>
		<g id="Ergaenzungstext">
			<path fill="#FFFFFF" d="M5.088,3L4.341,5.249H3.783L3.046,3h0.514l0.506,1.684L4.579,3H5.088z"/>
			<path fill="#FFFFFF" d="M5.724,3v0.401H5.278V3H5.724z M5.724,3.572v1.677H5.278V3.572H5.724z"/>
			<path fill="#FFFFFF" d="M7.665,3v2.249H7.239v-0.22C7.14,5.206,6.977,5.295,6.748,5.295c-0.228,0-0.409-0.084-0.543-0.251
				C6.074,4.881,6.008,4.666,6.008,4.4c0-0.251,0.058-0.455,0.174-0.611c0.133-0.18,0.314-0.271,0.541-0.271
				c0.223,0,0.388,0.086,0.497,0.257V3H7.665z M6.839,3.884c-0.115,0-0.207,0.043-0.275,0.129c-0.071,0.09-0.106,0.217-0.106,0.381
				c0,0.16,0.035,0.287,0.105,0.381c0.067,0.09,0.161,0.135,0.285,0.135s0.218-0.045,0.286-0.134C7.2,4.689,7.234,4.563,7.234,4.401
				c0-0.169-0.036-0.298-0.108-0.388C7.056,3.927,6.96,3.884,6.839,3.884z"/>
			<path fill="#FFFFFF" d="M9.52,4.726C9.496,4.82,9.453,4.909,9.392,4.992c-0.148,0.202-0.36,0.303-0.637,0.303
				c-0.25,0-0.451-0.079-0.601-0.237C8.08,4.981,8.024,4.888,7.985,4.78C7.943,4.664,7.921,4.543,7.921,4.417
				c0-0.244,0.07-0.449,0.211-0.615c0.157-0.186,0.36-0.278,0.609-0.278c0.201,0,0.372,0.062,0.514,0.186
				c0.102,0.089,0.175,0.199,0.221,0.33s0.069,0.295,0.069,0.493h-1.17c0.004,0.082,0.017,0.15,0.038,0.205
				c0.06,0.147,0.175,0.22,0.345,0.22c0.083,0,0.151-0.018,0.203-0.055C9.014,4.865,9.057,4.807,9.09,4.726H9.52z M9.09,4.232
				C9.082,4.151,9.064,4.084,9.035,4.031C9.006,3.978,8.966,3.937,8.913,3.906S8.802,3.86,8.74,3.86c-0.099,0-0.181,0.033-0.246,0.1
				C8.429,4.026,8.391,4.117,8.378,4.232H9.09z"/>
			<path fill="#FFFFFF" d="M10.618,3.523c0.244,0,0.443,0.081,0.598,0.243c0.153,0.16,0.229,0.373,0.229,0.64
				c0,0.276-0.082,0.496-0.245,0.66c-0.153,0.153-0.352,0.229-0.597,0.229c-0.261,0-0.47-0.085-0.624-0.255
				C9.832,4.877,9.758,4.667,9.758,4.409c0-0.254,0.072-0.461,0.215-0.62C10.132,3.612,10.347,3.523,10.618,3.523z M10.595,3.871
				c-0.118,0-0.212,0.048-0.281,0.143c-0.071,0.096-0.106,0.228-0.106,0.395c0,0.173,0.035,0.306,0.105,0.398
				c0.072,0.093,0.17,0.14,0.294,0.14c0.116,0,0.208-0.043,0.275-0.128c0.077-0.094,0.115-0.231,0.115-0.411
				c0-0.168-0.034-0.299-0.102-0.392C10.824,3.919,10.724,3.871,10.595,3.871z"/>
		</g>
	</g>
</g>
</svg>
