<svg class="color-immutable" xmlns="http://www.w3.org/2000/svg" width="59" height="20" fill="none" viewBox="0 0 59 20"><g clip-path="url(#a)"><path stroke="#000" d="M2 .5h55A1.5 1.5 0 0 1 58.5 2v16a1.5 1.5 0 0 1-1.5 1.5H2A1.5 1.5 0 0 1 .5 18V2A1.5 1.5 0 0 1 2 .5Z"/><path fill="#000" d="M4.069 4.224h5.704q1.692 0 2.594.532.749.434 1.144 1.16.395.725.395 1.635 0 1.032-.5 1.797-.491.765-1.377 1.096.78.192 1.224.87.282.426.379.894.097.467.25 2.135.112 1.224.346 1.523l.113.137h-2.683a2 2 0 0 1-.201-.637q-.058-.387-.154-1.788-.096-1.25-.612-1.724-.507-.484-1.74-.484H6.639v4.633h-2.57zm2.57 2.022v3.239h2.457q1.184 0 1.668-.339.612-.426.612-1.289 0-.837-.524-1.224t-1.651-.387zM17.306 9.678q-.822-.282-1.265-.926-.435-.645-.435-1.563 0-1.531 1.257-2.441 1.111-.806 2.642-.806 1.74 0 2.844.959 1.047.902 1.047 2.231 0 .927-.443 1.587t-1.256.96q.636.184 1.039.475 1.12.813 1.12 2.376 0 1.797-1.378 2.86-1.16.895-2.98.895-1.975 0-3.143-.983-1.217-1.024-1.217-2.683 0-1.556 1.08-2.409.492-.378 1.088-.532m2.167-3.907q-.774 0-1.249.435-.475.426-.475 1.128 0 .733.475 1.176.483.435 1.29.435.804 0 1.272-.435t.467-1.184q0-.734-.475-1.144-.466-.411-1.305-.411m-.016 4.794q-.87 0-1.426.54-.548.53-.548 1.369 0 .862.556 1.402.564.54 1.458.54 1.015 0 1.523-.597.49-.571.491-1.321 0-.855-.564-1.402-.54-.531-1.49-.531M26.49 9.678q-.822-.282-1.265-.926-.435-.645-.435-1.563 0-1.531 1.257-2.441 1.111-.806 2.643-.806 1.74 0 2.844.959 1.047.902 1.047 2.231 0 .927-.443 1.587-.442.66-1.257.96.636.184 1.04.475 1.12.813 1.12 2.376 0 1.797-1.378 2.86-1.161.895-2.981.895-1.975 0-3.142-.983-1.217-1.024-1.217-2.683 0-1.556 1.08-2.409.491-.378 1.087-.532m2.168-3.907q-.773 0-1.25.435-.475.426-.475 1.128 0 .733.476 1.176.483.435 1.289.435t1.273-.435.467-1.184q0-.734-.475-1.144-.468-.411-1.306-.411m-.017 4.794q-.87 0-1.426.54-.547.53-.547 1.369 0 .862.555 1.402.564.54 1.459.54 1.015 0 1.522-.597.492-.571.492-1.321 0-.855-.564-1.402-.54-.531-1.49-.531"/></g><defs><clipPath id="a"><path fill="#fff" d="M0 0h59v20H0z"/></clipPath></defs></svg>