<svg xmlns="http://www.w3.org/2000/svg" width="36" height="36" version="1.1" viewBox="0 0 36 36">
  <g fill="none" fill-rule="evenodd" stroke="none" stroke-width="1">
    <path stroke="#000" d="M9.7632,6.7488 L18.7497,6.7488 L26.2497,14.2488 L26.2497,29.2488 L9.7497,29.2488 L9.7632,6.7488 Z M18.75,6.7488 L18.75,14.2488 L26.25,14.2488"/>
    <path fill="#000" d="M17.95125,22.35225 C18.48075,22.35225 18.92625,22.52625 19.28475,22.87425 C19.68075,23.25825 19.87875,23.78025 19.87875,24.43575 C19.87875,25.00275 19.72875,25.47225 19.43025,25.84275 C19.06425,26.29425 18.56175,26.52075 17.92875,26.52075 C17.27775,26.52075 16.76925,26.28825 16.39875,25.82625 C16.10625,25.46025 15.95925,24.99825 15.95925,24.44025 C15.95925,23.78175 16.14975,23.26725 16.52775,22.89975 C16.90275,22.53525 17.37825,22.35225 17.95125,22.35225 Z M22.248,22.35225 C22.797,22.35225 23.2395,22.53375 23.577,22.89675 C23.8155,23.15325 23.949,23.44575 23.9715,23.78175 L23.115,23.78175 C23.07,23.55525 22.9695,23.38125 22.8135,23.25825 C22.659,23.13675 22.4655,23.07525 22.2285,23.07525 C21.852,23.07525 21.57,23.23425 21.384,23.55075 C21.2445,23.79375 21.1725,24.08925 21.1725,24.43725 C21.1725,24.79725 21.246,25.09725 21.3945,25.33725 C21.5805,25.64325 21.8565,25.79625 22.2225,25.79625 C22.485,25.79625 22.692,25.71975 22.848,25.56525 C23.0025,25.41225 23.097,25.18575 23.136,24.89025 L24,24.89025 C23.97,25.30125 23.8335,25.65525 23.5875,25.94625 C23.2635,26.32875 22.8075,26.52075 22.2165,26.52075 C21.5865,26.52075 21.096,26.29725 20.7465,25.85475 C20.448,25.47375 20.2965,25.00125 20.2965,24.43425 C20.2965,23.83875 20.4735,23.34225 20.832,22.94475 C21.186,22.54875 21.6585,22.35225 22.248,22.35225 Z M13.60815,22.4472 C13.90665,22.4472 14.16315,22.4817 14.37615,22.5507 C14.58915,22.6197 14.77665,22.7277 14.94015,22.8777 C15.33765,23.2392 15.53565,23.7432 15.53565,24.3882 C15.53565,25.0692 15.34815,25.5957 14.97315,25.9662 C14.80815,26.1327 14.62215,26.2497 14.41515,26.3202 C14.20965,26.3892 13.94565,26.4252 13.62615,26.4252 L12.00015,26.4252 L12.00015,22.4472 L13.60815,22.4472 Z M17.90925,23.07525 C17.58825,23.07525 17.33175,23.19675 17.13525,23.43975 C16.93575,23.68425 16.83525,24.01575 16.83525,24.43125 C16.83525,24.86025 16.93425,25.19475 17.12925,25.43325 C17.22225,25.54875 17.33925,25.63725 17.48175,25.70025 C17.62425,25.76475 17.77275,25.79625 17.93325,25.79625 C18.25125,25.79625 18.50025,25.68525 18.68325,25.46475 C18.89625,25.20975 19.00275,24.86325 19.00275,24.42825 C19.00275,24.01425 18.90525,23.68425 18.71025,23.43975 C18.51825,23.19675 18.25275,23.07525 17.90925,23.07525 Z M13.50465,23.1822 L12.86715,23.1822 L12.86715,25.6902 L13.53615,25.6902 C13.74165,25.6902 13.90365,25.6692 14.02515,25.6302 C14.14815,25.5882 14.25465,25.5192 14.34465,25.4202 C14.55465,25.1922 14.65965,24.8577 14.65965,24.4167 C14.65965,24.0102 14.56365,23.7042 14.36865,23.4957 C14.17215,23.2857 13.88565,23.1822 13.50465,23.1822 Z"/>
  </g>
</svg>
