<svg xmlns="http://www.w3.org/2000/svg" width="36" height="36" fill="none" viewBox="0 0 36 36"><path fill="#000" fill-rule="evenodd" d="M8.019 6.519C7.533 7.005 7.25 7.789 7.25 9v7.75h21.5V9c0-1.211-.282-1.995-.769-2.481-.486-.486-1.27-.769-2.481-.769h-15c-1.211 0-1.995.283-2.481.769M7.25 27.25v-9.5h21.5v9.5zm.062-21.438C8.06 5.063 9.152 4.75 10.5 4.75h15c1.348 0 2.44.313 3.188 1.062S29.75 7.652 29.75 9v4.75h1.5v2.5h-1.5v15h-5.498v-3H11.75v3h-5.5v-15h-1.5v-2.5h1.5V9c0-1.348.313-2.44 1.062-3.188M29.75 15.25v-.5h.5v.5zm-23.5-.5h-.5v.5h.5zm19.002 13.5h3.498v2h-3.498zm-18.002 0h3.5v2h-3.5zm3.25-20.5h15v1h-15zM9.25 24a1.251 1.251 0 0 1 2.5 0 1.25 1.25 0 0 1-2.5 0m1.25-.25a.25.25 0 1 0 0 .5.25.25 0 0 0 0-.5m15-1a1.251 1.251 0 0 0 0 2.5 1.25 1.25 0 0 0 0-2.5M25.25 24c0-.138.113-.25.25-.25s.25.112.25.25a.25.25 0 0 1-.5 0m-3.649-2.25L19.2 19.5H21l3 3-3 3h-1.8l2.401-2.25H18.75v2.25h-1.5v-2.25H14.4l2.4 2.25H15l-3-3 3-3h1.8l-2.4 2.25h2.85V19.5h1.5v2.25z" clip-rule="evenodd"/></svg>