<svg xmlns="http://www.w3.org/2000/svg" width="24" height="24" fill="none" viewBox="0 0 24 24"><path fill="#000" fill-rule="evenodd" d="M10.194 4.505A5.5 5.5 0 0 1 12 4.022V2h1v2.022c.64.058 1.248.225 1.806.483l1.01-1.75.867.5-1.011 1.751c.512.362.96.81 1.322 1.322l1.751-1.011.5.866-1.75 1.01c.258.559.425 1.167.482 1.807H20v1h-2.023a5.5 5.5 0 0 1-.483 1.806l1.751 1.011-.5.866-1.751-1.011c-.363.512-.81.96-1.322 1.322l1.01 1.751-.865.5-1.01-1.75a5.5 5.5 0 0 1-1.807.483V17h-1v-2.022a5.5 5.5 0 0 1-1.806-.483l-1.011 1.75-.866-.5 1.011-1.751a5.5 5.5 0 0 1-1.322-1.322l-1.751 1.011-.5-.866 1.75-1.01A5.5 5.5 0 0 1 7.022 10H5V9h2.022c.058-.64.225-1.248.483-1.806l-1.75-1.011.5-.866 1.751 1.011c.362-.512.81-.96 1.322-1.322L8.317 3.255l.866-.5zM12.5 5a4.5 4.5 0 0 1 4.472 4H14.95a2.5 2.5 0 0 0-3.242-1.872l-1.012-1.752A4.5 4.5 0 0 1 12.5 5m-1.658 2.629L9.831 5.877A4.5 4.5 0 0 0 8 9.5c0 1.486.72 2.804 1.83 3.623l1.012-1.752A2.5 2.5 0 0 1 10 9.5c0-.745.325-1.413.842-1.871m.866 4.243-1.012 1.752A4.5 4.5 0 0 0 16.972 10H14.95a2.5 2.5 0 0 1-3.242 1.872m-9.758 4.18.05-.005V14h1v2.022c.642.057 1.25.223 1.809.48l1.008-1.747.866.5L5.675 17c.514.362.963.81 1.325 1.325l1.745-1.008.5.866-1.746 1.008A5.5 5.5 0 0 1 7.978 21H10v1H7.953l-.005.05L7.45 22H4.945l-.028.121-.97-.242a1.478 1.478 0 0 0-1.826-1.826l-.242-.97A2.474 2.474 0 0 1 4.952 21h2.02A4.48 4.48 0 0 0 2.5 17c-.084 0-.143.008-.226.02-.057.008-.127.018-.225.027zm16.233-1.297L19.19 16.5A5.5 5.5 0 0 1 21 16.022V14h1v2.022l.042.004.053.008.015.003-.012-.002-.051-.008-.094.996-.024-.003a4.524 4.524 0 0 0-2.235.352l1.012 1.753q.374-.123.794-.125c.228 0 .436.036.621.083l-.242.97a1.478 1.478 0 0 0-1.826 1.826l-.97.242a2.488 2.488 0 0 1 .755-2.5l-1.011-1.75A4.48 4.48 0 0 0 17 21.5c0 .084.008.143.02.226.008.057.018.127.027.225l-.995.098-.006-.049H14v-1h2.022a5.5 5.5 0 0 1 .48-1.809l-1.747-1.008.5-.866L17 18.325c.362-.514.81-.963 1.324-1.325l-1.007-1.745zM11 9.5a1.5 1.5 0 1 1 3 0 1.5 1.5 0 0 1-3 0" clip-rule="evenodd"/></svg>