<svg xmlns="http://www.w3.org/2000/svg" width="24" height="24" viewBox="0 0 24 24">
  <path fill="none" stroke="#000" d="M4,2.5 C3.171,2.5 2.5,3.171 2.5,4 L2.5,21.5 L5.5,21.5 L5.5,4 C5.5,3.171 4.829,2.5 4,2.5 Z M9,2.5 C8.171,2.5 7.5,3.171 7.5,4 L7.5,21.5 L10.5,21.5 L10.5,4 C10.5,3.171 9.829,2.5 9,2.5 Z M21,22 L14,3 M13,20 L16,21 M7.5,15.5 L10.5,15.5 M2.5,15.5 L5.5,15.5 M14,22 L21,3 M19,21 L22,20 M2.5,11 C2.5,10.171 3.171,9.5 4,9.5 C4.829,9.5 5.5,10.171 5.5,11 M7.5,11 C7.5,10.171 8.171,9.5 9,9.5 C9.829,9.5 10.5,10.171 10.5,11 M14.6562,4.7812 L14.0002,5.0002 L15.0002,8.0002 L15.7502,7.7502 M20.3438,4.7812 L20.9998,5.0002 L19.9998,8.0002 L19.2498,7.7502"/>
</svg>
