<?xml version="1.0" encoding="utf-8"?>
<!-- Generator: Adobe Illustrator 24.2.0, SVG Export Plug-In . SVG Version: 6.00 Build 0)  -->
<svg version="1.0" xmlns="http://www.w3.org/2000/svg" xmlns:xlink="http://www.w3.org/1999/xlink" x="0px" y="0px"
	 viewBox="0 0 24 24" enable-background="new 0 0 24 24" xml:space="preserve">
<g id="SVG_x5F_24x24pt">
	<path id="backgroundBlue" fill="#2D327D" d="M0,22.5v-21C0,0.675,0.675,0,1.5,0h21C23.325,0,24,0.675,24,1.5v21
		c0,0.825-0.675,1.5-1.5,1.5h-21C0.675,24,0,23.325,0,22.5z"/>
	<g id="content">
		<path fill="#FFFFFF" d="M19.65,15.072c-0.007-0.558-0.329-1.04-0.797-1.275c-0.012-0.006-0.024-0.012-0.036-0.017
			c-0.791-0.393-2.133-1.333-2.133-3.182c0-2.237-0.16-3.42-0.57-4.222c-0.455-0.889-1.234-1.294-2.517-1.309
			c0.019-0.332,0.03-1.052-0.42-1.572C12.982,3.268,12.62,3,12,3c-0.62,0-0.982,0.268-1.177,0.494c-0.45,0.52-0.439,1.24-0.42,1.572
			C9.12,5.081,8.341,5.486,7.886,6.375c-0.41,0.801-0.57,1.985-0.57,4.222c0,1.85-1.342,2.789-2.133,3.182
			c-0.012,0.006-0.024,0.012-0.036,0.017c-0.468,0.236-0.79,0.718-0.797,1.275l0,1.085h15.3L19.65,15.072z M11.403,3.995
			C11.536,3.842,11.731,3.767,12,3.767c0.269,0,0.464,0.075,0.597,0.229c0.255,0.294,0.237,0.838,0.233,1.069h-1.66
			C11.166,4.834,11.148,4.29,11.403,3.995z"/>
		<g>
			<path fill="#FFFFFF" d="M10.468,16.539c-0.04,0.14-0.062,0.287-0.062,0.44c0,0.88,0.714,1.594,1.594,1.594
				s1.594-0.714,1.594-1.594c0-0.153-0.022-0.3-0.062-0.44H10.468z"/>
		</g>
	</g>
</g>
</svg>
