<svg class="color-immutable" width="59" height="20" viewBox="0 0 59 20" fill="none" xmlns="http://www.w3.org/2000/svg"><path fill-rule="evenodd" clip-rule="evenodd" d="M2 0a2 2 0 0 0-2 2v16a2 2 0 0 0 2 2h55a2 2 0 0 0 2-2V2a2 2 0 0 0-2-2H2Z" fill="#F27E00"/><path d="M14.153 4.17v2.142H7.98v2.476h5.657v1.991H7.98v2.849h6.284v2.142H5.449V4.17h8.704ZM25.311 4.17l-3.856 11.6h-2.88l-3.8-11.6h2.65l2.61 8.688 2.65-8.688h2.626ZM27.273 9.541c-.54-.185-.955-.489-1.245-.912-.286-.423-.429-.936-.429-1.54 0-1.004.413-1.806 1.238-2.403.73-.53 1.597-.794 2.602-.794 1.143 0 2.077.315 2.801.944.688.593 1.032 1.325 1.032 2.198 0 .609-.146 1.13-.437 1.563-.29.434-.703.749-1.237.944.418.122.759.278 1.023.469.735.534 1.103 1.314 1.103 2.34 0 1.18-.452 2.119-1.357 2.817-.761.587-1.74.88-2.936.88-1.296 0-2.327-.322-3.094-.967-.799-.672-1.198-1.553-1.198-2.642 0-1.021.354-1.812 1.063-2.373.323-.248.68-.423 1.071-.524Zm2.135-3.848c-.508 0-.918.143-1.23.429-.312.28-.468.65-.468 1.11 0 .482.156.868.468 1.159.317.286.74.428 1.27.428.528 0 .946-.142 1.253-.428.307-.286.46-.674.46-1.166 0-.482-.156-.857-.468-1.127-.307-.27-.735-.405-1.285-.405Zm-.016 4.721c-.572 0-1.04.178-1.405.532-.36.349-.54.799-.54 1.349 0 .566.183 1.026.548 1.38.37.355.85.532 1.436.532.667 0 1.167-.196 1.5-.587.323-.376.484-.81.484-1.301 0-.561-.185-1.021-.555-1.381-.355-.35-.844-.524-1.468-.524ZM34.306 7.844c.026-.953.261-1.751.706-2.397.72-1.037 1.8-1.555 3.245-1.555 1.11 0 2.007.283 2.69.85.735.613 1.103 1.406 1.103 2.38 0 .581-.146 1.084-.437 1.507-.285.418-.674.7-1.166.849.624.143 1.116.46 1.476.952.365.492.547 1.087.547 1.786 0 1.147-.423 2.086-1.27 2.816-.782.677-1.771 1.016-2.967 1.016-1.296 0-2.325-.373-3.086-1.119-.757-.746-1.135-1.754-1.135-3.023v-.15h2.23c0 .713.169 1.266.507 1.658.339.386.818.579 1.436.579.62 0 1.096-.183 1.429-.548.306-.344.46-.754.46-1.23 0-.57-.196-1.023-.587-1.356-.323-.275-.82-.413-1.492-.413-.19 0-.378.01-.563.032V8.772c.137.01.27.016.396.016 1.333 0 2-.495 2-1.484 0-.434-.146-.783-.436-1.047-.291-.27-.675-.405-1.151-.405-.545 0-.965.17-1.262.508-.296.338-.454.833-.476 1.484h-2.197Z" fill="#000"/></svg>