<svg width="24" height="24" viewBox="0 0 24 24" fill="none" xmlns="http://www.w3.org/2000/svg"><path fill-rule="evenodd" clip-rule="evenodd" d="M5.5 1.999H5V4.045A2.348 2.348 0 0 0 3.314 5.39c-.242.54-.453.954-.639 1.318-.095.186-.183.36-.265.529-.231.479-.41.926-.41 1.438v11.126C2 21.021 3.002 22 4.224 22h4.552C9.997 22 11 21.022 11 19.801V8.675c0-.512-.179-.96-.41-1.438-.082-.17-.17-.343-.265-.528-.186-.365-.397-.78-.639-1.32A2.35 2.35 0 0 0 8 4.046V2H5.5ZM5.452 5h2.096a1.35 1.35 0 0 1 1.226.798c.25.56.487 1.025.679 1.402.09.177.17.334.236.472.22.456.311.73.311 1.003v11.126C10 20.456 9.459 21 8.776 21H4.224A1.211 1.211 0 0 1 3 19.801V19h4v-9H3V8.675c0-.272.09-.547.31-1.003.067-.138.147-.295.237-.472.192-.377.43-.842.68-1.402A1.35 1.35 0 0 1 5.452 5ZM7 4V2.999H6V4h1ZM3 18v-7h3v7H3Zm12.006-5c.326 0 .579.035.793.098a2.2 2.2 0 0 1 .49.217l.002.001c.1.056.16.091.232.118.125-1.48.738-2.355 1.415-2.853a3.135 3.135 0 0 1 1.351-.564 1.986 1.986 0 0 1 .136-.015l.011-.001h.006c.001 0 .002 0 .027.499l.026.5h.003-.01a1.82 1.82 0 0 0-.272.054 2.14 2.14 0 0 0-.686.333c-.41.301-.88.877-1 2.025.051-.024.104-.053.179-.096l.002-.001c.116-.066.272-.153.49-.217a2.8 2.8 0 0 1 .793-.098c.444-.01 1.234-.023 1.897.481.69.526 1.109 1.494 1.109 3.115 0 1.498-.249 2.809-.73 3.765C20.79 21.32 20.026 22 19 22h-.01a3.495 3.495 0 0 1-1.376-.288l-.165-.07c-.205-.088-.306-.132-.449-.142-.143.01-.244.054-.449.142l-.165.07a3.495 3.495 0 0 1-1.377.288H15c-1.025 0-1.79-.68-2.27-1.639-.481-.956-.73-2.267-.73-3.765 0-1.621.418-2.59 1.108-3.115.664-.504 1.454-.49 1.898-.481Zm-1.292 1.277c-.334.254-.714.844-.714 2.319 0 1.406.236 2.547.623 3.316.384.766.868 1.086 1.373 1.088.477-.01.76-.108 1.003-.21l.11-.048c.222-.098.514-.227.87-.242h.041c.357.015.65.144.871.242l.11.048c.242.102.526.2 1.003.21.505-.002.989-.322 1.373-1.088.387-.77.623-1.91.623-3.316 0-1.475-.38-2.065-.714-2.319-.358-.272-.814-.287-1.275-.277H19c-.258 0-.414.027-.518.058-.102.03-.174.068-.278.127l-.02.012c-.104.058-.247.14-.435.2A2.403 2.403 0 0 1 17 14.5c-.306 0-.544-.036-.749-.102a2.223 2.223 0 0 1-.435-.201l-.02-.012a1.226 1.226 0 0 0-.278-.127A1.83 1.83 0 0 0 15 14h-.011c-.462-.01-.917.005-1.275.277Z" fill="#000"/></svg>