<svg class="color-immutable" xmlns="http://www.w3.org/2000/svg" width="59" height="20" fill="none" viewBox="0 0 59 20"><g fill="#EB0000" clip-path="url(#a)"><path d="M57.208 1c.439 0 .795.358.795.8v16.4c0 .442-.356.8-.795.8H1.792a.8.8 0 0 1-.795-.8V1.8c0-.442.356-.8.795-.8zm0-1H1.792C.803 0 0 .806 0 1.8v16.4c0 .994.803 1.8 1.792 1.8h55.416c.99 0 1.792-.806 1.792-1.8V1.8c0-.994-.803-1.8-1.792-1.8"/><path d="M4.16 4.234h5.6q1.662 0 2.547.522.735.427 1.124 1.139.387.712.387 1.606 0 1.013-.49 1.764-.483.751-1.353 1.076a1.95 1.95 0 0 1 1.203.854q.276.42.371.878t.245 2.096q.111 1.203.34 1.495l.111.135h-2.634a2 2 0 0 1-.197-.625q-.056-.38-.15-1.756-.095-1.227-.602-1.693-.498-.475-1.709-.475h-2.27V15.8H4.16zm2.523 1.985V9.4h2.413q1.162 0 1.637-.332.601-.42.601-1.266 0-.822-.514-1.202T9.2 6.219zM24.647 4.234V6.37h-6.154v2.468h5.64v1.985h-5.64v2.84h6.265v2.136H15.97V4.234zM27.708 9.59q-.806-.279-1.241-.91-.428-.633-.428-1.535 0-1.503 1.234-2.397 1.092-.79 2.595-.791 1.709 0 2.792.941 1.029.886 1.029 2.191 0 .91-.435 1.559t-1.234.941q.624.182 1.02.467 1.1.798 1.1 2.333 0 1.764-1.353 2.808-1.14.878-2.927.878-1.938 0-3.085-.965-1.194-1.004-1.194-2.634 0-1.527 1.06-2.365a2.9 2.9 0 0 1 1.067-.522m2.128-3.837q-.76 0-1.226.427-.465.42-.466 1.107 0 .72.466 1.155.476.427 1.266.427t1.25-.427q.458-.427.458-1.163 0-.72-.466-1.123-.459-.403-1.282-.403m-.015 4.706q-.855 0-1.4.53-.539.522-.538 1.345 0 .846.545 1.376.555.53 1.432.53.997 0 1.495-.585.483-.562.483-1.297 0-.84-.554-1.377-.53-.522-1.463-.522M42.849 7.121h-2.2q-.307-1.337-1.518-1.337-1.282 0-1.82 1.574-.22.642-.356 1.938.523-.703 1.108-1.012.593-.309 1.424-.309 1.63 0 2.618 1.155.941 1.092.941 2.737 0 1.955-1.265 3.14-1.14 1.068-2.737 1.068-2.05 0-3.188-1.542-1.14-1.55-1.14-4.319 0-2.958 1.219-4.635 1.179-1.622 3.22-1.622 1.921 0 2.942 1.29.584.743.752 1.874m-3.916 2.65q-.83 0-1.321.696-.443.617-.443 1.471 0 .847.45 1.48.492.704 1.346.704.83 0 1.336-.673.475-.633.475-1.495 0-.847-.427-1.447-.522-.736-1.416-.736"/></g><defs><clipPath id="a"><path fill="#fff" d="M0 0h59v20H0z"/></clipPath></defs></svg>