<svg xmlns="http://www.w3.org/2000/svg" width="48" height="48" fill="none" viewBox="0 0 48 48"><path fill="#000" fill-rule="evenodd" d="M23.43 5.602c-.3-1.14-1.495-1.88-2.658-1.504C12.88 6.646 6.647 12.899 4.098 20.827c-.317.987.16 2.002 1.005 2.473-.289.275-.496.642-.563 1.077a21 21 0 0 0 .545 8.88c.232.828.974 1.353 1.775 1.397.626 3.034 2.12 5.547 3.778 7.196.868.864 1.797 1.506 2.688 1.853.886.346 1.794.42 2.556.045.775-.383 1.306-1.124 1.653-2.001.35-.881.536-1.952.59-3.086.1-2.075-.239-4.446-.928-6.427.693-.173 1.198-.71 1.397-1.361.248-.814.569-1.59.956-2.32.247-.464.29-.973.167-1.433l1.41.362a2.11 2.11 0 0 0 2.164-.731 25 25 0 0 1 3.477-3.516 2.13 2.13 0 0 0 .726-2.192l-.11-.42c.458.118.964.07 1.425-.183a13 13 0 0 1 2.294-.985 1.98 1.98 0 0 0 1.308-1.299c1.975.666 4.319.972 6.364.841 1.117-.071 2.17-.275 3.035-.639.861-.363 1.585-.906 1.953-1.686.362-.765.284-1.672-.061-2.556-.347-.89-.984-1.815-1.84-2.677-1.632-1.642-4.112-3.113-7.11-3.72-.01-.84-.545-1.638-1.41-1.874a20.7 20.7 0 0 0-8.833-.463c-.4.067-.74.253-1.003.512zm15.28 12.397c-1.95.125-4.205-.177-6.07-.821l1.944-8.472c2.786.57 5.079 1.939 6.568 3.438.786.791 1.333 1.604 1.618 2.335.288.738.291 1.338.09 1.765-.226.477-.705.884-1.438 1.192-.73.308-1.665.496-2.711.563M6.717 23.786l11.385 2.92a.96.96 0 0 1 .566 1.378 14 14 0 0 0-1.03 2.497c-.108.353-.368.606-.688.684L7.2 33.63c-.507.123-1.02-.172-1.153-.643a20 20 0 0 1-.518-8.458c.08-.525.633-.885 1.187-.743m11.596 1.94v.001L5.86 22.534c-.629-.16-.998-.815-.81-1.401C7.5 13.51 13.495 7.499 21.08 5.049c.57-.184 1.216.175 1.382.808l.514 1.953.006.02 3 11.393.006.025.54 2.05c.11.423-.04.873-.396 1.165a26 26 0 0 0-3.616 3.656c-.286.35-.726.5-1.14.394l-3.01-.772zm-6.969 15.416c-1.512-1.505-2.902-3.824-3.494-6.64l8.371-2.031c.667 1.873 1.002 4.158.907 6.142-.052 1.065-.226 2.019-.522 2.765-.297.752-.696 1.241-1.165 1.473-.419.206-1.013.208-1.75-.08-.733-.285-1.549-.836-2.347-1.63m16.984-21.578a.946.946 0 0 1-1.374-.578L23.945 7.562c-.139-.56.219-1.109.728-1.193a19.7 19.7 0 0 1 8.405.44c.465.127.768.64.649 1.16l-2.256 9.834a.98.98 0 0 1-.673.7c-.866.277-1.693.633-2.471 1.06M30.194 9.41a17 17 0 0 0-2.331-.165v-1c1.013 0 2.025.088 3.024.262l.52.09-.118.514-.248 1.08-.975-.224zM8.606 30.059a17 17 0 0 1-.173-3.217l-.999-.041a18 18 0 0 0 .274 3.96l.094.522.516-.125 1.22-.296-.236-.972zM20.314 7.536c-.858.343-2.259 1.006-3.7 1.887-1.436.88-2.947 1.996-3.998 3.257l.768.64c.95-1.14 2.355-2.189 3.752-3.043 1.392-.852 2.742-1.49 3.55-1.813z" clip-rule="evenodd"/></svg>