<svg class="color-immutable" xmlns="http://www.w3.org/2000/svg" width="59" height="20" fill="none" viewBox="0 0 59 20"><path fill="#E84E10" fill-rule="evenodd" d="M2 0a2 2 0 0 0-2 2v16a2 2 0 0 0 2 2h55a2 2 0 0 0 2-2V2a2 2 0 0 0-2-2z" clip-rule="evenodd"/><path fill="#000" d="M14.153 4.17v2.142H7.98v2.476h5.657v1.991H7.98v2.849h6.284v2.142H5.45V4.17zM25.311 4.17l-3.856 11.6h-2.88l-3.8-11.6h2.65l2.61 8.688 2.65-8.688zM33.034 4.17v2.063H28.36l-.5 2.61q.842-.888 2.15-.888 1.286 0 2.238.69 1.413 1.039 1.413 3.158 0 2.079-1.508 3.293-1.175.951-2.809.952-1.84 0-2.96-.984-1.118-.992-1.182-2.674h2.278q.055.61.396 1.04.533.674 1.476.674.913 0 1.444-.659.516-.643.516-1.563 0-1-.54-1.595-.54-.603-1.436-.603-1.095 0-1.706.984l-2.07-.031 1.102-6.467zM34.258 12.858h2.19q.27 1.35 1.563 1.349.73 0 1.182-.492.46-.5.706-1.547.16-.666.23-1.516-.531.746-1.094 1.064-.556.309-1.357.309-1.278 0-2.222-.746a3.55 3.55 0 0 1-1.032-1.357 4.5 4.5 0 0 1-.364-1.809q0-1.959 1.34-3.174 1.15-1.047 2.762-1.047.99 0 1.833.444.84.445 1.412 1.262 1.008 1.452 1.008 4.078 0 2.429-.889 4.142-1.158 2.23-3.507 2.23-1.563 0-2.587-.865-1.015-.865-1.174-2.325m3.856-7.006q-.746 0-1.261.61-.516.62-.516 1.572 0 .77.373 1.365.507.817 1.428.817.833 0 1.333-.667.468-.626.468-1.491 0-.913-.484-1.547a1.61 1.61 0 0 0-1.34-.66"/></svg>