<?xml version="1.0" encoding="utf-8"?>
<!-- Generator: Adobe Illustrator 24.2.0, SVG Export Plug-In . SVG Version: 6.00 Build 0)  -->
<svg version="1.0" id="Ebene_1" xmlns="http://www.w3.org/2000/svg" xmlns:xlink="http://www.w3.org/1999/xlink" x="0px" y="0px"
	 viewBox="0 0 24 24" enable-background="new 0 0 24 24" xml:space="preserve">
<g id="SVG_x5F_24x24pt">
	<path id="backgroundBlue" fill="#2D327D" d="M0,22.5v-21C0,0.675,0.675,0,1.5,0h21C23.325,0,24,0.675,24,1.5v21
		c0,0.825-0.675,1.5-1.5,1.5h-21C0.675,24,0,23.325,0,22.5z"/>
	<g id="content">
		<path fill="#FFFFFF" d="M3.385,18.748c-0.093,0-0.172,0.068-0.186,0.16l-0.282,1.879c-0.002,0.009-0.002,0.018-0.002,0.028
			c0,0.102,0.083,0.188,0.188,0.188c0.092,0,0.171-0.069,0.185-0.16l0.282-1.879c0.001-0.009,0.002-0.019,0.002-0.028
			C3.573,18.833,3.488,18.748,3.385,18.748L3.385,18.748z"/>
		<path fill="#FFFFFF" d="M3.947,14.999c-0.092,0-0.171,0.067-0.185,0.158L3.48,17.038c-0.001,0.007-0.002,0.018-0.002,0.028
			c0,0.102,0.084,0.186,0.188,0.186c0.093,0,0.172-0.068,0.185-0.158l0.282-1.881c0.002-0.007,0.002-0.018,0.002-0.028
			C4.135,15.083,4.051,14.999,3.947,14.999L3.947,14.999z"/>
		<path fill="#FFFFFF" d="M4.453,11.623c-0.093,0-0.172,0.068-0.185,0.16l-0.282,1.879c-0.001,0.009-0.002,0.019-0.002,0.028
			c0,0.104,0.084,0.187,0.188,0.187c0.093,0,0.171-0.068,0.186-0.16l0.281-1.879c0.002-0.009,0.003-0.019,0.003-0.028
			C4.642,11.707,4.557,11.623,4.453,11.623L4.453,11.623z"/>
		<path fill="#FFFFFF" d="M4.622,10.877c0.093,0,0.172-0.068,0.186-0.161l0.282-1.878C5.09,8.828,5.09,8.821,5.09,8.811
			c0-0.103-0.083-0.189-0.187-0.189c-0.093,0-0.172,0.069-0.186,0.161l-0.282,1.878c-0.001,0.01-0.002,0.019-0.002,0.028
			C4.435,10.793,4.518,10.877,4.622,10.877L4.622,10.877z"/>
		<path fill="#FFFFFF" d="M5.084,16.124c-0.096,0-0.176,0.072-0.186,0.167l-0.212,1.877c-0.001,0.006-0.001,0.013-0.001,0.02
			c0,0.103,0.084,0.187,0.187,0.187c0.096,0,0.177-0.072,0.187-0.166l0.211-1.877c0.002-0.006,0.002-0.013,0.002-0.02
			C5.272,16.208,5.188,16.124,5.084,16.124L5.084,16.124z"/>
		<path fill="#FFFFFF" d="M5.463,12.749c-0.095,0-0.175,0.072-0.186,0.166l-0.211,1.877c-0.001,0.006-0.001,0.013-0.001,0.02
			c0,0.104,0.084,0.188,0.187,0.188c0.096,0,0.176-0.071,0.187-0.167l0.212-1.877c0-0.007,0-0.013,0-0.02
			C5.651,12.833,5.567,12.749,5.463,12.749L5.463,12.749z"/>
		<path fill="#FFFFFF" d="M5.989,9.936c0-0.103-0.085-0.187-0.188-0.187c-0.096,0-0.176,0.071-0.187,0.165l-0.211,1.877
			c-0.001,0.008-0.002,0.015-0.002,0.021c0,0.105,0.084,0.188,0.187,0.188c0.096,0,0.176-0.072,0.187-0.167l0.211-1.877
			C5.988,9.95,5.989,9.942,5.989,9.936L5.989,9.936z"/>
		<path fill="#FFFFFF" d="M6.192,18.749c-0.099,0-0.179,0.077-0.187,0.174l-0.141,1.876c0,0.005,0,0.01,0,0.014
			c0,0.103,0.084,0.188,0.188,0.188c0.097,0,0.179-0.076,0.186-0.174l0.141-1.876c0.001-0.004,0.001-0.009,0.001-0.013
			C6.38,18.834,6.296,18.749,6.192,18.749L6.192,18.749z"/>
		<path fill="#FFFFFF" d="M6.474,15c-0.098,0-0.18,0.075-0.187,0.173l-0.14,1.877c0,0.006,0,0.009,0,0.013
			c0,0.105,0.083,0.189,0.187,0.189c0.098,0,0.18-0.075,0.188-0.173l0.14-1.877c0.001-0.005,0.001-0.008,0.001-0.014
			C6.661,15.083,6.577,15,6.474,15L6.474,15z"/>
		<path fill="#FFFFFF" d="M6.727,11.624c-0.098,0-0.179,0.077-0.187,0.174l-0.14,1.876c-0.001,0.005-0.001,0.01-0.001,0.014
			c0,0.103,0.084,0.188,0.187,0.188c0.098,0,0.179-0.076,0.187-0.174l0.14-1.876c0.001-0.004,0.001-0.009,0.001-0.013
			C6.914,11.708,6.831,11.624,6.727,11.624L6.727,11.624z"/>
		<path fill="#FFFFFF" d="M6.951,8.624c-0.097,0-0.179,0.076-0.186,0.175l-0.141,1.875c-0.001,0.004-0.001,0.009-0.001,0.014
			c0,0.103,0.084,0.188,0.187,0.188c0.098,0,0.179-0.077,0.187-0.174l0.141-1.876c0-0.005,0-0.01,0-0.015
			C7.139,8.709,7.056,8.624,6.951,8.624L6.951,8.624z"/>
		<path fill="#FFFFFF" d="M7.694,16.125c-0.1,0-0.183,0.079-0.188,0.179l-0.071,1.876c0,0.003,0,0.005,0,0.007
			c0,0.104,0.085,0.188,0.188,0.188c0.101,0,0.184-0.081,0.188-0.181l0.071-1.875c0-0.003,0-0.006,0-0.008
			C7.882,16.209,7.799,16.125,7.694,16.125L7.694,16.125z"/>
		<path fill="#FFFFFF" d="M7.821,12.749c-0.1,0-0.184,0.081-0.187,0.181l-0.071,1.876c0,0.002,0,0.005,0,0.007
			C7.563,14.916,7.647,15,7.751,15c0.101,0,0.183-0.079,0.187-0.179l0.071-1.876c0-0.003,0-0.005,0-0.006
			C8.009,12.834,7.925,12.749,7.821,12.749L7.821,12.749z"/>
		<path fill="#FFFFFF" d="M7.933,9.749c-0.1,0-0.183,0.081-0.187,0.181l-0.071,1.875c0,0.003,0,0.006,0,0.008
			C7.676,11.916,7.76,12,7.864,12c0.1,0,0.184-0.08,0.187-0.18l0.071-1.876c0-0.003,0-0.004,0-0.007
			C8.121,9.835,8.037,9.749,7.933,9.749L7.933,9.749z"/>
		<path fill="#FFFFFF" d="M4.954,8.249h8.093c0.247,0,0.45-0.201,0.45-0.449c0-0.041-0.005-0.081-0.016-0.12
			c-0.486-1.747-1.942-3.052-3.731-3.344V3h-1.5v1.336C6.461,4.628,5.006,5.933,4.52,7.68c-0.011,0.039-0.017,0.079-0.017,0.12
			C4.503,8.048,4.705,8.249,4.954,8.249L4.954,8.249z"/>
		<path fill="#FFFFFF" d="M9.001,8.626c-0.104,0-0.188,0.084-0.188,0.186v1.877c0,0.103,0.084,0.186,0.188,0.186
			c0.102,0,0.187-0.083,0.187-0.186V8.811C9.187,8.709,9.103,8.626,9.001,8.626L9.001,8.626z"/>
		<path fill="#FFFFFF" d="M9.001,11.625c-0.104,0-0.188,0.083-0.188,0.187v1.876c0,0.103,0.084,0.187,0.188,0.187
			c0.102,0,0.187-0.084,0.187-0.187v-1.876C9.187,11.708,9.103,11.625,9.001,11.625L9.001,11.625z"/>
		<path fill="#FFFFFF" d="M9.001,15c-0.104,0-0.188,0.083-0.188,0.189v1.874c0,0.104,0.084,0.189,0.188,0.189
			c0.102,0,0.187-0.084,0.187-0.189v-1.874C9.187,15.083,9.103,15,9.001,15L9.001,15z"/>
		<path fill="#FFFFFF" d="M9.001,18.75c-0.104,0-0.188,0.084-0.188,0.188v1.876C8.813,20.916,8.897,21,9.001,21
			c0.102,0,0.187-0.083,0.187-0.187v-1.876C9.187,18.834,9.103,18.75,9.001,18.75L9.001,18.75z"/>
		<path fill="#FFFFFF" d="M10.137,12c0.103,0,0.187-0.083,0.187-0.187c0-0.003,0-0.006,0-0.008l-0.07-1.875
			c-0.004-0.1-0.087-0.181-0.188-0.181c-0.103,0-0.188,0.085-0.188,0.187c0,0.004,0,0.005,0,0.007H9.88l0.07,1.876
			C9.954,11.92,10.036,12,10.137,12L10.137,12z"/>
		<path fill="#FFFFFF" d="M10.249,15c0.103,0,0.188-0.083,0.188-0.187c0-0.003,0-0.006,0-0.007l-0.071-1.876
			c-0.004-0.1-0.087-0.181-0.188-0.181c-0.103,0-0.187,0.084-0.187,0.189c0,0.002,0,0.004,0,0.006l0.07,1.876
			C10.065,14.921,10.149,15,10.249,15L10.249,15z"/>
		<path fill="#FFFFFF" d="M10.306,16.125c-0.104,0-0.189,0.084-0.189,0.187c0,0.003,0.001,0.005,0.001,0.008l0.071,1.875
			c0.004,0.1,0.086,0.181,0.187,0.181c0.103,0,0.187-0.084,0.187-0.188c0-0.002,0-0.004,0-0.007l-0.07-1.876
			C10.489,16.204,10.406,16.125,10.306,16.125L10.306,16.125z"/>
		<path fill="#FFFFFF" d="M11.377,10.688c0-0.005,0-0.01-0.001-0.014l-0.14-1.875c-0.008-0.099-0.089-0.175-0.187-0.175
			c-0.103,0-0.187,0.086-0.187,0.188c0,0.005,0,0.01,0.001,0.015l0.139,1.876c0.007,0.098,0.089,0.174,0.188,0.174
			C11.293,10.876,11.377,10.791,11.377,10.688L11.377,10.688z"/>
		<path fill="#FFFFFF" d="M11.602,13.688c0-0.004,0-0.009-0.001-0.014l-0.14-1.876c-0.007-0.097-0.089-0.174-0.187-0.174
			c-0.104,0-0.188,0.085-0.188,0.188c0,0.004,0,0.009,0,0.013l0.14,1.876c0.009,0.098,0.089,0.174,0.188,0.174
			C11.517,13.875,11.602,13.791,11.602,13.688L11.602,13.688z"/>
		<path fill="#FFFFFF" d="M11.855,17.062c0-0.004,0-0.007,0-0.013l-0.141-1.877C11.706,15.075,11.625,15,11.527,15
			c-0.103,0-0.188,0.083-0.188,0.187c0,0.006,0,0.009,0.001,0.014l0.141,1.877c0.007,0.098,0.088,0.173,0.186,0.173
			C11.771,17.251,11.855,17.167,11.855,17.062L11.855,17.062z"/>
		<path fill="#FFFFFF" d="M11.995,18.923c-0.007-0.097-0.088-0.174-0.187-0.174c-0.104,0-0.188,0.084-0.188,0.188
			c0,0.004,0,0.009,0,0.013l0.141,1.876c0.007,0.097,0.089,0.174,0.188,0.174c0.102,0,0.187-0.084,0.187-0.188
			c0-0.004,0-0.009-0.001-0.014L11.995,18.923L11.995,18.923z"/>
		<path fill="#FFFFFF" d="M12.598,11.813c0-0.006,0-0.014-0.001-0.021l-0.211-1.877c-0.011-0.095-0.091-0.165-0.187-0.165
			c-0.103,0-0.188,0.083-0.188,0.187c0,0.006,0.001,0.014,0.001,0.022l0.212,1.877c0.01,0.094,0.091,0.167,0.186,0.167
			C12.514,12.002,12.598,11.918,12.598,11.813L12.598,11.813z"/>
		<path fill="#FFFFFF" d="M12.936,14.813c0-0.007-0.001-0.014-0.002-0.02l-0.211-1.877c-0.01-0.095-0.091-0.166-0.187-0.166
			c-0.103,0-0.187,0.084-0.187,0.187c0,0.007,0,0.014,0.001,0.02l0.211,1.877c0.011,0.096,0.091,0.167,0.187,0.167
			C12.851,15.001,12.936,14.917,12.936,14.813L12.936,14.813z"/>
		<path fill="#FFFFFF" d="M13.103,16.292c-0.011-0.095-0.091-0.167-0.187-0.167c-0.103,0-0.187,0.083-0.187,0.188
			c0,0.007,0,0.014,0,0.02l0.212,1.877c0.011,0.095,0.091,0.166,0.186,0.166c0.104,0,0.188-0.083,0.188-0.187
			c0-0.007,0-0.014-0.001-0.02L13.103,16.292L13.103,16.292z"/>
		<path fill="#FFFFFF" d="M13.097,8.622c-0.103,0-0.187,0.086-0.187,0.189c0,0.01,0.001,0.017,0.002,0.028l0.282,1.878
			c0.014,0.093,0.093,0.161,0.185,0.161c0.104,0,0.188-0.084,0.188-0.189c0-0.009,0-0.018-0.002-0.028l-0.281-1.878
			C13.269,8.691,13.19,8.622,13.097,8.622L13.097,8.622z"/>
		<path fill="#FFFFFF" d="M14.016,13.69c0-0.009-0.001-0.019-0.002-0.028l-0.282-1.879c-0.014-0.092-0.093-0.16-0.186-0.16
			c-0.103,0-0.187,0.085-0.187,0.188c0,0.009,0,0.019,0.002,0.028l0.282,1.879c0.013,0.091,0.092,0.16,0.185,0.16
			C13.932,13.877,14.016,13.794,14.016,13.69L14.016,13.69z"/>
		<path fill="#FFFFFF" d="M14.523,17.066c0-0.01-0.001-0.02-0.002-0.028l-0.282-1.881c-0.014-0.091-0.093-0.158-0.186-0.158
			c-0.103,0-0.187,0.084-0.187,0.186c0,0.01,0.001,0.02,0.002,0.028l0.281,1.881c0.014,0.09,0.093,0.158,0.186,0.158
			C14.438,17.251,14.523,17.168,14.523,17.066L14.523,17.066z"/>
		<path fill="#FFFFFF" d="M15.083,20.787L14.8,18.908c-0.013-0.092-0.092-0.16-0.185-0.16c-0.103,0-0.188,0.084-0.188,0.188
			c0,0.009,0.001,0.019,0.002,0.028l0.282,1.879c0.013,0.091,0.093,0.16,0.186,0.16c0.102,0,0.187-0.085,0.187-0.188
			C15.085,20.805,15.084,20.796,15.083,20.787L15.083,20.787z"/>
	</g>
</g>
</svg>
