<svg xmlns="http://www.w3.org/2000/svg" width="48" height="48" viewBox="0 0 48 48">
  <path fill="none" stroke="#000" d="M24.5,7.5002 L24.5,2.5002 M21,2.5002 L28,2.5002 M5.5,26.5002 C5.5,16.0062 14.006,7.5002 24.5,7.5002 C34.993,7.5002 43.5,16.0062 43.5,26.5002 C43.5,36.9932 34.993,45.5002 24.5,45.5002 C14.006,45.5002 5.5,36.9932 5.5,26.5002 Z M23,10.5002 L24.5,10.5002 C33.337,10.5002 40.5,17.6632 40.5,26.5002 C40.5,35.3362 33.337,42.5002 24.5,42.5002 C15.664,42.5002 8.5,35.3362 8.5,26.5002 L8.5,26.0002 M14,28.0002 L20,35.0002 L34,20.0002 M39.3428,14.6569 L40.9998,12.9999 L36.9998,8.9999 L35.1978,10.8019 M18.9102,11.4333 L20.8422,10.9153 M15.2012,13.3938 L16.9332,12.3938 M12.1255,16.2468 L13.5405,14.8328 M9.8936,19.799 L10.8936,18.067 M8.6567,23.8078 L9.1747,21.8758"/>
</svg>
