<?xml version="1.0" encoding="utf-8"?>
<!-- Generator: Adobe Illustrator 24.2.0, SVG Export Plug-In . SVG Version: 6.00 Build 0)  -->
<svg version="1.0" id="Ebene_1" xmlns="http://www.w3.org/2000/svg" xmlns:xlink="http://www.w3.org/1999/xlink" x="0px" y="0px"
	 viewBox="0 0 24 24" enable-background="new 0 0 24 24" xml:space="preserve">
<g id="SVG_x5F_24x24pt">
	<path id="backgroundBlue" fill="#2D327D" d="M0,22.5v-21C0,0.675,0.675,0,1.5,0h21C23.325,0,24,0.675,24,1.5v21
		c0,0.825-0.675,1.5-1.5,1.5h-21C0.675,24,0,23.325,0,22.5z"/>
	<g id="content">
		<path fill="#FFFFFF" d="M17.734,5.636c0.724,0,1.313-0.588,1.313-1.313c0-0.724-0.588-1.312-1.313-1.312
			c-0.725,0-1.312,0.588-1.312,1.312C16.421,5.048,17.009,5.636,17.734,5.636L17.734,5.636z"/>
		<path fill="#FFFFFF" d="M19.05,16.21V8.587l0.825,1.088v2.7c0,0.269,0.218,0.487,0.488,0.487c0.269,0,0.488-0.218,0.488-0.487
			V9.289c0-0.164-0.054-0.323-0.153-0.453L19.12,6.756v0c-0.283-0.374-0.726-0.593-1.195-0.593c-0.828,0-1.5,0.672-1.5,1.5v5.275
			l-1.543,1.543l0,0c-0.141,0.141-0.22,0.331-0.22,0.53v4.245c0,0.383,0.311,0.694,0.694,0.694c0.383,0,0.694-0.311,0.694-0.694
			v-3.769l1.5-1.5v2.237c0,0.144,0.042,0.286,0.12,0.407l2.381,3.685l0,0c0.128,0.198,0.347,0.317,0.583,0.317
			c0.383,0,0.694-0.311,0.694-0.694c0-0.134-0.038-0.264-0.111-0.376L19.05,16.21L19.05,16.21z"/>
		<path fill="#FFFFFF" d="M14.719,11.604c0.059,0,0.117-0.01,0.172-0.03l0.896-0.325v-1.077l-1.241,0.449
			c-0.2,0.072-0.334,0.263-0.334,0.476C14.212,11.377,14.439,11.604,14.719,11.604L14.719,11.604z"/>
		<polygon fill="#FFFFFF" points="6.412,18.225 9.825,18.225 9.825,19.612 13.237,19.612 13.237,21 17.325,21 17.325,20.325 
			13.912,20.325 13.912,18.937 10.5,18.937 10.5,17.55 7.087,17.55 7.087,16.162 3,16.162 3,16.837 6.412,16.837 6.412,18.225 		"/>
	</g>
</g>
</svg>
