<svg class="color-immutable" xmlns="http://www.w3.org/2000/svg" width="59" height="20" fill="none" viewBox="0 0 59 20"><path fill="#EB0000" fill-rule="evenodd" d="M2 0a2 2 0 0 0-2 2v16a2 2 0 0 0 2 2h55a2 2 0 0 0 2-2V2a2 2 0 0 0-2-2z" clip-rule="evenodd"/><path fill="#fff" d="M44.348 4.235v1.962q-.095.103-.56.64a11.5 11.5 0 0 0-1.284 1.872c-.397.688-.73 1.413-.994 2.163a18.2 18.2 0 0 0-.906 4.928h-2.381c.032-.98.185-1.952.453-2.895a19 19 0 0 1 1.187-3.18q1.08-2.247 2.191-3.346h-5.44V4.235zM9.22 4.2h4.057L8.259 15.8H4.186zM15.948 4.2h14.395l-1.49 3.445h-10.28l-2.042 4.71h10.285l-1.49 3.445H10.93z"/></svg>