<svg xmlns="http://www.w3.org/2000/svg" width="48" height="48" version="1.1" viewBox="0 0 48 48">
  <path fill="none" fill-rule="evenodd" stroke="#000" stroke-width="1" d="M12.9951,13.0127 C15.0791,10.9237 17.5741,9.2487 20.3481,8.1207 M7.2681,34.127 C8.3671,40.383 13.2991,44.465 15.6611,43.299 C18.1481,42.071 18.1231,35.901 16.5331,31.88 M22.9033,26.4346 C23.9693,25.1276 25.1513,23.9196 26.4503,22.8486 C26.9463,22.4406 27.1743,21.7936 27.0103,21.1696 L22.9453,5.7296 C22.7123,4.8436 21.7923,4.2926 20.9253,4.5736 C13.1873,7.0726 7.0733,13.2056 4.5743,20.9796 C4.2913,21.8586 4.8473,22.7906 5.7363,23.0186 L21.2513,26.9966 C21.8653,27.1546 22.5013,26.9276 22.9033,26.4346 Z M26.4648,19.0957 C26.7068,20.0177 27.7358,20.4597 28.5678,20.0017 C29.3178,19.5897 30.1148,19.2467 30.9498,18.9797 C31.4498,18.8197 31.8398,18.4287 31.9578,17.9137 L34.2138,8.0807 C34.3878,7.3237 33.9558,6.5317 33.2108,6.3267 C30.4078,5.5597 27.4658,5.3997 24.5908,5.8757 C23.7588,6.0137 23.2488,6.8827 23.4648,7.7027 M27.8633,8.7461 C28.8463,8.7461 29.8313,8.8321 30.8013,9.0011 L30.5533,10.0801 M18.1875,26.2109 C19.1055,26.4459 19.5555,27.4779 19.1085,28.3179 C18.7065,29.0759 18.3735,29.8829 18.1155,30.7269 C17.9615,31.2309 17.5765,31.6269 17.0665,31.7509 L7.3175,34.1149 C6.5665,34.2979 5.7755,33.8699 5.5655,33.1219 C4.7755,30.3099 4.5885,27.3499 5.0345,24.4519 C5.1635,23.6129 6.0225,23.0929 6.8395,23.3019 M9.4199,30.376 L8.1999,30.672 C7.9709,29.402 7.8809,28.106 7.9339,26.821 M34.2031,8.127 C40.4061,9.175 44.4381,14.073 43.3111,16.458 C42.1231,18.971 36.0681,19.04 32.0541,17.496"/>
</svg>
