<svg xmlns="http://www.w3.org/2000/svg" width="36" height="36" fill="none" viewBox="0 0 36 36"><path fill="#000" fill-rule="evenodd" d="M5.25 6.25h-.5v20.003a3.5 3.5 0 0 0 3.499 3.497h19.504a3.5 3.5 0 0 0 3.497-3.497V10.75h-3v-4.5h-23m23 19.25V11.75h2v14.503a2.5 2.5 0 0 1-2.497 2.497H8.249a2.5 2.5 0 0 1-2.499-2.497V7.25h21.5V25.5zm-20-13.25h-.5v5.5h7v-5.5h-6.5m.5 4.5v-3.5h5v3.5zm16.75-.5h-9v-1h9zm-9-3h9v-1h-9zm9-3h-18v-1h18zm-9 10.5h9v-1h-9zm9 3h-9v-1h9zm-18-3H15v-1H7.5zm7.5 3H7.5v-1H15zm-7.5 2v1h18v-1z" clip-rule="evenodd"/></svg>