<?xml version="1.0" encoding="utf-8"?>
<!-- Generator: Adobe Illustrator 24.2.0, SVG Export Plug-In . SVG Version: 6.00 Build 0)  -->
<svg version="1.0" id="_x3C_Ebene_x3E_" xmlns="http://www.w3.org/2000/svg" xmlns:xlink="http://www.w3.org/1999/xlink" x="0px"
	 y="0px" viewBox="0 0 24 24" enable-background="new 0 0 24 24" xml:space="preserve">
<g id="SVG_x5F_24x24pt">
	<path id="backgroundBlue" fill="#2D327D" d="M0,22.5v-21C0,0.675,0.675,0,1.5,0h21C23.325,0,24,0.675,24,1.5v21
		c0,0.825-0.675,1.5-1.5,1.5h-21C0.675,24,0,23.325,0,22.5z"/>
	<g id="content">
		<path fill="#FFFFFF" d="M21.756,19.233L12.848,3.804c-0.182-0.302-0.477-0.518-0.846-0.519c-0.358-0.001-0.669,0.227-0.847,0.521
			L2.247,19.234c-0.171,0.308-0.21,0.672-0.027,0.992c0.178,0.31,0.531,0.466,0.874,0.473H20.91
			c0.352-0.007,0.687-0.154,0.872-0.473C21.963,19.917,21.921,19.534,21.756,19.233L21.756,19.233z"/>
		<g>
			<path fill="#EB0000" d="M12.002,4.738L20.525,19.5l-17.045,0L12.002,4.738 M11.999,3.285c-0.357,0-0.667,0.227-0.845,0.521
				L2.247,19.234c-0.171,0.308-0.21,0.672-0.027,0.992c0.178,0.31,0.531,0.466,0.874,0.473H20.91
				c0.352-0.007,0.687-0.154,0.872-0.473c0.18-0.309,0.138-0.692-0.027-0.994L12.848,3.804c-0.182-0.302-0.477-0.518-0.846-0.519
				C12.001,3.285,12,3.285,11.999,3.285L11.999,3.285z"/>
		</g>
		<g>
			<path d="M15.406,14.483v1.102c0,0.064,0.052,0.116,0.116,0.116c0.064,0,0.116-0.052,0.116-0.116v-0.94h0.102v2.513
				c0,0.092,0.075,0.166,0.166,0.166c0.092,0,0.166-0.075,0.166-0.166v-1.462h0.106v1.462c0,0.092,0.075,0.166,0.167,0.166
				c0.092,0,0.166-0.075,0.166-0.166v-2.513h0.101v0.94c0,0.064,0.052,0.116,0.116,0.116c0.064,0,0.116-0.052,0.116-0.116l0,0
				v-1.102c0-0.179-0.145-0.325-0.325-0.325h-0.788C15.552,14.158,15.406,14.304,15.406,14.483L15.406,14.483z"/>
			<path d="M16.443,13.75c0-0.179-0.146-0.325-0.325-0.325c-0.179,0-0.325,0.146-0.325,0.325c0,0.179,0.146,0.325,0.325,0.325
				C16.297,14.075,16.443,13.929,16.443,13.75L16.443,13.75z"/>
		</g>
		<g>
			<polygon fill="#EB0000" points="15,17.625 13.125,17.625 12.75,17.625 12.75,18 12.75,19.125 13.125,19.125 13.125,18 15,18 			
				"/>
			<rect x="15" y="17.625" width="3.375" height="0.375"/>
		</g>
		<g>
			<polygon fill="#EB0000" points="12.75,12 12.75,12.159 12.909,12 			"/>
			<polygon fill="#EB0000" points="13.25,12 12.75,12.5 12.75,12.659 13.409,12 			"/>
			<polygon fill="#EB0000" points="13.75,12 12.75,13 12.75,13.159 13.909,12 			"/>
			<polygon fill="#EB0000" points="14.75,12 12.75,14 12.75,14.159 14.909,12 			"/>
			<polygon fill="#EB0000" points="15,12.25 12.75,14.5 12.75,14.659 15,12.409 			"/>
			<polygon fill="#EB0000" points="15,12.75 12.75,15 12.75,15.159 15,12.909 			"/>
			<polygon fill="#EB0000" points="15,13.25 12.75,15.5 12.75,15.659 15,13.409 			"/>
			<polygon fill="#EB0000" points="15,13.75 12.75,16 12.75,16.159 15,13.909 			"/>
			<polygon fill="#EB0000" points="15,14.25 12.75,16.5 12.75,16.659 15,14.409 			"/>
			<polygon fill="#EB0000" points="15,14.75 12.75,17 12.75,17.159 15,14.909 			"/>
			<polygon fill="#EB0000" points="15,15.25 13,17.25 13.159,17.25 15,15.409 			"/>
			<polygon fill="#EB0000" points="15,15.75 13.5,17.25 13.659,17.25 15,15.909 			"/>
			<polygon fill="#EB0000" points="15,16.25 14,17.25 14.159,17.25 15,16.409 			"/>
			<polygon fill="#EB0000" points="15,16.75 14.5,17.25 14.659,17.25 15,16.909 			"/>
			<polygon fill="#EB0000" points="14.25,12 12.75,13.5 12.75,13.659 14.409,12 			"/>
		</g>
		<rect x="11.25" y="18.525" width="0.375" height="0.6"/>
		<rect x="8.625" y="18.525" width="0.375" height="0.6"/>
		<path d="M12.269,12.644l-0.538-0.538C11.673,12.048,11.557,12,11.475,12h-2.7c-0.082,0-0.198,0.048-0.256,0.106l-0.538,0.538
			c-0.058,0.058-0.106,0.174-0.106,0.256v4.575c0,0.082,0.03,0.21,0.067,0.284l0.241,0.482c0.037,0.074,0.135,0.134,0.217,0.134
			h3.45c0.082,0,0.18-0.06,0.217-0.134l0.241-0.482c0.037-0.074,0.067-0.202,0.067-0.284V12.9
			C12.375,12.817,12.327,12.702,12.269,12.644z M9.75,12.45h0.75v0.3H9.75V12.45z M9,16.5H8.25v-0.3H9V16.5z M12,16.5h-0.75v-0.3H12
			V16.5z M12,15H8.25v-1.875H12V15z"/>
		<path d="M11.119,10.875H9.131C9.059,10.875,9,10.934,9,11.006c0,0.072,0.059,0.131,0.131,0.131h0.862v0.713h0.263v-0.713h0.862
			c0.072,0,0.131-0.059,0.131-0.131C11.25,10.934,11.191,10.875,11.119,10.875z"/>
	</g>
</g>
</svg>
