<svg class="color-immutable" width="59" height="20" viewBox="0 0 59 20" fill="none" xmlns="http://www.w3.org/2000/svg"><g clip-path="url(#a)"><path fill-rule="evenodd" clip-rule="evenodd" d="M2 0a2 2 0 0 0-2 2v16a2 2 0 0 0 2 2h55a2 2 0 0 0 2-2V2a2 2 0 0 0-2-2H2Z" fill="#EB0000"/><path d="M9.22 4.2h4.057L8.259 15.8H4.186L9.22 4.2ZM15.948 4.2h14.395l-1.49 3.445h-10.28l-2.042 4.71h10.285l-1.49 3.445H10.93l5.017-11.6ZM44.092 4.234V6.29h-4.659l-.498 2.602c.559-.59 1.273-.886 2.143-.886.855 0 1.598.23 2.231.688.939.691 1.408 1.74 1.408 3.149 0 1.381-.501 2.475-1.503 3.282-.78.633-1.714.95-2.8.95-1.224 0-2.207-.328-2.95-.982-.744-.659-1.137-1.547-1.18-2.665h2.271c.037.406.169.751.395 1.036.354.448.844.672 1.472.672.606 0 1.086-.218 1.44-.656.342-.427.514-.947.514-1.558 0-.665-.18-1.195-.538-1.59-.359-.401-.836-.602-1.432-.602-.728 0-1.295.327-1.7.981l-2.065-.031 1.1-6.447h6.351ZM47.367 9.59c-.538-.186-.952-.489-1.242-.91-.285-.422-.427-.934-.427-1.535 0-1.002.411-1.801 1.234-2.397.728-.527 1.592-.791 2.594-.791 1.14 0 2.07.314 2.793.941.685.591 1.028 1.321 1.028 2.191 0 .607-.145 1.126-.435 1.559-.29.432-.701.746-1.234.941.417.121.757.277 1.02.467.733.532 1.1 1.31 1.1 2.333 0 1.176-.451 2.112-1.353 2.808-.76.586-1.735.878-2.926.878-1.292 0-2.32-.321-3.085-.965-.797-.67-1.195-1.547-1.195-2.634 0-1.018.353-1.806 1.06-2.365a2.925 2.925 0 0 1 1.068-.522Zm2.128-3.837c-.506 0-.915.142-1.226.427-.311.28-.467.648-.467 1.107 0 .48.156.865.467 1.155.316.285.738.427 1.265.427.528 0 .944-.142 1.25-.427.306-.285.459-.672.459-1.163 0-.48-.156-.854-.467-1.123-.306-.269-.733-.403-1.281-.403Zm-.016 4.706c-.57 0-1.036.177-1.4.53-.359.348-.538.796-.538 1.345 0 .564.182 1.023.546 1.376.369.354.846.53 1.431.53.665 0 1.163-.195 1.495-.585.322-.374.483-.807.483-1.297 0-.56-.184-1.018-.554-1.377-.353-.348-.84-.522-1.463-.522Z" fill="#fff"/></g><defs><clipPath id="a"><path fill="#fff" d="M0 0h59v20H0z"/></clipPath></defs></svg>