<?xml version="1.0" encoding="utf-8"?>
<!-- Generator: Adobe Illustrator 25.3.1, SVG Export Plug-In . SVG Version: 6.00 Build 0)  -->
<svg version="1.0" xmlns="http://www.w3.org/2000/svg" xmlns:xlink="http://www.w3.org/1999/xlink" x="0px" y="0px"
	 viewBox="0 0 24 24" enable-background="new 0 0 24 24" xml:space="preserve">
<g id="SVG_x5F_24x24pt">
	<path id="backgroundBlue" fill="#2D327D" d="M0,22.5v-21C0,0.675,0.675,0,1.5,0h21C23.325,0,24,0.675,24,1.5v21
		c0,0.825-0.675,1.5-1.5,1.5h-21C0.675,24,0,23.325,0,22.5z"/>
	<g id="content">
		<path fill="#FFFFFF" d="M13.5,5.625c0,0.828-0.672,1.5-1.5,1.5s-1.5-0.672-1.5-1.5s0.672-1.5,1.5-1.5S13.5,4.797,13.5,5.625z"/>
		<path fill="#FFFFFF" d="M13.5,12.423V9.352c0-0.919-0.745-1.664-1.664-1.664h0c-0.595,0-1.144,0.317-1.441,0.832l-0.292,0.506
			L13.5,12.423z"/>
		<path fill="#FFFFFF" d="M9.326,10.37l-1.309,2.268c-0.155,0.269-0.063,0.613,0.206,0.768l0,0c0.269,0.155,0.613,0.063,0.768-0.206
			l1.134-1.964v2.639H8.169c-0.536,0-1.031,0.286-1.299,0.75L4.545,18.65c-0.181,0.314-0.074,0.715,0.24,0.896
			c0.314,0.181,0.715,0.074,0.896-0.24l2.27-3.932h4.798c0.414,0,0.75-0.336,0.75-0.75v-0.081L9.326,10.37z"/>
		<path fill="#FFFFFF" d="M16.5,15.423V12.75h4.125c0.207,0,0.375-0.168,0.375-0.375S20.832,12,20.625,12h-4.5
			c-0.207,0-0.375,0.168-0.375,0.375v2.298L16.5,15.423z"/>
		<path fill="#FFFFFF" d="M15.081,16.125H9.75c-0.207,0-0.375,0.168-0.375,0.375v3.75h-6C3.168,20.25,3,20.418,3,20.625
			S3.168,21,3.375,21H9.75c0.207,0,0.375-0.168,0.375-0.375v-3.75h5.706L15.081,16.125z"/>
		
			<rect x="11.099" y="-0.43" transform="matrix(0.7071 -0.7071 0.7071 0.7071 -4.8964 11.8441)" fill="#EB0000" width="1.5" height="24.525"/>
	</g>
</g>
</svg>
