<svg width="24" height="24" viewBox="0 0 24 24" fill="none" xmlns="http://www.w3.org/2000/svg"><path fill-rule="evenodd" clip-rule="evenodd" d="M2.5 4H2v15h20v-5h-.5c-1.424 0-2.5-1.076-2.5-2.5S20.076 9 21.5 9h.5V4H2.5ZM3 18V5h13v.464h1V5h4v3.033c-1.727.233-3 1.66-3 3.467 0 1.806 1.273 3.234 3 3.466V18h-4v-.465h-1V18H3ZM4.5 7H4V16.975h.499l10 .025L15 17V7h-2V6h-1v1H7V6H6v1H4.5Zm.5 8.977V10h9v5.999l-9-.022ZM14 9H5V8h9v1Zm-5 4H8v-1h1v-1h1v4H9v-2Zm7-6.607v.928h1v-.928h-1Zm0 1.857v.928h1V8.25h-1Zm0 1.857v.929h1v-.93h-1Zm0 1.857v.929h1v-.929h-1Zm0 1.857v.929h1v-.929h-1Zm0 1.857v.929h1v-.929h-1Z" fill="#000"/></svg>