<svg xmlns="http://www.w3.org/2000/svg" width="24" height="24" fill="none" viewBox="0 0 24 24"><path fill="#000" fill-rule="evenodd" d="M2.5 4H2v15h20v-5h-.5c-1.424 0-2.5-1.076-2.5-2.5S20.076 9 21.5 9h.5V4H2.5M3 18V5h13v.464h1V5h4v3.033c-1.727.233-3 1.66-3 3.467 0 1.806 1.273 3.234 3 3.467V18h-4v-.465h-1V18zM4.5 7H4v9.975h.499l10 .025L15 17V7h-2V6h-1v1H7V6H6v1zm.5 8.977V10h9v5.999zM14 9H5V8h9zm-5 4H8v-1h1v-1h1v4H9zm7-6.607v.928h1v-.928zm0 1.857v.928h1V8.25zm0 1.857v.929h1v-.93zm0 1.857v.929h1v-.929zm0 1.857v.929h1v-.929zm0 1.857v.929h1v-.929z" clip-rule="evenodd"/></svg>