<svg xmlns="http://www.w3.org/2000/svg" width="24" height="24" viewBox="0 0 24 24">
  <path fill="none" stroke="#000" d="M4,21.5 L18,21.5 M5.5,21.5 L5.5,4.5 C5.5,3.396 6.396,2.5 7.5,2.5 L14.5,2.5 C15.604,2.5 16.5,3.396 16.5,4.5 L16.5,21.5 M7.5,9.5 L14.5,9.5 L14.5,5.5 L7.5,5.5 L7.5,9.5 Z M20.5,13.5 L20.5,17 C20.503,17.542 20.504,18.5 19.5,18.5 C18.5,18.5 18.501,17.52 18.5,17 L18.5,16 C18.477,14.992 17.998,14.5 17,14.5 L16.5,14.5 M22.5,11.5 C22.5,12.604 21.604,13.5 20.5,13.5 C19.396,13.5 18.5,12.604 18.5,11.5 L18.5,10.5 L22.5,10.5 L22.5,11.5 Z M19.5,10.5 L19.5,8 M21.5,10.5 L21.5,8"/>
</svg>
