<svg xmlns="http://www.w3.org/2000/svg" width="48" height="48" viewBox="0 0 48 48">
  <g fill="none" fill-rule="evenodd">
    <polyline stroke="#000" points="4 41.5 19 41.5 28.988 41.5 44 41.5"/>
    <polygon stroke="#000" points="9.5 7.5 44.5 7.5 44.5 5.5 9.5 5.5"/>
    <polygon stroke="#000" points="32.5 37.5 32.5 31.5 38.5 31.5 38.482 37.5"/>
    <polygon stroke="#000" points="32.5 27.5 32.5 21.5 38.5 21.5 38.482 27.5"/>
    <polyline stroke="#000" points="17 21.5 28.5 21.5 28.464 27.5 22.991 27.5"/>
    <polyline stroke="#000" points="21.95 31.5 28.5 31.5 28.464 37.5 15 37.5"/>
    <line x1="11.5" x2="11.5" y1="41.5" y2="27.429" stroke="#000"/>
    <line x1="11.498" x2="15.474" y1="31.987" y2="29.012" stroke="#000"/>
    <line x1="11.5" x2="9.639" y1="34.431" y2="32.57" stroke="#000"/>
    <polygon stroke="#000" points="32.5 17.5 32.5 11.5 38.5 11.5 38.482 17.5"/>
    <polygon stroke="#000" points="15.5 17.5 15.5 11.5 28.5 11.5 28.464 17.5"/>
    <line x1="11.5" x2="11.5" y1="7.5" y2="17.619" stroke="#000"/>
    <line x1="42.5" x2="42.5" y1="41.5" y2="7.5" stroke="#000"/>
    <path stroke="#000" d="M21.3145,28.0869 C21.3145,25.7409 19.4125,23.8389 17.0665,23.8389 C16.4945,23.8389 15.9505,23.9529 15.4525,24.1569 C15.4595,24.0519 15.4635,23.9459 15.4635,23.8389 C15.4635,21.2069 13.3305,19.0729 10.6975,19.0729 C8.0655,19.0729 5.9315,21.2069 5.9315,23.8389 C5.9315,25.2539 6.5485,26.5249 7.5285,27.3979 C5.7375,28.2499 4.5005,30.0759 4.5005,32.1909 C4.5005,35.1229 6.8765,37.4999 9.8085,37.4999 C11.9925,37.4999 13.8675,36.1809 14.6825,34.2959 C15.1515,34.8499 15.8515,35.2019 16.6335,35.2019 C18.0445,35.2019 19.1885,34.0589 19.1885,32.6479 C19.1885,32.3649 19.1425,32.0939 19.0575,31.8399 C20.3995,31.1259 21.3145,29.7139 21.3145,28.0869 Z"/>
  </g>
</svg>
