<svg class="color-immutable" xmlns="http://www.w3.org/2000/svg" width="59" height="20" fill="none" viewBox="0 0 59 20"><g clip-path="url(#a)"><path stroke="#000" d="M.5 2A1.5 1.5 0 0 1 2 .5h55A1.5 1.5 0 0 1 58.5 2v16a1.5 1.5 0 0 1-1.5 1.5H2A1.5 1.5 0 0 1 .5 18z"/><path fill="#000" d="M4.069 4.224h5.704q1.692 0 2.594.532.749.434 1.144 1.16.395.725.395 1.635 0 1.032-.5 1.797-.491.765-1.377 1.096.78.192 1.224.87.282.426.379.894.097.467.25 2.135.112 1.224.346 1.523l.113.137h-2.683a2 2 0 0 1-.201-.637q-.058-.387-.154-1.788-.096-1.25-.612-1.724-.507-.484-1.74-.484H6.639v4.633h-2.57zm2.57 2.022v3.239h2.457q1.184 0 1.668-.339.612-.426.612-1.289 0-.837-.524-1.224t-1.651-.387zM24.436 13.827v2.176h-8.33V4.223h2.57v9.604zM27.135 9.678q-.822-.282-1.265-.926-.435-.645-.435-1.563 0-1.531 1.257-2.441 1.111-.806 2.642-.806 1.74 0 2.844.959 1.048.902 1.048 2.231 0 .927-.444 1.587-.443.66-1.256.96.636.184 1.039.475 1.12.813 1.12 2.376 0 1.797-1.378 2.86-1.16.895-2.98.895-1.975 0-3.143-.983-1.216-1.024-1.216-2.683 0-1.556 1.08-2.409.491-.378 1.087-.532m2.167-3.907q-.774 0-1.249.435-.475.426-.475 1.128 0 .733.475 1.176.483.435 1.29.435.804 0 1.272-.435t.468-1.184q0-.734-.476-1.144-.466-.411-1.305-.411m-.016 4.794q-.87 0-1.426.54-.548.53-.548 1.369 0 .862.556 1.402.564.54 1.458.54 1.016 0 1.523-.597.491-.571.491-1.321 0-.855-.564-1.402-.54-.531-1.49-.531M38.567 3.942q1.346 0 2.369.822 1.014.821 1.474 2.53.347 1.305.347 2.835 0 2.538-.903 4.174-.531.95-1.394 1.466a3.6 3.6 0 0 1-1.909.516q-1.442 0-2.465-.87-1.821-1.547-1.821-5.286 0-2.658.95-4.27a3.84 3.84 0 0 1 1.41-1.418 3.86 3.86 0 0 1 1.942-.5m-.089 1.99q-1.16 0-1.579 1.337-.33 1.064-.33 2.981 0 1.692.338 2.715.436 1.33 1.612 1.33.975 0 1.45-1.032.475-1.03.475-3.15 0-1.804-.338-2.844-.435-1.337-1.628-1.337"/></g><defs><clipPath id="a"><path fill="#fff" d="M0 0h59v20H0z"/></clipPath></defs></svg>