<svg width="24" height="24" viewBox="0 0 24 24" fill="none" xmlns="http://www.w3.org/2000/svg"><path fill-rule="evenodd" clip-rule="evenodd" d="M12.594 2.017a9.942 9.942 0 0 1 5.7 2.211 10.097 10.097 0 0 1 2.21 2.508l.264.426-.01.006c.22.4.415.816.58 1.247l-.933.359a8.96 8.96 0 0 0-.5-1.079l-7.642 4.73-.763.472V3.014a9.03 9.03 0 0 0-.909.096l-.155-.988c.349-.055.704-.092 1.064-.11V2h.5c.2 0 .398.006.594.017Zm6.4 4.32c.135.164.263.334.385.509L12.5 11.103v-8.09a8.948 8.948 0 0 1 5.164 1.992 9.05 9.05 0 0 1 1.33 1.331ZM6.337 5.004a8.99 8.99 0 0 1 2.438-1.41l-.359-.933a9.99 9.99 0 0 0-2.709 1.566l.63.777Zm-2.74 3.769a8.99 8.99 0 0 1 1.41-2.438l-.778-.63a9.99 9.99 0 0 0-1.566 2.71l.933.358ZM3 12c0-.48.037-.95.11-1.409l-.988-.155A10.07 10.07 0 0 0 2 12h1Zm17.89-1.409a9.07 9.07 0 0 1 0 2.818l.988.155a10.075 10.075 0 0 0 0-3.128l-.988.155Zm-.485 4.635a8.991 8.991 0 0 1-1.41 2.438l.777.63a9.991 9.991 0 0 0 1.566-2.71l-.933-.358Zm-2.741 3.769a8.991 8.991 0 0 1-2.438 1.41l.359.933c.988-.38 1.9-.911 2.709-1.566l-.63-.777Zm-4.255 1.895A9.07 9.07 0 0 1 12 21v1c.532 0 1.054-.042 1.564-.122l-.155-.988ZM6 18.707l-2.646 2.646-.708-.707L5.293 18l-2.647-2.647.708-.707L6 17.293l2.646-2.647.708.707L6.707 18l2.647 2.646-.708.707L6 18.707Z" fill="#000"/></svg>