<svg xmlns="http://www.w3.org/2000/svg" width="24" height="24" fill="none" viewBox="0 0 24 24"><path fill="#000" fill-rule="evenodd" d="M12.594 2.017a9.94 9.94 0 0 1 5.7 2.211 10.097 10.097 0 0 1 2.21 2.508l.264.426-.01.006q.331.6.58 1.247l-.933.359a9 9 0 0 0-.5-1.079l-7.642 4.73-.763.472V3.014a9 9 0 0 0-.909.096l-.155-.988q.524-.083 1.064-.11V2h.5q.3 0 .594.017m6.4 4.32q.202.246.385.509L12.5 11.103v-8.09a8.95 8.95 0 0 1 5.164 1.992 9 9 0 0 1 1.33 1.331M6.337 5.004a9 9 0 0 1 2.438-1.41l-.359-.933a10 10 0 0 0-2.709 1.566zm-2.74 3.769a9 9 0 0 1 1.41-2.438l-.778-.63a10 10 0 0 0-1.566 2.71zM3 12q0-.72.11-1.409l-.988-.155A10 10 0 0 0 2 12zm17.89-1.409a9 9 0 0 1 0 2.818l.988.155a10 10 0 0 0 0-3.128zm-.485 4.635a9 9 0 0 1-1.41 2.438l.777.63a10 10 0 0 0 1.566-2.71zm-2.741 3.769a9 9 0 0 1-2.438 1.41l.359.933c.988-.38 1.9-.911 2.709-1.566zm-4.255 1.895A9 9 0 0 1 12 21v1q.799-.001 1.564-.122zM6 18.707l-2.646 2.646-.708-.707L5.293 18l-2.647-2.647.708-.707L6 17.293l2.646-2.647.708.707L6.707 18l2.647 2.646-.708.707z" clip-rule="evenodd"/></svg>