<svg class="color-immutable" xmlns="http://www.w3.org/2000/svg" width="59" height="20" fill="none" viewBox="0 0 59 20"><g clip-path="url(#a)"><path stroke="#FFDE15" d="M2 .5h55A1.5 1.5 0 0 1 58.5 2v16a1.5 1.5 0 0 1-1.5 1.5H2A1.5 1.5 0 0 1 .5 18V2A1.5 1.5 0 0 1 2 .5Z"/><path fill="#FFDE15" d="M45.588 7.898a4.34 4.34 0 0 1 .701-2.39q1.073-1.55 3.224-1.55 1.656 0 2.673.847a2.95 2.95 0 0 1 1.096 2.373 2.6 2.6 0 0 1-.43 1.499 2.1 2.1 0 0 1-1.163.85c.59.123 1.114.462 1.47.95.37.518.559 1.143.54 1.78a3.55 3.55 0 0 1-1.26 2.807q-1.168 1.013-2.95 1.013-1.93 0-3.062-1.116-1.131-1.115-1.131-3.013v-.15h2.215q0 1.067.505 1.649c.364.4.888.613 1.427.581q.922 0 1.419-.546c.302-.335.465-.774.457-1.226a1.69 1.69 0 0 0-.584-1.352q-.48-.412-1.482-.412-.28 0-.56.032v-1.7q.206.015.395.015 1.986 0 1.986-1.48a1.36 1.36 0 0 0-.433-1.047 1.62 1.62 0 0 0-1.143-.4 1.58 1.58 0 0 0-1.254.506q-.441.507-.473 1.48zM32.918 4.2h4.042l.805 6.063L40.387 4.2h4.043l-5.001 11.6h-4.06l-.927-5.758-2.483 5.758H27.9zM26.092 12.366a.92.92 0 0 0 .843-.553L30.216 4.2H16.13l-5.001 11.6h4.024l3.786-8.69h5.974l-1.197 2.775-5.209-.019L22.71 15.8h4.582l-3.114-3.434zM9.388 4.2h4.042l-5 11.6H4.37z"/></g><defs><clipPath id="a"><path fill="#fff" d="M0 0h59v20H0z"/></clipPath></defs></svg>