<svg class="color-immutable" xmlns="http://www.w3.org/2000/svg" width="59" height="20" fill="none" viewBox="0 0 59 20"><path fill="#000" d="M1.792 0h55.416C58.197 0 59 .806 59 1.8v16.4c0 .994-.801 1.8-1.792 1.8H1.792A1.797 1.797 0 0 1 0 18.2V1.8C0 .806.803 0 1.792 0"/><path fill="#FFDE15" d="M12.8 7.661h-2.405q-.07-.846-.633-1.289-.553-.45-1.558-.45-.894 0-1.392.355-.49.349-.49.981 0 .57.474.823.459.252 2.326.712 1.97.49 2.729.988 1.4.918 1.4 2.555 0 1.796-1.408 2.832-1.242.91-3.362.91-2.357 0-3.662-1.076t-1.353-3.061h2.515q.055.964.499 1.432.696.743 2.096.743.95 0 1.503-.372.624-.427.625-1.162 0-.736-.878-1.076-.483-.19-2.278-.688-1.125-.309-1.756-.586-.633-.276-1.013-.617-.886-.79-.886-2.183 0-1.669 1.384-2.642 1.18-.83 3.062-.83 1.653 0 2.768.656 1.606.942 1.693 3.045M24.515 4.236v11.565h-2.54l-4.84-7.879.031 7.879h-2.428V4.236h2.57l4.81 7.863-.031-7.863zM26.168 12.898h2.183q.27 1.345 1.559 1.345.728 0 1.178-.49.459-.5.704-1.543.159-.665.23-1.511-.53.744-1.092 1.06-.554.308-1.353.308-1.273 0-2.214-.743a3.54 3.54 0 0 1-1.029-1.353 4.4 4.4 0 0 1-.364-1.803q0-1.955 1.337-3.164 1.147-1.044 2.753-1.045.99 0 1.827.443a3.96 3.96 0 0 1 1.408 1.258Q34.3 7.107 34.3 9.726q0 2.42-.886 4.13-1.156 2.221-3.496 2.222-1.56 0-2.58-.862-1.011-.863-1.17-2.318m3.845-6.985q-.744 0-1.258.61-.514.616-.514 1.566 0 .767.371 1.36.507.815 1.424.815.83 0 1.33-.665.465-.624.466-1.487 0-.909-.483-1.542a1.6 1.6 0 0 0-1.337-.657M36.997 9.592q-.807-.277-1.242-.91-.427-.633-.427-1.535 0-1.502 1.234-2.397 1.092-.79 2.595-.79 1.709 0 2.792.94 1.029.887 1.028 2.192 0 .91-.435 1.558-.435.649-1.234.941.625.182 1.02.467 1.1.799 1.1 2.334 0 1.764-1.352 2.808-1.14.878-2.927.878-1.938 0-3.085-.965-1.195-1.005-1.195-2.634 0-1.527 1.06-2.365a2.9 2.9 0 0 1 1.068-.523m2.128-3.837q-.76 0-1.226.427-.467.42-.467 1.108 0 .72.467 1.155.474.427 1.265.427t1.25-.427q.46-.428.46-1.163 0-.72-.468-1.123-.458-.404-1.281-.404m-.016 4.707q-.855 0-1.4.53-.538.522-.538 1.344 0 .847.546 1.377.554.53 1.432.53.996 0 1.495-.586.482-.56.482-1.297 0-.839-.553-1.376-.531-.522-1.464-.522"/></svg>