<?xml version="1.0" encoding="utf-8"?>
<!-- Generator: Adobe Illustrator 24.2.0, SVG Export Plug-In . SVG Version: 6.00 Build 0)  -->
<svg version="1.0" xmlns="http://www.w3.org/2000/svg" xmlns:xlink="http://www.w3.org/1999/xlink" x="0px" y="0px"
	 viewBox="0 0 24 24" enable-background="new 0 0 24 24" xml:space="preserve">
<g id="SVG_x5F_24x24pt">
	<path id="backgroundBlue" fill="#2D327D" d="M0,22.5v-21C0,0.675,0.675,0,1.5,0h21C23.325,0,24,0.675,24,1.5v21
		c0,0.825-0.675,1.5-1.5,1.5h-21C0.675,24,0,23.325,0,22.5z"/>
	<g id="content">
		<path fill="#FFFFFF" d="M3.187,21.185h17.625c0.102,0,0.185-0.083,0.185-0.185c0-0.102-0.083-0.185-0.185-0.185H3.187
			c-0.102,0-0.185,0.083-0.185,0.185C3.002,21.102,3.085,21.185,3.187,21.185z"/>
		<path fill="#FFFFFF" d="M2.881,8.808C3.178,8.629,3.5,8.495,3.836,8.41c0.681-0.173,1.398-0.141,2.061,0.092l5.495,2l6.999-5.712
			l1.458,0.404l-3.593,7.078l2.544,0.926l1.756-2.179l1.075,0.448l-1.561,3.729l-5.352,0l-10.605-3.86
			c-0.515-0.187-0.989-0.473-1.395-0.841l0,0.001c-0.155-0.14-0.264-0.322-0.315-0.523C2.287,9.521,2.482,9.048,2.881,8.808z"/>
	</g>
</g>
</svg>
