<svg class="color-immutable" xmlns="http://www.w3.org/2000/svg" width="59" height="20" fill="none" viewBox="0 0 59 20"><g clip-path="url(#a)"><path stroke="#000" d="M2 .5h55A1.5 1.5 0 0 1 58.5 2v16a1.5 1.5 0 0 1-1.5 1.5H2A1.5 1.5 0 0 1 .5 18V2A1.5 1.5 0 0 1 2 .5Z"/><path fill="#000" d="M12.798 7.659h-2.405q-.07-.846-.633-1.29-.553-.45-1.558-.45-.894 0-1.392.356-.49.348-.49.98 0 .57.474.823.459.253 2.326.712 1.97.49 2.729.989 1.4.918 1.4 2.555 0 1.795-1.408 2.832-1.242.91-3.362.91Q6.122 16.074 4.817 15q-1.305-1.077-1.353-3.062h2.515q.055.966.499 1.432.696.744 2.096.744.95 0 1.503-.372.624-.428.625-1.163 0-.735-.878-1.076-.483-.19-2.278-.688-1.125-.307-1.756-.585-.633-.277-1.013-.617-.885-.791-.886-2.183 0-1.67 1.384-2.642 1.18-.831 3.062-.831 1.653 0 2.768.657 1.605.94 1.693 3.045"/></g><defs><clipPath id="a"><path fill="#fff" d="M0 0h59v20H0z"/></clipPath></defs></svg>