<svg xmlns="http://www.w3.org/2000/svg" width="24" height="24" viewBox="0 0 24 24">
  <path fill="none" stroke="#000" d="M4,21.4997 L18,21.4997 M5.5,21.4997 L5.5,4.4997 C5.5,3.3957 6.396,2.4997 7.5,2.4997 L14.5,2.4997 C15.604,2.4997 16.5,3.3957 16.5,4.4997 L16.5,21.4997 M7.5,9.5 L14.5,9.5 L14.5,5.5 L7.5,5.5 L7.5,9.5 Z M18,5.0002 L20.5,8.0002 L20.5,17.0002 C20.503,17.5422 20.504,18.5002 19.5,18.5002 C18.5,18.5002 18.501,17.5192 18.5,17.0002 L18.5,16.0002 C18.477,14.9932 17.998,14.5002 17,14.5002 L16.5,14.5002"/>
</svg>
