<svg xmlns="http://www.w3.org/2000/svg" width="48" height="48" fill="none" viewBox="0 0 48 48"><path fill="#000" fill-rule="evenodd" d="M14.95 4.543c.458-1.271 1.877-1.87 3.11-1.364 12.228 5.017 21.949 14.914 26.775 27.279.483 1.24-.128 2.655-1.403 3.098L40.134 34.7a2.34 2.34 0 0 1-2.336-.477L5.706 44.893l-.157-.474.157.474c-1.63.541-3.155-1.036-2.584-2.649l11.281-31.858a2.35 2.35 0 0 1-.64-2.547zm.336 6.345-5.15 14.542 2.218 2.217-.707.707-1.88-1.88-2.319 6.549A4 4 0 1 1 4.85 40.36l-.786 2.218-.47-.167.47.167c-.296.838.497 1.641 1.327 1.366L14 41.08V38h1v2.749l9.85-3.275A4.007 4.007 0 0 1 28 30.996a4.007 4.007 0 0 1 3.998 4.101l5.21-1.732c-3.982-10.14-11.928-18.277-21.923-22.477m15.676 24.554q.038-.214.038-.431a3.007 3.007 0 0 0-3-3.015 3.007 3.007 0 0 0-2.12 5.136zm-25.766 3.94a3 3 0 1 0 1.905-5.38zM17.68 4.105a1.345 1.345 0 0 0-1.79.777l-1.186 3.296c-.243.676.082 1.421.727 1.688C25.792 14.14 34.029 22.526 38.142 33c.256.654.993.988 1.665.754l3.298-1.144c.718-.25 1.085-1.057.799-1.79C39.176 18.711 29.654 9.017 17.68 4.105M16 19.5a2.5 2.5 0 1 1 5 0 2.5 2.5 0 0 1-5 0m2.5-3.5a3.5 3.5 0 1 0 0 7 3.5 3.5 0 0 0 0-7M15 30.5a2.5 2.5 0 1 1 5 0 2.5 2.5 0 0 1-5 0m2.5-3.5a3.5 3.5 0 1 0 0 7 3.5 3.5 0 0 0 0-7M30 29h-4v-1h4zm-6.416-5.723 2 3 .832-.554-2-3z" clip-rule="evenodd"/></svg>