<?xml version="1.0" encoding="utf-8"?>
<!-- Generator: Adobe Illustrator 24.2.0, SVG Export Plug-In . SVG Version: 6.00 Build 0)  -->
<svg version="1.0" id="Ebene_1" xmlns="http://www.w3.org/2000/svg" xmlns:xlink="http://www.w3.org/1999/xlink" x="0px" y="0px"
	 viewBox="0 0 24 24" enable-background="new 0 0 24 24" xml:space="preserve">
<g id="SVG_x5F_24x24pt">
	<path id="backgroundBlue" fill="#2D327D" d="M0,22.5v-21C0,0.675,0.675,0,1.5,0h21C23.325,0,24,0.675,24,1.5v21
		c0,0.825-0.675,1.5-1.5,1.5h-21C0.675,24,0,23.325,0,22.5z"/>
	<g id="content">
		<polygon fill="#FFFFFF" points="13.234,9.591 6.644,3 5.636,3 12.731,10.094 13.234,9.591 		"/>
		<path fill="#FFFFFF" d="M16.125,7.231l-3.278,3.278c-0.103,0.101-0.16,0.241-0.16,0.384c0,0.3,0.243,0.543,0.544,0.543
			c0.143,0,0.281-0.057,0.384-0.159l2.509-2.509V7.231L16.125,7.231z"/>
		<polygon fill="#FFFFFF" points="15.261,12.624 15.765,12.121 14.534,10.891 14.03,11.394 15.261,12.624 		"/>
		<path fill="#FFFFFF" d="M20.891,8.59l-2.117-2.118c-0.251-0.25-0.589-0.39-0.942-0.39c-0.735,0-1.331,0.597-1.331,1.331v4.502
			l-1.653,1.653c-0.071,0.071-0.11,0.166-0.11,0.266v4.222c0,0.384,0.31,0.694,0.693,0.694c0.384,0,0.695-0.31,0.695-0.694v-3.432
			l2.922-2.81c0.074-0.071,0.115-0.168,0.115-0.27V8.347l0.75,0.75v2.772c0,0.3,0.243,0.543,0.544,0.543
			c0.3,0,0.542-0.243,0.542-0.543V8.856C21,8.755,20.961,8.661,20.891,8.59L20.891,8.59z"/>
		<path fill="#FFFFFF" d="M7.728,17.298c-0.212-0.142-0.36-0.362-0.414-0.611H6.451c0.045,0.357,0.213,0.688,0.475,0.936
			c0.398,0.357,0.879,0.61,1.4,0.736L21,21v-0.69L8.83,17.775C8.435,17.691,8.06,17.529,7.728,17.298L7.728,17.298z"/>
		<path fill="#FFFFFF" d="M18.043,14.43c0-0.3-0.243-0.544-0.544-0.544c-0.299,0-0.543,0.244-0.543,0.544
			c0,0.3,0.243,0.544,0.543,0.544C17.799,14.974,18.043,14.73,18.043,14.43L18.043,14.43z"/>
		<path fill="#FFFFFF" d="M17.842,5.838c0.641,0,1.162-0.521,1.162-1.162c0-0.643-0.52-1.163-1.162-1.163
			c-0.642,0-1.163,0.52-1.163,1.163C16.678,5.317,17.2,5.838,17.842,5.838L17.842,5.838z"/>
	</g>
</g>
</svg>
