<?xml version="1.0" encoding="utf-8"?>
<!-- Generator: Adobe Illustrator 24.2.0, SVG Export Plug-In . SVG Version: 6.00 Build 0)  -->
<svg version="1.0" id="Ebene_1" xmlns="http://www.w3.org/2000/svg" xmlns:xlink="http://www.w3.org/1999/xlink" x="0px" y="0px"
	 viewBox="0 0 24 24" enable-background="new 0 0 24 24" xml:space="preserve">
<g id="SVG_x5F_24x24pt">
	<path id="backgroundBlue" fill="#2D327D" d="M0,22.5v-21C0,0.675,0.675,0,1.5,0h21C23.325,0,24,0.675,24,1.5v21
		c0,0.825-0.675,1.5-1.5,1.5h-21C0.675,24,0,23.325,0,22.5z"/>
	<g id="content">
		<polygon fill="#FFFFFF" points="21.001,3 21.001,3.376 3,4.951 3,4.575 21.001,3 		"/>
		<path fill="#FFFFFF" d="M12.693,17.819l3.773-0.331c-0.243,0.875-1.04,1.48-1.948,1.48C13.739,18.968,13.028,18.522,12.693,17.819
			L12.693,17.819z"/>
		<path fill="#FFFFFF" d="M8.432,7.198l3.937-2.753l4.356,2.028L14.652,8.16l4.707-0.411c0.028-0.003,0.056-0.005,0.085-0.005
			c0.505,0,0.927,0.387,0.972,0.89l0.64,7.322c0.002,0.011,0.002,0.021,0.002,0.032c0,0.194-0.149,0.357-0.343,0.374L3,17.914
			v-4.293l4.117-0.359c0.194-0.018,0.342-0.18,0.342-0.374c0-0.011-0.001-0.021-0.001-0.032l-0.262-2.99
			C7.18,9.673,7.018,9.524,6.823,9.524c-0.011,0-0.022,0-0.033,0.002L3,9.858V9.18l7.767-0.68L8.432,7.198L8.432,7.198z
			 M17.433,8.971l0.261,2.989c0.017,0.194,0.179,0.343,0.373,0.343c0.011,0,0.021-0.001,0.033-0.002l1.606-0.14h0.001
			c0.193-0.018,0.342-0.179,0.342-0.374c0-0.011-0.001-0.021-0.001-0.032l-0.262-2.989c-0.017-0.193-0.179-0.342-0.374-0.342
			c-0.011,0-0.022,0-0.033,0.001l-1.605,0.141c-0.194,0.017-0.343,0.179-0.343,0.373C17.431,8.95,17.431,8.961,17.433,8.971
			L17.433,8.971z M15.611,9.243l0.374,4.259c0.025,0.291,0.268,0.513,0.56,0.513c0.31,0,0.562-0.252,0.562-0.562
			c0-0.017,0-0.033-0.002-0.05l-0.372-4.258c-0.026-0.291-0.268-0.513-0.56-0.513c-0.31,0-0.563,0.252-0.563,0.563
			C15.61,9.211,15.61,9.227,15.611,9.243L15.611,9.243z M13.818,9.4l0.373,4.259c0.025,0.291,0.268,0.514,0.56,0.514
			c0.31,0,0.562-0.252,0.562-0.563c0-0.017-0.001-0.032-0.002-0.049l-0.373-4.258c-0.024-0.291-0.268-0.514-0.559-0.514
			c-0.311,0-0.563,0.252-0.563,0.563C13.817,9.368,13.818,9.384,13.818,9.4L13.818,9.4z M15.463,6.63l-3.027-1.408L9.702,7.134
			l2.263,1.261l1.488-0.13L15.463,6.63L15.463,6.63z M8.21,9.402C8.016,9.419,7.868,9.581,7.868,9.775c0,0.011,0,0.022,0.001,0.033
			l0.262,2.988c0.017,0.194,0.178,0.343,0.373,0.343c0.011,0,0.022,0,0.033-0.002l4.521-0.395c0.193-0.017,0.342-0.179,0.342-0.373
			c0-0.011-0.001-0.022-0.001-0.032l-0.262-2.989c-0.017-0.194-0.178-0.343-0.373-0.343c-0.011,0-0.022,0.001-0.032,0.002
			L8.21,9.402L8.21,9.402z"/>
		<path fill="#FFFFFF" d="M8.209,18.21l3.774-0.33c-0.243,0.875-1.041,1.48-1.949,1.48C9.255,19.361,8.545,18.913,8.209,18.21
			L8.209,18.21z"/>
		<polygon fill="#FFFFFF" points="21.001,19.425 3,21.001 3,20.36 21.001,18.785 21.001,19.425 		"/>
	</g>
</g>
</svg>
