<svg xmlns="http://www.w3.org/2000/svg" width="36" height="36" version="1.1" viewBox="0 0 36 36">
  <path fill="none" fill-rule="evenodd" stroke="#000" stroke-width="1" d="M4.96215,12.35265 C7.67565,10.71165 10.84665,9.75015 14.24865,9.75015 C20.92665,9.75015 26.74215,13.39515 29.84865,18.79665 M29.78175,13.65195 C25.93875,9.42195 20.41425,6.74895 14.24925,6.74895 C11.46675,6.74895 8.81625,7.30395 6.38625,8.28495 M4.8816,20.26125 C7.0806,17.51475 10.4571,15.74925 14.2506,15.74925 C20.8461,15.74925 26.1951,21.07425 26.2461,27.66075 M28.6407,23.5455 C26.8227,17.31 21.0732,12.75 14.2497,12.75 C10.5267,12.75 7.1277,14.1135 4.5057,16.359 M8.25885,27.66315 C8.30535,24.39015 10.96635,21.75015 14.24985,21.75015 C17.56335,21.75015 20.24985,24.43665 20.24985,27.75015 L20.24985,31.79415 M23.25,30.3951 L23.25,27.7506 C23.25,22.7796 19.2195,18.7506 14.25,18.7506 C10.6035,18.7506 7.47,20.9241 6.0555,24.0426 M17.25,32.24955 L17.25,27.74955 C17.25,26.09355 15.906,24.74955 14.25,24.74955 C12.5925,24.74955 11.25,26.09355 11.25,27.74955 L11.25,30.39555 M14.25,26.99955 L14.25,31.49955 M11.5854,3.9048 C12.4599,3.8073 13.3479,3.7488 14.2479,3.7488 C18.7029,3.7488 22.8624,4.9758 26.4339,7.0923"/>
</svg>
