<?xml version="1.0" encoding="utf-8"?>
<!-- Generator: Adobe Illustrator 24.2.0, SVG Export Plug-In . SVG Version: 6.00 Build 0)  -->
<svg version="1.0" id="Ebene_3" xmlns="http://www.w3.org/2000/svg" xmlns:xlink="http://www.w3.org/1999/xlink" x="0px" y="0px"
	 viewBox="0 0 24 24" enable-background="new 0 0 24 24" xml:space="preserve">
<g id="SVG_x5F_24x24pt">
	<path id="backgroundBlue" fill="#2D327D" d="M0,22.5v-21C0,0.675,0.675,0,1.5,0h21C23.325,0,24,0.675,24,1.5v21
		c0,0.825-0.675,1.5-1.5,1.5h-21C0.675,24,0,23.325,0,22.5z"/>
	<g id="content">
		<path fill="#FFFFFF" d="M15.699,6.304c0,0.828-0.672,1.499-1.501,1.499c-0.828,0-1.499-0.671-1.499-1.499
			c0-0.829,0.671-1.501,1.499-1.501C15.027,4.802,15.699,5.474,15.699,6.304"/>
		<path fill="#FFFFFF" d="M19.131,8.26h-6.182c-0.432-0.026-0.863,0.181-1.105,0.576l-1.151,1.872
			c-0.201,0.328-0.413,0.677-0.634,1.039l-0.432,0.706c-1.145,1.878-0.542,3.415,1.345,3.415c0.126,0,3.43,0,3.43,0l0.572,2.421
			h-0.004c0.004,0.013,0.006,0.026,0.01,0.038c0.005,0.013,0.008,0.026,0.011,0.038l0.499,2.109
			c0.117,0.325,0.438,0.537,0.789,0.505c0.422-0.038,0.734-0.413,0.696-0.835c-0.002-0.013-0.005-0.028-0.007-0.042l-1.212-5.091
			c-0.097-0.355-0.466-0.631-0.831-0.632h-0.837h-0.002h-2.098l2.981-4.912h4.163c0.335,0,0.604-0.269,0.604-0.604
			C19.735,8.53,19.466,8.26,19.131,8.26z"/>
		<rect x="18.719" y="10.071" fill="#FFFFFF" width="0.806" height="10.89"/>
		<path fill="#FFFFFF" d="M13.103,16.587H8.799v0.003H7.93c-0.148,0-0.303-0.118-0.341-0.263l-2.497-9.37
			C5.087,6.939,5.08,6.918,5.071,6.896L5.017,6.692C4.963,6.488,4.752,6.366,4.549,6.42C4.345,6.475,4.223,6.685,4.278,6.889
			l2.173,8.161c0.003,0,0.003,0,0.003,0L7,17.095c0.038,0.144,0.193,0.262,0.341,0.262h5.495c0.013,0,0.03-0.002,0.044-0.003h0.223
			c0.212,0,0.383-0.171,0.383-0.382C13.485,16.759,13.315,16.587,13.103,16.587"/>
	</g>
</g>
</svg>
