<svg xmlns="http://www.w3.org/2000/svg" width="48" height="48" version="1.1" viewBox="0 0 48 48">
  <path fill="none" fill-rule="evenodd" stroke="#000" stroke-width="1" d="M14,43.5 L33,43.5 M23.5,43.5 L23.5,11 M23.5405,25 L30.9995,17 M23.5405,21 L17.9995,17 M37.0654,17.6807 C37.5704,16.9567 37.8684,16.0957 37.8684,15.1657 C37.8684,12.6257 35.6764,10.5667 32.9734,10.5667 C32.3504,10.5667 31.7594,10.6867 31.2114,10.8857 C30.5894,7.2327 27.2474,4.4327 23.1844,4.4327 C18.6784,4.4327 15.0264,7.8657 15.0264,12.0997 C15.0264,12.6467 15.0924,13.1777 15.2084,13.6927 C11.4554,13.9987 8.5004,16.9257 8.5004,20.5327 C8.5004,24.3437 11.7874,27.4327 15.8424,27.4327 L33.7894,27.4327 C36.9434,27.4327 39.5004,25.0307 39.5004,22.0667 C39.5004,20.2497 38.5344,18.6517 37.0654,17.6807 Z M20.7676,33.7676 C21.7446,32.7906 21.7446,31.2086 20.7676,30.2326 C19.7916,29.2556 16.3356,29.4996 16.3356,29.4996 C16.3356,29.4996 16.2556,32.7906 17.2326,33.7676 C18.2086,34.7446 19.7916,34.7446 20.7676,33.7676 Z M23.5405,36.3223 L18.9995,32.0003"/>
</svg>
