<svg xmlns="http://www.w3.org/2000/svg" width="36" height="36" fill="none" viewBox="0 0 36 36"><path fill="#000" fill-rule="evenodd" d="M11.25 2.506a3.494 3.494 0 0 1 .5 6.952v10.868A7.25 7.25 0 0 1 18 16.75h1.5a4.75 4.75 0 0 0 4.727-4.295 3.495 3.495 0 1 1 1.003.005 5.75 5.75 0 0 1-5.73 5.29H18A6.25 6.25 0 0 0 11.75 24v1.041a3.495 3.495 0 1 1-1 0V9.458a3.494 3.494 0 0 1 .5-6.952m0 23.488a2.506 2.506 0 1 0 0 5.012 2.506 2.506 0 0 0 0-5.012m13.5-19.5a2.506 2.506 0 1 0 0 5.012 2.506 2.506 0 0 0 0-5.012m-13.5-3a2.506 2.506 0 1 0 0 5.012 2.506 2.506 0 0 0 0-5.012" clip-rule="evenodd"/></svg>