<svg xmlns="http://www.w3.org/2000/svg" width="24" height="24" viewBox="0 0 24 24">
  <path fill="none" stroke="#000" d="M13.5,18 C13.5,18.828 12.828,19.5 12,19.5 C11.172,19.5 10.5,18.828 10.5,18 C10.5,17.171 11.172,16.5 12,16.5 C12.828,16.5 13.5,17.171 13.5,18 Z M3.5,3.5 L18.5,18.5 M13.9824,13.9824 C13.3834,13.6834 12.7164,13.5004 12.0004,13.5004 C10.7154,13.5004 9.5634,14.0444 8.7444,14.9084 M21.7803,8.7119 C19.3203,6.1229 15.8533,4.4999 12.0003,4.4999 C10.3603,4.4999 8.7983,4.8089 7.3453,5.3459 M5.9531,5.9531 C4.5561,6.6591 3.2881,7.5871 2.2201,8.7121 M10.6367,10.6367 C9.0507,10.9317 7.6387,11.7207 6.5717,12.8447 M19.6074,10.7764 C17.6944,8.7614 14.9974,7.5004 12.0004,7.5004 C11.2254,7.5004 10.4724,7.5884 9.7474,7.7474 M8.2197,8.2197 C6.7597,8.7867 5.4527,9.6597 4.3927,10.7767 M12.5312,10.5313 C14.4572,10.6663 16.1812,11.5223 17.4342,12.8393"/>
</svg>
