<svg xmlns="http://www.w3.org/2000/svg" width="36" height="36" version="1.1" viewBox="0 0 36 36">
  <g fill="none" fill-rule="evenodd" stroke="none" stroke-width="1">
    <path stroke="#000" d="M8.25,32.25 L27.75,32.25 L27.75,3.75 L8.25,3.75 L8.25,32.25 Z M12,23.25 L24,23.25 M12,26.25 L24,26.25"/>
    <path fill="#000" d="M17.0955,10.49955 L17.0955,11.76255 L13.3845,11.76255 L13.3845,13.54605 L16.653,13.54605 L16.653,14.74905 L13.3845,14.74905 L13.3845,18.01755 L12,18.01755 L12,10.49955 L17.0955,10.49955 Z M18.7731,10.5 L20.6511,16.131 L22.5381,10.5 L24.0111,10.5 L21.3216,18.018 L19.9431,18.018 L19.8876,17.868 L17.2566,10.5 L18.7731,10.5 Z"/>
  </g>
</svg>
