<svg xmlns="http://www.w3.org/2000/svg" width="36" height="36" fill="none" viewBox="0 0 36 36"><path fill="#000" fill-rule="evenodd" d="M12.773 10.286q-.925 1.425-1.022 4.029h2.406q.295-4.59 4.029-4.589 1.804 0 2.729 1.161.768.951.769 2.349 0 .756-.267 1.483-.32.854-1.356 1.918-1.609 1.649-2.078 2.251a4.5 4.5 0 0 0-.721 1.357q-.349 1.036-.377 3.176h2.378q0-1.204.141-1.959.125-.755.44-1.266.314-.51 1.112-1.28 1.804-1.762 2.28-2.42 1.065-1.44 1.064-3.441 0-2.42-1.567-3.904-1.68-1.608-4.518-1.608-1.765 0-3.176.713a5.73 5.73 0 0 0-2.266 2.03m6.77 18.184h-3.022v-2.908h3.022z" clip-rule="evenodd"/></svg>