<?xml version="1.0" encoding="utf-8"?>
<!-- Generator: Adobe Illustrator 29.0.0, SVG Export Plug-In . SVG Version: 9.03 Build 54978)  -->
<svg version="1.0" id="Ebene_1" xmlns="http://www.w3.org/2000/svg" xmlns:xlink="http://www.w3.org/1999/xlink" x="0px" y="0px"
	 viewBox="0 0 24 24" enable-background="new 0 0 24 24" xml:space="preserve">
<g id="SVG_x5F_24x24pt">
	<path id="backgroundBlue" fill="#2D327D" d="M0,22.5v-21C0,0.675,0.675,0,1.5,0h21C23.325,0,24,0.675,24,1.5v21
		c0,0.825-0.675,1.5-1.5,1.5h-21C0.675,24,0,23.325,0,22.5z"/>
	<g id="content">
		<g>
			<path fill="#FFFFFF" d="M10.712,9.758v2h-4.53l-0.484,2.53c0.543-0.574,1.238-0.861,2.084-0.861c0.831,0,1.553,0.223,2.169,0.669
				c0.913,0.672,1.369,1.692,1.369,3.061c0,1.343-0.487,2.407-1.461,3.192c-0.759,0.615-1.666,0.923-2.722,0.923
				c-1.189,0-2.146-0.319-2.869-0.957c-0.723-0.638-1.105-1.501-1.146-2.588h2.207c0.036,0.395,0.164,0.731,0.385,1.007
				c0.343,0.436,0.82,0.654,1.43,0.654c0.59,0,1.056-0.213,1.4-0.638c0.333-0.415,0.5-0.92,0.5-1.515
				c0-0.646-0.174-1.162-0.523-1.55c-0.349-0.387-0.813-0.581-1.392-0.581c-0.708,0-1.259,0.318-1.653,0.954l-2.007-0.031
				l1.069-6.268H10.712z"/>
			<path fill="#FFFFFF" d="M20.82,19.002v2h-8.098c0-0.61,0.099-1.192,0.296-1.746c0.197-0.554,0.475-1.031,0.834-1.43
				c0.277-0.308,0.601-0.608,0.973-0.9c0.372-0.292,1.111-0.828,2.219-1.607c0.538-0.374,0.915-0.723,1.13-1.046
				s0.323-0.697,0.323-1.123c0-0.492-0.145-0.891-0.434-1.196c-0.29-0.305-0.67-0.458-1.142-0.458c-1.159,0-1.756,0.833-1.792,2.499
				h-2.161c0-0.108,0-0.19,0-0.246c0-1.364,0.382-2.42,1.146-3.168c0.743-0.728,1.705-1.092,2.884-1.092
				c1.046,0,1.92,0.297,2.622,0.892c0.764,0.646,1.146,1.515,1.146,2.607c0,0.954-0.305,1.774-0.915,2.461
				c-0.2,0.226-0.387,0.406-0.561,0.542c-0.174,0.136-0.633,0.463-1.377,0.981c-0.708,0.492-1.214,0.869-1.519,1.13
				c-0.305,0.261-0.588,0.561-0.85,0.9H20.82z"/>
		</g>
		<g>
			<path fill="#FFFFFF" d="M3.214,3h0.907c0.153,0,0.273,0.009,0.361,0.028C4.57,3.047,4.649,3.081,4.72,3.129
				C4.915,3.26,5.013,3.458,5.013,3.723c0,0.235-0.081,0.419-0.243,0.554C4.702,4.334,4.623,4.375,4.535,4.4
				C4.447,4.426,4.338,4.438,4.209,4.438H3.704v0.811H3.214V3z M3.704,3.415v0.637h0.438c0.13,0,0.224-0.023,0.281-0.069
				C4.495,3.925,4.53,3.841,4.53,3.729c0-0.113-0.041-0.197-0.123-0.252C4.348,3.436,4.251,3.415,4.117,3.415H3.704z"/>
			<path fill="#FFFFFF" d="M5.712,3v2.249H5.266V3H5.712z"/>
			<path fill="#FFFFFF" d="M7.587,5.249H7.131C7.112,5.183,7.102,5.127,7.102,5.081c-0.139,0.143-0.319,0.214-0.54,0.214
				c-0.172,0-0.307-0.04-0.403-0.12C6.048,5.083,5.993,4.954,5.993,4.789c0-0.21,0.095-0.356,0.285-0.437
				c0.077-0.033,0.218-0.063,0.425-0.091C6.88,4.238,6.99,4.215,7.034,4.193C7.077,4.171,7.099,4.126,7.099,4.06
				c0-0.147-0.097-0.22-0.292-0.22c-0.104,0-0.179,0.018-0.227,0.055C6.532,3.932,6.501,3.996,6.485,4.087H6.064
				C6.077,3.901,6.147,3.76,6.275,3.665C6.402,3.57,6.583,3.523,6.818,3.523c0.259,0,0.451,0.053,0.575,0.158
				C7.45,3.731,7.488,3.783,7.507,3.84c0.019,0.056,0.028,0.146,0.028,0.268c0,0.026-0.002,0.138-0.005,0.338
				C7.529,4.648,7.528,4.764,7.528,4.793c0,0.122,0.004,0.211,0.011,0.268C7.546,5.119,7.562,5.181,7.587,5.249z M7.096,4.438
				C7.039,4.474,6.934,4.502,6.782,4.523C6.676,4.539,6.599,4.56,6.551,4.586c-0.067,0.036-0.1,0.097-0.1,0.183
				c0,0.07,0.022,0.124,0.066,0.163C6.562,4.971,6.623,4.99,6.702,4.99c0.131,0,0.237-0.046,0.318-0.138
				C7.049,4.82,7.069,4.787,7.08,4.753c0.011-0.034,0.016-0.08,0.016-0.136V4.438z"/>
			<path fill="#FFFFFF" d="M8.785,3.566v0.315H8.451V4.67c0,0.094,0.009,0.154,0.026,0.18C8.503,4.887,8.56,4.906,8.649,4.906
				c0.035,0,0.08-0.003,0.135-0.008v0.357c-0.1,0.011-0.193,0.017-0.277,0.017c-0.127,0-0.224-0.014-0.291-0.043
				c-0.104-0.046-0.168-0.13-0.194-0.252c-0.011-0.052-0.017-0.16-0.017-0.325V3.881H7.734V3.566h0.272V3.172h0.445v0.394H8.785z"/>
			<path fill="#FFFFFF" d="M9.878,3.002v0.343C9.823,3.339,9.772,3.337,9.725,3.337c-0.078,0-0.13,0.011-0.157,0.034
				c-0.027,0.023-0.04,0.067-0.04,0.134v0.065h0.325v0.317h-0.32v1.363H9.088V3.886H8.822V3.569h0.266
				c0-0.119,0.007-0.205,0.022-0.258c0.056-0.213,0.235-0.32,0.535-0.32C9.693,2.991,9.771,2.994,9.878,3.002z"/>
			<path fill="#FFFFFF" d="M10.83,3.523c0.244,0,0.443,0.081,0.598,0.243c0.153,0.16,0.229,0.373,0.229,0.64
				c0,0.276-0.082,0.496-0.245,0.66c-0.153,0.153-0.352,0.229-0.597,0.229c-0.261,0-0.47-0.085-0.624-0.255
				c-0.148-0.162-0.221-0.372-0.221-0.631c0-0.254,0.072-0.461,0.215-0.62C10.345,3.612,10.56,3.523,10.83,3.523z M10.807,3.871
				c-0.118,0-0.212,0.048-0.281,0.143C10.455,4.11,10.42,4.242,10.42,4.409c0,0.173,0.035,0.306,0.105,0.398
				c0.072,0.093,0.17,0.14,0.294,0.14c0.116,0,0.208-0.043,0.275-0.128c0.077-0.094,0.115-0.231,0.115-0.411
				c0-0.168-0.034-0.299-0.102-0.392C11.036,3.919,10.937,3.871,10.807,3.871z"/>
			<path fill="#FFFFFF" d="M12.996,3.541v0.432c-0.072-0.013-0.13-0.02-0.174-0.02c-0.166,0-0.288,0.07-0.366,0.209
				c-0.044,0.078-0.066,0.208-0.066,0.391v0.695h-0.446v-1.68h0.425v0.306c0.121-0.228,0.297-0.341,0.528-0.341
				C12.925,3.534,12.958,3.536,12.996,3.541z"/>
			<path fill="#FFFFFF" d="M13.633,3.574v0.223c0.056-0.077,0.112-0.134,0.168-0.171c0.099-0.069,0.216-0.103,0.351-0.103
				c0.217,0,0.37,0.092,0.457,0.277c0.131-0.185,0.31-0.277,0.535-0.277c0.174,0,0.31,0.052,0.406,0.156s0.145,0.251,0.145,0.441
				v1.129h-0.446V4.25c0-0.108-0.012-0.183-0.035-0.226c-0.042-0.079-0.118-0.118-0.228-0.118c-0.133,0-0.226,0.056-0.278,0.169
				c-0.024,0.05-0.035,0.14-0.035,0.269v0.904h-0.445V4.232c0-0.099-0.012-0.171-0.035-0.215c-0.038-0.074-0.109-0.111-0.212-0.111
				c-0.064,0-0.121,0.016-0.171,0.048c-0.051,0.032-0.089,0.075-0.115,0.131s-0.038,0.142-0.038,0.26v0.904h-0.446V3.574H13.633z"/>
		</g>
	</g>
</g>
</svg>
