<svg class="color-immutable" xmlns="http://www.w3.org/2000/svg" width="59" height="20" fill="none" viewBox="0 0 59 20"><g clip-path="url(#a)"><path stroke="#000" d="M2 .5h55A1.5 1.5 0 0 1 58.5 2v16a1.5 1.5 0 0 1-1.5 1.5H2A1.5 1.5 0 0 1 .5 18V2A1.5 1.5 0 0 1 2 .5Z"/><path fill="#000" d="M12.877 7.71h-2.449q-.072-.863-.644-1.314-.564-.459-1.587-.459-.91 0-1.418.363-.5.355-.5.999 0 .58.483.838.468.258 2.37.725 2.005.5 2.779 1.007 1.425.934 1.426 2.602 0 1.829-1.434 2.884-1.266.927-3.424.927-2.401 0-3.73-1.096T3.37 12.068h2.562q.056.984.507 1.459.71.757 2.135.757.967 0 1.531-.379.636-.434.636-1.184t-.894-1.096q-.49-.193-2.32-.7-1.144-.315-1.789-.597-.644-.282-1.031-.628-.903-.806-.902-2.224 0-1.7 1.41-2.69 1.2-.847 3.118-.847 1.683 0 2.82.669 1.635.96 1.723 3.102M20.12 4.221V16h-2.352V8.29h-2.772V6.582q.862-.024 1.402-.177.547-.154 1-.5.652-.5.877-1.684zM27.54 3.94q1.346 0 2.37.821 1.014.822 1.474 2.53.346 1.305.346 2.836 0 2.538-.902 4.173-.533.951-1.394 1.466a3.6 3.6 0 0 1-1.91.516q-1.442 0-2.465-.87-1.82-1.547-1.82-5.285 0-2.66.95-4.27a3.84 3.84 0 0 1 1.41-1.418 3.86 3.86 0 0 1 1.942-.5m-.088 1.99q-1.16 0-1.58 1.337-.33 1.063-.33 2.98 0 1.693.339 2.716.435 1.329 1.611 1.329.975 0 1.45-1.031.476-1.032.476-3.15 0-1.806-.339-2.844-.435-1.338-1.627-1.338"/></g><defs><clipPath id="a"><path fill="#fff" d="M0 0h59v20H0z"/></clipPath></defs></svg>