<svg xmlns="http://www.w3.org/2000/svg" width="24" height="24" version="1.1" viewBox="0 0 24 24">
  <path fill="none" fill-rule="evenodd" stroke="#000" stroke-width="1" d="M5.5,15.5 C7.157,15.5 8.5,16.843 8.5,18.5 C8.5,20.157 7.157,21.5 5.5,21.5 C3.843,21.5 2.5,20.157 2.5,18.5 C2.5,16.843 3.843,15.5 5.5,15.5 Z M16.5,12.5 C18.157,12.5 19.5,13.843 19.5,15.5 C19.5,17.157 18.157,18.5 16.5,18.5 C14.843,18.5 13.5,17.157 13.5,15.5 C13.5,13.843 14.843,12.5 16.5,12.5 Z M8.5,18.5 L8.5,4.5 L19.5,2.5 L19.5,15.5 M8.5,7.5 L19.5,5.5"/>
</svg>
