<svg xmlns="http://www.w3.org/2000/svg" width="36" height="36" fill="none" viewBox="0 0 36 36"><path fill="#000" fill-rule="evenodd" d="M17.267 3.19h-.034a3.605 3.605 0 0 0-3.483 3.705 3.5 3.5 0 0 0 .49 1.745l2.595 4.365.431.725.43-.726 2.58-4.365.001-.003a3.5 3.5 0 0 0 .473-1.743 3.606 3.606 0 0 0-3.483-3.703m-1.812 1.82a2.6 2.6 0 0 1 1.795-.82 2.605 2.605 0 0 1 2.5 2.68v.014a2.5 2.5 0 0 1-.337 1.248l-2.15 3.637L15.1 8.13a2.5 2.5 0 0 1-.35-1.25V6.87a2.6 2.6 0 0 1 .704-1.86M3 15.25h10.37l-.131.606-3.75 17.25-.978-.212L12.13 16.25H3zm18.75 0h-.62l.131.606 3.75 17.25.978-.212L22.37 16.25h9.13v-1zm-4 4.25v-3h-1v3zm0 6v-3h-1v3zm0 3v3h-1v-3z" clip-rule="evenodd"/></svg>