<svg class="color-immutable" xmlns="http://www.w3.org/2000/svg" width="59" height="20" fill="none" viewBox="0 0 59 20"><path fill="#E84E10" fill-rule="evenodd" d="M2 0a2 2 0 0 0-2 2v16a2 2 0 0 0 2 2h55a2 2 0 0 0 2-2V2a2 2 0 0 0-2-2z" clip-rule="evenodd"/><path fill="#000" d="M14.153 4.17v2.142H7.98v2.476h5.657v1.991H7.98v2.849h6.284v2.142H5.45V4.17zM25.311 4.17l-3.856 11.6h-2.88l-3.8-11.6h2.65l2.61 8.688 2.65-8.688zM25.504 7.844q.04-1.429.706-2.397 1.08-1.555 3.245-1.555 1.667 0 2.69.85 1.103.92 1.103 2.38 0 .872-.436 1.507-.429.626-1.167.849.936.214 1.476.952.547.738.547 1.786 0 1.72-1.269 2.816-1.174 1.016-2.968 1.016-1.944 0-3.086-1.119-1.134-1.12-1.135-3.023v-.15h2.23q0 1.07.508 1.658.507.579 1.436.579t1.428-.548q.46-.516.46-1.23 0-.856-.587-1.356-.483-.413-1.492-.413-.285 0-.563.032V8.772q.207.016.397.016 2 0 2-1.484 0-.651-.437-1.047-.436-.405-1.15-.405-.818 0-1.262.508-.444.507-.476 1.484zM34.258 12.858h2.19q.27 1.35 1.563 1.349.73 0 1.182-.492.46-.5.706-1.547.16-.666.23-1.516-.531.746-1.094 1.064-.556.309-1.357.309-1.278 0-2.222-.746a3.55 3.55 0 0 1-1.032-1.357 4.5 4.5 0 0 1-.364-1.809q0-1.959 1.34-3.174 1.15-1.047 2.762-1.047.99 0 1.833.444.84.445 1.412 1.262 1.008 1.452 1.008 4.078 0 2.429-.889 4.142-1.158 2.23-3.507 2.23-1.563 0-2.587-.865-1.015-.865-1.174-2.325m3.856-7.006q-.746 0-1.261.61-.516.62-.516 1.572 0 .77.373 1.365.507.817 1.428.817.833 0 1.333-.667.468-.626.468-1.491 0-.913-.484-1.547a1.61 1.61 0 0 0-1.34-.66"/></svg>