<svg xmlns="http://www.w3.org/2000/svg" width="48" height="48" fill="none" viewBox="0 0 48 48"><path fill="#000" d="M23.077 4.78a6.5 6.5 0 0 1 5.557.855 6.5 6.5 0 0 1 1.959 2.115L30.16 8l-.433.25a5.5 5.5 0 1 0-8.166 7.071l.249.184.002.002 5.882 4.17a6.5 6.5 0 0 1-2.359 11.676l.458.324h-.001a6.5 6.5 0 1 1-9.358 8.573l.865-.5a5.504 5.504 0 0 0 6.36 2.514 5.504 5.504 0 0 0 3.197-7.962 5.5 5.5 0 0 0-1.64-1.807l-.001-.002-5.883-4.17a6.5 6.5 0 0 1 2.358-11.676l-.457-.324A6.5 6.5 0 0 1 23.077 4.78m-.18 12.723a5.5 5.5 0 0 0-5.08 3.843 5.5 5.5 0 0 0 2.09 6.159l.003.002 4.218 2.99a5.498 5.498 0 0 0 2.99-10.002l-.002-.002z"/></svg>