<svg xmlns="http://www.w3.org/2000/svg" width="48" height="48" fill="none" viewBox="0 0 48 48"><path fill="#000" fill-rule="evenodd" d="M23.367 5.737a5.5 5.5 0 0 1 6.36 2.513l.866-.5a6.5 6.5 0 1 0-9.359 8.574h.001l.455.322a6.501 6.501 0 0 0-2.358 11.678h.001l5.88 4.169.003.002A5.5 5.5 0 1 1 17.3 39.75l-.866.5a6.5 6.5 0 1 0 9.358-8.574h-.001l-.454-.322a6.5 6.5 0 0 0 2.357-11.678h-.001l-5.88-4.169-.003-.002a5.5 5.5 0 0 1 1.558-9.768m.761 24.76a5.5 5.5 0 0 0 2.99-10.002l-.002-.002-4.219-2.99a5.5 5.5 0 0 0-2.99 10.002l.002.002z" clip-rule="evenodd"/></svg>