<svg xmlns="http://www.w3.org/2000/svg" width="16" height="16" fill="none" viewBox="0 0 16 16"><path fill="#000" d="M8 .99c2.206 0 4 1.794 4 4l-.002.045A3.496 3.496 0 0 1 15 8.5c0 1.936-1.564 3.5-3.5 3.5v-.01H8V14h3v1H4v-1h3v-2.01H5c-2.206 0-4-1.794-4-4a3.985 3.985 0 0 1 3.118-3.882A3.976 3.976 0 0 1 8 .99m0 1a2.98 2.98 0 0 0-2.954 2.613l-.049.384-.384.049A2.99 2.99 0 0 0 2 7.99c0 1.654 1.346 3 3 3h2V8.782L4.743 7.428l.514-.857L7 7.617V5h1v3.617L9.743 7.57l.514.857L8 9.782v1.208h3.5V11c1.384 0 2.5-1.116 2.5-2.5 0-1.298-.981-2.36-2.244-2.488L11.5 6h-.612l.065-.559c.025-.21.047-.31.047-.451 0-1.654-1.346-3-3-3"/></svg>