<svg xmlns="http://www.w3.org/2000/svg" width="24" height="24" fill="none" viewBox="0 0 24 24"><path fill="#000" fill-rule="evenodd" d="M4 4.5c0-.257.243-.5.5-.5s.5.243.5.5-.243.5-.5.5a.527.527 0 0 1-.5-.5M4.5 3C3.69 3 3 3.69 3 4.5S3.69 6 4.5 6 6 5.31 6 4.5 5.31 3 4.5 3m-2 4.004H2v8h1V21h1v-5.996h1V21h1v-5.996h1v-8H2.5m.5 7v-6h3v6zm7 1V21h1v-5.996h1V21h1v-5.996h1v-8H9v8h1m7 2V21h1v-3.996h1V21h1v-3.996h2.059l-.062-.555-1-9-.05-.445h-4.895l-.049.445-1 9-.062.555H17M11.5 4c-.257 0-.5.243-.5.5s.243.5.5.5.5-.243.5-.5-.243-.5-.5-.5m-1.5.5c0-.81.69-1.5 1.5-1.5s1.5.69 1.5 1.5S12.31 6 11.5 6 10 5.31 10 4.5m0 9.504v-6h3v6zM18.5 4c-.257 0-.5.243-.5.5s.243.5.5.5.5-.243.5-.5-.243-.5-.5-.5m-1.5.5c0-.81.69-1.5 1.5-1.5s1.5.69 1.5 1.5S19.31 6 18.5 6 17 5.31 17 4.5m-.941 11.504.889-8h3.104l.89 8z" clip-rule="evenodd"/></svg>