<svg width="35" height="16" viewBox="0 0 35 16" fill="none" xmlns="http://www.w3.org/2000/svg"><path fill-rule="evenodd" clip-rule="evenodd" d="M4.388 1H1v6.996h1.526V5.244H3.9c.488 0 .832.096 1.033.288.205.188.326.53.364 1.024.038.555.069.909.091 1.062.026.153.065.279.12.378H7.1l-.067-.081c-.092-.118-.161-.42-.206-.905-.06-.66-.11-1.083-.148-1.268a1.516 1.516 0 0 0-.225-.531 1.18 1.18 0 0 0-.727-.517c.35-.13.623-.348.818-.65.198-.304.297-.66.297-1.068 0-.36-.078-.684-.235-.971a1.762 1.762 0 0 0-.68-.69C5.572 1.106 5.059 1 4.389 1ZM2.526 4.125V2.2h1.522c.447 0 .774.077.981.23.207.153.311.395.311.727 0 .341-.121.597-.364.766-.19.134-.521.2-.99.2h-1.46ZM26.558 5c.67-.31 1.41-.5 2.2-.5h-.01C31.64 4.5 34 6.85 34 9.75S31.64 15 28.748 15a5.257 5.257 0 0 1-5.252-5.25c0-1.56.71-2.96 1.801-3.92l-.32-.49-3.591 5.16h-2.971c-.36 2.54-2.531 4.5-5.172 4.5a5.257 5.257 0 0 1-5.252-5.25c0-2.9 2.361-5.25 5.252-5.25 1 0 1.92.29 2.721.78l1.16-1.4-.71-1.38h-1.41V1h4.001v1.5h-.9l.39.75h5.762V1h3.751v1.5h-2.25v1.28l.8 1.22Zm-8.133 4h1.34l-1.89-3.67-.75.91c.69.75 1.15 1.7 1.3 2.76Zm-1.49 0c-.12-.6-.4-1.13-.77-1.59L14.853 9h2.08Zm-7.433.75c0 2.07 1.68 3.75 3.751 3.75h.01c1.81 0 3.321-1.29 3.671-3h-5.271l3.34-4.05c-.53-.28-1.11-.45-1.75-.45a3.752 3.752 0 0 0-3.751 3.75Zm9.773-5 1.83 3.55 2.471-3.55h-4.3Zm5.732 5c0 2.07 1.68 3.75 3.751 3.75h.01c2.071 0 3.752-1.68 3.752-3.75 0-2.07-1.681-3.75-3.752-3.75-.48 0-.94.1-1.37.27l2 3.07-1.26.82-2.01-3.07c-.69.68-1.121 1.62-1.121 2.66Z" fill="#000"/></svg>