<svg xmlns="http://www.w3.org/2000/svg" width="35" height="16" fill="none" viewBox="0 0 35 16"><path fill="#000" fill-rule="evenodd" d="M19.512 5c.67-.31 1.41-.5 2.2-.5h-.01a5.257 5.257 0 0 1 5.252 5.25c0 2.9-2.36 5.25-5.252 5.25a5.257 5.257 0 0 1-5.251-5.25c0-1.56.71-2.96 1.8-3.92l-.32-.49-3.591 5.16h-2.971c-.36 2.54-2.531 4.5-5.172 4.5A5.257 5.257 0 0 1 .945 9.75c0-2.9 2.361-5.25 5.252-5.25 1 0 1.92.29 2.721.78l1.16-1.4-.71-1.38h-1.41V1h4.001v1.5h-.9l.39.75h5.762V1h3.751v1.5h-2.25v1.28zm-8.133 4h1.34l-1.89-3.67-.75.91c.69.75 1.15 1.7 1.3 2.76m-1.49 0c-.12-.6-.4-1.13-.771-1.59L7.808 9zm-7.433.75c0 2.07 1.68 3.75 3.751 3.75h.01c1.81 0 3.321-1.29 3.671-3H4.617l3.34-4.05c-.53-.28-1.11-.45-1.75-.45a3.75 3.75 0 0 0-3.751 3.75m9.773-5 1.83 3.55 2.472-3.55zm5.732 5c0 2.07 1.68 3.75 3.751 3.75h.01c2.07 0 3.752-1.68 3.752-3.75S23.793 6 21.722 6c-.48 0-.94.1-1.37.27l2 3.07-1.26.82-2.01-3.07c-.69.68-1.121 1.62-1.121 2.66M31.341 1h-3.387v6.996h1.526V5.244h1.374q.732 0 1.033.288.307.282.364 1.024.057.832.091 1.062.038.23.12.378h1.593l-.067-.081q-.139-.177-.206-.905-.09-.99-.148-1.268a1.5 1.5 0 0 0-.225-.531 1.18 1.18 0 0 0-.727-.517q.525-.196.818-.65.297-.456.297-1.068 0-.54-.235-.971a1.76 1.76 0 0 0-.68-.69Q32.348 1 31.343 1m-1.86 3.125V2.2h1.521q.67 0 .981.23t.311.727q0 .512-.364.766-.287.2-.99.2z" clip-rule="evenodd"/></svg>