<svg xmlns="http://www.w3.org/2000/svg" width="16" height="16" fill="none" viewBox="0 0 16 16"><path fill="#000" fill-rule="evenodd" d="M2 4.177q.071-.083.2-.21c.216-.21.555-.498 1.036-.79C4.194 2.6 5.73 2 8 2s3.806.599 4.764 1.178c.48.29.82.579 1.036.79q.129.126.2.21V14h-3v-2H5v2H2zM14.5 4l.408-.29.092.13V15h-5v-2H6v2H1V3.84l.092-.13L1.5 4l-.407-.29v-.002l.003-.003.007-.01a2 2 0 0 1 .1-.125c.068-.08.166-.19.299-.318a6.7 6.7 0 0 1 1.217-.93C3.829 1.651 5.543 1 8 1s4.171.651 5.281 1.322c.554.334.953.671 1.217.93a5 5 0 0 1 .399.444l.007.009.002.003.001.002zM8 4a3 3 0 1 0 0 6 3 3 0 0 0 0-6M4 7a4 4 0 1 1 8 0 4 4 0 0 1-8 0m4.4.8 1.5-2-.8-.6-1.216 1.622-1.107-.738-.554.832 1.5 1 .393.262z" clip-rule="evenodd"/></svg>