<svg xmlns="http://www.w3.org/2000/svg" width="24" height="24" version="1.1" viewBox="0 0 24 24">
  <g fill="none" fill-rule="evenodd" stroke="none" stroke-width="1">
    <path stroke="#000" d="M6.5088,4.4992 L12.4998,4.4992 L17.4998,9.4992 L17.4998,19.4992 L6.4998,19.4992 L6.5088,4.4992 Z M12.5,4.4992 L12.5,9.4992 L17.5,9.4992"/>
    <path fill="#000" d="M11.9675,14.9015 C12.3205,14.9015 12.6175,15.0175 12.8565,15.2495 C13.1205,15.5055 13.2525,15.8535 13.2525,16.2905 C13.2525,16.6685 13.1525,16.9815 12.9535,17.2285 C12.7095,17.5295 12.3745,17.6805 11.9525,17.6805 C11.5185,17.6805 11.1795,17.5255 10.9325,17.2175 C10.7375,16.9735 10.6395,16.6655 10.6395,16.2935 C10.6395,15.8545 10.7665,15.5115 11.0185,15.2665 C11.2685,15.0235 11.5855,14.9015 11.9675,14.9015 Z M14.832,14.9015 C15.198,14.9015 15.493,15.0225 15.718,15.2645 C15.877,15.4355 15.966,15.6305 15.981,15.8545 L15.41,15.8545 C15.38,15.7035 15.313,15.5875 15.209,15.5055 C15.106,15.4245 14.977,15.3835 14.819,15.3835 C14.568,15.3835 14.38,15.4895 14.256,15.7005 C14.163,15.8625 14.115,16.0595 14.115,16.2915 C14.115,16.5315 14.164,16.7315 14.263,16.8915 C14.387,17.0955 14.571,17.1975 14.815,17.1975 C14.99,17.1975 15.128,17.1465 15.232,17.0435 C15.335,16.9415 15.398,16.7905 15.424,16.5935 L16,16.5935 C15.98,16.8675 15.889,17.1035 15.725,17.2975 C15.509,17.5525 15.205,17.6805 14.811,17.6805 C14.391,17.6805 14.064,17.5315 13.831,17.2365 C13.632,16.9825 13.531,16.6675 13.531,16.2895 C13.531,15.8925 13.649,15.5615 13.888,15.2965 C14.124,15.0325 14.439,14.9015 14.832,14.9015 Z M9.0721,14.9648 C9.2711,14.9648 9.4421,14.9878 9.5841,15.0338 C9.7261,15.0798 9.8511,15.1518 9.9601,15.2518 C10.2251,15.4928 10.3571,15.8288 10.3571,16.2588 C10.3571,16.7128 10.2321,17.0638 9.9821,17.3108 C9.8721,17.4218 9.7481,17.4998 9.6101,17.5468 C9.4731,17.5928 9.2971,17.6168 9.0841,17.6168 L8.0001,17.6168 L8.0001,14.9648 L9.0721,14.9648 Z M11.9395,15.3835 C11.7255,15.3835 11.5545,15.4645 11.4235,15.6265 C11.2905,15.7895 11.2235,16.0105 11.2235,16.2875 C11.2235,16.5735 11.2895,16.7965 11.4195,16.9555 C11.4815,17.0325 11.5595,17.0915 11.6545,17.1335 C11.7495,17.1765 11.8485,17.1975 11.9555,17.1975 C12.1675,17.1975 12.3335,17.1235 12.4555,16.9765 C12.5975,16.8065 12.6685,16.5755 12.6685,16.2855 C12.6685,16.0095 12.6035,15.7895 12.4735,15.6265 C12.3455,15.4645 12.1685,15.3835 11.9395,15.3835 Z M9.0031,15.4548 L8.5781,15.4548 L8.5781,17.1268 L9.0241,17.1268 C9.1611,17.1268 9.2691,17.1128 9.3501,17.0868 C9.4321,17.0588 9.5031,17.0128 9.5631,16.9468 C9.7031,16.7948 9.7731,16.5718 9.7731,16.2778 C9.7731,16.0068 9.7091,15.8028 9.5791,15.6638 C9.4481,15.5238 9.2571,15.4548 9.0031,15.4548 Z"/>
  </g>
</svg>
