<?xml version="1.0" encoding="utf-8"?>
<!-- Generator: Adobe Illustrator 24.2.0, SVG Export Plug-In . SVG Version: 6.00 Build 0)  -->
<svg version="1.0" id="Ebene_1" xmlns="http://www.w3.org/2000/svg" xmlns:xlink="http://www.w3.org/1999/xlink" x="0px" y="0px"
	 viewBox="0 0 24 24" enable-background="new 0 0 24 24" xml:space="preserve">
<g id="SVG_x5F_24x24pt">
	<path id="backgroundBlue" fill="#2D327D" d="M0,22.5v-21C0,0.675,0.675,0,1.5,0h21C23.325,0,24,0.675,24,1.5v21
		c0,0.825-0.675,1.5-1.5,1.5h-21C0.675,24,0,23.325,0,22.5z"/>
	<g id="content_1_">
		<g>
			<path fill="#FFFFFF" d="M17.768,7.508v7.973c0,1.151-0.105,2.04-0.314,2.667c-0.708,2.116-2.516,3.175-5.426,3.175
				c-1.569,0-2.802-0.286-3.701-0.858c-0.941-0.603-1.563-1.458-1.864-2.566c-0.154-0.584-0.231-1.403-0.231-2.455V7.508h2.944v8.13
				c0,1.028,0.151,1.763,0.452,2.206c0.455,0.683,1.274,1.024,2.455,1.024c0.99,0,1.695-0.246,2.113-0.738
				c0.418-0.492,0.628-1.323,0.628-2.492v-8.13H17.768z"/>
		</g>
		<g>
			<path fill="#FFFFFF" d="M5.21,3L4.329,3.889l0.964,1.36h-0.62L3.991,4.24L3.708,4.523v0.726H3.217V3h0.491v0.931L4.589,3H5.21z"
				/>
			<path fill="#FFFFFF" d="M6.962,5.249H6.507C6.487,5.183,6.478,5.127,6.478,5.081c-0.139,0.143-0.319,0.214-0.54,0.214
				c-0.172,0-0.307-0.04-0.403-0.12C5.424,5.083,5.369,4.954,5.369,4.789c0-0.21,0.095-0.356,0.285-0.437
				C5.73,4.319,5.872,4.289,6.078,4.261c0.177-0.024,0.288-0.046,0.331-0.068S6.475,4.126,6.475,4.06c0-0.147-0.097-0.22-0.292-0.22
				c-0.104,0-0.179,0.018-0.227,0.055C5.908,3.932,5.876,3.996,5.861,4.087H5.439C5.453,3.901,5.523,3.76,5.65,3.665
				C5.777,3.57,5.958,3.523,6.193,3.523c0.259,0,0.451,0.053,0.575,0.158C6.826,3.731,6.864,3.783,6.883,3.84
				s0.028,0.146,0.028,0.268c0,0.026-0.002,0.138-0.005,0.338C6.905,4.648,6.904,4.764,6.904,4.793c0,0.122,0.004,0.211,0.011,0.268
				S6.938,5.181,6.962,5.249z M6.471,4.438C6.414,4.474,6.309,4.502,6.158,4.523C6.051,4.539,5.974,4.56,5.927,4.586
				c-0.067,0.036-0.1,0.097-0.1,0.183c0,0.07,0.022,0.124,0.066,0.163C5.937,4.971,5.999,4.99,6.078,4.99
				c0.131,0,0.237-0.046,0.318-0.138C6.425,4.82,6.445,4.787,6.455,4.753c0.011-0.034,0.016-0.08,0.016-0.136V4.438z"/>
			<path fill="#FFFFFF" d="M7.676,3.574v0.235c0.052-0.072,0.101-0.125,0.146-0.158c0.111-0.086,0.244-0.129,0.4-0.129
				c0.137,0,0.254,0.035,0.349,0.105C8.647,3.681,8.7,3.751,8.73,3.836C8.76,3.921,8.776,4.04,8.776,4.194v1.055H8.331V4.287
				c0-0.108-0.009-0.187-0.028-0.237C8.286,4.006,8.256,3.972,8.214,3.946C8.166,3.918,8.111,3.904,8.05,3.904
				c-0.068,0-0.129,0.016-0.185,0.049C7.81,3.986,7.769,4.031,7.742,4.087C7.712,4.151,7.697,4.25,7.697,4.384v0.864H7.251V3.574
				H7.676z"/>
			<path fill="#FFFFFF" d="M10.014,3.566v0.315H9.68V4.67c0,0.094,0.009,0.154,0.026,0.18c0.026,0.037,0.083,0.055,0.172,0.055
				c0.035,0,0.08-0.003,0.135-0.008v0.357c-0.1,0.011-0.193,0.017-0.277,0.017c-0.127,0-0.224-0.014-0.291-0.043
				c-0.104-0.046-0.168-0.13-0.194-0.252c-0.011-0.052-0.017-0.16-0.017-0.325V3.881H8.963V3.566h0.272V3.172H9.68v0.394H10.014z"/>
			<path fill="#FFFFFF" d="M11.746,4.726c-0.024,0.094-0.066,0.183-0.128,0.266c-0.148,0.202-0.36,0.303-0.637,0.303
				c-0.25,0-0.451-0.079-0.601-0.237c-0.074-0.077-0.13-0.17-0.169-0.278c-0.042-0.116-0.063-0.237-0.063-0.363
				c0-0.244,0.07-0.449,0.211-0.615c0.157-0.186,0.36-0.278,0.609-0.278c0.201,0,0.372,0.062,0.514,0.186
				c0.102,0.089,0.175,0.199,0.221,0.33s0.069,0.295,0.069,0.493h-1.17c0.004,0.082,0.017,0.15,0.038,0.205
				c0.06,0.147,0.175,0.22,0.345,0.22c0.083,0,0.151-0.018,0.203-0.055c0.052-0.036,0.095-0.095,0.129-0.176H11.746z M11.316,4.232
				c-0.008-0.081-0.027-0.148-0.055-0.201c-0.029-0.052-0.069-0.094-0.122-0.125c-0.053-0.031-0.11-0.046-0.173-0.046
				c-0.099,0-0.181,0.033-0.246,0.1c-0.065,0.067-0.103,0.157-0.115,0.272H11.316z"/>
		</g>
	</g>
</g>
</svg>
