<svg xmlns="http://www.w3.org/2000/svg" width="36" height="36" version="1.1" viewBox="0 0 36 36">
  <g fill="none" fill-rule="evenodd" stroke="none" stroke-width="1">
    <path fill="#000" d="M18.65265,24.12675 C19.47465,24.12075 20.14665,23.86275 20.67165,23.35725 C21.19515,22.85025 21.45615,22.20225 21.45615,21.40875 C21.45615,20.59575 21.23115,19.95225 20.77665,19.48125 C20.32365,19.01025 19.61715,18.68625 18.65265,18.50925 L18.65265,24.12675 Z M17.48565,11.42625 C16.79865,11.44725 16.26015,11.59275 15.87165,11.86125 C15.17715,12.34275 14.82915,13.03575 14.82915,13.94325 C14.82915,14.65125 15.04665,15.21075 15.47865,15.62025 C15.91065,16.03275 16.57815,16.31475 17.48565,16.47075 L17.48565,11.42625 Z M12.75915,20.72775 L14.56365,20.72775 C14.56365,22.88175 15.53865,24.01425 17.48565,24.12675 L17.48565,18.25425 C16.40265,18.07125 15.48915,17.74125 14.74515,17.26725 C13.61265,16.55175 13.04565,15.49275 13.04565,14.09175 C13.04565,12.89475 13.44765,11.91975 14.25015,11.16525 C15.05565,10.41075 16.13265,10.00275 17.48565,9.93825 L17.48565,8.03775 L18.65265,8.03775 L18.65265,9.93825 C19.99815,10.04475 21.01815,10.44225 21.71115,11.12775 C22.46265,11.86425 22.83015,12.83475 22.81515,14.03775 L21.03165,14.03775 C20.91915,12.36075 20.12565,11.49225 18.65265,11.43675 L18.65265,16.75725 C19.54665,16.98375 20.16315,17.15775 20.50665,17.27775 C20.85015,17.39775 21.17115,17.55375 21.46815,17.74425 C22.65015,18.50925 23.24115,19.67325 23.24115,21.23775 C23.24115,22.85175 22.58265,24.08175 21.26565,24.92325 C20.63565,25.32825 19.76415,25.56075 18.65265,25.62525 L18.65265,27.96225 L17.48565,27.96225 L17.48565,25.62525 C15.89265,25.52625 14.70915,25.05075 13.93815,24.20175 C13.14465,23.32425 12.75165,22.16625 12.75915,20.72775 L12.75915,20.72775 Z"/>
    <path stroke="#000" d="M32.25,18 C32.25,25.8705 25.8705,32.25 18,32.25 C10.1295,32.25 3.75,25.8705 3.75,18 C3.75,10.1295 10.1295,3.75 18,3.75 C25.8705,3.75 32.25,10.1295 32.25,18 Z M13.5,7.6926 C10.425,9.0366 8.085,11.7201 7.1745,15.0006"/>
  </g>
</svg>
