<svg xmlns="http://www.w3.org/2000/svg" width="36" height="36" fill="none" viewBox="0 0 36 36"><path fill="#000" fill-rule="evenodd" d="M13.25 8.25a4 4 0 1 1 8 0v2.5h-8zm-1 3.5V15h1v-3.25h8V15h1v-3.25h3.537l1.423 18.5H7.29l1.423-18.5zm0-1v-2.5a5 5 0 1 1 10 0v2.5h4.463l.035.462 1.5 19.5.042.538H6.21l.041-.538 1.5-19.5.036-.462h4.463m4.5 14.75V18h1v7.5zm.5-10.25q-.258 0-.51.02l.077.996a5.6 5.6 0 0 1 .865 0l.078-.997a7 7 0 0 0-.51-.02m2.488.493a6.5 6.5 0 0 0-.97-.315l-.233.972q.424.102.82.267zm-4.006-.315q-.501.12-.97.315l.383.924a5.5 5.5 0 0 1 .82-.267zm5.74 1.379a6.5 6.5 0 0 0-.825-.6l-.523.852q.37.227.698.508zm-7.62-.6q-.436.268-.824.6l.65.76q.329-.281.698-.508zm8.94 2.146a6.5 6.5 0 0 0-.6-.825l-.76.65q.281.328.508.698zm-10.485-.825q-.33.388-.6.825l.852.523q.228-.37.509-.698zm11.265 2.704a6.5 6.5 0 0 0-.316-.97l-.923.382q.165.396.266.82zm-12.329-.97q-.194.468-.315.97l.973.233a5.5 5.5 0 0 1 .266-.82zm-.473 1.978a6.6 6.6 0 0 0 0 1.02l.997-.078a5.6 5.6 0 0 1 0-.865zm12.98.51q0-.258-.02-.51l-.997.077a5.6 5.6 0 0 1 0 .865l.997.078q.02-.253.02-.51m-.494 2.488q.195-.47.316-.97l-.973-.234a5.5 5.5 0 0 1-.266.82zm-12.328-.97q.12.5.315.97l.924-.383a5.5 5.5 0 0 1-.266-.82zm.78 1.878q.268.437.6.825l.76-.65a5.5 5.5 0 0 1-.509-.698zm10.484.825q.332-.388.6-.825l-.852-.523q-.226.37-.508.698zm-9.164.721q.388.33.825.6l.523-.852a5.5 5.5 0 0 1-.698-.508zm7.619.6q.436-.27.825-.6l-.65-.76a5.5 5.5 0 0 1-.698.508zm-5.885.464q.468.195.97.315l.233-.972a5.5 5.5 0 0 1-.82-.267zm4.005.315q.504-.12.971-.315l-.383-.924a5.5 5.5 0 0 1-.82.267zm-2.027.159a6.6 6.6 0 0 0 1.02 0l-.078-.997a5.6 5.6 0 0 1-.865 0z" clip-rule="evenodd"/></svg>