<svg xmlns="http://www.w3.org/2000/svg" width="36" height="36" version="1.1" viewBox="0 0 36 36">
  <path fill="none" fill-rule="evenodd" stroke="#000" stroke-width="1" d="M18,12 C18,14.9115 16.0125,17.25 13.5,17.25 C10.9875,17.25 9,14.9115 9,12 C9,9.0885 10.9875,6.75 13.5,6.75 C16.0125,6.75 18,9.0885 18,12 Z M8.25,14.25 L6,14.25 C5.637,14.25 5.25,13.9125 5.25,13.5 L5.25,10.509 C5.25,10.0995 5.6295,9.75 6,9.75 L8.25,9.75 L8.25,14.25 Z M13.5,14.25 L21,14.25 C21.4395,14.25 21.75,13.9815 21.75,13.5 L21.75,10.5 C21.75,10.077 21.5175,9.75 21,9.75 L18.75,9.75 L18.75,14.25 M6.7302,9.657 C8.3622,1.659 18.9177,2.001 20.1312,9.6885 M10.65375,16.08105 C6.38325,17.95905 3.74925,22.54755 3.74925,27.74955 L16.49925,27.74955 M19.2363,18 C18.4068,17.241 17.4558,16.5795 16.3458,16.0815 M18.75,29.25 L32.25,29.25 L32.25,20.25 L18.75,20.25 L18.75,29.25 Z M26.25,29.25 L26.25,32.25 M24.75,32.25 L24.75,29.25 M21,32.25 L30,32.25"/>
</svg>
