<svg width="48" height="48" viewBox="0 0 48 48" fill="none" xmlns="http://www.w3.org/2000/svg"><path fill-rule="evenodd" clip-rule="evenodd" d="M7 23.5C7 13.835 14.835 6 24.5 6S42 13.835 42 23.5 34.165 41 24.5 41 7 33.165 7 23.5ZM24.5 5C14.283 5 6 13.283 6 23.5S14.283 42 24.5 42 43 33.717 43 23.5 34.717 5 24.5 5ZM34 30v-1H15v1h19ZM17.667 17.253a1.5 1.5 0 1 1 1.667 2.495 1.5 1.5 0 0 1-1.667-2.495ZM18.5 18a.5.5 0 1 0 0 1 .5.5 0 0 0 0-1Zm12-1a1.5 1.5 0 1 0 0 3 1.5 1.5 0 0 0 0-3Zm-.278 1.084a.5.5 0 1 1 .556.83.5.5 0 0 1-.556-.83Z" fill="#000"/></svg>