<?xml version="1.0" encoding="utf-8"?>
<!-- Generator: Adobe Illustrator 24.2.0, SVG Export Plug-In . SVG Version: 6.00 Build 0)  -->
<svg version="1.0" id="Ebene_1" xmlns="http://www.w3.org/2000/svg" xmlns:xlink="http://www.w3.org/1999/xlink" x="0px" y="0px"
	 viewBox="0 0 24 24" enable-background="new 0 0 24 24" xml:space="preserve">
<g id="SVG_x5F_24x24pt">
	<path id="backgroundBlue" fill="#2D327D" d="M0,22.5v-21C0,0.675,0.675,0,1.5,0h21C23.325,0,24,0.675,24,1.5v21
		c0,0.825-0.675,1.5-1.5,1.5h-21C0.675,24,0,23.325,0,22.5z"/>
	<g id="content_1_">
		<g>
			<path fill="#FFFFFF" d="M10.996,9.758v1.907c-0.062,0.067-0.244,0.274-0.546,0.623c-0.42,0.482-0.838,1.088-1.254,1.819
				c-0.415,0.731-0.738,1.432-0.969,2.103c-0.487,1.4-0.782,2.997-0.884,4.791H5.021c0.015-0.846,0.163-1.784,0.442-2.815
				c0.279-1.031,0.665-2.061,1.157-3.092c0.702-1.456,1.415-2.54,2.138-3.253H3.452V9.758H10.996z"/>
			<path fill="#FFFFFF" d="M12.961,13.319c0.026-0.923,0.254-1.697,0.684-2.323c0.697-1.005,1.746-1.507,3.145-1.507
				c1.077,0,1.946,0.274,2.607,0.823c0.713,0.595,1.069,1.364,1.069,2.307c0,0.564-0.14,1.05-0.419,1.457
				c-0.28,0.408-0.658,0.683-1.134,0.827c0.605,0.138,1.083,0.446,1.434,0.923c0.351,0.477,0.527,1.054,0.527,1.73
				c0,1.113-0.41,2.023-1.23,2.73c-0.759,0.656-1.718,0.984-2.876,0.984c-1.256,0-2.252-0.361-2.988-1.084
				c-0.736-0.723-1.104-1.7-1.104-2.93c0-0.026,0-0.074,0-0.146h2.161c0,0.692,0.164,1.227,0.492,1.603
				c0.328,0.377,0.792,0.565,1.392,0.565s1.061-0.177,1.384-0.531c0.297-0.333,0.446-0.731,0.446-1.192
				c0-0.554-0.19-0.992-0.569-1.315c-0.313-0.267-0.795-0.4-1.446-0.4c-0.185,0-0.367,0.01-0.546,0.031v-1.653
				c0.133,0.01,0.261,0.015,0.385,0.015c1.292,0,1.938-0.479,1.938-1.438c0-0.42-0.141-0.76-0.423-1.019
				c-0.282-0.259-0.654-0.388-1.115-0.388c-0.528,0-0.936,0.164-1.223,0.492c-0.287,0.328-0.441,0.807-0.461,1.438H12.961z"/>
		</g>
		<g id="Binario">
			<path fill="#FFFFFF" d="M3.001,3h1.012C4.23,3,4.392,3.027,4.499,3.082c0.1,0.051,0.176,0.126,0.228,0.223
				C4.77,3.387,4.791,3.474,4.791,3.566c0,0.103-0.026,0.194-0.078,0.274C4.66,3.92,4.584,3.983,4.485,4.029
				C4.571,4.058,4.636,4.088,4.679,4.12c0.146,0.107,0.218,0.262,0.218,0.466c0,0.121-0.027,0.23-0.081,0.326
				S4.685,5.086,4.585,5.144c-0.119,0.07-0.279,0.105-0.481,0.105H3.001V3z M3.491,3.386v0.524H3.94
				c0.105,0,0.181-0.012,0.231-0.037c0.091-0.044,0.137-0.12,0.137-0.228c0-0.091-0.029-0.157-0.086-0.198
				C4.165,3.407,4.071,3.386,3.94,3.386H3.491z M3.491,4.246v0.617h0.497c0.143,0,0.243-0.02,0.3-0.06
				c0.076-0.054,0.114-0.137,0.114-0.248c0-0.132-0.051-0.223-0.154-0.271C4.192,4.259,4.097,4.246,3.964,4.246H3.491z"/>
			<path fill="#FFFFFF" d="M5.637,3v0.401H5.191V3H5.637z M5.637,3.572v1.677H5.191V3.572H5.637z"/>
			<path fill="#FFFFFF" d="M6.417,3.574v0.235c0.052-0.072,0.101-0.125,0.146-0.158c0.111-0.086,0.244-0.129,0.4-0.129
				c0.137,0,0.254,0.035,0.349,0.105c0.076,0.055,0.129,0.125,0.159,0.21c0.03,0.085,0.045,0.204,0.045,0.358v1.055H7.072V4.287
				c0-0.108-0.009-0.187-0.028-0.237C7.027,4.006,6.997,3.972,6.955,3.946C6.907,3.918,6.852,3.904,6.791,3.904
				c-0.068,0-0.129,0.016-0.185,0.049C6.551,3.986,6.51,4.031,6.483,4.087C6.453,4.151,6.438,4.25,6.438,4.384v0.864H5.992V3.574
				H6.417z"/>
			<path fill="#FFFFFF" d="M9.379,5.249H8.924C8.904,5.183,8.895,5.127,8.895,5.081c-0.139,0.143-0.319,0.214-0.54,0.214
				c-0.172,0-0.307-0.04-0.403-0.12C7.841,5.083,7.786,4.954,7.786,4.789c0-0.21,0.095-0.356,0.285-0.437
				c0.077-0.033,0.218-0.063,0.425-0.091c0.177-0.024,0.288-0.046,0.331-0.068S8.892,4.126,8.892,4.06
				c0-0.147-0.097-0.22-0.292-0.22c-0.104,0-0.179,0.018-0.227,0.055S8.293,3.996,8.278,4.087H7.856
				C7.87,3.901,7.94,3.76,8.067,3.665C8.194,3.57,8.375,3.523,8.61,3.523c0.259,0,0.451,0.053,0.575,0.158
				C9.243,3.731,9.281,3.783,9.3,3.84c0.019,0.056,0.028,0.146,0.028,0.268c0,0.026-0.002,0.138-0.005,0.338
				C9.322,4.648,9.321,4.764,9.321,4.793c0,0.122,0.004,0.211,0.011,0.268C9.339,5.119,9.355,5.181,9.379,5.249z M8.889,4.438
				C8.831,4.474,8.726,4.502,8.575,4.523C8.468,4.539,8.391,4.56,8.344,4.586c-0.067,0.036-0.1,0.097-0.1,0.183
				c0,0.07,0.022,0.124,0.066,0.163C8.354,4.971,8.416,4.99,8.495,4.99c0.131,0,0.237-0.046,0.318-0.138
				C8.842,4.82,8.862,4.787,8.872,4.753c0.011-0.034,0.016-0.08,0.016-0.136V4.438z"/>
			<path fill="#FFFFFF" d="M10.716,3.541v0.432c-0.072-0.013-0.13-0.02-0.174-0.02c-0.166,0-0.288,0.07-0.366,0.209
				c-0.044,0.078-0.066,0.208-0.066,0.391v0.695H9.664v-1.68h0.425v0.306c0.121-0.228,0.297-0.341,0.528-0.341
				C10.644,3.534,10.678,3.536,10.716,3.541z"/>
			<path fill="#FFFFFF" d="M11.373,3v0.401h-0.446V3H11.373z M11.373,3.572v1.677h-0.446V3.572H11.373z"/>
			<path fill="#FFFFFF" d="M12.534,3.523c0.244,0,0.443,0.081,0.598,0.243c0.153,0.16,0.229,0.373,0.229,0.64
				c0,0.276-0.082,0.496-0.245,0.66c-0.153,0.153-0.352,0.229-0.597,0.229c-0.261,0-0.47-0.085-0.624-0.255
				c-0.148-0.162-0.221-0.372-0.221-0.631c0-0.254,0.072-0.461,0.215-0.62C12.048,3.612,12.263,3.523,12.534,3.523z M12.511,3.871
				c-0.118,0-0.212,0.048-0.281,0.143c-0.071,0.096-0.106,0.228-0.106,0.395c0,0.173,0.035,0.306,0.105,0.398
				c0.072,0.093,0.17,0.14,0.294,0.14c0.116,0,0.208-0.043,0.275-0.128c0.077-0.094,0.115-0.231,0.115-0.411
				c0-0.168-0.034-0.299-0.102-0.392C12.74,3.919,12.64,3.871,12.511,3.871z"/>
		</g>
	</g>
</g>
</svg>
