<svg xmlns="http://www.w3.org/2000/svg" width="24" height="24" viewBox="0 0 24 24">
  <g fill="none" fill-rule="evenodd">
    <path stroke="#000" d="M4.5,6.51 L19.5,6.51 L19.5,17.51 L4.5,17.48 L4.5,6.51 Z M4.5,9.5197 L19.5,9.5197 M7.5,7.9997 L7.5,4.9997 M16.5,7.9997 L16.5,4.9997"/>
    <path fill="#000" d="M13.1748,11.0002 L13.1748,16.0002 L12.1758,16.0002 L12.1758,12.7272 L11.8208,12.7272 L11.4658,12.7272 L11.1198,12.7272 L10.9998,12.7272 L10.9998,12.0022 C11.2438,11.9952 11.4428,11.9702 11.5968,11.9272 C11.7508,11.8832 11.8908,11.8122 12.0188,11.7142 C12.2038,11.5732 12.3278,11.3352 12.3918,11.0002 L13.1748,11.0002 Z"/>
  </g>
</svg>
