<svg xmlns="http://www.w3.org/2000/svg" width="36" height="36" fill="none" viewBox="0 0 36 36"><path fill="#000" fill-rule="evenodd" d="m4.896 3.138.483.13 8.694 2.328.483.13-.13.483-.258.966 1.69.453.483.13-.13.482-.388 1.449-.13.483-.482-.13-1.69-.452-.26.966-.129.483-.483-.13L8.75 9.864v3.386H3v-1h4.75V9.596L3.956 8.58l-.483-.13.13-.483 1.164-4.346zm8.883 5.486 1.208.323.13-.483-1.208-.323zM5.604 4.362l-.906 3.381 7.727 2.07.906-3.38zm18.259 7.157.222-.063.192.128 9 6-.554.832-8.808-5.872-20.778 5.937-.274-.962zM8.75 28.493a3.255 3.255 0 0 1 4.376-3.049l-1.563 2.813.874.486L14 25.933A3.247 3.247 0 0 1 12 31.742c-1.79 0-3.25-1.46-3.25-3.25m5.739-3.443A4.247 4.247 0 0 1 12 32.743a4.255 4.255 0 0 1-4.25-4.25 4.255 4.255 0 0 1 5.866-3.931l1.697-3.055.143-.257h5.794v-2H19.5v-1h2.75v3.419l.89 2.668q.418-.086.86-.087a4.253 4.253 0 0 1 4.25 4.25A4.254 4.254 0 0 1 24 32.75a4.254 4.254 0 0 1-4.25-4.25c0-1.698 1-3.166 2.442-3.846l-.802-2.404h-5.346zm8.022.561a3.25 3.25 0 0 0-1.761 2.89A3.254 3.254 0 0 0 24 31.75a3.254 3.254 0 0 0 3.25-3.25 3.253 3.253 0 0 0-3.79-3.206l1.014 3.04-.948.316zm-6.011-4.86h-3v-1h3z" clip-rule="evenodd"/></svg>