<svg class="color-immutable" xmlns="http://www.w3.org/2000/svg" width="59" height="20" fill="none" viewBox="0 0 59 20"><g clip-path="url(#a)"><path fill="#EB0000" fill-rule="evenodd" d="M2 0a2 2 0 0 0-2 2v16a2 2 0 0 0 2 2h55a2 2 0 0 0 2-2V2a2 2 0 0 0-2-2z" clip-rule="evenodd"/><path fill="#fff" d="M9.22 4.2h4.057L8.259 15.8H4.186zM15.948 4.2h14.395l-1.49 3.445h-10.28l-2.042 4.71h10.285l-1.49 3.445H10.93zM38.35 9.59q-.808-.279-1.243-.91-.426-.633-.427-1.535 0-1.503 1.234-2.397 1.092-.79 2.595-.791 1.709 0 2.792.941 1.028.886 1.028 2.191 0 .91-.435 1.559t-1.234.941q.625.182 1.02.467 1.1.798 1.1 2.333 0 1.764-1.352 2.808-1.14.878-2.927.878-1.938 0-3.085-.965-1.194-1.004-1.195-2.634 0-1.527 1.06-2.365a2.9 2.9 0 0 1 1.068-.522m2.127-3.837q-.76 0-1.226.427-.467.42-.467 1.107 0 .72.467 1.155.474.427 1.266.427.79 0 1.25-.427.458-.427.458-1.163 0-.72-.467-1.123-.458-.403-1.28-.403m-.016 4.706q-.854 0-1.4.53-.537.522-.538 1.345 0 .846.546 1.376.554.53 1.432.53.996 0 1.495-.585.482-.562.482-1.297 0-.84-.553-1.377-.53-.522-1.464-.522M45.555 12.896h2.184q.268 1.344 1.558 1.344.728 0 1.178-.49.46-.498.704-1.543.158-.664.23-1.51-.53.743-1.092 1.06-.554.308-1.352.308-1.275 0-2.215-.744A3.54 3.54 0 0 1 45.72 9.97a4.45 4.45 0 0 1-.363-1.804q0-1.953 1.337-3.164 1.146-1.044 2.752-1.044.989 0 1.828.443a3.96 3.96 0 0 1 1.407 1.258q1.005 1.447 1.005 4.066 0 2.42-.886 4.129-1.155 2.222-3.496 2.222-1.559 0-2.579-.862-1.013-.862-1.17-2.317M49.4 5.91q-.744 0-1.258.609-.514.616-.514 1.566 0 .768.372 1.36.506.816 1.423.815.83 0 1.33-.664.466-.625.466-1.487 0-.91-.482-1.543a1.6 1.6 0 0 0-1.337-.656"/></g><defs><clipPath id="a"><path fill="#fff" d="M0 0h59v20H0z"/></clipPath></defs></svg>