<svg class="color-immutable" xmlns="http://www.w3.org/2000/svg" width="59" height="20" fill="none" viewBox="0 0 59 20"><g clip-path="url(#a)"><path stroke="#fff" d="M2 .5h55A1.5 1.5 0 0 1 58.5 2v16a1.5 1.5 0 0 1-1.5 1.5H2A1.5 1.5 0 0 1 .5 18V2A1.5 1.5 0 0 1 2 .5Z"/><path fill="#fff" d="M4.069 4.224h5.704q1.692 0 2.594.531.749.435 1.144 1.16.395.727.395 1.636 0 1.031-.5 1.797-.491.765-1.377 1.095.78.195 1.224.87.282.427.379.895.097.467.25 2.135.112 1.224.346 1.523l.113.136h-2.683a2 2 0 0 1-.201-.636q-.058-.387-.154-1.789-.096-1.248-.612-1.724-.507-.483-1.74-.483H6.639v4.632h-2.57zm2.57 2.022v3.239h2.457q1.184 0 1.668-.339.612-.426.612-1.289 0-.838-.524-1.224-.524-.387-1.651-.387zM24.436 13.827v2.175h-8.33V4.224h2.57v9.603zM33.677 11.322v1.99h-1.483v2.69h-2.296v-2.69h-4.914v-2.208l5.035-6.88h2.175v7.098zm-3.73.024V6.963l-3.03 4.383zM40.332 4.224v11.778h-2.353v-7.71h-2.771V6.584q.861-.024 1.401-.177.549-.153 1-.5.651-.5.878-1.683z"/></g><defs><clipPath id="a"><path fill="#fff" d="M0 0h59v20H0z"/></clipPath></defs></svg>