<?xml version="1.0" encoding="utf-8"?>
<!-- Generator: Adobe Illustrator 24.2.0, SVG Export Plug-In . SVG Version: 6.00 Build 0)  -->
<svg version="1.0" id="Ebene_6" xmlns="http://www.w3.org/2000/svg" xmlns:xlink="http://www.w3.org/1999/xlink" x="0px" y="0px"
	 viewBox="0 0 24 24" enable-background="new 0 0 24 24" xml:space="preserve">
<g id="SVG_x5F_24x24pt">
	<path id="backgroundGreen" fill="#237F52" d="M0,22.5v-21C0,0.675,0.675,0,1.5,0h21C23.325,0,24,0.675,24,1.5v21
		c0,0.825-0.675,1.5-1.5,1.5h-21C0.675,24,0,23.325,0,22.5z"/>
	<g id="content">
		<polygon fill="#FFFFFF" points="10.731,14.76 10.098,13.034 11.035,11.826 11.207,10.498 11.562,10.544 11.378,11.969 
			10.503,13.097 11.068,14.637 		"/>
		<polygon fill="#FFFFFF" points="7.841,9.679 5.581,9.679 5.581,9.321 7.755,9.321 9.066,8.657 10.507,9.04 10.415,9.386 
			9.106,9.039 		"/>
		<polygon fill="#FFFFFF" points="14.093,10.542 13.297,9.679 12.572,9.679 12.572,9.321 13.454,9.321 14.357,10.299 		"/>
		<polygon fill="#FFFFFF" points="7.507,10.687 7.373,10.355 8.938,9.724 9.684,10.023 10.441,9.673 10.591,9.998 9.694,10.413 
			8.938,10.11 		"/>
		<path fill="#FFFFFF" d="M16.412,11.081c-0.081-0.077-0.187-0.119-0.297-0.119c-0.003,0-0.006,0-0.009,0
			c-0.114,0.003-0.222,0.051-0.301,0.134l-0.131,0.137l1.302,1.242l-0.142,0.149l-1.595-1.521c-0.08-0.077-0.187-0.119-0.297-0.119
			c-0.003,0-0.006,0-0.009,0c-0.114,0.003-0.221,0.051-0.3,0.133l-0.131,0.138l1.905,1.817l-0.142,0.149l-2.198-2.095
			c-0.08-0.077-0.186-0.119-0.297-0.119c-0.003,0-0.006,0-0.01,0c-0.113,0.003-0.222,0.05-0.299,0.133l-0.132,0.138l2.508,2.391
			l-0.142,0.149l-2.848-2.716c-0.083-0.079-0.193-0.122-0.306-0.122c-0.004,0-0.008,0-0.012,0c-0.246,0.006-0.44,0.21-0.434,0.455
			c0.003,0.117,0.052,0.23,0.138,0.311l2.705,2.58c0.092,0.087,0.145,0.206,0.148,0.333l0.018,0.755
			c0.005,0.184-0.141,0.337-0.325,0.341l-1.353,0.033c-0.303,0.007-0.568,0.204-0.662,0.492c-0.012,0.038-0.018,0.078-0.017,0.12
			c0.004,0.194,0.163,0.348,0.356,0.348c0.003,0,0.006,0,0.009,0l3.946-0.098l0.747-0.018L21,18.53v-3.418l-1.734-1.022
			L16.412,11.081z"/>
		<path fill="#FFFFFF" d="M3.608,19.447H4.39l1.341-1.624l0.72-0.2l3.803-1.057c0.19-0.053,0.301-0.25,0.248-0.44
			c-0.011-0.04-0.029-0.076-0.051-0.109c-0.136-0.194-0.355-0.304-0.584-0.304c-0.064,0-0.129,0.009-0.193,0.026L8.37,16.103
			c-0.03,0.009-0.06,0.012-0.09,0.012c-0.146,0-0.28-0.097-0.321-0.244l-0.203-0.727c-0.034-0.122-0.018-0.252,0.045-0.361
			l1.835-3.256c0.058-0.103,0.073-0.225,0.041-0.338c-0.055-0.197-0.233-0.326-0.428-0.326c-0.04,0-0.08,0.005-0.12,0.017
			c-0.113,0.031-0.21,0.107-0.269,0.209l-1.932,3.428l-0.18-0.101l1.702-3.019l-0.167-0.093c-0.064-0.037-0.137-0.056-0.21-0.056
			c-0.039,0-0.077,0.005-0.115,0.016c-0.11,0.031-0.202,0.103-0.258,0.203l-1.491,2.645L6.03,14.011l1.293-2.293l-0.166-0.093
			c-0.065-0.037-0.137-0.056-0.211-0.056c-0.038,0-0.077,0.005-0.115,0.016c-0.109,0.031-0.203,0.104-0.258,0.203l-1.082,1.92
			l-0.18-0.101l0.884-1.567l-0.165-0.093c-0.065-0.037-0.138-0.056-0.212-0.056c-0.038,0-0.077,0.005-0.115,0.016
			c-0.109,0.031-0.202,0.104-0.258,0.203l-2.087,3.735v3.354C3.358,19.335,3.47,19.447,3.608,19.447z"/>
		<path fill="#FFFFFF" d="M3.358,15.403V8.397h14.979c0.249,0,0.498,0.207,0.543,0.452l0.986,5.346l0.408,0.241l-1.043-5.652
			c-0.076-0.41-0.477-0.744-0.894-0.744H3.358V6.608c0-0.136,0.115-0.251,0.251-0.251h16.784c0.138,0,0.251,0.112,0.251,0.251v8.045
			L21,14.863V6.608C21,6.274,20.726,6,20.392,6H3.608C3.274,6,3,6.274,3,6.608v9.435l0.121-0.217L3.358,15.403z"/>
		<path fill="#FFFFFF" d="M20.642,18.567v0.629c0,0.138-0.112,0.251-0.251,0.251H4.668l-0.295,0.358h16.019
			c0.335,0,0.608-0.274,0.608-0.608V18.78l-0.109-0.065L20.642,18.567z"/>
		<path fill="#FFFFFF" d="M10.502,16.126c-0.011-0.04-0.029-0.076-0.051-0.109c-0.136-0.194-0.355-0.304-0.584-0.304
			c-0.064,0-0.129,0.009-0.193,0.026L8.37,16.103c-0.03,0.009-0.06,0.012-0.09,0.012c-0.146,0-0.28-0.097-0.321-0.244l-0.203-0.727
			c-0.034-0.122-0.018-0.252,0.045-0.361l1.835-3.256c0.058-0.103,0.073-0.225,0.041-0.338c-0.055-0.197-0.233-0.326-0.428-0.326
			c-0.04,0-0.08,0.005-0.12,0.017c-0.113,0.031-0.21,0.107-0.269,0.209l-1.932,3.428l-0.18-0.101l1.702-3.019l-0.167-0.093
			c-0.064-0.037-0.137-0.056-0.21-0.056c-0.039,0-0.077,0.005-0.115,0.016c-0.11,0.031-0.202,0.103-0.258,0.203l-1.491,2.645
			L6.03,14.011l1.293-2.293l-0.166-0.093c-0.065-0.037-0.137-0.056-0.211-0.056c-0.038,0-0.077,0.005-0.115,0.016
			c-0.109,0.031-0.203,0.104-0.258,0.203l-1.082,1.92l-0.18-0.101l0.884-1.567l-0.165-0.093c-0.065-0.037-0.138-0.056-0.212-0.056
			c-0.038,0-0.077,0.005-0.115,0.016c-0.109,0.031-0.202,0.104-0.258,0.203l-2.087,3.735l-0.049,0.088L3,16.483v0.772v1.144v0.797
			c0,0.335,0.274,0.608,0.608,0.608h0.141h0.116h0.23l0.295-0.358l1.341-1.624l0.72-0.2l3.803-1.057
			C10.444,16.513,10.555,16.316,10.502,16.126z"/>
		<path fill="#EB0000" d="M12.133,9.5c0-0.34-0.276-0.617-0.616-0.617c-0.341,0-0.617,0.276-0.617,0.617
			c0,0.341,0.276,0.617,0.617,0.617C11.857,10.116,12.133,9.84,12.133,9.5z"/>
	</g>
</g>
</svg>
