<svg class="color-immutable" xmlns="http://www.w3.org/2000/svg" width="59" height="20" fill="none" viewBox="0 0 59 20"><path fill="#000" d="M1.792 0h55.416C58.197 0 59 .806 59 1.8v16.4c0 .994-.801 1.8-1.792 1.8H1.792A1.797 1.797 0 0 1 0 18.2V1.8C0 .806.803 0 1.792 0"/><path fill="#FFDE15" d="M12.8 7.661h-2.405q-.07-.846-.633-1.289-.553-.45-1.558-.45-.894 0-1.392.355-.49.349-.49.981 0 .57.474.823.459.252 2.326.712 1.97.49 2.729.988 1.4.918 1.4 2.555 0 1.796-1.408 2.832-1.242.91-3.362.91-2.357 0-3.662-1.076t-1.353-3.061h2.515q.055.964.499 1.432.696.743 2.096.743.95 0 1.503-.372.624-.427.625-1.162 0-.736-.878-1.076-.483-.19-2.278-.688-1.125-.309-1.756-.586-.633-.276-1.013-.617-.886-.79-.886-2.183 0-1.669 1.384-2.642 1.18-.83 3.062-.83 1.653 0 2.768.656 1.606.942 1.693 3.045M24.515 4.236v11.565h-2.54l-4.84-7.879.031 7.879h-2.428V4.236h2.57l4.81 7.863-.031-7.863zM34.3 13.744v2.057h-8.33q0-.942.301-1.796.309-.855.862-1.47.427-.476.997-.926.578-.451 2.286-1.654.83-.577 1.163-1.075.332-.5.332-1.155 0-.76-.451-1.226-.443-.475-1.17-.475-1.788 0-1.844 2.57h-2.222v-.252q0-2.105 1.178-3.26Q28.55 3.96 30.368 3.96q1.614 0 2.698.918 1.179.997 1.178 2.682 0 1.47-.94 2.53-.31.349-.578.563-.27.205-1.416 1.004-1.092.76-1.566 1.163a6.4 6.4 0 0 0-.87.925zM43.317 13.744v2.057h-8.329q0-.942.3-1.796.31-.855.863-1.47.427-.476.996-.926.577-.451 2.287-1.654.83-.577 1.162-1.075.333-.5.333-1.155 0-.76-.451-1.226-.444-.475-1.171-.475-1.788 0-1.843 2.57H35.24v-.252q0-2.105 1.179-3.26 1.146-1.123 2.966-1.123 1.614 0 2.697.918 1.179.997 1.179 2.682 0 1.47-.941 2.53-.309.349-.578.563-.269.205-1.416 1.004-1.091.76-1.566 1.163a6.4 6.4 0 0 0-.87.925z"/></svg>