<svg xmlns="http://www.w3.org/2000/svg" width="24" height="24" fill="none" viewBox="0 0 24 24"><path fill="#000" fill-rule="evenodd" d="M12.004 4h.5a7.497 7.497 0 0 1 7.48 7h.008v.142q.008.177.008.355v.5h-.008V14.5c0 1.326-.875 2.552-2.025 3.137Q18 17.813 18 18c0 1.106-.894 2-2 2s-2-.894-2-2h-3a2 2 0 1 1-3.967-.363c-1.152-.583-2.035-1.809-2.035-3.137V9H2V8h3.998v3h5.998l.007-6.5zm6.977 6.997a6.5 6.5 0 0 0-5.978-5.978l-.007 5.978zm.01 1.003H5.999v2.5c0 .894.617 1.793 1.457 2.23a1.998 1.998 0 0 1 3.278.27h3.534a1.998 1.998 0 0 1 3.278-.27c.834-.437 1.447-1.334 1.447-2.23zM9 17a1 1 0 1 0 .001 2.001A1 1 0 0 0 9 17m7 0a1 1 0 1 0 0 2 1 1 0 0 0 0-2" clip-rule="evenodd"/></svg>