<svg xmlns="http://www.w3.org/2000/svg" width="36" height="36" fill="none" viewBox="0 0 36 36"><path fill="#000" fill-rule="evenodd" d="m3.25 4.556.658.22L17.25 9.223l13.342-4.447.658-.22V28.11l-.342.114-13.5 4.5-.158.053-.158-.053-13.5-4.5-.342-.114V4.556m1 1.388V27.39l12.5 4.166V10.11zm13.5 4.166v21.446l12.5-4.166V5.944zm-2.908 3.864-9-3 .316-.949 9 3zm4.816 0 9-3-.316-.949-9 3zm0 4.5 9-3-.316-.949-9 3zm9 1.5-9 3-.316-.95 9-3zm-9 7.5 9-3-.316-.95-9 3zm-13.816-12 9 3 .316-.948-9-3zm9 7.5-9-3 .316-.948 9 3zm-9 1.5 9 3 .316-.95-9-3z" clip-rule="evenodd"/></svg>