<svg xmlns="http://www.w3.org/2000/svg" width="48" height="48" fill="none" viewBox="0 0 48 48"><path fill="#000" fill-rule="evenodd" d="M3 8.5A1.5 1.5 0 0 1 4.5 7h39A1.5 1.5 0 0 1 45 8.5V31H3zM3 32v1.5A1.5 1.5 0 0 0 4.5 35h39a1.5 1.5 0 0 0 1.5-1.5V32zm17.806 4H4.5A2.5 2.5 0 0 1 2 33.5v-25A2.5 2.5 0 0 1 4.5 6h39A2.5 2.5 0 0 1 46 8.5v25a2.5 2.5 0 0 1-2.5 2.5H27.194l1.666 5h5.64v1h-21v-1h5.64zm5.334 0 1.666 5h-7.612l1.666-5zM40 34h3v-1h-3zm-1 0h-2v-1h2zM27 9h-5V8h5zm-7 0h1V8h-1z" clip-rule="evenodd"/></svg>