<svg class="color-immutable" xmlns="http://www.w3.org/2000/svg" width="59" height="20" fill="none" viewBox="0 0 59 20"><g clip-path="url(#a)"><path stroke="#000" d="M.5 2A1.5 1.5 0 0 1 2 .5h55A1.5 1.5 0 0 1 58.5 2v16a1.5 1.5 0 0 1-1.5 1.5H2A1.5 1.5 0 0 1 .5 18z"/><path fill="#000" d="M4.069 4.224h5.704q1.692 0 2.594.532.749.434 1.144 1.16.395.725.395 1.635 0 1.032-.5 1.797-.491.765-1.377 1.096.78.192 1.224.87.282.426.379.894.097.467.25 2.135.112 1.224.346 1.523l.113.137h-2.683a2 2 0 0 1-.201-.637q-.058-.387-.154-1.788-.096-1.25-.612-1.724-.507-.484-1.74-.484H6.639v4.633h-2.57zm2.57 2.022v3.239h2.457q1.184 0 1.668-.339.612-.426.612-1.289 0-.837-.524-1.224t-1.651-.387zM24.436 13.827v2.176h-8.33V4.223h2.57v9.604zM33.37 7.165h-2.24q-.313-1.362-1.546-1.362-1.305 0-1.853 1.603-.225.652-.363 1.974.532-.717 1.128-1.031.605-.315 1.45-.314 1.66 0 2.667 1.176.96 1.111.959 2.787 0 1.99-1.289 3.199-1.16 1.088-2.788 1.088-2.086 0-3.247-1.571-1.16-1.58-1.16-4.4 0-3.013 1.241-4.72 1.2-1.653 3.28-1.652 1.956 0 2.996 1.313.597.757.766 1.91m-3.987 2.699q-.846 0-1.346.708-.45.63-.451 1.499 0 .862.46 1.507.498.717 1.369.717.846 0 1.361-.685.484-.645.484-1.523 0-.862-.435-1.474-.532-.75-1.442-.75M36.32 9.678q-.822-.282-1.266-.926-.435-.645-.435-1.563 0-1.531 1.257-2.441 1.111-.806 2.643-.806 1.74 0 2.844.959 1.047.902 1.047 2.231 0 .927-.443 1.587-.442.66-1.257.96.637.184 1.04.475 1.12.813 1.12 2.376 0 1.797-1.378 2.86-1.16.895-2.981.895-1.974 0-3.142-.983-1.217-1.024-1.217-2.683 0-1.556 1.08-2.409.491-.378 1.087-.532m2.167-3.907q-.773 0-1.25.435-.474.426-.474 1.128 0 .733.475 1.176.483.435 1.289.435T39.8 8.51t.467-1.184q0-.734-.475-1.144-.468-.411-1.305-.411m-.017 4.794q-.87 0-1.426.54-.547.53-.547 1.369 0 .862.556 1.402.564.54 1.458.54 1.014 0 1.522-.597.492-.571.492-1.321 0-.855-.564-1.402-.54-.531-1.49-.531"/></g><defs><clipPath id="a"><path fill="#fff" d="M0 0h59v20H0z"/></clipPath></defs></svg>