<svg xmlns="http://www.w3.org/2000/svg" width="36" height="36" fill="none" viewBox="0 0 36 36"><path fill="#000" fill-rule="evenodd" d="M9.743 6.25h-.5v.5l.006 22.5v.5h17.5v-.5l-.003-15.01v-.206l-.146-.147-7.497-7.49-.147-.147H9.743m.506 22.5-.006-21.5h8.007v7.5h.5l6.996-.008.003 14.008zM25.04 13.742l-5.79-5.785v5.792zM12 20.75h4.5v-1H12zm4.5 4.5H12v-1h4.5zm3.353-3.896 4.5-4.5-.707-.708-4.146 4.147-1.147-1.147-.707.708 1.5 1.5.354.353zm4.5 0-4.5 4.5-.353.353-.354-.353-1.5-1.5.707-.708 1.147 1.147 4.146-4.147z" clip-rule="evenodd"/></svg>