<svg xmlns="http://www.w3.org/2000/svg" width="24" height="24" fill="none" viewBox="0 0 24 24"><path fill="#000" fill-rule="evenodd" d="M3.5 5H3v10h3v2.957l.854-.853L8.957 15H9v3h6.043l2.103 2.104.854.853V18h3V8h-5V5H3.5M16 9v2h3v1h-3v1h2v1h-2v1h-6v2h5.457l.147.146L17 18.543V17h3V9zM4 14V6h11v8H8.543l-.147.146L7 15.543V14H4m4.828-1.372h.844v-.812h-.844zM7.782 7.55q-.258.399-.285 1.125h.671q.082-1.281 1.125-1.281.504 0 .762.324.215.266.215.657 0 .21-.074.414-.09.238-.379.535a10 10 0 0 0-.58.629 1.2 1.2 0 0 0-.2.379q-.098.288-.107.886h.664q0-.336.04-.547a1 1 0 0 1 .122-.353 2 2 0 0 1 .311-.358q.504-.492.637-.675A1.58 1.58 0 0 0 11 8.324q0-.676-.437-1.09-.469-.449-1.262-.449-.492 0-.886.199a1.6 1.6 0 0 0-.633.566" clip-rule="evenodd"/></svg>