<?xml version="1.0" encoding="utf-8"?>
<!-- Generator: Adobe Illustrator 24.2.0, SVG Export Plug-In . SVG Version: 6.00 Build 0)  -->
<svg version="1.0" id="Piktogramm" xmlns="http://www.w3.org/2000/svg" xmlns:xlink="http://www.w3.org/1999/xlink" x="0px" y="0px"
	 viewBox="0 0 24 24" enable-background="new 0 0 24 24" xml:space="preserve">
<g id="SVG_x5F_24x24pt">
	<path id="backgroundBlue" fill="#2D327D" d="M0,22.5v-21C0,0.675,0.675,0,1.5,0h21C23.325,0,24,0.675,24,1.5v21
		c0,0.825-0.675,1.5-1.5,1.5h-21C0.675,24,0,23.325,0,22.5z"/>
	<g id="content">
		<path fill="#FFFFFF" d="M6.041,14.897c-0.675-1.004-1.699-1.685-2.885-1.92l-0.157,0.801l3.796,4.057
			C6.89,16.799,6.629,15.771,6.041,14.897z"/>
		<path fill="#FFFFFF" d="M15.767,16.002c1.231-0.828,2.706-1.135,4.163-0.87l0.485-2.474L7.528,15.346
			c0.396,0.993,0.501,2.079,0.294,3.153l5.556,1.088C13.672,18.114,14.519,16.841,15.767,16.002z"/>
		<path fill="#FFFFFF" d="M6.963,14.277c0.01,0.015,0.02,0.031,0.03,0.046l6.448-1.345L4.094,8.192L3.37,11.886
			C4.847,12.178,6.123,13.027,6.963,14.277z"/>
		<polygon fill="#FFFFFF" points="20.646,11.474 21.002,9.658 4.442,6.413 4.316,7.057 15.174,12.616 		"/>
		<path fill="#FFFFFF" d="M14.596,19.307l4.963-2.286l0.157-0.8C17.461,15.82,15.279,17.168,14.596,19.307z"/>
	</g>
</g>
</svg>
