<svg xmlns="http://www.w3.org/2000/svg" width="36" height="36" viewBox="0 0 36 36">
  <path fill="none" stroke="#000" d="M6,32.25 L27,32.25 M8.25,32.25 L8.25,6.75 C8.25,5.094 9.594,3.75 11.25,3.75 L21.75,3.75 C23.406,3.75 24.75,5.094 24.75,6.75 L24.75,32.25 M11.25,14.25 L21.75,14.25 L21.75,8.25 L11.25,8.25 L11.25,14.25 Z M30.75,20.25 L30.75,25.5 C30.7545,26.313 30.756,27.75 29.25,27.75 C27.75,27.75 27.7515,26.28 27.75,25.5 L27.75,24 C27.7155,22.488 26.997,21.75 25.5,21.75 L24.75,21.75 M33.75,17.25 C33.75,18.906 32.406,20.25 30.75,20.25 C29.094,20.25 27.75,18.906 27.75,17.25 L27.75,15.75 L33.75,15.75 L33.75,17.25 Z M29.25,15.75 L29.25,12 M32.25,15.75 L32.25,12"/>
</svg>
