<svg class="color-immutable" xmlns="http://www.w3.org/2000/svg" width="59" height="20" fill="none" viewBox="0 0 59 20"><g clip-path="url(#a)"><path stroke="#000" d="M.5 2A1.5 1.5 0 0 1 2 .5h55A1.5 1.5 0 0 1 58.5 2v16a1.5 1.5 0 0 1-1.5 1.5H2A1.5 1.5 0 0 1 .5 18z"/><path fill="#000" d="M4.069 4.224h5.704q1.692 0 2.594.531.749.435 1.144 1.16.395.727.395 1.636 0 1.031-.5 1.797-.491.765-1.377 1.095.78.195 1.224.87.282.427.379.895.097.467.25 2.135.112 1.224.346 1.523l.113.136h-2.683a2 2 0 0 1-.201-.636q-.058-.387-.154-1.789-.096-1.248-.612-1.724-.507-.483-1.74-.483H6.639v4.632h-2.57zm2.57 2.022v3.239h2.457q1.184 0 1.668-.339.612-.426.612-1.289 0-.838-.524-1.224-.524-.387-1.651-.387zM24.436 13.827v2.175h-8.33V4.224h2.57v9.603zM32.984 4.224v2.094h-4.746l-.507 2.651q.855-.902 2.183-.902 1.306 0 2.272.7 1.434 1.056 1.434 3.207 0 2.11-1.53 3.344-1.193.966-2.853.966-1.868 0-3.005-.999-1.136-1.007-1.2-2.715h2.312q.057.621.403 1.056.54.684 1.499.684.926 0 1.466-.668.524-.652.524-1.587 0-1.015-.548-1.62-.548-.612-1.458-.612-1.113 0-1.733.999l-2.102-.032 1.12-6.566zM42.169 4.224v2.094h-4.746l-.508 2.651q.855-.902 2.184-.902 1.305 0 2.272.7 1.434 1.056 1.434 3.207 0 2.11-1.53 3.344-1.193.966-2.853.966-1.87 0-3.005-.999-1.135-1.007-1.2-2.715h2.312q.056.621.403 1.056.54.684 1.498.684.927 0 1.467-.668.523-.652.523-1.587 0-1.015-.548-1.62-.547-.612-1.458-.612-1.112 0-1.732.999l-2.103-.032 1.12-6.566z"/></g><defs><clipPath id="a"><path fill="#fff" d="M0 0h59v20H0z"/></clipPath></defs></svg>