<svg xmlns="http://www.w3.org/2000/svg" width="24" height="24" fill="none" viewBox="0 0 24 24"><path fill="#000" d="M3 11h2V6h-.999V5H7V4h2v1h3.001v1H11v5h1.998V6h1.003V4h1v2h1v5h.997V6h1.003V4h1v2h1v5H21V2h1v20h-1v-2H3v2H2V2h1zm0 8h2.262l-.726-1.814-.274-.686h.8l-.526-1.315-.274-.685h6.476l-.274.685-.526 1.315h.8l-.274.686L9.738 19H14v-3h-1.999v-1H19v4h2v-7H3zm3.338 0h2.324l.6-1.5H5.738zM15 19h3v-3h-3zm-8.861-2.5H8.86l.4-1H5.739zM6 11h4V6H6zm11.998 0h1.003V7h-1.003zm-4 0h1.003V7h-1.003z"/></svg>