<svg xmlns="http://www.w3.org/2000/svg" width="36" height="36" fill="none" viewBox="0 0 36 36"><path fill="#000" fill-rule="evenodd" d="M18.5 7.25h3.97v-1h-9v1h4.03v2.009c-2.102.079-3.778.655-5.104 1.57-1.426.985-2.415 2.339-3.1 3.812-1.36 2.93-1.546 6.398-1.546 8.609v.5h20.502l-.002-.502c-.007-2.209-.193-5.677-1.552-8.607-.683-1.473-1.67-2.827-3.095-3.812-1.325-.915-3-1.492-5.103-1.57zm-9.746 15.5h18.491c-.036-2.167-.285-5.168-1.454-7.688-.627-1.353-1.512-2.55-2.757-3.41-1.24-.857-2.872-1.402-5.034-1.402s-3.793.545-5.036 1.402c-1.246.86-2.132 2.057-2.76 3.41-1.171 2.52-1.42 5.522-1.45 7.688M30 27.25H6v1h24z" clip-rule="evenodd"/></svg>