<svg xmlns="http://www.w3.org/2000/svg" width="24" height="24" viewBox="0 0 24 24">
  <g fill="none" fill-rule="evenodd">
    <path stroke="#000" d="M3.5,3.5 L3.5,21.5 L20.5,21.5 L20.5,3.5 L14.5,3.5 L14.5,2.5 L9.5,2.5 L9.5,3.5 L3.5,3.5 Z M14.5,3.5 L14.5,4.5 L9.5,4.5 L9.5,3.5"/>
    <path fill="#000" d="M11.305,16.783 L12.571,16.783 L12.571,15.564 L11.305,15.564 L11.305,16.783 Z M9.308,10.854 C9.335,10.127 9.478,9.564 9.735,9.166 C9.974,8.799 10.29,8.516 10.685,8.316 C11.079,8.117 11.522,8.018 12.015,8.018 C12.808,8.018 13.438,8.242 13.907,8.691 C14.345,9.105 14.563,9.65 14.563,10.326 C14.563,10.885 14.415,11.365 14.118,11.768 C13.985,11.951 13.667,12.289 13.163,12.781 C12.94,12.996 12.785,13.175 12.697,13.317 C12.609,13.46 12.548,13.637 12.513,13.848 C12.474,14.059 12.454,14.332 12.454,14.668 L11.458,14.668 C11.466,14.07 11.519,13.627 11.616,13.338 C11.687,13.127 11.787,12.937 11.918,12.77 C12.049,12.602 12.339,12.287 12.788,11.826 C13.077,11.529 13.267,11.262 13.356,11.023 C13.431,10.82 13.468,10.613 13.468,10.402 C13.468,10.012 13.36,9.684 13.146,9.418 C12.888,9.094 12.507,8.932 12.003,8.932 C10.96,8.932 10.397,9.572 10.315,10.854 L9.308,10.854 Z"/>
  </g>
</svg>
