<svg class="color-immutable" xmlns="http://www.w3.org/2000/svg" width="59" height="20" fill="none" viewBox="0 0 59 20"><g clip-path="url(#a)"><path fill="#EB0000" fill-rule="evenodd" d="M2 0a2 2 0 0 0-2 2v16a2 2 0 0 0 2 2h55a2 2 0 0 0 2-2V2a2 2 0 0 0-2-2z" clip-rule="evenodd"/><path fill="#fff" d="M9.388 4.2h4.042L8.43 15.8h-4.06zM26.092 12.366a.92.92 0 0 0 .843-.553L30.216 4.2H16.13l-5.001 11.6h4.025l3.786-8.69h5.973l-1.197 2.775-5.209-.019L22.71 15.8h4.582l-3.114-3.434zM38.35 9.59q-.808-.279-1.243-.91-.426-.633-.427-1.535 0-1.503 1.234-2.397 1.092-.79 2.595-.791 1.709 0 2.792.941 1.028.886 1.028 2.191 0 .91-.435 1.559t-1.234.941q.625.182 1.02.467 1.1.798 1.1 2.333 0 1.764-1.352 2.808-1.14.878-2.927.878-1.938 0-3.085-.965-1.194-1.004-1.195-2.634 0-1.527 1.06-2.365a2.9 2.9 0 0 1 1.068-.522m2.127-3.837q-.76 0-1.226.427-.467.42-.467 1.107 0 .72.467 1.155.474.427 1.266.427.79 0 1.25-.427.458-.427.458-1.163 0-.72-.467-1.123-.458-.403-1.28-.403m-.016 4.706q-.854 0-1.4.53-.537.522-.538 1.345 0 .846.546 1.376.554.53 1.432.53.996 0 1.495-.585.482-.562.482-1.297 0-.84-.553-1.377-.53-.522-1.464-.522M49.574 3.957q1.32 0 2.325.807.997.807 1.448 2.484.34 1.281.34 2.784 0 2.492-.886 4.098-.522.933-1.368 1.44a3.56 3.56 0 0 1-1.875.505q-1.416 0-2.42-.854-1.788-1.518-1.788-5.189 0-2.61.933-4.192a3.77 3.77 0 0 1 1.384-1.393 3.8 3.8 0 0 1 1.907-.49m-.087 1.954q-1.14 0-1.55 1.313-.325 1.044-.325 2.927 0 1.661.332 2.665.427 1.305 1.582 1.306.957 0 1.424-1.013t.467-3.093q0-1.772-.332-2.792-.428-1.313-1.598-1.313"/></g><defs><clipPath id="a"><path fill="#fff" d="M0 0h59v20H0z"/></clipPath></defs></svg>