<svg xmlns="http://www.w3.org/2000/svg" width="24" height="24" fill="none" viewBox="0 0 24 24"><path fill="#000" fill-rule="evenodd" d="M13.843 6H14c.283 0 .553.093.749.307.188.206.251.465.251.693v2c0 .272-.09.536-.294.731-.2.192-.459.269-.706.269h-1.964q-.15.299-.34.563a8 8 0 0 1 1.466 1.068l-.675.738a6.8 6.8 0 0 0-1.51-1.056A3.2 3.2 0 0 1 9 12c-.75 0-1.427-.257-1.98-.689C4.682 12.48 3.166 15.024 3.013 18H11v1H2v-.5c0-3.384 1.6-6.45 4.302-7.94a4 4 0 0 1-.338-.56H4c-.27 0-.514-.12-.686-.285A1 1 0 0 1 3 9V7.006c0-.293.135-.543.307-.712C3.477 6.127 3.723 6 4 6h.075C5.463.623 12.685.782 13.842 6m-1.031 0C11.75 2.137 6.38 1.934 5.114 6h.85C6.554 4.82 7.657 4 9 4s2.447.82 3.036 2h.776M6.5 8c0-1.742 1.172-3 2.5-3s2.5 1.259 2.5 3c0 .356-.049.691-.138 1H9v1h1.87c-.466.624-1.145 1-1.87 1-1.328 0-2.5-1.259-2.5-3M4 8.987v-1.97A.1.1 0 0 1 4.017 7H5v2h-.985l-.002-.001zM13 9h1V7h-1zm-1 4h10v7h-4v1h2v1h-6v-1h2v-1h-4v-7m1 1v5h8v-5z" clip-rule="evenodd"/></svg>