<svg xmlns="http://www.w3.org/2000/svg" width="36" height="36" fill="none" viewBox="0 0 36 36"><path fill="#000" fill-rule="evenodd" d="M12.75 3.25a5 5 0 0 0-2.064 9.555 5 5 0 0 0-1.375.98 4.95 4.95 0 0 0-1.443 3.517 4.95 4.95 0 0 0 1.483 3.502c.419.412.903.743 1.429.985a5.37 5.37 0 0 0-2.62 2.78 5.375 5.375 0 1 0 10.34 2.056V20.25a5 5 0 1 0 6.517-7.322A5.002 5.002 0 0 0 23.25 3.25zm6.75 10a5 5 0 0 0-1 1v-1zm-1-1h4.75a4 4 0 0 0 0-8H18.5zm-1-8h-4.75a4 4 0 0 0 0 8h4.75zm5 9a4 4 0 1 1 0 8 4 4 0 0 1 0-8m-5 .05v7.95h-4.608a4.05 4.05 0 0 1-2.84-1.16 3.95 3.95 0 0 1-1.184-2.793 3.95 3.95 0 0 1 1.152-2.807 4.05 4.05 0 0 1 2.824-1.19zm0 8.95h-4.375a4.375 4.375 0 1 0 4.375 4.375z" clip-rule="evenodd"/></svg>