<?xml version="1.0" encoding="utf-8"?>
<!-- Generator: Adobe Illustrator 24.2.0, SVG Export Plug-In . SVG Version: 6.00 Build 0)  -->
<svg version="1.0" xmlns="http://www.w3.org/2000/svg" xmlns:xlink="http://www.w3.org/1999/xlink" x="0px" y="0px"
	 viewBox="0 0 24 24" enable-background="new 0 0 24 24" xml:space="preserve">
<g id="SVG_x5F_24x24pt">
	<path id="backgroundBlue" fill="#2D327D" d="M0,22.5v-21C0,0.675,0.675,0,1.5,0h21C23.325,0,24,0.675,24,1.5v21
		c0,0.825-0.675,1.5-1.5,1.5h-21C0.675,24,0,23.325,0,22.5z"/>
	<g id="content">
		<path fill="#FFFFFF" d="M19.372,12.44l-0.009-0.024c-0.168-0.373-0.189-0.699-0.066-1.026l-0.38-0.143
			c-0.159,0.424-0.136,0.856,0.071,1.323c0.203,0.673,0.064,1.13,0.015,1.217l-0.462,0.685l-0.33-0.223
			c-0.126-0.085-0.3-0.052-0.385,0.075l-1.391,2.062c-0.085,0.126-0.052,0.3,0.075,0.385l0.219,0.148
			c-0.027,0.021-0.052,0.045-0.072,0.075l-1.323,1.961c-0.104,0.154-0.063,0.365,0.091,0.469l0.028,0.019
			c0.154,0.104,0.365,0.063,0.469-0.091l1.323-1.961c0.02-0.03,0.033-0.062,0.043-0.095l0.219,0.148
			c0.126,0.085,0.3,0.052,0.385-0.075l1.391-2.062c0.085-0.126,0.052-0.3-0.075-0.385l-0.33-0.223l0.465-0.689l0.005-0.008
			C19.481,13.78,19.599,13.181,19.372,12.44z"/>
		<path fill="#FFFFFF" d="M15.918,6.426c1.676,2.167,1.278,5.281-0.888,6.957c-0.825,0.638-1.291,1.637-1.25,2.681
			c0.03,0.763-0.15,1.519-0.52,2.188c-0.195,0.352-0.473,0.649-0.812,0.866c-1.124,0.721-2.619,0.393-3.34-0.731
			c-0.143-0.222-0.078-0.517,0.144-0.66c0.222-0.142,0.519-0.077,0.66,0.145c0.436,0.679,1.34,0.877,2.02,0.442
			c0.204-0.131,0.372-0.312,0.49-0.523c0.285-0.516,0.424-1.1,0.4-1.689c-0.053-1.352,0.552-2.645,1.621-3.473
			c1.75-1.353,2.07-3.868,0.717-5.616s-3.867-2.07-5.615-0.717C8.635,6.999,8.07,8.063,8,9.214C7.984,9.477,7.757,9.678,7.493,9.661
			C7.23,9.646,7.029,9.419,7.046,9.156C7.133,7.73,7.831,6.411,8.961,5.537C11.127,3.861,14.243,4.259,15.918,6.426z"/>
		<path fill="#FFFFFF" d="M14.648,7.409c1.133,1.465,0.864,3.57-0.601,4.703c-0.095,0.073-0.187,0.151-0.275,0.232
			c-0.159,0.142-0.403,0.129-0.546-0.03c-0.143-0.158-0.13-0.403,0.028-0.545c0.104-0.093,0.21-0.183,0.32-0.268
			c1.128-0.872,1.335-2.493,0.463-3.62c-0.872-1.127-2.493-1.334-3.621-0.462C10.142,7.632,9.913,7.898,9.743,8.2
			C9.639,8.387,9.404,8.453,9.218,8.349C9.032,8.245,8.965,8.01,9.069,7.823c0.22-0.393,0.517-0.74,0.874-1.015
			C11.409,5.674,13.515,5.944,14.648,7.409z"/>
		<path fill="#FFFFFF" d="M9.814,14.185c-1.075-0.515-1.941-1.382-2.457-2.457L3,16.084V21L9.814,14.185z"/>
		<path fill="#FFFFFF" d="M15.21,3.874c1.03,0.577,1.881,1.427,2.459,2.457l1.618-1.618c0,0,0,0,0,0L21,3h-4.916L15.21,3.874z"/>
	</g>
</g>
</svg>
