<svg xmlns="http://www.w3.org/2000/svg" width="48" height="48" fill="none" viewBox="0 0 48 48"><path fill="#000" fill-rule="evenodd" d="M20.5 17H17v1h3v10h-2.22l-1.854-3.012-2-3.25-.426-.691-.426.692-1.656 2.69A4.504 4.504 0 0 0 5 28.5c0 2.483 2.017 4.501 4.5 4.501a4.506 4.506 0 0 0 4.472-4h15.225l.144-.134 6.89-6.432.513 1.922A4.51 4.51 0 0 0 34 28.5c0 2.482 2.017 4.5 4.5 4.5s4.5-2.018 4.5-4.5a4.504 4.504 0 0 0-5.297-4.43l-.72-2.699-.099-.371H21v-4zm-6.528 11h2.633l-1.53-2.488-1.575-2.557-1.23 2A4.5 4.5 0 0 1 13.971 28m-2.231-2.187A3.5 3.5 0 0 1 12.964 28h-2.57zm-.851-.525-1.816 2.95-.469.762h4.359A3.506 3.506 0 0 1 9.5 32C7.57 32 6 30.43 6 28.5a3.504 3.504 0 0 1 4.89-3.212m26.115.047.012.044.002.01.003.009 1 3.25.956-.295-.997-3.24-.02-.072q.264-.04.539-.041c1.93 0 3.5 1.57 3.5 3.5S40.43 32 38.5 32 35 30.43 35 28.5c0-1.395.82-2.603 2.005-3.165M28.803 28H21v-6h14.231zM14 20h-4v-1h4z" clip-rule="evenodd"/></svg>