<svg xmlns="http://www.w3.org/2000/svg" width="16" height="16" fill="none" viewBox="0 0 16 16"><path fill="#000" d="M5.557 4.414C6.235 4.07 7 4.587 7 5.311V10H6v5H3v-5H2V5.31c0-.696.686-1.158 1.313-.95l.125.05.005.003L4.5 4.94zm7.933.988 1 5 .12.598H13v4h-3v-4H8.39l.12-.598 1-5L9.59 5h3.82zM4 14h1v-4H4zm7 0h1v-3h-1zm-1.39-4h3.78l-.8-4h-2.18zM4.723 5.947 4.5 6.06l-.224-.113-1.275-.637H3V9h3V5.309zM4.5 1a1.5 1.5 0 1 1 0 3 1.5 1.5 0 0 1 0-3m7 0a1.5 1.5 0 1 1 0 3 1.5 1.5 0 0 1 0-3m-7 1a.5.5 0 1 0 0 1 .5.5 0 0 0 0-1m7 0a.5.5 0 1 0 0 1 .5.5 0 0 0 0-1"/></svg>