<svg xmlns="http://www.w3.org/2000/svg" width="16" height="16" fill="none" viewBox="0 0 16 16"><path fill="#000" d="M12.307 4.86q1.266 0 2.042.828.552.587.612 1.349h-1.318q-.111-.514-.462-.796c-.24-.188-.535-.281-.902-.281q-.868 0-1.302.728c-.217.37-.323.818-.323 1.354q-.002.822.34 1.37c.289.47.712.701 1.274.701q.602.001.962-.353.358-.357.44-1.028H15q-.066.944-.635 1.614c-.495.585-1.201.877-2.108.877q-1.451.002-2.259-1.015-.692-.87-.69-2.171c0-.906.273-1.669.818-2.27q.82-.906 2.18-.907m-8.98 4.552L4.398 5h1.264l1.074 4.379.996-4.38h1.335L7.41 11H6.07L5.011 6.716 3.988 11H2.631L1 5h1.34z"/></svg>