<svg xmlns="http://www.w3.org/2000/svg" width="24" height="24" fill="none" viewBox="0 0 24 24"><path fill="#000" fill-rule="evenodd" d="M2 4h20v5h-.5c-1.424 0-2.5 1.076-2.5 2.5s1.076 2.5 2.5 2.5h.5v5H2V4m1 1v13h13v-.465h1V18h4v-3.033c-1.727-.233-3-1.661-3-3.467s1.273-3.234 3-3.467V5h-4v.464h-1V5zm3.997 1.997a1 1 0 1 0 0 2 1 1 0 0 0 0-2m-2 1a2 2 0 1 1 4 0 2 2 0 0 1-4 0M10 15a1 1 0 1 1 2 0 1 1 0 0 1-2 0m1-2a2 2 0 1 0 0 4 2 2 0 0 0 0-4m2.854-5.647-9 9-.708-.707 9-9zM16 6.393v.928h1v-.928zm0 1.857v.928h1V8.25zm0 1.857v.929h1v-.93zm0 1.857v.929h1v-.929zm0 1.857v.929h1v-.929zm0 1.857v.929h1v-.929z" clip-rule="evenodd"/></svg>