<svg xmlns="http://www.w3.org/2000/svg" width="36" height="36" viewBox="0 0 36 36">
  <path fill="none" stroke="#000" d="M23.2515,18 C23.2515,20.931 20.931,23.25 18,23.25 C15.069,23.25 12.75,20.931 12.75,18 C12.75,15.069 15.069,12.756 18,12.756 C20.931,12.756 23.2515,15.069 23.2515,18 Z M30.7647,10.5 C30.7647,11.766 29.7657,12.75 28.4997,12.75 C27.2337,12.75 26.2497,11.766 26.2497,10.5 C26.2497,9.234 27.2337,8.2425 28.4997,8.2425 C29.7657,8.2425 30.7647,9.234 30.7647,10.5 Z M32.25,23.25 C32.25,24.954 30.954,26.25 29.25,26.25 C27.546,26.25 26.25,24.954 26.25,23.25 C26.25,21.546 27.546,20.25 29.25,20.25 C30.954,20.25 32.25,21.546 32.25,23.25 Z M11.25885,27.747 C11.25885,29.442 9.94485,30.75 8.24985,30.75 C6.55635,30.75 5.24985,29.442 5.24985,27.747 C5.24985,26.0535 6.55635,24.75 8.24985,24.75 C9.94485,24.75 11.25885,26.0535 11.25885,27.747 Z M11.25,6 C11.25,7.275 10.275,8.25 9,8.25 C7.725,8.25 6.75,7.275 6.75,6 C6.75,4.725 7.725,3.75 9,3.75 C10.275,3.75 11.25,4.725 11.25,6 Z M10.4604,7.7271 L14.8629,13.7751 M26.6469,11.7957 L22.2339,14.8692 M26.5224,21.9624 L22.7694,20.2254 M10.36965,25.59375 L14.30715,21.75375"/>
</svg>
