<svg class="color-immutable" xmlns="http://www.w3.org/2000/svg" width="59" height="20" fill="none" viewBox="0 0 59 20"><path fill="#E84E10" fill-rule="evenodd" d="M2 0a2 2 0 0 0-2 2v16a2 2 0 0 0 2 2h55a2 2 0 0 0 2-2V2a2 2 0 0 0-2-2z" clip-rule="evenodd"/><path fill="#000" d="M14.153 4.17v2.142H7.98v2.476h5.657v1.991H7.98v2.849h6.284v2.142H5.45V4.17zM25.311 4.17l-3.856 11.6h-2.88l-3.8-11.6h2.65l2.61 8.688 2.65-8.688zM33.613 13.707v2.063h-8.355q0-.945.301-1.801a4.4 4.4 0 0 1 .865-1.476 8 8 0 0 1 1-.928q.579-.453 2.293-1.659.833-.578 1.167-1.079a2.04 2.04 0 0 0 .333-1.158q0-.762-.452-1.23-.445-.476-1.175-.476-1.793 0-1.849 2.579h-2.23v-.254q0-2.11 1.183-3.27 1.15-1.126 2.976-1.126 1.618 0 2.705.92 1.182 1 1.182 2.69 0 1.476-.944 2.54-.31.348-.579.563-.27.206-1.42 1.007-1.095.762-1.571 1.167a6.4 6.4 0 0 0-.873.928zM34.258 12.858h2.19q.27 1.35 1.563 1.349.73 0 1.182-.492.46-.5.706-1.547.16-.667.23-1.516-.531.747-1.094 1.064-.556.309-1.357.309-1.278 0-2.222-.746a3.56 3.56 0 0 1-1.032-1.357 4.5 4.5 0 0 1-.364-1.809q0-1.959 1.34-3.174 1.15-1.047 2.762-1.047.99 0 1.833.444.84.445 1.412 1.262 1.008 1.452 1.008 4.078 0 2.429-.889 4.142-1.158 2.23-3.507 2.23-1.563 0-2.587-.865-1.015-.866-1.174-2.325m3.856-7.006q-.746 0-1.261.61-.516.62-.516 1.572 0 .77.373 1.365.507.817 1.428.817.833 0 1.333-.667.468-.627.468-1.491 0-.913-.484-1.548a1.61 1.61 0 0 0-1.34-.658"/></svg>