<svg xmlns="http://www.w3.org/2000/svg" width="27" height="16" fill="none" viewBox="0 0 27 16"><path fill="#000" fill-rule="evenodd" d="M3.307 14.267q-.525-.795-.87-1.407-.346-.615-.894-1.833Q1.001 9.809 1 8.004q0-1.75.59-3.123.59-1.37 1.717-3.12h1.274a33 33 0 0 0-.947 1.75 25 25 0 0 0-.78 1.831q-.455 1.164-.455 2.68-.002 1.553.499 2.805.5 1.255.771 1.814.274.559.91 1.624H3.307zm6.782-4.478L8.18 7.64l-.855-1.028a3.6 3.6 0 0 1-.692-2.163q0-1.64 1.21-3.1l.199-.215L8.14 1l4.84 5.462-.005-2.067 3.742-3.393.887.953-3.324 3.015.002 1.59 4.102-3.758.914.979-4.127 3.753 1.616.104L20.1 4.647l.908.937-3.725 3.393-2.2-.143 4.145 4.674L17.52 15l-4.284-4.835-.093-.343-.106.325L7.724 15l-1.527-1.652zM8.214 3.474q-.092.217-.128.425a2.5 2.5 0 0 0-.035.406q0 .995.741 1.844l.51.576 1.834 2.095 1.086-.972-3.856-4.38-.134-.355zM23.04 1.76q1.035 1.605 1.673 3.032.635 1.424.636 3.212 0 .885-.18 1.75a8.2 8.2 0 0 1-.52 1.632 15 15 0 0 1-.627 1.291q-.29.523-.982 1.59H21.77q.638-1.102.945-1.741.309-.64.772-1.823.464-1.182.465-2.716 0-1.535-.482-2.77t-.78-1.823q-.301-.586-.92-1.634z" clip-rule="evenodd"/></svg>