<svg xmlns="http://www.w3.org/2000/svg" width="36" height="36" fill="none" viewBox="0 0 36 36"><path stroke="#000" d="M8.994 16.62c-4.817 0-5.774 9.63 1.8 9.63h15.752c7.473 0 7.2-9.63 1.575-9.406 2.475-8.287-8.55-12.095-11.926-4.48-2.972-2.423-7.723-.097-7.2 4.255Z"/><path fill="#000" d="M14.275 21.406h1.468v.189q-.005.98-.26 1.485-.263.514-.707.743-.453.237-1.213.237-.95 0-1.446-.444a1.86 1.86 0 0 1-.567-.977q-.15-.61-.15-1.94 0-1.1.1-1.662.098-.562.354-.918.545-.756 1.775-.756 1.068 0 1.569.523.295.304.392.675.101.371.1 1.166H14.23v-.14q0-.524-.08-.783-.117-.404-.53-.404-.502 0-.59.624-.08.531-.079 1.578 0 1.19.075 1.757.091.673.598.673.378 0 .514-.343t.136-1.283M18.56 17.358q1.441 0 1.916.967a2.9 2.9 0 0 1 .26.904q.075.52.074 1.5 0 1.485-.255 2.193-.413 1.142-2 1.142-1.573 0-1.995-1.173-.25-.694-.25-2.237 0-.93.083-1.469a2.9 2.9 0 0 1 .29-.921q.48-.906 1.877-.906m-.005 1.046q-.435 0-.567.444-.123.41-.123 1.815 0 1.292.101 1.789.12.588.594.588.42.001.558-.433.136-.431.136-1.786 0-1.507-.123-1.955-.128-.462-.576-.462M21.486 19.534q0-.993.3-1.442.482-.73 1.726-.73.993 0 1.499.458.483.444.483 1.402 0 .711-.285 1.217-.198.352-.774.9-.654.626-.851.858-.195.233-.331.553h2.268v1.17h-4.065a3.5 3.5 0 0 1 .33-1.556q.197-.418.412-.673t1.191-1.243q.378-.383.497-.621.119-.24.119-.619 0-.438-.128-.641-.128-.202-.404-.202-.33 0-.451.249-.12.247-.12.92z"/></svg>