<svg xmlns="http://www.w3.org/2000/svg" width="36" height="36" viewBox="0 0 36 36">
  <g fill="none" fill-rule="evenodd">
    <path stroke="#000" d="M6.75,9.765 L29.25,9.765 L29.25,26.265 L6.75,26.22 L6.75,9.765 Z M6.75,14.27955 L29.25,14.27955 M11.25,11.99955 L11.25,7.49955 M24.75,11.99955 L24.75,7.49955"/>
    <path fill="#000" d="M19.7622,16.5003 L19.7622,24.0003 L18.2637,24.0003 L18.2637,19.0908 L17.7312,19.0908 L17.1987,19.0908 L16.6797,19.0908 L16.4997,19.0908 L16.4997,18.0033 C16.8657,17.9928 17.1642,17.9553 17.3952,17.8908 C17.6262,17.8248 17.8362,17.7183 18.0282,17.5713 C18.3057,17.3598 18.4917,17.0028 18.5877,16.5003 L19.7622,16.5003 Z"/>
  </g>
</svg>
