<svg xmlns="http://www.w3.org/2000/svg" width="16" height="16" fill="none" viewBox="0 0 16 16"><path fill="#000" fill-rule="evenodd" d="M8 1C5.264 1 3 3.107 3 5.762v.021c.035.833.297 1.531.704 2.174l.007.01 3.886 5.811.416.621.416-.621 3.886-5.81.007-.01.006-.011c.393-.654.664-1.367.672-2.18v-.005C13 3.107 10.735 1 8 1M4.546 7.416C4.22 6.901 4.028 6.374 4 5.752 4.006 3.704 5.768 2 8 2c2.234 0 3.999 1.708 4 3.76-.006.58-.195 1.115-.523 1.661l-3.464 5.18zM6.5 6a1.5 1.5 0 1 1 3 0 1.5 1.5 0 0 1-3 0M8 3.5a2.5 2.5 0 1 0 0 5 2.5 2.5 0 0 0 0-5" clip-rule="evenodd"/></svg>