<svg xmlns="http://www.w3.org/2000/svg" width="24" height="24" fill="none" viewBox="0 0 24 24"><path fill="#000" fill-rule="evenodd" d="M12.5 3.5a.5.5 0 1 0-1 0 .5.5 0 0 0 1 0M12 2a1.5 1.5 0 0 1 1.368 2.116 7.96 7.96 0 0 1 3.234 1.34 1.5 1.5 0 1 1 1.943 1.942 7.96 7.96 0 0 1 1.346 3.28 1.5 1.5 0 1 1-.016 2.736 7.96 7.96 0 0 1-1.33 3.188 1.5 1.5 0 1 1-1.943 1.943 8 8 0 0 1-1.005.602l.867 2.167.274.686H7.261l.275-.686.867-2.167a8 8 0 0 1-1.005-.602 1.5 1.5 0 1 1-1.943-1.943 7.96 7.96 0 0 1-1.346-3.28 1.5 1.5 0 1 1 .016-2.736 7.96 7.96 0 0 1 1.33-3.188 1.5 1.5 0 1 1 1.943-1.943 7.96 7.96 0 0 1 3.234-1.339A1.5 1.5 0 0 1 12 2M6.427 6.26a.5.5 0 1 0-.166.166zM6.26 17.575a.5.5 0 1 0 .165.165zm11.313.165a.5.5 0 1 0 .165-.165zm.165-11.312a.5.5 0 1 0-.166-.166q.084.082.166.166m2.407 5.977a.5.5 0 1 0 .708-.707.5.5 0 0 0-.708.707M13.5 12a1.5 1.5 0 1 1-3 0 1.5 1.5 0 0 1 3 0m-3.586 1.379A2.5 2.5 0 0 1 9.5 12c0-.51.152-.983.414-1.379L6.71 7.416A6.97 6.97 0 0 0 5 12c0 1.753.644 3.355 1.71 4.584zm.707-3.465L7.416 6.71A6.97 6.97 0 0 1 12 5c1.753 0 3.356.645 4.584 1.71l-3.205 3.204A2.5 2.5 0 0 0 12 9.5c-.51 0-.983.152-1.379.414m3.465.708 3.205-3.205A6.97 6.97 0 0 1 19 12a6.97 6.97 0 0 1-1.71 4.584l-3.204-3.205c.262-.396.414-.87.414-1.379 0-.51-.153-.983-.414-1.378m-10.232.974a.5.5 0 1 0-.708.707.5.5 0 0 0 .708-.707m9.848 2.813 2.882 2.882c-.414.358-.87.67-1.36.924zm-3.405 0-1.521 3.806a7 7 0 0 1-1.36-.924zm-.79 4.671 1.832-4.58h1.323l1.831 4.58.768 1.92H8.74z" clip-rule="evenodd"/></svg>