<?xml version="1.0" encoding="utf-8"?>
<!-- Generator: Adobe Illustrator 24.2.0, SVG Export Plug-In . SVG Version: 6.00 Build 0)  -->
<svg version="1.0" id="Ebene_1" xmlns="http://www.w3.org/2000/svg" xmlns:xlink="http://www.w3.org/1999/xlink" x="0px" y="0px"
	 viewBox="0 0 24 24" enable-background="new 0 0 24 24" xml:space="preserve">
<g id="SVG_x5F_24x24pt">
	<path id="backgroundBlue" fill="#2D327D" d="M0,22.5v-21C0,0.675,0.675,0,1.5,0h21C23.325,0,24,0.675,24,1.5v21
		c0,0.825-0.675,1.5-1.5,1.5h-21C0.675,24,0,23.325,0,22.5z"/>
	<g id="content_1_">
		<g>
			<path fill="#FFFFFF" d="M9.352,9.758v11.243H7.107v-7.36h-0.8h-0.8H4.73H4.461v-1.63c0.549-0.015,0.996-0.072,1.342-0.169
				c0.346-0.097,0.663-0.256,0.95-0.477c0.415-0.318,0.695-0.854,0.838-1.607H9.352z"/>
			<path fill="#FFFFFF" d="M12.521,18.179h2.123c0.174,0.872,0.679,1.307,1.515,1.307c0.472,0,0.855-0.16,1.15-0.481
				c0.295-0.32,0.522-0.819,0.681-1.496c0.102-0.431,0.177-0.92,0.223-1.469c-0.344,0.482-0.696,0.824-1.057,1.027
				c-0.361,0.203-0.801,0.304-1.319,0.304c-0.826,0-1.543-0.241-2.153-0.723c-0.426-0.338-0.758-0.777-0.996-1.315
				c-0.238-0.538-0.358-1.123-0.358-1.753c0-1.266,0.433-2.292,1.3-3.076c0.743-0.677,1.635-1.015,2.676-1.015
				c0.641,0,1.233,0.144,1.776,0.431c0.543,0.287,1,0.695,1.369,1.223c0.651,0.938,0.977,2.256,0.977,3.953
				c0,1.569-0.287,2.907-0.861,4.014c-0.749,1.441-1.882,2.161-3.399,2.161c-1.01,0-1.845-0.279-2.503-0.838
				C13.004,19.874,12.623,19.123,12.521,18.179z M16.258,11.389c-0.482,0-0.89,0.197-1.223,0.592c-0.333,0.4-0.5,0.907-0.5,1.523
				c0,0.497,0.12,0.938,0.361,1.323c0.328,0.528,0.789,0.792,1.384,0.792c0.538,0,0.969-0.215,1.292-0.646
				c0.302-0.405,0.454-0.887,0.454-1.446c0-0.59-0.156-1.089-0.469-1.5C17.23,11.602,16.797,11.389,16.258,11.389z"/>
		</g>
		<g id="Binario">
			<path fill="#FFFFFF" d="M3.001,3h1.012C4.23,3,4.392,3.027,4.499,3.082c0.1,0.051,0.176,0.126,0.228,0.223
				C4.77,3.387,4.791,3.474,4.791,3.566c0,0.103-0.026,0.194-0.078,0.274C4.66,3.92,4.584,3.983,4.485,4.029
				C4.571,4.058,4.636,4.088,4.679,4.12c0.146,0.107,0.218,0.262,0.218,0.466c0,0.121-0.027,0.23-0.081,0.326
				S4.685,5.086,4.585,5.144c-0.119,0.07-0.279,0.105-0.481,0.105H3.001V3z M3.491,3.386v0.524H3.94
				c0.105,0,0.181-0.012,0.231-0.037c0.091-0.044,0.137-0.12,0.137-0.228c0-0.091-0.029-0.157-0.086-0.198
				C4.165,3.407,4.071,3.386,3.94,3.386H3.491z M3.491,4.246v0.617h0.497c0.143,0,0.243-0.02,0.3-0.06
				c0.076-0.054,0.114-0.137,0.114-0.248c0-0.132-0.051-0.223-0.154-0.271C4.192,4.259,4.097,4.246,3.964,4.246H3.491z"/>
			<path fill="#FFFFFF" d="M5.637,3v0.401H5.191V3H5.637z M5.637,3.572v1.677H5.191V3.572H5.637z"/>
			<path fill="#FFFFFF" d="M6.417,3.574v0.235c0.052-0.072,0.101-0.125,0.146-0.158c0.111-0.086,0.244-0.129,0.4-0.129
				c0.137,0,0.254,0.035,0.349,0.105c0.076,0.055,0.129,0.125,0.159,0.21c0.03,0.085,0.045,0.204,0.045,0.358v1.055H7.072V4.287
				c0-0.108-0.009-0.187-0.028-0.237C7.027,4.006,6.997,3.972,6.955,3.946C6.907,3.918,6.852,3.904,6.791,3.904
				c-0.068,0-0.129,0.016-0.185,0.049C6.551,3.986,6.51,4.031,6.483,4.087C6.453,4.151,6.438,4.25,6.438,4.384v0.864H5.992V3.574
				H6.417z"/>
			<path fill="#FFFFFF" d="M9.379,5.249H8.924C8.904,5.183,8.895,5.127,8.895,5.081c-0.139,0.143-0.319,0.214-0.54,0.214
				c-0.172,0-0.307-0.04-0.403-0.12C7.841,5.083,7.786,4.954,7.786,4.789c0-0.21,0.095-0.356,0.285-0.437
				c0.077-0.033,0.218-0.063,0.425-0.091c0.177-0.024,0.288-0.046,0.331-0.068S8.892,4.126,8.892,4.06
				c0-0.147-0.097-0.22-0.292-0.22c-0.104,0-0.179,0.018-0.227,0.055S8.293,3.996,8.278,4.087H7.856
				C7.87,3.901,7.94,3.76,8.067,3.665C8.194,3.57,8.375,3.523,8.61,3.523c0.259,0,0.451,0.053,0.575,0.158
				C9.243,3.731,9.281,3.783,9.3,3.84c0.019,0.056,0.028,0.146,0.028,0.268c0,0.026-0.002,0.138-0.005,0.338
				C9.322,4.648,9.321,4.764,9.321,4.793c0,0.122,0.004,0.211,0.011,0.268C9.339,5.119,9.355,5.181,9.379,5.249z M8.889,4.438
				C8.831,4.474,8.726,4.502,8.575,4.523C8.468,4.539,8.391,4.56,8.344,4.586c-0.067,0.036-0.1,0.097-0.1,0.183
				c0,0.07,0.022,0.124,0.066,0.163C8.354,4.971,8.416,4.99,8.495,4.99c0.131,0,0.237-0.046,0.318-0.138
				C8.842,4.82,8.862,4.787,8.872,4.753c0.011-0.034,0.016-0.08,0.016-0.136V4.438z"/>
			<path fill="#FFFFFF" d="M10.716,3.541v0.432c-0.072-0.013-0.13-0.02-0.174-0.02c-0.166,0-0.288,0.07-0.366,0.209
				c-0.044,0.078-0.066,0.208-0.066,0.391v0.695H9.664v-1.68h0.425v0.306c0.121-0.228,0.297-0.341,0.528-0.341
				C10.644,3.534,10.678,3.536,10.716,3.541z"/>
			<path fill="#FFFFFF" d="M11.373,3v0.401h-0.446V3H11.373z M11.373,3.572v1.677h-0.446V3.572H11.373z"/>
			<path fill="#FFFFFF" d="M12.534,3.523c0.244,0,0.443,0.081,0.598,0.243c0.153,0.16,0.229,0.373,0.229,0.64
				c0,0.276-0.082,0.496-0.245,0.66c-0.153,0.153-0.352,0.229-0.597,0.229c-0.261,0-0.47-0.085-0.624-0.255
				c-0.148-0.162-0.221-0.372-0.221-0.631c0-0.254,0.072-0.461,0.215-0.62C12.048,3.612,12.263,3.523,12.534,3.523z M12.511,3.871
				c-0.118,0-0.212,0.048-0.281,0.143c-0.071,0.096-0.106,0.228-0.106,0.395c0,0.173,0.035,0.306,0.105,0.398
				c0.072,0.093,0.17,0.14,0.294,0.14c0.116,0,0.208-0.043,0.275-0.128c0.077-0.094,0.115-0.231,0.115-0.411
				c0-0.168-0.034-0.299-0.102-0.392C12.74,3.919,12.64,3.871,12.511,3.871z"/>
		</g>
	</g>
</g>
</svg>
