<svg xmlns="http://www.w3.org/2000/svg" width="48" height="48" fill="none" viewBox="0 0 48 48"><path fill="#000" fill-rule="evenodd" d="m24.885 8.512-.375-.423-.374.423c-6.515 7.362-8.044 15.084-7.938 20.964q.022 1.13.114 2.161c-2.112 1.162-2.93 2.996-3.21 4.541a8.6 8.6 0 0 0-.044 2.698 5 5 0 0 0 .04.228l.002.014.001.005v.001l.49-.104-.49.105.185.855.643-.592c1.172-1.08 2.33-1.706 3.426-2.03.154.536.298.978.415 1.312a16 16 0 0 0 .259.689l.015.038.005.01.001.004c0 .001.001.001.46-.196l-.459.197.279.648.518-.477.002-.002.01-.009.045-.039a9.855 9.855 0 0 1 .91-.677 10.3 10.3 0 0 1 2.592-1.233A8.2 8.2 0 0 1 24 37.298V40h1v-2.734c1.598.06 3.377.666 5.172 2.317l.519.477.279-.648-.46-.197.46.197v-.001l.002-.003.004-.01.016-.039.057-.144q.076-.188.202-.545c.115-.33.258-.766.41-1.295 1.078.33 2.216.952 3.367 2.013l.644.592.184-.855-.489-.105.489.104v-.002l.001-.004.003-.015.01-.049q.012-.063.029-.177a8.582 8.582 0 0 0-.04-2.677c-.273-1.534-1.075-3.361-3.153-4.53.061-.697.103-1.43.116-2.194.106-5.88-1.422-13.602-7.937-20.964M14.087 36.356c.223-1.24.83-2.644 2.34-3.623.173 1.412.42 2.647.67 3.658-1.021.299-2.07.822-3.116 1.64a7.5 7.5 0 0 1 .106-1.675m20.89 1.675c-1.027-.803-2.055-1.321-3.059-1.623.25-1.004.497-2.233.671-3.638 1.474.982 2.067 2.376 2.285 3.605.111.627.123 1.206.102 1.656M25 36.266c1.654.054 3.474.617 5.297 2.102l.01-.029c.157-.45.37-1.113.586-1.955a30.3 30.3 0 0 0 .93-6.926c.078-4.331-.759-9.698-3.96-15.167-2.78 1.302-5.446.504-6.69-.026-3.214 5.478-4.053 10.855-3.975 15.193.051 2.843.497 5.241.93 6.926.215.842.428 1.505.586 1.955l.019.055q.226-.17.534-.373a11.3 11.3 0 0 1 2.847-1.354A9 9 0 0 1 24 36.294V32h1zm-3.3-22.865c1.145.464 3.352 1.053 5.64.03a33 33 0 0 0-2.83-3.826 33 33 0 0 0-2.81 3.796M22 22.5a2.5 2.5 0 1 1 5 0 2.5 2.5 0 0 1-5 0m2.5-3.5a3.5 3.5 0 1 0 0 7 3.5 3.5 0 0 0 0-7" clip-rule="evenodd"/></svg>