<svg xmlns="http://www.w3.org/2000/svg" width="48" height="48" fill="none" viewBox="0 0 48 48"><path fill="#000" d="M46 11H31v25h15v1H31v2h15v1h-4.108a3.5 3.5 0 0 1-.977 1.973A3.45 3.45 0 0 1 38.464 43c-.92 0-1.802-.37-2.451-1.027A3.5 3.5 0 0 1 35.036 40H30v-2h-2v1h-1v-1h-2v2h-4.036a3.5 3.5 0 0 1-6.928 0H2v-1h22v-2H2v-1h23v1h2v-1h1v1h2V10h16zM15.052 40a2.5 2.5 0 0 0 4.896 0zm20.998 0c.096.478.329.92.674 1.27.462.468 1.088.73 1.74.73s1.278-.262 1.74-.73c.345-.35.578-.792.674-1.27zM10 14h7.12a2.5 2.5 0 0 1 1.844.813l5.38 5.881A2.5 2.5 0 0 1 25 22.382V30.5a2.5 2.5 0 0 1-2.5 2.5h-4.626a4.002 4.002 0 0 1-7.748 0H2v-1h8a4 4 0 0 1 8 0h4v-2.5a1.5 1.5 0 0 1 1.5-1.5h.5v-5H14v-8h-4v14H2v-1h7V11H2v-1h8zm4 15a3 3 0 1 0 0 6 3 3 0 0 0 0-6m21 5h-1V13h1zm4 0h-1V13h1zm4 0h-1V13h1zm-19.5-5a.5.5 0 0 0-.5.5v2.412c.582-.206 1-.76 1-1.412V29zM17 26h-3v-1h3zm-2-4h8.95a1.5 1.5 0 0 0-.344-.63l-5.38-5.883A1.5 1.5 0 0 0 17.119 15H15z"/></svg>