<svg class="color-immutable" xmlns="http://www.w3.org/2000/svg" width="59" height="20" fill="none" viewBox="0 0 59 20"><path fill="#000" d="M1.792 0h55.416C58.197 0 59 .806 59 1.8v16.4c0 .994-.801 1.8-1.792 1.8H1.792A1.797 1.797 0 0 1 0 18.2V1.8C0 .806.803 0 1.792 0"/><path fill="#FFDE15" d="M12.8 7.661h-2.405q-.07-.846-.633-1.289-.553-.45-1.558-.45-.894 0-1.392.355-.49.349-.49.981 0 .57.474.823.459.252 2.326.712 1.97.49 2.729.988 1.4.918 1.4 2.555 0 1.796-1.408 2.832-1.242.91-3.362.91-2.357 0-3.662-1.076t-1.353-3.061h2.515q.055.964.499 1.432.696.743 2.096.743.95 0 1.503-.372.624-.427.625-1.162 0-.736-.878-1.076-.483-.19-2.278-.688-1.125-.309-1.756-.586-.633-.276-1.013-.617-.886-.79-.886-2.183 0-1.669 1.384-2.642 1.18-.83 3.062-.83 1.653 0 2.768.656 1.606.942 1.693 3.045M24.515 4.236v11.565h-2.54l-4.84-7.879.031 7.879h-2.428V4.236h2.57l4.81 7.863-.031-7.863zM27.98 9.592q-.807-.277-1.242-.91-.427-.633-.427-1.535 0-1.502 1.233-2.397 1.092-.79 2.595-.79 1.71 0 2.792.94 1.029.887 1.029 2.192 0 .91-.435 1.558-.435.649-1.234.941.624.182 1.02.467 1.1.799 1.1 2.334 0 1.764-1.353 2.808-1.14.878-2.927.878-1.938 0-3.085-.965-1.194-1.005-1.194-2.634 0-1.527 1.06-2.365a2.9 2.9 0 0 1 1.068-.523m2.127-3.837q-.76 0-1.226.427-.466.42-.466 1.108 0 .72.466 1.155.476.427 1.266.427t1.25-.427q.459-.428.459-1.163 0-.72-.467-1.123-.459-.404-1.282-.404m-.015 4.707q-.855 0-1.4.53-.539.522-.538 1.344 0 .847.545 1.377.555.53 1.432.53.997 0 1.495-.586.483-.56.483-1.297 0-.839-.554-1.376-.53-.522-1.463-.522M43.317 13.744v2.057h-8.329q0-.942.3-1.796.31-.855.863-1.47.427-.476.996-.926.577-.451 2.287-1.654.83-.577 1.162-1.075.333-.5.333-1.155 0-.76-.451-1.226-.444-.475-1.171-.475-1.788 0-1.843 2.57H35.24v-.252q0-2.105 1.179-3.26 1.146-1.123 2.966-1.123 1.614 0 2.697.918 1.179.997 1.179 2.682 0 1.47-.941 2.53-.309.349-.578.563-.269.205-1.416 1.004-1.091.76-1.566 1.163a6.4 6.4 0 0 0-.87.925z"/></svg>