<?xml version="1.0" encoding="utf-8"?>
<!-- Generator: Adobe Illustrator 24.2.0, SVG Export Plug-In . SVG Version: 6.00 Build 0)  -->
<svg version="1.0" id="Ebene_1" xmlns="http://www.w3.org/2000/svg" xmlns:xlink="http://www.w3.org/1999/xlink" x="0px" y="0px"
	 viewBox="0 0 24 24" enable-background="new 0 0 24 24" xml:space="preserve">
<g id="SVG_x5F_24x24pt">
	<path id="backgroundBlue" fill="#2D327D" d="M0,22.5v-21C0,0.675,0.675,0,1.5,0h21C23.325,0,24,0.675,24,1.5v21
		c0,0.825-0.675,1.5-1.5,1.5h-21C0.675,24,0,23.325,0,22.5z"/>
	<g id="content">
		<path fill="#FFFFFF" d="M7.395,17.546c-0.231,0.27-0.509,0.498-0.822,0.671l1.711,2.446c0.168,0.239,0.498,0.298,0.737,0.13
			c0.239-0.168,0.297-0.498,0.13-0.737L7.395,17.546L7.395,17.546z"/>
		<path fill="#FFFFFF" d="M13.075,16.379l-1.915,3.758c-0.133,0.26-0.029,0.579,0.231,0.712c0.26,0.133,0.579,0.029,0.712-0.231
			l2.16-4.239H13.075L13.075,16.379z"/>
		<path fill="#FFFFFF" d="M16.483,13.484l0.422-0.729l-2.461-2.474l-0.535,0.521c-0.166,0.161-0.49,0.293-0.721,0.293h-1.016
			L3.708,2.631L2.648,3.692l7.402,7.402H5.173c-0.818,0-1.482-0.663-1.482-1.482c0-0.818,0.663-1.482,1.482-1.482
			c0.217,0,0.392-0.176,0.392-0.392c0-0.217-0.176-0.392-0.392-0.392c-1.252,0-2.266,1.015-2.266,2.267
			c0,1.252,1.015,2.266,2.266,2.266v3.76L3.62,17.456v2.99c0,0.292,0.237,0.529,0.529,0.529c0.292,0,0.529-0.237,0.529-0.529
			l-0.001-2.203c0-0.165,0.135-0.3,0.3-0.3c0,0,0.008,0,0.168,0c1.238,0,2.243-0.989,2.273-2.22h7.261l0.284,0.284l-0.001,4.423
			c-0.001,0.3,0.235,0.545,0.527,0.546c0.292,0.001,0.53-0.241,0.531-0.542l0.001-3.368l3.969,3.969l1.061-1.061l-4.568-4.568
			V13.484z"/>
		<path fill="#FFFFFF" d="M20.828,8.427h-1.052l-0.275-0.372c0,0-0.047-0.064-0.105-0.142c-0.058-0.078-0.183-0.142-0.278-0.142
			c0,0,0,0-0.245,0h-1.608c-0.133,0-0.322,0.078-0.42,0.174c-0.099,0.096-1.838,1.787-1.838,1.787l2.305,2.317l0.622-1.074
			c0.066-0.114,0.228-0.208,0.36-0.208h1.877l0.896-0.896V8.667C21.068,8.535,20.96,8.427,20.828,8.427z"/>
		<polygon fill="#EB0000" points="3.708,2.631 2.648,3.692 19.99,21.034 21.05,19.973 3.708,2.631 		"/>
	</g>
</g>
</svg>
