<svg xmlns="http://www.w3.org/2000/svg" width="36" height="36" fill="none" viewBox="0 0 36 36"><path fill="#000" fill-rule="evenodd" d="M17.783 13.38c2.603 0 4.566 2.498 4.566 5.379 0 1.482-.522 2.86-1.38 3.851 3.753 1.534 6.256 5.916 6.257 10.782v.5H8.34v-.5c0-4.894 2.526-9.122 6.274-10.761-.869-.992-1.396-2.38-1.396-3.872 0-2.88 1.962-5.378 4.564-5.378m2.35 9.992a4.03 4.03 0 0 1-2.35.764c-.869 0-1.666-.28-2.343-.758-3.414 1.26-5.918 4.967-6.09 9.514h16.866c-.172-4.574-2.687-8.404-6.082-9.52m-11.292 2.39H5.927l-1.5 3.75-.928-.37 1.626-4.065.125-.314h3.59zm21.6-.685 1.626 4.065-.463.185-.465.186-1.5-3.75h-2.913v-1h3.59zM17.783 14.381c-1.887 0-3.564 1.871-3.564 4.378 0 2.506 1.677 4.377 3.564 4.377s3.566-1.87 3.566-4.377-1.679-4.378-3.566-4.378M33.885 2.582l-3.252 19.51-.07.419h-6.276v-1h5.429L32.802 3H3.062l2.159 18.51h6.221v1h-7.11l-.053-.442-2.276-19.51L1.938 2h32.044zM21.304 6.878h2.17v1h-1.7l1.06 2.25H25.1v1h-1.795l1.06 2.253h2.36v1h-1.89l1.06 2.252h2.457v1h-1.987l.813 1.726-.452.213-.453.213-1.013-2.152h-.973v-1h.502l-1.06-2.252h-1.068v-1h.598l-1.06-2.252h-9.34l-.928 2.252h.974v1H11.52l-.928 2.252h.687v1h-1.1l-.876 2.13-.924-.381.72-1.75H7.215v-1H9.51l.928-2.251H8.84v-1h2.009l.927-2.252h-1.31v-1h1.721l.927-2.251h-1.022v-1h1.434l.542-1.316.462.19.463.19-.386.936H20.2l-.43-.913.905-.426zm-8.033 3.25h8.458l-1.06-2.25h-6.472z" clip-rule="evenodd"/></svg>