<svg xmlns="http://www.w3.org/2000/svg" width="48" height="48" viewBox="0 0 48 48">
  <g fill="none" fill-rule="evenodd">
    <path stroke="#000" d="M9.5,13.4997 L39.5,13.4997 L39.5,35.4997 L9.5,35.4397 L9.5,13.4997 Z M9.5,18.4997 L39.5,18.4997 M15.5,15.9997 L15.5,9.9997 M32.5,15.9997 L32.5,9.9997"/>
    <path fill="#000" d="M25,20.9997 L25,32.9997 L23.884,32.9997 L23.884,24.0617 L23.44,24.0617 L22.275,24.0617 L21.323,24.0617 L20.839,24.0617 L20.839,23.2247 C21.588,23.2077 22.135,23.1657 22.476,23.0977 C22.818,23.0287 23.102,22.9037 23.325,22.7237 C23.533,22.5597 23.695,22.3557 23.81,22.1127 C23.925,21.8687 24.037,21.4977 24.146,20.9997 L25,20.9997 Z"/>
  </g>
</svg>
