<svg xmlns="http://www.w3.org/2000/svg" width="24" height="24" fill="none" viewBox="0 0 24 24"><path fill="#000" d="M15 15a2 2 0 1 1 0 4 2 2 0 0 1 0-4M4.5 13a2.5 2.5 0 1 1 0 5 2.5 2.5 0 0 1 0-5M15 16a1 1 0 1 0 0 2 1 1 0 0 0 0-2m5-4c0 1.357-.409 2.327-.834 2.965a4 4 0 0 1-.588.703 3 3 0 0 1-.268.226l-.028.02-.003.001v.001s-.002 0-.279-.416l-.277-.416-.002.001.003-.002.032-.024q.047-.036.135-.118c.117-.11.28-.285.443-.53.325-.488.666-1.268.666-2.411zm-7.687-3.89c1.361 1.089 2.028 2.574 2.356 3.756.165.594.248 1.122.289 1.502a8 8 0 0 1 .041.58l.001.036V14h-1v-.028l-.004-.102a8.506 8.506 0 0 0-.29-1.736c-.297-1.068-.88-2.333-2.018-3.243zM6 8.5l.277.416v.001l-.033.024q-.046.036-.135.118c-.117.11-.28.285-.443.53C5.341 10.078 5 10.858 5 12H4c0-1.357.409-2.327.834-2.965a4 4 0 0 1 .588-.703 3 3 0 0 1 .268-.226l.028-.02.003-.001v-.001c.002.001.018.024.279.416M19.5 6a2.5 2.5 0 1 1 0 5 2.5 2.5 0 0 1 0-5M9 5a2 2 0 1 1 0 4 2 2 0 0 1 0-4m0 1a1 1 0 1 0 0 2 1 1 0 0 0 0-2"/></svg>