<svg xmlns="http://www.w3.org/2000/svg" width="36" height="36" fill="none" viewBox="0 0 36 36"><path fill="#000" fill-rule="evenodd" d="m11.687 4.257-.437-.787-.437.787-3.75 6.75-.413.743h2.29l-3.387 6.776-.362.724H7.44l-3.387 6.776-.362.724H10.5V30h1v-3.25h7.309l-.362-.724-3.388-6.776h2.25l-.362-.724-3.388-6.776h2.29l-.412-.743zM9.75 10.75h-1.4l2.9-5.22 2.9 5.22h-2.21l.363.723 3.388 6.777H13.44l.363.723 3.388 6.777H5.309l3.388-6.777.362-.723h-2.25l3.388-6.777.362-.723zm17.25 4a1.75 1.75 0 0 0-1.75 1.75v1.75h3.5V16.5A1.75 1.75 0 0 0 27 14.75m-2.75 1.75v1.75h-2.216l-.033.464-.75 10.5-.038.536h11.574l-.038-.536-.75-10.5-.034-.464H29.75V16.5a2.75 2.75 0 1 0-5.5 0m-1.963 12.25.678-9.5h8.069l.679 9.5z" clip-rule="evenodd"/></svg>