<svg xmlns="http://www.w3.org/2000/svg" width="24" height="24" fill="none" viewBox="0 0 24 24"><path fill="#000" fill-rule="evenodd" d="M5.123 5.83 3.146 3.854l.707-.708 15 15-.707.708-4.459-4.46A3.9 3.9 0 0 0 12.002 14c-1.14 0-2.164.482-2.894 1.252l-.725-.688a4.97 4.97 0 0 1 3.92-1.554l-1.829-1.83a7 7 0 0 0-3.539 2.009L6.21 12.5a8 8 0 0 1 3.447-2.137L8.1 8.808a10 10 0 0 0-3.345 2.313l-.725-.689c.94-.99 2.065-1.797 3.313-2.381L5.86 6.566a13 13 0 0 0-3.276 2.49l-.726-.688A14 14 0 0 1 5.123 5.83M12 17a1 1 0 1 0 0 2 1 1 0 0 0 0-2m-2 1a2 2 0 1 1 4 0 2 2 0 0 1-4 0M7.172 4.877A13.9 13.9 0 0 1 12 4c3.997 0 7.593 1.684 10.142 4.367l-.724.69C19.048 6.561 15.709 5 12 5c-1.576 0-3.08.297-4.482.815zM12 7c-.813 0-1.602.093-2.36.259l.214.977a9.956 9.956 0 0 1 9.39 2.885l.726-.689A10.96 10.96 0 0 0 12 7m.496 4.03a6.97 6.97 0 0 1 4.576 2.154l.724-.69a7.97 7.97 0 0 0-5.23-2.461z" clip-rule="evenodd"/></svg>