<svg xmlns="http://www.w3.org/2000/svg" width="24" height="24" version="1.1" viewBox="0 0 24 24">
  <path fill="none" fill-rule="evenodd" stroke="#000" stroke-width="1" d="M8.3584,15.8398 C9.1334,17.7988 9.1494,20.8038 7.9374,21.4018 C6.7874,21.9698 4.3834,19.9818 3.8484,16.9338 M11.4658,13.1865 C11.9858,12.5495 12.5608,11.9605 13.1938,11.4395 C13.4358,11.2405 13.5468,10.9245 13.4668,10.6215 L11.4868,3.0985 C11.3728,2.6665 10.9238,2.3995 10.5028,2.5365 C6.7328,3.7525 3.7538,6.7415 2.5358,10.5285 C2.3988,10.9575 2.6688,11.4115 3.1018,11.5215 L10.6608,13.4595 C10.9598,13.5375 11.2698,13.4265 11.4658,13.1865 Z M13.2007,9.6104 C13.3187,10.0594 13.8207,10.2754 14.2247,10.0514 C14.5907,9.8514 14.9787,9.6844 15.3867,9.5534 C15.6297,9.4764 15.8197,9.2854 15.8767,9.0354 L16.9757,4.2444 C17.0607,3.8754 16.8497,3.4894 16.4877,3.3894 C15.1217,3.0154 13.6887,2.9374 12.2877,3.1704 C11.8827,3.2374 11.6347,3.6614 11.7397,4.0604 M9.1685,13.0771 C9.6155,13.1911 9.8345,13.6941 9.6165,14.1031 C9.4205,14.4731 9.2585,14.8661 9.1335,15.2771 C9.0585,15.5221 8.8705,15.7161 8.6225,15.7761 L3.8735,16.9281 C3.5065,17.0161 3.1215,16.8081 3.0195,16.4441 C2.6345,15.0741 2.5435,13.6321 2.7605,12.2211 C2.8235,11.8111 3.2415,11.5571 3.6405,11.6601 M16.9707,4.2666 C19.9927,4.7776 21.9577,7.1636 21.4077,8.3266 C20.8287,9.5496 17.8797,9.5836 15.9237,8.8306"/>
</svg>
