<svg class="color-immutable" xmlns="http://www.w3.org/2000/svg" width="59" height="20" fill="none" viewBox="0 0 59 20"><path fill="#EB0000" fill-rule="evenodd" d="M2 0a2 2 0 0 0-2 2v16a2 2 0 0 0 2 2h55a2 2 0 0 0 2-2V2a2 2 0 0 0-2-2z" clip-rule="evenodd"/><path fill="#fff" d="M36.608 7.898a4.34 4.34 0 0 1 .702-2.39q1.073-1.55 3.224-1.55 1.656 0 2.673.847a2.95 2.95 0 0 1 1.096 2.373 2.6 2.6 0 0 1-.43 1.499 2.1 2.1 0 0 1-1.163.85c.59.123 1.114.461 1.47.95.37.518.559 1.143.54 1.78a3.55 3.55 0 0 1-1.261 2.807q-1.166 1.013-2.948 1.013-1.932 0-3.063-1.116-1.131-1.115-1.131-3.013v-.15h2.215q0 1.067.504 1.649c.364.4.889.613 1.427.581q.922 0 1.42-.546c.301-.335.465-.774.457-1.226a1.69 1.69 0 0 0-.584-1.352q-.48-.412-1.482-.412-.28 0-.56.032v-1.7q.205.015.395.015 1.986 0 1.986-1.48a1.36 1.36 0 0 0-.433-1.047 1.62 1.62 0 0 0-1.143-.4 1.57 1.57 0 0 0-1.254.506q-.441.507-.473 1.48zM53.36 4.235v1.962q-.094.103-.56.64c-.488.58-.918 1.207-1.284 1.872a13 13 0 0 0-.993 2.163 18.2 18.2 0 0 0-.907 4.928h-2.38c.032-.98.184-1.952.452-2.895a19 19 0 0 1 1.187-3.18q1.08-2.247 2.191-3.346h-5.439V4.235zM9.22 4.2h4.056L8.258 15.8H4.185zM25.98 12.366a.93.93 0 0 0 .847-.553L30.119 4.2H15.984l-5.018 11.6h4.038l3.8-8.69h5.993l-1.201 2.775-5.226-.019 4.217 5.934h4.597l-3.124-3.434z"/></svg>