<svg class="color-immutable" xmlns="http://www.w3.org/2000/svg" width="59" height="20" fill="none" viewBox="0 0 59 20"><path fill="#E84E10" fill-rule="evenodd" d="M2 0a2 2 0 0 0-2 2v16a2 2 0 0 0 2 2h55a2 2 0 0 0 2-2V2a2 2 0 0 0-2-2z" clip-rule="evenodd"/><path fill="#000" d="M14.153 4.17v2.142H7.98v2.476h5.657v1.991H7.98v2.849h6.284v2.142H5.45V4.17zM25.311 4.17l-3.856 11.6h-2.88l-3.8-11.6h2.65l2.61 8.688 2.65-8.688zM33.034 4.17v2.063H28.36l-.5 2.61q.842-.889 2.15-.889 1.286 0 2.238.69 1.413 1.04 1.413 3.159 0 2.079-1.508 3.293-1.175.952-2.809.952-1.84 0-2.96-.984-1.118-.992-1.182-2.674h2.278q.055.61.396 1.04.533.674 1.476.674.913 0 1.444-.659.516-.643.516-1.563 0-1-.54-1.595-.54-.603-1.436-.603-1.095 0-1.706.984l-2.07-.032 1.102-6.466zM41.835 4.17v2.063h-4.673l-.5 2.61q.841-.889 2.15-.889 1.285 0 2.238.69 1.413 1.04 1.412 3.159 0 2.079-1.507 3.293-1.175.952-2.81.952-1.84 0-2.959-.984-1.119-.992-1.182-2.674h2.277q.056.61.397 1.04.531.674 1.476.674.913 0 1.444-.659.516-.643.516-1.563 0-1-.54-1.595-.54-.603-1.436-.603-1.095 0-1.706.984l-2.07-.032 1.102-6.466z"/></svg>