<svg xmlns="http://www.w3.org/2000/svg" width="16" height="16" fill="none" viewBox="0 0 16 16"><path fill="#000" d="M4 1C2.324 1 1 2.454 1 4.17v2.67c0 1.714 1.313 3.17 3 3.17 1.676 0 3-1.455 3-3.17H6c0 1.224-.936 2.17-2 2.17-1.073 0-2-.944-2-2.17V4.17C2 2.945 2.936 2 4 2c1.073 0 2 .944 2 2.17h1c0-.684-.212-1.326-.57-1.852A4 4 0 0 1 8 2c2.214 0 4 1.786 4 4v4.5c0 1.205.862 2.216 2 2.45v1.027c-2.835-.23-5-2.403-5-4.977H8c0 3.357 2.956 6 6.5 6h.5v-3h-.5c-.824 0-1.5-.676-1.5-1.5V6c0-2.766-2.234-5-5-5-.825 0-1.611.2-2.3.558A2.87 2.87 0 0 0 4 1m6 4c-.55 0-1 .45-1 1s.45 1 1 1 1-.45 1-1-.45-1-1-1"/></svg>