<svg xmlns="http://www.w3.org/2000/svg" width="36" height="36" fill="none" viewBox="0 0 36 36"><path fill="#000" fill-rule="evenodd" d="M6.25 6.25h5.5v5.5h-5.5v-5.5m1 1v3.5h3.5v-3.5zm8-1h5.5v5.5h-5.5v-5.5m1 1v3.5h3.5v-3.5zm8.5-1h-.5v5.5h5.5v-5.5h-5m.5 4.5v-3.5h3.5v3.5zm-19 4.5h5.5v5.5h-5.5v-5.5m1 1v3.5h3.5v-3.5zm8.5-1h-.5v5.5h5.5v-5.5h-5m.5 4.5v-3.5h3.5v3.5zm8-4.5h5.5v5.5h-5.5v-5.5m1 1v3.5h3.5v-3.5zm-18.5 8h-.5v5.5h5.5v-5.5h-5m.5 4.5v-3.5h3.5v3.5zm8-4.5h5.5v5.5h-5.5v-5.5m1 1v3.5h3.5v-3.5zm8.5-1h-.5v5.5h5.5v-5.5h-5m.5 4.5v-3.5h3.5v3.5z" clip-rule="evenodd"/></svg>