<svg xmlns="http://www.w3.org/2000/svg" width="36" height="36" viewBox="0 0 36 36">
  <path fill="none" stroke="#000" d="M6,32.24955 L27,32.24955 M8.25,32.24955 L8.25,6.74955 C8.25,5.09355 9.594,3.74955 11.25,3.74955 L21.75,3.74955 C23.406,3.74955 24.75,5.09355 24.75,6.74955 L24.75,32.24955 M11.25,14.25 L21.75,14.25 L21.75,8.25 L11.25,8.25 L11.25,14.25 Z M27,7.5003 L30.75,12.0003 L30.75,25.5003 C30.7545,26.3133 30.756,27.7503 29.25,27.7503 C27.75,27.7503 27.7515,26.2788 27.75,25.5003 L27.75,24.0003 C27.7155,22.4898 26.997,21.7503 25.5,21.7503 L24.75,21.7503"/>
</svg>
