<svg class="color-immutable" width="59" height="20" viewBox="0 0 59 20" fill="none" xmlns="http://www.w3.org/2000/svg"><path d="M1.792.5h55.416c.71 0 1.292.58 1.292 1.3v16.4c0 .72-.58 1.3-1.292 1.3H1.792C1.082 19.5.5 18.92.5 18.2V1.8c0-.72.581-1.3 1.292-1.3Z" stroke="#FFDE15"/><path d="M12.8 7.661h-2.405c-.047-.564-.258-.994-.633-1.289-.369-.3-.888-.45-1.558-.45-.596 0-1.06.118-1.392.355-.327.232-.49.56-.49.981 0 .38.158.654.474.823.306.168 1.081.406 2.326.712 1.313.327 2.223.656 2.729.988.933.612 1.4 1.464 1.4 2.555 0 1.197-.47 2.141-1.408 2.832-.828.607-1.949.91-3.362.91-1.571 0-2.792-.359-3.662-1.076-.87-.717-1.321-1.738-1.353-3.061H5.98c.037.643.203 1.12.499 1.432.464.495 1.162.743 2.096.743.633 0 1.134-.124 1.503-.372.416-.284.625-.672.625-1.162 0-.49-.293-.85-.878-1.076-.322-.127-1.081-.356-2.278-.688-.75-.206-1.335-.401-1.756-.586-.422-.184-.76-.39-1.013-.617-.59-.527-.886-1.255-.886-2.183 0-1.113.462-1.993 1.384-2.642.786-.554 1.807-.83 3.062-.83 1.102 0 2.025.218 2.768.656 1.07.628 1.635 1.643 1.693 3.045ZM24.515 4.236v11.565h-2.54l-4.84-7.879.031 7.879h-2.428V4.236h2.57l4.81 7.863-.031-7.863h2.428ZM34.102 7.124h-2.199c-.206-.892-.712-1.337-1.519-1.337-.854 0-1.46.524-1.82 1.574-.147.427-.265 1.073-.355 1.938.348-.47.717-.807 1.107-1.013.396-.205.87-.308 1.424-.308 1.087 0 1.96.385 2.618 1.155.628.727.942 1.64.942 2.737 0 1.302-.422 2.349-1.266 3.14-.76.712-1.672 1.068-2.737 1.068-1.366 0-2.428-.514-3.188-1.543-.759-1.033-1.139-2.473-1.139-4.319 0-1.972.406-3.517 1.219-4.635.785-1.081 1.858-1.622 3.219-1.622 1.281 0 2.262.43 2.942 1.29.39.496.641 1.12.752 1.875Zm-3.915 2.65c-.554 0-.995.232-1.322.696-.295.41-.442.901-.442 1.47 0 .565.15 1.058.45 1.48.327.47.776.704 1.345.704.554 0 1-.224 1.337-.672.316-.422.474-.92.474-1.495 0-.565-.142-1.047-.427-1.448-.348-.49-.82-.736-1.416-.736ZM43.42 11.205v1.954h-1.455v2.642H39.71v-2.642h-4.825v-2.167l4.944-6.756h2.136v6.97h1.455Zm-3.662.024V6.926l-2.975 4.303h2.975Z" fill="#FFDE15"/></svg>