<svg xmlns="http://www.w3.org/2000/svg" width="36" height="36" fill="none" viewBox="0 0 36 36"><path fill="#000" d="M22.251 30h-1v-4.75h-5.493l-.238.015a1.87 1.87 0 0 0-1.234.654c-.362.413-.609.985-.77 1.6a8.7 8.7 0 0 0-.254 1.695 10 10 0 0 0-.014.714l.002.038v.01l-.499.024-.5.023v-.005l-.001-.014-.001-.049-.003-.177c0-.15.002-.364.017-.62a9.7 9.7 0 0 1 .285-1.893c.182-.692.481-1.43.986-2.005.519-.591 1.243-.997 2.21-1.01h6.507zm-.066-21.998 2.966 5.192.473.473 3.44-1.38 1.66-.668-1.074 1.43-1.99 2.654 1.725 1.725 2.906-.969-1.041 3.123v4.168h-6V30h-1v-7.25h6v-3.043l-5.901-5.901-.034-.058-2.71-4.742-3.177 2.542-1.366 4.096 3.565 4.287-.385.319-.384.32-3.743-4.5-.177-.215.087-.263.28-.842h-4.124L7.89 18.325 5.362 22.75h4.888V30h-1v-6.25H3.639l.426-.748 3-5.25.045-.078.07-.058 4.5-3.75.14-.116h4.82l.885-2.658.047-.14.116-.093 3.75-3 .457-.365zM24.75 18a.75.75 0 1 1-.001 1.501A.75.75 0 0 1 24.75 18m5.426.219.355.355.178-.533zm-3.782-3.783.551.552.83-1.107z"/></svg>