<?xml version="1.0" encoding="utf-8"?>
<!-- Generator: Adobe Illustrator 24.2.0, SVG Export Plug-In . SVG Version: 6.00 Build 0)  -->
<svg version="1.0" xmlns="http://www.w3.org/2000/svg" xmlns:xlink="http://www.w3.org/1999/xlink" x="0px" y="0px"
	 viewBox="0 0 24 24" enable-background="new 0 0 24 24" xml:space="preserve">
<g id="SVG_x5F_24x24pt">
	<path id="backgroundBlue" fill="#2D327D" d="M0,22.5v-21C0,0.675,0.675,0,1.5,0h21C23.325,0,24,0.675,24,1.5v21
		c0,0.825-0.675,1.5-1.5,1.5h-21C0.675,24,0,23.325,0,22.5z"/>
	<g id="content">
		<path fill="#FFFFFF" d="M8.825,7.508V21H6.131v-8.832h-0.96h-0.96H3.279H2.956v-1.956c0.658-0.018,1.195-0.086,1.61-0.203
			c0.415-0.117,0.795-0.308,1.14-0.572C6.205,9.055,6.54,8.412,6.712,7.508H8.825z"/>
		<path fill="#FFFFFF" d="M20.315,7.508v2.399h-5.436l-0.581,3.036c0.652-0.689,1.486-1.034,2.501-1.034
			c0.997,0,1.864,0.268,2.602,0.803c1.095,0.806,1.643,2.03,1.643,3.673c0,1.612-0.585,2.889-1.753,3.83
			c-0.911,0.738-2,1.107-3.267,1.107c-1.427,0-2.575-0.383-3.442-1.149c-0.867-0.766-1.326-1.801-1.375-3.105h2.649
			c0.043,0.474,0.197,0.877,0.461,1.209c0.412,0.523,0.984,0.784,1.717,0.784c0.707,0,1.267-0.255,1.68-0.766
			c0.4-0.498,0.6-1.104,0.6-1.818c0-0.775-0.209-1.395-0.628-1.86c-0.418-0.464-0.975-0.697-1.67-0.697
			c-0.849,0-1.51,0.382-1.984,1.144l-2.409-0.037l1.283-7.521H20.315z"/>
		<path fill="#FFFFFF" d="M5.036,3L4.288,5.249H3.73L2.993,3h0.514l0.506,1.684L4.527,3H5.036z"/>
		<path fill="#FFFFFF" d="M5.874,3.523c0.244,0,0.443,0.081,0.598,0.243c0.153,0.16,0.229,0.373,0.229,0.64
			c0,0.276-0.082,0.496-0.245,0.66C6.304,5.218,6.105,5.295,5.86,5.295c-0.261,0-0.47-0.085-0.624-0.255
			C5.088,4.877,5.014,4.667,5.014,4.409c0-0.254,0.072-0.461,0.215-0.62C5.389,3.612,5.603,3.523,5.874,3.523z M5.851,3.871
			c-0.118,0-0.212,0.048-0.281,0.143C5.499,4.11,5.463,4.242,5.463,4.409c0,0.173,0.035,0.306,0.105,0.398
			c0.072,0.093,0.17,0.14,0.294,0.14c0.116,0,0.208-0.043,0.275-0.128c0.077-0.094,0.115-0.231,0.115-0.411
			c0-0.168-0.034-0.299-0.102-0.392C6.08,3.919,5.98,3.871,5.851,3.871z"/>
		<path fill="#FFFFFF" d="M7.449,3v0.401H7.003V3H7.449z M7.449,3.572v1.677H7.003V3.572H7.449z"/>
		<path fill="#FFFFFF" d="M9.321,4.726C9.297,4.82,9.255,4.909,9.193,4.992c-0.148,0.202-0.36,0.303-0.637,0.303
			c-0.25,0-0.451-0.079-0.601-0.237c-0.074-0.077-0.13-0.17-0.169-0.278C7.744,4.664,7.723,4.543,7.723,4.417
			c0-0.244,0.07-0.449,0.211-0.615c0.157-0.186,0.36-0.278,0.609-0.278c0.201,0,0.372,0.062,0.514,0.186
			c0.102,0.089,0.175,0.199,0.221,0.33s0.069,0.295,0.069,0.493h-1.17c0.004,0.082,0.017,0.15,0.038,0.205
			c0.06,0.147,0.175,0.22,0.345,0.22c0.083,0,0.151-0.018,0.203-0.055c0.052-0.036,0.095-0.095,0.129-0.176H9.321z M8.892,4.232
			C8.884,4.151,8.865,4.084,8.836,4.031C8.808,3.978,8.767,3.937,8.714,3.906C8.661,3.875,8.604,3.86,8.541,3.86
			c-0.099,0-0.181,0.033-0.246,0.1C8.23,4.026,8.192,4.117,8.18,4.232H8.892z"/>
	</g>
</g>
</svg>
