<svg xmlns="http://www.w3.org/2000/svg" width="25" height="16" fill="none" viewBox="0 0 25 16"><path fill="#000" fill-rule="evenodd" d="M11.719 3.5a1.25 1.25 0 1 0 0-2.5 1.25 1.25 0 0 0 0 2.5m3.615 7.5.862 2.38a.94.94 0 0 0 .872.62c.645 0 1.1-.65.872-1.26l-1.288-3.58a.98.98 0 0 0-.931-.66h-2.527V5.75c0-.83-.664-1.5-1.487-1.5-.822 0-1.486.67-1.486 1.5V9.5c0 .83.664 1.5 1.486 1.5zm-.743.68.614 1.7v.01c-.862.98-2.1 1.61-3.498 1.61C9.111 15 7 12.87 7 10.25c0-1.7.892-3.18 2.23-4.02V8.2a3.24 3.24 0 0 0-.744 2.05c0 1.79 1.447 3.25 3.221 3.25 1.269 0 2.359-.75 2.884-1.82M3.305 14.35a24 24 0 0 1-.87-1.415q-.348-.617-.89-1.841Q1 9.869 1 8.054c0-1.122.199-2.158.591-3.1q.588-1.415 1.713-3.175h1.272a33 33 0 0 0-.944 1.76q-.327.67-.781 1.84-.451 1.17-.453 2.695c0 1.038.166 1.981.5 2.82q.498 1.263.77 1.825t.908 1.632zm20.062-9.524q-.635-1.434-1.668-3.048v.004H20.43c.413.702.71 1.243.9 1.623q.278.57.605 1.38.324.807.49 1.623a8.3 8.3 0 0 1 .164 1.632q-.001 1.524-.463 2.738-.463 1.216-.735 1.76c-.181.361-.503.969-.96 1.814h1.268q.69-1.07.98-1.597t.808-1.752.518-2.948q-.001-1.796-.638-3.23" clip-rule="evenodd"/></svg>