<svg class="color-immutable" xmlns="http://www.w3.org/2000/svg" width="59" height="20" fill="none" viewBox="0 0 59 20"><g clip-path="url(#a)"><path fill="#EB0000" fill-rule="evenodd" d="M2 0a2 2 0 0 0-2 2v16a2 2 0 0 0 2 2h55a2 2 0 0 0 2-2V2a2 2 0 0 0-2-2z" clip-rule="evenodd"/><path fill="#fff" d="M9.22 4.2h4.057L8.259 15.8H4.186zM15.948 4.2h14.395l-1.49 3.445h-10.28l-2.042 4.71h10.285l-1.49 3.445H10.93zM44.472 7.121h-2.2q-.307-1.337-1.518-1.337-1.28 0-1.82 1.574-.221.642-.355 1.938.522-.703 1.107-1.012.593-.309 1.424-.309 1.63 0 2.618 1.155.942 1.092.941 2.737 0 1.955-1.265 3.14-1.14 1.068-2.737 1.068-2.048 0-3.188-1.542-1.14-1.55-1.139-4.319 0-2.958 1.218-4.635 1.18-1.622 3.22-1.622 1.922 0 2.942 1.29.585.743.752 1.874m-3.916 2.65q-.83 0-1.32.696-.444.617-.444 1.471 0 .847.451 1.48.49.704 1.345.704.831 0 1.337-.673.474-.633.474-1.495 0-.847-.427-1.447-.522-.736-1.416-.736M53.11 4.234V6.29h-4.66l-.498 2.602q.84-.886 2.144-.886 1.282 0 2.23.688 1.409 1.036 1.408 3.149 0 2.072-1.502 3.282-1.17.95-2.8.95-1.836 0-2.951-.982-1.116-.988-1.179-2.665h2.27q.056.609.396 1.036.53.672 1.471.672.91 0 1.44-.656.514-.641.514-1.558 0-.997-.538-1.59-.538-.602-1.431-.602-1.092 0-1.701.981l-2.065-.031 1.1-6.447z"/></g><defs><clipPath id="a"><path fill="#fff" d="M0 0h59v20H0z"/></clipPath></defs></svg>