<?xml version="1.0" encoding="utf-8"?>
<!-- Generator: Adobe Illustrator 24.2.0, SVG Export Plug-In . SVG Version: 6.00 Build 0)  -->
<svg version="1.0" id="Ebene_1" xmlns="http://www.w3.org/2000/svg" xmlns:xlink="http://www.w3.org/1999/xlink" x="0px" y="0px"
	 viewBox="0 0 24 24" enable-background="new 0 0 24 24" xml:space="preserve">
<g id="SVG_x5F_24x24pt">
	<path id="backgroundBlue" fill="#2D327D" d="M0,22.5v-21C0,0.675,0.675,0,1.5,0h21C23.325,0,24,0.675,24,1.5v21
		c0,0.825-0.675,1.5-1.5,1.5h-21C0.675,24,0,23.325,0,22.5z"/>
	<g id="content">
		<path fill="#FFFFFF" d="M18.749,7.5h-4.011V6.6c0-0.745-0.606-1.35-1.351-1.35h-2.775c-0.745,0-1.35,0.605-1.35,1.35V7.5H5.25
			c-1.242,0-2.251,1.007-2.251,2.25v9c0,1.242,1.009,2.25,2.251,2.25h13.499c1.243,0,2.251-1.007,2.251-2.25v-9
			C21.001,8.508,19.993,7.5,18.749,7.5L18.749,7.5z M13.688,7.5h-3.376V6.3h3.376V7.5L13.688,7.5z"/>
		<path fill="#EB0000" d="M9.772,8.925c-2.919,0-5.287,2.292-5.287,5.211c0,2.919,2.368,5.364,5.287,5.364
			c2.919,0,5.288-2.445,5.288-5.364C15.06,11.217,12.691,8.925,9.772,8.925L9.772,8.925z M9.772,18.095
			c-2.09,0-3.788-1.697-3.788-3.788c0-2.09,1.697-3.787,3.788-3.787c2.09,0,3.787,1.697,3.787,3.787
			C13.559,16.398,11.862,18.095,9.772,18.095L9.772,18.095z"/>
		<path d="M7.725,14.85h4.125c0.311,0,0.563-0.252,0.563-0.563c0-0.31-0.252-0.563-0.563-0.563H7.725
			c-0.311,0-0.562,0.252-0.562,0.563C7.163,14.598,7.414,14.85,7.725,14.85L7.725,14.85z"/>
		<g id="Dogana_i">
			<path d="M7.163,12.307h0.423c0.079,0,0.146,0.009,0.202,0.027c0.056,0.018,0.106,0.047,0.148,0.086
				c0.104,0.095,0.157,0.228,0.157,0.397c0,0.179-0.049,0.318-0.148,0.416c-0.043,0.043-0.092,0.074-0.147,0.093
				c-0.054,0.018-0.123,0.028-0.207,0.028H7.163V12.307z M7.392,12.5v0.659h0.176c0.054,0,0.097-0.005,0.129-0.016
				c0.032-0.011,0.06-0.029,0.084-0.055c0.055-0.06,0.083-0.148,0.083-0.264c0-0.107-0.026-0.188-0.077-0.242
				C7.735,12.528,7.659,12.5,7.559,12.5H7.392z"/>
			<path d="M8.604,12.55c0.113,0,0.206,0.038,0.278,0.113c0.071,0.074,0.107,0.174,0.107,0.298c0,0.128-0.038,0.23-0.114,0.307
				c-0.071,0.071-0.164,0.107-0.278,0.107c-0.122,0-0.218-0.04-0.29-0.119c-0.069-0.075-0.103-0.173-0.103-0.293
				c0-0.118,0.033-0.214,0.1-0.288C8.379,12.591,8.479,12.55,8.604,12.55z M8.594,12.712c-0.055,0-0.098,0.022-0.131,0.067
				c-0.033,0.045-0.049,0.106-0.049,0.184c0,0.081,0.016,0.142,0.049,0.185c0.033,0.043,0.079,0.065,0.137,0.065
				c0.054,0,0.097-0.02,0.128-0.059c0.036-0.044,0.054-0.108,0.054-0.191c0-0.078-0.016-0.139-0.047-0.182
				C8.7,12.734,8.654,12.712,8.594,12.712z"/>
			<path d="M9.853,12.572v0.688c0,0.061-0.004,0.11-0.011,0.146c-0.008,0.036-0.021,0.07-0.039,0.1
				c-0.06,0.095-0.168,0.143-0.323,0.143c-0.216,0-0.335-0.082-0.355-0.245h0.209c0.014,0.065,0.065,0.098,0.151,0.098
				c0.066,0,0.112-0.019,0.138-0.056c0.02-0.03,0.031-0.077,0.031-0.143l0.001-0.097c-0.053,0.082-0.131,0.123-0.232,0.123
				c-0.098,0-0.176-0.034-0.234-0.103c-0.059-0.07-0.089-0.163-0.089-0.282c0-0.118,0.03-0.213,0.089-0.285
				c0.062-0.074,0.142-0.111,0.242-0.111c0.052,0,0.095,0.01,0.13,0.029c0.035,0.02,0.067,0.052,0.096,0.098v-0.104H9.853z
				 M9.476,12.719c-0.058,0-0.102,0.024-0.132,0.073c-0.024,0.039-0.036,0.089-0.036,0.149c0,0.076,0.018,0.134,0.053,0.174
				c0.031,0.035,0.07,0.053,0.119,0.053c0.062,0,0.108-0.026,0.139-0.078c0.024-0.04,0.036-0.091,0.036-0.152
				c0-0.073-0.018-0.13-0.055-0.17C9.57,12.735,9.529,12.719,9.476,12.719z"/>
			<path d="M10.726,13.353h-0.212c-0.009-0.031-0.014-0.057-0.014-0.078c-0.065,0.066-0.149,0.099-0.251,0.099
				c-0.08,0-0.143-0.019-0.187-0.056c-0.051-0.043-0.077-0.103-0.077-0.18c0-0.098,0.044-0.165,0.132-0.203
				c0.036-0.015,0.102-0.029,0.197-0.042c0.082-0.011,0.134-0.022,0.154-0.032c0.02-0.01,0.03-0.031,0.03-0.062
				c0-0.068-0.045-0.102-0.136-0.102c-0.048,0-0.083,0.009-0.105,0.026c-0.022,0.017-0.037,0.047-0.044,0.089h-0.196
				c0.006-0.087,0.039-0.152,0.098-0.196c0.059-0.044,0.143-0.066,0.252-0.066c0.121,0,0.21,0.025,0.267,0.074
				c0.027,0.023,0.044,0.047,0.053,0.074c0.009,0.026,0.013,0.068,0.013,0.124c0,0.012-0.001,0.064-0.002,0.157
				c-0.001,0.094-0.001,0.148-0.001,0.162c0,0.057,0.002,0.098,0.005,0.125C10.707,13.292,10.714,13.321,10.726,13.353z
				 M10.498,12.976c-0.027,0.017-0.075,0.03-0.146,0.039c-0.05,0.008-0.085,0.017-0.107,0.029c-0.031,0.017-0.046,0.045-0.046,0.085
				c0,0.032,0.01,0.058,0.031,0.076c0.02,0.018,0.049,0.027,0.086,0.027c0.061,0,0.11-0.021,0.148-0.064
				c0.013-0.015,0.023-0.03,0.028-0.046c0.005-0.016,0.008-0.037,0.008-0.063V12.976z"/>
			<path d="M11.058,12.574v0.109c0.024-0.033,0.047-0.058,0.068-0.074c0.051-0.04,0.113-0.06,0.186-0.06
				c0.064,0,0.118,0.016,0.162,0.049c0.035,0.026,0.06,0.058,0.074,0.098c0.014,0.039,0.021,0.095,0.021,0.166v0.491h-0.207v-0.447
				c0-0.05-0.004-0.087-0.013-0.11c-0.008-0.021-0.022-0.037-0.041-0.049c-0.022-0.013-0.048-0.019-0.077-0.019
				c-0.031,0-0.06,0.008-0.086,0.023c-0.026,0.015-0.045,0.036-0.057,0.062c-0.014,0.03-0.021,0.076-0.021,0.138v0.402H10.86v-0.779
				H11.058z"/>
			<path d="M12.435,13.353h-0.212c-0.009-0.031-0.014-0.057-0.014-0.078c-0.065,0.066-0.149,0.099-0.251,0.099
				c-0.08,0-0.143-0.019-0.187-0.056c-0.051-0.043-0.077-0.103-0.077-0.18c0-0.098,0.044-0.165,0.132-0.203
				c0.036-0.015,0.102-0.029,0.197-0.042c0.082-0.011,0.134-0.022,0.154-0.032c0.02-0.01,0.03-0.031,0.03-0.062
				c0-0.068-0.045-0.102-0.136-0.102c-0.048,0-0.083,0.009-0.105,0.026c-0.022,0.017-0.037,0.047-0.044,0.089h-0.196
				c0.006-0.087,0.039-0.152,0.098-0.196c0.059-0.044,0.143-0.066,0.252-0.066c0.121,0,0.21,0.025,0.267,0.074
				c0.027,0.023,0.044,0.047,0.053,0.074c0.009,0.026,0.013,0.068,0.013,0.124c0,0.012-0.001,0.064-0.002,0.157
				c-0.001,0.094-0.001,0.148-0.001,0.162c0,0.057,0.002,0.098,0.005,0.125C12.416,13.292,12.424,13.321,12.435,13.353z
				 M12.207,12.976c-0.027,0.017-0.075,0.03-0.146,0.039c-0.05,0.008-0.085,0.017-0.107,0.029c-0.031,0.017-0.046,0.045-0.046,0.085
				c0,0.032,0.01,0.058,0.031,0.076c0.02,0.018,0.049,0.027,0.086,0.027c0.061,0,0.11-0.021,0.148-0.064
				c0.013-0.015,0.023-0.03,0.028-0.046s0.008-0.037,0.008-0.063V12.976z"/>
		</g>
	</g>
</g>
</svg>
