<svg xmlns="http://www.w3.org/2000/svg" width="24" height="24" version="1.1" viewBox="0 0 24 24">
  <path fill="none" fill-rule="evenodd" stroke="#000" stroke-width="1" d="M17.5,7.5 L17.5,21.5 L6.5,21.5 L6.5,7.5 M6.5,15.5 L5.921,15.5 C5.279,15.5 4.663,15.753 4.209,16.203 C3.755,16.653 3.5,17.264 3.5,17.9 L3.5,20.9 C3.5,21.06 3.564,21.212 3.677,21.324 C3.791,21.437 3.945,21.5 4.105,21.5 L6.5,21.5 M17.5,15.5 L18.079,15.5 C18.721,15.5 19.337,15.753 19.791,16.203 C20.245,16.653 20.5,17.264 20.5,17.9 L20.5,20.9 C20.5,21.06 20.436,21.212 20.323,21.324 C20.209,21.437 20.055,21.5 19.895,21.5 L17.5,21.5 M5.5015,2.5 L18.5005,2.5 C19.0525,2.5 19.5005,2.947 19.5005,3.5 L19.5005,6.5 C19.5005,7.053 19.0525,7.5 18.5005,7.5 L5.4995,7.5 C4.9475,7.5 4.5005,7.053 4.5005,6.501 L4.5005,3.501 C4.5005,2.948 4.9485,2.5 5.5015,2.5 Z M17.5,10 C16.812,10.786 15.965,11.415 15.017,11.846 C14.069,12.277 13.041,12.5 12,12.5 C10.959,12.5 9.931,12.277 8.983,11.846 C8.035,11.415 7.188,10.786 6.5,10 M12,11 L12,14 M8.5,2.5 L8.5,7.5 M15.5,2.5 L15.5,7.5"/>
</svg>
