<svg width="36" height="36" viewBox="0 0 36 36" fill="none" xmlns="http://www.w3.org/2000/svg"><path fill-rule="evenodd" clip-rule="evenodd" d="M9.7 7.67c-2.417 2.09-3.95 4.9-3.95 7.842V28.5h-1V15.512c0-3.297 1.714-6.366 4.296-8.598C11.629 4.68 15.119 3.25 18.75 3.25c3.631 0 7.12 1.43 9.704 3.664 2.582 2.232 4.296 5.301 4.296 8.598V28.5h-1V15.512c0-2.941-1.533-5.753-3.95-7.842-2.415-2.088-5.676-3.42-9.05-3.42-3.374 0-6.635 1.332-9.05 3.42Zm18.8 22.58v1h-1.77l.722 1.537-.904.426-.924-1.963H11.76l-.799 1.94-.924-.38.642-1.56H9v-1h2.092l.823-2H10.5v-1h1.827l.823-2H12v-1h1.562l.824-2H13.5v-1h1.297l.49-1.19.925.38-.333.81h5.039l-.37-.787.904-.426.571 1.213H24v1h-1.506l.94 2H25.5v1h-1.595l.942 2H27v1h-1.683l.942 2H28.5Zm-3.347 0-.94-2H12.996l-.824 2h12.98Zm-1.412-3-.94-2H14.231l-.824 2h10.333Zm-1.411-3-.941-2h-5.922l-.823 2h7.686Z" fill="#000"/></svg>