<svg xmlns="http://www.w3.org/2000/svg" width="48" height="48" fill="none" viewBox="0 0 48 48"><path fill="#000" fill-rule="evenodd" d="M18 8.5V7.89l-.597.118-10 1.982-.403.08V34H5v7h1v-2h15v2h1v-7h-2V18h3v23h1v-3h12v3h1v-2h5v2h1V20h-2v-3h-4v-5h-1.64l-.886-2.658L34.36 9h-8.72l-.114.342L24.64 12H23v5h-4v17h-1zM17 34V9.109l-9 1.784V34h1v-1h1v1h2v-1h1v1h2v-1h1v1zm4 4v-3H6v3zM9 13v2h1v-2zm28 5v2h3v-2zm5 3v17h-5V21zm-16.306-9h8.612l-.666-2h-7.28zM24 37h12V13H24zM12 15v-2h1v2zm3-2v2h1v-2zm-6 6v-2h1v2zm3-2v2h1v-2zm3 2v-2h1v2zm-6 2v2h1v-2zm3 2v-2h1v2zm3-2v2h1v-2zm-6 6v-2h1v2zm3-2v2h1v-2zm3 2v-2h1v2zm-6 2v2h1v-2zm3 2v-2h1v2zm3-2v2h1v-2zm10.001-13v-2h1v2zm3-2v2h1v-2zm3 2v-2h1v2zm-5 2h-1v2h1zm2 0h1v2h-1zm4 0h-1v2h1zm-7 4h1v2h-1zm4 0h-1v2h1zm2 0h1v2h-1zm-5 4h-1v2h1zm2 0h1v2h-1zm4 0h-1v2h1zm-7 4h1v2h-1zm4 0h-1v2h1zm2 0h1v2h-1zm3.001-16v2h1v-2zm0 4h1v2h-1zm1 4h-1v2h1zm-1 4h1v2h-1zm1 4h-1v2h1zm-10.001 6v-2h1v2zm3-2v2h1v-2zm3 2v-2h1v2zm3.001-2v2h1v-2zm5-12h-1v2h1zm-1 4h1v2h-1zm1 4h-1v2h1zm1-8h1v2h-1zm1 4h-1v2h1zm-1 4h1v2h-1zm-2 4v2h1v-2zm2 2v-2h1v2z" clip-rule="evenodd"/></svg>