<svg xmlns="http://www.w3.org/2000/svg" width="24" height="24" fill="none" viewBox="0 0 24 24"><path fill="#000" fill-rule="evenodd" d="M3.5 5a.5.5 0 0 0-.5.5v5c0 1.3.707 2.464 1.75 3.067l.25.145V15h3v-1.288l.25-.145A3.56 3.56 0 0 0 10 10.5v-5a.5.5 0 0 0-1 0V10H8V8.5a.5.5 0 0 0-1 0V10H6V8.5a.5.5 0 0 0-1 0V10H4V5.5a.5.5 0 0 0-.5-.5m7.5.5v5a4.56 4.56 0 0 1-2 3.777V15h1v6H3v-6h1v-.723A4.56 4.56 0 0 1 2 10.5v-5a1.5 1.5 0 1 1 3 0v1.585a1.5 1.5 0 0 1 1.5.297A1.5 1.5 0 0 1 8 7.085V5.5a1.5 1.5 0 1 1 3 0m8 9.5a1 1 0 1 1 2 0 1 1 0 0 1-2 0m1-2c.364 0 .706.097 1 .268V10.09l-5 .834V16a2 2 0 1 1-1-1.732V8.076l.418-.07 6-1L22 6.91V15a2 2 0 1 1-2-2m-6 2a1 1 0 1 1 0 2 1 1 0 0 1 0-2m2-5.09 5-.834V8.09l-5 .834zM4 20v-4h5v4z" clip-rule="evenodd"/></svg>