<svg xmlns="http://www.w3.org/2000/svg" width="36" height="36" version="1.1" viewBox="0 0 36 36">
  <path fill="none" fill-rule="evenodd" stroke="#000" stroke-width="1" d="M13.5,33 L10.5,24.75 L6.75,24.75 L6.75,28.5 L4.5,31.5 M8.25,15.75 C7.4505,15.75 6.75,15.0495 6.75,14.25 C6.75,13.4505 7.4505,12.75 8.25,12.75 C9.0495,12.75 9.75,13.4505 9.75,14.25 C9.75,15.0495 9.0495,15.75 8.25,15.75 Z M6.75,18.75 L6.75,24.75 L10.5,24.75 L10.5,18.75 M17.25,20.25 L13.5,20.25 L10.5,18.75 L7.8555,18.75 L6,18.75 L3.75,21 L3.75,25.5 M26.25,11.25 L26.25,20.25 L21.75,20.25 L21.75,11.25 M21.75,20.25 L21.75,26.3355 L18,31.5 M29.25,33 L29.25,24.8355 L26.25,20.25 M24,8.3349 C22.8,8.3349 21.75,7.2849 21.75,6.0849 C21.75,4.8849 22.8,3.8349 24,3.8349 C25.2,3.8349 26.25,4.8849 26.25,6.0849 C26.25,7.2849 25.2,8.3349 24,8.3349 Z M17.25,21 L17.25,15.75 L21.75,11.25 L26.25,11.25 L29.25,15.75 L33,18"/>
</svg>
