<svg class="color-immutable" xmlns="http://www.w3.org/2000/svg" width="59" height="20" fill="none" viewBox="0 0 59 20"><g clip-path="url(#a)"><path stroke="#fff" d="M2 .5h55A1.5 1.5 0 0 1 58.5 2v16a1.5 1.5 0 0 1-1.5 1.5H2A1.5 1.5 0 0 1 .5 18V2A1.5 1.5 0 0 1 2 .5Z"/><path fill="#fff" d="M4.069 4.224h5.704q1.692 0 2.594.531.749.435 1.144 1.16.395.727.395 1.636 0 1.032-.5 1.797-.491.765-1.377 1.095.78.195 1.224.87.282.427.379.895.097.467.25 2.135.112 1.224.346 1.523l.113.137h-2.683a2 2 0 0 1-.201-.637q-.058-.387-.154-1.788-.096-1.25-.612-1.725-.507-.483-1.74-.483H6.639v4.633h-2.57zm2.57 2.022v3.239h2.457q1.184 0 1.668-.339.612-.426.612-1.289 0-.837-.524-1.224t-1.651-.387zM23.743 13.908v2.095h-8.484q0-.96.306-1.83.315-.87.879-1.498a8 8 0 0 1 1.015-.943q.588-.459 2.328-1.683.846-.588 1.184-1.096a2.07 2.07 0 0 0 .339-1.176q0-.774-.46-1.25-.45-.482-1.192-.482-1.821 0-1.877 2.618h-2.264v-.258q0-2.143 1.2-3.32 1.169-1.143 3.022-1.143 1.643 0 2.747.934 1.2 1.015 1.2 2.732 0 1.498-.958 2.578-.315.354-.588.572-.275.21-1.442 1.023-1.112.773-1.596 1.184a6.5 6.5 0 0 0-.886.943zM32.638 4.224v1.998q-.097.105-.573.652-.66.758-1.313 1.91a13 13 0 0 0-1.015 2.2q-.765 2.199-.926 5.019h-2.434q.025-1.33.46-2.95.442-1.618 1.216-3.238 1.104-2.287 2.24-3.408h-5.56V4.224z"/></g><defs><clipPath id="a"><path fill="#fff" d="M0 0h59v20H0z"/></clipPath></defs></svg>