<?xml version="1.0" encoding="utf-8"?>
<!-- Generator: Adobe Illustrator 24.2.0, SVG Export Plug-In . SVG Version: 6.00 Build 0)  -->
<svg version="1.0" id="Ebene_1" xmlns="http://www.w3.org/2000/svg" xmlns:xlink="http://www.w3.org/1999/xlink" x="0px" y="0px"
	 viewBox="0 0 24 24" enable-background="new 0 0 24 24" xml:space="preserve">
<g id="SVG_x5F_24x24pt">
	<path id="backgroundBlue" fill="#2D327D" d="M0,22.5v-21C0,0.675,0.675,0,1.5,0h21C23.325,0,24,0.675,24,1.5v21
		c0,0.825-0.675,1.5-1.5,1.5h-21C0.675,24,0,23.325,0,22.5z"/>
	<g id="content">
		<g>
			<path fill="#FFFFFF" d="M13.985,11.795l1.811,0.633c0.039,0.015,0.082,0.021,0.124,0.021c0.125,0,0.241-0.062,0.311-0.166
				l0.407-0.604c0.033-0.05,0.05-0.109,0.05-0.167c0-0.166-0.134-0.301-0.299-0.301h-2.304c-0.166,0-0.301,0.135-0.301,0.301
				C13.783,11.64,13.865,11.754,13.985,11.795L13.985,11.795z"/>
			<path fill="#FFFFFF" d="M7.649,11.812h2.626v-0.6H7.649c-0.165,0-0.299,0.134-0.299,0.3C7.35,11.678,7.484,11.812,7.649,11.812
				L7.649,11.812z"/>
			<path fill="#FFFFFF" d="M7.65,12.788h0.375c0.165,0,0.3-0.135,0.3-0.3c0-0.166-0.135-0.301-0.3-0.301H7.65
				c-0.165,0-0.299,0.135-0.299,0.301C7.351,12.653,7.485,12.788,7.65,12.788L7.65,12.788z"/>
			<path fill="#FFFFFF" d="M17.325,13.649c-0.584,0-1.161,0.139-1.681,0.407l-0.72-1.156h-5.85l-0.72,1.156
				c-0.519-0.267-1.095-0.407-1.68-0.407C4.646,13.649,3,15.295,3,17.325C3,19.353,4.646,21,6.675,21
				c2.028,0,3.674-1.647,3.674-3.675c0-1.164-0.55-2.258-1.485-2.952l0.403-0.648l1.966,2.923c-0.136,0.172-0.209,0.383-0.209,0.602
				c0,0.538,0.437,0.975,0.974,0.975c0.379,0,0.724-0.22,0.884-0.563h0.782C13.839,19.553,15.426,21,17.325,21
				C19.354,21,21,19.353,21,17.325C21,15.295,19.354,13.649,17.325,13.649L17.325,13.649z M9.75,17.325
				c0,1.697-1.378,3.075-3.075,3.075c-1.697,0-3.076-1.378-3.076-3.075c0-1.698,1.378-3.075,3.076-3.075
				c0.473,0,0.938,0.109,1.362,0.318l-1.617,2.599c-0.029,0.047-0.044,0.102-0.044,0.159c0,0.165,0.134,0.3,0.3,0.3
				c0.104,0,0.2-0.054,0.254-0.142l1.617-2.598C9.305,15.467,9.75,16.369,9.75,17.325L9.75,17.325z M12.268,16.312
				c-0.087-0.025-0.178-0.037-0.269-0.037c-0.09,0-0.18,0.012-0.267,0.037L9.84,13.5h4.32L12.268,16.312L12.268,16.312z
				 M13.659,17.062h-0.702c-0.03-0.151-0.095-0.294-0.19-0.415l1.965-2.923l0.404,0.648C14.275,15.011,13.736,15.994,13.659,17.062
				L13.659,17.062z M15.453,14.885l1.355,2.177h-2.547C14.334,16.201,14.767,15.411,15.453,14.885L15.453,14.885z M17.325,20.4
				c-1.568,0-2.885-1.18-3.057-2.738h2.561c0.112,0.164,0.297,0.263,0.496,0.263c0.331,0,0.599-0.269,0.599-0.6
				c0-0.331-0.268-0.601-0.599-0.601c-0.006,0-0.014,0-0.019,0.001l-1.343-2.158c0.423-0.209,0.89-0.318,1.363-0.318
				c1.697,0,3.074,1.377,3.074,3.075C20.399,19.022,19.022,20.4,17.325,20.4L17.325,20.4z"/>
		</g>
		<g id="Ergaenzungstext">
			<path fill="#FFFFFF" d="M4.59,4.833v0.415H3V3h0.491v1.833H4.59z"/>
			<path fill="#FFFFFF" d="M5.622,3.523c0.244,0,0.443,0.081,0.598,0.243c0.153,0.16,0.229,0.373,0.229,0.64
				c0,0.276-0.082,0.496-0.245,0.66C6.053,5.218,5.854,5.295,5.609,5.295c-0.261,0-0.47-0.085-0.624-0.255
				C4.836,4.877,4.763,4.667,4.763,4.409c0-0.254,0.072-0.461,0.215-0.62C5.137,3.612,5.352,3.523,5.622,3.523z M5.599,3.871
				c-0.118,0-0.212,0.048-0.281,0.143C5.247,4.11,5.212,4.242,5.212,4.409c0,0.173,0.035,0.306,0.105,0.398
				c0.072,0.093,0.17,0.14,0.294,0.14c0.116,0,0.208-0.043,0.275-0.128c0.077-0.094,0.115-0.231,0.115-0.411
				c0-0.168-0.034-0.299-0.102-0.392C5.829,3.919,5.729,3.871,5.599,3.871z"/>
			<path fill="#FFFFFF" d="M8.299,4.604C8.277,4.771,8.221,4.911,8.131,5.023C7.985,5.204,7.78,5.295,7.514,5.295
				c-0.273,0-0.485-0.093-0.637-0.28C6.749,4.856,6.685,4.66,6.685,4.426c0-0.289,0.086-0.517,0.257-0.684
				c0.15-0.146,0.343-0.218,0.58-0.218c0.218,0,0.396,0.057,0.532,0.17c0.136,0.113,0.214,0.268,0.234,0.465H7.85
				C7.833,4.069,7.797,4,7.74,3.951C7.684,3.901,7.613,3.877,7.527,3.877c-0.124,0-0.22,0.047-0.288,0.141
				C7.17,4.111,7.136,4.243,7.136,4.412c0,0.15,0.027,0.27,0.082,0.361c0.067,0.112,0.167,0.168,0.3,0.168
				c0.197,0,0.312-0.112,0.346-0.337H8.299z"/>
			<path fill="#FFFFFF" d="M10.087,5.249H9.632C9.613,5.183,9.603,5.127,9.603,5.081c-0.139,0.143-0.319,0.214-0.54,0.214
				c-0.172,0-0.307-0.04-0.403-0.12C8.549,5.083,8.494,4.954,8.494,4.789c0-0.21,0.095-0.356,0.285-0.437
				c0.077-0.033,0.218-0.063,0.425-0.091C9.38,4.238,9.491,4.215,9.535,4.193C9.578,4.171,9.6,4.126,9.6,4.06
				c0-0.147-0.097-0.22-0.292-0.22c-0.104,0-0.179,0.018-0.227,0.055C9.033,3.932,9.002,3.996,8.986,4.087H8.565
				C8.578,3.901,8.648,3.76,8.776,3.665C8.903,3.57,9.084,3.523,9.318,3.523c0.259,0,0.451,0.053,0.575,0.158
				c0.057,0.049,0.096,0.102,0.115,0.158c0.019,0.056,0.028,0.146,0.028,0.268c0,0.026-0.002,0.138-0.005,0.338
				c-0.002,0.202-0.003,0.318-0.003,0.348c0,0.122,0.004,0.211,0.011,0.268S10.063,5.181,10.087,5.249z M9.597,4.438
				C9.539,4.474,9.435,4.502,9.283,4.523C9.176,4.539,9.1,4.56,9.052,4.586c-0.067,0.036-0.1,0.097-0.1,0.183
				c0,0.07,0.022,0.124,0.066,0.163C9.063,4.971,9.124,4.99,9.203,4.99c0.131,0,0.237-0.046,0.318-0.138
				C9.55,4.82,9.57,4.787,9.581,4.753c0.011-0.034,0.016-0.08,0.016-0.136V4.438z"/>
			<path fill="#FFFFFF" d="M11.286,3.566v0.315h-0.334V4.67c0,0.094,0.009,0.154,0.026,0.18c0.026,0.037,0.083,0.055,0.172,0.055
				c0.035,0,0.08-0.003,0.135-0.008v0.357c-0.1,0.011-0.193,0.017-0.277,0.017c-0.127,0-0.224-0.014-0.291-0.043
				c-0.104-0.046-0.168-0.13-0.194-0.252c-0.011-0.052-0.017-0.16-0.017-0.325V3.881h-0.272V3.566h0.272V3.172h0.445v0.394H11.286z"
				/>
			<path fill="#FFFFFF" d="M11.989,3v0.401h-0.446V3H11.989z M11.989,3.572v1.677h-0.446V3.572H11.989z"/>
			<path fill="#FFFFFF" d="M13.15,3.523c0.244,0,0.443,0.081,0.598,0.243c0.153,0.16,0.229,0.373,0.229,0.64
				c0,0.276-0.082,0.496-0.245,0.66c-0.153,0.153-0.352,0.229-0.597,0.229c-0.261,0-0.47-0.085-0.624-0.255
				c-0.148-0.162-0.221-0.372-0.221-0.631c0-0.254,0.072-0.461,0.215-0.62C12.664,3.612,12.879,3.523,13.15,3.523z M13.127,3.871
				c-0.118,0-0.212,0.048-0.281,0.143c-0.071,0.096-0.106,0.228-0.106,0.395c0,0.173,0.035,0.306,0.105,0.398
				c0.072,0.093,0.17,0.14,0.294,0.14c0.116,0,0.208-0.043,0.275-0.128c0.077-0.094,0.115-0.231,0.115-0.411
				c0-0.168-0.034-0.299-0.102-0.392C13.356,3.919,13.256,3.871,13.127,3.871z"/>
			<path fill="#FFFFFF" d="M14.693,3.574v0.235c0.052-0.072,0.101-0.125,0.146-0.158c0.111-0.086,0.244-0.129,0.4-0.129
				c0.137,0,0.254,0.035,0.349,0.105c0.076,0.055,0.129,0.125,0.159,0.21c0.03,0.085,0.045,0.204,0.045,0.358v1.055h-0.445V4.287
				c0-0.108-0.009-0.187-0.028-0.237c-0.017-0.044-0.047-0.079-0.089-0.105c-0.048-0.028-0.103-0.042-0.165-0.042
				c-0.068,0-0.129,0.016-0.185,0.049c-0.055,0.033-0.096,0.077-0.123,0.134c-0.03,0.064-0.045,0.163-0.045,0.297v0.864h-0.446
				V3.574H14.693z"/>
		</g>
	</g>
</g>
</svg>
