<svg xmlns="http://www.w3.org/2000/svg" width="36" height="36" viewBox="0 0 36 36">
  <path fill="none" stroke="#000" d="M20.54595,15.7515 C18.06045,11.4465 12.55545,9.972 8.25195,12.4575 C3.94695,14.943 2.47245,20.4465 4.95645,24.7515 L20.54595,15.7515 Z M8.85495,22.5015 C6.36945,18.1965 6.09945,13.6995 8.25195,12.4575 C10.40445,11.214 14.16345,13.6965 16.64895,18.0015 M12.7515,20.2515 L18.75,32.25 M3,32.25 L33,32.25 M32.25,9.75 C32.25,12.2355 30.2355,14.25 27.75,14.25 C25.2645,14.25 23.25,12.2355 23.25,9.75 C23.25,7.2645 25.2645,5.25 27.75,5.25 C30.2355,5.25 32.25,7.2645 32.25,9.75 Z"/>
</svg>
