<svg xmlns="http://www.w3.org/2000/svg" width="48" height="48" fill="none" viewBox="0 0 48 48"><path fill="#000" fill-rule="evenodd" d="m17.473 42.163 11-32-.946-.326-11 32zM44 28.663c-4.153-5.641-9.53-10.333-15.734-13.621l.468-.884c6.389 3.387 11.916 8.227 16.17 14.047l.096.132v2.044l.605.13.395.085V33.5h-.5.5v.028l-.001.02-.008.091a2.428 2.428 0 0 1-.466 1.16c-.489.653-1.403 1.2-3.025 1.2h-2.425l1.81 2.182.68.819H31.242a4.5 4.5 0 0 1-3.742 2 4.5 4.5 0 0 1-3.742-2H20v-1h3.256A4.5 4.5 0 0 1 23 36.5c0-.925.28-1.785.758-2.5H22v-1h2.671c.773-.626 1.757-1 2.829-1s2.056.374 2.829 1h7.08l.598-3.582.086-.517.512.11L44 30.167zM37.5 36h1.275l1.66 2h-8.691A4.5 4.5 0 0 0 32 36.5c0-.925-.28-1.785-.758-2.5h6.001l-.236 1.418-.097.582zm7.5-2.505v-2.09l-6.093-1.306-.817 4.9h4.41c1.378 0 1.964-.45 2.225-.8a1.4 1.4 0 0 0 .272-.666l.003-.036zM28.214 16.776l.524.284a34.8 34.8 0 0 1 8.117 6.088L37.7 24H25.806l.22-.658 2-6zm.57 1.453-1.59 4.77h8.075a33.8 33.8 0 0 0-6.485-4.77M24 36.499a3.5 3.5 0 1 1 7 0 3.5 3.5 0 0 1-7 0m-20 2V24H2v-4h2v-4.5c0-1.398.363-2.546 1.158-3.341S7.101 11 8.5 11H25v1H8.5c-1.236 0-2.089.32-2.635.865C5.32 13.411 5 14.264 5 15.5V24h16v1H5v10h12v1h-7v3H4zm1-.5v-2h4v2zM3 23h1v-2H3zm20-8H8v1h15zM8.5 30a1.5 1.5 0 1 0 0 3 1.5 1.5 0 0 0 0-3M8 31.5c0-.274.225-.5.5-.5s.5.226.5.5a.5.5 0 0 1-1 0" clip-rule="evenodd"/></svg>