<svg class="color-immutable" xmlns="http://www.w3.org/2000/svg" width="59" height="20" fill="none" viewBox="0 0 59 20"><g clip-path="url(#a)"><path stroke="#FFDE15" d="M2 .5h55A1.5 1.5 0 0 1 58.5 2v16a1.5 1.5 0 0 1-1.5 1.5H2A1.5 1.5 0 0 1 .5 18V2A1.5 1.5 0 0 1 2 .5Z"/><path fill="#FFDE15" d="M53.79 11.203v1.954h-1.456v2.642H50.08v-2.642h-4.825v-2.168l4.944-6.755h2.136v6.969zm-3.663.024V6.922l-2.974 4.304zM32.918 4.2h4.042l.805 6.063L40.387 4.2h4.043l-5.001 11.6h-4.06l-.927-5.758-2.483 5.758H27.9zM26.092 12.366a.92.92 0 0 0 .843-.553L30.216 4.2H16.13l-5.001 11.6h4.024l3.786-8.69h5.974l-1.197 2.775-5.209-.019L22.71 15.8h4.582l-3.114-3.434zM9.388 4.2h4.042l-5 11.6H4.37z"/></g><defs><clipPath id="a"><path fill="#fff" d="M0 0h59v20H0z"/></clipPath></defs></svg>