<svg xmlns="http://www.w3.org/2000/svg" width="24" height="24" fill="none" viewBox="0 0 24 24"><path fill="#000" fill-rule="evenodd" d="M16.504 2a2.5 2.5 0 0 0-2.495 2.333l-3.601.676-.408.076v1.828l.405.078 3.729.718q-.128.374-.13.791a2.5 2.5 0 0 0 4.958.458 2.5 2.5 0 0 0 0-4.916A2.5 2.5 0 0 0 16.504 2m-1.5 2.5a1.5 1.5 0 0 1 3 0V5h.5a1.5 1.5 0 0 1 0 3h-.5v.5a1.5 1.5 0 0 1-3 0c0-.322.104-.62.28-.867L15.736 7l-.764-.147L11 6.087v-.172l3.62-.68.456-.085-.051-.461-.014-.114a1 1 0 0 1-.007-.075M6 4h3v3H8v.999h.25a2.75 2.75 0 0 1 2.75 2.75l.002 10.751v.5h-7v-.5L3.997 10.75a2.75 2.75 0 0 1 2.75-2.75H7V7H6V4m1 1v1h1V5zm-2.003 5.748c0-.966.783-1.75 1.75-1.75H8.25c.967 0 1.75.784 1.75 1.75V11H4.997zm0 1.252.004 7.001h5L10 12zm.005 9v-.999h5v1z" clip-rule="evenodd"/></svg>