<?xml version="1.0" encoding="utf-8"?>
<!-- Generator: Adobe Illustrator 24.2.0, SVG Export Plug-In . SVG Version: 6.00 Build 0)  -->
<svg version="1.0" id="Ebene_1" xmlns="http://www.w3.org/2000/svg" xmlns:xlink="http://www.w3.org/1999/xlink" x="0px" y="0px"
	 viewBox="0 0 24 24" enable-background="new 0 0 24 24" xml:space="preserve">
<g id="SVG_x5F_24x24pt">
	<path id="backgroundBlue" fill="#2D327D" d="M0,22.5v-21C0,0.675,0.675,0,1.5,0h21C23.325,0,24,0.675,24,1.5v21
		c0,0.825-0.675,1.5-1.5,1.5h-21C0.675,24,0,23.325,0,22.5z"/>
	<g id="content">
		<g>
			<path fill="#FFFFFF" d="M17.972,3.666c0,0.37-0.297,0.669-0.666,0.669c-0.371,0-0.669-0.299-0.669-0.669
				C16.637,3.298,16.935,3,17.306,3C17.675,3,17.972,3.298,17.972,3.666"/>
			<path fill="#FFFFFF" d="M20.968,9.293l-0.903-2.125c-0.063-0.147-0.205-0.243-0.368-0.243h-1.541l-0.083-0.664h1.278
				c0.133,0,0.243-0.108,0.243-0.245c0-0.133-0.109-0.242-0.243-0.242h-1.338l-0.101-0.814c-0.038-0.303-0.314-0.518-0.619-0.481
				c-0.302,0.038-0.517,0.315-0.48,0.618l0.266,2.126c0.003,0.025,0.013,0.09,0.013,0.098c0,0.221,0.179,0.4,0.399,0.4h1.945
				l0.801,1.881c0.062,0.151,0.211,0.241,0.366,0.241c0.052,0,0.104-0.01,0.157-0.031C20.96,9.729,21.055,9.494,20.968,9.293"/>
			<path fill="#FFFFFF" d="M19.755,9.021c-0.329,0.558-0.935,0.931-1.627,0.931c-1.044,0-1.889-0.845-1.889-1.889
				c0-0.523,0.214-0.998,0.559-1.339l-0.075-0.649c-0.623,0.441-1.031,1.167-1.031,1.988c0,1.346,1.09,2.437,2.436,2.437
				c0.76,0,1.439-0.349,1.885-0.895L19.755,9.021z"/>
		</g>
		<g>
			<path fill="#FFFFFF" d="M13.224,12.755L10.991,21H9.186l-1.427-5.888L6.377,21H4.55l-2.199-8.245h1.81l1.325,6.057l1.449-6.057
				h1.703l1.449,6.012l1.342-6.012H13.224z"/>
			<path fill="#FFFFFF" d="M21.221,17.819c-0.06,0.853-0.346,1.583-0.857,2.188c-0.669,0.793-1.617,1.19-2.842,1.19
				c-1.305,0-2.32-0.461-3.045-1.382c-0.62-0.786-0.931-1.767-0.931-2.944c0-1.233,0.368-2.261,1.105-3.085
				c0.737-0.82,1.716-1.229,2.938-1.229c1.139,0,2.057,0.376,2.752,1.128c0.496,0.53,0.771,1.141,0.823,1.833h-1.776
				c-0.098-0.466-0.306-0.826-0.626-1.08c-0.32-0.254-0.724-0.381-1.213-0.381c-0.782,0-1.367,0.329-1.754,0.987
				c-0.29,0.5-0.434,1.113-0.434,1.839c0,0.744,0.152,1.365,0.457,1.861c0.387,0.635,0.961,0.953,1.72,0.953
				c0.541,0,0.973-0.16,1.294-0.479c0.321-0.32,0.52-0.786,0.595-1.399H21.221z"/>
		</g>
	</g>
</g>
</svg>
