<svg class="color-immutable" xmlns="http://www.w3.org/2000/svg" width="59" height="20" fill="none" viewBox="0 0 59 20"><g clip-path="url(#a)"><path stroke="#fff" d="M2 .5h55A1.5 1.5 0 0 1 58.5 2v16a1.5 1.5 0 0 1-1.5 1.5H2A1.5 1.5 0 0 1 .5 18V2A1.5 1.5 0 0 1 2 .5Z"/><path fill="#fff" d="M4.069 4.224h5.704q1.692 0 2.594.532.749.434 1.144 1.16.395.725.395 1.635 0 1.032-.5 1.797-.491.765-1.377 1.096.78.192 1.224.87.282.426.379.894.097.467.25 2.135.112 1.224.346 1.523l.113.137h-2.683a2 2 0 0 1-.201-.637q-.058-.387-.154-1.788-.096-1.25-.612-1.724-.507-.484-1.74-.484H6.639v4.633h-2.57zm2.57 2.022v3.239h2.457q1.184 0 1.668-.339.612-.426.612-1.289 0-.837-.524-1.224t-1.651-.387zM23.542 7.165h-2.24q-.315-1.362-1.547-1.362-1.305 0-1.853 1.603-.225.652-.363 1.974.532-.717 1.128-1.031.604-.315 1.45-.314 1.66 0 2.667 1.176.96 1.111.959 2.787 0 1.99-1.29 3.199-1.16 1.088-2.787 1.088-2.085 0-3.247-1.571-1.16-1.58-1.16-4.4 0-3.013 1.241-4.72 1.2-1.653 3.28-1.652 1.956 0 2.996 1.313.597.757.765 1.91m-3.989 2.699q-.846 0-1.345.708-.45.63-.451 1.499 0 .862.46 1.507.499.717 1.369.717.846 0 1.361-.685.484-.645.484-1.523 0-.862-.435-1.474-.533-.75-1.442-.75M32.34 4.224v2.095h-4.746l-.508 2.65q.855-.902 2.184-.902 1.305 0 2.272.7 1.434 1.056 1.434 3.207 0 2.111-1.53 3.344-1.194.966-2.853.967-1.87 0-3.005-1-1.136-1.006-1.2-2.714H26.7q.056.62.402 1.055.54.685 1.5.685.925 0 1.465-.669.525-.652.524-1.587 0-1.015-.548-1.62-.547-.612-1.458-.612-1.112 0-1.732 1l-2.103-.033 1.12-6.566z"/></g><defs><clipPath id="a"><path fill="#fff" d="M0 0h59v20H0z"/></clipPath></defs></svg>