<svg xmlns="http://www.w3.org/2000/svg" width="48" height="48" fill="none" viewBox="0 0 48 48"><path fill="#000" fill-rule="evenodd" d="M8.5 4H8v40h33V4H8.5m.5 6.304V5h31v8H9zM9 14h31v29H9zm8.005 14.231c.123.126.25.305.41.546l.034.051c.303.459.776 1.172 1.713 1.172s1.41-.713 1.715-1.172l.034-.05c.363-.546.557-.778.916-.778.36 0 .553.232.917.777l.034.051c.304.46.777 1.172 1.715 1.172s1.41-.713 1.715-1.172l.034-.05c.363-.546.557-.778.917-.778.361 0 .556.233.92.778l.033.05c.305.46.779 1.172 1.718 1.172.938 0 1.412-.712 1.717-1.171l.034-.051a4 4 0 0 1 .414-.55q.005.135.005.272a7.5 7.5 0 1 1-14.995-.269m.122-1.11c.538.223.86.708 1.086 1.05l.034.052c.363.546.557.777.915.777.36 0 .553-.232.917-.777l.034-.051c.304-.459.777-1.172 1.714-1.172.938 0 1.41.713 1.715 1.172l.034.05c.364.546.558.778.917.778.36 0 .553-.232.917-.777l.034-.051c.304-.46.777-1.172 1.715-1.172s1.412.712 1.717 1.171l.034.051c.364.545.558.778.92.778.36 0 .555-.233.919-.778l.034-.05c.228-.344.55-.829 1.09-1.051a7.502 7.502 0 0 0-14.747 0M12 9a1 1 0 1 1 2 0 1 1 0 0 1-2 0m1-2a2 2 0 1 0 0 4 2 2 0 0 0 0-4m19 1h-4V7h4zm2 0h4V7h-4zm-2 3h-4v-1h4zm2 0h4v-1h-4zm-9.5 7.063c-5.799 0-10.5 4.7-10.5 10.5s4.701 10.5 10.5 10.5S35 34.36 35 28.563c0-5.8-4.701-10.5-10.5-10.5M13 28.563c0-6.352 5.149-11.5 11.5-11.5S36 22.21 36 28.563c0 6.35-5.149 11.5-11.5 11.5S13 34.913 13 28.563M24.5 20a8.5 8.5 0 1 0 0 17 8.5 8.5 0 0 0 0-17" clip-rule="evenodd"/></svg>