<svg class="color-immutable" xmlns="http://www.w3.org/2000/svg" width="59" height="20" fill="none" viewBox="0 0 59 20"><path fill="#EB0000" fill-rule="evenodd" d="M2 0a2 2 0 0 0-2 2v16a2 2 0 0 0 2 2h55a2 2 0 0 0 2-2V2a2 2 0 0 0-2-2z" clip-rule="evenodd"/><path fill="#fff" d="M3.669 15.8 6.104 4.132h8.651l-.405 1.95H8.102l-.557 2.65h6.04l-.405 1.95H7.139l-.733 3.168h6.79l-.414 1.95zM16.678 15.8h-3.104l5.15-5.905-2.898-5.763h2.508l1.138 2.189q.056.12.78 1.616.048.08.103.214a82 82 0 0 1 1.632-1.941l1.838-2.078h3.017l-5.34 6.145 2.873 5.523h-2.707l-.875-1.759q-.685-1.392-.907-1.998-.31.47-1.6 1.942zM30.882 15.8h-2.404l2.037-9.718h-3.422l.406-1.95h9.193l-.406 1.95H32.91z"/></svg>