<svg xmlns="http://www.w3.org/2000/svg" width="24" height="24" viewBox="0 0 24 24">
  <path fill="none" stroke="#000" d="M18.5,5.5002 C18.5,6.6442 17.644,7.5002 16.5,7.5002 C15.723,7.5002 15.078,7.1042 14.745,6.4922 C14.588,6.2032 14.5,5.8662 14.5,5.5002 C14.5,4.3562 15.356,3.5002 16.5,3.5002 C17.644,3.5002 18.5,4.3562 18.5,5.5002 Z M8.5,11.5002 C8.5,11.8862 8.406,12.2372 8.237,12.5342 C7.902,13.1252 7.271,13.5002 6.5,13.5002 C5.343,13.5002 4.5,12.6562 4.5,11.5002 C4.5,10.3432 5.343,9.5002 6.5,9.5002 C7.218,9.5002 7.816,9.8252 8.166,10.3492 C8.379,10.6682 8.5,11.0622 8.5,11.5002 Z M18.5,17.4997 C18.5,18.6177 17.617,19.4997 16.5,19.4997 C15.383,19.4997 14.506,18.6177 14.506,17.4997 C14.506,17.1297 14.605,16.7517 14.778,16.4527 C15.129,15.8507 15.753,15.4997 16.5,15.4997 C17.617,15.4997 18.5,16.3827 18.5,17.4997 Z M14.7783,16.4529 L8.2373,12.5349 M8.1655,10.3488 L14.7455,6.4918"/>
</svg>
