<svg xmlns="http://www.w3.org/2000/svg" width="24" height="24" fill="none" viewBox="0 0 24 24"><path fill="#000" fill-rule="evenodd" d="M20.646 21.354 19.292 20H2V5h2.292L2.646 3.354l.707-.707 18 18zM16.792 17.5l1.5 1.5H17v-.5h-1v.5H3V6h2.292l11 11H16v.5zM21.5 5H9v1h12v3.034a3.463 3.463 0 0 0-3 3.466c0 1.789 1.285 3.23 3 3.466V18h1v-3h-.5a2.467 2.467 0 0 1-2.5-2.5c0-1.406 1.093-2.5 2.5-2.5h.5V5zM16 6.6v-.583h1V6.6zm0 2.327V7.763h1v1.164zm0 2.327v-1.163h1v1.163zM16 13v-.582h1V13z" clip-rule="evenodd"/></svg>