<svg xmlns="http://www.w3.org/2000/svg" width="36" height="36" fill="none" viewBox="0 0 36 36"><path fill="#000" fill-rule="evenodd" d="M19 5.25a1 1 0 1 0-2 0 1 1 0 0 0 2 0m-1-2a2 2 0 0 1 1.66 3.116 11.7 11.7 0 0 1 5.381 2.227 2 2 0 1 1 2.366 2.366 11.7 11.7 0 0 1 2.236 5.45 2 2 0 1 1-.02 3.32 11.7 11.7 0 0 1-2.216 5.313 2 2 0 1 1-2.366 2.365c-.61.458-1.268.858-1.963 1.192l1.386 3.465.274.686H11.261l.275-.686 1.386-3.465a11.8 11.8 0 0 1-1.963-1.192 2 2 0 1 1-2.366-2.366 11.7 11.7 0 0 1-2.236-5.45 2 2 0 1 1 .02-3.32 11.7 11.7 0 0 1 2.216-5.312 2 2 0 1 1 2.366-2.366 11.7 11.7 0 0 1 5.381-2.227A2 2 0 0 1 18 3.25m-8.165 6.3a1 1 0 1 0-.285.285q.141-.144.285-.285m-.284 16.615a1 1 0 1 0 .284.284 12 12 0 0 1-.284-.284m16.614.284a1 1 0 1 0 .284-.284q-.139.145-.284.284m.285-16.614a1 1 0 1 0-.285-.285q.144.141.285.285M18 7.25c-2.789 0-5.33 1.062-7.24 2.803l5.144 5.144A3.5 3.5 0 0 1 18 14.5c.786 0 1.512.26 2.096.697l5.144-5.143A10.7 10.7 0 0 0 18 7.25m2.803 8.654c.438.584.697 1.31.697 2.096s-.26 1.512-.697 2.096l5.144 5.144A10.7 10.7 0 0 0 28.75 18a10.7 10.7 0 0 0-2.803-7.24zm-.813 4.975q.054-.037.106-.076l5.144 5.144a10.8 10.8 0 0 1-2.534 1.721zm-4.086-.076q.052.04.106.076l-2.716 6.79a10.8 10.8 0 0 1-2.534-1.722zm-.707-.707-5.144 5.144A10.7 10.7 0 0 1 7.25 18c0-2.789 1.062-5.33 2.803-7.24l5.144 5.144A3.5 3.5 0 0 0 14.5 18c0 .786.26 1.512.697 2.096M18 20.5a2.5 2.5 0 1 0 0-5 2.5 2.5 0 0 0 0 5m12.043-1.718a1 1 0 1 0 1.414-1.414 1 1 0 0 0-1.414 1.414M5.957 17.218a1 1 0 1 0-1.414 1.414 1 1 0 0 0 1.414-1.414m8.07 11.31L16.84 21.5h2.323l2.81 7.027 1.29 3.223H12.739z" clip-rule="evenodd"/></svg>