<svg xmlns="http://www.w3.org/2000/svg" width="23" height="16" fill="none" viewBox="0 0 23 16"><path fill="#000" fill-rule="evenodd" d="M13.538 9.555c0 1.146-.914 2.076-2.04 2.076-1.122 0-2.035-.93-2.035-2.076S10.376 7.48 11.5 7.48c1.125 0 2.039.929 2.039 2.075m-2.04 3.889a3.75 3.75 0 0 1-2.737-1.177 3.9 3.9 0 0 1-1.079-2.823c.053-2.027 1.718-3.72 3.707-3.777a3.75 3.75 0 0 1 2.774 1.101 3.89 3.89 0 0 1 1.157 2.787h1.527a5.45 5.45 0 0 0-1.618-3.903 5.28 5.28 0 0 0-3.88-1.538c-2.786.078-5.118 2.449-5.196 5.285-.03 1.1.258 2.156.821 3.061C4.18 11.081 3 8.657 2.66 7.803c.658-1.141 3.402-5.249 8.839-5.249 5.434 0 8.178 4.099 8.839 5.246-.492 1.2-2.727 5.644-8.84 5.644m10.364-6.052C21.734 7.133 18.646 1 11.499 1 4.354 1 1.267 7.133 1.139 7.392L1 7.676l.092.299C1.116 8.044 3.365 15 11.5 15c8.137 0 10.385-6.956 10.407-7.025L22 7.676z" clip-rule="evenodd"/></svg>