<svg xmlns="http://www.w3.org/2000/svg" width="48" height="48" fill="none" viewBox="0 0 48 48"><path fill="#000" fill-rule="evenodd" d="M16.643 5C15.196 5 14 6.202 14 7.682V38h20V7.682C34 6.202 32.804 5 31.357 5zM34 39H14v2.319c0 1.479 1.196 2.68 2.643 2.68h14.714C32.804 44 34 42.799 34 41.32zM13 7.682C13 5.662 14.632 4 16.643 4h14.714C33.368 4 35 5.66 35 7.682v33.637c0 2.02-1.632 3.68-3.643 3.68H16.643C14.633 45 13 43.34 13 41.32zM26 42h-4v-1h4zm2-34h-6V7h6zm-8 0h1V7h-1z" clip-rule="evenodd"/></svg>