<?xml version="1.0" encoding="utf-8"?>
<!-- Generator: Adobe Illustrator 24.2.0, SVG Export Plug-In . SVG Version: 6.00 Build 0)  -->
<svg version="1.0" id="Ebene_1" xmlns="http://www.w3.org/2000/svg" xmlns:xlink="http://www.w3.org/1999/xlink" x="0px" y="0px"
	 viewBox="0 0 24 24" enable-background="new 0 0 24 24" xml:space="preserve">
<g id="SVG_x5F_24x24pt">
	<path id="backgroundBlue" fill="#2D327D" d="M0,22.5v-21C0,0.675,0.675,0,1.5,0h21C23.325,0,24,0.675,24,1.5v21
		c0,0.825-0.675,1.5-1.5,1.5h-21C0.675,24,0,23.325,0,22.5z"/>
	<g id="content">
		<path fill="#FFFFFF" d="M10.5,20.25c0,0.414,0.336,0.75,0.75,0.75h9c0.414,0,0.75-0.336,0.75-0.75v-0.375H10.5V20.25L10.5,20.25z"
			/>
		<path fill="#FFFFFF" d="M18.75,12h-5.625c-0.207,0-0.375,0.168-0.375,0.375v6c0,0.414,0.336,0.75,0.75,0.75H18
			c0.414,0,0.75-0.336,0.75-0.75V16.5c1.242,0,2.25-1.008,2.25-2.25C21,13.008,19.992,12,18.75,12L18.75,12z M18.755,15.75
			c-0.002,0-0.004,0-0.005,0v-3c0.002,0,0.004,0,0.005,0c0.828,0,1.5,0.672,1.5,1.5C20.255,15.078,19.583,15.75,18.755,15.75
			L18.755,15.75z"/>
		<path fill="#FFFFFF" d="M9.375,7.5h-6l0,0C3.168,7.5,3,7.668,3,7.875V12c0,1.585,1.231,2.897,2.812,2.998v4.877H3.375l0,0
			C3.168,19.875,3,20.043,3,20.25v0.375C3,20.832,3.168,21,3.375,21h6c0.207,0,0.375-0.168,0.375-0.375V20.25
			c0-0.207-0.168-0.375-0.375-0.375H6.938v-4.877C8.519,14.897,9.75,13.585,9.75,12V7.875C9.75,7.668,9.582,7.5,9.375,7.5L9.375,7.5
			z"/>
	</g>
</g>
</svg>
