<svg xmlns="http://www.w3.org/2000/svg" width="13" height="16" fill="none" viewBox="0 0 13 16"><path fill="#000" d="M4.75 3.5a1.25 1.25 0 1 0 0-2.5 1.25 1.25 0 0 0 0 2.5"/><path fill="#000" fill-rule="evenodd" d="M5.343 4.407c-.303-.302-.694-.4-1.048-.407a.9.9 0 0 0-.313.034c-.084.023-.16.056-.22.083-.119.056-.248.132-.37.21-.25.157-.544.369-.822.585s-.555.448-.77.652c-.105.1-.21.206-.293.308-.041.05-.091.116-.135.192a.9.9 0 0 0-.122.439l-.007.087q-.009.097-.027.245c-.023.193-.053.43-.084.663-.031.232-.062.456-.086.622l-.028.2-.01.073a.75.75 0 1 0 1.485.213l.01-.076.029-.202a102 102 0 0 0 .174-1.319c.01-.085.02-.176.028-.26q.04-.041.098-.096c.132-.126.308-.276.5-.431L3 9.209v1.937l-.007.018q-.051.122-.153.336c-.136.281-.319.64-.505.997a93 93 0 0 1-.68 1.277l-.047.087-.016.03a.75.75 0 1 0 1.317.718l.017-.032.048-.088a90 90 0 0 0 .691-1.298c.189-.362.38-.738.527-1.042.072-.151.138-.294.187-.411a3 3 0 0 0 .068-.182v-.003c.013-.037.053-.16.053-.303V10h.242a8 8 0 0 1 .264.22c.098.086.182.165.244.23V12a.75.75 0 1 0 1.5 0v-1.75a1 1 0 0 0-.154-.508 2 2 0 0 0-.192-.252 5 5 0 0 0-.41-.398 9 9 0 0 0-.237-.2 71 71 0 0 0 .008-1.17l.9.449a.75.75 0 1 0 .67-1.342l-1.593-.797c0-.06.001-.096.003-.14.002-.069.005-.157.005-.392 0-.366-.092-.778-.407-1.093M3.02 11.094l-.001.003z" clip-rule="evenodd"/><path fill="#000" d="M12 11H8.5v2.5h-3V15H10v-2.5h2z"/></svg>