<svg xmlns="http://www.w3.org/2000/svg" width="48" height="48" fill="none" viewBox="0 0 48 48"><path fill="#000" fill-rule="evenodd" d="M22 8.5a1.5 1.5 0 1 1 3 0 1.5 1.5 0 0 1-3 0m-.897.713a14.4 14.4 0 0 0-5.978 2.469c.238.383.375.834.375 1.318a2.5 2.5 0 0 1-.494 1.493l6.392 6.208c.586-.44 1.313-.701 2.102-.701s1.516.26 2.101.7l6.393-6.207A2.5 2.5 0 0 1 31.5 13c0-.484.137-.936.376-1.319a14.4 14.4 0 0 0-5.98-2.468 2.501 2.501 0 0 1-4.793 0m4.88-1a2.5 2.5 0 0 0-4.967.001 15.4 15.4 0 0 0-6.586 2.735 2.5 2.5 0 0 0-3.481 3.48 15.4 15.4 0 0 0-2.735 6.587 2.5 2.5 0 0 0 0 4.968 15.4 15.4 0 0 0 2.735 6.586 2.5 2.5 0 0 0 3.48 3.482c.807.588 1.67 1.098 2.574 1.52l-.857 2.429H14v1h18.001v-1h-2.127l-.624-2.122a15.5 15.5 0 0 0 3.32-1.828 2.5 2.5 0 0 0 3.481-3.48 15.4 15.4 0 0 0 2.734-6.587 2.5 2.5 0 0 0 0-4.968 15.4 15.4 0 0 0-2.734-6.586 2.5 2.5 0 0 0-3.481-3.48 15.4 15.4 0 0 0-6.586-2.736M34 15.5c.484 0 .936-.138 1.319-.376a14.4 14.4 0 0 1 2.467 5.98 2.501 2.501 0 0 0 0 4.793 14.4 14.4 0 0 1-2.467 5.979A2.5 2.5 0 0 0 34 31.5c-.452 0-.876.12-1.241.33l-6.451-6.24A3.5 3.5 0 0 0 27 23.5c0-.784-.258-1.507-.693-2.09l6.435-6.25c.37.216.8.34 1.258.34m-22.318-.376a14.4 14.4 0 0 0-2.469 5.98 2.501 2.501 0 0 1 0 4.793 14.4 14.4 0 0 0 2.469 5.978A2.5 2.5 0 0 1 13 31.5c.452 0 .876.12 1.242.33l6.45-6.24A3.5 3.5 0 0 1 20 23.5c0-.784.258-1.507.693-2.09l-6.435-6.25c-.37.216-.8.34-1.258.34-.484 0-.936-.137-1.318-.376M25.94 26.627l6.064 5.866c-.317.42-.505.942-.505 1.508 0 .484.137.935.375 1.318a14.5 14.5 0 0 1-2.908 1.597zM15.124 35.32c.698.5 1.439.936 2.214 1.304l3.428-9.715-5.771 5.584c.317.419.505.94.505 1.507 0 .485-.138.937-.377 1.32M26 23.5c0 .579-.197 1.112-.527 1.536l-.493-1.677-.106-.359h-2.728l-.117.334-.57 1.611A2.5 2.5 0 1 1 26 23.5m2.832 16.501L24.126 24h-1.272l-5.648 16.001zM11.5 34a1.5 1.5 0 1 1 3 0 1.5 1.5 0 0 1-3 0M34 32.5a1.5 1.5 0 1 0 0 3 1.5 1.5 0 0 0 0-3m-27-9a1.5 1.5 0 1 1 3 0 1.5 1.5 0 0 1-3 0M38.5 22a1.5 1.5 0 1 0 0 3 1.5 1.5 0 0 0 0-3m-27-9a1.5 1.5 0 1 1 3 0 1.5 1.5 0 0 1-3 0M34 11.5a1.5 1.5 0 1 0 0 3 1.5 1.5 0 0 0 0-3" clip-rule="evenodd"/></svg>