<svg xmlns="http://www.w3.org/2000/svg" width="48" height="48" fill="none" viewBox="0 0 48 48"><path fill="#000" fill-rule="evenodd" d="M12.5 11a1.5 1.5 0 1 0 .001 3.001A1.5 1.5 0 0 0 12.5 11M10 12.5a2.5 2.5 0 1 1 5.002.002A2.5 2.5 0 0 1 10 12.5m12 0a1.5 1.5 0 1 1 3.001.001A1.5 1.5 0 0 1 22 12.5m1.5-2.5a2.5 2.5 0 1 0 .002 5.002A2.5 2.5 0 0 0 23.5 10m12 1a1.5 1.5 0 1 0 .001 3.001A1.5 1.5 0 0 0 35.5 11M33 12.5a2.5 2.5 0 1 1 5.002.002A2.5 2.5 0 0 1 33 12.5m0 27.499V38h-2.052l.055-.55.945-9.45h-.691l-.264 1.582-.986-.164.333-2 1.667-10 .07-.418h6.847l.07.418 1.666 10 .333 2-.986.164L39.743 28h-.69l.945 9.45.055.55H38v1.999h-1V38h-3v1.999zm-.047-11.998-.9 8.999h6.895l-.9-8.999zm-10.953 0v11.998h-1V28.001h-1V29.5h-1V17h9v12.5h-1v-1.499h-.999v11.998h-1V28.001zm5-1V18h-7v9.001zM11 39.999V28.001h3v11.998h1V28.001h1V29.5h1V17H8v12.5h1v-1.499h1v11.998zM16 18v9.001H9V18zm22.076 0 1.5 9h-8.152l1.5-9z" clip-rule="evenodd"/></svg>