<svg xmlns="http://www.w3.org/2000/svg" width="24" height="24" fill="none" viewBox="0 0 24 24"><path fill="#000" fill-rule="evenodd" d="M2 4.5A2.5 2.5 0 0 1 6.5 3h5.207l.146.146.985.984.353.354-.353.353-1.015 1.016-.147.147H6.5A2.5 2.5 0 0 1 2 4.5m4.95.5a2.5 2.5 0 0 0 0-1h4.343l.484.484-.515.516zM4.5 3a1.5 1.5 0 1 0 0 3 1.5 1.5 0 0 0 0-3m11.363 4.519.222-.064.192.129 6 4-.554.832-5.808-3.872L2.137 12.48l-.274-.961zM6 18.995a2.003 2.003 0 0 1 2.506-1.935l-.943 1.697.874.486.942-1.695c.382.365.621.879.621 1.447 0 1.102-.898 2-2 2s-2-.898-2-2m3.875-2.34A3 3 0 0 1 11 18.995c0 1.654-1.346 3-3 3s-3-1.346-3-3a3.003 3.003 0 0 1 4.002-2.828l1.06-1.91.144-.257H9v-1h2v1h3v-1h-1v-1h2v2.418l.54 1.617Q15.764 16 16 16c1.655 0 3 1.345 3 3 0 1.654-1.345 3-3 3s-3-1.346-3-3c0-1.146.645-2.143 1.59-2.649L14.14 15h-3.346zm5.988.35.611 1.832-.948.316-.612-1.832a2 2 0 1 0 .949-.317" clip-rule="evenodd"/></svg>