<svg class="color-immutable" xmlns="http://www.w3.org/2000/svg" width="59" height="20" fill="none" viewBox="0 0 59 20"><g clip-path="url(#a)"><path fill="#000" fill-rule="evenodd" d="M2 0a2 2 0 0 0-2 2v16a2 2 0 0 0 2 2h55a2 2 0 0 0 2-2V2a2 2 0 0 0-2-2z" clip-rule="evenodd"/><path fill="#FFDE15" d="M32.918 4.2h4.042l.805 6.063L40.388 4.2h4.042L39.43 15.8H35.37l-.928-5.758-2.483 5.758H27.9zM26.092 12.366a.92.92 0 0 0 .843-.553L30.216 4.2H16.13l-5.001 11.6h4.025l3.786-8.69h5.973l-1.197 2.775-5.209-.019L22.71 15.8h4.582l-3.114-3.434zM9.388 4.2h4.042l-5 11.6H4.37z"/></g><defs><clipPath id="a"><path fill="#fff" d="M0 0h59v20H0z"/></clipPath></defs></svg>