<?xml version="1.0" encoding="utf-8"?>
<!-- Generator: Adobe Illustrator 24.2.0, SVG Export Plug-In . SVG Version: 6.00 Build 0)  -->
<svg version="1.0" id="Ebene_1" xmlns="http://www.w3.org/2000/svg" xmlns:xlink="http://www.w3.org/1999/xlink" x="0px" y="0px"
	 viewBox="0 0 24 24" enable-background="new 0 0 24 24" xml:space="preserve">
<g id="SVG_x5F_24x24pt">
	<path id="backgroundBlue" fill="#2D327D" d="M0,22.5v-21C0,0.675,0.675,0,1.5,0h21C23.325,0,24,0.675,24,1.5v21
		c0,0.825-0.675,1.5-1.5,1.5h-21C0.675,24,0,23.325,0,22.5z"/>
	<g id="content">
		<path fill="#FFFFFF" d="M3.288,18.862c-0.207,0-0.375-0.168-0.375-0.375c0-0.018,0.001-0.036,0.004-0.053l0,0l0.319-2.236
			l3.889,0.002v2.661H3.288L3.288,18.862z"/>
		<path fill="#FFFFFF" d="M12.366,8.193l8.634,0V7.5h-7.05L16.163,6L12,3.637L7.862,6H7.838l2.213,1.5H5.454l0,0
			c-0.56,0-1.035,0.412-1.114,0.966l-1.003,7.022H21v-3.712h-8.634l0,0c-0.202,0-0.366-0.164-0.366-0.366
			c0-0.202,0.164-0.366,0.366-0.366H21V10.35h-8.634l0,0C12.164,10.35,12,10.186,12,9.984c0-0.202,0.164-0.366,0.366-0.366H21V8.925
			h-8.634C12.164,8.925,12,8.761,12,8.559C12,8.357,12.164,8.193,12.366,8.193L12.366,8.193z M7.35,11.4
			c0,0.207-0.168,0.375-0.375,0.375H5.02c-0.207,0-0.375-0.168-0.375-0.375c0-0.018,0.001-0.036,0.004-0.053l0,0l0.405-2.831
			C5.08,8.331,5.238,8.194,5.425,8.194h1.551c0.207,0,0.375,0.168,0.375,0.375V11.4L7.35,11.4z M11.32,7.5l-2.125-1.44l2.806-1.602
			l2.813,1.596L12.68,7.5H11.32L11.32,7.5z"/>
		<path fill="#FFFFFF" d="M16.209,18.021c0-1.056-0.857-1.912-1.913-1.912c-1.055,0-1.912,0.857-1.912,1.912
			c0,1.056,0.857,1.913,1.912,1.913C15.352,19.933,16.209,19.077,16.209,18.021L16.209,18.021z"/>
		<path fill="#FFFFFF" d="M11.7,18.021c0-1.056-0.857-1.912-1.913-1.912c-1.056,0-1.912,0.857-1.912,1.912
			c0,1.056,0.857,1.913,1.912,1.913C10.843,19.933,11.7,19.077,11.7,18.021L11.7,18.021z"/>
		<polygon fill="#FFFFFF" points="3,3 3,3.375 21,3.375 21,3 3,3 		"/>
		<polygon fill="#FFFFFF" points="21,21 21,20.288 3,20.288 3,21 21,21 		"/>
		<polygon fill="#FFFFFF" points="21,16.313 21,16.2 16.875,16.2 16.875,18.862 21,18.862 21,16.313 		"/>
	</g>
</g>
</svg>
