<svg xmlns="http://www.w3.org/2000/svg" width="36" height="36" version="1.1" viewBox="0 0 36 36">
  <path fill="none" fill-rule="evenodd" stroke="#000" stroke-width="1" d="M17.99775,24.57855 C15.74775,24.53355 13.59225,23.66805 11.95425,22.14855 L17.99775,16.20555 L24.04275,22.14855 C22.40325,23.66805 20.24925,24.53355 17.99775,24.57855 Z M8.49975,15.23655 C8.44425,14.47305 8.63025,13.70955 9.03075,13.05105 C9.43275,12.39405 10.02975,11.87355 10.74225,11.56005 C11.75475,11.21805 13.11075,11.44305 14.70675,12.83805 L9.16725,18.28605 C8.74575,17.32155 8.51775,16.28655 8.49975,15.23655 Z M25.25475,11.55705 C25.96725,11.86905 26.56425,12.39105 26.96625,13.04805 C27.36675,13.70805 27.55275,14.47305 27.49575,15.23655 C27.47775,16.28655 27.25125,17.32155 26.82825,18.28605 L21.29025,12.83205 C21.77625,12.29205 22.39875,11.88705 23.09625,11.66505 C23.79375,11.44005 24.53775,11.40555 25.25475,11.56005 L25.25475,11.55705 Z M30.37275,21.77055 C31.55475,19.78755 32.19975,17.53755 32.24475,15.23655 C32.30475,13.49805 31.81275,11.78505 30.83775,10.33455 C29.86125,8.88255 28.44975,7.76805 26.79975,7.14105 C23.89875,6.16755 20.73675,7.03905 17.99775,9.47055 C15.25725,7.03905 12.09375,6.16755 9.20025,7.14255 C7.55025,7.76955 6.13875,8.88405 5.16225,10.33605 C4.18725,11.78655 3.69525,13.49955 3.75525,15.23805 C3.80025,17.53905 4.44525,19.78905 5.62725,21.77205 L4.44975,22.93005 C4.01325,23.36955 3.76875,23.96205 3.77325,24.57555 C3.77625,25.19055 4.02675,25.78005 4.46775,26.21505 C4.91025,26.65005 5.51025,26.89605 6.13425,26.89905 C6.75975,26.90205 7.36125,26.66355 7.80825,26.23305 L8.58825,25.46505 C11.12025,27.86055 14.48625,29.21505 17.99775,29.24955 C21.51225,29.21505 24.87975,27.86055 27.41175,25.46355 L28.19175,26.23155 C28.64025,26.65305 29.23875,26.88555 29.85975,26.87805 C30.47925,26.87055 31.07325,26.62605 31.51125,26.19405 C31.95075,25.76355 32.19975,25.17855 32.20725,24.56955 C32.21475,23.95905 31.97775,23.36955 31.54875,22.92855 L30.37275,21.77055 Z"/>
</svg>
