<svg xmlns="http://www.w3.org/2000/svg" width="24" height="24" fill="none" viewBox="0 0 24 24"><path fill="#000" fill-rule="evenodd" d="m6.836 7.543-.982-.982v1.293h-1V5.56l-1-1v2.798q0 .014.002.045a1.959 1.959 0 0 0 .195.726c.095.19.23.366.424.495.19.127.466.229.879.229.412 0 .688-.102.878-.229.194-.129.329-.304.424-.495a2 2 0 0 0 .18-.587m.813.813a3 3 0 0 1-.098.221c-.155.31-.395.634-.764.88-.26.174-.57.298-.933.358v11.039h-1V9.814a2.34 2.34 0 0 1-.934-.357 2.26 2.26 0 0 1-.764-.88 3 3 0 0 1-.302-1.184v-.038l.5-.001h-.5V3.56L2 2.707 2.707 2l19 19-.707.707-3.146-3.146v2.293h-1V17.56l-4.708-4.707h-1.292v8h-1V10.56zm3.205 3.205.292.293h-.292zm-4-8.707v2h1v-2zm3.5 0v.5zh.039l.082.005a2.958 2.958 0 0 1 1.102.298c.31.154.634.394.88.763.248.372.397.846.397 1.434v4.499h-1V5.353c0-.413-.102-.69-.229-.88a1.26 1.26 0 0 0-.495-.423 2 2 0 0 0-.276-.11v3.913h-1v-5zm6.3 1.275c-.349.26-.8.847-.8 2.225s.451 1.963.8 2.225a1.4 1.4 0 0 0 .667.272l.033.002.032-.002a1.429 1.429 0 0 0 .667-.272c.349-.262.8-.847.8-2.225s-.451-1.964-.8-2.225a1.4 1.4 0 0 0-.667-.272l-.032-.003-.033.003a1.428 1.428 0 0 0-.667.272m.7-.775-.001-.5h-.017a1 1 0 0 0-.122.008 2.428 2.428 0 0 0-1.16.466c-.652.49-1.2 1.404-1.2 3.026s.548 2.536 1.2 3.025c.286.214.572.331.8.395v5.08h1v-5.08a2.4 2.4 0 0 0 .8-.395c.651-.49 1.2-1.403 1.2-3.025s-.549-2.537-1.2-3.025a2.43 2.43 0 0 0-1.161-.467 2 2 0 0 0-.122-.008h-.016z" clip-rule="evenodd"/></svg>