<svg xmlns="http://www.w3.org/2000/svg" width="37" height="38" fill="none" viewBox="0 0 37 38"><path fill="#000" fill-rule="evenodd" d="M.658.22 0 0v31.054l.342.114 18 6 .158.053.158-.053 18-6 .342-.114V0l-.658.22L18.5 6.166zM1 30.332V1.387l17 5.667V36zM19 36V7.054l17-5.667v28.946zM3.342 8.168l12 4 .316-.949-12-4zm18.316 4 12-4-.316-.949-12 4zm-6.316 6-12-4 .316-.949 12 4zm-12 2 12 4 .316-.949-12-4zm12 10-12-4 .316-.949 12 4zM34 13.694V13l-.658.22-12 4-.342.113v13.054l.658-.219 12-4 .342-.114v-12.36M22 29V18.054l11-3.667v10.946z" clip-rule="evenodd"/></svg>