<svg xmlns="http://www.w3.org/2000/svg" width="16" height="16" fill="none" viewBox="0 0 16 16"><path fill="#000" fill-rule="evenodd" d="M3 4.167c0-.489.124-.745.284-.89.17-.155.481-.277 1.05-.277h7.333c.568 0 .879.122 1.05.277.16.145.283.401.283.89V7h-1.05a2.501 2.501 0 0 0-4.9 0H3zM8.085 7h2.83a1.5 1.5 0 0 0-2.83 0M13 12H3V8h10zM2 6V4.167c0-.65.167-1.227.611-1.63C3.045 2.143 3.651 2 4.333 2h7.334c.683 0 1.288.143 1.722.537.444.403.611.98.611 1.63V6h1v1h-1v6h-1v2h-3v-2H6v2H3v-2H2V7H1V6zm2 7v1h1v-1zm7 0v1h1v-1zm-7-3a1 1 0 1 1 2.002.002A1 1 0 0 1 4 10m7-1a1 1 0 1 0 .002 2.002A1 1 0 0 0 11 9" clip-rule="evenodd"/></svg>