<svg xmlns="http://www.w3.org/2000/svg" width="36" height="36" fill="none" viewBox="0 0 36 36"><path fill="#000" fill-rule="evenodd" d="M19.25 8.25c0-.523.477-1 1-1s1 .477 1 1-.477 1-1 1-1-.477-1-1m1-2c-1.076 0-2 .924-2 2s.924 2 2 2 2-.924 2-2-.924-2-2-2m-1.706 6h3.516l.138.276 1.48 2.96L25.9 18.45l-.8.6-2.25-3-.027-.036-.02-.04-.554-1.107v5.4l1.443 2.75.057.11V30h-1v-6.627l-1.302-2.483H19.25v3.896l-.005.035-.75 5.25-.99-.142.745-5.214V13.958l-2 2V19.5h-1v-3.957l.147-.147 3-3zm.706 7.64v-6.64h2v6.64zm-3.91.226-1.216 3.01-2.314-.943-.464-.19-.188.465-1.686 4.173-.187.462.461.189 2.778 1.134.465.19.188-.466 3.09-7.65zm-3.443 3.182 1.852.755-1.311 3.247-1.853-.756zM9.36 27.463a.75.75 0 0 0-.696.468.751.751 0 0 0 1.39.562.75.75 0 0 0-.694-1.03m2.086 1.591a.75.75 0 0 1 .977-.414.75.75 0 1 1-.977.414" clip-rule="evenodd"/></svg>