<svg xmlns="http://www.w3.org/2000/svg" width="48" height="48" fill="none" viewBox="0 0 48 48"><path fill="#000" fill-rule="evenodd" d="M3 4.741V2H2v44h1v-7.493l5.682-1.745a17.89 17.89 0 0 1 14.639 1.861 18.9 18.9 0 0 0 7.328 2.626c2.59.356 5.444.192 7.78-.555.981-.314 2.79-.908 4.35-1.422l2.025-.67.623-.206.17-.056.045-.015.011-.004h.004v-.001l-.157-.475.157.475.343-.114V4.433l-.657.218.157.475-.157-.475h-.001l-.003.001-.011.004-.045.015-.17.056-.623.207-2.024.668a649 649 0 0 1-4.342 1.42c-2.17.694-4.87.856-7.339.517a17.9 17.9 0 0 1-6.94-2.487A18.89 18.89 0 0 0 8.388 3.086zm0 1.047V37.46l5.388-1.655a18.89 18.89 0 0 1 15.457 1.965 17.9 17.9 0 0 0 6.94 2.487c2.47.34 5.17.178 7.34-.516.975-.313 2.78-.905 4.34-1.42l2.024-.669.511-.169V5.818l-.196.065-2.025.669c-1.56.514-3.369 1.108-4.35 1.422-2.336.748-5.19.912-7.78.555a18.9 18.9 0 0 1-7.328-2.626 17.9 17.9 0 0 0-7.119-2.51l.063-.496-.063.496a17.9 17.9 0 0 0-7.52.649zm19.6 5.537.62.207-.422.634.832.555.37-.555.37.555.832-.555-.423-.634.62-.207-.316-.948-.583.194V10h-1v.57l-.583-.194zm5.9 1.684-.62-.206.317-.95.582.195v-.57h1v.57l.584-.194.316.949-.62.206.422.634-.832.555-.37-.555-.37.555-.831-.555zm3.226 3.639.62.207-.423.634.832.554.37-.555.37.555.832-.554-.423-.634.62-.207-.316-.949-.584.194v-.57h-1v.57l-.582-.194zm2.027 5.46-.62-.207.316-.95.583.195v-.57h1v.57l.583-.194.316.948-.62.207.423.634-.832.555-.37-.555-.37.555-.832-.555zm-2.027 5.045.62.207-.423.634.832.555.37-.555.37.555.832-.555-.423-.634.62-.207-.316-.948-.584.194v-.571h-1v.57l-.582-.194zM28.5 31.205l-.62-.207.317-.948.582.194v-.57h1v.57l.584-.194.316.948-.62.207.422.634-.832.555-.37-.555-.37.555-.831-.555zm-5.864 1.2.62.208-.422.634.832.554.37-.555.37.555.832-.554-.423-.635.62-.206-.317-.949-.582.194v-.57h-1v.57l-.584-.194zm-4.64-1.2-.62-.207.315-.948.583.194v-.57h1v.57l.583-.194.316.948-.62.207.423.634-.832.555-.37-.555-.37.555-.832-.555zm-4.466-4.052.62.207-.423.634.832.555.37-.555.37.555.832-.555-.423-.634.62-.207-.316-.948-.583.194v-.571h-1v.57l-.583-.194zm-.788-5.046-.62-.206.316-.95.583.195v-.57h1v.57l.583-.194.317.948-.62.207.422.634-.832.555-.37-.555-.37.555-.832-.555zm.788-5.46.62.208-.423.634.832.554.37-.555.37.555.832-.554-.423-.634.62-.207-.316-.949-.583.194v-.57h-1v.57l-.583-.194zm4.465-3.638-.62-.206.316-.95.583.195v-.57h1v.57l.583-.194.316.949-.62.206.423.634-.832.555-.37-.555-.37.555-.832-.555z" clip-rule="evenodd"/></svg>