<svg xmlns="http://www.w3.org/2000/svg" width="36" height="36" fill="none" viewBox="0 0 36 36"><path fill="#000" fill-rule="evenodd" d="M8.75 5.25a1 1 0 0 1 1-1h18a1 1 0 0 1 1 1v25.5a1 1 0 0 1-1 1h-18a1 1 0 0 1-1-1zm1-2a2 2 0 0 0-2 2v25.5a2 2 0 0 0 2 2h18a2 2 0 0 0 2-2V5.25a2 2 0 0 0-2-2zm1.5 3h-.5v5.5h16v-5.5h-15.5m.5 4.5v-3.5h14v3.5zm1 4a1 1 0 1 0 0 2 1 1 0 0 0 0-2m-2 1a2 2 0 1 1 4 0 2 2 0 0 1-4 0m7 0a1 1 0 1 1 2 0 1 1 0 0 1-2 0m1-2a2 2 0 1 0 0 4 2 2 0 0 0 0-4m6 1a1 1 0 1 0 0 2 1 1 0 0 0 0-2m-2 1a2 2 0 1 1 4 0 2 2 0 0 1-4 0m-11 6a1 1 0 1 1 2 0 1 1 0 0 1-2 0m1-2a2 2 0 1 0 0 4 2 2 0 0 0 0-4m6 1a1 1 0 1 0 0 2 1 1 0 0 0 0-2m-2 1a2 2 0 1 1 4 0 2 2 0 0 1-4 0m-5 6a1 1 0 1 1 2 0 1 1 0 0 1-2 0m1-2a2 2 0 1 0 0 4 2 2 0 0 0 0-4m6 1a1 1 0 1 0 0 2 1 1 0 0 0 0-2m-2 1a2 2 0 1 1 4 0 2 2 0 0 1-4 0m7-6a1 1 0 1 1 2 0v6a1 1 0 1 1-2 0zm1-2a2 2 0 0 0-2 2v6a2 2 0 1 0 4 0v-6a2 2 0 0 0-2-2" clip-rule="evenodd"/></svg>