<?xml version="1.0" encoding="utf-8"?>
<!-- Generator: Adobe Illustrator 24.2.0, SVG Export Plug-In . SVG Version: 6.00 Build 0)  -->
<svg version="1.0" id="Ebene_1" xmlns="http://www.w3.org/2000/svg" xmlns:xlink="http://www.w3.org/1999/xlink" x="0px" y="0px"
	 viewBox="0 0 24 24" enable-background="new 0 0 24 24" xml:space="preserve">
<g id="SVG_x5F_24x24pt">
	<path id="backgroundBlue" fill="#2D327D" d="M0,22.5v-21C0,0.675,0.675,0,1.5,0h21C23.325,0,24,0.675,24,1.5v21
		c0,0.825-0.675,1.5-1.5,1.5h-21C0.675,24,0,23.325,0,22.5z"/>
	<g id="content">
		<g>
			<polygon fill="#FFFFFF" points="8.32,3 3,3 3,15.115 11.592,11.987 8.32,3 			"/>
			<path fill="#FFFFFF" d="M20.25,14.782l-0.208-0.572c-0.238-0.652-0.858-1.084-1.551-1.084H10.44L3,15.833v1.199
				c0,0.35,0.061,0.697,0.181,1.026l0.944,2.594l5.427-1.976L9.033,17.25h4.438L20.25,14.782L20.25,14.782z"/>
			<path fill="#FFFFFF" d="M20.625,18h-4.5c-0.207,0-0.374,0.168-0.374,0.375v0.75c0,0.207,0.167,0.374,0.374,0.374h1.125V21h2.25
				v-1.5h1.125c0.207,0,0.375-0.167,0.375-0.374v-0.75C21,18.168,20.832,18,20.625,18L20.625,18z"/>
		</g>
	</g>
</g>
</svg>
