<svg xmlns="http://www.w3.org/2000/svg" width="36" height="36" fill="none" viewBox="0 0 36 36"><path fill="#000" fill-rule="evenodd" d="M17.75 10.5V3h-1v7.5zm10.285-1.666a2 2 0 0 0-2.829-.002l-8.954 8.731.002-3.31a2 2 0 0 0-2.002-2.003c-.555 0-1.005.21-1.342.577-.32.348-.515.81-.642 1.294l-3 10.491-.078.274.196.207 7.432 7.878.205.217.289-.077-.13-.483.13.483h.002l.003-.002.009-.002.029-.008.1-.032q.131-.041.366-.132a12 12 0 0 0 1.294-.609c1.082-.586 2.553-1.57 4.147-3.164a3169 3169 0 0 1 3.571-3.565l.11-.11.024-.024.006-.005.001-.001.002-.002a2.002 2.002 0 0 0-.912-3.354 2.005 2.005 0 0 0-.148-2.665 2 2 0 0 0-.907-.52c.621-.786.57-1.93-.155-2.657a2 2 0 0 0-.896-.518l4.077-4.076a2 2 0 0 0 0-2.831m-10.578 23.17-.13.049-7.019-7.44 2.924-10.223.003-.011c.106-.41.247-.696.41-.875a.77.77 0 0 1 .607-.254c.553 0 1.002.448 1.002 1.003l-.003 4.497v1.186l.849-.828 9.807-9.563.005-.005a1.002 1.002 0 0 1 1.416 1.418L22.1 16.185l-.079.074-2.656 2.66.707.706 2.712-2.71a1.004 1.004 0 0 1 1.363.05c.39.392.39 1.026 0 1.418l-.962.958a2 2 0 0 0-.102.095l.004.003-1.596 1.59.706.708 1.665-1.66a1.004 1.004 0 0 1 1.347.066c.39.391.39 1.026 0 1.417l-1.594 1.592.706.708.53-.53h.002a1.002 1.002 0 0 1 1.417 1.417l-.007.006-.024.024-.11.11-.548.546c-.54.537-1.468 1.464-3.026 3.022-1.52 1.522-2.913 2.448-3.916 2.992-.502.272-.907.449-1.182.557m6.96-27.227-3 4.5-.833-.554 3-4.5zm-10.5 3.946-3-4.5-.833.554 3 4.5z" clip-rule="evenodd"/></svg>