<svg xmlns="http://www.w3.org/2000/svg" width="24" height="24" viewBox="0 0 24 24">
  <path fill="none" stroke="#222" d="M5.5,4.0002 L5.5,21.0002 M4,6.5002 L5.5,6.5002 M7,9.5002 L11.718,9.5002 M7,6.5002 L12,6.5002 M4,9.5002 L5.5,9.5002 M4,15.4997 L5.502,15.4997 M7,12.4948 L9.747,12.4948 M4,12.5002 L5.5,12.5002 M15,4.5002 L5.498,18.9622 M13.6855,6.5002 L12.9995,6.5002 M7,15.4948 L7.776,15.4948 M21,4.5002 L10.497,19.4482 M10.5,4.0002 L10.5,11.3562 M10,15.4997 L15,15.4997 M12,12.5002 L17,12.5002 M14,9.5002 L19,9.5002 M16,6.5002 L21,6.5002 M8,18.4997 L13,18.4997 M4,18.4997 L5.502,18.4997 M10.5,18.4997 L10.5,20.9997"/>
</svg>
