<svg xmlns="http://www.w3.org/2000/svg" width="48" height="48" version="1.1" viewBox="0 0 48 48">
  <path fill="none" fill-rule="evenodd" stroke="#000" stroke-width="1" d="M4.5,36.5 L43.5,36.5 M6.5,36.5 L13.5,25.5 L22.023,32.52 L32,22.5 L41.5,36.5 M4.5,43.5 L43.5,43.5 L43.5,4.5 L4.5,4.5 L4.5,43.5 Z M18.5,14.5 C18.5,16.156 17.161,17.5 15.5,17.5 C13.839,17.5 12.5,16.156 12.5,14.5 C12.5,12.844 13.839,11.5 15.5,11.5 C17.161,11.5 18.5,12.844 18.5,14.5 Z M8,14.5 L11,14.5 M9.8926,8.8203 L12.1696,11.0963 M15.5,7 L15.5,10 M21.1572,8.9121 L18.8932,11.1501 M23,14.5 L20,14.5 M21.1709,20.0967 L18.9049,17.8397 M15.5,19 L15.5,22 M12.1572,17.9053 L9.8952,20.1673 M22.0234,32.5195 L18.0604,36.4995 M27.5,27 L29.5,29 L31.5,27 L33.5,29 L35.234,27.266"/>
</svg>
