<?xml version="1.0" encoding="utf-8"?>
<!-- Generator: Adobe Illustrator 29.6.1, SVG Export Plug-In . SVG Version: 9.03 Build 0)  -->
<svg version="1.0" xmlns="http://www.w3.org/2000/svg" xmlns:xlink="http://www.w3.org/1999/xlink" x="0px" y="0px"
	 viewBox="0 0 24 24" enable-background="new 0 0 24 24" xml:space="preserve">
<g id="SVG_x5F_24x24pt">
	<path id="backgroundBlue" fill="#2D327D" d="M0,22.5v-21C0,0.675,0.675,0,1.5,0h21C23.325,0,24,0.675,24,1.5v21
		c0,0.825-0.675,1.5-1.5,1.5h-21C0.675,24,0,23.325,0,22.5z"/>
	<g id="content">
		<path fill="#FFFFFF" d="M8.774,5.376c-0.04,0.007-0.08,0.011-0.12,0.011c-0.383,0-0.694-0.311-0.694-0.694
			c0-0.337,0.242-0.625,0.574-0.683l6.464-1.132c0.04-0.007,0.08-0.01,0.12-0.01c0.383,0,0.694,0.311,0.694,0.694
			c0,0.337-0.242,0.625-0.574,0.683L8.774,5.376L8.774,5.376z"/>
		<polygon fill="#FFFFFF" points="2.997,7.516 20.997,4.363 20.997,3.678 2.997,6.831 		"/>
		<path fill="#FFFFFF" d="M19.731,11.626c-0.133-0.233-0.382-0.376-0.65-0.376H4.919c-0.268,0-0.516,0.142-0.649,0.375
			c-0.422,0.735-1.276,2.473-1.276,4.5c0,2.027,0.854,3.765,1.276,4.5C4.404,20.858,4.652,21,4.919,21h14.161
			c0.268,0,0.517-0.143,0.65-0.376C20.151,19.888,21,18.151,21,16.125C21,14.099,20.151,12.362,19.731,11.626z M8.772,17.625
			C8.772,17.832,8.604,18,8.397,18H4.271c-0.179,0-0.332-0.127-0.368-0.302c-0.1-0.485-0.156-1.016-0.156-1.573
			c0-1.837,0.744-3.394,1.031-3.928C4.844,12.076,4.971,12,5.109,12h3.289c0.207,0,0.375,0.168,0.375,0.375V17.625z M14.472,17.625
			c0,0.207-0.168,0.375-0.375,0.375h-4.2c-0.207,0-0.375-0.168-0.375-0.375v-5.25C9.522,12.168,9.69,12,9.897,12h4.2
			c0.207,0,0.375,0.168,0.375,0.375V17.625z M19.708,18h-4.11c-0.207,0-0.375-0.168-0.375-0.375v-5.25
			c0-0.207,0.168-0.375,0.375-0.375h3.246c0.137,0,0.262,0.074,0.328,0.194c0.294,0.53,1.061,2.09,1.061,3.931
			c0,0.557-0.056,1.088-0.156,1.573C20.039,17.873,19.887,18,19.708,18z"/>
		<polygon fill="#FFFFFF" points="12.369,6.264 15.017,10.892 16.175,10.892 13.421,6.078 		"/>
		<polygon fill="#FFFFFF" points="10.264,6.633 7.827,10.892 8.985,10.892 11.553,6.405 		"/>
	</g>
</g>
</svg>
