<?xml version="1.0" encoding="utf-8"?>
<!-- Generator: Adobe Illustrator 24.2.0, SVG Export Plug-In . SVG Version: 6.00 Build 0)  -->
<svg version="1.0" id="Ebene_1" xmlns="http://www.w3.org/2000/svg" xmlns:xlink="http://www.w3.org/1999/xlink" x="0px" y="0px"
	 viewBox="0 0 24 24" enable-background="new 0 0 24 24" xml:space="preserve">
<g id="SVG_x5F_24x24pt">
	<path id="backgroundBlue" fill="#2D327D" d="M0,22.5v-21C0,0.675,0.675,0,1.5,0h21C23.325,0,24,0.675,24,1.5v21
		c0,0.825-0.675,1.5-1.5,1.5h-21C0.675,24,0,23.325,0,22.5z"/>
	<g id="content">
		<g>
			<path fill="#FFFFFF" d="M8.776,5.438l6.464-1.132c0.332-0.058,0.574-0.347,0.574-0.683c0-0.383-0.311-0.694-0.694-0.694
				c-0.04,0-0.08,0.004-0.12,0.01L8.537,4.071C8.205,4.13,7.963,4.418,7.963,4.755c0,0.383,0.311,0.694,0.694,0.694
				C8.697,5.449,8.737,5.445,8.776,5.438L8.776,5.438z"/>
			<polygon fill="#FFFFFF" points="2.999,7.516 20.999,4.363 20.999,3.678 2.999,6.831 2.999,7.516 			"/>
			<path fill="#FFFFFF" d="M20.25,11.25h-3.712L13.76,6.01l-1.049,0.183l2.68,5.057H8.646l2.488-4.781L9.832,6.697l-2.37,4.553H3.75
				C3.336,11.25,3,11.586,3,12v8.25C3,20.664,3.336,21,3.75,21h16.5c0.414,0,0.75-0.336,0.75-0.75V12
				C21,11.586,20.664,11.25,20.25,11.25L20.25,11.25z M8.75,16.125c0,0.207-0.168,0.375-0.375,0.375h-4.25
				c-0.207,0-0.375-0.168-0.375-0.375v-3.75C3.75,12.168,3.918,12,4.125,12h4.25c0.207,0,0.375,0.168,0.375,0.375V16.125
				L8.75,16.125z M14.5,16.125c0,0.207-0.168,0.375-0.375,0.375h-4.25c-0.207,0-0.375-0.168-0.375-0.375v-3.75
				C9.5,12.168,9.668,12,9.875,12h4.25c0.207,0,0.375,0.168,0.375,0.375V16.125L14.5,16.125z M20.25,16.125
				c0,0.207-0.168,0.375-0.375,0.375h-4.25c-0.207,0-0.375-0.168-0.375-0.375v-3.75c0-0.207,0.168-0.375,0.375-0.375h4.25
				c0.207,0,0.375,0.168,0.375,0.375V16.125L20.25,16.125z"/>
		</g>
	</g>
</g>
</svg>
