<svg xmlns="http://www.w3.org/2000/svg" width="36" height="36" fill="none" viewBox="0 0 36 36"><path fill="#000" fill-rule="evenodd" d="M8.75 8.85c0-2.768 1.768-4.45 3.85-4.45 2.103 0 4 1.705 4 4.45 0 2.829-1.82 4.9-3.85 4.9-2.049 0-4-2.095-4-4.9M12.6 3.4c-2.718 0-4.85 2.218-4.85 5.45 0 1.63.586 3.134 1.526 4.215-3.013 2.057-4.51 5.336-5.258 8.065a22.6 22.6 0 0 0-.672 3.601 20 20 0 0 0-.094 1.406l-.002.082v.03l.5.001h-.5v.5h7.25v-1H4.268a21.612 21.612 0 0 1 .715-4.355c.734-2.684 2.186-5.769 5.035-7.623.786.616 1.725.978 2.732.978 1.063 0 2.024-.402 2.806-1.076 2.228 1.567 3.508 3.831 4.38 6.012l.928-.372c-.89-2.223-2.232-4.65-4.613-6.372.844-1.074 1.349-2.53 1.349-4.092 0-3.255-2.303-5.45-5-5.45m15.45 9a4.533 4.533 0 0 0-4.55 4.55c0 .691.117 1.277.351 1.842l-.205.204-4.8 4.8-.204.205a4.7 4.7 0 0 0-1.842-.351 4.533 4.533 0 0 0-4.55 4.55c0 .827.168 1.504.503 2.174l.31.62.49-.49 1.05-1.05 1.504-1.504h.943v.943l-2.554 2.553-.49.49.62.311a4.65 4.65 0 0 0 2.174.503 4.533 4.533 0 0 0 4.55-4.55c0-.691-.117-1.277-.351-1.842l.205-.204 4.8-4.8.204-.205c.565.234 1.15.35 1.842.35a4.533 4.533 0 0 0 4.55-4.55 4.65 4.65 0 0 0-.503-2.173l-.31-.62-.49.49-1.05 1.05-1.504 1.504H27.8v-.943l2.554-2.554.49-.49-.62-.31a4.65 4.65 0 0 0-2.174-.503m-3.55 4.55a3.533 3.533 0 0 1 3.55-3.55c.393 0 .735.045 1.057.135l-2.16 2.161-.147.147V18.2h2.357l.147-.146 1.65-1.65.51-.511c.09.322.136.664.136 1.057a3.533 3.533 0 0 1-3.55 3.55 3.65 3.65 0 0 1-1.726-.397L26 19.94l-.255.255-.45.45-4.8 4.8-.45.45-.254.255.16.323c.266.53.398 1.053.398 1.726a3.533 3.533 0 0 1-3.55 3.55 3.9 3.9 0 0 1-1.057-.136l2.16-2.16.147-.147V26.95h-2.357l-.147.146-1.65 1.65-.51.511a3.9 3.9 0 0 1-.136-1.057 3.533 3.533 0 0 1 3.55-3.55c.673 0 1.196.132 1.726.397l.323.161.255-.255.45-.45 4.8-4.8.45-.45.254-.254-.16-.323a3.65 3.65 0 0 1-.398-1.726" clip-rule="evenodd"/></svg>