<svg class="color-immutable" xmlns="http://www.w3.org/2000/svg" width="59" height="20" fill="none" viewBox="0 0 59 20"><path fill="#E84E10" fill-rule="evenodd" d="M2 0a2 2 0 0 0-2 2v16a2 2 0 0 0 2 2h55a2 2 0 0 0 2-2V2a2 2 0 0 0-2-2z" clip-rule="evenodd"/><path fill="#000" d="M14.153 4.17v2.142H7.98v2.476h5.657v1.991H7.98v2.849h6.284v2.142H5.45V4.17zM25.311 4.17l-3.856 11.6h-2.88l-3.8-11.6h2.65l2.61 8.688 2.65-8.688zM25.504 7.843q.04-1.427.706-2.396 1.08-1.555 3.245-1.555 1.667 0 2.69.849 1.103.92 1.103 2.38 0 .873-.436 1.508-.429.626-1.167.849.936.214 1.476.952.547.738.547 1.785 0 1.722-1.269 2.817-1.174 1.016-2.968 1.016-1.944 0-3.086-1.119-1.134-1.12-1.135-3.023v-.15h2.23q0 1.07.508 1.658.507.579 1.436.579t1.428-.548q.46-.516.46-1.23 0-.856-.587-1.357-.483-.412-1.492-.412-.285 0-.563.032V8.772q.207.015.397.016 2 0 2-1.484 0-.65-.437-1.048-.436-.404-1.15-.404-.818 0-1.262.508t-.476 1.483zM38.289 3.892q1.324 0 2.332.81 1 .81 1.453 2.49.34 1.287.34 2.794 0 2.499-.888 4.11-.524.936-1.373 1.444a3.57 3.57 0 0 1-1.88.508q-1.42 0-2.428-.857-1.793-1.523-1.793-5.205 0-2.619.936-4.206a3.8 3.8 0 0 1 1.388-1.396 3.8 3.8 0 0 1 1.913-.492m-.088 1.96q-1.142 0-1.555 1.317-.325 1.047-.325 2.936 0 1.665.333 2.674.429 1.31 1.587 1.309.96 0 1.428-1.016.468-1.015.468-3.102 0-1.778-.333-2.801-.428-1.317-1.603-1.317"/></svg>