<svg xmlns="http://www.w3.org/2000/svg" width="24" height="24" viewBox="0 0 24 24">
  <path fill="none" stroke="#000" d="M13.5,7.4997 L13.5,13.4997 L10.5,13.4997 L10.5,7.4997 M10.5,13.4997 L10.5,17.4997 L8,20.9997 M15.5,21.9997 L15.5,16.4997 L13.5,13.4997 M12,5.4997 C11.2,5.4997 10.5,4.7997 10.5,3.9997 C10.5,3.1997 11.2,2.4997 12,2.4997 C12.8,2.4997 13.5,3.1997 13.5,3.9997 C13.5,4.7997 12.8,5.4997 12,5.4997 Z M8.5,13.9997 L8.5,10.4997 L10.5,7.4997 L13.5,7.4997 L15.5,10.4997 L19,11.4997"/>
</svg>
