<svg xmlns="http://www.w3.org/2000/svg" width="48" height="48" fill="none" viewBox="0 0 48 48"><path fill="#000" fill-rule="evenodd" d="M23 8v3h1V8zm.5 8a8.463 8.463 0 0 0-8.5 8.5c0 3.154 1.831 5.963 4.435 7.5H22v-3.76l-2.312-1.85.624-.78 2.5 2 .188.15V32h1v-4.24l.188-.15 2.5-2 .624.78L25 28.24V32h2.58C30.15 30.66 32 27.674 32 24.5c0-4.724-3.776-8.5-8.5-8.5M14 24.5c0 3.154 1.623 5.967 4 7.744v6.811l.335.117L22 40.455V42h3v-1.545l3.665-1.283.335-.117V32.3c2.393-1.692 4-4.668 4-7.801 0-5.276-4.224-9.5-9.5-9.5a9.463 9.463 0 0 0-9.5 9.5m5 8.5v1h2v1h-2v1h2v1h-2v1.345l3.665 1.283.335.117V41h1v-1.255l.335-.117L28 38.345V37h-2v-1h2v-1h-2v-1h2v-1zm17.999-8 3 .008.002-1-3-.008zM10 25H7v-1h3zm28.04-8.31-2.602 1.495-.498-.868 2.602-1.494zM9.46 33.185l2.598-1.5-.5-.866-2.599 1.5zm22.726-22.716-1.506 2.594-.864-.502 1.506-2.594zm2.757 21.215 2.594 1.506.502-.864-2.594-1.506zM11.56 18.184l-2.598-1.5.5-.866 2.598 1.5zm3.26-7.722 1.5 2.598.866-.5-1.5-2.598z" clip-rule="evenodd"/></svg>