<svg xmlns="http://www.w3.org/2000/svg" width="36" height="36" version="1.1" viewBox="0 0 36 36">
  <g fill="none" fill-rule="evenodd" stroke="none" stroke-width="1">
    <path stroke="#000" d="M8.25,32.25 L29.25,32.25 L29.25,3.75 L8.25,3.75 L8.25,32.25 Z M12,23.25 L25.5,23.25 M12,26.25 L25.5,26.25"/>
    <path fill="#000" d="M15.3369,11.90625 L15.3369,14.02875 L16.8369,14.02875 C17.2824,14.02875 17.6034,13.95225 17.7999,13.79775 C18.0429,13.60725 18.1629,13.32525 18.1629,12.95175 C18.1629,12.57675 18.0219,12.29625 17.7429,12.11175 C17.5389,11.97375 17.2074,11.90625 16.7469,11.90625 L15.3369,11.90625 Z M13.6584,10.52175 L16.7634,10.52175 C17.2854,10.52175 17.6979,10.55325 17.9964,10.61775 C18.2979,10.68075 18.5679,10.79175 18.8094,10.95225 C19.4799,11.39025 19.8144,12.05025 19.8144,12.93225 C19.8144,13.71525 19.5384,14.33025 18.9834,14.77725 C18.7479,14.96925 18.4794,15.10575 18.1794,15.18975 C17.8779,15.27375 17.5059,15.31575 17.0634,15.31575 L15.3369,15.31575 L15.3369,18.01725 L13.6584,18.01725 L13.6584,10.52175 Z M27,10.5219 L24.4425,18.0174 L22.5315,18.0174 L20.0115,10.5219 L21.7695,10.5219 L23.499,16.1364 L25.257,10.5219 L27,10.5219 Z M10.5,18.018 L12.1785,18.018 L12.1785,10.5225 L10.5,10.5225 L10.5,18.018 Z"/>
  </g>
</svg>
