<svg class="color-immutable" width="59" height="20" viewBox="0 0 59 20" fill="none" xmlns="http://www.w3.org/2000/svg"><path fill-rule="evenodd" clip-rule="evenodd" d="M2 0a2 2 0 0 0-2 2v16a2 2 0 0 0 2 2h55a2 2 0 0 0 2-2V2a2 2 0 0 0-2-2H2Z" fill="#F27E00"/><path d="M14.153 4.17v2.142H7.98v2.476h5.657v1.991H7.98v2.849h6.284v2.142H5.449V4.17h8.704ZM25.311 4.17l-3.856 11.6h-2.88l-3.8-11.6h2.65l2.61 8.688 2.65-8.688h2.626ZM33.415 7.066h-2.206c-.206-.894-.714-1.341-1.524-1.341-.857 0-1.465.526-1.825 1.579-.148.428-.267 1.076-.357 1.944.35-.47.72-.81 1.111-1.016.397-.206.873-.31 1.428-.31 1.09 0 1.965.387 2.627 1.16.63.73.944 1.644.944 2.745 0 1.306-.423 2.356-1.27 3.15-.761.714-1.676 1.07-2.745 1.07-1.37 0-2.436-.515-3.198-1.546-.761-1.037-1.142-2.481-1.142-4.333 0-1.978.407-3.528 1.222-4.65.788-1.084 1.864-1.626 3.23-1.626 1.285 0 2.268.431 2.95 1.293.392.498.644 1.124.755 1.88Zm-3.928 2.658c-.555 0-.997.233-1.325.698-.296.413-.444.905-.444 1.476 0 .566.15 1.06.452 1.484.328.47.777.706 1.349.706.555 0 1.002-.225 1.34-.674.318-.424.477-.923.477-1.5 0-.566-.143-1.05-.429-1.452-.349-.492-.822-.738-1.42-.738ZM38.289 3.892c.883 0 1.66.27 2.332.81.667.539 1.15 1.37 1.452 2.49.228.858.342 1.789.342 2.794 0 1.666-.297 3.036-.889 4.11-.35.624-.807 1.105-1.373 1.444a3.567 3.567 0 0 1-1.88.508c-.947 0-1.756-.286-2.428-.857-1.196-1.016-1.793-2.75-1.793-5.205 0-1.746.312-3.148.936-4.205a3.782 3.782 0 0 1 1.388-1.397 3.8 3.8 0 0 1 1.913-.492Zm-.088 1.96c-.761 0-1.28.439-1.555 1.317-.217.698-.325 1.677-.325 2.936 0 1.11.111 2.002.333 2.674.286.873.815 1.309 1.587 1.309.64 0 1.116-.338 1.428-1.016.312-.677.468-1.71.468-3.102 0-1.185-.11-2.119-.333-2.8-.285-.879-.82-1.318-1.603-1.318Z" fill="#000"/></svg>