<svg xmlns="http://www.w3.org/2000/svg" width="48" height="48" viewBox="0 0 48 48">
  <path fill="none" stroke="#000" d="M2.5,23.5002 C2.5,11.9012 11.902,2.5002 23.5,2.5002 C35.098,2.5002 44.5,11.9012 44.5,23.5002 C44.5,35.0982 35.098,44.5002 23.5,44.5002 C11.902,44.5002 2.5,35.0982 2.5,23.5002 Z M33,23.5002 L23.5,23.5002 L23.5,9.0002 M23.5,2.5002 L23.5,7.0002 M23.5,2.5002 L23.5,4.0002 M21.3047,2.6154 L21.4617,4.1064 M19.1338,2.9592 L19.4458,4.4262 M17.0107,3.5275 L17.4737,4.9545 M14.9585,4.3156 L15.5685,5.6856 M13,5.3137 L13.75,6.6127 M11.1567,6.5109 L12.0377,7.7239 M9.4482,7.8938 L10.4522,9.0088 M7.894,9.4484 L9.009,10.4524 M6.5107,11.1564 L7.7237,12.0384 M5.3135,13.0002 L6.6125,13.7502 M4.3154,14.9582 L5.6864,15.5682 M3.5278,17.0109 L4.9548,17.4739 M2.959,19.134 L4.426,19.446 M2.6152,21.3049 L4.1072,21.4619 M2.5,23.5002 L4,23.5002 M2.6152,25.6955 L4.1072,25.5385 M2.959,27.8664 L4.426,27.5544 M3.5278,29.9895 L4.9548,29.5255 M4.3154,32.0412 L5.6864,31.4312 M5.3135,34.0002 L6.6125,33.2502 M6.5107,35.843 L7.7237,34.962 M7.894,37.552 L9.009,36.548 M9.4482,39.1057 L10.4522,37.9917 M11.1567,40.4895 L12.0377,39.2755 M13,41.6867 L13.75,40.3877 M14.9585,42.6848 L15.5685,41.3138 M17.0107,43.4719 L17.4737,42.0449 M19.1338,44.0412 L19.4458,42.5732 M21.3047,44.385 L21.4617,42.893 M23.5,44.5002 L23.5,43.0002 M25.6953,44.385 L25.5383,42.893 M27.8662,44.0412 L27.5542,42.5732 M29.9893,43.4719 L29.5253,42.0449 M32.041,42.6848 L31.432,41.3138 M34,41.6867 L33.25,40.3877 M35.8438,40.4895 L34.9618,39.2755 M37.5518,39.1057 L36.5478,37.9917 M39.1064,37.552 L37.9914,36.548 M40.4893,35.843 L39.2753,34.962 M41.6865,34.0002 L40.3875,33.2502 M42.6846,32.0412 L41.3146,31.4312 M43.4717,29.9895 L42.0457,29.5255 M44.041,27.8664 L42.574,27.5544 M44.3848,25.6955 L42.8938,25.5385 M44.5,23.5002 L43,23.5002 M44.3848,21.3049 L42.8938,21.4619 M44.041,19.134 L42.574,19.446 M43.4717,17.0109 L42.0457,17.4739 M42.6846,14.9582 L41.3146,15.5682 M41.6865,13.0002 L40.3875,13.7502 M40.4893,11.1564 L39.2753,12.0384 M39.1064,9.4484 L37.9914,10.4524 M37.5518,7.8938 L36.5478,9.0088 M35.8438,6.5109 L34.9618,7.7239 M34,5.3137 L33.25,6.6127 M32.041,4.3156 L31.432,5.6856 M29.9893,3.5275 L29.5253,4.9545 M27.8662,2.9592 L27.5542,4.4262 M25.6953,2.6154 L25.5383,4.1064 M13,5.3137 L15.25,9.2097 M5.3135,13.0002 L9.2105,15.2502 M2.5,23.5002 L7,23.5002 M5.3135,34.0002 L9.2105,31.7502 M13,41.6867 L15.25,37.7897 M23.5,44.5002 L23.5,40.0002 M34,41.6867 L31.75,37.7897 M41.6865,34.0002 L37.7895,31.7502 M44.5,23.5002 L40,23.5002 M41.6865,13.0002 L37.7895,15.2502 M34,5.3137 L31.75,9.2097"/>
</svg>
