<?xml version="1.0" encoding="utf-8"?>
<!-- Generator: Adobe Illustrator 24.2.0, SVG Export Plug-In . SVG Version: 6.00 Build 0)  -->
<svg version="1.0" id="Pictogramm" xmlns="http://www.w3.org/2000/svg" xmlns:xlink="http://www.w3.org/1999/xlink" x="0px" y="0px"
	 viewBox="0 0 24 24" enable-background="new 0 0 24 24" xml:space="preserve">
<g id="SVG_x5F_24x24pt">
	<path id="backgroundBlue" fill="#2D327D" d="M0,22.5v-21C0,0.675,0.675,0,1.5,0h21C23.325,0,24,0.675,24,1.5v21
		c0,0.825-0.675,1.5-1.5,1.5h-21C0.675,24,0,23.325,0,22.5z"/>
	<g id="content">
		<g>
			<g>
				<path fill="#FFFFFF" d="M9.983,9.335c0-0.984,0.798-1.782,1.782-1.782c0.984,0,1.782,0.798,1.782,1.782
					c0,0.984-0.798,1.782-1.782,1.782C10.781,11.116,9.983,10.319,9.983,9.335z"/>
				<path fill="#FFFFFF" d="M11.765,9.335"/>
			</g>
			<path fill="#FFFFFF" d="M8.998,21.1c-0.057,0-0.342-0.057-0.342-0.353c0-0.254,0.214-0.353,0.342-0.353l1.132-0.001v-7.689
				l-1.132,0.002c-0.057,0-0.342-0.057-0.342-0.353c0-0.254,0.214-0.353,0.342-0.353L13.34,12l0,8.394l1.125,0.001
				c0.128,0,0.342,0.099,0.342,0.353c0,0.296-0.286,0.353-0.342,0.353H8.998z"/>
		</g>
		<g id="Ergaenzungstext">
			<path fill="#FFFFFF" d="M4.964,3v0.415H4.281v1.833H3.79V3.415H3.11V3H4.964z"/>
			<path fill="#FFFFFF" d="M5.733,3.523c0.244,0,0.443,0.081,0.598,0.243c0.153,0.16,0.229,0.373,0.229,0.64
				c0,0.276-0.082,0.496-0.245,0.66C6.163,5.218,5.964,5.295,5.719,5.295c-0.261,0-0.47-0.085-0.624-0.255
				C4.947,4.877,4.873,4.667,4.873,4.409c0-0.254,0.072-0.461,0.215-0.62C5.247,3.612,5.462,3.523,5.733,3.523z M5.71,3.871
				c-0.118,0-0.212,0.048-0.281,0.143C5.358,4.11,5.322,4.242,5.322,4.409c0,0.173,0.035,0.306,0.105,0.398
				c0.072,0.093,0.17,0.14,0.294,0.14c0.116,0,0.208-0.043,0.275-0.128c0.077-0.094,0.115-0.231,0.115-0.411
				c0-0.168-0.034-0.299-0.102-0.392C5.939,3.919,5.839,3.871,5.71,3.871z"/>
			<path fill="#FFFFFF" d="M8.377,3.569v1.68H7.952V5.004C7.824,5.198,7.645,5.295,7.414,5.295c-0.201,0-0.353-0.067-0.455-0.201
				C6.92,5.041,6.892,4.98,6.875,4.909C6.858,4.838,6.849,4.746,6.849,4.632V3.569h0.446v0.924c0,0.096,0.003,0.165,0.008,0.205
				C7.31,4.738,7.321,4.772,7.339,4.8C7.386,4.874,7.466,4.912,7.58,4.912c0.14,0,0.243-0.062,0.306-0.186
				c0.031-0.061,0.046-0.17,0.046-0.328V3.569H8.377z"/>
			<path fill="#FFFFFF" d="M9.766,3.541v0.432c-0.072-0.013-0.13-0.02-0.174-0.02c-0.166,0-0.288,0.07-0.366,0.209
				C9.182,4.241,9.16,4.371,9.16,4.553v0.695H8.714v-1.68h0.425v0.306c0.121-0.228,0.297-0.341,0.528-0.341
				C9.694,3.534,9.728,3.536,9.766,3.541z"/>
			<path fill="#FFFFFF" d="M10.422,3v0.401H9.976V3H10.422z M10.422,3.572v1.677H9.976V3.572H10.422z"/>
			<path fill="#FFFFFF" d="M12.147,4.06h-0.418c-0.008-0.057-0.024-0.101-0.048-0.131C11.634,3.87,11.549,3.84,11.424,3.84
				c-0.079,0-0.14,0.014-0.183,0.043c-0.043,0.029-0.065,0.069-0.065,0.122c0,0.055,0.024,0.096,0.072,0.122
				c0.048,0.026,0.157,0.056,0.327,0.091c0.216,0.044,0.372,0.099,0.468,0.165c0.113,0.077,0.169,0.194,0.169,0.351
				c0,0.179-0.07,0.318-0.209,0.417c-0.137,0.097-0.319,0.146-0.546,0.146c-0.281,0-0.487-0.069-0.618-0.208
				C10.75,4.993,10.7,4.864,10.69,4.701h0.428c0.008,0.076,0.028,0.133,0.058,0.172c0.057,0.07,0.152,0.105,0.285,0.105
				c0.092,0,0.166-0.019,0.22-0.056s0.082-0.088,0.082-0.151c0-0.057-0.023-0.1-0.07-0.128c-0.047-0.028-0.145-0.06-0.296-0.095
				c-0.146-0.034-0.249-0.06-0.309-0.079c-0.06-0.019-0.115-0.042-0.163-0.068c-0.063-0.036-0.111-0.086-0.146-0.151
				c-0.035-0.065-0.052-0.136-0.052-0.215c0-0.174,0.072-0.307,0.217-0.398c0.118-0.075,0.282-0.112,0.492-0.112
				c0.278,0,0.477,0.071,0.598,0.212C12.098,3.812,12.136,3.92,12.147,4.06z"/>
			<path fill="#FFFFFF" d="M13.374,3.566v0.315H13.04V4.67c0,0.094,0.009,0.154,0.026,0.18c0.026,0.037,0.083,0.055,0.172,0.055
				c0.035,0,0.08-0.003,0.135-0.008v0.357c-0.1,0.011-0.193,0.017-0.277,0.017c-0.127,0-0.224-0.014-0.291-0.043
				c-0.104-0.046-0.168-0.13-0.194-0.252c-0.011-0.052-0.017-0.16-0.017-0.325V3.881h-0.272V3.566h0.272V3.172h0.445v0.394H13.374z"
				/>
		</g>
	</g>
</g>
</svg>
