<svg xmlns="http://www.w3.org/2000/svg" width="36" height="36" fill="none" viewBox="0 0 36 36"><path fill="#000" d="M4.25 16.75h3.5v-8H6.001v-1h4.749v-1.5h2.5v1.5h4.751v1H16.25v8h3.498v-7.5h1.503V6h1v3.25h1.502v7.5h1.995v-7.5h1.503V6h1v3.25h1.502v7.5h1.997V3h1v30h-1v-3.25H4.25V33h-1V3h1zm0 12h4.012l-1.226-3.064L6.762 25H7.96l-.925-2.314L6.762 22h8.976l-.274.686L14.539 25h1.2l-.275.686-1.226 3.064h7.012v-5h-3.249v-1H28.25v6h3.5v-11H4.25zm5.088 0h3.824l1.1-2.75H8.238zm12.912 0h5v-5h-5zM9.038 25h4.424l.8-2H8.238zm-.288-8.25h6.5v-8h-6.5zm17.998 0h2.005v-6.5h-2.005zm-6 0h2.005v-6.5h-2.005zm-8.998-9h.5v-.5h-.5z"/></svg>