<svg xmlns="http://www.w3.org/2000/svg" width="36" height="36" fill="none" viewBox="0 0 36 36"><path fill="#000" fill-rule="evenodd" d="M11.75 18A6.22 6.22 0 0 1 18 11.75 6.22 6.22 0 0 1 24.25 18c0 2.325-1.349 4.51-3.22 5.5h-6.045c-1.903-1.137-3.235-3.196-3.235-5.5m2 5.87c-1.783-1.356-3-3.483-3-5.87A7.22 7.22 0 0 1 18 10.75 7.22 7.22 0 0 1 25.25 18c0 2.367-1.2 4.616-3 5.915v3.59l-.335.117-2.665.933v1.195h-2.5v-1.195l-2.665-.933-.335-.117V23.87m1 2.925V24.5h6.5v2.295l-2.665.933-.335.117v.905h-.5v-.905l-.335-.117z" clip-rule="evenodd"/></svg>