<svg class="color-immutable" xmlns="http://www.w3.org/2000/svg" width="59" height="20" fill="none" viewBox="0 0 59 20"><path fill="#000" d="M1.792 0h55.416C58.197 0 59 .806 59 1.8v16.4c0 .994-.801 1.8-1.792 1.8H1.792A1.797 1.797 0 0 1 0 18.2V1.8C0 .806.803 0 1.792 0"/><path fill="#FFDE15" d="M12.798 7.659h-2.405q-.07-.846-.633-1.29-.553-.45-1.558-.45-.894 0-1.392.356-.49.348-.49.98 0 .57.474.823.459.253 2.326.712 1.97.49 2.729.989 1.4.918 1.4 2.555 0 1.795-1.408 2.832-1.242.91-3.362.91Q6.122 16.074 4.817 15q-1.305-1.077-1.353-3.062h2.515q.055.966.499 1.432.696.744 2.096.744.95 0 1.503-.372.624-.428.625-1.163 0-.735-.878-1.076-.483-.19-2.278-.688-1.125-.307-1.756-.585-.633-.277-1.013-.617-.885-.791-.886-2.183 0-1.67 1.384-2.642 1.18-.831 3.062-.831 1.653 0 2.768.657 1.605.94 1.693 3.045M24.513 4.234v11.565h-2.54l-4.84-7.879.031 7.879h-2.428V4.234h2.57l4.81 7.863-.032-7.863zM34.298 13.742v2.057h-8.33q0-.942.301-1.796.309-.855.862-1.471.427-.475.997-.926.578-.45 2.286-1.653.83-.578 1.163-1.076.332-.498.332-1.155 0-.76-.451-1.226-.442-.474-1.17-.474-1.788 0-1.844 2.57h-2.222V8.34q0-2.103 1.178-3.259 1.148-1.123 2.966-1.123 1.614 0 2.698.918 1.178.996 1.178 2.681 0 1.472-.94 2.531-.31.348-.578.562-.27.205-1.416 1.005-1.092.759-1.567 1.162a6.4 6.4 0 0 0-.87.926zM39.202 3.957q1.32 0 2.326.807.996.807 1.447 2.484.34 1.281.34 2.784 0 2.492-.886 4.098-.522.933-1.368 1.44a3.56 3.56 0 0 1-1.875.505q-1.416 0-2.42-.854-1.788-1.518-1.788-5.189 0-2.61.933-4.192a3.77 3.77 0 0 1 1.385-1.393 3.8 3.8 0 0 1 1.906-.49m-.087 1.954q-1.14 0-1.55 1.313-.325 1.044-.325 2.927 0 1.661.333 2.665.426 1.305 1.582 1.306.957 0 1.423-1.013.468-1.013.467-3.093 0-1.772-.332-2.792-.428-1.313-1.598-1.313"/></svg>