<svg xmlns="http://www.w3.org/2000/svg" width="24" height="24" fill="none" viewBox="0 0 24 24"><path fill="#000" fill-rule="evenodd" d="M7.5 2C6.674 2 6 2.674 6 3.5V4h1v-.5c0-.274.226-.5.5-.5h13c.274 0 .5.226.5.5v7c0 .274-.226.5-.5.5H11v1h9.5c.826 0 1.5-.674 1.5-1.5v-7c0-.826-.674-1.5-1.5-1.5zM6 6a1 1 0 1 0 0 2 1 1 0 0 0 0-2M4 7a2 2 0 1 1 4 0 2 2 0 0 1-4 0m2.03 12.67-4-11 .94-.34L6.85 19H14v1H6.15zM7.3 10h.01a1.51 1.51 0 0 1 1.397.97v.004l1.21 3.214L13.667 17h.723c.556 0 1.081.314 1.337.826l.006.012.005.012 1.72 3.95-.916.4-1.714-3.936A.5.5 0 0 0 14.39 18H8.15l-.12-.33-2.08-5.73-.001-.003A1.447 1.447 0 0 1 7.299 10m-.41 1.601A.447.447 0 0 1 7.306 11c.206.002.39.13.468.328l1.259 3.348.051.136.117.088L12 17H8.85z" clip-rule="evenodd"/></svg>