<svg xmlns="http://www.w3.org/2000/svg" width="36" height="36" fill="none" viewBox="0 0 36 36"><path fill="#000" fill-rule="evenodd" d="M11.75 3.75v-.61l-.598.119-7.5 1.5-.402.08V33h1v-6.25h6.5V33h1v-3.25h11V33h1v-3.25h8V33h1V12.25h-9v-6h-12zm12 9.5v15.5h8v-15.5zm-13-6.5v19h-6.5V5.658l6.5-1.3v2.39m12 22h-11V7.25h11zM9 7.75H6v1h3zm11.75 5.75v-3h-1v3zm6 3v3h-1v-3zm0 6v3h-1v-3zm3 3v-3h-1v3zm0-9v3h-1v-3zm-9 9v-3h-1v3zm0-9v3h-1v-3zm-3 6v3h-1v-3zm0-3v-3h-1v3zm0-9v3h-1v-3zm-3 15v-3h-1v3zm0-9v3h-1v-3zm0-3v-3h-1v3zM6 12.25h3v1H6zm0 4.5h3v1H6zm3 4.5H6v1h3z" clip-rule="evenodd"/></svg>