<svg xmlns="http://www.w3.org/2000/svg" width="48" height="48" viewBox="0 0 48 48">
  <path fill="none" stroke="#000" d="M45.5,24.5 C45.5,36.098 36.098,45.5 24.5,45.5 C12.902,45.5 3.5,36.098 3.5,24.5 C3.5,12.902 12.902,3.5 24.5,3.5 C36.098,3.5 45.5,12.902 45.5,24.5 Z M27.5,13.5 C27.5,15.157 26.157,16.5 24.5,16.5 C22.843,16.5 21.5,15.157 21.5,13.5 C21.5,11.843 22.843,10.5 24.5,10.5 C26.157,10.5 27.5,11.843 27.5,13.5 Z M30.5,36.5 L27.5,36.5 L27.5,21.5 L27.5,19.5 L22.5,19.5 L19.5,19.5 C18.948,19.5 18.5,19.948 18.5,20.5 C18.5,21.052 18.948,21.5 19.5,21.5 L22.5,21.5 L22.5,36.5 L19.5,36.5 C18.948,36.5 18.5,36.947 18.5,37.5 C18.5,38.053 18.948,38.5 19.5,38.5 L30.5,38.5 C31.053,38.5 31.5,38.053 31.5,37.5 C31.5,36.947 31.053,36.5 30.5,36.5 Z"/>
</svg>
