<?xml version="1.0" encoding="utf-8"?>
<!-- Generator: Adobe Illustrator 24.2.0, SVG Export Plug-In . SVG Version: 6.00 Build 0)  -->
<svg version="1.0" id="Ebene_1" xmlns="http://www.w3.org/2000/svg" xmlns:xlink="http://www.w3.org/1999/xlink" x="0px" y="0px"
	 viewBox="0 0 24 24" enable-background="new 0 0 24 24" xml:space="preserve">
<g id="SVG_x5F_24x24pt">
	<path id="backgroundBlue" fill="#2D327D" d="M0,22.5v-21C0,0.675,0.675,0,1.5,0h21C23.325,0,24,0.675,24,1.5v21
		c0,0.825-0.675,1.5-1.5,1.5h-21C0.675,24,0,23.325,0,22.5z"/>
	<g id="content">
		<path fill="#FFFFFF" d="M3.75,8.25c0.207,0,0.375,0.168,0.375,0.375v1.5c0,0.207-0.168,0.376-0.375,0.376H3v2.25h0.75
			c0.207,0,0.375,0.168,0.375,0.374v1.5C4.125,14.832,3.957,15,3.75,15H3v4.575c0.373-0.001,0.746-0.039,1.113-0.115l2.519-0.532
			c0.289-0.037,0.579-0.059,0.868-0.066c0.29,0.006,0.58,0.029,0.869,0.066l2.52,0.532c0.365,0.076,0.738,0.114,1.111,0.115
			c0.373-0.001,0.746-0.039,1.112-0.115l2.52-0.532c0.287-0.037,0.577-0.059,0.868-0.066c0.291,0.006,0.581,0.029,0.868,0.066
			l1.606,0.339L21.224,15h-9.037l-0.375-2.25h1.313v-2.25H8.512L8.137,8.25h0.525c0.207,0,0.375-0.168,0.375-0.375
			c0-0.207-0.168-0.375-0.375-0.375H3v0.75H3.75L3.75,8.25z M8.475,14.625v-1.5c0-0.206,0.168-0.374,0.374-0.374h1.961
			c0.183,0,0.339,0.132,0.37,0.313l0.25,1.5c0.003,0.02,0.006,0.041,0.006,0.061c0,0.206-0.168,0.375-0.375,0.375H8.849
			C8.643,15,8.475,14.831,8.475,14.625L8.475,14.625z M4.799,14.625v-1.5c0-0.206,0.168-0.374,0.375-0.374h2.25
			c0.207,0,0.375,0.168,0.375,0.374v1.5C7.8,14.831,7.632,15,7.425,15h-2.25C4.968,15,4.799,14.831,4.799,14.625L4.799,14.625z
			 M4.799,10.125v-1.5c0-0.207,0.168-0.375,0.375-0.375h1.96c0.184,0,0.34,0.133,0.371,0.313l0.25,1.499
			c0.004,0.021,0.005,0.042,0.005,0.062c0,0.207-0.168,0.376-0.374,0.376H5.175C4.968,10.501,4.799,10.332,4.799,10.125
			L4.799,10.125z"/>
		<path fill="#FFFFFF" d="M6.75,19.632c0.25-0.032,0.5-0.05,0.751-0.056c0.251,0.006,0.502,0.024,0.75,0.056l2.492,0.525
			c0.414,0.087,0.835,0.13,1.258,0.131c0.423-0.001,0.843-0.044,1.258-0.131l2.492-0.525c0.25-0.032,0.5-0.05,0.751-0.056
			c0.251,0.006,0.501,0.024,0.75,0.056l2.493,0.525c0.413,0.087,0.834,0.13,1.257,0.131V21c-0.471-0.001-0.941-0.048-1.403-0.145
			l-2.464-0.52c-0.21-0.025-0.421-0.041-0.633-0.047c-0.212,0.007-0.423,0.022-0.634,0.047l-2.463,0.52
			c-0.462,0.097-0.932,0.144-1.404,0.145c-0.472-0.001-0.942-0.048-1.404-0.145l-2.464-0.52c-0.209-0.025-0.421-0.041-0.633-0.047
			c-0.212,0.007-0.423,0.022-0.634,0.047l-2.463,0.52C3.942,20.952,3.472,20.999,3,21v-0.712c0.423-0.001,0.844-0.044,1.259-0.131
			L6.75,19.632L6.75,19.632z"/>
	</g>
</g>
</svg>
