<svg xmlns="http://www.w3.org/2000/svg" width="24" height="24" fill="none" viewBox="0 0 24 24"><path fill="#000" fill-rule="evenodd" d="M12 3c-.857 0-1.39.302-1.693.695-.08.104-.14.209-.183.305H8v1H4v17h16V5h-4V4h-2.124a1.5 1.5 0 0 0-.183-.305C13.39 3.302 12.857 3 12 3m4 3v1H8V6H5v15h14V6zm-5.02-1 .02-.469V4.53l.01-.048a.5.5 0 0 1 .09-.176c.082-.107.299-.305.9-.305s.818.198.9.305a.5.5 0 0 1 .1.224v.002l.02.469H15v1H9V5h1.98M7 9v1h10V9zm10 3v1H7v-1zM7 15v1h10v-1zm5 4H7v-1h5z" clip-rule="evenodd"/></svg>