<svg xmlns="http://www.w3.org/2000/svg" width="24" height="24" fill="none" viewBox="0 0 24 24"><path stroke="#000" d="M5.996 11.08c-3.211 0-3.849 6.42 1.2 6.42h10.502c4.981 0 4.8-6.42 1.05-6.27 1.65-5.526-5.701-8.064-7.951-2.987-1.982-1.616-5.149-.065-4.8 2.836Z"/><path fill="#000" d="M7.701 11.663h1.081l.536 3.211.528-3.21H10.9l-.96 4.282H8.652zM12.6 11.572q.96 0 1.277.645.127.255.174.602.05.346.049 1 0 .99-.17 1.462-.276.762-1.333.762-1.05 0-1.33-.782-.168-.464-.167-1.491 0-.621.055-.98.056-.36.194-.614.32-.604 1.25-.604m-.003.698q-.291 0-.378.295-.082.273-.082 1.21 0 .862.067 1.193.08.392.396.392.28.001.372-.289.09-.288.09-1.19 0-1.005-.082-1.304-.084-.307-.383-.307M16.455 14.27h.979v.127q-.003.652-.173.99a1.1 1.1 0 0 1-.472.495q-.301.158-.809.158-.632 0-.963-.296a1.24 1.24 0 0 1-.378-.651q-.1-.405-.1-1.294 0-.733.066-1.108.065-.375.236-.612.363-.504 1.183-.504.713 0 1.046.349.198.203.262.45.067.247.066.777h-.972v-.093a2 2 0 0 0-.053-.522q-.079-.27-.354-.27-.335 0-.393.417a8 8 0 0 0-.053 1.051q0 .794.05 1.172.061.449.399.448.252 0 .342-.228t.091-.855"/></svg>