<svg xmlns="http://www.w3.org/2000/svg" width="48" height="48" version="1.1" viewBox="0 0 48 48">
  <path fill="none" fill-rule="evenodd" stroke="#000" stroke-width="1" d="M38.5,42.5 L9.5,42.5 C8.948,42.5 8.5,42.053 8.5,41.5 C8.5,40.947 8.948,40.5 9.5,40.5 L38.5,40.5 C39.053,40.5 39.5,40.947 39.5,41.5 C39.5,42.053 39.053,42.5 38.5,42.5 Z M38.5,7.5 L9.5,7.5 C8.948,7.5 8.5,7.053 8.5,6.5 C8.5,5.947 8.948,5.5 9.5,5.5 L38.5,5.5 C39.053,5.5 39.5,5.947 39.5,6.5 C39.5,7.053 39.053,7.5 38.5,7.5 Z M23.998,24 L23.998,24 C23.998,21.243 25.428,18.681 27.659,17.301 C28.455,16.817 29.247,16.202 30,15.5 L18,15.5 C18.757,16.206 19.555,16.825 20.357,17.313 C22.569,18.68 23.998,21.243 23.998,24 Z M27.6553,33.665 C25.9873,32.642 24.5413,31.946 24.0503,30.002 L24.0003,30.002 C23.5083,31.947 22.0073,32.644 20.3243,33.677 C17.7113,35.254 14.5353,35.109 13.5003,38.5 L34.5003,38.5 C33.4643,35.108 30.2843,35.251 27.6553,33.665 Z M24,25 L24,26 M24,27 L24,28 M10.6235,7.5 C11.0445,12.879 14.7935,17.489 18.7745,19.892 C20.0605,20.681 20.9435,22.227 20.9435,24 C20.9435,25.773 20.0605,27.319 18.7745,28.108 C14.7935,30.511 11.0445,35.121 10.6235,40.5 M37.376,40.5 C36.956,35.121 33.207,30.511 29.225,28.108 C27.939,27.319 27.056,25.773 27.056,24 C27.056,22.227 27.939,20.681 29.225,19.892 C33.207,17.489 36.956,12.879 37.376,7.5"/>
</svg>
