<svg xmlns="http://www.w3.org/2000/svg" width="24" height="24" fill="none" viewBox="0 0 24 24"><path fill="#000" fill-rule="evenodd" d="M17.963 7.488c.558 1.061.713 2.391.266 3.885l-.958-.286c.378-1.267.233-2.324-.193-3.133a3.66 3.66 0 0 0-2.01-1.72c-1.688-.61-3.802-.066-4.81 2.209l-.267.6-.508-.416C7.855 7.294 5.2 8.564 5.496 11.02l.068.56H5c-.616 0-1.116.302-1.47.795-.361.501-.559 1.19-.528 1.893.03.699.285 1.376.783 1.876.492.493 1.264.856 2.415.856H16v1H6.2c-1.374 0-2.416-.44-3.123-1.15-.702-.704-1.034-1.632-1.074-2.538-.04-.903.21-1.819.714-2.52.416-.58 1.014-1.02 1.756-1.163C4.48 7.836 7.42 6.284 9.61 7.507c1.33-2.355 3.803-2.935 5.799-2.214 1.063.385 2 1.14 2.555 2.195M12.65 11.21c-.21-.43-.64-.64-1.28-.64-.62 0-1.04.2-1.25.6-.09.17-.15.37-.19.61s-.06.57-.06.98c0 .68.06 1.18.17 1.49.19.52.63.78 1.33.78s1.15-.25 1.33-.76c.11-.31.17-.8.17-1.46 0-.44-.02-.77-.05-1s-.09-.43-.17-.6m-1.66.36c.06-.2.19-.3.38-.3h.01c.2 0 .32.1.38.31.05.2.08.63.08 1.3 0 .6-.03 1-.09 1.19s-.18.29-.37.29c-.22 0-.35-.13-.4-.39-.05-.22-.07-.62-.07-1.19 0-.62.03-1.03.08-1.21m-1.49 1.7h-.98l.03.02c0 .42-.03.71-.09.86s-.17.23-.34.23c-.23 0-.36-.15-.4-.45-.03-.25-.05-.64-.05-1.17 0-.46.01-.81.05-1.05q.06-.42.39-.42c.18 0 .3.09.35.27.03.11.05.29.05.52v.09h.97c0-.36-.03-.61-.07-.78a1 1 0 0 0-.26-.45c-.23-.23-.58-.35-1.05-.35-.54 0-.94.16-1.18.5-.12.16-.2.36-.24.61-.05.25-.07.62-.07 1.11 0 .59.03 1.02.1 1.29s.19.49.38.65q.33.3.96.3c.34 0 .61-.05.81-.16s.35-.27.47-.5c.11-.22.17-.55.17-.99zm3.82-1.25v-.01h.93c0-.3.03-.5.08-.61s.15-.17.3-.17c.12 0 .21.04.27.13s.09.23.09.43c0 .17-.03.3-.08.41-.05.1-.16.24-.33.41-.43.44-.69.72-.79.83s-.19.26-.28.45c-.15.31-.22.66-.22 1.04H16v-.78h-1.51c.06-.14.13-.27.22-.37q.135-.15.57-.57c.26-.24.43-.44.52-.6.13-.22.19-.49.19-.81 0-.42-.11-.73-.32-.93-.23-.2-.56-.3-1-.3-.55 0-.94.17-1.15.49-.129.198-.199.515-.2.95h-.01zm6.544 7.23 2.02-2.43-.768-.64-1.132 1.361.016-5.54-1-.003-.016 5.532-1.096-1.346-.776.632 1.98 2.43.384.47z" clip-rule="evenodd"/></svg>