<svg xmlns="http://www.w3.org/2000/svg" width="24" height="24" version="1.1" viewBox="0 0 24 24">
  <path fill="none" fill-rule="evenodd" stroke="#1D1D1B" stroke-width="1" d="M13.5,12.0002 C13.5,11.1712 12.828,10.5002 12,10.5002 C11.172,10.5002 10.5,11.1712 10.5,12.0002 C10.5,12.8282 11.172,13.5002 12,13.5002 C12.828,13.5002 13.5,12.8282 13.5,12.0002 Z M12,8.5002 C9.33,8.5002 6.992,9.8992 5.663,12.0002 C6.992,14.1012 9.33,15.5002 12,15.5002 M12,15.4997 C14.67,15.4997 17.008,14.1017 18.337,11.9997 C17.008,9.8987 14.67,8.4997 12,8.4997 M2.5,18.9997 L2.5,15.4997 L6,15.4997 M3,15.4997 C4.395,19.0127 7.99,21.4997 12,21.4997 C17.247,21.4997 21.5,17.2467 21.5,11.9997 C21.5,6.7527 17.247,2.4997 12,2.4997 C6.753,2.4997 2.5,6.7527 2.5,11.9997"/>
</svg>
