<svg xmlns="http://www.w3.org/2000/svg" width="36" height="36" fill="none" viewBox="0 0 36 36"><path stroke="#000" d="M6.753 32.25h9l-.004-16.127a3.374 3.374 0 0 0-3.375-3.375H10.12a3.374 3.374 0 0 0-3.375 3.375z" clip-rule="evenodd"/><path stroke="#000" d="M6.749 17.25h9M6.749 29.252h9M11.25 9.75v3"/><path stroke="#000" d="M9.75 9.75h3v-3h-3z" clip-rule="evenodd"/><path stroke="#000" stroke-miterlimit="16" d="m15.75 9.75 6.566 1.265a3 3 0 0 0-.56 1.735 3 3 0 1 0 6 0 3 3 0 1 0 0-6 3.001 3.001 0 0 0-6 0c0 .125.023.245.036.366L15.75 8.25z" clip-rule="evenodd"/></svg>