<svg xmlns="http://www.w3.org/2000/svg" width="36" height="36" viewBox="0 0 36 36">
  <path fill="none" stroke="#000" d="M20.25,27 C20.25,28.242 19.242,29.25 18,29.25 C16.758,29.25 15.75,28.242 15.75,27 C15.75,25.7565 16.758,24.75 18,24.75 C19.242,24.75 20.25,25.7565 20.25,27 Z M5.25,5.25 L27.75,27.75 M20.9736,20.9736 C20.0751,20.5251 19.0746,20.2506 18.0006,20.2506 C16.0731,20.2506 14.3451,21.0666 13.1166,22.3626 M32.67045,13.06785 C28.98045,9.18435 23.77995,6.74985 18.00045,6.74985 C15.54045,6.74985 13.19745,7.21335 11.01795,8.01885 M8.92965,8.92965 C6.83415,9.98865 4.93215,11.38065 3.33015,13.06815 M15.95505,15.95505 C13.57605,16.39755 11.45805,17.58105 9.85755,19.26705 M29.4111,16.1646 C26.5416,13.1421 22.4961,11.2506 18.0006,11.2506 C16.8381,11.2506 15.7086,11.3826 14.6211,11.6211 M12.32955,12.32955 C10.13955,13.18005 8.17905,14.48955 6.58905,16.16505 M18.7968,15.79695 C21.6858,15.99945 24.2718,17.28345 26.1513,19.25895"/>
</svg>
