<svg xmlns="http://www.w3.org/2000/svg" width="24" height="24" version="1.1" viewBox="0 0 24 24">
  <g fill="none" fill-rule="evenodd" stroke="none" stroke-width="1">
    <path stroke="#000" d="M2.5,17.5 L19.5,17.5 L19.5,8.5 L2.5,8.5 L2.5,17.5 Z M19.5,14.5 L21.5,14.5 L21.5,6.5 L5.5,6.5 L5.5,8.5"/>
    <path fill="#000" d="M11.2041,14.6245 C11.6591,14.5685 11.8871,14.3565 11.8871,13.9905 C11.8871,13.7705 11.7981,13.6085 11.6211,13.5045 C11.5721,13.4745 11.4331,13.4235 11.2041,13.3525 L11.2041,14.6245 Z M10.8121,11.2655 C10.4001,11.3015 10.1941,11.4895 10.1941,11.8285 C10.1941,11.9815 10.2391,12.0995 10.3301,12.1825 C10.4211,12.2655 10.5811,12.3355 10.8121,12.3915 L10.8121,11.2655 Z M11.2041,11.2745 L11.2041,12.4815 C11.2341,12.4905 11.3191,12.5125 11.4601,12.5465 C11.9241,12.6675 12.2511,12.8155 12.4431,12.9905 C12.6811,13.2075 12.8001,13.5045 12.8001,13.8805 C12.8001,14.2625 12.6781,14.5825 12.4331,14.8415 C12.2781,15.0075 12.1051,15.1285 11.9171,15.2055 C11.7281,15.2825 11.4911,15.3285 11.2041,15.3425 L11.2041,15.9995 L10.8121,15.9995 L10.8121,15.3395 C10.3571,15.3135 10.0011,15.1985 9.7441,14.9935 C9.3871,14.7065 9.2051,14.3015 9.2011,13.7795 L10.1201,13.7795 C10.1151,14.2935 10.3471,14.5745 10.8121,14.6245 L10.8121,13.2555 C10.3811,13.1345 10.0831,13.0265 9.9191,12.9325 C9.7101,12.8115 9.5571,12.6685 9.4601,12.5035 C9.3621,12.3385 9.3141,12.1385 9.3141,11.9025 C9.3141,11.6415 9.3821,11.4095 9.5171,11.2055 C9.6531,11.0015 9.8471,10.8435 10.0971,10.7315 C10.2761,10.6515 10.5151,10.6025 10.8121,10.5825 L10.8121,9.9995 L11.2041,9.9995 L11.2041,10.5825 C11.6631,10.6065 12.0161,10.7335 12.2651,10.9655 C12.5111,11.1975 12.6391,11.5205 12.6471,11.9355 L11.7701,11.9355 C11.7621,11.5425 11.5731,11.3225 11.2041,11.2745 L11.2041,11.2745 Z"/>
  </g>
</svg>
