<svg xmlns="http://www.w3.org/2000/svg" width="36" height="36" fill="none" viewBox="0 0 36 36"><path fill="#000" fill-rule="evenodd" d="M23.75 19.815a2 2 0 0 1 1.23 2.935h.27v5.5h-1.499V30h-1v-1.75h-17V30h-1v-1.75H3.25v-5.5h.27a1.999 1.999 0 0 1 1.23-2.935V16.75h19zm9.14-5.065h-3.139v14h1.75v1h-4.5v-1h1.75v-14h-3.142l1.75-7h3.782zM4.25 27.25h20v-3.5h-20zm1-6.5a1 1 0 1 0 0 2 1 1 0 0 0 0-2m.5-.935a2 2 0 0 1 1.23 2.935h14.54a1.999 1.999 0 0 1 1.23-2.935V17.75h-17zm17.5.935a1 1 0 1 0 0 2 1 1 0 0 0 0-2m3.64-7h4.72l-1.25-5h-2.22z" clip-rule="evenodd"/></svg>