<svg class="color-immutable" xmlns="http://www.w3.org/2000/svg" width="59" height="20" fill="none" viewBox="0 0 59 20"><path fill="#EB0000" fill-rule="evenodd" d="M2 0a2 2 0 0 0-2 2v16a2 2 0 0 0 2 2h55a2 2 0 0 0 2-2V2a2 2 0 0 0-2-2z" clip-rule="evenodd"/><path fill="#fff" d="m21.18 15.933 1.02-4.998-2.77-6.868h2.515c1.14 3.128 1.496 4.148 1.768 5.05h.034c.646-.919 1.36-1.854 3.927-5.05h2.754l-5.763 6.851-1.07 5.015zM8.826 15.933l2.516-11.866h2.635c2.771 0 4.828.408 4.828 2.907 0 1.972-1.445 2.958-3.4 3.18v.033c.833.187 1.225.63 1.667 2.16l1.037 3.586h-2.466l-.782-3.094c-.408-1.547-.68-1.938-2.312-1.938h-.288l-1.071 5.032zm3.808-6.783c.323.051.579.034.714.034 1.972 0 3.077-.56 3.077-1.904 0-1.275-1.037-1.428-2.567-1.428h-.543zM4.19 15.933 6.706 4.067H9.12L6.604 15.933z"/></svg>