<?xml version="1.0" encoding="utf-8"?>
<!-- Generator: Adobe Illustrator 24.2.0, SVG Export Plug-In . SVG Version: 6.00 Build 0)  -->
<svg version="1.0" xmlns="http://www.w3.org/2000/svg" xmlns:xlink="http://www.w3.org/1999/xlink" x="0px" y="0px"
	 viewBox="0 0 24 24" enable-background="new 0 0 24 24" xml:space="preserve">
<g id="SVG_x5F_24x24pt">
	<path id="backgroundBlue" fill="#2D327D" d="M0,22.5v-21C0,0.675,0.675,0,1.5,0h21C23.325,0,24,0.675,24,1.5v21
		c0,0.825-0.675,1.5-1.5,1.5h-21C0.675,24,0,23.325,0,22.5z"/>
	<g id="content">
		<path fill="#FFFFFF" d="M3.571,16.054c0,0.205,0,2.454,0,2.454c0,0.374,0.303,0.677,0.677,0.677h5.993
			c0.438,0,0.649-0.244,0.649-0.644c0.07-1.668,1.413-3.129,3.24-3.129c1.688,0,3.24,1.399,3.24,3.129
			c0,0.467,0.256,0.644,0.642,0.644H21v-4.877H9.931c-0.205,0-0.37-0.166-0.37-0.37s0.166-0.37,0.37-0.37H21v-0.68H9.931
			c-0.205,0-0.37-0.166-0.37-0.37s0.166-0.37,0.37-0.37H21v-1.522h-3.169c-0.211,0-0.381-0.171-0.381-0.381V6.029
			c0-0.211,0.171-0.381,0.381-0.381H21v-0.05V4.751H6.986c-0.653,0-1.332,0.591-1.449,1.137c0,0-1.371,6.153-1.93,9.705
			C3.595,15.667,3.571,15.849,3.571,16.054z M9.386,9.94l1.904-3.835c0.118-0.213,0.289-0.458,0.597-0.458h4.204
			c0.253,0,0.458,0.205,0.458,0.458v4.061c0,0.253-0.205,0.458-0.458,0.458H9.746C9.493,10.624,9.221,10.349,9.386,9.94z
			 M4.748,14.06l1.662-7.808c0.113-0.41,0.33-0.634,0.727-0.634l2.744-0.01c0.232,0,0.398,0.291,0.346,0.534
			c-0.009,0.044-0.025,0.085-0.047,0.124l-4.138,8.271c-0.144,0.26-0.441,0.395-0.731,0.333l-0.044-0.009
			C4.903,14.783,4.67,14.425,4.748,14.06z"/>
		<path fill="#FFFFFF" d="M2.369,9.959l0.274-1.974l0.004-0.024c0.082-0.393,0.21-0.834,0.548-1.124
			c0.284-0.244,0.671-0.353,1.253-0.353H4.89L4.75,7.225H4.448c-0.509,0-0.684,0.099-0.771,0.174C3.546,7.512,3.452,7.728,3.374,8.1
			l-0.272,1.961c-0.026,0.185-0.184,0.32-0.366,0.32c-0.017,0-0.034-0.001-0.051-0.004C2.482,10.349,2.34,10.162,2.369,9.959z"/>
		<path fill="#FFFFFF" d="M11.782,18.651c0-1.295,1.054-2.348,2.349-2.348c1.295,0,2.348,1.053,2.348,2.348
			c0,1.295-1.054,2.349-2.348,2.349C12.835,21,11.782,19.946,11.782,18.651z M12.915,18.608c0,0.67,0.545,1.215,1.216,1.215
			c0.67,0,1.215-0.545,1.215-1.215c0-0.67-0.545-1.215-1.215-1.215C13.46,17.393,12.915,17.938,12.915,18.608z"/>
	</g>
</g>
</svg>
