<svg xmlns="http://www.w3.org/2000/svg" width="36" height="36" fill="none" viewBox="0 0 36 36"><path fill="#000" fill-rule="evenodd" d="M10.25 12a7.75 7.75 0 1 1 15.5 0 7.75 7.75 0 0 1-15.5 0M18 3.25a8.75 8.75 0 0 0-5.384 15.648L6.326 28.96l-.737 1.179 1.32-.44 4.088-1.363 1.306 2.613.447.894.447-.895 4.797-9.593 4.809 9.618.447.894.447-.894 1.306-2.612 4.089 1.363 1.319.44-.737-1.18-6.3-10.08A8.75 8.75 0 0 0 18 3.25m-.803 17.464a8.7 8.7 0 0 1-3.759-1.246l-5.527 8.844 3.18-1.06.412-.138.194.388 1.053 2.106zm5.354-1.239a8.7 8.7 0 0 1-3.76 1.24l4.459 8.917 1.053-2.105.194-.388.411.137 3.181 1.06zm.303-10.121-6 6-.354.353-.354-.353-3-3 .707-.708 2.647 2.647 5.646-5.647z" clip-rule="evenodd"/></svg>