<?xml version="1.0" encoding="utf-8"?>
<!-- Generator: Adobe Illustrator 25.3.1, SVG Export Plug-In . SVG Version: 6.00 Build 0)  -->
<svg version="1.0" xmlns="http://www.w3.org/2000/svg" xmlns:xlink="http://www.w3.org/1999/xlink" x="0px" y="0px"
	 viewBox="0 0 24 24" enable-background="new 0 0 24 24" xml:space="preserve">
<g id="SVG_x5F_24x24pt">
	<path id="backgroundBlue" fill="#2D327D" d="M0,22.5v-21C0,0.675,0.675,0,1.5,0h21C23.325,0,24,0.675,24,1.5v21
		c0,0.825-0.675,1.5-1.5,1.5h-21C0.675,24,0,23.325,0,22.5z"/>
	<g id="content">
		<path fill="#FFFFFF" d="M15.263,8.55c0.682,0,1.238-0.555,1.238-1.238s-0.555-1.238-1.238-1.238v0.45
			c0.434,0,0.788,0.353,0.788,0.787S15.697,8.1,15.263,8.1c-0.434,0-0.787-0.353-0.787-0.788V3h-0.45v4.312
			C14.025,7.995,14.58,8.55,15.263,8.55z"/>
		<path fill="#FFFFFF" d="M8.738,8.55c0.682,0,1.238-0.555,1.238-1.238V3h-0.45v4.312c0,0.434-0.353,0.788-0.788,0.788
			S7.95,7.747,7.95,7.312s0.353-0.787,0.787-0.787v-0.45C8.055,6.075,7.5,6.63,7.5,7.312S8.055,8.55,8.738,8.55z"/>
		<path fill="#FFFFFF" d="M14.25,10.087c0-0.682-0.555-1.237-1.238-1.237V9.3c0.434,0,0.788,0.353,0.788,0.787
			c0,0.434-0.353,0.788-0.788,0.788c-0.434,0-0.787-0.353-0.787-0.788V3h-0.45v7.087c0,0.682,0.555,1.238,1.237,1.238
			C13.695,11.325,14.25,10.77,14.25,10.087z"/>
		<path fill="#FFFFFF" d="M10.694,13.632c0-0.328-0.265-0.593-0.593-0.593c-0.157,0-0.308,0.062-0.419,0.173l-3.523,3.522
			c-0.118,0.119-0.28,0.187-0.449,0.187H4.705c-0.246,0-0.445-0.199-0.444-0.444v-1.804c0-0.404-0.253-0.763-0.635-0.898
			c-0.05-0.018-0.103-0.027-0.159-0.027c-0.261,0-0.475,0.213-0.475,0.476v6.774L8.238,21v-0.002l2.199-2.196
			c0.107-0.108,0.168-0.254,0.167-0.404c0-0.151-0.06-0.297-0.167-0.404l-0.179-0.179l-1.696,1.696l-0.194-0.194l2.077-2.077
			c0.107-0.106,0.167-0.252,0.167-0.404c0-0.152-0.06-0.297-0.167-0.404l-0.179-0.18l-2.481,2.481L7.59,18.538l2.862-2.862
			c0.108-0.108,0.167-0.252,0.167-0.405c0-0.15-0.06-0.297-0.167-0.403l-0.179-0.18l-3.266,3.266L6.813,17.76l3.708-3.708
			C10.632,13.94,10.694,13.789,10.694,13.632z"/>
		<path fill="#FFFFFF" d="M20.516,13.748c-0.056,0-0.109,0.009-0.159,0.027c-0.381,0.135-0.635,0.494-0.635,0.898v1.804
			c0,0.245-0.199,0.444-0.444,0.444h-1.005c-0.169,0-0.33-0.067-0.449-0.187l-3.522-3.522c-0.111-0.112-0.263-0.173-0.419-0.173
			c-0.328,0-0.594,0.265-0.594,0.593c0,0.157,0.062,0.308,0.173,0.42l3.708,3.708l-0.194,0.194l-3.266-3.266l-0.18,0.18
			c-0.108,0.106-0.167,0.252-0.167,0.403c0,0.153,0.06,0.297,0.167,0.405l2.862,2.862l-0.194,0.194l-2.481-2.481l-0.179,0.18
			c-0.108,0.107-0.168,0.252-0.168,0.404c0,0.152,0.06,0.297,0.168,0.404l2.077,2.077l-0.194,0.194l-1.696-1.696l-0.179,0.179
			c-0.107,0.108-0.168,0.253-0.167,0.404c0,0.151,0.06,0.297,0.167,0.404l2.199,2.196V21l5.246-0.002v-6.774
			C20.992,13.962,20.778,13.748,20.516,13.748z"/>
	</g>
</g>
</svg>
