<svg xmlns="http://www.w3.org/2000/svg" width="48" height="48" version="1.1" viewBox="0 0 48 48">
  <path fill="none" fill-rule="evenodd" stroke="#000" stroke-width="1" d="M4.5,43.5 L43.5,43.5 L43.5,16.5 L4.5,16.5 L4.5,43.5 Z M43.5,14.5 L4.5,14.5 L4.5,7.943 C4.5,7.295 4.756,6.674 5.21,6.216 C5.666,5.758 6.283,5.5 6.926,5.5 L41.073,5.5 C41.717,5.5 42.334,5.758 42.789,6.216 C43.244,6.674 43.5,7.295 43.5,7.943 L43.5,14.5 Z M7,14.5 L12,5.5 M14.0005,14.5 L19.0005,5.5 M21.0015,14.5 L26.0015,5.5 M28.002,14.5 L33.002,5.5 M35.0029,14.5 L40.0029,5.5 M18.5,30 L18.5,23 L31,30 L18.5,37 L18.5,30 Z"/>
</svg>
