<svg class="color-immutable" xmlns="http://www.w3.org/2000/svg" width="59" height="20" fill="none" viewBox="0 0 59 20"><g clip-path="url(#a)"><path fill="#EB0000" fill-rule="evenodd" d="M2 0a2 2 0 0 0-2 2v16a2 2 0 0 0 2 2h55a2 2 0 0 0 2-2V2a2 2 0 0 0-2-2z" clip-rule="evenodd"/><path fill="#fff" d="M9.388 4.2h4.042L8.43 15.8h-4.06zM26.092 12.366a.92.92 0 0 0 .843-.553L30.216 4.2H16.13l-5.001 11.6h4.025l3.786-8.69h5.973l-1.197 2.775-5.209-.019L22.71 15.8h4.582l-3.114-3.434zM44.385 4.234v1.962a46 46 0 0 0-.562.64q-.648.743-1.29 1.875-.64 1.124-.996 2.16-.75 2.16-.91 4.928h-2.389q.025-1.305.451-2.896.435-1.59 1.195-3.18 1.083-2.245 2.199-3.345h-5.458V4.234zM47.367 9.59q-.807-.279-1.242-.91-.427-.633-.427-1.535 0-1.503 1.234-2.397 1.09-.79 2.594-.791 1.71 0 2.793.941 1.028.886 1.028 2.191 0 .91-.435 1.559t-1.234.941q.625.182 1.02.467 1.1.798 1.1 2.333 0 1.764-1.353 2.808-1.14.878-2.927.878-1.938 0-3.084-.965-1.195-1.004-1.195-2.634 0-1.527 1.06-2.365a2.9 2.9 0 0 1 1.068-.522m2.128-3.837q-.76 0-1.226.427-.467.42-.467 1.107 0 .72.467 1.155.474.427 1.265.427.792 0 1.25-.427.459-.427.459-1.163 0-.72-.467-1.123-.459-.403-1.281-.403m-.016 4.706q-.855 0-1.4.53-.538.522-.538 1.345 0 .846.546 1.376.553.53 1.431.53.997 0 1.495-.585.483-.562.483-1.297 0-.84-.554-1.377-.529-.522-1.463-.522"/></g><defs><clipPath id="a"><path fill="#fff" d="M0 0h59v20H0z"/></clipPath></defs></svg>