<svg width="36" height="36" viewBox="0 0 36 36" fill="none" xmlns="http://www.w3.org/2000/svg"><path fill-rule="evenodd" clip-rule="evenodd" d="M16.266 3.35a14.897 14.897 0 0 1 3.468 0l-.116.994a13.901 13.901 0 0 0-3.236 0l-.116-.993ZM10.79 5.13A14.663 14.663 0 0 1 13.995 3.8l.27.963a13.663 13.663 0 0 0-2.984 1.238l-.49-.872ZM22.005 3.8c1.129.318 2.202.767 3.204 1.329l-.49.872a13.662 13.662 0 0 0-2.985-1.238l.271-.963ZM6.416 8.868a14.835 14.835 0 0 1 2.452-2.452l.62.785A13.835 13.835 0 0 0 7.2 9.487l-.785-.62Zm20.716-2.452a14.84 14.84 0 0 1 2.452 2.452l-.785.62A13.832 13.832 0 0 0 26.513 7.2l.62-.785ZM3.8 13.995A14.663 14.663 0 0 1 5.13 10.79l.872.49a13.662 13.662 0 0 0-1.238 2.985l-.963-.271Zm27.071-3.204a14.665 14.665 0 0 1 1.329 3.204l-.963.27a13.662 13.662 0 0 0-1.238-2.984l.872-.49ZM3.25 18c0-.587.034-1.165.1-1.734l.994.116a13.901 13.901 0 0 0 0 3.236l-.993.116c-.067-.569-.101-1.148-.101-1.734Zm29.4-1.734a14.91 14.91 0 0 1 0 3.468l-.994-.116a13.91 13.91 0 0 0 0-3.236l.993-.116ZM5.128 25.209A14.663 14.663 0 0 1 3.8 22.005l.963-.27a13.663 13.663 0 0 0 1.238 2.984l-.872.49Zm27.07-3.204a14.665 14.665 0 0 1-1.328 3.204l-.872-.49c.524-.933.942-1.933 1.238-2.985l.963.271ZM8.869 29.584a14.836 14.836 0 0 1-2.452-2.452l.785-.62c.67.85 1.438 1.617 2.286 2.287l-.62.785Zm20.716-2.452a14.842 14.842 0 0 1-2.452 2.452l-.62-.785a13.828 13.828 0 0 0 2.287-2.286l.785.62ZM13.994 32.2a14.665 14.665 0 0 1-3.203-1.329l.49-.872c.933.524 1.933.942 2.985 1.238l-.271.963ZM25.21 30.87a14.665 14.665 0 0 1-3.204 1.329l-.27-.963a13.662 13.662 0 0 0 2.984-1.238l.49.872ZM18 32.75a14.91 14.91 0 0 1-1.734-.1l.116-.994a13.91 13.91 0 0 0 3.236 0l.116.993c-.569.067-1.148.101-1.734.101Z" fill="#000"/></svg>