<svg xmlns="http://www.w3.org/2000/svg" width="36" height="36" fill="none" viewBox="0 0 36 36"><path fill="#000" fill-rule="evenodd" d="M16.266 3.35a15 15 0 0 1 3.468 0l-.116.994a14 14 0 0 0-3.236 0zM10.79 5.13A14.7 14.7 0 0 1 13.995 3.8l.27.963a13.7 13.7 0 0 0-2.984 1.238zM22.005 3.8c1.129.318 2.202.767 3.204 1.329l-.49.872a13.7 13.7 0 0 0-2.985-1.238zM6.416 8.868a14.8 14.8 0 0 1 2.452-2.452l.62.785A13.8 13.8 0 0 0 7.2 9.487zm20.716-2.452a14.8 14.8 0 0 1 2.452 2.452l-.785.62A13.8 13.8 0 0 0 26.513 7.2zM3.8 13.995A14.7 14.7 0 0 1 5.13 10.79l.872.49a13.7 13.7 0 0 0-1.238 2.985zm27.071-3.204a14.7 14.7 0 0 1 1.329 3.204l-.963.27a13.7 13.7 0 0 0-1.238-2.984zM3.25 18q0-.88.1-1.734l.994.116a14 14 0 0 0 0 3.236l-.993.116Q3.25 18.88 3.25 18m29.4-1.734a15 15 0 0 1 0 3.468l-.994-.116a14 14 0 0 0 0-3.236zM5.128 25.209A14.7 14.7 0 0 1 3.8 22.005l.963-.27a13.7 13.7 0 0 0 1.238 2.984zm27.07-3.204a14.7 14.7 0 0 1-1.328 3.204l-.872-.49c.524-.933.942-1.933 1.238-2.985zM8.869 29.584a14.8 14.8 0 0 1-2.452-2.452l.785-.62c.67.85 1.438 1.617 2.286 2.287zm20.716-2.452a14.8 14.8 0 0 1-2.452 2.452l-.62-.785a13.8 13.8 0 0 0 2.287-2.286zM13.994 32.2a14.7 14.7 0 0 1-3.203-1.329l.49-.872c.933.524 1.933.942 2.985 1.238zM25.21 30.87a14.7 14.7 0 0 1-3.204 1.329l-.27-.963a13.7 13.7 0 0 0 2.984-1.238zM18 32.75a15 15 0 0 1-1.734-.1l.116-.994a14 14 0 0 0 3.236 0l.116.993q-.854.1-1.734.101" clip-rule="evenodd"/></svg>