<svg xmlns="http://www.w3.org/2000/svg" width="24" height="24" fill="none" viewBox="0 0 24 24"><path fill="#000" fill-rule="evenodd" d="M6.5 4H6v16h12V9.293l-.146-.146-5-5L12.707 4H6.5M7 19V5h1v.465h1V5h3v5h5v9h-7v-.464H9V19zm9.293-10L13 5.707V9zM8 7.322v-.929h1V6h1v.465H9v.857zm0 1.857V8.25h1v-.857h1v.929H9v.857zm0 1.857v-.929h1V9.25h1v.929H9v.857zm0 1.857v-.929h1v-.857h1v.929H9v.857zm0 1.857v-.928h1v-.857h1v.928H9v.857zm0 1.857v-.928h1v-.857h1v.928H9v.857zM8 18v-.464h1v-.857h1v.928H9V18z" clip-rule="evenodd"/></svg>