<svg class="color-immutable" xmlns="http://www.w3.org/2000/svg" width="16" height="16" fill="none" viewBox="0 0 16 16"><rect width="16" height="16" fill="#EB0000" rx="2"/><path fill="#fff" fill-rule="evenodd" d="M6.822 10.362c-1.296 0-2.346 1.024-2.346 2.288s1.05 2.288 2.346 2.288S9.17 13.914 9.17 12.65s-1.05-2.288-2.347-2.288m0 3.363c-.604 0-1.095-.478-1.095-1.068s.49-1.068 1.095-1.068c.606 0 1.096.479 1.096 1.068s-.49 1.068-1.096 1.068m5.38-9.586C12.088 3.51 11.524 3 10.958 3H.003v1.227h1.615V8.5H.001v1.666L0 12.657h3.71c0-1.675 1.394-3.034 3.112-3.034 1.72 0 3.113 1.359 3.113 3.034h2.216c.572 0 1.036-.513 1.036-1.158V8.652zm-9.851.088h3.23V8.5H2.35zm4.038.004h.867v4.282H6.39zm1.706-.004h.868V8.51h-.868zM9.812 8.51V4.227h1.465l.957 4.282z" clip-rule="evenodd"/></svg>