<svg class="color-immutable" xmlns="http://www.w3.org/2000/svg" width="59" height="20" fill="none" viewBox="0 0 59 20"><g clip-path="url(#a)"><path stroke="#000" d="M2 .5h55A1.5 1.5 0 0 1 58.5 2v16a1.5 1.5 0 0 1-1.5 1.5H2A1.5 1.5 0 0 1 .5 18V2A1.5 1.5 0 0 1 2 .5Z"/><path fill="#000" d="M12.894 4.224V6.4H9.316v9.604h-2.57V6.399h-3.56V4.224zM23.013 4.224V6.4h-6.268v2.514h5.744v2.022h-5.744v2.893h6.38v2.175h-8.95V4.224zM24.817 4.224h5.704q1.692 0 2.595.532.749.435 1.144 1.16t.395 1.636q0 1.03-.5 1.796-.492.765-1.378 1.096.782.194 1.225.87.282.428.379.894.096.467.25 2.135.112 1.225.346 1.523l.113.137h-2.683a2 2 0 0 1-.202-.636q-.056-.387-.153-1.79-.096-1.248-.612-1.723-.508-.483-1.74-.484h-2.312v4.633h-2.57zm2.57 2.022v3.24h2.458q1.184 0 1.668-.34.612-.427.612-1.288 0-.838-.524-1.225t-1.651-.387z"/></g><defs><clipPath id="a"><path fill="#fff" d="M0 0h59v20H0z"/></clipPath></defs></svg>