<svg xmlns="http://www.w3.org/2000/svg" width="36" height="36" version="1.1" viewBox="0 0 36 36">
  <path fill="#000" fill-rule="evenodd" stroke="none" stroke-width="1" d="M19.503,30.0015 L19.503,31.5015 L18.0015,31.5015 L18.0015,30.0015 L19.503,30.0015 Z M11.9985,28.4985 L11.9985,31.5015 L10.4985,31.5015 L10.4985,28.4985 L11.9985,28.4985 Z M16.5,30.0015 L16.5,31.5015 L13.4985,31.5015 L13.4985,30.0015 L16.5,30.0015 Z M28.5015,24 L28.5015,26.997 L30.0015,26.997 L30.0015,28.497 L28.5015,28.497 L28.5015,27 L27.0015,27 L27.0015,29.997 L28.5015,29.997 L28.5015,31.497 L25.5015,31.497 L25.5015,28.497 L24.0015,28.497 L24.0015,30.0015 L22.5015,30.0015 L22.5015,31.5015 L21.0015,31.5015 L21.0015,28.5015 L22.5015,28.5015 L22.5015,27.0015 L27.0015,26.997 L27.0015,24 L28.5015,24 Z M31.5015,29.997 L31.5015,31.497 L30.0015,31.497 L30.0015,29.997 L31.5015,29.997 Z M14.99925,25.497 L15.00075,26.997 L16.50075,26.997 L16.50075,28.497 L13.49925,28.497 L13.49925,27 L11.99925,27 L11.99925,25.5 L13.49925,25.5 L13.49925,25.497 L14.99925,25.497 Z M21.003,26.997 L21.003,28.497 L18.0015,28.497 L18.0015,26.997 L21.003,26.997 Z M6,22.5 L6,25.5 L4.5,25.5 L4.5,22.5 L6,22.5 Z M31.5015,22.5 L31.5015,25.5 L30.0015,25.5 L30.0015,22.5 L31.5015,22.5 Z M15,22.5 L15,24 L11.9985,24 L11.9985,25.497 L10.4985,25.497 L10.4985,23.997 L11.9985,23.997 L11.9985,22.5 L15,22.5 Z M25.5,16.4955 L25.5,25.4955 L16.5,25.4955 L16.5,16.4955 L25.5,16.4955 Z M24,17.994 L18,17.994 L18,23.994 L24,23.994 L24,17.994 Z M31.5015,19.5 L31.5015,21 L30.0015,21 L30.0015,22.497 L27.0015,22.497 L27.0015,20.997 L30.0015,20.997 L30.0015,19.5 L31.5015,19.5 Z M15,19.5 L15,21 L11.9985,21 L11.9985,22.497 L10.4985,22.497 L10.4985,20.997 L11.9985,20.997 L11.9985,19.5 L15,19.5 Z M22.5,19.4955 L22.5,22.4955 L19.5,22.4955 L19.5,19.4955 L22.5,19.4955 Z M7.5015,19.5 L7.5015,21 L6,21 L6,19.5 L7.5015,19.5 Z M31.5015,16.5 L31.5015,18 L30.0015,18 L30.0015,19.497 L27.0015,19.497 L27.0015,17.997 L30.0015,17.997 L30.0015,16.5 L31.5015,16.5 Z M7.5015,16.5 L7.5015,18 L6,18 L6,19.4955 L4.5,19.4955 L4.5,17.994 L6,17.994 L6,16.5 L7.5015,16.5 Z M15,14.997 L15,16.497 L13.4985,16.497 L13.4985,17.9955 L10.4985,17.9955 L10.4985,16.4955 L13.4985,16.4955 L13.4985,14.997 L15,14.997 Z M28.5015,14.997 L30.0015,14.997 L30.0015,16.497 L27.0015,16.5 L27.0015,13.5 L25.5015,13.497 L25.5015,11.997 L28.5015,11.9964 L28.5015,10.4964 L31.5015,10.4964 L31.5015,13.4964 L30.0015,13.4964 L30.0015,11.9964 L28.5015,11.997 L28.5015,14.997 Z M7.5015,13.5 L7.5015,15 L6,15 L6,16.497 L4.5,16.497 L4.5,14.997 L6,14.997 L6,13.5 L7.5015,13.5 Z M21.0015,12 L21.0015,15 L19.5015,15 L19.5015,14.997 L18.0015,14.997 L18.0015,13.497 L19.5015,13.497 L19.5015,12 L21.0015,12 Z M13.49925,10.49415 L13.49925,11.99415 L11.99925,11.99415 L11.99925,15.00015 L10.49925,15.00015 L10.49925,10.49415 L13.49925,10.49415 Z M24,10.5 L24,13.497 L25.5,13.497 L25.5,14.997 L24,14.997 L24,13.5 L22.5,13.5 L22.5,10.5 L24,10.5 Z M19.50075,10.497 L19.50075,11.997 L16.49925,11.997 L16.49925,13.5 L13.49925,13.5 L13.49925,12 L14.99925,12 L14.99925,10.5 L15.00075,10.5 L15.00075,10.497 L19.50075,10.497 Z M7.5015,10.494 L7.5015,11.994 L4.5,11.994 L4.5,10.494 L7.5015,10.494 Z M7.49925,4.49325 L7.49925,5.99325 L5.99925,5.99325 L5.99925,8.99925 L4.49925,8.99925 L4.49925,4.49325 L7.49925,4.49325 Z M15,5.9985 L15,7.4985 L13.4985,7.4985 L13.4985,5.9985 L15,5.9985 Z M18.0015,4.4985 L18.0015,7.4985 L16.5015,7.4985 L16.5015,4.4985 L18.0015,4.4985 Z M13.49925,4.49565 L13.49925,5.99565 L10.49925,5.99565 L10.49925,7.49865 L7.49925,7.49865 L7.49925,5.99865 L8.99925,5.99865 L8.99925,4.49565 L13.49925,4.49565 Z M25.5015,4.49565 L25.5015,7.49565 L24.0015,7.49565 L24.0015,5.99565 L22.5015,5.99565 L22.5015,7.4955 L19.5015,7.4955 L19.5015,5.994 L22.5015,5.994 L22.5015,4.49565 L25.5015,4.49565 Z"/>
</svg>
