<svg class="color-immutable" xmlns="http://www.w3.org/2000/svg" width="59" height="20" fill="none" viewBox="0 0 59 20"><g clip-path="url(#a)"><path stroke="#fff" d="M.5 2A1.5 1.5 0 0 1 2 .5h55A1.5 1.5 0 0 1 58.5 2v16a1.5 1.5 0 0 1-1.5 1.5H2A1.5 1.5 0 0 1 .5 18z"/><path fill="#fff" d="M4.069 4.224h5.704q1.692 0 2.594.531.749.435 1.144 1.16.395.727.395 1.636 0 1.032-.5 1.797-.491.765-1.377 1.095.78.195 1.224.87.282.427.379.895.097.467.25 2.135.112 1.224.346 1.523l.113.137h-2.683a2 2 0 0 1-.201-.637q-.058-.387-.154-1.788-.096-1.25-.612-1.725-.507-.483-1.74-.483H6.639v4.633h-2.57zm2.57 2.022v3.239h2.457q1.184 0 1.668-.339.612-.426.612-1.289 0-.837-.524-1.224t-1.651-.387zM24.436 13.827v2.176h-8.33V4.223h2.57v9.604zM33.572 13.908v2.095h-8.484q0-.96.306-1.83.315-.87.879-1.498a8 8 0 0 1 1.015-.943q.588-.459 2.328-1.683.846-.588 1.185-1.096a2.07 2.07 0 0 0 .338-1.176q0-.774-.46-1.25-.45-.482-1.192-.482-1.821 0-1.877 2.618h-2.264v-.258q0-2.143 1.2-3.32 1.17-1.143 3.022-1.143 1.643 0 2.747.934 1.2 1.015 1.2 2.732 0 1.498-.958 2.578-.315.354-.588.572-.275.21-1.442 1.023-1.112.773-1.596 1.184a6.5 6.5 0 0 0-.886.943zM36.32 9.678q-.822-.282-1.266-.926-.435-.645-.435-1.563 0-1.53 1.257-2.442 1.111-.805 2.643-.805 1.74 0 2.844.959 1.047.902 1.047 2.231 0 .927-.443 1.587-.442.66-1.257.96.637.184 1.04.474 1.12.814 1.12 2.377 0 1.797-1.378 2.86-1.16.895-2.981.895-1.974 0-3.142-.983-1.217-1.024-1.217-2.683 0-1.555 1.08-2.41.491-.378 1.087-.53m2.167-3.907q-.773 0-1.25.435-.474.426-.474 1.128 0 .732.475 1.176.483.435 1.289.435T39.8 8.51t.467-1.184q0-.734-.475-1.144-.468-.411-1.305-.411m-.017 4.793q-.87 0-1.426.54-.547.532-.547 1.37 0 .862.556 1.402.564.54 1.458.54 1.014 0 1.522-.597.492-.572.492-1.321 0-.855-.564-1.402-.54-.531-1.49-.532"/></g><defs><clipPath id="a"><path fill="#fff" d="M0 0h59v20H0z"/></clipPath></defs></svg>