<?xml version="1.0" encoding="utf-8"?>
<!-- Generator: Adobe Illustrator 24.2.0, SVG Export Plug-In . SVG Version: 6.00 Build 0)  -->
<svg version="1.0" id="Ebene_1" xmlns="http://www.w3.org/2000/svg" xmlns:xlink="http://www.w3.org/1999/xlink" x="0px" y="0px"
	 viewBox="0 0 24 24" enable-background="new 0 0 24 24" xml:space="preserve">
<g id="SVG_x5F_24x24pt">
	<path id="backgroundBlue" fill="#2D327D" d="M-0.001,22.5v-21c0-0.825,0.675-1.5,1.5-1.5h21C23.324,0,24,0.675,24,1.5v21
		c0,0.825-0.675,1.5-1.5,1.5h-21C0.674,24-0.001,23.325-0.001,22.5z"/>
	<g id="content">
		<path fill="#FFFFFF" d="M18.362,12.1L21,14.738V21h-7.891c-0.348,0-0.629-0.282-0.629-0.628c0-0.015,0-0.03,0.001-0.045
			c0.001-0.056,0.011-0.111,0.031-0.162c0.147-0.4,0.528-0.666,0.953-0.666h0.019h2.191c0.269,0,0.489-0.219,0.489-0.487v-1.271
			c0-0.199-0.08-0.389-0.221-0.529l-4.086-4.087c-0.273-0.271-0.273-0.711-0.002-0.982c0.271-0.271,0.712-0.271,0.983,0l4.345,4.346
			l0.239-0.239l-3.884-3.884l0.264-0.267c0.113-0.111,0.266-0.175,0.425-0.175c0.16,0,0.312,0.063,0.424,0.175l3.474,3.475
			l0.238-0.239l-2.969-2.969l0.264-0.267c0.113-0.111,0.266-0.175,0.425-0.175c0.16,0,0.312,0.063,0.425,0.175l2.545,2.546
			l0.239-0.238l-2.041-2.042l0.264-0.267c0.113-0.111,0.266-0.175,0.425-0.175C18.097,11.925,18.25,11.988,18.362,12.1L18.362,12.1z
			"/>
		<path fill="#FFFFFF" d="M5.637,16.4l-2.637-2.639V7.5h7.891c0.348,0,0.629,0.282,0.629,0.628c0,0.015,0,0.03-0.001,0.045
			c-0.001,0.056-0.011,0.111-0.031,0.162C11.341,8.735,10.96,9,10.535,9h-0.019H8.325C8.056,9,7.837,9.219,7.837,9.488v1.271
			c0,0.199,0.08,0.389,0.221,0.529l4.086,4.087c0.273,0.271,0.273,0.711,0.002,0.982c-0.271,0.271-0.712,0.271-0.983,0l-4.345-4.346
			L6.578,12.25l3.884,3.884L10.198,16.4c-0.113,0.111-0.266,0.175-0.425,0.175c-0.16,0-0.312-0.063-0.424-0.175l-3.474-3.475
			l-0.238,0.24l2.969,2.969L8.342,16.4c-0.113,0.111-0.266,0.175-0.425,0.175c-0.16,0-0.312-0.063-0.425-0.175l-2.545-2.546
			l-0.239,0.238l2.041,2.042L6.486,16.4c-0.113,0.111-0.266,0.175-0.425,0.175C5.902,16.575,5.749,16.512,5.637,16.4L5.637,16.4z"/>
		<g>
			<path fill="#FFFFFF" d="M4.885,3.666H4.418c-0.009-0.11-0.05-0.194-0.122-0.251C4.223,3.357,4.122,3.328,3.992,3.328
				c-0.116,0-0.206,0.023-0.27,0.068C3.658,3.442,3.626,3.506,3.626,3.588c0,0.074,0.031,0.127,0.092,0.16
				C3.777,3.78,3.928,3.826,4.17,3.886C4.425,3.95,4.602,4.014,4.701,4.078c0.181,0.119,0.272,0.285,0.272,0.497
				c0,0.233-0.091,0.416-0.274,0.551C4.538,5.244,4.32,5.303,4.045,5.303c-0.306,0-0.543-0.07-0.712-0.209
				C3.164,4.954,3.076,4.755,3.07,4.498h0.489c0.007,0.125,0.039,0.218,0.097,0.278c0.09,0.096,0.226,0.145,0.408,0.145
				c0.123,0,0.22-0.024,0.292-0.072c0.081-0.055,0.122-0.131,0.122-0.226c0-0.095-0.057-0.165-0.171-0.209
				C4.244,4.389,4.097,4.344,3.864,4.28C3.718,4.24,3.605,4.202,3.522,4.166C3.44,4.13,3.375,4.09,3.326,4.046
				C3.211,3.943,3.153,3.802,3.153,3.621c0-0.216,0.09-0.388,0.269-0.514C3.575,3,3.774,2.946,4.018,2.946
				c0.214,0,0.394,0.043,0.538,0.128C4.764,3.196,4.874,3.393,4.885,3.666z"/>
			<path fill="#FFFFFF" d="M6.291,2.946c0.299,0,0.551,0.098,0.754,0.295C7.268,3.459,7.38,3.753,7.38,4.124
				c0,0.32-0.085,0.585-0.254,0.795c-0.207,0.255-0.49,0.383-0.849,0.383c-0.367,0-0.655-0.131-0.864-0.392
				C5.248,4.703,5.165,4.442,5.165,4.127c0-0.373,0.107-0.664,0.321-0.872C5.698,3.049,5.966,2.946,6.291,2.946z M6.266,3.355
				c-0.18,0-0.326,0.069-0.437,0.206C5.717,3.7,5.66,3.886,5.66,4.121c0,0.243,0.055,0.432,0.166,0.568
				C5.879,4.753,5.945,4.804,6.025,4.84C6.105,4.875,6.19,4.893,6.28,4.893c0.179,0,0.321-0.063,0.425-0.188
				c0.12-0.144,0.18-0.339,0.18-0.586c0-0.234-0.055-0.42-0.165-0.558C6.611,3.424,6.46,3.355,6.266,3.355z"/>
			<path fill="#FFFFFF" d="M9.383,3.666H8.915c-0.009-0.11-0.05-0.194-0.122-0.251C8.72,3.357,8.619,3.328,8.489,3.328
				c-0.116,0-0.206,0.023-0.27,0.068C8.155,3.442,8.123,3.506,8.123,3.588c0,0.074,0.031,0.127,0.092,0.16
				c0.059,0.033,0.21,0.079,0.452,0.138C8.923,3.95,9.1,4.014,9.198,4.078C9.38,4.197,9.47,4.363,9.47,4.575
				c0,0.233-0.091,0.416-0.274,0.551C9.035,5.244,8.818,5.303,8.543,5.303c-0.306,0-0.543-0.07-0.712-0.209
				C7.661,4.954,7.574,4.755,7.568,4.498h0.489c0.007,0.125,0.039,0.218,0.097,0.278c0.09,0.096,0.226,0.145,0.408,0.145
				c0.123,0,0.22-0.024,0.292-0.072c0.081-0.055,0.122-0.131,0.122-0.226c0-0.095-0.057-0.165-0.171-0.209
				C8.742,4.389,8.594,4.344,8.361,4.28C8.216,4.24,8.102,4.202,8.02,4.166C7.938,4.13,7.872,4.09,7.823,4.046
				C7.708,3.943,7.651,3.802,7.651,3.621c0-0.216,0.09-0.388,0.269-0.514C8.073,3,8.271,2.946,8.515,2.946
				c0.214,0,0.394,0.043,0.538,0.128C9.262,3.196,9.371,3.393,9.383,3.666z"/>
		</g>
	</g>
</g>
</svg>
