<svg class="color-immutable" xmlns="http://www.w3.org/2000/svg" width="59" height="20" fill="none" viewBox="0 0 59 20"><path fill="#EB0000" fill-rule="evenodd" d="M2 0a2 2 0 0 0-2 2v16a2 2 0 0 0 2 2h55a2 2 0 0 0 2-2V2a2 2 0 0 0-2-2z" clip-rule="evenodd"/><path fill="#fff" fill-rule="evenodd" d="M8.287 15.8h5.288l3.428-3.508H9.138l1.77-1.774h7.933l1.815-1.778h-7.933l1.748-1.799h7.935l2.71-2.741H12.588a1.4 1.4 0 0 0-.807.2l-.246.182-.27.223-6.834 6.858c-.15.176-.237.398-.246.63a.7.7 0 0 0 .203.517l.426.382L7.39 15.24l.381.335.316.158q.051.003.099.024l.075.032zm24.828-3.125V4.2h-5.847L15.726 15.8h5.358l8.468-8.499V15.8h5.849L46.963 4.2h-5.4z" clip-rule="evenodd"/></svg>