<svg xmlns="http://www.w3.org/2000/svg" width="36" height="36" fill="none" viewBox="0 0 36 36"><path fill="#000" fill-rule="evenodd" d="m6.745 15.252 22.505-.002a2 2 0 0 1 2 2h.002v7H33v1h-1.748v1.5h-1.515q.012.122.013.25a2.75 2.75 0 1 1-5.488-.25H11.737q.012.122.013.25a2.749 2.749 0 1 1-5.488-.25H4.75v-1.5H3v-1h1.749l-.004-6.998a2 2 0 0 1 2-2M25.271 26.75a1.5 1.5 0 0 0-.021.25 1.75 1.75 0 1 0 3.5 0q0-.126-.021-.25zm-18 0h3.458q.02.124.02.25a1.749 1.749 0 1 1-3.478-.25m21.979-10.5-22.504.002a1 1 0 0 0-1 1l.004 8.498h2v-6h5.5v6h17.002v-8.5h-.002a1 1 0 0 0-1-1m-17 9.5h-3.5v-5h3.5zm3.5-6h-.5v4h13.002v-4H15.75m.5 3v-2h11.002v2z" clip-rule="evenodd"/></svg>