<svg class="color-immutable" xmlns="http://www.w3.org/2000/svg" width="59" height="20" fill="none" viewBox="0 0 59 20"><g clip-path="url(#a)"><path stroke="#FFDE15" d="M2 .5h55A1.5 1.5 0 0 1 58.5 2v16a1.5 1.5 0 0 1-1.5 1.5H2A1.5 1.5 0 0 1 .5 18V2A1.5 1.5 0 0 1 2 .5Z"/><path fill="#FFDE15" d="M4.16 4.235h5.6q1.662 0 2.547.522.735.428 1.124 1.14.387.712.387 1.605 0 1.012-.49 1.764-.483.752-1.353 1.076a1.95 1.95 0 0 1 1.203.854q.276.42.371.878.095.459.245 2.097.111 1.202.34 1.495l.111.134h-2.634a2 2 0 0 1-.197-.625q-.056-.38-.15-1.756-.095-1.226-.602-1.693-.498-.474-1.709-.474h-2.27V15.8H4.16zm2.523 1.986V9.4h2.413q1.162 0 1.637-.333.601-.418.601-1.265 0-.824-.514-1.203T9.2 6.22zM24.647 4.235v2.136h-6.154V8.84h5.64v1.986h-5.64v2.84h6.265V15.8H15.97V4.235zM36.251 4.235V15.8h-2.539l-4.84-7.879.03 7.879h-2.428V4.235h2.571l4.81 7.863-.032-7.863zM45.459 4.235v2.057h-4.66l-.498 2.602q.84-.886 2.144-.886 1.282 0 2.23.689 1.41 1.035 1.409 3.148 0 2.073-1.503 3.283-1.17.948-2.8.949-1.836 0-2.95-.981-1.116-.99-1.18-2.666h2.27q.057.61.396 1.037.53.672 1.471.672.91 0 1.44-.657.514-.64.514-1.558 0-.996-.538-1.59-.537-.6-1.431-.601-1.092 0-1.701.98l-2.065-.03 1.1-6.448z"/></g><defs><clipPath id="a"><path fill="#fff" d="M0 0h59v20H0z"/></clipPath></defs></svg>