<?xml version="1.0" encoding="utf-8"?>
<!-- Generator: Adobe Illustrator 25.3.1, SVG Export Plug-In . SVG Version: 6.00 Build 0)  -->
<svg version="1.0" xmlns="http://www.w3.org/2000/svg" xmlns:xlink="http://www.w3.org/1999/xlink" x="0px" y="0px"
	 viewBox="0 0 24 24" enable-background="new 0 0 24 24" xml:space="preserve">
<g id="SVG_x5F_24x24pt">
	<path id="backgroundBlue" fill="#2D327D" d="M0,22.5v-21C0,0.675,0.675,0,1.5,0h21C23.325,0,24,0.675,24,1.5v21
		c0,0.825-0.675,1.5-1.5,1.5h-21C0.675,24,0,23.325,0,22.5z"/>
	<g id="content">
		<path fill="#FFFFFF" d="M11.369,12.551c-0.015,0-0.029,0-0.045,0.001c-0.055,0.001-0.11,0.011-0.16,0.031
			c-0.397,0.146-0.66,0.523-0.66,0.945v0.018v2.172c0,0.267-0.217,0.485-0.483,0.485H8.759c-0.197,0-0.386-0.079-0.525-0.219
			L4.18,11.931c-0.268-0.271-0.705-0.271-0.974-0.001c-0.269,0.269-0.269,0.706,0,0.975l4.31,4.31L7.28,17.451l-3.852-3.852
			l-0.264,0.262c-0.11,0.112-0.173,0.264-0.173,0.421c0,0.158,0.063,0.31,0.173,0.421l3.447,3.446l-0.238,0.236L3.428,15.44
			l-0.264,0.262c-0.11,0.113-0.173,0.263-0.173,0.421c0,0.159,0.063,0.31,0.173,0.421l2.525,2.524l-0.236,0.237l-2.025-2.024
			l-0.264,0.262c-0.11,0.112-0.173,0.264-0.173,0.421c0,0.158,0.063,0.31,0.173,0.421L5.781,21h6.21v-7.826
			C11.991,12.829,11.711,12.551,11.369,12.551z"/>
		<rect x="5.775" y="4.125" fill="#FFFFFF" width="12.45" height="3.3"/>
		<polygon fill="#FFFFFF" points="3,3 3,5.25 5.4,5.25 5.4,4.875 3.375,4.875 3.375,3.375 20.625,3.375 20.625,4.875 18.6,4.875 
			18.6,5.25 21,5.25 21,3 		"/>
		<polygon fill="#FFFFFF" points="5.775,11.1 16.237,11.1 16.237,9.113 18.225,9.113 18.225,7.8 5.775,7.8 		"/>
		<polygon fill="#FFFFFF" points="16.612,11.1 16.613,11.1 18.225,9.488 18.225,9.488 16.612,9.488 		"/>
	</g>
</g>
</svg>
