<svg xmlns="http://www.w3.org/2000/svg" width="36" height="36" version="1.1" viewBox="0 0 36 36">
  <g fill="none" fill-rule="evenodd" stroke="none" stroke-width="1">
    <path stroke="#000" d="M8.25,32.25 L27.75,32.25 L27.75,3.75 L8.25,3.75 L8.25,32.25 Z M12,23.25 L24,23.25 M12,26.25 L24,26.25"/>
    <path fill="#000" d="M16.125,13.5666 C15.996,13.6401 15.8535,13.6866 15.708,13.7061 C15.4455,13.7421 15.1815,13.7571 14.9175,13.7526 L13.3845,13.7526 L13.3845,11.7651 L15.1695,11.7651 C15.4155,11.7591 15.66,11.7816 15.9015,11.8326 C16.041,11.8671 16.1715,11.9361 16.281,12.0321 C16.4625,12.2196 16.557,12.4746 16.539,12.7341 C16.5735,13.0686 16.4115,13.3926 16.125,13.5666 L16.125,13.5666 Z M18.0525,17.5446 C18.0195,17.5071 17.9055,17.3271 17.835,16.5516 L17.835,16.5531 C17.769,15.8421 17.7255,15.4596 17.697,15.3096 C17.6535,15.1146 17.5725,14.9316 17.46,14.7681 C17.355,14.6061 17.217,14.4696 17.055,14.3676 C17.2605,14.2371 17.439,14.0676 17.5785,13.8696 C17.8185,13.5096 17.94,13.0851 17.928,12.6531 C17.9325,12.2886 17.8485,11.9286 17.682,11.6046 C17.5155,11.2911 17.268,11.0301 16.9665,10.8471 C16.503,10.5966 15.9795,10.4781 15.4545,10.5036 L12,10.5036 L12,18.0201 L13.3845,18.0201 L13.3845,14.9571 L15.021,14.9571 C15.369,14.9241 15.7185,14.9871 16.0335,15.1371 C16.2825,15.2991 16.434,15.7416 16.4685,16.4151 C16.4955,16.9836 16.5195,17.3061 16.542,17.4546 C16.5645,17.6226 16.6245,17.7831 16.719,17.9241 L16.785,18.0201 L18.468,18.0201 L18.0525,17.5446 Z M23.3028,10.503 L21.4158,16.134 L19.5378,10.503 L18.0213,10.503 L20.6523,17.871 L20.7078,18.021 L22.0863,18.021 L24.7758,10.503 L23.3028,10.503 Z"/>
  </g>
</svg>
