<svg class="color-immutable" xmlns="http://www.w3.org/2000/svg" width="59" height="20" fill="none" viewBox="0 0 59 20"><g fill="#EB0000" clip-path="url(#a)"><path d="M57.208 1c.439 0 .795.358.795.8v16.4c0 .442-.356.8-.795.8H1.792a.8.8 0 0 1-.795-.8V1.8c0-.442.356-.8.795-.8zm0-1H1.792C.803 0 0 .806 0 1.8v16.4c0 .994.803 1.8 1.792 1.8h55.416c.99 0 1.792-.806 1.792-1.8V1.8c0-.994-.803-1.8-1.792-1.8"/><path d="M4.16 4.234h5.6q1.662 0 2.547.522.735.427 1.124 1.139.387.712.387 1.606 0 1.013-.49 1.764-.483.751-1.353 1.076a1.95 1.95 0 0 1 1.203.854q.276.42.371.878t.245 2.096q.111 1.203.34 1.495l.111.135h-2.634a2 2 0 0 1-.197-.625q-.056-.38-.15-1.756-.095-1.227-.602-1.693-.498-.475-1.709-.475h-2.27V15.8H4.16zm2.523 1.985V9.4h2.413q1.162 0 1.637-.332.601-.42.601-1.266 0-.822-.514-1.202T9.2 6.219zM24.647 4.234V6.37h-6.154v2.468h5.64v1.985h-5.64v2.84h6.265v2.136H15.97V4.234zM34.029 13.742v2.057h-8.33q0-.942.3-1.796.31-.855.863-1.471.427-.475.997-.926.578-.45 2.286-1.653.83-.578 1.163-1.076.332-.498.332-1.155 0-.76-.451-1.226-.443-.474-1.17-.474-1.789 0-1.844 2.57h-2.223V8.34q0-2.103 1.179-3.259 1.147-1.123 2.966-1.123 1.614 0 2.698.918 1.178.996 1.178 2.681 0 1.472-.941 2.531-.309.348-.577.562-.27.205-1.416 1.005-1.092.759-1.567 1.162a6.4 6.4 0 0 0-.87.926zM38.933 3.957q1.32 0 2.325.807.998.807 1.448 2.484.34 1.281.34 2.784 0 2.492-.886 4.098-.522.933-1.368 1.44a3.56 3.56 0 0 1-1.875.505q-1.416 0-2.42-.854-1.788-1.518-1.788-5.189 0-2.61.933-4.192a3.77 3.77 0 0 1 1.385-1.393 3.8 3.8 0 0 1 1.906-.49m-.087 1.954q-1.14 0-1.55 1.313-.325 1.044-.325 2.927 0 1.661.333 2.665.427 1.305 1.581 1.306.958 0 1.424-1.013.468-1.013.467-3.093 0-1.772-.332-2.792-.428-1.313-1.598-1.313"/></g><defs><clipPath id="a"><path fill="#fff" d="M0 0h59v20H0z"/></clipPath></defs></svg>