<svg xmlns="http://www.w3.org/2000/svg" width="36" height="36" fill="none" viewBox="0 0 36 36"><path fill="#000" fill-rule="evenodd" d="M15.925 9.584c-1.54-1.54-1.673-3.629-.571-4.73l-.708-.708-8.25 8.25-2.25 2.25-.353.354.353.354 14.655 14.655.002-.002c.762.761 1.766 1.243 2.947 1.243h7.5a3.5 3.5 0 0 0 3.5-3.5 4.25 4.25 0 0 0-4.25-4.25c-.86 0-1.635-.334-2.217-.881l-4.817-12.301-.28-.712-.54.54c-1.103 1.104-3.181.977-4.72-.562m-.707.707c-1.047-1.047-1.623-2.424-1.59-3.713l-6.17 6.172L21.006 26.3l.002-.002c.594.595 1.351.952 2.241.952h8.462A3.25 3.25 0 0 0 28.5 24.5a4.22 4.22 0 0 1-2.997-1.245l-.074-.074-.038-.097-1.501-3.834H21v-1h2.498l-.783-2H19.5v-1h2.823l-1.54-3.934c-1.642 1.059-3.978.562-5.565-1.025M5.208 15l1.542-1.543L20.301 27.01l.002-.002c.762.761 1.766 1.243 2.947 1.243h8.45a2.5 2.5 0 0 1-2.45 2h-7.5c-.89 0-1.647-.357-2.241-.952l-.002.002zM9 29.75v-1h6v1zm-3-4v1h6v-1zm-3-3h6v1H3z" clip-rule="evenodd"/></svg>