<svg xmlns="http://www.w3.org/2000/svg" width="16" height="16" fill="none" viewBox="0 0 16 16"><path fill="#000" fill-rule="evenodd" d="M7.5 13H9c.243 0 .556-.105.914-.33.352-.22.709-.532 1.03-.883.32-.35.594-.726.784-1.063.2-.357.272-.607.272-.724V6.5a.5.5 0 0 0-.166-.334A.5.5 0 0 0 11.5 6H8.191l.362-.724.002-.004.008-.015a10 10 0 0 0 .14-.295c.09-.197.212-.47.333-.773s.24-.63.327-.936c.09-.313.137-.573.137-.753 0-.167-.04-.24-.061-.267-.019-.024-.047-.045-.1-.055-.128-.026-.338.029-.485.176-.226.225-.96 1.078-1.77 2.137C6.305 5.511 5.487 6.681 5 7.62V12c0 .236.08.388.203.507q.208.2.636.325C6.41 12.997 7.09 13 7.5 13m-2.5.573V14H2V7h2.197c.533-.988 1.348-2.142 2.093-3.116.816-1.066 1.582-1.963 1.856-2.238.353-.353.893-.548 1.39-.449.26.052.513.188.697.429.183.239.267.54.267.874 0 .32-.078.685-.175 1.028-.1.35-.232.711-.36 1.033Q9.87 4.796 9.78 5H11.5c.413 0 .783.201 1.041.459S13 6.087 13 6.5V10c0 .383-.179.82-.4 1.214-.232.412-.552.849-.919 1.249-.366.4-.79.775-1.236 1.054-.438.276-.938.483-1.445.483H7.483c-.397 0-1.204 0-1.923-.207a3 3 0 0 1-.561-.22M4 12V8H3v5h1z" clip-rule="evenodd"/></svg>