<svg class="color-immutable" xmlns="http://www.w3.org/2000/svg" width="59" height="20" fill="none" viewBox="0 0 59 20"><g fill="#EB0000" clip-path="url(#a)"><path d="M57.208 1c.439 0 .795.358.795.8v16.4c0 .442-.356.8-.795.8H1.792a.8.8 0 0 1-.795-.8V1.8c0-.442.356-.8.795-.8zm0-1H1.792C.803 0 0 .806 0 1.8v16.4c0 .994.803 1.8 1.792 1.8h55.416c.99 0 1.792-.806 1.792-1.8V1.8c0-.994-.803-1.8-1.792-1.8"/><path d="M4.16 4.234h5.6q1.662 0 2.547.522.735.427 1.124 1.139.387.712.387 1.606 0 1.013-.49 1.764-.483.751-1.353 1.076a1.95 1.95 0 0 1 1.203.854q.276.42.371.878t.245 2.096q.111 1.203.34 1.495l.111.135h-2.634a2 2 0 0 1-.197-.625q-.056-.38-.15-1.756-.095-1.227-.602-1.693-.498-.475-1.709-.475h-2.27V15.8H4.16zm2.523 1.985V9.4h2.413q1.162 0 1.637-.332.601-.42.601-1.266 0-.822-.514-1.202T9.2 6.219zM24.647 4.234V6.37h-6.154v2.468h5.64v1.985h-5.64v2.84h6.265v2.136H15.97V4.234zM27.708 9.59q-.806-.279-1.241-.91-.428-.633-.428-1.535 0-1.503 1.234-2.397 1.092-.79 2.595-.791 1.709 0 2.792.941 1.029.886 1.029 2.191 0 .91-.435 1.559t-1.234.941q.624.182 1.02.467 1.1.798 1.1 2.333 0 1.764-1.353 2.808-1.14.878-2.927.878-1.938 0-3.085-.965-1.194-1.004-1.194-2.634 0-1.527 1.06-2.365a2.9 2.9 0 0 1 1.067-.522m2.128-3.837q-.76 0-1.226.427-.465.42-.466 1.107 0 .72.466 1.155.476.427 1.266.427t1.25-.427q.458-.427.458-1.163 0-.72-.466-1.123-.459-.403-1.282-.403m-.015 4.706q-.855 0-1.4.53-.539.522-.538 1.345 0 .846.545 1.376.555.53 1.432.53.997 0 1.495-.585.483-.562.483-1.297 0-.84-.554-1.377-.53-.522-1.463-.522M42.469 4.234V6.29h-4.66l-.498 2.602q.84-.886 2.144-.886 1.281 0 2.23.688 1.41 1.036 1.409 3.149 0 2.072-1.503 3.282-1.17.95-2.8.95-1.836 0-2.95-.982-1.117-.988-1.18-2.665h2.27q.057.609.396 1.036.53.672 1.471.672.91 0 1.44-.656.514-.641.514-1.558 0-.997-.538-1.59-.537-.602-1.431-.602-1.092 0-1.701.981l-2.065-.031 1.1-6.447z"/></g><defs><clipPath id="a"><path fill="#fff" d="M0 0h59v20H0z"/></clipPath></defs></svg>