<svg xmlns="http://www.w3.org/2000/svg" width="24" height="24" fill="none" viewBox="0 0 24 24"><path fill="#000" fill-rule="evenodd" d="M1.9 12c0-3.412 1.037-5.913 2.395-7.793l.81.586C3.863 6.513 2.9 8.81 2.9 12c0 3.182.96 5.387 2.213 7.217l-.825.565C2.94 17.815 1.9 15.417 1.9 12m4.102 2.497c0-1.748 1.01-3.269 2.471-4.012l.454.891a3.51 3.51 0 0 0-1.925 3.121c0 1.924 1.578 3.5 3.5 3.5a3.52 3.52 0 0 0 3.168-2.016l.904.427a4.51 4.51 0 0 1-4.072 2.59 4.513 4.513 0 0 1-4.5-4.5M21.901 12c0-3.418-1.041-5.814-2.389-7.783l-.825.565c1.254 1.832 2.214 4.035 2.214 7.218 0 3.188-.963 5.487-2.207 7.207l.81.586c1.36-1.88 2.397-4.382 2.397-7.793M10 13.5V8h1v5h5v6h-1v-5h-5zm.5-8.5a1 1 0 1 0 0 2 1 1 0 0 0 0-2" clip-rule="evenodd"/></svg>