<svg xmlns="http://www.w3.org/2000/svg" width="24" height="24" fill="none" viewBox="0 0 24 24"><path fill="#000" fill-rule="evenodd" d="m22.854 3.807-1.858 1.93-3.593 3.73.05.1c.192.386.42.815.655 1.26l.001.002q.163.306.327.62c.343.652.677 1.312.889 1.848.105.265.191.527.227.757.018.114.028.245.008.376a.74.74 0 0 1-.219.435q-.096.09-.188.18l-.004.005q-.094.092-.19.18a2 2 0 0 1-.44.326c-.173.089-.37.14-.59.124a1.05 1.05 0 0 1-.386.487.91.91 0 0 1-.762.123c-.253-.069-.47-.234-.65-.45a9.8 9.8 0 0 0-2.832-1.882l.4-.916a10.8 10.8 0 0 1 3.147 2.097l.023.023.02.026c.049.06.087.094.114.113l.001-.004.003-.007a.35.35 0 0 0 .004-.182l-.26-1.182 1.018.653c.13.083.2.1.228.103.016.002.03.002.065-.016a1 1 0 0 0 .22-.17q.075-.07.17-.163l.006-.006.108-.105-.002-.013a3 3 0 0 0-.169-.544c-.19-.48-.5-1.097-.844-1.752l-.318-.603c-.24-.451-.478-.9-.675-1.297a12 12 0 0 1-.367-.8c-.089-.219-.169-.454-.189-.658a1.52 1.52 0 0 0-.751-1.121l-.41-.235.211-.423.547-1.093c-.287.115-.527.29-.652.54l-.19.378-.403-.123a6.88 6.88 0 0 0-6.526 1.399l-.008.007C6.377 9.09 5.46 10.87 4.882 12.814c-.525 1.768-.757 3.635-.858 5.248 3.373.43 6.074.876 9.357 1.651-.7-1.075-1.247-2.002-1.637-3.034C11.228 15.31 11 13.783 11 11.5h1c0 2.217.223 3.61.68 4.826.465 1.23 1.179 2.305 2.237 3.897l.714 1.075-1.252-.313c-3.975-.994-6.955-1.49-10.94-1.989l-.46-.057.022-.463c.085-1.751.315-3.899.923-5.947.607-2.042 1.603-4.029 3.252-5.41a7.88 7.88 0 0 1 7.108-1.698c.362-.442.87-.664 1.267-.777a4 4 0 0 1 .922-.144h.027V5v-.5h.81l-.362.724-.81 1.618q.035.028.066.058l4.222-1.963zm-4.438 3.166-1.42 1.474v-.01a2.5 2.5 0 0 0-.2-.71zM14 8a1 1 0 1 0 0 2 1 1 0 0 0 0-2" clip-rule="evenodd"/></svg>