<svg class="color-immutable" xmlns="http://www.w3.org/2000/svg" width="59" height="20" fill="none" viewBox="0 0 59 20"><g clip-path="url(#a)"><path fill="#EB0000" fill-rule="evenodd" d="M2 0a2 2 0 0 0-2 2v16a2 2 0 0 0 2 2h55a2 2 0 0 0 2-2V2a2 2 0 0 0-2-2z" clip-rule="evenodd"/><path fill="#fff" d="M9.22 4.2h4.057L8.259 15.8H4.186zM15.948 4.2h14.395l-1.49 3.445h-10.28l-2.042 4.71h10.285l-1.49 3.445H10.93zM44.772 11.203v1.954h-1.455v2.642h-2.254v-2.642h-4.826v-2.168l4.944-6.755h2.136v6.969zm-3.662.024V6.922l-2.974 4.304zM47.367 9.59q-.807-.279-1.242-.91-.427-.633-.427-1.535 0-1.503 1.234-2.397 1.091-.79 2.594-.791 1.71 0 2.793.941 1.028.886 1.028 2.191 0 .91-.435 1.559t-1.234.941q.625.182 1.02.467 1.1.798 1.1 2.333 0 1.764-1.353 2.808-1.14.878-2.926.878-1.938 0-3.085-.965-1.195-1.004-1.195-2.634 0-1.527 1.06-2.365a2.9 2.9 0 0 1 1.068-.522m2.128-3.837q-.76 0-1.226.427-.467.42-.467 1.107 0 .72.467 1.155.474.427 1.265.427.792 0 1.25-.427.459-.427.459-1.163 0-.72-.467-1.123-.459-.403-1.281-.403m-.016 4.706q-.855 0-1.4.53-.538.522-.538 1.345 0 .846.546 1.376.553.53 1.431.53.997 0 1.495-.585.483-.562.483-1.297 0-.84-.554-1.377-.529-.522-1.463-.522"/></g><defs><clipPath id="a"><path fill="#fff" d="M0 0h59v20H0z"/></clipPath></defs></svg>