<svg class="color-immutable" xmlns="http://www.w3.org/2000/svg" width="59" height="20" fill="none" viewBox="0 0 59 20"><g clip-path="url(#a)"><path stroke="#fff" d="M2 .5h55A1.5 1.5 0 0 1 58.5 2v16a1.5 1.5 0 0 1-1.5 1.5H2A1.5 1.5 0 0 1 .5 18V2A1.5 1.5 0 0 1 2 .5Z"/><path fill="#fff" d="M12.877 7.71h-2.449q-.072-.863-.644-1.314-.564-.459-1.587-.459-.91 0-1.418.363-.5.355-.5.999 0 .58.483.838.468.258 2.37.725 2.005.5 2.779 1.007 1.425.934 1.426 2.602 0 1.829-1.434 2.884-1.266.927-3.424.927-2.401 0-3.73-1.096T3.37 12.068h2.562q.056.984.507 1.459.71.757 2.135.757.967 0 1.531-.379.636-.434.636-1.184t-.894-1.096q-.49-.193-2.32-.7-1.144-.315-1.789-.597-.644-.282-1.031-.628-.903-.806-.902-2.224 0-1.7 1.41-2.69 1.2-.847 3.118-.847 1.683 0 2.82.669 1.635.96 1.723 3.102M22.545 13.905V16h-8.483q0-.96.306-1.829.315-.87.878-1.498.435-.484 1.015-.943.588-.459 2.329-1.684.845-.588 1.184-1.096a2.07 2.07 0 0 0 .338-1.176q0-.773-.459-1.249-.45-.483-1.192-.483-1.821 0-1.877 2.618H14.32v-.257q0-2.144 1.2-3.32 1.169-1.144 3.021-1.144 1.644 0 2.748.935 1.2 1.015 1.2 2.731 0 1.498-.959 2.578-.314.354-.588.572-.274.21-1.442 1.023-1.112.773-1.595 1.185a6.5 6.5 0 0 0-.886.942zM23.448 13.043h2.223q.274 1.37 1.588 1.37.741 0 1.2-.5.466-.507.717-1.57.16-.678.234-1.54-.54.758-1.112 1.08-.564.315-1.378.314-1.297 0-2.256-.757a3.6 3.6 0 0 1-1.047-1.378 4.5 4.5 0 0 1-.37-1.837q0-1.989 1.36-3.222 1.17-1.065 2.805-1.064 1.006 0 1.86.451t1.435 1.281q1.023 1.475 1.023 4.142 0 2.465-.902 4.205-1.177 2.264-3.561 2.264-1.587 0-2.627-.878-1.031-.88-1.192-2.36m3.915-7.114q-.758 0-1.28.62-.525.63-.524 1.596 0 .78.378 1.386.516.83 1.45.83.846 0 1.354-.677.475-.638.475-1.515 0-.927-.491-1.571a1.64 1.64 0 0 0-1.362-.669"/></g><defs><clipPath id="a"><path fill="#fff" d="M0 0h59v20H0z"/></clipPath></defs></svg>