<svg xmlns="http://www.w3.org/2000/svg" width="48" height="48" fill="none" viewBox="0 0 48 48"><path fill="#000" fill-rule="evenodd" d="m14.703 6.043-.203-.09-.203.09-9 4-.297.132V39.27l.703-.313 8.797-3.91 8.797 3.91.208.092.206-.096 7.5-3.5-.422-.906L24 37.715V24.972c1.319-.15 2.277-.898 3.004-1.896.8-1.097 1.354-2.538 1.851-3.905l.153-.421c.45-1.241.866-2.393 1.398-3.273.465-.77.97-1.251 1.594-1.414V24h1v-9.973c1.667.182 2.626 1.279 3.687 2.544l.073.087c1.033 1.233 2.197 2.622 4.24 2.819V23h1V10.175l-.297-.132-9-4-.203-.09-.203.09-8.797 3.91zM41 18.471v-7.646l-8-3.556v5.753c2.177.193 3.389 1.638 4.453 2.907 1.066 1.27 1.98 2.353 3.547 2.542M32 7.269l-8 3.556v13.138c.918-.14 1.61-.673 2.196-1.476.704-.966 1.216-2.275 1.72-3.658l.154-.428c.441-1.22.894-2.47 1.48-3.44.58-.96 1.348-1.739 2.45-1.92zm-9 3.556-8-3.556v10.767c.81.118 1.443.521 1.98 1.043.489.473.926 1.075 1.351 1.66q.17.235.338.462c.552.741 1.13 1.435 1.883 1.949.64.437 1.423.754 2.448.832zm-9-3.556-8 3.556v19.148a3 3 0 0 0 1.259-.413c.44-.273.784-.67 1.065-1.177.575-1.04.84-2.45 1.126-3.975l.002-.007c.276-1.475.574-3.063 1.265-4.274.353-.618.819-1.158 1.45-1.54.517-.311 1.123-.505 1.833-.566zM6 30.98v6.752l8-3.556v-15.15c-.536.058-.965.207-1.315.419-.455.274-.81.673-1.1 1.179-.592 1.037-.866 2.446-1.152 3.97l-.018.098c-.271 1.446-.56 2.992-1.216 4.176-.343.618-.795 1.159-1.413 1.542-.503.312-1.094.507-1.786.57m9 3.196 8 3.556V24.984c-1.236-.08-2.21-.46-3.012-1.009-.895-.611-1.555-1.417-2.12-2.176q-.197-.266-.378-.515c-.416-.573-.786-1.08-1.205-1.487-.39-.38-.797-.64-1.285-.745zm16-3.214C31 27.15 33.876 24 37.5 24s6.5 3.152 6.5 6.96v.005c-.01 1.158-.349 2.187-.86 3.15l-.005.01-.005.01-5.182 8.808-.431.732-.43-.732-5.183-8.809-.006-.01c-.523-.94-.854-1.948-.898-3.145v-.018m1-.01c.038 1.013.315 1.864.77 2.681l4.747 8.071 4.745-8.066c.454-.858.73-1.725.738-2.678C42.999 27.632 40.503 25 37.5 25c-3 0-5.495 2.628-5.5 5.952M37.5 29c-.817 0-1.5.683-1.5 1.5 0 .81.697 1.5 1.521 1.5.81 0 1.479-.676 1.479-1.5 0-.817-.683-1.5-1.5-1.5M35 30.5c0-1.369 1.131-2.5 2.5-2.5s2.5 1.131 2.5 2.5c0 1.362-1.103 2.5-2.479 2.5C36.16 33 35 31.876 35 30.5" clip-rule="evenodd"/></svg>