<svg class="color-immutable" xmlns="http://www.w3.org/2000/svg" width="59" height="20" fill="none" viewBox="0 0 59 20"><g clip-path="url(#a)"><path fill="#EB0000" fill-rule="evenodd" d="M2 0a2 2 0 0 0-2 2v16a2 2 0 0 0 2 2h55a2 2 0 0 0 2-2V2a2 2 0 0 0-2-2z" clip-rule="evenodd"/><path fill="#fff" d="M9.388 4.2h4.042L8.43 15.8h-4.06zM26.092 12.366a.92.92 0 0 0 .843-.553L30.216 4.2H16.13l-5.001 11.6h4.025l3.786-8.69h5.973l-1.197 2.775-5.209-.019L22.71 15.8h4.582l-3.114-3.434zM44.092 4.234V6.29h-4.659l-.498 2.602q.838-.886 2.143-.886 1.282 0 2.231.688 1.408 1.036 1.408 3.149 0 2.072-1.503 3.282-1.17.95-2.8.95-1.836 0-2.95-.982-1.116-.988-1.18-2.665h2.271q.056.609.395 1.036.53.672 1.472.672.909 0 1.44-.656.514-.641.514-1.558 0-.997-.538-1.59-.538-.602-1.432-.602-1.092 0-1.7.981l-2.065-.031 1.1-6.447zM49.574 3.957q1.32 0 2.325.807.997.807 1.448 2.484.34 1.281.34 2.784 0 2.492-.886 4.098-.522.933-1.368 1.44a3.56 3.56 0 0 1-1.875.505q-1.416 0-2.42-.854-1.788-1.518-1.788-5.189 0-2.61.933-4.192a3.77 3.77 0 0 1 1.384-1.393 3.8 3.8 0 0 1 1.907-.49m-.087 1.954q-1.14 0-1.55 1.313-.325 1.044-.325 2.927 0 1.661.332 2.665.428 1.305 1.582 1.306.957 0 1.424-1.013t.467-3.093q0-1.772-.332-2.792-.428-1.313-1.598-1.313"/></g><defs><clipPath id="a"><path fill="#fff" d="M0 0h59v20H0z"/></clipPath></defs></svg>