<svg class="color-immutable" width="59" height="20" viewBox="0 0 59 20" fill="none" xmlns="http://www.w3.org/2000/svg"><path fill-rule="evenodd" clip-rule="evenodd" d="M2 0a2 2 0 0 0-2 2v16a2 2 0 0 0 2 2h55a2 2 0 0 0 2-2V2a2 2 0 0 0-2-2H2Z" fill="#F27E00"/><path d="M14.153 4.17v2.142H7.98v2.476h5.657v1.991H7.98v2.849h6.284v2.142H5.45V4.17h8.704ZM25.311 4.17l-3.856 11.6h-2.88l-3.8-11.6h2.65l2.61 8.688 2.65-8.688h2.626ZM31.225 4.17v11.6h-2.317V8.177h-2.73V6.495c.566-.016 1.026-.075 1.38-.175.36-.1.689-.265.985-.492.428-.328.717-.88.865-1.658h1.817ZM42.216 7.066H40.01c-.206-.894-.714-1.341-1.523-1.341-.857 0-1.465.526-1.825 1.579-.148.428-.267 1.076-.357 1.944.35-.471.72-.81 1.11-1.016.398-.206.874-.31 1.43-.31 1.089 0 1.964.387 2.625 1.16.63.73.945 1.644.945 2.744 0 1.307-.423 2.357-1.27 3.15-.762.715-1.677 1.072-2.745 1.072-1.37 0-2.436-.516-3.198-1.547-.762-1.037-1.142-2.481-1.142-4.333 0-1.978.407-3.528 1.221-4.65.789-1.084 1.865-1.626 3.23-1.626 1.285 0 2.27.431 2.951 1.293.392.498.643 1.124.754 1.88ZM38.29 9.724c-.556 0-.997.233-1.325.698-.297.413-.445.905-.445 1.476 0 .566.151 1.06.453 1.484.328.47.777.706 1.348.706.556 0 1.003-.225 1.341-.674.318-.424.476-.924.476-1.5 0-.566-.142-1.05-.428-1.452-.35-.492-.823-.738-1.42-.738Z" fill="#000"/></svg>