<svg xmlns="http://www.w3.org/2000/svg" width="24" height="24" fill="none" viewBox="0 0 24 24"><path fill="#000" fill-rule="evenodd" d="M10.5 3H10v2H4v16h10v-2h6V3h-9.5m3 2H11V4h8v14h-5v-4h4v-1h-4v-1h4v-1h-4V5zM13 18.5V20H5V6h8zm4.975-13.569v4.07h-.812V6.335h-.959v-.59q.298-.007.487-.06a1 1 0 0 0 .344-.173q.224-.174.302-.582zm-5.985 5.345V11H9.059q0-.332.108-.632.106-.3.302-.518.15-.167.352-.325.201-.159.802-.582.293-.204.409-.379a.7.7 0 0 0 .118-.406.6.6 0 0 0-.158-.433.54.54 0 0 0-.413-.165q-.629 0-.65.904h-.78v-.089q0-.741.414-1.146.404-.396 1.044-.396.568 0 .949.323.414.35.414.944 0 .516-.331.89-.108.123-.203.196t-.498.355a8 8 0 0 0-.55.409q-.165.142-.307.326zM12 14H6v-1h6zm-6 2h6v-1H6z" clip-rule="evenodd"/></svg>