<svg xmlns="http://www.w3.org/2000/svg" width="36" height="36" viewBox="0 0 36 36">
  <g fill="none" fill-rule="evenodd">
    <path fill="#000" d="M19.47075,19.5 C20.19825,19.5 20.80575,19.695 21.29175,20.082 C21.82125,20.502 22.08675,21.0675 22.08675,21.7815 C22.08675,22.3995 21.87675,22.9335 21.45075,23.382 C21.31425,23.5305 21.18375,23.6475 21.06225,23.7345 C20.94075,23.823 20.62275,24.0375 20.10675,24.3735 C19.61475,24.6945 19.26375,24.9405 19.05075,25.11 C18.83925,25.281 18.64425,25.4745 18.46125,25.6965 L22.12575,25.6965 L22.12575,27 L16.50075,27 C16.50075,26.601 16.56825,26.2215 16.70775,25.8615 C16.84425,25.503 17.03775,25.191 17.28675,24.93 C17.47875,24.7305 17.70375,24.534 17.96325,24.345 C18.21975,24.1545 18.73425,23.805 19.50225,23.298 C19.87725,23.052 20.13825,22.827 20.28675,22.6155 C20.43825,22.4055 20.51175,22.161 20.51175,21.885 C20.51175,21.564 20.41125,21.3045 20.20875,21.105 C20.00775,20.907 19.74525,20.808 19.41675,20.808 C18.61125,20.808 18.19875,21.3495 18.17175,22.4355 L16.67325,22.4355 L16.67325,22.2765 C16.67325,21.387 16.93725,20.6985 17.46825,20.214 C17.98275,19.737 18.65175,19.5 19.47075,19.5 Z M12,10.5 L12,18 L10.281,18 L10.281,13.0905 L8.25,13.0905 L8.25,12.0015 C8.673,11.9925 9.015,11.9565 9.282,11.8905 C9.546,11.8245 9.7875,11.718 10.0095,11.5725 C10.3275,11.3595 10.5405,11.001 10.65,10.5 L12,10.5 Z"/>
    <path stroke="#000" d="M6.75,8.25 C5.094,8.25 3.75,9.594 3.75,11.25 L3.75,26.25 C3.75,27.906 5.094,29.25 6.75,29.25 L29.25,29.25 C30.906,29.25 32.25,27.906 32.25,26.25 L32.25,11.25 C32.25,9.594 30.906,8.25 29.25,8.25 L6.75,8.25 Z M9,25.5 L21,12"/>
  </g>
</svg>
