<svg xmlns="http://www.w3.org/2000/svg" width="36" height="36" fill="none" viewBox="0 0 36 36"><path fill="#000" fill-rule="evenodd" d="M14.325 3.25h-.207l-.146.146-1.575 1.575-.147.147v22.764l.147.147 1.575 1.575.146.146h2.632V33h1v-3.25h.5V33h1v-3.25h2.632l.147-.146 1.575-1.575.146-.147V5.118l-.146-.147-1.575-1.575-.146-.146h-7.558M13.25 5.532l1.283-1.282h6.935l1.282 1.282v21.936l-1.282 1.282h-6.935l-1.283-1.282zM18 7.25a1.75 1.75 0 1 0 0 3.5 1.75 1.75 0 0 0 0-3.5M15.25 9a2.75 2.75 0 1 1 5.5 0 2.75 2.75 0 0 1-5.5 0M18 13.75a2.75 2.75 0 1 0 0 5.5 2.75 2.75 0 0 0 0-5.5m0 8.5a1.75 1.75 0 1 0 .002 3.502A1.75 1.75 0 0 0 18 22.25M15.25 24a2.75 2.75 0 1 1 5.502.002A2.75 2.75 0 0 1 15.25 24m10.25-6.25h3v-1h-3zm-15 0h-3v-1h3zm-6 0H6v-1H4.5zm4.854 3.604-3 3-.708-.708 3-3zm21 2.292-3-3-.708.708 3 3zm-24-13.5 3 3-.708.708-3-3zM31.5 17.75H30v-1h1.5zm-4.146-3.896 3-3-.708-.708-3 3z" clip-rule="evenodd"/></svg>