<svg xmlns="http://www.w3.org/2000/svg" width="24" height="24" fill="none" viewBox="0 0 24 24"><path fill="#000" fill-rule="evenodd" d="M7 3a5 5 0 0 0-5 5c0 1.075.392 3.264 1.162 5.156.386.948.882 1.861 1.503 2.528.62.666 1.41 1.13 2.356 1.056a3 3 0 0 0 1.745-.574q.12.068.244.13c.104 1.594 1.043 2.988 2.289 3.984C12.623 21.338 14.356 22 16 22h3v-3h-2c-.803 0-1.26-.31-1.547-.784-.28-.462-.422-1.123-.448-1.927q.116-.06.23-.123c.49.357 1.092.57 1.744.574.946.074 1.736-.39 2.356-1.056.62-.667 1.117-1.58 1.503-2.528C21.608 11.264 22 9.075 22 8a5 5 0 0 0-8.275-3.778A6.8 6.8 0 0 0 12 4c-.598 0-1.178.077-1.725.222A4.98 4.98 0 0 0 7 3m7.025 13.69A6.7 6.7 0 0 1 12 17c-.672 0-1.32-.098-1.925-.279.218 1.048.896 2.016 1.848 2.778C13.09 20.43 14.607 21 16 21h2v-1h-1c-1.13 0-1.923-.474-2.403-1.266-.348-.576-.514-1.29-.572-2.043M6 11.7c0 1.527.728 2.887 1.867 3.843A2 2 0 0 1 7 15.74h-.022l-.021.002c-.544.047-1.06-.202-1.56-.74-.504-.54-.945-1.329-1.309-2.223C3.358 10.986 3 8.925 3 8a4 4 0 0 1 6.158-3.369C7.303 5.515 6 7.251 6 9.298V11.7m1 0V9.3c0-1.821 1.334-3.43 3.293-4.043A5.7 5.7 0 0 1 12 5c.6 0 1.175.091 1.707.257C15.667 5.87 17 7.48 17 9.3v2.4c0 1.384-.765 2.637-1.993 3.434A5.5 5.5 0 0 1 12 16a5.5 5.5 0 0 1-3.007-.866C7.765 14.337 7 13.084 7 11.7m11-2.4v-.002c-.001-2.047-1.303-3.783-3.158-4.667A4 4 0 0 1 21 8c0 .925-.358 2.986-1.088 4.779-.364.894-.805 1.682-1.31 2.224-.5.537-1.015.786-1.559.739l-.021-.002H17c-.31 0-.605-.07-.867-.197C17.273 14.587 18 13.227 18 11.7zM8 11a1 1 0 1 1 2 0 1 1 0 0 1-2 0m6 0a1 1 0 1 1 2 0 1 1 0 0 1-2 0" clip-rule="evenodd"/></svg>