<svg xmlns="http://www.w3.org/2000/svg" width="36" height="36" fill="none" viewBox="0 0 36 36"><path fill="#000" fill-rule="evenodd" d="M4.25 18c0-7.594 6.156-13.75 13.75-13.75S31.75 10.406 31.75 18 25.594 31.75 18 31.75 4.25 25.594 4.25 18M18 3.25C9.854 3.25 3.25 9.854 3.25 18S9.854 32.75 18 32.75 32.75 26.146 32.75 18 26.146 3.25 18 3.25M12.5 18a.5.5 0 1 1-1 0 .5.5 0 0 1 1 0m1 0a1.5 1.5 0 1 1-3 0 1.5 1.5 0 0 1 3 0m4.5.5a.5.5 0 1 0 0-1 .5.5 0 0 0 0 1m0 1a1.5 1.5 0 1 0 0-3 1.5 1.5 0 0 0 0 3m6.5-1.5a.5.5 0 1 1-1 0 .5.5 0 0 1 1 0m1 0a1.5 1.5 0 1 1-3 0 1.5 1.5 0 0 1 3 0" clip-rule="evenodd"/></svg>