<svg width="36" height="36" viewBox="0 0 36 36" fill="none" xmlns="http://www.w3.org/2000/svg"><path fill-rule="evenodd" clip-rule="evenodd" d="M4.25 18c0-7.594 6.156-13.75 13.75-13.75S31.75 10.406 31.75 18 25.594 31.75 18 31.75 4.25 25.594 4.25 18ZM18 3.25C9.854 3.25 3.25 9.854 3.25 18S9.854 32.75 18 32.75 32.75 26.146 32.75 18 26.146 3.25 18 3.25ZM12.5 18a.5.5 0 1 1-1 0 .5.5 0 0 1 1 0Zm1 0a1.5 1.5 0 1 1-3 0 1.5 1.5 0 0 1 3 0Zm4.5.5a.5.5 0 1 0 0-1 .5.5 0 0 0 0 1Zm0 1a1.5 1.5 0 1 0 0-3 1.5 1.5 0 0 0 0 3Zm6.5-1.5a.5.5 0 1 1-1 0 .5.5 0 0 1 1 0Zm1 0a1.5 1.5 0 1 1-3 0 1.5 1.5 0 0 1 3 0Z" fill="#000"/></svg>