<svg xmlns="http://www.w3.org/2000/svg" width="36" height="36" version="1.1" viewBox="0 0 36 36">
  <path fill="none" fill-rule="evenodd" stroke="#000" stroke-width="1" d="M20.27055,26.23455 C20.27055,27.89055 18.92655,29.23455 17.27055,29.23455 C15.61305,29.23455 14.27055,27.89055 14.27055,26.23455 M11.25,26.23455 C11.25,27.89055 9.906,29.23455 8.25,29.23455 C6.594,29.23455 5.25,27.89055 5.25,26.23455 M3,29.23455 L33,29.23455 M3,26.23455 L28.3455,26.23455 C30.501,26.23455 32.25,24.48405 32.25,22.32555 C32.25,20.99205 31.515,19.76805 30.339,19.14555 L12.12,9.49155 C10.515,8.64105 8.7255,8.23455 6.909,8.23455 L6,8.23455 M3,8.23455 L4.5,8.23455 M4.5,23.23455 L3,23.23455 M9,23.23455 L6,23.23455 M32.12325,23.23455 L10.49925,23.23455 M15.0168,11.0265 L14.7168,11.451 C13.6023,13.0275 14.0718,15.333 15.8298,16.128 L15.8688,16.146 L19.6443,17.8035 C21.0768,18.432 22.6233,18.7545 24.1863,18.7545 L29.6193,18.7545 M7.49925,18.73605 L4.49925,18.73605 M7.49925,14.23455 C8.74275,14.23455 9.74925,15.24255 9.74925,16.48455 C9.74925,17.72805 8.74275,18.73605 7.49925,18.73605 M3,14.23455 L6,14.23455"/>
</svg>
