<svg xmlns="http://www.w3.org/2000/svg" width="48" height="48" fill="none" viewBox="0 0 48 48"><path fill="#000" fill-rule="evenodd" d="M7 23.5C7 13.835 14.835 6 24.5 6S42 13.835 42 23.5 34.165 41 24.5 41 7 33.165 7 23.5M24.5 5C14.283 5 6 13.283 6 23.5S14.283 42 24.5 42 43 33.717 43 23.5 34.717 5 24.5 5m-7.883 24.321a10.29 10.29 0 0 0 15.766 0l-.766-.642a9.29 9.29 0 0 1-14.234 0zm1.05-12.068a1.5 1.5 0 1 1 1.667 2.495 1.5 1.5 0 0 1-1.667-2.495M18.5 18a.5.5 0 1 0 0 1 .5.5 0 0 0 0-1m12-1a1.5 1.5 0 1 0 0 3 1.5 1.5 0 0 0 0-3m-.278 1.084a.5.5 0 1 1 .556.83.5.5 0 0 1-.556-.83" clip-rule="evenodd"/></svg>