<svg xmlns="http://www.w3.org/2000/svg" width="16" height="16" fill="none" viewBox="0 0 16 16"><path fill="#000" d="M5.557 4.414C6.235 4.07 7 4.587 7 5.311V10H6v5H3v-5H2V5.31c0-.696.686-1.158 1.313-.95l.125.05.005.003L4.5 4.94zM12 11h2v4H8v-4h2v-1h2zm-8 3h1v-4H4zm5 0h4v-2H9zM4.724 5.947 4.5 6.06l-.224-.113-1.275-.637H3V9h3V5.309zM11 1a3 3 0 1 1 0 6 3 3 0 0 1 0-6m0 1a2 2 0 1 0 0 4 2 2 0 0 0 0-4m.5 1.793.707.707-.707.708-1-1V2.48h1zM4.5 1a1.5 1.5 0 1 1 0 3 1.5 1.5 0 0 1 0-3m0 1a.5.5 0 1 0 0 1 .5.5 0 0 0 0-1"/></svg>