<svg xmlns="http://www.w3.org/2000/svg" width="24" height="16" fill="none" viewBox="0 0 24 16"><path fill="#000" fill-rule="evenodd" d="M12.23 2.46V15H9.31V2.46c0-.81.65-1.46 1.46-1.46s1.46.66 1.46 1.46m-5.26-.93c.66 0 1.27.23 1.76.6v2.24H1.28L5.39 2c.45-.3 1-.47 1.58-.47m13.2 3.42a14.47 14.47 0 0 1-7.35 3.3v-3.3zm.1-.58h-7.44V2.13c.49-.38 1.1-.6 1.76-.6.58 0 1.12.17 1.58.47zm-18.89.58h7.35v3.3c-2.78-.39-5.31-1.57-7.35-3.3m21.34 8.52V15l-.01.01H19.8v-1.54c0-.81.65-1.46 1.46-1.46s1.46.66 1.46 1.46M19.22 15v-3.29c0-.8-.65-1.46-1.46-1.46s-1.46.65-1.46 1.46V15h2.92m-3.49 0v-4.46c0-.8-.65-1.46-1.46-1.46s-1.46.65-1.46 1.46V15zm-7-.26V15h-2.9v-1.29a1.093 1.093 0 0 1 1.45-1.03 2.19 2.19 0 0 1 1.45 2.06" clip-rule="evenodd"/></svg>