<svg xmlns="http://www.w3.org/2000/svg" width="24" height="24" fill="none" viewBox="0 0 24 24"><path fill="#000" fill-rule="evenodd" d="M6.01 4h6.697l.146.147 5 5 .147.146V20H6v-.5l.009-15zm.999 1L7 19h10v-9h-5V5zM13 5.708 16.293 9H13zM8.651 16.404v-.848h.55q.27 0 .387.082.165.11.164.335 0 .225-.142.34-.113.09-.375.091zm.556-1.402h-1.21V18h.654v-1.08h.672q.26 0 .435-.052a.8.8 0 0 0 .314-.165q.324-.267.324-.737 0-.528-.39-.792a1 1 0 0 0-.318-.134 2.4 2.4 0 0 0-.48-.038m2.203.553v1.892h.504q.232-.001.37-.046a.6.6 0 0 0 .239-.159q.238-.255.238-.756 0-.459-.22-.695t-.652-.236zm-.654-.553h1.212q.337 0 .579.077.24.079.425.247.45.41.449 1.137 0 .772-.424 1.192a1.1 1.1 0 0 1-.42.265 1.9 1.9 0 0 1-.595.08h-1.226zm5.226.554v-.554h-2.11V18h.654v-1.234h1.268v-.515h-1.268v-.695z" clip-rule="evenodd"/></svg>