<?xml version="1.0" encoding="utf-8"?>
<!-- Generator: Adobe Illustrator 24.2.0, SVG Export Plug-In . SVG Version: 6.00 Build 0)  -->
<svg version="1.0" xmlns="http://www.w3.org/2000/svg" xmlns:xlink="http://www.w3.org/1999/xlink" x="0px" y="0px"
	 viewBox="0 0 24 24" enable-background="new 0 0 24 24" xml:space="preserve">
<g id="SVG_x5F_24x24pt">
	<path id="backgroundBlue" fill="#2D327D" d="M0,22.5v-21C0,0.675,0.675,0,1.5,0h21C23.325,0,24,0.675,24,1.5v21
		c0,0.825-0.675,1.5-1.5,1.5h-21C0.675,24,0,23.325,0,22.5z"/>
	<g id="content">
		<path fill="#FFFFFF" d="M13.5,4.488c0-0.828-0.672-1.5-1.5-1.5c-0.828,0-1.5,0.672-1.5,1.5c0,0.828,0.672,1.5,1.5,1.5
			C12.828,5.988,13.5,5.316,13.5,4.488L13.5,4.488z"/>
		<path fill="#FFFFFF" d="M8.681,7.875v5.091c0,0.295,0.239,0.534,0.534,0.534c0.295,0,0.534-0.239,0.534-0.534V8.625h0.469v11.606
			c0,0.424,0.344,0.769,0.769,0.769c0.424,0,0.769-0.344,0.769-0.769v-6.75h0.487v6.75c0,0.424,0.344,0.769,0.769,0.769
			c0.424,0,0.769-0.344,0.769-0.769V8.625h0.469v4.341c0,0.295,0.239,0.534,0.535,0.534c0.295,0,0.534-0.239,0.534-0.534l0,0V7.875
			c0-0.828-0.672-1.5-1.5-1.5h-3.637C9.353,6.375,8.681,7.047,8.681,7.875L8.681,7.875z"/>
		<path fill="#FFFFFF" d="M21,2.996c-0.102,0-0.185,0.083-0.185,0.185v5.762c-0.031,0.009-0.058,0.027-0.077,0.051l0,0l-0.847,0.903
			l0,0c-0.083,0.079-0.143,0.144-0.166,0.261c-0.009,0.042-0.015,0.128-0.016,0.182c-0.085,2.559-1,3.433-1.362,3.583
			c-0.053,0.022-0.332,0.154-0.311,0.515c0.12,1.999,1.209,3.642,2.387,3.642h0.391v2.726c0,0.102,0.083,0.185,0.185,0.185
			c0.102,0,0.185-0.083,0.185-0.185V3.181C21.185,3.079,21.102,2.996,21,2.996z"/>
	</g>
</g>
</svg>
