<svg xmlns="http://www.w3.org/2000/svg" width="24" height="24" fill="none" viewBox="0 0 24 24"><path fill="#000" fill-rule="evenodd" d="M20.42 2H18v4.997h1.09V5.032h.981q.523 0 .739.205.218.201.26.731.04.595.064.76.027.162.086.27h1.138l-.048-.059q-.099-.127-.147-.646a11 11 0 0 0-.106-.906 1.1 1.1 0 0 0-.16-.38.84.84 0 0 0-.52-.368q.375-.141.584-.465.213-.325.212-.762 0-.388-.167-.694a1.26 1.26 0 0 0-.486-.492Q21.138 2 20.42 2m-1.33 2.232V2.858h1.087q.48 0 .7.164.223.165.223.52 0 .365-.26.546-.204.144-.707.144zM13 6h4.434l-.518.777-1.846 2.769.743 1.634A4.004 4.004 0 0 1 21.001 15c0 2.206-1.794 4-4 4s-4-1.794-4-4a4 4 0 0 1 1.902-3.405L14.179 10H9.35l-.524 1.441A4 4 0 0 1 11 15c0 2.206-1.794 4-4 4s-4-1.794-4-4a4.004 4.004 0 0 1 4.886-3.901l.644-1.77.12-.33h5.582l1.334-2H13zm2.322 6.515a3 3 0 1 0 .91-.415l1.224 2.693-.91.414zM6.53 14.829l1.01-2.78A3.004 3.004 0 0 0 4 15c0 1.654 1.346 3 3 3s3-1.346 3-3a3 3 0 0 0-1.52-2.608L7.47 15.17zM10 8H7.21V7H10z" clip-rule="evenodd"/></svg>