<svg xmlns="http://www.w3.org/2000/svg" width="24" height="24" fill="none" viewBox="0 0 24 24"><path fill="#000" fill-rule="evenodd" d="m3.146 1.888.483.13L9.425 3.57l.483.13-.13.482-.129.483.966.26.483.129-.13.483-.258.965-.13.483-.483-.129-.966-.259-.129.483-.13.483-.482-.13L6 6.794V9H2V8h3V6.525l-2.406-.644-.483-.13.13-.483.776-2.897zm5.537 2.519-4.83-1.295-.517 1.932 4.83 1.294zm7.18 3.112.222-.063.192.128 6 4-.554.832-5.808-3.872-13.778 3.937-.274-.962zM6 18.995a2.003 2.003 0 0 1 2.506-1.935l-.943 1.697.874.486.942-1.695c.382.365.621.879.621 1.447 0 1.102-.898 2-2 2s-2-.898-2-2m3.875-2.34A3 3 0 0 1 11 18.995c0 1.654-1.346 3-3 3s-3-1.346-3-3a3.003 3.003 0 0 1 4.002-2.828l1.06-1.91.144-.257H9v-1h2v1h3v-1h-1v-1h2v2.419l.54 1.616Q15.764 16 16 16c1.655 0 3 1.345 3 3 0 1.654-1.345 3-3 3s-3-1.346-3-3c0-1.146.645-2.143 1.59-2.648L14.14 15h-3.346zm5.04.666a2 2 0 1 0 .948-.316l.611 1.832-.948.316z" clip-rule="evenodd"/></svg>