<svg class="color-immutable" xmlns="http://www.w3.org/2000/svg" width="59" height="20" fill="none" viewBox="0 0 59 20"><path fill="#E84E10" fill-rule="evenodd" d="M2 0a2 2 0 0 0-2 2v16a2 2 0 0 0 2 2h55a2 2 0 0 0 2-2V2a2 2 0 0 0-2-2z" clip-rule="evenodd"/><path fill="#000" d="M14.153 4.17v2.142H7.98v2.476h5.657v1.991H7.98v2.849h6.284v2.142H5.45V4.17zM25.311 4.17l-3.856 11.6h-2.88l-3.8-11.6h2.65l2.61 8.688 2.65-8.688zM33.415 7.066h-2.206q-.309-1.341-1.524-1.341-1.285 0-1.825 1.579-.222.642-.357 1.944.525-.706 1.111-1.016.595-.31 1.428-.31 1.635 0 2.627 1.16.945 1.094.944 2.745 0 1.959-1.27 3.15-1.142 1.07-2.745 1.07-2.055 0-3.197-1.546-1.143-1.555-1.143-4.333 0-2.967 1.222-4.65 1.182-1.626 3.23-1.626 1.927 0 2.95 1.293.588.747.755 1.88m-3.928 2.658q-.833 0-1.325.698-.444.62-.444 1.476 0 .848.452 1.484.491.706 1.349.706.833 0 1.34-.674.477-.635.477-1.5 0-.849-.429-1.452-.523-.738-1.42-.738M34.306 7.844q.039-1.429.706-2.397 1.079-1.555 3.245-1.555 1.665 0 2.69.85 1.103.92 1.103 2.38 0 .872-.437 1.507-.428.626-1.166.849.936.214 1.476.952.547.738.547 1.786 0 1.72-1.27 2.816-1.173 1.016-2.967 1.016-1.944 0-3.086-1.119-1.135-1.12-1.135-3.023v-.15h2.23q0 1.07.507 1.658.509.579 1.436.579.93 0 1.429-.548.46-.516.46-1.23 0-.856-.587-1.356-.484-.413-1.492-.413-.285 0-.563.032V8.772q.206.016.396.016 2 0 2-1.484 0-.651-.436-1.047-.437-.405-1.15-.405-.819 0-1.262.508-.445.507-.477 1.484z"/></svg>