<svg xmlns="http://www.w3.org/2000/svg" width="36" height="36" fill="none" viewBox="0 0 36 36"><path fill="#000" fill-rule="evenodd" d="M19.627 19.75c.414 0 .804.174 1.088.471l3.658 3.825 2.347.002h.02c.252.01.615.098.927.335.333.255.581.665.581 1.239l.002 4.294v.5h-3.125c-.225 1.208-1.246 2.147-2.506 2.147-1.261 0-2.28-.939-2.505-2.148H14.86c-.225 1.21-1.245 2.148-2.505 2.148s-2.281-.939-2.506-2.148h-2.1V24.95c0-.375.131-.74.372-1.029l3.03-3.624a1.51 1.51 0 0 1 1.156-.547zm-7.271 8.518c-.836 0-1.553.716-1.553 1.648 0 .93.717 1.647 1.553 1.647.835 0 1.552-.717 1.553-1.647 0-.931-.718-1.648-1.553-1.648m10.263 0c-.836 0-1.553.717-1.553 1.648s.717 1.647 1.553 1.647c.835 0 1.552-.717 1.552-1.647 0-.931-.717-1.648-1.552-1.648M8.75 29.416h1.1c.224-1.21 1.245-2.148 2.506-2.148s2.28.939 2.505 2.148h5.253c.224-1.21 1.244-2.148 2.505-2.148s2.281.939 2.506 2.148h2.125l-.002-3.793c0-.252-.095-.373-.189-.445a.7.7 0 0 0-.36-.13l-2.541-.002H8.75zm3.558-8.666a.51.51 0 0 0-.389.189l-2.6 3.107h5.616V20.75zm3.627 3.296h7.054l-2.996-3.134a.5.5 0 0 0-.366-.162h-3.692zm8.343-12.461 9 6-.555.831-8.807-5.872-20.778 5.937-.276-.961 21-6 .223-.063z" clip-rule="evenodd"/></svg>