<?xml version="1.0" encoding="utf-8"?>
<!-- Generator: Adobe Illustrator 24.2.0, SVG Export Plug-In . SVG Version: 6.00 Build 0)  -->
<svg version="1.0" id="Ebene_1" xmlns="http://www.w3.org/2000/svg" xmlns:xlink="http://www.w3.org/1999/xlink" x="0px" y="0px"
	 viewBox="0 0 24 24" enable-background="new 0 0 24 24" xml:space="preserve">
<g id="SVG_x5F_24x24pt">
	<path id="backgroundBlue" fill="#2D327D" d="M0,22.5v-21C0,0.675,0.675,0,1.5,0h21C23.325,0,24,0.675,24,1.5v21
		c0,0.825-0.675,1.5-1.5,1.5h-21C0.675,24,0,23.325,0,22.5z"/>
	<g id="content">
		<path fill="#FFFFFF" d="M18.42,13.736c-0.211-0.211-0.497-0.329-0.796-0.329h-6.484c-0.298,0-0.584,0.118-0.795,0.329L7.731,16.35
			l-4.387,0.364C3.149,16.73,3,16.892,3,17.087v2.338C3,19.632,3.168,19.8,3.375,19.8l0,0h0.412v-0.431
			c0-1.242,1.008-2.25,2.25-2.25c1.242,0,2.25,1.008,2.25,2.25V19.8h7.463v-0.431c0-1.242,1.008-2.25,2.25-2.25
			c1.242,0,2.25,1.008,2.25,2.25V19.8h0.375c0.207,0,0.375-0.168,0.375-0.375v-2.644c0-0.298-0.119-0.585-0.33-0.796L18.42,13.736
			L18.42,13.736z M13.915,14.494l-0.002,1.538c0,0.207-0.168,0.374-0.375,0.374H9.279c-0.124,0-0.225-0.101-0.225-0.225
			c0-0.06,0.024-0.117,0.066-0.159l1.793-1.794c0.07-0.07,0.166-0.11,0.265-0.11h2.362C13.747,14.119,13.915,14.287,13.915,14.494
			L13.915,14.494L13.915,14.494z M19.487,16.406h-4.485c-0.207,0-0.375-0.168-0.375-0.375v-1.537c0-0.207,0.168-0.375,0.375-0.375
			h2.585c0.099,0,0.195,0.04,0.265,0.11l1.793,1.794c0.042,0.042,0.066,0.099,0.066,0.159
			C19.712,16.305,19.611,16.406,19.487,16.406L19.487,16.406z"/>
		<path fill-rule="evenodd" clip-rule="evenodd" fill="#FFFFFF" d="M18.016,20.336c-0.518,0-0.937-0.42-0.937-0.937
			c0-0.518,0.42-0.937,0.937-0.937c0.518,0,0.937,0.42,0.937,0.937C18.954,19.916,18.534,20.336,18.016,20.336L18.016,20.336z
			 M17.995,17.678c-0.942,0-1.706,0.765-1.706,1.706c0,0.942,0.765,1.706,1.706,1.706c0.942,0,1.706-0.764,1.706-1.706
			C19.702,18.443,18.937,17.678,17.995,17.678L17.995,17.678z"/>
		<path fill-rule="evenodd" clip-rule="evenodd" fill="#FFFFFF" d="M6.039,20.336c-0.517,0-0.937-0.42-0.937-0.937
			c0-0.518,0.42-0.937,0.937-0.937c0.518,0,0.938,0.42,0.938,0.937C6.977,19.916,6.557,20.336,6.039,20.336L6.039,20.336z
			 M6.039,17.692c-0.942,0-1.706,0.765-1.706,1.706c0,0.942,0.764,1.706,1.706,1.706c0.942,0,1.706-0.764,1.706-1.706
			C7.745,18.457,6.981,17.692,6.039,17.692L6.039,17.692z"/>
	</g>
</g>
</svg>
