<?xml version="1.0" encoding="utf-8"?>
<!-- Generator: Adobe Illustrator 24.2.0, SVG Export Plug-In . SVG Version: 6.00 Build 0)  -->
<svg version="1.0" id="Ebene_1" xmlns="http://www.w3.org/2000/svg" xmlns:xlink="http://www.w3.org/1999/xlink" x="0px" y="0px"
	 viewBox="0 0 24 24" enable-background="new 0 0 24 24" xml:space="preserve">
<g id="SVG_x5F_24x24pt">
	<path id="backgroundBlue" fill="#2D327D" d="M0,22.5v-21C0,0.675,0.675,0,1.5,0h21C23.325,0,24,0.675,24,1.5v21
		c0,0.825-0.675,1.5-1.5,1.5h-21C0.675,24,0,23.325,0,22.5z"/>
	<g id="content">
		<polygon fill="#FFFFFF" points="18.713,5.619 21,6 21,6.684 18.713,6.303 18.713,5.619 		"/>
		<polygon fill="#FFFFFF" points="17.288,5.381 17.288,6.066 3,3.685 3,3 17.288,5.381 		"/>
		<path fill="#FFFFFF" d="M15.751,11.251c-0.414,0-0.751,0.336-0.751,0.75v4.351c0,0.098,0.009,0.197,0.03,0.293l0.75,3.752
			C15.85,20.749,16.157,21,16.515,21h2.97c0.358,0,0.666-0.251,0.736-0.602l0.751-3.752C20.99,16.549,21,16.451,21,16.353v-4.351
			c0-0.414-0.335-0.75-0.75-0.75h-1.913V4.726h-0.675v6.525H15.751L15.751,11.251z M15.751,16.126v-3.75
			c0-0.207,0.167-0.375,0.374-0.375h3.75c0.206,0,0.374,0.168,0.374,0.375v3.75c0,0.207-0.168,0.374-0.374,0.374h-3.75
			C15.918,16.5,15.751,16.333,15.751,16.126L15.751,16.126z"/>
	</g>
</g>
</svg>
