<?xml version="1.0" encoding="utf-8"?>
<!-- Generator: Adobe Illustrator 29.6.1, SVG Export Plug-In . SVG Version: 9.03 Build 0)  -->
<svg version="1.0" xmlns="http://www.w3.org/2000/svg" xmlns:xlink="http://www.w3.org/1999/xlink" x="0px" y="0px"
	 viewBox="0 0 24 24" enable-background="new 0 0 24 24" xml:space="preserve">
<g id="SVG_x5F_24x24pt">
	<path id="backgroundBlue" fill="#2D327D" d="M0,22.5v-21C0,0.675,0.675,0,1.5,0h21C23.325,0,24,0.675,24,1.5v21
		c0,0.825-0.675,1.5-1.5,1.5h-21C0.675,24,0,23.325,0,22.5z"/>
	<g id="content">
		<polygon fill="#FFFFFF" points="15.74,5.114 15.74,5.798 2.99,3.685 2.99,3 		"/>
		<path fill="#FFFFFF" d="M19.74,11.626c-0.133-0.233-0.382-0.376-0.65-0.376h-5.911c-0.268,0-0.516,0.142-0.649,0.375
			c-0.422,0.735-1.276,2.473-1.276,4.5s0.854,3.765,1.276,4.5C12.663,20.858,12.911,21,13.179,21h5.911
			c0.268,0,0.517-0.143,0.65-0.376c0.42-0.736,1.269-2.473,1.269-4.499S20.161,12.362,19.74,11.626z M19.713,17.991h-7.186
			c-0.179,0-0.332-0.127-0.368-0.302c-0.1-0.484-0.156-1.015-0.156-1.572c0-1.836,0.744-3.392,1.031-3.926
			c0.066-0.122,0.192-0.197,0.33-0.197h5.484c0.137,0,0.262,0.074,0.328,0.194c0.294,0.53,1.061,2.089,1.061,3.929
			c0,0.557-0.056,1.088-0.156,1.572C20.045,17.864,19.892,17.991,19.713,17.991z"/>
		<path fill="#FFFFFF" d="M13.851,10.857h1.701c0.724,0,1.312-0.589,1.312-1.312V4.503h-0.75v5.042c0,0.31-0.252,0.562-0.562,0.562
			h-1.701V10.857z"/>
		<polygon fill="#FFFFFF" points="17.24,6.077 20.99,6.684 20.99,6 17.24,5.393 		"/>
	</g>
</g>
</svg>
