<svg xmlns="http://www.w3.org/2000/svg" width="36" height="36" fill="none" viewBox="0 0 36 36"><path fill="#000" fill-rule="evenodd" d="M5.75 6.75c0-.523.477-1 1-1s1 .477 1 1-.477 1-1 1-1-.477-1-1m1-2c-1.076 0-2 .924-2 2s.924 2 2 2 2-.924 2-2-.924-2-2-2m-3 6.006h-.5v11.5H4.5V31.5h1v-9.244h2V31.5h1v-9.244h1.75v-11.5h-6.5m.5 10.5v-9.5h5v9.5zm10.75 1V31.5h1v-9.244h2V31.5h1v-9.244h1.75v-11.5h-7v11.5H15m10.75 3V31.5h1v-6.244h2V31.5h1v-6.244h3.059l-.062-.555-1.5-13.5-.05-.445h-6.895l-.049.445-1.5 13.5-.062.555h3.059M17.25 5.75c-.523 0-1 .477-1 1s.477 1 1 1 1-.477 1-1-.477-1-1-1m-2 1c0-1.076.924-2 2-2s2 .924 2 2-.924 2-2 2-2-.924-2-2m-.5 14.506v-9.5h5v9.5zm13-15.506c-.523 0-1 .477-1 1s.477 1 1 1 1-.477 1-1-.477-1-1-1m-2 1c0-1.076.924-2 2-2s2 .924 2 2-.924 2-2 2-2-.924-2-2m-1.941 17.506 1.389-12.5h5.104l1.39 12.5z" clip-rule="evenodd"/></svg>