<?xml version="1.0" encoding="utf-8"?>
<!-- Generator: Adobe Illustrator 24.2.0, SVG Export Plug-In . SVG Version: 6.00 Build 0)  -->
<svg version="1.0" id="Ebene_1" xmlns="http://www.w3.org/2000/svg" xmlns:xlink="http://www.w3.org/1999/xlink" x="0px" y="0px"
	 viewBox="0 0 24 24" enable-background="new 0 0 24 24" xml:space="preserve">
<g id="SVG_x5F_24x24pt">
	<path id="backgroundBlue" fill="#2D327D" d="M0,22.5v-21C0,0.675,0.675,0,1.5,0h21C23.325,0,24,0.675,24,1.5v21
		c0,0.825-0.675,1.5-1.5,1.5h-21C0.675,24,0,23.325,0,22.5z"/>
	<g id="content">
		<polygon fill="#FFFFFF" points="21,21.001 6.75,21.001 6.75,20.401 21,18.076 21,21.001 		"/>
		<path fill="#FFFFFF" d="M3.515,11.604c-0.279,0-0.506-0.227-0.506-0.506c0-0.203,0.121-0.386,0.308-0.466l0.958-0.407v1.1
			l-0.562,0.238C3.651,11.591,3.583,11.604,3.515,11.604L3.515,11.604z"/>
		<path fill="#FFFFFF" d="M4.875,13.051V7.467c0-0.828,0.672-1.5,1.5-1.5c0.488,0,0.945,0.238,1.227,0.637l1.561,2.219
			C9.252,8.949,9.3,9.1,9.3,9.255v2.989c0,0.28-0.227,0.506-0.506,0.506c-0.28,0-0.506-0.227-0.506-0.506V9.468L7.575,8.456V16.2
			l1.323,2.259c0.065,0.11,0.098,0.234,0.098,0.36c0,0.393-0.319,0.713-0.712,0.713c-0.253,0-0.487-0.135-0.615-0.352l-1.491-2.546
			c-0.067-0.114-0.103-0.246-0.103-0.379v-2.284l-1.65,2.839V20.1c0,0.393-0.319,0.712-0.712,0.712C3.319,20.813,3,20.494,3,20.1
			v-3.62c0-0.132,0.035-0.262,0.101-0.377L4.875,13.051L4.875,13.051z"/>
		<path fill="#FFFFFF" d="M6.161,5.606c-0.724,0-1.312-0.588-1.312-1.313c0-0.725,0.588-1.312,1.312-1.312
			c0.725,0,1.312,0.588,1.312,1.312C7.474,5.018,6.886,5.606,6.161,5.606L6.161,5.606z"/>
	</g>
</g>
</svg>
