<?xml version="1.0" encoding="utf-8"?>
<!-- Generator: Adobe Illustrator 29.0.0, SVG Export Plug-In . SVG Version: 9.03 Build 54978)  -->
<svg version="1.0" id="Ebene_1" xmlns="http://www.w3.org/2000/svg" xmlns:xlink="http://www.w3.org/1999/xlink" x="0px" y="0px"
	 viewBox="0 0 24 24" enable-background="new 0 0 24 24" xml:space="preserve">
<g id="SVG_x5F_24x24pt">
	<path id="backgroundBlue" fill="#2D327D" d="M0,22.5v-21C0,0.675,0.675,0,1.5,0h21C23.325,0,24,0.675,24,1.5v21
		c0,0.825-0.675,1.5-1.5,1.5h-21C0.675,24,0,23.325,0,22.5z"/>
	<g id="content">
		<g>
			<path fill="#FFFFFF" d="M5.129,14.965c-0.523-0.179-0.924-0.474-1.204-0.884c-0.279-0.41-0.419-0.907-0.419-1.492
				c0-0.974,0.4-1.751,1.2-2.33c0.708-0.513,1.548-0.769,2.522-0.769c1.107,0,2.012,0.305,2.715,0.915c0.666,0.574,1,1.284,1,2.13
				c0,0.59-0.141,1.095-0.423,1.515c-0.282,0.42-0.682,0.726-1.2,0.915c0.405,0.118,0.736,0.269,0.992,0.454
				c0.713,0.518,1.069,1.274,1.069,2.269c0,1.143-0.438,2.053-1.315,2.73c-0.738,0.569-1.687,0.854-2.845,0.854
				c-1.256,0-2.256-0.313-2.999-0.938c-0.774-0.651-1.161-1.505-1.161-2.561c0-0.989,0.343-1.756,1.031-2.299
				C4.403,15.232,4.749,15.062,5.129,14.965z M7.182,15.811c-0.554,0-1.006,0.171-1.357,0.511c-0.351,0.341-0.527,0.778-0.527,1.311
				c0,0.549,0.178,0.995,0.534,1.338c0.356,0.344,0.819,0.515,1.388,0.515c0.646,0,1.13-0.19,1.453-0.569
				c0.313-0.364,0.469-0.784,0.469-1.261c0-0.543-0.18-0.989-0.538-1.338C8.261,15.98,7.787,15.811,7.182,15.811z M7.197,11.235
				c-0.492,0-0.89,0.137-1.192,0.411c-0.303,0.274-0.454,0.634-0.454,1.081c0,0.467,0.152,0.84,0.458,1.119
				c0.305,0.279,0.714,0.419,1.227,0.419c0.513,0,0.918-0.138,1.215-0.415c0.297-0.277,0.446-0.654,0.446-1.13
				c0-0.466-0.15-0.831-0.45-1.092S7.731,11.235,7.197,11.235z"/>
			<path fill="#FFFFFF" d="M12.914,18.179h2.123c0.174,0.872,0.679,1.307,1.515,1.307c0.472,0,0.855-0.16,1.15-0.481
				c0.295-0.32,0.522-0.819,0.681-1.496c0.102-0.431,0.177-0.92,0.223-1.469c-0.344,0.482-0.696,0.824-1.057,1.027
				c-0.361,0.203-0.801,0.304-1.319,0.304c-0.826,0-1.543-0.241-2.153-0.723c-0.426-0.338-0.758-0.777-0.996-1.315
				c-0.238-0.538-0.358-1.123-0.358-1.753c0-1.266,0.433-2.292,1.3-3.076c0.743-0.677,1.635-1.015,2.676-1.015
				c0.641,0,1.233,0.144,1.776,0.431c0.543,0.287,1,0.695,1.369,1.223c0.651,0.938,0.977,2.256,0.977,3.953
				c0,1.569-0.287,2.907-0.861,4.014c-0.749,1.441-1.882,2.161-3.399,2.161c-1.01,0-1.845-0.279-2.503-0.838
				C13.398,19.874,13.017,19.123,12.914,18.179z M16.652,11.389c-0.482,0-0.89,0.197-1.223,0.592c-0.333,0.4-0.5,0.907-0.5,1.523
				c0,0.497,0.12,0.938,0.361,1.323c0.328,0.528,0.789,0.792,1.384,0.792c0.538,0,0.969-0.215,1.292-0.646
				c0.302-0.405,0.454-0.887,0.454-1.446c0-0.59-0.156-1.089-0.469-1.5C17.623,11.602,17.19,11.389,16.652,11.389z"/>
		</g>
		<g>
			<path fill="#FFFFFF" d="M3.214,3h0.907c0.153,0,0.273,0.009,0.361,0.028C4.57,3.047,4.649,3.081,4.72,3.129
				C4.915,3.26,5.013,3.458,5.013,3.723c0,0.235-0.081,0.419-0.243,0.554C4.702,4.334,4.623,4.375,4.535,4.4
				C4.447,4.426,4.338,4.438,4.209,4.438H3.704v0.811H3.214V3z M3.704,3.415v0.637h0.438c0.13,0,0.224-0.023,0.281-0.069
				C4.495,3.925,4.53,3.841,4.53,3.729c0-0.113-0.041-0.197-0.123-0.252C4.348,3.436,4.251,3.415,4.117,3.415H3.704z"/>
			<path fill="#FFFFFF" d="M5.712,3v2.249H5.266V3H5.712z"/>
			<path fill="#FFFFFF" d="M7.587,5.249H7.131C7.112,5.183,7.102,5.127,7.102,5.081c-0.139,0.143-0.319,0.214-0.54,0.214
				c-0.172,0-0.307-0.04-0.403-0.12C6.048,5.083,5.993,4.954,5.993,4.789c0-0.21,0.095-0.356,0.285-0.437
				c0.077-0.033,0.218-0.063,0.425-0.091C6.88,4.238,6.99,4.215,7.034,4.193C7.077,4.171,7.099,4.126,7.099,4.06
				c0-0.147-0.097-0.22-0.292-0.22c-0.104,0-0.179,0.018-0.227,0.055C6.532,3.932,6.501,3.996,6.485,4.087H6.064
				C6.077,3.901,6.147,3.76,6.275,3.665C6.402,3.57,6.583,3.523,6.818,3.523c0.259,0,0.451,0.053,0.575,0.158
				C7.45,3.731,7.488,3.783,7.507,3.84c0.019,0.056,0.028,0.146,0.028,0.268c0,0.026-0.002,0.138-0.005,0.338
				C7.529,4.648,7.528,4.764,7.528,4.793c0,0.122,0.004,0.211,0.011,0.268C7.546,5.119,7.562,5.181,7.587,5.249z M7.096,4.438
				C7.039,4.474,6.934,4.502,6.782,4.523C6.676,4.539,6.599,4.56,6.551,4.586c-0.067,0.036-0.1,0.097-0.1,0.183
				c0,0.07,0.022,0.124,0.066,0.163C6.562,4.971,6.623,4.99,6.702,4.99c0.131,0,0.237-0.046,0.318-0.138
				C7.049,4.82,7.069,4.787,7.08,4.753c0.011-0.034,0.016-0.08,0.016-0.136V4.438z"/>
			<path fill="#FFFFFF" d="M8.785,3.566v0.315H8.451V4.67c0,0.094,0.009,0.154,0.026,0.18C8.503,4.887,8.56,4.906,8.649,4.906
				c0.035,0,0.08-0.003,0.135-0.008v0.357c-0.1,0.011-0.193,0.017-0.277,0.017c-0.127,0-0.224-0.014-0.291-0.043
				c-0.104-0.046-0.168-0.13-0.194-0.252c-0.011-0.052-0.017-0.16-0.017-0.325V3.881H7.734V3.566h0.272V3.172h0.445v0.394H8.785z"/>
			<path fill="#FFFFFF" d="M9.878,3.002v0.343C9.823,3.339,9.772,3.337,9.725,3.337c-0.078,0-0.13,0.011-0.157,0.034
				c-0.027,0.023-0.04,0.067-0.04,0.134v0.065h0.325v0.317h-0.32v1.363H9.088V3.886H8.822V3.569h0.266
				c0-0.119,0.007-0.205,0.022-0.258c0.056-0.213,0.235-0.32,0.535-0.32C9.693,2.991,9.771,2.994,9.878,3.002z"/>
			<path fill="#FFFFFF" d="M10.83,3.523c0.244,0,0.443,0.081,0.598,0.243c0.153,0.16,0.229,0.373,0.229,0.64
				c0,0.276-0.082,0.496-0.245,0.66c-0.153,0.153-0.352,0.229-0.597,0.229c-0.261,0-0.47-0.085-0.624-0.255
				c-0.148-0.162-0.221-0.372-0.221-0.631c0-0.254,0.072-0.461,0.215-0.62C10.345,3.612,10.56,3.523,10.83,3.523z M10.807,3.871
				c-0.118,0-0.212,0.048-0.281,0.143C10.455,4.11,10.42,4.242,10.42,4.409c0,0.173,0.035,0.306,0.105,0.398
				c0.072,0.093,0.17,0.14,0.294,0.14c0.116,0,0.208-0.043,0.275-0.128c0.077-0.094,0.115-0.231,0.115-0.411
				c0-0.168-0.034-0.299-0.102-0.392C11.036,3.919,10.937,3.871,10.807,3.871z"/>
			<path fill="#FFFFFF" d="M12.996,3.541v0.432c-0.072-0.013-0.13-0.02-0.174-0.02c-0.166,0-0.288,0.07-0.366,0.209
				c-0.044,0.078-0.066,0.208-0.066,0.391v0.695h-0.446v-1.68h0.425v0.306c0.121-0.228,0.297-0.341,0.528-0.341
				C12.925,3.534,12.958,3.536,12.996,3.541z"/>
			<path fill="#FFFFFF" d="M13.633,3.574v0.223c0.056-0.077,0.112-0.134,0.168-0.171c0.099-0.069,0.216-0.103,0.351-0.103
				c0.217,0,0.37,0.092,0.457,0.277c0.131-0.185,0.31-0.277,0.535-0.277c0.174,0,0.31,0.052,0.406,0.156s0.145,0.251,0.145,0.441
				v1.129h-0.446V4.25c0-0.108-0.012-0.183-0.035-0.226c-0.042-0.079-0.118-0.118-0.228-0.118c-0.133,0-0.226,0.056-0.278,0.169
				c-0.024,0.05-0.035,0.14-0.035,0.269v0.904h-0.445V4.232c0-0.099-0.012-0.171-0.035-0.215c-0.038-0.074-0.109-0.111-0.212-0.111
				c-0.064,0-0.121,0.016-0.171,0.048c-0.051,0.032-0.089,0.075-0.115,0.131s-0.038,0.142-0.038,0.26v0.904h-0.446V3.574H13.633z"/>
		</g>
	</g>
</g>
</svg>
