<svg xmlns="http://www.w3.org/2000/svg" width="24" height="24" fill="none" viewBox="0 0 24 24"><path fill="#000" fill-rule="evenodd" d="M21.003 6H3V5h18.002zm0 13H3v-1h18.002zM4.735 11.741V9.475h1.467q.718 0 1.035.22.438.294.438.897-.001.596-.377.903-.308.246-1.003.246zm1.483-3.744H2.99v8.001h1.745v-2.883H6.53q.69 0 1.161-.134t.837-.44q.865-.719.865-1.97 0-1.414-1.046-2.114a2.4 2.4 0 0 0-.844-.358q-.468-.102-1.285-.102m3.195 4.108h1.542v-1.543h.884v1.543h1.548v.883h-1.548v1.542h-.884v-1.542H9.413zm6.354-.533v-2.2h1.74q.765 0 1.121.263.357.262.357.83-.001.588-.416.877-.33.23-1.133.23zm2.128-3.574h-3.874v8h1.745v-3.146h1.57q.839 0 1.186.326.348.325.414 1.173.065.953.105 1.215.043.264.134.433h1.822l-.075-.093q-.158-.203-.236-1.034-.103-1.134-.17-1.45a1.7 1.7 0 0 0-.256-.608 1.35 1.35 0 0 0-.833-.591q.602-.224.94-.744.335-.52.336-1.221 0-.618-.268-1.111a2 2 0 0 0-.777-.788q-.614-.36-1.763-.361" clip-rule="evenodd"/></svg>