<svg xmlns="http://www.w3.org/2000/svg" width="36" height="36" fill="none" viewBox="0 0 36 36"><path fill="#000" fill-rule="evenodd" d="m17.25 5.25.317-.387-.317-.26-.317.26zm11.67 6.335.048-.498h-.005l-.01-.001-.038-.004-.142-.01a16.886 16.886 0 0 0-2.293.031c-1.253.104-2.844.377-4.35 1.046-.35-1.983-1.401-3.721-2.384-4.984A17 17 0 0 0 17.76 5.03l-.14-.122-.037-.032-.011-.009-.003-.002-.001-.001-.318.386-.317-.386h-.002l-.003.003-.01.01-.039.031-.139.122a16.983 16.983 0 0 0-1.986 2.135c-.983 1.263-2.035 3-2.384 4.984-1.506-.67-3.097-.942-4.35-1.045a17 17 0 0 0-2.293-.032l-.141.01-.039.004h-.015v.001l.049.498-.05-.498-.408.04-.04.409.498.049-.498-.049v.006l-.002.015a5 5 0 0 0-.018.255 16.927 16.927 0 0 0 .14 3.142c.256 1.82.9 4.09 2.477 5.793-.744.407-1.372.873-1.84 1.265a12 12 0 0 0-.892.828l-.05.054-.014.016-.004.004-.002.001v.001l.372.334-.372-.334-.3.334.3.333.372-.333-.372.334.003.003.008.009.026.029.099.103a12.187 12.187 0 0 0 1.71 1.434c1.123.776 2.724 1.588 4.526 1.588s3.403-.812 4.527-1.589c.375-.259.703-.518.973-.748V31.5h1v-7.087c.27.23.598.49.973.748 1.124.776 2.725 1.589 4.527 1.589s3.403-.812 4.527-1.589a12 12 0 0 0 1.71-1.433l.098-.104.026-.028.008-.009.002-.002.001-.001-.372-.334.372.333.3-.333-.3-.334-.372.334.372-.334-.002-.002-.004-.005-.014-.015-.02-.021a6 6 0 0 0-.22-.225 12 12 0 0 0-.701-.636 11.5 11.5 0 0 0-1.84-1.265c1.577-1.703 2.22-3.972 2.476-5.793a17 17 0 0 0 .14-3.142l-.015-.224-.003-.03-.002-.016v-.006zm0 0 .048-.498.409.04.04.409zm-.687.465.214.007q.01.203.011.486c.003.575-.025 1.375-.151 2.272-.255 1.807-.894 3.933-2.393 5.432q-.135.135-.276.26l-.576.512.702.318c.919.415 1.7.978 2.255 1.442.213.178.39.34.528.47l-.108.103c-.29.269-.711.628-1.23.986-1.048.724-2.448 1.412-3.959 1.412s-2.91-.688-3.959-1.412a11 11 0 0 1-1.561-1.308l-.083-.087-.02-.022-.004-.004v-.001l-.373-.416-.372.416-.005.005-.02.022-.083.087a11.19 11.19 0 0 1-1.561 1.309c-1.048.723-2.448 1.41-3.959 1.41s-2.91-.687-3.958-1.41a11 11 0 0 1-1.34-1.09c.139-.13.316-.292.529-.47.555-.464 1.336-1.027 2.255-1.442l.702-.318-.576-.512a7 7 0 0 1-.276-.26c-1.499-1.5-2.139-3.625-2.392-5.432a16 16 0 0 1-.141-2.758l.214-.007c.41-.01.991-.006 1.67.05 1.364.113 3.087.433 4.603 1.244l.67.358.064-.757c.17-2 1.222-3.82 2.27-5.166a16 16 0 0 1 1.706-1.862q.13.12.298.284c.38.372.889.91 1.409 1.578 1.047 1.346 2.1 3.167 2.27 5.166l.064.757.67-.358c1.515-.811 3.238-1.131 4.602-1.244.679-.056 1.26-.06 1.67-.05" clip-rule="evenodd"/></svg>