<?xml version="1.0" encoding="utf-8"?>
<!-- Generator: Adobe Illustrator 24.3.0, SVG Export Plug-In . SVG Version: 6.00 Build 0)  -->
<svg version="1.0" xmlns="http://www.w3.org/2000/svg" xmlns:xlink="http://www.w3.org/1999/xlink" x="0px" y="0px"
	 viewBox="0 0 24 24" enable-background="new 0 0 24 24" xml:space="preserve">
<g id="SVG_x5F_24x24pt">
	<path id="backgroundBlue" fill="#2D327D" d="M0,22.5v-21C0,0.675,0.675,0,1.5,0h21C23.325,0,24,0.675,24,1.5v21
		c0,0.825-0.675,1.5-1.5,1.5h-21C0.675,24,0,23.325,0,22.5z"/>
	<g id="content">
		<path fill="#FFFFFF" d="M15.075,11.175c-1.284,0-2.325,1.041-2.325,2.325c0,0.571,0.206,1.095,0.549,1.5
			c0.426,0.505,1.063,0.825,1.776,0.825c0.713,0,1.35-0.32,1.776-0.825c0.343-0.405,0.549-0.929,0.549-1.5
			C17.4,12.216,16.359,11.175,15.075,11.175z M15.075,14.7c-0.663,0-1.2-0.537-1.2-1.2c0-0.663,0.537-1.2,1.2-1.2s1.2,0.537,1.2,1.2
			C16.275,14.163,15.738,14.7,15.075,14.7z"/>
		<rect x="3.001" y="12.6" fill="#FFFFFF" width="8.625" height="1.5"/>
		<path fill="#FFFFFF" d="M20.954,7.825L20.278,5.35c-0.158-0.589-0.693-1-1.304-1h-6.223l-0.003,6.917
			c0.587-0.611,1.412-0.992,2.327-0.992c1.778,0,3.219,1.438,3.225,3.214V13.5v0.225c0,0.207,0.168,0.375,0.375,0.375h1.95
			c0.207,0,0.375-0.168,0.375-0.375l0.001-0.225V8.175C21.001,8.057,20.985,7.939,20.954,7.825z M19.05,5.025
			c0.271,0,0.506,0.182,0.577,0.445l0.536,2.008c0.008,0.032,0.013,0.064,0.013,0.097c0,0.207-0.168,0.375-0.375,0.375h-4.8
			c-0.207,0-0.375-0.168-0.375-0.375V5.4c0-0.207,0.168-0.375,0.375-0.375H19.05z"/>
		<polygon fill="#FFFFFF" points="3,16.2 21,16.2 21,17.325 3,17.325 3,16.2 		"/>
		<polygon fill="#FFFFFF" points="3,20.325 21,20.325 21,21 3,21 3,20.325 		"/>
		<path fill="#FFFFFF" d="M19.502,18.787c0-0.6-0.487-1.086-1.088-1.086c-0.6,0-1.087,0.487-1.087,1.086
			c0,0.601,0.487,1.088,1.087,1.088C19.015,19.875,19.502,19.388,19.502,18.787L19.502,18.787z"/>
		<path fill="#FFFFFF" d="M16.578,18.787c0-0.6-0.488-1.086-1.088-1.086c-0.6,0-1.088,0.487-1.088,1.086
			c0,0.601,0.488,1.088,1.088,1.088C16.09,19.875,16.578,19.388,16.578,18.787L16.578,18.787z"/>
		<path fill="#FFFFFF" d="M9.602,18.787c0-0.6-0.487-1.086-1.088-1.086c-0.6,0-1.087,0.487-1.087,1.086
			c0,0.601,0.487,1.088,1.087,1.088C9.115,19.875,9.602,19.388,9.602,18.787L9.602,18.787z"/>
		<path fill="#FFFFFF" d="M6.678,18.787c0-0.6-0.488-1.086-1.088-1.086c-0.6,0-1.088,0.487-1.088,1.086
			c0,0.601,0.488,1.088,1.088,1.088C6.19,19.875,6.678,19.388,6.678,18.787L6.678,18.787z"/>
		<path fill="#FFFFFF" d="M3,11.846l8.625,0.004c0,0,0-5.85,0-8.475C11.625,3.168,11.457,3,11.25,3H3l0,2.025h5.7
			c0.207,0,0.375,0.168,0.375,0.375S8.907,5.775,8.7,5.775H3v0.75h5.7c0.207,0,0.375,0.168,0.375,0.375S8.907,7.275,8.7,7.275H3
			L3,11.846z"/>
	</g>
</g>
</svg>
