<?xml version="1.0" encoding="utf-8"?>
<!-- Generator: Adobe Illustrator 24.2.0, SVG Export Plug-In . SVG Version: 6.00 Build 0)  -->
<svg version="1.0" id="Ebene_1" xmlns="http://www.w3.org/2000/svg" xmlns:xlink="http://www.w3.org/1999/xlink" x="0px" y="0px"
	 viewBox="0 0 24 24" enable-background="new 0 0 24 24" xml:space="preserve">
<g id="SVG_x5F_24x24pt">
	<path id="backgroundBlue" fill="#2D327D" d="M0,22.5v-21C0,0.675,0.675,0,1.5,0h21C23.325,0,24,0.675,24,1.5v21
		c0,0.825-0.675,1.5-1.5,1.5h-21C0.675,24,0,23.325,0,22.5z"/>
	<g id="content">
		<path fill="#FFFFFF" d="M20.655,16.714l-4.387-0.364l-2.614-2.614c-0.211-0.211-0.497-0.33-0.795-0.33H6.376
			c-0.298,0-0.584,0.119-0.795,0.33l-2.251,2.25C3.12,16.197,3,16.484,3,16.781v2.644C3,19.632,3.169,19.8,3.376,19.8h0.374v-0.431
			c0-1.242,1.009-2.251,2.25-2.251c1.242,0,2.25,1.008,2.25,2.251V19.8h7.462v-0.431c0-1.242,1.008-2.251,2.25-2.251
			c1.242,0,2.249,1.008,2.249,2.251V19.8h0.412c0.208,0,0.376-0.168,0.376-0.375v-2.338C21,16.892,20.85,16.73,20.655,16.714
			L20.655,16.714z M9.373,16.032c0,0.207-0.168,0.374-0.375,0.374H4.514c-0.125,0-0.225-0.1-0.225-0.225
			c0-0.059,0.024-0.117,0.065-0.159l1.794-1.794c0.071-0.07,0.166-0.11,0.266-0.11h2.584c0.207,0,0.375,0.169,0.375,0.376V16.032
			L9.373,16.032z M14.721,16.406h-4.259c-0.207,0-0.374-0.167-0.374-0.373l-0.003-1.537c0-0.001,0-0.001,0-0.001
			c0-0.207,0.168-0.376,0.375-0.376h2.361c0.1,0,0.195,0.04,0.266,0.11l1.794,1.794c0.041,0.042,0.066,0.099,0.066,0.159
			C14.947,16.306,14.846,16.406,14.721,16.406L14.721,16.406z"/>
		<path fill-rule="evenodd" clip-rule="evenodd" fill="#FFFFFF" d="M6.005,20.222c-0.517,0-0.937-0.42-0.937-0.938
			c0-0.518,0.42-0.938,0.937-0.938c0.518,0,0.937,0.42,0.937,0.938C6.942,19.802,6.522,20.222,6.005,20.222L6.005,20.222z
			 M6.005,17.578c-0.942,0-1.707,0.764-1.707,1.706c0,0.942,0.765,1.707,1.707,1.707c0.941,0,1.707-0.765,1.707-1.707
			C7.711,18.342,6.946,17.578,6.005,17.578L6.005,17.578z"/>
		<path fill-rule="evenodd" clip-rule="evenodd" fill="#FFFFFF" d="M17.966,20.222c-0.518,0-0.938-0.42-0.938-0.938
			c0-0.518,0.42-0.938,0.938-0.938c0.518,0,0.936,0.42,0.936,0.938C18.902,19.802,18.483,20.222,17.966,20.222L17.966,20.222z
			 M17.965,17.578c-0.942,0-1.707,0.764-1.707,1.706c0,0.942,0.765,1.707,1.707,1.707c0.942,0,1.707-0.765,1.707-1.707
			C19.671,18.342,18.907,17.578,17.965,17.578L17.965,17.578z"/>
		<g>
			<path fill="#FFFFFF" d="M5.013,3L4.266,5.249H3.708L2.971,3h0.514l0.506,1.684L4.504,3H5.013z"/>
			<path fill="#FFFFFF" d="M6.576,4.726C6.552,4.82,6.51,4.909,6.448,4.992c-0.148,0.202-0.36,0.303-0.637,0.303
				c-0.25,0-0.451-0.079-0.601-0.237C5.136,4.981,5.08,4.888,5.041,4.78C4.999,4.664,4.978,4.543,4.978,4.417
				c0-0.244,0.07-0.449,0.211-0.615c0.157-0.186,0.36-0.278,0.609-0.278c0.201,0,0.372,0.062,0.514,0.186
				c0.102,0.089,0.175,0.199,0.221,0.33C6.579,4.17,6.602,4.334,6.602,4.532h-1.17c0.004,0.082,0.017,0.15,0.038,0.205
				c0.061,0.147,0.175,0.22,0.345,0.22c0.083,0,0.151-0.018,0.203-0.055C6.07,4.865,6.113,4.807,6.147,4.726H6.576z M6.147,4.232
				C6.139,4.151,6.12,4.084,6.092,4.031C6.063,3.978,6.022,3.937,5.969,3.906C5.916,3.875,5.859,3.86,5.796,3.86
				c-0.099,0-0.181,0.033-0.246,0.1C5.486,4.026,5.447,4.117,5.435,4.232H6.147z"/>
			<path fill="#FFFFFF" d="M7.916,3.541v0.432c-0.072-0.013-0.13-0.02-0.174-0.02c-0.166,0-0.288,0.07-0.366,0.209
				C7.332,4.241,7.31,4.371,7.31,4.553v0.695H6.864v-1.68h0.425v0.306c0.121-0.228,0.297-0.341,0.528-0.341
				C7.844,3.534,7.878,3.536,7.916,3.541z"/>
			<path fill="#FFFFFF" d="M8.552,3.574v0.223C8.609,3.72,8.665,3.663,8.72,3.626C8.82,3.557,8.936,3.523,9.071,3.523
				c0.217,0,0.37,0.092,0.457,0.277c0.131-0.185,0.31-0.277,0.535-0.277c0.174,0,0.31,0.052,0.406,0.156
				c0.096,0.104,0.145,0.251,0.145,0.441v1.129h-0.446V4.25c0-0.108-0.012-0.183-0.035-0.226c-0.042-0.079-0.118-0.118-0.228-0.118
				c-0.133,0-0.226,0.056-0.278,0.169c-0.024,0.05-0.035,0.14-0.035,0.269v0.904H9.146V4.232c0-0.099-0.012-0.171-0.035-0.215
				C9.073,3.943,9.002,3.906,8.899,3.906c-0.064,0-0.121,0.016-0.172,0.048C8.676,3.985,8.638,4.029,8.612,4.084
				C8.587,4.14,8.574,4.226,8.574,4.344v0.904H8.128V3.574H8.552z"/>
			<path fill="#FFFFFF" d="M11.426,3v0.401H10.98V3H11.426z M11.426,3.572v1.677H10.98V3.572H11.426z"/>
			<path fill="#FFFFFF" d="M13.297,4.726c-0.024,0.094-0.066,0.183-0.128,0.266c-0.148,0.202-0.36,0.303-0.637,0.303
				c-0.25,0-0.451-0.079-0.601-0.237c-0.074-0.077-0.13-0.17-0.169-0.278c-0.042-0.116-0.063-0.237-0.063-0.363
				c0-0.244,0.07-0.449,0.211-0.615c0.157-0.186,0.36-0.278,0.609-0.278c0.201,0,0.372,0.062,0.514,0.186
				c0.102,0.089,0.175,0.199,0.221,0.33c0.046,0.131,0.069,0.295,0.069,0.493h-1.17c0.004,0.082,0.017,0.15,0.038,0.205
				c0.06,0.147,0.175,0.22,0.345,0.22c0.083,0,0.151-0.018,0.203-0.055c0.052-0.036,0.095-0.095,0.129-0.176H13.297z M12.868,4.232
				c-0.008-0.081-0.027-0.148-0.055-0.201c-0.029-0.052-0.069-0.094-0.122-0.125c-0.053-0.031-0.11-0.046-0.173-0.046
				c-0.099,0-0.181,0.033-0.246,0.1c-0.065,0.067-0.103,0.157-0.115,0.272H12.868z"/>
			<path fill="#FFFFFF" d="M14.465,3.566v0.315h-0.334V4.67c0,0.094,0.009,0.154,0.026,0.18c0.026,0.037,0.083,0.055,0.172,0.055
				c0.035,0,0.08-0.003,0.135-0.008v0.357c-0.1,0.011-0.193,0.017-0.277,0.017c-0.127,0-0.224-0.014-0.291-0.043
				c-0.104-0.046-0.168-0.13-0.194-0.252c-0.011-0.052-0.017-0.16-0.017-0.325V3.881h-0.272V3.566h0.272V3.172h0.445v0.394H14.465z"
				/>
			<path fill="#FFFFFF" d="M16.215,3.569v1.68h-0.425V5.004c-0.128,0.194-0.308,0.291-0.538,0.291c-0.201,0-0.353-0.067-0.455-0.201
				c-0.039-0.052-0.067-0.114-0.084-0.185c-0.017-0.071-0.025-0.163-0.025-0.277V3.569h0.446v0.924c0,0.096,0.003,0.165,0.008,0.205
				c0.006,0.04,0.017,0.074,0.035,0.102c0.047,0.075,0.128,0.112,0.241,0.112c0.14,0,0.243-0.062,0.306-0.186
				c0.031-0.061,0.046-0.17,0.046-0.328V3.569H16.215z"/>
			<path fill="#FFFFFF" d="M16.981,3.574v0.235c0.052-0.072,0.101-0.125,0.146-0.158c0.111-0.086,0.244-0.129,0.4-0.129
				c0.137,0,0.254,0.035,0.349,0.105c0.076,0.055,0.129,0.125,0.159,0.21c0.03,0.085,0.045,0.204,0.045,0.358v1.055h-0.445V4.287
				c0-0.108-0.009-0.187-0.028-0.237c-0.017-0.044-0.047-0.079-0.089-0.105c-0.048-0.028-0.103-0.042-0.165-0.042
				c-0.068,0-0.129,0.016-0.185,0.049c-0.055,0.033-0.096,0.077-0.123,0.134c-0.03,0.064-0.045,0.163-0.045,0.297v0.864h-0.446
				V3.574H16.981z"/>
			<path fill="#FFFFFF" d="M19.997,3.569v1.48c0,0.131-0.008,0.236-0.025,0.315c-0.016,0.078-0.045,0.15-0.085,0.215
				c-0.129,0.205-0.361,0.308-0.695,0.308c-0.466,0-0.72-0.176-0.764-0.528h0.449c0.031,0.14,0.139,0.211,0.325,0.211
				c0.142,0,0.24-0.04,0.297-0.12c0.044-0.064,0.066-0.166,0.066-0.308l0.002-0.208c-0.115,0.176-0.281,0.265-0.498,0.265
				c-0.21,0-0.378-0.074-0.503-0.221c-0.127-0.15-0.191-0.352-0.191-0.606c0-0.254,0.064-0.458,0.191-0.612
				c0.132-0.159,0.306-0.238,0.521-0.238c0.112,0,0.205,0.021,0.28,0.063c0.075,0.042,0.144,0.112,0.206,0.211V3.569H19.997z
				 M19.187,3.886c-0.125,0-0.22,0.052-0.285,0.157c-0.052,0.084-0.078,0.191-0.078,0.32c0,0.164,0.038,0.289,0.114,0.374
				c0.066,0.076,0.151,0.114,0.257,0.114c0.133,0,0.233-0.056,0.3-0.168c0.051-0.086,0.077-0.195,0.077-0.326
				c0-0.158-0.039-0.28-0.118-0.366C19.388,3.921,19.3,3.886,19.187,3.886z"/>
		</g>
	</g>
</g>
</svg>
