<svg xmlns="http://www.w3.org/2000/svg" width="36" height="36" fill="none" viewBox="0 0 36 36"><path fill="#000" fill-rule="evenodd" d="M19.25 4.5v3.261c1.645.073 3.193.501 4.568 1.21l1.624-2.812.866.5-1.623 2.811c1.345.858 2.487 2 3.345 3.345l2.81-1.623.5.866-2.811 1.624a11 11 0 0 1 1.21 4.568H33v1h-3.26a11 11 0 0 1-1.21 4.568l2.812 1.624-.5.866-2.811-1.623c-.858 1.344-2 2.487-3.345 3.345l1.623 2.81-.866.5-1.623-2.811a11 11 0 0 1-4.569 1.21V33h-1v-3.26a11 11 0 0 1-4.568-1.21l-1.623 2.811-.866-.5 1.622-2.81c-1.344-.858-2.487-2-3.345-3.345l-2.81 1.623-.5-.866 2.812-1.624a11 11 0 0 1-1.21-4.568H4.5v-1h3.261c.073-1.645.501-3.193 1.21-4.568L6.16 12.058l.5-.866 2.81 1.623c.858-1.344 2-2.487 3.345-3.345l-1.623-2.81.866-.5 1.624 2.812a11 11 0 0 1 4.568-1.21V4.5zm9.488 13.75a9.957 9.957 0 0 0-9.988-9.5c-1.65 0-3.2.392-4.567 1.089l2.506 4.34a5.1 5.1 0 0 1 2.061-.429c2.632 0 4.732 1.942 4.976 4.5zm-5.011 1h5.011a9.96 9.96 0 0 1-9.988 9.5c-1.65 0-3.2-.392-4.567-1.089l2.506-4.34c.625.276 1.322.43 2.061.43 2.632 0 4.733-1.943 4.977-4.501m-14.977-.5a9.96 9.96 0 0 1 4.566-8.413l2.504 4.338c-1.261.9-2.07 2.377-2.07 4.075s.809 3.176 2.07 4.076l-2.504 4.337A9.96 9.96 0 0 1 8.75 18.75m6 0c0-2.248 1.752-4 4-4s4 1.752 4 4-1.751 4-4 4-4-1.751-4-4" clip-rule="evenodd"/></svg>