<?xml version="1.0" encoding="utf-8"?>
<!-- Generator: Adobe Illustrator 24.2.0, SVG Export Plug-In . SVG Version: 6.00 Build 0)  -->
<svg version="1.0" id="Ebene_1" xmlns="http://www.w3.org/2000/svg" xmlns:xlink="http://www.w3.org/1999/xlink" x="0px" y="0px"
	 viewBox="0 0 24 24" enable-background="new 0 0 24 24" xml:space="preserve">
<g id="SVG_x5F_24x24pt">
	<path id="backgroundBlue" fill="#2D327D" d="M0,22.5v-21C0,0.675,0.675,0,1.5,0h21C23.325,0,24,0.675,24,1.5v21
		c0,0.825-0.675,1.5-1.5,1.5h-21C0.675,24,0,23.325,0,22.5z"/>
	<g id="content">
		<path fill="#FFFFFF" d="M8.359,14.016c-0.129,0-0.234-0.105-0.234-0.234v-1.652c0-0.187,0.074-0.365,0.206-0.497l0,0l1.407-1.407
			c0.132-0.132,0.311-0.206,0.497-0.206h4.052c0.187,0,0.365,0.074,0.497,0.206l0,0l1.634,1.634l2.742,0.227
			c0.121,0.01,0.215,0.112,0.215,0.234v1.461c0,0.129-0.105,0.234-0.234,0.234l0,0h-0.258v-0.269c0-0.776-0.63-1.406-1.406-1.406
			c-0.776,0-1.406,0.63-1.406,1.406v0.269h-4.664v-0.269c0-0.776-0.63-1.406-1.406-1.406c-0.776,0-1.406,0.63-1.406,1.406v0.269
			H8.359L8.359,14.016z M12.553,10.7l0.002,0.961l0,0c0,0.129,0.105,0.234,0.234,0.234l2.73,0c0.062,0,0.112-0.05,0.112-0.112
			c0-0.03-0.012-0.058-0.033-0.079l-1.169-1.169h0c-0.044-0.044-0.104-0.068-0.166-0.068h-1.476
			C12.658,10.465,12.553,10.57,12.553,10.7L12.553,10.7L12.553,10.7z M9.002,11.894l2.871,0c0.129,0,0.234-0.105,0.234-0.234v-0.961
			c0-0.129-0.105-0.234-0.234-0.234h-1.616c-0.062,0-0.122,0.025-0.166,0.068l0,0l-1.169,1.169c-0.021,0.021-0.033,0.05-0.033,0.079
			C8.89,11.844,8.94,11.894,9.002,11.894L9.002,11.894z"/>
		<path fill="#FFFFFF" d="M18.725,19.288c-0.431-0.096-0.867-0.169-1.306-0.219l0,0c-0.365-0.049-0.732-0.073-1.1-0.073
			c-0.836,0-1.667,0.125-2.466,0.372c-0.534,0.164-1.09,0.248-1.648,0.248c-0.054,0-0.108-0.001-0.161-0.002
			c-0.613-0.019-1.218-0.14-1.792-0.355l0,0c-0.942-0.354-1.939-0.535-2.945-0.535c-0.199,0-0.398,0.007-0.596,0.021l0,0
			C5.443,18.813,4.192,19.071,3,19.51l0.002-6.01h2.392c0.207,0,0.375-0.168,0.375-0.375c0-0.007,0-0.014-0.001-0.021l-0.082-1.425
			l0,0c-0.011-0.198-0.175-0.353-0.374-0.353h-2.31V9.75h2.176c0.207,0,0.375-0.168,0.375-0.375c0-0.008,0-0.015-0.001-0.022
			l-0.08-1.388l0,0C5.46,7.767,5.296,7.613,5.098,7.613H3.002V6.75h3.788c0.166,0,0.3,0.134,0.3,0.3v0.035
			c0,0.213-0.163,0.392-0.376,0.411l-0.46,0.041l1.205,6.843l0,0C7.521,14.739,7.833,15,8.197,15h11.43l1.244-3.075l0.561,0.212
			L18.725,19.288L18.725,19.288L18.725,19.288z"/>
		<path fill="#FFFFFF" d="M3,20.071c1.198-0.462,2.461-0.733,3.744-0.802l0,0c0.187-0.013,0.375-0.02,0.563-0.02
			c0.943,0,1.877,0.17,2.76,0.501l0,0c0.628,0.236,1.29,0.367,1.96,0.388c0.059,0.002,0.118,0.003,0.177,0.003
			c0.611,0,1.219-0.092,1.803-0.272l0,0c0.749-0.231,1.528-0.348,2.311-0.348c0.346,0,0.692,0.023,1.035,0.068l0,0
			c1.26,0.144,2.49,0.484,3.646,1.006v0.954l0,0c-1.178-0.582-2.447-0.956-3.753-1.104c-0.308-0.041-0.618-0.062-0.929-0.062
			c-0.698,0-1.391,0.105-2.057,0.31l0,0c-0.667,0.205-1.36,0.31-2.057,0.31c-0.068,0-0.135-0.001-0.203-0.003l0,0
			c-0.765-0.024-1.521-0.174-2.237-0.443h0c-0.785-0.295-1.618-0.446-2.457-0.446c-0.17,0-0.339,0.006-0.509,0.019l0,0
			C5.491,20.199,4.206,20.494,3,21.001L3,20.071L3,20.071L3,20.071z"/>
		<path fill-rule="evenodd" clip-rule="evenodd" fill="#FFFFFF" d="M9.999,14.192c0.269,0,0.488-0.219,0.488-0.488
			c0-0.269-0.218-0.488-0.488-0.488c-0.269,0-0.488,0.219-0.488,0.488C9.511,13.974,9.73,14.192,9.999,14.192L9.999,14.192z
			 M9.999,12.638c0.589,0,1.067,0.478,1.067,1.067c0,0.589-0.478,1.066-1.067,1.066c-0.589,0-1.066-0.478-1.066-1.066
			C8.933,13.116,9.41,12.638,9.999,12.638L9.999,12.638z"/>
		<path fill-rule="evenodd" clip-rule="evenodd" fill="#FFFFFF" d="M17.475,14.192c0.269,0,0.488-0.219,0.488-0.488
			c0-0.269-0.219-0.488-0.488-0.488c-0.269,0-0.488,0.219-0.488,0.488C16.987,13.974,17.206,14.192,17.475,14.192L17.475,14.192z
			 M17.475,12.638c0.589,0,1.066,0.478,1.066,1.067c0,0.589-0.478,1.066-1.066,1.066c-0.589,0-1.066-0.478-1.066-1.066
			C16.409,13.116,16.886,12.638,17.475,12.638L17.475,12.638z"/>
	</g>
</g>
</svg>
