<svg xmlns="http://www.w3.org/2000/svg" width="48" height="48" fill="none" viewBox="0 0 48 48"><path fill="#000" fill-rule="evenodd" d="M23.5 3a3 3 0 1 0 0 6 3 3 0 0 0 0-6m4 3a4 4 0 0 1-1.354 3H36.88l.102.366 5 18 .176.634H4.842l.176-.634 5-18L10.12 9h10.734A4 4 0 1 1 27.5 6m-16.62 4h25.24l4.722 17H6.158zm22.404 8.2v5.646h-.9l-.211-.811a9 9 0 0 0-.153-.527q-1.281 1.587-3.438 1.587-2.567 0-3.972-1.85-1.132-1.5-1.132-3.643 0-2.509 1.455-4.146 1.389-1.55 3.744-1.55 2.18 0 3.43 1.286.929.951 1.06 2.246h-1.39a2.5 2.5 0 0 0-1.004-1.693q-.853-.64-2.096-.64-1.814 0-2.845 1.302-.936 1.185-.936 3.144 0 1.8.856 2.948 1.032 1.396 2.918 1.396 1.456 0 2.398-.92.922-.908.952-2.634h-3.423v-1.14zm-9.872-5.046-4.52 4.293 4.688 6.4h-1.792l-3.89-5.434-1.77 1.681v3.752h-1.412V13.154h1.412v5.302l5.426-5.302zM5.002 29.04c.788 9.496 8.762 16.96 18.498 16.96S41.21 38.536 42 29.04l-.997-.082c-.746 8.979-8.289 16.04-17.502 16.04S6.744 37.939 6 28.96zM23.5 42.001c-7.619 0-13.879-5.692-14.498-12.958l.997-.085C10.572 35.687 16.38 41 23.5 41c7.12 0 12.928-5.313 13.502-12.042l.996.085C37.379 36.309 31.12 42 23.5 42m-3.165-12.722C21.026 30.309 22.18 31 23.5 31s2.474-.69 3.166-1.721l-.831-.558C25.312 29.5 24.459 30 23.5 30s-1.812-.5-2.334-1.279z" clip-rule="evenodd"/></svg>