<svg class="color-immutable" xmlns="http://www.w3.org/2000/svg" width="59" height="20" fill="none" viewBox="0 0 59 20"><path fill="#EB0000" fill-rule="evenodd" d="M2 0a2 2 0 0 0-2 2v16a2 2 0 0 0 2 2h55a2 2 0 0 0 2-2V2a2 2 0 0 0-2-2z" clip-rule="evenodd"/><path fill="#fff" d="m12.296 15.934 2.516-11.866h3.111c2.142 0 3.961.578 3.961 2.822 0 1.598-1.343 2.635-2.839 2.856v.034c1.31.204 2.244.986 2.244 2.414 0 2.975-2.839 3.74-5.474 3.74zM16.02 8.98h.612c1.972 0 3.026-.612 3.026-1.904 0-.97-.73-1.31-2.21-1.31H16.7zm-1.105 5.202h.952c1.717 0 3.145-.46 3.145-2.023 0-1.36-1.156-1.598-2.584-1.598h-.748zM4.19 15.934 6.706 4.068h6.579l-.357 1.836H8.661l-.646 3.11h4.012l-.374 1.82H7.624l-1.071 5.1z"/></svg>