<svg xmlns="http://www.w3.org/2000/svg" width="24" height="24" fill="none" viewBox="0 0 24 24"><path fill="#000" fill-rule="evenodd" d="M3.5 4h-.36l-.114.342-1 3-.22.658H2v.001a2 2 0 0 0 1 1.732V20h11V9.733a2 2 0 0 0 1-1.732V8h.194l-.22-.658-1-3L13.86 4H3.5M14 8h-2v.001a1 1 0 1 0 2 0zm-3 0H9v.001a1 1 0 1 0 2 0zM8 8H6v.001a1 1 0 1 0 2 0zM5 8H3v.001a1 1 0 1 0 2 0zM3.194 7l.666-2h9.28l.666 2zM11.5 9.324c.367.415.903.677 1.5.677V19H4V10c.597 0 1.134-.262 1.5-.677.367.415.903.677 1.5.677s1.134-.262 1.5-.677c.367.415.903.677 1.5.677.598 0 1.134-.262 1.5-.677M15.54 13H17v-.5a1.5 1.5 0 1 1 3 0v.5h1.46l.038.459.5 6 .046.541h-7.087l.045-.541.5-6zM19 13v-.5a.5.5 0 1 0-1 0v.5zm-2.54 1-.416 5h4.913l-.417-5z" clip-rule="evenodd"/></svg>