<svg xmlns="http://www.w3.org/2000/svg" width="24" height="24" fill="none" viewBox="0 0 24 24"><path fill="#000" fill-rule="evenodd" d="M5 6h17v9h-2v3H2V8h3V6m16 8h-1V8H6V7h15zM3 9v8h16V9zm8.887 4.99q0 .551-.683.634v-1.272q.344.108.417.152a.52.52 0 0 1 .266.487m-1.693-2.161q0-.51.618-.564v1.127q-.344-.085-.482-.21-.136-.123-.136-.354m1.01.652v-1.207q.554.073.566.662h.877q-.012-.623-.382-.97-.373-.348-1.06-.383v-.584h-.393v.583q-.446.03-.715.15a1.33 1.33 0 0 0-.58.474 1.23 1.23 0 0 0-.203.697q0 .353.146.6.145.248.46.43.245.14.892.322v1.37q-.698-.075-.692-.845h-.919q.007.784.543 1.213.386.307 1.068.346V16h.392v-.657q.43-.021.713-.136t.516-.364q.367-.39.367-.962 0-.564-.357-.89-.287-.262-.983-.444a7 7 0 0 1-.256-.064" clip-rule="evenodd"/></svg>