<svg xmlns="http://www.w3.org/2000/svg" width="24" height="24" version="1.1" viewBox="0 0 24 24">
  <path fill="none" fill-rule="evenodd" stroke="#000" stroke-width="1" d="M17.5,17.5 L21.5,17.5 L21.5,7.5 L17.5,7.5 L17.5,17.5 Z M18.5,7.4985 L18.5,5.4985 L20.5,5.4985 L20.5,7.4985 M7.6797,14.6113 C6.4947,15.7963 4.5747,15.7963 3.3897,14.6113 C2.2047,13.4263 2.2047,11.5063 3.3897,10.3213 L10.3237,3.3883 C11.5077,2.2033 13.4287,2.2033 14.6137,3.3883 C15.7977,4.5723 15.7977,6.4933 14.6137,7.6773 L7.6797,14.6113 Z M9.5,13.5005 C9.229,13.5005 8.966,13.5285 8.71,13.5805 L7.68,14.6115 C7.228,15.0625 6.668,15.3395 6.084,15.4475 C5.721,16.0485 5.5,16.7465 5.5,17.5005 C5.5,19.7095 7.291,21.5005 9.5,21.5005 C11.709,21.5005 13.5,19.7095 13.5,17.5005 C13.5,15.2915 11.709,13.5005 9.5,13.5005 Z M11.168,11.1655 L6.835,6.8325 M17,21.5 L22,21.5 M19.5,5.4995 L19.501,1.9995 M19.5,21.5 L19.501,17.5 M17.5,15.5 L20,15.5 M17.5,13.5 L20,13.5 M17.5,11.5 L20,11.5 M17.5,9.4995 L20,9.4995 M5.499,17.502 L13.499,17.502"/>
</svg>
