<svg xmlns="http://www.w3.org/2000/svg" width="48" height="48" version="1.1" viewBox="0 0 48 48">
  <path fill="none" fill-rule="evenodd" stroke="#020303" stroke-width="1" d="M44.5,36.9946 C44.5,41.7436 40.743,45.4996 35.999,45.4996 C31.254,45.4996 27.5,41.7436 27.5,36.9946 C27.5,32.2456 31.254,28.4996 35.999,28.4996 C40.743,28.4996 44.5,32.2456 44.5,36.9946 Z M42.5,36.9956 C42.5,40.6266 39.628,43.4996 35.999,43.4996 C32.371,43.4996 29.5,40.6266 29.5,36.9956 C29.5,33.3646 32.371,30.4996 35.999,30.4996 C39.628,30.4996 42.5,33.3646 42.5,36.9956 Z M17.5,8.2896 L17.5,5.4986 C17.5,4.3816 15.732,3.4996 13.499,3.4996 C11.267,3.4996 9.5,4.3816 9.5,5.4986 L9.277,8.0186 M31.5,36.9971 C31.5,34.4831 33.487,32.5001 35.999,32.5001 M20.5,36.9946 C20.5,41.7436 16.743,45.4996 11.999,45.4996 C7.254,45.4996 3.5,41.7436 3.5,36.9946 C3.5,32.2456 7.254,28.4996 11.999,28.4996 C16.743,28.4996 20.5,32.2456 20.5,36.9946 Z M18.5,36.9956 C18.5,40.6266 15.628,43.4996 11.999,43.4996 C8.371,43.4996 5.5,40.6266 5.5,36.9956 C5.5,33.3646 8.371,30.4996 11.999,30.4996 C15.628,30.4996 18.5,33.3646 18.5,36.9956 Z M7.5,36.9971 C7.5,34.4831 9.487,32.5001 11.999,32.5001 M20.5,13.5 L27.5,13.5 M20.5,33.5 L27.5,33.5 M20.5,36.5 L27.5,36.5 M30.5,8.2896 L30.5,5.4986 C30.5,4.3816 32.268,3.4996 34.501,3.4996 C36.733,3.4996 38.5,4.3816 38.5,5.4986 L38.723,8.0186 M3.5273,36.3198 L5.5593,11.0078 C6.0043,9.0108 9.1243,7.4998 12.9993,7.4998 C17.1853,7.4998 20.5003,9.2628 20.5003,11.4978 M20.5,11.4976 L20.5,36.9996 M44.4727,36.3198 L42.4407,11.0078 C41.9957,9.0108 38.8757,7.4998 35.0007,7.4998 C30.8147,7.4998 27.4997,9.2628 27.4997,11.4978 M27.5,11.4976 L27.5,36.9996"/>
</svg>
