<svg xmlns="http://www.w3.org/2000/svg" width="36" height="36" fill="none" viewBox="0 0 36 36"><path fill="#000" fill-rule="evenodd" d="M4.75 12.25h26.5v9.009h1.752v1H31.25v1.491h-3.026q.026.123.026.254a1.25 1.25 0 1 1-2.474-.254H10.224q.026.123.026.254a1.25 1.25 0 1 1-2.474-.254H4.75v-1.491H2.997v-1H4.75V12.25m1 1v9.5h6.5v-9.5zm7.5 0v9.5h9.5v-9.5zm17 9.5h-6.5v-9.5h6.5zM9 23.754a.25.25 0 1 0 0 .5.25.25 0 0 0 0-.5m17.75.25c0-.137.113-.25.25-.25s.25.113.25.25a.25.25 0 0 1-.5 0" clip-rule="evenodd"/></svg>