<svg xmlns="http://www.w3.org/2000/svg" width="36" height="36" version="1.1" viewBox="0 0 36 36">
  <path fill="none" fill-rule="evenodd" stroke="#000" stroke-width="1" d="M26.25,11.25 L26.25,32.25 L9.75,32.25 L9.75,11.25 M9.75,23.25 L8.8815,23.25 C7.9185,23.25 6.9945,23.6295 6.3135,24.3045 C5.6325,24.9795 5.25,25.896 5.25,26.85 L5.25,31.35 C5.25,31.59 5.346,31.818 5.5155,31.986 C5.6865,32.1555 5.9175,32.25 6.1575,32.25 L9.75,32.25 M26.25,23.25 L27.1185,23.25 C28.0815,23.25 29.0055,23.6295 29.6865,24.3045 C30.3675,24.9795 30.75,25.896 30.75,26.85 L30.75,31.35 C30.75,31.59 30.654,31.818 30.4845,31.986 C30.3135,32.1555 30.0825,32.25 29.8425,32.25 L26.25,32.25 M8.25225,3.75 L27.75075,3.75 C28.57875,3.75 29.25075,4.4205 29.25075,5.25 L29.25075,9.75 C29.25075,10.5795 28.57875,11.25 27.75075,11.25 L8.24925,11.25 C7.42125,11.25 6.75075,10.5795 6.75075,9.7515 L6.75075,5.2515 C6.75075,4.422 7.42275,3.75 8.25225,3.75 Z M26.25,15 C25.218,16.179 23.9475,17.1225 22.5255,17.769 C21.1035,18.4155 19.5615,18.75 18,18.75 C16.4385,18.75 14.8965,18.4155 13.4745,17.769 C12.0525,17.1225 10.782,16.179 9.75,15 M18,16.5 L18,21 M12.75,3.75 L12.75,11.25 M23.25,3.75 L23.25,11.25"/>
</svg>
