<svg xmlns="http://www.w3.org/2000/svg" width="48" height="48" version="1.1" viewBox="0 0 48 48">
  <path fill="none" fill-rule="evenodd" stroke="#000" stroke-width="1" d="M4.5,34.502 L43.5,34.502 L43.5,26.502 L4.5,26.502 L4.5,34.502 Z M4.5,17.5 L43.5,17.5 L43.5,9.5 L4.5,9.5 L4.5,17.5 Z M10.5,34.5 L10.5,42.5 L14.5,42.5 L14.5,34.5 M33.5,34.5 L33.5,42.5 L37.5,42.5 L37.5,34.5 M10.5,17.5 L10.5,26.5 M14.5,17.5 L14.5,26.5 M10.5,9.5 L10.5,5.5 C10.5,4.395 11.396,3.5 12.5,3.5 C13.604,3.5 14.5,4.395 14.5,5.5 L14.5,9.5 M33.5024,9.5 L33.5024,5.5 C33.5024,4.395 34.3974,3.5 35.5024,3.5 C36.6064,3.5 37.5024,4.395 37.5024,5.5 L37.5024,9.5 M33.5,26.5 L33.5,17.5 M37.5,26.5 L37.5,17.5 M8,17.5 L16,9.5 M12,17.5 L20,9.5 M27,17.5 L35,9.5 M31,17.5 L39,9.5 M18.5,34.5 L26.5,26.5 M22.5,34.5 L30.5,26.5 M4.5,34.5 L12.5,26.5 M8.5,34.5 L16.5,26.5 M33.5,34.5 L41.5,26.5 M37.5,34.5 L43.5,28.5"/>
</svg>
