<svg class="color-immutable" xmlns="http://www.w3.org/2000/svg" width="59" height="20" fill="none" viewBox="0 0 59 20"><g clip-path="url(#a)"><path stroke="#000" d="M2 .5h55A1.5 1.5 0 0 1 58.5 2v16a1.5 1.5 0 0 1-1.5 1.5H2A1.5 1.5 0 0 1 .5 18V2A1.5 1.5 0 0 1 2 .5Z"/><path fill="#000" d="M12.877 7.71h-2.449q-.072-.863-.644-1.314-.564-.459-1.587-.459-.91 0-1.418.363-.5.355-.5.999 0 .58.483.838.468.258 2.37.725 2.005.5 2.779 1.007 1.425.934 1.426 2.602 0 1.829-1.434 2.884-1.266.927-3.424.927-2.401 0-3.73-1.096T3.37 12.068h2.562q.056.984.507 1.459.71.757 2.135.757.967 0 1.531-.379.636-.434.636-1.184t-.894-1.096q-.49-.193-2.32-.7-1.144-.315-1.789-.597-.644-.282-1.031-.628-.903-.806-.902-2.224 0-1.7 1.41-2.69 1.2-.847 3.118-.847 1.683 0 2.82.669 1.635.96 1.723 3.102M21.957 4.221v2.095h-4.745l-.508 2.65q.854-.902 2.184-.902 1.305 0 2.272.701 1.434 1.056 1.434 3.207 0 2.11-1.531 3.343-1.193.967-2.852.967-1.87 0-3.005-.999-1.137-1.007-1.2-2.715h2.312q.055.62.402 1.055.54.685 1.499.685.926 0 1.466-.669.525-.652.524-1.587 0-1.014-.548-1.62-.547-.61-1.458-.611-1.112 0-1.732.999l-2.103-.033 1.12-6.566zM23.448 13.043h2.223q.274 1.37 1.588 1.37.741 0 1.2-.5.466-.507.717-1.57.16-.678.234-1.54-.54.758-1.112 1.08-.564.315-1.378.314-1.297 0-2.256-.757a3.6 3.6 0 0 1-1.047-1.378 4.5 4.5 0 0 1-.37-1.837q0-1.989 1.36-3.222 1.17-1.065 2.805-1.064 1.006 0 1.86.451t1.435 1.281q1.023 1.475 1.023 4.142 0 2.465-.902 4.205-1.177 2.264-3.561 2.264-1.587 0-2.627-.878-1.031-.88-1.192-2.36m3.915-7.114q-.758 0-1.28.62-.525.63-.524 1.596 0 .78.378 1.386.516.83 1.45.83.846 0 1.354-.677.475-.638.475-1.515 0-.927-.491-1.571a1.64 1.64 0 0 0-1.362-.669"/></g><defs><clipPath id="a"><path fill="#fff" d="M0 0h59v20H0z"/></clipPath></defs></svg>