<?xml version="1.0" encoding="utf-8"?>
<!-- Generator: Adobe Illustrator 24.2.0, SVG Export Plug-In . SVG Version: 6.00 Build 0)  -->
<svg version="1.0" id="Ebene_1" xmlns="http://www.w3.org/2000/svg" xmlns:xlink="http://www.w3.org/1999/xlink" x="0px" y="0px"
	 viewBox="0 0 24 24" enable-background="new 0 0 24 24" xml:space="preserve">
<g id="SVG_x5F_24x24pt">
	<path id="backgroundBlue" fill="#2D327D" d="M0,22.5v-21C0,0.675,0.675,0,1.5,0h21C23.325,0,24,0.675,24,1.5v21
		c0,0.825-0.675,1.5-1.5,1.5h-21C0.675,24,0,23.325,0,22.5z"/>
	<g id="content">
		<path fill="#FFFFFF" d="M9.011,6.465l1.644-1.643L8.773,2.939c-0.071-0.07-0.165-0.11-0.264-0.11c-0.1,0-0.195,0.041-0.267,0.11
			L7.128,4.053c-0.069,0.07-0.11,0.166-0.11,0.265c0,0.1,0.041,0.195,0.11,0.266L9.011,6.465L9.011,6.465z"/>
		<path fill="#FFFFFF" d="M12.751,7.501l-1.856-1.857L9.834,6.705l0.795,0.796H7.126c-1.036,0-1.877,0.839-1.877,1.874V10.5h1.499
			V9.374C6.749,9.168,6.918,9,7.126,9H16.5v-1.5H12.751L12.751,7.501z"/>
		<path fill="#FFFFFF" d="M8.738,12H3.263C3.119,12,3,12.117,3,12.264v7.237C3,20.329,3.672,21,4.501,21h3
			C8.329,21,9,20.329,9,19.501v-7.237C9,12.117,8.883,12,8.738,12L8.738,12z M8.326,15.601c-0.363,0.173-0.761,0.262-1.162,0.262
			c-0.403,0-0.8-0.089-1.163-0.262c-0.362-0.173-0.76-0.264-1.163-0.264c-0.402,0-0.799,0.091-1.161,0.264V14.85
			c0.362-0.173,0.759-0.262,1.161-0.262c0.403,0,0.801,0.089,1.163,0.262c0.363,0.174,0.76,0.263,1.163,0.263
			c0.401,0,0.799-0.089,1.162-0.263V15.601L8.326,15.601z M8.326,14.176c-0.363,0.173-0.761,0.262-1.162,0.262
			c-0.403,0-0.8-0.089-1.163-0.262c-0.362-0.173-0.76-0.263-1.163-0.263c-0.402,0-0.799,0.09-1.161,0.263v-0.751
			c0.362-0.173,0.759-0.262,1.161-0.262c0.403,0,0.801,0.089,1.163,0.262c0.363,0.173,0.76,0.264,1.163,0.264
			c0.401,0,0.799-0.091,1.162-0.264V14.176L8.326,14.176z"/>
	</g>
</g>
</svg>
