<svg class="color-immutable" xmlns="http://www.w3.org/2000/svg" width="59" height="20" fill="none" viewBox="0 0 59 20"><g clip-path="url(#a)"><path fill="#EB0000" fill-rule="evenodd" d="M2 0a2 2 0 0 0-2 2v16a2 2 0 0 0 2 2h55a2 2 0 0 0 2-2V2a2 2 0 0 0-2-2z" clip-rule="evenodd"/><path fill="#fff" d="M9.22 4.2h4.057L8.259 15.8H4.186zM15.948 4.2h14.395l-1.49 3.445h-10.28l-2.042 4.71h10.285l-1.49 3.445H10.93zM44.772 11.203v1.954h-1.455v2.642h-2.254v-2.642h-4.826v-2.168l4.944-6.755h2.136v6.969zm-3.662.024V6.922l-2.974 4.304zM53.49 7.121h-2.2q-.308-1.337-1.518-1.337-1.282 0-1.82 1.574-.22.642-.356 1.938.523-.703 1.108-1.012.593-.309 1.423-.309 1.63 0 2.619 1.155.94 1.092.941 2.737 0 1.955-1.265 3.14-1.14 1.068-2.737 1.068-2.05 0-3.188-1.542-1.14-1.55-1.14-4.319 0-2.958 1.219-4.635 1.179-1.622 3.22-1.622 1.921 0 2.942 1.29.585.743.751 1.874m-3.916 2.65q-.83 0-1.321.696-.443.617-.443 1.471 0 .847.45 1.48.492.704 1.346.704.83 0 1.336-.673.475-.633.475-1.495 0-.847-.427-1.447-.522-.736-1.416-.736"/></g><defs><clipPath id="a"><path fill="#fff" d="M0 0h59v20H0z"/></clipPath></defs></svg>