<svg xmlns="http://www.w3.org/2000/svg" width="17" height="16" fill="none" viewBox="0 0 17 16"><path fill="#000" d="M8.8 1a.5.5 0 0 0-.5.5v13a.5.5 0 1 0 1 0v-13a.5.5 0 0 0-.5-.5M2.789 4.25a.75.75 0 0 0-.742.639l-.954 6.358a.75.75 0 0 0 .741.862h.686v2.141a.75.75 0 0 0 1.5 0v-2.141h.5v2.141a.75.75 0 0 0 1.5 0v-2.141h.738a.75.75 0 0 0 .74-.879L6.39 4.871a.75.75 0 0 0-.74-.621zM11.695 4.25a.75.75 0 0 0-.75.748l-.013 4.417a.75.75 0 0 0 .43.681l.058.027v4.127a.75.75 0 0 0 1.5 0v-4.082h.5v4.082a.75.75 0 0 0 1.5 0v-4.102l.091-.038a.75.75 0 0 0 .462-.693V5a.75.75 0 0 0-.75-.75zM4.296 3.5a1.25 1.25 0 1 0 0-2.5 1.25 1.25 0 0 0 0 2.5M14.452 2.25a1.25 1.25 0 1 1-2.5 0 1.25 1.25 0 0 1 2.5 0"/></svg>