<svg class="color-immutable" xmlns="http://www.w3.org/2000/svg" width="59" height="20" fill="none" viewBox="0 0 59 20"><path fill="#E84E10" fill-rule="evenodd" d="M2 0a2 2 0 0 0-2 2v16a2 2 0 0 0 2 2h55a2 2 0 0 0 2-2V2a2 2 0 0 0-2-2z" clip-rule="evenodd"/><path fill="#000" d="M14.153 4.17v2.142H7.98v2.476h5.657v1.991H7.98v2.849h6.284v2.142H5.45V4.17zM25.311 4.17l-3.856 11.6h-2.88l-3.8-11.6h2.65l2.61 8.688 2.65-8.688zM25.456 12.858h2.19q.27 1.35 1.563 1.349.73 0 1.183-.492.46-.5.706-1.547.158-.666.23-1.516-.532.746-1.095 1.064-.555.309-1.357.309-1.277 0-2.222-.746a3.55 3.55 0 0 1-1.031-1.357 4.5 4.5 0 0 1-.365-1.809q0-1.959 1.34-3.174 1.152-1.047 2.762-1.047.991 0 1.833.444.84.445 1.412 1.262 1.008 1.452 1.008 4.078 0 2.429-.889 4.142-1.158 2.23-3.507 2.23-1.563 0-2.586-.865-1.017-.865-1.175-2.325m3.857-7.006q-.746 0-1.262.61-.516.62-.516 1.572 0 .77.373 1.365.509.817 1.428.817.834 0 1.333-.667.468-.626.468-1.491.001-.913-.484-1.547a1.61 1.61 0 0 0-1.34-.66M40.026 4.17v11.6H37.71V8.177H34.98V6.495q.849-.024 1.38-.175.54-.15.984-.492.643-.492.865-1.658z"/></svg>