<svg xmlns="http://www.w3.org/2000/svg" width="24" height="24" fill="none" viewBox="0 0 24 24"><path fill="#000" fill-rule="evenodd" d="M6 3.5a.5.5 0 1 1 1 0V5H6zM5 5V3.5a1.5 1.5 0 1 1 3 0V5h8V3.5a1.5 1.5 0 0 1 3 0V5h3v5h-3v3.001h3v5h-3V22h-3v-3.999H8V22H5v-3.999H2v-5h3V10H2V5h3m13-1.5V5h-1V3.5a.5.5 0 1 1 1 0m0 9.501V10h-1v3.001zM8 10h8v3.001H8zm-2 3.001V10h1v3.001zM3 6v3h2.293l3-3zm6.707 0-3 3h7.586l3-3zM21 9h-5.293l3-3H21zm-3 9.001V21h-1v-2.999zm-12 0V21h1v-2.999zm-3-4v2.292L5.292 14zm6.292 3H3.706l3-3h5.586zm4.414-3-3 3h5.586l3-3zm7 0-3 3H21v-3z" clip-rule="evenodd"/></svg>