<svg xmlns="http://www.w3.org/2000/svg" width="24" height="24" fill="none" viewBox="0 0 24 24"><path fill="#000" fill-rule="evenodd" d="M12.05 4.03c-4.423 0-8 3.576-8.01 8a8 8 0 0 0 3.239 6.43l-.598.801A9 9 0 0 1 3.04 12.03v-.001c.01-4.975 4.034-8.999 9.01-8.999a9 9 0 0 1 9 9h-1a8 8 0 0 0-8-8m-3 4a1 1 0 1 0 0 2 1 1 0 0 0 0-2m5 1a1 1 0 1 1 2 0 1 1 0 0 1-2 0m1.205 3.222.61.17a4.4 4.4 0 0 1-3.815 2.158 4.41 4.41 0 0 1-4.09-2.697l-.92.394c.836 1.946 2.731 3.303 5.01 3.303a5.41 5.41 0 0 0 4.807-2.88l.828.232.27-.963-2.43-.68zm3.772 2.074a.65.65 0 0 1 .883.154.65.65 0 0 1-.129.909l-.2.15v.01l-2.46 1.84-.249.186.056.305.18.98a1.49 1.49 0 0 1-1.205 1.738h-.002l-3.535.637c-.322-.711-.835-1.33-1.39-1.85-.66-.619-1.409-1.12-2.045-1.487a.557.557 0 0 1-.044-.926.57.57 0 0 1 .495-.091l3.777 1.109.223.065.194-.128 5.45-3.6zm1.682-.447a1.65 1.65 0 0 0-2.235-.386h-.001l-5.255 3.472-3.557-1.045-.006-.001a1.57 1.57 0 0 0-1.362.249 1.557 1.557 0 0 0 .135 2.594l.002.001c.594.343 1.275.801 1.863 1.352.592.554 1.063 1.176 1.282 1.841l.136.413.428-.077 3.938-.71a2.49 2.49 0 0 0 2.015-2.902l-.124-.675L20.38 16.2l.2-.15v-.036a1.65 1.65 0 0 0 .131-2.133z" clip-rule="evenodd"/></svg>