<?xml version="1.0" encoding="utf-8"?>
<!-- Generator: Adobe Illustrator 27.8.1, SVG Export Plug-In . SVG Version: 6.00 Build 0)  -->
<svg version="1.0" id="Ebene_1" xmlns="http://www.w3.org/2000/svg" xmlns:xlink="http://www.w3.org/1999/xlink" x="0px" y="0px"
	 viewBox="0 0 24 24" enable-background="new 0 0 24 24" xml:space="preserve">
<g id="SVG_x5F_24x24pt">
	<path id="backgroundBlue" fill="#2D327D" d="M0,22.5v-21C0,0.675,0.675,0,1.5,0h21C23.325,0,24,0.675,24,1.5v21
		c0,0.825-0.675,1.5-1.5,1.5h-21C0.675,24,0,23.325,0,22.5z"/>
	<g id="content">
		<path fill="#FFFFFF" d="M10.33,4.061c0.439-0.76,1.412-1.021,2.172-0.582c0.76,0.439,1.021,1.412,0.582,2.172
			c-0.438,0.761-1.412,1.021-2.172,0.582C10.152,5.795,9.892,4.821,10.33,4.061L10.33,4.061z"/>
		<path fill="#FFFFFF" d="M4.01,21.191c0.424,0.114,0.86-0.139,0.973-0.562l1.948-7.268l2.066,3.58v3.481
			c0,0.44,0.356,0.796,0.795,0.796c0.439,0,0.795-0.356,0.795-0.796c0,0,0-3.5,0-3.666c0-0.166-0.038-0.306-0.12-0.45
			C10.383,16.163,8.7,13.246,8.7,13.246l2.298-3.981l0.849,1.472l-0.698,0.403l1.483,2.568l1.324,7.511l0.443-0.078l-1.34-7.597
			l-0.002,0.001l-0.003-0.005l0.309-0.178v0.001l0.001-0.001c0.176,0.304,0.564,0.408,0.868,0.233
			c0.304-0.175,0.409-0.564,0.233-0.869l-3.197-5.536l-0.001,0.001c-0.135-0.231-0.328-0.431-0.576-0.575
			C9.932,6.176,8.959,6.436,8.52,7.197c0,0-2.879,4.987-2.897,5.017c-0.041,0.072-0.068,0.137-0.09,0.217
			c-0.022,0.08-2.087,7.786-2.087,7.786C3.334,20.641,3.586,21.077,4.01,21.191 M12.11,11.189l0.992,1.717l-0.308,0.179
			l-0.991-1.718L12.11,11.189L12.11,11.189z"/>
	</g>
</g>
</svg>
