<svg class="color-immutable" width="59" height="20" viewBox="0 0 59 20" fill="none" xmlns="http://www.w3.org/2000/svg"><path fill-rule="evenodd" clip-rule="evenodd" d="M2 0a2 2 0 0 0-2 2v16a2 2 0 0 0 2 2h55a2 2 0 0 0 2-2V2a2 2 0 0 0-2-2H2Z" fill="#F27E00"/><path d="M14.153 4.17v2.142H7.98v2.476h5.657v1.991H7.98v2.849h6.284v2.142H5.45V4.17h8.704ZM25.311 4.17l-3.856 11.6h-2.88l-3.8-11.6h2.65l2.61 8.688 2.65-8.688h2.626ZM33.415 7.066h-2.206c-.206-.894-.714-1.341-1.524-1.341-.857 0-1.465.526-1.825 1.579-.148.428-.267 1.076-.357 1.944.35-.47.72-.81 1.111-1.016.397-.206.873-.31 1.428-.31 1.09 0 1.966.387 2.627 1.16.63.73.944 1.644.944 2.745 0 1.306-.423 2.356-1.27 3.15-.761.714-1.676 1.07-2.745 1.07-1.37 0-2.436-.515-3.197-1.546-.762-1.037-1.143-2.481-1.143-4.333 0-1.978.407-3.528 1.222-4.65.788-1.084 1.864-1.626 3.23-1.626 1.285 0 2.268.431 2.95 1.293.392.498.644 1.124.755 1.88Zm-3.928 2.658c-.555 0-.997.233-1.325.698-.296.413-.444.905-.444 1.476 0 .566.15 1.06.452 1.484.328.47.777.706 1.349.706.555 0 1.002-.225 1.34-.674.318-.424.477-.923.477-1.5 0-.566-.143-1.05-.429-1.452-.349-.492-.822-.738-1.42-.738ZM34.258 12.858h2.19c.18.9.7 1.349 1.563 1.349.487 0 .88-.164 1.182-.492.307-.333.542-.849.706-1.547.106-.444.183-.95.23-1.516-.354.498-.719.852-1.094 1.064-.37.206-.823.309-1.357.309-.852 0-1.592-.249-2.222-.746a3.554 3.554 0 0 1-1.032-1.357 4.459 4.459 0 0 1-.364-1.809c0-1.306.447-2.364 1.34-3.174.767-.698 1.688-1.047 2.762-1.047.66 0 1.272.148 1.833.444.56.297 1.031.717 1.412 1.262.672.968 1.008 2.328 1.008 4.078 0 1.619-.297 3-.889 4.142-.772 1.487-1.941 2.23-3.507 2.23-1.042 0-1.904-.288-2.587-.865-.677-.577-1.068-1.351-1.174-2.325Zm3.856-7.006c-.497 0-.918.204-1.261.61-.344.413-.516.937-.516 1.572 0 .513.124.968.373 1.365.338.545.814.817 1.428.817.555 0 1-.222 1.333-.667.312-.417.468-.915.468-1.491 0-.609-.161-1.124-.484-1.547a1.611 1.611 0 0 0-1.34-.66Z" fill="#000"/></svg>