<svg xmlns="http://www.w3.org/2000/svg" width="19" height="16" fill="none" viewBox="0 0 19 16"><path fill="#000" d="M4.86 6.024a.2.2 0 0 1 .185-.274h1.366a.5.5 0 0 1 .465.314L8.75 10.75h-2z"/><path stroke="#000" stroke-linecap="round" stroke-width="1.5" d="m1.75 4.25 3.5 9h6m-4.5-2.5L4.86 6.024a.2.2 0 0 1 .185-.274h1.366a.5.5 0 0 1 .465.314L8.75 10.75m-2 0h2m-2 0h2m5.5 3.25-1.5-3.25h-4"/><path stroke="#000" stroke-width="1.5" d="M16.4 1.75c.47 0 .85.38.85.85v2.8c0 .47-.38.85-.85.85h-5.8a.85.85 0 0 1-.85-.85V2.6c0-.47.38-.85.85-.85z"/><circle cx="5.5" cy="2.5" r="1.5" fill="#000"/></svg>