<svg xmlns="http://www.w3.org/2000/svg" width="16" height="16" fill="none" viewBox="0 0 16 16"><path fill="#000" fill-rule="evenodd" d="M12.975 8.5a4.98 4.98 0 0 1-1.104 2.664l1.432 1.432-.707.707-1.432-1.432A4.98 4.98 0 0 1 8.5 12.976V15h-1v-2.025a4.98 4.98 0 0 1-2.664-1.104l-1.432 1.432-.707-.707 1.432-1.432A4.98 4.98 0 0 1 3.025 8.5H1v-1h2.025a4.98 4.98 0 0 1 1.104-2.664L2.697 3.404l.707-.707 1.432 1.432A4.98 4.98 0 0 1 7.5 3.025V1h1v2.025c1.006.1 1.924.497 2.664 1.104l1.432-1.432.707.707-1.432 1.432A4.98 4.98 0 0 1 12.976 7.5H15v1zM4 8a4 4 0 0 1 7.97-.5H9.936a2 2 0 1 0-3.66 1.515L4.84 10.453A4 4 0 0 1 4 8m1.547 3.16a4 4 0 0 0 6.422-2.66H9.937a2 2 0 0 1-2.953 1.223zM7 8a1 1 0 1 1 2 0 1 1 0 0 1-2 0" clip-rule="evenodd"/></svg>