<svg xmlns="http://www.w3.org/2000/svg" width="36" height="36" fill="none" viewBox="0 0 36 36"><path fill="#000" fill-rule="evenodd" d="M26.04 16.065a2.84 2.84 0 0 0-1.86-1.08c.246-1.254.065-2.374-.416-3.294a4.66 4.66 0 0 0-2.556-2.204c-1.997-.725-4.471-.138-5.8 2.23-2.192-1.226-5.127.33-5.134 3.133-.744.144-1.342.586-1.758 1.167-.504.705-.753 1.624-.713 2.53.04.91.371 1.841 1.073 2.548.708.713 1.75 1.156 3.124 1.156h10.5c1.32 0 2.35-.447 3.068-1.148a3.97 3.97 0 0 0 1.164-2.518c.073-.9-.152-1.822-.693-2.52m-9.982-3.413c1.01-2.29 3.124-2.837 4.81-2.225.848.308 1.58.908 2.01 1.728.426.814.572 1.879.193 3.153l-.199.67.698-.028c.778-.03 1.326.273 1.679.728.364.47.543 1.133.486 1.825a2.97 2.97 0 0 1-.866 1.884c-.515.504-1.287.864-2.369.864H12c-1.15 0-1.922-.364-2.415-.86-.498-.503-.753-1.184-.783-1.887-.031-.707.167-1.4.527-1.905.355-.495.856-.798 1.471-.798h.564l-.067-.56c-.296-2.472 2.359-3.737 3.987-2.403l.508.416zM10.5 25.5H9V24h1.5zm1.5 0h-1.5V27H9v1.5h1.5V27H12v1.5h1.5V27H12zm0 0V24h1.5v1.5zm3 6h1.5V33H15v1.5h1.5V33H18v1.5h1.5V33H18v-1.5h1.5V30H18v1.5h-1.5V30H15zm7.5-6H21V24h1.5zm1.5 0h-1.5V27H21v1.5h1.5V27H24v1.5h1.5V27H24zm0 0V24h1.5v1.5z" clip-rule="evenodd"/></svg>