<svg xmlns="http://www.w3.org/2000/svg" width="48" height="48" fill="none" viewBox="0 0 48 48"><path fill="#000" fill-rule="evenodd" d="M14 4.5A2.5 2.5 0 0 1 16.5 2h14A2.5 2.5 0 0 1 33 4.5v18a2.5 2.5 0 0 1-2.5 2.5H24v21h-1V25h-6.5a2.5 2.5 0 0 1-2.5-2.5zM16.5 3A1.5 1.5 0 0 0 15 4.5v18a1.5 1.5 0 0 0 1.5 1.5h14a1.5 1.5 0 0 0 1.5-1.5v-18A1.5 1.5 0 0 0 30.5 3zm2.926 10.42V7.276H23.7q1.098 0 1.667.107.569.108 1.04.406 1.292.8 1.292 2.553 0 1.723-1.333 2.553a3.1 3.1 0 0 1-1.04.406q-.58.117-1.553.117zm4.573-7.373h-6v14.991h1.427V14.65h4.747q2.123 0 3.292-.83 1.66-1.17 1.66-3.549 0-2.337-1.712-3.476a3.9 3.9 0 0 0-1.374-.584q-.758-.165-2.04-.164" clip-rule="evenodd"/></svg>