<svg xmlns="http://www.w3.org/2000/svg" width="48" height="48" fill="none" viewBox="0 0 48 48"><path fill="#000" fill-rule="evenodd" d="M40.112 4H36v9h1.188V9.097h2.37q1.022 0 1.447.277.61.394.683 1.853.05 1.015.092 1.299.044.277.179.474h1.36l-.11-.13q-.247-.27-.351-1.427-.117-1.275-.173-1.552a1.7 1.7 0 0 0-.258-.59q-.339-.512-.991-.647.75-.252 1.145-.819.393-.566.394-1.385 0-.67-.284-1.2a2.2 2.2 0 0 0-.806-.856Q41.245 4 40.112 4m-2.924 4.137V5.034h2.561q.64 0 1.003.099.363.092.61.32.418.4.418 1.102 0 .917-.664 1.305a1.8 1.8 0 0 1-.635.215 7 7 0 0 1-1.052.062zM33 12h-7v1h6l-3.75 5H18.159l-.125.318-1.59 4.062a8 8 0 1 0 .931.365L18.842 19h9.344l1.919 4.012A8 8 0 0 0 34 38c4.42 0 8-3.58 8-8a8 8 0 0 0-10.995-7.42l-1.924-4.022L33.4 12.8l.6-.8zm-2.463 11.916 3.013 6.3.902-.432-3.014-6.3A7 7 0 0 1 41.001 30c0 3.867-3.133 7-7 7a7 7 0 0 1-3.464-13.084m-17.003 5.902 2.545-6.504a7 7 0 1 0 .931.365l-2.544 6.503zM20 15h-5v-1h5z" clip-rule="evenodd"/></svg>