<svg xmlns="http://www.w3.org/2000/svg" width="36" height="36" viewBox="0 0 36 36">
  <path fill="none" stroke="#000" d="M17.25,29.25 L8.25,29.25 L5.25,17.25 L20.25,17.25 L17.25,29.25 Z M19.125,21.75 L13.5,21.75 M26.25,4.5 L26.25,18.75 M24.75,25.5 L24.75,29.25 M27.75,24 L27.75,29.25 M6.75,17.25 C6.75,15.594 8.094,14.25 9.75,14.25 C11.406,14.25 12.75,15.594 12.75,17.25 M17.25,12.75 C17.25,13.578 16.578,14.25 15.75,14.25 C14.922,14.25 14.25,13.578 14.25,12.75 C14.25,11.922 14.922,11.25 15.75,11.25 C16.578,11.25 17.25,11.922 17.25,12.75 Z M9.75,10.5 C9.75,10.914 9.414,11.25 9,11.25 C8.586,11.25 8.25,10.914 8.25,10.5 C8.25,10.086 8.586,9.75 9,9.75 C9.414,9.75 9.75,10.086 9.75,10.5 Z M26.25,18.75 C23.7645,18.75 21.75,20.7645 21.75,23.25 L21.75,29.25 L30.75,29.25 L30.75,23.25 C30.75,20.7645 28.7355,18.75 26.25,18.75 Z"/>
</svg>
