<svg xmlns="http://www.w3.org/2000/svg" width="24" height="24" version="1.1" viewBox="0 0 24 24">
  <path fill="none" fill-rule="evenodd" stroke="#000" stroke-width="1" d="M14,22 L15,19.5 M20,19.5 L21,22 M21.5,15.5 L13.5,15.5 M20,10.5 L15,10.5 M21.5,19.5 L13.5,19.5 L13.5,14.038 C13.5,13.188 14.189,12.5 15.039,12.5 L19.961,12.5 C20.811,12.5 21.5,13.188 21.5,14.038 L21.5,19.5 Z M19.2993,17.4043 C19.2993,17.2393 19.1653,17.1043 19.0003,17.1043 C18.8343,17.1043 18.7003,17.2393 18.7003,17.4043 C18.7003,17.5693 18.8343,17.7043 19.0003,17.7043 C19.1653,17.7043 19.2993,17.5693 19.2993,17.4043 Z M16.2993,17.4043 C16.2993,17.2393 16.1653,17.1043 16.0003,17.1043 C15.8343,17.1043 15.7003,17.2393 15.7003,17.4043 C15.7003,17.5693 15.8343,17.7043 16.0003,17.7043 C16.1653,17.7043 16.2993,17.5693 16.2993,17.4043 Z M17.5,11.3721 L17.5,12.5001 L17.5,11.3721 L17.5,10.5001 L17.5,11.3721 Z M3.1133,13.5791 L4.5113,11.7091 L6.1913,11.3011 L8.8253,12.2091 L9.5523,13.4191 L11.2553,12.8461 L12.0003,13.0901 M11.0088,18.4844 C10.8408,18.4944 10.6698,18.5004 10.4988,18.5004 C6.0808,18.5004 2.4988,14.9184 2.4988,10.5004 C2.4988,6.0824 6.0808,2.5004 10.4988,2.5004 C14.3158,2.5004 17.5088,5.1724 18.3068,8.7494 M6.0552,3.8467 L7.0872,4.4927 L8.4192,4.4927 L8.8922,2.6607 M14.7588,3.7275 L13.4568,4.6735 L12.6568,5.9505 L10.3278,5.5365 L8.6468,7.3065 L6.3178,8.2895 L5.9228,8.8965 L8.2378,9.6235 L11.7588,8.9555 L12.3808,9.2685 L12.9998,10.9995"/>
</svg>
