<svg xmlns="http://www.w3.org/2000/svg" width="48" height="48" fill="none" viewBox="0 0 48 48"><path fill="#000" fill-rule="evenodd" d="M23.5 6C13.283 6 5 14.283 5 24.5S13.283 43 23.5 43 42 34.717 42 24.5 33.717 6 23.5 6M4 24.5C4 13.73 12.73 5 23.5 5S43 13.73 43 24.5 34.27 44 23.5 44 4 35.27 4 24.5m12.25 3.56h2.355q0 4.215 3.812 4.435v-7.663q-2.12-.36-3.577-1.289-2.216-1.4-2.217-4.144.001-2.342 1.573-3.818 1.575-1.475 4.221-1.602V11.5h1.524v2.48q2.634.209 3.991 1.552 1.47 1.441 1.441 3.798h-2.328q-.22-3.285-3.104-3.395v6.943c1.166.296 1.97.522 2.42.679a6 6 0 0 1 1.254.61q2.313 1.496 2.313 4.559 0 3.16-2.577 4.81-1.234.789-3.41.915V37.5h-1.524v-3.049q-3.119-.196-4.628-1.858-1.553-1.717-1.539-4.533m6.167-12.138q-1.344.04-2.107.567-1.359.941-1.359 2.717 0 1.385.847 2.189.845.805 2.619 1.108zm1.524 16.573c1.072-.007 1.95-.344 2.634-1.003q1.025-.992 1.024-2.545.001-1.592-.887-2.513-.885-.923-2.771-1.27zM9.677 20.15c1.411-4.49 4.987-8.047 9.474-9.473l-.302-.954c-4.795 1.525-8.616 5.322-10.126 10.127z" clip-rule="evenodd"/></svg>