<svg xmlns="http://www.w3.org/2000/svg" width="48" height="48" fill="none" viewBox="0 0 48 48"><path fill="#000" fill-rule="evenodd" d="M20.5 6H17v1h3v10h-2.22l-1.854-3.012-2-3.25-.426-.691-.426.692-1.656 2.69A4.504 4.504 0 0 0 5 17.5c0 2.483 2.017 4.501 4.5 4.501a4.506 4.506 0 0 0 4.472-4h15.225l.144-.134 6.89-6.432.513 1.922A4.5 4.5 0 0 0 34 17.5c0 2.482 2.017 4.5 4.5 4.5s4.5-2.018 4.5-4.5a4.504 4.504 0 0 0-5.297-4.43l-.72-2.699-.099-.371H21V6zm-6.528 11h2.633l-1.53-2.488-1.575-2.557-1.23 2A4.5 4.5 0 0 1 13.971 17m-2.231-2.187A3.5 3.5 0 0 1 12.964 17h-2.57zm-.851-.525-1.816 2.95-.469.762h4.359A3.506 3.506 0 0 1 9.5 21C7.57 21 6 19.43 6 17.5a3.504 3.504 0 0 1 4.89-3.212m26.115.047.012.044.002.01.003.009 1 3.25.956-.295-.997-3.24-.02-.072q.264-.04.539-.041c1.93 0 3.5 1.57 3.5 3.5S40.43 21 38.5 21 35 19.43 35 17.5c0-1.395.82-2.603 2.005-3.165M28.803 17H21v-6h14.231zM14 9h-4V8h4zm12.5 25a3.506 3.506 0 0 0-3.464 3h3.112l1.046-2.93A3.5 3.5 0 0 0 26.5 34M18 37h4.028a4.506 4.506 0 0 1 5.506-3.88l.995-2.788.119-.332h6.575l1.875-3H34v-1h4.902l-.478.765-2.342 3.747 1.633 2.857A4.504 4.504 0 0 1 44 37.5c0 2.482-2.018 4.5-4.5 4.5a4.504 4.504 0 0 1-4.5-4.5c0-1.491.728-2.815 1.848-3.634L35.21 31h-5.858l-.877 2.457A4.5 4.5 0 0 1 31 37.5c0 2.482-2.018 4.5-4.5 4.5a4.506 4.506 0 0 1-4.472-4H18v2h-7.337A3.5 3.5 0 1 1 5 36.05V30h5.685l.14.12 7 6 .175.15V37m-1 2h-6.035q.035-.245.035-.5a3.5 3.5 0 0 0-5-3.163V31h2.191l.862 1.724.049.098.086.068 5 4 .137.11H17zm20.348-4.258A3.5 3.5 0 0 0 36 37.5c0 1.93 1.57 3.5 3.5 3.5s3.5-1.57 3.5-3.5a3.504 3.504 0 0 0-4.785-3.256l1.72 3.008-.87.496zM30 37.5c0-1.34-.756-2.505-1.864-3.094l-1.165 3.262-.119.332h-3.816a3.506 3.506 0 0 0 3.464 3c1.93 0 3.5-1.57 3.5-3.5m0-8.5h-3v-1h3zM9.898 32.178 9.31 31h1.006l5.833 5h-1.473zM7.5 36a2.5 2.5 0 1 0 0 5 2.5 2.5 0 0 0 0-5M7 38.5a.5.5 0 1 1 1 0 .5.5 0 0 1-1 0m.5-1.5a1.5 1.5 0 1 0 0 3 1.5 1.5 0 0 0 0-3" clip-rule="evenodd"/></svg>