<svg width="48" height="48" viewBox="0 0 48 48" fill="none" xmlns="http://www.w3.org/2000/svg"><path fill-rule="evenodd" clip-rule="evenodd" d="M31.5 6.498c-2.683 0-4.707 2.099-5.3 4.828a4.84 4.84 0 0 0-2.7-.828c-1.321 0-2.485.535-3.4 1.379a5.999 5.999 0 0 0-.508.53 8.145 8.145 0 0 0-.458-.104c-.946-.19-2.23-.303-3.634-.303-1.403 0-2.688.114-3.634.303-.468.093-.88.21-1.187.356a1.572 1.572 0 0 0-.427.282.783.783 0 0 0-.252.559V21c0 1.66.51 3.202 1.387 4.366C6.688 28.313 4.098 33.501 4 39.492L3.992 40H27.037l-.038-.535A25.757 25.757 0 0 0 26.523 36H35.037l-.038-.536A25.834 25.834 0 0 0 34.523 32H43.037l-.039-.536c-.267-3.745-1.243-7.25-3.214-10.087l1.093-.386.028-.01.026-.013c.195-.095.497-.308.622-.663a.943.943 0 0 0-.003-.634 1.38 1.38 0 0 0-.407-.568 15.217 15.217 0 0 0-.295-.248c-1.047-.87-3.466-2.883-3.848-5.908-.024-3.493-2.306-6.449-5.5-6.449Zm5.152 8.82a6.757 6.757 0 0 1-1.052 2.067 14.301 14.301 0 0 1 3.556 3.153l1.354-.478a.375.375 0 0 0 .09-.073.54.54 0 0 0-.118-.133c-.063-.055-.15-.126-.256-.214-.772-.634-2.573-2.114-3.574-4.322Zm-10.43-2.706.003.002c1.072.991 1.775 2.56 1.775 4.388 0 .175-.018.338-.04.531l-.018.172.497.052-.498-.05c-.284 2.798-2.146 4.795-4.44 4.795a3.87 3.87 0 0 1-2.523-.903A8.06 8.06 0 0 0 21 21v-7.5c0-.25-.13-.439-.252-.559a1.237 1.237 0 0 0-.168-.136 5.03 5.03 0 0 1 .199-.194c.756-.697 1.685-1.113 2.721-1.113s1.965.416 2.722 1.114ZM29 17.002c0 .191-.017.38-.036.55.721.599 1.583.95 2.536.95 2.4 0 4.358-2.186 4.492-5.172a7.384 7.384 0 0 1-1.835-.673c-.759-.392-1.498-.92-2.009-1.528-.448-.534-.716-.787-.903-.921-.165-.118-.275-.15-.476-.204-.087-.023-.16-.023-.297.045-.167.082-.39.25-.743.567-.35.314-.928.604-1.45.829-.416.179-.838.334-1.168.446l-.025.165c1.111 1.12 1.817 2.736 1.905 4.559.006.128.009.257.009.387Zm2.5-9.504c2.298 0 4.19 2.006 4.466 4.799-.423-.11-.89-.291-1.35-.528-.683-.353-1.302-.807-1.702-1.283-.462-.55-.795-.882-1.088-1.092a2.202 2.202 0 0 0-.8-.356 1.364 1.364 0 0 0-.999.115c-.3.148-.61.4-.966.719-.217.194-.658.43-1.179.654-.158.069-.318.133-.473.193.696-1.942 2.257-3.22 4.09-3.22Zm-3.91 13.877c.573-.763.99-1.689 1.209-2.7a4.843 4.843 0 0 0 2.7.827c1.331 0 2.503-.512 3.42-1.362 4.467 2.727 6.544 7.415 7.039 12.86h-7.669c-1.023-3.958-3.12-7.379-6.7-9.625Zm-.77.841.092-.084c4.467 2.728 6.55 7.424 7.046 12.868h-7.67c-.492-1.896-1.231-3.668-2.262-5.245l1.954-3.732.127-.244-.137-.238-.85-1.473 1.7-1.852Zm-1.854 3.586-1.399 2.672-1.462-2.684.838-1.553.17-.316-.245-.262-.21-.225a5.142 5.142 0 0 0 1.689-.004l-.212.231-.249.27.184.319.896 1.552Zm-5.377-.404a6.864 6.864 0 0 0 1.185-2.518l1.118 1.198-.795 1.475-.129.239.13.238.462.848a14.552 14.552 0 0 0-1.971-1.48Zm-4.09 2.102c1.324 0 2.491-.507 3.406-1.35 4.47 2.727 6.558 7.406 7.053 12.85H5.015c.229-5.55 2.72-10.234 7.05-12.877.919.859 2.097 1.377 3.435 1.377ZM20 14.471v4.91c-.024.015-.058.034-.106.057-.2.094-.52.192-.955.28-.864.172-2.08.282-3.438.282s-2.574-.11-3.438-.283c-.436-.087-.756-.185-.955-.28A1.007 1.007 0 0 1 11 19.38v-4.91c.252.088.546.164.867.228.945.189 2.23.302 3.633.302s2.688-.113 3.634-.302c.32-.064.614-.14.866-.227Zm-7.936-.754a5.317 5.317 0 0 1-.807-.217c.197-.074.466-.149.806-.217.864-.172 2.08-.283 3.438-.283s2.574.11 3.438.283c.34.068.61.143.806.217a5.308 5.308 0 0 1-.806.217c-.864.173-2.08.283-3.438.283s-2.574-.11-3.438-.283ZM20 21v-.529a4.588 4.588 0 0 1-.165.054 1.817 1.817 0 0 1-.072.1 2.574 2.574 0 0 1-.686.6c-.664.414-1.763.777-3.578.775-1.814-.002-2.912-.365-3.575-.777a2.576 2.576 0 0 1-.686-.599 1.806 1.806 0 0 1-.072-.099 4.694 4.694 0 0 1-.166-.054V21c0 3.153 2.012 5.5 4.5 5.5 2.487 0 4.5-2.347 4.5-5.5Zm-7.501-3.487 1.498-1.498h.889l-1.194 1.119h1.443v-1.12h.731v1.12h1.425l-1.166-1.12h.898l1.48 1.5-1.48 1.489h-.898l1.254-1.254H15.93v1.254h-.796v-1.254h-1.443l1.194 1.254h-.888l-1.5-1.49Z" fill="#000"/></svg>