<svg xmlns="http://www.w3.org/2000/svg" width="36" height="16" fill="none" viewBox="0 0 36 16"><path fill="#000" d="M3.305 14.35q-.525-.8-.87-1.415-.348-.617-.89-1.841Q1 9.869 1 8.054q.001-1.685.591-3.1.588-1.415 1.713-3.175h1.272a33 33 0 0 0-.944 1.76q-.327.67-.781 1.84-.451 1.17-.453 2.695c0 1.038.166 1.981.5 2.82q.498 1.263.77 1.824.272.563.908 1.633zM32.694 1.778q1.034 1.614 1.668 3.048Q35 6.259 35 8.055q0 1.724-.518 2.948-.518 1.226-.807 1.752-.292.526-.981 1.597h-1.269c.458-.845.78-1.453.96-1.813q.273-.546.736-1.76.462-1.215.463-2.74a8.3 8.3 0 0 0-.163-1.632 9.4 9.4 0 0 0-.49-1.623 23 23 0 0 0-.607-1.38c-.19-.379-.486-.92-.899-1.622h1.269zM25.728 4.5c-.79 0-1.53.19-2.2.5l-.8-1.22V2.5h2.25V1h-3.75v2.25h-5.76l-.39-.75h.9V1h-4v1.5h1.41l.71 1.38-1.16 1.4a5.17 5.17 0 0 0-2.72-.78c-2.89 0-5.25 2.35-5.25 5.25S7.328 15 10.218 15c2.64 0 4.81-1.96 5.17-4.5h2.97l3.59-5.16.32.49c-1.09.96-1.8 2.36-1.8 3.92 0 2.9 2.36 5.25 5.25 5.25s5.25-2.35 5.25-5.25-2.36-5.25-5.25-5.25zM16.748 9h-1.35a5.1 5.1 0 0 0-1.3-2.76l.75-.91L16.738 9zm-3.61-1.59c.37.46.65.99.77 1.59h-2.08zm-2.91 6.09c-2.07 0-3.75-1.68-3.75-3.75S8.158 6 10.228 6c.64 0 1.22.17 1.75.45l-3.34 4.05h5.27c-.35 1.71-1.86 3-3.67 3zm7.85-5.2-1.83-3.55h4.3zm7.65 5.2c-2.07 0-3.75-1.68-3.75-3.75 0-1.04.43-1.98 1.12-2.66l2.01 3.07 1.26-.82-2-3.07c.43-.17.89-.27 1.37-.27 2.07 0 3.75 1.68 3.75 3.75s-1.68 3.75-3.75 3.75z"/></svg>