<svg xmlns="http://www.w3.org/2000/svg" width="48" height="48" version="1.1" viewBox="0 0 48 48">
  <path fill="none" fill-rule="evenodd" stroke="#000" stroke-width="1" d="M13.5,28 L13.5,3 C13.5,3 13.598,4.722 13.983,5.492 C14.369,6.264 14.958,6.915 15.688,7.375 C22.811,11.923 20.557,17.973 18,23 M22,35.5 C24.485,35.5 26.5,37.515 26.5,40 C26.5,42.485 24.485,44.5 22,44.5 C19.515,44.5 17.5,42.485 17.5,40 C17.5,37.515 19.515,35.5 22,35.5 Z M9,23.5 C11.485,23.5 13.5,25.515 13.5,28 C13.5,30.485 11.485,32.5 9,32.5 C6.515,32.5 4.5,30.485 4.5,28 C4.5,25.515 6.515,23.5 9,23.5 Z M39,31.5 C41.485,31.5 43.5,33.515 43.5,36 C43.5,38.485 41.485,40.5 39,40.5 C36.515,40.5 34.5,38.485 34.5,36 C34.5,33.515 36.515,31.5 39,31.5 Z M26.5,40 L26.5,18.5 L43.5,15.5 L43.5,35.971 M26.5,22.5 L43.5,19.5"/>
</svg>
