<?xml version="1.0" encoding="utf-8"?>
<!-- Generator: Adobe Illustrator 24.2.0, SVG Export Plug-In . SVG Version: 6.00 Build 0)  -->
<svg version="1.0" id="Ebene_1" xmlns="http://www.w3.org/2000/svg" xmlns:xlink="http://www.w3.org/1999/xlink" x="0px" y="0px"
	 viewBox="0 0 24 24" enable-background="new 0 0 24 24" xml:space="preserve">
<g id="SVG_x5F_24x24pt">
	<path id="backgroundBlue" fill="#2D327D" d="M0,22.5v-21C0,0.675,0.675,0,1.5,0h21C23.325,0,24,0.675,24,1.5v21
		c0,0.825-0.675,1.5-1.5,1.5h-21C0.675,24,0,23.325,0,22.5z"/>
	<g id="content">
		<path fill="#FFFFFF" d="M13.093,4.978c0.538,0,0.975-0.437,0.975-0.975s-0.437-0.975-0.975-0.975
			c-0.538,0-0.975,0.437-0.975,0.975S12.554,4.978,13.093,4.978L13.093,4.978z"/>
		<path fill="#FFFFFF" d="M9.332,7.405c0.538,0,0.975-0.437,0.975-0.975c0-0.538-0.437-0.975-0.975-0.975
			c-0.538,0-0.975,0.437-0.975,0.975C8.357,6.968,8.794,7.405,9.332,7.405L9.332,7.405z"/>
		<path fill="#FFFFFF" d="M5.571,7.943c-0.538,0-0.975,0.437-0.975,0.975c0,0.538,0.437,0.975,0.975,0.975
			c0.538,0,0.975-0.437,0.975-0.975C6.546,8.38,6.109,7.943,5.571,7.943L5.571,7.943z"/>
		<path fill="#FFFFFF" d="M11.151,8.382c-0.025,0.066-0.038,0.136-0.038,0.207c0,0.321,0.26,0.581,0.581,0.581
			c0.241,0,0.457-0.149,0.543-0.374l0.699-1.834l0.35,0.134L12.972,7.92l1.278-0.842V6.443c0-0.629-0.511-1.14-1.14-1.14
			c-0.473,0-0.897,0.292-1.065,0.734L11.151,8.382L11.151,8.382z"/>
		<path fill="#FFFFFF" d="M7.401,10.852c-0.025,0.066-0.038,0.136-0.038,0.207c0,0.321,0.26,0.581,0.581,0.581
			c0.241,0,0.457-0.149,0.543-0.374l0.699-1.833l0.35,0.134L9.222,10.39L10.5,9.549V8.913c0-0.629-0.511-1.14-1.14-1.14
			c-0.473,0-0.897,0.292-1.065,0.734L7.401,10.852L7.401,10.852z"/>
		<path fill="#FFFFFF" d="M6.75,12.019v-0.636c0-0.629-0.511-1.14-1.14-1.14c-0.473,0-0.897,0.292-1.065,0.734l-0.894,2.345
			c-0.025,0.066-0.038,0.136-0.038,0.207c0,0.321,0.26,0.581,0.581,0.581c0.241,0,0.457-0.149,0.543-0.374l0.699-1.833l0.35,0.134
			L5.472,12.86L6.75,12.019L6.75,12.019z"/>
		<path fill="#FFFFFF" d="M18.375,12.75c1.449,0,2.625-1.176,2.625-2.625C21,8.676,19.824,7.5,18.375,7.5h-2.996
			c-0.22,0-0.435,0.064-0.619,0.186L3,15.432V21l12.525-8.25H18.375L18.375,12.75z"/>
	</g>
</g>
</svg>
