<svg xmlns="http://www.w3.org/2000/svg" width="24" height="24" fill="none" viewBox="0 0 24 24"><path fill="#000" fill-rule="evenodd" d="M12.158 2.026 12 1.973l-.158.053-9 3-.389.13.05.406 1.5 12 .033.257.229.122 7.5 4 .235.126.235-.126 7.5-4 .229-.122.023-.185.032-.253 1.477-11.756-.008-.001.008-.062.051-.407-.389-.13zm6.9 14.979 1.395-11.16L12.5 3.194V6h-1V3.194l-7.953 2.65 1.417 11.337 6.536 3.486V14.5h1v6.13zM12 7.057l.424.678 5 8-.848.53-1.728-2.765H9.152l-1.728 2.765-.848-.53 5-8zM9.777 12.5 12 8.943l2.223 3.557z" clip-rule="evenodd"/></svg>