<?xml version="1.0" encoding="utf-8"?>
<!-- Generator: Adobe Illustrator 24.2.0, SVG Export Plug-In . SVG Version: 6.00 Build 0)  -->
<svg version="1.0" id="Ebene_1" xmlns="http://www.w3.org/2000/svg" xmlns:xlink="http://www.w3.org/1999/xlink" x="0px" y="0px"
	 viewBox="0 0 24 24" enable-background="new 0 0 24 24" xml:space="preserve">
<g id="SVG_x5F_24x24pt">
	<path id="backgroundBlue" fill="#2D327D" d="M0,22.5v-21C0,0.675,0.675,0,1.5,0h21C23.325,0,24,0.675,24,1.5v21
		c0,0.825-0.675,1.5-1.5,1.5h-21C0.675,24,0,23.325,0,22.5z"/>
	<g id="content">
		<path fill="#FFFFFF" d="M9.011,6.465l1.644-1.643L8.773,2.939c-0.071-0.07-0.165-0.11-0.264-0.11c-0.1,0-0.195,0.041-0.267,0.11
			L7.128,4.053c-0.069,0.07-0.11,0.166-0.11,0.265c0,0.1,0.041,0.195,0.11,0.266L9.011,6.465L9.011,6.465z"/>
		<path fill="#FFFFFF" d="M12.751,7.501l-1.856-1.857L9.834,6.705l0.795,0.796H7.126c-1.036,0-1.877,0.839-1.877,1.874V10.5h1.499
			V9.374C6.749,9.168,6.918,9,7.126,9H16.5v-1.5H12.751L12.751,7.501z"/>
		<path fill="#FFFFFF" d="M9,14.295l1.508-1.507l-0.796-0.795L9,12.704v-0.441C9,12.117,8.883,12,8.738,12H3.263
			C3.118,12,3,12.117,3,12.264v0.441l-0.712-0.712l-0.796,0.795L3,14.295v4.409l-1.508,1.508l0.796,0.795l0.861-0.861
			C3.39,20.651,3.904,21,4.501,21h3c0.596,0,1.109-0.349,1.351-0.852l0.86,0.86l0.796-0.795L9,18.705V14.295z M6,15.601
			c-0.06-0.028-0.121-0.054-0.182-0.078l-0.934-0.934C5.271,14.596,5.652,14.683,6,14.85c0.205,0.098,0.421,0.168,0.643,0.212
			l-0.571,0.571C6.048,15.622,6.024,15.612,6,15.601z M8.326,15.601c-0.277,0.132-0.574,0.214-0.877,0.246l0.877-0.877V15.601z
			 M4.837,13.162c0.403,0,0.801,0.089,1.163,0.262c0.363,0.173,0.76,0.264,1.163,0.264c0.372,0,0.74-0.079,1.081-0.228L7.27,14.434
			c-0.036,0.001-0.071,0.003-0.107,0.003c-0.403,0-0.8-0.089-1.163-0.262c-0.362-0.173-0.76-0.263-1.163-0.263
			c-0.192,0-0.382,0.021-0.568,0.061l-0.563-0.563C4.06,13.247,4.446,13.162,4.837,13.162z M4.136,15.431
			c-0.158,0.043-0.312,0.099-0.46,0.169v-0.629L4.136,15.431z"/>
		<polygon fill="#EB0000" points="6,15.705 2.288,11.992 1.492,12.788 5.204,16.5 1.492,20.213 2.288,21.008 6,17.296 9.712,21.008 
			10.508,20.213 6.795,16.5 10.508,12.788 9.712,11.992 6,15.705 		"/>
	</g>
</g>
</svg>
