<svg class="color-immutable" width="59" height="20" viewBox="0 0 59 20" fill="none" xmlns="http://www.w3.org/2000/svg"><g clip-path="url(#a)"><path d="M.5 2A1.5 1.5 0 0 1 2 .5h55A1.5 1.5 0 0 1 58.5 2v16a1.5 1.5 0 0 1-1.5 1.5H2A1.5 1.5 0 0 1 .5 18V2Z" stroke="#fff"/><path d="M12.877 7.71h-2.449c-.048-.575-.263-1.013-.644-1.314-.376-.306-.905-.459-1.587-.459-.607 0-1.08.121-1.418.363-.333.236-.5.57-.5.999 0 .387.161.666.483.838.312.172 1.102.413 2.37.725 1.337.333 2.263.669 2.779 1.007.95.623 1.426 1.49 1.426 2.602 0 1.22-.478 2.18-1.434 2.884-.844.618-1.985.927-3.424.927-1.601 0-2.844-.365-3.73-1.096-.887-.73-1.346-1.77-1.378-3.118h2.562c.037.656.206 1.142.507 1.459.473.505 1.185.757 2.135.757.645 0 1.155-.126 1.531-.379.424-.29.636-.684.636-1.184 0-.5-.298-.865-.894-1.096-.327-.129-1.1-.362-2.32-.7-.763-.21-1.359-.409-1.789-.597-.43-.188-.773-.397-1.031-.628-.602-.537-.902-1.279-.902-2.224 0-1.133.47-2.03 1.41-2.69.8-.565 1.84-.847 3.118-.847 1.122 0 2.062.223 2.82.669 1.09.64 1.664 1.673 1.723 3.102ZM22.65 11.32v1.99h-1.482V16h-2.296v-2.69h-4.915v-2.208l5.035-6.88h2.176v7.097h1.482Zm-3.73.023V6.96l-3.03 4.383h3.03ZM31.73 13.905V16h-8.484c0-.64.102-1.249.306-1.829.21-.58.503-1.08.879-1.498.29-.323.628-.637 1.015-.943.392-.306 1.168-.867 2.328-1.684.564-.392.959-.757 1.184-1.096a2.07 2.07 0 0 0 .339-1.176c0-.515-.153-.932-.46-1.249-.3-.322-.698-.483-1.192-.483-1.214 0-1.84.873-1.877 2.618h-2.264v-.257c0-1.43.4-2.536 1.2-3.32.78-.762 1.787-1.144 3.022-1.144 1.096 0 2.011.312 2.747.935.8.677 1.2 1.587 1.2 2.731 0 .999-.319 1.858-.958 2.578-.21.236-.406.427-.588.572-.183.14-.664.48-1.442 1.023-.742.516-1.273.91-1.596 1.185a6.474 6.474 0 0 0-.886.942h5.527Z" fill="#fff"/></g><defs><clipPath id="a"><path fill="#fff" d="M0 0h59v20H0z"/></clipPath></defs></svg>