<svg xmlns="http://www.w3.org/2000/svg" width="36" height="36" viewBox="0 0 36 36">
  <path fill="none" stroke="#000" d="M26.25,12.0003 C26.25,16.5558 22.5555,20.2503 18,20.2503 C13.443,20.2503 9.75,16.5558 9.75,12.0003 C9.75,7.4433 13.443,3.7503 18,3.7503 C22.5555,3.7503 26.25,7.4433 26.25,12.0003 Z M23.25,12.0003 C23.25,14.8998 20.8995,17.2503 18,17.2503 C15.1005,17.2503 12.75,14.8998 12.75,12.0003 C12.75,9.1008 15.1005,6.7503 18,6.7503 C20.8995,6.7503 23.25,9.1008 23.25,12.0003 Z M12.75,18.36435 L12.75,31.49985 L15.75,28.49985 L18.75,31.49985 L18.75,20.21085 M18.75,26.99955 L20.25,25.49955 L23.25,28.49955 L23.25,18.36405"/>
</svg>
