<svg xmlns="http://www.w3.org/2000/svg" width="48" height="48" fill="none" viewBox="0 0 48 48"><path fill="#000" fill-rule="evenodd" d="M23 11v1h-8.5A8.5 8.5 0 0 0 6 20.5v1a8.5 8.5 0 0 0 4.496 7.5H6v1.01H4v-1H3v3h1v-1h2V33h4.034a3.5 3.5 0 0 0 6.931 0h14.07a3.5 3.5 0 0 0 6.93 0H42v-1.99h2v1h1v-3h-1v1h-2V29h-3.496A8.5 8.5 0 0 0 43 21.5v-1a8.5 8.5 0 0 0-8.5-8.5H26v-1zm19 10.5a7.5 7.5 0 0 1-7.5 7.5H19V13h15.5a7.5 7.5 0 0 1 7.5 7.5zM18 13h-2v1h2zm-2 4v-2h2v2zm0 1v2h2v-2zm0 5v-2h2v2zm0 1v2h2v-2zm0 5v-2h2v2zm-1-16v16h-.5A7.5 7.5 0 0 1 7 21.5v-1a7.5 7.5 0 0 1 7.5-7.5zM7 30h34v2H7zm8.952 3h-4.903a2.5 2.5 0 0 0 4.903 0m16.78 1.278A2.5 2.5 0 0 1 32.048 33h4.904a2.5 2.5 0 0 1-4.22 1.278m2.084-18.633c2.122.161 3.238 1.287 3.843 2.377a6 6 0 0 1 .693 2.126l.003.03v.007l.499-.039.498-.038V20.1l-.002-.014a3 3 0 0 0-.026-.214 7.05 7.05 0 0 0-.79-2.337c-.734-1.321-2.119-2.696-4.642-2.888z" clip-rule="evenodd"/></svg>