<?xml version="1.0" encoding="utf-8"?>
<!-- Generator: Adobe Illustrator 24.2.0, SVG Export Plug-In . SVG Version: 6.00 Build 0)  -->
<svg version="1.0" id="Ebene_1" xmlns="http://www.w3.org/2000/svg" xmlns:xlink="http://www.w3.org/1999/xlink" x="0px" y="0px"
	 viewBox="0 0 24 24" enable-background="new 0 0 24 24" xml:space="preserve">
<g id="SVG_x5F_24x24pt">
	<path id="backgroundBlue" fill="#2D327D" d="M0,22.5v-21C0,0.675,0.675,0,1.5,0h21C23.325,0,24,0.675,24,1.5v21
		c0,0.825-0.675,1.5-1.5,1.5h-21C0.675,24,0,23.325,0,22.5z"/>
	<g id="content">
		<polygon fill="#FFFFFF" points="13.054,11.843 13.054,11.843 13.054,11.843 13.055,11.842 13.054,11.843 		"/>
		<g>
			<path fill="#FFFFFF" d="M3,7.5h5.448c0.917,0,1.639,0.057,2.165,0.171c0.526,0.114,1.002,0.316,1.427,0.605
				c1.176,0.788,1.764,1.976,1.764,3.564c0,1.41-0.486,2.518-1.459,3.324c-0.412,0.345-0.883,0.593-1.413,0.743
				c-0.53,0.151-1.182,0.226-1.958,0.226H5.946V21H3V7.5z M5.946,9.993v3.823h2.632c0.782,0,1.345-0.139,1.69-0.416
				c0.425-0.345,0.637-0.853,0.637-1.524c0-0.677-0.246-1.182-0.739-1.514C9.808,10.116,9.227,9.993,8.42,9.993H5.946z"/>
		</g>
	</g>
</g>
</svg>
