<svg xmlns="http://www.w3.org/2000/svg" width="24" height="24" fill="none" viewBox="0 0 24 24"><path fill="#000" fill-rule="evenodd" d="M12 2h4.434l-.518.777-1.846 2.769.822 1.81-.91.413L13.178 6H8.325l-.257.578A4 4 0 0 1 10 10c0 2.207-1.794 4-4 4s-4-1.793-4-4a4.004 4.004 0 0 1 5.155-3.83l.388-.874L7.675 5h5.557l1.334-2H12zM5.543 9.796l1.202-2.703A3.004 3.004 0 0 0 3 10c0 1.655 1.346 3 3 3s3-1.345 3-3A3 3 0 0 0 7.658 7.5l-1.201 2.703zm-1.897 9.85 15-15 .708.707-15 15zM17 9h1c.921 0 1.7.214 2.243.757S21 11.079 21 11.999v1.002h1v1h-1V22h-3.999v-2H11v2H7v-3h13v-4h-8v-1h2.05a2.502 2.502 0 0 1 4.9 0H20v-2c0-.785-.183-1.256-.464-1.536-.28-.281-.751-.464-1.536-.464h-1zm1.001 11H20v1h-1.999zM8 21v-1h2v1zm8.5-8c.653 0 1.209.418 1.415 1h-2.83a1.5 1.5 0 0 1 1.415-1m.5 4a1 1 0 1 1 2.002.001A1 1 0 0 1 17 17m-7-1a1 1 0 1 0 0 2 1 1 0 0 0 0-2M6.209 4H9V3H6.209z" clip-rule="evenodd"/></svg>