<svg xmlns="http://www.w3.org/2000/svg" width="24" height="24" fill="none" viewBox="0 0 24 24"><path fill="#000" fill-rule="evenodd" d="M8.033 4c.945-.008 1.616.085 2.084.325.428.218.737.585.9 1.28l.488 2.455a8.2 8.2 0 0 0-1.2-1.183C8.86 5.725 6.746 4.87 3.537 5l-.399.017-.072.392c-.142.766-.053 1.792.245 2.837.3 1.052.825 2.169 1.599 3.112.777.946 1.813 1.728 3.129 2.078q.47.125.978.172a8 8 0 0 0-.669.522c-1.31 1.144-2.307 2.832-2.31 5.37v.518L6.556 20c1.162-.04 2.086-.084 2.821-.204.74-.122 1.343-.329 1.83-.735.485-.406.799-.965 1.055-1.678q.123-.344.238-.754.114.41.238.754c.256.713.57 1.272 1.056 1.678s1.088.613 1.829.735c.735.12 1.66.163 2.821.204l.518.018v-.519c-.003-2.537-1-4.225-2.31-5.37a8 8 0 0 0-.67-.521q.51-.046.98-.172c1.315-.35 2.351-1.132 3.128-2.078.774-.943 1.299-2.06 1.599-3.112.298-1.045.387-2.07.245-2.837l-.072-.392-.4-.017c-3.208-.13-5.323.725-6.767 1.877-.47.376-.866.78-1.2 1.183l.487-2.454c.164-.696.473-1.063.9-1.281.469-.24 1.14-.333 2.085-.325l.009-1c-.977-.009-1.854.08-2.549.434-.733.375-1.201 1.015-1.42 1.952l-.002.009-.002.008-.503 2.532-.503-2.532-.002-.008-.002-.009c-.219-.937-.687-1.577-1.42-1.952C9.878 3.08 9 2.991 8.024 3zM13 10.632v1.515q.203.073.419.154c1.29.406 2.379.41 3.285.168 1.075-.285 1.942-.927 2.613-1.745.673-.82 1.141-1.808 1.41-2.752.214-.75.295-1.445.268-1.984-2.748-.032-4.5.732-5.676 1.67-1.169.933-1.805 2.062-2.284 2.912zm0 2.585v1.228c.253 1.137.453 1.97.679 2.6.228.633.464 1.004.756 1.249.292.244.695.408 1.35.515.556.09 1.253.136 2.16.172-.125-1.937-.933-3.21-1.951-4.098-.89-.776-1.95-1.271-2.91-1.639zm-1-1.07v-1.515l-.035-.062c-.479-.85-1.115-1.98-2.284-2.911-1.176-.939-2.928-1.703-5.676-1.67-.027.538.054 1.233.268 1.983.269.944.737 1.932 1.41 2.752.671.818 1.538 1.46 2.613 1.745.906.242 1.994.238 3.285-.168q.216-.082.419-.154m-2.994 2.736c.89-.776 1.95-1.271 2.91-1.639l.084-.027v1.228c-.253 1.137-.453 1.97-.679 2.6-.228.633-.464 1.004-.756 1.249-.292.244-.695.408-1.35.515-.556.09-1.253.136-2.16.172.125-1.937.933-3.21 1.951-4.098" clip-rule="evenodd"/></svg>