<svg xmlns="http://www.w3.org/2000/svg" width="36" height="36" fill="none" viewBox="0 0 36 36"><path fill="#000" fill-rule="evenodd" d="m30.354 28.152-.707.707-6.634-6.634c-.181.017-.368.03-.561.03h-10.5c-1.374 0-2.415-.44-3.123-1.15-.702-.704-1.035-1.632-1.075-2.538-.04-.903.21-1.819.714-2.52.417-.58 1.015-1.02 1.758-1.163a3.49 3.49 0 0 1 2.174-3.272L5.647 4.859l.707-.707zM13.193 12.405c-1.158.257-2.13 1.33-1.944 2.87l.066.56h-.563c-.617 0-1.117.302-1.471.795-.36.502-.558 1.19-.528 1.893.031.698.285 1.376.784 1.876.492.493 1.264.856 2.415.856h10.092zm2.47-1.117c1.496-2.122 4.012-2.464 5.918-1.566 1.79.843 3.046 2.773 2.55 5.297 1.303.191 2.158 1.128 2.48 2.244.365 1.267.064 2.81-1.018 3.85l-.346-.36-.346-.361c.79-.76 1.021-1.907.749-2.852-.265-.92-.987-1.6-2.128-1.555l-.7.028.2-.67c.697-2.332-.368-4.01-1.867-4.717-1.524-.717-3.493-.438-4.676 1.239l-.408-.29z" clip-rule="evenodd"/></svg>