<svg xmlns="http://www.w3.org/2000/svg" width="48" height="48" fill="none" viewBox="0 0 48 48"><path fill="#000" fill-rule="evenodd" d="M9 7.5a4.5 4.5 0 1 1 9.001.001A4.5 4.5 0 0 1 9 7.5M13.5 2a5.5 5.5 0 1 0 .001 11.001A5.5 5.5 0 0 0 13.5 2M20 14a5 5 0 1 1 10 0 5 5 0 0 1-10 0m5-6a6 6 0 0 0-2.77 11.324c-1.374.24-2.684.607-3.91 1.083l.36.932C20.874 20.49 23.355 20 25.995 20c1.888 0 3.692.259 5.376.71l.26-.965a22 22 0 0 0-3.48-.637A6 6 0 0 0 25 8M6.108 25.865Q6.532 26 7 26a1 1 0 1 0-1-1q0 .449.108.865m.507 1.117Q6.805 27 7 27a2 2 0 1 0-2-2q0 .122.006.242A3 3 0 0 1 4 23H3a4 4 0 0 0 2.301 3.622 4.5 4.5 0 0 0 3.704 2.851c.178 3.82 2.499 7.18 5.995 9.447V46h6v-4.583a21.7 21.7 0 0 0 9 .21V46h6v-6.498c2.483-1.384 4.463-3.278 5.675-5.502H45v-9h-2.837c-.685-1.624-1.772-3.1-3.163-4.363V15h-.5a4.48 4.48 0 0 0-4.108 2.707 20 20 0 0 0-2.762-.963l-.26.966c1.09.294 2.128.673 3.094 1.127l.529.25.164-.562A3.5 3.5 0 0 1 38 16.035v5.051l.17.15c1.46 1.286 2.555 2.797 3.19 4.444l.123.32H44v7h-2.932l-.14.273c-1.127 2.209-3.103 4.12-5.664 5.492l-.264.142V45h-4v-4.603l-.605.13a20.713 20.713 0 0 1-9.766-.235l-.63-.169V45h-4v-6.631l-.234-.147C12.202 35.995 9.994 32.668 9.994 29c0-4.583 3.465-8.638 8.686-10.66l-.36-.933c-5.272 2.041-9.054 6.161-9.312 11.059a3.5 3.5 0 0 1-2.393-1.484M14 4v3h3v1h-4V4zm21 21a1 1 0 1 1 2 0 1 1 0 0 1-2 0m-8.93-9.805q0 .664-.824.766v-1.535q.414.129.504.183.32.187.32.586m-2.043-2.61q.001-.612.746-.68v1.36q-.417-.1-.582-.251-.164-.15-.164-.428m1.22.79v-1.457q.666.086.683.797h1.058q-.015-.75-.463-1.17-.447-.42-1.279-.463v-.703h-.473v.703q-.539.036-.863.18a1.6 1.6 0 0 0-.699.572 1.5 1.5 0 0 0-.246.842q0 .426.176.724.175.3.554.518.297.172 1.078.39v1.653q-.843-.09-.836-1.02h-1.109q.008.945.656 1.465.465.372 1.29.418v.797h.472v-.793q.52-.028.861-.166a1.75 1.75 0 0 0 .623-.44q.441-.468.442-1.16 0-.679-.43-1.074-.347-.317-1.187-.535a12 12 0 0 1-.309-.078" clip-rule="evenodd"/></svg>