<svg width="48" height="48" viewBox="0 0 48 48" fill="none" xmlns="http://www.w3.org/2000/svg"><path fill-rule="evenodd" clip-rule="evenodd" d="M9 7.5a4.5 4.5 0 1 1 9.001.001A4.5 4.5 0 0 1 9 7.5ZM13.5 2a5.5 5.5 0 1 0 .001 11.001A5.5 5.5 0 0 0 13.5 2ZM20 14a5 5 0 1 1 10 0 5 5 0 0 1-10 0Zm5-6a6 6 0 0 0-2.77 11.324c-1.374.24-2.684.607-3.91 1.083l.36.932C20.874 20.49 23.355 20 25.995 20c1.888 0 3.692.259 5.376.71l.26-.965a21.793 21.793 0 0 0-3.48-.637A6 6 0 0 0 25 8ZM6.108 25.865c.282.088.581.135.892.135a1 1 0 1 0-1-1c0 .299.037.588.108.865Zm.507 1.117c.127.012.255.018.385.018a2 2 0 1 0-2-2c0 .081.002.162.006.242A2.993 2.993 0 0 1 4 23H3a4 4 0 0 0 2.301 3.622 4.505 4.505 0 0 0 3.704 2.851c.178 3.82 2.498 7.18 5.995 9.447V46h6v-4.583a21.692 21.692 0 0 0 9 .21V46h6v-6.498c2.483-1.384 4.463-3.278 5.675-5.502H45v-9h-2.837c-.685-1.624-1.772-3.1-3.163-4.363V15h-.5a4.48 4.48 0 0 0-4.108 2.707 20.01 20.01 0 0 0-2.762-.963l-.26.966c1.09.294 2.128.673 3.094 1.127l.529.25.164-.562A3.497 3.497 0 0 1 38 16.035v5.051l.17.15c1.46 1.286 2.555 2.797 3.19 4.444l.123.32H44v7h-2.932l-.14.273c-1.127 2.209-3.103 4.12-5.664 5.492l-.264.142V45h-4v-4.603l-.605.13a20.713 20.713 0 0 1-9.766-.235l-.63-.169V45h-4v-6.631l-.234-.147C12.202 35.995 9.994 32.668 9.994 29c0-4.583 3.465-8.638 8.686-10.66l-.36-.933c-5.272 2.041-9.055 6.161-9.312 11.059a3.5 3.5 0 0 1-2.393-1.484ZM14 4v3h3v1h-4V4h1Zm21 21a1 1 0 1 1 2 0 1 1 0 0 1-2 0Zm-8.93-9.805c0 .443-.274.698-.824.766v-1.535c.276.086.444.147.504.183.214.125.32.32.32.586Zm-2.043-2.61c0-.408.25-.634.746-.68v1.36c-.278-.067-.472-.151-.582-.251-.109-.1-.164-.243-.164-.428Zm1.22.79v-1.457c.444.057.672.323.683.797h1.058c-.01-.5-.165-.89-.463-1.17-.298-.28-.724-.434-1.279-.463v-.703h-.473v.703c-.359.024-.647.084-.863.18a1.6 1.6 0 0 0-.699.572 1.484 1.484 0 0 0-.246.842c0 .284.058.525.176.724.117.2.301.372.554.518.198.115.558.245 1.078.39v1.653c-.562-.06-.84-.4-.836-1.02h-1.109c.005.63.224 1.119.656 1.465.31.248.74.387 1.29.418v.797h.472v-.793c.347-.018.634-.074.861-.166a1.75 1.75 0 0 0 .623-.44c.294-.312.442-.698.442-1.16 0-.453-.144-.81-.43-1.074-.23-.211-.628-.39-1.187-.535a12.17 12.17 0 0 1-.309-.078Z" fill="#000"/></svg>