<svg xmlns="http://www.w3.org/2000/svg" width="48" height="48" fill="none" viewBox="0 0 48 48"><path fill="#000" fill-rule="evenodd" d="M24 4v8h1V4zm-8.354 11.354-5-5 .708-.708 5 5zm.354 8.15C16 18.809 19.766 15 24.468 15 29.176 15 33 18.816 33 23.507A8.47 8.47 0 0 1 24.52 32C19.813 32 16 28.195 16 23.504M24.468 14C19.209 14 15 18.262 15 23.504 15 28.75 19.264 33 24.52 33c5.26 0 9.48-4.25 9.48-9.493C34 18.261 29.725 14 24.468 14M5 24h8v-1H5zm27.646-9.354 5-5 .708.708-5 5zM44 23h-8v1h8zM24 43v-8h1v8zm-12.65-5.643 5-4.893-.7-.715-5 4.894zm22.004-5.71 5 5-.708.707-5-5zm-3.352-7.687c-.217 2.67-2.366 4.821-5.043 5.042l.082.996c3.164-.26 5.7-2.798 5.957-5.957z" clip-rule="evenodd"/></svg>