<svg xmlns="http://www.w3.org/2000/svg" width="24" height="24" viewBox="0 0 24 24">
  <g fill="none" fill-rule="evenodd">
    <path stroke="#000" d="M6.5088,4.5002 L12.4998,4.5002 L17.4998,9.5002 L17.4998,19.5002 L6.4998,19.5002 L6.5088,4.5002 Z M12.5,4.5002 L12.5,9.5002 L17.5,9.5002"/>
    <path fill="#000" d="M14.8469,14.9303 C15.1329,14.9303 15.3719,14.9873 15.5649,15.1003 C15.8419,15.2643 15.9879,15.5263 16.0039,15.8913 L15.3799,15.8913 C15.3679,15.7453 15.3139,15.6333 15.2169,15.5553 C15.1209,15.4773 14.9849,15.4403 14.8119,15.4403 C14.6569,15.4403 14.5369,15.4693 14.4519,15.5303 C14.3659,15.5923 14.3239,15.6763 14.3239,15.7863 C14.3239,15.8853 14.3649,15.9553 14.4469,15.9983 C14.5259,16.0433 14.7279,16.1043 15.0499,16.1843 C15.3909,16.2683 15.6259,16.3543 15.7579,16.4403 C15.9989,16.5983 16.1199,16.8193 16.1199,17.1023 C16.1199,17.4123 15.9989,17.6573 15.7549,17.8363 C15.5409,17.9953 15.2499,18.0733 14.8839,18.0733 C14.4769,18.0733 14.1599,17.9793 13.9349,17.7933 C13.7089,17.6083 13.5919,17.3423 13.5839,17.0003 L14.2349,17.0003 C14.2449,17.1663 14.2879,17.2893 14.3649,17.3713 C14.4849,17.5003 14.6659,17.5633 14.9079,17.5633 C15.0719,17.5633 15.2019,17.5323 15.2979,17.4673 C15.4059,17.3933 15.4599,17.2933 15.4599,17.1663 C15.4599,17.0393 15.3839,16.9463 15.2329,16.8873 C15.1499,16.8543 14.9519,16.7953 14.6419,16.7093 C14.4469,16.6553 14.2959,16.6043 14.1869,16.5573 C14.0769,16.5083 13.9889,16.4553 13.9239,16.3973 C13.7709,16.2603 13.6939,16.0713 13.6939,15.8303 C13.6939,15.5433 13.8139,15.3153 14.0539,15.1473 C14.2569,15.0023 14.5219,14.9303 14.8469,14.9303 Z M8.8494,15.0027 L9.4444,15.9647 L10.0464,15.0027 L10.7734,15.0027 L9.8094,16.4327 L10.8614,18.0007 L10.0734,18.0007 L9.4174,16.9587 L8.7494,18.0007 L8.0004,18.0007 L9.0584,16.4327 L8.0824,15.0027 L8.8494,15.0027 Z M11.8162,15.003 L11.8162,17.447 L13.2832,17.447 L13.2832,18.001 L11.1622,18.001 L11.1622,15.003 L11.8162,15.003 Z"/>
  </g>
</svg>
