<svg xmlns="http://www.w3.org/2000/svg" width="24" height="24" fill="none" viewBox="0 0 24 24"><path fill="#000" fill-rule="evenodd" d="M10.735 6.272C9.747 5.284 9.707 4 10.354 3.354l-.708-.708-5.5 5.5-1.5 1.5-.353.354.353.354 9.77 9.77.002-.002A2.9 2.9 0 0 0 14.5 21h5a2.5 2.5 0 0 0 2.5-2.5 3 3 0 0 0-3-3c-.516 0-.981-.195-1.337-.517l-3.197-8.165-.28-.712-.54.54c-.648.649-1.926.611-2.911-.374m2.389 13.142-.002.001L3.707 10l.793-.793 8.916 8.917.002-.002A2.9 2.9 0 0 0 15.5 19h5.415a1.5 1.5 0 0 1-1.415 1h-5a1.9 1.9 0 0 1-1.376-.586m.998-1.999L5.207 8.5l3.728-3.728c.084.79.474 1.588 1.093 2.207 1.041 1.041 2.584 1.428 3.743.808L14.638 10H13v1h2.03l.391 1H14v1h1.813l.96 2.45.037.098.074.073A2.98 2.98 0 0 0 19 16.5a2 2 0 0 1 1.937 1.5H15.5a1.9 1.9 0 0 1-1.376-.586zM6 20v-1h4v1zm-2-3v1h4v-1zm-2-2h4v1H2z" clip-rule="evenodd"/></svg>