<svg class="color-immutable" xmlns="http://www.w3.org/2000/svg" width="59" height="20" fill="none" viewBox="0 0 59 20"><g clip-path="url(#a)"><path fill="#EB0000" fill-rule="evenodd" d="M2 0a2 2 0 0 0-2 2v16a2 2 0 0 0 2 2h55a2 2 0 0 0 2-2V2a2 2 0 0 0-2-2z" clip-rule="evenodd"/><path fill="#fff" d="M9.388 4.2h4.042L8.43 15.8h-4.06zM26.092 12.366a.92.92 0 0 0 .843-.553L30.216 4.2H16.13l-5.001 11.6h4.025l3.786-8.69h5.973l-1.197 2.775-5.209-.019L22.71 15.8h4.582l-3.114-3.434zM38.35 9.59q-.808-.279-1.243-.91-.426-.633-.427-1.535 0-1.503 1.234-2.397 1.092-.79 2.595-.791 1.709 0 2.792.941 1.028.886 1.028 2.191 0 .91-.435 1.559t-1.234.941q.625.182 1.02.467 1.1.798 1.1 2.333 0 1.764-1.352 2.808-1.14.878-2.927.878-1.938 0-3.085-.965-1.194-1.004-1.195-2.634 0-1.527 1.06-2.365a2.9 2.9 0 0 1 1.068-.522m2.127-3.837q-.76 0-1.226.427-.467.42-.467 1.107 0 .72.467 1.155.474.427 1.266.427.79 0 1.25-.427.458-.427.458-1.163 0-.72-.467-1.123-.458-.403-1.28-.403m-.016 4.706q-.854 0-1.4.53-.537.522-.538 1.345 0 .846.546 1.376.554.53 1.432.53.996 0 1.495-.585.482-.562.482-1.297 0-.84-.553-1.377-.53-.522-1.464-.522M45.603 7.896q.039-1.423.704-2.389 1.075-1.55 3.235-1.55 1.661 0 2.682.846 1.1.918 1.1 2.373 0 .87-.436 1.503a2.1 2.1 0 0 1-1.163.847q.934.213 1.472.949.545.736.545 1.78 0 1.716-1.265 2.808-1.17 1.012-2.959 1.012-1.938 0-3.077-1.115-1.13-1.115-1.13-3.014v-.15h2.222q0 1.068.506 1.653.507.578 1.432.578.926 0 1.424-.546a1.78 1.78 0 0 0 .459-1.226q0-.854-.586-1.353-.483-.411-1.487-.411-.285 0-.562.032V8.822q.207.015.396.016 1.993 0 1.993-1.48 0-.648-.435-1.044-.435-.403-1.147-.403-.815 0-1.257.506-.444.506-.475 1.48z"/></g><defs><clipPath id="a"><path fill="#fff" d="M0 0h59v20H0z"/></clipPath></defs></svg>