<svg class="color-immutable" xmlns="http://www.w3.org/2000/svg" width="59" height="20" fill="none" viewBox="0 0 59 20"><g clip-path="url(#a)"><path fill="#000" d="M1.792 0h55.416C58.197 0 59 .806 59 1.8v16.4c0 .994-.801 1.8-1.792 1.8H1.792A1.797 1.797 0 0 1 0 18.2V1.8C0 .806.803 0 1.792 0"/><path fill="#FFDE15" d="M12.798 7.659h-2.405q-.07-.846-.633-1.29-.553-.45-1.558-.45-.894 0-1.392.356-.49.348-.49.98 0 .57.474.823.459.253 2.326.712 1.97.49 2.729.989 1.4.918 1.4 2.555 0 1.795-1.408 2.832-1.242.91-3.362.91Q6.122 16.074 4.817 15q-1.305-1.077-1.353-3.062h2.515q.055.966.499 1.432.696.744 2.096.744.95 0 1.503-.372.624-.428.625-1.163 0-.735-.878-1.076-.483-.19-2.278-.688-1.125-.307-1.756-.585-.633-.277-1.013-.617-.885-.791-.886-2.183 0-1.67 1.384-2.642 1.18-.831 3.062-.831 1.653 0 2.768.657 1.605.94 1.693 3.045M24.513 4.234v11.565h-2.54l-4.84-7.879.031 7.879h-2.428V4.234h2.57l4.81 7.863-.032-7.863zM26.214 7.896q.038-1.423.704-2.389 1.075-1.55 3.235-1.55 1.66 0 2.681.846 1.1.918 1.1 2.373 0 .87-.435 1.503a2.1 2.1 0 0 1-1.163.847q.933.213 1.471.949.546.736.546 1.78 0 1.716-1.266 2.808-1.17 1.012-2.958 1.012-1.938 0-3.077-1.115-1.131-1.115-1.131-3.014v-.15h2.223q0 1.068.506 1.653.506.578 1.432.578t1.424-.546a1.78 1.78 0 0 0 .458-1.226q0-.854-.585-1.353-.483-.411-1.487-.411-.285 0-.562.032V8.822q.206.015.396.016 1.993 0 1.993-1.48 0-.648-.435-1.044-.435-.403-1.147-.403-.814 0-1.258.506-.442.506-.474 1.48z"/></g><defs><clipPath id="a"><path fill="#fff" d="M0 0h59v20H0z"/></clipPath></defs></svg>