<svg class="color-immutable" width="59" height="20" viewBox="0 0 59 20" fill="none" xmlns="http://www.w3.org/2000/svg"><g clip-path="url(#a)"><path d="M1.792 0h55.416C58.197 0 59 .806 59 1.8v16.4c0 .994-.801 1.8-1.792 1.8H1.792A1.797 1.797 0 0 1 0 18.2V1.8C0 .806.803 0 1.792 0Z" fill="#000"/><path d="M12.798 7.659h-2.405c-.047-.564-.258-.994-.633-1.29-.369-.3-.888-.45-1.558-.45-.596 0-1.06.118-1.392.356-.327.232-.49.559-.49.98 0 .38.158.654.474.823.306.169 1.081.406 2.326.712 1.313.327 2.223.657 2.729.989.933.612 1.4 1.463 1.4 2.555 0 1.197-.47 2.14-1.408 2.832-.828.606-1.949.91-3.362.91-1.571 0-2.792-.36-3.662-1.076-.87-.718-1.321-1.738-1.353-3.062h2.515c.037.644.203 1.121.499 1.432.464.496 1.163.744 2.096.744.633 0 1.134-.124 1.503-.372.416-.285.625-.673.625-1.163s-.293-.849-.878-1.076c-.322-.126-1.081-.356-2.278-.688-.75-.205-1.335-.4-1.756-.585-.422-.185-.76-.39-1.013-.617-.59-.528-.886-1.255-.886-2.183 0-1.113.462-1.994 1.384-2.642.786-.554 1.807-.831 3.062-.831 1.102 0 2.025.219 2.768.657 1.07.627 1.635 1.642 1.693 3.045ZM24.513 4.234v11.565h-2.54l-4.84-7.879.031 7.879h-2.428V4.234h2.57l4.81 7.863-.032-7.863h2.429ZM26.214 7.896c.026-.949.26-1.745.704-2.389.717-1.033 1.795-1.55 3.235-1.55 1.107 0 2.001.282 2.681.846.733.612 1.1 1.403 1.1 2.373 0 .58-.145 1.082-.435 1.503a2.1 2.1 0 0 1-1.163.847c.622.142 1.113.459 1.471.949.364.49.546 1.084.546 1.78 0 1.144-.422 2.08-1.266 2.808-.78.675-1.766 1.012-2.958 1.012-1.292 0-2.318-.371-3.077-1.115-.754-.744-1.131-1.748-1.131-3.014v-.15h2.223c0 .712.168 1.263.506 1.653.337.385.815.578 1.432.578s1.091-.182 1.424-.546a1.78 1.78 0 0 0 .458-1.226c0-.57-.195-1.02-.585-1.353-.322-.274-.817-.411-1.487-.411-.19 0-.377.01-.562.032V8.822c.137.01.27.016.396.016 1.329 0 1.993-.493 1.993-1.48 0-.432-.145-.78-.435-1.044-.29-.269-.672-.403-1.147-.403-.543 0-.962.169-1.258.506-.295.338-.453.83-.474 1.48h-2.191Z" fill="#FFDE15"/></g><defs><clipPath id="a"><path fill="#fff" d="M0 0h59v20H0z"/></clipPath></defs></svg>