<?xml version="1.0" encoding="utf-8"?>
<!-- Generator: Adobe Illustrator 24.2.0, SVG Export Plug-In . SVG Version: 6.00 Build 0)  -->
<svg version="1.0" xmlns="http://www.w3.org/2000/svg" xmlns:xlink="http://www.w3.org/1999/xlink" x="0px" y="0px"
	 viewBox="0 0 24 24" enable-background="new 0 0 24 24" xml:space="preserve">
<g id="SVG_x5F_24x24pt">
	<path id="backgroundBlue" fill="#2D327D" d="M0,22.5v-21C0,0.675,0.675,0,1.5,0h21C23.325,0,24,0.675,24,1.5v21
		c0,0.825-0.675,1.5-1.5,1.5h-21C0.675,24,0,23.325,0,22.5z"/>
	<g id="content">
		<path fill="#FFFFFF" d="M12,20.992c-0.102,0-0.185-0.083-0.185-0.185V3.181c0-0.102,0.083-0.185,0.185-0.185
			c0.102,0,0.185,0.083,0.185,0.185v17.625C12.185,20.909,12.102,20.992,12,20.992z"/>
		<path fill="#FFFFFF" d="M16.213,4.488c0-0.828,0.672-1.5,1.5-1.5c0.828,0,1.5,0.672,1.5,1.5c0,0.828-0.672,1.5-1.5,1.5
			C16.885,5.988,16.213,5.316,16.213,4.488L16.213,4.488z"/>
		<path fill="#FFFFFF" d="M21,7.875v5.091c0,0.295-0.239,0.534-0.534,0.534c-0.295,0-0.534-0.239-0.534-0.534V8.625h-0.469v11.606
			c0,0.424-0.344,0.769-0.769,0.769c-0.424,0-0.769-0.344-0.769-0.769v-6.75h-0.487v6.75c0,0.424-0.344,0.769-0.769,0.769
			c-0.424,0-0.769-0.344-0.769-0.769V8.625h-0.469v4.341c0,0.295-0.239,0.534-0.535,0.534c-0.295,0-0.534-0.239-0.534-0.534l0,0
			V7.875c0-0.828,0.672-1.5,1.5-1.5H19.5C20.328,6.375,21,7.047,21,7.875L21,7.875z"/>
		<path fill="#FFFFFF" d="M9.761,12.704c0.077,0.21,0.278,0.35,0.501,0.35c0.295,0,0.534-0.239,0.534-0.534
			c0-0.063-0.011-0.126-0.033-0.185l0,0L8.93,7.356C8.712,6.766,8.15,6.375,7.522,6.375H5.824c-0.628,0-1.19,0.392-1.408,0.981l0,0
			l-1.834,4.978c-0.022,0.059-0.033,0.122-0.033,0.185c0,0.295,0.239,0.534,0.534,0.534c0.224,0,0.424-0.14,0.501-0.35h0
			l1.503-4.079h0.499L2.963,15.75h1.928v4.481c0,0.424,0.345,0.768,0.769,0.768c0.425,0,0.769-0.344,0.769-0.768V15.75h0.488v4.481
			c0,0.424,0.344,0.768,0.769,0.768c0.425,0,0.769-0.344,0.769-0.768V15.75h1.929L7.758,8.625h0.5L9.761,12.704L9.761,12.704z"/>
		<path fill="#FFFFFF" d="M8.142,4.488c0-0.828-0.672-1.5-1.5-1.5c-0.828,0-1.5,0.672-1.5,1.5c0,0.828,0.672,1.5,1.5,1.5
			C7.47,5.988,8.142,5.316,8.142,4.488L8.142,4.488z"/>
	</g>
</g>
</svg>
