<svg xmlns="http://www.w3.org/2000/svg" width="24" height="24" fill="none" viewBox="0 0 24 24"><path fill="#000" fill-rule="evenodd" d="M2.5 3H2v14h8v2H7v1h9v-1h-3v-2h8V3H2.5M12 17h-1v2h1zm-9-1V4h17v12zm6.209-3.783A1.44 1.44 0 0 0 9 13c0 .33.09.605.209.783.121.182.234.217.291.217s.17-.035.291-.217c.12-.178.209-.454.209-.783 0-.33-.09-.605-.209-.783C9.67 12.035 9.557 12 9.5 12s-.17.035-.291.217m-.832-.555c.24-.36.628-.662 1.123-.662s.883.301 1.123.662c.243.364.377.839.377 1.338s-.134.974-.377 1.338c-.24.36-.628.662-1.123.662s-.883-.301-1.123-.662C8.134 13.974 8 13.499 8 13s.134-.974.377-1.338M13 7c0-.33.09-.605.209-.783.121-.182.234-.217.291-.217s.17.035.291.217c.12.178.209.454.209.783 0 .33-.09.605-.209.783-.121.182-.234.217-.291.217s-.17-.035-.291-.217A1.44 1.44 0 0 1 13 7m.5-2c-.495 0-.883.301-1.123.662C12.134 6.026 12 6.501 12 7s.134.974.377 1.338c.24.36.628.662 1.123.662s.883-.301 1.123-.662C14.866 7.974 15 7.499 15 7s-.134-.974-.377-1.338C14.383 5.302 13.995 5 13.5 5M6 5v4H5V5zm4 4V5H9v4zm7 6h1v-4h-1zM6 11v4H5v-4zm12-2V5h-1v4zm-4 6h-1v-4h1z" clip-rule="evenodd"/></svg>