<svg xmlns="http://www.w3.org/2000/svg" width="36" height="36" fill="none" viewBox="0 0 36 36"><path fill="#000" fill-rule="evenodd" d="M3 5.75h10.5v-1H3zm13.5 0h6v-1h-6zm6 4.5h-6v-1h6zm3 0H33v-1h-7.5zm7.5-4.5h-7.5v-1H33zm-30 4.5h10.5v-1H3zm10.5 4.5H3v-1h10.5zM3 19.25h10.5v-1H3zm10.5 4.5H3v-1h10.5zM3 28.25h10.5v-1H3zm21.749-12c-3.84-.007-6.99 2.545-6.998 6.251l-1-.002c.009-4.387 3.746-7.257 8-7.249 1.526.003 3.187.515 4.618 1.354.9.526 1.728 1.193 2.381 1.965V16.5h1v4.25H28.5v-1h2.892c-.597-.886-1.49-1.676-2.528-2.283-1.307-.766-2.796-1.214-4.115-1.217m-7.999 9.5H21v1h-2.985c1.163 2.181 3.945 3.5 6.735 3.5 3.842 0 7-2.551 7-6.256h1c0 4.39-3.748 7.256-8 7.256-2.633 0-5.414-1.082-7-3.086v1.841h-1V25.75" clip-rule="evenodd"/></svg>