<svg xmlns="http://www.w3.org/2000/svg" width="48" height="48" fill="none" viewBox="0 0 48 48"><path fill="#000" fill-rule="evenodd" d="m24.094 9.008-.089-.016-.09.016-16.504 2.998L7 12.08V17h2v15H8v3H7v4h34.001v-4h-1v-3h-1V17h2V12.08l-.41-.075zM38.001 32V17h-2v15zm-3 0V17h-5v15zm-6 0V17H27v15zM26 32h-3.999V17H26zm-4.999 0V17h-2v15zm-3 0V17h-5v15zm-6 0V17H10v15zM8 16v-3.085l16.005-2.907 15.996 2.907V16zm5.806 17H9v3H8v2h4.14zm1.054 0h18.28l1.667 5H13.194zm21.001 5h4.14v-2h-1v-3h-4.806z" clip-rule="evenodd"/></svg>