<svg xmlns="http://www.w3.org/2000/svg" width="24" height="24" fill="none" viewBox="0 0 24 24"><path stroke="#000" d="M21.5 12c0 5.304-4.196 9.5-9.5 9.5S2.5 17.304 2.5 12 6.696 2.5 12 2.5s9.5 4.195 9.5 9.5Z" clip-rule="evenodd"/><path fill="#000" d="M14.66 13.254q-.158 1.196-.873 1.857-.715.663-1.84.662-1.511 0-2.308-1.09Q9 13.806 9 12.476q0-1.729.92-2.655.808-.82 2.068-.82 1.137 0 1.822.592.687.591.815 1.681h-1.06q-.106-.539-.381-.86-.446-.517-1.202-.517-1.02 0-1.529.844-.404.668-.404 1.653 0 1.031.41 1.681.51.797 1.465.797.698 0 1.136-.422.44-.422.557-1.195z"/></svg>