<svg class="color-immutable" xmlns="http://www.w3.org/2000/svg" width="59" height="20" fill="none" viewBox="0 0 59 20"><g clip-path="url(#a)"><path fill="#EB0000" fill-rule="evenodd" d="M2 0a2 2 0 0 0-2 2v16a2 2 0 0 0 2 2h55a2 2 0 0 0 2-2V2a2 2 0 0 0-2-2z" clip-rule="evenodd"/><path fill="#fff" d="M9.388 4.2h4.042L8.43 15.8h-4.06zM26.092 12.366a.92.92 0 0 0 .843-.553L30.216 4.2H16.13l-5.001 11.6h4.025l3.786-8.69h5.973l-1.197 2.775-5.209-.019L22.71 15.8h4.582l-3.114-3.434zM44.472 7.121h-2.2q-.307-1.337-1.518-1.337-1.28 0-1.82 1.574-.221.642-.355 1.938.522-.703 1.107-1.012.593-.309 1.424-.309 1.63 0 2.618 1.155.942 1.092.941 2.737 0 1.955-1.265 3.14-1.14 1.068-2.737 1.068-2.048 0-3.188-1.542-1.14-1.55-1.139-4.319 0-2.958 1.218-4.635 1.18-1.622 3.22-1.622 1.922 0 2.942 1.29.585.743.752 1.874m-3.916 2.65q-.83 0-1.32.696-.444.617-.444 1.471 0 .847.451 1.48.49.704 1.345.704.831 0 1.337-.673.474-.633.474-1.495 0-.847-.427-1.447-.522-.736-1.416-.736M45.603 7.896q.039-1.423.704-2.389 1.075-1.55 3.235-1.55 1.661 0 2.682.846 1.1.918 1.1 2.373 0 .87-.436 1.503a2.1 2.1 0 0 1-1.163.847q.934.213 1.472.949.545.736.545 1.78 0 1.716-1.265 2.808-1.17 1.012-2.959 1.012-1.938 0-3.077-1.115-1.13-1.115-1.13-3.014v-.15h2.222q0 1.068.506 1.653.507.578 1.432.578.926 0 1.424-.546a1.78 1.78 0 0 0 .459-1.226q0-.854-.586-1.353-.483-.411-1.487-.411-.285 0-.562.032V8.822q.207.015.396.016 1.993 0 1.993-1.48 0-.648-.435-1.044-.435-.403-1.147-.403-.815 0-1.257.506-.444.506-.475 1.48z"/></g><defs><clipPath id="a"><path fill="#fff" d="M0 0h59v20H0z"/></clipPath></defs></svg>