<svg xmlns="http://www.w3.org/2000/svg" width="13" height="16" fill="none" viewBox="0 0 13 16"><path fill="#000" d="M4.5 13.5h3V15H3v-2.5H1V11h3.5z"/><path fill="#000" d="M7.545 4.001c.354.007.745.104 1.048.406.315.315.407.727.407 1.093 0 .235-.003.323-.006.393-.001.043-.003.079-.003.14l1.595.796a.75.75 0 0 1-.671 1.342l-.9-.45a68 68 0 0 1-.008 1.17c.763.625.993 1.324.993 2.492v2.84a.75.75 0 0 1-1.5 0v-2.84c0-.563-.07-1.032-.508-1.383H7.75v1.25c0 .142-.04.266-.053.303v.004c-.02.06-.04.125-.068.18-.125.24-.27.66-.524 1.073-.216.353-.653.498-1.017.3a.75.75 0 0 1-.299-1.018c.181-.332.268-.536.453-.928l.008-.018V9.209l.332-2.987a9 9 0 0 0-.5.43q-.059.056-.098.097c-.008.085-.018.176-.028.26a108.44 108.44 0 0 1-.174 1.318l-.03.203-.01.076a.75.75 0 0 1-1.484-.212l.01-.075.029-.199a105 105 0 0 0 .169-1.285 11 11 0 0 0 .034-.332V6.5a.9.9 0 0 1 .122-.437 1.4 1.4 0 0 1 .135-.19c.084-.103.188-.21.294-.31.214-.203.492-.435.77-.65.277-.217.57-.429.82-.587.123-.077.252-.153.372-.209.058-.027.134-.06.218-.083a.9.9 0 0 1 .314-.033M8 1a1.25 1.25 0 1 1 0 2.5A1.25 1.25 0 0 1 8 1"/></svg>