<svg width="36" height="36" viewBox="0 0 36 36" fill="none" xmlns="http://www.w3.org/2000/svg"><path fill-rule="evenodd" clip-rule="evenodd" d="M15.6 3.328c.93-.3 1.876.292 2.113 1.193l-.484.127.484-.127.002.006c.18-.131.394-.225.635-.265a15.232 15.232 0 0 1 6.513.34c.657.18 1.073.762 1.124 1.39 2.17.461 3.97 1.534 5.16 2.734.636.64 1.114 1.33 1.376 2.002.26.666.327 1.37.041 1.974-.289.611-.85 1.027-1.497 1.3-.65.273-1.436.424-2.262.476a12.835 12.835 0 0 1-4.576-.58c-.18.444-.555.768-.997.91a9.318 9.318 0 0 0-1.653.708c-.297.164-.617.22-.922.187l.027.102a1.695 1.695 0 0 1-.575 1.74 18.256 18.256 0 0 0-2.523 2.55c-.41.502-1.07.746-1.719.58l-.825-.212c.036.306-.016.629-.175.927a9.438 9.438 0 0 0-.69 1.672 1.587 1.587 0 0 1-.982 1.045c.48 1.437.714 3.127.644 4.614-.04.837-.177 1.635-.439 2.297-.26.658-.665 1.234-1.272 1.534-.604.297-1.31.232-1.977-.028-.673-.263-1.367-.744-2.01-1.384-1.212-1.206-2.303-3.03-2.778-5.23a1.546 1.546 0 0 1-1.316-1.108 15.51 15.51 0 0 1-.4-6.547c.044-.287.163-.537.333-.74-.578-.403-.886-1.147-.652-1.875C5.204 9.806 9.791 5.204 15.6 3.328Zm8.872 9.598c1.323.438 2.901.642 4.27.554.755-.048 1.422-.184 1.937-.4.519-.219.836-.498.981-.805.126-.267.134-.664-.069-1.183-.2-.514-.588-1.093-1.153-1.661-1.046-1.054-2.65-2.022-4.602-2.448l-1.364 5.943Zm-10.595 6.205.04.011 2.199.564a.679.679 0 0 0 .695-.243 19.26 19.26 0 0 1 2.662-2.69.695.695 0 0 0 .244-.714l-.398-1.51-.001-.006-2.192-8.325-.38-1.442c-.104-.394-.502-.606-.839-.497-5.5 1.777-9.85 6.138-11.627 11.667-.112.35.108.753.498.853l9.098 2.333Zm.107 1.79a.568.568 0 0 0-.332-.814l-8.316-2.133c-.334-.085-.655.134-.701.433a14.51 14.51 0 0 0 .375 6.124c.076.27.376.45.681.375l.102.417-.102-.417 7.125-1.728a.577.577 0 0 0 .405-.409c.198-.646.453-1.265.763-1.848Zm-7.627 4.853 5.865-1.423c.455 1.33.684 2.93.618 4.323-.036.768-.161 1.45-.37 1.977-.21.531-.484.855-.785 1.004-.26.128-.651.14-1.17-.063-.514-.2-1.096-.59-1.67-1.161-1.063-1.058-2.046-2.683-2.488-4.657Zm11.736-19.81 2.192 8.325v.003a.557.557 0 0 0 .812.348c.576-.317 1.19-.58 1.83-.785a.578.578 0 0 0 .401-.414l1.649-7.186c.072-.316-.115-.616-.378-.688a14.231 14.231 0 0 0-6.085-.319c-.29.048-.512.372-.421.716Z" fill="#000"/></svg>