<svg xmlns="http://www.w3.org/2000/svg" width="36" height="36" fill="none" viewBox="0 0 36 36"><path fill="#000" fill-rule="evenodd" d="M15.6 3.328c.93-.3 1.876.292 2.113 1.193l-.484.127.484-.127.002.006c.18-.131.394-.225.635-.265a15.2 15.2 0 0 1 6.513.34c.657.18 1.073.762 1.124 1.39 2.171.461 3.97 1.534 5.16 2.734.636.64 1.114 1.33 1.376 2.002.26.666.327 1.37.041 1.974-.289.611-.85 1.027-1.497 1.3-.65.273-1.436.424-2.262.476a12.8 12.8 0 0 1-4.576-.58c-.18.444-.555.768-.997.91a9.3 9.3 0 0 0-1.653.708c-.297.164-.617.22-.922.187l.027.102a1.7 1.7 0 0 1-.575 1.74 18.3 18.3 0 0 0-2.523 2.55c-.41.502-1.07.746-1.719.58l-.825-.212a1.57 1.57 0 0 1-.175.927 9.5 9.5 0 0 0-.69 1.672 1.59 1.59 0 0 1-.982 1.045c.48 1.437.714 3.127.644 4.614-.04.837-.177 1.635-.439 2.297-.26.658-.665 1.234-1.272 1.534-.604.297-1.31.232-1.977-.028-.673-.263-1.367-.744-2.01-1.384-1.212-1.206-2.303-3.03-2.778-5.23a1.55 1.55 0 0 1-1.316-1.108 15.5 15.5 0 0 1-.4-6.547c.044-.287.163-.537.334-.74-.579-.403-.887-1.147-.653-1.875C5.204 9.806 9.791 5.204 15.6 3.328m8.872 9.598c1.323.438 2.901.642 4.27.554.755-.048 1.422-.184 1.937-.4.519-.219.836-.498.981-.805.126-.267.134-.664-.069-1.183-.2-.514-.588-1.093-1.153-1.661-1.046-1.054-2.65-2.022-4.602-2.448zm-10.595 6.205.04.011 2.199.564a.68.68 0 0 0 .695-.243 19.3 19.3 0 0 1 2.662-2.69.7.7 0 0 0 .244-.714l-.398-1.51-.001-.006-2.572-9.767c-.104-.394-.502-.606-.839-.497-5.5 1.777-9.85 6.138-11.627 11.667-.112.35.108.753.498.853zm.107 1.79a.567.567 0 0 0-.332-.814l-8.316-2.133c-.334-.085-.655.134-.701.433a14.5 14.5 0 0 0 .375 6.124c.076.27.376.45.681.375l.118.486-.118-.486 7.125-1.728a.58.58 0 0 0 .406-.409c.197-.646.452-1.265.762-1.848m-7.627 4.853 5.865-1.423c.455 1.33.684 2.93.618 4.323-.036.768-.161 1.45-.37 1.977-.21.531-.484.855-.785 1.004-.26.128-.651.14-1.17-.063-.514-.2-1.095-.59-1.669-1.161-1.064-1.058-2.047-2.683-2.489-4.657m13.928-11.485v.003a.557.557 0 0 0 .812.348c.576-.317 1.19-.58 1.83-.785a.58.58 0 0 0 .401-.414l1.649-7.186c.072-.316-.115-.616-.378-.688a14.2 14.2 0 0 0-6.085-.319c-.29.048-.512.372-.421.716z" clip-rule="evenodd"/></svg>