<svg xmlns="http://www.w3.org/2000/svg" width="36" height="36" fill="none" viewBox="0 0 36 36"><path fill="#000" fill-rule="evenodd" d="M10.952 11.659 8.92 9.628v2.598h-1V8.628L5.876 6.583v4.881l-.5.001h-.5V5.583L3.5 4.207l.707-.707 28.924 28.923-.708.708-5.235-5.236v4.12h-1v-5.12l-7.319-7.318h-2.337v12.439h-1V16.239l-3.73-3.73c-.063.22-.15.46-.27.702-.22.44-.558.895-1.074 1.239-.413.275-.92.466-1.537.533v17.033h-1V14.983c-.617-.067-1.125-.258-1.538-.533a3.17 3.17 0 0 1-1.074-1.24 4.2 4.2 0 0 1-.433-1.728v-.017h1v.018q0 .024.005.077a3.242 3.242 0 0 0 .323 1.204c.16.32.393.627.734.854.337.225.809.392 1.482.392.674 0 1.146-.167 1.483-.392.34-.227.574-.533.734-.854a3.2 3.2 0 0 0 .314-1.105m5.58 5.58 1.337 1.337h-1.337zM10.965 4.615v3.044h1V4.615zm5.067.26v.5zh.006l.011.001a2 2 0 0 1 .15.007 4.242 4.242 0 0 1 1.58.426c.44.22.894.558 1.238 1.074.346.52.56 1.189.56 2.037v6.85h-1V8.42c0-.673-.167-1.145-.392-1.482a2.2 2.2 0 0 0-.854-.734 3.2 3.2 0 0 0-.799-.268v6.29h-1v-7.35zm9.434 1.472c-.61.457-1.322 1.434-1.322 3.596s.713 3.139 1.322 3.596c.316.237.632.355.868.414a2 2 0 0 0 .345.056h.018q.021 0 .069-.005a2 2 0 0 0 .277-.05c.235-.06.551-.178.867-.415.61-.457 1.323-1.435 1.323-3.596s-.713-3.14-1.323-3.596a2.4 2.4 0 0 0-.867-.415 2 2 0 0 0-.346-.056h-.018l-.068.006a2 2 0 0 0-.277.05 2.4 2.4 0 0 0-.868.415m1.222-.971v-.5h-.021a2 2 0 0 0-.163.012 3 3 0 0 0-.413.074c-.335.084-.78.251-1.225.585-.913.684-1.722 1.99-1.722 4.396s.809 3.711 1.722 4.396a3.4 3.4 0 0 0 1.322.607v7.936h1v-7.936q.047-.01.097-.023c.335-.084.78-.25 1.226-.584.912-.685 1.722-1.99 1.722-4.396s-.81-3.712-1.723-4.396c-.444-.334-.89-.501-1.225-.585a3 3 0 0 0-.576-.086h-.02z" clip-rule="evenodd"/></svg>