<?xml version="1.0" encoding="utf-8"?>
<!-- Generator: Adobe Illustrator 25.1.0, SVG Export Plug-In . SVG Version: 6.00 Build 0)  -->
<svg version="1.0" xmlns="http://www.w3.org/2000/svg" xmlns:xlink="http://www.w3.org/1999/xlink" x="0px" y="0px"
	 viewBox="0 0 24 24" enable-background="new 0 0 24 24" xml:space="preserve">
<g id="SVG_x5F_24x24pt">
	<path id="backgroundBlue" fill="#2D327D" d="M0,22.5v-21C0,0.675,0.675,0,1.5,0h21C23.325,0,24,0.675,24,1.5v21
		c0,0.825-0.675,1.5-1.5,1.5h-21C0.675,24,0,23.325,0,22.5z"/>
	<g id="content">
		<path fill="#FFFFFF" d="M11.799,12.254h0.42c0.05,0,0.09-0.041,0.09-0.09v-0.93c0-0.165-0.135-0.3-0.3-0.3
			c-0.165,0-0.3,0.135-0.3,0.3v0.93C11.709,12.214,11.749,12.254,11.799,12.254z"/>
		<path fill="#FFFFFF" d="M12.234,12.494v7.591c0,0.049,0.041,0.09,0.09,0.09h1.034c0.165,0,0.315-0.136,0.334-0.303
			c0,0,0.157-1.408,0.157-3.583c0-2.174-0.157-3.582-0.157-3.582c-0.019-0.166-0.169-0.303-0.334-0.303h-1.034
			C12.274,12.404,12.234,12.445,12.234,12.494z"/>
		<path fill="#FFFFFF" d="M10.326,12.707c0,0-0.157,1.408-0.157,3.582c0,2.174,0.157,3.583,0.157,3.583
			c0.019,0.166,0.169,0.303,0.334,0.303h1.034c0.05,0,0.09-0.04,0.09-0.09v-7.591c0-0.049-0.04-0.09-0.09-0.09h-1.034
			C10.495,12.404,10.345,12.541,10.326,12.707z"/>
		<rect x="3" y="20.7" fill="#FFFFFF" width="18" height="0.3"/>
		<path fill="#FFFFFF" d="M15.477,17.284c0.158,0.12,0.354,0.191,0.568,0.191h4.505c0.248,0,0.45-0.203,0.45-0.45V15.9
			c0-0.247-0.202-0.45-0.45-0.45h-3.79l-0.643-2.025l3.331,0.001c0.352,0,0.637-0.285,0.637-0.637c0-0.352-0.285-0.637-0.637-0.637
			l-3.736-0.002l-1.538-4.874h-1.5l2.469,9.525C15.201,16.995,15.32,17.164,15.477,17.284z M13.955,7.575l1.538,4.874l3.956,0.002
			c0.186,0,0.337,0.151,0.337,0.338c0,0.186-0.151,0.337-0.337,0.337l-3.741-0.001l0.833,2.625h4.009c0.081,0,0.15,0.069,0.15,0.15
			v1.125c0,0.081-0.069,0.15-0.15,0.15h-4.505c-0.141,0-0.274-0.045-0.386-0.13c-0.107-0.082-0.187-0.197-0.226-0.325l-2.371-9.145
			H13.955z"/>
		<path fill="#FFFFFF" d="M14.167,6.825l0.803-0.876c0.168-0.176,0.18-0.288,0.18-0.45l0-2.049C15.15,3.202,14.948,3,14.7,3h-1.575
			c-0.248,0-0.45,0.202-0.45,0.45l0,3.375H14.167z M13.125,3.3H14.7c0.083,0,0.15,0.067,0.15,0.15l0,2.05
			c0,0.113,0,0.14-0.099,0.244l-0.716,0.781h-1.06l0-3.075C12.975,3.367,13.042,3.3,13.125,3.3z"/>
		<path fill="#FFFFFF" d="M3.45,17.475h4.505c0.214,0,0.41-0.071,0.568-0.191c0.157-0.12,0.276-0.289,0.333-0.484l2.469-9.525h-1.5
			l-1.538,4.874l-3.736,0.002c-0.352,0-0.638,0.285-0.638,0.637c0,0.352,0.285,0.637,0.638,0.637l3.331-0.001L7.239,15.45H3.45
			C3.202,15.45,3,15.653,3,15.9v1.125C3,17.272,3.202,17.475,3.45,17.475z M3.3,15.9c0-0.081,0.069-0.15,0.15-0.15h4.009
			l0.833-2.625l-3.741,0.001c-0.186,0-0.337-0.151-0.337-0.337c0-0.186,0.151-0.338,0.338-0.338l3.956-0.002l1.538-4.874h0.893
			L8.566,16.72c-0.038,0.128-0.118,0.244-0.226,0.325c-0.112,0.085-0.245,0.13-0.386,0.13H3.45c-0.081,0-0.15-0.069-0.15-0.15V15.9z
			"/>
		<path fill="#FFFFFF" d="M9.833,6.825h1.492l0-3.375c0-0.248-0.202-0.45-0.45-0.45H9.3C9.052,3,8.85,3.202,8.85,3.45l0,2.049
			c0,0.162,0.011,0.273,0.18,0.45L9.833,6.825z M9.15,3.45c0-0.083,0.067-0.15,0.15-0.15h1.575c0.083,0,0.15,0.067,0.15,0.15
			l0,3.075h-1.06L9.249,5.744C9.15,5.64,9.15,5.613,9.15,5.5L9.15,3.45z"/>
	</g>
</g>
</svg>
