<svg xmlns="http://www.w3.org/2000/svg" width="36" height="36" version="1.1" viewBox="0 0 36 36">
  <path fill="none" fill-rule="evenodd" stroke="#000" stroke-width="1" d="M3.75,26.2515 L32.25,26.2515 L32.25,20.2515 L3.75,20.2515 L3.75,26.2515 Z M3.75,14.25 L32.25,14.25 L32.25,8.25 L3.75,8.25 L3.75,14.25 Z M8.25,26.25 L8.25,32.25 L11.25,32.25 L11.25,26.25 M24.75,26.25 L24.75,32.25 L27.75,32.25 L27.75,26.25 M8.25,14.25 L8.25,20.25 M11.25,14.25 L11.25,20.25 M8.25,8.25 L8.25,5.25 C8.25,4.422 8.922,3.75 9.75,3.75 C10.578,3.75 11.25,4.422 11.25,5.25 L11.25,8.25 M24.75,20.25 L24.75,14.25 M27.75,20.25 L27.75,14.25 M27.75,8.25 L27.75,5.25 C27.75,4.422 27.078,3.75 26.25,3.75 C25.422,3.75 24.75,4.422 24.75,5.25 L24.75,8.25 M8.25,14.25 L14.25,8.25 M21.75,14.25 L27.75,8.25 M14.25,26.25 L20.25,20.25 M3.75,26.25 L9.75,20.25 M24.75,26.25 L30.75,20.25"/>
</svg>
