<svg xmlns="http://www.w3.org/2000/svg" width="16" height="16" fill="none" viewBox="0 0 16 16"><path fill="#000" d="M5.5 14h-1v-1.793l-1.98 1.979-.707-.707 1.98-1.98H2v-1h3.5zm7.834-2.5H11.54l1.98 1.979-.708.707-1.98-1.98V14h-1v-3.5h3.5zM7.667 5.833c1.392 0 2.5 1.107 2.5 2.5 0 1.392-1.108 2.5-2.5 2.5a2.486 2.486 0 0 1-2.5-2.5c0-1.393 1.108-2.5 2.5-2.5m0 1c-.84 0-1.5.66-1.5 1.5s.66 1.5 1.5 1.5 1.5-.66 1.5-1.5-.66-1.5-1.5-1.5M4.5 4.459V2.667h1v3.5H2v-1h1.793l-1.98-1.98.707-.707zm9.02-1.272-1.98 1.98h1.794v1h-3.5v-3.5h1v1.792l1.98-1.979z"/></svg>