<?xml version="1.0" encoding="utf-8"?>
<!-- Generator: Adobe Illustrator 24.2.0, SVG Export Plug-In . SVG Version: 6.00 Build 0)  -->
<svg version="1.0" id="Ebene_1" xmlns="http://www.w3.org/2000/svg" xmlns:xlink="http://www.w3.org/1999/xlink" x="0px" y="0px"
	 viewBox="0 0 24 24" enable-background="new 0 0 24 24" xml:space="preserve">
<g id="SVG_x5F_24x24pt">
	<path id="backgroundBlue" fill="#2D327D" d="M0,22.5v-21C0,0.675,0.675,0,1.5,0h21C23.325,0,24,0.675,24,1.5v21
		c0,0.825-0.675,1.5-1.5,1.5h-21C0.675,24,0,23.325,0,22.5z"/>
	<g id="content">
		<g>
			<path fill="#FFFFFF" d="M14.789,13.919H5.653c-0.119-0.178-0.322-0.295-0.552-0.295c-0.367,0-0.665,0.298-0.665,0.665
				c0,0.367,0.298,0.665,0.665,0.665c0.243,0,0.453-0.131,0.569-0.326h2.025v2.22h-2.81v0.709h9.904c1.003,0,1.82-0.816,1.82-1.82
				S15.792,13.919,14.789,13.919z M14.789,16.848H8.404v-2.22h6.385c0.612,0,1.11,0.498,1.11,1.11
				C15.899,16.35,15.401,16.848,14.789,16.848z"/>
		</g>
		<rect x="3" y="3" fill="#FFFFFF" width="0.712" height="18"/>
		<path fill="#FFFFFF" d="M14.289,13.387l-0.711-0.71v-0.575l0.485,0.488c-0.118-2.299-1.967-4.148-4.266-4.266l0.488,0.485H9.711
			L9,8.098l0.711-0.711h0.574L9.786,7.883c2.55,0.113,4.605,2.168,4.718,4.718L15,12.102v0.575L14.289,13.387z"/>
		<path fill="#FFFFFF" d="M4.838,13.122V4.598c0-0.945,0.769-1.713,1.713-1.713c0.945,0,1.714,0.769,1.714,1.713v8.789h0.213V4.598
			c0-1.062-0.864-1.926-1.926-1.926c-1.062,0-1.926,0.864-1.926,1.926v8.593C4.693,13.161,4.765,13.138,4.838,13.122z"/>
		<path fill="#FFFFFF" d="M5.335,13.116c0.073,0.015,0.144,0.036,0.213,0.064v-1.38h2.008v1.588h0.213v-1.8H5.335V13.116z"/>
		<path fill="#FFFFFF" d="M6.551,3.382c-0.671,0-1.216,0.546-1.216,1.216v6.492h2.433V4.598C7.768,3.927,7.222,3.382,6.551,3.382z
			 M7.555,10.877H5.548V4.598c0-0.553,0.45-1.004,1.004-1.004c0.554,0,1.004,0.45,1.004,1.004V10.877z"/>
	</g>
</g>
</svg>
