<svg class="color-immutable" xmlns="http://www.w3.org/2000/svg" width="59" height="20" fill="none" viewBox="0 0 59 20"><path fill="#E84E10" fill-rule="evenodd" d="M2 0a2 2 0 0 0-2 2v16a2 2 0 0 0 2 2h55a2 2 0 0 0 2-2V2a2 2 0 0 0-2-2z" clip-rule="evenodd"/><path fill="#000" d="M14.153 4.17v2.142H7.98v2.476h5.657v1.991H7.98v2.849h6.284v2.142H5.45V4.17zM25.311 4.17l-3.856 11.6h-2.88l-3.8-11.6h2.65l2.61 8.688 2.65-8.688zM33.034 4.17v2.063H28.36l-.5 2.61q.842-.888 2.15-.888 1.286 0 2.238.69 1.413 1.039 1.413 3.158 0 2.079-1.508 3.293-1.175.951-2.809.952-1.84 0-2.96-.984-1.118-.992-1.182-2.674h2.278q.055.61.396 1.04.533.674 1.476.674.913 0 1.444-.659.516-.643.516-1.563 0-1-.54-1.595-.54-.603-1.436-.603-1.095 0-1.706.984l-2.07-.031 1.102-6.467zM42.415 13.707v2.063H34.06q0-.945.301-1.801a4.4 4.4 0 0 1 .865-1.476 8 8 0 0 1 1-.928q.579-.452 2.293-1.659.833-.578 1.166-1.079a2.04 2.04 0 0 0 .333-1.158q0-.762-.452-1.23-.444-.476-1.174-.476-1.794 0-1.849 2.579h-2.23v-.254q0-2.11 1.183-3.27 1.15-1.125 2.975-1.126 1.62 0 2.706.92 1.182 1 1.182 2.69 0 1.475-.944 2.54-.31.348-.58.563-.27.206-1.42 1.007-1.095.762-1.57 1.167-.47.405-.873.928z"/></svg>