<svg xmlns="http://www.w3.org/2000/svg" width="48" height="48" fill="none" viewBox="0 0 48 48"><path fill="#000" fill-rule="evenodd" d="M13.499 3c-1.175 0-2.255.23-3.06.633C9.668 4.018 9.013 4.64 9 5.475L8.81 7.64q-.547.183-1.03.413C6.395 8.71 5.341 9.683 5.07 10.9l-.007.034-.003.035-2.014 25.085a9 9 0 0 0-.047.942C3 42.019 6.978 46 11.999 46c5.018 0 8.998-3.977 9.001-9h6c.003 5.022 3.98 9 8.999 9S45 42.02 45 36.995q0-.476-.047-.936L42.94 10.968l-.003-.035-.007-.034c-.271-1.216-1.325-2.189-2.707-2.846a9 9 0 0 0-1.03-.413L39 5.475c-.013-.835-.667-1.457-1.439-1.842-.805-.402-1.885-.633-3.06-.633s-2.256.23-3.061.633C30.66 4.022 30 4.652 30 5.499V7.95a8 8 0 0 0-.555.268C28.026 8.976 27 10.11 27 11.498V13h-6v-1.502c0-1.389-1.024-2.522-2.445-3.279A8 8 0 0 0 18 7.951V5.499c0-.847-.66-1.477-1.44-1.866C15.755 3.23 14.674 3 13.5 3M27 14h-6v19h6zm0 20v2h-6v-2zm1 2.995C28 41.468 31.53 45 35.999 45S44 41.468 44 36.995a8 8 0 0 0-.024-.635h-.002l-.016-.207C43.547 32.088 40.183 29 35.999 29 31.529 29 28 32.522 28 36.995m0-4.17V11.498c0-.847.633-1.713 1.916-2.396C31.18 8.428 32.97 8 35 8c1.877 0 3.55.367 4.791.957s1.967 1.357 2.153 2.128l1.695 21.109C42.058 29.66 39.246 28 35.999 28c-3.51 0-6.511 1.94-7.999 4.825M38.002 5.543l.16 1.806A14 14 0 0 0 35 6.999c-1.457 0-2.824.208-4.001.578V5.499c0-.27.223-.64.887-.971C32.523 4.21 33.443 4 34.5 4s1.977.21 2.613.527c.663.332.886.701.886.972v.022zM20 11.498c0-.847-.633-1.713-1.916-2.396C16.82 8.428 15.03 8 13 8c-1.877 0-3.55.367-4.791.957s-1.967 1.357-2.153 2.128L4.36 32.192C5.941 29.66 8.752 28 12 28c3.51 0 6.513 1.94 8.001 4.827zm0 25.497C20 32.522 16.468 29 11.999 29c-4.183 0-7.543 3.085-7.956 7.147l-.017.213h-.002Q4 36.673 4 36.995C4 41.468 7.53 45 11.999 45S20 41.468 20 36.995M13 7c-1.124 0-2.193.123-3.162.349l.16-1.806L10 5.52v-.022c0-.27.223-.64.886-.971C11.522 4.21 12.442 4 13.499 4c1.058 0 1.978.21 2.614.528.664.33.887.7.887.97v2.079C15.823 7.207 14.456 7 13 7m22.999 24C32.647 31 30 33.64 30 36.996S32.648 43 35.999 43C39.352 43 42 40.35 42 36.996 42 33.64 39.352 31 35.999 31M29 36.996C29 33.088 32.095 30 35.999 30S43 33.088 43 36.996A6.954 6.954 0 0 1 35.999 44C32.094 44 29 40.902 29 36.996M35.999 33A3.96 3.96 0 0 0 32 36.997h-1A4.96 4.96 0 0 1 35.999 32zm-24-2C8.647 31 6 33.64 6 36.996S8.647 43 11.999 43C15.352 43 18 40.35 18 36.996 18 33.64 15.352 31 11.999 31M5 36.996C5 33.088 8.095 30 11.999 30S19 33.088 19 36.996A6.954 6.954 0 0 1 11.999 44C8.095 44 5 40.902 5 36.996m3 .001A3.96 3.96 0 0 1 11.999 33v-1A4.96 4.96 0 0 0 7 36.997z" clip-rule="evenodd"/></svg>