<svg class="color-immutable" xmlns="http://www.w3.org/2000/svg" width="59" height="20" fill="none" viewBox="0 0 59 20"><g clip-path="url(#a)"><path fill="#EB0000" fill-rule="evenodd" d="M2 0a2 2 0 0 0-2 2v16a2 2 0 0 0 2 2h55a2 2 0 0 0 2-2V2a2 2 0 0 0-2-2z" clip-rule="evenodd"/><path fill="#fff" d="M47.515 9.59q-.807-.277-1.237-.91t-.431-1.534q0-1.503 1.233-2.397 1.092-.79 2.595-.791 1.709 0 2.792.941 1.028.886 1.028 2.191 0 .91-.435 1.558-.435.65-1.234.942.625.182 1.02.466 1.1.8 1.1 2.334 0 1.764-1.352 2.808-1.14.878-2.927.878-1.938 0-3.085-.965-1.194-1.005-1.194-2.634 0-1.527 1.06-2.365a2.9 2.9 0 0 1 1.067-.522m2.112.87q-.855 0-1.396.526-.541.525-.541 1.349 0 .846.55 1.376t1.427.53q.996 0 1.495-.585.483-.562.482-1.298 0-.838-.553-1.376-.531-.522-1.464-.522m.016-4.706q-.76 0-1.226.423-.467.423-.467 1.111 0 .72.471 1.15.47.432 1.262.432.79 0 1.25-.427.458-.427.458-1.163 0-.72-.462-1.123-.463-.404-1.286-.403M4.28 16 6.707 4.483h2.409L6.69 16zM8.939 16l2.409-11.517h2.722c2.129 0 4.587-.033 4.587 2.723 0 1.98-1.485 3.036-3.366 3.069v.032c.627.034 1.023.43 1.172 1.057L17.568 16h-2.425l-.561-2.706c-.264-1.22-.198-2.079-1.452-2.079h-.875L11.25 16zm4.372-9.702L12.668 9.4h.841c1.238 0 2.74-.38 2.74-1.897 0-1.205-1.04-1.205-1.98-1.205zM19.19 16l2.426-11.517h6.782l-.347 1.815h-4.504l-.594 2.838h4.026l-.363 1.815h-4.043l-.676 3.234h4.554L26.055 16z"/></g><defs><clipPath id="a"><path fill="#fff" d="M0 0h59v20H0z"/></clipPath></defs></svg>