<svg class="color-immutable" xmlns="http://www.w3.org/2000/svg" width="59" height="20" fill="none" viewBox="0 0 59 20"><g clip-path="url(#a)"><path stroke="#fff" d="M2 .5h55A1.5 1.5 0 0 1 58.5 2v16a1.5 1.5 0 0 1-1.5 1.5H2A1.5 1.5 0 0 1 .5 18V2A1.5 1.5 0 0 1 2 .5Z"/><path fill="#fff" d="M12.877 7.71h-2.449q-.072-.863-.644-1.314-.564-.459-1.587-.459-.91 0-1.418.363-.5.355-.5.999 0 .58.483.838.468.258 2.37.725 2.005.5 2.779 1.007 1.425.934 1.426 2.602 0 1.829-1.434 2.884-1.266.927-3.424.927-2.401 0-3.73-1.096T3.37 12.068h2.562q.056.984.507 1.459.71.757 2.135.757.967 0 1.531-.379.636-.434.636-1.184t-.894-1.096q-.49-.193-2.32-.7-1.144-.315-1.789-.597-.644-.282-1.031-.628-.903-.806-.902-2.224 0-1.7 1.41-2.69 1.2-.847 3.118-.847 1.683 0 2.82.669 1.635.96 1.723 3.102M21.957 4.221v2.095h-4.745l-.508 2.65q.854-.902 2.184-.902 1.305 0 2.272.701 1.434 1.056 1.434 3.207 0 2.11-1.531 3.343-1.193.967-2.852.967-1.87 0-3.005-.999-1.137-1.007-1.2-2.715h2.312q.055.62.402 1.055.54.685 1.499.685.926 0 1.466-.669.525-.652.524-1.587 0-1.014-.548-1.62-.547-.61-1.458-.611-1.112 0-1.732.999l-2.103-.033 1.12-6.566zM25.293 9.676q-.822-.282-1.265-.927-.435-.644-.435-1.563 0-1.53 1.257-2.441 1.111-.806 2.642-.806 1.74 0 2.844.959 1.048.902 1.048 2.232 0 .925-.444 1.587-.443.66-1.256.959.636.185 1.039.475 1.12.814 1.12 2.377 0 1.795-1.378 2.86-1.16.894-2.98.894-1.975 0-3.143-.983-1.216-1.023-1.216-2.683 0-1.555 1.08-2.409.491-.379 1.087-.531m2.167-3.908q-.774 0-1.249.435-.475.427-.475 1.128 0 .733.475 1.176.483.435 1.29.435.804 0 1.272-.435.468-.434.468-1.184 0-.733-.476-1.144-.466-.41-1.305-.41m-.016 4.794q-.87 0-1.426.54-.548.53-.548 1.37 0 .861.556 1.401.564.54 1.458.54 1.016 0 1.523-.596.49-.572.491-1.322 0-.854-.564-1.401-.54-.532-1.49-.532"/></g><defs><clipPath id="a"><path fill="#fff" d="M0 0h59v20H0z"/></clipPath></defs></svg>