<?xml version="1.0" encoding="utf-8"?>
<!-- Generator: Adobe Illustrator 24.2.0, SVG Export Plug-In . SVG Version: 6.00 Build 0)  -->
<svg version="1.0" id="Ebene_1" xmlns="http://www.w3.org/2000/svg" xmlns:xlink="http://www.w3.org/1999/xlink" x="0px" y="0px"
	 viewBox="0 0 24 24" enable-background="new 0 0 24 24" xml:space="preserve">
<g id="SVG_x5F_24x24pt">
	<path id="backgroundBlue" fill="#2D327D" d="M0,22.5v-21C0,0.675,0.675,0,1.5,0h21C23.325,0,24,0.675,24,1.5v21
		c0,0.825-0.675,1.5-1.5,1.5h-21C0.675,24,0,23.325,0,22.5z"/>
	<g id="content">
		<polygon fill="#FFFFFF" points="3,10.875 18.6,10.875 18.6,13.125 3,13.125 3,10.875 		"/>
		<path fill="#FFFFFF" d="M11.628,4.087v0.225c0,3.001,2.436,5.438,5.438,5.438h0.75V8.624h-0.75c-2.38,0-4.312-1.932-4.312-4.312
			V4.087H11.628L11.628,4.087z"/>
		<path fill="#FFFFFF" d="M17.813,6.375h-0.75C15.924,6.375,15,5.451,15,4.312V4.087h-1.125v0.225c0,1.76,1.428,3.187,3.188,3.187
			h0.75c1.138,0,2.062,0.924,2.062,2.063V9.75H21V9.562C21,7.803,19.572,6.375,17.813,6.375L17.813,6.375z"/>
		<polygon fill="#FFFFFF" points="19.875,10.875 21,10.875 21,13.125 19.875,13.125 19.875,10.875 		"/>
	</g>
</g>
</svg>
