<?xml version="1.0" encoding="utf-8"?>
<!-- Generator: Adobe Illustrator 24.2.0, SVG Export Plug-In . SVG Version: 6.00 Build 0)  -->
<svg version="1.0" id="Ebene_1" xmlns="http://www.w3.org/2000/svg" xmlns:xlink="http://www.w3.org/1999/xlink" x="0px" y="0px"
	 viewBox="0 0 24 24" enable-background="new 0 0 24 24" xml:space="preserve">
<g id="SVG_x5F_24x24pt">
	<path id="backgroundBlue" fill="#2D327D" d="M0,22.5v-21C0,0.675,0.675,0,1.5,0h21C23.325,0,24,0.675,24,1.5v21
		c0,0.825-0.675,1.5-1.5,1.5h-21C0.675,24,0,23.325,0,22.5z"/>
	<g id="content">
		<path fill="#FFFFFF" d="M6.375,8.25H3V7.5h15.074l0,0c0.611,0,1.145,0.41,1.304,1l1.576,5.869C20.985,14.483,21,14.601,21,14.719
			v3.806c0,0.331-0.269,0.6-0.6,0.6h-6.976c-0.331,0-0.6-0.269-0.6-0.6c0-0.004,0-0.007,0-0.011l0,0
			c0.001-0.021,0.001-0.043,0.001-0.064c0-1.904-1.546-3.45-3.45-3.45c-1.904,0-3.45,1.546-3.45,3.45c0,0.021,0,0.043,0.001,0.064
			l0,0c0,0.004,0,0.007,0,0.011c0,0.331-0.269,0.6-0.6,0.6H3V13.5h3.375c0.207,0,0.375-0.168,0.375-0.375v-4.5
			C6.75,8.418,6.582,8.25,6.375,8.25L6.375,8.25z M17.438,14.625c0,0.207,0.168,0.375,0.375,0.375h2.045
			c0.207,0,0.375-0.168,0.375-0.375c0-0.033-0.004-0.066-0.013-0.097l-1.586-5.908c-0.07-0.262-0.308-0.444-0.58-0.444h-0.016
			c-0.331,0-0.6,0.269-0.6,0.6V14.625L17.438,14.625z M15.488,14.475c0,0.331,0.269,0.6,0.6,0.6c0.331,0,0.6-0.269,0.6-0.6v-5.7
			c0-0.331-0.269-0.6-0.6-0.6c-0.331,0-0.6,0.269-0.6,0.6V14.475L15.488,14.475z M13.538,14.475c0,0.331,0.269,0.6,0.6,0.6
			c0.331,0,0.6-0.269,0.6-0.6v-5.7c0-0.331-0.269-0.6-0.6-0.6c-0.331,0-0.6,0.269-0.6,0.6V14.475L13.538,14.475z M7.5,13.125
			c0,0.207,0.168,0.375,0.375,0.375h4.537c0.207,0,0.375-0.168,0.375-0.375v-4.5c0-0.207-0.168-0.375-0.375-0.375H7.875
			C7.668,8.25,7.5,8.418,7.5,8.625V13.125L7.5,13.125z"/>
		<path fill="#FFFFFF" d="M9.351,15.847c1.449,0,2.625,1.176,2.625,2.625c0,1.449-1.176,2.625-2.625,2.625
			c-1.449,0-2.625-1.176-2.625-2.625C6.727,17.023,7.902,15.847,9.351,15.847L9.351,15.847z M9.351,19.916
			c0.828,0,1.5-0.672,1.5-1.5c0-0.828-0.672-1.5-1.5-1.5c-0.828,0-1.5,0.672-1.5,1.5C7.852,19.244,8.524,19.916,9.351,19.916
			L9.351,19.916z"/>
	</g>
</g>
</svg>
