<?xml version="1.0" encoding="utf-8"?>
<!-- Generator: Adobe Illustrator 24.2.0, SVG Export Plug-In . SVG Version: 6.00 Build 0)  -->
<svg version="1.0" id="Ebene_1" xmlns="http://www.w3.org/2000/svg" xmlns:xlink="http://www.w3.org/1999/xlink" x="0px" y="0px"
	 viewBox="0 0 24 24" enable-background="new 0 0 24 24" xml:space="preserve">
<g id="SVG_x5F_24x24pt">
	<path id="backgroundBlue" fill="#2D327D" d="M0,22.5v-21C0,0.675,0.675,0,1.5,0h21C23.325,0,24,0.675,24,1.5v21
		c0,0.825-0.675,1.5-1.5,1.5h-21C0.675,24,0,23.325,0,22.5z"/>
	<g id="content">
		<polygon fill="#FFFFFF" points="10.765,9.591 17.355,3 18.363,3 11.269,10.094 10.765,9.591 		"/>
		<path fill="#FFFFFF" d="M7.874,7.231l3.278,3.278c0.103,0.101,0.16,0.241,0.16,0.384c0,0.3-0.243,0.543-0.544,0.543
			c-0.143,0-0.281-0.057-0.384-0.159L7.874,8.769V7.231L7.874,7.231z"/>
		<polygon fill="#FFFFFF" points="8.738,12.624 8.235,12.121 9.466,10.891 9.969,11.394 8.738,12.624 		"/>
		<path fill="#FFFFFF" d="M3.109,8.59l2.117-2.118c0.251-0.25,0.589-0.39,0.942-0.39c0.735,0,1.331,0.597,1.331,1.331v4.502
			l1.653,1.653c0.071,0.071,0.11,0.166,0.11,0.266v4.222c0,0.384-0.31,0.694-0.693,0.694c-0.384,0-0.695-0.31-0.695-0.694v-3.432
			l-2.922-2.81c-0.074-0.071-0.115-0.168-0.115-0.27V8.347l-0.75,0.75v2.772c0,0.3-0.243,0.543-0.544,0.543
			c-0.3,0-0.542-0.243-0.542-0.543V8.856C3,8.755,3.039,8.661,3.109,8.59L3.109,8.59z"/>
		<path fill="#FFFFFF" d="M16.272,17.298c0.212-0.142,0.36-0.362,0.414-0.611h0.863c-0.045,0.357-0.213,0.688-0.475,0.936
			c-0.398,0.357-0.879,0.61-1.4,0.736L3,21v-0.69l12.17-2.536C15.565,17.691,15.94,17.529,16.272,17.298L16.272,17.298z"/>
		<path fill="#FFFFFF" d="M5.957,14.43c0-0.3,0.243-0.544,0.544-0.544c0.299,0,0.543,0.244,0.543,0.544
			c0,0.3-0.243,0.544-0.543,0.544C6.2,14.974,5.957,14.73,5.957,14.43L5.957,14.43z"/>
		<path fill="#FFFFFF" d="M6.157,5.838c-0.641,0-1.162-0.521-1.162-1.162c0-0.643,0.52-1.163,1.162-1.163
			c0.642,0,1.163,0.52,1.163,1.163C7.321,5.317,6.799,5.838,6.157,5.838L6.157,5.838z"/>
	</g>
</g>
</svg>
