<svg xmlns="http://www.w3.org/2000/svg" width="36" height="36" fill="none" viewBox="0 0 36 36"><path fill="#000" fill-rule="evenodd" d="M3.25 3.25h14.809l-.362.724-2.947 5.894v2.39c7.335.258 13.234 6.157 13.491 13.492h4.509v7H3.25V3.25m1 7h9.5v3h.5c7.013 0 12.728 5.551 12.99 12.5H24v1h7.75v5H4.25v-5h9.25v-1H4.25zm9.691-1H4.25v-5h12.191zm4.809 16a1 1 0 1 0 0 2 1 1 0 0 0 0-2m-1.016-.723a1.999 1.999 0 0 1 3.016 1.723 2 2 0 1 1-3.723-1.016l-3.681-3.681a3.501 3.501 0 1 1-2.096-6.303 3.501 3.501 0 0 1 2.803 5.596zM8.75 18.75a2.501 2.501 0 0 1 5 0 2.501 2.501 0 0 1-5 0m20.792 2.733-.513-1.41.94-.342.513 1.41zm-1.81-3.883.75 1.3.866-.5-.75-1.3zm-.742-1.06-.965-1.15.766-.642.965 1.149zm-3.03-3.028 1.15.964.643-.766-1.15-.965z" clip-rule="evenodd"/></svg>