<svg xmlns="http://www.w3.org/2000/svg" width="24" height="24" fill="none" viewBox="0 0 24 24"><path fill="#000" fill-rule="evenodd" d="M2 7h20V6H2zm0 2.02h2v4.188q-.932.612-1.834 1.42l.668.744C5.537 12.95 8.37 12 12 12s6.463.95 9.166 3.372l.668-.744A15.5 15.5 0 0 0 20 13.208V9.02h2v-1H2zm17 3.59V9.02h-2v2.723q1.028.344 2 .868m-3-1.158V9.02h-2v2.082q1.034.11 2 .35m-3-.428V9.02h-2v2.004a20 20 0 0 1 2 0m-3 .078V9.02H8v2.432q.966-.24 2-.35m-3 .641V9.02H5v3.59c.649-.35 1.314-.636 2-.867" clip-rule="evenodd"/></svg>