<svg class="color-immutable" xmlns="http://www.w3.org/2000/svg" width="59" height="20" fill="none" viewBox="0 0 59 20"><g clip-path="url(#a)"><path stroke="#000" d="M2 .5h55A1.5 1.5 0 0 1 58.5 2v16a1.5 1.5 0 0 1-1.5 1.5H2A1.5 1.5 0 0 1 .5 18V2A1.5 1.5 0 0 1 2 .5Z"/><path fill="#000" d="M4.069 4.224h5.704q1.692 0 2.594.532.749.434 1.144 1.16.395.725.395 1.635 0 1.032-.5 1.797-.491.765-1.377 1.096.78.192 1.224.87.282.426.379.894.097.467.25 2.135.112 1.224.346 1.523l.113.137h-2.683a2 2 0 0 1-.201-.637q-.058-.387-.154-1.788-.096-1.25-.612-1.724-.507-.484-1.74-.484H6.639v4.633h-2.57zm2.57 2.022v3.239h2.457q1.184 0 1.668-.339.612-.426.612-1.289 0-.837-.524-1.224t-1.651-.387zM23.542 7.165h-2.24q-.315-1.362-1.547-1.362-1.305 0-1.853 1.603-.225.652-.363 1.974.532-.717 1.128-1.031.604-.315 1.45-.314 1.66 0 2.667 1.176.96 1.111.959 2.787 0 1.99-1.29 3.199-1.16 1.088-2.787 1.088-2.085 0-3.247-1.571-1.16-1.58-1.16-4.4 0-3.013 1.241-4.72 1.2-1.653 3.28-1.652 1.956 0 2.996 1.313.597.757.765 1.91m-3.989 2.699q-.846 0-1.345.708-.45.63-.451 1.499 0 .862.46 1.507.499.717 1.369.717.846 0 1.361-.685.484-.645.484-1.523 0-.862-.435-1.474-.533-.75-1.442-.75M24.645 13.046h2.224q.274 1.37 1.587 1.37.741 0 1.2-.5.468-.507.718-1.571.16-.676.233-1.539-.54.758-1.112 1.08-.564.315-1.377.314-1.297 0-2.256-.757a3.6 3.6 0 0 1-1.047-1.378 4.5 4.5 0 0 1-.371-1.837q0-1.99 1.361-3.223 1.17-1.063 2.804-1.063 1.007 0 1.861.451.855.45 1.434 1.281 1.023 1.474 1.024 4.141 0 2.466-.903 4.206-1.176 2.264-3.56 2.264-1.588 0-2.627-.879-1.031-.878-1.193-2.36m3.916-7.114q-.758 0-1.281.62-.524.629-.524 1.595 0 .782.379 1.386.515.83 1.45.83.846 0 1.354-.677.474-.636.475-1.514 0-.927-.492-1.571a1.64 1.64 0 0 0-1.361-.67"/></g><defs><clipPath id="a"><path fill="#fff" d="M0 0h59v20H0z"/></clipPath></defs></svg>