<?xml version="1.0" encoding="utf-8"?>
<!-- Generator: Adobe Illustrator 26.5.0, SVG Export Plug-In . SVG Version: 6.00 Build 0)  -->
<svg version="1.0" xmlns="http://www.w3.org/2000/svg" xmlns:xlink="http://www.w3.org/1999/xlink" x="0px" y="0px"
	 viewBox="0 0 24 24" enable-background="new 0 0 24 24" xml:space="preserve">
<g id="SVG_x5F_24x24pt">
	<path id="backgroundBlue" fill="#2D327D" d="M0,22.5v-21C0,0.675,0.675,0,1.5,0h21C23.325,0,24,0.675,24,1.5v21
		c0,0.825-0.675,1.5-1.5,1.5h-21C0.675,24,0,23.325,0,22.5z"/>
	<g id="content">
		<g>
			<path fill="#FFFFFF" d="M15.815,12l1.296,1.814c0.241,0.337,0.163,0.805-0.174,1.046C16.804,14.955,16.652,15,16.501,15
				c-0.234,0-0.465-0.109-0.611-0.314L13.971,12H12l1.396,8.373c0.06,0.362,0.373,0.627,0.74,0.627h4.729
				c0.367,0,0.68-0.265,0.74-0.627L21,12H15.815z"/>
		</g>
		<path fill="#FFFFFF" d="M16.5,14.625c-0.117,0-0.232-0.055-0.305-0.157l-3.75-5.25c-0.12-0.169-0.081-0.403,0.087-0.523
			c0.169-0.12,0.403-0.081,0.523,0.087l3.75,5.25c0.12,0.169,0.081,0.403-0.087,0.523C16.652,14.602,16.576,14.625,16.5,14.625z"/>
		<g>
			<path fill="#FFFFFF" d="M15.547,11.625h5.07c-0.048-0.379-0.325-0.707-0.719-0.8c-0.204-0.048-0.407-0.025-0.586,0.051
				c-0.075-0.407-0.431-0.716-0.86-0.716c-0.03,0-0.061,0.002-0.091,0.005c-0.112-0.392-0.427-0.714-0.853-0.815
				c-0.626-0.147-1.254,0.241-1.402,0.867c-0.01,0.043-0.016,0.086-0.021,0.129c-0.056-0.01-0.114-0.016-0.173-0.016
				c-0.392,0-0.73,0.23-0.89,0.561L15.547,11.625z"/>
		</g>
		<g>
			<circle fill="#FFFFFF" cx="19.535" cy="8.52" r="0.729"/>
		</g>
		<g>
			<circle fill="#FFFFFF" cx="17.349" cy="5.973" r="0.729"/>
		</g>
		<g>
			<circle fill="#FFFFFF" cx="18.925" cy="3.729" r="0.729"/>
		</g>
		<path fill="#FFFFFF" d="M4.656,20.039c0.013-0.103,0.107-0.175,0.209-0.163c0.103,0.013,0.176,0.107,0.163,0.209L4.914,21h1.649
			v-0.938c0-0.104,0.084-0.188,0.188-0.188s0.188,0.084,0.188,0.188V21h1.649l-0.114-0.914c-0.013-0.103,0.06-0.196,0.163-0.209
			c0.103-0.013,0.196,0.06,0.209,0.163L8.964,21H10.5l-0.469-1.875H3.469L3,21h1.536L4.656,20.039z"/>
		<path fill="#FFFFFF" d="M9.938,18.75l-0.045-0.182C9.809,18.234,9.509,18,9.164,18H4.336c-0.344,0-0.644,0.234-0.728,0.568
			L3.562,18.75H9.938z"/>
		<path fill="#FFFFFF" d="M7.174,17.625h-0.75V3.375C6.424,3.168,6.592,3,6.799,3h0c0.207,0,0.375,0.168,0.375,0.375V17.625z"/>
	</g>
</g>
</svg>
