<svg class="color-immutable" xmlns="http://www.w3.org/2000/svg" width="59" height="20" fill="none" viewBox="0 0 59 20"><g clip-path="url(#a)"><path fill="#000" d="M1.792 0h55.416C58.197 0 59 .806 59 1.8v16.4c0 .994-.801 1.8-1.792 1.8H1.792A1.797 1.797 0 0 1 0 18.2V1.8C0 .806.803 0 1.792 0"/><path fill="#FFDE15" d="M12.798 7.659h-2.405q-.07-.846-.633-1.29-.553-.45-1.558-.45-.894 0-1.392.356-.49.348-.49.98 0 .57.474.823.459.253 2.326.712 1.97.49 2.729.989 1.4.918 1.4 2.555 0 1.795-1.408 2.832-1.242.91-3.362.91Q6.122 16.074 4.817 15q-1.305-1.077-1.353-3.062h2.515q.055.966.499 1.432.696.744 2.096.744.95 0 1.503-.372.624-.428.625-1.163 0-.735-.878-1.076-.483-.19-2.278-.688-1.125-.307-1.756-.585-.633-.277-1.013-.617-.885-.791-.886-2.183 0-1.67 1.384-2.642 1.18-.831 3.062-.831 1.653 0 2.768.657 1.605.94 1.693 3.045M24.513 4.234v11.565h-2.54l-4.84-7.879.031 7.879h-2.428V4.234h2.57l4.81 7.863-.032-7.863zM34.1 7.121h-2.199q-.309-1.337-1.519-1.337-1.28 0-1.82 1.574-.22.642-.355 1.938.522-.703 1.107-1.012.594-.309 1.424-.309 1.63 0 2.618 1.155.942 1.092.942 2.737 0 1.955-1.266 3.14-1.139 1.068-2.737 1.068-2.049 0-3.188-1.542-1.139-1.55-1.139-4.319 0-2.958 1.218-4.635 1.18-1.622 3.22-1.622 1.922 0 2.943 1.29.585.743.751 1.874m-3.916 2.65q-.83 0-1.32.696-.444.617-.444 1.471 0 .847.451 1.48.491.704 1.345.704.831 0 1.337-.673.475-.633.475-1.495 0-.847-.428-1.447-.522-.736-1.416-.736"/></g><defs><clipPath id="a"><path fill="#fff" d="M0 0h59v20H0z"/></clipPath></defs></svg>