<svg xmlns="http://www.w3.org/2000/svg" width="36" height="36" fill="none" viewBox="0 0 36 36"><path fill="#000" fill-rule="evenodd" d="M5.206 6.01C4.493 6.998 4.25 8.201 4.25 9h-1c0-.957.282-2.379 1.144-3.575C5.274 4.203 6.737 3.25 9 3.25s3.725.953 4.606 2.175C14.468 6.62 14.75 8.043 14.75 9c0 2.458-1.627 4.084-2.378 4.835l-.018.019c-.758.757-2.104 2.124-2.104 4.146 0 .455-.132 1.126-.544 1.698-.43.598-1.143 1.052-2.206 1.052s-1.776-.454-2.206-1.052A3 3 0 0 1 4.75 18h1c0 .295.093.749.356 1.114.245.34.657.636 1.394.636s1.15-.296 1.394-.636c.263-.365.356-.819.356-1.114 0-2.458 1.627-4.084 2.378-4.835l.018-.019c.758-.757 2.104-2.124 2.104-4.146 0-.798-.243-2.001-.956-2.99C12.1 5.044 10.937 4.25 9 4.25s-3.1.795-3.794 1.76m.44 22.136 22.5-22.5.708.708-22.5 22.5zM21.25 27A2.747 2.747 0 0 1 24 24.25 2.747 2.747 0 0 1 26.75 27 2.747 2.747 0 0 1 24 29.75 2.747 2.747 0 0 1 21.25 27M24 25.25c-.969 0-1.75.781-1.75 1.75s.781 1.75 1.75 1.75 1.75-.781 1.75-1.75-.781-1.75-1.75-1.75M7.786 7.734c-.274.315-.497.859-.531 1.768l.044.036c.154.124.36.305.569.531.4.434.882 1.116.882 1.931A2.747 2.747 0 0 1 6 14.75v-1c.969 0 1.75-.781 1.75-1.75 0-.43-.268-.873-.618-1.253a4.4 4.4 0 0 0-.651-.575l-.009-.006-.001-.001-.221-.148V9.75c0-1.19.265-2.077.78-2.671.527-.607 1.245-.829 1.97-.829A2.747 2.747 0 0 1 11.75 9h-1c0-.969-.781-1.75-1.75-1.75-.52 0-.927.153-1.214.484M24 21.25c-3.255 0-6.373 2.408-8.425 5.472l-.187.278.187.278c2.052 3.064 5.17 5.472 8.425 5.472 3.24 0 6.372-2.407 8.425-5.472l.187-.278-.187-.278c-2.052-3.064-5.17-5.472-8.425-5.472m0 10.5c-2.686 0-5.445-1.96-7.404-4.75 1.959-2.79 4.718-4.75 7.404-4.75s5.445 1.96 7.404 4.75c-1.96 2.789-4.732 4.75-7.404 4.75" clip-rule="evenodd"/></svg>