<svg xmlns="http://www.w3.org/2000/svg" width="36" height="36" viewBox="0 0 36 36">
  <path fill="none" stroke="#222" d="M8.25,6.0003 L8.25,31.5003 M6,9.7503 L8.25,9.7503 M10.5,14.2503 L17.577,14.2503 M10.5,9.7503 L18,9.7503 M6,14.2503 L8.25,14.2503 M6,23.24955 L8.253,23.24955 M10.5,18.7422 L14.6205,18.7422 M6,18.7503 L8.25,18.7503 M22.5,6.7503 L8.247,28.4433 M20.52825,9.7503 L19.49925,9.7503 M10.5,23.2422 L11.664,23.2422 M31.5,6.7503 L15.7455,29.1723 M15.75,6.0003 L15.75,17.0343 M15,23.24955 L22.5,23.24955 M18,18.7503 L25.5,18.7503 M21,14.2503 L28.5,14.2503 M24,9.7503 L31.5,9.7503 M12,27.74955 L19.5,27.74955 M6,27.74955 L8.253,27.74955 M15.75,27.74955 L15.75,31.49955"/>
</svg>
