<svg xmlns="http://www.w3.org/2000/svg" width="24" height="24" fill="none" viewBox="0 0 24 24"><path fill="#000" fill-rule="evenodd" d="M16.5 5a.5.5 0 0 0-.5.5v4.585a1.5 1.5 0 0 1 1 0V5.5a.5.5 0 0 0-.5-.5m0 6a.5.5 0 0 0-.5.5V14h1v-2.5a.5.5 0 0 0-.5-.5M18 5.5V19h-3V5.5a1.5 1.5 0 0 1 3 0m2 8.5h1v-2.5a.5.5 0 0 0-1 0zm1 1h-1v3h1zm-5 3v-3h1v3zm4-7.915a1.5 1.5 0 0 1 1 0V5.5a.5.5 0 0 0-1 0zm2 1.415v-6a1.5 1.5 0 0 0-3 0V19h3v-7.5M3 12V9.5A1.5 1.5 0 0 1 4.5 8h5A1.5 1.5 0 0 1 11 9.5V12zm-1 .5v-3A2.5 2.5 0 0 1 4.5 7h1.69l-1-2H4V4h6v1H8.807L7.81 7H9.5A2.5 2.5 0 0 1 12 9.5V17H9.434l.666 1H12v1h-1.234l.15.226-.832.554-.52-.78H4.436l-.52.78-.832-.554.15-.226H2v-1h1.9l.666-1H2v-4.5M8.898 18l-.666-1H5.768l-.666 1zM7.69 5 7 6.383 6.309 5zM3 13v3h8v-3zm1 1v1h1v-1zm5 1v-1h1v1z" clip-rule="evenodd"/></svg>