<svg xmlns="http://www.w3.org/2000/svg" width="24" height="24" version="1.1" viewBox="0 0 24 24">
  <g fill="none" fill-rule="evenodd" stroke="none" stroke-width="1">
    <path stroke="#000" d="M5.5,21.5 L18.5,21.5 L18.5,2.5 L5.5,2.5 L5.5,21.5 Z M8,15.5 L16,15.5 M8,17.5 L16,17.5"/>
    <path fill="#000" d="M11.397,6.9997 L11.397,7.8417 L8.923,7.8417 L8.923,9.0307 L11.102,9.0307 L11.102,9.8327 L8.923,9.8327 L8.923,12.0117 L8,12.0117 L8,6.9997 L11.397,6.9997 Z M12.5154,7 L13.7674,10.754 L15.0254,7 L16.0074,7 L14.2144,12.012 L13.2954,12.012 L13.2584,11.912 L11.5044,7 L12.5154,7 Z"/>
  </g>
</svg>
