<svg xmlns="http://www.w3.org/2000/svg" width="48" height="48" fill="none" viewBox="0 0 48 48"><path fill="#000" fill-rule="evenodd" d="M18.44 8.44A1.5 1.5 0 0 1 19.5 8h9A1.5 1.5 0 0 1 30 9.5V13h-1v-2.5A1.5 1.5 0 0 0 27.5 9h-7a1.5 1.5 0 0 0-1.5 1.5V13h-1V9.5c0-.398.158-.78.44-1.06M17 13V9.5A2.5 2.5 0 0 1 19.5 7h9A2.5 2.5 0 0 1 31 9.5V13h11.5a2.5 2.5 0 0 1 2.5 2.5v22a2.5 2.5 0 0 1-2.5 2.5h-37A2.5 2.5 0 0 1 3 37.5v-22A2.5 2.5 0 0 1 5.5 13zm3.5-3a.5.5 0 0 0-.5.5V13h8v-2.5a.5.5 0 0 0-.5-.5zm-15 4A1.5 1.5 0 0 0 4 15.5v22A1.5 1.5 0 0 0 5.5 39H9V14zM12 39h-2V14h2zm24 0h2V14h-2zm-1 0V14H13v25zm7.5 0H39V14h3.5a1.5 1.5 0 0 1 1.5 1.5v22a1.5 1.5 0 0 1-1.5 1.5" clip-rule="evenodd"/></svg>