<svg xmlns="http://www.w3.org/2000/svg" width="36" height="36" version="1.1" viewBox="0 0 36 36">
  <path fill="none" fill-rule="evenodd" stroke="#000" stroke-width="1" d="M17.25,10.49955 C17.25,12.57105 14.2275,14.24955 10.5,14.24955 C6.7725,14.24955 3.75,12.57105 3.75,10.49955 C3.75,8.42805 6.7725,6.74955 10.5,6.74955 C14.2275,6.74955 17.25,8.42805 17.25,10.49955 Z M3.75,14.99955 C3.75,17.07105 6.7725,18.74955 10.5,18.74955 C12.237,18.74955 13.8045,18.59805 15,17.99955 M3.75,19.49955 C3.75,21.57105 6.7725,23.24955 10.5,23.24955 C12.237,23.24955 13.8045,23.09805 15,22.49955 M3.75,23.99955 C3.75,26.07105 6.7725,27.74955 10.5,27.74955 C12.237,27.74955 13.8045,27.59805 15,26.99955 M15,31.49955 C13.8045,32.09805 12.237,32.24955 10.5,32.24955 C6.7725,32.24955 3.75,30.57105 3.75,28.49955 L3.75,10.49955 M30.75,19.49955 C30.75,21.57105 27.7275,23.24955 24,23.24955 C20.2725,23.24955 17.25,21.57105 17.25,19.49955 C17.25,17.42805 20.2725,15.74955 24,15.74955 C27.7275,15.74955 30.75,17.42805 30.75,19.49955 Z M30.75,23.99955 C30.75,26.07105 27.7275,27.74955 24,27.74955 C20.2725,27.74955 17.25,26.07105 17.25,23.99955 M30.75,28.49955 C30.75,30.57105 27.7275,32.24955 24,32.24955 C20.2725,32.24955 17.25,30.57105 17.25,28.49955 M17.25,28.49955 L17.25,19.49955 M30.75,19.49955 L30.75,28.49955 M17.25,14.99955 L17.25,10.49955"/>
</svg>
