<svg class="color-immutable" xmlns="http://www.w3.org/2000/svg" width="59" height="20" fill="none" viewBox="0 0 59 20"><g clip-path="url(#a)"><path stroke="#fff" d="M2 .5h55A1.5 1.5 0 0 1 58.5 2v16a1.5 1.5 0 0 1-1.5 1.5H2A1.5 1.5 0 0 1 .5 18V2A1.5 1.5 0 0 1 2 .5Z"/><path fill="#fff" d="M12.877 7.713h-2.449q-.072-.862-.644-1.314-.564-.459-1.587-.459-.91 0-1.418.363-.5.355-.5.999 0 .58.483.838.468.258 2.37.725 2.005.499 2.779 1.007 1.425.934 1.426 2.602 0 1.829-1.434 2.884-1.266.927-3.424.927-2.401 0-3.73-1.096-1.33-1.095-1.378-3.118h2.562q.056.984.507 1.459.71.756 2.135.757.967 0 1.531-.379.636-.435.636-1.184 0-.75-.894-1.096-.49-.193-2.32-.7-1.144-.315-1.789-.597-.644-.282-1.031-.628-.903-.806-.902-2.224 0-1.7 1.41-2.69 1.2-.847 3.118-.847 1.683 0 2.82.669 1.635.959 1.723 3.102M23.19 13.828v2.175h-8.33V4.224h2.57v9.604zM32.326 13.908v2.095h-8.483q0-.96.306-1.829.314-.87.878-1.498.435-.484 1.015-.943.588-.459 2.328-1.684.847-.588 1.185-1.096a2.07 2.07 0 0 0 .338-1.176q0-.774-.46-1.249-.45-.483-1.192-.483-1.82 0-1.877 2.618H24.1v-.257q0-2.144 1.2-3.32 1.17-1.144 3.022-1.144 1.644 0 2.747.935 1.2 1.015 1.2 2.73 0 1.5-.958 2.579a5 5 0 0 1-.588.572q-.274.21-1.442 1.023-1.112.773-1.595 1.185a6.5 6.5 0 0 0-.887.942zM41.31 7.165h-2.24q-.315-1.362-1.547-1.362-1.305 0-1.853 1.603-.226.654-.363 1.974.532-.717 1.128-1.03.604-.315 1.45-.315 1.66 0 2.667 1.176.96 1.111.959 2.788 0 1.99-1.29 3.198-1.16 1.088-2.787 1.088-2.086 0-3.247-1.571-1.16-1.58-1.16-4.4 0-3.013 1.24-4.72 1.201-1.652 3.28-1.652 1.958 0 2.997 1.313.596.758.765 1.91M37.32 9.864q-.846 0-1.345.709-.451.628-.451 1.498 0 .862.459 1.507.5.717 1.37.717.845 0 1.361-.685.483-.644.483-1.523 0-.862-.435-1.474-.531-.75-1.442-.75"/></g><defs><clipPath id="a"><path fill="#fff" d="M0 0h59v20H0z"/></clipPath></defs></svg>