<svg class="color-immutable" xmlns="http://www.w3.org/2000/svg" width="59" height="20" fill="none" viewBox="0 0 59 20"><g clip-path="url(#a)"><path fill="#EB0000" fill-rule="evenodd" d="M2 0a2 2 0 0 0-2 2v16a2 2 0 0 0 2 2h55a2 2 0 0 0 2-2V2a2 2 0 0 0-2-2z" clip-rule="evenodd"/><path fill="#fff" d="M9.22 4.2h4.057L8.259 15.8H4.186zM15.948 4.2h14.395l-1.49 3.445h-10.28l-2.042 4.71h10.285l-1.49 3.445H10.93zM44.385 4.234v1.962a46 46 0 0 0-.562.64q-.648.743-1.29 1.875-.64 1.124-.996 2.16-.75 2.16-.91 4.928h-2.389q.025-1.305.451-2.896.435-1.59 1.195-3.18 1.083-2.245 2.199-3.345h-5.458V4.234zM53.687 13.742v2.057h-8.33q0-.942.301-1.796.309-.855.862-1.471.427-.475.997-.926.578-.45 2.286-1.653.831-.578 1.163-1.076t.332-1.155q0-.76-.45-1.226-.444-.474-1.171-.474-1.788 0-1.843 2.57H45.61V8.34q0-2.103 1.178-3.259 1.148-1.123 2.967-1.123 1.613 0 2.697.918 1.179.996 1.179 2.681 0 1.472-.942 2.531-.308.348-.577.562-.27.205-1.416 1.005-1.092.759-1.566 1.162a6.4 6.4 0 0 0-.87.926z"/></g><defs><clipPath id="a"><path fill="#fff" d="M0 0h59v20H0z"/></clipPath></defs></svg>