<svg xmlns="http://www.w3.org/2000/svg" width="18" height="16" fill="none" viewBox="0 0 18 16"><path fill="#000" fill-rule="evenodd" d="M14.337 1H10.95v6.996h1.526V5.244h1.373q.732 0 1.034.288.306.282.364 1.024.057.832.09 1.062.039.23.12.378h1.594l-.067-.081q-.14-.177-.206-.905-.09-.99-.148-1.268a1.5 1.5 0 0 0-.225-.531 1.18 1.18 0 0 0-.728-.517q.527-.196.819-.65.296-.456.296-1.068 0-.54-.234-.971a1.76 1.76 0 0 0-.68-.69Q15.343 1 14.338 1m-1.861 3.125V2.2h1.522q.67 0 .98.23.312.23.312.727 0 .512-.364.766-.287.2-.99.2z" clip-rule="evenodd"/><path fill="#000" d="M1.428 3.551a.75.75 0 0 1 .97.427L5.714 12.5H11.2a.75.75 0 1 1 0 1.5H4.686L1.001 4.522a.75.75 0 0 1 .427-.971"/><path fill="#000" d="M4.113 6.303A.95.95 0 0 1 4.995 5h1.366c.511 0 .97.311 1.16.786L9.208 10h3.94l1.963 3.644a.75.75 0 0 1-1.32.712L12.251 11.5h-6.06zM5.45 4a1.5 1.5 0 1 0 0-3 1.5 1.5 0 0 0 0 3"/></svg>