<svg class="color-immutable" xmlns="http://www.w3.org/2000/svg" width="59" height="20" fill="none" viewBox="0 0 59 20"><path fill="#EB0000" fill-rule="evenodd" d="M2 0a2 2 0 0 0-2 2v16a2 2 0 0 0 2 2h55a2 2 0 0 0 2-2V2a2 2 0 0 0-2-2z" clip-rule="evenodd"/><path fill="#fff" fill-rule="evenodd" d="M38.333 9.59a2.37 2.37 0 0 1-1.234-.91 2.67 2.67 0 0 1-.43-1.534A2.82 2.82 0 0 1 37.9 4.75a4.28 4.28 0 0 1 2.586-.79q1.704 0 2.783.94a2.78 2.78 0 0 1 1.025 2.192 2.74 2.74 0 0 1-.434 1.558c-.297.44-.729.77-1.23.941a3.3 3.3 0 0 1 1.018.467q1.095.799 1.096 2.334a3.37 3.37 0 0 1-1.349 2.808q-1.134.878-2.917.878-1.93 0-3.074-.965a3.28 3.28 0 0 1-1.19-2.634q0-1.526 1.056-2.366a2.9 2.9 0 0 1 1.064-.522m2.105.87a1.9 1.9 0 0 0-1.391.527 1.8 1.8 0 0 0-.54 1.348 1.83 1.83 0 0 0 .547 1.377c.385.36.898.551 1.423.53q.995 0 1.49-.586c.315-.358.486-.82.482-1.297a1.84 1.84 0 0 0-.553-1.376 1.98 1.98 0 0 0-1.458-.523m-1.206-4.283a1.75 1.75 0 0 1 1.222-.423 1.88 1.88 0 0 1 1.28.403c.316.286.485.699.462 1.124.022.435-.145.86-.457 1.162-.344.3-.791.453-1.246.428a1.79 1.79 0 0 1-1.257-.431 1.49 1.49 0 0 1-.47-1.151 1.43 1.43 0 0 1 .466-1.112" clip-rule="evenodd"/><path fill="#fff" d="M9.22 4.2h4.057L8.259 15.8H4.186zM15.948 4.2h14.395l-1.49 3.445h-10.28l-2.042 4.71h10.285l-1.49 3.445H10.93z"/></svg>