<?xml version="1.0" encoding="utf-8"?>
<!-- Generator: Adobe Illustrator 29.6.1, SVG Export Plug-In . SVG Version: 9.03 Build 0)  -->
<svg version="1.0" xmlns="http://www.w3.org/2000/svg" xmlns:xlink="http://www.w3.org/1999/xlink" x="0px" y="0px"
	 viewBox="0 0 24 24" enable-background="new 0 0 24 24" xml:space="preserve">
<g id="SVG_x5F_24x24pt">
	<path id="backgroundBlue" fill="#2D327D" d="M0,22.5v-21C0,0.675,0.675,0,1.5,0h21C23.325,0,24,0.675,24,1.5v21
		c0,0.825-0.675,1.5-1.5,1.5h-21C0.675,24,0,23.325,0,22.5z"/>
	<g id="content">
		<path fill="#FFFFFF" d="M17.695,11.948c-0.58,0-1.05-0.471-1.05-1.05c0-0.58,0.47-1.05,1.05-1.05c0.58,0,1.05,0.47,1.05,1.05
			C18.745,11.477,18.275,11.948,17.695,11.948L17.695,11.948z"/>
		<path fill="#FFFFFF" d="M18.212,19.502c0.56,0,1.047-0.398,1.158-0.948l1.606-8.02c0.109-0.54-0.159-1.092-0.652-1.34
			l-0.008-0.004l-4.282-2.04c-0.194-0.099-0.302-0.295-0.302-0.513V4.125h-0.75v2.513c0,0.504,0.267,0.958,0.717,1.184l0.008,0.004
			l4.282,2.04c0.19,0.098,0.293,0.311,0.251,0.521l-1.606,8.02c-0.04,0.2-0.218,0.345-0.423,0.345c0,0-0.001,0-0.001,0l-3.239-0.007
			l-0.002,0.75l3.239,0.007C18.21,19.502,18.211,19.502,18.212,19.502z"/>
		<polygon fill="#FFFFFF" points="2.983,3.019 2.983,3.703 14.608,5.563 14.608,4.879 		"/>
		<polygon fill="#FFFFFF" points="16.108,5.834 20.983,6.704 20.983,6.019 16.108,5.149 		"/>
		<path fill="#FFFFFF" d="M12.882,20.352c0,0.38,0.308,0.687,0.687,0.687c0.38,0,0.687-0.308,0.687-0.687
			c0-0.011-0.001-2.371-0.001-2.371c0-0.002,2.85,0,2.85,0c0.472,0.007,0.823-0.282,0.924-0.719l0.731-3.629
			c0.123-0.617-0.277-1.217-0.894-1.34h0c-0.354-0.071-0.702,0.031-0.957,0.247c-0.003,0.003-2.562,2.28-2.562,2.28
			c-0.217,0.193-0.236,0.525-0.043,0.741c0.104,0.116,0.248,0.176,0.392,0.176c0.124,0,0.249-0.044,0.349-0.133l1.214-1.081
			l-0.408,2.043c-0.002,0.008-0.002,0.016-0.003,0.023c-0.193,0.001-2.202-0.002-2.202-0.002c-0.415-0.006-0.755,0.326-0.761,0.74
			C12.886,17.328,12.882,20.34,12.882,20.352z"/>
	</g>
</g>
</svg>
