<?xml version="1.0" encoding="utf-8"?>
<!-- Generator: Adobe Illustrator 24.2.0, SVG Export Plug-In . SVG Version: 6.00 Build 0)  -->
<svg version="1.0" id="Ebene_1" xmlns="http://www.w3.org/2000/svg" xmlns:xlink="http://www.w3.org/1999/xlink" x="0px" y="0px"
	 viewBox="0 0 24 24" enable-background="new 0 0 24 24" xml:space="preserve">
<g id="SVG_x5F_24x24pt">
	<path id="backgroundBlue" fill="#2D327D" d="M0,22.5v-21C0,0.675,0.675,0,1.5,0h21C23.325,0,24,0.675,24,1.5v21
		c0,0.825-0.675,1.5-1.5,1.5h-21C0.675,24,0,23.325,0,22.5z"/>
	<g id="content">
		<polygon fill="#FFFFFF" points="15.788,5.132 3,3 3,3.684 15.788,5.816 15.788,5.132 		"/>
		<polygon fill="#FFFFFF" points="17.589,5.432 17.589,6.116 21,6.685 21,6 17.589,5.432 		"/>
		<path fill="#FFFFFF" d="M19.275,17.026v-3.709c0-0.62-0.505-1.124-1.125-1.124c-0.365,0-0.707,0.176-0.918,0.475l-1.859,2.622
			c-0.06,0.086-0.093,0.188-0.093,0.293c0,0.28,0.227,0.507,0.505,0.507c0.165,0,0.319-0.081,0.413-0.214l0.752-1.059v1.573h-2.062
			c-0.415,0-0.751,0.336-0.751,0.75v3.169c0,0.383,0.31,0.694,0.694,0.694c0.382,0,0.693-0.31,0.693-0.694v-2.531h3
			C18.939,17.776,19.275,17.439,19.275,17.026L19.275,17.026z"/>
		<polygon fill="#FFFFFF" points="17.176,4.5 16.201,4.5 16.201,8.431 20.025,9.069 20.025,18.525 16.201,18.525 16.201,19.5 
			21,19.5 21,8.243 17.176,7.606 17.176,4.5 		"/>
		<path fill="#FFFFFF" d="M18.014,11.778c0.58,0,1.05-0.471,1.05-1.05c0-0.58-0.47-1.05-1.05-1.05c-0.58,0-1.05,0.47-1.05,1.05
			C16.964,11.307,17.434,11.778,18.014,11.778L18.014,11.778z"/>
	</g>
</g>
</svg>
