<?xml version="1.0" encoding="utf-8"?>
<!-- Generator: Adobe Illustrator 24.2.0, SVG Export Plug-In . SVG Version: 6.00 Build 0)  -->
<svg version="1.0" id="Ebene_1" xmlns="http://www.w3.org/2000/svg" xmlns:xlink="http://www.w3.org/1999/xlink" x="0px" y="0px"
	 viewBox="0 0 24 24" enable-background="new 0 0 24 24" xml:space="preserve">
<g id="SVG_x5F_24x24pt">
	<path id="backgroundBlue" fill="#2D327D" d="M0,22.5v-21C0,0.675,0.675,0,1.5,0h21C23.325,0,24,0.675,24,1.5v21
		c0,0.825-0.675,1.5-1.5,1.5h-21C0.675,24,0,23.325,0,22.5z"/>
	<g id="content">
		<path fill="#FFFFFF" d="M3.089,7.484v13.5h6v-13.5H3.089 M8.339,14.984c0,0.083-0.067,0.15-0.15,0.15h-4.2
			c-0.082,0-0.15-0.068-0.15-0.15v-6.6c0-0.082,0.068-0.15,0.15-0.15h4.2c0.083,0,0.15,0.068,0.15,0.15V14.984L8.339,14.984z"/>
		<polygon fill="#FFFFFF" points="4.192,4.425 5.623,2.984 4.728,2.984 2.939,4.784 4.728,6.585 5.623,6.585 4.192,5.144 
			15.239,5.144 15.239,4.425 4.192,4.425 		"/>
		<polygon fill="#FFFFFF" points="15.239,8.234 9.539,8.234 9.539,20.234 15.239,20.234 15.239,8.234 		"/>
	</g>
</g>
</svg>
