<svg class="color-immutable" xmlns="http://www.w3.org/2000/svg" width="59" height="20" fill="none" viewBox="0 0 59 20"><g fill="#EB0000" clip-path="url(#a)"><path d="M57.208 1c.439 0 .795.358.795.8v16.4c0 .442-.356.8-.795.8H1.792a.8.8 0 0 1-.795-.8V1.8c0-.442.356-.8.795-.8zm0-1H1.792C.803 0 0 .806 0 1.8v16.4c0 .994.803 1.8 1.792 1.8h55.416c.99 0 1.792-.806 1.792-1.8V1.8c0-.994-.803-1.8-1.792-1.8"/><path d="M4.16 4.234h5.6q1.662 0 2.547.522.735.427 1.124 1.139.387.712.387 1.606 0 1.013-.49 1.764-.483.751-1.353 1.076a1.95 1.95 0 0 1 1.203.854q.276.42.371.878t.245 2.096q.111 1.203.34 1.495l.111.135h-2.634a2 2 0 0 1-.197-.625q-.056-.38-.15-1.756-.095-1.227-.602-1.693-.498-.475-1.709-.475h-2.27V15.8H4.16zm2.523 1.985V9.4h2.413q1.162 0 1.637-.332.601-.42.601-1.266 0-.822-.514-1.202T9.2 6.219zM24.647 4.234V6.37h-6.154v2.468h5.64v1.985h-5.64v2.84h6.265v2.136H15.97V4.234zM25.897 12.896h2.183q.27 1.344 1.559 1.344.728 0 1.178-.49.459-.498.704-1.543.159-.664.23-1.51-.531.743-1.092 1.06-.554.308-1.353.308-1.273 0-2.215-.744a3.54 3.54 0 0 1-1.028-1.352 4.45 4.45 0 0 1-.364-1.804q0-1.953 1.337-3.164 1.147-1.044 2.753-1.044.988 0 1.827.443a3.96 3.96 0 0 1 1.408 1.258q1.005 1.447 1.005 4.066 0 2.42-.886 4.129-1.155 2.222-3.497 2.222-1.558 0-2.578-.862-1.012-.862-1.171-2.317m3.844-6.985q-.743 0-1.257.609-.515.616-.515 1.566 0 .768.372 1.36.507.816 1.424.815.831 0 1.329-.664.467-.625.467-1.487 0-.91-.483-1.543a1.6 1.6 0 0 0-1.337-.656M43.15 11.203v1.954h-1.456v2.642h-2.255v-2.642h-4.825v-2.168l4.944-6.755h2.136v6.969zm-3.663.024V6.922l-2.974 4.304z"/></g><defs><clipPath id="a"><path fill="#fff" d="M0 0h59v20H0z"/></clipPath></defs></svg>