<svg xmlns="http://www.w3.org/2000/svg" width="48" height="48" viewBox="0 0 48 48">
  <path fill="none" stroke="#000" d="M19.5,25.5 C21.157,25.5 22.5,26.843 22.5,28.5 C22.5,30.157 21.157,31.5 19.5,31.5 C17.843,31.5 16.5,30.157 16.5,28.5 C16.5,26.843 17.843,25.5 19.5,25.5 Z M19.5,20.5 C23.918,20.5 27.5,24.082 27.5,28.5 C27.5,32.918 23.918,36.5 19.5,36.5 C15.082,36.5 11.5,32.918 11.5,28.5 C11.5,24.082 15.082,20.5 19.5,20.5 Z M19.5,15.5 C26.68,15.5 32.5,21.32 32.5,28.5 C32.5,35.68 26.68,41.5 19.5,41.5 C12.32,41.5 6.5,35.68 6.5,28.5 C6.5,21.32 12.32,15.5 19.5,15.5 Z M19.5,12.5 C28.337,12.5 35.5,19.664 35.5,28.5 C35.5,37.337 28.337,44.5 19.5,44.5 C10.664,44.5 3.5,37.337 3.5,28.5 C3.5,19.664 10.664,12.5 19.5,12.5 Z M19.5,28.5 L32.5,14.5 M38.5,14.5 L43.5,9.5 L37.5,9.5 L37.5,4.5 L32.5,8.5 L32.5,14.5 L38.5,14.5 Z"/>
</svg>
