<svg class="color-immutable" xmlns="http://www.w3.org/2000/svg" width="59" height="20" fill="none" viewBox="0 0 59 20"><g clip-path="url(#a)"><path stroke="#FFDE15" d="M2 .5h55A1.5 1.5 0 0 1 58.5 2v16a1.5 1.5 0 0 1-1.5 1.5H2A1.5 1.5 0 0 1 .5 18V2A1.5 1.5 0 0 1 2 .5Z"/><path fill="#FFDE15" d="M45.704 12.896h2.183q.27 1.345 1.559 1.345.727 0 1.182-.495t.7-1.538q.158-.665.23-1.511-.53.744-1.088 1.056t-1.357.312q-1.273 0-2.214-.743a3.5 3.5 0 0 1-1.025-1.353 4.4 4.4 0 0 1-.367-1.803q0-1.954 1.336-3.164 1.147-1.044 2.753-1.044.989 0 1.827.443a3.96 3.96 0 0 1 1.408 1.257q1.005 1.447 1.005 4.066 0 2.42-.886 4.129-1.155 2.223-3.497 2.223-1.558 0-2.574-.863-1.017-.861-1.175-2.317m3.844-6.985q-.743 0-1.257.61-.514.616-.514 1.566 0 .767.371 1.36.506.815 1.424.815.831 0 1.329-.665.467-.624.467-1.487 0-.909-.483-1.542a1.6 1.6 0 0 0-1.337-.657M32.918 4.2h4.042l.805 6.063L40.388 4.2h4.042l-5 11.6h-4.06l-.928-5.758-2.483 5.758H27.9zM26.092 12.366a.92.92 0 0 0 .843-.553L30.216 4.2H16.13l-5.001 11.6h4.025l3.786-8.69h5.973l-1.197 2.775-5.209-.019L22.71 15.8h4.582l-3.114-3.434zM9.388 4.2h4.042L8.43 15.8h-4.06z"/></g><defs><clipPath id="a"><path fill="#fff" d="M0 0h59v20H0z"/></clipPath></defs></svg>