<svg class="color-immutable" xmlns="http://www.w3.org/2000/svg" width="59" height="20" fill="none" viewBox="0 0 59 20"><path fill="#EB0000" fill-rule="evenodd" d="M2 0a2 2 0 0 0-2 2v16a2 2 0 0 0 2 2h55a2 2 0 0 0 2-2V2a2 2 0 0 0-2-2z" clip-rule="evenodd"/><path fill="#fff" fill-rule="evenodd" d="M42.277 7.123h2.191a3.9 3.9 0 0 0-.749-1.875q-1.017-1.29-2.933-1.29a3.75 3.75 0 0 0-3.208 1.622q-1.215 1.677-1.214 4.635 0 2.769 1.135 4.315t3.177 1.547a3.84 3.84 0 0 0 2.728-1.068q1.26-1.187 1.261-3.14a4.05 4.05 0 0 0-.938-2.737 3.26 3.26 0 0 0-2.61-1.155 3 3 0 0 0-1.414.308c-.44.25-.82.596-1.108 1.013.05-.657.168-1.307.355-1.938q.535-1.575 1.813-1.574 1.206 0 1.514 1.337m-3.028 3.345a1.53 1.53 0 0 1 1.317-.696 1.64 1.64 0 0 1 1.41.736c.292.425.441.932.427 1.448a2.43 2.43 0 0 1-.473 1.495 1.59 1.59 0 0 1-1.333.672 1.55 1.55 0 0 1-1.34-.704 2.5 2.5 0 0 1-.45-1.48 2.46 2.46 0 0 1 .442-1.47" clip-rule="evenodd"/><path fill="#fff" d="M53.069 4.235v2.057h-4.643l-.497 2.603a2.8 2.8 0 0 1 2.136-.886 3.68 3.68 0 0 1 2.224.688q1.403 1.035 1.403 3.148 0 2.073-1.498 3.283a4.28 4.28 0 0 1-2.79.949q-1.83 0-2.941-.985-1.112-.985-1.175-2.662h2.263c.025.377.162.738.394 1.036a1.917 1.917 0 0 0 2.9.016c.348-.443.53-.994.513-1.558.03-.58-.162-1.15-.536-1.594a1.82 1.82 0 0 0-1.427-.597 1.9 1.9 0 0 0-1.695.98l-2.057-.031 1.096-6.447zM9.22 4.2h4.056L8.258 15.8H4.185zM25.98 12.366a.93.93 0 0 0 .847-.553L30.119 4.2H15.984l-5.018 11.6h4.038l3.8-8.69h5.993l-1.201 2.775-5.226-.019 4.217 5.934h4.597l-3.124-3.434z"/></svg>