<svg xmlns="http://www.w3.org/2000/svg" width="24" height="24" fill="none" viewBox="0 0 24 24"><path fill="#000" fill-rule="evenodd" d="M4.318 3.318C4.136 3.5 4 3.822 4 4.403V8h9v1H4v4h4v1H6v2H3V8H2V6h1V4.403c0-.717.166-1.347.611-1.792S4.686 2 5.403 2H12.5c.718 0 1.362.166 1.827.598.472.439.673 1.069.673 1.805V6h-1V4.403c0-.562-.15-.883-.353-1.072C13.437 3.136 13.08 3 12.5 3H5.403c-.581 0-.903.136-1.085.318M4 14h1v1H4zm8-10H6v1h6zm6.646.646-15 15 .708.708 15-15zM16.5 12H16v5h4.637l.252.708.01.028.014.027a.8.8 0 0 1 .087.377.85.85 0 0 1-.84.86H10v1h3.05c.076.369.233.709.453 1H10v1h12v-1h-4.503c.22-.291.377-.631.453-1h2.21A1.85 1.85 0 0 0 22 18.14c0-.287-.063-.553-.178-.794l-1.87-5.24a4.6 4.6 0 0 0-2.557-2.746l-.39.92A3.6 3.6 0 0 1 18.828 12zm-1 9c.649 0 1.206-.42 1.414-1h-2.828c.208.58.765 1 1.414 1m3.71-8 1.07 3H17v-3zM15 16.5V12h-1v4h-4v1h5zM6 10A1 1 0 1 0 6.002 12 1 1 0 0 0 6 10" clip-rule="evenodd"/></svg>