<svg xmlns="http://www.w3.org/2000/svg" width="24" height="24" version="1.1" viewBox="0 0 24 24">
  <path fill="none" fill-rule="evenodd" stroke="#000" stroke-width="1" d="M3.3081,8.2351 C5.1171,7.1411 7.2311,6.5001 9.4991,6.5001 C13.9511,6.5001 17.8281,8.9301 19.8991,12.5311 M19.8545,9.1013 C17.2925,6.2813 13.6095,4.4993 9.4995,4.4993 C7.6445,4.4993 5.8775,4.8693 4.2575,5.5233 M3.2544,13.5075 C4.7204,11.6765 6.9714,10.4995 9.5004,10.4995 C13.8974,10.4995 17.4634,14.0495 17.4974,18.4405 M19.0938,15.697 C17.8818,11.54 14.0488,8.5 9.4998,8.5 C7.0178,8.5 4.7518,9.409 3.0038,10.906 M5.5059,18.4421 C5.5369,16.2601 7.3109,14.5001 9.4999,14.5001 C11.7089,14.5001 13.4999,16.2911 13.4999,18.5001 L13.4999,21.1961 M15.5,20.2634 L15.5,18.5004 C15.5,15.1864 12.813,12.5004 9.5,12.5004 C7.069,12.5004 4.98,13.9494 4.037,16.0284 M11.5,21.4997 L11.5,18.4997 C11.5,17.3957 10.604,16.4997 9.5,16.4997 C8.395,16.4997 7.5,17.3957 7.5,18.4997 L7.5,20.2637 M9.5,17.9997 L9.5,20.9997 M7.7236,2.6032 C8.3066,2.5382 8.8986,2.4992 9.4986,2.4992 C12.4686,2.4992 15.2416,3.3172 17.6226,4.7282"/>
</svg>
