<svg xmlns="http://www.w3.org/2000/svg" width="24" height="24" fill="none" viewBox="0 0 24 24"><path fill="#000" d="M12.89 11H14v1H4v8h14v-4h1v5H3V10h3v1h1.108l.403-1.62.093-.38h4.787zM11 14a2 2 0 1 0 2 2h1a3 3 0 1 1-3-3zm6-3a2 2 0 0 0 2 2v1a2 2 0 0 0-2 2h-1a2 2 0 0 0-2-2v-1a2 2 0 0 0 2-2zm-.5 1.656c-.222.335-.51.622-.844.844.335.222.622.508.844.843.222-.334.509-.621.843-.843a3 3 0 0 1-.843-.844M8.14 11h3.72l-.25-1H8.387zM19 3a3 3 0 0 0 3 3v1a3 3 0 0 0-3 3h-1a3 3 0 0 0-3-3V6a3 3 0 0 0 3-3zm-.5 1.937A4 4 0 0 1 16.936 6.5c.657.364 1.2.906 1.564 1.563A4 4 0 0 1 20.063 6.5 4 4 0 0 1 18.5 4.937"/></svg>