<svg xmlns="http://www.w3.org/2000/svg" width="24" height="24" fill="none" viewBox="0 0 24 24"><path fill="#000" fill-rule="evenodd" d="M14.935 4.652C15.286 3.515 16.245 2.8 17.4 2.8c.73 0 1.39.276 1.865.783.474.505.735 1.209.735 2.017 0 .684-.21 1.33-.564 1.846 1.255 1.003 1.887 2.456 2.21 3.649a10.7 10.7 0 0 1 .348 2.203q.005.093.005.145v.04l.001.011v.005l-.5.001h.5v.5h-3.153a11 11 0 0 1 .147 1.293q.005.095.005.148v.042l.001.011v.005l-.5.001h.5v.5h-5.248c.312.674.544 1.35.718 1.98a15.5 15.5 0 0 1 .521 3.23q.007.135.008.21v.057l.001.016v.006l-.5.001h.5v.5H2v-.5h.5H2v-.023a5 5 0 0 1 .009-.268 15.487 15.487 0 0 1 .522-3.23c.496-1.804 1.476-3.981 3.423-5.436A4.66 4.66 0 0 1 5 9.7c0-2.234 1.584-3.9 3.5-3.9 1.907 0 3.5 1.555 3.5 3.9v.078q.209-.21.428-.395c-.4-.54-.628-1.242-.628-1.983 0-.808.261-1.512.735-2.017.475-.507 1.135-.783 1.865-.783q.275 0 .535.052m.928.387q.218.149.402.344c.474.505.735 1.209.735 2.017q0 .072-.003.143c.12.039.249.057.403.057.756 0 1.6-.803 1.6-2 0-.592-.189-1.038-.465-1.333-.275-.293-.665-.467-1.135-.467-.71 0-1.33.434-1.536 1.239m.952 3.492a3.1 3.1 0 0 1-.435.84c1.26.994 1.906 2.433 2.24 3.63h2.352l-.012-.119a10 10 0 0 0-.28-1.527c-.305-1.126-.879-2.376-1.947-3.189A2.3 2.3 0 0 1 17.4 8.6q-.315 0-.585-.07M17.972 15h-4.747c-.537-.897-1.24-1.75-2.158-2.441l.048-.069q.076-.104.148-.213l.535-.774c.44-.528.914-1.075 1.375-1.438.356.213.769.335 1.227.335.461 0 .877-.124 1.234-.34 1.118.816 1.717 2.093 2.034 3.247A10 10 0 0 1 17.972 15m-7.685-3.071.187-.27c.323-.523.526-1.19.526-1.959 0-1.855-1.207-2.9-2.5-2.9C7.216 6.8 6 7.934 6 9.7c0 .886.31 1.699.788 2.284.478.587 1.096.916 1.712.916.653 0 1.31-.356 1.787-.971m2.978-5.862c-.276.295-.465.741-.465 1.333 0 1.213.758 2 1.6 2s1.6-.787 1.6-2c0-.592-.188-1.038-.465-1.333-.275-.293-.665-.467-1.135-.467s-.86.174-1.135.467m-2.92 7.203a3.06 3.06 0 0 1-1.845.63c-.674 0-1.3-.245-1.827-.644-1.772 1.264-2.698 3.245-3.178 4.99A14.5 14.5 0 0 0 3.023 21h10.954a14.482 14.482 0 0 0-.472-2.755c-.478-1.738-1.4-3.71-3.16-4.975" clip-rule="evenodd"/></svg>