<?xml version="1.0" encoding="utf-8"?>
<!-- Generator: Adobe Illustrator 25.3.1, SVG Export Plug-In . SVG Version: 6.00 Build 0)  -->
<svg version="1.0" id="_x3C_Ebene_x3E_" xmlns="http://www.w3.org/2000/svg" xmlns:xlink="http://www.w3.org/1999/xlink" x="0px"
	 y="0px" viewBox="0 0 24 24" enable-background="new 0 0 24 24" xml:space="preserve">
<g id="SVG_x5F_24x24pt">
	<path id="backgroundBlue" fill="#2D327D" d="M0,22.5v-21C0,0.675,0.675,0,1.5,0h21C23.325,0,24,0.675,24,1.5v21
		c0,0.825-0.675,1.5-1.5,1.5h-21C0.675,24,0,23.325,0,22.5z"/>
	<g id="content">
		
			<rect x="4.341" y="16.18" transform="matrix(0.7071 -0.7071 0.7071 0.7071 -11.5209 9.2709)" fill="#FFFFFF" width="2.179" height="4.725"/>
		<path fill="#FFFFFF" d="M15.219,15.491c0.001,0.004,0.002,0.008,0.002,0.013c0.002,0.032,0.005,0.063,0.005,0.095
			c0,0.663-0.537,1.2-1.2,1.2h-3.45v-0.375h3.45c0.456,0,0.825-0.369,0.825-0.825c0-0.035-0.002-0.071-0.007-0.104
			c-0.017-0.138-0.069-0.266-0.146-0.373c0,0,0-0.001-0.001-0.001c-0.152-0.214-0.407-0.348-0.671-0.346h-2.303
			c-0.463,0-0.759-0.134-1.036-0.275c-0.064-0.031-0.133-0.069-0.198-0.1c-0.535-0.269-1.126-0.32-1.723-0.32
			c-0.642-0.005-1.294,0.137-1.837,0.488c-0.236,0.148-0.461,0.332-0.682,0.557l-1.087,1.082l2.601,2.601L8.264,18.3l5.764-0.005
			c0.435,0,0.827-0.164,1.126-0.434l0.547-0.538l0.095-0.093l1.726-1.726c-0.429-0.013-0.87-0.018-1.328-0.018
			C15.873,15.486,15.551,15.488,15.219,15.491z"/>
		<path fill="#FFFFFF" d="M17.595,12.712c-2.469-0.478-5.832-0.494-7.97-0.363c-2.214,0.137-3.412,0.248-5.182,0.56
			c0.846,0.406,1.538,0.821,2.198,1.396c0.192-0.129,0.391-0.236,0.599-0.322c0.456-0.189,0.956-0.278,1.525-0.278
			c0.582,0,1.262,0.043,1.892,0.36c0.065,0.03,0.134,0.068,0.199,0.1c0.262,0.134,0.492,0.235,0.866,0.235h2.304
			c0.489,0.002,0.911,0.298,1.096,0.719c0.091-0.001,0.181-0.002,0.271-0.002c0.267-0.002,0.533-0.004,0.799-0.004
			c0.573,0,1.134,0.007,1.69,0.031c1.034,0.043,2.054,0.144,3.117,0.361C19.558,14.028,18.77,13.457,17.595,12.712z"/>
		<path fill="#FFFFFF" d="M10.635,7.497C10.65,7.499,10.664,7.5,10.678,7.5c0.147,0,0.275-0.108,0.297-0.257
			c0.023-0.164-0.09-0.316-0.254-0.34c-0.164-0.023-0.316,0.09-0.34,0.254C10.358,7.321,10.471,7.473,10.635,7.497z"/>
		<path fill="#FFFFFF" d="M10.917,5.547c0.014,0.002,0.029,0.003,0.044,0.003c0.146,0,0.275-0.108,0.296-0.257
			c0.023-0.164-0.09-0.316-0.254-0.34c-0.164-0.023-0.316,0.09-0.34,0.254C10.639,5.371,10.752,5.523,10.917,5.547z"/>
		<path fill="#FFFFFF" d="M10.354,9.447c0.014,0.002,0.029,0.003,0.043,0.003c0.147,0,0.275-0.108,0.297-0.257
			c0.023-0.164-0.09-0.316-0.254-0.34c-0.164-0.023-0.316,0.09-0.34,0.254C10.077,9.271,10.19,9.423,10.354,9.447z"/>
		<path fill="#FFFFFF" d="M13.301,6.903c-0.164,0.022-0.28,0.172-0.257,0.337c0.02,0.151,0.148,0.26,0.296,0.26
			c0.014,0,0.027-0.001,0.041-0.003c0.164-0.022,0.28-0.173,0.257-0.337C13.616,6.996,13.465,6.88,13.301,6.903z"/>
		<path fill="#FFFFFF" d="M13.038,4.953c-0.164,0.022-0.28,0.172-0.257,0.337c0.02,0.151,0.148,0.26,0.297,0.26
			c0.013,0,0.026-0.001,0.04-0.003c0.164-0.022,0.28-0.173,0.257-0.337C13.353,5.046,13.203,4.93,13.038,4.953z"/>
		<path fill="#FFFFFF" d="M13.563,8.853c-0.164,0.022-0.28,0.172-0.257,0.337c0.02,0.151,0.148,0.26,0.296,0.26
			c0.014,0,0.027-0.001,0.041-0.003c0.164-0.022,0.28-0.173,0.257-0.337C13.878,8.946,13.728,8.83,13.563,8.853z"/>
		<circle fill="#FFFFFF" cx="11.991" cy="10.163" r="0.3"/>
		<circle fill="#FFFFFF" cx="11.991" cy="6.34" r="0.3"/>
		<circle fill="#FFFFFF" cx="11.991" cy="8.252" r="0.3"/>
		<circle fill="#FFFFFF" cx="12.816" cy="3.3" r="0.3"/>
		<circle fill="#FFFFFF" cx="11.241" cy="3.3" r="0.3"/>
		<circle fill="#FFFFFF" cx="11.991" cy="4.425" r="0.3"/>
	</g>
</g>
</svg>
