<?xml version="1.0" encoding="utf-8"?>
<!-- Generator: Adobe Illustrator 25.0.0, SVG Export Plug-In . SVG Version: 6.00 Build 0)  -->
<svg version="1.0" xmlns="http://www.w3.org/2000/svg" xmlns:xlink="http://www.w3.org/1999/xlink" x="0px" y="0px"
	 viewBox="0 0 24 24" enable-background="new 0 0 24 24" xml:space="preserve">
<g id="SVG_x5F_24x24pt">
	<path id="backgroundBlue" fill="#2D327D" d="M0,22.5v-21C0,0.675,0.675,0,1.5,0h21C23.325,0,24,0.675,24,1.5v21
		c0,0.825-0.675,1.5-1.5,1.5h-21C0.675,24,0,23.325,0,22.5z"/>
	<g id="content">
		<path fill="#FFFFFF" d="M17.478,12.223l-0.003,0.755c0.002,0.165-0.135,0.295-0.3,0.297h-0.102l-0.514-1.349h0.616
			C17.34,11.925,17.477,12.058,17.478,12.223z"/>
		<path fill="#FFFFFF" d="M2.997,3h1.817C5.12,3,5.36,3.019,5.536,3.057C5.711,3.095,5.87,3.162,6.012,3.259
			C6.404,3.521,6.6,3.918,6.6,4.447c0,0.47-0.162,0.84-0.487,1.109C5.976,5.671,5.819,5.754,5.642,5.804
			c-0.177,0.05-0.394,0.076-0.653,0.076h-1.01v1.623H2.997V3z M3.979,3.831v1.275h0.878c0.261,0,0.449-0.046,0.563-0.139
			C5.562,4.853,5.633,4.683,5.633,4.46c0-0.226-0.082-0.394-0.246-0.505C5.268,3.873,5.073,3.831,4.805,3.831H3.979z"/>
		<path fill="#FFFFFF" d="M18.375,15.75c-0.224,0-0.441,0.028-0.648,0.081l-2.071-5.438c-0.046-0.12-0.16-0.193-0.282-0.192V10.2
			h-1.986c-0.187,0-0.338,0.151-0.338,0.337c0,0.187,0.151,0.338,0.338,0.338h1.809l1.97,5.17c-0.841,0.437-1.416,1.316-1.416,2.33
			c0,1.45,1.175,2.625,2.625,2.625S21,19.825,21,18.375C21,16.925,19.825,15.75,18.375,15.75z M18.375,19.875
			c-0.829,0-1.5-0.671-1.5-1.5c0-0.533,0.278-1,0.697-1.266l0.523,1.372c0.046,0.12,0.159,0.193,0.28,0.193
			c0.035,0,0.072-0.006,0.107-0.02c0.155-0.059,0.233-0.232,0.174-0.387l-0.523-1.372c0.079-0.013,0.16-0.021,0.242-0.021
			c0.829,0,1.5,0.671,1.5,1.5S19.204,19.875,18.375,19.875z"/>
		<path fill="#FFFFFF" d="M8.25,13.35c0-0.373-0.302-0.675-0.675-0.675H3.75v0.675H8.25z"/>
		<path fill="#FFFFFF" d="M15.274,11.925h-1.959c-0.155,0-0.297,0.052-0.411,0.139c-0.493,0.385-1.634,1.276-1.774,1.386
			c-0.182,0.144-0.377,0.2-0.555,0.2c-1.531,0-6.825,0-6.825,0v0.9h1.875c2.012,0,3.66,1.553,3.812,3.525H8.232
			c-0.149-1.308-1.259-2.325-2.607-2.325C4.175,15.75,3,16.925,3,18.375C3,19.825,4.175,21,5.625,21
			c1.348,0,2.458-1.016,2.607-2.325l1.743,0h3.978c0.338,0,0.611-0.274,0.611-0.611v-0.021c0.11-1.278,0.847-2.376,1.904-2.984
			L15.274,11.925z M5.625,19.875c-0.829,0-1.5-0.671-1.5-1.5s0.671-1.5,1.5-1.5c0.726,0,1.331,0.515,1.47,1.2H5.626
			c-0.055,0.001-0.11,0.016-0.158,0.046c-0.141,0.087-0.186,0.271-0.098,0.413c0.055,0.089,0.151,0.142,0.255,0.142l1.47,0
			C6.956,19.36,6.351,19.875,5.625,19.875z"/>
	</g>
</g>
</svg>
