<svg xmlns="http://www.w3.org/2000/svg" width="36" height="36" fill="none" viewBox="0 0 36 36"><path fill="#000" fill-rule="evenodd" d="M18 4.25C10.406 4.25 4.25 10.405 4.25 18S10.406 31.75 18 31.75 31.75 25.594 31.75 18 25.594 4.25 18 4.25M3.25 18C3.25 9.853 9.853 3.25 18 3.25S32.75 9.853 32.75 18 26.147 32.75 18 32.75 3.25 26.146 3.25 18M22.5 9.358l.353.353 3.435 3.421.354.353-.353.354-2.647 2.66-.08.079-.273.275-8.25 8.25-.147.147H10.75v-4.142l.146-.146 8.25-8.25 3-3zm-2.293 3.707 2.728 2.727 2.293-2.304L22.5 10.77zm-8.457 8.457 7.75-7.75 2.728 2.727-7.75 7.751H11.75z" clip-rule="evenodd"/></svg>