<svg xmlns="http://www.w3.org/2000/svg" width="24" height="24" version="1.1" viewBox="0 0 24 24">
  <g fill="none" fill-rule="evenodd" stroke="none" stroke-width="1">
    <path fill="#000" d="M12.4351,16.0845 C12.9831,16.0805 13.4311,15.9085 13.7811,15.5715 C14.1301,15.2335 14.3041,14.8015 14.3041,14.2725 C14.3041,13.7305 14.1541,13.3015 13.8511,12.9875 C13.5491,12.6735 13.0781,12.4575 12.4351,12.3395 L12.4351,16.0845 Z M11.6571,7.6175 C11.1991,7.6315 10.8401,7.7285 10.5811,7.9075 C10.1181,8.2285 9.8861,8.6905 9.8861,9.2955 C9.8861,9.7675 10.0311,10.1405 10.3191,10.4135 C10.6071,10.6885 11.0521,10.8765 11.6571,10.9805 L11.6571,7.6175 Z M8.5061,13.8185 L9.7091,13.8185 C9.7091,15.2545 10.3591,16.0095 11.6571,16.0845 L11.6571,12.1695 C10.9351,12.0475 10.3261,11.8275 9.8301,11.5115 C9.0751,11.0345 8.6971,10.3285 8.6971,9.3945 C8.6971,8.5965 8.9651,7.9465 9.5001,7.4435 C10.0371,6.9405 10.7551,6.6685 11.6571,6.6255 L11.6571,5.3585 L12.4351,5.3585 L12.4351,6.6255 C13.3321,6.6965 14.0121,6.9615 14.4741,7.4185 C14.9751,7.9095 15.2201,8.5565 15.2101,9.3585 L14.0211,9.3585 C13.9461,8.2405 13.4171,7.6615 12.4351,7.6245 L12.4351,11.1715 C13.0311,11.3225 13.4421,11.4385 13.6711,11.5185 C13.9001,11.5985 14.1141,11.7025 14.3121,11.8295 C15.1001,12.3395 15.4941,13.1155 15.4941,14.1585 C15.4941,15.2345 15.0551,16.0545 14.1771,16.6155 C13.7571,16.8855 13.1761,17.0405 12.4351,17.0835 L12.4351,18.6415 L11.6571,18.6415 L11.6571,17.0835 C10.5951,17.0175 9.8061,16.7005 9.2921,16.1345 C8.7631,15.5495 8.5011,14.7775 8.5061,13.8185 L8.5061,13.8185 Z"/>
    <path stroke="#000" d="M21.5,12 C21.5,17.247 17.247,21.5 12,21.5 C6.753,21.5 2.5,17.247 2.5,12 C2.5,6.753 6.753,2.5 12,2.5 C17.247,2.5 21.5,6.753 21.5,12 Z M9,5.1284 C6.95,6.0244 5.39,7.8134 4.783,10.0004"/>
  </g>
</svg>
