<svg xmlns="http://www.w3.org/2000/svg" width="36" height="36" viewBox="0 0 36 36">
  <path fill="none" stroke="#000" d="M11.25,24.75 L11.25,29.25 L6.75,29.25 L6.75,24.75 L11.25,24.75 Z M20.25,24.75 L20.25,29.25 L15.75,29.25 L15.75,24.75 L20.25,24.75 Z M29.25,24.75 L29.25,29.25 L24.75,29.25 L24.75,24.75 L29.25,24.75 Z M11.25,15.75 L11.25,20.25 L6.75,20.25 L6.75,15.75 L11.25,15.75 Z M20.25,15.75 L20.25,20.25 L15.75,20.25 L15.75,15.75 L20.25,15.75 Z M29.25,15.75 L29.25,20.25 L24.75,20.25 L24.75,15.75 L29.25,15.75 Z M11.25,6.75 L11.25,11.25 L6.75,11.25 L6.75,6.75 L11.25,6.75 Z M20.25,6.75 L20.25,11.25 L15.75,11.25 L15.75,6.75 L20.25,6.75 Z M29.25,6.75 L29.25,11.25 L24.75,11.25 L24.75,6.75 L29.25,6.75 Z"/>
</svg>
