<svg class="color-immutable" width="59" height="20" viewBox="0 0 59 20" fill="none" xmlns="http://www.w3.org/2000/svg"><g clip-path="url(#a)"><path d="M.5 2A1.5 1.5 0 0 1 2 .5h55A1.5 1.5 0 0 1 58.5 2v16a1.5 1.5 0 0 1-1.5 1.5H2A1.5 1.5 0 0 1 .5 18V2Z" stroke="#000"/><path d="M12.877 7.71h-2.449c-.048-.575-.263-1.013-.644-1.314-.376-.306-.905-.459-1.587-.459-.607 0-1.08.121-1.418.363-.333.236-.5.57-.5.999 0 .387.161.666.483.838.312.172 1.102.413 2.37.725 1.337.333 2.263.669 2.779 1.007.95.623 1.426 1.49 1.426 2.602 0 1.22-.478 2.18-1.434 2.884-.844.618-1.985.927-3.424.927-1.601 0-2.844-.365-3.73-1.096-.887-.73-1.346-1.77-1.378-3.118h2.562c.037.656.206 1.142.507 1.459.473.505 1.185.757 2.135.757.645 0 1.155-.126 1.531-.379.424-.29.636-.684.636-1.184 0-.5-.298-.865-.894-1.096-.327-.129-1.1-.362-2.32-.7-.763-.21-1.359-.409-1.789-.597-.43-.188-.773-.397-1.031-.628-.602-.537-.902-1.279-.902-2.224 0-1.133.47-2.03 1.41-2.69.8-.565 1.84-.847 3.118-.847 1.122 0 2.062.223 2.82.669 1.09.64 1.664 1.673 1.723 3.102ZM14.263 13.043h2.224c.182.913.712 1.37 1.587 1.37.494 0 .894-.167 1.2-.5.312-.338.551-.862.717-1.57.108-.452.186-.965.234-1.54-.36.505-.73.865-1.112 1.08-.376.21-.835.314-1.377.314-.865 0-1.617-.252-2.256-.757a3.607 3.607 0 0 1-1.048-1.378 4.527 4.527 0 0 1-.37-1.837c0-1.326.454-2.4 1.361-3.222.78-.71 1.714-1.064 2.804-1.064.671 0 1.292.15 1.861.451.57.301 1.047.728 1.434 1.281.682.983 1.023 2.364 1.023 4.141 0 1.644-.3 3.046-.902 4.206-.784 1.51-1.971 2.264-3.561 2.264-1.058 0-1.934-.293-2.626-.878-.688-.586-1.085-1.373-1.193-2.36ZM18.18 5.93c-.505 0-.932.207-1.281.62-.35.42-.524.951-.524 1.596 0 .52.126.983.379 1.386.343.553.827.83 1.45.83.564 0 1.015-.226 1.353-.677.317-.425.476-.93.476-1.515 0-.618-.164-1.141-.492-1.571a1.636 1.636 0 0 0-1.361-.669ZM25.293 9.676c-.548-.188-.97-.497-1.265-.927-.29-.43-.435-.95-.435-1.563 0-1.02.419-1.834 1.257-2.441.74-.537 1.622-.806 2.642-.806 1.16 0 2.108.32 2.844.959.698.602 1.048 1.345 1.048 2.232 0 .617-.148 1.146-.444 1.587-.295.44-.714.76-1.256.959.424.123.77.282 1.039.475.747.542 1.12 1.335 1.12 2.377 0 1.197-.46 2.15-1.378 2.86-.773.596-1.767.894-2.98.894-1.317 0-2.364-.328-3.143-.983-.811-.682-1.216-1.576-1.216-2.683 0-1.036.36-1.84 1.08-2.409.327-.252.69-.43 1.087-.531Zm2.167-3.908c-.516 0-.932.145-1.249.435-.317.285-.475.66-.475 1.128 0 .489.158.88.475 1.176.322.29.752.435 1.29.435.536 0 .96-.145 1.272-.435.312-.29.468-.684.468-1.184 0-.489-.159-.87-.476-1.144-.311-.274-.746-.41-1.305-.41Zm-.016 4.794c-.58 0-1.056.18-1.426.54-.365.354-.548.81-.548 1.37 0 .574.185 1.041.556 1.401.376.36.862.54 1.458.54.677 0 1.184-.199 1.523-.596.327-.382.491-.822.491-1.322 0-.569-.188-1.036-.564-1.401-.36-.355-.856-.532-1.49-.532Z" fill="#000"/></g><defs><clipPath id="a"><path fill="#fff" d="M0 0h59v20H0z"/></clipPath></defs></svg>