<svg width="36" height="36" viewBox="0 0 36 36" fill="none" xmlns="http://www.w3.org/2000/svg"><path fill-rule="evenodd" clip-rule="evenodd" d="M17.5 3.258c-.416.014-.828.045-1.234.093l.116.993c.368-.043.741-.072 1.118-.085V18.16l.092.13 8.25 11.62.29.408.408-.29a14.842 14.842 0 0 0 3.044-2.896 14.77 14.77 0 0 0 1.287-1.923 13.774 13.774 0 0 0 .206-.38 14.668 14.668 0 0 0 1.66-7.432 14.686 14.686 0 0 0-3.428-8.866 14.835 14.835 0 0 0-1.925-1.912A14.684 14.684 0 0 0 18 3.25h-.5v.008Zm1.265 1.013a14.033 14.033 0 0 0-.254-.012H18.5V17.84l7.863 11.074.15-.116A13.778 13.778 0 0 0 30 24.719a11.6 11.6 0 0 0 .19-.353 13.672 13.672 0 0 0 1.554-6.775 13.69 13.69 0 0 0-3.132-8.335 13.837 13.837 0 0 0-1.785-1.8 13.69 13.69 0 0 0-8.062-3.185Zm-4.77-.47a14.663 14.663 0 0 0-3.204 1.328l.49.872a13.663 13.663 0 0 1 2.985-1.238l-.271-.963ZM8.868 6.415a14.835 14.835 0 0 0-2.452 2.452l.785.62A13.835 13.835 0 0 1 9.487 7.2l-.62-.785Zm-3.74 4.375A14.663 14.663 0 0 0 3.8 13.995l.963.27a13.663 13.663 0 0 1 1.238-2.984l-.872-.49Zm-1.777 5.475a14.897 14.897 0 0 0 0 3.468l.993-.116a13.899 13.899 0 0 1 0-3.236l-.993-.116Zm.45 5.74a14.663 14.663 0 0 0 1.328 3.203l.872-.49a13.663 13.663 0 0 1-1.238-2.985l-.963.271Zm2.615 5.126c.719.91 1.542 1.733 2.452 2.452l.62-.785A13.832 13.832 0 0 1 7.2 26.513l-.785.62Zm4.375 3.74a14.665 14.665 0 0 0 3.204 1.328l.27-.963a13.662 13.662 0 0 1-2.984-1.238l-.49.872ZM22.005 32.2a14.665 14.665 0 0 0 3.204-1.329l-.49-.872c-.933.524-1.933.942-2.985 1.238l.271.963Zm-5.74.45a14.91 14.91 0 0 0 3.47 0l-.117-.994a13.91 13.91 0 0 1-3.236 0l-.116.993Z" fill="#000"/></svg>