<svg xmlns="http://www.w3.org/2000/svg" width="36" height="36" viewBox="0 0 36 36">
  <path fill="none" stroke="#000" d="M20.25,11.24955 L20.25,20.24955 L15.75,20.24955 L15.75,11.24955 M15.75,20.24955 L15.75,26.24955 L12,31.49955 M23.25,32.99955 L23.25,24.74955 L20.25,20.24955 M18,8.24955 C16.8,8.24955 15.75,7.19955 15.75,5.99955 C15.75,4.79955 16.8,3.74955 18,3.74955 C19.2,3.74955 20.25,4.79955 20.25,5.99955 C20.25,7.19955 19.2,8.24955 18,8.24955 Z M12.75,20.99955 L12.75,15.74955 L15.75,11.24955 L20.25,11.24955 L23.25,15.74955 L28.5,17.24955"/>
</svg>
