<svg xmlns="http://www.w3.org/2000/svg" width="24" height="24" fill="none" viewBox="0 0 24 24"><path fill="#000" d="m20.354 18.65-.707.707-4.367-4.367a4 4 0 0 1-.312.014h-7c-.953 0-1.692-.307-2.2-.817-.502-.503-.737-1.163-.765-1.802-.028-.635.147-1.283.507-1.785a2.07 2.07 0 0 1 1.146-.811c.049-.967.597-1.71 1.326-2.097L3.647 3.357l.707-.707zM10.306 7.43c1.05-1.489 2.817-1.728 4.152-1.1 1.22.576 2.083 1.87 1.822 3.549.846.19 1.404.834 1.62 1.584.26.898.048 1.993-.722 2.733l-.347-.36-.346-.362c.477-.46.62-1.158.455-1.734-.16-.551-.58-.943-1.252-.916l-.7.027.2-.67c.44-1.473-.228-2.509-1.155-2.946-.952-.448-2.175-.273-2.91.77zm-1.56 1.026c-.657.186-1.19.812-1.082 1.708l.068.56h-.564c-.349 0-.635.168-.845.46-.217.301-.34.723-.32 1.157.018.432.175.841.473 1.14.292.293.762.523 1.492.523h6.325z"/></svg>