<svg class="color-immutable" xmlns="http://www.w3.org/2000/svg" width="59" height="20" fill="none" viewBox="0 0 59 20"><g clip-path="url(#a)"><path stroke="#FFDE15" d="M2 .5h55A1.5 1.5 0 0 1 58.5 2v16a1.5 1.5 0 0 1-1.5 1.5H2A1.5 1.5 0 0 1 .5 18V2A1.5 1.5 0 0 1 2 .5Z"/><path fill="#FFDE15" d="M47.515 9.59q-.807-.277-1.237-.91t-.431-1.535q0-1.502 1.233-2.396 1.092-.792 2.595-.791 1.709 0 2.792.941 1.028.885 1.028 2.191 0 .91-.435 1.558-.435.649-1.234.942.625.18 1.02.466 1.1.799 1.1 2.334 0 1.763-1.352 2.808-1.14.878-2.927.878-1.938 0-3.085-.965-1.194-1.005-1.194-2.634 0-1.527 1.06-2.365a2.9 2.9 0 0 1 1.067-.522m2.112.87q-.855 0-1.396.526-.541.525-.541 1.348 0 .847.55 1.377t1.427.53q.996 0 1.495-.586.483-.561.482-1.297 0-.839-.553-1.376-.531-.522-1.464-.522m.016-4.707q-.76 0-1.226.423-.467.424-.467 1.112 0 .72.471 1.15.47.432 1.262.432.79 0 1.25-.427.458-.428.458-1.163 0-.72-.462-1.123-.463-.404-1.286-.404M32.918 4.2h4.042l.805 6.063L40.387 4.2h4.043l-5.001 11.6h-4.06l-.927-5.758-2.483 5.758H27.9zM26.092 12.366a.92.92 0 0 0 .843-.553L30.216 4.2H16.13l-5.001 11.6h4.024l3.786-8.69h5.974l-1.197 2.775-5.209-.019L22.71 15.8h4.582l-3.114-3.434zM9.388 4.2h4.042l-5 11.6H4.37z"/></g><defs><clipPath id="a"><path fill="#fff" d="M0 0h59v20H0z"/></clipPath></defs></svg>