<?xml version="1.0" encoding="utf-8"?>
<!-- Generator: Adobe Illustrator 29.6.1, SVG Export Plug-In . SVG Version: 9.03 Build 0)  -->
<svg version="1.0" xmlns="http://www.w3.org/2000/svg" xmlns:xlink="http://www.w3.org/1999/xlink" x="0px" y="0px"
	 viewBox="0 0 24 24" enable-background="new 0 0 24 24" xml:space="preserve">
<g id="SVG_x5F_24x24pt">
	<path id="backgroundBlue" fill="#2D327D" d="M0,22.5v-21C0,0.675,0.675,0,1.5,0h21C23.325,0,24,0.675,24,1.5v21
		c0,0.825-0.675,1.5-1.5,1.5h-21C0.675,24,0,23.325,0,22.5z"/>
	<g id="content">
		<path fill="#FFFFFF" d="M6.287,11.948c-0.58,0-1.05-0.471-1.05-1.05c0-0.58,0.47-1.05,1.05-1.05c0.58,0,1.05,0.47,1.05,1.05
			C7.337,11.477,6.867,11.948,6.287,11.948L6.287,11.948z"/>
		<path fill="#FFFFFF" d="M5.771,19.502c-0.56,0-1.047-0.398-1.158-0.948l-1.606-8.02c-0.109-0.54,0.159-1.092,0.652-1.34
			l0.008-0.004l4.282-2.04C8.142,7.052,8.25,6.856,8.25,6.638V4.125H9v2.513c0,0.504-0.267,0.958-0.717,1.184L8.275,7.826
			l-4.282,2.04c-0.19,0.098-0.293,0.311-0.251,0.521l1.606,8.02c0.04,0.2,0.218,0.345,0.423,0.345c0,0,0.001,0,0.001,0l3.239-0.007
			l0.002,0.75l-3.239,0.007C5.772,19.502,5.772,19.502,5.771,19.502z"/>
		<polygon fill="#FFFFFF" points="9.375,4.879 9.375,5.563 20.999,3.703 20.999,3.019 		"/>
		<polygon fill="#FFFFFF" points="7.875,5.149 2.999,6.019 2.999,6.704 7.875,5.834 		"/>
		<path fill="#FFFFFF" d="M11.096,17.328c-0.006-0.414-0.346-0.746-0.761-0.74c0,0-2.009,0.003-2.202,0.002
			c-0.001-0.008-0.002-0.016-0.003-0.023l-0.408-2.043l1.214,1.081c0.1,0.089,0.225,0.133,0.349,0.133
			c0.145,0,0.289-0.059,0.392-0.176c0.193-0.217,0.174-0.548-0.043-0.741c0,0-2.558-2.277-2.562-2.28
			c-0.256-0.216-0.604-0.318-0.957-0.247h0c-0.617,0.123-1.017,0.723-0.894,1.34l0.731,3.629c0.102,0.437,0.452,0.726,0.924,0.719
			c0,0,2.85-0.002,2.85,0c0,0-0.001,2.36-0.001,2.371c0,0.38,0.308,0.687,0.687,0.687c0.38,0,0.687-0.308,0.687-0.687
			C11.101,20.34,11.096,17.328,11.096,17.328z"/>
	</g>
</g>
</svg>
