<?xml version="1.0" encoding="utf-8"?>
<!-- Generator: Adobe Illustrator 24.2.0, SVG Export Plug-In . SVG Version: 6.00 Build 0)  -->
<svg version="1.0" id="Ebene_1" xmlns="http://www.w3.org/2000/svg" xmlns:xlink="http://www.w3.org/1999/xlink" x="0px" y="0px"
	 viewBox="0 0 24 24" enable-background="new 0 0 24 24" xml:space="preserve">
<g id="SVG_x5F_24x24pt">
	<path id="backgroundBlue" fill="#2D327D" d="M0,22.5v-21C0,0.675,0.675,0,1.5,0h21C23.325,0,24,0.675,24,1.5v21
		c0,0.825-0.675,1.5-1.5,1.5h-21C0.675,24,0,23.325,0,22.5z"/>
	<g id="content">
		<polygon fill="#FFFFFF" points="8.212,5.132 21,3 21,3.684 8.212,5.816 8.212,5.132 		"/>
		<polygon fill="#FFFFFF" points="6.411,5.432 6.411,6.116 3,6.685 3,6 6.411,5.432 		"/>
		<path fill="#FFFFFF" d="M4.725,17.026v-3.709c0-0.62,0.505-1.124,1.125-1.124c0.365,0,0.707,0.176,0.918,0.475l1.859,2.622
			c0.06,0.086,0.093,0.188,0.093,0.293c0,0.28-0.227,0.507-0.505,0.507c-0.165,0-0.319-0.081-0.413-0.214l-0.752-1.059v1.573h2.062
			c0.415,0,0.751,0.336,0.751,0.75v3.169C9.862,20.69,9.552,21,9.168,21c-0.382,0-0.693-0.31-0.693-0.694v-2.531h-3
			C5.061,17.776,4.725,17.439,4.725,17.026L4.725,17.026z"/>
		<polygon fill="#FFFFFF" points="6.824,4.5 7.799,4.5 7.799,8.431 3.975,9.069 3.975,18.525 7.799,18.525 7.799,19.5 3,19.5 
			3,8.243 6.824,7.606 6.824,4.5 		"/>
		<path fill="#FFFFFF" d="M5.986,11.778c-0.58,0-1.05-0.471-1.05-1.05c0-0.58,0.47-1.05,1.05-1.05c0.58,0,1.05,0.47,1.05,1.05
			C7.036,11.307,6.566,11.778,5.986,11.778L5.986,11.778z"/>
	</g>
</g>
</svg>
