<svg xmlns="http://www.w3.org/2000/svg" width="24" height="24" fill="none" viewBox="0 0 24 24"><path fill="#000" fill-rule="evenodd" d="M5.207 7.028Q5.348 7.001 5.5 7h.464V6H5.5q-.25 0-.487.047zM6.893 7h.928V6h-.928zM8.75 7h.929V6H8.75zm1.857 0h.929V6h-.929zm1.857 0h.929V6h-.929zm1.857 0h.929V6h-.929zm1.858 0h.928V6h-.928zm1.857 0h.464q.151 0 .293.028l.194-.98A2.5 2.5 0 0 0 18.5 6h-.464zm-13.783.667c.11-.164.25-.305.414-.415l-.556-.83a2.5 2.5 0 0 0-.69.688zm15.08-.415q.248.167.415.415l.83-.557a2.5 2.5 0 0 0-.689-.689zM4 8.5q0-.152.029-.293l-.981-.195A2.5 2.5 0 0 0 3 8.5v.437h1zm15.971-.293q.03.141.029.293v.437h1V8.5q0-.25-.048-.488zM4 10.687v-.875H3v.875zm16-.875v.875h1v-.875zM4 12.437v-.875H3v.875zm16-.875v.875h1v-.875zM4 14.187v-.875H3v.875zm16-.875v.875h1v-.875zM4 15.5v-.438H3v.438q0 .25.048.487l.98-.194A1.5 1.5 0 0 1 4 15.5m16-.438v.438q0 .15-.029.293l.981.194Q21 15.75 21 15.5v-.438zM4.667 16.747a1.5 1.5 0 0 1-.414-.414l-.831.556c.182.272.416.507.689.69zm15.08-.414c-.11.163-.25.305-.414.414l.556.831c.273-.182.507-.417.69-.689zM5.5 17q-.151 0-.293-.029l-.194.981Q5.25 18 5.5 18h.464v-1zm13.293-.029A1.5 1.5 0 0 1 18.5 17h-.464v1h.464q.25 0 .487-.048zM7.821 17h-.928v1h.928zm1.858 0H8.75v1h.929zm1.857 0h-.929v1h.929zm1.857 0h-.929v1h.929zm1.857 0h-.929v1h.929zm1.857 0h-.928v1h.928zM17 10V9h-1v1h-1v1h1v1h1v-1h1v-1zm-7 1H6v-1h4zm-4 2h6v-1H6zm5 2H6v-1h5z" clip-rule="evenodd"/></svg>