<svg xmlns="http://www.w3.org/2000/svg" width="24" height="24" viewBox="0 0 24 24">
  <g fill="none" fill-rule="evenodd">
    <path fill="#000" d="M13.5,11 C13.5,11.829 12.829,12.5 12,12.5 C11.172,12.5 10.5,11.829 10.5,11 C10.5,10.171 11.172,9.5 12,9.5 C12.829,9.5 13.5,10.171 13.5,11"/>
    <path stroke="#000" d="M13.5,6 C13.5,6.829 12.829,7.5 12,7.5 C11.172,7.5 10.5,6.829 10.5,6 C10.5,5.171 11.172,4.5 12,4.5 C12.829,4.5 13.5,5.171 13.5,6 Z M13.5,11 C13.5,11.829 12.829,12.5 12,12.5 C11.172,12.5 10.5,11.829 10.5,11 C10.5,10.171 11.172,9.5 12,9.5 C12.829,9.5 13.5,10.171 13.5,11 Z M13.5,16 C13.5,16.828 12.829,17.5 12,17.5 C11.172,17.5 10.5,16.828 10.5,16 C10.5,15.172 11.172,14.5 12,14.5 C12.829,14.5 13.5,15.172 13.5,16 Z M12.5,19.5 L12.5,22 M11.5,19.5 L11.5,22 M17,11.5 L19,11.5 M5,11.5 L7,11.5 M3,11.5 L4,11.5 M4,16 L6,14 M20,16 L18,14 M6,9 L4,7 M14.4502,2.5 L9.5502,2.5 L8.5002,3.55 L8.5002,18.45 L9.5502,19.5 L14.4502,19.5 L15.5002,18.45 L15.5002,3.55 L14.4502,2.5 Z M20,11.5 L21,11.5 M18,9 L20,7"/>
  </g>
</svg>
