<svg xmlns="http://www.w3.org/2000/svg" width="48" height="48" fill="none" viewBox="0 0 48 48"><path fill="#000" fill-rule="evenodd" d="M8 12.5a1.5 1.5 0 1 1 3.001.001A1.5 1.5 0 0 1 8 12.5M9.5 10a2.5 2.5 0 1 0 .002 5.002A2.5 2.5 0 0 0 9.5 10m17.001 15h-.448l-.049.445-1 9 .994.11.173-1.554H27v6.998h1v-6.998h3.001v6.998h1v-6.998h.83l.172 1.554.994-.11-1-9-.05-.445h-6.447m6.22 7.001L32.053 26h-5.106l-.666 6.001zM7 28.001v11.998h1V28.001h3v11.998h1V28.001h1V29.5h1V17H5v12.5h1v-1.499zm6-1V18H6v9.001zm16.501-8a1.5 1.5 0 1 0 .001 3 1.5 1.5 0 0 0-.001-3m-2.5 1.5a2.5 2.5 0 1 1 5.001 0 2.5 2.5 0 0 1-5.001 0M36.054 25h6.895l.05.445 1 9-.994.11-.173-1.554h-.83v6.998h-1v-6.998h-3v6.998h-1v-6.998h-.83l-.173 1.554-.994-.11 1-9zm6 1 .667 6.001h-6.438L36.949 26zm-4.052-5.5a1.5 1.5 0 1 1 3.001.002 1.5 1.5 0 0 1-3.001-.002m1.5-2.5a2.5 2.5 0 1 0 .001 5.002A2.5 2.5 0 0 0 39.502 18m-23.001 7h-.448l-.049.445-1 9 .994.11.173-1.554H17v6.998h1v-6.998h3v6.998h1v-6.998h.83l.173 1.554.994-.11-1.001-9-.05-.445h-6.446m6.219 7.001L22.052 26H16.95l-.667 6.001zm-3.22-13a1.5 1.5 0 1 0 .002 3 1.5 1.5 0 0 0-.002-3M17 20.5a2.5 2.5 0 1 1 5.002 0 2.5 2.5 0 0 1-5.001 0" clip-rule="evenodd"/></svg>