<svg xmlns="http://www.w3.org/2000/svg" width="48" height="48" viewBox="0 0 48 48">
  <g fill="none" fill-rule="evenodd">
    <path stroke="#000" d="M23.5,24.4997 L23.5,45.9997 M14.5,22.4997 C14.5,23.6037 15.396,24.4997 16.5,24.4997 L30.5,24.4997 C31.604,24.4997 32.5,23.6037 32.5,22.4997 L32.5,4.4997 C32.5,3.3957 31.604,2.4997 30.5,2.4997 L16.5,2.4997 C15.396,2.4997 14.5,3.3957 14.5,4.4997 L14.5,22.4997 Z"/>
    <path fill="#000" d="M19.4258,7.2776 L19.4258,13.4196 L23.7738,13.4196 C24.4228,13.4196 24.9408,13.3806 25.3268,13.3026 C25.7128,13.2236 26.0598,13.0886 26.3668,12.8966 C27.2558,12.3426 27.6998,11.4916 27.6998,10.3436 C27.6998,9.1746 27.2698,8.3236 26.4078,7.7906 C26.0938,7.5916 25.7468,7.4576 25.3678,7.3846 C24.9878,7.3136 24.4328,7.2776 23.7008,7.2776 L19.4258,7.2776 Z M17.9998,6.0476 L23.9988,6.0476 C24.8538,6.0476 25.5328,6.1016 26.0388,6.2116 C26.5448,6.3206 27.0028,6.5156 27.4128,6.7956 C28.5548,7.5546 29.1258,8.7136 29.1258,10.2716 C29.1258,11.8576 28.5718,13.0406 27.4648,13.8196 C26.6858,14.3736 25.5878,14.6506 24.1728,14.6506 L19.4258,14.6506 L19.4258,21.0386 L17.9998,21.0386 L17.9998,6.0476 Z"/>
  </g>
</svg>
