<svg xmlns="http://www.w3.org/2000/svg" width="24" height="24" fill="none" viewBox="0 0 24 24"><path fill="#000" fill-rule="evenodd" d="M17.491 10.608a2.05 2.05 0 0 0-1.178-.752c.125-.804-.005-1.532-.323-2.14a3.28 3.28 0 0 0-1.794-1.548c-1.363-.495-3.042-.116-3.987 1.422-1.516-.719-3.431.326-3.523 2.176-.481.129-.87.432-1.144.815-.36.504-.534 1.154-.507 1.791.028.64.262 1.303.764 1.809.508.511 1.247.82 2.201.82h7c.92 0 1.65-.313 2.162-.813a2.8 2.8 0 0 0 .825-1.784c.052-.636-.105-1.293-.496-1.796m-6.633-2.106c.635-1.44 1.949-1.774 2.997-1.394.53.192.984.566 1.25 1.073.262.5.357 1.165.116 1.977l-.2.67.7-.028c.464-.019.778.16.98.42.213.276.325.675.29 1.102a1.82 1.82 0 0 1-.528 1.15c-.31.303-.781.528-1.463.528H8c-.73 0-1.199-.23-1.491-.524-.299-.3-.456-.713-.475-1.148-.019-.437.105-.862.321-1.165.21-.294.497-.463.845-.463h.564l-.067-.56c-.18-1.5 1.42-2.245 2.387-1.453l.508.417zM7 17H6v-1h1zm1 0H7v1H6v1h1v-1h1v1h1v-1H8zm0 0v-1h1v1zm2 4h1v1h-1v1h1v-1h1v1h1v-1h-1v-1h1v-1h-1v1h-1v-1h-1zm5-4h-1v-1h1zm1 0h-1v1h-1v1h1v-1h1v1h1v-1h-1zm0 0v-1h1v1z" clip-rule="evenodd"/></svg>