<svg xmlns="http://www.w3.org/2000/svg" width="24" height="24" fill="none" viewBox="0 0 24 24"><path fill="#000" fill-rule="evenodd" d="M3.5 2A1.5 1.5 0 0 0 2 3.5v16A1.5 1.5 0 0 0 3.5 21H11v-1H3.5a.5.5 0 0 1-.5-.5v-16a.5.5 0 0 1 .5-.5H7v1h4V3h3.5a.5.5 0 0 1 .5.5V4h1v-.5A1.5 1.5 0 0 0 14.5 2zm10 4a.5.5 0 0 0-.5.5v14a.5.5 0 0 0 .5.5h7a.5.5 0 0 0 .5-.5v-14a.5.5 0 0 0-.5-.5H19v1h-4V6zm-1.5.5A1.5 1.5 0 0 1 13.5 5h7A1.5 1.5 0 0 1 22 6.5v14a1.5 1.5 0 0 1-1.5 1.5h-7a1.5 1.5 0 0 1-1.5-1.5zM11 19H7v-1h4z" clip-rule="evenodd"/></svg>