<svg xmlns="http://www.w3.org/2000/svg" width="36" height="36" version="1.1" viewBox="0 0 36 36">
  <path fill="none" fill-rule="evenodd" stroke="#000" stroke-width="1" d="M27.75,29.25 L27.75,30 C27.75,31.242 26.742,32.25 25.5,32.25 C24.258,32.25 23.25,31.242 23.25,30 L23.25,29.25 M27.75,23.25 L8.25,23.25 L8.25,16.5 L8.25,9.75 L27.75,9.75 L27.75,23.25 Z M29.25,29.25 L6.75,29.25 L6.75,27.75 L6.75,26.25 L29.25,26.25 L29.25,29.25 Z M3.75,30 L3.75,25.5 M3.75,27.75 L6.75,27.75 M32.25,25.5 L32.25,30 M32.25,27.75 L29.25,27.75 M12.75,29.25 L12.75,30 C12.75,31.242 11.7435,32.25 10.5,32.25 C9.2565,32.25 8.25,31.242 8.25,30 L8.25,29.25"/>
</svg>
