<svg xmlns="http://www.w3.org/2000/svg" width="36" height="36" viewBox="0 0 36 36">
  <g fill="none" fill-rule="evenodd">
    <path fill="#000" d="M20.25,16.5 C20.25,17.7435 19.2435,18.75 18,18.75 C16.758,18.75 15.75,17.7435 15.75,16.5 C15.75,15.2565 16.758,14.25 18,14.25 C19.2435,14.25 20.25,15.2565 20.25,16.5"/>
    <path stroke="#000" d="M20.25,9 C20.25,10.2435 19.2435,11.25 18,11.25 C16.758,11.25 15.75,10.2435 15.75,9 C15.75,7.7565 16.758,6.75 18,6.75 C19.2435,6.75 20.25,7.7565 20.25,9 Z M20.25,16.5 C20.25,17.7435 19.2435,18.75 18,18.75 C16.758,18.75 15.75,17.7435 15.75,16.5 C15.75,15.2565 16.758,14.25 18,14.25 C19.2435,14.25 20.25,15.2565 20.25,16.5 Z M20.25,24 C20.25,25.242 19.2435,26.25 18,26.25 C16.758,26.25 15.75,25.242 15.75,24 C15.75,22.758 16.758,21.75 18,21.75 C19.2435,21.75 20.25,22.758 20.25,24 Z M18.75,29.25 L18.75,33 M17.25,29.25 L17.25,33 M25.5,17.25 L28.5,17.25 M7.5,17.25 L10.5,17.25 M4.5,17.25 L6,17.25 M6,24 L9,21 M30,24 L27,21 M9,13.5 L6,10.5 M21.6753,3.75 L14.3253,3.75 L12.7503,5.325 L12.7503,27.675 L14.3253,29.25 L21.6753,29.25 L23.2503,27.675 L23.2503,5.325 L21.6753,3.75 Z M30,17.25 L31.5,17.25 M27,13.5 L30,10.5"/>
  </g>
</svg>
