<svg xmlns="http://www.w3.org/2000/svg" width="48" height="48" version="1.1" viewBox="0 0 48 48">
  <path fill="none" fill-rule="evenodd" stroke="#000" stroke-width="1" d="M20.5,30.5 C20.5,32.157 19.157,33.5 17.5,33.5 C15.843,33.5 14.5,32.157 14.5,30.5 C14.5,28.843 15.843,27.5 17.5,27.5 C19.157,27.5 20.5,28.843 20.5,30.5 Z M21.5,19.5 C21.5,21.157 20.157,22.5 18.5,22.5 C16.843,22.5 15.5,21.157 15.5,19.5 C15.5,17.843 16.843,16.5 18.5,16.5 C20.157,16.5 21.5,17.843 21.5,19.5 Z M26,28.5 L30,28.5 M24,23 L26,26 M39.9697,34.2275 L43.2677,33.0825 C44.2647,32.7375 44.7537,31.6255 44.3677,30.6395 C39.5917,18.4025 29.9707,8.6065 17.8687,3.6415 C16.8927,3.2415 15.7787,3.7165 15.4207,4.7125 L14.2337,8.0085 C13.9027,8.9275 14.3407,9.9565 15.2407,10.3285 C25.4737,14.5495 33.6127,22.8355 37.6747,33.1835 C38.0327,34.0925 39.0497,34.5465 39.9697,34.2275 Z M9.5605,25.5605 L11.9995,27.9995 M14.5,38 L14.5,41.442 M31.3896,35.8281 C31.4566,35.5661 31.4996,35.2951 31.4996,35.0111 C31.4996,33.0691 29.9326,31.4961 27.9996,31.4961 C26.0676,31.4961 24.4996,33.0691 24.4996,35.0111 C24.4996,36.0941 24.9926,37.0561 25.7596,37.7001 M4.6104,39.5381 C5.2374,40.1341 6.0864,40.5001 7.0204,40.5001 C8.9534,40.5001 10.5204,38.9331 10.5204,37.0001 C10.5204,35.0671 8.9534,33.5001 7.0204,33.5001 C6.9294,33.5001 6.8394,33.5041 6.7494,33.5111 M14.9976,10.2051 L3.5926,42.4111 C3.1596,43.6371 4.3186,44.8271 5.5486,44.4181 L37.9436,33.6481"/>
</svg>
