<svg xmlns="http://www.w3.org/2000/svg" width="36" height="36" fill="none" viewBox="0 0 36 36"><path fill="#000" fill-rule="evenodd" d="M3.25 6.75a3.5 3.5 0 0 1 6.373-2h7.834l.147.147 1.476 1.476.353.353-.353.354-1.523 1.524-.146.146H9.622a3.501 3.501 0 0 1-6.372-2m7 0q-.001-.522-.145-1h6.938l.976.977-1.023 1.023h-6.89q.143-.476.144-1m-3.5-2.5a2.5 2.5 0 1 0 0 5 2.5 2.5 0 0 0 0-5m-3 8h-.5v20.5h29.5v-20.5h-29m.5 19.5v-18.5h27.5v18.5zm3.5-11.499a2 2 0 0 1 2-2h16.5a2 2 0 0 1 2 2v6a2 2 0 0 1-2 2H9.75a2 2 0 0 1-2-2zm2-1a1 1 0 0 0-1 1v6a1 1 0 0 0 1 1h16.5a1 1 0 0 0 1-1v-6a1 1 0 0 0-1-1zm5.25-1.5h6v-1h-6z" clip-rule="evenodd"/></svg>