<svg xmlns="http://www.w3.org/2000/svg" width="48" height="48" viewBox="0 0 48 48">
  <path fill="none" stroke="#000" d="M34.5,15.4997 C34.5,9.4247 29.575,4.4997 23.5,4.4997 C17.425,4.4997 12.5,9.4247 12.5,15.4997 C12.574,17.3867 13.133,18.9737 14.031,20.4717 L23.5,35.9997 L33.031,20.4717 C33.918,18.9177 34.484,17.3017 34.5,15.4997 Z M17.1035,30.4997 C9.7385,31.3587 4.4995,33.6557 4.4995,36.3197 C4.4995,39.7067 12.9635,42.4997 23.4995,42.4997 C34.0365,42.4997 42.4995,39.7067 42.4995,36.3197 C42.4995,33.6767 37.3405,31.3937 30.0635,30.5207 M28.5,11.5002 L28.5,19.5002 L25,19.5002 C22.973,19.5002 21.5,17.8412 21.5,16.0002 L21.5,15.0002 C21.5,12.9222 23.248,11.5002 25,11.5002 L28.5,11.5002 Z M32,13.4997 L28.5,13.4997 M32,17.4997 L28.5,17.4997 M21.8447,13.4997 L19.4997,13.4997 L19.4997,17.4997 L21.8547,17.4997 M15,15.4997 L19.5,15.4997"/>
</svg>
