<svg xmlns="http://www.w3.org/2000/svg" width="12" height="16" fill="none" viewBox="0 0 12 16"><path fill="#000" fill-rule="evenodd" d="M6 1C3.235 1 1 3.245 1 6.013v.025c.03.877.295 1.62.7 2.293l.005.007.004.007 3.67 5.806.633 1.003.634-1.003 3.669-5.806.01-.017.01-.018c.38-.68.65-1.421.665-2.284v-.013A5.004 5.004 0 0 0 6 1M2.982 7.55C2.69 7.065 2.522 6.574 2.5 6A3.504 3.504 0 0 1 6 2.5a3.504 3.504 0 0 1 3.5 3.507c-.01.537-.173 1.029-.464 1.554l-3.024 4.785zM6 8a2 2 0 1 0 0-4 2 2 0 0 0 0 4" clip-rule="evenodd"/></svg>