<svg xmlns="http://www.w3.org/2000/svg" width="36" height="36" fill="none" viewBox="0 0 36 36"><path fill="#000" fill-rule="evenodd" d="M31.504 8.75H4.502v-1h27.002zm0 19.5H4.502v-1h27.002zM10.437 16.743l4.704-4.746h-3.317L7.12 16.963v-4.967H4.501v12.002h2.62v-3.875l1.51-1.51 3.645 5.385h3.307zm3.584 1.415h2.313v-2.313h1.326v2.313h2.32v1.324h-2.32v2.313h-1.326v-2.313H14.02zm9.517-.8v-3.3h2.61q1.15-.001 1.683.395.535.392.534 1.246 0 .88-.624 1.314-.492.345-1.7.345zm3.194-5.36h-5.813v12h2.62v-4.72h2.354q1.257 0 1.778.49.522.486.62 1.759.099 1.43.16 1.822.064.395.2.65h2.734l-.114-.14q-.237-.304-.353-1.55-.155-1.702-.255-2.176a2.6 2.6 0 0 0-.385-.912 2.02 2.02 0 0 0-1.248-.886 2.8 2.8 0 0 0 1.408-1.116q.505-.78.506-1.832 0-.927-.404-1.666a3.03 3.03 0 0 0-1.165-1.182q-.92-.541-2.643-.542" clip-rule="evenodd"/></svg>