<svg xmlns="http://www.w3.org/2000/svg" width="24" height="24" version="1.1" viewBox="0 0 24 24">
  <path fill="none" fill-rule="evenodd" stroke="#000" stroke-width="1" d="M16.5,21.4992 L16.5,12.4992 L11.5,10.4992 L6.5,12.4992 L6.5,21.4992 M14.5,11.6989 L14.5,8.4989 C14.5,6.8419 13.157,5.4989 11.5,5.4989 C9.843,5.4989 8.5,6.8419 8.5,8.4989 L8.5,11.6989 M8.5,8.4992 L14.5,8.4992 M2,21.4992 L21,21.4992 M6.5,13.4992 L16.5,13.4992 M14.501,21.4997 L14.5,15.4997 M8.5,21.4992 L8.5,15.4992 M11.5,3.4987 L13.5,3.4987 L13.5,2.4987 L11.5,2.4987 L11.5,5.4987 M12.5,21.4992 L12.498,18.4992 C12.498,17.9472 12.051,17.4992 11.499,17.4992 C10.946,17.4992 10.499,17.9472 10.499,18.4992 L10.5,21.4992 M3.5,21.4987 L3.5,15.4987 L19.5,15.4987 L19.5,21.4987"/>
</svg>
