<svg class="color-immutable" xmlns="http://www.w3.org/2000/svg" width="59" height="20" fill="none" viewBox="0 0 59 20"><path stroke="#FFDE15" d="M1.792.5h55.416c.71 0 1.292.58 1.292 1.3v16.4c0 .72-.58 1.3-1.292 1.3H1.792C1.082 19.5.5 18.92.5 18.2V1.8c0-.675.511-1.227 1.16-1.293z"/><path fill="#FFDE15" d="M12.8 7.661h-2.405q-.07-.846-.633-1.289-.553-.45-1.558-.45-.894 0-1.392.355-.49.349-.49.981 0 .57.474.823.459.252 2.326.712 1.97.49 2.729.988 1.4.918 1.4 2.555 0 1.796-1.408 2.832-1.242.91-3.362.91-2.357 0-3.662-1.076t-1.353-3.061H5.98q.055.964.499 1.432.696.743 2.096.743.95 0 1.503-.372.624-.427.625-1.162 0-.736-.878-1.076-.483-.19-2.278-.688-1.125-.309-1.756-.586-.633-.276-1.013-.617-.885-.79-.886-2.183 0-1.669 1.384-2.642 1.18-.83 3.062-.83 1.653 0 2.768.656 1.606.942 1.693 3.045M24.515 4.236v11.565h-2.54l-4.84-7.879.031 7.879h-2.428V4.236h2.57l4.81 7.863-.031-7.863zM26.216 7.899q.038-1.424.704-2.39 1.075-1.55 3.235-1.55 1.66 0 2.681.847 1.1.918 1.1 2.373 0 .87-.435 1.503a2.1 2.1 0 0 1-1.163.846q.934.214 1.471.95.546.735.546 1.78 0 1.716-1.265 2.807-1.171 1.013-2.959 1.013-1.938 0-3.077-1.115-1.131-1.116-1.131-3.014v-.15h2.223q0 1.067.506 1.653.506.577 1.432.577t1.423-.546a1.78 1.78 0 0 0 .46-1.226q0-.854-.586-1.352-.482-.412-1.487-.412-.285 0-.562.032v-1.7q.206.015.396.015 1.993 0 1.993-1.48 0-.648-.435-1.043-.435-.405-1.147-.404-.814 0-1.258.507-.442.505-.474 1.479zM42.74 4.236v2.057h-4.66l-.498 2.602q.84-.886 2.144-.886 1.281 0 2.23.689 1.41 1.035 1.409 3.148 0 2.072-1.503 3.283-1.17.949-2.8.949-1.836 0-2.95-.981-1.116-.99-1.18-2.666h2.27q.057.61.396 1.037.53.672 1.472.672.909 0 1.44-.657.513-.64.513-1.558 0-.997-.538-1.59-.537-.6-1.431-.601-1.092 0-1.7.98l-2.065-.03 1.099-6.448z"/></svg>