<svg class="color-immutable" width="59" height="20" viewBox="0 0 59 20" fill="none" xmlns="http://www.w3.org/2000/svg"><path d="M1.792.5h55.416c.71 0 1.292.58 1.292 1.3v16.4c0 .72-.58 1.3-1.292 1.3H1.792C1.082 19.5.5 18.92.5 18.2V1.8c0-.72.581-1.3 1.292-1.3Z" stroke="#FFDE15"/><path d="M12.8 7.661h-2.405c-.047-.564-.258-.994-.633-1.289-.369-.3-.888-.45-1.558-.45-.596 0-1.06.118-1.392.355-.327.232-.49.56-.49.981 0 .38.158.654.474.823.306.168 1.081.406 2.326.712 1.313.327 2.223.656 2.729.988.933.612 1.4 1.464 1.4 2.555 0 1.197-.47 2.141-1.408 2.832-.828.607-1.949.91-3.362.91-1.571 0-2.792-.359-3.662-1.076-.87-.717-1.321-1.738-1.353-3.061H5.98c.037.643.203 1.12.499 1.432.464.495 1.162.743 2.096.743.633 0 1.134-.124 1.503-.372.416-.284.625-.672.625-1.162 0-.49-.293-.85-.878-1.076-.322-.127-1.081-.356-2.278-.688-.75-.206-1.335-.401-1.756-.586-.422-.184-.76-.39-1.013-.617-.59-.527-.886-1.255-.886-2.183 0-1.113.462-1.993 1.384-2.642.786-.554 1.807-.83 3.062-.83 1.102 0 2.025.218 2.768.656 1.07.628 1.635 1.643 1.693 3.045ZM24.515 4.236v11.565h-2.54l-4.84-7.879.031 7.879h-2.428V4.236h2.57l4.81 7.863-.031-7.863h2.428ZM26.216 7.899c.026-.95.26-1.746.704-2.39.717-1.033 1.795-1.55 3.235-1.55 1.107 0 2.001.283 2.681.847.733.612 1.1 1.403 1.1 2.373 0 .58-.145 1.081-.435 1.503a2.1 2.1 0 0 1-1.163.846c.622.143 1.113.459 1.471.95.364.49.546 1.083.546 1.78 0 1.144-.422 2.08-1.265 2.807-.781.675-1.767 1.013-2.959 1.013-1.292 0-2.318-.372-3.077-1.115-.754-.744-1.131-1.749-1.131-3.014v-.15h2.223c0 .711.168 1.262.506 1.653.337.385.815.577 1.432.577s1.091-.182 1.423-.546a1.78 1.78 0 0 0 .46-1.226c0-.57-.196-1.02-.586-1.352-.322-.275-.817-.412-1.487-.412-.19 0-.377.01-.562.032v-1.7c.137.01.27.015.396.015 1.329 0 1.993-.493 1.993-1.48 0-.432-.145-.78-.435-1.043-.29-.27-.672-.404-1.147-.404-.543 0-.962.169-1.258.507-.295.337-.453.83-.474 1.479h-2.191ZM42.74 4.236v2.057h-4.66l-.498 2.602c.56-.59 1.274-.886 2.144-.886.854 0 1.598.23 2.23.689.94.69 1.409 1.74 1.409 3.148 0 1.381-.501 2.476-1.503 3.283-.78.632-1.714.949-2.8.949-1.224 0-2.207-.327-2.95-.981-.744-.66-1.137-1.548-1.18-2.666h2.27c.038.406.17.752.396 1.037.354.448.844.672 1.472.672.606 0 1.086-.219 1.44-.657.342-.427.513-.946.513-1.558 0-.665-.179-1.194-.538-1.59-.358-.4-.835-.601-1.431-.601-.728 0-1.295.327-1.7.98l-2.066-.03 1.1-6.448h6.352Z" fill="#FFDE15"/></svg>