<svg xmlns="http://www.w3.org/2000/svg" width="24" height="24" fill="none" viewBox="0 0 24 24"><path fill="#000" fill-rule="evenodd" d="M4.496 6.998h15.003c.83 0 1.5.671 1.5 1.5v7.5h1v1h-1v1h-1a2 2 0 0 1-4 0h-8a2 2 0 0 1-4 0H2.998v-1h-1v-1h1l-.002-7.5a1.5 1.5 0 0 1 1.5-1.5m13.503 12a1 1 0 0 1-1-1h2a1 1 0 0 1-1 1m-12 0a1 1 0 0 1-1-1h2a1 1 0 0 1-1 1m13.5-11H4.496a.5.5 0 0 0-.5.5l.002 8.5h1v-4h4v4H20v-8.5h-.001a.5.5 0 0 0-.5-.5m-11.5 9v-3h-2v3zm-2.5-8h-.5v3H19v-3H5.499m.5 2v-1H18v1zm4 2H19v3H9.999v-3m1 1v1H18v-1z" clip-rule="evenodd"/></svg>