<?xml version="1.0" encoding="utf-8"?>
<!-- Generator: Adobe Illustrator 28.0.0, SVG Export Plug-In . SVG Version: 6.00 Build 0)  -->
<svg version="1.0" xmlns="http://www.w3.org/2000/svg" xmlns:xlink="http://www.w3.org/1999/xlink" x="0px" y="0px"
	 viewBox="0 0 24 24" enable-background="new 0 0 24 24" xml:space="preserve">
<g id="SVG_x5F_24x24pt">
	<path id="backgroundBlue" fill="#2D327D" d="M0,22.5v-21C0,0.675,0.675,0,1.5,0h21C23.325,0,24,0.675,24,1.5v21
		c0,0.825-0.675,1.5-1.5,1.5h-21C0.675,24,0,23.325,0,22.5z"/>
	<g id="content">
		<rect x="3" y="20.7" fill="#FFFFFF" width="18" height="0.3"/>
		<path fill="#FFFFFF" d="M13.125,17.475h2.1c0.018,0,0.036-0.001,0.054-0.004l2.352,0.004c0.214,0,0.41-0.071,0.568-0.191
			c0.157-0.12,0.276-0.289,0.333-0.484L21,7.275h-1.5l-1.538,4.874l-3.637-0.037l-0.112,0.001c-0.352,0-0.637,0.285-0.637,0.637
			c0,0.352,0.285,0.637,0.637,0.637h0.112l3.232,0.038l-0.643,2.025h-1.69h-0.6h-1.5c-0.247,0-0.45,0.203-0.45,0.45v1.125
			C12.675,17.272,12.877,17.475,13.125,17.475z M12.975,15.9c0-0.081,0.069-0.15,0.15-0.15h1.5h0.6h1.69h0.22l0.066-0.209
			l0.643-2.025l0.123-0.386l-0.405-0.005l-3.236-0.038h-0.113c-0.186,0-0.337-0.151-0.337-0.337s0.151-0.337,0.341-0.338
			l0.109-0.001l3.634,0.037l0.222,0.002l0.067-0.212l1.472-4.664h0.893l-2.371,9.145c-0.038,0.128-0.118,0.244-0.226,0.325
			c-0.112,0.085-0.245,0.13-0.385,0.13l-2.352-0.004l-0.018,0l-0.018,0.002c-0.009,0.001-0.015,0.001-0.018,0.001h-2.1
			c-0.081,0-0.15-0.069-0.15-0.15V15.9z"/>
		<path fill="#FFFFFF" d="M19.508,6.825H21V3.496C21,3.222,20.778,3,20.504,3h-1.484c-0.273,0-0.496,0.222-0.496,0.496v2.004
			c0,0.162,0.011,0.273,0.179,0.449L19.508,6.825z M18.825,3.496c0-0.108,0.088-0.196,0.196-0.196h1.484
			c0.108,0,0.196,0.088,0.196,0.196v3.029h-1.06l-0.716-0.781l-0.002-0.002C18.824,5.64,18.824,5.613,18.825,5.5V3.496z"/>
		<path fill="#FFFFFF" d="M6.233,11.937c-0.001-0.001-0.002-0.003-0.004-0.004l-2.355-2.36C3.635,9.333,3.318,9.218,3,9.225v4.338
			l0.426,0.427l-0.001,0.001l2.925,2.925l2.433-2.429L6.233,11.937z"/>
		<path fill="#FFFFFF" d="M12,14.192l-0.148-0.148c-0.169-0.169-0.426-0.213-0.643-0.112l-2.516,1.174l-1.93,1.93l0.175,0.374
			c0.051,0.109,0.121,0.209,0.206,0.294l0.673,0.672l1.407-1.408l-0.37-0.37l1.387-0.647L12,14.192z"/>
		<polygon fill="#EB0000" points="3.708,2.631 2.648,3.692 19.99,21.034 21.05,19.973 3.708,2.631 		"/>
	</g>
</g>
</svg>
