<?xml version="1.0" encoding="utf-8"?>
<!-- Generator: Adobe Illustrator 26.5.0, SVG Export Plug-In . SVG Version: 6.00 Build 0)  -->
<svg version="1.0" xmlns="http://www.w3.org/2000/svg" xmlns:xlink="http://www.w3.org/1999/xlink" x="0px" y="0px"
	 viewBox="0 0 24 24" enable-background="new 0 0 24 24" xml:space="preserve">
<g id="SVG_x5F_24x24pt">
	<path id="backgroundBlue" fill="#2D327D" d="M0,22.5v-21C0,0.675,0.675,0,1.5,0h21C23.325,0,24,0.675,24,1.5v21
		c0,0.825-0.675,1.5-1.5,1.5h-21C0.675,24,0,23.325,0,22.5z"/>
	<g id="content">
		<path fill="#FFFFFF" d="M18.15,16.184c-0.006-0.448-0.265-0.836-0.641-1.025c-0.009-0.005-0.019-0.009-0.029-0.014
			c-0.636-0.316-1.715-1.071-1.715-2.558c0-1.798-0.128-2.75-0.458-3.394c-0.366-0.715-0.992-1.04-2.024-1.052
			c0.015-0.267,0.024-0.846-0.338-1.264C12.789,6.695,12.498,6.479,12,6.479c-0.498,0-0.789,0.216-0.946,0.397
			c-0.362,0.418-0.353,0.997-0.338,1.264C9.684,8.152,9.058,8.478,8.693,9.192c-0.33,0.644-0.458,1.596-0.458,3.394
			c0,1.487-1.079,2.242-1.715,2.558C6.51,15.15,6.5,15.154,6.491,15.159c-0.376,0.19-0.635,0.577-0.641,1.025l0,0.872h12.3
			L18.15,16.184z M11.52,7.279c0.107-0.124,0.264-0.184,0.48-0.184c0.216,0,0.373,0.06,0.48,0.184
			c0.205,0.237,0.19,0.674,0.187,0.859h-1.334C11.33,7.953,11.315,7.516,11.52,7.279z"/>
		<g>
			<path fill="#FFFFFF" d="M10.769,17.364c-0.032,0.112-0.05,0.231-0.05,0.354c0,0.708,0.574,1.281,1.281,1.281
				s1.281-0.574,1.281-1.281c0-0.123-0.018-0.241-0.05-0.354H10.769z"/>
		</g>
		<path fill="#FFFFFF" d="M17.658,12.247c-0.048,0-0.097-0.009-0.144-0.029c-0.191-0.079-0.282-0.299-0.203-0.49
			c0.208-0.501,0.313-1.032,0.313-1.579c0-1.102-0.429-2.138-1.208-2.917c-0.146-0.146-0.146-0.384,0-0.53
			c0.146-0.146,0.384-0.146,0.53,0c0.921,0.921,1.428,2.145,1.428,3.447c0,0.646-0.125,1.274-0.37,1.866
			C17.945,12.16,17.806,12.247,17.658,12.247z"/>
		<path fill="#FFFFFF" d="M19.738,13.108c-0.048,0-0.097-0.009-0.143-0.029c-0.191-0.079-0.282-0.299-0.203-0.49
			c0.321-0.774,0.484-1.595,0.484-2.44c0-1.703-0.663-3.304-1.867-4.508c-0.146-0.146-0.146-0.384,0-0.53
			c0.146-0.146,0.384-0.146,0.53,0c1.346,1.346,2.087,3.135,2.087,5.038c0,0.944-0.182,1.862-0.541,2.727
			C20.024,13.021,19.885,13.108,19.738,13.108z"/>
		<path fill="#FFFFFF" d="M6.342,12.247c-0.147,0-0.287-0.087-0.347-0.231c-0.246-0.592-0.37-1.22-0.37-1.866
			c0-1.302,0.507-2.526,1.428-3.447c0.146-0.146,0.384-0.146,0.53,0c0.146,0.146,0.146,0.384,0,0.53
			c-0.779,0.779-1.208,1.815-1.208,2.917c0,0.547,0.105,1.078,0.313,1.579c0.079,0.191-0.011,0.411-0.203,0.49
			C6.438,12.238,6.389,12.247,6.342,12.247z"/>
		<path fill="#FFFFFF" d="M4.262,13.108c-0.147,0-0.287-0.087-0.347-0.231c-0.359-0.865-0.541-1.783-0.541-2.727
			c0-1.903,0.741-3.692,2.087-5.038c0.146-0.146,0.384-0.146,0.53,0c0.146,0.146,0.146,0.384,0,0.53
			c-1.204,1.204-1.867,2.805-1.867,4.508c0,0.845,0.163,1.666,0.484,2.44C4.688,12.781,4.597,13,4.406,13.08
			C4.359,13.099,4.31,13.108,4.262,13.108z"/>
	</g>
</g>
</svg>
