<svg xmlns="http://www.w3.org/2000/svg" width="16" height="16" fill="none" viewBox="0 0 16 16"><path fill="#000" fill-rule="evenodd" d="M12.21 1c1.44.83 2.47 2.29 2.75 4H9.9zM1.53 4h3.5v1h-3.5c-.28 0-.5-.22-.5-.5s.22-.5.5-.5m13.5 2c-.17 1.61-1.01 2.82-2 4h-8c-.99-1.18-1.82-2.39-2-4zm-9 9c-1.1 0-2-.9-2-2s.9-2 2-2 2 .9 2 2-.9 2-2 2m0-3c-.55 0-1 .45-1 1s.45 1 1 1 1-.45 1-1-.45-1-1-1m4 1c0 1.1.9 2 2 2s2-.9 2-2-.9-2-2-2-2 .9-2 2m1 0c0-.55.45-1 1-1s1 .45 1 1-.45 1-1 1-1-.45-1-1" clip-rule="evenodd"/></svg>