<svg xmlns="http://www.w3.org/2000/svg" width="48" height="48" viewBox="0 0 48 48">
  <path fill="none" stroke="#000" d="M21.5,4.5002 C27.574,4.5002 32.5,9.4262 32.5,15.5002 C32.5,21.5762 27.574,26.5002 21.5,26.5002 C15.426,26.5002 10.5,21.5762 10.5,15.5002 C10.5,9.4262 15.426,4.5002 21.5,4.5002 Z M17.9932,34.5197 L8.2522,27.9407 C7.3902,27.2487 6.1312,27.3857 5.4402,28.2487 C4.7492,29.1107 4.8872,30.3697 5.7482,31.0607 L17.5992,41.4987 L25.4842,41.4987 L27.5002,43.4987 L42.4002,43.4987 L32.3442,35.3737 C30.2692,33.6667 27.9062,31.5617 24.2192,31.4987 L20.0002,31.4987 C16.9372,31.4987 16.9372,35.4987 20.0002,35.4987 L24.0002,35.4987 M21.5,23.0002 L21.5,8.0002 M14,15.5002 L29,15.5002"/>
</svg>
