<svg xmlns="http://www.w3.org/2000/svg" width="36" height="36" fill="none" viewBox="0 0 36 36"><path fill="#000" d="m27 17.175.497.054-.742 6.825-.001.008v.002l-.001.003-.001.009-.005.033-.017.119a13.166 13.166 0 0 1-.44 1.832c-.324 1.018-.873 2.286-1.781 3.203l-.187.179C22.247 31.322 20.504 32.7 18 32.7c-2.19 0-3.798-1.056-5.557-2.58l-.765-.68c-1.021-.925-1.622-2.295-1.968-3.38a13 13 0 0 1-.44-1.833l-.017-.12-.005-.032v-.01l-.002-.002v-.01l-.743-6.825.497-.054.497-.054.741 6.817.001.006.004.025.015.102a12.194 12.194 0 0 0 .404 1.687c.329 1.03.864 2.196 1.688 2.943 2.087 1.89 3.57 3 5.65 3s3.564-1.11 5.65-3c.824-.747 1.36-1.912 1.688-2.944a12 12 0 0 0 .404-1.686l.015-.102.004-.025v-.006l.742-6.817zm-5.59 8.71.34.364c.341.366.341.367.34.367l-.007.007-.018.016-.064.056q-.082.07-.232.186a7 7 0 0 1-.845.555c-.714.4-1.737.814-2.924.814s-2.21-.414-2.924-.814A7 7 0 0 1 14 26.695l-.064-.056-.018-.016-.007-.007c-.001 0-.001-.001.34-.366l.34-.366.002.001.01.009.046.04q.063.055.19.152a6 6 0 0 0 .727.478c.625.35 1.477.686 2.435.686s1.81-.336 2.435-.686a6 6 0 0 0 .963-.67l.01-.009.001-.002zM14.85 21.6c.75 0 1.2.6 1.2 1.2 0 .75-.45 1.2-1.2 1.2s-1.2-.6-1.2-1.2c0-.75.45-1.2 1.2-1.2m6 0c.75 0 1.2.6 1.2 1.2 0 .75-.45 1.2-1.2 1.2s-1.2-.6-1.2-1.2c0-.75.45-1.2 1.2-1.2M18 3.25c2.503 0 4.782.169 6.445.446.828.138 1.527.306 2.03.505.25.098.48.215.658.36.17.138.367.368.367.69v9c0 .633-.386 1.156-.898 1.56-.405.318-.931.598-1.543.839-.354.993-1.256 1.803-2.4 2.366-1.26.62-2.889.985-4.659.985s-3.399-.365-4.658-.985c-1.146-.563-2.049-1.373-2.402-2.367-.612-.241-1.138-.52-1.542-.838-.512-.404-.898-.928-.898-1.56v-9l.009-.117c.04-.261.209-.452.358-.574.177-.144.408-.261.657-.36.504-.198 1.203-.366 2.03-.504 1.664-.277 3.943-.446 6.446-.446m-5.623 13.858c.333.367.803.714 1.406 1.01 1.103.543 2.576.883 4.217.883s3.114-.34 4.216-.882c.603-.297 1.072-.643 1.405-1.01-1.57.404-3.52.641-5.621.641s-4.052-.237-5.623-.642M26.476 6.299c-.504.199-1.203.367-2.03.505-1.664.277-3.943.446-6.446.446s-4.782-.169-6.445-.446c-.828-.138-1.527-.306-2.03-.505L9.5 6.29v7.962c0 .194.118.46.517.774.393.31.993.61 1.778.872 1.565.522 3.76.853 6.205.853s4.64-.331 6.205-.853c.785-.262 1.386-.562 1.778-.872.399-.314.517-.58.517-.774V6.289zM18 4.25c-2.466 0-4.687.168-6.281.433-.801.134-1.42.288-1.828.448a2 2 0 0 0-.26.119q.098.053.26.119c.407.16 1.027.315 1.828.449 1.594.266 3.815.432 6.281.432s4.687-.166 6.281-.432c.801-.134 1.42-.289 1.828-.45.109-.042.193-.083.26-.118a2 2 0 0 0-.26-.119c-.407-.16-1.027-.314-1.828-.448-1.594-.265-3.815-.433-6.281-.433"/></svg>