<?xml version="1.0" encoding="utf-8"?>
<!-- Generator: Adobe Illustrator 24.2.0, SVG Export Plug-In . SVG Version: 6.00 Build 0)  -->
<svg version="1.0" id="Ebene_1" xmlns="http://www.w3.org/2000/svg" xmlns:xlink="http://www.w3.org/1999/xlink" x="0px" y="0px"
	 viewBox="0 0 24 24" enable-background="new 0 0 24 24" xml:space="preserve">
<g id="SVG_x5F_24x24pt">
	<path id="backgroundBlue" fill="#2D327D" d="M0,22.5v-21C0,0.675,0.675,0,1.5,0h21C23.325,0,24,0.675,24,1.5v21
		c0,0.825-0.675,1.5-1.5,1.5h-21C0.675,24,0,23.325,0,22.5z"/>
	<g id="content">
		<polygon fill="#FFFFFF" points="5.287,5.619 3,6 3,6.684 5.287,6.303 5.287,5.619 		"/>
		<polygon fill="#FFFFFF" points="6.713,5.381 6.713,6.065 21,3.685 21,3 6.713,5.381 		"/>
		<path fill="#FFFFFF" d="M8.249,11.251H6.338V4.726H5.662v6.525H3.75c-0.414,0-0.75,0.336-0.75,0.75v4.351
			c0,0.098,0.01,0.197,0.029,0.293l0.751,3.752C3.849,20.749,4.157,21,4.515,21h2.97c0.358,0,0.665-0.251,0.736-0.602l0.75-3.752
			C8.991,16.549,9,16.451,9,16.353v-4.351C9,11.587,8.664,11.251,8.249,11.251L8.249,11.251z M8.249,16.126
			c0,0.207-0.167,0.374-0.374,0.374h-3.75c-0.206,0-0.374-0.167-0.374-0.374v-3.75c0-0.207,0.168-0.375,0.374-0.375h3.75
			c0.207,0,0.374,0.168,0.374,0.375V16.126L8.249,16.126z"/>
	</g>
</g>
</svg>
