<?xml version="1.0" encoding="utf-8"?>
<!-- Generator: Adobe Illustrator 29.6.1, SVG Export Plug-In . SVG Version: 9.03 Build 0)  -->
<svg version="1.0" xmlns="http://www.w3.org/2000/svg" xmlns:xlink="http://www.w3.org/1999/xlink" x="0px" y="0px"
	 viewBox="0 0 24 24" enable-background="new 0 0 24 24" xml:space="preserve">
<g id="SVG_x5F_24x24pt">
	<path id="backgroundBlue" fill="#2D327D" d="M0,22.5v-21C0,0.675,0.675,0,1.5,0h21C23.325,0,24,0.675,24,1.5v21
		c0,0.825-0.675,1.5-1.5,1.5h-21C0.675,24,0,23.325,0,22.5z"/>
	<g id="content">
		<polygon fill="#FFFFFF" points="21.01,3 21.01,3.685 8.26,5.798 8.26,5.114 		"/>
		<path fill="#FFFFFF" d="M11.47,11.625c-0.133-0.232-0.381-0.375-0.649-0.375H4.91c-0.268,0-0.517,0.143-0.65,0.376
			c-0.42,0.736-1.269,2.473-1.269,4.499s0.849,3.763,1.269,4.499C4.393,20.857,4.641,21,4.91,21h5.911
			c0.268,0,0.516-0.142,0.649-0.375c0.422-0.735,1.276-2.473,1.276-4.5S11.892,12.36,11.47,11.625z M11.473,17.991H4.287
			c-0.179,0-0.332-0.127-0.368-0.302c-0.1-0.484-0.156-1.015-0.156-1.572c0-1.841,0.767-3.399,1.061-3.929
			c0.066-0.119,0.192-0.194,0.328-0.194h5.484c0.138,0,0.265,0.076,0.33,0.197c0.288,0.533,1.031,2.089,1.031,3.926
			c0,0.557-0.056,1.088-0.156,1.572C11.805,17.864,11.652,17.991,11.473,17.991z"/>
		<path fill="#FFFFFF" d="M10.149,10.107H8.448c-0.31,0-0.562-0.252-0.562-0.562V4.503h-0.75v5.042c0,0.724,0.589,1.312,1.312,1.312
			h1.701V10.107z"/>
		<polygon fill="#FFFFFF" points="6.76,5.393 3.01,6 3.01,6.684 6.76,6.077 		"/>
	</g>
</g>
</svg>
