<svg xmlns="http://www.w3.org/2000/svg" width="24" height="24" fill="none" viewBox="0 0 24 24"><path fill="#000" fill-rule="evenodd" d="M7 7.01H4v3.975a1.91 1.91 0 0 0 1 1.787v7.208h.5l13 .02h.5v-7.1a2.01 2.01 0 0 0 .97-1.928V7.01H17V4h-1v3.01h-2V4h-1v3.01h-2V4h-1v3.01H8V4H7zm11 6.174a2.014 2.014 0 0 1-2.03-2.211v-.209a1.01 1.01 0 0 0-1.116-.86c-.586.067-.948.515-.888 1.037q.029.232 0 .465a2.01 2.01 0 0 1-3.997-.429c-.016-.535-.461-.971-.965-.967h-.02l-.021-.002a.96.96 0 0 0-1.024 1l.002.03-.003.03C7.866 12.027 7.066 12.993 6 13v1.99h12zm0 2.806H6v1h12zm0 2H6v.991L18 19zM5.784 12.997h-.001l.034-.5zM5 8.01v3.006l-.001.016a.91.91 0 0 0 .85.967h.002q.032.002.087 0h.027c.445.015.92-.427.974-.982a1.96 1.96 0 0 1 1.874-2.009h.004q.091-.004.199.002c1.09.003 1.947.928 1.954 1.987v.03l-.004.03a1.01 1.01 0 0 0 2.007.232v-.003a1 1 0 0 0 0-.226v-.003c-.131-1.133.695-2.024 1.766-2.147m0 0a2.01 2.01 0 0 1 2.227 1.765l.004.029v.325l-.003.028a1.01 1.01 0 1 0 2.007.232v-.003a1 1 0 0 0 0-.226l-.004-.03V8.01H5" clip-rule="evenodd"/></svg>