<svg xmlns="http://www.w3.org/2000/svg" width="24" height="24" version="1.1" viewBox="0 0 24 24">
  <path fill="none" fill-rule="evenodd" stroke="#000" stroke-width="1" d="M2.5,17.501 L21.5,17.501 L21.5,13.501 L2.5,13.501 L2.5,17.501 Z M2.5,9.5 L21.5,9.5 L21.5,5.5 L2.5,5.5 L2.5,9.5 Z M5.5,17.5 L5.5,21.5 L7.5,21.5 L7.5,17.5 M16.5,17.5 L16.5,21.5 L18.5,21.5 L18.5,17.5 M5.5,9.5 L5.5,13.5 M7.5,9.5 L7.5,13.5 M5.5,5.5 L5.5,3.5 C5.5,2.948 5.948,2.5 6.5,2.5 C7.052,2.5 7.5,2.948 7.5,3.5 L7.5,5.5 M16.5,13.5 L16.5,9.5 M18.5,13.5 L18.5,9.5 M18.5,5.5 L18.5,3.5 C18.5,2.948 18.052,2.5 17.5,2.5 C16.948,2.5 16.5,2.948 16.5,3.5 L16.5,5.5 M5.5,9.5 L9.5,5.5 M14.5,9.5 L18.5,5.5 M9.5,17.5 L13.5,13.5 M2.5,17.5 L6.5,13.5 M16.5,17.5 L20.5,13.5"/>
</svg>
