<svg class="color-immutable" xmlns="http://www.w3.org/2000/svg" width="59" height="20" fill="none" viewBox="0 0 59 20"><g clip-path="url(#a)"><path fill="#000" fill-rule="evenodd" d="M2 0a2 2 0 0 0-2 2v16a2 2 0 0 0 2 2h55a2 2 0 0 0 2-2V2a2 2 0 0 0-2-2z" clip-rule="evenodd"/><path fill="#FFDE15" d="M53.069 4.235v2.057h-4.643l-.497 2.603a2.8 2.8 0 0 1 2.136-.886 3.68 3.68 0 0 1 2.224.688q1.403 1.035 1.403 3.148 0 2.073-1.498 3.283a4.28 4.28 0 0 1-2.79.949q-1.83 0-2.941-.985-1.112-.985-1.175-2.662h2.263a1.9 1.9 0 0 0 .394 1.037 1.917 1.917 0 0 0 2.9.015c.348-.443.53-.994.513-1.558.03-.58-.162-1.15-.536-1.594a1.82 1.82 0 0 0-1.427-.597 1.9 1.9 0 0 0-1.695.98l-2.057-.03 1.096-6.448zM32.918 4.2h4.042l.805 6.063L40.388 4.2h4.042L39.43 15.8H35.37l-.928-5.758-2.483 5.758H27.9zM26.092 12.366a.92.92 0 0 0 .843-.553L30.216 4.2H16.13l-5.001 11.6h4.025l3.786-8.69h5.973l-1.197 2.775-5.209-.019L22.71 15.8h4.582l-3.114-3.434zM9.388 4.2h4.042l-5 11.6H4.37z"/></g><defs><clipPath id="a"><path fill="#fff" d="M0 0h59v20H0z"/></clipPath></defs></svg>