<svg class="color-immutable" xmlns="http://www.w3.org/2000/svg" width="59" height="20" fill="none" viewBox="0 0 59 20"><path fill="#EB0000" fill-rule="evenodd" d="M2 0a2 2 0 0 0-2 2v16a2 2 0 0 0 2 2h55a2 2 0 0 0 2-2V2a2 2 0 0 0-2-2z" clip-rule="evenodd"/><path fill="#fff" fill-rule="evenodd" d="M14.415 11.156a.27.27 0 0 1 .225-.15q.15 0 .15.282v.037l-.9 4.55q-.075.206-.243.206a.165.165 0 0 1-.188-.188l-.018-.188q-.056-.507-.488-.507h-.112l-.094.019-.112.037-.45.188a7 7 0 0 1-2.829.564q-2.322 0-3.746-1.39-1.424-1.392-1.424-3.666a6.66 6.66 0 0 1 2.042-4.87 6.62 6.62 0 0 1 4.852-2.048 6.25 6.25 0 0 1 2.735.64l.73.337q.165.063.338.076.375 0 .637-.49l.187-.375.075-.075.132-.038a.17.17 0 0 1 .168.15l.019.038v.075l-1.05 4.512-.037.244-.093.15a.4.4 0 0 1-.169.076l-.094-.038-.056-.075v-.658a4.6 4.6 0 0 0-.937-2.914q-.936-1.203-2.304-1.203-1.854 0-3.222 2.2-1.368 2.199-1.368 5.17 0 3.758 2.623 3.759 1.854 0 2.885-1.185a16 16 0 0 0 1.63-2.18l.168-.338.244-.546.037-.056.02-.056zm3.597 1.297q-.152.65-.169 1.316c-.01.39.098.773.31 1.1a.9.9 0 0 0 .758.46l.206.02h.056q.188.056.188.206a.6.6 0 0 1-.094.188l-.131.056H15.07a.165.165 0 0 1-.187-.187l.019-.095a.44.44 0 0 1 .262-.132l.169-.037a2.4 2.4 0 0 0 1.405-.874q.543-.686.805-1.964l1.406-6.843-.225-.338a1.42 1.42 0 0 0-1.068-.677h-.075q-.337 0-.337-.225 0-.226.412-.226h3.297l4.403 8.027 1.086-5.076.056-.282q.042-.195.057-.394.018-.226.018-.414 0-1.165-1.03-1.39l-.225-.039-.112-.056-.056-.15q0-.226.206-.226h3.915a.16.16 0 0 1 .169.094l.018.094a.226.226 0 0 1-.206.244l-.168.038c-.37.018-.72.164-.993.414a2.7 2.7 0 0 0-.768.996l-.15.357-.131.395L25 16.025l-.02.019v.037a.3.3 0 0 1-.205.113.2.2 0 0 1-.169-.075 7 7 0 0 1-.3-.526l-4.983-9.286zm9.61 3.159q0 .187.263.187h8.917l1.537-4.135.075-.245q0-.169-.188-.169l-.169.075-.112.207-.056.132a6.8 6.8 0 0 1-2.183 2.585q-1.49 1.1-2.8 1.1-.956 0-.956-.79.015-.279.056-.555.056-.423.113-.667l1.61-7.557q.225-1.11.994-1.109h.187l.225-.019q.337 0 .337-.225v-.038q0-.188-.15-.188H30.49q-.43 0-.431.226 0 .188.356.263h.056q.712.17.712.808 0 .075-.028.31-.028.236-.103.705l-1.555 7.425q-.28 1.222-1.274 1.354l-.356.056a.247.247 0 0 0-.244.263" clip-rule="evenodd"/></svg>