<?xml version="1.0" encoding="utf-8"?>
<!-- Generator: Adobe Illustrator 24.2.0, SVG Export Plug-In . SVG Version: 6.00 Build 0)  -->
<svg version="1.0" id="Piktogramm" xmlns="http://www.w3.org/2000/svg" xmlns:xlink="http://www.w3.org/1999/xlink" x="0px" y="0px"
	 viewBox="0 0 24 24" enable-background="new 0 0 24 24" xml:space="preserve">
<g id="SVG_x5F_24x24pt">
	<path id="backgroundBlue" fill="#2D327D" d="M0,22.5v-21C0,0.675,0.675,0,1.5,0h21C23.325,0,24,0.675,24,1.5v21
		c0,0.825-0.675,1.5-1.5,1.5h-21C0.675,24,0,23.325,0,22.5z"/>
	<g id="content">
		<path fill="#FFFFFF" d="M12.481,12.598h-1.278c-0.961,1.665-2.217,3.84-2.834,4.909c-0.207,0.359-0.084,0.817,0.275,1.024
			l4.098,2.366c0.359,0.207,0.817,0.084,1.025-0.275l2.329-4.034l-3.071-0.23L12.481,12.598z"/>
		<path fill="#FFFFFF" d="M20.883,4.012l-1.688-0.974c-0.131-0.061-0.289-0.013-0.362,0.114c-0.03,0.052-0.041,0.11-0.036,0.166l0,0
			l0.001,0.006c0.014,0.131-0.065,0.254-0.189,0.297l-0.043,0.012c-0.07,0.019-0.132,0.064-0.171,0.131
			c-0.023,0.039-0.092,0.209-0.098,0.227c-0.037,0.114,0.003,0.242,0.101,0.314c-0.179,0.259-1.364,1.976-1.956,3.002
			c-0.641,1.111-3.046,1.496-4.162,3.429c-0.108,0.187-0.256,0.444-0.433,0.751h1.599l0.552,3.83l2.715,0.203l0.963-1.668
			c1.116-1.934,0.247-4.208,0.889-5.319l-0.002-0.001c0.592-1.025,1.487-2.909,1.622-3.195c0.112,0.051,0.244,0.022,0.325-0.068
			c0.013-0.014,0.125-0.16,0.148-0.199c0.039-0.067,0.047-0.144,0.028-0.214l-0.011-0.044c-0.026-0.129,0.042-0.259,0.162-0.312
			l0.005-0.002l0,0c0.051-0.023,0.096-0.062,0.126-0.115C21.039,4.256,21.001,4.095,20.883,4.012z"/>
		<path fill-rule="evenodd" clip-rule="evenodd" fill="#FFFFFF" d="M4.079,9.117c-0.015-0.025-0.03-0.05-0.044-0.076
			C3.706,8.475,3.376,7.908,3.047,7.342C2.986,7.237,2.983,7.133,3.046,7.025C3.22,6.73,3.391,6.433,3.564,6.137
			c0.004-0.007,0.008-0.015,0.014-0.026c-0.178-0.105-0.356-0.21-0.534-0.315c0-0.002,0.001-0.004,0.001-0.006
			c0.009,0,0.018,0,0.026,0c0.561,0,1.122,0,1.683,0c0.019,0,0.032,0.002,0.044,0.021c0.287,0.494,0.575,0.987,0.863,1.48
			c0.003,0.005,0.006,0.011,0.013,0.025C5.489,7.209,5.311,7.107,5.132,7.003C5.124,7.015,5.118,7.025,5.113,7.035
			C4.79,7.594,4.467,8.153,4.143,8.712c-0.07,0.121-0.096,0.248-0.06,0.385c0.002,0.006,0.001,0.012,0.002,0.019
			C4.083,9.116,4.081,9.116,4.079,9.117z"/>
		<path fill-rule="evenodd" clip-rule="evenodd" fill="#FFFFFF" d="M9.072,4.072c0.179-0.103,0.354-0.205,0.539-0.311
			C9.604,3.777,9.601,3.785,9.596,3.792c-0.28,0.488-0.56,0.976-0.84,1.464C8.748,5.271,8.739,5.279,8.72,5.279
			C8.15,5.28,7.579,5.283,7.009,5.285c-0.005,0-0.01,0-0.025-0.001C7.166,5.176,7.341,5.074,7.519,4.97
			C7.511,4.957,7.506,4.946,7.499,4.935C7.181,4.38,6.862,3.824,6.544,3.268C6.472,3.142,6.374,3.05,6.23,3.015
			c-0.004-0.001-0.007-0.004-0.018-0.01c0.019,0,0.029,0,0.04,0C6.896,3.003,7.541,3.001,8.185,3c0.059,0,0.118,0,0.176,0.009
			C8.443,3.021,8.499,3.074,8.54,3.145c0.174,0.304,0.348,0.608,0.522,0.912C9.065,4.061,9.068,4.065,9.072,4.072z"/>
		<path fill-rule="evenodd" clip-rule="evenodd" fill="#FFFFFF" d="M7.88,9.948c0,0.208,0,0.412,0,0.616
			c-0.003,0.001-0.005,0.001-0.008,0.002c-0.005-0.007-0.01-0.014-0.014-0.021c-0.28-0.487-0.561-0.973-0.841-1.46
			C7.008,9.071,7.004,9.06,7.014,9.043C7.3,8.545,7.586,8.047,7.871,7.549C7.873,7.546,7.875,7.544,7.88,7.537
			c0,0.208,0,0.413,0,0.622c0.015,0,0.027,0,0.039,0c0.643,0,1.287,0,1.93,0c0.143,0,0.269-0.044,0.372-0.145
			C10.225,8.011,10.229,8.008,10.24,8c-0.01,0.018-0.015,0.028-0.02,0.038C9.896,8.6,9.573,9.163,9.249,9.725
			c-0.029,0.05-0.058,0.1-0.094,0.145C9.106,9.93,9.036,9.951,8.961,9.951c-0.173,0-0.345-0.002-0.518-0.002
			c-0.174,0-0.347,0-0.521,0C7.91,9.948,7.899,9.948,7.88,9.948z"/>
		<path fill-rule="evenodd" clip-rule="evenodd" fill="#FFFFFF" d="M6.59,8.153c0,0.596,0,1.188,0,1.782c-0.013,0-0.024,0-0.036,0
			c-0.415,0-0.83,0.01-1.244-0.003C4.936,9.921,4.652,9.746,4.492,9.397C4.423,9.248,4.39,9.091,4.414,8.927
			c0.007-0.049,0.022-0.1,0.046-0.142C4.575,8.581,4.694,8.38,4.81,8.178c0.011-0.019,0.023-0.025,0.045-0.025
			c0.568,0.001,1.135,0,1.703,0C6.567,8.153,6.578,8.153,6.59,8.153z"/>
		<path fill-rule="evenodd" clip-rule="evenodd" fill="#FFFFFF" d="M8.199,6.316c0.513-0.297,1.025-0.593,1.537-0.89
			C9.744,5.438,9.75,5.448,9.756,5.457c0.208,0.357,0.424,0.71,0.622,1.073c0.139,0.255,0.167,0.529,0.045,0.805
			c-0.084,0.189-0.213,0.337-0.39,0.442C9.957,7.821,9.878,7.845,9.789,7.844c-0.227-0.002-0.455-0.001-0.682,0
			c-0.018,0-0.03-0.003-0.041-0.021C8.781,7.326,8.494,6.83,8.208,6.334C8.205,6.329,8.203,6.324,8.199,6.316z"/>
		<path fill-rule="evenodd" clip-rule="evenodd" fill="#FFFFFF" d="M4.258,4.77c0.055-0.097,0.108-0.19,0.161-0.283
			C4.577,4.208,4.73,3.928,4.894,3.653c0.142-0.237,0.354-0.385,0.629-0.426C5.74,3.194,5.947,3.232,6.138,3.342
			C6.211,3.385,6.271,3.44,6.313,3.515C6.427,3.713,6.542,3.91,6.657,4.108c0.01,0.017,0.012,0.03,0.001,0.048
			C6.375,4.649,6.093,5.144,5.811,5.638C5.807,5.644,5.804,5.65,5.797,5.661C5.285,5.364,4.773,5.068,4.258,4.77z"/>
	</g>
</g>
</svg>
