<svg class="color-immutable" xmlns="http://www.w3.org/2000/svg" width="59" height="20" fill="none" viewBox="0 0 59 20"><path fill="#E84E10" fill-rule="evenodd" d="M2 0a2 2 0 0 0-2 2v16a2 2 0 0 0 2 2h55a2 2 0 0 0 2-2V2a2 2 0 0 0-2-2z" clip-rule="evenodd"/><path fill="#000" d="M14.153 4.17v2.142H7.98v2.476h5.657v1.991H7.98v2.849h6.284v2.142H5.45V4.17zM25.311 4.17l-3.856 11.6h-2.88l-3.8-11.6h2.65l2.61 8.688 2.65-8.688zM33.415 7.066h-2.206q-.309-1.341-1.524-1.341-1.285 0-1.825 1.579-.222.642-.357 1.944.525-.706 1.111-1.016.595-.31 1.428-.31 1.635 0 2.627 1.16.945 1.094.944 2.745 0 1.959-1.27 3.15-1.142 1.07-2.745 1.07-2.055 0-3.197-1.546-1.143-1.555-1.143-4.333 0-2.967 1.222-4.65 1.182-1.626 3.23-1.626 1.927 0 2.95 1.293.588.747.755 1.88m-3.928 2.658q-.833 0-1.325.698-.444.62-.444 1.476 0 .848.452 1.484.491.706 1.349.706.833 0 1.34-.674.477-.635.477-1.5 0-.849-.429-1.452-.523-.738-1.42-.738M41.835 4.17v2.063h-4.673l-.5 2.61q.841-.888 2.15-.888 1.285 0 2.238.69 1.413 1.039 1.412 3.158 0 2.079-1.507 3.293-1.175.951-2.81.952-1.84 0-2.959-.984-1.119-.992-1.182-2.674h2.277q.056.61.397 1.04.531.674 1.476.674.913 0 1.444-.659.516-.643.516-1.563 0-1-.54-1.595-.54-.603-1.436-.603-1.095 0-1.706.984l-2.07-.031 1.102-6.467z"/></svg>