<svg class="color-immutable" xmlns="http://www.w3.org/2000/svg" width="59" height="20" fill="none" viewBox="0 0 59 20"><g clip-path="url(#a)"><path fill="#EB0000" fill-rule="evenodd" d="M2 0a2 2 0 0 0-2 2v16a2 2 0 0 0 2 2h55a2 2 0 0 0 2-2V2a2 2 0 0 0-2-2z" clip-rule="evenodd"/><path fill="#fff" d="M45.704 12.896h2.183q.27 1.345 1.559 1.345.727 0 1.182-.495.455-.494.7-1.538.158-.665.23-1.51-.53.743-1.088 1.055-.558.313-1.357.313-1.273 0-2.214-.744a3.5 3.5 0 0 1-1.025-1.352 4.4 4.4 0 0 1-.367-1.804q0-1.953 1.336-3.164 1.147-1.044 2.753-1.044.989 0 1.827.443a3.96 3.96 0 0 1 1.408 1.258q1.005 1.447 1.005 4.065 0 2.42-.886 4.13-1.155 2.222-3.497 2.222-1.558 0-2.574-.862-1.017-.863-1.175-2.318m3.844-6.984q-.743 0-1.257.609-.514.616-.514 1.566 0 .767.371 1.36.506.816 1.424.815.831 0 1.329-.664.467-.626.467-1.487 0-.91-.483-1.543a1.6 1.6 0 0 0-1.337-.656M4.28 16 6.707 4.483h2.409L6.689 16zM8.939 16l2.409-11.517h2.722c2.129 0 4.587-.033 4.587 2.723 0 1.98-1.485 3.036-3.366 3.069v.032c.627.034 1.023.43 1.172 1.057L17.568 16h-2.425l-.561-2.706c-.264-1.22-.198-2.079-1.452-2.079h-.875L11.25 16zm4.372-9.702L12.668 9.4h.841c1.238 0 2.74-.38 2.74-1.897 0-1.205-1.04-1.205-1.98-1.205zM19.19 16l2.426-11.517h6.782l-.347 1.815h-4.504l-.594 2.838h4.026l-.363 1.815h-4.043l-.676 3.234h4.554L26.055 16z"/></g><defs><clipPath id="a"><path fill="#fff" d="M0 0h59v20H0z"/></clipPath></defs></svg>