<svg xmlns="http://www.w3.org/2000/svg" width="36" height="36" version="1.1" viewBox="0 0 36 36">
  <path fill="none" fill-rule="evenodd" stroke="#000" stroke-width="1" d="M6.753,32.25075 L15.753,32.25075 L15.7485,16.12275 C15.7485,14.25825 14.238,12.74775 12.3735,12.74775 L10.1205,12.74775 C8.256,12.74775 6.7455,14.25825 6.7455,16.12275 L6.753,32.25075 Z M6.74925,17.25 L15.74925,17.25 M6.74925,29.2515 L15.74925,29.2515 M11.25,9.75 L11.25,12.75 M9.75,9.75 L12.75,9.75 L12.75,6.75 L9.75,6.75 L9.75,9.75 Z M15.75,9.75 L22.3155,11.0145 C21.966,11.505 21.756,12.102 21.756,12.75 C21.756,14.4075 23.0985,15.75 24.756,15.75 C26.412,15.75 27.756,14.4075 27.756,12.75 L27.756,12.75 C29.4135,12.75 30.756,11.4075 30.756,9.75 C30.756,8.094 29.4135,6.75 27.756,6.75 C27.756,5.094 26.412,3.75 24.756,3.75 C23.0985,3.75 21.756,5.094 21.756,6.75 C21.756,6.8745 21.7785,6.9945 21.792,7.116 L15.75,8.25 L15.75,9.75 Z"/>
</svg>
