<svg class="color-immutable" xmlns="http://www.w3.org/2000/svg" width="59" height="20" fill="none" viewBox="0 0 59 20"><g clip-path="url(#a)"><path stroke="#000" d="M2 .5h55A1.5 1.5 0 0 1 58.5 2v16a1.5 1.5 0 0 1-1.5 1.5H2A1.5 1.5 0 0 1 .5 18V2A1.5 1.5 0 0 1 2 .5Z"/><path fill="#000" d="M4.069 4.224h5.704q1.692 0 2.594.532.749.434 1.144 1.16.395.725.395 1.635 0 1.032-.5 1.797-.491.765-1.377 1.096.78.192 1.224.87.282.426.379.894.097.467.25 2.135.112 1.224.346 1.523l.113.137h-2.683a2 2 0 0 1-.201-.637q-.058-.387-.154-1.788-.096-1.25-.612-1.724-.507-.484-1.74-.484H6.639v4.633h-2.57zm2.57 2.022v3.239h2.457q1.184 0 1.668-.339.612-.426.612-1.289 0-.837-.524-1.224t-1.651-.387zM24.436 13.827v2.176h-8.33V4.223h2.57v9.604zM32.984 4.224v2.095h-4.746l-.507 2.65q.855-.902 2.183-.902 1.306 0 2.272.7 1.434 1.056 1.434 3.207 0 2.111-1.53 3.344-1.193.966-2.853.967-1.868 0-3.005-1-1.136-1.006-1.2-2.714h2.312q.057.62.403 1.055.54.685 1.499.685.926 0 1.466-.669.524-.652.524-1.587 0-1.015-.548-1.62-.548-.612-1.458-.612-1.113 0-1.733 1l-2.102-.033 1.12-6.566zM42.555 7.165h-2.24q-.314-1.362-1.546-1.362-1.305 0-1.853 1.603-.226.652-.363 1.974.532-.717 1.128-1.031.604-.315 1.45-.314 1.659 0 2.667 1.176.959 1.111.959 2.787 0 1.99-1.29 3.199-1.16 1.088-2.787 1.088-2.087 0-3.247-1.571-1.16-1.58-1.16-4.4 0-3.013 1.24-4.72 1.201-1.653 3.28-1.652 1.958 0 2.997 1.313.596.757.765 1.91m-3.988 2.699q-.846 0-1.345.708-.452.63-.452 1.499 0 .862.46 1.507.5.717 1.37.717.845 0 1.36-.685.484-.645.484-1.523 0-.862-.435-1.474-.531-.75-1.442-.75"/></g><defs><clipPath id="a"><path fill="#fff" d="M0 0h59v20H0z"/></clipPath></defs></svg>