<svg class="color-immutable" xmlns="http://www.w3.org/2000/svg" width="59" height="20" fill="none" viewBox="0 0 59 20"><g clip-path="url(#a)"><path fill="#EB0000" fill-rule="evenodd" d="M2 0a2 2 0 0 0-2 2v16a2 2 0 0 0 2 2h55a2 2 0 0 0 2-2V2a2 2 0 0 0-2-2z" clip-rule="evenodd"/><path fill="#fff" d="M9.388 4.2h4.042L8.43 15.8h-4.06zM26.092 12.366a.92.92 0 0 0 .843-.553L30.216 4.2H16.13l-5.001 11.6h4.025l3.786-8.69h5.973l-1.197 2.775-5.209-.019L22.71 15.8h4.582l-3.114-3.434zM36.538 12.896h2.183q.27 1.344 1.558 1.344.727 0 1.179-.49.459-.498.704-1.543a10 10 0 0 0 .23-1.51q-.531.743-1.092 1.06-.554.308-1.353.308-1.273 0-2.215-.744a3.54 3.54 0 0 1-1.028-1.352 4.4 4.4 0 0 1-.364-1.804q0-1.953 1.337-3.164 1.147-1.044 2.753-1.044.989 0 1.827.443a3.96 3.96 0 0 1 1.408 1.258q1.005 1.447 1.005 4.066 0 2.42-.887 4.129-1.155 2.222-3.496 2.222-1.558 0-2.578-.862-1.014-.862-1.171-2.317m3.844-6.985q-.743 0-1.258.609-.514.616-.514 1.566 0 .768.372 1.36.507.816 1.424.815.831 0 1.329-.664.466-.625.467-1.487 0-.91-.483-1.543a1.6 1.6 0 0 0-1.337-.656M53.11 4.234V6.29h-4.66l-.498 2.602q.84-.886 2.144-.886 1.282 0 2.23.688 1.409 1.036 1.408 3.149 0 2.072-1.502 3.282-1.17.95-2.8.95-1.836 0-2.951-.982-1.116-.988-1.179-2.665h2.27q.056.609.396 1.036.53.672 1.471.672.91 0 1.44-.656.514-.641.514-1.558 0-.997-.538-1.59-.538-.602-1.431-.602-1.092 0-1.701.981l-2.065-.031 1.1-6.447z"/></g><defs><clipPath id="a"><path fill="#fff" d="M0 0h59v20H0z"/></clipPath></defs></svg>