<?xml version="1.0" encoding="utf-8"?>
<!-- Generator: Adobe Illustrator 24.2.0, SVG Export Plug-In . SVG Version: 6.00 Build 0)  -->
<svg version="1.0" id="Ebene_1" xmlns="http://www.w3.org/2000/svg" xmlns:xlink="http://www.w3.org/1999/xlink" x="0px" y="0px"
	 viewBox="0 0 24 24" enable-background="new 0 0 24 24" xml:space="preserve">
<g id="SVG_x5F_24x24pt">
	<path id="backgroundBlue" fill="#2D327D" d="M0,22.5v-21C0,0.675,0.675,0,1.5,0h21C23.325,0,24,0.675,24,1.5v21
		c0,0.825-0.675,1.5-1.5,1.5h-21C0.675,24,0,23.325,0,22.5z"/>
	<g id="content">
		<polygon fill="#FFFFFF" points="2.999,3 2.999,3.376 21,4.951 21,4.575 2.999,3 		"/>
		<path fill="#FFFFFF" d="M11.308,17.819l-3.773-0.331c0.243,0.875,1.041,1.48,1.948,1.48
			C10.261,18.968,10.972,18.522,11.308,17.819L11.308,17.819z"/>
		<path fill="#FFFFFF" d="M15.568,7.198l-3.937-2.753L7.275,6.473L9.348,8.16L4.641,7.749C4.613,7.746,4.585,7.744,4.556,7.744
			c-0.505,0-0.927,0.387-0.972,0.89l-0.64,7.322c-0.002,0.011-0.002,0.021-0.002,0.032c0,0.194,0.149,0.357,0.343,0.374L21,17.914
			v-4.293l-4.117-0.359c-0.194-0.018-0.342-0.18-0.342-0.374c0-0.011,0.001-0.021,0.001-0.032l0.262-2.99
			c0.017-0.193,0.178-0.342,0.373-0.342c0.011,0,0.022,0,0.033,0.002L21,9.858V9.18L13.233,8.5L15.568,7.198L15.568,7.198z
			 M6.567,8.971L6.306,11.96c-0.017,0.194-0.179,0.343-0.373,0.343c-0.011,0-0.021-0.001-0.033-0.002l-1.606-0.14H4.293
			c-0.193-0.018-0.342-0.179-0.342-0.374c0-0.011,0.001-0.021,0.001-0.032l0.262-2.989C4.23,8.572,4.393,8.423,4.587,8.423
			c0.011,0,0.022,0,0.033,0.001l1.605,0.141C6.42,8.582,6.569,8.744,6.569,8.938C6.569,8.95,6.569,8.961,6.567,8.971L6.567,8.971z
			 M8.389,9.243l-0.373,4.259c-0.025,0.291-0.268,0.513-0.56,0.513c-0.31,0-0.562-0.252-0.562-0.562c0-0.017,0-0.033,0.002-0.05
			l0.372-4.258c0.026-0.291,0.268-0.513,0.56-0.513c0.31,0,0.563,0.252,0.563,0.563C8.39,9.211,8.39,9.227,8.389,9.243L8.389,9.243z
			 M10.182,9.4l-0.373,4.259c-0.025,0.291-0.268,0.514-0.56,0.514c-0.31,0-0.562-0.252-0.562-0.563c0-0.017,0.001-0.032,0.002-0.049
			l0.374-4.258c0.024-0.291,0.268-0.514,0.559-0.514c0.311,0,0.563,0.252,0.563,0.563C10.183,9.368,10.183,9.384,10.182,9.4
			L10.182,9.4z M8.537,6.63l3.027-1.408l2.734,1.913l-2.263,1.261l-1.488-0.13L8.537,6.63L8.537,6.63z M15.79,9.402
			c0.194,0.017,0.342,0.179,0.342,0.373c0,0.011,0,0.022-0.001,0.033l-0.262,2.988c-0.017,0.194-0.178,0.343-0.373,0.343
			c-0.011,0-0.022,0-0.033-0.002l-4.521-0.395c-0.193-0.017-0.342-0.179-0.342-0.373c0-0.011,0.001-0.022,0.001-0.032l0.262-2.989
			c0.017-0.194,0.178-0.343,0.373-0.343c0.011,0,0.022,0.001,0.032,0.002L15.79,9.402L15.79,9.402z"/>
		<path fill="#FFFFFF" d="M15.791,18.21l-3.774-0.33c0.243,0.875,1.041,1.48,1.949,1.48C14.745,19.361,15.455,18.913,15.791,18.21
			L15.791,18.21z"/>
		<polygon fill="#FFFFFF" points="2.999,19.425 21,21.001 21,20.36 2.999,18.785 2.999,19.425 		"/>
	</g>
</g>
</svg>
