<svg class="color-immutable" xmlns="http://www.w3.org/2000/svg" width="59" height="20" fill="none" viewBox="0 0 59 20"><g clip-path="url(#a)"><path stroke="#fff" d="M2 .5h55A1.5 1.5 0 0 1 58.5 2v16a1.5 1.5 0 0 1-1.5 1.5H2A1.5 1.5 0 0 1 .5 18V2A1.5 1.5 0 0 1 2 .5Z"/><path fill="#fff" d="M4.069 4.224h5.704q1.692 0 2.594.532.749.434 1.144 1.16.395.725.395 1.635 0 1.032-.5 1.797-.491.765-1.377 1.096.78.192 1.224.87.282.426.379.894.097.467.25 2.135.112 1.224.346 1.523l.113.137h-2.683a2 2 0 0 1-.201-.637q-.058-.387-.154-1.788-.096-1.25-.612-1.724-.507-.484-1.74-.484H6.639v4.633h-2.57zm2.57 2.022v3.239h2.457q1.184 0 1.668-.339.612-.426.612-1.289 0-.837-.524-1.224t-1.651-.387zM24.436 13.827v2.176h-8.33V4.223h2.57v9.604zM25.29 13.046h2.223q.274 1.37 1.588 1.37.741 0 1.2-.5.467-.507.717-1.571.16-.676.234-1.539-.54.758-1.112 1.08-.564.315-1.378.314-1.297 0-2.256-.757a3.6 3.6 0 0 1-1.047-1.378 4.5 4.5 0 0 1-.37-1.837q0-1.99 1.361-3.223 1.168-1.063 2.804-1.063 1.006 0 1.86.451.855.45 1.435 1.281 1.023 1.474 1.023 4.141 0 2.466-.902 4.206-1.178 2.264-3.561 2.264-1.588 0-2.627-.879-1.031-.878-1.192-2.36m3.915-7.114q-.758 0-1.28.62-.525.629-.524 1.595 0 .782.378 1.386.516.83 1.45.83.847 0 1.354-.677.475-.636.475-1.514 0-.927-.491-1.571a1.64 1.64 0 0 0-1.362-.67M38.567 3.942q1.346 0 2.369.822 1.014.821 1.474 2.53.347 1.305.347 2.835 0 2.538-.903 4.174-.531.95-1.394 1.466a3.6 3.6 0 0 1-1.909.516q-1.442 0-2.465-.87-1.821-1.547-1.821-5.286 0-2.658.95-4.27a3.84 3.84 0 0 1 1.41-1.418 3.86 3.86 0 0 1 1.942-.5m-.089 1.99q-1.16 0-1.579 1.337-.33 1.064-.33 2.981 0 1.692.338 2.715.436 1.33 1.612 1.33.975 0 1.45-1.032.475-1.03.475-3.15 0-1.804-.338-2.844-.435-1.337-1.628-1.337"/></g><defs><clipPath id="a"><path fill="#fff" d="M0 0h59v20H0z"/></clipPath></defs></svg>