<?xml version="1.0" encoding="utf-8"?>
<!-- Generator: Adobe Illustrator 24.3.0, SVG Export Plug-In . SVG Version: 6.00 Build 0)  -->
<svg version="1.0" xmlns="http://www.w3.org/2000/svg" xmlns:xlink="http://www.w3.org/1999/xlink" x="0px" y="0px"
	 viewBox="0 0 24 24" enable-background="new 0 0 24 24" xml:space="preserve">
<g id="SVG_x5F_24x24pt">
	<path id="backgroundBlue" fill="#2D327D" d="M0,22.5v-21C0,0.675,0.675,0,1.5,0h21C23.325,0,24,0.675,24,1.5v21
		c0,0.825-0.675,1.5-1.5,1.5h-21C0.675,24,0,23.325,0,22.5z"/>
	<g id="content">
		<path fill="#FFFFFF" d="M15.075,16.35c-1.284,0-2.325,1.041-2.325,2.325c0,0.572,0.206,1.095,0.549,1.5
			C13.725,20.68,14.362,21,15.075,21c0.713,0,1.35-0.32,1.776-0.825c0.343-0.405,0.549-0.928,0.549-1.5
			C17.4,17.391,16.359,16.35,15.075,16.35z M15.075,19.875c-0.663,0-1.2-0.537-1.2-1.2c0-0.663,0.537-1.2,1.2-1.2s1.2,0.537,1.2,1.2
			C16.275,19.338,15.738,19.875,15.075,19.875z"/>
		<rect x="3.001" y="17.775" fill="#FFFFFF" width="8.625" height="1.5"/>
		<path fill="#FFFFFF" d="M20.954,13l-0.676-2.476c-0.158-0.589-0.693-1-1.304-1h-6.223l-0.003,6.917
			c0.587-0.611,1.412-0.992,2.327-0.992c1.778,0,3.219,1.438,3.225,3.214v0.011V18.9c0,0.207,0.168,0.375,0.375,0.375h1.95
			c0.207,0,0.375-0.168,0.375-0.375l0.001-0.225V13.35C21.001,13.232,20.985,13.114,20.954,13z M19.05,10.2
			c0.271,0,0.506,0.182,0.577,0.445l0.536,2.008c0.008,0.032,0.013,0.064,0.013,0.097c0,0.207-0.168,0.375-0.375,0.375h-4.8
			c-0.207,0-0.375-0.168-0.375-0.375v-2.175c0-0.207,0.168-0.375,0.375-0.375H19.05z"/>
		<path fill="#FFFFFF" d="M3,17.021l8.625,0.004c0,0,0-5.85,0-8.475c0-0.207-0.168-0.375-0.375-0.375H3L3,10.2h5.7
			c0.207,0,0.375,0.168,0.375,0.375c0,0.207-0.168,0.375-0.375,0.375H3v0.75h5.7c0.207,0,0.375,0.168,0.375,0.375
			c0,0.207-0.168,0.375-0.375,0.375H3L3,17.021z"/>
	</g>
</g>
</svg>
