<svg xmlns="http://www.w3.org/2000/svg" width="24" height="24" fill="none" viewBox="0 0 24 24"><path fill="#000" fill-rule="evenodd" d="M12.002 2.851a2.17 2.17 0 0 0-.797-.656 2.22 2.22 0 0 0-1.783-.034 2.26 2.26 0 0 0-1.264 1.246c-.239.603-.198 1.316.205 2.037l.016.028.019.025L9.508 7H3v4h1v11h16V11h1V7h-6.509l1.111-1.503.017-.022.014-.024c.412-.712.457-1.42.218-2.023-.234-.588-.718-1.02-1.266-1.243-.549-.223-1.2-.25-1.786.021a2.14 2.14 0 0 0-.797.645M11.5 4.07c-.161-.554-.446-.839-.725-.971a1.22 1.22 0 0 0-.98-.01 1.26 1.26 0 0 0-.707.687c-.114.288-.125.677.134 1.155L10.752 7h.745zm1 0L12.497 7h.75l1.534-2.073c.262-.466.253-.846.14-1.13a1.27 1.27 0 0 0-.712-.685 1.24 1.24 0 0 0-.989.001c-.277.13-.561.408-.72.955M15 11v10h4V11zm-1 10h-4V11h4zm1-11V8h5v2h-5m-1 0V8h-4v2zm-5 0V8H4v2h5m0 11V11H5v10z" clip-rule="evenodd"/></svg>