<?xml version="1.0" encoding="utf-8"?>
<!-- Generator: Adobe Illustrator 25.3.1, SVG Export Plug-In . SVG Version: 6.00 Build 0)  -->
<svg version="1.0" id="_x3C_Ebene_x3E_" xmlns="http://www.w3.org/2000/svg" xmlns:xlink="http://www.w3.org/1999/xlink" x="0px"
	 y="0px" viewBox="0 0 24 24" enable-background="new 0 0 24 24" xml:space="preserve">
<g id="SVG_x5F_24x24pt">
	<path id="backgroundBlue" fill="#2D327D" d="M0,22.5v-21C0,0.675,0.675,0,1.5,0h21C23.325,0,24,0.675,24,1.5v21
		c0,0.825-0.675,1.5-1.5,1.5h-21C0.675,24,0,23.325,0,22.5z"/>
	<g id="content">
		<polygon fill="#FFFFFF" points="7.213,9.276 7.213,7.212 9.277,7.212 9.277,5.063 7.213,5.063 7.213,2.999 5.063,2.999 
			5.063,5.063 2.999,5.063 2.999,7.212 5.063,7.212 5.063,9.276 		"/>
		
			<rect x="6.516" y="16.197" transform="matrix(0.7071 -0.7071 0.7071 0.7071 -10.8956 10.8137)" fill="#FFFFFF" width="2.179" height="4.725"/>
		<path fill="#FFFFFF" d="M18.832,14.021l-1.442,1.442c0,0,0,0.001,0,0.001c0.002,0.018,0.004,0.037,0.006,0.056
			c0.003,0.031,0.005,0.063,0.005,0.095c0,0.663-0.537,1.2-1.2,1.2h-3.45V16.44h3.45c0.456,0,0.825-0.369,0.825-0.825
			c0-0.455-0.371-0.823-0.825-0.825h-2.302c-0.464,0-0.759-0.135-1.036-0.275c-0.016-0.008-0.032-0.016-0.048-0.024l-0.059-0.03
			c-0.03-0.016-0.061-0.03-0.091-0.045c-0.534-0.269-1.126-0.32-1.723-0.32c-1.033,0-1.797,0.312-2.519,1.044l-1.087,1.082
			l2.601,2.601l0.504-0.506l5.764-0.005c0.435,0,0.827-0.164,1.126-0.434l0.641-0.631l2.904-2.904l0.097-0.097
			C21.219,13.922,19.771,13.082,18.832,14.021z"/>
		<path fill="#FFFFFF" d="M13.42,7.497C13.434,7.499,13.448,7.5,13.462,7.5c0.147,0,0.275-0.108,0.297-0.257
			c0.023-0.164-0.09-0.316-0.254-0.34c-0.164-0.023-0.316,0.09-0.34,0.254C13.142,7.321,13.255,7.473,13.42,7.497z"/>
		<path fill="#FFFFFF" d="M13.701,5.547c0.014,0.002,0.029,0.003,0.044,0.003c0.146,0,0.275-0.108,0.296-0.257
			c0.023-0.164-0.09-0.316-0.254-0.34c-0.164-0.023-0.316,0.09-0.34,0.254C13.423,5.371,13.537,5.523,13.701,5.547z"/>
		<path fill="#FFFFFF" d="M13.138,9.447c0.014,0.002,0.029,0.003,0.043,0.003c0.147,0,0.275-0.108,0.297-0.257
			c0.023-0.164-0.09-0.316-0.254-0.34c-0.164-0.023-0.316,0.09-0.34,0.254C12.861,9.271,12.974,9.423,13.138,9.447z"/>
		<path fill="#FFFFFF" d="M16.085,6.903c-0.164,0.022-0.28,0.172-0.257,0.337c0.02,0.151,0.148,0.26,0.296,0.26
			c0.014,0,0.027-0.001,0.041-0.003c0.164-0.022,0.28-0.173,0.257-0.337C16.4,6.996,16.249,6.88,16.085,6.903z"/>
		<path fill="#FFFFFF" d="M15.823,4.953c-0.164,0.022-0.28,0.172-0.257,0.337c0.02,0.151,0.148,0.26,0.297,0.26
			c0.013,0,0.026-0.001,0.04-0.003c0.164-0.022,0.28-0.173,0.257-0.337C16.138,5.046,15.987,4.93,15.823,4.953z"/>
		<path fill="#FFFFFF" d="M16.348,8.853c-0.164,0.022-0.28,0.172-0.257,0.337c0.02,0.151,0.148,0.26,0.296,0.26
			c0.014,0,0.027-0.001,0.041-0.003c0.164-0.022,0.28-0.173,0.257-0.337C16.663,8.946,16.512,8.83,16.348,8.853z"/>
		<circle fill="#FFFFFF" cx="14.775" cy="10.163" r="0.3"/>
		<circle fill="#FFFFFF" cx="14.775" cy="6.34" r="0.3"/>
		<circle fill="#FFFFFF" cx="14.775" cy="8.252" r="0.3"/>
		<circle fill="#FFFFFF" cx="15.6" cy="3.3" r="0.3"/>
		<circle fill="#FFFFFF" cx="14.025" cy="3.3" r="0.3"/>
		<circle fill="#FFFFFF" cx="14.775" cy="4.425" r="0.3"/>
		<circle fill="#FFFFFF" cx="12.9" cy="11.1" r="0.3"/>
		<circle fill="#FFFFFF" cx="14.775" cy="12.075" r="0.3"/>
		<circle fill="#FFFFFF" cx="16.65" cy="11.1" r="0.3"/>
	</g>
</g>
</svg>
