<svg xmlns="http://www.w3.org/2000/svg" width="24" height="24" fill="none" viewBox="0 0 24 24"><path fill="#000" fill-rule="evenodd" d="M10 3h4v1.277a5.26 5.26 0 0 1 2.806 1.993C17.706 7.52 18 9.003 18 10v6c0 .337.105.853.406 1.27.282.392.757.73 1.594.73v1h-5.044a2.2 2.2 0 0 1-.895 1.423c-.565.409-1.306.577-2.061.577s-1.496-.168-2.061-.577A2.2 2.2 0 0 1 9.044 19H4v-1c.337 0 .853-.105 1.27-.406.392-.282.73-.757.73-1.594v-6c0-.997.295-2.48 1.194-3.73A5.26 5.26 0 0 1 10 4.277V3m1 1.064q.447-.06.942-.064H11zM12.058 4q.495.003.942.064V4zm-1.985 15a1.2 1.2 0 0 0 .452.613c.34.245.85.387 1.475.387s1.135-.142 1.475-.387a1.2 1.2 0 0 0 .452-.613h-3.854M7 10c0-.837.255-2.103 1.006-3.145C8.738 5.838 9.963 5 12 5s3.262.838 3.994 1.855C16.744 7.897 17 9.163 17 10v6c0 .497.145 1.23.594 1.855q.054.074.112.145H6.304c.416-.47.696-1.125.696-2v-6" clip-rule="evenodd"/></svg>