<svg width="48" height="48" viewBox="0 0 48 48" fill="none" xmlns="http://www.w3.org/2000/svg"><path fill-rule="evenodd" clip-rule="evenodd" d="M12 7V4h1v3h-1Zm-5.461-.827L8.816 8.45l.707-.707-2.277-2.277-.707.707ZM10 11.5a2.5 2.5 0 1 1 5 0 2.5 2.5 0 0 1-5 0ZM12.5 8a3.5 3.5 0 1 0 0 7 3.5 3.5 0 0 0 0-7Zm19.898 7.197-.361-.476-.405.44-11.194 12.168-7.638-5.73-.38-.285-.304.365-5 6 .768.641 4.696-5.636L20.2 28.4l.362.271.306-.332 6.835-7.43 1.443 1.445.307.306.347-.26 1.7-1.275 1.7 1.275.337.253.307-.29 1.595-1.512 5.663 7.451.796-.605-9.5-12.5Zm-2.851 6.143-1.167-1.167 3.583-3.895 2.867 3.772-1.368 1.296L31.8 20.1l-.3-.225-.3.225-1.653 1.24ZM8 12H5v-1h3v1Zm9.805-6.443-2.264 2.238.704.71 2.264-2.237-.704-.711ZM17 11h3v1h-3v-1Zm1.523 5.743-2.266-2.257-.706.709 2.267 2.256.705-.708ZM12 19v-3h1v3h-1Zm-3.197-4.448-2.261 2.261.707.707 2.262-2.261-.708-.707Zm1.869 24.431c-1.804 0-2.732.555-3.593 1.072l-.005.002c-.805.483-1.544.926-3.074.926v1c1.803 0 2.732-.555 3.593-1.07l.005-.003c.805-.483 1.544-.927 3.074-.927 1.53 0 2.269.444 3.074.927l.004.002c.861.516 1.79 1.071 3.593 1.071s2.73-.555 3.591-1.07l.005-.004c.804-.482 1.543-.926 3.072-.926 1.526 0 2.264.444 3.068.926l.005.003c.86.516 1.787 1.071 3.588 1.071 1.802 0 2.73-.555 3.59-1.07l.004-.004c.805-.482 1.543-.926 3.07-.926 1.528 0 2.266.444 3.07.926l.005.003c.86.516 1.788 1.071 3.589 1.071v-1c-1.527 0-2.266-.443-3.07-.926l-.004-.002c-.86-.517-1.788-1.072-3.59-1.072-1.801 0-2.729.556-3.589 1.072l-.005.002c-.804.483-1.542.926-3.07.926-1.527 0-2.265-.443-3.069-.925l-.004-.003c-.86-.517-1.787-1.072-3.588-1.072-1.803 0-2.73.556-3.591 1.072l-.005.002c-.805.483-1.543.926-3.072.926-1.53 0-2.269-.443-3.074-.926l-.004-.002c-.861-.517-1.79-1.072-3.593-1.072Zm-3.593-3.929c.86-.516 1.79-1.071 3.593-1.071s2.732.555 3.593 1.071l.004.003c.805.483 1.545.926 3.074.926s2.267-.443 3.072-.926l.005-.003c.86-.516 1.788-1.071 3.59-1.071 1.802 0 2.729.555 3.589 1.071l.004.003c.804.483 1.542.926 3.069.926 1.528 0 2.266-.443 3.07-.926l.005-.003c.86-.516 1.788-1.071 3.59-1.071 1.801 0 2.729.555 3.589 1.071l.004.003c.804.483 1.543.926 3.07.926v1c-1.801 0-2.73-.555-3.589-1.071l-.005-.003c-.804-.483-1.542-.926-3.07-.926-1.527 0-2.265.443-3.07.926l-.004.003c-.86.516-1.788 1.07-3.59 1.07-1.801 0-2.729-.554-3.588-1.07l-.005-.003c-.804-.483-1.542-.926-3.069-.926-1.528 0-2.267.443-3.071.926l-.005.003c-.86.516-1.788 1.07-3.59 1.07-1.804 0-2.733-.554-3.594-1.07l-.004-.003c-.805-.483-1.545-.926-3.074-.926-1.53 0-2.27.443-3.074.926l-.005.003c-.861.516-1.79 1.07-3.593 1.07v-1c1.53 0 2.269-.442 3.074-.925l.005-.003Zm3.593-6.072c-1.804 0-2.732.555-3.593 1.072l-.005.002c-.805.483-1.544.926-3.074.926v1c1.803 0 2.732-.555 3.593-1.07l.005-.003c.805-.483 1.544-.927 3.074-.927 1.53 0 2.269.444 3.074.927l.004.002c.861.516 1.79 1.071 3.593 1.071s2.73-.555 3.591-1.07l.005-.003c.804-.483 1.543-.927 3.072-.927 1.526 0 2.264.444 3.068.926l.005.003c.86.516 1.787 1.071 3.588 1.071 1.802 0 2.73-.555 3.59-1.07l.004-.004c.805-.482 1.543-.926 3.07-.926 1.528 0 2.266.444 3.07.926l.005.003c.86.516 1.788 1.071 3.589 1.071v-1c-1.527 0-2.266-.443-3.07-.925l-.004-.003c-.86-.516-1.788-1.072-3.59-1.072-1.801 0-2.729.556-3.589 1.072l-.005.002c-.804.483-1.542.926-3.07.926-1.527 0-2.265-.443-3.069-.925l-.004-.003c-.86-.516-1.787-1.072-3.588-1.072-1.803 0-2.73.556-3.591 1.072l-.005.002c-.805.483-1.543.926-3.072.926-1.53 0-2.269-.443-3.074-.926l-.004-.002c-.861-.517-1.79-1.072-3.593-1.072Z" fill="#000"/></svg>