<svg xmlns="http://www.w3.org/2000/svg" width="36" height="36" fill="none" viewBox="0 0 36 36"><path fill="#000" fill-rule="evenodd" d="M9.263 6.25h9.694l.146.147 7.5 7.5.147.146v15.708H9.25v-.5l.013-22.5zm1 1-.013 21.5h15.5v-14h-7.5v-7.5zm8.987.708 5.793 5.793H19.25zm-6.248 16.65v-1.273h.841q.412 0 .594.123.25.166.25.504.001.335-.217.507-.176.138-.573.14zm.85-2.104H12V27h1.002v-1.622h1.03q.395 0 .665-.075t.481-.247q.496-.404.497-1.107 0-.795-.6-1.188a1.4 1.4 0 0 0-.486-.203 4 4 0 0 0-.737-.055m3.374.83v1.274h.895q.397-.001.573-.14.218-.17.218-.506 0-.339-.25-.504-.183-.124-.595-.123zm-1.002-.83h1.852q.467.001.737.055.267.06.486.203.6.393.6 1.188-.001.704-.497 1.107a1.3 1.3 0 0 1-.481.247 2.5 2.5 0 0 1-.665.075h-1.03v1.622h-1.002zm7.776.831v-.83h-3.785v.83h1.388v3.666h1.002v-3.666z" clip-rule="evenodd"/></svg>