<svg xmlns="http://www.w3.org/2000/svg" width="36" height="36" version="1.1" viewBox="0 0 36 36">
  <path fill="none" fill-rule="evenodd" stroke="#000" stroke-width="1" d="M23.25,15.7503 C27.3855,15.7503 30.75,19.1148 30.75,23.2503 C30.75,27.3843 27.3855,30.7503 23.25,30.7503 C19.1145,30.7503 15.75,27.3843 15.75,23.2503 C15.75,19.1148 19.1145,15.7503 23.25,15.7503 M2.99925,5.24955 L13.49925,5.24955 M16.49925,5.24955 L22.49925,5.24955 M16.49925,9.7503 L22.49925,9.7503 M25.5,9.7503 L33,9.7503 M25.5,5.24955 L33,5.24955 M2.99925,9.7503 L13.49925,9.7503 M2.99925,14.2503 L13.49925,14.2503 M2.99925,18.7503 L10.49925,18.7503 M2.99925,23.24955 L10.49925,23.24955 M2.99925,27.74955 L10.49925,27.74955 M23.25,18.0003 L23.25,23.2503 L28.5,23.2503"/>
</svg>
