<?xml version="1.0" encoding="utf-8"?>
<!-- Generator: Adobe Illustrator 24.2.0, SVG Export Plug-In . SVG Version: 6.00 Build 0)  -->
<svg version="1.0" id="Ebene_1" xmlns="http://www.w3.org/2000/svg" xmlns:xlink="http://www.w3.org/1999/xlink" x="0px" y="0px"
	 viewBox="0 0 24 24" enable-background="new 0 0 24 24" xml:space="preserve">
<g id="SVG_x5F_24x24pt">
	<path id="backgroundBlue" fill="#2D327D" d="M0,22.5v-21C0,0.675,0.675,0,1.5,0h21C23.325,0,24,0.675,24,1.5v21
		c0,0.825-0.675,1.5-1.5,1.5h-21C0.675,24,0,23.325,0,22.5z"/>
	<g id="content">
		<path fill="#FFFFFF" d="M3.064,16.432l2.128-2.098c0.125-0.123,0.326-0.122,0.45,0.003l0.23,0.234l-1.547,1.528l0.233,0.236
			l1.987-1.962c0.125-0.123,0.326-0.122,0.449,0.003l0.231,0.233l-2.212,2.185l0.232,0.236l2.643-2.609
			c0.125-0.123,0.326-0.122,0.45,0.003l0.23,0.233l-2.869,2.833l0.233,0.236l3.311-3.27c0.188-0.186,0.492-0.184,0.678,0.004
			c0.186,0.188,0.184,0.492-0.004,0.678l-3.553,3.511c-0.306,0.302-0.309,0.795-0.007,1.1c0.147,0.149,0.339,0.226,0.532,0.231
			l1.74,0.002l0.191,0.009c0.131,0.009,0.26,0.064,0.359,0.165c0.116,0.118,0.169,0.274,0.159,0.428l-0.001,0.089
			c0.003,0.089-0.029,0.18-0.098,0.248c-0.068,0.067-0.158,0.099-0.246,0.095l-5.928,0"/>
		<path fill="#FFFFFF" d="M21.168,20.057l-4.391-4.391h3.536c0.414,0,0.751-0.344,0.751-0.767v-11.1
			c0-0.423-0.337-0.768-0.751-0.768H4.142L3.827,2.716L2.766,3.776l0.3,0.3v10.822c0,0.339,0.218,0.625,0.518,0.726l0.602-0.593
			H3.817c-0.065,0-0.117-0.059-0.117-0.132v-3.827h4.519l0.375-0.375H3.7V4.71l5.561,5.561l-0.953,0.955
			c-0.187,0.188-0.185,0.493,0.004,0.682l1.545,1.542c0.19,0.189,0.495,0.191,0.682,0.003l0.951-0.953l2.53,2.53h-3.794
			c-0.034,0.095-0.089,0.183-0.163,0.256l-0.384,0.379h4.976l5.452,5.452L21.168,20.057z M12.551,11.44l0.681-0.682
			c0.79-0.791,0.656-2.011,1.11-2.465L14.34,8.292c0.454-0.455,1.346-1.555,1.346-1.555l0.008,0.007
			c0.048,0.041,0.119,0.038,0.163-0.006l0.176-0.176c0.047-0.047,0.047-0.123-0.001-0.17L15.35,5.709
			c-0.047-0.047-0.123-0.047-0.17,0l-0.175,0.175C14.961,5.929,14.958,6.001,15,6.048l0.005,0.006c0,0-1.087,0.908-1.541,1.362
			C13.01,7.871,11.79,7.739,11,8.53l-0.679,0.68L4.777,3.666h15.536c0.065,0,0.117,0.06,0.117,0.133v6.899h-6.891l-0.375,0.375
			h7.266v3.827c0,0.073-0.053,0.132-0.117,0.132h-4.171L12.551,11.44z"/>
		<polygon fill="#EB0000" points="3.827,2.716 2.766,3.776 20.108,21.118 21.168,20.057 3.827,2.716 		"/>
	</g>
</g>
</svg>
