<svg xmlns="http://www.w3.org/2000/svg" width="48" height="48" version="1.1" viewBox="0 0 48 48">
  <g fill="none" fill-rule="evenodd" stroke="none" stroke-width="1">
    <path stroke="#000" d="M12,27.5 L24,27.5 M12,31.5 L24,31.5 M12,37.5 L19,37.5 M27.5,23.5 L36,23.5 M27.5,27.5 L36,27.5 M27.5,33.5 L31,33.5 M11,10.5 L8.5,13 L8.5,41.5 L27.5,41.5 L27.5,37.367 L27.5,10.504 L11,10.5 Z M27.5,37.5 L39.5,37.5 L39.5,6.5 L23,6.5 L20.5,9 L20.5,10.5"/>
    <path fill="#000" d="M21.4159,13.5004 C22.1699,13.5004 22.7849,13.7054 23.2619,14.1154 C23.5199,14.3374 23.7199,14.6214 23.8619,14.9644 C24.0049,15.3084 24.0759,15.6754 24.0759,16.0664 C24.0759,16.8164 23.8219,17.4664 23.3149,18.0174 C22.9789,18.3804 22.3809,18.8264 21.5219,19.3534 C20.8499,19.7674 20.3879,20.1044 20.1359,20.3644 C19.8839,20.6244 19.7109,20.9414 19.6169,21.3164 L24.0059,21.3164 L24.0059,22.2654 L18.4339,22.2654 C18.4729,21.4214 18.6919,20.7184 19.0899,20.1564 C19.2699,19.8984 19.4899,19.6604 19.7519,19.4414 C20.0139,19.2224 20.4199,18.9374 20.9709,18.5864 C21.7759,18.0744 22.2889,17.6834 22.5119,17.4144 C22.8399,17.0274 23.0039,16.5894 23.0039,16.1014 C23.0039,15.7264 22.9119,15.3984 22.7289,15.1174 C22.4279,14.6484 21.9729,14.4144 21.3629,14.4144 C20.8359,14.4144 20.4329,14.5994 20.1529,14.9704 C19.8739,15.3414 19.7209,15.8944 19.6939,16.6294 L18.6679,16.6294 C18.6639,16.5234 18.6619,16.4494 18.6619,16.4064 C18.6619,15.9844 18.7329,15.5844 18.8729,15.2054 C19.0139,14.8264 19.2109,14.5054 19.4649,14.2444 C19.9489,13.7484 20.5999,13.5004 21.4159,13.5004 Z M36.0283,10 L36.0283,18.566 L34.9153,18.566 L34.9153,12.355 L32.7533,12.355 L32.7533,11.582 C33.5613,11.582 34.1713,11.43 34.5813,11.125 C34.8583,10.918 35.0753,10.543 35.2313,10 L36.0283,10 Z"/>
  </g>
</svg>
