<svg xmlns="http://www.w3.org/2000/svg" width="24" height="24" fill="none" viewBox="0 0 24 24"><path fill="#000" d="M20 19h2.001v1H2l.001-1H4.05c.199-.98.97-1.751 1.95-1.95v-5.6A2.5 2.5 0 0 1 4 9h1c0 .653.418 1.206 1 1.412V7.45A2.5 2.5 0 0 1 4 5h1c0 .653.418 1.206 1 1.412V4.5h1v3.912c.582-.206 1-.76 1-1.412h1a2.5 2.5 0 0 1-2 2.45v2.962c.582-.206 1-.76 1-1.412h1a2.5 2.5 0 0 1-2 2.45v3.6c.98.199 1.751.97 1.95 1.95H12V4h8zM6.5 18a1.5 1.5 0 0 0-1.413 1h2.826A1.5 1.5 0 0 0 6.5 18m6.5 1h6V5h-6zm5-6h-1v-1h1z"/></svg>