<svg width="48" height="48" viewBox="0 0 48 48" fill="none" xmlns="http://www.w3.org/2000/svg"><path fill-rule="evenodd" clip-rule="evenodd" d="M6.493 4.114A2.48 2.48 0 0 1 8.57 3h10.11c.665 0 1.292.265 1.764.736L25.707 9H27.5c1.376 0 2.5 1.124 2.5 2.5V14h-1v-1h-.96c-.495 0-.973-.252-1.248-.676L25.242 10H4.004a1.482 1.482 0 0 0-.004.11V11h.5c.826 0 1.5.674 1.5 1.5S5.326 14 4.5 14H4v1h3.05a2.5 2.5 0 0 1 4.9 0H20v1h-8.05a2.5 2.5 0 0 1-4.9 0H3v-5.89c0-.502.151-.978.424-1.387l3.069-4.609ZM29 11.5v.5h-.96a.495.495 0 0 1-.41-.22l-.004-.007L26.444 10H27.5c.824 0 1.5.676 1.5 1.5ZM4 13h.5c.274 0 .5-.226.5-.5s-.226-.5-.5-.5H4v1Zm15.736-8.556L24.293 9H16V4h2.68c.395 0 .768.155 1.056.444ZM8.57 4H15v5H4.44l2.886-4.333.001-.001A1.48 1.48 0 0 1 8.57 4Zm.93 10a1.5 1.5 0 1 0 0 3 1.5 1.5 0 0 0 0-3Zm14.08 1a2.48 2.48 0 0 0-2.077 1.114l-3.069 4.609a2.49 2.49 0 0 0-.424 1.387V26h1.49c.826 0 1.5-.674 1.5-1.5s-.674-1.5-1.5-1.5h-.49v-.89c0-.037.001-.074.004-.11h21.228l1.55 2.324c.274.424.753.676 1.248.676H44v2h-3.05a2.5 2.5 0 0 0-4.9 0h-9.1a2.508 2.508 0 0 0-2.45-2 2.506 2.506 0 0 0-2.5 2.5h1c0-.824.676-1.5 1.5-1.5s1.5.676 1.5 1.5-.676 1.5-1.5 1.5v1a2.508 2.508 0 0 0 2.45-2h9.1a2.5 2.5 0 0 0 4.9 0H45v-4.5c0-1.376-1.124-2.5-2.5-2.5h-1.793l-5.263-5.264A2.483 2.483 0 0 0 33.68 15h-10.1ZM44 24v-.5c0-.824-.676-1.5-1.5-1.5h-1.056l1.182 1.773.005.007c.085.133.245.22.409.22H44Zm-24.5 1h-.49v-1h.49c.274 0 .5.226.5.5s-.226.5-.5.5Zm19.793-4-4.556-4.556A1.483 1.483 0 0 0 33.68 16H31v5h8.293ZM30 16h-6.42a1.48 1.48 0 0 0-1.243.666v.001L19.45 21H30v-5ZM8.57 27a2.48 2.48 0 0 0-2.077 1.114l-3.069 4.609A2.489 2.489 0 0 0 3 34.11V40h4.05a2.5 2.5 0 0 0 4.9 0h9.1a2.5 2.5 0 0 0 4.9 0H30v-4.5c0-1.376-1.124-2.5-2.5-2.5h-1.793l-5.263-5.264A2.483 2.483 0 0 0 18.68 27H8.57Zm15.723 6-4.557-4.556A1.483 1.483 0 0 0 18.68 28H16v5h8.293ZM15 28H8.57a1.48 1.48 0 0 0-1.243.666v.001L4.44 33H15v-5ZM4.004 34a1.482 1.482 0 0 0-.004.11V35h.5c.826 0 1.5.674 1.5 1.5S5.326 38 4.5 38H4v1h3.05a2.5 2.5 0 0 1 4.9 0h9.1a2.5 2.5 0 0 1 4.9 0H29v-2h-.96c-.495 0-.973-.252-1.248-.676L25.242 34H4.004Zm22.44 0 1.182 1.773.005.007c.085.133.245.22.409.22H29v-.5c0-.824-.676-1.5-1.5-1.5h-1.056ZM4 37v-1h.5c.274 0 .5.226.5.5s-.226.5-.5.5H4Zm4 2.5a1.5 1.5 0 1 1 3 0 1.5 1.5 0 0 1-3 0Zm14 0a1.5 1.5 0 1 1 3 0 1.5 1.5 0 0 1-3 0Zm15-12a1.5 1.5 0 1 1 3 0 1.5 1.5 0 0 1-3 0ZM26 32h19v-1H26v1Zm-9-12H3v-1h14v1ZM3 44h42v-1H3v1Z" fill="#000"/></svg>