<svg width="24" height="24" viewBox="0 0 24 24" fill="none" xmlns="http://www.w3.org/2000/svg"><path fill-rule="evenodd" clip-rule="evenodd" d="M8 2h2v2H18.877l.104.363c.13.457.284 1.05.431 1.639A2.502 2.502 0 0 1 22 8.5c.001 1.379-1.12 2.5-2.499 2.5-1.38 0-2.5-1.121-2.5-2.5 0-1 .59-1.865 1.44-2.264a78.935 78.935 0 0 0-.227-.889 66.178 66.178 0 0 0-2.456 2.043 111.7 111.7 0 0 0-1.544 1.365l-.094.086-.025.022-.006.005-.001.001-.337-.369.336.37-.143.13H6.95a2.503 2.503 0 0 1-2.45 2C3.12 11 2 9.879 2 8.5a2.502 2.502 0 0 1 3.443-2.316L6 5.35V4H5V3h2v2.651l-.084.126-.642.963c.337.34.577.774.676 1.26H9V3H8V2ZM5.914 9c-.206.582-.762 1-1.414 1C3.673 10 3 9.327 3 8.5a1.502 1.502 0 0 1 1.869-1.454l-.785 1.177L3.566 9h2.348ZM5.7 7.601 5.434 8h.48a1.499 1.499 0 0 0-.214-.399ZM21 8.5c0-.773-.588-1.411-1.34-1.492a160.894 160.894 0 0 1 .3 1.263l.02.086.005.022.002.006v.002L19.5 8.5l-.487.113V8.61l-.002-.006-.005-.022-.02-.085a128.576 128.576 0 0 0-.299-1.258A1.5 1.5 0 1 0 21 8.5ZM10 8h3.557a109.309 109.309 0 0 1 1.545-1.365c.593-.515 1.28-1.1 1.942-1.635H10v3Zm7 6h2.902l-.478.765-1.09 1.744.364.623A2.502 2.502 0 0 1 22 19.5c0 1.379-1.121 2.5-2.5 2.5-1.38 0-2.5-1.121-2.5-2.5 0-.74.322-1.405.834-1.863L17.463 17H14.86l-.111.335A2.5 2.5 0 0 1 13.5 22a2.503 2.503 0 0 1-2.45-2H9v1H5.732a2 2 0 0 1-3.728-1.12H2V15h3.185l.14.12 3.5 3 .175.15V19h2.05a2.503 2.503 0 0 1 2.75-1.982l.226-.676.114-.342H13v-1h2v1h2.473l.625-1H17v-1ZM3 18.268V16h1.815L8 18.73V20H6a2 2 0 0 0-3-1.732Zm16.22-.242.712 1.222-.864.504-.712-1.221A1.502 1.502 0 0 0 19.5 21c.827 0 1.5-.673 1.5-1.5a1.502 1.502 0 0 0-1.78-1.474ZM15 19.5c0-.48-.227-.908-.579-1.183l-.447 1.341-.114.342h-1.774c.206.582.762 1 1.414 1 .827 0 1.5-.673 1.5-1.5ZM13.473 18a1.503 1.503 0 0 0-1.387 1h1.054l.333-1ZM3 20a1 1 0 1 1 2 0 1 1 0 0 1-2 0Z" fill="#000"/></svg>