<svg xmlns="http://www.w3.org/2000/svg" width="24" height="24" fill="none" viewBox="0 0 24 24"><path fill="#000" fill-rule="evenodd" d="M8 2h2v2h8.877l.104.363c.13.457.284 1.05.431 1.639L19.5 6C20.879 6 22 7.121 22 8.5S20.879 11 19.5 11 17 9.879 17 8.5c0-1 .59-1.865 1.44-2.264a79 79 0 0 0-.227-.889 66 66 0 0 0-2.456 2.043 112 112 0 0 0-1.544 1.365l-.094.086-.025.022-.006.005-.001.001-.337-.369.336.37-.143.13H6.95a2.5 2.5 0 0 1-2.45 2C3.12 11 2 9.879 2 8.5a2.502 2.502 0 0 1 3.443-2.316L6 5.35V4H5V3h2v2.651l-.084.126-.642.963c.337.34.577.774.676 1.26H9V3H8zM5.914 9c-.206.582-.762 1-1.414 1C3.673 10 3 9.327 3 8.5a1.502 1.502 0 0 1 1.869-1.454l-.785 1.177L3.566 9h2.348M5.7 7.601 5.434 8h.48a1.5 1.5 0 0 0-.214-.399M21 8.5c0-.773-.588-1.411-1.34-1.492a161 161 0 0 1 .3 1.263l.02.086.005.022.002.006v.002L19.5 8.5l-.487.113V8.61l-.002-.006-.005-.022-.02-.085a129 129 0 0 0-.299-1.258A1.5 1.5 0 1 0 21 8.5M10 8h3.557a109 109 0 0 1 1.545-1.365c.593-.515 1.28-1.1 1.942-1.635H10zm7 6h2.902l-.478.765-1.09 1.744.364.623q.379-.13.802-.132c1.379 0 2.5 1.121 2.5 2.5S20.879 22 19.5 22 17 20.879 17 19.5c0-.74.322-1.405.834-1.863L17.463 17H14.86l-.111.335A2.5 2.5 0 0 1 13.5 22a2.5 2.5 0 0 1-2.45-2H9v1H5.732a2 2 0 0 1-3.728-1.12H2V15h3.185l.14.12 3.5 3 .175.15V19h2.05a2.503 2.503 0 0 1 2.75-1.982l.226-.676.114-.342H13v-1h2v1h2.473l.625-1H17zM3 18.268V16h1.815L8 18.73V20H6a2 2 0 0 0-3-1.732m16.22-.242.712 1.222-.864.504-.712-1.221A1.502 1.502 0 0 0 19.5 21c.827 0 1.5-.673 1.5-1.5a1.502 1.502 0 0 0-1.78-1.474M15 19.5c0-.48-.227-.908-.579-1.183l-.447 1.341-.114.342h-1.774c.206.582.762 1 1.414 1 .827 0 1.5-.673 1.5-1.5M13.473 18a1.5 1.5 0 0 0-1.387 1h1.054zM3 20a1 1 0 1 1 2 0 1 1 0 0 1-2 0" clip-rule="evenodd"/></svg>