<svg xmlns="http://www.w3.org/2000/svg" width="36" height="36" fill="none" viewBox="0 0 36 36"><path fill="#000" fill-rule="evenodd" d="M19.25 11.25c0-3.072 2.43-5.5 5.5-5.5 3.072 0 5.5 2.428 5.5 5.5s-2.428 5.5-5.5 5.5c-3.07 0-5.5-2.429-5.5-5.5m5.5-6.5a6.46 6.46 0 0 0-6.5 6.5c0 3.624 2.877 6.5 6.5 6.5s6.5-2.876 6.5-6.5-2.876-6.5-6.5-6.5m.391 7.56 2.852-3.6-.784-.621-2.522 3.184-2.453-2.196-.667.745 2.849 2.55.396.354zM18.25 22.765h13v8.485h-13v-8.485m1 1v6.485h11v-6.485zm3.252-1.5h4.5v-1h-4.5zM8.249 8.75a1 1 0 1 0 0 2 1 1 0 0 0 0-2m-2 1a2 2 0 1 1 4 0 2 2 0 0 1-4 0m-1 4h-.5v8.5h1.5v9h4v-9h1.5v-8.5h-6.5m.5 7.5v-6.5h5v6.5h-1.5v9h-2v-9h-1.5" clip-rule="evenodd"/></svg>