<svg xmlns="http://www.w3.org/2000/svg" width="48" height="48" viewBox="0 0 48 48">
  <path fill="none" stroke="#000" d="M40.5,11.5 C40.5,13.709 38.709,15.5 36.5,15.5 C34.291,15.5 32.5,13.709 32.5,11.5 C32.5,9.291 34.291,7.5 36.5,7.5 C38.709,7.5 40.5,9.291 40.5,11.5 Z M26.7607,20.002 C23.1707,13.784 15.2197,11.654 9.0017,15.244 C2.7837,18.834 0.6537,26.784 4.2437,33.002 L26.7607,20.002 Z M9.002,15.2437 L8.252,13.9447 M8.5747,30.502 C4.9847,24.284 5.1767,17.453 9.0027,15.244 C12.8287,13.034 18.8417,16.284 22.4307,22.502 M15.502,26.502 L26.5,44.5 M36.5,5 L36.5,2 M31.9033,6.9038 L29.7823,4.7828 M30,11.5 L27,11.5 M31.9033,16.0962 L29.7823,18.2172 M36.5,18 L36.5,21 M41.0967,16.0962 L43.2177,18.2172 M43,11.5 L46,11.5 M41.0967,6.9038 L43.2177,4.7828 M5,44.5 L42,44.5"/>
</svg>
