<svg xmlns="http://www.w3.org/2000/svg" width="24" height="24" fill="none" viewBox="0 0 24 24"><path fill="#000" fill-rule="evenodd" d="m8.174 2.864-.176-.622-.558.327q-.053.03-.182.098c-.399.212-1.279.68-1.91 1.216-.457.389-.79.712-1.044 1.067-.26.362-.42.732-.569 1.193-.175.543-.23 1.155-.244 1.669-.01.35-.002.701.004.945l.004.158C3.161 9.872 3 10.952 3 12a9 9 0 1 0 9-9v1a8 8 0 1 1-8 8c0-.88.126-1.77.377-2.559.285-.051.677-.127 1.072-.23.279-.073.57-.162.834-.269.257-.104.523-.24.726-.42l.07-.06A3.7 3.7 0 0 0 8.427 6.19c.109-.59.083-1.28.016-1.874a10 10 0 0 0-.268-1.452M5.995 4.645c.417-.354.94-.662 1.355-.89.036.203.071.432.098.672.063.556.077 1.133-.005 1.582-.183.995-.732 1.456-1.014 1.693q-.048.04-.084.072c-.078.07-.222.154-.438.242-.21.085-.455.16-.71.227-.246.064-.491.117-.71.16q-.005-.251.003-.562c.014-.481.065-.983.197-1.392.13-.404.252-.669.43-.917.182-.254.44-.515.878-.887M11.5 15.96V18h1V15.96A3 3 0 0 0 15 13v-2h-1V9h-1v2h-2V9h-1v2H9v2a3 3 0 0 0 2.5 2.959M10 13v-1h4v1a2 2 0 0 1-4 0" clip-rule="evenodd"/></svg>