<svg xmlns="http://www.w3.org/2000/svg" width="24" height="24" fill="none" viewBox="0 0 24 24"><path fill="#000" fill-rule="evenodd" d="M17.49 10.608a2.05 2.05 0 0 0-1.178-.752c.125-.804-.004-1.532-.322-2.14a3.28 3.28 0 0 0-1.794-1.548c-1.363-.495-3.042-.116-3.988 1.422-1.516-.719-3.43.326-3.522 2.176-.481.129-.87.432-1.144.815-.36.504-.535 1.154-.507 1.791.028.64.262 1.303.764 1.809.407.41.963.69 1.66.784l-.406.811L7.5 16l-.447-.224v.002l-.002.003-.005.01-.018.035a8 8 0 0 0-.242.55 6 6 0 0 0-.189.541 2.2 2.2 0 0 0-.097.583 1 1 0 0 0 2 0c0-.195-.046-.404-.097-.583a6 6 0 0 0-.189-.54 9 9 0 0 0-.242-.55l-.018-.036-.005-.01-.001-.003v-.001L7.5 16l.447-.224-.4-.8Q7.764 15 8 15h3.44l-.387.776.447.224-.447-.224v.002l-.002.003-.005.01-.018.035a9 9 0 0 0-.242.55 6 6 0 0 0-.189.541 2.2 2.2 0 0 0-.097.583 1 1 0 0 0 2 0c0-.195-.046-.404-.097-.583a6 6 0 0 0-.189-.54 9 9 0 0 0-.242-.55l-.018-.036-.005-.01-.001-.003v-.001L11.5 16l.447-.224L11.56 15H15q.235 0 .454-.026l-.401.802.447.224-.447-.224v.002l-.002.003-.005.01-.018.035a9 9 0 0 0-.242.55 6 6 0 0 0-.189.541 2.2 2.2 0 0 0-.097.583 1 1 0 0 0 2 0c0-.195-.046-.404-.097-.583a6 6 0 0 0-.189-.54 9 9 0 0 0-.242-.55l-.018-.036-.005-.01-.001-.003v-.001L15.5 16l.447-.224-.407-.814c.67-.097 1.214-.376 1.622-.774a2.8 2.8 0 0 0 .825-1.784c.052-.636-.106-1.293-.496-1.796m-6.632-2.106c.635-1.44 1.948-1.774 2.997-1.394.53.192.983.566 1.249 1.073.262.5.358 1.165.117 1.977l-.2.67.7-.028c.464-.019.778.16.98.42.213.276.325.675.29 1.102a1.82 1.82 0 0 1-.528 1.15c-.31.303-.781.528-1.463.528H8c-.73 0-1.2-.23-1.492-.524-.298-.3-.455-.713-.474-1.148-.019-.437.104-.862.321-1.165.21-.294.497-.463.845-.463h.563l-.066-.56c-.18-1.5 1.419-2.245 2.386-1.453l.51.417zm2.195 9.274L13.5 18l.447-.224v.002l.002.003.005.01.018.035a9 9 0 0 1 .242.55c.066.166.135.355.189.541.05.179.097.388.097.583a1 1 0 0 1-2 0 2.2 2.2 0 0 1 .097-.583c.054-.186.123-.375.189-.54a9 9 0 0 1 .242-.55l.018-.036.005-.01.001-.003zM13.5 18l-.447-.224.447-.894.447.894zm-4.447-.224L9.5 18zv.002l-.002.003-.005.01-.018.035a8 8 0 0 0-.242.55 6 6 0 0 0-.189.541 2.2 2.2 0 0 0-.097.583 1 1 0 0 0 2 0c0-.195-.046-.404-.097-.583a6 6 0 0 0-.189-.54 9 9 0 0 0-.242-.55l-.018-.036-.005-.01-.001-.003v-.001L9.5 18l.447-.224-.447-.894z" clip-rule="evenodd"/></svg>