<svg width="36" height="36" viewBox="0 0 36 36" fill="none" xmlns="http://www.w3.org/2000/svg"><path fill-rule="evenodd" clip-rule="evenodd" d="M12 12.25h2.75v3H28.127l.104.363c.21.734.46 1.705.696 2.652a3.503 3.503 0 0 1 3.823 3.485c0 1.93-1.57 3.5-3.5 3.5-1.931 0-3.5-1.57-3.5-3.5 0-1.473.913-2.736 2.204-3.252-.163-.656-.333-1.32-.49-1.906-1.268.975-2.755 2.231-3.992 3.305a169.677 169.677 0 0 0-2.32 2.05l-.142.129-.036.033-.01.008-.002.002-.337-.369.336.37-.143.13H10.215a3.505 3.505 0 0 1-3.465 3c-1.931 0-3.5-1.57-3.5-3.5a3.503 3.503 0 0 1 5.005-3.16L9.25 17.1V14.75H7.5v-1h2.75v3.651l-.084.126-1.08 1.62a3.496 3.496 0 0 1 1.128 2.103h3.536v-8H12v-1Zm-2.8 9a2.498 2.498 0 0 0-.676-1.26l-.84 1.26H9.2Zm-1.507-1.815A2.503 2.503 0 0 0 4.25 21.75c0 1.378 1.121 2.5 2.5 2.5 1.207 0 2.217-.86 2.45-2H5.816l.518-.777 1.359-2.038Zm20.54.202-.037-.154a2.503 2.503 0 0 0-1.446 2.267c0 1.378 1.121 2.5 2.5 2.5 1.378 0 2.5-1.122 2.5-2.5a2.503 2.503 0 0 0-2.58-2.499l.036.15a260.038 260.038 0 0 1 .49 2.062l.03.129.008.034.002.008.001.003-.487.113-.487.113v-.003l-.003-.008-.007-.034-.03-.128a252.773 252.773 0 0 0-.49-2.053ZM14.75 21.25h5.682l.05-.045.532-.477c.452-.404 1.084-.963 1.802-1.587 1.058-.917 2.311-1.98 3.461-2.891H14.75v5Z" fill="#000"/></svg>