<svg xmlns="http://www.w3.org/2000/svg" width="16" height="16" fill="none" viewBox="0 0 16 16"><g clip-path="url(#a)"><path fill="#000" d="m15.354 1.354-14 14-.708-.707 14-14zM13.5 12a1.501 1.501 0 0 1 0 3 1.501 1.501 0 0 1 0-3m0 1a.501.501 0 0 0 0 1 .501.501 0 0 0 0-1m.504-2h-.5c-.867 0-1.48.318-1.88.768-.409.458-.624 1.085-.624 1.731v.5H5v-1h5.036c.09-.69.364-1.36.841-1.897.51-.571 1.227-.966 2.127-1.073V7H12V6h2.004zM7 2H4.809l.5 1H10v1H5.618l-.352 1.28c.67.313 1.207.865 1.497 1.547l.023.059-.928.37-.016-.038a2 2 0 0 0-.847-.953l-.513 1.868L4 8l-.481-.133.511-1.866L4 6a2 2 0 0 0-.714 3.87l-.178.466-.178.467A3.001 3.001 0 0 1 4 5q.153.001.3.017l.32-1.16-1.067-2.133L3.19 1H7zm4.5 0H9V1h2.5z"/></g><defs><clipPath id="a"><path fill="#fff" d="M0 0h16v16H0z"/></clipPath></defs></svg>