<svg xmlns="http://www.w3.org/2000/svg" width="48" height="48" fill="none" viewBox="0 0 48 48"><path fill="#000" fill-rule="evenodd" d="M39.067 13.15a18.4 18.4 0 0 0-6.26-5.872A4.1 4.1 0 0 1 35.82 5.96c2.317 0 4.22 1.95 4.22 4.39 0 1.068-.364 2.05-.973 2.8M35.82 4.96c-1.72 0-3.249.855-4.188 2.181l-.331.468.508.264q.878.458 1.695 1.016l-.977.978A15.43 15.43 0 0 0 23.53 6.99a15.43 15.43 0 0 0-9.037 2.906l-.957-.957q.817-.558 1.695-1.016l.508-.264-.331-.468A5.12 5.12 0 0 0 11.22 5.01C8.317 5.01 6 7.441 6 10.4c0 1.568.647 3.002 1.712 3.979l.448.41.317-.518q.625-1.022 1.374-1.943l1.101 1.102a15.43 15.43 0 0 0-2.922 9.06c0 4.77 2.154 9.036 5.543 11.88l-2.344 5.566c-.434 1.033-.056 2.224.897 2.785l.005.003c.979.56 2.216.28 2.891-.637l3.605-4.888c1.541.513 3.19.791 4.903.791 1.716 0 3.368-.279 4.91-.794l3.607 4.89c.676.918 1.913 1.199 2.892.638l.005-.003c.952-.561 1.33-1.752.897-2.784v-.001l-2.347-5.573A15.47 15.47 0 0 0 39.03 22.49c0-3.4-1.095-6.545-2.952-9.101l1.11-1.11a18 18 0 0 1 1.375 1.942l.317.518.448-.41c1.065-.977 1.712-2.411 1.712-3.979 0-2.959-2.317-5.39-5.22-5.39m.714 6.56a17.4 17.4 0 0 0-2.21-2.037l-.996.996c.777.635 1.491 1.343 2.132 2.114zm-22.84-1.01a15.6 15.6 0 0 0-2.125 2.122l-1.063-1.063a17.4 17.4 0 0 1 2.21-2.036zm-2.474-4.5C8.903 6.01 7 7.959 7 10.4c0 1.068.364 2.049.973 2.8a18.4 18.4 0 0 1 6.26-5.872A4.1 4.1 0 0 0 11.22 6.01M9.03 22.49c0-8.008 6.492-14.5 14.5-14.5s14.5 6.492 14.5 14.5-6.492 14.5-14.5 14.5-14.5-6.492-14.5-14.5m8.622 14.347a15.5 15.5 0 0 1-3.263-1.828l-2.238 5.315c-.246.586-.025 1.234.48 1.534.521.297 1.202.158 1.586-.364zm15.2 4.656-3.436-4.66a15.5 15.5 0 0 0 3.263-1.83l2.24 5.32c.246.587.025 1.235-.48 1.535-.522.297-1.202.158-1.586-.364M23 14v9h6v-1h-5v-8zm0-2V9h1v3zm-6.683-.94 1.5 2.6.866-.5-1.5-2.6zm-2.157 6.623-2.6-1.5.5-.866 2.6 1.5zM10 23h3v-1h-3zm4.66 5.183-2.6 1.5-.5-.866 2.6-1.5zm2.523 6.257 1.5-2.6-.866-.5-1.5 2.6zM24 33v3h-1v-3zm6.683.94-1.5-2.6-.866.5 1.5 2.6zm2.157-6.623 2.6 1.5-.5.866-2.6-1.5zM37 22h-3v1h3zm-4.66-5.183 2.6-1.5.5.866-2.6 1.5zm-2.523-6.257-1.5 2.6.866.5 1.5-2.6z" clip-rule="evenodd"/></svg>