<svg class="color-immutable" xmlns="http://www.w3.org/2000/svg" width="59" height="20" fill="none" viewBox="0 0 59 20"><path fill="#EB0000" fill-rule="evenodd" d="M2 0a2 2 0 0 0-2 2v16a2 2 0 0 0 2 2h55a2 2 0 0 0 2-2V2a2 2 0 0 0-2-2z" clip-rule="evenodd"/><path fill="#fff" d="M42.26 4.235V15.8h-2.302V8.23h-2.712V6.553a5.8 5.8 0 0 0 1.375-.174c.353-.1.684-.266.974-.49q.639-.492.86-1.654zM49.947 4.235V15.8h-2.302V8.23h-2.712V6.553a5.8 5.8 0 0 0 1.376-.174c.353-.1.683-.266.973-.49q.64-.492.86-1.654zM9.22 4.2h4.057L8.259 15.8H4.186zM15.948 4.2h14.395l-1.49 3.445h-10.28l-2.042 4.71h10.285l-1.49 3.445H10.93z"/></svg>