<?xml version="1.0" encoding="utf-8"?>
<!-- Generator: Adobe Illustrator 26.0.3, SVG Export Plug-In . SVG Version: 6.00 Build 0)  -->
<svg version="1.0" xmlns="http://www.w3.org/2000/svg" xmlns:xlink="http://www.w3.org/1999/xlink" x="0px" y="0px"
	 viewBox="0 0 24 24" enable-background="new 0 0 24 24" xml:space="preserve">
<g id="SVG_x5F_24x24pt">
	<path id="backgroundBlue" fill="#2D327D" d="M0,22.5v-21C0,0.675,0.675,0,1.5,0h21C23.325,0,24,0.675,24,1.5v21
		c0,0.825-0.675,1.5-1.5,1.5h-21C0.675,24,0,23.325,0,22.5z"/>
	<g id="content">
		<path fill="#FFFFFF" d="M14.475,15.094h-4.163c-1.241,0-2.25-1.009-2.25-2.25s1.009-2.25,2.25-2.25h1.126
			c0.62,0,1.125-0.505,1.125-1.125s-0.505-1.125-1.125-1.125H3V7.219h8.439c1.241,0,2.25,1.009,2.25,2.25s-1.009,2.25-2.25,2.25
			h-1.126c-0.62,0-1.125,0.505-1.125,1.125s0.505,1.125,1.125,1.125h4.163V15.094z"/>
		<path fill="#FFFFFF" d="M17.625,16.781H16.5c-0.932,0-1.688-0.756-1.688-1.688v-1.125c0-0.932,0.756-1.688,1.688-1.688h1.125
			c0.311,0,0.562,0.252,0.562,0.562v3.375C18.188,16.529,17.936,16.781,17.625,16.781z"/>
		<path fill="#FFFFFF" d="M20.437,13.125h-1.912v0.562h1.912c0.155,0,0.281-0.126,0.281-0.281S20.593,13.125,20.437,13.125z"/>
		<path fill="#FFFFFF" d="M20.438,15.375h-1.913v0.562h1.913c0.155,0,0.281-0.126,0.281-0.281S20.593,15.375,20.438,15.375z"/>
	</g>
</g>
</svg>
