<svg width="24" height="24" viewBox="0 0 24 24" fill="none" xmlns="http://www.w3.org/2000/svg"><path fill-rule="evenodd" clip-rule="evenodd" d="M14.207 5V2h1v3h-1Zm-3.5-2.207.354.353 9 9 .352.353-.352.354-.354-.353.354.353-.003.003-.008.008-.037.038-.165.164-.788.788-.17.17-.24-.027c-2.871-.335-4.301-.299-5.176-.048-.735.212-1.089.57-1.673 1.162l-.24.243-.354.353-.353-.353-.006-.006-.006-.006-.005-.005-.006-.006-.005-.005-.006-.006-.005-.005-.006-.006-.006-.006-.005-.005-.006-.006-.006-.006-.005-.005-.006-.006-.005-.005-.006-.006-.006-.006-.005-.005-.006-.006-.005-.005-.006-.006-.006-.006-.005-.005-.006-.006-.006-.006-.005-.005-.006-.006-.006-.006-.005-.005-.006-.006-.006-.006-.005-.005-.006-.006-.006-.006-.005-.005-.006-.006-.006-.006-.005-.005-.006-.006-.006-.006-.006-.006-.005-.005-.006-.006-.006-.006-.005-.005-.006-.006-.006-.006-.005-.005-.006-.006-.006-.006-.006-.006-.005-.005-.006-.006-.006-.006-.006-.006-.005-.005-.006-.006-.006-.006-.006-.006-.005-.005-.006-.006-.006-.006-.006-.006-.005-.005-.006-.006-.006-.006-.006-.006-.005-.005-.006-.006-.006-.006-.006-.006-.005-.005-.006-.006-.006-.006-.006-.006-.006-.006-.005-.005-.006-.006-.006-.006-.006-.006-.006-.006-.005-.005-.006-.006-.006-.006-.006-.006-.006-.006-.005-.005-.006-.006-.006-.006-.006-.006-.006-.006-.005-.005-.006-.006-.006-.006-.006-.006-.006-.006-.006-.006-.005-.005-.006-.006-.006-.006-.006-.006-.006-.006-.006-.006-.006-.006-.005-.005-.006-.006-.006-.006-.006-.006-.006-.006-.006-.006-.006-.006-.006-.006-.005-.005-.006-.006-.006-.006-.006-.006-.006-.006-.006-.006-.006-.006-.005-.005-.006-.006-.006-.006-.006-.006-.006-.006-.006-.006-.006-.006-.006-.006-.005-.005-.006-.006-.006-.006-.006-.006-.006-.006-.006-.006-.006-.006-.006-.006-.006-.006-.006-.006-.005-.005-.006-.006-.006-.006-.006-.006-.006-.006-.006-.006-.006-.006-.006-.006-.006-.006-.006-.006L10 14.5l-.006-.006-.006-.006-.005-.005-.006-.006-.006-.006-.006-.006-.006-.006-.006-.006-.006-.006-.006-.006-.006-.006-.006-.006-.006-.006-.006-.006-.006-.006-.006-.006-.006-.006-.006-.006-.006-.005-.005-.007-.006-.005-.006-.006-.006-.006-.006-.006-.006-.006-.006-.006-.006-.006-.006-.006-.006-.006-.006-.006-.006-.006-.006-.006-.006-.006-.006-.006-.006-.006-.006-.006-.006-.006-.006-.006-.006-.006-.006-.006-.006-.006-.006-.006-.006-.006-.006-.006-.006-.005-.006-.006-.005-.007-.006-.005-.006-.006-.006-.006-.006-.006-.006-.006-.006-.006-.006-.006-.006-.006-.006-.006-.006-.006-.006-.006-.006-.006-.006-.006-.006-.006-.006-.006-.006-.006-.006-.006-.006-.006-.006-.006L9.6 14.1l-.006-.006-.006-.006-.006-.006-.006-.006-.006-.006-.006-.006-.006-.006-.006-.006-.006-.006-.006-.006-.006-.006-.006-.006-.006-.006-.006-.006-.006-.006-.006-.006-.006-.006-.006-.006-.006-.006-.006-.006-.006-.006-.006-.006-.006-.006-.006-.006-.006-.006-.006-.006-.006-.006-.006-.006-.006-.006-.006-.006-.006-.006-.006-.006-.006-.006-.006-.006-.006-.006-.006-.006-.006-.006-.006-.006-.006-.006-.006-.006-.006-.006-.006-.006-.006-.006-.006-.006-.006-.006-.006-.006-.006-.006-.006-.006-.006-.006L9.3 13.8l-.006-.006-.006-.006-.006-.006-.006-.006-.006-.006-.006-.006-.006-.006-.006-.006-.006-.006-.006-.006-.006-.006-.006-.006-.006-.006-.006-.006-.006-.006-.006-.006-.006-.006-.006-.006-.006-.006-.006-.006-.006-.006-.006-.006-.006-.006-.006-.006-.006-.006-.006-.006-.006-.006-.006-.006-.006-.006-.006-.006-.006-.006-.006-.006-.006-.006-.006-.006-.006-.006-.006-.006-.006-.006-.006-.006-.006-.006-.006-.006-.006-.006-.006-.006-.006-.006-.006-.006-.006-.006-.006-.006-.006-.006-.006-.006-.006-.006L9 13.5l-.006-.006-.006-.006-.006-.006-.006-.006-.006-.006-.006-.006-.006-.006-.006-.005-.006-.006-.005-.006-.006-.007-.006-.005-.006-.006-.006-.006-.006-.006-.006-.006-.006-.006-.006-.006-.006-.006-.006-.006-.006-.006-.006-.006-.006-.006-.006-.006-.006-.006-.006-.006-.006-.006-.006-.006-.006-.006-.006-.006-.006-.006-.006-.006-.006-.006-.006-.006-.005-.006-.006-.005-.006-.006-.006-.006-.006-.006-.006-.006-.006-.006-.006-.006-.006-.006-.006-.006-.006-.006-.006-.006-.006-.006-.006-.006-.006-.006-.005-.005-.006-.006-.006-.006-.006-.006-.006-.006-.006-.006-.006-.006-.006-.006-.006-.006-.006-.006-.006-.006-.006-.006-.005-.005-.006-.006-.006-.006-.006-.006-.006-.006-.006-.006-.006-.006-.006-.006-.006-.006-.006-.006-.005-.005-.006-.006-.006-.006-.006-.006-.006-.006-.006-.006-.006-.006-.006-.006-.006-.006-.005-.005-.006-.006-.006-.006-.006-.006-.006-.006-.006-.006-.006-.006-.006-.005-.005-.006-.006-.006-.006-.006-.006-.006-.006-.006-.006-.006-.006-.005-.005-.006-.006-.006-.006-.006-.006-.006-.006-.006-.006-.006-.005-.005-.006-.006-.006-.006-.006-.006-.006-.006-.006-.006-.005-.005-.006-.006-.006-.006-.006-.006-.006-.006-.005-.005-.006-.006-.006-.006-.006-.006-.006-.006-.005-.005-.006-.006-.006-.006-.006-.006-.006-.006-.005-.005-.006-.006-.006-.006-.006-.006-.006-.006-.005-.005-.006-.006-.006-.006-.006-.006-.005-.005-.006-.006-.006-.006-.006-.006L8.2 12.7l-.006-.006-.006-.006-.006-.006-.005-.005-.006-.006-.006-.006-.006-.006-.005-.006-.006-.005-.006-.006-.006-.006-.005-.005-.006-.006-.006-.006-.006-.006-.005-.005-.006-.006-.006-.006-.005-.005-.006-.006-.006-.006-.006-.006-.005-.005-.006-.006-.006-.006-.005-.005-.006-.006-.006-.006-.005-.005-.006-.006-.006-.006-.005-.005-.006-.006-.006-.006L8 12.5l-.006-.006-.006-.006-.005-.005-.006-.006-.006-.006-.005-.005-.006-.006-.006-.006-.005-.005-.006-.006-.005-.005-.006-.006-.006-.006-.005-.005-.006-.006-.005-.005-.006-.006-.006-.006-.005-.005-.006-.006-.006-.005-.005-.006-.006-.006-.005-.005-.006-.006-.005-.005L7.5 12l.354-.354.24-.238c.593-.585.953-.94 1.164-1.675.251-.874.287-2.304-.048-5.175l-.028-.24.172-.172 1-1 .353-.353ZM19 12.5l-8.293-8.293-.476.476c.306 2.716.292 4.27-.012 5.326-.267.931-.76 1.46-1.302 1.994h.001l.006.007.006.005.005.006.006.006.006.006.006.006.006.005.005.006.006.006.006.006.006.005.005.006.006.006.006.006.006.006.006.005.005.006.006.006.006.006.006.006.006.005.005.006.006.006.006.006.006.006.006.006.006.005.005.006.006.006.006.006.006.006.006.006.006.005.005.006.006.006.006.006.006.006.006.006.006.005.005.006.006.006.006.006.006.006.006.006.006.005.006.006.005.006.006.006.006.006.006.006.006.006.006.006.006.005.006.006.005.006.006.006.006.006.006.006.006.006.006.006.006.006.006.005.006.006.005.006.006.006.006.006.006.006.006.006.006.006.006.006.006.005.006.006.006.006.005.006.006.006.006.006.006.006.006.006.006.006.006.006.006.006.006.006.006.005.006.006.006.006.005.006.006.006.006.006.006.006.006.006.006.006.006.006.006.006.006.006.006.006.006.006.006.005.006.007.006.005.006.006.006.006.005.006.006.006.006.006.006.006.006.006.006.006.006.006.006.006.006.006.006.006.006.006.006.006.006.006.006.006.006.006.006.006.006.006.006.006.006.005.006.007.006.006.006.005.006.006.006.006.006.006.006.006.006.006.005.006.006.006.006.006.006.006.006.006.006.006.006.006.006.006.006.006.006.006.006.006.006.006.006.006.006.006.006.006.006.006.006.006.006.006.006.006.006.006.006.006.006.006.006.006.006.006.006.006.006.006.006.006.006.006.006.006.006.006.006.006.006.006.006.006.006.006.006.006.006.006.006.006.006.006.006.006.006.006.006.006.006.006.006.006.006.006.006.006.006.006.006.006.006.006.006.006.006.006.006.006.006.006.006.006.006.006.006.006.006.006.006.006.006.006.006.006.006.006.006.006.006.006.006.006.006.006.006.006.006.006.006.006.006.006.006.006.006.006.006.006.006.006.006.006.006.006.006.006.006.006.006.006.006.006.006.006.006.006.006.006.006.006.006.006.006.006.006.006.006.006.006.006.006.006.006.006.006.006.006.006.006.006.006.006.006.006.006.006.006.006.006.006.006.006.006.006.006.006.006.006.006.006.006.006.006.006.006.006.006.006.006.006.006.006.006.006.006.006.006.006.006.006.006.006.006.006.006.006.006.006.006.006.006.006.006.005.006.006.006.006.006.007.006.005.006.006.006.006.006.006.006.006.006.006.005.006.006.006.007.006.005.006.006.006.006.006.006.006.006.006.006.006.006.006.006.006.006.006.006.006.006.006.006.006.006.006.006.006.006.006.006.006.006.006.006.006.006.006.006.005.006.007.006.005.006.006.006.006.005.006.006.006.006.006.006.006.006.006.006.006.006.006.006.006.006.006.006.006.006.006.006.006.006.005.006.006.006.006.005.006.006.006.006.006.006.006.006.006.006.006.006.006.006.006.006.006.006.006.006.005.006.006.006.006.005.006.006.006.006.006.006.006.006.006.006.006.006.006.006.006.006.006.006.005.006.006.005.006.006.006.006.006.006.006.006.006.006.006.006.005.006.006.005.006.006.006.006.006.006.006.006.006.006.006.006.005.005.006.006.006.006.006.006.006.006.006.006.006.006.005.005.006.006.006.006.006.006.006.006.006.006.006.006.005.005.006.006.006.006.006.006.006.006.006.006.005.005.006.006.006.006.006.006.006.006.005.005.006.006.006.006.006.006.006.006.006.006.005.005.006.006.006.006.006.006.006.006.005.005.006.006.006.006.006.006.005.005.006.006.006.006.006.006.005.005.006.006.006.006.006.006.005.005.006.002.001c.534-.542 1.063-1.034 1.993-1.302 1.057-.303 2.61-.318 5.326-.012L19 12.5Zm-12.293.293.354.353 6 6 .353.354-.353.354-2 2-.354.353-.353-.353-2.647-2.647-.646.647-.354.353-.353-.353-3-3L3 16.5l.354-.354 3-3 .353-.353ZM4.414 16.5l2.293 2.293.647-.647.353-.353.354.353 2.646 2.647L12 19.5l-5.293-5.293L4.414 16.5Zm14.44-12.853-3 3 .707.707 3-3-.707-.707ZM21.207 8h-3v1h3V8Z" fill="#000"/></svg>