<svg xmlns="http://www.w3.org/2000/svg" width="36" height="36" fill="none" viewBox="0 0 36 36"><path fill="#000" fill-rule="evenodd" d="M15.75 9.249h-.5v6H4.75v13h26.5v-13h-15v-5h6.25v-1zm-10 7v11h24.5v-11zm1.75 3H9v-1H7.5zm0 2v1h3v-1zm4.5-2h-1.5v-1H12zm0 3h1.5v-1H12zm0 3h-1.5v-1H12zm-4.5 0H9v-1H7.5zm18 0H24v-1h1.5zm1.5-1v1h1.5v-1zm-10.5-3v1H15v-1zm1.5 1h1.5v-1H18zm4.5 0H21v-1h1.5zm1.5 0h1.5v-1H24zm-9-3h-1.5v-1H15zm1.5 0H18v-1h-1.5zm4.5 0h-1.5v-1H21zm1.5 0H24v-1h-1.5zm-9 6v-1h9v1zm12-6h1.75v3.25h1v-4.25H25.5z" clip-rule="evenodd"/></svg>