<?xml version="1.0" encoding="utf-8"?>
<!-- Generator: Adobe Illustrator 26.0.3, SVG Export Plug-In . SVG Version: 6.00 Build 0)  -->
<svg version="1.0" xmlns="http://www.w3.org/2000/svg" xmlns:xlink="http://www.w3.org/1999/xlink" x="0px" y="0px"
	 viewBox="0 0 24 24" enable-background="new 0 0 24 24" xml:space="preserve">
<g id="SVG_x5F_24x24pt">
	<path id="backgroundBlue" fill="#2D327D" d="M0,22.5v-21C0,0.675,0.675,0,1.5,0h21C23.325,0,24,0.675,24,1.5v21
		c0,0.825-0.675,1.5-1.5,1.5h-21C0.675,24,0,23.325,0,22.5z"/>
	<g id="content">
		<path fill="#FFFFFF" d="M8.093,16.322l-0.6,1.039c-0.082,0.143-0.033,0.327,0.11,0.41l0.455,0.263
			c0.143,0.082,0.327,0.033,0.41-0.11l0.6-1.039L8.093,16.322z"/>
		<path fill="#FFFFFF" d="M17.055,4.175L15.106,3.05c-0.179-0.103-0.409-0.041-0.512,0.137c-0.103,0.179-0.041,0.409,0.137,0.512
			l0.487,0.281l-0.375,0.65l0.974,0.562l0.375-0.65l0.487,0.281c0.179,0.103,0.409,0.041,0.512-0.137
			C17.295,4.509,17.233,4.278,17.055,4.175z"/>
		<path fill="#FFFFFF" d="M16.904,6.686l-0.65-0.375l-2.598-1.5l-0.65-0.375c-0.179-0.103-0.409-0.041-0.512,0.137
			c-0.103,0.179-0.041,0.409,0.137,0.512l0.65,0.375l-5.475,9.483c-0.083,0.143-0.033,0.327,0.11,0.41l2.078,1.2
			c0.143,0.083,0.327,0.033,0.41-0.11l0.975-1.689l-0.974-0.562c-0.179-0.103-0.24-0.334-0.137-0.512
			c0.103-0.179,0.334-0.24,0.512-0.137l0.974,0.562l1.125-1.949l-0.974-0.562c-0.179-0.103-0.24-0.334-0.137-0.512
			c0.103-0.179,0.334-0.24,0.512-0.137l0.974,0.562l1.125-1.949l-0.974-0.562c-0.179-0.103-0.24-0.334-0.137-0.512
			c0.103-0.179,0.334-0.24,0.512-0.137l0.974,0.562l1.125-1.949l0.65,0.375c0.179,0.103,0.409,0.041,0.512-0.137
			C17.144,7.02,17.083,6.789,16.904,6.686z"/>
		
			<rect x="5.43" y="19.608" transform="matrix(0.5 -0.866 0.866 0.5 -13.6882 15.7323)" fill="#FFFFFF" width="2.7" height="0.225"/>
	</g>
</g>
</svg>
