<svg xmlns="http://www.w3.org/2000/svg" width="48" height="48" fill="none" viewBox="0 0 48 48"><path fill="#000" fill-rule="evenodd" d="M2.646 2.354 11 10.707v.713q0 .072.007.142l.002.043.027.447a180 180 0 0 0 .525 6.64c.188 1.879.423 3.835.708 5.462.142.813.298 1.553.47 2.164.166.595.36 1.12.599 1.465a21.5 21.5 0 0 0 2.662 3.2v3.203L7.683 38.19l-.012.005-.012.007A7.06 7.06 0 0 0 4 44.379V46h1v-1.62a6.06 6.06 0 0 1 3.13-5.295l8.072-3.887A8.83 8.83 0 0 0 24 40.995V46h1v-5.005a8.83 8.83 0 0 0 7.798-5.797l5.198 2.506 5.97 5.968q.04.35.034.701V46h1v-1.293l.647.647.707-.707-43-43zM32 34.428v-2.545A12.22 12.22 0 0 1 24.508 35l-.014.001h-.014c-1.713 0-4.53-.634-7.48-3.11v2.538a7.83 7.83 0 0 0 15 0m1-.242v-1.479l2.854 2.854zM14.475 14.182c-.948-.316-1.77-.684-2.372-1.101l.035.51c.093 1.334.232 3.135.418 5.002.187 1.869.42 3.797.698 5.389.14.796.289 1.5.447 2.067.163.58.322.967.46 1.166l.001.002c3.902 5.677 8.22 6.778 10.304 6.783a11.22 11.22 0 0 0 6.918-2.908l-2.9-2.902a9.6 9.6 0 0 1-3.978.81 8.5 8.5 0 0 1-5.565-1.807l.618-.786A7.5 7.5 0 0 0 24.48 28h.026a8.6 8.6 0 0 0 3.21-.575l-6.02-6.02a1.5 1.5 0 1 1-2.101-2.102zm5.747 5.902a.5.5 0 0 1 .103-.052l.643.643a.5.5 0 0 1-.566.315.5.5 0 0 1-.18-.906m15.41 7.7c.237-.346.431-.87.598-1.466.171-.61.328-1.35.471-2.163.288-1.628.527-3.583.719-5.462a175 175 0 0 0 .57-7.087l.002-.033A1 1 0 0 0 38 11.42V4.35c0-.381-.267-.636-.479-.783-.23-.16-.536-.294-.883-.411-.7-.236-1.688-.44-2.875-.61C31.38 2.209 28.106 2 24.5 2s-6.88.208-9.263.547c-1.187.169-2.174.373-2.875.609-.347.117-.653.25-.883.41-.211.148-.479.403-.479.784V7.5h1V5.409q.172.07.362.135c.7.236 1.688.44 2.875.61 2.382.338 5.657.546 9.263.546s6.88-.208 9.263-.547c1.187-.169 2.174-.373 2.875-.609q.19-.065.362-.135V11.4l-.002.03-.002.049c-.015.095-.065.214-.188.36-.153.181-.396.379-.74.583-.689.408-1.696.791-2.921 1.12-2.444.657-5.65 1.067-8.646 1.067a37 37 0 0 1-5.782-.464l-.158.988c1.964.313 3.95.472 5.938.476h.001a38 38 0 0 0 7.161-.697c-.382.595-1.02 1.12-1.907 1.538-1.27.6-3 .949-5.034.949h-.001a16.5 16.5 0 0 1-3.019-.272l-.18.984c1.055.194 2.127.29 3.2.288 2.137 0 4.021-.365 5.46-1.044 1.326-.625 2.319-1.54 2.718-2.716q.258-.064.508-.13c1.266-.34 2.371-.753 3.171-1.227a6 6 0 0 0 .315-.2l-.036.507c-.096 1.334-.24 3.134-.431 5.002-.19 1.869-.427 3.797-.708 5.389-.141.796-.291 1.5-.45 2.067-.163.582-.321.969-.459 1.169a22 22 0 0 1-1.593 2.042l.75.662a23 23 0 0 0 1.667-2.138M28.5 19a1.5 1.5 0 1 0 0 3 1.5 1.5 0 0 0 0-3m-.278 1.084a.5.5 0 1 1 .556.832.5.5 0 0 1-.556-.832m-15.54-15.98a3 3 0 0 0-.574.246c.122.073.309.157.573.246.615.207 1.532.401 2.697.567 2.323.33 5.548.537 9.122.537s6.8-.206 9.122-.537c1.165-.166 2.082-.36 2.697-.567a3 3 0 0 0 .573-.246 3 3 0 0 0-.573-.246c-.615-.207-1.532-.401-2.697-.567C31.299 3.207 28.074 3 24.5 3s-6.8.206-9.122.537c-1.165.166-2.082.36-2.697.567m24.341.149.004-.005zm-25.046 0-.004-.005zM23.5 8l-1.99 1.88h2.37V8h1.24v1.88h2.37L25.5 8h1.49l2.49 2.5-2.49 2.5H25.5l1.99-1.87h-2.37V13h-1.24v-1.87h-2.37L23.5 13h-1.49l-2.49-2.5L22.01 8zm8 34H31v4h8v-4h-7.5m.5 3v-2h6v2z" clip-rule="evenodd"/></svg>