<svg xmlns="http://www.w3.org/2000/svg" width="24" height="24" fill="none" viewBox="0 0 24 24"><path fill="#000" fill-rule="evenodd" d="M2 4h5v6H5v11H4V10H2V4m1 1v4h3V5zm8 4a2 2 0 0 0-2 2v2h5.05a2.502 2.502 0 0 1 4.9 0H20v-2a2 2 0 0 0-2-2zm6.915 4a1.502 1.502 0 0 0-2.83 0zM9 18v-4h11v4zm-1-7a3 3 0 0 1 3-3h7a3 3 0 0 1 3 3v1h1v1h-1v8h-3.999v-2H12v2H8v-8H7v-1h1zm10.001 8v1H20v-1zM9 19h2v1H9zm1-3a1 1 0 1 1 2.002.001A1 1 0 0 1 10 16m8-1A1 1 0 1 0 18.002 17 1 1 0 0 0 18 15" clip-rule="evenodd"/></svg>