<svg xmlns="http://www.w3.org/2000/svg" width="36" height="36" fill="none" viewBox="0 0 36 36"><path fill="#000" fill-rule="evenodd" d="M25.763 8.464c.566-1.598 1.718-3.276 4.115-3.998a5.7 5.7 0 0 0-.262 1.135c-.157 1.268.082 2.94 1.582 4.582A3.2 3.2 0 0 1 31.75 12c0 1.001-.46 1.881-1.176 2.485h-4.148c-.716-.604-1.176-1.484-1.176-2.485v-.02l-.002-.018v-.014l-.003-.052-.006-.21a9 9 0 0 1 .025-.78 9.5 9.5 0 0 1 .5-2.442M24.25 12.01l.001.007c.005 1.3.601 2.432 1.5 3.205V30a2.747 2.747 0 0 0 2.75 2.75A2.747 2.747 0 0 0 31.25 30V15.223c.903-.777 1.5-1.915 1.5-3.223 0-.897-.271-1.732-.75-2.417l-.02-.027-.022-.025c-1.299-1.409-1.476-2.787-1.35-3.807a4.8 4.8 0 0 1 .502-1.598q.03-.058.048-.085l.01-.018.003-.003.618-.956-1.124.193c-3.498.6-5.12 2.826-5.844 4.873-.36 1.015-.501 1.987-.554 2.702a10 10 0 0 0-.021 1.111zm6.001 3.474h-3.5v2.765h3.5zM26.75 30V19.25h3.5V30c0 .969-.781 1.75-1.75 1.75s-1.75-.781-1.75-1.75M18 7.25a1.75 1.75 0 1 0 0 3.5 1.75 1.75 0 0 0 0-3.5M15.25 9a2.75 2.75 0 1 1 5.5 0 2.75 2.75 0 0 1-5.5 0m-4.75 2.75a1.75 1.75 0 1 0 0 3.5 1.75 1.75 0 0 0 0-3.5M7.75 13.5a2.75 2.75 0 1 1 5.5 0 2.75 2.75 0 0 1-5.5 0m7 13.5a1.75 1.75 0 1 1 3.5 0 1.75 1.75 0 0 1-3.5 0m1.75-2.75a2.75 2.75 0 1 0 0 5.5 2.75 2.75 0 0 0 0-5.5m1.919-20.985c-7.22-.202-13.306 4.798-14.812 11.506v.001c-.41 1.851.79 3.549 2.511 4.094 2.737.875 4.632 3.195 4.632 5.884 0 .758-.152 1.485-.438 2.14l-.002.005c-.723 1.704-.083 3.762 1.644 4.564h.003a14.5 14.5 0 0 0 6.028 1.291c2.144 0 4.316-.497 6.212-1.382l-.424-.906a13.9 13.9 0 0 1-5.788 1.288c-2 0-3.908-.42-5.61-1.2-1.181-.548-1.681-1.997-1.146-3.262a6.3 6.3 0 0 0 .52-2.538c0-3.191-2.244-5.85-5.327-6.836h-.001c-1.308-.415-2.118-1.657-1.838-2.925C5.987 8.736 11.66 4.077 18.39 4.265c1.908.058 3.73.52 5.394 1.316l.432-.902a14.4 14.4 0 0 0-5.796-1.414z" clip-rule="evenodd"/></svg>