<svg xmlns="http://www.w3.org/2000/svg" width="24" height="24" fill="none" viewBox="0 0 24 24"><path fill="#000" fill-rule="evenodd" d="M16.5 5c-.257 0-.5.243-.5.5s.243.5.5.5.5-.243.5-.5-.243-.5-.5-.5m-1.5.5c0-.81.69-1.5 1.5-1.5s1.5.69 1.5 1.5S17.31 7 16.5 7 15 6.31 15 5.5m6.468 1.176-1.5 4-.273.727-.549-.55-1.339-1.339-.751 3.756 2.721 1.814.223.148V20h-1v-4.232L16.349 14H14.86l-.886 2.658-.058.176-.159.095-5 3-.514-.858 4.841-2.905.932-2.795.839-4.194-2.732.683.858 3.003-.962.274-1-3.5-.142-.497.502-.125 4-1 .06-.015h2.268l.147.146 1.45 1.451 1.228-3.273zM15.193 13h.897l.8-4h-.897zM9 10V9H3v1zm-5 2h5v1H4zm6-6H6v1h4z" clip-rule="evenodd"/></svg>