<svg xmlns="http://www.w3.org/2000/svg" width="14" height="16" fill="none" viewBox="0 0 14 16"><path fill="#000" fill-rule="evenodd" d="M12.667 1H1v14h11.667zM11.37 13.727H2.296V2.273h9.074zm-6.358-3.346-.771.74.015 1.334h5.17v-1.486H6.5l.101-.135q.725-.774 1.415-1.781.686-1.007.932-1.584.248-.574.317-.93.07-.357.069-.722 0-1.089-.68-1.681-.68-.59-1.928-.59-.727 0-1.128.105c-.266.07-.47.131-.6.182q-.202.077-.463.211l-.13.088.19 1.645.093-.095q.817-.758 1.821-.757 1.19 0 1.188 1.16 0 .77-.577 1.68-.58.914-2.108 2.616" clip-rule="evenodd"/></svg>