<svg class="color-immutable" xmlns="http://www.w3.org/2000/svg" width="59" height="20" fill="none" viewBox="0 0 59 20"><g clip-path="url(#a)"><path fill="#EB0000" fill-rule="evenodd" d="M2 0a2 2 0 0 0-2 2v16a2 2 0 0 0 2 2h55a2 2 0 0 0 2-2V2a2 2 0 0 0-2-2z" clip-rule="evenodd"/><path fill="#fff" d="M9.388 4.2h4.042L8.43 15.8h-4.06zM26.092 12.366a.92.92 0 0 0 .843-.553L30.216 4.2H16.13l-5.001 11.6h4.025l3.786-8.69h5.973l-1.197 2.775-5.209-.019L22.71 15.8h4.582l-3.114-3.434zM44.772 11.203v1.954h-1.455v2.642h-2.254v-2.642h-4.826v-2.168l4.944-6.755h2.136v6.969zm-3.662.024V6.922l-2.974 4.304zM45.556 12.896h2.183q.268 1.344 1.558 1.344.727 0 1.179-.49.458-.498.704-1.543.157-.664.229-1.51-.53.743-1.092 1.06-.554.308-1.352.308-1.275 0-2.215-.744a3.54 3.54 0 0 1-1.028-1.352 4.4 4.4 0 0 1-.364-1.804q0-1.953 1.337-3.164 1.146-1.044 2.752-1.044.989 0 1.828.443a3.96 3.96 0 0 1 1.407 1.258q1.005 1.447 1.005 4.066 0 2.42-.886 4.129-1.155 2.222-3.496 2.222-1.559 0-2.579-.862-1.012-.862-1.17-2.317M49.4 5.91q-.744 0-1.258.609-.514.616-.514 1.566 0 .768.372 1.36.506.816 1.423.815.83 0 1.33-.664.466-.625.466-1.487 0-.91-.482-1.543a1.6 1.6 0 0 0-1.337-.656"/></g><defs><clipPath id="a"><path fill="#fff" d="M0 0h59v20H0z"/></clipPath></defs></svg>