<?xml version="1.0" encoding="utf-8"?>
<!-- Generator: Adobe Illustrator 24.2.0, SVG Export Plug-In . SVG Version: 6.00 Build 0)  -->
<svg version="1.0" xmlns="http://www.w3.org/2000/svg" xmlns:xlink="http://www.w3.org/1999/xlink" x="0px" y="0px"
	 viewBox="0 0 24 24" enable-background="new 0 0 24 24" xml:space="preserve">
<g id="SVG_x5F_24x24pt">
	<path id="backgroundBlue" fill="#2D327D" d="M0,22.5v-21C0,0.675,0.675,0,1.5,0h21C23.325,0,24,0.675,24,1.5v21
		c0,0.825-0.675,1.5-1.5,1.5h-21C0.675,24,0,23.325,0,22.5z"/>
	<g id="content">
		<path fill="#FFFFFF" d="M3.231,21.185h17.625c0.102,0,0.185-0.083,0.185-0.185c0-0.102-0.083-0.185-0.185-0.185H3.231
			c-0.102,0-0.185,0.083-0.185,0.185C3.045,21.102,3.128,21.185,3.231,21.185z"/>
		<path fill="#FFFFFF" d="M3.021,13.874c0.168-0.304,0.38-0.581,0.628-0.823c0.503-0.49,1.14-0.821,1.831-0.951l5.759-1.015
			l3.336-7.707L16.039,3l0.297,7.187l2.666-0.47l0.561-2.027l1.155-0.15l0.393,3.29l-4.646,2.658l-11.115,1.96
			c-0.54,0.095-1.093,0.084-1.629-0.031l0.001,0.001c-0.204-0.044-0.39-0.147-0.535-0.295C2.863,14.789,2.795,14.281,3.021,13.874z"
			/>
		<circle fill="#FFFFFF" cx="6.139" cy="16.179" r="0.501"/>
		<circle fill="#FFFFFF" cx="12.519" cy="15.012" r="0.543"/>
		<circle fill="#FFFFFF" cx="14.083" cy="14.736" r="0.543"/>
	</g>
</g>
</svg>
