<svg xmlns="http://www.w3.org/2000/svg" width="36" height="36" fill="none" viewBox="0 0 36 36"><path fill="#000" fill-rule="evenodd" d="m14.724 9.592-.114-.342H3.25v17a2 2 0 0 0 2 2h6a2 2 0 0 0 2-2v-1h.5v1a2 2 0 0 0 2 2h15a2 2 0 0 0 2-2v-3a5 5 0 0 0-5-5h-3.622l-2.317-1.264-2.912-1.588-2.737-1.493zM31.75 26.25v-1h-17v1a1 1 0 0 0 1 1h15a1 1 0 0 0 1-1m0-2v-1a4 4 0 0 0-4-4h-3.878l-.111-.061-2.1-1.145-1.807 1.81-.708-.707 1.6-1.602-1.997-1.09-1.895 1.898-.708-.706 1.688-1.69-1.995-1.089-1.985 1.986-.708-.707 2.032-2.032-1.288-3.865H4.25v14zm-27.5 1v1a1 1 0 0 0 1 1h6a1 1 0 0 0 1-1v-1z" clip-rule="evenodd"/></svg>