<?xml version="1.0" encoding="utf-8"?>
<!-- Generator: Adobe Illustrator 24.2.0, SVG Export Plug-In . SVG Version: 6.00 Build 0)  -->
<svg version="1.0" id="Piktogramm" xmlns="http://www.w3.org/2000/svg" xmlns:xlink="http://www.w3.org/1999/xlink" x="0px" y="0px"
	 viewBox="0 0 24 24" enable-background="new 0 0 24 24" xml:space="preserve">
<g id="SVG_x5F_24x24pt">
	<path id="backgroundBlue" fill="#2D327D" d="M0,22.5v-21C0,0.675,0.675,0,1.5,0h21C23.325,0,24,0.675,24,1.5v21
		c0,0.825-0.675,1.5-1.5,1.5h-21C0.675,24,0,23.325,0,22.5z"/>
	<g id="content">
		<path fill="#FFFFFF" d="M6.136,15.223c-0.251-0.282-0.581-0.452-0.926-0.506c-0.049-0.23-0.155-0.45-0.323-0.638
			C4.398,13.53,3.576,13.458,3,13.893c0.053-0.221,0.161-0.437,0.329-0.644c0.457-0.562,0.814-0.678,1.057-0.796
			c-0.379-0.214-0.919-0.336-1.227-0.303c-0.106,0.011-0.041-0.219-0.021-0.276c0.032-0.09,0.08-0.23,0.287-0.202
			c0.289,0.04,1.078,0.514,1.185,0.603c0.158-0.226,0.286-0.592,0.95-1.014c0.135-0.086,0.27-0.15,0.405-0.193
			c-0.362,0.518-0.355,1.211,0.06,1.678c0.21,0.236,0.491,0.375,0.789,0.416c-0.03,0.447,0.112,0.905,0.433,1.265
			c0.405,0.455,0.997,0.644,1.557,0.557c-0.017,0.22-0.061,0.398-0.134,0.51c-0.28,0.429-0.433,0.394-0.749,0.665
			c-0.306,0.282-0.288,0.438-0.747,0.667c-0.162,0.081-0.437,0.094-0.768,0.054C6.637,16.339,6.553,15.691,6.136,15.223z"/>
		<polygon fill="#FFFFFF" points="7.637,6.499 9.47,11.56 13.45,10.744 13.101,5.379 		"/>
		<path fill="#FFFFFF" d="M14.59,14.364h-1.203c-0.74,1.282-1.681,2.912-2.194,3.8c-0.207,0.359-0.081,0.819,0.281,1.028
			l2.953,1.705c0.362,0.209,0.824,0.088,1.031-0.271l1.824-3.159l-2.27-0.17L14.59,14.364z"/>
		<path fill="#FFFFFF" d="M20.905,7.75L19.6,6.996c-0.09-0.052-0.205-0.022-0.257,0.068l-0.194,0.335
			c-0.049,0.086-0.024,0.195,0.058,0.25l0.01,0.006c0,0-1.276,1.809-1.777,2.678c-0.502,0.869-2.396,1.162-3.27,2.675
			c-0.043,0.075-0.09,0.156-0.141,0.244h1.524l0.433,3.004L17.9,16.4l0.536-0.929c0.873-1.513,0.18-3.3,0.682-4.169l-0.002-0.001
			c0.502-0.869,1.406-2.89,1.406-2.89l0.015,0.007c0.088,0.042,0.194,0.01,0.243-0.075l0.194-0.337
			C21.027,7.917,20.996,7.802,20.905,7.75z"/>
		<polygon fill="#FFFFFF" points="12.721,3.618 12.363,3.733 11.992,3 7.46,4.904 7.516,5.289 7.118,5.416 7.231,6.033 
			12.988,4.185 		"/>
	</g>
</g>
</svg>
