<?xml version="1.0" encoding="utf-8"?>
<!-- Generator: Adobe Illustrator 24.2.0, SVG Export Plug-In . SVG Version: 6.00 Build 0)  -->
<svg version="1.0" id="Ebene_1" xmlns="http://www.w3.org/2000/svg" xmlns:xlink="http://www.w3.org/1999/xlink" x="0px" y="0px"
	 viewBox="0 0 24 24" enable-background="new 0 0 24 24" xml:space="preserve">
<g id="SVG_x5F_24x24pt">
	<path id="backgroundBlue" fill="#2D327D" d="M0,22.5v-21C0,0.675,0.675,0,1.5,0h21C23.325,0,24,0.675,24,1.5v21
		c0,0.825-0.675,1.5-1.5,1.5h-21C0.675,24,0,23.325,0,22.5z"/>
	<g id="content">
		<path id="Schlüssel" fill="#FFFFFF" d="M9.375,5.438l0.75,0.75l0.75-0.75l0.75,0.75l0.938-0.938l-0.938-0.938H7.336
			c-0.358-0.796-1.157-1.35-2.086-1.35c-1.263,0-2.287,1.024-2.287,2.287S3.987,7.537,5.25,7.537c0.929,0,1.728-0.554,2.086-1.35
			h1.289L9.375,5.438z M4.125,6c-0.414,0-0.75-0.336-0.75-0.75c0-0.414,0.336-0.75,0.75-0.75s0.75,0.336,0.75,0.75
			C4.875,5.664,4.539,6,4.125,6z"/>
		<polygon id="Dach" fill="#FFFFFF" points="21,12.488 21,11.25 12,7.125 3,11.25 3,12.488 12,8.363 21,12.488 		"/>
		<g>
			<path fill="#FFFFFF" d="M10.263,12.946L8.679,13.5c-0.034,0.013-0.072,0.019-0.108,0.019c-0.11,0-0.211-0.054-0.272-0.145
				l-0.356-0.528c-0.029-0.044-0.044-0.095-0.044-0.146c0-0.145,0.117-0.263,0.262-0.263h2.016c0.146,0,0.263,0.118,0.263,0.263
				C10.44,12.81,10.368,12.91,10.263,12.946L10.263,12.946z"/>
			<path fill="#FFFFFF" d="M15.807,12.961h-2.298v-0.525h2.298c0.145,0,0.262,0.118,0.262,0.263
				C16.069,12.843,15.952,12.961,15.807,12.961L15.807,12.961z"/>
			<path fill="#FFFFFF" d="M15.807,13.814h-0.328c-0.145,0-0.263-0.118-0.263-0.262c0-0.145,0.118-0.263,0.263-0.263h0.328
				c0.145,0,0.262,0.118,0.262,0.263C16.068,13.696,15.951,13.814,15.807,13.814L15.807,13.814z"/>
			<path fill="#FFFFFF" d="M7.341,14.568c-1.775,0-3.216,1.44-3.216,3.216C4.125,19.559,5.566,21,7.341,21
				c1.661,0,3.05-1.266,3.202-2.921h0.685c0.141,0.3,0.442,0.492,0.774,0.492c0.47,0,0.853-0.383,0.853-0.853
				c0-0.192-0.064-0.377-0.183-0.527l1.72-2.557l0.353,0.567c-0.818,0.608-1.299,1.565-1.299,2.583c0,1.774,1.44,3.216,3.215,3.216
				c1.775,0,3.216-1.441,3.216-3.216c0-1.776-1.44-3.216-3.216-3.216c-0.511,0-1.015,0.122-1.47,0.356l-0.63-1.011H9.441
				l-0.63,1.011C8.357,14.69,7.852,14.568,7.341,14.568L7.341,14.568z M13.969,17.784c0-0.837,0.389-1.626,1.053-2.135l1.415,2.273
				c0.048,0.077,0.132,0.124,0.223,0.124c0.146,0,0.262-0.118,0.262-0.263c0-0.05-0.014-0.097-0.039-0.139l-1.415-2.274
				c0.371-0.183,0.778-0.278,1.192-0.278c1.485,0,2.691,1.205,2.691,2.691c0,1.485-1.206,2.691-2.691,2.691
				C15.174,20.475,13.969,19.27,13.969,17.784L13.969,17.784z M11.765,16.898l-1.655-2.461h3.78l-1.655,2.461
				c-0.076-0.022-0.155-0.032-0.234-0.032C11.921,16.866,11.842,16.876,11.765,16.898L11.765,16.898z M10.548,17.554
				c-0.068-0.935-0.539-1.795-1.292-2.353l0.354-0.567l1.719,2.557c-0.084,0.106-0.141,0.231-0.167,0.363H10.548L10.548,17.554z
				 M8.979,15.649c0.6,0.46,0.979,1.151,1.043,1.905H7.793L8.979,15.649L8.979,15.649z M7.341,20.475
				c-1.485,0-2.69-1.205-2.69-2.691c0-1.486,1.205-2.691,2.69-2.691c0.414,0,0.822,0.095,1.192,0.278L7.358,17.26
				c-0.005-0.001-0.011-0.001-0.017-0.001c-0.289,0-0.524,0.236-0.524,0.526c0,0.289,0.235,0.525,0.524,0.525
				c0.174,0,0.336-0.086,0.434-0.23h2.241C9.865,19.442,8.713,20.475,7.341,20.475L7.341,20.475z"/>
		</g>
	</g>
</g>
</svg>
