<svg xmlns="http://www.w3.org/2000/svg" width="24" height="24" fill="none" viewBox="0 0 24 24"><path fill="#000" fill-rule="evenodd" d="M5 2h14v20H5V2m1 1v18h12V3zm10 13H8v-1h8zm-8 2h8v-1H8zm4.035-6.304c-.022-.024-.098-.144-.145-.661a12 12 0 0 0-.092-.83 1 1 0 0 0-.158-.36.9.9 0 0 0-.27-.267c.137-.086.256-.2.349-.332.16-.24.241-.523.233-.81a1.5 1.5 0 0 0-.164-.7 1.3 1.3 0 0 0-.478-.505 1.93 1.93 0 0 0-1.007-.229H8v5.012h.923V9.97h1.09c.233-.022.466.02.676.12.166.109.267.403.29.853.018.378.034.593.05.692a.76.76 0 0 0 .116.313l.045.065h1.122zM10.75 9.045a.8.8 0 0 1-.278.093 3.5 3.5 0 0 1-.527.03H8.923V7.844h1.19q.247-.008.488.045a.6.6 0 0 1 .252.132.61.61 0 0 1 .173.469.58.58 0 0 1-.276.555m3.527 1.71 1.258-3.753h.983l-1.793 5.012h-.92l-.037-.1-1.753-4.912h1.01z" clip-rule="evenodd"/></svg>