<svg xmlns="http://www.w3.org/2000/svg" width="9" height="16" fill="none" viewBox="0 0 9 16"><path fill="#000" d="M5.5 2.25a1.25 1.25 0 1 1-2.5 0 1.25 1.25 0 0 1 2.5 0M3 6.146a6 6 0 0 0-.5.535V8.5a.75.75 0 0 1-1.5 0v-2c0-.173.055-.308.08-.365q.051-.11.104-.19c.066-.103.15-.21.235-.311a8 8 0 0 1 .634-.657c.235-.218.5-.438.751-.61.125-.085.262-.168.4-.233.122-.056.313-.131.533-.134h.002a2 2 0 0 1 .126.002 2 2 0 0 1 .297.035c.216.04.578.142.868.433.178.177.287.407.355.578.077.19.14.403.19.616.063.272.113.57.144.857l1.616.808a.75.75 0 0 1-.67 1.342l-.9-.45a42 42 0 0 1-.01.842l.056.099c.095.17.223.401.35.641.128.238.26.493.361.71.05.107.099.215.136.312q.028.074.054.162a1 1 0 0 1 .038.263v3a.75.75 0 0 1-1.5 0v-2.907a4 4 0 0 0-.085-.192 15 15 0 0 0-.327-.642c-.097-.182-.195-.36-.277-.509H4.5v1.75a1 1 0 0 1-.061.324l-.001.002c-.023.062-.05.124-.076.178-.053.109-.121.235-.195.364-.15.26-.344.576-.533.876a61 61 0 0 1-.694 1.073l-.048.073-.018.025a.75.75 0 0 1-1.248-.831l.016-.024.047-.07a64 64 0 0 0 .677-1.047c.186-.294.366-.587.498-.819q.09-.159.136-.25z"/></svg>