<svg xmlns="http://www.w3.org/2000/svg" width="36" height="36" fill="none" viewBox="0 0 36 36"><path fill="#000" d="M21.969 8.324 23.347 12H26v1H4v16.5h28V13h-1v-1h2v18.5H3V10h4v2h5.153l1.38-3.676.12-.324h8.194zM18 15q.558 0 1.09.099l-.09.492-.09.491a5 5 0 1 0 3.977 5.978l.489.105.49.105A6 6 0 1 1 18 15m10 5a2 2 0 0 0 2 2v1a2 2 0 0 0-2 2h-1a2 2 0 0 0-2-2v-1a2 2 0 0 0 2-2zm-.5 1.656c-.222.335-.51.622-.844.844.335.222.622.509.844.843.222-.334.509-.621.843-.843a3 3 0 0 1-.843-.844M23 14a3 3 0 0 0 3 3v1a3 3 0 0 0-3 3h-1a3 3 0 0 0-3-3v-1a3 3 0 0 0 3-3zm-.5 1.937a4 4 0 0 1-1.564 1.563c.657.364 1.2.906 1.564 1.563a4 4 0 0 1 1.563-1.563 4 4 0 0 1-1.563-1.563M29 5.5A3.5 3.5 0 0 0 32.5 9h.5v1h-.5a3.5 3.5 0 0 0-3.5 3.5v.5h-1v-.5a3.5 3.5 0 0 0-3.5-3.5H24V9h.5A3.5 3.5 0 0 0 28 5.5V5h1zM4 12h2v-1H4zm9.222 0h9.056l-1.125-3h-6.806zM28.5 7.56a4.5 4.5 0 0 1-1.94 1.94 4.5 4.5 0 0 1 1.94 1.938A4.5 4.5 0 0 1 30.439 9.5 4.5 4.5 0 0 1 28.5 7.56"/></svg>