<svg class="color-immutable" width="19" height="16" viewBox="0 0 19 16" fill="none" xmlns="http://www.w3.org/2000/svg"><path fill-rule="evenodd" clip-rule="evenodd" d="M2.5 3C3.327 3 4 2.327 4 1.5S3.327 0 2.5 0 1 .673 1 1.5 1.673 3 2.5 3ZM9.504 3c.827 0 1.5-.673 1.5-1.5S10.33 0 9.504 0s-1.5.673-1.5 1.5.673 1.5 1.5 1.5ZM16.508 3c.827 0 1.5-.673 1.5-1.5s-.673-1.5-1.5-1.5-1.5.673-1.5 1.5.673 1.5 1.5 1.5ZM0 10h1v6h3v-6h1V4H0v6ZM7.004 10h1v6h3v-6h1V4h-5v6ZM14 4v6h1v6h3v-6h1V4h-5Z" fill="#EB0000"/></svg>