<?xml version="1.0" encoding="utf-8"?>
<!-- Generator: Adobe Illustrator 24.2.0, SVG Export Plug-In . SVG Version: 6.00 Build 0)  -->
<svg version="1.0" id="Ebene_1" xmlns="http://www.w3.org/2000/svg" xmlns:xlink="http://www.w3.org/1999/xlink" x="0px" y="0px"
	 viewBox="0 0 24 24" enable-background="new 0 0 24 24" xml:space="preserve">
<g id="SVG_x5F_24x24pt">
	<path id="backgroundBlue" fill="#2D327D" d="M0,22.5v-21C0,0.675,0.675,0,1.5,0h21C23.325,0,24,0.675,24,1.5v21
		c0,0.825-0.675,1.5-1.5,1.5h-21C0.675,24,0,23.325,0,22.5z"/>
	<g id="content">
		<path fill="#FFFFFF" d="M11.249,20.415l-1.035-3.3C10.155,16.927,9.981,16.8,9.785,16.8H8.234L9.511,21h1.308
			c0.248,0,0.45-0.202,0.45-0.45C11.269,20.504,11.262,20.459,11.249,20.415L11.249,20.415L11.249,20.415z"/>
		<path fill="#FFFFFF" d="M10.819,3H9.511L8.234,7.2h1.551c0.197,0,0.371-0.128,0.429-0.315l1.035-3.3
			c0.014-0.044,0.021-0.089,0.021-0.135C11.269,3.201,11.068,3,10.819,3L10.819,3z"/>
		<path fill="#FFFFFF" d="M6.75,16.8c-0.448-1.561-0.675-3.177-0.675-4.8c0-1.623,0.227-3.239,0.675-4.8l0,0h0.935L8.963,3H7.622
			C6.962,3,6.336,3.289,5.908,3.791l0,0c-1.95,2.29-3.021,5.2-3.021,8.208c0,3.008,1.071,5.918,3.021,8.209
			C6.336,20.71,6.962,21,7.622,21h1.341l-1.278-4.2H6.75L6.75,16.8z"/>
	</g>
</g>
</svg>
