<svg xmlns="http://www.w3.org/2000/svg" width="24" height="24" fill="none" viewBox="0 0 24 24"><path fill="#000" fill-rule="evenodd" d="M16 5.469c0-1.378 1.122-2.5 2.5-2.5S21 4.09 21 5.469c0 .753-.35 1.468-.94 1.94l-.284.228.128.34Q20 8.227 20 8.5c0 .826-.674 1.5-1.5 1.5a1.503 1.503 0 0 1-1.404-2.024l.128-.34-.283-.226A2.5 2.5 0 0 1 16 5.469m2.5-3.5c-1.93 0-3.5 1.57-3.5 3.5a3.5 3.5 0 0 0 1.059 2.494A2.503 2.503 0 0 0 18.5 11a2.503 2.503 0 0 0 2.441-3.037A3.5 3.5 0 0 0 22 5.47c0-1.93-1.57-3.5-3.5-3.5m2.646 19.885L15.293 16H2v-4h9.293L2.146 2.854l.708-.708 19 19zM12.293 13l2 2H10v-2zM8 13h1v2H8zm-1 2v-2H3v2zm12-2h-4v-1h7v4h-4v-1h1zm1 0v2h1v-2z" clip-rule="evenodd"/></svg>