<svg xmlns="http://www.w3.org/2000/svg" width="36" height="36" fill="none" viewBox="0 0 36 36"><path fill="#000" fill-rule="evenodd" d="M14.25 3.25h-.5v1.5h-9v28h26.5v-28h-9v-1.5h-8m.5 2.5v.5h6.5v-2h-6.5v1.5m7.5 0v1.5h-8.5v-1.5h-8v26h24.5v-26zm-5.293 19.425h1.9v-1.829h-1.9zm-2.354-11.426q-.58.896-.64 2.532h1.51q.184-2.884 2.532-2.883 1.134 0 1.714.729.482.598.483 1.476 0 .474-.168.932-.2.537-.852 1.204-1.01 1.037-1.305 1.416a2.8 2.8 0 0 0-.453.852q-.218.65-.237 1.995h1.494q0-.755.089-1.23.078-.474.276-.796.197-.32.699-.804 1.134-1.108 1.432-1.52.669-.907.668-2.163 0-1.521-.984-2.453-1.055-1.01-2.838-1.009-1.11 0-1.995.447a3.6 3.6 0 0 0-1.425 1.275" clip-rule="evenodd"/></svg>