<?xml version="1.0" encoding="UTF-8"?>
<svg width="375px" height="145px" viewBox="0 0 375 145" version="1.1" xmlns="http://www.w3.org/2000/svg" xmlns:xlink="http://www.w3.org/1999/xlink">
    <title>Modules/Dialog/_Helpers/Avatar/Men-Sad</title>
    <g id="Modules" stroke="none" stroke-width="1" fill="none" fill-rule="evenodd">
        <g id="Modules/Dialog/_Helpers/Avatar/Men-Sad">
            <polygon id="Fill-7" fill="#CCCCCC" points="0 112.036952 375 112.036952 375 55.0369522 0 55.0369522"></polygon>
            <polygon id="Fill-9" fill="#8E8E8E" points="0 144.036952 375 144.036952 375 112.036952 0 112.036952"></polygon>
            <polygon id="Fill-2" fill="#444444" points="0 55.0369522 375 55.0369522 375 52.0369522 0 52.0369522"></polygon>
            <path d="M136.915461,18.4241478 L50.0266882,18.4241478 C48.8667245,18.4241478 47.9198155,17.4776309 47.9198155,16.3181478 C47.9198155,15.1606365 48.8667245,14.2121478 50.0266882,14.2121478 L136.915461,14.2121478 C138.073452,14.2121478 139.022334,15.1606365 139.022334,16.3181478 C139.022334,17.4776309 138.073452,18.4241478 136.915461,18.4241478" id="Fill-3" fill="#767676" opacity="0.3"></path>
            <path d="M197.37462,27.9660236 L110.483875,27.9660236 C109.325884,27.9660236 108.377002,27.0195067 108.377002,25.8600236 C108.377002,24.7025124 109.325884,23.7540236 110.483875,23.7540236 L197.37462,23.7540236 C198.532611,23.7540236 199.47952,24.7025124 199.47952,25.8600236 C199.47952,27.0195067 198.532611,27.9660236 197.37462,27.9660236" id="Fill-5" fill="#767676" opacity="0.3"></path>
            <path d="M74.9767564,19.1001185 C70.8221927,19.5398545 73.1066109,25.9860287 76.0479473,26.6781691 C75.6751018,26.6761972 75.7007473,26.4454837 75.4995291,26.2147702" id="Fill-10" fill="#F4A673"></path>
            <path d="M101.598119,17.1465472 C105.77241,16.9769629 104.452655,23.6854011 101.643492,24.7995303 C102.012392,24.7443169 101.955183,24.5195191 102.120892,24.2611989" id="Fill-11" fill="#F4A673"></path>
            <path d="M121.179805,118.884069 C117.859705,103.45394 107.591659,105.393986 98.1876682,106.012093 C90.1882591,106.53771 81.55955,106.702389 73.6765318,109.143236 C69.9480773,110.295984 67.4249591,104.778134 65.7264409,109.858346 C64.9491864,112.179633 62.09465,126.89014 63.5958955,128.730927 C65.0359864,130.497271 70.6740409,128.988096 72.3903136,129.015166 C77.9455136,129.109913 83.4119409,129.166309 88.9119045,129.247521 L111.718605,128.471502 C118.524514,128.433153 123.57075,129.996468 121.179805,118.884069" id="Fill-12" fill="#116770"></path>
            <path d="M67.6792436,47.9162326 C63.6785527,52.074991 59.5811982,55.7624629 57.3500436,61.1654966 C54.7282891,67.5170191 54.7282891,75.4322663 54.7144391,82.4345191 C54.7006709,90.026373 58.1805618,94.2935865 65.4500618,96.2871876 C65.3632618,93.1281876 60.0802982,81.4189854 64.8740255,81.383491" id="Fill-13" fill="#AC1E22"></path>
            <path d="M113.788982,45.2770281 C118.215782,46.0421292 121.900836,50.4039944 124.534427,53.9593483 C130.494036,62.0067135 128.304309,74.1950899 127.627664,83.7825169 C127.428418,86.5885449 127.659227,94.5530899 124.71,95.6849663 C120.644209,97.2467191 118.251291,89.1303371 117.760082,86.4583989 C117.219555,83.5143371 119.314591,79.6474213 116.045782,78.3755393" id="Fill-14" fill="#E00B1D"></path>
            <path d="M120.184761,107.710857 C122.177215,102.094857 120.336661,92.7933573 119.725115,86.7770596 C118.663788,76.325936 119.089897,65.5573348 118.304752,55.0490258 C117.927961,50.0048798 117.801706,47.0036326 112.998115,44.4953629 C104.975034,40.3109697 92.7401791,41.7800427 83.9358973,42.6259921 C79.5880064,43.0440371 76.0094791,43.4068685 71.9476336,45.2860989 C65.0509791,48.4786213 63.88707,54.0315202 62.9736973,61.5346382 C61.5927882,72.8711494 62.4864336,84.9806494 63.0131518,96.354627 C63.2597427,101.728082 63.3642973,103.303638 64.9582609,108.243273 C67.9272155,107.620149 73.3522155,109.083307 76.6663973,108.113127" id="Fill-15" fill="#E00B1D"></path>
            <path d="M118.680359,108.839381 C122.400923,104.256662 119.676586,91.8395444 118.763214,86.1900219 C118.29765,83.3208927 118.187177,79.6314489 115.468759,77.7758815 C112.428786,75.701432 105.634714,76.9871174 102.15285,77.2336062 C94.34085,77.785741 86.6255136,78.4601343 78.7957591,78.8347972 C75.2369591,79.0043815 67.1428591,77.8705331 64.93735,81.0926343 C63.9411227,82.5479039 64.4658682,85.83705 64.41655,87.5230331 C64.28635,91.8868702 64.2133591,96.1994376 64.1226136,100.57905 C64.0515955,104.016089 64.5447773,107.198752 64.4974318,110.606213 L64.4974318,109.590679" id="Fill-16" fill="#5A3213"></path>
            <path d="M117.174774,78.7503994 C118.113792,84.4354163 119.859655,89.8759163 123.185674,94.9240062 C126.699101,100.252107 131.623028,107.701984 124.136528,112.225546 C119.680137,114.915231 112.306083,113.925332 107.127674,114.416338 C99.5307009,115.138057 91.5017009,116.179225 83.9185373,115.798647 C77.4045918,115.469338 69.0520645,117.865208 66.2014736,110.894506 C63.0056555,103.079826 63.1161282,91.0472309 64.5542464,82.9426803 C65.2052464,82.6094275 66.3336464,82.4378713 67.0753918,82.5699893 C67.3515736,86.8095961 68.2195736,91.220759 68.6377918,95.5372702 C68.9554009,98.832332 68.9810464,102.914186 70.5178009,105.838529 C73.8339555,112.152585 82.6520464,110.03081 88.5820645,110.563225 C95.1453282,111.154798 126.776037,113.422495 121.329337,99.7196916 C119.691974,95.5983994 117.723192,91.9621972 116.707237,87.4879331 C116.105555,84.8495174 116.304801,81.897568 115.292792,79.5036691" id="Fill-17" fill="#9E5625"></path>
            <path d="M105.228332,109.154666 L105.712788,108.88889 C109.113084,107.064157 112.702278,106.031695 116.332814,108.474787 C120.578123,111.330675 120.92335,118.074129 121.116677,123.386674 C121.369988,130.31686 121.583202,137.202858 121.499983,144.036952 L98.9363951,144.036115 C98.708063,138.095958 98.5551159,132.150758 98.5664318,126.175365 L98.5717506,125.378533 C98.6575421,118.246118 99.8068545,112.192524 105.228332,109.154666 Z" id="Path" fill="#2A90A8"></path>
            <path d="M64.9456355,117.324585 C68.0151991,109.401638 77.5651718,107.50451 82.7850082,113.7931 C87.0342627,118.909174 86.4424445,128.796932 86.7600536,135.634953 C86.8893806,138.424632 86.8932156,141.228214 86.8254399,144.036952 L62.7851045,144.036952 L62.7874718,143.940112 C62.9664607,135.142233 61.7672397,126.134034 64.7165707,117.937767 L64.9456355,117.324585 Z" id="Path" fill="#2A90A8"></path>
            <path d="M99.8670509,42.6445281 C99.1785691,47.6157135 92.5403418,50.0234157 88.5791055,47.450073 C85.5628055,45.4899944 84.3259055,41.6013876 84.49556,38.1880112 C88.0070145,37.994764 100.780424,35.7704494 99.49026,41.5165955" id="Fill-24" fill="#F8BC91"></path>
            <path d="M99.3845218,38.4445567 C99.0629673,43.4532084 92.6180673,46.3381129 88.4792855,44.0645006 C85.3268673,42.3311916 83.80984,38.5431522 83.7289582,35.1238601 C87.21674,34.6742646 99.7948491,31.5211803 98.9268491,37.3462028" id="Fill-25" fill="#F4A673"></path>
            <path d="M95.9091682,37.3633584 C108.392586,38.0949371 102.004895,11.223718 95.6231227,6.34718427 C91.7467136,3.38734719 82.6248227,4.38118989 79.0778591,7.38243708 C73.33525,12.2431955 75.2764136,27.8686112 79.06405,33.7330719 C81.2537773,37.1208135 90.5255955,39.962336 94.4355409,37.8484483" id="Fill-26" fill="#F8BC91"></path>
            <path d="M74.6666436,18.7313713 C74.9487436,24.0338376 75.2702982,32.0279612 77.8565436,36.7329388 C80.5118345,41.5621466 86.2169618,41.6311635 90.8508982,41.2426972 C95.2974255,40.8700062 98.7477255,41.554259 100.866435,37.4940961 C102.602435,34.1674837 102.716853,31.1721522 102.610325,27.3072084 C102.493935,23.191832 102.379516,19.4945006 101.107107,15.6354725 C100.734262,15.6591354 100.379171,15.6591354 100.00238,15.7182927 C100.053671,20.405523 101.042007,26.4021017 99.5052527,30.783686 C98.2170618,34.4534107 94.9482527,34.2976298 91.5196527,34.8892028 C84.1495436,36.1610848 80.2790527,34.3942534 78.5489709,26.8615567 C77.7677709,23.4619837 76.7163073,19.8040904 76.3040073,16.5110006" id="Fill-27" fill="#AC1E22"></path>
            <path d="M76.4582745,18.6004365 C75.8131927,14.9819815 78.28502,11.4345152 78.5592291,7.98367247 C74.5822109,8.51017247 73.57612,16.19865 74.98662,19.0086219" id="Fill-28" fill="#AC1E22"></path>
            <path d="M100.151321,18.3616382 C100.910821,15.6877281 96.9712845,10.2432843 96.0993391,7.61078427 C99.9777209,6.74314382 101.717666,13.7730034 100.916739,16.5060708" id="Fill-29" fill="#AC1E22"></path>
            <path d="M87.1435518,17.3179062 C86.5043882,20.0273107 86.7213882,25.767541 87.6564609,28.5341309 C88.3922882,30.7091478 88.8815245,31.0345129 91.3651882,30.4646309 C91.5427336,26.2112208 89.8955064,21.7369567 89.5542245,17.4401646" id="Fill-30" fill="#F4A673"></path>
            <path d="M78.1670509,9.17411461 C78.3465691,8.89213146 77.9283509,10.3750079 77.8001236,10.7161483 C83.25866,12.4928393 91.1614055,12.4198787 96.1543782,9.6020191 C96.2589327,8.90790674 96.1070327,8.1980191 95.7105145,7.63996854 C90.33286,7.77208652 85.3122691,9.8544236 79.9346145,8.7442382" id="Fill-31" fill="#F4A673"></path>
            <path d="M78.1285827,12.4035118 C78.7046191,8.32362978 83.1925736,2.92059607 87.5917555,3.03299494 C88.4498918,4.40150056 87.8778009,5.8902927 86.69811,6.86047247 C87.6923645,3.81978708 92.5334373,1.38447809 95.2597464,3.59301742 C94.6067736,5.44464101 92.6813918,7.01033764 90.7283918,7.28443315 C92.31841,6.95315225 95.9797918,4.13726461 97.5461373,5.77592191 C99.2466282,7.55655674 96.1632555,9.43578708 94.5278645,9.87355112 C96.20271,9.5757927 98.6074645,8.33348933 99.2584645,10.5006185 C94.5258918,12.6243657 83.70351,14.2649949 78.7480191,12.6578882" id="Fill-32" fill="#AC1E22"></path>
            <path d="M75.2148645,11.1036287 C74.9919464,7.31164551 81.4447373,3.63994888 84.4432827,2.48440955 C84.5636191,2.87681966 85.0252373,3.25739831 85.1455736,3.69713427 C85.2402645,1.06857809 89.0949736,0.315308427 91.2136827,0.89899382 C91.4425191,2.09988708 90.45221,2.94386461 89.3139464,3.20218483 C90.62581,2.55145449 93.8433282,0.273898315 95.3209009,1.75085899 C96.2540009,2.68160056 95.3741645,4.18616798 94.3976645,4.96507247 C96.8418736,4.71858371 98.4752918,4.98281966 97.7138191,7.80265112 C96.7925555,11.2140556 93.5868736,10.5002242 90.62581,10.8591118 C88.2841827,11.1430669 77.5663555,11.4013871 76.9390282,12.0777522" id="Fill-33" fill="#AC1E22"></path>
            <path d="M81.9314091,35.0978309 C84.2237182,29.3714039 96.7347545,27.8037354 98.1136909,34.679786 C96.0285182,35.4724938 96.2396,33.4552298 94.9652182,32.6250556 C93.7204273,31.8146006 92.3040091,32.0610893 90.8067091,32.2464489 C88.0251636,32.5895612 84.5728909,32.9523927 85.0226727,35.9713871" id="Fill-34" fill="#AC1E22"></path>
            <path d="M80.1052555,21.4754815 C79.8665555,23.1910433 84.4610373,24.2677062 84.2124736,21.1737792" id="Stroke-35" stroke="#C1632F" stroke-width="0.403" stroke-linecap="round" stroke-linejoin="round"></path>
            <path d="M92.7997555,20.5433596 C92.5610555,22.2589213 97.1555373,23.3355843 96.9069736,20.2416573" id="Stroke-36" stroke="#C1632F" stroke-width="0.403" stroke-linecap="round" stroke-linejoin="round"></path>
            <path d="M111.803629,68.8734961 C114.583202,62.9222713 126.664184,79.2477152 127.451302,82.8681421 C128.822347,89.1782545 125.644284,98.6730017 120.803211,94.8218612 C117.451547,92.1538669 114.015056,87.34635 111.665538,83.5523949 C108.698556,78.7586815 109.148338,78.74685 108.511147,73.5390354" id="Fill-37" fill="#E00B1D"></path>
            <path d="M102.342626,76.4231511 L93.9072445,76.4231511 C92.5302809,76.4231511 91.4945991,75.1709882 91.7530264,73.8202298 L95.3098536,55.1580725 C95.5051536,54.1228197 96.4106355,53.3754657 97.4640718,53.3754657 L105.899454,53.3754657 C107.274445,53.3754657 108.312099,54.6256567 108.053672,55.9783871 L104.496845,74.6405444 C104.301545,75.6757972 103.396063,76.4231511 102.342626,76.4231511" id="Fill-38" fill="#FFFFFF"></path>
            <path d="M113.617355,69.5715522 C112.824318,66.5170635 109.510136,62.1551983 106.596418,61.1258612 C104.899873,60.5264006 100.321173,60.1911758 98.8810818,61.285586 C96.0304909,63.4546871 100.041045,63.7169511 101.631064,64.6555803 C97.0129091,63.0879118 95.6063545,66.3179006 100.780818,67.1914567 C99.2795727,66.9035579 96.6124455,67.0120129 96.6222818,69.116041 C96.6302,70.9716084 99.1414818,70.9341421 100.6664,71.2535916 C99.3486182,71.3186646 95.5254727,70.9085073 97.5455455,72.7463275 C98.6581636,73.7598893 103.094827,74.4796365 104.649336,74.9134567 C106.347855,75.3886871 107.8274,75.5168612 109.239873,76.5600017 C110.376164,77.3980635 111.092264,78.7350185 112.415964,79.3778612 C114.2723,76.2405522 115.846536,71.7169904 113.021591,68.6151758" id="Fill-39" fill="#F8BC91"></path>
            <path d="M69.5296618,86.9837157 C79.9417164,87.0349854 90.3813891,87.636418 100.785553,87.5200753 C105.121607,87.4707775 109.31168,86.5183449 113.677325,86.7510303 C113.835144,87.0172382 114.131053,87.8198056 114.170507,88.0939011 C110.156007,89.0916876 105.539825,89.2060584 101.385262,89.1922551 C95.9208073,89.172536 90.3873073,89.3815584 84.8833982,89.194227 C83.2519527,89.1370416 68.8944436,89.9928506 68.4308527,88.9043562" id="Fill-40" fill="#381C0A"></path>
            <path d="M68.4316418,94.3927736 C66.7567964,93.7420433 64.2691873,94.0575489 62.4286327,94.1660039 C62.64366,95.546341 62.9158964,97.2086612 62.9829691,98.7428073 C64.9379418,98.8414028 66.9856327,98.8433747 68.9386327,98.7428073 C68.8616964,97.3782455 69.0589691,95.9841051 69.2542691,94.6668691" id="Fill-41" fill="#381C0A"></path>
            <path d="M81.7080964,13.2816034 C84.9709873,11.4043449 88.6520964,10.373036 89.2498327,5.95990112 C87.9182418,5.42551348 86.4091055,6.12356966 85.4562782,7.07797416 C89.2873145,3.86178876 85.6140964,2.31383933 83.77946,5.69172135 C84.6987509,5.03310337 85.6042327,3.83221011 85.7719145,2.69441798 C82.2012782,1.20365393 76.9774964,5.42156966 75.8727691,8.56479438 C75.2691145,10.2843 74.8706236,10.9803843 76.1765691,12.060991 C77.5278873,13.179064 81.6035418,14.3208 83.1402964,13.2816034" id="Fill-42" fill="#7A1715"></path>
            <path d="M71.1084355,77.9482264 C69.4947445,81.1703275 73.2153082,85.108232 75.1604173,80.9376421 C76.5807809,84.4693331 80.5992264,83.6214118 79.4293991,80.4091702 C82.8205173,87.6638275 85.4363536,74.3179399 80.04489,78.3130298 C78.8198264,76.3943612 77.3067445,76.2425242 76.0126355,77.8792096 C74.2707173,75.9467376 71.8482082,75.7495466 71.1084355,78.506277" id="Fill-43" fill="#F4A673"></path>
            <path d="M4.25428636,52.4348646 C3.82225909,52.3126062 4.65277727,52.5492354 4.74352273,52.5748702" id="Fill-44" fill="#353535"></path>
            <path d="M58.1884527,2.6325 L45.0224709,2.6325 C44.29848,2.6325 43.7066618,2.04092697 43.7066618,1.31723596 C43.7066618,0.591573034 44.29848,-1.38555833e-13 45.0224709,-1.38555833e-13 L58.1884527,-1.38555833e-13 C58.9124436,-1.38555833e-13 59.5042618,0.591573034 59.5042618,1.31723596 C59.5042618,2.04092697 58.9124436,2.6325 58.1884527,2.6325" id="Fill-45" fill="#767676" opacity="0.3"></path>
            <path d="M309.208799,18.4241478 L222.320026,18.4241478 C221.160063,18.4241478 220.213154,17.4776309 220.213154,16.3181478 C220.213154,15.1606365 221.160063,14.2121478 222.320026,14.2121478 L309.208799,14.2121478 C310.36679,14.2121478 311.315672,15.1606365 311.315672,16.3181478 C311.315672,17.4776309 310.36679,18.4241478 309.208799,18.4241478" id="Fill-3" fill="#767676" opacity="0.3"></path>
            <path d="M369.667958,27.9660236 L282.777213,27.9660236 C281.619222,27.9660236 280.67034,27.0195067 280.67034,25.8600236 C280.67034,24.7025124 281.619222,23.7540236 282.777213,23.7540236 L369.667958,23.7540236 C370.825949,23.7540236 371.772858,24.7025124 371.772858,25.8600236 C371.772858,27.0195067 370.825949,27.9660236 369.667958,27.9660236" id="Fill-5" fill="#767676" opacity="0.3"></path>
            <path d="M230.481791,2.6325 L217.315809,2.6325 C216.591818,2.6325 216,2.04092697 216,1.31723596 C216,0.591573034 216.591818,-1.38555833e-13 217.315809,-1.38555833e-13 L230.481791,-1.38555833e-13 C231.205782,-1.38555833e-13 231.7976,0.591573034 231.7976,1.31723596 C231.7976,2.04092697 231.205782,2.6325 230.481791,2.6325" id="Fill-45" fill="#767676" opacity="0.3"></path>
            <path d="M110.980015,79.3011539 C110.415815,78.7628225 109.962088,78.0016652 109.443261,77.3805135 C110.983961,74.9156258 112.996143,70.1633225 112.615406,67.0496764 C113.958834,68.4339573 115.68497,69.2680753 115.649461,71.4805584 C115.613952,73.7147326 113.404497,77.6782719 111.802643,79.3011539" id="Fill-46" fill="#AC1E22"></path>
            <path d="M95.2676373,23.638864 L94.6679282,25.7271169 C94.6679282,25.7271169 94.5633736,27.499864 95.8160555,27.0818191 C97.0687373,26.6657461 95.2676373,23.638864 95.2676373,23.638864" id="Fill-47" fill="#6CB6D0"></path>
            <path d="M97.2510173,25.6608607 L96.6513082,27.7471416 C96.6513082,27.7471416 96.5467536,29.5218607 97.7994355,29.1038157 C99.0521173,28.6877427 97.2510173,25.6608607 97.2510173,25.6608607" id="Fill-48" fill="#6CB6D0"></path>
        </g>
    </g>
</svg>