<svg xmlns="http://www.w3.org/2000/svg" width="48" height="48" version="1.1" viewBox="0 0 48 48">
  <path fill="none" fill-rule="evenodd" stroke="#000" stroke-width="1" d="M33.5,23.5068 C33.5,28.4758 29.502,32.4998 24.521,32.4998 C19.539,32.4998 15.5,28.4728 15.5,23.5038 C15.5,18.5348 19.487,14.4998 24.468,14.4998 C29.45,14.4998 33.5,18.5388 33.5,23.5068 Z M5,23.5 L13,23.5 M11,10 L16,15 M24.5,4 L24.5,12 M38,10 L33,15 M44,23.5 L36,23.5 M24.5,35 L24.5,43 M11,37 L16,32.106 M38,37 L33,32 M30.5,24 C30.264,26.915 27.921,29.26 25,29.5"/>
</svg>
