<?xml version="1.0" encoding="utf-8"?>
<!-- Generator: Adobe Illustrator 24.2.0, SVG Export Plug-In . SVG Version: 6.00 Build 0)  -->
<svg version="1.0" id="Ebene_1" xmlns="http://www.w3.org/2000/svg" xmlns:xlink="http://www.w3.org/1999/xlink" x="0px" y="0px"
	 viewBox="0 0 24 24" enable-background="new 0 0 24 24" xml:space="preserve">
<g id="SVG_x5F_24x24pt">
	<path id="backgroundBlue" fill="#2D327D" d="M0,22.5v-21C0,0.675,0.675,0,1.5,0h21C23.325,0,24,0.675,24,1.5v21
		c0,0.825-0.675,1.5-1.5,1.5h-21C0.675,24,0,23.325,0,22.5z"/>
	<g id="content">
		<path fill="#FFFFFF" d="M8.624,14.787v-2.49c0-0.642,0.521-1.163,1.162-1.163c0.175,0,0.348,0.04,0.506,0.116l2.143,1.036
			l-1.133,0.744l-1.452-0.702l-0.147,0.304l1.27,0.614L8.624,14.787L8.624,14.787z"/>
		<path fill="#FFFFFF" d="M12.749,12.08V9.59c0-0.642,0.521-1.162,1.163-1.162c0.175,0,0.348,0.04,0.506,0.116l2.143,1.036
			l-1.133,0.744l-1.452-0.702l-0.147,0.304l1.27,0.614L12.749,12.08L12.749,12.08z"/>
		<path fill="#FFFFFF" d="M5.624,21c-1.449,0-2.625-1.176-2.625-2.625c0-1.449,1.176-2.625,2.625-2.625h2.564
			c0.219,0,0.434-0.064,0.617-0.184l12.194-8.002v5.562L8.999,21H5.624L5.624,21z"/>
		<path fill="#FFFFFF" d="M16.874,9.373v-2.49c0-0.642,0.521-1.162,1.163-1.162c0.175,0,0.348,0.04,0.506,0.116l2.143,1.036
			l-1.133,0.744l-1.452-0.702l-0.147,0.304l1.27,0.614L16.874,9.373L16.874,9.373z"/>
		<path fill="#FFFFFF" d="M17.058,4.488c0-0.538,0.437-0.975,0.975-0.975c0.538,0,0.975,0.437,0.975,0.975
			c0,0.538-0.437,0.975-0.975,0.975C17.494,5.463,17.058,5.027,17.058,4.488L17.058,4.488z"/>
		<path fill="#FFFFFF" d="M12.933,7.158c0-0.538,0.437-0.975,0.975-0.975c0.538,0,0.975,0.437,0.975,0.975
			c0,0.538-0.437,0.975-0.975,0.975C13.37,8.133,12.933,7.696,12.933,7.158L12.933,7.158z"/>
		<path fill="#FFFFFF" d="M8.808,9.828c0-0.538,0.437-0.975,0.975-0.975c0.538,0,0.975,0.437,0.975,0.975
			c0,0.538-0.437,0.975-0.975,0.975C9.245,10.803,8.808,10.366,8.808,9.828L8.808,9.828z"/>
	</g>
</g>
</svg>
