<svg class="color-immutable" xmlns="http://www.w3.org/2000/svg" width="59" height="20" fill="none" viewBox="0 0 59 20"><g clip-path="url(#a)"><path fill="#000" fill-rule="evenodd" d="M2 0a2 2 0 0 0-2 2v16a2 2 0 0 0 2 2h55a2 2 0 0 0 2-2V2a2 2 0 0 0-2-2z" clip-rule="evenodd"/><path fill="#FFDE15" d="M4.16 4.235h5.6q1.662 0 2.547.522.735.428 1.124 1.14.387.712.387 1.605 0 1.012-.49 1.764-.483.752-1.353 1.076a1.95 1.95 0 0 1 1.203.854q.276.42.371.878.095.459.245 2.097.111 1.202.34 1.495l.111.134h-2.634a2 2 0 0 1-.197-.625q-.056-.38-.15-1.756-.095-1.226-.602-1.693-.499-.474-1.708-.474h-2.27V15.8H4.16zm2.523 1.986V9.4h2.413q1.162 0 1.637-.333.601-.418.601-1.265.001-.824-.514-1.203-.514-.38-1.621-.38zM24.647 4.235v2.136h-6.154V8.84h5.64v1.986h-5.64v2.84h6.265V15.8H15.97V4.235zM36.252 4.235V15.8h-2.54l-4.84-7.879.03 7.879h-2.428V4.235h2.571l4.81 7.863-.032-7.863zM37.952 7.898q.04-1.424.704-2.39 1.076-1.55 3.235-1.55 1.662 0 2.682.847 1.1.918 1.1 2.373 0 .87-.436 1.503a2.1 2.1 0 0 1-1.162.846q.933.214 1.47.95.547.735.547 1.78 0 1.716-1.266 2.807-1.17 1.013-2.958 1.013-1.938 0-3.077-1.116-1.132-1.115-1.131-3.013v-.15h2.222q0 1.067.507 1.653.506.577 1.431.577.926 0 1.424-.546a1.78 1.78 0 0 0 .459-1.226q0-.855-.586-1.352-.482-.412-1.487-.412-.285 0-.561.032v-1.7q.206.015.395.015 1.994 0 1.994-1.48 0-.648-.435-1.043-.436-.404-1.147-.404-.816 0-1.258.507-.443.505-.475 1.479z"/></g><defs><clipPath id="a"><path fill="#fff" d="M0 0h59v20H0z"/></clipPath></defs></svg>