<svg xmlns="http://www.w3.org/2000/svg" width="36" height="36" viewBox="0 0 36 36">
  <path fill="none" stroke="#000" d="M21.84375,21.38235 L24.50025,18.73635 C25.08525,18.14985 25.08525,17.19885 24.50025,16.61235 C23.91225,16.02585 22.96125,16.02585 22.37475,16.61235 L19.71825,19.27185 L27.68175,11.31135 C28.26825,10.72485 28.26825,9.77385 27.68175,9.18735 C27.09525,8.60085 26.14275,8.60085 25.55775,9.18735 L15.75075,18.74985 L15.75375,14.25285 C15.75375,13.42185 15.08175,12.74985 14.25225,12.74985 C13.42275,12.74985 12.98325,13.35735 12.75075,14.25285 L9.74925,24.74985 L17.18175,32.62785 C17.18175,32.62785 19.79325,31.92435 22.90875,28.80885 C26.02425,25.69335 26.62275,25.10085 26.62275,25.10085 C27.20925,24.51585 27.20925,23.56335 26.62275,22.97685 C26.03625,22.39035 25.08375,22.39035 24.49875,22.97685 L23.96775,23.50635 L25.56225,21.91335 C26.14725,21.32685 26.14725,20.37585 25.56225,19.78935 C24.97425,19.20285 24.02325,19.20285 23.43675,19.78935 M17.25,10.5 L17.25,3 M21,9 L24,4.5 M13.5,9 L10.5,4.5"/>
</svg>
