<svg class="color-immutable" xmlns="http://www.w3.org/2000/svg" width="59" height="20" fill="none" viewBox="0 0 59 20"><g clip-path="url(#a)"><path stroke="#000" d="M2 .5h55A1.5 1.5 0 0 1 58.5 2v16a1.5 1.5 0 0 1-1.5 1.5H2A1.5 1.5 0 0 1 .5 18V2A1.5 1.5 0 0 1 2 .5Z"/><path fill="#000" d="M12.877 7.713h-2.449q-.072-.862-.644-1.314-.564-.459-1.587-.459-.91 0-1.418.363-.5.355-.5.999 0 .58.483.838.468.258 2.37.725 2.005.499 2.779 1.007 1.425.934 1.426 2.602 0 1.829-1.434 2.884-1.266.927-3.424.927-2.401 0-3.73-1.096-1.33-1.095-1.378-3.118h2.562q.056.984.507 1.459.71.756 2.135.757.967 0 1.531-.379.636-.435.636-1.184 0-.75-.894-1.096-.49-.193-2.32-.7-1.144-.315-1.789-.597-.644-.282-1.031-.628-.903-.806-.902-2.224 0-1.7 1.41-2.69 1.2-.847 3.118-.847 1.683 0 2.82.669 1.635.959 1.723 3.102M23.19 13.828v2.175h-8.33V4.224h2.57v9.604zM32.036 4.224v1.998q-.096.105-.572.653-.66.757-1.313 1.91a13 13 0 0 0-1.015 2.199q-.766 2.199-.927 5.019h-2.433q.024-1.33.46-2.949.442-1.62 1.216-3.239 1.104-2.287 2.24-3.408h-5.56V4.224zM41.51 13.908v2.095h-8.483q0-.96.306-1.829.315-.87.878-1.498.435-.484 1.016-.943.588-.459 2.328-1.684.846-.588 1.184-1.096.339-.507.339-1.176 0-.774-.46-1.249-.45-.483-1.192-.483-1.821 0-1.877 2.618h-2.264v-.257q0-2.144 1.2-3.32 1.169-1.144 3.022-1.144 1.643 0 2.747.935 1.2 1.015 1.2 2.73 0 1.5-.958 2.579-.315.354-.589.572-.273.21-1.442 1.023-1.111.773-1.595 1.185a6.5 6.5 0 0 0-.886.942z"/></g><defs><clipPath id="a"><path fill="#fff" d="M0 0h59v20H0z"/></clipPath></defs></svg>