<svg width="36" height="36" viewBox="0 0 36 36" fill="none" xmlns="http://www.w3.org/2000/svg"><path fill-rule="evenodd" clip-rule="evenodd" d="M3 10.25h30v-1H3v1Zm0 3.03h3.25v6.667a22.922 22.922 0 0 0-2.834 2.18l.668.745C8.19 19.194 12.5 17.75 18 17.75c5.499 0 9.81 1.444 13.916 5.122l.668-.744a22.926 22.926 0 0 0-2.834-2.18V13.28H33v-1H3v1Zm25.75 6.06v-6.06h-3.5v4.414h-.325c1.325.404 2.594.947 3.825 1.646Zm-4.5-1.84v-4.22h-3.5v3.599c1.215.119 2.378.323 3.5.622Zm-4.5-.7V13.28h-3.5V16.8c.571-.034 1.154-.05 1.75-.05.596 0 1.179.017 1.75.05Zm-4.5.079V13.28h-3.5v4.22a21.834 21.834 0 0 1 3.5-.621Zm-4.5.917V13.28h-3.5V19.34a18.857 18.857 0 0 1 3.5-1.544Z" fill="#000"/></svg>