<svg xmlns="http://www.w3.org/2000/svg" width="36" height="36" fill="none" viewBox="0 0 36 36"><path fill="#000" fill-rule="evenodd" d="M3 10.25h30v-1H3zm0 3.03h3.25v6.667a23 23 0 0 0-2.834 2.18l.668.745C8.19 19.194 12.5 17.75 18 17.75s9.81 1.444 13.916 5.122l.668-.744a23 23 0 0 0-2.834-2.18V13.28H33v-1H3zm25.75 6.06v-6.06h-3.5v4.414h-.325c1.325.404 2.594.947 3.825 1.646m-4.5-1.84v-4.22h-3.5v3.599c1.215.119 2.378.323 3.5.622m-4.5-.7v-3.52h-3.5v3.52q.856-.05 1.75-.05t1.75.05m-4.5.079V13.28h-3.5v4.22a22 22 0 0 1 3.5-.621m-4.5.917V13.28h-3.5v6.06a19 19 0 0 1 3.5-1.544" clip-rule="evenodd"/></svg>