<svg class="color-immutable" xmlns="http://www.w3.org/2000/svg" width="59" height="20" fill="none" viewBox="0 0 59 20"><path fill="#EB0000" fill-rule="evenodd" d="M2 0a2 2 0 0 0-2 2v16a2 2 0 0 0 2 2h55a2 2 0 0 0 2-2V2a2 2 0 0 0-2-2z" clip-rule="evenodd"/><path fill="#fff" fill-rule="evenodd" d="M12.966 15.78h-2.23L7.594 7.964 5.96 15.78H3.73L6.158 4.148h2.238l3.15 7.784 1.626-7.784h2.222zm9.469-11.632h2.349l-1.468 7.046q-.588 2.8-1.54 3.793-.951.99-2.927.991-1.675 0-2.508-.77-.833-.768-.833-2.094 0-.277.04-.619l2.214-.238a4.4 4.4 0 0 0-.048.58q0 .555.317.848.318.294.976.294.921 0 1.293-.54.278-.413.675-2.325z" clip-rule="evenodd"/></svg>