<svg xmlns="http://www.w3.org/2000/svg" width="24" height="24" fill="none" viewBox="0 0 24 24"><path fill="#000" fill-rule="evenodd" d="M15 6h2v15H7v-9H6V7h1V6h7V3h1zM8 7v13h8V7zm7 7v1H9v-1zm-6 2v1h6v-1zm6 2v1H9v-1zm-4-8c0-.23.111-.483.314-.686S11.771 9 12 9s.483.111.686.314S13 9.771 13 10s-.111.483-.314.686c-.202.203-.455.314-.684.314s-.483-.112-.687-.315C11.112 10.482 11 10.23 11 10m1-2c-.542 0-1.038.253-1.393.607C10.253 8.962 10 9.458 10 10s.254 1.039.609 1.393c.354.354.851.607 1.393.607s1.038-.253 1.392-.608c.354-.354.606-.85.606-1.392s-.253-1.038-.607-1.393C13.038 8.253 12.542 8 12 8" clip-rule="evenodd"/></svg>