<svg xmlns="http://www.w3.org/2000/svg" width="48" height="48" fill="none" viewBox="0 0 48 48"><path fill="#000" fill-rule="evenodd" d="M44 16H4v-1h40zM7 19H4v-1h40v1h-3v10.95c1.15.83 2.262 1.726 3.332 2.676l-.664.748C38.068 28.399 31.381 25 24 25S9.932 28.4 4.332 33.374l-.664-.748A42 42 0 0 1 7 29.95zm1 10.252a34 34 0 0 1 5-2.803V19H8zm6-3.232a27.6 27.6 0 0 1 5.004-1.52L19 19h-5zm6.004-1.7a25.2 25.2 0 0 1 8 0L28 19h-8zm9 .181c1.715.345 3.382.86 4.996 1.519V19h-5zM35 26.45a34 34 0 0 1 5 2.803V19h-5z" clip-rule="evenodd"/></svg>