<svg width="48" height="48" viewBox="0 0 48 48" fill="none" xmlns="http://www.w3.org/2000/svg"><path fill-rule="evenodd" clip-rule="evenodd" d="M44 16H4v-1h40v1ZM7 19H4v-1h40v1h-3v10.95c1.15.83 2.262 1.726 3.332 2.676l-.664.748C38.068 28.399 31.381 25 24 25c-7.381 0-14.068 3.4-19.668 8.374l-.664-.748A42.11 42.11 0 0 1 7 29.95V19Zm1 10.252a33.868 33.868 0 0 1 5-2.803V19H8v10.252Zm6-3.232a27.636 27.636 0 0 1 5.004-1.52L19 19h-5v7.02Zm6.004-1.7a25.225 25.225 0 0 1 8 0L28 19h-8l.004 5.32Zm9 .181c1.715.345 3.382.86 4.996 1.519V19h-5l.004 5.502ZM35 26.45a33.86 33.86 0 0 1 5 2.803V19h-5v7.449Z" fill="#000"/></svg>