<svg class="color-immutable" xmlns="http://www.w3.org/2000/svg" width="59" height="20" fill="none" viewBox="0 0 59 20"><g clip-path="url(#a)"><path stroke="#000" d="M2 .5h55A1.5 1.5 0 0 1 58.5 2v16a1.5 1.5 0 0 1-1.5 1.5H2A1.5 1.5 0 0 1 .5 18V2A1.5 1.5 0 0 1 2 .5Z"/><path fill="#000" d="M4.069 4.224h5.704q1.692 0 2.594.531.749.435 1.144 1.16.395.727.395 1.636 0 1.032-.5 1.797-.491.765-1.377 1.095.78.195 1.224.87.282.427.379.895.097.467.25 2.135.112 1.224.346 1.523l.113.137h-2.683a2 2 0 0 1-.201-.637q-.058-.387-.154-1.788-.096-1.25-.612-1.725-.507-.483-1.74-.483H6.639v4.633h-2.57zm2.57 2.022v3.239h2.457q1.184 0 1.668-.339.612-.426.612-1.289 0-.837-.524-1.224t-1.651-.387zM24.436 13.827v2.176h-8.33V4.223h2.57v9.604zM25.338 7.954q.04-1.45.717-2.433 1.096-1.58 3.295-1.58 1.692 0 2.731.863 1.12.935 1.12 2.417 0 .885-.443 1.53a2.14 2.14 0 0 1-1.184.863q.95.218 1.498.966.556.75.556 1.813 0 1.75-1.289 2.86-1.192 1.032-3.013 1.032-1.973-.001-3.134-1.136-1.152-1.137-1.152-3.07v-.153h2.264q0 1.087.516 1.684.515.588 1.458.588.942 0 1.45-.556.468-.524.467-1.249 0-.87-.596-1.378-.491-.418-1.515-.418-.29 0-.572.032V8.897q.21.015.403.016 2.03 0 2.03-1.507 0-.66-.443-1.063-.442-.411-1.168-.411-.83 0-1.28.515-.453.516-.484 1.507zM42.757 13.908v2.095h-8.484q0-.96.306-1.83.315-.87.878-1.498a8 8 0 0 1 1.015-.943q.588-.459 2.329-1.683.846-.588 1.184-1.096a2.07 2.07 0 0 0 .339-1.176q0-.774-.46-1.25-.45-.482-1.192-.482-1.821 0-1.877 2.618H34.53v-.258q0-2.143 1.2-3.32 1.169-1.143 3.021-1.143 1.644 0 2.748.934 1.2 1.015 1.2 2.732 0 1.498-.959 2.578-.314.354-.588.572-.273.21-1.442 1.023-1.112.773-1.595 1.184a6.5 6.5 0 0 0-.886.943z"/></g><defs><clipPath id="a"><path fill="#fff" d="M0 0h59v20H0z"/></clipPath></defs></svg>