<svg width="24" height="24" viewBox="0 0 24 24" fill="none" xmlns="http://www.w3.org/2000/svg"><path fill-rule="evenodd" clip-rule="evenodd" d="M6 3.5a.5.5 0 0 1 .5-.5h12a.5.5 0 0 1 .5.5v17a.5.5 0 0 1-.5.5h-12a.5.5 0 0 1-.5-.5v-17ZM6.5 2A1.5 1.5 0 0 0 5 3.5v17A1.5 1.5 0 0 0 6.5 22h12a1.5 1.5 0 0 0 1.5-1.5v-17A1.5 1.5 0 0 0 18.5 2h-12Zm1 2H7v4h11V4H7.5ZM8 7V5h9v2H8Zm.5 3a.5.5 0 1 0 0 1 .5.5 0 0 0 0-1Zm-1.5.5a1.5 1.5 0 1 1 3 0 1.5 1.5 0 0 1-3 0Zm5 0a.5.5 0 1 1 1 0 .5.5 0 0 1-1 0Zm.5-1.5a1.5 1.5 0 1 0 0 3 1.5 1.5 0 0 0 0-3Zm4 1a.5.5 0 1 0 0 1 .5.5 0 0 0 0-1Zm-1.5.5a1.5 1.5 0 1 1 3 0 1.5 1.5 0 0 1-3 0Zm-7 4a.5.5 0 1 1 1 0 .5.5 0 0 1-1 0Zm.5-1.5a1.5 1.5 0 1 0 0 3 1.5 1.5 0 0 0 0-3Zm4 1a.5.5 0 1 0 0 1 .5.5 0 0 0 0-1Zm-1.5.5a1.5 1.5 0 1 1 3 0 1.5 1.5 0 0 1-3 0Zm-3 4a.5.5 0 1 1 1 0 .5.5 0 0 1-1 0Zm.5-1.5a1.5 1.5 0 1 0 0 3 1.5 1.5 0 0 0 0-3Zm4 1a.5.5 0 1 0 0 1 .5.5 0 0 0 0-1Zm-1.5.5a1.5 1.5 0 1 1 3 0 1.5 1.5 0 0 1-3 0Zm5-4a.5.5 0 0 1 1 0v4a.5.5 0 0 1-1 0v-4Zm.5-1.5a1.5 1.5 0 0 0-1.5 1.5v4a1.5 1.5 0 0 0 3 0v-4a1.5 1.5 0 0 0-1.5-1.5Z" fill="#000"/></svg>