<svg xmlns="http://www.w3.org/2000/svg" width="24" height="24" fill="none" viewBox="0 0 24 24"><path fill="#000" fill-rule="evenodd" d="M6 3.5a.5.5 0 0 1 .5-.5h12a.5.5 0 0 1 .5.5v17a.5.5 0 0 1-.5.5h-12a.5.5 0 0 1-.5-.5zM6.5 2A1.5 1.5 0 0 0 5 3.5v17A1.5 1.5 0 0 0 6.5 22h12a1.5 1.5 0 0 0 1.5-1.5v-17A1.5 1.5 0 0 0 18.5 2zm1 2H7v4h11V4H7.5M8 7V5h9v2zm.5 3a.5.5 0 1 0 0 1 .5.5 0 0 0 0-1m-1.5.5a1.5 1.5 0 1 1 3 0 1.5 1.5 0 0 1-3 0m5 0a.5.5 0 1 1 1 0 .5.5 0 0 1-1 0m.5-1.5a1.5 1.5 0 1 0 0 3 1.5 1.5 0 0 0 0-3m4 1a.5.5 0 1 0 0 1 .5.5 0 0 0 0-1m-1.5.5a1.5 1.5 0 1 1 3 0 1.5 1.5 0 0 1-3 0m-7 4a.5.5 0 1 1 1 0 .5.5 0 0 1-1 0m.5-1.5a1.5 1.5 0 1 0 0 3 1.5 1.5 0 0 0 0-3m4 1a.5.5 0 1 0 0 1 .5.5 0 0 0 0-1m-1.5.5a1.5 1.5 0 1 1 3 0 1.5 1.5 0 0 1-3 0m-3 4a.5.5 0 1 1 1 0 .5.5 0 0 1-1 0m.5-1.5a1.5 1.5 0 1 0 0 3 1.5 1.5 0 0 0 0-3m4 1a.5.5 0 1 0 0 1 .5.5 0 0 0 0-1m-1.5.5a1.5 1.5 0 1 1 3 0 1.5 1.5 0 0 1-3 0m5-4a.5.5 0 0 1 1 0v4a.5.5 0 0 1-1 0zm.5-1.5a1.5 1.5 0 0 0-1.5 1.5v4a1.5 1.5 0 0 0 3 0v-4a1.5 1.5 0 0 0-1.5-1.5" clip-rule="evenodd"/></svg>