<svg width="24" height="24" viewBox="0 0 24 24" fill="none" xmlns="http://www.w3.org/2000/svg"><path fill-rule="evenodd" clip-rule="evenodd" d="M10.5 3H10V4.277c-.709.213-1.31.54-1.813.943l.626.78c.73-.584 1.752-1 3.187-1 2.037 0 3.262.838 3.994 1.855C16.744 7.897 17 9.163 17 10v5h1v-5c0-.997-.295-2.48-1.194-3.73A5.26 5.26 0 0 0 14 4.277V3h-3.5ZM13 4.064V4h-.942c.33.002.644.024.942.064ZM11.942 4H11v.064c.298-.04.612-.062.942-.064ZM7.135 8.843C7.04 9.272 7 9.672 7 10V16c0 .875-.28 1.53-.696 2H16.293L7.135 8.843Zm-.814-.815C6.09 8.748 6 9.444 6 10V16c0 .837-.338 1.312-.73 1.594-.417.3-.933.406-1.27.406v1H9.044a2.21 2.21 0 0 0 .895 1.423c.565.409 1.306.577 2.061.577.756 0 1.496-.168 2.061-.577A2.21 2.21 0 0 0 14.956 19H17.293l1.354 1.354.707-.707-15-15-.708.707 2.675 2.674ZM13.917 19h.01a1.2 1.2 0 0 1-.452.613c-.34.245-.85.387-1.475.387-.625 0-1.135-.142-1.475-.387a1.2 1.2 0 0 1-.452-.613H13.917Z" fill="#000"/></svg>