<svg xmlns="http://www.w3.org/2000/svg" width="16" height="16" fill="none" viewBox="0 0 16 16"><path fill="#000" d="M8.01 1c2.282 0 4.03 2.074 4.03 4.49 0 2.024-1.207 3.78-2.927 4.318l.296.39.607.802H8.51v4h-1v-4H6.004l.608-.802.295-.39C5.187 9.269 3.98 7.514 3.98 5.49 3.98 3.15 5.723 1 8.01 1m0 1C6.398 2 4.98 3.57 4.98 5.49c0 1.809 1.161 3.202 2.586 3.446l.003-.003.292.042c.028.004.071.004.15.004.077 0 .12 0 .149-.004l.292-.042.005.005c1.423-.244 2.582-1.64 2.583-3.448C11.04 3.507 9.628 2 8.01 2M8 3.763c-.237.064-.497.255-.726.603-.227.345-.402.815-.479 1.363l-.99-.138c.094-.671.313-1.287.634-1.775.319-.484.76-.872 1.302-1.018z"/></svg>