<?xml version="1.0" encoding="utf-8"?>
<!-- Generator: Adobe Illustrator 24.2.0, SVG Export Plug-In . SVG Version: 6.00 Build 0)  -->
<svg version="1.0" id="Ebene_1" xmlns="http://www.w3.org/2000/svg" xmlns:xlink="http://www.w3.org/1999/xlink" x="0px" y="0px"
	 viewBox="0 0 24 24" enable-background="new 0 0 24 24" xml:space="preserve">
<g id="SVG_x5F_24x24pt">
	<path id="backgroundGreen" fill="#237F52" d="M0,22.5v-21C0,0.675,0.675,0,1.5,0h21C23.325,0,24,0.675,24,1.5v21
		c0,0.825-0.675,1.5-1.5,1.5h-21C0.675,24,0,23.325,0,22.5z"/>
	<g id="content">
		<path fill="#FFFFFF" d="M8.185,3v10.322H5.101c-0.573,0-1.036,0.464-1.036,1.035c0,0.573,0.463,1.035,1.036,1.037l3.083-0.001
			v4.365L6.945,21h6.023l0.99-1.056c0.257-0.274,0.799-0.393,1.211-0.263c0.411,0.129,0.535,0.457,0.278,0.733L14.897,21h3.791
			l1.248-1.243V3H8.185z M18.143,4.613c0.746,0,1.351,0.604,1.351,1.35c0,0.745-0.605,1.35-1.351,1.35
			c-0.744,0-1.349-0.605-1.349-1.35C16.793,5.217,17.398,4.613,18.143,4.613z M19.161,11.933h-2.458c-0.287,0-0.52-0.232-0.52-0.52
			V9.474l-2.277,2.279l2.075,2.075c0.131,0.132,0.202,0.306,0.202,0.491v4.193c0,0.382-0.31,0.693-0.692,0.693
			c-0.382,0-0.693-0.311-0.693-0.693v-3.809l-2.608-2.606l-2.751,2.751c-0.13,0.131-0.306,0.202-0.489,0.202H5.101
			c-0.383,0-0.692-0.31-0.692-0.692c0-0.384,0.309-0.693,0.692-0.693h3.463l5.922-5.923h-1.372L11.188,9.67
			c-0.092,0.091-0.215,0.141-0.344,0.141c-0.268,0-0.485-0.218-0.485-0.484c0-0.13,0.051-0.253,0.142-0.343l2.043-2.043
			c0.129-0.13,0.306-0.204,0.49-0.204h2.42c0.958,0,1.733,0.776,1.733,1.732v2.424h1.973c0.288,0,0.52,0.232,0.52,0.519
			C19.681,11.701,19.448,11.933,19.161,11.933z"/>
	</g>
</g>
</svg>
