<?xml version="1.0" encoding="utf-8"?>
<!-- Generator: Adobe Illustrator 24.2.0, SVG Export Plug-In . SVG Version: 6.00 Build 0)  -->
<svg version="1.0" id="Ebene_1" xmlns="http://www.w3.org/2000/svg" xmlns:xlink="http://www.w3.org/1999/xlink" x="0px" y="0px"
	 viewBox="0 0 24 24" enable-background="new 0 0 24 24" xml:space="preserve">
<g id="SVG_x5F_24x24pt">
	<path id="backgroundBlue" fill="#2D327D" d="M0,22.5v-21C0,0.675,0.675,0,1.5,0h21C23.325,0,24,0.675,24,1.5v21
		c0,0.825-0.675,1.5-1.5,1.5h-21C0.675,24,0,23.325,0,22.5z"/>
	<g id="content">
		<path fill="#FFFFFF" d="M3,7.875V21h18V7.875H3L3,7.875z M19.875,19.875H4.125V9h15.75V19.875L19.875,19.875z"/>
		<path fill="#FFFFFF" d="M7.125,19.125h9.749C17.496,19.125,18,18.622,18,18v-5.7c0-0.619-0.504-1.124-1.126-1.124H13.8v-0.487
			c0-0.518-0.421-0.939-0.938-0.939h-1.725c-0.517,0-0.936,0.421-0.936,0.939v0.487H7.125C6.504,11.176,6,11.681,6,12.3V18
			C6,18.622,6.504,19.125,7.125,19.125L7.125,19.125z M10.875,10.426h2.25v0.75h-2.25V10.426L10.875,10.426z"/>
		<path id="Schlüssel" fill="#FFFFFF" d="M9.375,5.438l0.75,0.75l0.75-0.75l0.75,0.75l0.938-0.938l-0.938-0.938H7.336
			c-0.358-0.796-1.157-1.35-2.086-1.35c-1.263,0-2.287,1.024-2.287,2.287c0,1.263,1.024,2.287,2.287,2.287
			c0.929,0,1.728-0.554,2.086-1.35h1.289L9.375,5.438z M4.125,6c-0.414,0-0.75-0.336-0.75-0.75c0-0.414,0.336-0.75,0.75-0.75
			s0.75,0.336,0.75,0.75C4.875,5.664,4.539,6,4.125,6z"/>
	</g>
</g>
</svg>
