<svg class="color-immutable" xmlns="http://www.w3.org/2000/svg" width="59" height="20" fill="none" viewBox="0 0 59 20"><path fill="#000" d="M1.792 0h55.416C58.197 0 59 .806 59 1.8v16.4c0 .994-.801 1.8-1.792 1.8H1.792A1.797 1.797 0 0 1 0 18.2V1.8C0 .806.803 0 1.792 0"/><path fill="#FFDE15" d="M12.8 7.661h-2.405q-.07-.846-.633-1.289-.553-.45-1.558-.45-.894 0-1.392.355-.49.349-.49.981 0 .57.474.823.459.252 2.326.712 1.97.49 2.729.988 1.4.918 1.4 2.555 0 1.796-1.408 2.832-1.242.91-3.362.91-2.357 0-3.662-1.076t-1.353-3.061h2.515q.055.964.499 1.432.696.743 2.096.743.95 0 1.503-.372.624-.427.625-1.162 0-.736-.878-1.076-.483-.19-2.278-.688-1.125-.309-1.756-.586-.633-.276-1.013-.617-.886-.79-.886-2.183 0-1.669 1.384-2.642 1.18-.83 3.062-.83 1.653 0 2.768.656 1.606.942 1.693 3.045M24.515 4.236v11.565h-2.54l-4.84-7.879.031 7.879h-2.428V4.236h2.57l4.81 7.863-.031-7.863zM33.722 4.236v2.057h-4.659l-.498 2.602q.838-.886 2.144-.886 1.28 0 2.23.689 1.408 1.035 1.408 3.148 0 2.072-1.503 3.283-1.17.949-2.8.949-1.835 0-2.95-.981-1.116-.99-1.179-2.666h2.27a1.9 1.9 0 0 0 .396 1.037q.53.672 1.471.672.91 0 1.44-.657.514-.64.514-1.558 0-.997-.538-1.59-.538-.6-1.432-.601-1.092 0-1.7.98l-2.065-.03 1.1-6.448zM43.12 7.124h-2.2q-.307-1.338-1.518-1.337-1.281 0-1.82 1.574-.221.64-.355 1.938.522-.705 1.107-1.013.593-.308 1.424-.308 1.63 0 2.618 1.155.941 1.091.941 2.737 0 1.953-1.265 3.14-1.14 1.068-2.737 1.068-2.05 0-3.188-1.543-1.14-1.55-1.139-4.319 0-2.958 1.218-4.635 1.179-1.622 3.22-1.622 1.922 0 2.942 1.29.585.743.752 1.875m-3.916 2.65q-.831 0-1.32.696-.444.616-.444 1.47 0 .847.451 1.48.49.704 1.345.704.83 0 1.337-.672.474-.633.474-1.495 0-.847-.427-1.448-.522-.736-1.416-.736"/></svg>