<svg class="color-immutable" width="59" height="20" viewBox="0 0 59 20" fill="none" xmlns="http://www.w3.org/2000/svg"><path d="M1.792 0h55.416C58.197 0 59 .806 59 1.8v16.4c0 .994-.801 1.8-1.792 1.8H1.792A1.797 1.797 0 0 1 0 18.2V1.8C0 .806.803 0 1.792 0Z" fill="#000"/><path d="M12.8 7.661h-2.405c-.047-.564-.258-.994-.633-1.289-.369-.3-.888-.45-1.558-.45-.596 0-1.06.118-1.392.355-.327.232-.49.56-.49.981 0 .38.158.654.474.823.306.168 1.081.406 2.326.712 1.313.327 2.223.656 2.729.988.933.612 1.4 1.464 1.4 2.555 0 1.197-.47 2.141-1.408 2.832-.828.607-1.949.91-3.362.91-1.571 0-2.792-.359-3.662-1.076-.87-.717-1.321-1.738-1.353-3.061h2.515c.037.643.203 1.12.499 1.432.464.495 1.163.743 2.096.743.633 0 1.134-.124 1.503-.372.416-.284.625-.672.625-1.162 0-.49-.293-.85-.878-1.076-.322-.127-1.081-.356-2.278-.688-.75-.206-1.335-.401-1.756-.586-.422-.184-.76-.39-1.013-.617-.59-.527-.886-1.255-.886-2.183 0-1.113.462-1.993 1.384-2.642.786-.554 1.807-.83 3.062-.83 1.102 0 2.025.218 2.768.656 1.07.628 1.635 1.643 1.693 3.045ZM24.515 4.236v11.565h-2.54l-4.84-7.879.031 7.879h-2.428V4.236h2.57l4.81 7.863-.031-7.863h2.428ZM33.722 4.236v2.057h-4.659l-.498 2.602c.559-.59 1.273-.886 2.144-.886.854 0 1.597.23 2.23.689.939.69 1.408 1.74 1.408 3.148 0 1.381-.5 2.476-1.503 3.283-.78.632-1.713.949-2.8.949-1.223 0-2.207-.327-2.95-.981-.744-.66-1.137-1.548-1.179-2.666h2.27a1.9 1.9 0 0 0 .396 1.037c.353.448.843.672 1.471.672.607 0 1.086-.219 1.44-.657.342-.427.514-.946.514-1.558 0-.665-.18-1.194-.538-1.59-.359-.4-.836-.601-1.432-.601-.728 0-1.294.327-1.7.98l-2.065-.03 1.1-6.448h6.351ZM43.12 7.124h-2.2c-.205-.892-.711-1.337-1.518-1.337-.855 0-1.46.524-1.82 1.574-.147.427-.266 1.073-.355 1.938.348-.47.717-.807 1.107-1.013.395-.205.87-.308 1.424-.308 1.086 0 1.959.385 2.618 1.155.628.727.941 1.64.941 2.737 0 1.302-.422 2.349-1.265 3.14-.76.712-1.672 1.068-2.737 1.068-1.366 0-2.429-.514-3.188-1.543-.76-1.033-1.139-2.473-1.139-4.319 0-1.972.406-3.517 1.218-4.635.786-1.081 1.859-1.622 3.22-1.622 1.281 0 2.262.43 2.942 1.29.39.496.64 1.12.752 1.875Zm-3.916 2.65c-.554 0-.994.232-1.32.696-.296.41-.444.901-.444 1.47 0 .565.15 1.058.451 1.48.327.47.775.704 1.345.704.553 0 .999-.224 1.337-.672.316-.422.474-.92.474-1.495 0-.565-.142-1.047-.427-1.448-.348-.49-.82-.736-1.416-.736Z" fill="#FFDE15"/></svg>