<?xml version="1.0" encoding="utf-8"?>
<!-- Generator: Adobe Illustrator 24.2.0, SVG Export Plug-In . SVG Version: 6.00 Build 0)  -->
<svg version="1.0" id="Ebene_3" xmlns="http://www.w3.org/2000/svg" xmlns:xlink="http://www.w3.org/1999/xlink" x="0px" y="0px"
	 viewBox="0 0 24 24" enable-background="new 0 0 24 24" xml:space="preserve">
<g id="SVG_x5F_24x24pt">
	<path id="backgroundGreen" fill="#237F52" d="M0,22.5v-21C0,0.675,0.675,0,1.5,0h21C23.325,0,24,0.675,24,1.5v21
		c0,0.825-0.675,1.5-1.5,1.5h-21C0.675,24,0,23.325,0,22.5z"/>
	<g id="content">
		<polygon fill="#FFFFFF" points="20.999,5.064 18.935,5.064 18.935,3 16.785,3 16.785,5.064 14.722,5.064 14.722,7.214 
			16.785,7.214 16.785,9.277 18.935,9.277 18.935,7.214 20.999,7.214 		"/>
		<path fill="#FFFFFF" d="M12.979,8.633C10.557,8.41,9.728,10.53,9.728,10.53h0c0,0-0.828-2.12-3.251-1.896
			c-2.422,0.223-3.909,2.331-3.363,4.924c0.175,0.831,0.915,2.298,2.108,3.681C6.698,18.952,8.758,20.56,9.728,21h0
			c0.97-0.441,3.03-2.048,4.506-3.761c1.192-1.383,1.933-2.85,2.108-3.681C16.888,10.964,15.402,8.857,12.979,8.633z M8.331,18.363
			l1.27-3.116H7.726l3.58-3.993L9.824,14.4h1.906L8.331,18.363z"/>
	</g>
</g>
</svg>
