<svg xmlns="http://www.w3.org/2000/svg" width="48" height="48" version="1.1" viewBox="0 0 48 48">
  <path fill="none" fill-rule="evenodd" stroke="#000" stroke-width="1" d="M38.5,17 C38.5,8.992 32.008,2.5 24,2.5 C15.992,2.5 9.5,8.992 9.5,17 C9.597,19.487 10.334,21.578 11.519,23.553 L24.041,44 L36.563,23.553 C37.733,21.505 38.479,19.375 38.5,17 Z M14.5,22.5 L33.5,22.5 L33.5,11.5 L14.5,11.5 L14.5,22.5 Z M27.5,17 C27.5,18.933 25.933,20.5 24,20.5 C22.067,20.5 20.5,18.933 20.5,17 C20.5,15.067 22.067,13.5 24,13.5 C25.933,13.5 27.5,15.067 27.5,17 Z M27.5,11.5 L26.5,8.5 L21.5,8.5 L20.5,11.5 M14.5,11.5 L14.5,10.5 L16.5,10.5 L16.5,11.5"/>
</svg>
