<svg xmlns="http://www.w3.org/2000/svg" width="48" height="48" fill="none" viewBox="0 0 48 48"><path fill="#000" fill-rule="evenodd" d="M20.318 3.328A4.5 4.5 0 0 1 28 6.51h-.5l.5.006a4.2 4.2 0 0 1-.568 2.055l-.008.015-.01.014-3.5 5.18-.418.618-.412-.622-3.44-5.18-.008-.01A4.2 4.2 0 0 1 19 6.53v-.02a4.5 4.5 0 0 1 1.318-3.182M27 6.507a3.5 3.5 0 0 0-7-.007 3.2 3.2 0 0 0 .48 1.549l3.024 4.552 3.072-4.547A3.2 3.2 0 0 0 27 6.507M2 17h17.771L9.034 44.82l.932.36 11-28.5.263-.68H2zm24.5-1h-.729l.262.68 11 28.5.934-.36L27.229 17H46v-1zM23 45v-5h1v5zm0-13v5h1v-5zm0-3v-5h1v5zm0-13v5h1v-5zm-1-9.5a1.5 1.5 0 1 1 3 0 1.5 1.5 0 0 1-3 0M23.5 4a2.5 2.5 0 1 0 0 5 2.5 2.5 0 0 0 0-5" clip-rule="evenodd"/></svg>