<svg xmlns="http://www.w3.org/2000/svg" width="36" height="36" viewBox="0 0 36 36">
  <path fill="none" stroke="#000" d="M21.75,14.24955 L21.75,27.74955 L15.735,27.74955 L15.735,21.74955 L11.235,21.74955 L11.235,27.74955 L5.25,27.74955 L5.25,14.24955 M3,16.49955 L13.5,5.99955 L24,16.49955 M29.25,21.74955 L29.25,26.99955 C29.2545,27.81405 29.256,29.24955 27.75,29.24955 C26.25,29.24955 26.2515,27.77955 26.25,26.99955 L26.25,25.49955 C26.2155,23.98905 25.497,23.24955 24,23.24955 L21.75,23.24955 M32.25,18.74955 C32.25,20.40555 30.906,21.74955 29.25,21.74955 C27.594,21.74955 26.25,20.40555 26.25,18.74955 L26.25,17.24955 L32.25,17.24955 L32.25,18.74955 Z M27.75,17.24955 L27.75,13.49955 M30.75,17.24955 L30.75,13.49955"/>
</svg>
