<svg width="36" height="36" viewBox="0 0 36 36" fill="none" xmlns="http://www.w3.org/2000/svg"><path fill-rule="evenodd" clip-rule="evenodd" d="M15.5 9a.25.25 0 1 1 .5.001.25.25 0 0 1-.5 0Zm.25-1.25a1.25 1.25 0 1 0 0 2.501 1.25 1.25 0 0 0 0-2.5Zm-.5 12.5V12h1v7.75h7.5v8.75h-1v-7.75h-7.5v-.5Zm-5.992 1.5c0-2.525 1.459-4.722 3.57-5.797l.454.89c-1.792.914-3.024 2.776-3.024 4.907 0 3.02 2.479 5.5 5.5 5.5 2.187 0 4.094-1.3 4.978-3.17l.904.428c-1.042 2.203-3.29 3.742-5.882 3.742-3.573 0-6.5-2.927-6.5-6.5Z" fill="#000"/></svg>