<?xml version="1.0" encoding="utf-8"?>
<!-- Generator: Adobe Illustrator 24.2.0, SVG Export Plug-In . SVG Version: 6.00 Build 0)  -->
<svg version="1.0" xmlns="http://www.w3.org/2000/svg" xmlns:xlink="http://www.w3.org/1999/xlink" x="0px" y="0px"
	 viewBox="0 0 24 24" enable-background="new 0 0 24 24" xml:space="preserve">
<g id="SVG_x5F_24x24pt">
	<path id="backgroundGreen" fill="#237F52" d="M0,22.5v-21C0,0.675,0.675,0,1.5,0h21C23.325,0,24,0.675,24,1.5v21
		c0,0.825-0.675,1.5-1.5,1.5h-21C0.675,24,0,23.325,0,22.5z"/>
	<g id="content">
		<path fill="#FFFFFF" d="M15.375,3C15.169,3,15,3.169,15,3.375v0.938H9V3.375C9,3.169,8.831,3,8.625,3S8.25,3.169,8.25,3.375v17.25
			C8.25,20.831,8.419,21,8.625,21S9,20.831,9,20.625v-0.938h6v0.938C15,20.831,15.169,21,15.375,21s0.375-0.169,0.375-0.375V3.375
			C15.75,3.169,15.581,3,15.375,3z M15,19.312H9v-2.625h6V19.312z M15,16.312H9v-2.625h6V16.312z M15,13.312H9v-2.625h6V13.312z
			 M15,10.312H9V7.688h6V10.312z M15,7.312H9V4.688h6V7.312z"/>
	</g>
</g>
</svg>
