<svg width="48" height="48" viewBox="0 0 48 48" fill="none" xmlns="http://www.w3.org/2000/svg"><path fill-rule="evenodd" clip-rule="evenodd" d="M17.396 3.515A16.531 16.531 0 0 1 21.5 3c2.52 0 4.907.565 7.043 1.574l-.213 2.568-.014.171.093.144.444.681-1.729.4-4.63-2.824-.245-.15-.252.136-3.062 1.65-.094.05-.065.085-1.623 2.11-.134.175.038.216.039.222.09.515.51-.112 1.037-.229-.598 1.864-.122.38.343.203 1.133.673.275.163.264-.182 2.927-2.018.14-.097.052-.16.218-.67.567.44.08.06.096.027 1.217.327-1.1 1.233-2.29 1.54-.04.026-.035.034-1.228 1.223-2.117-.507-.237-.057-.191.152-1.241.986-3.144 1.013-.261.084-.07.266-.346 1.329-.833-.206-.344-.085-.194.297-1.087 1.661-.183.279.187.275.968 1.43.165.244.292-.026 1.178-.102.207-.018.133-.158.84-1.001 1.49-.611 1.201.067 1.05 1.73-.257.444-.071.122.004.142.005.178.018.658.628-.194.788-.242.614-.189-.333-.549-1.366-2.248.719-.16 1.009 1.353.493 2.189.092.403.413-.014.13-.004.296-.01.134-.264.502-.988.707 1.387.139.273h1.28l.617.586.688-.726-.762-.722-.144-.137h-1.066l-.956-1.876-.15-.297-.333.025-.121.01-.281.02-.127.252-.348.683-.251-1.114-.024-.104-.063-.085-1.266-1.698-.194-.26-.316.07-1.647.368-1.508-.084-.113-.006-.105.043-1.708.7-.114.047-.079.095-.786.936-.68.059-.617-.912.712-1.086.968.239.48.118.124-.478.401-1.54 2.97-.957.086-.028.071-.056 1.122-.892 2.152.515.271.065.198-.197 1.392-1.386 2.302-1.548.053-.035.041-.046 1.683-1.885.54-.605-.783-.21-1.903-.513-1.05-.813-.562-.435-.22.676-.385 1.184-2.524 1.741-.515-.306.742-2.312.266-.828-.85.187-.798.176.934-1.216 2.715-1.462 4.56 2.78.174.106.198-.045 2.625-.606.697-.16-.39-.6-.741-1.138.164-1.985c4.68 2.602 7.963 7.415 8.436 13.027l.997-.084C38.182 9.043 30.664 2 21.5 2 11.835 2 4 9.835 4 19.5S11.835 37 21.5 37c.927 0 1.837-.072 2.726-.211l-.155-.988c-.838.13-1.696.199-2.571.199-6.066 0-11.368-3.273-14.234-8.15l1.124-1.413 2.368-.743.239-.075.083-.236.328-.93 1.366.763.095.052.107.01 2.879.238-.46.977-.214.453.453.213L18.7 28.6l.15.07.163-.033 1.051-.216.238-.048.109-.218.206-.413 2.095.625.046.014.048.005 1.146.11.096-.995-1.097-.106-2.45-.73-.402-.12-.188.375-.286.57-.65.134-2.463-1.158.555-1.176.307-.652-.718-.06-3.49-.29-1.788-.998-.518-.289-.197.56-.443 1.253-2.276.713-.146.046-.095.12-.957 1.202A16.43 16.43 0 0 1 5 19.5c0-3.443 1.054-6.64 2.858-9.284l4.005-.211.135-.007.113-.074 2.725-1.784.106-.07.06-.11 2.394-4.445Zm-1.357.41a16.533 16.533 0 0 0-7.41 5.249l3.047-.16 2.506-1.64 1.857-3.449ZM41.339 44l-.545-1H29.206l-.546 1h12.68Zm1.14 0-.546-1H43v-1h-1.612l-.546-1H44V27.77A3.77 3.77 0 0 0 40.23 24h-4.328l1.875-3H40v-1H30v1h2.223l1.875 3h-4.329A3.77 3.77 0 0 0 26 27.77V41h3.158l-.546 1H27v1h1.067l-.546 1H26v1h.976l-.415.76.878.48.676-1.24h13.77l.676 1.24.878-.48-.415-.76H44v-1h-1.521Zm-9.077-23L35 23.557 36.598 21h-3.196Zm-3.105 20-.546 1H40.25l-.546-1h-9.406ZM32 27h6v1h-6v-1Zm-5 7.14V40h16v-5.86H27Zm16-1v-5.37A2.77 2.77 0 0 0 40.23 25H29.77A2.77 2.77 0 0 0 27 27.77v5.37h16ZM38 37a1 1 0 1 1 2 0 1 1 0 0 1-2 0Zm-7-1a1 1 0 1 0 0 2 1 1 0 0 0 0-2ZM15.747 12.141l-.233-.184-.274.117-1.992.854-.632.27.452.518.476.545-.467 1.123-.294.708.767-.017.62-.014.167-.003.132-.104 2.557-2.019.497-.392-.497-.393-1.279-1.009Zm-1.246 1.696-.228-.26 1.088-.467.548.433-1.465 1.156.142-.341.12-.287-.205-.234Zm-2.622-.822.342.41.506.605.324.388-.392.32-.741.605-.4.327-.314-.41-.437-.572-.273-.357.326-.31.673-.639.386-.367Z" fill="#000"/></svg>