<svg xmlns="http://www.w3.org/2000/svg" width="24" height="24" fill="none" viewBox="0 0 24 24"><path fill="#000" fill-rule="evenodd" d="M3 3v3h1V3.996h1v-1H3zm0 4.996h2.001v-1H3zM10 5H8.999v-1H10zm1.001 0h1v-2h-1zM6 2.997h3v1H7V5H5V4h1V2.997m7.001 2h2v-1h1v1h1v-2h-2v1h-2zM4 17H3v-2h1zm-1-6.002h1V10h1.001V9H4v.998H3zm1 2H3v-1.002h1V11h1.001v1H4zM5.001 14H4v-1h1.001zM11 16.997h6v-6h-6zm1-1h4v-4h-4zm3-1h-2v-2h2zm-8.001-3h2v-.999H10v-1H8.999v1h-2zm7.002-1.999V10h-1v-.002h-1v-1h1V8h1v1.998m7 3.002h-1v.998h-2v1h2V14h1zm-1-2h1v1h-1v.998h-2v-1h2zm-9.002-2V7.998h2.002v-1h-3V7H10v1H9v1zM16 9h-1V7h1v1.998h1v1h-1zm4.001 8h1v-2h-1zM9 7.996H8V10H7V6.996h2zM12 21.001h1.001v-1h-1.001zm-4.002 0h-1v-2.002h1zm2-4.003H9V17H8v1h1v.998h2.002v-1h-1zm4.003 2h-2.001v-1h2.001zm5.999 2h1v-1h-1zm-12.002-6h-1v-1h1V13H10v1H7.999zm-1 2h1V16H10v-1H7.999v.998h-1zm14.002-8h-1v-1h-1v-1h2v2M8.999 21H11v-1H8.999zm11.002-2.003h-1V18h-1v1.998h1v1h-2v-2h-1v1.003h-1v1h-1v-2h1v-1l3-.003V16h1v1.998h1zm-2-7.998V9l-1-.002v-1h2v2h1v1z" clip-rule="evenodd"/></svg>