<svg xmlns="http://www.w3.org/2000/svg" width="36" height="36" fill="none" viewBox="0 0 36 36"><path fill="#000" fill-rule="evenodd" d="M26.723 11.349c.805 1.528 1.034 3.455.381 5.64l-.958-.287c.585-1.957.364-3.61-.308-4.888-.675-1.283-1.824-2.218-3.152-2.698-2.644-.956-5.957-.095-7.529 3.447l-.266.6-.508-.416c-2.618-2.143-6.858-.093-6.386 3.813l.067.56H7.5c-1.017 0-1.839.502-2.41 1.296-.576.803-.885 1.894-.837 2.997.048 1.1.449 2.179 1.247 2.98.792.794 2.018 1.357 3.8 1.357H24v1H9.3c-2.005 0-3.5-.64-4.508-1.652-1.002-1.005-1.48-2.334-1.538-3.641-.057-1.304.304-2.621 1.025-3.624.63-.878 1.545-1.522 2.684-1.677-.142-4.228 4.354-6.553 7.546-4.548 1.899-3.606 5.568-4.498 8.517-3.433 1.542.557 2.896 1.651 3.697 3.174m-7.748 5.466c-.315-.645-.96-.96-1.92-.96-.93 0-1.56.3-1.875.9a3 3 0 0 0-.285.915c-.06.36-.09.855-.09 1.47 0 1.02.09 1.77.255 2.235.285.78.945 1.17 1.995 1.17s1.725-.375 1.995-1.14c.165-.465.255-1.2.255-2.19 0-.66-.03-1.155-.075-1.5a3 3 0 0 0-.255-.9m-2.49.54c.09-.3.285-.45.57-.45h.015c.3 0 .48.15.57.465.075.3.12.945.12 1.95 0 .9-.045 1.5-.135 1.785s-.27.435-.555.435c-.33 0-.525-.195-.6-.585-.075-.33-.105-.93-.105-1.785 0-.93.045-1.545.12-1.815m-2.235 2.55h-1.47l.045.03c0 .63-.045 1.065-.135 1.29a.505.505 0 0 1-.51.345c-.345 0-.54-.225-.6-.675-.045-.375-.075-.96-.075-1.755 0-.69.015-1.215.075-1.575q.09-.63.585-.63c.27 0 .45.135.525.405.045.165.075.435.075.78v.135h1.455c0-.54-.045-.915-.105-1.17-.06-.24-.195-.48-.39-.675-.345-.345-.87-.525-1.575-.525-.81 0-1.41.24-1.77.75-.18.24-.3.54-.36.915-.075.375-.105.93-.105 1.665 0 .885.045 1.53.15 1.935s.285.735.57.975q.495.45 1.44.45c.51 0 .915-.075 1.215-.24s.525-.405.705-.75c.165-.33.255-.825.255-1.485zm5.73-1.875v-.015h1.395c0-.45.045-.75.12-.915s.225-.255.45-.255c.18 0 .315.06.405.195s.135.345.135.645c0 .255-.045.45-.12.615-.075.15-.24.36-.495.615-.645.66-1.035 1.08-1.185 1.245s-.285.39-.42.675c-.225.465-.33.99-.33 1.56H24v-1.17h-2.265c.09-.21.195-.405.33-.555q.203-.225.855-.855c.39-.36.645-.66.78-.9.195-.33.285-.735.285-1.215 0-.63-.165-1.095-.48-1.395-.345-.3-.84-.45-1.5-.45-.825 0-1.41.255-1.725.735-.194.298-.298.773-.3 1.425h-.015zm9.625 10.685 3.03-3.645-.77-.64-2.141 2.577.026-9.005-1-.003-.026 8.996-2.086-2.56-.776.631 2.97 3.645.384.47z" clip-rule="evenodd"/></svg>