<svg xmlns="http://www.w3.org/2000/svg" width="36" height="36" viewBox="0 0 36 36">
  <path fill="none" stroke="#000" d="M32.25,9.7503 L32.25,14.2503 C32.25,20.2503 8.25,20.2503 8.25,14.2503 L8.25,9.7503 M8.25,9.7503 C8.25,3.7503 32.25,3.8823 32.25,9.7503 C32.25,15.6183 8.25,15.7503 8.25,9.7503 Z M27.75,14.2503 L27.75,17.8518 L27.75,14.2503 L27.75,13.2963 L27.75,14.2503 Z M20.25,15.7503 L20.25,18.7503 L20.25,15.7503 L20.25,14.2008 L20.25,15.7503 Z M12.75,15.7503 L12.75,17.8533 L12.75,15.7503 L12.75,13.3308 L12.75,15.7503 Z M27.75,17.8524 L27.75,20.2494 C27.75,26.2494 3.75,26.2494 3.75,20.2494 L3.75,15.7509 M25.8252,18.2889 C20.1282,21.4779 3.7497,20.7069 3.7497,15.7509 C3.7497,14.0889 5.5887,12.8979 8.2497,12.1674 M23.25,20.24955 L23.25,23.85255 L23.25,20.24955 L23.25,19.29555 L23.25,20.24955 Z M15.75,20.19975 L15.75,24.74925 L15.75,20.19975 M8.25,21.74955 L8.25,23.85255 L8.25,21.74955 L8.25,19.33155 L8.25,21.74955 Z M32.25,21.74955 L32.25,26.24955 C32.25,32.24955 8.25,32.24955 8.25,26.24955 L8.25,23.85255 M27.75,18.204 C30.4095,18.9405 32.25,20.1255 32.25,21.75 C32.25,26.625 15.684,27.5415 10.0785,24.27 M27.75,26.24955 L27.75,29.85255 L27.75,26.24955 L27.75,25.29555 L27.75,26.24955 Z M20.25,27.74955 L20.25,30.74955 L20.25,27.74955 L20.25,26.24955 L20.25,27.74955 Z M12.75,27.74955 L12.75,29.85255 L12.75,27.74955 L12.75,25.33155 L12.75,27.74955 Z"/>
</svg>
