<svg class="color-immutable" xmlns="http://www.w3.org/2000/svg" width="59" height="20" fill="none" viewBox="0 0 59 20"><path fill="#EB0000" fill-rule="evenodd" d="M2 0a2 2 0 0 0-2 2v16a2 2 0 0 0 2 2h55a2 2 0 0 0 2-2V2a2 2 0 0 0-2-2z" clip-rule="evenodd"/><path fill="#fff" d="M36.575 7.898a4.34 4.34 0 0 1 .702-2.389q1.073-1.55 3.224-1.55 1.656 0 2.673.846a2.95 2.95 0 0 1 1.096 2.373 2.6 2.6 0 0 1-.43 1.499 2.1 2.1 0 0 1-1.163.85c.59.123 1.114.462 1.47.95.37.518.559 1.143.54 1.78a3.55 3.55 0 0 1-1.26 2.808q-1.168 1.012-2.95 1.012-1.93 0-3.062-1.115-1.131-1.116-1.131-3.014v-.15h2.215q0 1.067.504 1.649c.364.4.889.613 1.427.581q.922 0 1.42-.546c.301-.335.465-.774.457-1.226a1.69 1.69 0 0 0-.584-1.352q-.48-.412-1.482-.412-.28 0-.56.032v-1.7q.206.015.395.015 1.986 0 1.986-1.48a1.36 1.36 0 0 0-.433-1.047 1.62 1.62 0 0 0-1.143-.4 1.58 1.58 0 0 0-1.254.507q-.441.505-.473 1.479zM9.22 4.2h4.057L8.259 15.8H4.186zM15.948 4.2h14.395l-1.49 3.445h-10.28l-2.042 4.71h10.285l-1.49 3.445H10.93z"/></svg>