<svg xmlns="http://www.w3.org/2000/svg" width="24" height="24" fill="none" viewBox="0 0 24 24"><path fill="#000" fill-rule="evenodd" d="M10 8c0-1.215.77-2 1.5-2s1.5.785 1.5 2-.77 2-1.5 2S10 9.215 10 8m1.5-3C10.022 5 9 6.453 9 8c0 .69.203 1.36.558 1.892-.342.343-.637.77-.874 1.257a4 4 0 0 0-.239-.262C8.799 10.356 9 9.687 9 9c0-1.547-1.022-3-2.5-3S4 7.453 4 9c0 .687.202 1.356.555 1.887-.89.888-1.457 2.347-1.539 3.963l-.118.09c-.513.403-.898.927-.898 1.56s.385 1.157.898 1.56c.518.409 1.236.755 2.08 1.036C6.67 19.66 8.976 20 11.5 20s4.83-.34 6.522-.904c.844-.281 1.562-.627 2.08-1.035.513-.404.898-.928.898-1.561s-.385-1.157-.898-1.56l-.117-.09c-.08-1.616-.646-3.077-1.538-3.966.352-.53.553-1.198.553-1.884 0-1.547-1.022-3-2.5-3S14 7.453 14 9c0 .686.201 1.354.554 1.885q-.124.123-.24.262a4.6 4.6 0 0 0-.872-1.256A3.43 3.43 0 0 0 14 8c0-1.547-1.022-3-2.5-3m3.235 7.288q.12.449.184.931c1.164.156 2.218.39 3.103.685q.481.16.902.348c-.168-1.15-.614-2.084-1.172-2.648A2.17 2.17 0 0 1 16.5 12a2.17 2.17 0 0 1-1.252-.396 3.4 3.4 0 0 0-.513.684M4.078 14.25q.42-.187.9-.347c.885-.295 1.939-.529 3.104-.685q.063-.48.183-.93a3.4 3.4 0 0 0-.515-.683A2.17 2.17 0 0 1 6.5 12a2.17 2.17 0 0 1-1.25-.394c-.557.563-1.004 1.497-1.172 2.645m5.032-1.146A27 27 0 0 1 11.5 13c.825 0 1.626.036 2.39.105-.183-1.084-.614-1.958-1.145-2.496A2.17 2.17 0 0 1 11.5 11a2.17 2.17 0 0 1-1.245-.39c-.53.537-.961 1.411-1.145 2.495M3 16.5c0-.195.118-.461.517-.775.392-.31.992-.61 1.777-.872C6.859 14.331 9.054 14 11.5 14s4.64.331 6.206.853c.785.262 1.384.562 1.777.872.399.314.517.58.517.775s-.118.461-.517.775c-.393.31-.992.61-1.777.872-1.565.522-3.76.853-6.206.853s-4.64-.331-6.206-.853c-.785-.262-1.385-.562-1.777-.872-.399-.314-.517-.58-.517-.775M15 9c0-1.215.77-2 1.5-2s1.5.785 1.5 2-.77 2-1.5 2-1.5-.785-1.5-2M6.5 7C5.77 7 5 7.785 5 9s.77 2 1.5 2S8 10.215 8 9s-.77-2-1.5-2" clip-rule="evenodd"/></svg>