<svg xmlns="http://www.w3.org/2000/svg" width="36" height="36" fill="none" viewBox="0 0 36 36"><path stroke="#000" d="M8.994 16.62c-4.817 0-5.774 9.63 1.8 9.63h15.752c7.473 0 7.2-9.63 1.575-9.406 2.475-8.287-8.55-12.095-11.926-4.48-2.972-2.423-7.723-.097-7.2 4.255Z"/><path fill="#000" d="M11.552 17.495h1.621l.804 4.816.792-4.816h1.582l-1.442 6.424H12.98zM18.9 17.358q1.44 0 1.915.967.19.381.261.904.074.52.073 1.5 0 1.485-.255 2.193-.412 1.142-1.999 1.142-1.573 0-1.995-1.173-.25-.694-.25-2.237 0-.93.083-1.469.084-.538.29-.921.48-.906 1.876-.906m-.005 1.046q-.435 0-.567.444-.123.41-.123 1.815 0 1.292.101 1.789.12.588.593.588.423.001.558-.433.137-.431.137-1.786 0-1.507-.123-1.955-.128-.462-.576-.462M24.683 21.406h1.467v.189q-.004.98-.259 1.485-.264.514-.707.743-.453.237-1.213.237-.95 0-1.446-.444a1.86 1.86 0 0 1-.567-.977q-.15-.61-.15-1.94 0-1.1.1-1.662.098-.562.353-.918.545-.756 1.776-.756 1.068 0 1.569.523.295.304.392.675.1.371.1 1.166h-1.46v-.14q0-.524-.078-.783-.12-.404-.532-.404-.5 0-.589.624-.08.531-.08 1.578 0 1.19.076 1.757.091.673.597.673.378 0 .514-.343.137-.343.137-1.283"/></svg>