<svg xmlns="http://www.w3.org/2000/svg" width="48" height="48" fill="none" viewBox="0 0 48 48"><path fill="#000" fill-rule="evenodd" d="M12.108 4.35c.122-.073.309-.157.573-.246.615-.207 1.532-.401 2.697-.567C17.701 3.207 20.926 3 24.5 3s6.8.206 9.122.537c1.165.166 2.082.36 2.697.567.264.089.451.173.573.246a3 3 0 0 1-.573.246c-.615.207-1.532.401-2.697.567-2.323.33-5.548.537-9.122.537s-6.8-.206-9.122-.537c-1.165-.166-2.082-.36-2.697-.567a3 3 0 0 1-.573-.246m24.915-.097.002-.004.002-.001zm-25.046 0-.004-.005zm3.26-1.706C17.62 2.207 20.894 2 24.5 2s6.88.208 9.263.547c1.187.169 2.174.373 2.875.609.347.117.654.25.883.41.212.148.479.403.479.784v7.07q0 .075-.008.147l-.002.04a135 135 0 0 1-.137 2.055c-.096 1.34-.241 3.151-.433 5.031s-.431 3.834-.718 5.462c-.144.813-.3 1.552-.472 2.163-.167.596-.36 1.12-.598 1.465v.001A21.7 21.7 0 0 1 33 30.944v3.242l8.317 4.004.012.005.012.007A7.06 7.06 0 0 1 45 44.379V46h-1v-1.62a6.06 6.06 0 0 0-3.13-5.296l-8.072-3.886A8.83 8.83 0 0 1 25 40.994V46h-1v-5.006a8.83 8.83 0 0 1-7.798-5.796L8.13 39.084A6.06 6.06 0 0 0 5 44.38V46H4v-1.62a7.06 7.06 0 0 1 3.66-6.178l.011-.007.012-.005L16 34.186v-3.203a21.5 21.5 0 0 1-2.662-3.2c-.239-.345-.433-.87-.6-1.465-.17-.611-.327-1.35-.47-2.164-.284-1.628-.52-3.583-.707-5.462a172 172 0 0 1-.552-7.087l-.002-.048A1 1 0 0 1 11 11.42V4.35c0-.381.268-.636.479-.783.23-.16.536-.294.883-.411.7-.236 1.688-.44 2.875-.61M17 34.427a7.83 7.83 0 0 0 15 0v-2.57C29.032 34.36 26.2 35 24.48 35c-1.713 0-4.53-.634-7.48-3.11zM36.638 5.545q.19-.065.362-.135v5.997l-.002.025-.002.046c-.014.095-.064.215-.189.363-.152.181-.395.379-.74.583-.688.408-1.695.791-2.92 1.12-2.445.657-5.65 1.067-8.647 1.067-2.995 0-6.201-.418-8.646-1.078-1.226-.33-2.233-.715-2.922-1.122-.345-.204-.588-.4-.74-.58-.127-.149-.176-.268-.188-.36L12 11.433 12 11.407V5.41q.172.07.362.135c.7.236 1.688.44 2.875.61 2.382.338 5.657.546 9.263.546s6.88-.208 9.263-.547c1.187-.169 2.174-.373 2.875-.609m-.06 7.74q.163-.098.314-.201a187 187 0 0 1-.467 5.509c-.19 1.869-.427 3.797-.708 5.389-.14.796-.291 1.5-.45 2.067-.163.581-.321.968-.459 1.168C30.878 32.907 26.558 34 24.48 34c-2.079 0-6.407-1.093-10.318-6.783l-.001-.002c-.138-.2-.297-.586-.46-1.167a22 22 0 0 1-.447-2.066c-.279-1.592-.511-3.52-.698-5.39a172 172 0 0 1-.454-5.525q.154.105.321.204c.8.472 1.905.885 3.17 1.227q.25.067.508.131c.422 1.201 1.54 2.115 2.955 2.733 1.541.673 3.528 1.038 5.664 1.038s4.033-.365 5.479-1.044c1.327-.622 2.324-1.537 2.705-2.718q.256-.063.502-.129c1.266-.34 2.37-.752 3.171-1.226m-17.122 3.161c-.97-.423-1.672-.95-2.088-1.534 2.202.44 4.734.7 7.132.7a38 38 0 0 0 7.18-.701c-.372.593-1.01 1.12-1.906 1.541-1.277.6-3.02.949-5.054.949s-3.877-.35-5.264-.954m8.21 2.808a1.5 1.5 0 1 1 1.668 2.495 1.5 1.5 0 0 1-1.667-2.495M28.5 20a.5.5 0 1 0 0 1 .5.5 0 0 0 0-1m-8-1a1.5 1.5 0 1 0 0 3 1.5 1.5 0 0 0 0-3m-.278 1.084a.5.5 0 1 1 .556.83.5.5 0 0 1-.556-.83M21.51 9.88 23.5 8h-1.49l-2.49 2.5 2.49 2.5h1.49l-1.99-1.87h2.37V13h1.24v-1.87h2.37L25.5 13h1.49l2.49-2.5L26.99 8H25.5l1.99 1.88h-2.37V8h-1.24v1.88zM24.552 28a7.34 7.34 0 0 0 5.121-1.778l.654.756A8.34 8.34 0 0 1 24.529 29a8.5 8.5 0 0 1-5.558-1.806l.618-.787A7.5 7.5 0 0 0 24.51 28h.041M31 42h8v4h-8v-4m1 1v2h6v-2z" clip-rule="evenodd"/></svg>