<?xml version="1.0" encoding="utf-8"?>
<!-- Generator: Adobe Illustrator 24.2.0, SVG Export Plug-In . SVG Version: 6.00 Build 0)  -->
<svg version="1.0" id="Ebene_1" xmlns="http://www.w3.org/2000/svg" xmlns:xlink="http://www.w3.org/1999/xlink" x="0px" y="0px"
	 viewBox="0 0 24 24" enable-background="new 0 0 24 24" xml:space="preserve">
<g id="SVG_x5F_24x24pt">
	<path id="backgroundBlue" fill="#2D327D" d="M0,22.5v-21C0,0.675,0.675,0,1.5,0h21C23.325,0,24,0.675,24,1.5v21
		c0,0.825-0.675,1.5-1.5,1.5h-21C0.675,24,0,23.325,0,22.5z"/>
	<g id="content">
		<path fill-rule="evenodd" clip-rule="evenodd" fill="#FFFFFF" d="M7.5,3v3.75h5.25v1.5H15V9h-2.25v0.75H15v0.75h-2.25v6h3.75V3
			H7.5z M15,6h-0.449V4.527h-0.16h-0.16h-0.155h-0.054V4.201c0.11-0.003,0.199-0.014,0.269-0.034c0.069-0.02,0.133-0.051,0.19-0.095
			c0.083-0.064,0.139-0.171,0.168-0.322H15V6z"/>
		<path fill-rule="evenodd" clip-rule="evenodd" fill="#FFFFFF" d="M3,7.5V21h9V7.5H3z M10.5,15h-6v-0.75h6V15z M10.5,13.5h-6v-0.75
			h6V13.5z M10.5,10.5H8.88c0-0.122,0.02-0.238,0.059-0.349c0.039-0.111,0.095-0.206,0.167-0.286c0.055-0.062,0.12-0.122,0.195-0.18
			c0.074-0.058,0.222-0.166,0.444-0.321c0.108-0.075,0.183-0.145,0.226-0.209c0.043-0.065,0.065-0.139,0.065-0.225
			c0-0.098-0.029-0.178-0.087-0.239C9.891,8.629,9.815,8.599,9.72,8.599c-0.232,0-0.351,0.167-0.358,0.5H8.93
			c0-0.022,0-0.038,0-0.049c0-0.273,0.076-0.484,0.229-0.634C9.307,8.27,9.5,8.197,9.736,8.197c0.209,0,0.384,0.059,0.524,0.178
			c0.153,0.129,0.229,0.303,0.229,0.521c0,0.191-0.061,0.355-0.183,0.492c-0.04,0.045-0.077,0.081-0.112,0.108
			c-0.035,0.027-0.127,0.093-0.275,0.196C9.777,9.792,9.676,9.868,9.615,9.92c-0.061,0.052-0.118,0.112-0.17,0.18H10.5V10.5z"/>
	</g>
</g>
</svg>
