<svg xmlns="http://www.w3.org/2000/svg" width="24" height="24" fill="none" viewBox="0 0 24 24"><path fill="#000" fill-rule="evenodd" d="M5 7.5c0-.257.243-.5.5-.5s.5.243.5.5-.243.5-.5.5a.527.527 0 0 1-.5-.5M5.5 6C4.69 6 4 6.69 4 7.5S4.69 9 5.5 9 7 8.31 7 7.5 6.31 6 5.5 6m-1.207 4h2.516l.138.276.98 1.96L9.4 14.2l-.8.6-1.5-2-.027-.036-.02-.04L7 12.618v2.764l.947 1.894.053.106v2.813l13.35-4.172.65-.203V22H5.5l-.15-.977L7 20.507v-2.889L6.191 16H5v6H4V11.707l-1 1V15H2v-2.707l.146-.147 2-2zM5 15v-4h1v4zm16 6H8.776L21 17.18z" clip-rule="evenodd"/></svg>