<svg width="36" height="36" viewBox="0 0 36 36" fill="none" xmlns="http://www.w3.org/2000/svg"><path fill-rule="evenodd" clip-rule="evenodd" d="m19.937 8.236.4.353 2.026 1.789 5.493 2.132.445.173-.152.452-.83 2.476 1.775.535.462-.876.276-.523.47.36 2.014 1.538.185.142.011.232.237 4.903.026.538-.538-.014-1.739-.044.282 2.433.084.726-.707-.185-5.094-1.33-2.184 4.631-.362.766-.496-.686-2.871-3.972-2.314 2.505-.127.136-.185.021-4.735.531-.233.026-.169-.162-3.083-2.95-1.093.635-.06.035-.068.017-3.21.816-.832.212.227-.828 1.62-5.931.03-.115.08-.088 3.848-4.267-.939-.322-.897-.309.762-.566 3.66-2.72.255-.19.28.152.935.505 5.291-1.442 1.417-1.829.327-.42Zm.137 1.455-1.193 1.54-.102.132-.162.044-5.646 1.539-.193.052-.176-.095-.83-.449-2.642 1.964.757.26.715.246-.506.562-4.275 4.74-1.363 4.989 2.31-.588 1.358-.79.325-.189.272.26 3.187 3.05 4.318-.484 2.602-2.817.414-.448.358.495 2.733 3.78 2-4.24.177-.376.402.105 4.789 1.25-.264-2.278-.067-.572.576.015 1.776.045-.2-4.134-1.36-1.039-.377.717-.192.365-.395-.12-2.664-.803-.494-.15.164-.488.843-2.511-5.13-1.992-.084-.032-.066-.06-1.695-1.495Z" fill="#000"/></svg>