<svg xmlns="http://www.w3.org/2000/svg" width="48" height="48" viewBox="0 0 48 48">
  <path fill="none" stroke="#000" d="M41.5,7.5 C41.5,8.604 40.604,9.5 39.5,9.5 C38.396,9.5 37.5,8.604 37.5,7.5 C37.5,6.396 38.396,5.5 39.5,5.5 C40.604,5.5 41.5,6.396 41.5,7.5 Z M11.5,25.5 C11.5,26.604 10.604,27.5 9.5,27.5 C8.396,27.5 7.5,26.604 7.5,25.5 C7.5,24.396 8.396,23.5 9.5,23.5 C10.604,23.5 11.5,24.396 11.5,25.5 Z M17.5,43.5 L17.5,27.5 L21.5,27.5 L21.5,43.5 M27.5,43.5 L27.5,31.5 L31.5,31.5 L31.5,43.5 M30.6621,19.873 L38.3381,9.127 M21.3369,18.293 L27.6629,20.708 M11.062,24.251 L17.938,18.749 M37.5,43.5 L37.5,19.5 L41.5,19.5 L41.5,43.5 L7.5,43.5 L7.5,35.5 L11.5,35.5 L11.5,43.5 M21.5,17.5 C21.5,18.604 20.604,19.5 19.5,19.5 C18.396,19.5 17.5,18.604 17.5,17.5 C17.5,16.396 18.396,15.5 19.5,15.5 C20.604,15.5 21.5,16.396 21.5,17.5 Z M31.5,21.5 C31.5,22.604 30.604,23.5 29.5,23.5 C28.396,23.5 27.5,22.604 27.5,21.5 C27.5,20.396 28.396,19.5 29.5,19.5 C30.604,19.5 31.5,20.396 31.5,21.5 Z"/>
</svg>
