<svg xmlns="http://www.w3.org/2000/svg" width="24" height="24" version="1.1" viewBox="0 0 24 24">
  <path fill="none" fill-rule="evenodd" stroke="#000" stroke-width="1" d="M4.5,21.4997 L10,21.4997 M6.8301,18.9997 L8.9951,17.7497 M5,17.1697 L6.25,15.0047 M2.5,16.4997 L2.5,13.9997 M20.5,19.7683 L17.75,15.0043 M21.5,16.4997 L21.5,13.9997 M17.1699,18.9997 L15.0049,17.7497 M16.5,21.4997 L14,21.4997 M14.5,9.4997 L20,9.4997 M11.5,7.7683 L8.75,3.0043 M11.5,11.2322 L8.75,15.9952 M16.8301,6.9997 L18.9951,5.7497 M15,5.1697 L16.25,3.0047 M12.5,4.4997 L12.5,1.9997 M8.1699,6.9997 L6.0049,5.7497 M7.5,9.4997 L5,9.4997 M8.1699,11.9997 L6.0049,13.2497 M12.5,14.4997 L12.5,16.9997 M15,13.8298 L16.25,15.9948 M16.8301,11.9997 L18.9951,13.2497 M17.5,9.4997 C17.5,12.2757 15.276,14.4997 12.5,14.4997 C9.724,14.4997 7.5,12.2757 7.5,9.4997 C7.5,6.7237 9.724,4.4997 12.5,4.4997 C15.276,4.4997 17.5,6.7237 17.5,9.4997 Z M14.5,9.4997 C14.5,10.6217 13.622,11.4997 12.5,11.4997 C11.378,11.4997 10.5,10.6217 10.5,9.4997 C10.5,8.3777 11.378,7.4997 12.5,7.4997 C13.622,7.4997 14.5,8.3777 14.5,9.4997 Z M22,16.5251 C21.998,16.5251 21.996,16.5241 21.994,16.5241 C21.832,16.5071 21.667,16.5001 21.5,16.5001 C18.724,16.5001 16.5,18.7231 16.5,21.5001 C16.5,21.6711 16.533,21.8331 16.55,22.0001 M22,19.5681 C21.84,19.5281 21.675,19.5001 21.5,19.5001 C20.378,19.5001 19.5,20.3781 19.5,21.5001 C19.5,21.6741 19.527,21.8391 19.568,22.0001 M7.4502,21.9997 C7.4672,21.8327 7.5002,21.6717 7.5002,21.4997 C7.5002,18.7237 5.2762,16.4997 2.5002,16.4997 C2.3282,16.4997 2.1672,16.5327 2.0002,16.5497 M4.4321,21.9997 C4.4721,21.8397 4.5001,21.6747 4.5001,21.4997 C4.5001,20.3777 3.6221,19.4997 2.5001,19.4997 C2.3261,19.4997 2.1601,19.5277 2.0001,19.5677"/>
</svg>
