<svg class="color-immutable" width="59" height="20" viewBox="0 0 59 20" fill="none" xmlns="http://www.w3.org/2000/svg"><g clip-path="url(#a)"><path d="M.5 2A1.5 1.5 0 0 1 2 .5h55A1.5 1.5 0 0 1 58.5 2v16a1.5 1.5 0 0 1-1.5 1.5H2A1.5 1.5 0 0 1 .5 18V2Z" stroke="#000"/><path d="M12.877 7.71h-2.449c-.048-.575-.263-1.013-.644-1.314-.376-.306-.905-.459-1.587-.459-.607 0-1.08.121-1.418.363-.333.236-.5.57-.5.999 0 .387.161.666.483.838.312.172 1.102.413 2.37.725 1.337.333 2.263.669 2.779 1.007.95.623 1.426 1.49 1.426 2.602 0 1.22-.478 2.18-1.434 2.884-.844.618-1.985.927-3.424.927-1.601 0-2.844-.365-3.73-1.096-.887-.73-1.346-1.77-1.378-3.118h2.562c.037.656.206 1.142.507 1.459.473.505 1.185.757 2.135.757.645 0 1.155-.126 1.531-.379.424-.29.636-.684.636-1.184 0-.5-.298-.865-.894-1.096-.327-.129-1.1-.362-2.32-.7-.763-.21-1.359-.409-1.789-.597-.43-.188-.773-.397-1.031-.628-.602-.537-.902-1.279-.902-2.224 0-1.133.47-2.03 1.41-2.69.8-.565 1.84-.847 3.118-.847 1.122 0 2.062.223 2.82.669 1.09.64 1.664 1.673 1.723 3.102ZM22.255 4.221V6.22a45 45 0 0 0-.572.653c-.44.505-.878 1.141-1.313 1.91a12.981 12.981 0 0 0-1.015 2.199c-.51 1.466-.82 3.14-.927 5.019h-2.433c.017-.886.17-1.87.46-2.949.295-1.08.7-2.159 1.216-3.239.736-1.525 1.483-2.66 2.24-3.407h-5.56V4.22h7.904ZM23.496 7.951c.027-.966.266-1.777.717-2.433.73-1.052 1.829-1.579 3.295-1.579 1.128 0 2.039.288 2.732.862.746.623 1.12 1.429 1.12 2.417 0 .591-.148 1.101-.444 1.531a2.14 2.14 0 0 1-1.184.862c.634.145 1.133.467 1.498.967.371.5.556 1.104.556 1.813 0 1.165-.43 2.118-1.289 2.86-.795.687-1.799 1.031-3.013 1.031-1.316 0-2.36-.379-3.134-1.136-.768-.757-1.152-1.78-1.152-3.07v-.153h2.264c0 .725.172 1.287.515 1.684.344.392.83.588 1.459.588.628 0 1.112-.185 1.45-.556.312-.349.467-.765.467-1.248 0-.58-.199-1.04-.596-1.378-.328-.28-.832-.419-1.515-.419-.193 0-.384.01-.572.032V8.894c.14.01.274.016.403.016 1.354 0 2.03-.502 2.03-1.506 0-.44-.147-.795-.443-1.064-.295-.274-.684-.41-1.168-.41-.553 0-.98.171-1.28.515-.302.344-.463.846-.484 1.506h-2.232Z" fill="#000"/></g><defs><clipPath id="a"><path fill="#fff" d="M0 0h59v20H0z"/></clipPath></defs></svg>