<svg xmlns="http://www.w3.org/2000/svg" width="36" height="36" version="1.1" viewBox="0 0 36 36">
  <path fill="none" fill-rule="evenodd" stroke="#000" stroke-width="1" d="M8.25,23.25 C10.7355,23.25 12.75,25.2645 12.75,27.75 C12.75,30.2355 10.7355,32.25 8.25,32.25 C5.7645,32.25 3.75,30.2355 3.75,27.75 C3.75,25.2645 5.7645,23.25 8.25,23.25 Z M24.75,18.75 C27.2355,18.75 29.25,20.7645 29.25,23.25 C29.25,25.7355 27.2355,27.75 24.75,27.75 C22.2645,27.75 20.25,25.7355 20.25,23.25 C20.25,20.7645 22.2645,18.75 24.75,18.75 Z M12.75,27.75 L12.75,6.75 L29.25,3.75 L29.25,23.25 M12.75,11.25 L29.25,8.25"/>
</svg>
