<svg xmlns="http://www.w3.org/2000/svg" width="36" height="36" fill="none" viewBox="0 0 36 36"><path fill="#000" fill-rule="evenodd" d="M22.25 9.25h3v22h-14.5v-13.5h-1.5v-7h1.5v-1.5h10.5V4.5h1zm-11.5 2.5v5h-.5v-5zm1-1.5v20h12.5v-20zm10.75 11v1h-9v-1zm-9 3v1h9v-1zm9 3v1h-9v-1zM16.25 15c0-.422.203-.863.545-1.205s.783-.545 1.205-.545.863.203 1.205.545.545.783.545 1.205-.202.863-.544 1.206c-.341.341-.781.544-1.203.544s-.864-.203-1.207-.545c-.343-.343-.546-.783-.546-1.205M18 12.25c-.735 0-1.419.344-1.912.838-.494.493-.838 1.178-.838 1.912 0 .735.345 1.42.84 1.913.494.493 1.179.837 1.913.837.735 0 1.418-.344 1.911-.838s.836-1.178.836-1.912c0-.735-.344-1.419-.838-1.912-.493-.494-1.177-.838-1.912-.838" clip-rule="evenodd"/></svg>