<svg xmlns="http://www.w3.org/2000/svg" width="36" height="36" version="1.1" viewBox="0 0 36 36">
  <g fill="none" fill-rule="evenodd" stroke="none" stroke-width="1">
    <path stroke="#000" d="M3.75,26.25 L29.25,26.25 L29.25,12.75 L3.75,12.75 L3.75,26.25 Z M29.25,21.75 L32.25,21.75 L32.25,9.75 L8.25,9.75 L8.25,12.75"/>
    <path fill="#000" d="M16.80615,21.93675 C17.48865,21.85275 17.83065,21.53475 17.83065,20.98575 C17.83065,20.65575 17.69715,20.41275 17.43165,20.25675 C17.35815,20.21175 17.14965,20.13525 16.80615,20.02875 L16.80615,21.93675 Z M16.21815,16.89825 C15.60015,16.95225 15.29115,17.23425 15.29115,17.74275 C15.29115,17.97225 15.35865,18.14925 15.49515,18.27375 C15.63165,18.39825 15.87165,18.50325 16.21815,18.58725 L16.21815,16.89825 Z M16.80615,16.91175 L16.80615,18.72225 C16.85115,18.73575 16.97865,18.76875 17.19015,18.81975 C17.88615,19.00125 18.37665,19.22325 18.66465,19.48575 C19.02165,19.81125 19.20015,20.25675 19.20015,20.82075 C19.20015,21.39375 19.01715,21.87375 18.64965,22.26225 C18.41715,22.51125 18.15765,22.69275 17.87565,22.80825 C17.59215,22.92375 17.23665,22.99275 16.80615,23.01375 L16.80615,23.99925 L16.21815,23.99925 L16.21815,23.00925 C15.53565,22.97025 15.00165,22.79775 14.61615,22.49025 C14.08065,22.05975 13.80765,21.45225 13.80165,20.66925 L15.18015,20.66925 C15.17265,21.44025 15.52065,21.86175 16.21815,21.93675 L16.21815,19.88325 C15.57165,19.70175 15.12465,19.53975 14.87865,19.39875 C14.56515,19.21725 14.33565,19.00275 14.19015,18.75525 C14.04315,18.50775 13.97115,18.20775 13.97115,17.85375 C13.97115,17.46225 14.07315,17.11425 14.27565,16.80825 C14.47965,16.50225 14.77065,16.26525 15.14565,16.09725 C15.41415,15.97725 15.77265,15.90375 16.21815,15.87375 L16.21815,14.99925 L16.80615,14.99925 L16.80615,15.87375 C17.49465,15.90975 18.02415,16.10025 18.39765,16.44825 C18.76665,16.79625 18.95865,17.28075 18.97065,17.90325 L17.65515,17.90325 C17.64315,17.31375 17.35965,16.98375 16.80615,16.91175 L16.80615,16.91175 Z"/>
  </g>
</svg>
