<svg xmlns="http://www.w3.org/2000/svg" width="24" height="24" fill="none" viewBox="0 0 24 24"><path fill="#000" fill-rule="evenodd" d="M5.5 5a.5.5 0 1 0 0 1 .5.5 0 0 0 0-1M4 5.5a1.5 1.5 0 1 1 3 0 1.5 1.5 0 0 1-3 0M18.5 9a.5.5 0 1 0 0 1 .5.5 0 0 0 0-1m-1.5.5a1.5 1.5 0 1 1 3 0 1.5 1.5 0 0 1-3 0M4.5 8h-.377l-.104.363-2 7-.182.637H4v4h3v-4h2.163l-.182-.637-2-7L6.877 8H4.5M6 16H5v3h1zm-2.837-1 1.714-6h1.246l1.714 6zM12.5 5a.5.5 0 1 0 0 1 .5.5 0 0 0 0-1m-1.5.5a1.5 1.5 0 1 1 3 0 1.5 1.5 0 0 1-3 0M10.5 8H10v6h1v6h3v-6h1V8h-4.5m1 5H11V9h3v4h-1v6h-1v-6zm4.5-1h5v5h-1v3h-3v-3h-1v-5m1 4h1v3h1v-3h1v-3h-3z" clip-rule="evenodd"/></svg>