<?xml version="1.0" encoding="utf-8"?>
<!-- Generator: Adobe Illustrator 24.2.0, SVG Export Plug-In . SVG Version: 6.00 Build 0)  -->
<svg version="1.0" id="Ebene_1" xmlns="http://www.w3.org/2000/svg" xmlns:xlink="http://www.w3.org/1999/xlink" x="0px" y="0px"
	 viewBox="0 0 24 24" enable-background="new 0 0 24 24" xml:space="preserve">
<g id="SVG_x5F_24x24pt">
	<path id="backgroundBlue" fill="#2D327D" d="M0,22.5v-21C0,0.675,0.675,0,1.5,0h21C23.325,0,24,0.675,24,1.5v21
		c0,0.825-0.675,1.5-1.5,1.5h-21C0.675,24,0,23.325,0,22.5z"/>
	<g id="content">
		<path fill="#FFFFFF" d="M7.787,4.488c0-0.828-0.672-1.5-1.5-1.5c-0.828,0-1.5,0.672-1.5,1.5c0,0.828,0.672,1.5,1.5,1.5
			C7.115,5.988,7.787,5.316,7.787,4.488L7.787,4.488z"/>
		<path fill="#FFFFFF" d="M3,7.875v5.091C3,13.26,3.239,13.5,3.534,13.5c0.295,0,0.534-0.239,0.534-0.534V8.625h0.469v11.606
			C4.537,20.655,4.882,21,5.306,21c0.424,0,0.769-0.344,0.769-0.769v-6.75h0.487v6.75C6.562,20.655,6.907,21,7.331,21
			C7.755,21,8.1,20.655,8.1,20.231V8.625h0.469v4.341c0,0.295,0.239,0.534,0.535,0.534c0.295,0,0.534-0.239,0.534-0.534l0,0V7.875
			c0-0.828-0.672-1.5-1.5-1.5H4.5C3.672,6.375,3,7.047,3,7.875L3,7.875z"/>
	</g>
</g>
</svg>
