<svg width="48" height="48" viewBox="0 0 48 48" fill="none" xmlns="http://www.w3.org/2000/svg"><path fill-rule="evenodd" clip-rule="evenodd" d="M24.002 4C14.063 4 6 11.136 6 20.445V39H5V20.445C5 10.49 13.609 3 24.002 3 34.394 3 43 10.491 43 20.445V39h-1V20.445C42 11.135 33.94 4 24.002 4Zm-4.737 26h9.47l-.22-.879.97-.242.28 1.121H31v1h-.985l.75 3H32v1h-.985l.75 3H33v1h-.985l.75 3H34v1h-.985l.47 1.879-.97.242-.53-2.121H16.015l-.53 2.121-.97-.242.47-1.879H14v-1h1.235l.75-3H15v-1h1.235l.75-3H16v-1h1.235l.75-3H17v-1h1.235l.28-1.121.97.242-.22.879Zm-.25 1-.75 3h11.47l-.75-3h-9.97Zm-1 4-.75 3H30.735l-.75-3h-11.97Zm-1 4-.75 3H31.735l-.75-3H17.015Z" fill="#000"/></svg>