<svg xmlns="http://www.w3.org/2000/svg" width="48" height="48" fill="none" viewBox="0 0 48 48"><path fill="#000" fill-rule="evenodd" d="M24.002 4C14.064 4 6 11.136 6 20.445V39H5V20.445C5 10.49 13.609 3 24.002 3S43 10.491 43 20.445V39h-1V20.445C42 11.135 33.94 4 24.002 4m-4.737 26h9.47l-.22-.879.97-.242.28 1.121H31v1h-.985l.75 3H32v1h-.985l.75 3H33v1h-.985l.75 3H34v1h-.985l.47 1.879-.97.242-.53-2.121h-15.97l-.53 2.121-.97-.242.47-1.879H14v-1h1.235l.75-3H15v-1h1.235l.75-3H16v-1h1.235l.75-3H17v-1h1.235l.28-1.121.97.242zm-.25 1-.75 3h11.47l-.75-3h-9.97m-1 4-.75 3h13.47l-.75-3h-11.97m-1 4-.75 3h15.47l-.75-3h-13.97" clip-rule="evenodd"/></svg>