<?xml version="1.0" encoding="utf-8"?>
<!-- Generator: Adobe Illustrator 24.2.0, SVG Export Plug-In . SVG Version: 6.00 Build 0)  -->
<svg version="1.0" id="Ebene_1" xmlns="http://www.w3.org/2000/svg" xmlns:xlink="http://www.w3.org/1999/xlink" x="0px" y="0px"
	 viewBox="0 0 24 24" enable-background="new 0 0 24 24" xml:space="preserve">
<g id="SVG_x5F_24x24pt">
	<path id="backgroundBlue" fill="#2D327D" d="M0,22.5v-21C0,0.675,0.675,0,1.5,0h21C23.325,0,24,0.675,24,1.5v21
		c0,0.825-0.675,1.5-1.5,1.5h-21C0.675,24,0,23.325,0,22.5z"/>
	<g id="content">
		<path fill="#FFFFFF" d="M10.212,12.704c0.077,0.21,0.277,0.35,0.501,0.35c0.295,0,0.534-0.239,0.534-0.534
			c0-0.063-0.011-0.126-0.033-0.185l0,0L9.381,7.356c-0.217-0.59-0.779-0.981-1.408-0.981H6.276c-0.628,0-1.19,0.392-1.408,0.981
			l0,0l-1.834,4.978c-0.022,0.059-0.033,0.122-0.033,0.185c0,0.295,0.239,0.534,0.534,0.534c0.224,0,0.424-0.14,0.501-0.35h0
			L5.54,8.625H6.04L3.415,15.75h1.929v4.481C5.343,20.655,5.688,21,6.112,21c0.425,0,0.769-0.344,0.769-0.769V15.75h0.488v4.481
			C7.368,20.655,7.713,21,8.137,21c0.425,0,0.769-0.344,0.769-0.769V15.75h1.929L8.21,8.625h0.5L10.212,12.704L10.212,12.704z"/>
		<path fill="#FFFFFF" d="M8.594,4.488c0-0.828-0.672-1.5-1.5-1.5c-0.828,0-1.5,0.672-1.5,1.5c0,0.828,0.672,1.5,1.5,1.5
			C7.922,5.988,8.594,5.316,8.594,4.488L8.594,4.488z"/>
	</g>
</g>
</svg>
