<?xml version="1.0" encoding="utf-8"?>
<!-- Generator: Adobe Illustrator 24.2.0, SVG Export Plug-In . SVG Version: 6.00 Build 0)  -->
<svg version="1.0" id="Ebene_3" xmlns="http://www.w3.org/2000/svg" xmlns:xlink="http://www.w3.org/1999/xlink" x="0px" y="0px"
	 viewBox="0 0 24 24" enable-background="new 0 0 24 24" xml:space="preserve">
<g id="SVG_x5F_24x24pt">
	<path id="backgroundGreen" fill="#237F52" d="M0,22.5v-21C0,0.675,0.675,0,1.5,0h21C23.325,0,24,0.675,24,1.5v21
		c0,0.825-0.675,1.5-1.5,1.5h-21C0.675,24,0,23.325,0,22.5z"/>
	<g id="content">
		<path fill="#FFFFFF" d="M6.183,5.701L6.176,3.087l5.277,0.005l0.061,1.523l0.956,1.066L6.183,5.701z"/>
		<path fill="#FFFFFF" d="M8.819,9.63c-2.586,0-2.636-3.353-2.636-3.387L6.183,6.172l5.354-0.02l-0.002,0.073
			C11.534,6.259,11.403,9.63,8.819,9.63z"/>
		<path fill="#FFFFFF" d="M12.087,20.984H5.651V10.16h5.253c0.005-0.001,0.012-0.002,0.019-0.002h8.92
			c0.632,0,1.146,0.515,1.146,1.148c0,0.633-0.514,1.147-1.146,1.147h-7.756V20.984z"/>
		<path fill="#FFFFFF" d="M5.118,20.984H2.995v-8.139c0-2.212,2.018-2.637,2.039-2.641l0.085-0.017L5.118,20.984z"/>
		<path fill="#FFFFFF" d="M14.498,7.972l-0.386-0.237l0.085-0.124c0.288-0.421,0.44-0.909,0.44-1.412
			c0-0.513-0.158-1.01-0.457-1.436L14.094,4.64l0.383-0.241l0.078,0.111c0.351,0.501,0.537,1.085,0.537,1.689
			c0,0.592-0.179,1.166-0.517,1.66L14.498,7.972z"/>
		<path fill="#FFFFFF" d="M15.404,8.453l-0.369-0.262l0.093-0.118c0.435-0.551,0.665-1.206,0.665-1.895
			c0-0.683-0.226-1.333-0.654-1.88l-0.093-0.119l0.37-0.26l0.084,0.107c0.489,0.626,0.747,1.37,0.747,2.152
			c0,0.789-0.263,1.539-0.76,2.168L15.404,8.453z"/>
		<path fill="#FFFFFF" d="M16.361,8.915L16,8.642l0.097-0.115c0.562-0.667,0.859-1.471,0.859-2.326c0-0.856-0.314-1.692-0.883-2.354
			l-0.098-0.114l0.358-0.276l0.088,0.103c0.639,0.743,0.991,1.681,0.991,2.642c0,0.96-0.333,1.862-0.963,2.61L16.361,8.915z"/>
	</g>
</g>
</svg>
