<?xml version="1.0" encoding="utf-8"?>
<!-- Generator: Adobe Illustrator 24.2.0, SVG Export Plug-In . SVG Version: 6.00 Build 0)  -->
<svg version="1.0" id="Ebene_1" xmlns="http://www.w3.org/2000/svg" xmlns:xlink="http://www.w3.org/1999/xlink" x="0px" y="0px"
	 viewBox="0 0 24 24" enable-background="new 0 0 24 24" xml:space="preserve">
<g id="SVG_x5F_24x24pt">
	<path id="backgroundBlue" fill="#2D327D" d="M0,22.5v-21C0,0.675,0.675,0,1.5,0h21C23.325,0,24,0.675,24,1.5v21
		c0,0.825-0.675,1.5-1.5,1.5h-21C0.675,24,0,23.325,0,22.5z"/>
	<g id="content">
		<path fill="#FFFFFF" d="M12,3c-4.971,0-9,4.03-9,9c0,4.97,4.03,9,9,9c4.971,0,9-4.03,9-9C21,7.029,16.971,3,12,3 M15.75,11.133
			c-1.029,0-1.864-0.834-1.864-1.864c0-0.092,0.007-0.182,0.02-0.271c-0.818,0.489-1.385,1.664-1.385,2.899l0,4.545h1.156
			c0.207,0,0.375,0.168,0.375,0.375c0,0.207-0.168,0.376-0.375,0.376H12.52l-3.406,0.001l-1.187-0.001
			c-0.207,0-0.375-0.169-0.375-0.376c0-0.207,0.167-0.375,0.375-0.375h1.187V8.283H7.927c-0.207,0-0.375-0.168-0.375-0.375
			c0-0.208,0.167-0.375,0.375-0.375h4.593l0,1.888c0.532-0.772,1.58-2.017,3.229-2.017c1.03,0,1.864,0.835,1.864,1.864
			C17.614,10.299,16.779,11.133,15.75,11.133L15.75,11.133z"/>
	</g>
</g>
</svg>
