<svg class="color-immutable" xmlns="http://www.w3.org/2000/svg" width="59" height="20" fill="none" viewBox="0 0 59 20"><g clip-path="url(#a)"><path stroke="#000" d="M2 .5h55A1.5 1.5 0 0 1 58.5 2v16a1.5 1.5 0 0 1-1.5 1.5H2A1.5 1.5 0 0 1 .5 18V2A1.5 1.5 0 0 1 2 .5Z"/><path fill="#000" d="M4.069 4.224h5.704q1.692 0 2.594.532.749.434 1.144 1.16.395.725.395 1.635 0 1.032-.5 1.797-.491.765-1.377 1.096.78.192 1.224.87.282.426.379.894.097.467.25 2.135.112 1.224.346 1.523l.113.137h-2.683a2 2 0 0 1-.201-.637q-.058-.387-.154-1.788-.096-1.25-.612-1.724-.507-.484-1.74-.484H6.639v4.633h-2.57zm2.57 2.022v3.239h2.457q1.184 0 1.668-.339.612-.426.612-1.289 0-.837-.524-1.224t-1.651-.387zM23.848 11.322v1.99h-1.483v2.69H20.07v-2.69h-4.914v-2.208l5.035-6.88h2.175v7.098zm-3.73.024V6.963l-3.03 4.383zM24.694 7.954q.04-1.45.717-2.433 1.095-1.58 3.295-1.58 1.692 0 2.731.863 1.12.935 1.12 2.417 0 .886-.443 1.53a2.14 2.14 0 0 1-1.185.863q.951.217 1.499.967.555.75.556 1.812 0 1.75-1.29 2.86-1.192 1.032-3.012 1.032-1.974 0-3.134-1.136-1.152-1.136-1.152-3.07v-.153h2.263q0 1.087.516 1.684.516.588 1.458.588.943 0 1.45-.556.468-.523.468-1.249 0-.87-.596-1.377-.492-.42-1.515-.42-.29 0-.572.033V8.897q.21.015.403.016 2.03 0 2.03-1.507 0-.66-.443-1.063-.444-.411-1.168-.411-.83 0-1.281.516-.451.514-.484 1.506z"/></g><defs><clipPath id="a"><path fill="#fff" d="M0 0h59v20H0z"/></clipPath></defs></svg>