<svg xmlns="http://www.w3.org/2000/svg" width="36" height="36" viewBox="0 0 36 36">
  <g fill="none" fill-rule="evenodd">
    <path stroke="#000" d="M9.7632,6.7503 L18.7497,6.7503 L26.2497,14.2503 L26.2497,29.2503 L9.7497,29.2503 L9.7632,6.7503 Z M18.75,6.7503 L18.75,14.2503 L26.25,14.2503"/>
    <path fill="#000" d="M22.27035,22.39545 C22.69935,22.39545 23.05785,22.48095 23.34735,22.65045 C23.76285,22.89645 23.98185,23.28945 24.00585,23.83695 L23.06985,23.83695 C23.05185,23.61795 22.97085,23.44995 22.82535,23.33295 C22.68135,23.21595 22.47735,23.16045 22.21785,23.16045 C21.98535,23.16045 21.80535,23.20395 21.67785,23.29545 C21.54885,23.38845 21.48585,23.51445 21.48585,23.67945 C21.48585,23.82795 21.54735,23.93295 21.67035,23.99745 C21.78885,24.06495 22.09185,24.15645 22.57485,24.27645 C23.08635,24.40245 23.43885,24.53145 23.63685,24.66045 C23.99835,24.89745 24.17985,25.22895 24.17985,25.65345 C24.17985,26.11845 23.99835,26.48595 23.63235,26.75445 C23.31135,26.99295 22.87485,27.10995 22.32585,27.10995 C21.71535,27.10995 21.23985,26.96895 20.90235,26.68995 C20.56335,26.41245 20.38785,26.01345 20.37585,25.50045 L21.35235,25.50045 C21.36735,25.74945 21.43185,25.93395 21.54735,26.05695 C21.72735,26.25045 21.99885,26.34495 22.36185,26.34495 C22.60785,26.34495 22.80285,26.29845 22.94685,26.20095 C23.10885,26.08995 23.18985,25.93995 23.18985,25.74945 C23.18985,25.55895 23.07585,25.41945 22.84935,25.33095 C22.72485,25.28145 22.42785,25.19295 21.96285,25.06395 C21.67035,24.98295 21.44385,24.90645 21.28035,24.83595 C21.11535,24.76245 20.98335,24.68295 20.88585,24.59595 C20.65635,24.39045 20.54085,24.10695 20.54085,23.74545 C20.54085,23.31495 20.72085,22.97295 21.08085,22.72095 C21.38535,22.50345 21.78285,22.39545 22.27035,22.39545 Z M17.7243,22.5045 L17.7243,26.1705 L19.9248,26.1705 L19.9248,27.0015 L16.7433,27.0015 L16.7433,22.5045 L17.7243,22.5045 Z M13.2741,22.50405 L14.1666,23.94705 L15.0696,22.50405 L16.1601,22.50405 L14.7141,24.64905 L16.2921,27.00105 L15.1101,27.00105 L14.1261,25.43805 L13.1241,27.00105 L12.0006,27.00105 L13.5876,24.64905 L12.1236,22.50405 L13.2741,22.50405 Z"/>
  </g>
</svg>
