<svg xmlns="http://www.w3.org/2000/svg" width="36" height="36" fill="none" viewBox="0 0 36 36"><path fill="#000" fill-rule="evenodd" d="M18 3.25a4.25 4.25 0 0 0-4.25 4.25v.25H12v1h1.75v5H12v1h1.66l-2.834 17H7.5v1h21v-1h-3.326l-2.834-17H24v-1h-1.75v-5H24v-1h-1.75V7.5A4.25 4.25 0 0 0 18 3.25m3.25 4.5V7.5a3.25 3.25 0 1 0-6.5 0v.25zm-6.5 1v5h6.5v-5zm-2.91 23 2.834-17h6.652l2.834 17zm15.16-20h3v-1h-3zm6 0h-1.5v-1H33zm-5.752-3.066 5.25-3-.496-.869-5.25 3zm4.754 9-5.25-3 .496-.869 5.25 3zM9 10.749H6v1h3zm-6 0h1.5v1H3zm6.248-2.934-5.25-3-.496.869 5.25 3zm-5.746 9 5.25-3 .496.869-5.25 3z" clip-rule="evenodd"/></svg>