<svg class="color-immutable" xmlns="http://www.w3.org/2000/svg" width="59" height="20" fill="none" viewBox="0 0 59 20"><g clip-path="url(#a)"><path stroke="#000" d="M2 .5h55A1.5 1.5 0 0 1 58.5 2v16a1.5 1.5 0 0 1-1.5 1.5H2A1.5 1.5 0 0 1 .5 18V2A1.5 1.5 0 0 1 2 .5Z"/><path fill="#000" d="M4.069 4.224h5.704q1.692 0 2.594.532.749.434 1.144 1.16.395.725.395 1.635 0 1.032-.5 1.797-.491.765-1.377 1.096.78.192 1.224.87.282.426.379.894.097.467.25 2.135.112 1.224.346 1.523l.113.137h-2.683a2 2 0 0 1-.201-.637q-.058-.387-.154-1.788-.096-1.25-.612-1.724-.507-.484-1.74-.484H6.639v4.633h-2.57zm2.57 2.022v3.239h2.457q1.184 0 1.668-.339.612-.426.612-1.289 0-.837-.524-1.224t-1.651-.387zM24.436 13.827v2.176h-8.33V4.223h2.57v9.604zM33.677 11.322v1.99h-1.483v2.69h-2.296v-2.69h-4.914v-2.208l5.035-6.88h2.175v7.098zm-3.73.024V6.963l-3.03 4.383zM42.757 13.908v2.095h-8.484q0-.96.306-1.83.315-.87.878-1.498.435-.483 1.015-.942.588-.46 2.329-1.684.846-.588 1.184-1.096a2.07 2.07 0 0 0 .339-1.176q0-.774-.46-1.249-.45-.483-1.192-.483-1.821 0-1.877 2.618H34.53v-.258q0-2.142 1.2-3.32 1.169-1.143 3.021-1.143 1.644 0 2.748.934 1.2 1.016 1.2 2.732 0 1.498-.959 2.578-.314.354-.588.572-.273.21-1.442 1.023-1.112.774-1.595 1.184a6.5 6.5 0 0 0-.886.943z"/></g><defs><clipPath id="a"><path fill="#fff" d="M0 0h59v20H0z"/></clipPath></defs></svg>