<svg xmlns="http://www.w3.org/2000/svg" width="24" height="24" fill="none" viewBox="0 0 24 24"><path fill="#000" fill-rule="evenodd" d="M7.34 3.714a8 8 0 0 1-.965-.214q.368-.114.965-.214C8.39 3.111 9.862 3 11.5 3s3.109.111 4.16.286c.397.066.72.14.965.214a8 8 0 0 1-.965.214C14.61 3.889 13.138 4 11.5 4s-3.109-.11-4.16-.286m8.485.986A8 8 0 0 0 17 4.43V9.5c0 .057-.034.191-.281.386-.241.19-.62.383-1.135.554-1.022.34-2.466.56-4.084.56s-3.062-.22-4.084-.56c-.514-.171-.894-.364-1.135-.554C6.034 9.69 6 9.557 6 9.5V4.43c.323.105.724.195 1.175.27 1.12.187 2.65.3 4.325.3s3.204-.113 4.325-.3M18 9.5v-6c0-.287-.175-.482-.306-.59a1.8 1.8 0 0 0-.482-.264c-.352-.14-.831-.254-1.387-.346-1.121-.187-2.65-.3-4.325-.3s-3.204.113-4.325.3c-.556.092-1.035.207-1.387.346a1.8 1.8 0 0 0-.482.265c-.13.107-.306.302-.306.59v6c0 .494.302.886.662 1.17.27.212.61.397 1 .556.272.686.902 1.227 1.66 1.6.865.426 1.977.674 3.178.674s2.313-.248 3.179-.675c.756-.372 1.386-.913 1.658-1.598.39-.16.731-.344 1-.557.361-.284.663-.676.663-1.17m-9.237 2.43a4 4 0 0 1-.372-.21c.923.18 1.985.28 3.109.28s2.186-.1 3.109-.28a4 4 0 0 1-.372.21c-.708.348-1.665.57-2.737.57s-2.029-.222-2.737-.57m8.305-8.621-.002.002zM5.934 3.31l-.002-.002zm-.435 12.751L5.995 16zv.004l.001.006.003.024.013.082a8.953 8.953 0 0 0 .299 1.246c.233.733.645 1.68 1.358 2.327 1.383 1.252 2.587 2.216 4.327 2.216s2.945-.963 4.327-2.216c.713-.646 1.125-1.594 1.359-2.327a9 9 0 0 0 .31-1.328l.004-.024v-.008l.001-.001-.488-.062.488.061.001-.008.495-4.55-.994-.108-.494 4.544-.003.016-.01.065a7.98 7.98 0 0 1-.264 1.1c-.215.678-.56 1.421-1.077 1.89-1.392 1.261-2.339 1.956-3.655 1.956s-2.262-.694-3.655-1.956c-.517-.469-.862-1.212-1.078-1.89a8 8 0 0 1-.273-1.165l-.002-.015-.495-4.545-.994.108.495 4.55zM11.5 18c-.6 0-1.14-.211-1.542-.436a4 4 0 0 1-.612-.426l-.005-.004L9 17.5l-.341.365v.001l.002.002.005.004.013.012.045.04q.058.049.162.13c.138.105.336.243.583.382.491.275 1.201.564 2.031.564s1.54-.29 2.03-.564a5 5 0 0 0 .791-.552l.013-.012.005-.004.001-.002h.001L14 17.5l-.341-.366-.005.004-.027.024a3.943 3.943 0 0 1-.585.401C12.64 17.79 12.1 18 11.5 18m2.4-10.5L12.3 6h1.2l2 2-2 2h-1.2l1.6-1.5H12V10h-1V8.5H9.1l1.6 1.5H9.5l-2-2 2-2h1.2L9.1 7.5H11V6h1v1.5zm-3.7 7.7c0-.4-.3-.8-.8-.8s-.8.3-.8.8c0 .4.3.8.8.8s.8-.3.8-.8m4 0c0-.4-.3-.8-.8-.8s-.8.3-.8.8c0 .4.3.8.8.8s.8-.3.8-.8" clip-rule="evenodd"/></svg>