<svg xmlns="http://www.w3.org/2000/svg" width="16" height="16" fill="none" viewBox="0 0 16 16"><path fill="#000" fill-rule="evenodd" d="M1 1h13.905v14H1zm1.264 12.727H13.64V2.273H2.265zm5.345-8.82a.86.86 0 1 0 0-1.72.86.86 0 0 0 0 1.72m2.516 5.156.598 1.636a.644.644 0 1 0 1.21-.44l-.894-2.462a.68.68 0 0 0-.646-.453H8.64v-1.89c0-.571-.46-1.032-1.031-1.032s-1.032.46-1.032 1.031v2.578c0 .57.46 1.031 1.032 1.031zm-.516.467.426 1.169v.007a3.24 3.24 0 0 1-2.426 1.107 3.27 3.27 0 0 1-3.266-3.266c0-1.169.619-2.186 1.547-2.764v1.354a2.22 2.22 0 0 0-.516 1.41A2.24 2.24 0 0 0 7.61 11.78c.88 0 1.636-.515 2-1.251" clip-rule="evenodd"/></svg>