<svg xmlns="http://www.w3.org/2000/svg" width="36" height="36" viewBox="0 0 36 36">
  <path fill="none" stroke="#000" d="M26.25,12.0219 C26.25,7.4649 22.5555,3.7719 18,3.7719 C13.443,3.7719 9.75,7.4649 9.75,12.0219 C9.8055,13.4364 10.224,14.6274 10.899,15.7509 L18.024,26.9979 L25.149,15.7509 C25.8135,14.5854 26.238,13.3734 26.25,12.0219 Z M13.2027,23.5122 C7.6782,24.1377 3.7497,25.8102 3.7497,27.7497 C3.7497,30.2157 10.0977,32.2497 17.9997,32.2497 C25.9032,32.2497 32.2497,30.2157 32.2497,27.7497 C32.2497,25.8252 28.3797,24.1632 22.9227,23.5272 M20.25,9.75 L23.25,9.75 M20.25,12.75 L23.25,12.75 M15.75,11.25 L12,11.25 M20.25,14.25 L20.25,8.25 L18.747,8.2515 C17.091,8.2515 15.75,9.594 15.75,11.25 C15.75,12.906 17.094,14.25 18.75,14.25 L20.25,14.25 Z"/>
</svg>
