<svg xmlns="http://www.w3.org/2000/svg" width="36" height="36" fill="none" viewBox="0 0 36 36"><path fill="#000" fill-rule="evenodd" d="M8.75 5.25a1 1 0 1 1 2 0v2.5h-2zm-1 2.5v-2.5a2 2 0 1 1 4 0v2.5h12.5v-2.5a2 2 0 1 1 4 0v2.5h4.5v7h-4.5v5.002h4.5v7h-4.5v5.998h-4v-5.998h-12.5v5.998h-4v-5.998h-4.5v-7h4.5V14.75h-4.5v-7h4.5m19.5-2.5v2.5h-2v-2.5a1 1 0 1 1 2 0m0 14.502V14.75h-2v5.002zm-15.5-5.002h12.5v5.002h-12.5zm-3 5.002V14.75h2v5.002zM4.25 8.75v5h3.793l5-5zm10.207 0-5 5h12.086l5-5zm17.293 5h-8.793l5-5h3.793zm-4.5 13.002v4.998h-2v-4.998zm-18.5 0v4.998h2v-4.998zm-4.5-6v4.29l4.291-4.29zm9.791 5H4.955l5-5h9.086zm6.415-5-5 5h9.085l5-5zm10.5 0-5 5h5.794v-5z" clip-rule="evenodd"/></svg>