<?xml version="1.0" encoding="utf-8"?>
<!-- Generator: Adobe Illustrator 24.2.0, SVG Export Plug-In . SVG Version: 6.00 Build 0)  -->
<svg version="1.0" id="Ebene_3" xmlns="http://www.w3.org/2000/svg" xmlns:xlink="http://www.w3.org/1999/xlink" x="0px" y="0px"
	 viewBox="0 0 24 24" enable-background="new 0 0 24 24" xml:space="preserve">
<g id="SVG_x5F_24x24pt">
	<path id="backgroundGreen" fill="#237F52" d="M0,22.5v-21C0,0.675,0.675,0,1.5,0h21C23.325,0,24,0.675,24,1.5v21
		c0,0.825-0.675,1.5-1.5,1.5h-21C0.675,24,0,23.325,0,22.5z"/>
	<g id="content">
		<path fill="#FFFFFF" d="M8.421,3.02L7.189,3.398l0.01,4.327L8.66,7.277c0.185-0.058,0.311-0.226,0.313-0.421l0.02-3.409
			c0.002-0.046-0.005-0.089-0.018-0.131C8.902,3.08,8.655,2.948,8.421,3.02"/>
		<path fill="#FFFFFF" d="M11.93,16.353c-0.111-0.158-0.31-0.229-0.493-0.172l-1.462,0.447l2.417,3.588l1.232-0.379
			c0.234-0.071,0.364-0.321,0.294-0.553c-0.013-0.044-0.031-0.083-0.059-0.122L11.93,16.353z"/>
		<path fill="#FFFFFF" d="M8.575,17.2c-0.873-1.342-1.555-2.799-2.023-4.329C6.082,11.341,5.83,9.752,5.8,8.155l0.882-0.271
			L6.67,3.557L5.408,3.943C4.786,4.135,4.28,4.589,4.023,5.186c-1.175,2.722-1.343,5.773-0.473,8.606
			c0.871,2.834,2.718,5.266,5.219,6.861c0.546,0.349,1.222,0.44,1.842,0.249l1.262-0.387l-2.417-3.587L8.575,17.2z"/>
		<path fill="#FFFFFF" d="M16.06,4.573c0-0.592,0.224-1.076,0.801-1.076c0.391,0,0.803,0.315,0.803,1.076
			c0,0.572-0.261,1.05-0.803,1.05C16.265,5.623,16.06,5.073,16.06,4.573 M15.496,4.569c0,0.863,0.507,1.535,1.37,1.535
			c0.762,0,1.363-0.582,1.363-1.532C18.229,3.687,17.704,3,16.861,3C16.094,3,15.496,3.594,15.496,4.569"/>
		<path fill="#FFFFFF" d="M12.729,5.093c0,0.294,0.214,1.013,1.264,1.013c0.998,0,1.199-0.591,1.199-0.96
			c0-0.494-0.344-0.768-0.756-0.835c-0.092-0.017-0.336-0.052-0.428-0.066c-0.32-0.049-0.616-0.056-0.616-0.346
			c0-0.267,0.249-0.409,0.568-0.409c0.304,0,0.614,0.117,0.635,0.477h0.577c-0.017-0.302-0.232-0.959-1.211-0.959
			c-0.617,0-1.124,0.32-1.124,0.942c0,0.655,0.607,0.784,1.024,0.836c0.092,0.011,0.293,0.04,0.346,0.049
			c0.251,0.04,0.411,0.159,0.411,0.371c0,0.285-0.323,0.417-0.604,0.417c-0.353,0-0.699-0.144-0.699-0.529H12.729z"/>
		<path fill="#FFFFFF" d="M18.54,5.093c0,0.294,0.212,1.013,1.263,1.013C20.8,6.105,21,5.515,21,5.146
			c0-0.494-0.343-0.768-0.754-0.835c-0.092-0.017-0.336-0.052-0.428-0.066c-0.32-0.049-0.616-0.056-0.616-0.346
			c0-0.267,0.25-0.409,0.568-0.409c0.305,0,0.614,0.117,0.635,0.477h0.576c-0.018-0.302-0.231-0.959-1.21-0.959
			c-0.617,0-1.124,0.32-1.124,0.942c0,0.655,0.608,0.784,1.024,0.836c0.091,0.011,0.293,0.04,0.346,0.049
			c0.251,0.04,0.411,0.159,0.411,0.371c0,0.285-0.321,0.417-0.603,0.417c-0.351,0-0.699-0.144-0.699-0.529H18.54z"/>
	</g>
</g>
</svg>
