<svg xmlns="http://www.w3.org/2000/svg" width="36" height="36" fill="none" viewBox="0 0 36 36"><path fill="#000" fill-rule="evenodd" d="M3.75 3.25h-.5v29.5h29.5V3.25h-29m.5 22.5V4.25h27.5v21.5H30.3l-5.859-10.985-.334-.626-.477.525-7.17 7.887-5.63-4.927-.47-.411-.299.548-4.358 7.989zm0 1v5h27.5v-5zm6.25-18a1.749 1.749 0 1 0 0 3.5 1.749 1.749 0 1 0 0-3.5M7.75 10.5c0-1.52 1.23-2.75 2.75-2.75s2.75 1.23 2.75 2.75-1.23 2.75-2.75 2.75-2.75-1.23-2.75-2.75m21.417 15.25-5.274-9.889-7.023 7.725-.33.363-.37-.323-5.53-4.839-3.798 6.963z" clip-rule="evenodd"/></svg>