<svg xmlns="http://www.w3.org/2000/svg" width="24" height="24" fill="none" viewBox="0 0 24 24"><path fill="#000" fill-rule="evenodd" d="m12 1.988.108.024 4.5 1 .392.087V3.5c0 3.375-1.172 5.732-2.357 7.246a10 10 0 0 1-1.629 1.653 8 8 0 0 1-.705.5l-.046.026-.014.008-.004.003h-.002L12 12.5l-.244.437-.002-.001-.004-.003-.014-.008-.045-.027-.16-.1a8 8 0 0 1-.546-.399 10 10 0 0 1-1.629-1.652C8.171 9.234 7 6.881 7 3.51v-.4l.39-.088 4.5-1.01zM12 12.5l.242.437-.242.135-.243-.135zm0-.593c.104-.071.237-.168.391-.29.397-.316.93-.805 1.465-1.488 1.019-1.302 2.05-3.32 2.138-6.23L12 3.013l-3.994.897c.087 2.904 1.118 4.92 2.137 6.221a9 9 0 0 0 1.465 1.487q.233.183.392.29M4.42 13.32l3.575 2.496c.039-.423.202-.846.501-1.18.35-.392.862-.636 1.494-.636h2.238v.004c1.609.073 3.117.965 4.277 2.075l.01.008 5.03 5.06.847.853h-8.858l-.146-.145-.864-.855H8.601l-.142-.125-5.923-5.214A1.502 1.502 0 0 1 4.42 13.32M12.095 15H9.99c-.358 0-.595.13-.748.302a1.07 1.07 0 0 0-.256.702c-.002.268.086.518.243.695.149.168.387.301.76.301h2v1h-2c-.622 0-1.128-.228-1.478-.603L3.833 14.13l-.015-.01-.014-.012a.502.502 0 1 0-.629.784l.008.006.007.007L8.978 20h3.957l.146.145.864.855h6.043l-4.178-4.203c-1.09-1.04-2.412-1.769-3.716-1.797m-.192-6.646 2.5-2.5-.707-.708-2.147 2.147-.896-.897-.707.708 1.25 1.25.353.353z" clip-rule="evenodd"/></svg>