<svg xmlns="http://www.w3.org/2000/svg" width="36" height="36" viewBox="0 0 36 36">
  <g fill="none" fill-rule="evenodd">
    <path stroke="#000" d="M5.25,5.25 L5.25,32.25 L30.75,32.25 L30.75,5.25 L21.75,5.25 L21.75,3.75 L14.25,3.75 L14.25,5.25 L5.25,5.25 Z M21.75,5.25 L21.75,6.75 L14.25,6.75 L14.25,5.25"/>
    <path fill="#000" d="M16.9575,25.1745 L18.8565,25.1745 L18.8565,23.346 L16.9575,23.346 L16.9575,25.1745 Z M13.962,16.281 C14.0025,15.1905 14.217,14.346 14.6025,13.749 C14.961,13.1985 15.435,12.774 16.0275,12.474 C16.6185,12.1755 17.283,12.027 18.0225,12.027 C19.212,12.027 20.157,12.363 20.8605,13.0365 C21.5175,13.6575 21.8445,14.475 21.8445,15.489 C21.8445,16.3275 21.6225,17.0475 21.177,17.652 C20.9775,17.9265 20.5005,18.4335 19.7445,19.1715 C19.41,19.494 19.1775,19.7625 19.0455,19.9755 C18.9135,20.19 18.822,20.4555 18.7695,20.772 C18.711,21.0885 18.681,21.498 18.681,22.002 L17.187,22.002 C17.199,21.105 17.2785,20.4405 17.424,20.007 C17.5305,19.6905 17.6805,19.4055 17.877,19.155 C18.0735,18.903 18.5085,18.4305 19.182,17.739 C19.6155,17.2935 19.9005,16.893 20.034,16.5345 C20.1465,16.23 20.202,15.9195 20.202,15.603 C20.202,15.018 20.04,14.526 19.719,14.127 C19.332,13.641 18.7605,13.398 18.0045,13.398 C16.44,13.398 15.5955,14.358 15.4725,16.281 L13.962,16.281 Z"/>
  </g>
</svg>
