<svg xmlns="http://www.w3.org/2000/svg" width="24" height="24" version="1.1" viewBox="0 0 24 24">
  <path fill="none" fill-rule="evenodd" stroke="#000" stroke-width="1" d="M4.502,21.5005 L10.502,21.5005 L10.499,10.7485 C10.499,9.5055 9.492,8.4985 8.249,8.4985 L6.747,8.4985 C5.504,8.4985 4.497,9.5055 4.497,10.7485 L4.502,21.5005 Z M4.4995,11.5 L10.4995,11.5 M4.4995,19.501 L10.4995,19.501 M7.5,6.5 L7.5,8.5 M6.5,6.5 L8.5,6.5 L8.5,4.5 L6.5,4.5 L6.5,6.5 Z M10.5,6.5 L14.877,7.343 C14.644,7.67 14.504,8.068 14.504,8.5 C14.504,9.605 15.399,10.5 16.504,10.5 C17.608,10.5 18.504,9.605 18.504,8.5 L18.504,8.5 C19.609,8.5 20.504,7.605 20.504,6.5 C20.504,5.396 19.609,4.5 18.504,4.5 C18.504,3.396 17.608,2.5 16.504,2.5 C15.399,2.5 14.504,3.396 14.504,4.5 C14.504,4.583 14.519,4.663 14.528,4.744 L10.5,5.5 L10.5,6.5 Z"/>
</svg>
