<svg xmlns="http://www.w3.org/2000/svg" width="36" height="36" fill="none" viewBox="0 0 36 36"><path fill="#000" fill-rule="evenodd" d="m7.827 5.926 1.602-2.67-.857-.514-2.25 3.75-.258.43.43.256 3.75 2.25.514-.857-2.76-1.656c2.942-.778 6.064-1.165 9.252-1.165 3.168 0 6.315.395 9.25 1.167L23.743 8.57l.515.857 3.75-2.25.428-.257-.257-.429-2.25-3.75-.857.515 1.603 2.672c-3-.781-6.205-1.18-9.425-1.18-3.238 0-6.417.39-9.423 1.177m2.924 6.82a2 2 0 0 1 2-2l9 .002a2 2 0 0 1 2 2v18a2 2 0 0 1-2 2h-9a2 2 0 0 1-2-2zm2-1a1 1 0 0 0-1 1v18.002a1 1 0 0 0 1 1h9a1 1 0 0 0 1-1v-18a1 1 0 0 0-1-1zm6.75.502v1H15v-1zm-10.673-.553L4.54 13.267l.171.47-.172-.47a2 2 0 0 0-1.194 2.564v.003l5.188 13.965.937-.348-5.186-13.962v-.002a1 1 0 0 1 .598-1.28h.001l4.29-1.573zm21.042 1.572-4.29-1.572-.343.94 4.29 1.571a1 1 0 0 1 .599 1.281v.002L24.94 29.45l.937.348 5.187-13.965.001-.003a2 2 0 0 0-1.195-2.564l-.171.47z" clip-rule="evenodd"/></svg>