<svg width="36" height="36" viewBox="0 0 36 36" fill="none" xmlns="http://www.w3.org/2000/svg"><path fill-rule="evenodd" clip-rule="evenodd" d="M26.5 6.917c-2.935-.772-6.082-1.167-9.25-1.167-3.188 0-6.31.387-9.251 1.165l2.759 1.656-.515.857-3.75-2.25-.429-.257.258-.429 2.25-3.75.857.515-1.602 2.67c3.006-.787 6.185-1.177 9.423-1.177 3.22 0 6.425.398 9.425 1.179l-1.603-2.672.857-.515 2.25 3.75.258.43-.43.256-3.75 2.25-.514-.857L26.5 6.917Zm-15.75 5.83a2 2 0 0 1 2-2l9 .001a2 2 0 0 1 2 2v18a2 2 0 0 1-2 2h-9a2 2 0 0 1-2-2V12.747Zm2-1a1 1 0 0 0-1 1v18.001a1 1 0 0 0 1 1h9a1 1 0 0 0 1-1v-18a1 1 0 0 0-1-1l-9-.001Zm6.75.501v1H15v-1h4.5Zm-10.672-.553L4.54 13.267l.171.47-.172-.47a2 2 0 0 0-1.194 2.564v.003l5.188 13.965.937-.348-5.186-13.963a1 1 0 0 1 .598-1.281h.001l4.29-1.573-.344-.939Zm21.042 1.572-4.29-1.572-.343.94 4.29 1.571a1 1 0 0 1 .599 1.281v.002L24.94 29.45l.937.348 5.187-13.965.001-.003a2 2 0 0 0-1.195-2.564l-.171.47.17-.47Z" fill="#000"/></svg>