<svg class="color-immutable" xmlns="http://www.w3.org/2000/svg" width="59" height="20" fill="none" viewBox="0 0 59 20"><path fill="#000" d="M1.792 0h55.416C58.197 0 59 .806 59 1.8v16.4c0 .994-.801 1.8-1.792 1.8H1.792A1.797 1.797 0 0 1 0 18.2V1.8C0 .806.803 0 1.792 0"/><path fill="#FFDE15" d="M12.8 7.661h-2.405q-.07-.846-.633-1.289-.553-.45-1.558-.45-.894 0-1.392.355-.49.349-.49.981 0 .57.474.823.459.252 2.326.712 1.97.49 2.729.988 1.4.918 1.4 2.555 0 1.796-1.408 2.832-1.242.91-3.362.91-2.357 0-3.662-1.076t-1.353-3.061h2.515q.055.964.499 1.432.696.743 2.096.743.95 0 1.503-.372.624-.427.625-1.162 0-.736-.878-1.076-.483-.19-2.278-.688-1.125-.309-1.756-.586-.633-.276-1.013-.617-.886-.79-.886-2.183 0-1.669 1.384-2.642 1.18-.83 3.062-.83 1.653 0 2.768.656 1.606.942 1.693 3.045M24.515 4.236v11.565h-2.54l-4.84-7.879.031 7.879h-2.428V4.236h2.57l4.81 7.863-.031-7.863zM26.216 7.899q.038-1.424.704-2.39 1.075-1.55 3.235-1.55 1.66 0 2.681.847 1.1.918 1.1 2.373 0 .87-.435 1.503a2.1 2.1 0 0 1-1.163.846q.933.214 1.471.95.546.735.546 1.78 0 1.716-1.265 2.807-1.17 1.013-2.959 1.013-1.938 0-3.077-1.115-1.131-1.116-1.131-3.014v-.15h2.223q0 1.067.506 1.653.506.577 1.432.577t1.424-.546a1.78 1.78 0 0 0 .458-1.226q0-.854-.585-1.352-.482-.412-1.487-.412-.285 0-.562.032v-1.7q.206.015.396.015 1.993 0 1.993-1.48 0-.648-.435-1.043-.435-.405-1.147-.404-.814 0-1.258.507-.442.505-.474 1.479zM39.204 3.96q1.32 0 2.326.806.997.807 1.447 2.484.34 1.282.34 2.784 0 2.492-.886 4.098-.522.933-1.368 1.44a3.56 3.56 0 0 1-1.875.506q-1.416 0-2.42-.854-1.788-1.52-1.788-5.19 0-2.61.934-4.192a3.77 3.77 0 0 1 1.384-1.392 3.8 3.8 0 0 1 1.906-.49m-.087 1.953q-1.14 0-1.55 1.313-.325 1.044-.325 2.927 0 1.662.333 2.666.426 1.305 1.582 1.305.956 0 1.424-1.013.465-1.012.466-3.092 0-1.772-.332-2.793-.428-1.313-1.598-1.313"/></svg>