<svg class="color-immutable" width="59" height="20" viewBox="0 0 59 20" fill="none" xmlns="http://www.w3.org/2000/svg"><path fill-rule="evenodd" clip-rule="evenodd" d="M2 0a2 2 0 0 0-2 2v16a2 2 0 0 0 2 2h55a2 2 0 0 0 2-2V2a2 2 0 0 0-2-2H2Z" fill="#F27E00"/><path d="M14.153 4.17v2.142H7.98v2.476h5.657v1.991H7.98v2.849h6.284v2.142H5.45V4.17h8.704ZM25.311 4.17l-3.856 11.6h-2.88l-3.8-11.6h2.65l2.61 8.688 2.65-8.688h2.626ZM31.225 4.17v11.6h-2.317V8.177h-2.73V6.495c.566-.016 1.026-.075 1.38-.175.36-.1.689-.265.985-.492.428-.328.717-.88.865-1.658h1.817ZM34.258 12.858h2.19c.18.9.7 1.349 1.563 1.349.487 0 .88-.164 1.182-.492.307-.333.542-.849.706-1.547.106-.445.183-.95.23-1.516-.354.498-.719.852-1.094 1.064-.37.206-.823.309-1.357.309-.852 0-1.592-.249-2.222-.746a3.555 3.555 0 0 1-1.032-1.357 4.459 4.459 0 0 1-.364-1.809c0-1.306.447-2.364 1.34-3.174.767-.698 1.688-1.047 2.762-1.047.66 0 1.272.148 1.833.444.56.297 1.031.717 1.412 1.262.672.968 1.008 2.327 1.008 4.078 0 1.619-.297 3-.889 4.142-.772 1.487-1.941 2.23-3.507 2.23-1.042 0-1.904-.289-2.587-.865-.677-.577-1.068-1.352-1.174-2.325Zm3.856-7.006c-.497 0-.918.203-1.261.61-.344.413-.516.937-.516 1.572 0 .513.124.968.373 1.365.338.544.814.817 1.428.817.555 0 1-.222 1.333-.667.312-.418.468-.915.468-1.491 0-.609-.161-1.124-.484-1.548a1.611 1.611 0 0 0-1.34-.658Z" fill="#000"/></svg>