<svg xmlns="http://www.w3.org/2000/svg" width="26" height="16" fill="none" viewBox="0 0 26 16"><path fill="#000" d="M23.923 11.307c-.003-.003-7.376-3.486-7.376-3.486a2.89 2.89 0 0 1-1.414-2.38v-2.3C15.133 1.966 14.177 1 13.01 1s-2.124.963-2.124 2.142v.09c0 .043.035.079.079.079h1.02a.08.08 0 0 0 .079-.08v-.09a.95.95 0 0 1 .946-.953c.522 0 .947.427.947.954v6.965a.95.95 0 0 1-.948.955.95.95 0 0 1-.947-.955l.002-.018V5.367a.08.08 0 0 0-.079-.08h-1.021a.08.08 0 0 0-.079.08v.075l-.001.001a2.88 2.88 0 0 1-1.415 2.38s-7.39 3.482-7.393 3.485A1.95 1.95 0 0 0 1 13.052C1 14.128 1.867 15 2.933 15h20.132A1.94 1.94 0 0 0 25 13.052a1.95 1.95 0 0 0-1.077-1.745m-.067 1.745a.79.79 0 0 1-.785.791H2.945a.79.79 0 0 1 0-1.582h20.126a.79.79 0 0 1 .785.79"/></svg>