<svg class="color-immutable" xmlns="http://www.w3.org/2000/svg" width="59" height="20" fill="none" viewBox="0 0 59 20"><g clip-path="url(#a)"><path fill="#EB0000" fill-rule="evenodd" d="M2 0a2 2 0 0 0-2 2v16a2 2 0 0 0 2 2h55a2 2 0 0 0 2-2V2a2 2 0 0 0-2-2z" clip-rule="evenodd"/><path fill="#fff" d="M9.22 4.2h4.057L8.259 15.8H4.186zM15.948 4.2h14.395l-1.49 3.445h-10.28l-2.042 4.71h10.285l-1.49 3.445H10.93zM44.772 11.203v1.954h-1.455v2.642h-2.254v-2.642h-4.826v-2.168l4.944-6.755h2.136v6.969zm-3.662.024V6.922l-2.974 4.304zM53.11 4.234V6.29h-4.66l-.498 2.602q.84-.886 2.144-.886 1.282 0 2.23.688 1.41 1.036 1.409 3.149 0 2.072-1.503 3.282-1.17.95-2.8.95-1.836 0-2.951-.982-1.116-.988-1.179-2.665h2.27q.056.609.396 1.036.53.672 1.471.672.91 0 1.44-.656.514-.641.514-1.558 0-.997-.538-1.59-.538-.602-1.431-.602-1.092 0-1.701.981l-2.065-.031 1.1-6.447z"/></g><defs><clipPath id="a"><path fill="#fff" d="M0 0h59v20H0z"/></clipPath></defs></svg>