<svg xmlns="http://www.w3.org/2000/svg" width="24" height="24" fill="none" viewBox="0 0 24 24"><path fill="#000" fill-rule="evenodd" d="M12 4c-4.437 0-8 3.563-8 8s3.563 8 8 8 8-3.564 8-8c0-4.437-3.563-8-8-8m-9 8c0-4.989 4.01-9 9-9s9 4.011 9 9-4.01 9-9 9-9-4.012-9-9m8.124 5.991h1.73v-1.666h-1.73zM8.978 7.58q-.53.818-.585 2.306h1.378q.167-2.626 2.306-2.626 1.032 0 1.561.665.44.544.44 1.345 0 .432-.152.849-.183.489-.777 1.097-.92.945-1.189 1.289-.268.344-.412.777-.2.592-.216 1.818h1.361q0-.69.08-1.121.072-.433.252-.725t.637-.733q1.034-1.009 1.305-1.385.609-.825.609-1.97 0-1.386-.897-2.234-.961-.921-2.586-.921-1.01 0-1.818.408A3.3 3.3 0 0 0 8.978 7.58" clip-rule="evenodd"/></svg>