<svg xmlns="http://www.w3.org/2000/svg" width="36" height="36" version="1.1" viewBox="0 0 36 36">
  <path fill="none" fill-rule="evenodd" stroke="#000" stroke-width="1" d="M3.75,18 C3.75,10.1295 10.1295,3.75 18,3.75 C25.8705,3.75 32.25,10.1295 32.25,18 C32.25,25.8705 25.8705,32.25 18,32.25 C10.1295,32.25 3.75,25.8705 3.75,18 Z M18,7.6845 L18,9.582 M16.82085,11.3496 L17.99985,9.5811 L19.17885,11.3496 M16.1382,8.9604 L17.9997,9.5814 L19.8612,8.9604 M24,10.1499 L24,12.0474 M22.82085,13.815 L23.99985,12.0465 L25.17885,13.815 M22.1382,11.4258 L23.9997,12.0468 L25.8612,11.4258 M26.25,16.1031 L26.25,18.0006 M25.07085,19.76805 L26.24985,17.99955 L27.42885,19.76805 M24.3882,17.37885 L26.2497,17.99985 L28.1112,17.37885 M24,22.05615 L24,23.95365 M22.82085,25.72125 L23.99985,23.95275 L25.17885,25.72125 M22.1382,23.33205 L23.9997,23.95305 L25.8612,23.33205 M18,24.52155 L18,26.41905 M16.82085,28.188 L17.99985,26.418 L19.17885,28.188 M16.1382,25.7988 L17.9997,26.4183 L19.8612,25.7988 M12,22.05615 L12,23.95365 M10.82085,25.72125 L11.99985,23.95275 L13.17885,25.72125 M10.1382,23.33205 L11.9997,23.95305 L13.8612,23.33205 M9.75,16.1031 L9.75,18.0006 M8.57085,19.76805 L9.74985,17.99955 L10.92885,19.76805 M7.8882,17.37885 L9.7497,17.99985 L11.6112,17.37885 M12,10.1499 L12,12.0474 M10.82085,13.815 L11.99985,12.0465 L13.17885,13.815 M10.1382,11.4258 L11.9997,12.0468 L13.8612,11.4258"/>
</svg>
