<svg xmlns="http://www.w3.org/2000/svg" width="24" height="24" fill="none" viewBox="0 0 24 24"><path fill="#000" fill-rule="evenodd" d="M10.5 5.5a1.5 1.5 0 1 1 3 0 1.5 1.5 0 0 1-3 0M14 7a2.5 2.5 0 1 0-4 0H5.071l-.065.424-2 13-.089.576h18.166l-.089-.576-2-13L18.93 7H14m-2 1H5.929L4.083 20h15.834L18.071 8zm-.166 4.01L9.596 14.27l2.449 3.453h-1.574l-1.734-2.563-.719.719v1.844H6.772V12.01h1.246v2.363l2.238-2.363zm5.46 5.711v-3.078h-2.397v.914h1.269q-.02.578-.396.934-.377.355-.967.355-.816 0-1.235-.613-.34-.5-.34-1.351 0-.873.364-1.383.414-.585 1.172-.585.5 0 .826.257t.42.719h1.207a2.13 2.13 0 0 0-.606-1.29q-.707-.725-1.832-.726-1.218 0-1.988.813-.82.859-.82 2.207 0 1.186.629 1.996.758.969 2.066.968 1.074-.001 1.707-.788l.125.651z" clip-rule="evenodd"/></svg>