<svg xmlns="http://www.w3.org/2000/svg" width="48" height="48" version="1.1" viewBox="0 0 48 48">
  <path fill="none" fill-rule="evenodd" stroke="#000" stroke-width="1" d="M40.5,24.5 C40.5,33.361 33.361,40.5 24.5,40.5 C15.639,40.5 8.5,33.361 8.5,24.5 C8.5,15.639 15.639,8.5 24.5,8.5 C33.361,8.5 40.5,15.639 40.5,24.5 Z M33.5,24.5 C33.5,29.484 29.484,33.5 24.5,33.5 C19.516,33.5 15.5,29.484 15.5,24.5 C15.5,19.516 19.516,15.5 24.5,15.5 C29.484,15.5 33.5,19.516 33.5,24.5 Z M8.5,24.5 L3,24.5 M40.5,24.5 L45.999,24.5 M24.5,40.5 L24.5,46 M24.5,8.5 L24.5,3"/>
</svg>
