<?xml version="1.0" encoding="utf-8"?>
<!-- Generator: Adobe Illustrator 24.2.0, SVG Export Plug-In . SVG Version: 6.00 Build 0)  -->
<svg version="1.0" id="Ebene_1" xmlns="http://www.w3.org/2000/svg" xmlns:xlink="http://www.w3.org/1999/xlink" x="0px" y="0px"
	 viewBox="0 0 24 24" enable-background="new 0 0 24 24" xml:space="preserve">
<g id="SVG_x5F_24x24pt">
	<path id="backgroundBlue" fill="#2D327D" d="M0,22.5v-21C0,0.675,0.675,0,1.5,0h21C23.325,0,24,0.675,24,1.5v21
		c0,0.825-0.675,1.5-1.5,1.5h-21C0.675,24,0,23.325,0,22.5z"/>
	<g id="content">
		<path fill-rule="evenodd" clip-rule="evenodd" fill="#FFFFFF" d="M12,3c-4.971,0-9,4.029-9,9c0,4.971,4.029,9,9,9s9-4.029,9-9
			C21,7.029,16.971,3,12,3z M12,4.387c1.046,0,1.894,0.848,1.894,1.894c0,1.046-0.848,1.894-1.894,1.894s-1.894-0.848-1.894-1.894
			C10.106,5.235,10.954,4.387,12,4.387z M14.887,18.75H9.113c-0.207,0-0.375-0.168-0.375-0.375C8.738,18.168,8.905,18,9.113,18h1.2
			V9.825h-1.2c-0.207,0-0.375-0.168-0.375-0.375c0-0.207,0.168-0.375,0.375-0.375h4.613V18h1.162c0.207,0,0.375,0.168,0.375,0.375
			C15.262,18.582,15.095,18.75,14.887,18.75z"/>
	</g>
</g>
</svg>
