<svg xmlns="http://www.w3.org/2000/svg" width="22" height="16" fill="none" viewBox="0 0 22 16"><path fill="#000" fill-rule="evenodd" d="M10.05 9.102v4.5h-3.5V15h8.399v-1.399L11.45 13.6V9.102c.931-.122 1.793-.465 2.344-1.01.551-.546.89-1.11 1.003-1.698.096-.586.153-1.01.153-1.272V1h-8.4v4.122c0 .302.056.726.17 1.293.095.566.438 1.13.986 1.676.55.546 1.416.889 2.344 1.01m-7.615 3.833q.345.615.87 1.414v.002h1.271a24 24 0 0 1-.908-1.633 29 29 0 0 1-.77-1.824c-.334-.839-.5-1.782-.5-2.82q0-1.524.453-2.695.454-1.17.78-1.84.328-.674.945-1.76H3.304Q2.18 3.539 1.59 4.954C1.199 5.896 1 6.932 1 8.054q0 1.815.544 3.04.545 1.225.89 1.84m17.651-8.11q-.634-1.432-1.668-3.047v.004h-1.27c.413.702.71 1.243.9 1.623q.279.57.606 1.38.325.807.49 1.623a8.3 8.3 0 0 1 .164 1.632q-.001 1.524-.463 2.738-.463 1.216-.735 1.76c-.181.361-.503.969-.961 1.814h1.269a31 31 0 0 0 .98-1.597q.29-.527.808-1.752.517-1.224.518-2.948-.001-1.796-.638-3.23" clip-rule="evenodd"/></svg>