<svg xmlns="http://www.w3.org/2000/svg" width="36" height="36" version="1.1" viewBox="0 0 36 36">
  <path fill="none" fill-rule="evenodd" stroke="#000" stroke-width="1" d="M10.27875,11.7792 C9.97875,12.6927 9.74925,13.9047 9.74925,14.9997 L9.74925,23.9997 C9.74925,23.9997 9.68625,27.7497 5.99925,27.7497 L26.24925,27.7497 M26.25,22.49955 L26.25,15.02655 C26.25,10.79655 23.079,7.09005 18.8595,6.78105 C16.635,6.62055 14.2515,7.28505 12.75,8.24955 M20.25,7.0293 L20.25,5.2503 L15.75,5.2503 L15.75,7.0293 M14.25,27.74955 C14.25,29.82105 15.9285,30.74955 18,30.74955 C20.0715,30.74955 21.75,29.82105 21.75,27.74955 M6,7.5003 L28.5,30.0003"/>
</svg>
