<svg xmlns="http://www.w3.org/2000/svg" width="36" height="36" fill="none" viewBox="0 0 36 36"><path fill="#000" fill-rule="evenodd" d="M4.267 10.752H11V4.254a7 7 0 0 0-6.733 6.498m6.733 1H4.268A7 7 0 0 0 11 18.246zm1 0h5v5.356c-1.619.602-3.277 1.024-5 1.12zm5-1h-5v-6.48c1.72.096 3.38.517 5 1.117zm1 1v4.961c1.501-.627 2.972-1.385 4.432-2.155l.503-.266.008-.004c1.596-.844 3.183-1.683 4.756-2.329q.262-.106.524-.207zm10.255-1H18v-4.97c1.51.628 2.988 1.389 4.455 2.16l.535.283c1.59.84 3.171 1.673 4.734 2.316q.265.109.531.21m4.745 0v1h-.16c-1.56.028-3.135.465-4.761 1.132-1.526.626-3.069 1.442-4.673 2.29q-.253.135-.508.268c-1.57.829-3.2 1.671-4.898 2.352V18h-.53c-1.973.744-4.041 1.25-6.22 1.25a8 8 0 1 1 0-16c2.179 0 4.25.506 6.23 1.25H18v.202c1.706.682 3.343 1.526 4.92 2.356l.533.28c1.599.844 3.135 1.655 4.651 2.278 1.68.69 3.3 1.134 4.896 1.134zM3 25.25h3.5v6.5H3v1h21.75v-.032a8.75 8.75 0 0 0 8-8.718h-1A7.75 7.75 0 0 1 24 31.75h-1.5v-6.5H27v-1H3zm18.5 0v6.5H15v-6.5zm-7.5 0v6.5H7.5v-6.5z" clip-rule="evenodd"/></svg>