<svg class="color-immutable" xmlns="http://www.w3.org/2000/svg" width="59" height="20" fill="none" viewBox="0 0 59 20"><g clip-path="url(#a)"><path stroke="#000" d="M2 .5h55A1.5 1.5 0 0 1 58.5 2v16a1.5 1.5 0 0 1-1.5 1.5H2A1.5 1.5 0 0 1 .5 18V2A1.5 1.5 0 0 1 2 .5Z"/><path fill="#000" d="M4.069 4.224h5.704q1.692 0 2.594.532.749.434 1.144 1.16.395.725.395 1.635 0 1.032-.5 1.797-.491.765-1.377 1.096.78.192 1.224.87.282.426.379.894.097.467.25 2.135.112 1.224.346 1.523l.113.137h-2.683a2 2 0 0 1-.201-.637q-.058-.387-.154-1.788-.096-1.25-.612-1.724-.507-.484-1.74-.484H6.639v4.633h-2.57zm2.57 2.022v3.239h2.457q1.184 0 1.668-.339.612-.426.612-1.289 0-.837-.524-1.224t-1.651-.387zM15.509 7.954q.04-1.45.717-2.433 1.096-1.58 3.295-1.58 1.692 0 2.731.863 1.12.935 1.12 2.417 0 .886-.443 1.53a2.14 2.14 0 0 1-1.184.863q.95.217 1.498.967.556.75.556 1.812 0 1.75-1.289 2.86-1.193 1.032-3.013 1.032-1.974 0-3.134-1.136-1.152-1.136-1.152-3.07v-.153h2.264q0 1.087.515 1.684.516.588 1.459.588.942 0 1.45-.556.467-.523.467-1.249 0-.87-.596-1.377-.491-.42-1.515-.42-.29 0-.572.033V8.897q.21.015.403.016 2.03 0 2.03-1.507 0-.66-.443-1.063-.442-.411-1.168-.411-.83 0-1.28.516-.453.514-.484 1.506zM32.726 7.165h-2.24q-.315-1.362-1.547-1.362-1.305 0-1.853 1.603-.224.652-.362 1.974.531-.717 1.128-1.031.604-.315 1.45-.314 1.659 0 2.667 1.176.959 1.111.959 2.787 0 1.99-1.29 3.199-1.16 1.088-2.787 1.088-2.087 0-3.247-1.571-1.16-1.58-1.16-4.4 0-3.013 1.24-4.72 1.2-1.653 3.28-1.652 1.957 0 2.997 1.313.596.757.765 1.91m-3.988 2.699q-.846 0-1.345.708-.452.63-.452 1.499 0 .862.46 1.507.5.717 1.37.717.845 0 1.36-.685.484-.645.484-1.523 0-.862-.435-1.474-.531-.75-1.442-.75"/></g><defs><clipPath id="a"><path fill="#fff" d="M0 0h59v20H0z"/></clipPath></defs></svg>