<svg class="color-immutable" xmlns="http://www.w3.org/2000/svg" width="59" height="20" fill="none" viewBox="0 0 59 20"><g clip-path="url(#a)"><path stroke="#000" d="M2 .5h55A1.5 1.5 0 0 1 58.5 2v16a1.5 1.5 0 0 1-1.5 1.5H2A1.5 1.5 0 0 1 .5 18V2A1.5 1.5 0 0 1 2 .5Z"/><path fill="#000" d="M4.08 4.224h5.704q1.692 0 2.594.532.749.435 1.144 1.16t.395 1.636q0 1.03-.5 1.796-.491.765-1.377 1.096.78.194 1.224.87.282.428.379.894.096.467.25 2.135.112 1.225.346 1.523l.113.137h-2.683a2 2 0 0 1-.202-.636q-.056-.387-.152-1.79-.098-1.248-.613-1.723-.507-.483-1.74-.484H6.65v4.633H4.08zm2.57 2.022v3.24h2.457q1.184 0 1.668-.34.612-.427.612-1.288 0-.838-.524-1.225t-1.651-.387zM16.092 4.224h5.301q1.709 0 2.546.427.79.403 1.193 1.168.338.645.338 1.37 0 .806-.41 1.434-.412.629-1.193.991.676.226 1.015.475 1.143.839 1.144 2.441 0 .951-.427 1.709-.42.757-1.209 1.216-.934.548-2.521.548h-5.777zm2.57 2.022v2.748h2.353q.82 0 1.208-.194.717-.346.717-1.192 0-.717-.451-1.04-.45-.322-1.474-.322zm0 4.504v3.23h2.602q1.12 0 1.571-.314.597-.426.597-1.297 0-1.038-.806-1.418-.443-.201-1.49-.201zM35.146 4.224v1.998a45 45 0 0 0-.572.653q-.66.757-1.313 1.91a13 13 0 0 0-1.015 2.199q-.766 2.199-.927 5.019h-2.433q.024-1.33.46-2.949.442-1.62 1.216-3.239 1.104-2.287 2.24-3.408h-5.56V4.224zM38.183 9.678q-.822-.282-1.264-.926-.435-.644-.436-1.563 0-1.53 1.257-2.441 1.111-.806 2.643-.806 1.74 0 2.844.959 1.047.901 1.047 2.232 0 .926-.443 1.587t-1.257.958q.637.186 1.04.476 1.12.814 1.12 2.377 0 1.795-1.378 2.86-1.16.894-2.981.894-1.974 0-3.142-.983-1.217-1.023-1.217-2.683 0-1.555 1.08-2.409.491-.378 1.087-.532m2.168-3.907q-.773 0-1.25.435-.474.427-.474 1.128 0 .733.475 1.176.483.435 1.289.435t1.273-.435.467-1.184q0-.733-.475-1.144-.468-.411-1.305-.411m-.017 4.794q-.87 0-1.426.54-.547.53-.547 1.37 0 .861.556 1.401.563.54 1.458.54 1.014 0 1.523-.596.49-.572.49-1.322 0-.853-.563-1.402-.54-.531-1.49-.531"/></g><defs><clipPath id="a"><path fill="#fff" d="M0 0h59v20H0z"/></clipPath></defs></svg>