<svg xmlns="http://www.w3.org/2000/svg" width="36" height="36" fill="none" viewBox="0 0 36 36"><path fill="#000" fill-rule="evenodd" d="M31.504 8.75H4.502v-1h27.002zm0 19.5H4.502v-1h27.002zm-24.4-10.638v-3.4h2.2q1.076 0 1.55.33.658.442.658 1.346-.001.894-.566 1.355-.46.369-1.503.369zm2.224-5.616H4.484v12.001h2.62v-4.324h2.692q1.035 0 1.741-.201a3.4 3.4 0 0 0 1.256-.662q1.297-1.075 1.297-2.955 0-2.119-1.569-3.17a3.6 3.6 0 0 0-1.267-.536q-.702-.153-1.926-.153m4.79 6.16h2.314v-2.312h1.326v2.313h2.322v1.324h-2.322v2.313h-1.326v-2.313h-2.313zm9.532-.799v-3.3h2.61q1.149-.001 1.683.395.535.392.534 1.246 0 .88-.624 1.314-.494.345-1.7.345zm3.193-5.36h-5.812v12h2.619v-4.72h2.355q1.257 0 1.777.49.522.486.621 1.759.098 1.43.16 1.822.063.395.2.65h2.733l-.114-.14q-.237-.304-.352-1.55-.157-1.702-.255-2.176a2.6 2.6 0 0 0-.386-.912 2.02 2.02 0 0 0-1.248-.886 2.8 2.8 0 0 0 1.409-1.116q.504-.78.505-1.832 0-.927-.403-1.666a3.03 3.03 0 0 0-1.166-1.182q-.92-.541-2.643-.542" clip-rule="evenodd"/></svg>