<?xml version="1.0" encoding="utf-8"?>
<!-- Generator: Adobe Illustrator 24.2.0, SVG Export Plug-In . SVG Version: 6.00 Build 0)  -->
<svg version="1.0" xmlns="http://www.w3.org/2000/svg" xmlns:xlink="http://www.w3.org/1999/xlink" x="0px" y="0px"
	 viewBox="0 0 24 24" enable-background="new 0 0 24 24" xml:space="preserve">
<g id="SVG_x5F_24x24pt">
	<path id="backgroundBlue" fill="#2D327D" d="M0,22.5v-21C0,0.675,0.675,0,1.5,0h21C23.325,0,24,0.675,24,1.5v21
		c0,0.825-0.675,1.5-1.5,1.5h-21C0.675,24,0,23.325,0,22.5z"/>
	<g id="content">
		<g>
			<path fill="#FFFFFF" d="M10.406,16.368c0.326-0.326,0.758-0.508,1.219-0.515v-0.784l-3.774,1.592
				c0.18,0.279,0.277,0.605,0.278,0.945h1.761C9.893,17.138,10.075,16.699,10.406,16.368z"/>
		</g>
		<g>
			<path fill="#FFFFFF" d="M7.615,16.368c0.004,0.004,0.008,0.008,0.012,0.012l1.888-0.796l-3.14-0.902v1.171
				C6.843,15.854,7.284,16.037,7.615,16.368z"/>
		</g>
		<g>
			<polygon fill="#FFFFFF" points="11.625,14.694 11.625,14.118 6.375,14.118 6.375,14.322 10.022,15.37 			"/>
		</g>
		<path fill="#FFFFFF" d="M12.587,17.418l0.001,0l-1.092-1.256c-0.331,0.035-0.639,0.18-0.877,0.419
			c-0.255,0.255-0.402,0.588-0.423,0.944l0.515,0.592l0.001,0l-1.256,1.497c-0.287,0.343-0.225,0.869,0.14,1.175
			c0.365,0.306,0.894,0.277,1.181-0.066l1.861-2.217l0,0C12.899,18.193,12.869,17.73,12.587,17.418z"/>
		<path fill="#FFFFFF" d="M6.505,16.162l-1.092,1.256l0.001,0c-0.283,0.312-0.312,0.775-0.05,1.087l0,0l1.861,2.217
			c0.287,0.343,0.816,0.372,1.181,0.066c0.365-0.306,0.428-0.832,0.14-1.175l-1.256-1.497l0.001,0l0.515-0.592
			c-0.021-0.357-0.168-0.69-0.423-0.944C7.143,16.342,6.836,16.196,6.505,16.162z"/>
		<path fill="#FFFFFF" d="M14.25,10.175h-3h-4.5h-3c-0.414,0-0.75,0.336-0.75,0.75c0,0.414,0.336,0.75,0.75,0.75h3v2.105h4.5v-2.105
			h3c0.414,0,0.75-0.336,0.75-0.75C15,10.511,14.664,10.175,14.25,10.175z"/>
		<circle fill="#FFFFFF" cx="9" cy="7.55" r="2.25"/>
	</g>
</g>
</svg>
