<?xml version="1.0" encoding="UTF-8"?>
<svg width="375px" height="144px" viewBox="0 0 375 144" version="1.1" xmlns="http://www.w3.org/2000/svg" xmlns:xlink="http://www.w3.org/1999/xlink">
    <title>Modules/Dialog/_Helpers/Avatar/Light/Men-Happy</title>
    <g id="Modules/Dialog/_Helpers/Avatar/Light/Men-Happy" stroke="none" stroke-width="1" fill="none" fill-rule="evenodd">
        <polygon id="Fill-7" fill="#CCCCCC" points="0 112.036952 375 112.036952 375 55.0369522 0 55.0369522"></polygon>
        <polygon id="Fill-9" fill="#8E8E8E" points="0 144.036952 375 144.036952 375 112.036952 0 112.036952"></polygon>
        <polygon id="Fill-2" fill="#444444" points="0 55.0369522 375 55.0369522 375 52.0369522 0 52.0369522"></polygon>
        <path d="M50.0266882,18.4241478 C48.8667245,18.4241478 47.9198155,17.4776309 47.9198155,16.3181478 C47.9198155,15.1606365 48.8667245,14.2121478 50.0266882,14.2121478 L136.915461,14.2121478 C138.073452,14.2121478 139.022334,15.1606365 139.022334,16.3181478 C139.022334,17.4776309 138.073452,18.4241478 136.915461,18.4241478 L50.0266882,18.4241478 Z" id="Fill-3" fill="#767676" opacity="0.3"></path>
        <path d="M197.37462,27.9660236 L110.483875,27.9660236 C109.325884,27.9660236 108.377002,27.0195067 108.377002,25.8600236 C108.377002,24.7025124 109.325884,23.7540236 110.483875,23.7540236 L197.37462,23.7540236 C198.532611,23.7540236 199.47952,24.7025124 199.47952,25.8600236 C199.47952,27.0195067 198.532611,27.9660236 197.37462,27.9660236" id="Fill-5" fill="#767676" opacity="0.3"></path>
        <path d="M121.179805,118.884069 C117.859705,103.45394 107.591659,105.393986 98.1876682,106.012093 C90.1882591,106.53771 81.55955,106.702389 73.6765318,109.143236 C69.9480773,110.295984 67.4249591,104.778134 65.7264409,109.858346 C64.9491864,112.179633 62.09465,126.89014 63.5958955,128.730927 C65.0359864,130.497271 70.6740409,128.988096 72.3903136,129.015166 C77.9455136,129.109913 83.4119409,129.166309 88.9119045,129.247521 L111.718605,128.471502 C118.524514,128.433153 123.57075,129.996468 121.179805,118.884069" id="Fill-12" fill="#116770"></path>
        <path d="M4.25428636,52.4348646 C3.82225909,52.3126062 4.65277727,52.5492354 4.74352273,52.5748702" id="Fill-44" fill="#353535"></path>
        <path d="M58.1884527,2.6325 L45.0224709,2.6325 C44.29848,2.6325 43.7066618,2.04092697 43.7066618,1.31723596 C43.7066618,0.591573034 44.29848,-1.38555833e-13 45.0224709,-1.38555833e-13 L58.1884527,-1.38555833e-13 C58.9124436,-1.38555833e-13 59.5042618,0.591573034 59.5042618,1.31723596 C59.5042618,2.04092697 58.9124436,2.6325 58.1884527,2.6325" id="Fill-45" fill="#767676" opacity="0.3"></path>
        <path d="M309.208799,18.4241478 L222.320026,18.4241478 C221.160063,18.4241478 220.213154,17.4776309 220.213154,16.3181478 C220.213154,15.1606365 221.160063,14.2121478 222.320026,14.2121478 L309.208799,14.2121478 C310.36679,14.2121478 311.315672,15.1606365 311.315672,16.3181478 C311.315672,17.4776309 310.36679,18.4241478 309.208799,18.4241478" id="Fill-3" fill="#767676" opacity="0.3"></path>
        <path d="M369.667958,27.9660236 L282.777213,27.9660236 C281.619222,27.9660236 280.67034,27.0195067 280.67034,25.8600236 C280.67034,24.7025124 281.619222,23.7540236 282.777213,23.7540236 L369.667958,23.7540236 C370.825949,23.7540236 371.772858,24.7025124 371.772858,25.8600236 C371.772858,27.0195067 370.825949,27.9660236 369.667958,27.9660236" id="Fill-5" fill="#767676" opacity="0.3"></path>
        <path d="M230.481791,2.6325 L217.315809,2.6325 C216.591818,2.6325 216,2.04092697 216,1.31723596 C216,0.591573034 216.591818,-1.38555833e-13 217.315809,-1.38555833e-13 L230.481791,-1.38555833e-13 C231.205782,-1.38555833e-13 231.7976,0.591573034 231.7976,1.31723596 C231.7976,2.04092697 231.205782,2.6325 230.481791,2.6325" id="Fill-45" fill="#767676" opacity="0.3"></path>
        <path d="M75.0369683,20 C71.3018949,20.4642207 73.3556532,27.2693208 76,28 C75.6648011,27.9979183 75.6878571,27.7543586 75.5069561,27.5107989" id="Fill-22" fill="#F4A673"></path>
        <path d="M105,17.0033016 C108.135125,16.8261009 107.143916,23.8358324 105.034077,25 C105.311142,24.9423067 105.268175,24.7074127 105.392631,24.4374907" id="Fill-23" fill="#F4A673"></path>
        <path d="M117,46 C121.488865,46.7992274 125.225585,51.3694863 127.896099,55.0930186 C133.939264,63.521047 131.718836,76.2859681 131.032704,86.3289728 C130.830665,89.2677339 131.06471,97.6069592 128.074134,98.7923766 C123.951339,100.43007 121.524872,91.9276949 121.026776,89.1273012 C120.47867,86.0439769 122.60308,81.9962103 119.288441,80.6641647" id="Fill-25" fill="#E00B1D"></path>
        <path d="M123.06035,111.657906 C125.135357,105.819245 123.218543,96.1510134 122.58166,89.8941339 C121.476359,79.0286486 121.920123,67.8310484 121.102447,56.9081605 C120.710045,51.6640263 120.578559,48.5437869 115.575943,45.9360704 C107.220445,41.5857761 94.4786688,43.1130943 85.3096031,43.9925836 C80.781568,44.427203 77.0547732,44.8044198 72.8246351,46.7581571 C65.6422345,50.0772554 65.2107974,51.9469389 65.9750574,59.7659881 C67.3515472,73.8398668 66.4599106,86.7267424 67.008452,98.5516706 C67.2652598,104.13817 63.7911639,110.862471 65.4511695,116 C68.5451899,115.352171 116.548503,118.010695 120,117" id="Fill-26" fill="#E00B1D"></path>
        <path d="M102,43.554264 C101.284079,49.0328115 94.3812834,51.6862452 90.2621711,48.8502656 C87.1256558,46.6901402 85.8394589,42.4068332 86.0158751,38.6429124 C89.6672794,38.4299423 102.949775,35.9786129 101.608192,42.3112139" id="Fill-33" fill="#F8BC91"></path>
        <path d="M105.228332,109.154666 L105.712788,108.88889 C109.113084,107.064157 112.702278,106.031695 116.332814,108.474787 C120.578123,111.330675 120.92335,118.074129 121.116677,123.386674 C121.369988,130.31686 121.583202,137.202858 121.499983,144.036952 L98.9363951,144.036115 C98.708063,138.095958 98.5551159,132.150758 98.5664318,126.175365 L98.5717506,125.378533 C98.6575421,118.246118 99.8068545,112.192524 105.228332,109.154666 Z" id="Path" fill="#2A90A8"></path>
        <path d="M64.9456355,117.324585 C68.0151991,109.401638 77.5651718,107.50451 82.7850082,113.7931 C87.0342627,118.909174 86.4424445,128.796932 86.7600536,135.634953 C86.8893806,138.424632 86.8932156,141.228214 86.8254399,144.036952 L62.7851045,144.036952 L62.7874718,143.940112 C62.9664607,135.142233 61.7672397,126.134034 64.7165707,117.937767 L64.9456355,117.324585 Z" id="Path" fill="#2A90A8"></path>
        <path d="M101,38.9987422 C100.671371,44.4714104 94.0846774,47.6235812 89.8548387,45.1393345 C86.6330645,43.2454466 85.0826613,39.1064719 85,35.3704062 C88.5645161,34.8791588 101.419355,31.4339633 100.532258,37.7986334" id="Fill-34" fill="#F4A673"></path>
        <path d="M98.4936112,39.7173022 C111.61545,40.4917026 104.901083,12.0476231 98.192937,6.88564986 C94.1182825,3.75256383 84.5298844,4.80457939 80.8015237,7.98149941 C74.765229,13.1267739 76.8056666,29.6667964 80.7870084,35.8745232 C83.0887216,39.4605603 92.8347145,42.4684064 96.9446205,40.230786" id="Fill-35" fill="#F8BC91"></path>
        <path d="M75,19.2459823 C75.2924663,24.8055023 75.625837,33.1871661 78.3071192,38.1202322 C81.0599841,43.1835511 86.9747576,43.2559138 91.7789771,42.8486154 C96.3889009,42.457857 99.965989,43.1752811 102.162554,38.918289 C103.962347,35.4304087 104.08097,32.2898691 103.970528,28.23756 C103.84986,23.9226778 103.731237,20.0461066 102.412071,16 C102.025525,16.0248101 101.657385,16.0248101 101.266748,16.0868352 C101.319924,21.0012937 102.344579,27.2885754 100.751353,31.8825707 C99.4158251,35.7301969 96.5791062,36.9644971 93.0245155,37.5847485 C85.3835771,38.918289 80.8186482,35.6681717 79.0249911,27.770304 C78.2150844,24.2059259 77.1249826,20.3707048 76.6975318,16.9179721" id="Fill-36" fill="#AC1E22"></path>
        <path d="M77.4850513,19.5557145 C76.7128558,15.617242 79.6717579,11.7560365 80,8 C75.2393084,8.57306385 74.0349668,16.9415131 75.7234065,20" id="Fill-37" fill="#AC1E22"></path>
        <path d="M101.854266,19 C102.764146,16.0357152 98.0445889,10.000029 97,7.08165128 C101.646294,6.11978895 103.730745,13.9130599 102.771236,16.9429262" id="Fill-38" fill="#AC1E22"></path>
        <path d="M79.3991306,8.79597334 C79.5944042,8.46586513 79.1394811,10.2018188 79,10.6011805 C84.9376045,12.6810931 93.5339341,12.5956804 98.9651148,9.29690678 C99.0788456,8.48433272 98.9136141,7.65329107 98.4822955,7 C92.6326714,7.15466608 87.1714485,9.59238826 81.3218244,8.29273146" id="Fill-39" fill="#F4A673"></path>
        <path d="M79,12.9763704 C79.5997573,8.34210295 84.2725236,2.20489035 88.8528615,2.3325623 C89.7463355,3.88702417 89.1506862,5.57811742 87.9224162,6.68012786 C88.9576137,3.22626588 93.9980394,0.460040496 96.8366166,2.96868214 C96.1567547,5.07190938 94.1520866,6.85035712 92.1186631,7.16169746 C93.7741574,6.78540122 97.5863131,3.58912298 99.2171599,5.44820562 C100.987676,7.47079795 97.7773317,9.60538321 96.0745962,10.1026318 C97.818411,9.76441317 100.322192,8.35330224 101,10.8149069 C96.0725422,13.2272346 84.8045,15.0907969 79.6449444,13.2653122" id="Fill-40" fill="#AC1E22"></path>
        <path d="M77.0057071,10.9714142 C76.7797741,6.96742551 83.3198323,3.0904484 86.35893,1.87030415 C86.4808937,2.28465347 86.9487548,2.68650986 87.0707186,3.15083096 C87.1666901,0.375315119 91.0735301,-0.420069016 93.2208926,0.196249581 C93.4528237,1.46428345 92.4491217,2.35544683 91.2954642,2.62820945 C92.6250695,1.9410975 95.8861012,-0.463794322 97.3836566,1.09574159 C98.3293758,2.07851989 97.4376405,3.667206 96.4479344,4.48965818 C98.9251989,4.22938851 100.580707,4.5083976 99.8089365,7.48588271 C98.8752137,11.088015 95.6261784,10.3342741 92.6250695,10.7132267 C90.2517741,11.0130574 79.3889994,11.2879022 78.7531882,12" id="Fill-41" fill="#AC1E22"></path>
        <path d="M84.0145837,35.9964629 C83.4038195,29.7872186 102.186883,26.5931163 100.940594,35.5162149 C98.7595876,36.4268738 98.782285,33.447977 97.4472699,32.4965423 C96.1452691,31.5632301 94.8639023,32.5078689 93.2977873,32.720809 C90.3884036,33.1149749 86.6289022,32.4965423 87.24792,37" id="Fill-42" fill="#AC1E22"></path>
        <path d="M114.418855,72.3323807 C117.305114,66.1973323 129.849793,83.0290754 130.667123,86.7592986 C132.090792,93.2663529 128.790747,103.052345 123.763862,99.0802159 C120.283554,96.3318443 116.715162,91.375831 114.275464,87.4626541 C111.194602,82.5249362 111.661648,82.5127393 111,77.1420309" id="Fill-43" fill="#E00B1D"></path>
        <path d="M83.8857788,13.5664766 C87.3963522,11.5737667 91.3568901,10.4790321 92,5.79448922 C90.5673295,5.22723671 88.9436363,5.96822338 87.918481,6.98132381 C92.040327,3.56734283 88.0882789,1.92419441 86.1143774,5.50981637 C87.1034506,4.81069335 88.0776666,3.53594509 88.2580769,2.32817867 C84.4163975,0.745732548 78.7960843,5.22305034 77.6074984,8.55958356 C76.9580211,10.3848389 76.5292812,11.1237324 77.9343595,12.2707965 C79.3882547,13.4576311 83.7732877,14.6695839 85.4266955,13.5664766" id="Fill-44" fill="#7A1715"></path>
        <path d="M189.603468,93.0746692 C189.123285,90.0562752 189.008858,86.1748902 186.191104,84.2207134 C183.042329,82.0404164 176.007137,83.3929889 172.400656,83.6523011 C164.309062,84.2331604 156.315547,84.9426386 148.207606,85.3367931 C144.521435,85.5151999 136.137644,84.3223638 133.853199,87.7120929 C132.819273,89.2430721 133.362799,92.7012597 133.311716,94.4770296 C133.178899,99.0699673 133.103296,103.604819 133.007259,108.210204 C132.933699,111.826053 133.444532,108.608507 133.397536,112.193239 C133.397536,111.8385 136.74247,120.34394 136.74247,119.989201 L188.743225,118.599288 C192.596949,113.776081 190.551574,99.0181049 189.603468,93.0746692" id="Fill-48" fill="#5A3213"></path>
        <path d="M187.692938,86 C188.668921,91.9620345 190.483511,97.6676373 193.940458,102.959641 C197.592192,108.549436 202.709951,116.362327 194.928744,121.104244 C190.296926,123.927059 182.632591,122.888925 177.250332,123.403856 C169.356354,124.158675 161.009241,125.252645 153.127564,124.851454 C146.359247,124.506098 137.67587,127.018714 134.713065,119.708346 C131.391443,111.514943 131.506265,98.8939594 133.000995,90.396561 C133.677621,90.0450015 134.850441,89.8650858 135.621386,90.0036416 C135.908439,94.4519025 136.812659,99.0759431 137.24529,103.604856 C137.575402,107.060478 137.602057,111.339163 139.199306,114.408071 C142.646001,121.027728 151.811218,118.802564 157.974672,119.362991 C164.7963,119.98339 197.672157,122.359518 192.011047,107.991077 C190.309228,103.668964 188.262945,99.8555778 187.206997,95.1632933 C186.583681,92.3963138 186.788719,89.3005227 185.736872,86.7879067" id="Fill-49" fill="#9E5625"></path>
        <path d="M138.15311,94.1960418 C149.079703,94.2333728 160.03321,94.6712944 170.953593,94.5851459 C175.503925,94.5506865 179.901061,93.857191 184.482446,94.0266164 C184.648063,94.2218864 184.958596,94.8062604 185,95.004402 C180.787113,95.7309211 175.94281,95.814198 171.582938,95.8041473 C165.848443,95.7897892 160.041491,95.9434207 154.265591,95.8055831 C152.553524,95.7653805 137.4865,96.3870856 137,95.5959551" id="Fill-50" fill="#381C0A"></path>
        <path d="M88.3977951,18 C87.7032077,20.8321923 87.9368806,26.8305036 88.9530363,29.722473 C89.7526693,31.998121 90.2864726,32.3361701 92.985502,31.7425228 C93.178443,27.2942906 91.3883797,22.6193181 91.0175044,18.1277991" id="Fill-51" fill="#F4A673"></path>
        <path d="M138.156358,102.413646 C136.436705,101.73907 133.887572,102.066137 132,102.178567 C132.22052,103.609486 132.499711,105.330678 132.568497,106.921042 C134.571387,107.025295 136.67341,107.027339 138.676301,106.921042 C138.595376,105.50852 138.799711,104.063292 139,102.697786" id="Fill-52" fill="#381C0A"></path>
        <path d="M86,42.7333071 C84.492905,43.3855653 79.4747755,41.8864068 77.4666956,41.7124713 C72.6514443,41.2983391 67.6705781,40.9918813 62.8366951,41 C56.3176811,41.0125879 49.5999294,41.3977308 43.0477925,41.689694 C40.8161325,41.7870151 35.6406689,41.5571717 33.6532909,42.7250244 C29.5087797,45.1601216 29.2976207,55.8530143 29.1485674,60.2862992 C29.0264265,63.9575809 28.6620738,68.8029273 29.858641,72.1925991 C30.8544002,75.0128392 31.5686142,74.8699636 35.0485959,74.9817793 C45.4471374,75.319297 41.7580669,70.9150014 42.6482467,66.1504107 C43.0581434,63.9492983 41.8305234,55.6790788 43.8075505,55.372621 C49.3659984,54.5195087 58.9654483,57.985795 66.5899413,59.0273374" id="Fill-53" fill="#E00B1D"></path>
        <path d="M30.8322115,75.0571429 C29.5381226,77.7176319 31.1005997,88.3348777 34.9183698,89 C35.0806511,87.2290862 34.7644107,85.4993565 34.2213927,83.8272844 C34.9329335,85.8226512 36.2707135,87.7088803 38.2347326,88.6005148 C38.1847999,86.6875161 38.7735895,84.7333333 38.4115775,83.0036036 C37.9517807,85.0216216 39.2125811,86.9881596 41.1578754,87.3546976 C41.2577408,85.7114543 41.3971362,84.0393822 40.7708971,82.6123552 C41.2514992,84.6736165 41.998409,87.2455598 44.5054461,86.9346203 C43.8812875,84.3235521 43.1822298,81.3685972 42.9804186,78.8007722 C44.1579978,79.4061776 45.5977237,79.6697555 47,79.5235521 C44.3806144,69.4622909 36.8948721,75.4916345 30,73" id="Fill-60" fill="#F8BC91"></path>
        <path d="M97,24 C98.3324027,24 98.3342636,22 97,22 C95.6675973,22 95.6657364,24 97,24" id="Fill-61" fill="#7A1715"></path>
        <path d="M84,26 C85.3324027,26 85.3342636,24 84,24 C82.6675973,24 82.6657364,26 84,26" id="Fill-62" fill="#7A1715"></path>
        <path d="M88,33.7261827 C89.1750414,36.9242072 95.2879625,36.7971443 94.884042,33.0380628 C94.8666483,32.9176006 94.9478189,33.1189211 95,33.1486241" id="Fill-63" fill="#FFFFFF"></path>
        <path d="M82,13.7572596 C84.273878,13.6154935 86.2528358,14.3701251 88.4839717,13.7550786 C90.3795824,13.2294537 93.9015289,13.144394 95,11.0767908 C93.7262864,9.76600005 90.8219628,11.1444023 89.4050633,11.5478902 C89.7982903,11.2687202 90.866842,9.69620753 90.6146638,9.23819415 C90.2235739,8.53154492 88.2745356,9.60242384 87.8300181,9.80743936 C86.9986849,10.1912982 85.8361006,10.7300092 85.1436791,11.3297886 C84.8252507,11.6045967 83.3185928,13.004809 83.3741575,12.865224" id="Fill-64" fill="#7A1715"></path>
        <path d="M124,98.9238116 C120.19357,95.87522 117.836622,91.238236 115.140915,87.4024588 C114.479819,86.4610409 114.258086,85.6217769 113.974759,84.8706456 C113.787928,84.3839125 114.418227,83.9252216 114.290935,83.4985791 C113.921379,82.2527026 111.408396,80.8866451 110.338736,80.157547 C108.053646,78.5991999 106.487138,78.4009012 104.772808,80.8966602 C103.543006,82.6893603 103.902297,83.2281718 105.000701,85.3153153 C108.053646,91.1200581 112.459578,96.0635036 115.62955,101.800144 C117.380836,104.970919 119.86097,108.992977 122.977561,111 C123.063791,107.847252 124.808918,103.314424 123.513418,100.347957" id="Fill-65" fill="#AC1E22"></path>
        <path d="M104.031635,80 L95.2769695,80 C93.8478871,80 92.7730041,78.6941569 93.041213,77.2897596 L96.732668,57.856104 C96.9353602,56.7781675 97.875115,56 98.9684245,56 L107.72309,56 C109.150125,56 110.227055,57.3037899 109.958846,58.7122936 L106.267391,78.143896 C106.064699,79.2197793 105.124944,80 104.031635,80" id="Fill-66" fill="#FFFFFF"></path>
        <path d="M115.997761,71.5736962 C115.157936,68.3239936 111.648222,63.6863535 108.562598,62.5919376 C106.765959,61.9545766 101.917121,61.5981576 100.392066,62.7638573 C97.3732942,65.0680013 101.620466,65.3468467 103.304294,66.3448199 C98.4136738,64.678037 96.9241343,68.1143354 102.403885,69.0410248 C100.814068,68.7349237 97.9895833,68.8523323 98,71.0893857 C98.0083854,73.0622696 100.66783,73.0224346 102.282716,73.3620809 C100.887187,73.4312681 96.8384805,72.995179 98.9777351,74.9470971 C100.155996,76.0247404 104.854418,76.7920895 106.500641,77.2533377 C108.29937,77.7565174 109.866206,77.8948918 111.362013,79.0039839 C112.565344,79.8950314 113.323693,81.3165142 114.72549,82 C116.691347,78.6643375 118.358462,73.8547777 115.366848,70.5568538" id="Fill-67" fill="#F8BC91"></path>
    </g>
</svg>