<?xml version="1.0" encoding="utf-8"?>
<!-- Generator: Adobe Illustrator 24.2.0, SVG Export Plug-In . SVG Version: 6.00 Build 0)  -->
<svg version="1.0" xmlns="http://www.w3.org/2000/svg" xmlns:xlink="http://www.w3.org/1999/xlink" x="0px" y="0px"
	 viewBox="0 0 24 24" enable-background="new 0 0 24 24" xml:space="preserve">
<g id="SVG_x5F_24x24pt">
	<path id="backgroundGreen" fill="#237F52" d="M0,22.5v-21C0,0.675,0.675,0,1.5,0h21C23.325,0,24,0.675,24,1.5v21
		c0,0.825-0.675,1.5-1.5,1.5h-21C0.675,24,0,23.325,0,22.5z"/>
	<g id="content">
		<g>
			<path fill="#FFFFFF" d="M18.899,6c0.746,0,1.351,0.604,1.351,1.35c0,0.745-0.605,1.35-1.351,1.35
				c-0.744,0-1.349-0.605-1.349-1.35C17.55,6.604,18.155,6,18.899,6z M9.372,15l5.871-5.872h-1.372l-1.927,1.928
				c-0.092,0.091-0.215,0.141-0.344,0.141c-0.268,0-0.485-0.218-0.485-0.484c0-0.13,0.051-0.253,0.142-0.343l2.043-2.043
				c0.129-0.13,0.306-0.204,0.49-0.204h2.42c0.958,0,1.733,0.776,1.733,1.732v2.424h1.973c0.288,0,0.52,0.232,0.52,0.519
				c0,0.288-0.232,0.52-0.52,0.52h-2.458c-0.287,0-0.52-0.232-0.52-0.52v-1.939l-2.277,2.279l2.075,2.075
				c0.131,0.132,0.202,0.306,0.202,0.491v4.193c0,0.382-0.309,0.693-0.692,0.693c-0.382,0-0.693-0.311-0.693-0.693V16.09
				l-2.608-2.606L11.43,15H9.372z"/>
		</g>
		<g>
			<polygon fill="#FFFFFF" points="16.5,14.447 15.375,13.323 15.375,12.956 16.5,11.831 			"/>
			<path fill="#FFFFFF" d="M16.5,3v4.77c-0.094-0.013-0.191-0.02-0.289-0.02h-0.836V4.125H4.125v11.25h10.184l0.871,0.87V16.5H3V3
				H16.5z"/>
		</g>
	</g>
</g>
</svg>
