<svg xmlns="http://www.w3.org/2000/svg" width="48" height="48" fill="none" viewBox="0 0 48 48"><path fill="#000" fill-rule="evenodd" d="m15.85 15.557 2.631 2.631a8 8 0 1 0 11.31 11.31l2.755 2.755a17.3 17.3 0 0 1-8.813 2.737c-4.274-.003-8.086-2.099-11.05-4.525-2.736-2.239-4.704-4.723-5.583-5.972 1.313-1.862 4.44-6.137 8.75-8.936m-.722-.722L2.646 2.354l.708-.708 43 43-.707.707-12.379-12.378a18.3 18.3 0 0 1-9.512 3.015h-.016c-4.603 0-8.638-2.253-11.69-4.75-3.057-2.502-5.18-5.292-5.974-6.47l-.193-.286.198-.281.008-.011c.491-.7 1.358-1.936 2.544-3.36L6.345 18.88l.65-.76 2.288 1.953a35 35 0 0 1 2.803-2.859l-1.973-2.266.754-.656 1.972 2.265a25 25 0 0 1 2.289-1.722m2.602 6.025c.368-.736.862-1.401 1.459-1.964l3.636 3.636a.99.99 0 0 1-.828.458h-.001a.97.97 0 0 1-.838-.468l-.536-.887-.36.97a3.99 3.99 0 0 0 6.701 4.065l2.121 2.121A7 7 0 0 1 17.73 20.86m5.458 2.73q.198-.15.353-.342l2.714 2.714a2.99 2.99 0 0 1-5.233-2.225l.005.003c.298.166.635.253.976.25l-.003-.5.004.5a2 2 0 0 0 1.184-.4m17.578-5.582-2.227 2.005a36 36 0 0 0-2.846-2.764l-.027-.024 1.918-2.294-.768-.642-1.918 2.295a26 26 0 0 0-3.312-2.292l1.424-2.624-.88-.476-1.422 2.621a17 17 0 0 0-3.81-1.441l.592-2.923-.98-.198-.592 2.921a13 13 0 0 0-2.168-.182h-.006q-.973.012-1.93.152L21.272 9.2l-.983.182.541 2.94a14.5 14.5 0 0 0-3.3 1.15l.44.898a13.5 13.5 0 0 1 5.783-1.379c4.256.001 8.188 2.334 11.286 5.016 2.853 2.47 4.941 5.184 5.847 6.474a32.5 32.5 0 0 1-6.191 6.284l.61.792a33.5 33.5 0 0 0 6.599-6.771l.207-.284-.197-.292a37 37 0 0 0-2.706-3.454l2.227-2.003zm-19.568-.419a7.001 7.001 0 0 1 9.193 9.212l.918.398A8 8 0 0 0 20.802 16.67zm3.11 3.438a2.98 2.98 0 0 1 2.645 2.646l.995-.106a3.98 3.98 0 0 0-3.534-3.534z" clip-rule="evenodd"/></svg>