<svg width="24" height="24" viewBox="0 0 24 24" fill="none" xmlns="http://www.w3.org/2000/svg"><path fill-rule="evenodd" clip-rule="evenodd" d="M2.454 11.646 2.101 12l.353.354 3.536 3.535.353.354.354-.354 3.535-3.535.354-.354-.354-.354-3.535-3.535-.354-.354-.353.354-3.536 3.535Zm3.89 3.182L3.513 12l2.83-2.828L9.171 12l-2.829 2.828ZM8.11 5.99l-.354.353.354.354 3.535 3.535.354.354.354-.354 3.535-3.535.354-.354-.354-.353-3.535-3.536L12 2.101l-.354.353L8.111 5.99Zm3.89 3.182L9.17 6.343l2.83-2.828 2.828 2.828L12 9.172Zm-4.244 8.485.354-.354 3.535-3.535.354-.354.354.354 3.535 3.535.354.354-.354.353-3.535 3.536L12 21.9l-.354-.354-3.535-3.536-.354-.353Zm1.415 0L12 20.485l2.829-2.828L12 14.828l-2.828 2.829Zm4.596-6.01-.354.353.354.354 3.535 3.535.354.354.354-.354 3.535-3.535L21.9 12l-.354-.354-3.535-3.535-.354-.354-.354.354-3.535 3.535Zm3.889 3.181L14.828 12l2.829-2.828L20.485 12l-2.828 2.828Z" fill="#000"/></svg>