<svg xmlns="http://www.w3.org/2000/svg" width="24" height="24" fill="none" viewBox="0 0 24 24"><path fill="#000" fill-rule="evenodd" d="M2.454 11.646 2.101 12l.353.354 3.536 3.535.353.354.354-.354 3.535-3.535.354-.354-.354-.354-3.535-3.535-.354-.354-.353.354zm3.89 3.182L3.513 12l2.83-2.828L9.171 12zM8.11 5.99l-.354.353.354.354 3.535 3.535.354.354.354-.354 3.535-3.535.354-.354-.354-.353-3.535-3.536L12 2.101l-.354.353zm3.89 3.182L9.17 6.343l2.83-2.828 2.828 2.828zm-4.244 8.485.354-.354 3.535-3.535.354-.354.354.354 3.535 3.535.354.354-.354.353-3.535 3.536L12 21.9l-.354-.354-3.535-3.536zm1.415 0L12 20.485l2.829-2.828L12 14.828zm4.596-6.01-.354.353.354.354 3.535 3.535.354.354.354-.354 3.535-3.535L21.9 12l-.354-.354-3.535-3.535-.354-.354-.354.354zm3.889 3.181L14.829 12l2.828-2.828L20.485 12z" clip-rule="evenodd"/></svg>