<svg xmlns="http://www.w3.org/2000/svg" width="48" height="48" fill="none" viewBox="0 0 48 48"><path fill="#000" fill-rule="evenodd" d="M12.5 4A1.5 1.5 0 0 0 11 5.5V9h3V5.5A1.5 1.5 0 0 0 12.5 4M10 5.5V9H4v9h6v8.002H4v9h6V43h5v-7.998h18V43h5v-7.998h6v-9h-6V18h6V9h-5.998V5.5a2.5 2.5 0 1 0-5 0V9H15V5.5a2.5 2.5 0 1 0-5 0M37 18h-3v8.002h3zm-4 0v8.002H15V18zm4.002-9V5.5a1.5 1.5 0 1 0-3 0V9zM11 18v8.002h3V18zm-6-1v-7h9.793l-7 7zm13.793-7h-2.586l-7 7h2.586zm1.414 0h13.586l-7 7H13.207zm17.586 0h-2.586l-7 7h2.586zm1.414 0H43v7H32.207zM37 35.002h-3V42h3zM11 42v-6.998h3V42zm.291-14.998L5 33.292v-6.29zm-5.585 7 7-7h2.585l-7 7zm4 0h8.585l7-7h-8.585zm19.585-7h-2.585l-7 7h2.585zm1.415 0h9.585l-7 7h-9.585zm12.294 0h-1.294l-7 7h2.585l5.71-5.71zm0 2.705-4.294 4.294H43z" clip-rule="evenodd"/></svg>