<svg class="color-immutable" xmlns="http://www.w3.org/2000/svg" width="59" height="20" fill="none" viewBox="0 0 59 20"><path fill="#000" d="M1.792 0h55.416C58.197 0 59 .806 59 1.8v16.4c0 .994-.801 1.8-1.792 1.8H1.792A1.797 1.797 0 0 1 0 18.2V1.8C0 .806.803 0 1.792 0"/><path fill="#FFDE15" d="M12.794 7.702h-2.405q-.07-.846-.632-1.29-.555-.45-1.559-.45-.894 0-1.392.356-.49.348-.49.98 0 .57.474.823.459.253 2.326.712 1.97.49 2.729.989 1.4.918 1.4 2.555 0 1.795-1.408 2.832-1.242.91-3.362.91-2.357-.001-3.662-1.076-1.305-1.077-1.353-3.062h2.515q.055.966.499 1.432.696.744 2.096.744.95 0 1.503-.372.624-.427.625-1.163 0-.735-.878-1.076-.483-.19-2.278-.688-1.125-.308-1.756-.585-.633-.277-1.013-.617-.885-.791-.886-2.183 0-1.67 1.384-2.642Q6.451 4 8.333 4q1.653 0 2.768.657 1.606.94 1.693 3.045M24.509 4.277v11.565h-2.54l-4.84-7.879.031 7.879h-2.428V4.277h2.57l4.81 7.863-.031-7.863zM34.48 11.22v1.945h-1.473V15.8h-2.282v-2.635H25.84v-2.162l5.005-6.726h2.162v6.943zm-3.707.024V6.95l-3.01 4.293zM41.095 4.277V15.8h-2.338V8.257h-2.755V6.59q.865-.032 1.401-.176.537-.152.986-.489.648-.487.872-1.65z"/></svg>