<svg xmlns="http://www.w3.org/2000/svg" width="36" height="36" viewBox="0 0 36 36">
  <path fill="none" stroke="#000" d="M18.75,6.74445 L18.75,14.24445 L26.25,14.24445 M13.5015,17.2503 L22.5015,17.2503 M13.4985,20.24955 L22.5015,20.24955 M26.25,29.24955 L9.75,29.24955 L9.75,6.74955 L18.75,6.74955 L26.25,14.24955 L26.25,29.24955 Z M22.5015,26.24955 C22.4895,26.23005 21.9165,25.39455 21.2175,25.49955 C20.2065,25.65405 19.5705,27.08205 18.891,26.70105 C18.4845,26.47305 19.3245,24.83505 18.2175,24.77205 C17.574,24.73455 16.3695,27.20805 15.615,26.98605 C14.9415,26.78805 15.8685,24.37305 15.2565,24.05505 C14.4105,23.61555 13.5015,25.49955 13.5015,25.49955"/>
</svg>
