<?xml version="1.0" encoding="utf-8"?>
<!-- Generator: Adobe Illustrator 24.3.0, SVG Export Plug-In . SVG Version: 6.00 Build 0)  -->
<svg version="1.0" xmlns="http://www.w3.org/2000/svg" xmlns:xlink="http://www.w3.org/1999/xlink" x="0px" y="0px"
	 viewBox="0 0 24 24" enable-background="new 0 0 24 24" xml:space="preserve">
<g id="SVG_x5F_24x24pt">
	<path id="backgroundBlue" fill="#2D327D" d="M0,22.5v-21C0,0.675,0.675,0,1.5,0h21C23.325,0,24,0.675,24,1.5v21
		c0,0.825-0.675,1.5-1.5,1.5h-21C0.675,24,0,23.325,0,22.5z"/>
	<g id="content">
		<path fill="#FFFFFF" d="M6.6,18.675c0,0.572,0.206,1.095,0.549,1.5C7.575,20.68,8.213,21,8.925,21c0.712,0,1.35-0.32,1.776-0.825
			c0.343-0.405,0.549-0.928,0.549-1.5c0-1.284-1.041-2.325-2.325-2.325S6.6,17.391,6.6,18.675z M7.725,18.675
			c0-0.663,0.537-1.2,1.2-1.2s1.2,0.537,1.2,1.2c0,0.663-0.537,1.2-1.2,1.2S7.725,19.338,7.725,18.675z"/>
		<rect x="12.374" y="17.775" fill="#FFFFFF" width="8.625" height="1.5"/>
		<path fill="#FFFFFF" d="M2.999,13.35L3,18.9c0,0.207,0.168,0.375,0.375,0.375h1.95c0.207,0,0.375-0.168,0.375-0.375v-0.225v-0.011
			c0.006-1.776,1.447-3.214,3.225-3.214c0.915,0,1.741,0.381,2.327,0.992l-0.003-6.917H5.026c-0.611,0-1.146,0.41-1.304,1L3.046,13
			C3.015,13.114,2.999,13.232,2.999,13.35z M8.999,10.2c0.207,0,0.375,0.168,0.375,0.375v2.175c0,0.207-0.168,0.375-0.375,0.375
			h-4.8c-0.207,0-0.375-0.168-0.375-0.375c0-0.033,0.004-0.065,0.013-0.097l0.536-2.008C4.444,10.382,4.679,10.2,4.95,10.2H8.999z"
			/>
		<path fill="#FFFFFF" d="M21,12.45h-5.7c-0.207,0-0.375-0.168-0.375-0.375c0-0.207,0.168-0.375,0.375-0.375H21v-0.75h-5.7
			c-0.207,0-0.375-0.168-0.375-0.375c0-0.207,0.168-0.375,0.375-0.375H21l0-2.025h-8.25c-0.207,0-0.375,0.168-0.375,0.375
			c0,2.625,0,8.475,0,8.475L21,17.021L21,12.45z"/>
	</g>
</g>
</svg>
