<?xml version="1.0" encoding="utf-8"?>
<!-- Generator: Adobe Illustrator 24.2.0, SVG Export Plug-In . SVG Version: 6.00 Build 0)  -->
<svg version="1.0" id="Ebene_1" xmlns="http://www.w3.org/2000/svg" xmlns:xlink="http://www.w3.org/1999/xlink" x="0px" y="0px"
	 viewBox="0 0 24 24" enable-background="new 0 0 24 24" xml:space="preserve">
<g id="SVG_x5F_24x24pt">
	<path id="backgroundBlue" fill="#2D327D" d="M0,22.5v-21C0,0.675,0.675,0,1.5,0h21C23.325,0,24,0.675,24,1.5v21
		c0,0.825-0.675,1.5-1.5,1.5h-21C0.675,24,0,23.325,0,22.5z"/>
	<g id="content_1_">
		<g>
			<path fill="#FFFFFF" d="M12.096,9.487c1.497,0,2.753,0.492,3.768,1.477c1.118,1.087,1.677,2.558,1.677,4.414
				c0,1.6-0.423,2.925-1.269,3.976c-1.036,1.277-2.451,1.915-4.245,1.915c-1.835,0-3.276-0.654-4.322-1.961
				c-0.826-1.036-1.238-2.34-1.238-3.914c0-1.866,0.536-3.32,1.607-4.361C9.13,10.003,10.471,9.487,12.096,9.487z M11.973,11.533
				c-0.902,0-1.63,0.344-2.184,1.031c-0.564,0.692-0.846,1.625-0.846,2.799c0,1.215,0.277,2.161,0.831,2.838
				c0.261,0.323,0.592,0.574,0.992,0.754c0.4,0.18,0.825,0.269,1.277,0.269c0.897,0,1.605-0.313,2.123-0.938
				c0.6-0.718,0.9-1.694,0.9-2.93c0-1.169-0.274-2.099-0.823-2.792C13.698,11.877,12.942,11.533,11.973,11.533z"/>
		</g>
		<g>
			<path fill="#FFFFFF" d="M5.318,5.218L5.087,5.467l-0.332-0.3C4.609,5.257,4.428,5.303,4.21,5.303
				c-0.167,0-0.321-0.031-0.463-0.092c-0.142-0.062-0.26-0.15-0.355-0.266C3.21,4.725,3.118,4.451,3.118,4.124
				c0-0.354,0.107-0.64,0.321-0.858c0.21-0.213,0.475-0.32,0.794-0.32c0.165,0,0.318,0.031,0.458,0.092
				c0.14,0.061,0.259,0.148,0.356,0.261c0.19,0.221,0.285,0.493,0.285,0.814c0,0.175-0.026,0.336-0.079,0.482
				S5.125,4.861,5.027,4.955L5.318,5.218z M4.684,4.638c0.102-0.135,0.152-0.309,0.152-0.52c0-0.226-0.052-0.407-0.155-0.544
				C4.572,3.428,4.42,3.355,4.224,3.355c-0.19,0-0.34,0.072-0.451,0.215c-0.107,0.137-0.16,0.321-0.16,0.551
				c0,0.238,0.055,0.426,0.166,0.563c0.111,0.139,0.259,0.209,0.446,0.209c0.075,0,0.144-0.011,0.208-0.034L4.209,4.663L4.44,4.417
				L4.684,4.638z"/>
			<path fill="#FFFFFF" d="M7.191,3.569v1.68H6.767V5.004C6.639,5.198,6.459,5.295,6.228,5.295c-0.201,0-0.353-0.067-0.455-0.201
				C5.734,5.041,5.706,4.98,5.689,4.909C5.672,4.838,5.664,4.746,5.664,4.632V3.569H6.11v0.924c0,0.096,0.003,0.165,0.008,0.205
				C6.124,4.738,6.136,4.772,6.153,4.8C6.2,4.874,6.281,4.912,6.395,4.912c0.14,0,0.243-0.062,0.306-0.186
				c0.031-0.06,0.046-0.17,0.046-0.328V3.569H7.191z"/>
			<path fill="#FFFFFF" d="M9.052,5.249H8.597C8.578,5.183,8.568,5.127,8.568,5.081c-0.139,0.143-0.319,0.214-0.54,0.214
				c-0.172,0-0.307-0.04-0.403-0.12C7.514,5.083,7.459,4.954,7.459,4.789c0-0.21,0.095-0.356,0.285-0.437
				C7.82,4.319,7.962,4.289,8.168,4.261c0.177-0.024,0.288-0.046,0.331-0.068S8.565,4.126,8.565,4.06c0-0.147-0.097-0.22-0.292-0.22
				c-0.104,0-0.179,0.018-0.227,0.055S7.966,3.996,7.951,4.087H7.53C7.543,3.901,7.613,3.76,7.74,3.665s0.308-0.142,0.543-0.142
				c0.259,0,0.451,0.053,0.575,0.158C8.916,3.731,8.954,3.783,8.973,3.84s0.028,0.146,0.028,0.268c0,0.026-0.002,0.138-0.005,0.338
				C8.995,4.648,8.994,4.764,8.994,4.793c0,0.122,0.004,0.211,0.011,0.268C9.012,5.119,9.028,5.181,9.052,5.249z M8.562,4.438
				C8.504,4.474,8.4,4.502,8.248,4.523C8.141,4.539,8.064,4.56,8.017,4.586c-0.067,0.036-0.1,0.097-0.1,0.183
				c0,0.07,0.022,0.124,0.066,0.163S8.089,4.99,8.168,4.99c0.131,0,0.237-0.046,0.318-0.138C8.515,4.82,8.535,4.787,8.546,4.753
				c0.011-0.034,0.016-0.08,0.016-0.136V4.438z"/>
			<path fill="#FFFFFF" d="M9.798,3v0.401H9.352V3H9.798z M9.798,3.572v1.677H9.352V3.572H9.798z"/>
		</g>
	</g>
</g>
</svg>
