<svg xmlns="http://www.w3.org/2000/svg" width="36" height="36" fill="none" viewBox="0 0 36 36"><path fill="#000" fill-rule="evenodd" d="M10.25 12a7.75 7.75 0 1 1 15.5 0 7.75 7.75 0 0 1-15.5 0M18 3.25a8.75 8.75 0 0 0-5.75 15.346v14.111l.854-.854 2.646-2.646 2.646 2.646.854.854v-5.5l1-1 2.646 2.646.854.854V18.595A8.75 8.75 0 0 0 18 3.25m4.75 16.1a8.7 8.7 0 0 1-3.5 1.312v5.13l.646-.646.354-.354.354.354 2.146 2.146zm-9.5 10.943V19.35a8.7 8.7 0 0 0 5 1.397v9.546l-2.146-2.147-.354-.353-.354.353zm0-18.293a4.75 4.75 0 1 1 9.5 0 4.75 4.75 0 0 1-9.5 0M18 6.25a5.75 5.75 0 1 0 0 11.5 5.75 5.75 0 0 0 0-11.5" clip-rule="evenodd"/></svg>