<svg class="color-immutable" xmlns="http://www.w3.org/2000/svg" width="59" height="20" fill="none" viewBox="0 0 59 20"><path fill="#EB0000" fill-rule="evenodd" d="M2 0a2 2 0 0 0-2 2v16a2 2 0 0 0 2 2h55a2 2 0 0 0 2-2V2a2 2 0 0 0-2-2z" clip-rule="evenodd"/><path fill="#fff" d="M44.665 13.743V15.8h-8.301a5.3 5.3 0 0 1 .303-1.796 4.4 4.4 0 0 1 .856-1.47q.459-.507.997-.926.572-.451 2.274-1.654c.448-.285.84-.65 1.16-1.075.223-.343.338-.746.33-1.155.02-.453-.14-.896-.445-1.23a1.54 1.54 0 0 0-1.17-.471q-1.781 0-1.838 2.57h-2.215v-.252q0-2.105 1.175-3.26 1.143-1.122 2.956-1.122a4 4 0 0 1 2.688.917q1.175.997 1.175 2.682a3.7 3.7 0 0 1-.938 2.53q-.262.306-.576.558-.268.21-1.41 1.009-1.089.76-1.558 1.163a6.2 6.2 0 0 0-.87.925z"/><path fill="#fff" fill-rule="evenodd" d="M51.256 7.123h2.191a3.9 3.9 0 0 0-.749-1.875q-1.017-1.29-2.932-1.29a3.75 3.75 0 0 0-3.209 1.622q-1.214 1.677-1.214 4.635 0 2.77 1.135 4.316t3.177 1.546a3.84 3.84 0 0 0 2.728-1.068q1.261-1.187 1.261-3.14a4.05 4.05 0 0 0-.938-2.737 3.26 3.26 0 0 0-2.61-1.155 3 3 0 0 0-1.414.308c-.44.25-.82.596-1.108 1.013.05-.657.169-1.306.355-1.938q.536-1.575 1.813-1.574 1.206 0 1.514 1.337m-3.028 3.346a1.53 1.53 0 0 1 1.317-.697 1.64 1.64 0 0 1 1.411.736c.291.425.44.932.426 1.448a2.43 2.43 0 0 1-.473 1.495 1.59 1.59 0 0 1-1.332.672 1.55 1.55 0 0 1-1.34-.704 2.5 2.5 0 0 1-.45-1.48 2.46 2.46 0 0 1 .441-1.47" clip-rule="evenodd"/><path fill="#fff" d="M9.22 4.2h4.056L8.258 15.8H4.185zM25.98 12.366a.93.93 0 0 0 .847-.553L30.119 4.2H15.984l-5.018 11.6h4.038l3.8-8.69h5.993l-1.201 2.775-5.226-.019 4.217 5.934h4.597l-3.124-3.434z"/></svg>