<svg class="color-immutable" width="59" height="20" viewBox="0 0 59 20" fill="none" xmlns="http://www.w3.org/2000/svg"><g clip-path="url(#a)" fill="#EB0000"><path d="M57.208 1c.439 0 .795.358.795.8v16.4c0 .442-.356.8-.795.8H1.792a.798.798 0 0 1-.795-.8V1.8c0-.442.356-.8.795-.8h55.416Zm0-1H1.792C.803 0 0 .806 0 1.8v16.4c0 .994.803 1.8 1.792 1.8h55.416c.99 0 1.792-.806 1.792-1.8V1.8c0-.994-.803-1.8-1.792-1.8Z"/><path d="M4.16 4.234h5.6c1.108 0 1.957.174 2.547.522.49.285.865.664 1.124 1.139.258.475.387 1.01.387 1.606 0 .675-.163 1.263-.49 1.764-.322.5-.773.86-1.353 1.075a1.95 1.95 0 0 1 1.203.855c.184.28.308.572.371.878.064.306.145 1.004.245 2.096.074.802.188 1.3.34 1.495l.111.135h-2.634a1.979 1.979 0 0 1-.197-.625c-.037-.253-.088-.839-.15-1.756-.064-.818-.264-1.382-.602-1.693-.332-.317-.902-.475-1.709-.475h-2.27V15.8H4.16V4.234Zm2.523 1.985V9.4h2.413c.775 0 1.32-.11 1.637-.332.401-.28.601-.701.601-1.266 0-.548-.171-.949-.514-1.202-.343-.253-.883-.38-1.621-.38H6.683ZM24.647 4.234V6.37h-6.154v2.468h5.64v1.985h-5.64v2.84h6.265v2.136H15.97V4.234h8.677ZM25.897 12.896h2.183c.18.896.699 1.344 1.559 1.344.485 0 .878-.163 1.178-.49.306-.332.54-.847.704-1.543.106-.443.182-.946.23-1.51-.354.495-.718.849-1.092 1.06-.37.205-.82.308-1.353.308-.849 0-1.587-.248-2.215-.744a3.543 3.543 0 0 1-1.028-1.352 4.446 4.446 0 0 1-.364-1.804c0-1.302.446-2.357 1.337-3.164.765-.696 1.682-1.044 2.753-1.044.659 0 1.268.148 1.827.443a3.961 3.961 0 0 1 1.408 1.258c.67.965 1.005 2.32 1.005 4.066 0 1.613-.296 2.99-.886 4.129-.77 1.482-1.936 2.222-3.497 2.222-1.038 0-1.898-.287-2.578-.862-.675-.575-1.066-1.347-1.171-2.317Zm3.844-6.985c-.495 0-.915.203-1.257.609-.343.411-.515.933-.515 1.566 0 .512.124.965.372 1.36.338.544.812.815 1.424.815.554 0 .997-.221 1.329-.664.311-.417.467-.912.467-1.487 0-.607-.161-1.12-.483-1.543a1.606 1.606 0 0 0-1.337-.656ZM38.933 3.957c.88 0 1.656.269 2.325.807.665.538 1.148 1.366 1.448 2.484.227.854.34 1.782.34 2.784 0 1.661-.295 3.027-.886 4.098-.348.622-.804 1.102-1.368 1.44a3.557 3.557 0 0 1-1.875.505c-.944 0-1.75-.284-2.42-.854-1.192-1.012-1.788-2.742-1.788-5.189 0-1.74.311-3.138.933-4.192a3.771 3.771 0 0 1 1.385-1.393 3.788 3.788 0 0 1 1.906-.49Zm-.087 1.954c-.76 0-1.276.438-1.55 1.313-.217.696-.325 1.672-.325 2.927 0 1.107.111 1.996.333 2.665.284.87.812 1.306 1.581 1.306.639 0 1.113-.338 1.424-1.013.312-.675.467-1.706.467-3.093 0-1.181-.11-2.112-.332-2.792-.285-.875-.818-1.313-1.598-1.313Z"/></g><defs><clipPath id="a"><path fill="#fff" d="M0 0h59v20H0z"/></clipPath></defs></svg>