<svg xmlns="http://www.w3.org/2000/svg" width="36" height="36" version="1.1" viewBox="0 0 36 36">
  <path fill="none" fill-rule="evenodd" stroke="#000" stroke-width="1" d="M3.75,24.75 L30.75,24.75 L30.75,5.25 L3.75,5.25 L3.75,24.75 Z M10.5,29.24955 L24,29.24955 M15.75,24.74955 L15.75,29.24955 M18.75,24.74955 L18.75,29.24955 M15.75,19.49955 C15.75,20.74305 15.078,21.74955 14.25,21.74955 C13.422,21.74955 12.75,20.74305 12.75,19.49955 C12.75,18.25755 13.422,17.24955 14.25,17.24955 C15.078,17.24955 15.75,18.25755 15.75,19.49955 Z M21.75,10.49955 C21.75,11.74305 21.0795,12.74955 20.25,12.74955 C19.422,12.74955 18.75,11.74305 18.75,10.49955 C18.75,9.25755 19.422,8.24955 20.25,8.24955 C21.0795,8.24955 21.75,9.25755 21.75,10.49955 Z M8.25,13.49955 L8.25,7.49955 M14.25,13.49955 L14.25,7.49955 M20.25,22.49955 L20.25,16.49955 M26.25,22.49955 L26.25,16.49955 M8.25,22.49955 L8.25,16.49955 M26.25,13.49955 L26.25,7.49955"/>
</svg>
