<svg xmlns="http://www.w3.org/2000/svg" width="36" height="36" fill="none" viewBox="0 0 36 36"><path fill="#000" fill-rule="evenodd" d="m29.73 6.592 1.5 4.5.218.658h-.229a3.87 3.87 0 0 1-1.464 2.558V29.75l-.5.001h-24.5v-15.44a3.87 3.87 0 0 1-1.467-2.561h-.226l.219-.658 1.5-4.5.114-.342h24.72zm-5.727 6.557a3.872 3.872 0 0 1-6.75 0 3.872 3.872 0 0 1-6.75 0 3.87 3.87 0 0 1-4.748 1.723v13.879h14V16.75h7v12.001h2v-13.88a3.871 3.871 0 0 1-4.752-1.72m-3.248 15.602h5V17.75h-5zm-3-5.001h-10v-7h10zm-9-1h8v-5h-8zm-4.453-11a2.87 2.87 0 0 0 2.826 2.374 2.87 2.87 0 0 0 2.827-2.374zm6.75 0a2.87 2.87 0 0 0 2.826 2.374 2.87 2.87 0 0 0 2.827-2.374zm6.75 0a2.87 2.87 0 0 0 2.826 2.374 2.87 2.87 0 0 0 2.827-2.374zm6.75 0a2.87 2.87 0 0 0 2.826 2.374 2.87 2.87 0 0 0 2.827-2.374zm-20.103-1h25.612l-1.166-3.5H5.615z" clip-rule="evenodd"/></svg>