<svg xmlns="http://www.w3.org/2000/svg" width="36" height="36" version="1.1" viewBox="0 0 36 36">
  <path fill="none" fill-rule="evenodd" stroke="#000" stroke-width="1" d="M15.75,9.75 L6.75,9.75 C5.094,9.75 3.75,11.094 3.75,12.75 L3.75,26.25 C3.75,27.906 5.094,29.25 6.75,29.25 L29.25,29.25 C30.906,29.25 32.25,27.906 32.25,26.25 L32.25,12.75 C32.25,11.094 30.906,9.75 29.25,9.75 L20.25,9.75 M15.75,11.25 L15.75,7.5 C15.75,6.2565 16.7565,5.25 18,5.25 C19.2435,5.25 20.25,6.2565 20.25,7.5 L20.25,11.25 L15.75,11.25 Z M19.5,18.75 L25.5,18.75 M19.5,21.75 L28.5,21.75 M12.75,15.75 C14.406,15.75 15.75,17.4285 15.75,19.5 C15.75,21.5715 14.406,23.25 12.75,23.25 C11.094,23.25 9.75,21.5715 9.75,19.5 C9.75,17.4285 11.094,15.75 12.75,15.75 Z M14.781,22.24515 C16.929,23.30865 18.492,26.00865 18.7065,29.25015 M6.75,29.25 L6.7935,29.25 C7.008,26.0085 8.571,23.3085 10.719,22.245"/>
</svg>
