<?xml version="1.0" encoding="utf-8"?>
<!-- Generator: Adobe Illustrator 24.2.0, SVG Export Plug-In . SVG Version: 6.00 Build 0)  -->
<svg version="1.0" id="Ebene_1" xmlns="http://www.w3.org/2000/svg" xmlns:xlink="http://www.w3.org/1999/xlink" x="0px" y="0px"
	 viewBox="0 0 24 24" enable-background="new 0 0 24 24" xml:space="preserve">
<g id="SVG_x5F_24x24pt">
	<path id="backgroundBlue" fill="#2D327D" d="M0,22.5v-21C0,0.675,0.675,0,1.5,0h21C23.325,0,24,0.675,24,1.5v21
		c0,0.825-0.675,1.5-1.5,1.5h-21C0.675,24,0,23.325,0,22.5z"/>
	<g id="content">
		<g>
			<path fill="#FFFFFF" d="M4.334,2.995l0.854,2.253H4.672L4.493,4.744H3.658L3.475,5.249H2.969l0.857-2.253H4.334z M4.374,4.384
				L4.075,3.537l-0.3,0.847H4.374z"/>
			<path fill="#FFFFFF" d="M6.858,3.569v1.68H6.433V5.004C6.305,5.198,6.125,5.295,5.895,5.295c-0.201,0-0.353-0.067-0.455-0.201
				C5.4,5.041,5.372,4.98,5.356,4.909S5.33,4.746,5.33,4.632V3.569h0.446v0.924c0,0.096,0.003,0.165,0.008,0.205
				C5.79,4.738,5.802,4.772,5.819,4.8c0.047,0.075,0.128,0.112,0.241,0.112c0.14,0,0.243-0.062,0.306-0.186
				c0.031-0.061,0.046-0.17,0.046-0.328V3.569H6.858z"/>
			<path fill="#FFFFFF" d="M8.094,3.566v0.315H7.76V4.67c0,0.094,0.009,0.154,0.026,0.18C7.812,4.887,7.87,4.906,7.959,4.906
				c0.035,0,0.08-0.003,0.135-0.008v0.357c-0.1,0.011-0.193,0.017-0.277,0.017c-0.127,0-0.224-0.014-0.291-0.043
				c-0.104-0.046-0.168-0.13-0.194-0.252c-0.011-0.052-0.017-0.16-0.017-0.325V3.881H7.044V3.566h0.272V3.172H7.76v0.394H8.094z"/>
			<path fill="#FFFFFF" d="M9.1,3.523c0.244,0,0.443,0.081,0.598,0.243c0.153,0.16,0.229,0.373,0.229,0.64
				c0,0.276-0.082,0.496-0.245,0.66C9.53,5.218,9.331,5.295,9.086,5.295c-0.261,0-0.47-0.085-0.624-0.255
				C8.314,4.877,8.24,4.667,8.24,4.409c0-0.254,0.072-0.461,0.215-0.62C8.615,3.612,8.829,3.523,9.1,3.523z M9.077,3.871
				c-0.118,0-0.212,0.048-0.281,0.143C8.725,4.11,8.689,4.242,8.689,4.409c0,0.173,0.035,0.306,0.105,0.398
				c0.072,0.093,0.17,0.14,0.294,0.14c0.116,0,0.208-0.043,0.275-0.128C9.44,4.725,9.478,4.588,9.478,4.409
				c0-0.168-0.034-0.299-0.102-0.392C9.306,3.919,9.206,3.871,9.077,3.871z"/>
			<path fill="#FFFFFF" d="M10.655,3.574v0.223c0.056-0.077,0.112-0.134,0.168-0.171c0.099-0.069,0.216-0.103,0.351-0.103
				c0.217,0,0.37,0.092,0.457,0.277c0.131-0.185,0.31-0.277,0.535-0.277c0.174,0,0.31,0.052,0.406,0.156
				c0.096,0.104,0.145,0.251,0.145,0.441v1.129H12.27V4.25c0-0.108-0.012-0.183-0.035-0.226c-0.042-0.079-0.118-0.118-0.228-0.118
				c-0.133,0-0.226,0.056-0.278,0.169c-0.024,0.05-0.035,0.14-0.035,0.269v0.904h-0.445V4.232c0-0.099-0.012-0.171-0.035-0.215
				c-0.038-0.074-0.109-0.111-0.212-0.111c-0.064,0-0.121,0.016-0.171,0.048c-0.051,0.032-0.089,0.075-0.115,0.131
				c-0.026,0.055-0.038,0.142-0.038,0.26v0.904h-0.446V3.574H10.655z"/>
			<path fill="#FFFFFF" d="M14.591,5.249h-0.455c-0.019-0.066-0.029-0.122-0.029-0.168c-0.139,0.143-0.319,0.214-0.54,0.214
				c-0.172,0-0.307-0.04-0.403-0.12c-0.111-0.092-0.166-0.221-0.166-0.386c0-0.21,0.095-0.356,0.285-0.437
				c0.077-0.033,0.218-0.063,0.425-0.091c0.177-0.024,0.288-0.046,0.331-0.068c0.044-0.022,0.065-0.066,0.065-0.133
				c0-0.147-0.097-0.22-0.292-0.22c-0.104,0-0.179,0.018-0.227,0.055c-0.048,0.037-0.079,0.101-0.095,0.192h-0.421
				c0.013-0.187,0.084-0.327,0.211-0.422c0.127-0.095,0.308-0.142,0.543-0.142c0.259,0,0.451,0.053,0.575,0.158
				c0.057,0.049,0.096,0.102,0.115,0.158c0.019,0.056,0.028,0.146,0.028,0.268c0,0.026-0.002,0.138-0.005,0.338
				c-0.002,0.202-0.003,0.318-0.003,0.348c0,0.122,0.004,0.211,0.011,0.268C14.551,5.119,14.566,5.181,14.591,5.249z M14.1,4.438
				c-0.057,0.036-0.162,0.064-0.314,0.085c-0.107,0.016-0.184,0.037-0.231,0.063c-0.067,0.036-0.1,0.097-0.1,0.183
				c0,0.07,0.022,0.124,0.066,0.163c0.044,0.039,0.106,0.058,0.185,0.058c0.131,0,0.237-0.046,0.318-0.138
				c0.029-0.032,0.048-0.065,0.059-0.099c0.011-0.034,0.016-0.08,0.016-0.136V4.438z"/>
			<path fill="#FFFFFF" d="M15.789,3.566v0.315h-0.334V4.67c0,0.094,0.009,0.154,0.026,0.18c0.026,0.037,0.083,0.055,0.172,0.055
				c0.035,0,0.08-0.003,0.135-0.008v0.357c-0.1,0.011-0.193,0.017-0.277,0.017c-0.127,0-0.224-0.014-0.291-0.043
				c-0.104-0.046-0.168-0.13-0.194-0.252c-0.011-0.052-0.017-0.16-0.017-0.325V3.881h-0.272V3.566h0.272V3.172h0.445v0.394H15.789z"
				/>
		</g>
		<path fill-rule="evenodd" clip-rule="evenodd" fill="#FFFFFF" d="M12,6.75v1.5h5.25V12h2.25v0.75h-2.25v0.75h2.25v0.75h-2.25v4.5
			H21v-12H12z M19.5,9.75h-0.449V8.277h-0.16h-0.16h-0.155h-0.054V7.951c0.11-0.003,0.199-0.014,0.268-0.034
			c0.069-0.02,0.133-0.051,0.19-0.095c0.083-0.064,0.139-0.171,0.168-0.322H19.5V9.75z"/>
		<path fill-rule="evenodd" clip-rule="evenodd" fill="#FFFFFF" d="M7.5,9v12h9V9H7.5z M15,16.5H9v-0.75h6V16.5z M15,15H9v-0.75h6
			L15,15z M15,12.75h-1.62c0-0.122,0.02-0.238,0.059-0.349c0.039-0.111,0.095-0.206,0.167-0.286c0.055-0.062,0.12-0.122,0.195-0.18
			c0.074-0.058,0.222-0.166,0.444-0.321c0.108-0.075,0.183-0.145,0.226-0.209c0.043-0.065,0.065-0.139,0.065-0.225
			c0-0.098-0.029-0.178-0.087-0.239c-0.058-0.061-0.134-0.092-0.228-0.092c-0.232,0-0.351,0.167-0.358,0.5H13.43
			c0-0.022,0-0.038,0-0.049c0-0.273,0.076-0.484,0.229-0.634c0.149-0.146,0.341-0.218,0.577-0.218c0.209,0,0.384,0.059,0.524,0.178
			c0.153,0.129,0.229,0.303,0.229,0.521c0,0.191-0.061,0.355-0.183,0.492c-0.04,0.045-0.077,0.081-0.112,0.108
			c-0.035,0.027-0.127,0.093-0.275,0.196c-0.142,0.098-0.243,0.174-0.304,0.226c-0.061,0.052-0.118,0.112-0.17,0.18H15V12.75z"/>
	</g>
</g>
</svg>
