<svg width="24" height="24" viewBox="0 0 24 24" fill="none" xmlns="http://www.w3.org/2000/svg"><path fill-rule="evenodd" clip-rule="evenodd" d="M16.312 9.856c.493.112.894.381 1.184.75.394.501.558 1.159.509 1.795a2.785 2.785 0 0 1-.824 1.787C16.665 14.69 15.93 15 15 15H8c-.955 0-1.694-.308-2.202-.82-.502-.505-.736-1.167-.764-1.808-.028-.637.147-1.287.507-1.79a2.066 2.066 0 0 1 1.144-.816c.092-1.85 2.006-2.895 3.522-2.176.946-1.538 2.625-1.917 3.988-1.422.745.27 1.403.803 1.794 1.549.318.607.447 1.335.322 2.14Zm-2.457-2.748c-1.049-.38-2.362-.046-2.997 1.394l-.266.602-.509-.417c-.967-.792-2.566-.048-2.386 1.454l.066.56H7.2c-.348 0-.634.168-.845.462-.217.303-.34.728-.32 1.165.018.435.175.847.473 1.148.293.295.763.524 1.492.524h7c.696 0 1.173-.226 1.484-.529.317-.308.491-.724.524-1.146.032-.426-.082-.826-.299-1.102-.206-.262-.524-.442-.989-.423l-.698.028.199-.67c.241-.812.145-1.476-.117-1.977a2.276 2.276 0 0 0-1.25-1.073ZM7.053 17.776l1-2 .894.448-1 2-.894-.448Zm7-2-1 2 .894.448 1-2-.894-.448Zm-6 4 2-4 .894.448-2 4-.894-.448Zm4.05-4-2 4 .894.448 2-4-.894-.448Z" fill="#000"/></svg>