<svg xmlns="http://www.w3.org/2000/svg" width="36" height="36" viewBox="0 0 36 36">
  <path fill="none" stroke="#000" d="M14.25,9.75 L3.75,9.75 L3.75,3.75 L17.25,3.75 L14.25,9.75 Z M24,26.25 L32.25,26.25 L32.25,32.25 L3.75,32.25 L3.75,3.75 M3.75,26.25 L13.5,26.25 M20.25,26.25 C20.25,27.0795 19.5795,27.75 18.75,27.75 C17.922,27.75 17.25,27.0795 17.25,26.25 C17.25,25.4205 17.922,24.75 18.75,24.75 C19.5795,24.75 20.25,25.4205 20.25,26.25 Z M14.25,18.75 C14.25,20.406 12.906,21.75 11.25,21.75 C9.594,21.75 8.25,20.406 8.25,18.75 C8.25,17.094 9.594,15.75 11.25,15.75 C12.906,15.75 14.25,17.094 14.25,18.75 Z M14.25,9.75 L14.25,12.75 C21.7065,12.75 27.75,18.7935 27.75,26.25 M13.37115,20.87115 L17.68965,25.18965 M29.499,19.9014 L30.012,21.3114 M28.1646,17.35035 L28.9146,18.64935 M26.40825,15.0696 L27.37275,16.2186 M24.28125,13.128 L25.43175,14.0925"/>
</svg>
