<svg xmlns="http://www.w3.org/2000/svg" width="24" height="24" fill="none" viewBox="0 0 24 24"><path fill="#000" fill-rule="evenodd" d="M16.5 5H16v11h-2v1h-1v-1H8a2 2 0 0 0 1.732-1H12v-.5h-.5.5v-4.058l-.013-.056c-.216-.925-.693-1.972-1.148-2.778a9 9 0 0 0-.661-1.029c-.1-.13-.202-.25-.3-.343A1 1 0 0 0 9.7 6.1.64.64 0 0 0 9.368 6H5.005V5h-3v1h2v8h-2v1h4.263A2 2 0 0 0 8 16H2v1h10v1H2v1h6a2 2 0 1 0 4 0h1v-1h1v1h1a2 2 0 1 0 4 0h3v-1h-7v-1h7v-1h-5V6h5V5zm.5 15a1 1 0 0 1-1-1h2a1 1 0 0 1-1 1m-9-8c-1.105 0-2 .9-2 2h-.996V7H7v4h4v3h-1c0-1.1-.895-2-2-2m2 8a1 1 0 0 1-1-1h2a1 1 0 0 1-1 1m.835-10H8V7h1.228q.06.062.155.186c.165.216.372.534.585.913.325.575.648 1.258.867 1.901M8 13a1 1 0 1 0 .001 1.999A1 1 0 0 0 8 13" clip-rule="evenodd"/></svg>