<svg xmlns="http://www.w3.org/2000/svg" width="24" height="24" fill="none" viewBox="0 0 24 24"><path fill="#000" d="M22 6h-5v10h5v1h-7v1h7v1h-3a2 2 0 1 1-4 0h-1v-1h-1v1h-1a2 2 0 1 1-4 0H2v-1h10v-1H2v-1h11v1h1v-1h2V5h6zM9 19a1 1 0 1 0 2 0zm7 0a1 1 0 1 0 2 0zM5.004 6h4.364c.155 0 .275.063.333.099.068.041.128.092.177.137.099.093.2.213.3.343.201.264.433.624.662 1.03.454.806.931 1.852 1.147 2.778l.013.055V15H9.73a1.998 1.998 0 0 1-3.46 0H2.004v-1h2V6h-2V5h3zM8 13a1 1 0 1 0 .001 1.999A1 1 0 0 0 8 13m-2.996 1H6c0-1.1.895-2 2-2s2 .9 2 2h1v-3H7V7H5.004zM8 10h2.833a11.7 11.7 0 0 0-.864-1.9 8 8 0 0 0-.586-.914A2 2 0 0 0 9.227 7H8z"/></svg>