<?xml version="1.0" encoding="utf-8"?>
<!-- Generator: Adobe Illustrator 24.2.0, SVG Export Plug-In . SVG Version: 6.00 Build 0)  -->
<svg version="1.0" id="Ebene_1" xmlns="http://www.w3.org/2000/svg" xmlns:xlink="http://www.w3.org/1999/xlink" x="0px" y="0px"
	 viewBox="0 0 24 24" enable-background="new 0 0 24 24" xml:space="preserve">
<g id="SVG_x5F_24x24pt">
	<path id="backgroundBlue" fill="#2D327D" d="M0,22.5v-21C0,0.675,0.675,0,1.5,0h21C23.325,0,24,0.675,24,1.5v21
		c0,0.825-0.675,1.5-1.5,1.5h-21C0.675,24,0,23.325,0,22.5z"/>
	<g id="content_1_">
		<g>
			<path fill="#FFFFFF" d="M13.527,7.48L18.649,21h-3.092l-1.071-3.027H9.476L8.378,21H5.342l5.14-13.52H13.527z M13.767,15.814
				l-1.79-5.085l-1.8,5.085H13.767z"/>
		</g>
		<g>
			<path fill="#FFFFFF" d="M4.886,3.666H4.418c-0.009-0.11-0.05-0.194-0.122-0.251S4.122,3.328,3.992,3.328
				c-0.116,0-0.206,0.023-0.27,0.068C3.658,3.442,3.626,3.506,3.626,3.588c0,0.074,0.031,0.127,0.092,0.16
				C3.778,3.78,3.929,3.826,4.17,3.886c0.255,0.064,0.432,0.128,0.531,0.192c0.181,0.119,0.272,0.285,0.272,0.497
				c0,0.233-0.091,0.416-0.274,0.551C4.539,5.244,4.321,5.303,4.046,5.303c-0.306,0-0.543-0.07-0.712-0.209
				C3.165,4.954,3.077,4.755,3.071,4.498H3.56c0.007,0.125,0.039,0.218,0.097,0.278c0.09,0.096,0.226,0.145,0.408,0.145
				c0.123,0,0.22-0.024,0.292-0.072c0.081-0.055,0.122-0.131,0.122-0.226S4.421,4.458,4.307,4.413
				C4.245,4.389,4.097,4.344,3.864,4.28C3.719,4.24,3.605,4.202,3.523,4.166S3.375,4.09,3.326,4.046
				C3.211,3.943,3.154,3.802,3.154,3.621c0-0.216,0.09-0.388,0.269-0.514C3.576,3,3.774,2.946,4.018,2.946
				c0.214,0,0.394,0.043,0.538,0.128C4.765,3.196,4.874,3.393,4.886,3.666z"/>
			<path fill="#FFFFFF" d="M6.139,3.566v0.315H5.805V4.67c0,0.094,0.009,0.154,0.026,0.18c0.026,0.037,0.083,0.055,0.172,0.055
				c0.035,0,0.08-0.003,0.135-0.008v0.357c-0.1,0.011-0.193,0.017-0.277,0.017c-0.127,0-0.224-0.014-0.291-0.043
				c-0.104-0.046-0.168-0.13-0.194-0.252c-0.011-0.052-0.017-0.16-0.017-0.325V3.881H5.089V3.566h0.272V3.172h0.445v0.394H6.139z"/>
			<path fill="#FFFFFF" d="M7.917,5.249H7.462C7.443,5.183,7.433,5.127,7.433,5.081c-0.139,0.143-0.319,0.214-0.54,0.214
				c-0.172,0-0.307-0.04-0.403-0.12C6.379,5.083,6.324,4.954,6.324,4.789c0-0.21,0.095-0.356,0.285-0.437
				c0.077-0.033,0.218-0.063,0.425-0.091C7.21,4.238,7.321,4.215,7.364,4.193S7.43,4.126,7.43,4.06c0-0.147-0.097-0.22-0.292-0.22
				c-0.104,0-0.179,0.018-0.227,0.055C6.863,3.932,6.831,3.996,6.816,4.087H6.395C6.408,3.901,6.478,3.76,6.605,3.665
				C6.732,3.57,6.913,3.523,7.148,3.523c0.259,0,0.451,0.053,0.575,0.158C7.781,3.731,7.819,3.783,7.838,3.84
				c0.019,0.056,0.028,0.146,0.028,0.268c0,0.026-0.002,0.138-0.005,0.338C7.86,4.648,7.859,4.764,7.859,4.793
				c0,0.122,0.004,0.211,0.011,0.268C7.877,5.119,7.893,5.181,7.917,5.249z M7.427,4.438C7.369,4.474,7.265,4.502,7.113,4.523
				C7.006,4.539,6.929,4.56,6.882,4.586c-0.067,0.036-0.1,0.097-0.1,0.183c0,0.07,0.022,0.124,0.066,0.163S6.954,4.99,7.033,4.99
				c0.131,0,0.237-0.046,0.318-0.138C7.38,4.82,7.4,4.787,7.41,4.753c0.011-0.034,0.016-0.08,0.016-0.136V4.438z"/>
			<path fill="#FFFFFF" d="M8.631,3.574v0.235c0.052-0.072,0.101-0.125,0.146-0.158c0.111-0.086,0.244-0.129,0.4-0.129
				c0.137,0,0.254,0.035,0.349,0.105c0.076,0.055,0.129,0.125,0.159,0.21c0.03,0.085,0.045,0.204,0.045,0.358v1.055H9.286V4.287
				c0-0.108-0.009-0.187-0.028-0.237C9.241,4.006,9.211,3.972,9.169,3.946C9.121,3.918,9.066,3.904,9.005,3.904
				c-0.068,0-0.129,0.016-0.185,0.049C8.765,3.986,8.724,4.031,8.697,4.087C8.667,4.151,8.652,4.25,8.652,4.384v0.864H8.206V3.574
				H8.631z"/>
			<path fill="#FFFFFF" d="M11.659,3v2.249h-0.426v-0.22c-0.098,0.177-0.262,0.266-0.491,0.266c-0.228,0-0.409-0.084-0.543-0.251
				c-0.131-0.163-0.197-0.378-0.197-0.644c0-0.251,0.058-0.455,0.174-0.611c0.133-0.18,0.314-0.271,0.541-0.271
				c0.223,0,0.388,0.086,0.497,0.257V3H11.659z M10.833,3.884c-0.115,0-0.207,0.043-0.275,0.129
				c-0.071,0.09-0.106,0.217-0.106,0.381c0,0.16,0.035,0.287,0.105,0.381c0.067,0.09,0.161,0.135,0.285,0.135
				s0.218-0.045,0.286-0.134c0.068-0.089,0.102-0.215,0.102-0.377c0-0.169-0.036-0.298-0.108-0.388
				C11.05,3.927,10.954,3.884,10.833,3.884z"/>
		</g>
	</g>
</g>
</svg>
