<svg class="color-immutable" xmlns="http://www.w3.org/2000/svg" width="59" height="20" fill="none" viewBox="0 0 59 20"><path fill="#EB0000" fill-rule="evenodd" d="M2 0a2 2 0 0 0-2 2v16a2 2 0 0 0 2 2h55a2 2 0 0 0 2-2V2a2 2 0 0 0-2-2z" clip-rule="evenodd"/><path fill="#fff" d="M9.22 4.2h4.057L8.259 15.8H4.186zM15.948 4.2h14.395l-1.49 3.445h-10.28l-2.042 4.71h10.285l-1.49 3.445H10.93z"/><path fill="#fff" fill-rule="evenodd" d="M40.586 5.754q-.76 0-1.226.423-.468.423-.467 1.112 0 .72.47 1.15.471.432 1.262.432.79 0 1.25-.428.459-.427.459-1.162 0-.72-.463-1.123-.462-.404-1.285-.404m-.016 4.707q-.855 0-1.396.526-.542.525-.542 1.348 0 .847.55 1.377t1.427.53q.997 0 1.495-.586.483-.56.483-1.297 0-.839-.554-1.376-.53-.523-1.463-.523m-2.112-.87q-.806-.277-1.238-.91t-.431-1.535q0-1.502 1.234-2.396 1.09-.792 2.594-.792 1.71 0 2.793.942 1.028.885 1.028 2.191 0 .91-.435 1.558-.436.65-1.234.942.624.18 1.02.466 1.1.799 1.1 2.334 0 1.764-1.353 2.808-1.14.878-2.927.878-1.938 0-3.085-.965-1.194-1.005-1.194-2.634 0-1.527 1.06-2.365a2.9 2.9 0 0 1 1.068-.522M51.407 4.235V15.8h-2.31V8.23h-2.721V6.553q.846-.024 1.38-.174t.977-.49q.641-.49.862-1.654z" clip-rule="evenodd"/></svg>