<svg class="color-immutable" xmlns="http://www.w3.org/2000/svg" width="59" height="20" fill="none" viewBox="0 0 59 20"><path fill="#EB0000" fill-rule="evenodd" d="M2 0a2 2 0 0 0-2 2v16a2 2 0 0 0 2 2h55a2 2 0 0 0 2-2V2a2 2 0 0 0-2-2z" clip-rule="evenodd"/><path fill="#fff" fill-rule="evenodd" d="M9.22 4.2h4.056L8.258 15.8H4.185zM25.98 12.366a.93.93 0 0 0 .847-.554L30.119 4.2H15.984l-5.018 11.6h4.038l3.8-8.69h5.993l-1.201 2.775-5.226-.02 4.217 5.935h4.597l-3.124-3.434zM40.665 9.773q-.832 0-1.321.696-.443.616-.443 1.47 0 .847.45 1.48.491.705 1.345.704.831 0 1.337-.672.474-.633.475-1.495 0-.846-.427-1.448-.522-.735-1.416-.735m3.915-2.65h-2.199q-.308-1.337-1.519-1.337-1.28 0-1.819 1.574-.221.64-.356 1.938.522-.704 1.111-1.013.59-.308 1.42-.308 1.63 0 2.618 1.155.942 1.092.942 2.737 0 1.954-1.266 3.14-1.139 1.068-2.737 1.068-2.048 0-3.187-1.547-1.14-1.546-1.14-4.314 0-2.96 1.219-4.636 1.178-1.62 3.219-1.621 1.922 0 2.943 1.289.585.743.751 1.875M53.503 4.235v1.962q-.096.103-.562.641-.649.744-1.29 1.87-.64 1.128-.996 2.164-.751 2.16-.91 4.928h-2.388q.023-1.305.454-2.895.432-1.59 1.19-3.18 1.084-2.247 2.2-3.346h-5.458V4.235z" clip-rule="evenodd"/></svg>