<svg xmlns="http://www.w3.org/2000/svg" width="24" height="24" fill="none" viewBox="0 0 24 24"><path fill="#000" fill-rule="evenodd" d="M11.5 2H11v3.035A3.5 3.5 0 0 0 8 8.5v2.862l-1.686.674-.314.126V15H3v6H2v1h19v-1h-1v-6h-3v-2.838l-.314-.126L15 11.36V8.5a3.5 3.5 0 0 0-3-3.465V4h2V2h-2.5M16 15v-1H7v1zM6 16H4v5h2zm1 0h1v5H7zm2 0v5h1l-.001-2.5a1.5 1.5 0 0 1 3 0V21H14v-5zm6 0h1v5h-1zm2 0h2v5h-2zm-5 5h-1l-.001-2.5a.5.5 0 0 1 1 0zm4-8.161V13H7v-.161l4.5-1.8zm-2-1.878V9H9v1.962l2.314-.926.186-.075.186.075zM11.5 6a2.5 2.5 0 0 1 2.45 2h-4.9a2.5 2.5 0 0 1 2.45-2" clip-rule="evenodd"/></svg>