<svg width="36" height="36" viewBox="0 0 36 36" fill="none" xmlns="http://www.w3.org/2000/svg"><path fill-rule="evenodd" clip-rule="evenodd" d="m18.511 4.26-.011-.001v12.844l10.922-6.76a13.832 13.832 0 0 0-2.91-3.142 13.683 13.683 0 0 0-8.001-2.942Zm.363-.985a14.68 14.68 0 0 1 8.258 3.141c.91.719 1.733 1.542 2.452 2.452.345.437.665.894.96 1.368l.264.426-.426.263-12.119 7.5-.763.472V4.26c-.377.013-.75.042-1.118.085l-.116-.993c.407-.048.818-.079 1.234-.093V3.25h.5c.293 0 .584.009.874.025ZM11.28 6.001a13.662 13.662 0 0 1 2.985-1.238l-.271-.963A14.663 14.663 0 0 0 10.79 5.13l.49.872ZM7.2 9.487a13.835 13.835 0 0 1 2.286-2.286l-.62-.785a14.835 14.835 0 0 0-2.45 2.452l.784.62ZM30 11.281c.524.933.942 1.933 1.238 2.985l.963-.271a14.665 14.665 0 0 0-1.329-3.204l-.872.49ZM4.763 14.266a13.663 13.663 0 0 1 1.238-2.985l-.872-.49A14.663 14.663 0 0 0 3.8 13.995l.963.27Zm26.893 2.116a13.91 13.91 0 0 1 0 3.236l.993.116a14.91 14.91 0 0 0 0-3.468l-.993.116ZM4.25 18c0-.547.032-1.087.094-1.618l-.993-.116c-.067.569-.101 1.148-.101 1.734h1Zm26.987 3.734a13.662 13.662 0 0 1-1.238 2.985l.872.49a14.665 14.665 0 0 0 1.329-3.204l-.963-.27Zm-2.438 4.779a13.828 13.828 0 0 1-2.286 2.286l.62.785a14.842 14.842 0 0 0 2.45-2.452l-.784-.62Zm-4.08 3.486c-.933.524-1.933.942-2.985 1.238l.271.963a14.665 14.665 0 0 0 3.204-1.329l-.49-.872Zm-5.101 1.657c-.53.062-1.07.094-1.618.094v1c.587 0 1.165-.034 1.734-.1l-.116-.994ZM9 27.706l-4.146 4.147-.708-.707L8.293 27l-4.147-4.147.708-.707L9 26.292l4.146-4.146.708.707L9.707 27l4.147 4.146-.708.707L9 27.707Z" fill="#000"/></svg>