<svg xmlns="http://www.w3.org/2000/svg" width="36" height="36" fill="none" viewBox="0 0 36 36"><path fill="#000" fill-rule="evenodd" d="m18.511 4.26-.011-.001v12.844l10.923-6.76a13.832 13.832 0 0 0-2.91-3.142A13.7 13.7 0 0 0 18.51 4.26m.363-.985a14.7 14.7 0 0 1 8.258 3.141c.91.719 1.733 1.542 2.452 2.452q.517.656.96 1.368l.264.426-.426.263-12.119 7.5-.763.472V4.26q-.566.02-1.118.085l-.116-.993q.61-.072 1.234-.093V3.25h.5q.44 0 .874.025M11.28 6.001a13.7 13.7 0 0 1 2.985-1.238l-.271-.963A14.7 14.7 0 0 0 10.79 5.13zM7.2 9.487a13.8 13.8 0 0 1 2.286-2.286l-.62-.785a14.8 14.8 0 0 0-2.45 2.452zM30 11.281c.524.933.942 1.933 1.238 2.985l.963-.271a14.7 14.7 0 0 0-1.329-3.204zM4.763 14.266a13.7 13.7 0 0 1 1.238-2.985l-.872-.49A14.7 14.7 0 0 0 3.8 13.995zm26.893 2.116a14 14 0 0 1 0 3.236l.993.116a15 15 0 0 0 0-3.468zM4.25 18q0-.821.094-1.618l-.993-.116q-.1.854-.101 1.734zm26.987 3.734a13.7 13.7 0 0 1-1.238 2.985l.872.49a14.7 14.7 0 0 0 1.329-3.204zm-2.438 4.779a13.8 13.8 0 0 1-2.286 2.286l.62.785a14.8 14.8 0 0 0 2.45-2.452zm-4.08 3.486c-.933.524-1.933.942-2.985 1.238l.271.963a14.7 14.7 0 0 0 3.204-1.329zm-5.101 1.657q-.796.094-1.618.094v1q.88 0 1.734-.1zM9 27.706l-4.146 4.147-.708-.707L8.293 27l-4.147-4.147.708-.707L9 26.293l4.146-4.147.708.707L9.707 27l4.147 4.146-.708.707z" clip-rule="evenodd"/></svg>