<svg xmlns="http://www.w3.org/2000/svg" width="48" height="48" fill="none" viewBox="0 0 48 48"><path fill="#000" fill-rule="evenodd" d="M23 6h-.207l-.147.146-2.5 2.5-.146.147v1.209L11 10h-.207l-.147.146-2.5 2.5-.146.147V42h20v-4h12V6H23m4.5 4.004-6.5-.002v-.795L23.207 7H39v30H28v-3h3v-1h-3v-5h8v-1h-8v-3h8v-1h-8V10.004zM24 28H12v-1h12zm0 4H12v-1h12zm-12 6h7v-1h-7zm-.793-27L9 13.207V41h18V11.004zm24.821-1v8.566h-1.113v-6.21h-2.162v-.774q1.212 0 1.828-.457.416-.31.65-1.125zM24.006 21.316v.95h-5.572q.059-1.266.656-2.11.27-.387.662-.715.393-.327 1.219-.855 1.207-.767 1.541-1.172.492-.58.492-1.312a1.76 1.76 0 0 0-.275-.985q-.451-.703-1.366-.703-.79 0-1.21.557-.418.556-.46 1.658h-1.025l-.006-.223q0-.633.211-1.2.21-.57.592-.962.727-.744 1.951-.744 1.132 0 1.846.615.387.334.6.85.214.515.214 1.101 0 1.124-.761 1.952-.504.544-1.793 1.335-1.008.622-1.386 1.011-.378.39-.519.952z" clip-rule="evenodd"/></svg>