<svg class="color-immutable" xmlns="http://www.w3.org/2000/svg" width="59" height="20" fill="none" viewBox="0 0 59 20"><path fill="#E84E10" fill-rule="evenodd" d="M2 0a2 2 0 0 0-2 2v16a2 2 0 0 0 2 2h55a2 2 0 0 0 2-2V2a2 2 0 0 0-2-2z" clip-rule="evenodd"/><path fill="#000" d="M14.153 4.17v2.142H7.98v2.476h5.657v1.991H7.98v2.849h6.284v2.142H5.45V4.17zM25.311 4.17l-3.856 11.6h-2.88l-3.8-11.6h2.65l2.61 8.688 2.65-8.688zM33.327 4.17v1.968q-.094.103-.563.642-.651.747-1.293 1.88a13 13 0 0 0-1 2.167q-.754 2.166-.913 4.943h-2.396q.024-1.309.453-2.904.435-1.594 1.198-3.19Q29.9 7.423 31.018 6.32h-5.554V4.17zM42.216 7.066H40.01q-.31-1.341-1.523-1.341-1.285 0-1.825 1.579-.222.642-.357 1.944.525-.706 1.11-1.016.596-.31 1.43-.31 1.633 0 2.625 1.16.945 1.094.945 2.745 0 1.959-1.27 3.15-1.143 1.07-2.745 1.07-2.055 0-3.198-1.546-1.143-1.555-1.142-4.333 0-2.967 1.221-4.65 1.183-1.626 3.23-1.626 1.928 0 2.951 1.293.588.747.754 1.88M38.29 9.724q-.833 0-1.325.698-.445.62-.445 1.476 0 .848.453 1.484.492.706 1.348.706.834 0 1.341-.674.477-.635.476-1.5 0-.849-.428-1.452-.525-.738-1.42-.738"/></svg>