<svg width="24" height="24" viewBox="0 0 24 24" fill="none" xmlns="http://www.w3.org/2000/svg"><path fill-rule="evenodd" clip-rule="evenodd" d="M11.756 3.108a2.5 2.5 0 0 1 2.891 1.142l.866-.5a3.5 3.5 0 1 0-5.224 4.478 3.5 3.5 0 0 0-.767 6.138l2.94 2.084.003.002a2.5 2.5 0 1 1-3.599 3.298l-.866.5a3.5 3.5 0 1 0 5.224-4.478 3.496 3.496 0 0 0 2.096-2.22 3.5 3.5 0 0 0-1.33-3.918L11.05 7.55l-.002-.002a2.499 2.499 0 0 1 .708-4.44Zm.383 11.887a2.5 2.5 0 0 0 1.277-4.543l-.002-.002-2.04-1.445a2.5 2.5 0 0 0-1.277 4.543l.002.002 2.04 1.445Z" fill="#000"/></svg>