<svg xmlns="http://www.w3.org/2000/svg" width="30" height="16" fill="none" viewBox="0 0 30 16"><path fill="#000" d="M10.844 4.25c.105 0 .21.022.306.065l1.5.67a.75.75 0 0 1 .748-.735h3.03a.75.75 0 0 1 .749.73l1.486-.665a.8.8 0 0 1 .307-.065h3.028a.75.75 0 0 1 .665.403l.844 1.62 1.36.811a.75.75 0 0 1-.767 1.289l-1.345-.8.006 1.842a.75.75 0 0 1-.43.68l-.058.028v4.127a.75.75 0 0 1-1.5 0v-4.083h-.5v4.083a.75.75 0 0 1-1.5 0v-4.102l-.091-.038a.75.75 0 0 1-.462-.693v-3.26l-1.042.465v2.795a.75.75 0 0 1-.463.693l-.091.038v4.102a.75.75 0 0 1-1.5 0v-4.083h-.5v4.083a.75.75 0 0 1-1.5 0v-4.127l-.058-.027a.75.75 0 0 1-.43-.681l.009-2.789-1.051-.47v3.261a.75.75 0 0 1-.462.693l-.091.038v4.102a.75.75 0 0 1-1.5 0v-4.083h-.5v4.083a.75.75 0 0 1-1.5 0v-4.127l-.058-.027a.75.75 0 0 1-.43-.681l.005-1.843-1.344.801a.75.75 0 0 1-.768-1.289l1.36-.81.844-1.62a.75.75 0 0 1 .665-.404z"/><path fill="#000" d="M26.497 1.777q1.034 1.616 1.668 3.05.637 1.432.638 3.228-.001 1.724-.518 2.948-.517 1.225-.808 1.752-.29.526-.98 1.597h-1.27q.688-1.27.962-1.813.271-.545.735-1.76.462-1.215.463-2.739 0-.817-.163-1.633a9.4 9.4 0 0 0-.49-1.623 23 23 0 0 0-.607-1.379c-.19-.38-.487-.92-.9-1.624h1.27zM4.576 1.78a33 33 0 0 0-.944 1.758q-.327.67-.781 1.84Q2.4 6.55 2.398 8.074c0 1.039.166 1.982.5 2.82q.497 1.264.77 1.826.272.563.908 1.632H3.305q-.525-.8-.87-1.416-.348-.617-.89-1.841Q1 9.868 1 8.054q.002-1.685.59-3.1.59-1.415 1.714-3.175zM9.323 1a1.25 1.25 0 1 1 0 2.5 1.25 1.25 0 0 1 0-2.5M14.906 1a1.25 1.25 0 1 1 0 2.5 1.25 1.25 0 0 1 0-2.5M20.49 1a1.25 1.25 0 1 1 0 2.5 1.25 1.25 0 0 1 0-2.5"/></svg>