<?xml version="1.0" encoding="utf-8"?>
<!-- Generator: Adobe Illustrator 24.2.0, SVG Export Plug-In . SVG Version: 6.00 Build 0)  -->
<svg version="1.0" id="Ebene_1" xmlns="http://www.w3.org/2000/svg" xmlns:xlink="http://www.w3.org/1999/xlink" x="0px" y="0px"
	 viewBox="0 0 24 24" enable-background="new 0 0 24 24" xml:space="preserve">
<g id="SVG_x5F_24x24pt">
	<path id="backgroundBlue" fill="#2D327D" d="M0,22.5v-21C0,0.675,0.675,0,1.5,0h21C23.325,0,24,0.675,24,1.5v21
		c0,0.825-0.675,1.5-1.5,1.5h-21C0.675,24,0,23.325,0,22.5z"/>
	<g id="content">
		<g>
			<path fill="#FFFFFF" d="M4.454,18.483c0,1.45,1.18,2.63,2.63,2.63c1.45,0,2.63-1.18,2.63-2.63c0-1.45-1.18-2.63-2.63-2.63
				C5.633,15.853,4.454,17.033,4.454,18.483 M5.213,18.483c0-1.032,0.839-1.871,1.87-1.871c1.031,0,1.87,0.839,1.87,1.871
				c0,1.031-0.839,1.87-1.87,1.87C6.052,20.353,5.213,19.514,5.213,18.483L5.213,18.483z"/>
			<path fill="#FFFFFF" d="M11.208,18.483c0,1.45,1.18,2.63,2.63,2.63c1.45,0,2.63-1.18,2.63-2.63c0-1.45-1.18-2.63-2.63-2.63
				C12.388,15.853,11.208,17.033,11.208,18.483 M11.968,18.483c0-1.032,0.839-1.871,1.87-1.871c1.031,0,1.871,0.839,1.871,1.871
				c0,1.031-0.839,1.87-1.871,1.87C12.807,20.353,11.968,19.514,11.968,18.483L11.968,18.483z"/>
			<path fill="#FFFFFF" d="M3.02,9.483c0.227,2.13,1.09,4.07,2.397,5.625h10.151c1.307-1.555,2.17-3.495,2.397-5.625H3.02
				L3.02,9.483z"/>
			<path fill="#FFFFFF" d="M9.492,8.733c0.412,0,0.581-0.292,0.375-0.649L6.724,2.64C4.594,3.873,3.129,6.127,3,8.733H9.492
				L9.492,8.733z"/>
			<path fill="#FFFFFF" d="M20.208,8.435h-4.5v0.6h4.5c0.165,0,0.3-0.135,0.3-0.3C20.508,8.57,20.373,8.435,20.208,8.435
				L20.208,8.435z"/>
		</g>
	</g>
</g>
</svg>
