<svg class="color-immutable" xmlns="http://www.w3.org/2000/svg" width="59" height="20" fill="none" viewBox="0 0 59 20"><path fill="#EB0000" fill-rule="evenodd" d="M2 0a2 2 0 0 0-2 2v16a2 2 0 0 0 2 2h55a2 2 0 0 0 2-2V2a2 2 0 0 0-2-2z" clip-rule="evenodd"/><path fill="#fff" d="M44.381 4.235v1.962q-.095.103-.56.64c-.488.58-.919 1.207-1.284 1.872-.397.688-.73 1.412-.994 2.163a18.2 18.2 0 0 0-.906 4.928h-2.381c.032-.98.185-1.952.453-2.895a19 19 0 0 1 1.187-3.18q1.08-2.247 2.191-3.346h-5.44V4.235zM53.069 4.235v2.057h-4.643l-.497 2.603a2.8 2.8 0 0 1 2.136-.886 3.68 3.68 0 0 1 2.224.688q1.403 1.035 1.403 3.148 0 2.073-1.498 3.283a4.28 4.28 0 0 1-2.79.949q-1.83 0-2.941-.985-1.112-.985-1.175-2.662h2.263c.025.377.162.738.394 1.036a1.917 1.917 0 0 0 2.9.016c.348-.443.53-.994.513-1.558.03-.58-.162-1.15-.536-1.594a1.82 1.82 0 0 0-1.427-.597 1.9 1.9 0 0 0-1.695.98l-2.057-.031 1.096-6.447zM9.22 4.2h4.056L8.258 15.8H4.185zM25.98 12.366a.93.93 0 0 0 .847-.553L30.119 4.2H15.984l-5.018 11.6h4.038l3.8-8.69h5.993l-1.201 2.775-5.226-.019 4.217 5.934h4.597l-3.124-3.434z"/></svg>