<svg xmlns="http://www.w3.org/2000/svg" width="36" height="36" version="1.1" viewBox="0 0 36 36">
  <path fill="none" fill-rule="evenodd" stroke="#000" stroke-width="1" d="M12.5376,23.7597 C13.7001,26.6982 13.7241,31.2057 11.9061,32.1027 C10.1811,32.9547 6.5751,29.9727 5.7726,25.4007 M17.1987,19.77975 C17.9787,18.82425 18.8412,17.94075 19.7907,17.15925 C20.1537,16.86075 20.3202,16.38675 20.2002,15.93225 L17.2302,4.64775 C17.0592,3.99975 16.3857,3.59925 15.7542,3.80475 C10.0992,5.62875 5.6307,10.11225 3.8037,15.79275 C3.5982,16.43625 4.0032,17.11725 4.6527,17.28225 L15.9912,20.18925 C16.4397,20.30625 16.9047,20.13975 17.1987,19.77975 Z M19.80105,14.4156 C19.97805,15.0891 20.73105,15.4131 21.33705,15.0771 C21.88605,14.7771 22.46805,14.5266 23.08005,14.3301 C23.44455,14.2146 23.72955,13.9281 23.81505,13.5531 L25.46355,6.3666 C25.59105,5.8131 25.27455,5.2341 24.73155,5.0841 C22.68255,4.5231 20.53305,4.4061 18.43155,4.7556 C17.82405,4.8561 17.45205,5.4921 17.60955,6.0906 M13.75275,19.61565 C14.42325,19.78665 14.75175,20.54115 14.42475,21.15465 C14.13075,21.70965 13.88775,22.29915 13.70025,22.91565 C13.58775,23.28315 13.30575,23.57415 12.93375,23.66415 L5.81025,25.39215 C5.25975,25.52415 4.68225,25.21215 4.52925,24.66615 C3.95175,22.61115 3.81525,20.44815 4.14075,18.33165 C4.23525,17.71665 4.86225,17.33565 5.46075,17.49015 M25.45605,6.3999 C29.98905,7.1664 32.93655,10.7454 32.11155,12.4899 C31.24305,14.3244 26.81955,14.3754 23.88555,13.2459"/>
</svg>
