<svg xmlns="http://www.w3.org/2000/svg" width="48" height="48" fill="none" viewBox="0 0 48 48"><path fill="#000" fill-rule="evenodd" d="M37.5 2a2.5 2.5 0 0 0-2.496 2.348A3.48 3.48 0 0 0 33 7.5c0 1.405.83 2.6 2.016 3.156q-.014.166-.015.345c0 1.52.543 2.904 1.43 3.832A3.45 3.45 0 0 0 36 16.5a3.5 3.5 0 1 0 7 0c0-.904-.35-1.717-.907-2.332.57-.868.907-1.973.907-3.168a6 6 0 0 0-.28-1.8A3.49 3.49 0 0 0 44 6.5a3.5 3.5 0 0 0-4.415-3.378A2.5 2.5 0 0 0 37.5 1.999M36 4.498a1.5 1.5 0 0 1 2.884-.575l.193.462.461-.193A2.5 2.5 0 0 1 43 6.5c0 .878-.455 1.648-1.145 2.096l-.341.22.146.379c.211.549.34 1.156.34 1.805 0 1.162-.377 2.19-.956 2.912l-.303.38.37.314A2.48 2.48 0 0 1 42 16.5a2.5 2.5 0 1 1-5 0c0-.542.178-1.042.477-1.456l.27-.374-.351-.3C36.576 13.674 36 12.444 36 11c0-.19.022-.376.047-.596l.002-.014.047-.403-.385-.129a2.49 2.49 0 0 1-1.712-2.359 2.49 2.49 0 0 1 1.683-2.35l.369-.128-.035-.388-.008-.065-.003-.024-.003-.02zM4 22h38.5a1.5 1.5 0 0 1 1.5 1.5v3a1.5 1.5 0 0 1-1.5 1.5H4v-6m1 1v4h8v-4zm11 4h-2v-4h2zm1 0h21v-4H17zm25.5 0H39v-4h3.5a.5.5 0 0 1 .5.5v3a.5.5 0 0 1-.5.5" clip-rule="evenodd"/></svg>