<svg xmlns="http://www.w3.org/2000/svg" width="24" height="24" viewBox="0 0 24 24">
  <path fill="none" stroke="#000" d="M4.5,14 C3.396,14 2.5,13.104 2.5,12 M9.5,4.5 C9.5,5.604 8.604,6.5 7.5,6.5 C6.396,6.5 5.5,5.604 5.5,4.5 C5.5,3.396 6.396,2.5 7.5,2.5 C8.604,2.5 9.5,3.396 9.5,4.5 Z M14.5,8.5 C14.5,9.604 13.604,10.5 12.5,10.5 C11.396,10.5 10.5,9.604 10.5,8.5 C10.5,7.396 11.396,6.5 12.5,6.5 C13.604,6.5 14.5,7.396 14.5,8.5 Z M15.5,10.9771 C14.573,10.6721 13.562,10.5001 12.5,10.5001 C11.438,10.5001 10.427,10.6721 9.5,10.9771 M17,12.5 L18,12.5 M8.5,8.377 C6.111,9.501 4.5,11.596 4.5,14 C4.5,16.052 5.673,17.878 7.5,19.069 L7.5,21.5 L9.5,21.5 L9.5,20.023 C10.427,20.328 11.438,20.5 12.5,20.5 C13.193,20.5 13.858,20.413 14.5,20.278 L14.5,21.5 L16.5,21.5 L16.5,19.61 C18.004,18.899 19.209,17.816 19.885,16.5 L21.5,16.5 L21.5,12.5 L20.277,12.5 C19.972,11.449 19.348,10.501 18.5,9.716 L18.5,6.5 C17.435,6.5 16.571,7.336 16.512,8.386"/>
</svg>
