<svg xmlns="http://www.w3.org/2000/svg" width="36" height="36" fill="none" viewBox="0 0 36 36"><path fill="#000" fill-rule="evenodd" d="m23.12 4.623 2.25-.606.26.966-1.88.506v3.76H30a1.75 1.75 0 1 0 0-3.5v-1a2.75 2.75 0 1 1 0 5.5h-6.25v3.762l1.88.506-.26.966-2.25-.606-17.25-4.644-1.793-.483 1.793-.483zm-.37 9.119V5.758L7.923 9.75zm-11.5 4.008a1 1 0 1 0 0 2h2.25v1H6.75a1 1 0 1 0 0 2H12v1H5.25a1 1 0 1 0 0 2H12v1H6.75a1 1 0 1 0 0 2H12v1H8.25a1 1 0 1 0 0 2h5.25c2.193 0 3.828-.365 4.904-.724a9 9 0 0 0 1.346-.564V20.49l-3.425-2.74zm9 13 .277.416-.002.001-.002.002-.008.005-.026.017-.093.055q-.119.071-.344.186c-.301.15-.745.347-1.331.542-1.174.391-2.914.776-5.221.776H8.25a2 2 0 0 1-1.725-3.012 2 2 0 0 1-1.5-3 2 2 0 0 1 0-3.975A2 2 0 0 1 6.75 19.75h2.768a2 2 0 0 1 1.732-3h5.425l.137.109 3.75 3 .188.15v11.008l-.223.148zm5.836-9.676q-.53.818-.586 2.311h1.38q.17-2.633 2.313-2.633 1.035 0 1.565.667.442.545.442 1.348 0 .434-.153.85-.185.492-.779 1.1-.923.948-1.192 1.293t-.414.779q-.2.594-.216 1.822h1.365q0-.691.08-1.124.072-.434.253-.727.18-.292.638-.734 1.035-1.012 1.309-1.389.61-.826.61-1.975 0-1.388-.9-2.24-.963-.922-2.592-.922-1.013 0-1.822.409a3.3 3.3 0 0 0-1.3 1.165m3.886 10.434h-1.735V29.84h1.735z" clip-rule="evenodd"/></svg>