<svg width="36" height="36" viewBox="0 0 36 36" fill="none" xmlns="http://www.w3.org/2000/svg"><path fill-rule="evenodd" clip-rule="evenodd" d="m23.12 4.623 2.25-.606.26.966-1.88.506v3.76H30a1.75 1.75 0 1 0 0-3.5v-1a2.75 2.75 0 1 1 0 5.5h-6.25v3.762l1.88.506-.26.966-2.25-.606-17.25-4.644-1.793-.483 1.793-.483 17.25-4.644Zm-.37 1.135L7.923 9.75l14.827 3.992V5.758ZM11.25 17.75a1 1 0 1 0 0 2h2.25v1H6.75a1 1 0 1 0 0 2H12v1H5.25a1 1 0 1 0 0 2H12v1H6.75a1 1 0 1 0 0 2H12v1H8.25a1 1 0 1 0 0 2H13.5c2.193 0 3.828-.365 4.904-.724a9.21 9.21 0 0 0 1.346-.564V20.49l-3.425-2.74H11.25Zm9 13 .277.416-.002.001-.002.002-.008.005-.026.017a6.102 6.102 0 0 1-.437.24c-.301.151-.745.348-1.331.543-1.174.391-2.914.776-5.221.776H8.25a2 2 0 0 1-1.725-3.012 2 2 0 0 1-1.5-3 2 2 0 0 1 0-3.975A2 2 0 0 1 6.75 19.75h2.768a2 2 0 0 1 1.732-3h5.425l.137.109 3.75 3 .188.15V31.018l-.223.148-.277-.416Zm5.836-9.677c-.354.546-.549 1.317-.586 2.313h1.38c.113-1.756.884-2.634 2.313-2.634.69 0 1.211.223 1.565.667.295.363.442.813.442 1.348 0 .289-.052.573-.153.85-.123.328-.383.694-.779 1.1-.615.632-1.013 1.063-1.192 1.293-.18.23-.316.49-.414.779-.133.396-.205 1.003-.216 1.822h1.365c0-.46.026-.836.08-1.124.048-.29.133-.531.253-.727.12-.194.333-.44.638-.734.69-.675 1.126-1.137 1.309-1.389.407-.55.61-1.21.61-1.975 0-.925-.3-1.672-.9-2.24-.642-.615-1.506-.922-2.592-.922-.675 0-1.283.136-1.822.409a3.286 3.286 0 0 0-1.3 1.165Zm3.886 10.435h-1.735V29.84h1.735v1.67Z" fill="#000"/></svg>