<svg xmlns="http://www.w3.org/2000/svg" width="24" height="24" fill="none" viewBox="0 0 24 24"><path stroke="#000" d="M4 19.5c.296.001.589-.053.862-.16.274-.108.523-.266.732-.465.209-.2.375-.436.487-.696.113-.26.17-.54.169-.822v-.714c-.001-.282.056-.56.169-.821a2.1 2.1 0 0 1 .487-.697c.21-.2.458-.357.732-.464a2.3 2.3 0 0 1 .862-.16H10l4-.001h1.5c.296-.001.589.053.863.16.273.108.522.266.73.465.21.2.376.436.488.697.113.26.17.54.169.82v.715c-.001.282.056.561.169.822.112.26.278.497.487.696.21.2.458.357.732.464s.566.162.862.161m-12 1c.296.001.839-.05 1.113-.15.273-.1.522-.247.73-.433.21-.186.376-.407.488-.65.113-.244.17-.504.169-.767v-4m5.5 6c-.296.001-.839-.05-1.113-.15a2.3 2.3 0 0 1-.73-.433 2 2 0 0 1-.488-.65 1.8 1.8 0 0 1-.169-.767v-4m-3.75 0a4.5 4.5 0 0 1-4.5-4.5v-.75a4.6 4.6 0 0 1 .797-2.56 4.88 4.88 0 0 1 .328-4.19 4.88 4.88 0 0 1 4.106 2.25h3.038a4.88 4.88 0 0 1 4.106-2.25 4.87 4.87 0 0 1 .328 4.19c.513.756.79 1.647.797 2.56V10a4.5 4.5 0 0 1-4.5 4.5"/></svg>