<svg xmlns="http://www.w3.org/2000/svg" width="48" height="48" version="1.1" viewBox="0 0 48 48">
  <path fill="none" fill-rule="evenodd" stroke="#000" stroke-width="1" d="M30.5,12.5 C32.126,12.5 33.5,11.126 33.5,9.5 C33.5,7.874 32.126,6.5 30.5,6.5 C28.874,6.5 27.5,7.874 27.5,9.5 C27.5,11.126 28.874,12.5 30.5,12.5 Z M10.5,20.5 C11.584,20.5 12.5,19.584 12.5,18.5 C12.5,17.416 11.584,16.5 10.5,16.5 C9.416,16.5 8.5,17.416 8.5,18.5 C8.5,19.584 9.416,20.5 10.5,20.5 Z M7.5,22.5 L12.5,22.5 L18,25.5 L21.5,25.5 C22.052,25.5 22.5,25.947 22.5,26.5 C22.5,27.053 22.052,27.5 21.5,27.5 L17.5,27.5 L12.5,25 L12.5,30.5 L16.5,42.5 L14.5,42.5 L11,32.5 L10,32.5 L9.5,37.5 L5.933,41.853 L4.339,40.259 L7.5,36.5 L8,31.54 L8,25 L5.5,27.5 L5.5,30.5 C5.5,31.053 5.052,31.5 4.5,31.5 C3.948,31.5 3.5,31.053 3.5,30.5 L3.5,26.5 L7.5,22.5 Z M22.5,26.5 L24.026,20.217 L27.5,17.5 L27.5,26.5 L26.847,34.568 L20.834,40.559 L22.429,42.153 L29.025,35.577 L30,27.5 L31,27.5 L35.5,33.5 L35.5,42.5 L37.5,42.5 L37.5,32.5 L33.5,26.5 L33.5,17.5 L38.016,21.649 L44.184,23.25 C44.683,23.381 45.203,23.132 45.415,22.662 C45.68,22.074 45.36,21.389 44.741,21.213 L38.86,19.565 L33.5,14.5 L27.5,14.5 L21.973,18.896 L21.892,18.955 L20.376,25.5"/>
</svg>
