<svg xmlns="http://www.w3.org/2000/svg" width="24" height="24" fill="none" viewBox="0 0 24 24"><path fill="#000" fill-rule="evenodd" d="M8.434 2h3.448l.1.368 1.5 5.5-.964.264L11.118 3H9.566l.93 7.438.07.562H5.69l-.137-.276L4.69 9h-.933l1.202 2.803.084.197-.084.197L3.758 15h.933l.862-1.724L5.69 13H8v1H6.309l-.862 1.724L5.31 16H2.242l.298-.697L3.956 12 2.54 8.697 2.242 8h3.067l.138.276L6.31 10h3.125l-.93-7.438zM3.646 19.646l15-15 .707.708-15 15zM16.5 12H16v5h4.637l.252.708.01.028.014.027a.8.8 0 0 1 .087.377c0 .48-.383.86-.84.86H10v1h3.05c.076.369.233.709.453 1H10v1h12v-1h-4.503c.22-.291.377-.631.453-1h2.21A1.85 1.85 0 0 0 22 18.14c0-.287-.063-.553-.178-.794l-1.87-5.24a4.6 4.6 0 0 0-2.557-2.746l-.39.92A3.6 3.6 0 0 1 18.828 12zm-1 9c.649 0 1.206-.42 1.414-1h-2.828c.208.58.765 1 1.414 1m3.71-8 1.07 3H17v-3zM15 16.5V12h-1v4h-4v1h5z" clip-rule="evenodd"/></svg>