<svg xmlns="http://www.w3.org/2000/svg" width="36" height="36" version="1.1" viewBox="0 0 36 36">
  <path fill="none" fill-rule="evenodd" stroke="#000" stroke-width="1" d="M26.25,14.25 L8.25,14.25 M26.25,14.25 C26.25,9.2805 22.2195,5.25 17.25,5.25 C12.2805,5.25 8.25,9.2805 8.25,14.25 C8.25,19.2195 12.2805,23.25 17.25,23.25 C22.2195,23.25 26.25,19.2195 26.25,14.25 Z M25.0356,9.75 L9.4641,9.75 M25.0356,18.75 L9.4641,18.75 M18.86715,5.4024 C20.62965,7.5624 21.75015,10.7184 21.75015,14.2494 C21.75015,17.7804 20.62965,20.9379 18.86715,23.0979 M15.63285,23.0976 C13.87035,20.9391 12.74985,17.7816 12.74985,14.2506 C12.74985,10.7196 13.87035,7.5621 15.63285,5.4021 M17.25,5.25 L17.25,23.25 M27.75,29.25 L27.75,30 C27.75,31.242 26.742,32.25 25.5,32.25 C24.258,32.25 23.25,31.242 23.25,30 L23.25,29.25 M29.25,29.25 L6.75,29.25 L6.75,27.75 L6.75,26.25 L29.25,26.25 L29.25,29.25 Z M3.75,30 L3.75,25.5 M3.75,27.75 L6.75,27.75 M32.25,25.5 L32.25,30 M32.25,27.75 L29.25,27.75 M12.75,29.25 L12.75,30 C12.75,31.242 11.742,32.25 10.5,32.25 C9.258,32.25 8.25,31.242 8.25,30 L8.25,29.25"/>
</svg>
