<svg class="color-immutable" xmlns="http://www.w3.org/2000/svg" width="59" height="20" fill="none" viewBox="0 0 59 20"><g clip-path="url(#a)"><path fill="#000" fill-rule="evenodd" d="M2 0a2 2 0 0 0-2 2v16a2 2 0 0 0 2 2h55a2 2 0 0 0 2-2V2a2 2 0 0 0-2-2z" clip-rule="evenodd"/><path fill="#FFDE15" d="M4.16 4.235h5.6q1.662 0 2.547.522.735.428 1.124 1.14.387.712.387 1.605 0 1.012-.49 1.764-.483.752-1.353 1.076a1.95 1.95 0 0 1 1.203.854q.276.42.371.878.095.459.245 2.097.111 1.202.34 1.495l.111.134h-2.634a2 2 0 0 1-.197-.625q-.056-.38-.15-1.756-.095-1.226-.602-1.693-.499-.474-1.708-.474h-2.27V15.8H4.16zm2.523 1.986V9.4h2.413q1.162 0 1.637-.333.601-.418.601-1.265.001-.824-.514-1.203-.514-.38-1.621-.38zM24.647 4.235v2.136h-6.154V8.84h5.64v1.986h-5.64v2.84h6.265V15.8H15.97V4.235zM36.252 4.235V15.8h-2.54l-4.84-7.879.03 7.879h-2.428V4.235h2.571l4.81 7.863-.032-7.863zM37.905 12.897h2.183q.27 1.345 1.558 1.345.727 0 1.179-.49.458-.5.704-1.543.158-.665.23-1.511-.531.744-1.092 1.06-.554.309-1.353.308-1.273 0-2.215-.743a3.54 3.54 0 0 1-1.028-1.353 4.4 4.4 0 0 1-.364-1.803q0-1.955 1.337-3.164 1.146-1.045 2.753-1.045.988 0 1.827.443a3.96 3.96 0 0 1 1.408 1.258q1.005 1.447 1.004 4.066 0 2.42-.886 4.13-1.155 2.221-3.496 2.222-1.558 0-2.579-.862-1.012-.863-1.17-2.318m3.844-6.985q-.744 0-1.258.61-.514.616-.514 1.566 0 .767.372 1.36.506.815 1.424.815.83 0 1.329-.665.466-.624.466-1.487 0-.909-.482-1.542a1.6 1.6 0 0 0-1.337-.657"/></g><defs><clipPath id="a"><path fill="#fff" d="M0 0h59v20H0z"/></clipPath></defs></svg>