<svg xmlns="http://www.w3.org/2000/svg" width="36" height="36" fill="none" viewBox="0 0 36 36"><path fill="#000" fill-rule="evenodd" d="M8.25 3.249h-.5v3.03a3.27 3.27 0 0 0-2.552 1.908c-.364.814-.687 1.448-.967 1.998-.141.277-.271.532-.39.779-.345.713-.591 1.34-.591 2.048v16.689c0 1.69 1.387 3.049 3.086 3.049h6.828c1.697 0 3.086-1.358 3.086-3.049V13.014c0-.708-.246-1.336-.59-2.049-.12-.246-.25-.502-.39-.778h-.001c-.28-.55-.603-1.185-.968-2A3.28 3.28 0 0 0 11.75 6.28V3.25h-3.5M5.198 8.187l.457.204zm2.98-.937h3.145a2.28 2.28 0 0 1 2.066 1.345c.373.834.721 1.52 1.008 2.082q.205.4.362.722c.333.69.491 1.145.491 1.614V29.7c0 1.125-.927 2.049-2.086 2.049H6.336c-1.16 0-2.086-.924-2.086-2.049V28.25h6v-13h-6v-2.238c0-.468.157-.923.49-1.613q.158-.322.363-.722c.287-.563.635-1.248 1.008-2.082A2.28 2.28 0 0 1 8.178 7.25m2.572-1V4.249h-2V6.25zm-6.5 21v-11h5v11zm18.256-7.5c.473 0 .828.05 1.123.137.297.088.509.206.68.303l.014.008c.165.093.28.158.437.209q.103.034.253.06c.123-2.337 1.047-3.663 2.042-4.393a4.45 4.45 0 0 1 1.916-.8 3 3 0 0 1 .185-.022h.014l.004-.001h.003l.026.499.026.5h.002-.002l-.02.001-.092.011a3.451 3.451 0 0 0-1.47.617c-.722.53-1.513 1.553-1.632 3.582a2 2 0 0 0 .225-.054c.157-.051.272-.116.436-.21l.014-.007c.171-.097.383-.215.68-.303.295-.086.651-.137 1.124-.137.669-.015 1.772-.029 2.692.671.946.72 1.564 2.078 1.564 4.473 0 2.224-.37 4.148-1.067 5.536-.698 1.39-1.775 2.32-3.183 2.32h-.01a5 5 0 0 1-1.972-.412q-.127-.053-.232-.1c-.32-.138-.516-.223-.786-.238-.27.015-.466.1-.786.239l-.232.1a5 5 0 0 1-1.973.41H22.5c-1.408 0-2.485-.93-3.183-2.32-.697-1.387-1.067-3.311-1.067-5.535 0-2.395.617-3.753 1.564-4.473.92-.7 2.023-.686 2.692-.671m-2.087 1.467c-.59.449-1.169 1.428-1.169 3.677 0 2.132.357 3.886.96 5.087.602 1.197 1.398 1.767 2.285 1.769a4 4 0 0 0 1.6-.334q.087-.036.178-.077c.334-.147.724-.319 1.207-.339h.04c.483.02.873.192 1.207.339q.091.04.178.077c.384.161.841.319 1.6.334.887-.002 1.683-.572 2.284-1.77.604-1.2.961-2.954.961-5.086 0-2.25-.58-3.228-1.17-3.677-.614-.467-1.382-.482-2.069-.467H28.5c-.405 0-.664.043-.847.097-.182.053-.31.123-.47.213l-.03.017c-.154.088-.35.199-.607.281-.277.09-.607.142-1.046.142s-.769-.052-1.046-.141c-.258-.083-.453-.194-.608-.282l-.03-.017c-.159-.09-.288-.16-.47-.213-.183-.054-.441-.097-.846-.097h-.011c-.687-.015-1.456 0-2.07.467" clip-rule="evenodd"/></svg>