<svg width="36" height="36" viewBox="0 0 36 36" fill="none" xmlns="http://www.w3.org/2000/svg"><path fill-rule="evenodd" clip-rule="evenodd" d="M8.25 3.249h-.5v3.03a3.273 3.273 0 0 0-2.552 1.908c-.364.814-.687 1.448-.967 1.998-.141.277-.271.532-.39.779-.345.713-.591 1.34-.591 2.048v16.689c0 1.69 1.387 3.049 3.086 3.049h6.828c1.697 0 3.086-1.358 3.086-3.049V13.012c0-.707-.246-1.335-.59-2.048-.12-.247-.25-.502-.391-.779-.28-.55-.603-1.184-.968-1.998A3.276 3.276 0 0 0 11.75 6.28V3.248h-3.5ZM5.198 8.187l.457.204-.457-.204Zm2.98-.937h3.145a2.276 2.276 0 0 1 2.066 1.345c.373.834.721 1.52 1.008 2.082.136.267.258.507.362.722.333.69.491 1.145.491 1.614V29.7c0 1.125-.927 2.049-2.086 2.049H6.336c-1.16 0-2.086-.924-2.086-2.049V28.25h6v-13h-6v-2.238c0-.468.157-.923.49-1.613.105-.215.227-.455.363-.722.287-.563.635-1.248 1.008-2.082A2.275 2.275 0 0 1 8.178 7.25Zm2.572-1V4.249h-2V6.25h2Zm-6.5 21v-11h5v11h-5Zm18.256-7.5c.473 0 .828.05 1.123.137.297.088.509.206.68.303l.014.008c.165.093.28.158.437.209a1.7 1.7 0 0 0 .253.06c.123-2.337 1.047-3.663 2.043-4.393a4.453 4.453 0 0 1 1.915-.8 2.799 2.799 0 0 1 .185-.022h.014l.005-.001h.002l.026.499.026.5h.002-.002l-.02.001a2.988 2.988 0 0 0-.45.09 3.452 3.452 0 0 0-1.112.539c-.721.53-1.512 1.552-1.632 3.581.088-.015.162-.034.225-.054.157-.051.272-.116.436-.21l.014-.007c.171-.097.383-.215.68-.303.295-.086.651-.137 1.124-.137.669-.015 1.772-.029 2.692.671.946.72 1.564 2.078 1.564 4.473 0 2.224-.37 4.148-1.067 5.536-.698 1.39-1.775 2.32-3.183 2.32h-.01a4.993 4.993 0 0 1-1.972-.412c-.085-.035-.161-.069-.232-.1-.32-.138-.516-.223-.786-.238-.27.015-.466.1-.786.239l-.232.1a4.993 4.993 0 0 1-1.973.41H22.5c-1.408 0-2.485-.93-3.183-2.32-.697-1.387-1.067-3.311-1.067-5.535 0-2.395.617-3.753 1.564-4.473.92-.7 2.023-.686 2.692-.671Zm-2.087 1.467c-.59.449-1.169 1.428-1.169 3.677 0 2.132.357 3.886.96 5.087.602 1.197 1.398 1.767 2.285 1.769a3.996 3.996 0 0 0 1.6-.334c.058-.024.117-.05.178-.077.334-.147.724-.319 1.207-.339h.04c.483.02.873.192 1.207.339.061.027.12.053.178.077.384.161.841.319 1.6.334.887-.002 1.683-.572 2.284-1.77.604-1.2.961-2.954.961-5.086 0-2.25-.58-3.228-1.17-3.677-.614-.467-1.382-.482-2.069-.467H28.5c-.405 0-.664.043-.847.097-.182.053-.31.123-.47.213l-.03.017c-.154.088-.35.199-.607.281-.277.09-.607.142-1.046.142-.439 0-.769-.052-1.046-.141-.258-.083-.453-.194-.608-.282l-.03-.017c-.159-.09-.288-.16-.47-.213-.183-.054-.441-.097-.846-.097h-.011c-.688-.015-1.456 0-2.07.467Z" fill="#000"/></svg>