<svg xmlns="http://www.w3.org/2000/svg" width="36" height="36" fill="none" viewBox="0 0 36 36"><path fill="#000" fill-rule="evenodd" d="m16.154 2.706-.404-.556-.404.556-6 8.25-.096.132v5.162h1.5v4.526l-4.058.477-.343.04-.084.336-1.5 6-.174.697.714-.08 2.447-.27-.002 3.52h1l.002-3.632 9.501-1.056-.003 4.688h1l.003-4.799 9.502-1.056-.005 5.855h1l.005-5.966 2.55-.283.445-.05v-7.009l-.558.065L20.75 19.6V16.25h1.5v-5.162l-.096-.132zM19.75 16.25h-8v4.408l8-.94zm-9.5-1v-3.5h11v3.5zm5.5-11.4-5.018 6.9h10.036zm4.558 16.808 11.442-1.346v4.99l-2.55.284-10.502 1.167-10.501 1.166-2.287.255 1.241-4.968 4.158-.489z" clip-rule="evenodd"/></svg>