<svg xmlns="http://www.w3.org/2000/svg" width="48" height="48" fill="none" viewBox="0 0 48 48"><path fill="#000" fill-rule="evenodd" d="M12.191 5H9V4h17v1h-3.25L20.5 8h4a5.5 5.5 0 0 1 5.5 5.5V38h-3v1.5q-.001.259-.086.5H35v-6h4v-7h-1v-7.44h6V27h-1v7h3v1H36v6H2v-1h5.086A1.5 1.5 0 0 1 7 39.5V38H4V13.5A5.5 5.5 0 0 1 9.5 8h4.191zM42 26.5V34h-2v-8h-1v-5.44h4V26h-1zM24.086 40a1.5 1.5 0 0 1-.086-.5V38H10v1.5q-.001.259-.086.5zM8.5 40a.5.5 0 0 0 .5-.5V38H8v1.5a.5.5 0 0 0 .5.5m17 0a.5.5 0 0 0 .5-.5V38h-1v1.5a.5.5 0 0 0 .5.5M13.309 5H21.5l-2.25 3h-4.441zm-6.991 5.318A4.5 4.5 0 0 1 9.5 9h15a4.5 4.5 0 0 1 4.5 4.5v10.635l-12 3.84-12-3.84V13.5a4.5 4.5 0 0 1 1.318-3.182M5 25.185V37h24V25.185l-11.848 3.791-.152.049-.152-.049zM8.46 31a.46.46 0 0 0-.46.46v.08c0 .254.206.46.46.46h3.08a.46.46 0 0 0 .46-.46v-.08a.46.46 0 0 0-.46-.46zM7 31.46c0-.806.654-1.46 1.46-1.46h3.08c.806 0 1.46.654 1.46 1.46v.08A1.46 1.46 0 0 1 11.54 33H8.46A1.46 1.46 0 0 1 7 31.54zm15 0a.46.46 0 0 1 .46-.46h3.08a.46.46 0 0 1 .46.46v.08a.46.46 0 0 1-.46.46h-3.08a.46.46 0 0 1-.46-.46zm.46-1.46A1.46 1.46 0 0 0 21 31.46v.08c0 .806.654 1.46 1.46 1.46h3.08A1.46 1.46 0 0 0 27 31.54v-.08A1.46 1.46 0 0 0 25.54 30zM8 14.5a.5.5 0 0 1 .5-.5h17a.5.5 0 0 1 .5.5v8a.5.5 0 0 1-.5.5h-17a.5.5 0 0 1-.5-.5zm.5-1.5A1.5 1.5 0 0 0 7 14.5v8A1.5 1.5 0 0 0 8.5 24h17a1.5 1.5 0 0 0 1.5-1.5v-8a1.5 1.5 0 0 0-1.5-1.5zM7 36v-1h2v1zm20 0v-1h-2v1zm-6-24h-7v-1h7zm19 4a1 1 0 1 1 2 0 1 1 0 0 1-2 0m1-2a2 2 0 1 0 0 4 2 2 0 0 0 0-4" clip-rule="evenodd"/></svg>