<svg class="color-immutable" xmlns="http://www.w3.org/2000/svg" width="59" height="20" fill="none" viewBox="0 0 59 20"><g clip-path="url(#a)"><path stroke="#000" d="M2 .5h55A1.5 1.5 0 0 1 58.5 2v16a1.5 1.5 0 0 1-1.5 1.5H2A1.5 1.5 0 0 1 .5 18V2A1.5 1.5 0 0 1 2 .5Z"/><path fill="#000" d="M12.877 7.713h-2.449q-.072-.862-.644-1.314-.564-.459-1.587-.459-.91 0-1.418.363-.5.355-.5.999 0 .58.483.838.468.258 2.37.725 2.005.499 2.779 1.007 1.425.934 1.426 2.602 0 1.829-1.434 2.884-1.266.927-3.424.927-2.401 0-3.73-1.096-1.33-1.095-1.378-3.118h2.562q.056.984.507 1.459.71.756 2.135.757.967 0 1.531-.379.636-.435.636-1.184 0-.75-.894-1.096-.49-.193-2.32-.7-1.144-.315-1.789-.597-.644-.282-1.031-.628-.903-.806-.902-2.224 0-1.7 1.41-2.69 1.2-.847 3.118-.847 1.683 0 2.82.669 1.635.959 1.723 3.102M23.19 13.828v2.175h-8.33V4.224h2.57v9.604zM32.125 7.165h-2.24q-.314-1.362-1.547-1.362-1.305 0-1.853 1.603-.225.654-.362 1.974.531-.717 1.127-1.03.605-.315 1.45-.315 1.66 0 2.667 1.176.96 1.111.96 2.788 0 1.99-1.29 3.198-1.16 1.088-2.787 1.088-2.088 0-3.247-1.571-1.16-1.58-1.16-4.4 0-3.013 1.24-4.72 1.2-1.652 3.28-1.652 1.957 0 2.996 1.313.597.758.766 1.91m-3.988 2.699q-.846 0-1.346.709-.45.628-.45 1.498 0 .862.458 1.507.5.717 1.37.717.846 0 1.361-.685.484-.644.484-1.523 0-.862-.435-1.474-.532-.75-1.442-.75M40.923 4.224V6.32h-4.746l-.507 2.65q.854-.902 2.183-.902 1.305 0 2.272.701 1.434 1.055 1.434 3.207 0 2.11-1.53 3.343-1.193.967-2.853.967-1.87 0-3.005-1-1.136-1.005-1.2-2.714h2.312q.057.62.403 1.055.54.685 1.498.685.927 0 1.467-.669.523-.653.523-1.587 0-1.015-.547-1.62-.549-.611-1.459-.612-1.111 0-1.732 1l-2.103-.033 1.12-6.566z"/></g><defs><clipPath id="a"><path fill="#fff" d="M0 0h59v20H0z"/></clipPath></defs></svg>