<svg class="color-immutable" xmlns="http://www.w3.org/2000/svg" width="59" height="20" fill="none" viewBox="0 0 59 20"><path fill="#EB0000" fill-rule="evenodd" d="M2 0a2 2 0 0 0-2 2v16a2 2 0 0 0 2 2h55a2 2 0 0 0 2-2V2a2 2 0 0 0-2-2z" clip-rule="evenodd"/><path fill="#fff" d="M23.756 15.933 25.949 5.92l-3.52.051.409-1.904h9.214l-.425 1.904-3.23-.05-2.16 10.012zM16.257 16.137c-1.224 0-2.38-.187-3.74-.663l.612-1.972c1.003.493 2.04.782 2.907.782 1.292 0 2.312-.527 2.312-1.819 0-.833-.408-1.224-1.683-1.904-1.751-.935-2.397-1.717-2.397-3.128 0-2.142 1.75-3.57 4.42-3.57 1.105 0 2.397.221 3.196.561l-.595 1.904c-.816-.425-1.785-.68-2.618-.68-1.122 0-2.04.527-2.04 1.496 0 .63.39 1.054 1.717 1.734 1.513.833 2.465 1.632 2.465 3.4 0 2.312-1.734 3.86-4.556 3.86M4.19 15.933 6.706 4.067h7.038l-.374 1.836H8.627L7.98 8.895h4.318l-.408 1.82H7.624l-.731 3.331h4.828l-.442 1.887z"/></svg>