<?xml version="1.0" encoding="utf-8"?>
<!-- Generator: Adobe Illustrator 24.2.0, SVG Export Plug-In . SVG Version: 6.00 Build 0)  -->
<svg version="1.0" xmlns="http://www.w3.org/2000/svg" xmlns:xlink="http://www.w3.org/1999/xlink" x="0px" y="0px"
	 viewBox="0 0 24 24" enable-background="new 0 0 24 24" xml:space="preserve">
<g id="SVG_x5F_24x24pt">
	<path id="backgroundBlue" fill="#2D327D" d="M-0.001,22.499v-21c0-0.825,0.675-1.5,1.5-1.5h21c0.825,0,1.5,0.675,1.5,1.5v21
		c0,0.825-0.675,1.5-1.5,1.5h-21C0.674,23.999-0.001,23.324-0.001,22.499z"/>
	<g id="content">
		<polyline fill="#FFFFFF" points="20.625,3.374 20.625,4.874 16.875,4.874 16.875,5.249 21,5.249 21,2.999 21,2.999 3,2.999 
			3,5.249 7.124,5.249 7.124,4.874 3.375,4.874 3.375,3.374 20.625,3.374 		"/>
		<path fill="#FFFFFF" d="M13.034,7.686c-0.219,0-0.732,0-0.732,0.377c0,0.371,0.513,0.371,0.732,0.371c0.237,0,0.75,0,0.75-0.371
			C13.784,7.686,13.271,7.686,13.034,7.686z"/>
		<path fill="#FFFFFF" d="M13.034,9.646c-0.219,0-0.732,0-0.732,0.377c0,0.371,0.513,0.371,0.732,0.371c0.237,0,0.75,0,0.75-0.371
			C13.784,9.646,13.271,9.646,13.034,9.646z"/>
		<polygon fill="#FFFFFF" points="10.214,13.535 8.25,13.535 8.25,13.91 10.214,13.91 10.214,13.545 		"/>
		<polygon fill="#FFFFFF" points="15.75,13.91 15.75,4.124 15.375,4.124 15.375,13.535 12.297,13.535 12.297,13.91 		"/>
		<rect x="9" y="14.285" fill="#FFFFFF" width="1.214" height="0.375"/>
		<polygon fill="#FFFFFF" points="16.5,4.124 16.125,4.124 16.125,14.285 12.297,14.285 12.297,14.66 16.5,14.66 		"/>
		<path fill="#FFFFFF" d="M11.068,12.302c0.081-0.031,0.166-0.047,0.254-0.049c0.019-0.001,0.037-0.001,0.055-0.001
			c0.503,0,0.912,0.406,0.919,0.908H15V4.124H7.5v9.036h2.768C10.383,12.771,10.675,12.447,11.068,12.302z M14.093,11.676h-1.362
			v0.573h-0.321c0.006-0.322-0.096-0.618-0.417-0.667v-0.368h2.1V11.676z M13.034,7.224c0.837,0,1.101,0.384,1.101,0.839
			c0,0.449-0.264,0.833-1.101,0.833c-0.819,0-1.083-0.384-1.083-0.833C11.952,7.608,12.216,7.224,13.034,7.224z M13.034,9.184
			c0.837,0,1.101,0.384,1.101,0.839c0,0.449-0.264,0.833-1.101,0.833c-0.819,0-1.083-0.384-1.083-0.833
			C11.952,9.568,12.216,9.184,13.034,9.184z"/>
		<path fill="#FFFFFF" d="M3.173,18.383l2.617,2.616h6.21v-7.826c0-0.346-0.28-0.624-0.622-0.624c-0.015,0-0.029,0-0.045,0.001
			c-0.055,0.001-0.11,0.011-0.16,0.031c-0.397,0.146-0.66,0.523-0.66,0.945v0.018v2.172c0,0.267-0.217,0.485-0.483,0.485H8.767
			c-0.197,0-0.386-0.079-0.525-0.219L4.189,11.93c-0.268-0.271-0.705-0.271-0.974-0.001c-0.269,0.269-0.269,0.706,0,0.975l4.31,4.31
			L7.289,17.45l-3.852-3.852L3.173,13.86C3.062,13.972,3,14.123,3,14.281c0,0.158,0.063,0.31,0.173,0.421l3.447,3.446l-0.237,0.236
			l-2.945-2.945L3.173,15.7C3.062,15.813,3,15.964,3,16.121c0,0.159,0.063,0.31,0.173,0.421l2.525,2.524l-0.236,0.237L3.437,17.28
			l-0.264,0.262C3.062,17.654,3,17.805,3,17.962C3,18.121,3.062,18.272,3.173,18.383L3.173,18.383z"/>
	</g>
</g>
</svg>
