<svg xmlns="http://www.w3.org/2000/svg" width="36" height="36" version="1.1" viewBox="0 0 36 36">
  <path fill="none" fill-rule="evenodd" stroke="#000" stroke-width="1" d="M20.19,15.7422 C20.211,15.7437 20.229,15.7497 20.25,15.7497 C21.9075,15.7497 23.25,14.0712 23.25,11.9997 C23.25,9.9282 21.9075,8.2497 20.25,8.2497 C18.7965,8.2497 17.586,9.5412 17.31,11.2572 M3.75,28.49955 L3.75,23.24955 L9,23.24955 M4.5,23.24955 C6.5925,28.51905 11.9865,32.24955 18,32.24955 C25.8705,32.24955 32.25,25.87005 32.25,17.99955 C32.25,10.13055 25.8705,3.74955 18,3.74955 C10.1295,3.74955 3.75,10.13055 3.75,17.99955 M22.8252,23.24955 L26.2497,23.24955 C26.2497,19.38855 24.3162,16.15605 21.7107,15.25605 M20.25,14.99955 C20.25,17.07105 18.906,18.74955 17.25,18.74955 C15.594,18.74955 14.25,17.07105 14.25,14.99955 C14.25,12.92805 15.594,11.24955 17.25,11.24955 C18.906,11.24955 20.25,12.92805 20.25,14.99955 Z M15.7896,18.2559 C13.1826,19.1559 11.2506,22.3884 11.2506,26.2494 L23.2506,26.2494 C23.2506,22.3884 21.3171,19.1559 18.7101,18.2559"/>
</svg>
