<svg class="color-immutable" xmlns="http://www.w3.org/2000/svg" width="59" height="20" fill="none" viewBox="0 0 59 20"><path fill="#EB0000" fill-rule="evenodd" d="M2 0a2 2 0 0 0-2 2v16a2 2 0 0 0 2 2h55a2 2 0 0 0 2-2V2a2 2 0 0 0-2-2z" clip-rule="evenodd"/><path fill="#fff" d="M44.057 4.235v2.057h-4.644l-.496 2.602a2.8 2.8 0 0 1 2.136-.886 3.68 3.68 0 0 1 2.223.689q1.403 1.035 1.403 3.148 0 2.073-1.498 3.282a4.28 4.28 0 0 1-2.79.95q-1.83 0-2.94-.985-1.112-.985-1.175-2.662h2.262c.026.377.163.738.394 1.036a1.917 1.917 0 0 0 2.901.016c.348-.443.529-.994.513-1.558.029-.58-.163-1.15-.536-1.594a1.82 1.82 0 0 0-1.427-.597 1.9 1.9 0 0 0-1.695.98l-2.058-.031 1.096-6.447zM51.239 4.235V15.8h-2.302V8.23h-2.712V6.553a5.8 5.8 0 0 0 1.375-.174c.353-.1.684-.266.974-.49q.639-.491.86-1.654zM9.22 4.2h4.057L8.259 15.8H4.186zM15.948 4.2h14.395l-1.49 3.445h-10.28l-2.042 4.71h10.285l-1.49 3.445H10.93z"/></svg>