<svg xmlns="http://www.w3.org/2000/svg" width="36" height="36" fill="none" viewBox="0 0 36 36"><path fill="#000" fill-rule="evenodd" d="M18 9.25c-3.354 0-6.334 1.69-8.605 3.559a26.3 26.3 0 0 0-4.554 4.904l-.198.282.193.285c.578.856 2.203 2.957 4.499 4.85 2.289 1.887 5.309 3.62 8.665 3.62 3.354 0 6.334-1.69 8.605-3.558a26.3 26.3 0 0 0 4.554-4.904l.198-.282-.193-.286c-.578-.855-2.203-2.956-4.499-4.85-2.289-1.887-5.308-3.62-8.665-3.62M9.971 22.358a24.7 24.7 0 0 1-4.108-4.354c.723-.987 2.191-2.798 4.167-4.423 2.191-1.803 4.95-3.33 7.97-3.33s5.816 1.566 8.03 3.391a24.7 24.7 0 0 1 4.107 4.355c-.723.986-2.191 2.797-4.167 4.423-2.191 1.802-4.95 3.33-7.97 3.33-3.018 0-5.816-1.567-8.029-3.392m8.03-10.108a5.75 5.75 0 1 0 0 11.5 5.75 5.75 0 0 0 0-11.5M13.25 18a4.75 4.75 0 1 1 9.5 0 4.75 4.75 0 0 1-9.5 0" clip-rule="evenodd"/></svg>