<svg class="color-immutable" xmlns="http://www.w3.org/2000/svg" width="59" height="20" fill="none" viewBox="0 0 59 20"><g clip-path="url(#a)"><path fill="#EB0000" fill-rule="evenodd" d="M2 0a2 2 0 0 0-2 2v16a2 2 0 0 0 2 2h55a2 2 0 0 0 2-2V2a2 2 0 0 0-2-2z" clip-rule="evenodd"/><path fill="#fff" d="M9.22 4.2h4.057L8.259 15.8H4.186zM15.948 4.2h14.395l-1.49 3.445h-10.28l-2.042 4.71h10.285l-1.49 3.445H10.93zM44.472 7.121h-2.2q-.307-1.337-1.518-1.337-1.28 0-1.82 1.574-.221.642-.355 1.938.522-.703 1.107-1.012.593-.309 1.424-.309 1.63 0 2.618 1.155.942 1.092.941 2.737 0 1.955-1.265 3.14-1.14 1.068-2.737 1.068-2.048 0-3.188-1.542-1.14-1.55-1.139-4.319 0-2.958 1.218-4.635 1.18-1.622 3.22-1.622 1.922 0 2.942 1.29.585.743.752 1.874m-3.916 2.65q-.83 0-1.32.696-.444.617-.444 1.471 0 .847.451 1.48.49.704 1.345.704.831 0 1.337-.673.474-.633.474-1.495 0-.847-.427-1.447-.522-.736-1.416-.736M49.574 3.957q1.32 0 2.325.807.997.807 1.448 2.484.34 1.281.34 2.784 0 2.492-.886 4.098-.522.933-1.368 1.44a3.56 3.56 0 0 1-1.875.505q-1.416 0-2.42-.854-1.788-1.518-1.788-5.189 0-2.61.933-4.192a3.77 3.77 0 0 1 1.384-1.393 3.8 3.8 0 0 1 1.907-.49m-.087 1.954q-1.14 0-1.55 1.313-.325 1.044-.325 2.927 0 1.661.332 2.665.427 1.305 1.582 1.306.957 0 1.424-1.013t.467-3.093q0-1.772-.332-2.792-.428-1.313-1.598-1.313"/></g><defs><clipPath id="a"><path fill="#fff" d="M0 0h59v20H0z"/></clipPath></defs></svg>