<?xml version="1.0" encoding="utf-8"?>
<!-- Generator: Adobe Illustrator 24.2.0, SVG Export Plug-In . SVG Version: 6.00 Build 0)  -->
<svg version="1.0" id="Ebene_1" xmlns="http://www.w3.org/2000/svg" xmlns:xlink="http://www.w3.org/1999/xlink" x="0px" y="0px"
	 viewBox="0 0 24 24" enable-background="new 0 0 24 24" xml:space="preserve">
<g id="SVG_x5F_24x24pt">
	<path id="backgroundBlue" fill="#2D327D" d="M0,22.5v-21C0,0.675,0.675,0,1.5,0h21C23.325,0,24,0.675,24,1.5v21
		c0,0.825-0.675,1.5-1.5,1.5h-21C0.675,24,0,23.325,0,22.5z"/>
	<g id="content">
		<path id="Hand_1_" fill="#FFFFFF" d="M3.261,16.182l-0.003,0.001c-0.177,0.419-0.254,0.886-0.257,1.282
			c-0.003,0.395,0,3.535,0,3.535l7.821,0c0.084-0.188,0.316-0.61,0.565-1.144c-0.2,0.089-0.428,0.141-0.674,0.148
			c-0.018,0-0.037,0.001-0.055,0.001c-0.3,0-0.61-0.069-0.896-0.199l-3.509-1.595c-0.504-0.229-0.892-0.627-1.064-1.093
			c-0.133-0.359-0.124-0.734,0.025-1.054l1.587-3.412l0.872-1.876c0.165-0.505,0.021-1.064-0.377-1.427
			C7.24,9.297,7.175,9.255,7.102,9.224C6.757,9.078,6.357,9.241,6.211,9.587L3.261,16.182z"/>
		<g>
			<path fill="#FFFFFF" d="M12.516,20.968c-0.445-0.005-0.801-0.37-0.796-0.814c0.005-0.445,0.37-0.802,0.815-0.796l1.478-0.001
				c0.444-0.005,0.809,0.351,0.815,0.796c0.005,0.444-0.351,0.81-0.796,0.814L12.516,20.968z"/>
		</g>
		<g>
			<path fill="#FFFFFF" d="M13.434,19.002c-0.445-0.005-0.801-0.369-0.796-0.814c0.005-0.445,0.37-0.802,0.815-0.797l1.478,0
				c0.444-0.005,0.809,0.351,0.815,0.796c0.005,0.444-0.351,0.81-0.796,0.814L13.434,19.002z"/>
		</g>
		<path fill="#FFFFFF" d="M21.201,20.14l-4.988-4.988l0.546,0c0.445-0.005,0.801-0.371,0.796-0.815
			c-0.006-0.446-0.371-0.802-0.815-0.796l-1.478,0c-0.187-0.002-0.358,0.06-0.496,0.165l-0.352-0.352l2.141-4.603
			c0.131-0.282,0.115-0.611-0.045-0.928c-0.163-0.321-0.455-0.59-0.823-0.757l-3.51-1.595c-0.241-0.11-0.502-0.168-0.752-0.168
			L11.38,5.303c-0.494,0.014-0.892,0.243-1.065,0.614L9.256,8.195L3.859,2.798L2.799,3.859l5.784,5.784L5.528,16.21
			c-0.111,0.239-0.116,0.512-0.014,0.788c0.14,0.379,0.462,0.706,0.882,0.897l3.509,1.595c0.241,0.109,0.501,0.167,0.752,0.167
			l0.045-0.001c0.495-0.014,0.893-0.243,1.065-0.613l1.973-4.242l0.636,0.636H14.36c-0.445-0.006-0.809,0.352-0.815,0.797
			c-0.004,0.444,0.352,0.808,0.796,0.814h1.515c0.041,0,0.08-0.005,0.119-0.011l4.164,4.164L21.201,20.14z M10.976,6.544
			l4.618,2.076l-1.866,4.047L9.912,8.851L10.976,6.544z M9.198,17.75c-0.119,0.247-0.421,0.349-0.673,0.229
			c-0.252-0.121-0.359-0.418-0.24-0.665c0.12-0.247,0.42-0.349,0.672-0.229C9.21,17.205,9.317,17.502,9.198,17.75z M11.572,17.342
			l-4.618-2.077l2.288-4.962l3.816,3.816L11.572,17.342z"/>
		
			<rect x="11.25" y="-0.263" transform="matrix(0.7071 -0.7071 0.7071 0.7071 -4.9703 11.9998)" fill="#EB0000" width="1.5" height="24.525"/>
	</g>
</g>
</svg>
