<svg width="48" height="48" viewBox="0 0 48 48" fill="none" xmlns="http://www.w3.org/2000/svg"><path fill-rule="evenodd" clip-rule="evenodd" d="M20.5 4h-.29l-.144.252-3.1 5.43C16.375 10.717 17.128 12 18.31 12h.643A88.83 88.83 0 0 0 17.5 23.974l.998.052A87.79 87.79 0 0 1 19.971 12h15.84c1.23 0 2.355-.657 2.963-1.722l1.782-3.118a198.948 198.948 0 0 0-1.304 10.29c-.733 7.337-1.232 16.615-.316 24.55H23v1h16.618l.106-.053 6-3L46 39.81V39.5h-.5.5v-.318a257.085 257.085 0 0 0-.062-4.177 262.3 262.3 0 0 0-.439-10.412c-.25-3.944-.627-8.117-1.192-11.748-.563-3.608-1.322-6.755-2.373-8.593L41.79 4H20.5Zm19.413 37.735 5.086-2.544v-.005a256.631 256.631 0 0 0-.061-4.16c-.063-2.729-.187-6.44-.437-10.37-.25-3.93-.623-8.07-1.182-11.657-.426-2.732-.954-5.102-1.597-6.814a197.808 197.808 0 0 0-1.475 11.365c-.727 7.269-1.215 16.391-.334 24.185ZM20.79 5H40.64l-2.733 4.782A2.407 2.407 0 0 1 35.81 11h-17.5a.55.55 0 0 1-.476-.822L20.79 5ZM4.473 33.834c.05-1.835.768-3.712 2.585-4.466l.383.924c-1.292.536-1.924 1.92-1.969 3.57-.045 1.645.51 3.369 1.365 4.35l-.754.657c-1.055-1.21-1.66-3.197-1.61-5.035Zm5.85-10.792c.12.39.399.871.825 1.33.427.458.887.77 1.268.918.392.152.553.084.589.058.012-.023.025-.045.04-.067.027-.08.044-.241-.046-.534-.12-.39-.4-.871-.826-1.33-.427-.458-.887-.77-1.268-.918-.416-.162-.57-.075-.594-.053-.023.02-.12.17.011.596Zm1.73 3.18c.192.074.403.133.617.154a9.712 9.712 0 0 0-.106.599c-.696-.065-1.38-.25-1.955-.617h-.002c-1.27-.804-2.712-1.098-4.13-.644h-.003c-1.8.592-3.112 2.239-3.828 4.306-.719 2.077-.867 4.646-.294 7.228.567 2.58 1.755 4.73 3.252 6.108 1.497 1.38 3.349 2.016 5.168 1.42.335-.104.638-.252.918-.413l.005-.003c.417-.247.86-.37 1.305-.37.445 0 .888.123 1.305.37l.005.003c.28.162.583.31.918.413 1.82.596 3.67-.04 5.168-1.42 1.497-1.378 2.684-3.528 3.252-6.108.573-2.581.425-5.151-.294-7.228-.716-2.067-2.027-3.714-3.828-4.305l-.156.475.152-.476c-1.417-.454-2.86-.16-4.13.643v.001c-.536.341-1.166.526-1.813.602.01-.065.022-.132.035-.2.04-.213.088-.429.143-.614.033-.11.065-.192.09-.25.03-.042.055-.084.077-.128.348-.446.872-.768 1.347-.982a5.52 5.52 0 0 1 .785-.285l.045-.011.01-.002a108.056 108.056 0 0 1-.223-.975h-.003l-.005.002-.019.004-.063.017a6.49 6.49 0 0 0-.939.339 5.48 5.48 0 0 0-.922.523c-.18-.547-.542-1.135-1.032-1.662-.507-.544-1.088-.956-1.638-1.17-.513-.198-1.175-.283-1.637.148-.462.43-.426 1.097-.263 1.623.173.563.543 1.172 1.05 1.716.506.544 1.087.956 1.637 1.17Zm3.875.98c1.07-.676 2.206-.882 3.288-.536 1.398.46 2.537 1.787 3.193 3.681.653 1.886.8 4.267.263 6.685-.533 2.42-1.635 4.375-2.953 5.589-1.317 1.212-2.804 1.657-4.183 1.204l-.008-.003a3.539 3.539 0 0 1-.716-.324A3.546 3.546 0 0 0 13 42.99c-.634 0-1.25.176-1.812.508a3.54 3.54 0 0 1-.716.325l-.008.002c-1.38.453-2.866.008-4.183-1.204-1.318-1.214-2.42-3.168-2.953-5.588v-.001c-.537-2.418-.39-4.799.263-6.685.656-1.894 1.795-3.222 3.193-3.681 1.082-.346 2.218-.14 3.288.536.903.575 1.962.777 2.917.798h.022c.955-.021 2.014-.223 2.917-.798Z" fill="#000"/></svg>