<svg width="48" height="48" viewBox="0 0 48 48" fill="none" xmlns="http://www.w3.org/2000/svg"><path fill-rule="evenodd" clip-rule="evenodd" d="m21.995 7.528.002-.002a.008.008 0 0 1-.002.002ZM22 7.52a.27.27 0 0 1 .04-.045c.065-.062.187-.14.378-.217.38-.152.94-.258 1.582-.258.642 0 1.201.106 1.582.258.191.077.313.155.378.217a.27.27 0 0 1 .04.045v1.96a.27.27 0 0 1-.04.045c-.065.062-.187.14-.378.217-.38.152-.94.258-1.582.258-.642 0-1.201-.106-1.582-.258a1.232 1.232 0 0 1-.378-.217.27.27 0 0 1-.04-.045V7.52Zm-.005 1.952.002.002-.002-.002Zm4.01 0-.002.002.002-.002Zm0-1.944-.002-.002.002.002ZM22.047 6.33C22.57 6.12 23.262 6 24 6s1.429.12 1.953.33c.261.104.506.241.694.418.088.084.172.184.235.3 1.322.196 2.509.546 3.398.988.479.238.893.514 1.194.825.3.309.526.694.526 1.139v30c0 .564-.344 1.022-.78 1.366-.443.348-1.051.64-1.76.876-1.42.474-3.351.758-5.46.758s-4.04-.285-5.46-.758c-.709-.236-1.317-.528-1.76-.876-.436-.344-.78-.802-.78-1.366V10c0-.448.232-.825.537-1.12.305-.295.722-.548 1.2-.763.869-.392 2.022-.698 3.304-.888.06-.195.18-.357.312-.48.188-.178.433-.315.694-.42Zm7.788 2.601c-.718-.357-1.702-.662-2.835-.852V9.5c0 .32-.165.574-.353.752a2.202 2.202 0 0 1-.694.418c-.524.21-1.215.33-1.953.33s-1.429-.12-1.953-.33a2.202 2.202 0 0 1-.694-.418C21.165 10.074 21 9.82 21 9.5V8.247c-1.142.182-2.13.456-2.852.781-.42.19-.724.386-.916.571-.192.185-.232.32-.232.401 0 .126.076.326.4.58.316.25.806.497 1.456.713C20.15 11.725 21.969 12 24 12s3.85-.275 5.144-.707c.65-.216 1.14-.463 1.457-.713.323-.254.399-.454.399-.58 0-.09-.046-.24-.244-.443-.195-.202-.502-.417-.921-.626ZM31 11.525c-.416.279-.942.518-1.54.717-1.42.473-3.351.758-5.46.758s-4.04-.284-5.46-.758c-.598-.2-1.124-.438-1.54-.717V40c0 .126.076.326.4.58.316.25.806.497 1.456.713C20.15 41.724 21.969 42 24 42s3.85-.276 5.144-.707c.65-.216 1.14-.463 1.457-.713.323-.254.399-.454.399-.58V11.525Zm-13.203 3.432C19.254 15.606 21.51 16 24 16c2.49 0 4.746-.394 6.203-1.043l-.406-.914C28.514 14.614 26.41 15 24 15c-2.41 0-4.514-.386-5.797-.957l-.406.914ZM24 19c-2.49 0-4.746-.394-6.203-1.043l.406-.914C19.486 17.614 21.59 18 24 18c2.41 0 4.514-.386 5.797-.957l.406.914C28.746 18.606 26.49 19 24 19Zm-6.203 1.957C19.254 21.606 21.51 22 24 22c2.49 0 4.746-.394 6.203-1.043l-.406-.914C28.514 20.614 26.41 21 24 21c-2.41 0-4.514-.386-5.797-.957l-.406.914ZM24 25c-2.49 0-4.746-.394-6.203-1.043l.406-.914C19.486 23.614 21.59 24 24 24c2.41 0 4.514-.386 5.797-.957l.406.914C28.746 24.606 26.49 25 24 25Zm-6.203 1.957C19.254 27.606 21.51 28 24 28c2.49 0 4.746-.394 6.203-1.043l-.406-.914C28.514 26.614 26.41 27 24 27c-2.41 0-4.514-.386-5.797-.957l-.406.914ZM24 31c-2.49 0-4.746-.394-6.203-1.043l.406-.914C19.486 29.614 21.59 30 24 30c2.41 0 4.514-.386 5.797-.957l.406.914C28.746 30.606 26.49 31 24 31Zm-6.203 1.957C19.254 33.606 21.51 34 24 34c2.49 0 4.746-.394 6.203-1.043l-.406-.914C28.514 32.614 26.41 33 24 33c-2.41 0-4.514-.386-5.797-.957l-.406.914ZM24 37c-2.49 0-4.746-.394-6.203-1.043l.406-.914C19.486 35.614 21.59 36 24 36c2.41 0 4.514-.386 5.797-.957l.406.914C28.746 36.606 26.49 37 24 37Zm-6.203 1.957C19.254 39.606 21.51 40 24 40c2.49 0 4.746-.394 6.203-1.043l-.406-.914C28.514 38.614 26.41 39 24 39c-2.41 0-4.514-.386-5.797-.957l-.406.914Z" fill="#000"/></svg>