<svg width="36" height="36" viewBox="0 0 36 36" fill="none" xmlns="http://www.w3.org/2000/svg"><path fill-rule="evenodd" clip-rule="evenodd" d="M3.25 7.75h29.5v23.5H3.25V7.75Zm1 1v6.5h27.5v-6.5H4.25Zm0 21.5v-14h27.5v14H4.25Zm12-18.25a.25.25 0 1 1 .5 0 .25.25 0 0 1-.5 0Zm.25-1.25a1.25 1.25 0 1 0 0 2.5 1.25 1.25 0 0 0 0-2.5Zm-4.5 1a.25.25 0 1 0 0 .5.25.25 0 0 0 0-.5Zm-1.25.25a1.25 1.25 0 1 1 2.5 0 1.25 1.25 0 0 1-2.5 0Zm-3.5 0a.25.25 0 1 1 .5 0 .25.25 0 0 1-.5 0Zm.25-1.25a1.25 1.25 0 1 0 0 2.5 1.25 1.25 0 0 0 0-2.5Z" fill="#000"/></svg>