<svg width="24" height="24" viewBox="0 0 24 24" fill="none" xmlns="http://www.w3.org/2000/svg"><path fill-rule="evenodd" clip-rule="evenodd" d="M16 2v2h1V2h-1Zm-.01 5.717a3.216 3.216 0 0 0-1.066-1.18A2.51 2.51 0 0 1 16.5 6C17.915 6 19 7.085 19 8.5c0 1.02-.562 1.862-1.397 2.257a2.066 2.066 0 0 0-1.29-.9c.125-.805-.005-1.532-.323-2.14ZM18 12.402a2.826 2.826 0 0 0-.034-.711C19.182 11.146 20 9.936 20 8.5 20 6.533 18.467 5 16.5 5c-1.016 0-1.923.41-2.56 1.086-1.31-.361-2.844.06-3.731 1.504-1.516-.719-3.431.326-3.523 2.177-.481.128-.87.43-1.144.814-.36.504-.534 1.154-.507 1.791.028.64.262 1.303.764 1.809.508.511 1.247.82 2.201.82h7c.927 0 1.66-.312 2.175-.813A2.794 2.794 0 0 0 18 12.402Zm-4.145-5.294c-1.048-.38-2.362-.046-2.997 1.394l-.266.602-.508-.417c-.968-.792-2.567-.048-2.387 1.454l.067.56H7.2c-.348 0-.634.168-.845.462-.216.303-.34.728-.32 1.166.018.434.175.846.474 1.147C6.8 13.771 7.27 14 8 14h7c.692 0 1.167-.226 1.478-.528.316-.308.492-.725.525-1.148.033-.427-.08-.826-.296-1.101-.205-.262-.522-.442-.987-.423l-.698.028.2-.67c.24-.812.145-1.476-.118-1.977a2.276 2.276 0 0 0-1.25-1.073Zm-.931-1.484-1.441-1.386.693-.72 1.44 1.386-.692.72Zm6.515 6.593 1.415 1.414.707-.707-1.414-1.414-.707.707ZM21 8h2v1h-2V8Zm-.258-4.465L19.328 4.95l.707.707 1.414-1.414-.707-.707ZM5.052 17.776l1-2 .895.448-1 2-.894-.448Zm5-2-1 2 .895.448 1-2-.894-.448Zm-4 4 2-4 .895.448-2 4-.894-.448ZM13 16a1 1 0 1 0 0 2 1 1 0 0 0 0-2Zm3 1a1 1 0 1 1 2 0 1 1 0 0 1-2 0Zm-1 2a1 1 0 1 0 0 2 1 1 0 0 0 0-2Z" fill="#000"/></svg>