<svg width="24" height="24" viewBox="0 0 24 24" fill="none" xmlns="http://www.w3.org/2000/svg"><path fill-rule="evenodd" clip-rule="evenodd" d="m17.953 2.988-.525 1.038c-.614 1.217-.335 2.739.584 3.77.894 1.002 2.404 1.543 4.293.744l1.172-.495-.52 1.16c-.563 1.255-1.65 2.056-2.732 2.488-.764.305-1.573.446-2.256.412a2.863 2.863 0 0 1-.839 2.081c-.507.5-1.226.814-2.13.814h-.44l.387.776L14.5 16l-.447-.224.388-.776h-3.882l.388.776L10.5 16l-.447-.224.388-.776H8c-.955 0-1.694-.308-2.202-.82-.502-.505-.736-1.167-.764-1.808-.028-.637.147-1.287.507-1.79a2.066 2.066 0 0 1 1.144-.815c.092-1.851 2.006-2.896 3.522-2.177.936-1.522 2.59-1.908 3.945-1.437.284-.783.617-1.37 1.016-1.812.495-.547 1.06-.837 1.67-1.02l1.114-.333ZM10.5 16l.447-.223.002.004.005.01.018.036a9.262 9.262 0 0 1 .242.55c.066.165.135.354.189.54.05.179.097.388.097.583a1 1 0 0 1-2 0c0-.195.046-.404.097-.583.054-.186.123-.375.189-.54a8.968 8.968 0 0 1 .242-.55l.018-.036.005-.01.001-.003v-.001L10.5 16Zm4 0 .447-.223.002.004.005.01.018.036a9.262 9.262 0 0 1 .242.55c.066.165.135.354.189.54.05.179.097.388.097.583a1 1 0 0 1-2 0c0-.195.046-.404.097-.583.054-.186.123-.375.189-.54a8.92 8.92 0 0 1 .242-.55l.018-.036.005-.01.001-.003v-.001L14.5 16Zm5.354-5.236c-.8.32-1.585.397-2.098.316a2.261 2.261 0 0 0-.273-.468 2.02 2.02 0 0 0-1.17-.755c.124-.805-.005-1.532-.323-2.14a3.204 3.204 0 0 0-.943-1.094c.266-.771.557-1.272.864-1.611.077-.085.156-.161.238-.23-.205 1.318.235 2.69 1.117 3.68.929 1.041 2.343 1.658 4.011 1.407-.41.391-.905.688-1.423.896Zm-6-3.656c-1.048-.38-2.361-.046-2.996 1.394l-.266.602-.509-.417c-.967-.792-2.566-.048-2.386 1.454l.066.56H7.2c-.348 0-.634.168-.845.462-.217.303-.34.728-.32 1.166.018.434.175.846.473 1.147.293.295.763.524 1.492.524h7c.659 0 1.12-.223 1.428-.526.315-.31.495-.73.534-1.157.039-.43-.068-.827-.275-1.1-.196-.257-.503-.436-.967-.417l-.698.028.199-.67c.241-.812.145-1.476-.117-1.977a2.276 2.276 0 0 0-1.25-1.073ZM6.5 16l-.447-.223-.002.004-.005.01-.018.036a8.336 8.336 0 0 0-.242.55 5.737 5.737 0 0 0-.189.54 2.205 2.205 0 0 0-.097.583 1 1 0 0 0 2 0c0-.195-.046-.404-.097-.583a5.737 5.737 0 0 0-.189-.54 8.979 8.979 0 0 0-.242-.55l-.018-.036-.005-.01-.001-.003v-.001L6.5 16Zm-.447-.224L6.5 16l.447-.224-.447-.894-.447.894Zm6 2L12.5 18l.447-.224v.002l.002.003.005.01.018.036a9.262 9.262 0 0 1 .242.55c.066.165.135.354.189.54.05.179.097.388.097.583a1 1 0 0 1-2 0c0-.195.046-.404.097-.583.054-.186.123-.375.189-.54a8.92 8.92 0 0 1 .242-.55l.018-.036.005-.01.001-.003v-.001ZM12.5 18l-.447-.224.447-.894.447.894L12.5 18Zm-4.447-.224L8.5 18l-.447-.224v.002l-.002.003-.005.01-.018.036a8.336 8.336 0 0 0-.242.55 5.74 5.74 0 0 0-.189.54 2.205 2.205 0 0 0-.097.583 1 1 0 0 0 2 0c0-.195-.046-.404-.097-.583a5.737 5.737 0 0 0-.189-.54 8.979 8.979 0 0 0-.242-.55l-.018-.036-.005-.01-.001-.003v-.001L8.5 18l.447-.224-.447-.894-.447.894Z" fill="#000"/></svg>