<svg width="36" height="36" viewBox="0 0 36 36" fill="none" xmlns="http://www.w3.org/2000/svg"><path fill-rule="evenodd" clip-rule="evenodd" d="m26.444 4.888-.525 1.038c-.974 1.928-.526 4.32.912 5.934 1.413 1.584 3.793 2.419 6.725 1.18l1.17-.495-.52 1.16c-.81 1.807-2.38 2.97-3.962 3.602-1.23.492-2.525.685-3.553.58a4.09 4.09 0 0 1-.004.702 4.045 4.045 0 0 1-1.167 2.512c-.71.7-1.725 1.15-3.02 1.15H12c-1.375 0-2.417-.443-3.125-1.156-.701-.707-1.033-1.639-1.073-2.548-.039-.906.21-1.825.714-2.53.416-.582 1.014-1.024 1.758-1.167.007-2.803 2.942-4.36 5.134-3.134 1.329-2.368 3.803-2.954 5.8-2.23.058.021.116.044.173.067.436-1.275.948-2.199 1.559-2.874.704-.779 1.509-1.194 2.39-1.458l1.114-.333Zm3.43 11.49c-1.299.52-2.592.633-3.42.463a3.177 3.177 0 0 0-.429-.772 2.794 2.794 0 0 0-1.845-1.085c.246-1.254.065-2.374-.417-3.293a4.571 4.571 0 0 0-1.488-1.66c.42-1.278.893-2.113 1.406-2.681.283-.313.586-.553.916-.744-.548 2.073.075 4.334 1.488 5.919 1.47 1.648 3.787 2.567 6.53 1.883-.72.907-1.707 1.557-2.742 1.97Zm-9.007-5.951c-1.686-.612-3.8-.065-4.81 2.225l-.265.602-.509-.417c-1.627-1.333-4.282-.069-3.986 2.404l.066.56H10.8c-.616 0-1.116.302-1.47.798-.362.505-.56 1.198-.529 1.904.031.704.286 1.385.784 1.887.493.496 1.265.86 2.415.86h10.5c1.05 0 1.806-.357 2.318-.861.518-.511.81-1.199.873-1.89.064-.696-.107-1.358-.462-1.825-.343-.452-.882-.755-1.659-.724l-.698.028.199-.67c.379-1.275.233-2.339-.194-3.153a3.664 3.664 0 0 0-2.01-1.728ZM9.75 24a173.42 173.42 0 0 0-.447-.224l-.001.002-.002.004-.007.014-.026.052a12.16 12.16 0 0 0-.356.81 8.339 8.339 0 0 0-.275.787c-.074.26-.136.547-.136.805a1.25 1.25 0 0 0 2.5 0c0-.258-.062-.545-.136-.805a8.353 8.353 0 0 0-.275-.787 13.342 13.342 0 0 0-.357-.81l-.025-.052-.007-.014-.002-.004v-.001L9.75 24Zm-.447-.224L9.75 24l.447-.224-.447-.894-.447.894Zm.295 1.943c.042-.148.095-.304.152-.458.057.154.11.31.152.458.066.232.098.413.098.53a.25.25 0 0 1-.5 0c0-.117.032-.298.098-.53Zm5.705-1.943.447.224.447-.224.001.002.002.004.007.014.026.052a12.188 12.188 0 0 1 .356.81c.098.243.198.518.275.787.074.26.136.547.136.805a1.25 1.25 0 0 1-2.5 0c0-.258.062-.545.136-.805.077-.269.177-.544.275-.787a13.342 13.342 0 0 1 .357-.81l.025-.052.007-.014.002-.004v-.001Zm.447.224-.447-.224.447-.894.447.894-.447.224Zm0 1.26a6.43 6.43 0 0 0-.152.46 2.133 2.133 0 0 0-.098.53.25.25 0 0 0 .5 0c0-.118-.032-.3-.098-.53a6.429 6.429 0 0 0-.152-.46Zm6-1.26-.447-.224-.001.002-.002.004-.007.014-.026.052a12.188 12.188 0 0 0-.356.81 8.353 8.353 0 0 0-.275.787c-.074.26-.136.547-.136.805a1.25 1.25 0 0 0 2.5 0c0-.258-.062-.545-.136-.805a8.353 8.353 0 0 0-.275-.787 13.342 13.342 0 0 0-.356-.81l-.026-.052-.007-.014-.002-.004v-.001L21.75 24Zm-.447-.224.447.224.447-.224-.447-.894-.447.894Zm.295 1.943a6.43 6.43 0 0 1 .152-.458c.057.154.11.31.152.458.066.232.098.413.098.53a.25.25 0 0 1-.5 0c0-.117.032-.298.098-.53Zm-3.295 1.057.447.224.447-.224.001.002.002.004.007.014.026.052a12.188 12.188 0 0 1 .356.81c.098.243.198.518.275.787.074.26.136.547.136.805a1.25 1.25 0 0 1-2.5 0c0-.258.062-.545.136-.805.077-.269.177-.544.275-.787a13.342 13.342 0 0 1 .356-.81l.026-.052.007-.014.002-.004v-.001Zm.447.224-.447-.224.447-.894.447.894-.447.224Zm0 1.26a6.43 6.43 0 0 0-.152.46 2.133 2.133 0 0 0-.098.53.25.25 0 0 0 .5 0c0-.118-.032-.3-.098-.53a6.429 6.429 0 0 0-.152-.46Zm-6.447-1.484.447.224-.447-.224-.001.002-.002.004-.007.014-.025.052a12.188 12.188 0 0 0-.357.81 8.353 8.353 0 0 0-.275.787c-.074.26-.136.547-.136.805a1.25 1.25 0 0 0 2.5 0c0-.258-.062-.545-.136-.805a8.353 8.353 0 0 0-.275-.787 13.342 13.342 0 0 0-.357-.81l-.025-.052-.007-.014-.002-.004v-.001L12.75 27l.447-.224-.447-.894-.447.894Zm.295 1.943a6.43 6.43 0 0 1 .152-.458c.057.154.11.31.152.458.066.232.098.413.098.53a.25.25 0 0 1-.5 0c0-.117.032-.298.098-.53Z" fill="#000"/></svg>