<svg class="color-immutable" width="59" height="20" viewBox="0 0 59 20" fill="none" xmlns="http://www.w3.org/2000/svg"><path fill-rule="evenodd" clip-rule="evenodd" d="M2 0a2 2 0 0 0-2 2v16a2 2 0 0 0 2 2h55a2 2 0 0 0 2-2V2a2 2 0 0 0-2-2H2Z" fill="#EB0000"/><path fill-rule="evenodd" clip-rule="evenodd" d="M14.415 11.156a.267.267 0 0 1 .225-.15c.1 0 .15.094.15.282v.037l-.9 4.55c-.05.137-.13.206-.243.206a.165.165 0 0 1-.188-.188l-.018-.188c-.038-.338-.2-.507-.488-.507h-.112l-.094.019-.112.037-.45.188a6.998 6.998 0 0 1-2.828.564c-1.55 0-2.798-.463-3.747-1.39-.95-.928-1.424-2.15-1.424-3.666a6.662 6.662 0 0 1 2.042-4.87 6.617 6.617 0 0 1 4.852-2.048 6.249 6.249 0 0 1 2.735.64l.73.337c.11.042.223.067.338.076.25 0 .462-.163.637-.49l.188-.375.074-.075.132-.038a.168.168 0 0 1 .168.15l.019.038v.075l-1.05 4.512-.037.244-.093.15a.428.428 0 0 1-.169.076l-.094-.038-.056-.075v-.658a4.599 4.599 0 0 0-.937-2.914c-.624-.802-1.392-1.203-2.304-1.203-1.236 0-2.31.733-3.222 2.2-.912 1.466-1.368 3.189-1.368 5.17 0 2.505.874 3.759 2.623 3.759 1.236 0 2.198-.395 2.885-1.185a15.87 15.87 0 0 0 1.63-2.18l.169-.338.243-.546.038-.056.018-.056.038-.076Zm3.597 1.297c-.101.432-.157.873-.169 1.316-.01.39.098.773.31 1.1a.9.9 0 0 0 .758.46l.206.02h.056c.125.037.188.106.188.206a.619.619 0 0 1-.094.188l-.131.056H15.07a.165.165 0 0 1-.187-.188l.019-.094a.439.439 0 0 1 .262-.132l.169-.037a2.39 2.39 0 0 0 1.405-.874c.362-.457.63-1.112.805-1.964l1.405-6.843-.224-.338a1.417 1.417 0 0 0-1.068-.677h-.075c-.225 0-.337-.075-.337-.225 0-.15.137-.226.412-.226h3.297l4.403 8.027 1.086-5.076.056-.282c.028-.13.047-.262.057-.394.012-.15.018-.289.018-.414 0-.777-.343-1.24-1.03-1.39l-.225-.039-.112-.056-.056-.15c0-.15.068-.226.206-.226h3.915a.16.16 0 0 1 .169.094l.018.094a.226.226 0 0 1-.206.244l-.168.038c-.37.018-.72.164-.993.414-.33.267-.594.608-.768.996l-.15.357-.131.395L25 16.025l-.019.019v.037a.312.312 0 0 1-.206.113.197.197 0 0 1-.169-.075 6.933 6.933 0 0 1-.3-.526l-4.983-9.287-1.311 6.147Zm9.61 3.159c0 .125.088.187.263.187h8.917l1.537-4.135.075-.245c0-.112-.063-.169-.188-.169l-.168.075-.113.207-.056.132a6.778 6.778 0 0 1-2.183 2.585c-.992.733-1.926 1.1-2.8 1.1-.637 0-.956-.264-.956-.79.01-.186.028-.371.056-.555.038-.282.075-.504.113-.667l1.61-7.557c.15-.74.482-1.109.994-1.109h.187l.225-.019c.225 0 .337-.075.337-.225v-.038c0-.125-.05-.188-.15-.188H30.49c-.287 0-.431.075-.431.226 0 .125.119.213.356.263h.056c.475.113.712.382.712.808 0 .05-.01.154-.028.31-.019.157-.053.392-.103.705l-1.555 7.425c-.187.815-.612 1.266-1.274 1.354l-.356.056a.247.247 0 0 0-.244.263Z" fill="#fff"/></svg>