<svg width="36" height="36" viewBox="0 0 36 36" fill="none" xmlns="http://www.w3.org/2000/svg"><path fill-rule="evenodd" clip-rule="evenodd" d="M5.97 8.285c-1.151.64-1.72 1.444-1.72 2.215 0 .771.569 1.575 1.72 2.215 1.134.63 2.735 1.035 4.53 1.035 1.795 0 3.396-.405 4.53-1.035 1.151-.64 1.72-1.444 1.72-2.215 0-.771-.569-1.575-1.72-2.215-1.134-.63-2.735-1.035-4.53-1.035-1.795 0-3.396.405-4.53 1.035ZM17.75 10.5c0-1.3-.942-2.371-2.234-3.089-1.31-.727-3.083-1.161-5.016-1.161-1.933 0-3.707.434-5.016 1.161C4.192 8.13 3.25 9.201 3.25 10.5v18c0 1.3.942 2.371 2.234 3.089 1.31.727 3.083 1.161 5.016 1.161 1.746 0 3.416-.148 4.724-.803l-.448-.894c-1.084.542-2.549.697-4.276.697-1.795 0-3.396-.405-4.53-1.035-1.151-.64-1.72-1.444-1.72-2.215v-2.32c.347.345.768.65 1.234.909 1.31.727 3.083 1.161 5.016 1.161 1.746 0 3.416-.148 4.724-.803l-.448-.894c-1.084.542-2.549.697-4.276.697-1.795 0-3.396-.405-4.53-1.035-1.151-.64-1.72-1.444-1.72-2.215v-2.32c.347.345.768.65 1.234.909 1.31.727 3.083 1.161 5.016 1.161 1.746 0 3.416-.148 4.724-.803l-.448-.894c-1.084.542-2.549.697-4.276.697-1.795 0-3.396-.405-4.53-1.035-1.151-.64-1.72-1.444-1.72-2.215v-2.32c.347.345.768.65 1.234.909 1.31.727 3.083 1.161 5.016 1.161 1.746 0 3.416-.148 4.724-.803l-.448-.894c-1.084.542-2.549.697-4.276.697-1.795 0-3.396-.405-4.53-1.035-1.151-.64-1.72-1.444-1.72-2.215v-2.32c.347.345.768.65 1.234.909 1.31.727 3.083 1.161 5.016 1.161 1.933 0 3.707-.434 5.016-1.161a5.622 5.622 0 0 0 1.234-.91V15h1v-4.5Zm1.72 6.785c-1.151.64-1.72 1.444-1.72 2.215 0 .771.569 1.575 1.72 2.215 1.134.63 2.735 1.035 4.53 1.035 1.795 0 3.396-.405 4.53-1.035 1.151-.64 1.72-1.444 1.72-2.215 0-.771-.569-1.575-1.72-2.215-1.134-.63-2.735-1.035-4.53-1.035-1.795 0-3.396.405-4.53 1.035Zm9.546 5.304a5.622 5.622 0 0 0 1.234-.91V24c0 .771-.569 1.575-1.72 2.215-1.134.63-2.735 1.035-4.53 1.035-1.795 0-3.396-.405-4.53-1.035-1.151-.64-1.72-1.444-1.72-2.215v-2.32c.347.345.768.65 1.234.909 1.31.727 3.083 1.161 5.016 1.161 1.933 0 3.707-.434 5.016-1.161ZM31.25 19.5v9c0 1.3-.942 2.371-2.234 3.089-1.31.727-3.083 1.161-5.016 1.161-1.933 0-3.707-.434-5.016-1.161-1.292-.718-2.234-1.79-2.234-3.089v-9c0-1.3.942-2.371 2.234-3.089 1.31-.727 3.083-1.161 5.016-1.161 1.933 0 3.707.434 5.016 1.161 1.292.718 2.234 1.79 2.234 3.089Zm-2.234 7.589a5.622 5.622 0 0 0 1.234-.91V28.5c0 .771-.569 1.575-1.72 2.215-1.134.63-2.735 1.035-4.53 1.035-1.795 0-3.396-.405-4.53-1.035-1.151-.64-1.72-1.444-1.72-2.215v-2.32c.347.345.768.65 1.234.909 1.31.727 3.083 1.161 5.016 1.161 1.933 0 3.707-.434 5.016-1.161Z" fill="#000"/></svg>