<svg width="36" height="36" viewBox="0 0 36 36" fill="none" xmlns="http://www.w3.org/2000/svg"><path fill-rule="evenodd" clip-rule="evenodd" d="M9.606 8.168c-.581.494-.856 1.02-.856 1.582s.275 1.088.856 1.583c.587.5 1.457.94 2.55 1.299 2.183.717 5.125 1.077 8.093 1.069 2.967-.008 5.91-.384 8.094-1.106 1.094-.362 1.965-.8 2.553-1.296.583-.491.854-1.007.854-1.549s-.271-1.057-.854-1.548c-.588-.497-1.46-.935-2.553-1.296-2.184-.722-5.127-1.098-8.094-1.106-2.968-.008-5.91.351-8.093 1.069-1.093.36-1.963.798-2.55 1.299Zm-.649-.762C8.225 8.03 7.75 8.812 7.75 9.75v2.04c-1.208.361-2.264.83-3.049 1.42-.868.654-1.451 1.5-1.451 2.54v4.5c0 .937.475 1.721 1.206 2.348.724.62 1.729 1.115 2.886 1.5.134.045.27.088.408.13v2.021c0 .938.475 1.722 1.206 2.349.724.62 1.729 1.115 2.886 1.5 2.317.773 5.375 1.152 8.408 1.152 3.033 0 6.09-.379 8.408-1.151 1.157-.386 2.162-.88 2.886-1.501.731-.627 1.206-1.41 1.206-2.348v-4.5c0-1.027-.588-1.861-1.454-2.507-.647-.482-1.479-.885-2.428-1.215 1.069-.375 1.996-.846 2.676-1.43.731-.626 1.206-1.41 1.206-2.348v-4.5c0-.925-.479-1.697-1.209-2.313-.724-.61-1.728-1.099-2.884-1.48C26.34 5.19 23.284 4.807 20.25 4.8c-3.032-.009-6.09.357-8.407 1.119-1.157.38-2.162.87-2.887 1.487Zm20.818 17.712c.765-.336 1.454-.747 1.975-1.242v2.373c0 .563-.275 1.091-.857 1.59-.588.504-1.458.947-2.551 1.311l-.092.03v-3.508a13.432 13.432 0 0 0 1.525-.554Zm-2.525.824a27.342 27.342 0 0 1-3.94.621c-.838.074-1.697.119-2.56.133v3.55c2.326-.033 4.611-.294 6.5-.777v-3.527Zm-11.405.496c1.252.16 2.575.246 3.905.26v3.548c-2.326-.033-4.611-.294-6.5-.777V25.975a24.88 24.88 0 0 0 2.595.463Zm-3.595-.73c-.886-.264-1.683-.585-2.35-.963a22.269 22.269 0 0 1-1.15-.246v1.75c0 .563.275 1.091.857 1.59.588.504 1.458.947 2.551 1.311l.092.03V25.709Zm3.72-.262c-.48-.061-.947-.133-1.398-.216.392.013.785.02 1.178.02 3.033 0 6.09-.379 8.408-1.151 1.157-.386 2.162-.88 2.886-1.501.731-.627 1.206-1.411 1.206-2.349v-1.374c1.013.327 1.847.72 2.448 1.17.72.537 1.052 1.107 1.052 1.705 0 .895-.765 1.745-2.377 2.453-1.571.69-3.758 1.152-6.15 1.364-2.388.212-4.948.172-7.252-.121ZM4.25 15.781v-.03c0-.62.336-1.202 1.053-1.742.6-.452 1.434-.846 2.447-1.172v1.413c0 .938.475 1.722 1.206 2.349.724.62 1.729 1.115 2.886 1.5 2.317.773 5.375 1.151 8.408 1.151.327 0 .655-.004.982-.013-.428.077-.87.144-1.323.202-2.3.294-4.846.341-7.215.137-2.376-.204-4.54-.658-6.094-1.346-1.571-.696-2.333-1.54-2.35-2.449Zm0 2.126v2.342c0 .563.275 1.091.857 1.59.588.504 1.458.947 2.551 1.311l.092.03V19.71a13.1 13.1 0 0 1-1.555-.565c-.754-.334-1.43-.743-1.945-1.237Zm11 6.339c-2.326-.033-4.611-.294-6.5-.777v-3.493c1.19.282 2.501.48 3.858.596.865.075 1.751.117 2.642.126v3.548Zm1-3.55v3.55c2.326-.033 4.611-.294 6.5-.777v-3.527a25.47 25.47 0 0 1-2.714.489 34.5 34.5 0 0 1-3.786.265Zm7.538 2.472-.038.012v-3.508c.843-.253 1.604-.556 2.25-.908.429-.078.847-.166 1.25-.264v1.75c0 .562-.275 1.09-.857 1.588-.588.505-1.458.948-2.551 1.312l-.054.018Zm7.962-8.918v-2.374a4.599 4.599 0 0 1-.209.187c-.724.611-1.728 1.1-2.884 1.481-.133.044-.269.087-.407.129v3.508l.032-.01.06-.02c1.093-.364 1.963-.808 2.551-1.312.582-.498.857-1.026.857-1.589Zm-4.5 3.22c-1.889.482-4.174.744-6.5.777v-3.551c2.286-.037 4.562-.287 6.5-.754v3.528Zm-14 0c1.889.482 4.174.744 6.5.777v-3.548c-2.285-.025-4.561-.263-6.5-.723V17.47Zm-1-.289-.092-.03c-1.093-.364-1.963-.808-2.551-1.312-.582-.498-.857-1.026-.857-1.589v-2.343c.066.064.135.126.207.187.725.618 1.73 1.107 2.887 1.488.133.043.268.086.406.127v3.472Z" fill="#000"/></svg>