<svg class="color-immutable" width="59" height="20" viewBox="0 0 59 20" fill="none" xmlns="http://www.w3.org/2000/svg"><path fill-rule="evenodd" clip-rule="evenodd" d="M2 0a2 2 0 0 0-2 2v16a2 2 0 0 0 2 2h55a2 2 0 0 0 2-2V2a2 2 0 0 0-2-2H2Z" fill="#F27E00"/><path d="M14.153 4.17v2.142H7.98v2.476h5.657v1.991H7.98v2.849h6.284v2.142H5.45V4.17h8.704ZM25.311 4.17l-3.856 11.6h-2.88l-3.8-11.6h2.65l2.61 8.688 2.65-8.688h2.626ZM31.225 4.17v11.6h-2.317V8.177h-2.73V6.495c.566-.016 1.026-.075 1.38-.175.36-.1.689-.265.985-.492.428-.328.717-.88.865-1.658h1.817ZM42.129 4.17v1.967c-.063.07-.251.283-.563.643-.434.497-.865 1.124-1.294 1.88a12.773 12.773 0 0 0-1 2.167c-.502 1.444-.806 3.092-.912 4.943h-2.396c.016-.873.166-1.84.452-2.904.291-1.063.69-2.127 1.198-3.19.725-1.502 1.46-2.62 2.206-3.356h-5.554V4.17h7.863Z" fill="#000"/></svg>