<svg class="color-immutable" width="59" height="20" viewBox="0 0 59 20" fill="none" xmlns="http://www.w3.org/2000/svg"><path fill-rule="evenodd" clip-rule="evenodd" d="M2 0a2 2 0 0 0-2 2v16a2 2 0 0 0 2 2h55a2 2 0 0 0 2-2V2a2 2 0 0 0-2-2H2Z" fill="#F27E00"/><path d="M14.153 4.17v2.142H7.98v2.476h5.657v1.991H7.98v2.849h6.284v2.142H5.45V4.17h8.704ZM25.311 4.17l-3.856 11.6h-2.88l-3.8-11.6h2.65l2.61 8.688 2.65-8.688h2.626ZM33.716 11.16v1.96h-1.46v2.65h-2.261v-2.65h-4.999v-2.174l5.118-6.776h2.142v6.99h1.46Zm-3.674.024V6.868L26.9 11.184h3.143ZM38.289 3.892c.883 0 1.66.27 2.332.81.667.539 1.151 1.37 1.453 2.49.227.858.34 1.789.34 2.794 0 1.666-.296 3.036-.888 4.11-.35.624-.807 1.105-1.373 1.444a3.567 3.567 0 0 1-1.88.508c-.947 0-1.756-.286-2.428-.857-1.196-1.016-1.793-2.75-1.793-5.205 0-1.746.312-3.148.936-4.205a3.782 3.782 0 0 1 1.389-1.397 3.8 3.8 0 0 1 1.912-.492Zm-.088 1.96c-.761 0-1.28.439-1.555 1.317-.217.698-.325 1.677-.325 2.936 0 1.11.111 2.002.333 2.674.286.873.815 1.309 1.587 1.309.64 0 1.116-.338 1.428-1.016.312-.677.469-1.71.469-3.102 0-1.185-.112-2.119-.334-2.8-.285-.879-.82-1.318-1.603-1.318Z" fill="#000"/></svg>