<svg class="color-immutable" width="59" height="20" viewBox="0 0 59 20" fill="none" xmlns="http://www.w3.org/2000/svg"><path fill-rule="evenodd" clip-rule="evenodd" d="M2 0a2 2 0 0 0-2 2v16a2 2 0 0 0 2 2h55a2 2 0 0 0 2-2V2a2 2 0 0 0-2-2H2Z" fill="#F27E00"/><path d="M14.153 4.17v2.142H7.98v2.476h5.657v1.991H7.98v2.849h6.284v2.142H5.449V4.17h8.704ZM25.311 4.17l-3.856 11.6h-2.88l-3.8-11.6h2.65l2.61 8.688 2.65-8.688h2.626ZM33.716 11.16v1.96h-1.46v2.65h-2.261v-2.65h-4.999v-2.174l5.118-6.776h2.142v6.99h1.46Zm-3.674.024V6.867L26.9 11.184h3.142ZM40.026 4.17v11.6H37.71V8.177H34.98V6.495c.566-.016 1.026-.075 1.38-.175.36-.1.688-.265.984-.492.429-.328.717-.88.865-1.658h1.817Z" fill="#000"/></svg>