<svg class="color-immutable" width="59" height="20" viewBox="0 0 59 20" fill="none" xmlns="http://www.w3.org/2000/svg"><path fill-rule="evenodd" clip-rule="evenodd" d="M2 0a2 2 0 0 0-2 2v16a2 2 0 0 0 2 2h55a2 2 0 0 0 2-2V2a2 2 0 0 0-2-2H2Z" fill="#F27E00"/><path d="M14.153 4.17v2.142H7.98v2.476h5.657v1.991H7.98v2.849h6.284v2.142H5.449V4.17h8.704ZM25.311 4.17l-3.856 11.6h-2.88l-3.8-11.6h2.65l2.61 8.688 2.65-8.688h2.626ZM33.034 4.17v2.063H28.36l-.5 2.61c.561-.592 1.278-.888 2.15-.888.858 0 1.603.23 2.238.69.942.693 1.413 1.745 1.413 3.158 0 1.386-.503 2.483-1.508 3.293-.783.634-1.72.952-2.809.952-1.227 0-2.214-.328-2.96-.984-.745-.661-1.14-1.553-1.182-2.674h2.277c.038.407.17.754.397 1.04.355.45.847.674 1.476.674.608 0 1.09-.22 1.444-.659.344-.428.516-.95.516-1.563 0-.666-.18-1.198-.54-1.595-.36-.402-.838-.603-1.436-.603-.73 0-1.298.328-1.706.984l-2.07-.031 1.102-6.467h6.372ZM42.415 13.707v2.063H34.06c0-.63.1-1.23.301-1.801a4.438 4.438 0 0 1 .865-1.476 8.117 8.117 0 0 1 1-.928c.386-.302 1.15-.854 2.293-1.659.555-.386.944-.745 1.166-1.079a2.04 2.04 0 0 0 .333-1.158c0-.508-.15-.918-.452-1.23-.296-.317-.688-.476-1.174-.476-1.196 0-1.812.86-1.849 2.579h-2.23v-.254c0-1.407.395-2.497 1.183-3.27.767-.75 1.758-1.126 2.975-1.126 1.08 0 1.981.307 2.706.92.788.667 1.182 1.564 1.182 2.69 0 .984-.315 1.83-.944 2.54-.206.232-.4.42-.58.563-.18.137-.653.473-1.42 1.007-.73.508-1.253.897-1.57 1.167-.313.27-.604.579-.873.928h5.443Z" fill="#000"/></svg>