<svg class="color-immutable" width="59" height="20" viewBox="0 0 59 20" fill="none" xmlns="http://www.w3.org/2000/svg"><path fill-rule="evenodd" clip-rule="evenodd" d="M2 0a2 2 0 0 0-2 2v16a2 2 0 0 0 2 2h55a2 2 0 0 0 2-2V2a2 2 0 0 0-2-2H2Z" fill="#F27E00"/><path d="M14.153 4.17v2.142H7.98v2.476h5.657v1.991H7.98v2.849h6.284v2.142H5.45V4.17h8.704ZM25.311 4.17l-3.856 11.6h-2.88l-3.8-11.6h2.65l2.61 8.688 2.65-8.688h2.626ZM27.273 9.541c-.54-.185-.954-.489-1.245-.912-.286-.423-.429-.936-.429-1.54 0-1.004.413-1.806 1.238-2.403.73-.53 1.597-.794 2.602-.794 1.143 0 2.077.315 2.801.944.688.593 1.032 1.325 1.032 2.198 0 .609-.146 1.13-.437 1.563-.29.434-.703.749-1.237.944.418.122.759.278 1.023.469.735.534 1.103 1.314 1.103 2.34 0 1.18-.452 2.119-1.357 2.817-.761.587-1.74.88-2.935.88-1.296 0-2.328-.322-3.095-.967-.799-.672-1.198-1.553-1.198-2.642 0-1.021.354-1.812 1.063-2.373.323-.248.68-.423 1.071-.524Zm2.135-3.848c-.508 0-.918.143-1.23.429-.312.28-.468.65-.468 1.11 0 .482.156.868.468 1.159.317.286.74.428 1.27.428.528 0 .946-.142 1.253-.428.307-.286.46-.674.46-1.166 0-.482-.156-.857-.468-1.127-.307-.27-.735-.405-1.285-.405Zm-.016 4.721c-.572 0-1.04.178-1.405.532-.36.349-.54.799-.54 1.349 0 .566.183 1.026.548 1.38.37.355.85.532 1.436.532.667 0 1.167-.196 1.5-.587.323-.376.484-.81.484-1.301 0-.561-.185-1.021-.555-1.381-.355-.35-.844-.524-1.468-.524ZM42.415 13.707v2.063H34.06c0-.63.1-1.23.301-1.801a4.438 4.438 0 0 1 .865-1.476 8.123 8.123 0 0 1 1-.928c.386-.302 1.15-.854 2.293-1.659.555-.386.944-.745 1.166-1.079a2.04 2.04 0 0 0 .333-1.158c0-.508-.15-.918-.452-1.23-.296-.317-.688-.476-1.174-.476-1.196 0-1.812.86-1.849 2.579h-2.23v-.254c0-1.407.395-2.497 1.183-3.27.767-.75 1.759-1.126 2.975-1.126 1.08 0 1.981.307 2.706.92.788.667 1.182 1.564 1.182 2.69 0 .984-.315 1.83-.944 2.54-.206.232-.4.42-.58.563-.18.137-.653.473-1.42 1.007-.73.508-1.253.897-1.57 1.167a6.36 6.36 0 0 0-.873.928h5.443Z" fill="#000"/></svg>