<svg width="48" height="48" viewBox="0 0 48 48" fill="none" xmlns="http://www.w3.org/2000/svg"><path fill-rule="evenodd" clip-rule="evenodd" d="M22 8.5a1.5 1.5 0 1 1 3 0 1.5 1.5 0 0 1-3 0Zm-.897.713a14.396 14.396 0 0 0-5.978 2.469c.238.383.375.834.375 1.318a2.49 2.49 0 0 1-.494 1.493l6.392 6.208c.586-.44 1.313-.701 2.102-.701.788 0 1.516.26 2.101.7l6.393-6.207A2.49 2.49 0 0 1 31.5 13c0-.484.137-.936.376-1.319a14.406 14.406 0 0 0-5.98-2.468 2.501 2.501 0 0 1-4.793 0Zm4.88-1a2.5 2.5 0 0 0-4.967.001 15.396 15.396 0 0 0-6.586 2.735 2.5 2.5 0 0 0-3.481 3.48 15.405 15.405 0 0 0-2.735 6.587 2.5 2.5 0 0 0 0 4.968 15.397 15.397 0 0 0 2.735 6.586 2.5 2.5 0 0 0 3.48 3.482c.807.588 1.67 1.098 2.574 1.52l-.857 2.429H14v1h18.001v-1h-2.127l-.624-2.122a15.494 15.494 0 0 0 3.32-1.828 2.5 2.5 0 0 0 3.481-3.48 15.416 15.416 0 0 0 2.734-6.587 2.5 2.5 0 0 0 0-4.968 15.4 15.4 0 0 0-2.734-6.586 2.5 2.5 0 0 0-3.481-3.48 15.406 15.406 0 0 0-6.586-2.736ZM34 15.5c.484 0 .936-.138 1.319-.376a14.401 14.401 0 0 1 2.467 5.98 2.501 2.501 0 0 0 0 4.793 14.416 14.416 0 0 1-2.467 5.979A2.488 2.488 0 0 0 34 31.5c-.452 0-.876.12-1.241.33l-6.451-6.24A3.484 3.484 0 0 0 27 23.5c0-.784-.258-1.507-.693-2.09l6.435-6.25c.37.216.8.34 1.258.34Zm-22.318-.376a14.407 14.407 0 0 0-2.469 5.98 2.501 2.501 0 0 1 0 4.793 14.396 14.396 0 0 0 2.469 5.978A2.489 2.489 0 0 1 13 31.5c.452 0 .876.12 1.242.33l6.45-6.24A3.485 3.485 0 0 1 20 23.5c0-.784.258-1.507.693-2.09l-6.435-6.25c-.37.216-.8.34-1.258.34-.484 0-.936-.137-1.318-.376ZM25.94 26.627l6.065 5.866c-.317.42-.505.942-.505 1.508 0 .484.137.935.375 1.318a14.488 14.488 0 0 1-2.908 1.597l-3.026-10.29ZM15.123 35.32c.699.5 1.44.936 2.215 1.304l3.428-9.715-5.771 5.584c.317.419.505.94.505 1.507 0 .485-.138.937-.377 1.32ZM26 23.5c0 .579-.197 1.112-.527 1.536l-.493-1.677-.106-.359h-2.728l-.117.334-.57 1.611A2.5 2.5 0 1 1 26 23.5Zm2.832 16.501L24.126 24h-1.272l-5.648 16.001h11.626ZM11.5 34a1.5 1.5 0 1 1 3 0 1.5 1.5 0 0 1-3 0ZM34 32.5a1.5 1.5 0 1 0 0 3 1.5 1.5 0 0 0 0-3Zm-27-9a1.5 1.5 0 1 1 3 0 1.5 1.5 0 0 1-3 0ZM38.5 22a1.5 1.5 0 1 0 0 3 1.5 1.5 0 0 0 0-3Zm-27-9a1.5 1.5 0 1 1 3 0 1.5 1.5 0 0 1-3 0ZM34 11.5a1.5 1.5 0 1 0 0 3 1.5 1.5 0 0 0 0-3Z" fill="#000"/></svg>