<svg width="36" height="36" viewBox="0 0 36 36" fill="none" xmlns="http://www.w3.org/2000/svg"><path fill-rule="evenodd" clip-rule="evenodd" d="M19.829 10.056 15.71 6h3.06l5.23 5.25-5.23 5.25h-3.06l4.118-4.03H14.71v4.03H12.29v-4.03H7.2l4.116 4.03h-3.06L3 11.25 8.256 6h3.06L7.2 10.056h5.09V6h2.42v4.056h5.119ZM12.246 24.2 6.488 20.18a2 2 0 0 0-2.499 3.123l8.88 7.823.141.125H18.908l1.365 1.355.147.145H33l-.846-.852-7.542-7.596-.008-.008c-1.756-1.69-4.041-2.999-6.431-3.044H15c-.881 0-1.582.337-2.058.87a2.85 2.85 0 0 0-.697 2.081ZM5.903 20.99l7.056 4.929c.475.512 1.169.83 2.042.83h3v-1h-3c-.63 0-1.057-.226-1.332-.535-.282-.317-.432-.755-.428-1.21a1.85 1.85 0 0 1 .447-1.218c.28-.312.705-.536 1.313-.536h3.158c2.044.04 4.097 1.172 5.749 2.76l6.692 6.74H20.83l-1.365-1.355-.146-.145h-5.932l-8.746-7.705-.008-.008-.01-.007a1 1 0 0 1 1.253-1.56l.013.01.013.01Z" fill="#000"/></svg>