<svg class="color-immutable" width="59" height="20" viewBox="0 0 59 20" fill="none" xmlns="http://www.w3.org/2000/svg"><g clip-path="url(#a)"><path fill-rule="evenodd" clip-rule="evenodd" d="M2 0a2 2 0 0 0-2 2v16a2 2 0 0 0 2 2h55a2 2 0 0 0 2-2V2a2 2 0 0 0-2-2H2Z" fill="#EB0000"/><path d="M9.22 4.2h4.057L8.259 15.8H4.186L9.22 4.2ZM15.948 4.2h14.395l-1.49 3.445h-10.28l-2.042 4.71h10.285l-1.49 3.445H10.93l5.017-11.6ZM42.289 4.234v11.565h-2.31v-7.57h-2.721V6.552c.564-.016 1.023-.074 1.376-.174.359-.1.686-.264.98-.49.428-.328.716-.879.863-1.654h1.812ZM53.402 4.234v1.962a45.8 45.8 0 0 0-.561.64c-.433.496-.863 1.12-1.29 1.875-.427.749-.759 1.469-.996 2.16-.501 1.44-.804 3.082-.91 4.928h-2.389c.016-.87.166-1.836.451-2.896.29-1.06.688-2.12 1.194-3.18.723-1.497 1.456-2.612 2.2-3.345h-5.459V4.234h7.76Z" fill="#fff"/></g><defs><clipPath id="a"><path fill="#fff" d="M0 0h59v20H0z"/></clipPath></defs></svg>