<svg class="color-immutable" width="59" height="20" viewBox="0 0 59 20" fill="none" xmlns="http://www.w3.org/2000/svg"><g clip-path="url(#a)"><path fill-rule="evenodd" clip-rule="evenodd" d="M2 0a2 2 0 0 0-2 2v16a2 2 0 0 0 2 2h55a2 2 0 0 0 2-2V2a2 2 0 0 0-2-2H2Z" fill="#EB0000"/><path d="M9.22 4.2h4.057L8.259 15.8H4.186L9.22 4.2ZM15.948 4.2h14.395l-1.49 3.445h-10.28l-2.042 4.71h10.285l-1.49 3.445H10.93l5.017-11.6ZM44.67 13.742v2.056h-8.33c0-.627.1-1.226.3-1.795.206-.57.494-1.06.863-1.471.285-.317.617-.625.997-.926.385-.3 1.147-.851 2.286-1.653.553-.385.941-.744 1.162-1.076.222-.332.333-.717.333-1.155 0-.506-.15-.915-.451-1.226-.295-.316-.686-.474-1.17-.474-1.193 0-1.807.857-1.844 2.57h-2.223V8.34c0-1.402.393-2.489 1.179-3.259.764-.749 1.753-1.123 2.966-1.123 1.076 0 1.975.306 2.697.918.786.664 1.18 1.558 1.18 2.681 0 .981-.315 1.825-.942 2.531-.206.232-.398.42-.578.562-.179.137-.65.472-1.416 1.005-.727.506-1.25.893-1.566 1.162a6.342 6.342 0 0 0-.87.926h5.426ZM53.402 4.234v1.962a45.8 45.8 0 0 0-.561.64c-.433.496-.863 1.12-1.29 1.875-.427.749-.759 1.469-.996 2.16-.501 1.44-.804 3.082-.91 4.928h-2.389c.016-.87.166-1.836.451-2.896.29-1.06.688-2.12 1.194-3.18.723-1.497 1.456-2.612 2.2-3.345h-5.459V4.234h7.76Z" fill="#fff"/></g><defs><clipPath id="a"><path fill="#fff" d="M0 0h59v20H0z"/></clipPath></defs></svg>