<svg class="color-immutable" width="59" height="20" viewBox="0 0 59 20" fill="none" xmlns="http://www.w3.org/2000/svg"><g clip-path="url(#a)"><path fill-rule="evenodd" clip-rule="evenodd" d="M2 0a2 2 0 0 0-2 2v16a2 2 0 0 0 2 2h55a2 2 0 0 0 2-2V2a2 2 0 0 0-2-2H2Z" fill="#EB0000"/><path d="M9.22 4.2h4.057L8.259 15.8H4.186L9.22 4.2ZM15.948 4.2h14.395l-1.49 3.445h-10.28l-2.042 4.71h10.285l-1.49 3.445H10.93l5.017-11.6ZM36.585 7.896c.027-.949.261-1.745.704-2.389.718-1.033 1.796-1.55 3.236-1.55 1.107 0 2 .282 2.681.846.733.612 1.1 1.403 1.1 2.373 0 .58-.145 1.082-.435 1.503a2.1 2.1 0 0 1-1.163.847c.622.142 1.113.459 1.471.949.364.49.546 1.084.546 1.78 0 1.144-.422 2.08-1.266 2.808-.78.675-1.766 1.012-2.958 1.012-1.292 0-2.318-.371-3.077-1.115-.754-.744-1.131-1.748-1.131-3.014v-.15h2.222c0 .712.17 1.263.507 1.653.337.385.814.578 1.431.578.617 0 1.092-.182 1.424-.546a1.78 1.78 0 0 0 .459-1.226c0-.57-.195-1.02-.585-1.353-.322-.274-.818-.411-1.487-.411-.19 0-.378.01-.562.032V8.822c.137.01.269.016.395.016 1.33 0 1.994-.493 1.994-1.48 0-.432-.145-.78-.435-1.044-.29-.269-.673-.403-1.147-.403-.543 0-.963.169-1.258.506-.295.338-.453.83-.474 1.48h-2.192ZM53.49 7.121h-2.2c-.205-.891-.712-1.337-1.518-1.337-.855 0-1.461.525-1.82 1.574-.147.428-.266 1.074-.356 1.938.348-.469.718-.806 1.108-1.012.395-.206.87-.309 1.423-.309 1.087 0 1.96.385 2.619 1.155.627.728.941 1.64.941 2.737 0 1.303-.422 2.35-1.265 3.14-.76.712-1.672 1.068-2.737 1.068-1.366 0-2.429-.514-3.188-1.542-.76-1.034-1.14-2.473-1.14-4.319 0-1.972.407-3.517 1.219-4.635.786-1.081 1.859-1.622 3.22-1.622 1.28 0 2.262.43 2.942 1.29.39.495.64 1.12.751 1.874Zm-3.916 2.65c-.554 0-.994.232-1.321.696-.295.411-.443.902-.443 1.471 0 .565.15 1.058.45 1.48.328.469.776.704 1.346.704.553 0 .999-.224 1.336-.673.317-.422.475-.92.475-1.495 0-.564-.142-1.047-.427-1.447-.348-.49-.82-.736-1.416-.736Z" fill="#fff"/></g><defs><clipPath id="a"><path fill="#fff" d="M0 0h59v20H0z"/></clipPath></defs></svg>