<svg class="color-immutable" width="59" height="20" viewBox="0 0 59 20" fill="none" xmlns="http://www.w3.org/2000/svg"><g clip-path="url(#a)"><path fill-rule="evenodd" clip-rule="evenodd" d="M2 0a2 2 0 0 0-2 2v16a2 2 0 0 0 2 2h55a2 2 0 0 0 2-2V2a2 2 0 0 0-2-2H2Z" fill="#EB0000"/><path d="M9.22 4.2h4.057L8.259 15.8H4.186L9.22 4.2ZM15.948 4.2h14.395l-1.49 3.445h-10.28l-2.042 4.71h10.285l-1.49 3.445H10.93l5.017-11.6ZM44.772 11.203v1.954h-1.455v2.642h-2.255v-2.643h-4.825V10.99l4.944-6.755h2.136v6.969h1.455Zm-3.662.024V6.922l-2.974 4.303h2.974ZM53.79 11.203v1.954h-1.456v2.642H50.08v-2.643h-4.825V10.99l4.944-6.755h2.136v6.969h1.455Zm-3.663.024V6.922l-2.974 4.303h2.974Z" fill="#fff"/></g><defs><clipPath id="a"><path fill="#fff" d="M0 0h59v20H0z"/></clipPath></defs></svg>