<svg class="color-immutable" width="59" height="20" viewBox="0 0 59 20" fill="none" xmlns="http://www.w3.org/2000/svg"><g clip-path="url(#a)"><path fill-rule="evenodd" clip-rule="evenodd" d="M2 0a2 2 0 0 0-2 2v16a2 2 0 0 0 2 2h55a2 2 0 0 0 2-2V2a2 2 0 0 0-2-2H2Z" fill="#EB0000"/><path d="M9.22 4.2h4.057L8.259 15.8H4.186L9.22 4.2ZM15.948 4.2h14.395l-1.49 3.445h-10.28l-2.042 4.71h10.285l-1.49 3.445H10.93l5.017-11.6ZM36.538 12.896h2.183c.18.896.699 1.344 1.558 1.344.485 0 .878-.163 1.179-.49.306-.332.54-.847.704-1.543.105-.443.182-.946.23-1.51-.354.495-.718.849-1.092 1.06-.37.205-.82.308-1.353.308-.849 0-1.587-.248-2.215-.744a3.543 3.543 0 0 1-1.028-1.352 4.444 4.444 0 0 1-.364-1.804c0-1.302.446-2.357 1.337-3.164.765-.696 1.682-1.044 2.753-1.044.659 0 1.268.148 1.827.443a3.96 3.96 0 0 1 1.408 1.258c.67.965 1.005 2.32 1.005 4.066 0 1.613-.296 2.99-.886 4.129-.77 1.482-1.936 2.222-3.497 2.222-1.039 0-1.898-.287-2.578-.862-.675-.575-1.066-1.347-1.171-2.317Zm3.844-6.985c-.495 0-.915.203-1.258.609-.342.411-.514.933-.514 1.566 0 .512.124.965.372 1.36.338.544.812.815 1.424.815.554 0 .997-.221 1.329-.664.311-.417.467-.912.467-1.487 0-.607-.161-1.12-.483-1.543a1.606 1.606 0 0 0-1.337-.656ZM49.574 3.957c.88 0 1.656.269 2.325.807.665.538 1.147 1.366 1.448 2.484.227.854.34 1.782.34 2.784 0 1.661-.295 3.027-.886 4.098-.348.622-.804 1.102-1.368 1.44a3.556 3.556 0 0 1-1.875.505c-.944 0-1.75-.284-2.42-.854-1.192-1.012-1.788-2.742-1.788-5.189 0-1.74.31-3.138.933-4.192a3.77 3.77 0 0 1 1.384-1.393 3.788 3.788 0 0 1 1.907-.49Zm-.087 1.954c-.76 0-1.276.438-1.55 1.313-.217.696-.325 1.672-.325 2.927 0 1.107.11 1.996.332 2.665.285.87.812 1.306 1.582 1.306.638 0 1.113-.338 1.424-1.013.311-.675.467-1.706.467-3.093 0-1.181-.11-2.112-.332-2.792-.285-.875-.818-1.313-1.598-1.313Z" fill="#fff"/></g><defs><clipPath id="a"><path fill="#fff" d="M0 0h59v20H0z"/></clipPath></defs></svg>