<svg class="color-immutable" width="59" height="20" viewBox="0 0 59 20" fill="none" xmlns="http://www.w3.org/2000/svg"><g clip-path="url(#a)"><path fill-rule="evenodd" clip-rule="evenodd" d="M2 0a2 2 0 0 0-2 2v16a2 2 0 0 0 2 2h55a2 2 0 0 0 2-2V2a2 2 0 0 0-2-2H2Z" fill="#EB0000"/><path d="M9.22 4.2h4.057L8.259 15.8H4.186L9.22 4.2ZM15.948 4.2h14.395l-1.49 3.445h-10.28l-2.042 4.71h10.285l-1.49 3.445H10.93l5.017-11.6ZM36.538 12.896h2.183c.18.896.699 1.344 1.558 1.344.485 0 .878-.163 1.179-.49.306-.332.54-.847.704-1.543a10.3 10.3 0 0 0 .23-1.51c-.354.495-.718.849-1.092 1.06-.37.205-.82.308-1.353.308-.849 0-1.587-.248-2.215-.744a3.542 3.542 0 0 1-1.028-1.352 4.444 4.444 0 0 1-.364-1.804c0-1.302.446-2.357 1.337-3.164.765-.696 1.682-1.044 2.753-1.044.659 0 1.268.148 1.827.443a3.961 3.961 0 0 1 1.408 1.258c.67.965 1.005 2.32 1.005 4.066 0 1.613-.296 2.99-.887 4.129-.77 1.482-1.935 2.222-3.496 2.222-1.039 0-1.898-.287-2.578-.862-.676-.575-1.066-1.347-1.171-2.317Zm3.844-6.985c-.495 0-.915.203-1.258.609-.342.411-.514.933-.514 1.566 0 .512.124.965.372 1.36.338.544.812.815 1.424.815.554 0 .997-.221 1.329-.664.31-.417.467-.912.467-1.487 0-.607-.161-1.12-.483-1.543a1.606 1.606 0 0 0-1.337-.656ZM53.11 4.234V6.29h-4.66l-.498 2.602c.56-.59 1.274-.886 2.144-.886.854 0 1.598.23 2.23.688.94.691 1.408 1.74 1.408 3.149 0 1.381-.5 2.475-1.502 3.282-.78.633-1.714.95-2.8.95-1.224 0-2.208-.328-2.951-.982-.744-.659-1.137-1.547-1.179-2.665h2.27c.037.406.17.751.396 1.036.353.448.844.672 1.471.672.607 0 1.087-.218 1.44-.656.343-.427.514-.947.514-1.558 0-.665-.18-1.195-.538-1.59-.358-.401-.836-.602-1.431-.602-.728 0-1.295.327-1.701.981l-2.065-.031 1.1-6.447h6.352Z" fill="#fff"/></g><defs><clipPath id="a"><path fill="#fff" d="M0 0h59v20H0z"/></clipPath></defs></svg>