<svg class="color-immutable" width="59" height="20" viewBox="0 0 59 20" fill="none" xmlns="http://www.w3.org/2000/svg"><path fill-rule="evenodd" clip-rule="evenodd" d="M2 0a2 2 0 0 0-2 2v16a2 2 0 0 0 2 2h55a2 2 0 0 0 2-2V2a2 2 0 0 0-2-2H2Z" fill="#EB0000"/><path d="M42.292 4.235V15.8H39.99V8.23h-2.712V6.553a5.796 5.796 0 0 0 1.376-.174c.353-.1.683-.266.974-.49.425-.327.712-.878.859-1.654h1.805ZM45.588 7.898a4.343 4.343 0 0 1 .701-2.389c.715-1.034 1.79-1.55 3.224-1.55 1.104 0 1.995.282 2.673.846a2.953 2.953 0 0 1 1.096 2.373 2.593 2.593 0 0 1-.43 1.499 2.107 2.107 0 0 1-1.163.85c.59.123 1.114.462 1.47.95.37.518.559 1.143.54 1.78a3.545 3.545 0 0 1-1.26 2.808c-.779.675-1.761 1.012-2.95 1.012-1.287 0-2.308-.372-3.062-1.115-.754-.744-1.131-1.748-1.131-3.014v-.15h2.215c0 .711.168 1.261.505 1.649.364.4.888.613 1.427.581.614 0 1.088-.182 1.419-.546.302-.335.465-.774.457-1.226a1.686 1.686 0 0 0-.584-1.352c-.32-.274-.814-.412-1.482-.412-.187 0-.373.01-.56.032v-1.7c.137.01.269.015.395.015 1.324 0 1.986-.493 1.986-1.479a1.359 1.359 0 0 0-.433-1.048 1.62 1.62 0 0 0-1.143-.4 1.575 1.575 0 0 0-1.254.507c-.294.337-.452.83-.473 1.479h-2.183ZM9.22 4.2h4.056L8.258 15.8H4.185L9.22 4.2ZM25.98 12.366a.925.925 0 0 0 .847-.553L30.119 4.2H15.984l-5.018 11.6h4.038l3.8-8.69h5.993l-1.201 2.775-5.226-.019 4.216 5.934h4.598l-3.124-3.434h1.92Z" fill="#fff"/></svg>