<svg class="color-immutable" width="59" height="20" viewBox="0 0 59 20" fill="none" xmlns="http://www.w3.org/2000/svg"><path fill-rule="evenodd" clip-rule="evenodd" d="M2 0a2 2 0 0 0-2 2v16a2 2 0 0 0 2 2h55a2 2 0 0 0 2-2V2a2 2 0 0 0-2-2H2Z" fill="#EB0000"/><path d="M44.665 13.743V15.8h-8.301c-.003-.612.1-1.22.303-1.796a4.375 4.375 0 0 1 .856-1.47c.305-.337.639-.647.997-.926.381-.301 1.14-.852 2.274-1.654.448-.285.84-.65 1.16-1.075.223-.343.338-.746.33-1.155.02-.453-.14-.896-.445-1.23a1.538 1.538 0 0 0-1.17-.471c-1.188 0-1.8.857-1.837 2.57h-2.216v-.252c0-1.403.392-2.49 1.175-3.26.762-.748 1.747-1.122 2.956-1.122a4.008 4.008 0 0 1 2.688.917c.783.665 1.175 1.558 1.175 2.682a3.69 3.69 0 0 1-.938 2.53c-.175.204-.367.39-.576.558-.178.14-.649.476-1.41 1.009-.726.506-1.245.894-1.558 1.163a6.219 6.219 0 0 0-.87.925h5.407ZM53.069 4.235v2.057h-4.643l-.497 2.603a2.807 2.807 0 0 1 2.136-.886 3.678 3.678 0 0 1 2.224.688c.935.69 1.403 1.74 1.403 3.148 0 1.382-.5 2.476-1.498 3.283a4.283 4.283 0 0 1-2.79.949c-1.22 0-2.2-.328-2.941-.985-.741-.656-1.133-1.544-1.175-2.662h2.263a1.9 1.9 0 0 0 .394 1.037 1.917 1.917 0 0 0 2.9.015c.348-.443.53-.994.513-1.558.03-.58-.162-1.15-.536-1.594a1.824 1.824 0 0 0-1.427-.597 1.895 1.895 0 0 0-1.695.98l-2.057-.03 1.096-6.448h6.33ZM9.22 4.2h4.056L8.258 15.8H4.185L9.22 4.2ZM25.98 12.366a.925.925 0 0 0 .847-.553L30.119 4.2H15.984l-5.018 11.6h4.038l3.8-8.69h5.993l-1.201 2.775-5.226-.019 4.216 5.934h4.598l-3.124-3.434h1.92Z" fill="#fff"/></svg>