<svg class="color-immutable" width="59" height="20" viewBox="0 0 59 20" fill="none" xmlns="http://www.w3.org/2000/svg"><g clip-path="url(#a)"><path fill-rule="evenodd" clip-rule="evenodd" d="M2 0a2 2 0 0 0-2 2v16a2 2 0 0 0 2 2h55a2 2 0 0 0 2-2V2a2 2 0 0 0-2-2H2Z" fill="#EB0000"/><path d="M9.388 4.2h4.042L8.43 15.8h-4.06L9.389 4.2ZM26.092 12.366a.922.922 0 0 0 .843-.553L30.216 4.2H16.13l-5.001 11.6h4.025l3.786-8.69h5.973l-1.197 2.775-5.209-.019L22.71 15.8h4.582l-3.114-3.434h1.915ZM38.35 9.59c-.539-.186-.953-.489-1.243-.91-.284-.422-.427-.934-.427-1.535 0-1.002.412-1.801 1.234-2.397.728-.527 1.593-.791 2.595-.791 1.139 0 2.07.314 2.792.941.686.591 1.028 1.321 1.028 2.191 0 .607-.145 1.126-.435 1.559-.29.432-.701.746-1.234.941.417.121.757.277 1.02.467.734.532 1.1 1.31 1.1 2.333 0 1.176-.45 2.112-1.352 2.808-.76.586-1.735.878-2.927.878-1.292 0-2.32-.321-3.085-.965-.796-.67-1.195-1.547-1.195-2.634 0-1.018.354-1.806 1.06-2.365a2.924 2.924 0 0 1 1.068-.522Zm2.127-3.837c-.506 0-.915.142-1.226.427-.311.28-.467.648-.467 1.107 0 .48.156.865.467 1.155.316.285.738.427 1.266.427.527 0 .944-.142 1.25-.427.305-.285.458-.672.458-1.163 0-.48-.155-.854-.467-1.123-.305-.269-.733-.403-1.28-.403Zm-.016 4.706c-.57 0-1.036.177-1.4.53-.358.348-.538.796-.538 1.345 0 .564.182 1.023.546 1.376.37.354.846.53 1.432.53.664 0 1.163-.195 1.495-.585.322-.374.482-.807.482-1.297 0-.56-.184-1.018-.553-1.377-.354-.348-.841-.522-1.464-.522ZM45.555 12.896h2.184c.179.896.698 1.344 1.558 1.344.485 0 .878-.163 1.178-.49.306-.332.541-.847.704-1.543.106-.443.182-.946.23-1.51-.353.495-.717.849-1.092 1.06-.369.205-.82.308-1.352.308-.85 0-1.588-.248-2.215-.744A3.543 3.543 0 0 1 45.72 9.97a4.446 4.446 0 0 1-.363-1.804c0-1.302.445-2.357 1.337-3.164.764-.696 1.682-1.044 2.752-1.044.66 0 1.268.148 1.828.443a3.962 3.962 0 0 1 1.407 1.258c.67.965 1.005 2.32 1.005 4.066 0 1.613-.295 2.99-.886 4.129-.77 1.482-1.935 2.222-3.496 2.222-1.039 0-1.899-.287-2.579-.862-.675-.575-1.065-1.347-1.17-2.317ZM49.4 5.91c-.496 0-.915.203-1.258.609-.343.411-.514.933-.514 1.566 0 .512.124.965.372 1.36.337.544.812.815 1.423.815.554 0 .997-.221 1.33-.664.31-.417.466-.912.466-1.487 0-.607-.16-1.12-.482-1.543a1.606 1.606 0 0 0-1.337-.656Z" fill="#fff"/></g><defs><clipPath id="a"><path fill="#fff" d="M0 0h59v20H0z"/></clipPath></defs></svg>