<svg class="color-immutable" width="59" height="20" viewBox="0 0 59 20" fill="none" xmlns="http://www.w3.org/2000/svg"><g clip-path="url(#a)"><path fill-rule="evenodd" clip-rule="evenodd" d="M2 0a2 2 0 0 0-2 2v16a2 2 0 0 0 2 2h55a2 2 0 0 0 2-2V2a2 2 0 0 0-2-2H2Z" fill="#EB0000"/><path d="M9.388 4.2h4.042l-5 11.6H4.37L9.388 4.2ZM26.092 12.366a.922.922 0 0 0 .843-.553L30.216 4.2H16.13l-5.001 11.6h4.025l3.786-8.69h5.973l-1.197 2.775-5.209-.019L22.71 15.8h4.582l-3.114-3.434h1.915ZM36.538 12.896h2.183c.18.896.699 1.344 1.558 1.344.486 0 .878-.163 1.179-.49.306-.332.54-.847.704-1.543.105-.443.182-.946.23-1.51-.354.495-.718.849-1.092 1.06-.37.205-.82.308-1.353.308-.849 0-1.587-.248-2.215-.744a3.543 3.543 0 0 1-1.028-1.352 4.444 4.444 0 0 1-.364-1.804c0-1.302.446-2.357 1.337-3.164.765-.696 1.682-1.044 2.753-1.044.659 0 1.268.148 1.827.443a3.961 3.961 0 0 1 1.408 1.258c.67.965 1.005 2.32 1.005 4.066 0 1.613-.296 2.99-.886 4.129-.77 1.482-1.936 2.222-3.497 2.222-1.039 0-1.898-.287-2.578-.862-.675-.575-1.066-1.347-1.171-2.317Zm3.844-6.985c-.495 0-.915.203-1.258.609-.342.411-.514.933-.514 1.566 0 .512.124.965.372 1.36.338.544.812.815 1.424.815.554 0 .997-.221 1.329-.664.311-.417.467-.912.467-1.487 0-.607-.161-1.12-.483-1.543a1.606 1.606 0 0 0-1.337-.656ZM53.687 13.742v2.056h-8.33c0-.627.1-1.226.301-1.795.206-.57.493-1.06.862-1.471.285-.317.617-.625.997-.926.385-.3 1.147-.851 2.286-1.653.554-.385.942-.744 1.163-1.076.221-.332.332-.717.332-1.155 0-.506-.15-.915-.45-1.226-.296-.316-.686-.474-1.171-.474-1.192 0-1.806.857-1.843 2.57H45.61V8.34c0-1.402.393-2.489 1.178-3.259.765-.749 1.754-1.123 2.967-1.123 1.076 0 1.975.306 2.697.918.786.664 1.179 1.558 1.179 2.681 0 .981-.314 1.825-.942 2.531-.205.232-.398.42-.577.562-.18.137-.651.472-1.416 1.005-.728.506-1.25.893-1.566 1.162a6.342 6.342 0 0 0-.87.926h5.426Z" fill="#fff"/></g><defs><clipPath id="a"><path fill="#fff" d="M0 0h59v20H0z"/></clipPath></defs></svg>