<svg class="color-immutable" width="59" height="20" viewBox="0 0 59 20" fill="none" xmlns="http://www.w3.org/2000/svg"><g clip-path="url(#a)"><path fill-rule="evenodd" clip-rule="evenodd" d="M2 0a2 2 0 0 0-2 2v16a2 2 0 0 0 2 2h55a2 2 0 0 0 2-2V2a2 2 0 0 0-2-2H2Z" fill="#EB0000"/><path d="M9.388 4.2h4.042L8.43 15.8h-4.06L9.389 4.2ZM26.092 12.366a.922.922 0 0 0 .843-.553L30.216 4.2H16.13l-5.001 11.6h4.025l3.786-8.69h5.973l-1.197 2.775-5.209-.019L22.71 15.8h4.582l-3.114-3.434h1.915ZM36.538 12.896h2.183c.18.896.699 1.344 1.558 1.344.485 0 .878-.163 1.179-.49.306-.332.54-.847.704-1.543a10.3 10.3 0 0 0 .23-1.51c-.354.495-.718.849-1.092 1.06-.37.205-.82.308-1.353.308-.849 0-1.587-.248-2.215-.744a3.542 3.542 0 0 1-1.028-1.352 4.444 4.444 0 0 1-.364-1.804c0-1.302.446-2.357 1.337-3.164.765-.696 1.682-1.044 2.753-1.044.659 0 1.268.148 1.827.443a3.961 3.961 0 0 1 1.408 1.258c.67.965 1.005 2.32 1.005 4.066 0 1.613-.296 2.99-.887 4.129-.77 1.482-1.935 2.222-3.496 2.222-1.039 0-1.898-.287-2.578-.862-.676-.575-1.066-1.347-1.171-2.317Zm3.844-6.985c-.495 0-.915.203-1.258.609-.342.411-.514.933-.514 1.566 0 .512.124.965.372 1.36.338.544.812.815 1.424.815.554 0 .997-.221 1.329-.664.31-.417.467-.912.467-1.487 0-.607-.161-1.12-.483-1.543a1.606 1.606 0 0 0-1.337-.656ZM47.367 9.59c-.538-.186-.952-.489-1.242-.91-.285-.422-.427-.934-.427-1.535 0-1.002.411-1.801 1.234-2.397.727-.527 1.592-.791 2.594-.791 1.14 0 2.07.314 2.793.941.685.591 1.028 1.321 1.028 2.191 0 .607-.145 1.126-.435 1.559-.29.432-.701.746-1.234.941.416.121.757.277 1.02.467.733.532 1.1 1.31 1.1 2.333 0 1.176-.451 2.112-1.353 2.808-.76.586-1.735.878-2.927.878-1.292 0-2.32-.321-3.085-.965-.796-.67-1.194-1.547-1.194-2.634 0-1.018.353-1.806 1.06-2.365a2.925 2.925 0 0 1 1.068-.522Zm2.128-3.837c-.507 0-.915.142-1.226.427-.311.28-.467.648-.467 1.107 0 .48.156.865.467 1.155.316.285.738.427 1.265.427.528 0 .944-.142 1.25-.427.306-.285.459-.672.459-1.163 0-.48-.156-.854-.467-1.123-.306-.269-.733-.403-1.281-.403Zm-.016 4.706c-.57 0-1.036.177-1.4.53-.359.348-.538.796-.538 1.345 0 .564.182 1.023.546 1.376.369.354.846.53 1.431.53.665 0 1.163-.195 1.495-.585.322-.374.483-.807.483-1.297 0-.56-.185-1.018-.554-1.377-.353-.348-.84-.522-1.463-.522Z" fill="#fff"/></g><defs><clipPath id="a"><path fill="#fff" d="M0 0h59v20H0z"/></clipPath></defs></svg>