<svg width="48" height="48" viewBox="0 0 48 48" fill="none" xmlns="http://www.w3.org/2000/svg"><path fill-rule="evenodd" clip-rule="evenodd" d="M14.931 11.64C16.448 11.261 17.893 11 19 11c2.199 0 3.476.664 4.256 1.382.345.316.58.632.744.868.165-.236.4-.552.743-.868C25.524 11.664 26.801 11 29 11c1.106 0 2.552.262 4.068.64 1.526.379 3.16.883 4.656 1.386a105.784 105.784 0 0 1 5.35 1.965l.085.034.022.008.005.003h.002L43 15.5l.275.417-.002.002-.006.003-.021.014-.083.054-.318.205a87.439 87.439 0 0 1-5.25 3.07c-3.142 1.689-7.132 3.567-10.595 4.352V26.5a2.5 2.5 0 0 1 4 2 2.5 2.5 0 0 1 4 2 2.5 2.5 0 0 1 4 2V38.502c0 1.5-.045 3.708-1.053 5.723l-.894-.448C37.944 41.993 38 40 38 38.501V32.5a1.5 1.5 0 1 0-3 0V40h-1v-9.5a1.5 1.5 0 1 0-3 0V38h-1v-9.5a1.5 1.5 0 1 0-3 0V36h-1V18.5a1.5 1.5 0 1 0-3 0V38h-1v-3.5a1.5 1.5 0 1 0-3 0h-1a2.5 2.5 0 0 1 4-2v-8.684c-3.512-.587-7.742-2.511-11.107-4.291a86.902 86.902 0 0 1-5.696-3.304c-.152-.096-.27-.172-.35-.224l-.09-.059-.024-.015-.006-.004-.002-.002L5 15.5c-.189-.463-.188-.463-.188-.464h.002l.005-.003.022-.008.084-.034a71.674 71.674 0 0 1 1.498-.584c.99-.376 2.356-.879 3.853-1.381 1.496-.503 3.13-1.007 4.655-1.386ZM5 15.5l-.275.417-.793-.523.88-.357L5 15.5ZM22 22.8V18.46c-4.296-.15-8.487-.746-11.643-1.315-.948-.17-1.804-.34-2.542-.493a85.01 85.01 0 0 0 3.545 1.989c3.305 1.748 7.335 3.571 10.64 4.16Zm.223-5.334a2.5 2.5 0 0 1 4.535-.041c4.116-.196 8.09-.784 11.065-1.331a92.962 92.962 0 0 0 3.504-.713l-.105-.04c-.983-.373-2.335-.871-3.816-1.368-1.483-.498-3.089-.994-4.579-1.364-1.5-.373-2.847-.61-3.827-.61-1.974 0-3.002.586-3.58 1.118a4.32 4.32 0 0 0-.649.774l-.027.041c-.065.095-.138.2-.206.281a.954.954 0 0 1-.173.165.628.628 0 0 1-.365.12.628.628 0 0 1-.365-.12.957.957 0 0 1-.174-.165c-.068-.08-.14-.187-.205-.281l-.028-.04a4.324 4.324 0 0 0-.649-.775C22.001 12.586 20.974 12 19 12c-.979 0-2.327.237-3.826.61-1.49.37-3.097.866-4.579 1.364-1.481.497-2.833.995-3.816 1.368l-.106.04c.942.212 2.27.492 3.863.779 3.175.572 7.392 1.17 11.688 1.306Zm4.776.948v4.175c3.272-.781 7.061-2.56 10.121-4.206a85.903 85.903 0 0 0 3.066-1.733c-.644.134-1.377.28-2.182.427-2.956.544-6.9 1.13-11.005 1.337Zm-8.5 16.085h.5V40.4c0 1.455.281 2.424.909 3.31l-.816.578C18.316 43.193 18 42.006 18 40.4V34.5h.5Zm24.5-19 .19-.463.879.357-.793.523L43 15.5Z" fill="#000"/></svg>