<svg width="36" height="36" viewBox="0 0 36 36" fill="none" xmlns="http://www.w3.org/2000/svg"><g clip-path="url(#a)"><path fill-rule="evenodd" clip-rule="evenodd" d="m18.1 3.26-.1-.02-.1.02L3.65 6.155l-.4.081V10.25h3v15.5h-1.5v3h-1.5v4h29.5v-4h-1.5v-3h-1.5v-15.5h3V6.236l-.4-.081L18.1 3.26Zm10.65 6.99v15.5h-3.5v-15.5h3.5Zm-4.5 0v15.5h-3.5v-15.5h3.5Zm-4.5 0v15.5h-3.5v-15.5h3.5Zm-8 15.5h3.5v-15.5h-3.5v15.5Zm-1-15.5h-3.5v15.5h3.5v-15.5Zm-6.5-1V7.054L18 4.26l13.75 2.794V9.25H4.25Zm1.5 20v-2.5h24.5v3h1.5v2H4.25v-2h1.5v-.5Z" fill="#000"/></g><defs><clipPath id="a"><path fill="#fff" d="M0 0h36v36H0z"/></clipPath></defs></svg>