<svg width="36" height="36" viewBox="0 0 36 36" fill="none" xmlns="http://www.w3.org/2000/svg"><path fill-rule="evenodd" clip-rule="evenodd" d="M10.418 6.257C13.874 5.68 16.693 7.634 18 8.995c1.307-1.36 4.126-3.314 7.582-2.738 4.79.798 7.168 4.802 7.168 8.743 0 2.73-1.378 5.264-2.05 6.498l-.087.16c.41.423 1.01 1.082 1.418 1.818.255.459.458.985.473 1.53a2.117 2.117 0 0 1-.65 1.598c-.985.984-2.204.687-3.015.28a5.91 5.91 0 0 1-1.11-.734c-.127.096-.287.213-.478.346-.517.361-1.262.841-2.174 1.322-1.819.956-4.339 1.932-7.077 1.932-2.738 0-5.258-.976-7.077-1.933a20.628 20.628 0 0 1-2.652-1.667 5.912 5.912 0 0 1-1.11.734c-.811.407-2.03.704-3.015-.28a2.117 2.117 0 0 1-.65-1.598c.015-.545.218-1.072.473-1.53.409-.736 1.007-1.395 1.418-1.817l-.087-.16c-.672-1.235-2.05-3.77-2.05-6.499 0-3.94 2.377-7.945 7.168-8.743Zm17.688 18.892-.002-.003-.323-.322-.35.292h-.001l-.002.001-.008.007-.035.028-.144.113c-.127.098-.317.24-.562.41-.49.343-1.2.8-2.068 1.258-1.745.918-4.1 1.817-6.611 1.817-2.512 0-4.867-.9-6.61-1.817a19.637 19.637 0 0 1-2.069-1.257 15.096 15.096 0 0 1-.706-.524l-.035-.028-.008-.007-.002-.001-.35-.292-.323.322-.003.003-.015.015a5.274 5.274 0 0 1-1.165.827c-.688.343-1.345.42-1.86-.095-.275-.274-.366-.561-.358-.863.008-.322.133-.686.347-1.071.43-.774 1.13-1.478 1.51-1.858l.255-.255-.16-.323c-.077-.152-.176-.335-.29-.546C5.474 19.71 4.25 17.443 4.25 15c0-3.56 2.123-7.055 6.332-7.757 3.346-.557 6.083 1.639 7.028 2.82l.39.487.39-.488c.945-1.18 3.682-3.376 7.028-2.819 4.21.702 6.332 4.198 6.332 7.757 0 2.444-1.223 4.71-1.909 5.98-.113.211-.212.394-.288.546l-.161.323.254.255c.38.38 1.081 1.084 1.51 1.858.215.385.34.75.348 1.071.008.302-.083.59-.358.863-.515.516-1.172.438-1.86.094a4.919 4.919 0 0 1-.849-.552 5.224 5.224 0 0 1-.316-.274l-.015-.015ZM10.027 12.416c1.01-.674 1.854-.702 2.477-.502.488.156.869.46 1.11.766l-4.47 4.469a5.841 5.841 0 0 1-.394-2.055c0-1.053.337-2.051 1.277-2.678Zm4.67.11c-.308-.615-.974-1.272-1.888-1.565-.94-.3-2.097-.203-3.336.623-1.31.873-1.723 2.25-1.723 3.51 0 1.248.4 2.462.821 3.163l.33.55.452-.453 5.25-5.25.255-.255-.16-.323Zm11.83-.942c-1.239-.826-2.396-.923-3.336-.623-.914.293-1.58.95-1.888 1.565l-.161.323.254.255 5.25 5.25.453.452.33-.549c.42-.701.821-1.915.82-3.163 0-1.26-.412-2.637-1.722-3.51Zm.329 5.565-4.47-4.47a2.34 2.34 0 0 1 1.11-.765c.623-.2 1.466-.172 2.477.502.94.627 1.277 1.625 1.277 2.678a5.84 5.84 0 0 1-.394 2.055Zm-8.527-1.025-.33-.288-.328.288-6 5.25-.291.254.173.346c.58 1.161 2.65 3.276 6.447 3.276 3.798 0 5.866-2.115 6.447-3.276l.173-.346-.29-.254-6-5.25ZM18 24.25c-3.012 0-4.714-1.478-5.356-2.399L18 17.164l5.356 4.687c-.641.92-2.344 2.399-5.356 2.399Z" fill="#000"/></svg>