<svg class="color-immutable" width="59" height="20" viewBox="0 0 59 20" fill="none" xmlns="http://www.w3.org/2000/svg"><g clip-path="url(#a)" fill="#EB0000"><path d="M57.208 1c.439 0 .795.358.795.8v16.4c0 .442-.356.8-.795.8H1.792a.798.798 0 0 1-.795-.8V1.8c0-.442.356-.8.795-.8h55.416Zm0-1H1.792C.803 0 0 .806 0 1.8v16.4c0 .994.803 1.8 1.792 1.8h55.416c.99 0 1.792-.806 1.792-1.8V1.8c0-.994-.803-1.8-1.792-1.8Z"/><path d="M4.16 4.234h5.6c1.108 0 1.957.174 2.547.522.49.285.865.664 1.124 1.139.258.475.387 1.01.387 1.606 0 .675-.163 1.263-.49 1.764-.322.5-.773.86-1.353 1.075a1.95 1.95 0 0 1 1.203.855c.184.28.308.572.371.878.064.306.145 1.004.245 2.096.074.802.188 1.3.34 1.495l.111.135h-2.634a1.979 1.979 0 0 1-.197-.625c-.037-.253-.088-.839-.15-1.756-.064-.818-.264-1.382-.602-1.693-.332-.317-.902-.475-1.709-.475h-2.27V15.8H4.16V4.234Zm2.523 1.985V9.4h2.413c.775 0 1.32-.11 1.637-.332.401-.28.601-.701.601-1.266 0-.548-.171-.949-.514-1.202-.343-.253-.883-.38-1.621-.38H6.683ZM24.647 4.234V6.37h-6.154v2.468h5.64v1.985h-5.64v2.84h6.265v2.136H15.97V4.234h8.677ZM31.648 4.234v11.565h-2.31v-7.57h-2.721V6.552c.564-.016 1.023-.074 1.376-.174.359-.1.686-.264.981-.49.427-.328.715-.879.862-1.654h1.812ZM34.962 7.896c.026-.949.261-1.745.704-2.389.717-1.033 1.796-1.55 3.235-1.55 1.108 0 2.002.282 2.682.846.733.612 1.1 1.403 1.1 2.373 0 .58-.146 1.082-.436 1.503a2.1 2.1 0 0 1-1.163.847c.623.142 1.113.459 1.472.949.364.49.546 1.084.546 1.78 0 1.144-.422 2.08-1.266 2.808-.78.675-1.767 1.012-2.958 1.012-1.292 0-2.318-.371-3.078-1.115-.754-.744-1.13-1.748-1.13-3.014v-.15h2.222c0 .712.169 1.263.506 1.653.338.385.815.578 1.432.578s1.092-.182 1.424-.546a1.78 1.78 0 0 0 .459-1.226c0-.57-.195-1.02-.586-1.353-.321-.274-.817-.411-1.487-.411-.19 0-.377.01-.561.032V8.822c.137.01.269.016.395.016 1.33 0 1.994-.493 1.994-1.48 0-.432-.146-.78-.436-1.044-.29-.269-.672-.403-1.146-.403-.544 0-.963.169-1.258.506-.295.338-.454.83-.475 1.48h-2.19Z"/></g><defs><clipPath id="a"><path fill="#fff" d="M0 0h59v20H0z"/></clipPath></defs></svg>