<svg class="color-immutable" width="59" height="20" viewBox="0 0 59 20" fill="none" xmlns="http://www.w3.org/2000/svg"><g clip-path="url(#a)" fill="#EB0000"><path d="M57.208 1c.439 0 .795.358.795.8v16.4c0 .442-.356.8-.795.8H1.792a.798.798 0 0 1-.795-.8V1.8c0-.442.356-.8.795-.8h55.416Zm0-1H1.792C.803 0 0 .806 0 1.8v16.4c0 .994.803 1.8 1.792 1.8h55.416c.99 0 1.792-.806 1.792-1.8V1.8c0-.994-.803-1.8-1.792-1.8Z"/><path d="M4.16 4.234h5.6c1.108 0 1.957.174 2.547.522.49.285.865.664 1.124 1.139.258.475.387 1.01.387 1.606 0 .675-.163 1.263-.49 1.764-.322.5-.773.86-1.353 1.075a1.95 1.95 0 0 1 1.203.855c.184.28.308.572.371.878.064.306.145 1.004.245 2.096.074.802.188 1.3.34 1.495l.111.135h-2.634a1.979 1.979 0 0 1-.197-.625c-.037-.253-.088-.839-.15-1.756-.064-.818-.264-1.382-.602-1.693-.332-.317-.902-.475-1.709-.475h-2.27V15.8H4.16V4.234Zm2.523 1.985V9.4h2.413c.775 0 1.32-.11 1.637-.332.401-.28.601-.701.601-1.266 0-.548-.171-.949-.514-1.202-.343-.253-.883-.38-1.621-.38H6.683ZM24.647 4.234V6.37h-6.154v2.468h5.64v1.985h-5.64v2.84h6.265v2.136H15.97V4.234h8.677ZM34.029 13.742v2.056h-8.33c0-.627.1-1.226.3-1.795.207-.57.494-1.06.863-1.471.285-.317.617-.625.997-.926.385-.3 1.147-.851 2.286-1.653.553-.385.941-.744 1.163-1.076.221-.332.332-.717.332-1.155 0-.506-.15-.915-.451-1.226-.295-.316-.686-.474-1.17-.474-1.193 0-1.807.857-1.844 2.57h-2.223V8.34c0-1.402.393-2.489 1.179-3.259.765-.749 1.753-1.123 2.966-1.123 1.076 0 1.975.306 2.698.918.785.664 1.178 1.558 1.178 2.681 0 .981-.313 1.825-.941 2.531-.206.232-.398.42-.577.562-.18.137-.652.472-1.416 1.005-.728.506-1.25.893-1.567 1.162a6.348 6.348 0 0 0-.87.926h5.427ZM42.469 4.234V6.29h-4.66l-.498 2.602c.56-.59 1.274-.886 2.144-.886.854 0 1.598.23 2.23.688.94.691 1.409 1.74 1.409 3.149 0 1.381-.501 2.475-1.503 3.282-.78.633-1.714.95-2.8.95-1.224 0-2.207-.328-2.95-.982-.745-.659-1.137-1.547-1.18-2.665h2.27c.038.406.17.751.396 1.036.354.448.844.672 1.471.672.607 0 1.087-.218 1.44-.656.343-.427.514-.947.514-1.558 0-.665-.179-1.195-.538-1.59-.358-.401-.835-.602-1.431-.602-.728 0-1.295.327-1.701.981l-2.065-.031 1.1-6.447h6.352Z"/></g><defs><clipPath id="a"><path fill="#fff" d="M0 0h59v20H0z"/></clipPath></defs></svg>