<svg class="color-immutable" width="59" height="20" viewBox="0 0 59 20" fill="none" xmlns="http://www.w3.org/2000/svg"><g clip-path="url(#a)" fill="#fff"><path d="M57.208 1c.439 0 .795.358.795.8v16.4c0 .442-.356.8-.795.8H1.792a.798.798 0 0 1-.795-.8V1.8c0-.442.356-.8.795-.8h55.416Zm0-1H1.792C.803 0 0 .806 0 1.8v16.4c0 .994.803 1.8 1.792 1.8h55.416c.99 0 1.792-.806 1.792-1.8V1.8c0-.994-.803-1.8-1.792-1.8Z"/><path d="M4.16 4.234h5.6c1.108 0 1.957.174 2.547.522.49.285.865.664 1.124 1.139.258.475.387 1.01.387 1.606 0 .675-.163 1.263-.49 1.764-.322.5-.773.86-1.353 1.075a1.95 1.95 0 0 1 1.203.855c.184.28.308.572.371.878.064.306.145 1.004.245 2.096.074.802.188 1.3.34 1.495l.111.135h-2.634a1.982 1.982 0 0 1-.197-.625c-.037-.253-.087-.839-.15-1.756-.064-.818-.264-1.382-.602-1.693-.332-.317-.902-.475-1.708-.475h-2.27V15.8H4.16V4.234Zm2.523 1.985V9.4h2.413c.775 0 1.32-.11 1.637-.332.401-.28.601-.701.601-1.266 0-.548-.17-.949-.514-1.202-.342-.253-.883-.38-1.621-.38H6.683ZM24.647 4.234V6.37h-6.154v2.468h5.64v1.985h-5.64v2.84h6.265v2.136H15.97V4.234h8.677ZM33.451 4.234V6.29h-4.659l-.498 2.602c.559-.59 1.273-.886 2.143-.886.855 0 1.598.23 2.231.688.939.691 1.408 1.74 1.408 3.149 0 1.381-.5 2.475-1.503 3.282-.78.633-1.714.95-2.8.95-1.223 0-2.207-.328-2.95-.982-.744-.659-1.137-1.547-1.179-2.665h2.27c.037.406.169.751.396 1.036.353.448.843.672 1.471.672.606 0 1.086-.218 1.44-.656.342-.427.514-.947.514-1.558 0-.665-.18-1.195-.538-1.59-.359-.401-.836-.602-1.432-.602-.728 0-1.294.327-1.7.981L26 10.681l1.1-6.447h6.351ZM38.933 3.957c.88 0 1.656.269 2.326.807.664.538 1.147 1.366 1.447 2.484.227.854.34 1.782.34 2.784 0 1.661-.295 3.027-.886 4.098-.348.622-.804 1.102-1.368 1.44a3.556 3.556 0 0 1-1.875.505c-.944 0-1.75-.284-2.42-.854-1.192-1.012-1.788-2.742-1.788-5.189 0-1.74.311-3.138.933-4.192a3.77 3.77 0 0 1 1.385-1.393 3.788 3.788 0 0 1 1.906-.49Zm-.087 1.954c-.76 0-1.276.438-1.55 1.313-.217.696-.325 1.672-.325 2.927 0 1.107.111 1.996.333 2.665.284.87.812 1.306 1.582 1.306.638 0 1.112-.338 1.423-1.013.312-.675.467-1.706.467-3.093 0-1.181-.11-2.112-.332-2.792-.285-.875-.818-1.313-1.598-1.313Z"/></g><defs><clipPath id="a"><path fill="#fff" d="M0 0h59v20H0z"/></clipPath></defs></svg>