<svg width="26" height="16" viewBox="0 0 26 16" fill="none" xmlns="http://www.w3.org/2000/svg"><path fill-rule="evenodd" clip-rule="evenodd" d="M6.522 6.656H5.421l.74-3.45h.981c1.06 0 2.341.06 2.341 1.404 0 1.646-1.541 2.046-2.961 2.046Zm-1.421 6.138h-.96l.841-4.052h.899c1.501 0 2.861.22 2.861 1.686 0 2.165-1.921 2.366-3.641 2.366ZM8.062 1H3.921L1 15h3.982c2.08 0 6.56-.321 6.56-4.333 0-1.504-.68-2.707-2.24-2.947v-.04c1.62-.261 2.98-1.626 2.98-3.33 0-2.548-2.04-3.35-4.22-3.35Zm16.52 0H16.36l-2.94 14h8.322l.48-2.206H16.7l.82-3.931h4.901l.44-2.207h-4.881l.72-3.45h5.462L24.583 1Z" fill="#000"/></svg>