<svg class="color-immutable" width="59" height="20" viewBox="0 0 59 20" fill="none" xmlns="http://www.w3.org/2000/svg"><g clip-path="url(#a)"><path d="M1.792.5h55.416c.71 0 1.292.58 1.292 1.3v16.4c0 .72-.58 1.3-1.292 1.3H1.792C1.082 19.5.5 18.92.5 18.2V1.8c0-.72.581-1.3 1.292-1.3Z" stroke="#FFDE15"/><path d="M12.798 7.659h-2.405c-.047-.564-.258-.994-.633-1.29-.369-.3-.888-.45-1.558-.45-.596 0-1.06.118-1.392.356-.327.232-.49.559-.49.98 0 .38.158.654.474.823.306.169 1.081.406 2.326.712 1.313.327 2.223.657 2.729.989.933.612 1.4 1.463 1.4 2.555 0 1.197-.47 2.14-1.408 2.832-.828.606-1.949.91-3.362.91-1.571 0-2.792-.36-3.662-1.076-.87-.718-1.321-1.738-1.353-3.062h2.515c.037.644.203 1.121.499 1.432.464.496 1.163.744 2.096.744.633 0 1.134-.124 1.503-.372.416-.285.625-.673.625-1.163s-.293-.849-.878-1.076c-.322-.126-1.081-.356-2.278-.688-.75-.205-1.335-.4-1.756-.585-.422-.185-.76-.39-1.013-.617-.59-.528-.886-1.255-.886-2.183 0-1.113.462-1.994 1.384-2.642.786-.554 1.807-.831 3.062-.831 1.102 0 2.025.219 2.768.657 1.07.627 1.635 1.642 1.693 3.045ZM24.513 4.234v11.565h-2.54l-4.84-7.879.031 7.879h-2.428V4.234h2.57l4.81 7.863-.032-7.863h2.429ZM31.917 4.234v11.565h-2.31v-7.57h-2.721V6.552c.564-.016 1.023-.074 1.376-.174.359-.1.686-.264.981-.49.427-.328.715-.879.862-1.654h1.812ZM43.118 7.121h-2.2c-.205-.891-.711-1.337-1.518-1.337-.855 0-1.46.525-1.82 1.574-.147.428-.266 1.074-.355 1.938.348-.469.717-.806 1.107-1.012.395-.206.87-.309 1.424-.309 1.086 0 1.959.385 2.618 1.155.628.728.941 1.64.941 2.737 0 1.303-.421 2.35-1.265 3.14-.76.712-1.672 1.068-2.737 1.068-1.366 0-2.429-.514-3.188-1.542-.76-1.034-1.139-2.473-1.139-4.319 0-1.972.406-3.517 1.218-4.635.786-1.081 1.859-1.622 3.22-1.622 1.281 0 2.262.43 2.942 1.29.39.495.64 1.12.752 1.874Zm-3.916 2.65c-.554 0-.994.232-1.32.696-.296.411-.444.902-.444 1.471 0 .565.15 1.058.451 1.48.327.469.775.704 1.345.704.553 0 .999-.224 1.337-.673.316-.422.474-.92.474-1.495 0-.564-.142-1.047-.427-1.447-.348-.49-.82-.736-1.416-.736Z" fill="#FFDE15"/></g><defs><clipPath id="a"><path fill="#fff" d="M0 0h59v20H0z"/></clipPath></defs></svg>