<svg width="36" height="36" viewBox="0 0 36 36" fill="none" xmlns="http://www.w3.org/2000/svg"><path fill-rule="evenodd" clip-rule="evenodd" d="M15.19 7.084a7.953 7.953 0 0 1 3.06-.819V3h1v3.265a7.953 7.953 0 0 1 3.06.819l1.632-2.827.866.5-1.632 2.828a8.045 8.045 0 0 1 2.24 2.24l2.827-1.633.5.866-2.827 1.632c.464.931.751 1.966.819 3.06H30v1h-3.265a7.954 7.954 0 0 1-.819 3.06l2.827 1.632-.5.866-2.828-1.632a8.045 8.045 0 0 1-2.24 2.24l1.633 2.827-.866.5-1.632-2.827a7.953 7.953 0 0 1-3.06.819V25.5h-1v-3.265a7.952 7.952 0 0 1-3.06-.819l-1.632 2.827-.866-.5 1.632-2.828a8.046 8.046 0 0 1-2.24-2.24l-2.827 1.633-.5-.866 2.827-1.632a7.952 7.952 0 0 1-.819-3.06H7.5v-1h3.265a7.952 7.952 0 0 1 .819-3.06L8.757 9.058l.5-.866 2.828 1.632a8.045 8.045 0 0 1 2.24-2.24l-1.633-2.827.866-.5 1.632 2.827Zm3.56.166a7 7 0 0 1 6.982 6.5h-3.518A3.5 3.5 0 0 0 17.45 11l-1.759-3.048a6.972 6.972 0 0 1 3.059-.702Zm-2.165 4.25-1.76-3.047a6.993 6.993 0 0 0-3.075 5.797 6.993 6.993 0 0 0 3.075 5.797L16.585 17a3.494 3.494 0 0 1-1.335-2.75c0-1.116.522-2.11 1.335-2.75Zm.865 6-1.759 3.048a7 7 0 0 0 10.041-5.798h-3.518a3.5 3.5 0 0 1-4.764 2.75ZM3.135 24.305l.115-.015V21h1v3.265a7.99 7.99 0 0 1 3.064.812l1.628-2.82.866.5-1.627 2.819a7.976 7.976 0 0 1 2.243 2.243l2.819-1.627.5.866-2.82 1.628c.46.931.745 1.966.812 3.064H15v1h-3.29l-.015.114c-.009.072-.017.135-.022.186l-.995-.1c.007-.075.015-.14.023-.2H7.21c-.02.129-.047.252-.077.371l-.97-.242c.054-.215.087-.42.087-.629 0-1.407-1.093-2.5-2.5-2.5-.208 0-.414.033-.629.087l-.242-.97c.265-.067.556-.117.87-.117 1.79 0 3.23 1.285 3.467 3h3.517a6.969 6.969 0 0 0-6.983-6.5c-.14 0-.252.015-.391.035a7.761 7.761 0 0 1-.31.037l-.099-.995c.051-.005.114-.013.185-.023Zm23.923-2.047 1.628 2.82a7.99 7.99 0 0 1 3.064-.812V21h1v3.265c.097.006.193.014.29.023a.535.535 0 0 1 .053.008l.015.003h.002l-.012-.002a.498.498 0 0 0-.051-.008l-.094.996-.015-.002-.015-.002a7.195 7.195 0 0 0-.673-.031c-1.1 0-2.14.25-3.063.695l1.76 3.048c.4-.157.84-.243 1.303-.243.315 0 .605.05.871.117l-.242.97a2.575 2.575 0 0 0-.63-.087 2.467 2.467 0 0 0-2.5 2.5c0 .208.034.414.088.629l-.97.242a3.478 3.478 0 0 1 1.211-3.633l-1.758-3.044a6.973 6.973 0 0 0-3.07 5.806c0 .14.015.252.034.391.012.087.026.186.038.31l-.995.099c-.005-.051-.013-.114-.023-.185l-.015-.115H21v-1h3.266a7.99 7.99 0 0 1 .812-3.064l-2.82-1.628.5-.866 2.819 1.627a7.976 7.976 0 0 1 2.243-2.243l-1.627-2.819.866-.5ZM16.25 14.25a2.5 2.5 0 1 1 5 0 2.5 2.5 0 0 1-5 0Z" fill="#000"/></svg>