<svg width="36" height="36" viewBox="0 0 36 36" fill="none" xmlns="http://www.w3.org/2000/svg"><path fill-rule="evenodd" clip-rule="evenodd" d="M3.25 6.25h29.5v7h-.5c-2.274 0-4 1.726-4 4 0 2.273 1.726 4 4 4h.5v7H3.25v-22Zm1 1v20h27.5v-5.023c-2.578-.24-4.5-2.32-4.5-4.977 0-2.658 1.922-4.738 4.5-4.977V7.25H4.25Zm10.95 8.674a2.75 2.75 0 1 0-.78-.625l-2.62 3.276a2.75 2.75 0 1 0 .78.625l2.62-3.276Zm-.45-2.424a1.749 1.749 0 1 1 3.5 0 1.75 1.75 0 0 1-3.5 0Zm-4.25 5.75a1.75 1.75 0 1 0 0 3.5 1.75 1.75 0 0 0 0-3.5ZM24.25 7.5v.487h1V7.5h-1Zm0 1.462v.975h1v-.975h-1Zm0 1.95v.975h1v-.975h-1Zm0 1.95v.975h1v-.975h-1Zm0 1.95v.975h1v-.975h-1Zm0 1.95v.975h1v-.975h-1Zm0 1.95v.975h1v-.975h-1Zm0 1.95v.975h1v-.975h-1Zm0 1.95v.975h1v-.975h-1Zm0 1.95v.975h1v-.975h-1Zm0 1.95V27h1v-.488h-1Z" fill="#000"/></svg>