<svg width="48" height="48" viewBox="0 0 48 48" fill="none" xmlns="http://www.w3.org/2000/svg"><path fill-rule="evenodd" clip-rule="evenodd" d="M16 8c-1.227 0-2.668.487-3.63 1.28-.778.642-1.24 1.578-1.51 2.576-.27 1-.36 2.107-.36 3.146 0 1.573.459 3.04 1.252 4.18-2.31 1.505-4.172 3.986-5.487 6.789C4.857 28.972 4.05 32.39 4 35.49l-.008.51H12.752a24.914 24.914 0 0 0-.253 3.5v.5h23v-.5c0-1.142-.08-2.32-.243-3.502H44v-.5c0-3.02-.802-6.366-2.244-9.327a20.016 20.016 0 0 0-2.005-3.294c.44-.078.808-.152 1.103-.229a3.55 3.55 0 0 0 .574-.193c.156-.071.33-.175.454-.34a.758.758 0 0 0 .134-.637 1.233 1.233 0 0 0-.255-.483c-.207-.258-.544-.551-.942-.881-.76-.63-1.601-1.62-2.25-2.682-.657-1.075-1.069-2.142-1.069-2.933h-.016c-.206-3.295-2.427-6.002-5.484-6.002-2.682 0-4.707 2.1-5.3 4.829a4.84 4.84 0 0 0-2.7-.829c-.992 0-1.894.301-2.67.808-.085-.599-.204-1.221-.379-1.803-.261-.867-.669-1.719-1.35-2.251C18.656 8.516 17.266 8 16 8Zm21.225 9.07a6.82 6.82 0 0 1-1.133 2.327c1.078.695 2.061 1.578 2.939 2.59.695-.116 1.208-.211 1.571-.305.146-.038.258-.074.34-.106-.14-.161-.386-.38-.761-.691-.86-.713-1.77-1.792-2.465-2.93a11.516 11.516 0 0 1-.49-.885Zm-15.947-2.458c-.475.438-.878.99-1.18 1.627l1.326-.696h.002a1.165 1.165 0 0 1 1.225.087c.418.3 1.255.801 2.272 1.02.905.195 1.94.165 2.973-.422a5.27 5.27 0 0 0-1.174-1.616c-.757-.698-1.686-1.114-2.723-1.114-1.035 0-1.964.416-2.72 1.114Zm6.973 2.562c-1.24.658-2.485.68-3.538.454-1.199-.258-2.162-.84-2.646-1.186l-.001-.002a.165.165 0 0 0-.177-.011l-2.247 1.18a6.803 6.803 0 0 0-.142 1.393c0 .172.018.33.038.517l.02.186C19.84 22.425 21.71 24.5 24 24.5c2.273 0 4.121-2.062 4.437-4.746l.005-.049.018-.172c.022-.193.04-.356.04-.531 0-.646-.088-1.26-.249-1.828Zm-9.547 3.498c-.783.52-1.698.83-2.704.83-1.422 0-2.664-.586-3.605-1.544-2.148 1.362-3.939 3.697-5.225 6.438C5.896 29.11 5.138 32.183 5.015 35h7.9c.32-1.756.826-3.493 1.511-5.106 1.197-2.819 2.959-5.3 5.28-6.846a7.107 7.107 0 0 1-1.002-2.376Zm-6.878-8.555c.24-.888.621-1.605 1.18-2.065l5.979-.012c.438.342.768.954 1.009 1.751.127.423.223.877.297 1.335a7.807 7.807 0 0 1-.559-.582 14.434 14.434 0 0 1-.875-1.111l-.013-.018-.003-.004v-.001l-.027-.038-.032-.032a1.435 1.435 0 0 0-1.45-.355c-1.087.356-2.141.16-2.737-.019a1.441 1.441 0 0 0-1.432.363l-.048.047-.033.058v.001l-.003.004-.01.017-.041.069a9.365 9.365 0 0 1-.72 1.022 4.71 4.71 0 0 1-.705.72c.051-.398.124-.785.223-1.15Zm6.674 6.885c0-1.847.63-3.508 1.68-4.696a3.22 3.22 0 0 1-.326-.235 7.543 7.543 0 0 1-.874-.868 15.498 15.498 0 0 1-.928-1.176.432.432 0 0 0-.408-.092l-.156-.475.156.475c-1.364.447-2.648.196-3.337-.011h-.001a.437.437 0 0 0-.4.08l-.024.041a10.626 10.626 0 0 1-.799 1.134c-.252.31-.555.637-.883.89-.2.155-.433.301-.69.39-.007.18-.01.362-.01.543 0 3.153 2.013 5.5 4.5 5.5.953 0 1.814-.351 2.536-.95a5.267 5.267 0 0 1-.036-.55ZM16 9c-1.008 0-2.22.415-2.994 1.052l5.979-.012C18.208 9.434 17.032 9 16 9Zm12.288 14.042a7.199 7.199 0 0 0 1.004-2.373c.784.522 1.7.833 2.708.833 1.326 0 2.495-.509 3.41-1.354 2.26 1.41 4.127 3.752 5.447 6.462 1.301 2.672 2.053 5.664 2.135 8.39H35.1a24.094 24.094 0 0 0-1.448-5.014c-1.178-2.832-2.946-5.35-5.363-6.944Zm1.212-4.04c0-1.736-.558-3.308-1.496-4.477.555-.118 1.066-.404 1.498-.656l.265-.156c.288-.17.554-.328.824-.457.346-.166.642-.256.909-.256.051 0 .136.02.273.108.14.09.298.228.491.417.098.096.205.206.32.323.312.32.685.703 1.101 1.04.59.478 1.273.852 1.857 1.117.304.137.59.25.832.333-.477 2.457-2.253 4.164-4.374 4.164-.953 0-1.814-.351-2.535-.95.018-.17.035-.359.035-.55Zm7-4c0 .106-.002.212-.007.316a9.103 9.103 0 0 1-.538-.224c-.536-.243-1.139-.576-1.64-.982-.368-.299-.674-.613-.974-.92-.125-.129-.25-.256-.377-.38-.204-.2-.42-.397-.648-.544-.229-.148-.503-.268-.816-.268-.483 0-.937.16-1.341.354-.314.15-.631.338-.926.513l-.235.139c-.527.307-.951.514-1.328.563.506-2.41 2.24-4.071 4.33-4.071 2.487 0 4.5 2.35 4.5 5.504ZM24 25.5c.578 0 1.124-.101 1.632-.286l-1.047 1.546-.163.242.13.262.889 1.776L24 31.922l-1.441-2.882.888-1.776.13-.262-.163-.242-1.045-1.544a4.777 4.777 0 0 0 1.63.284ZM13 28h-2v-1h-1v1H9v1h4v-1Zm12.578-.922 2.165-3.198c2.2 1.454 3.858 3.781 4.985 6.49 1.126 2.71 1.706 5.768 1.766 8.63H13.505c.064-2.916.69-6.003 1.842-8.715 1.148-2.704 2.804-5 4.91-6.404l2.165 3.197-.87 1.739-.111.223.111.224 2 4 .448.894.447-.894 2-4 .112-.224-.112-.223-.87-1.739Z" fill="#000"/></svg>