<svg width="48" height="48" viewBox="0 0 48 48" fill="none" xmlns="http://www.w3.org/2000/svg"><path fill-rule="evenodd" clip-rule="evenodd" d="M34.987 10a3.014 3.014 0 0 1 6.028 0h-1.028a1.986 1.986 0 1 0-3.972 0v17.864c.37.085.796.136 1.313.136 1.53 0 2.27-.443 3.075-.926l.004-.003C41.268 26.555 42.197 26 44 26v1c-1.53 0-2.269.443-3.074.926l-.005.003c-.86.516-1.79 1.071-3.593 1.071s-2.732-.555-3.593-1.071l-.004-.003c-.805-.483-1.545-.926-3.074-.926s-2.267.443-3.072.926l-.005.003c-.86.516-1.788 1.071-3.59 1.071-1.802 0-2.729-.555-3.589-1.071l-.004-.003c-.804-.483-1.542-.926-3.069-.926-1.528 0-2.266.443-3.07.926l-.005.003c-.86.516-1.788 1.071-3.59 1.071-1.801 0-2.729-.555-3.589-1.071l-.004-.003C6.266 27.443 5.527 27 4 27v-1c1.801 0 2.73.555 3.589 1.071l.004.003c.805.483 1.543.926 3.07.926 1.528 0 2.267-.443 3.07-.926l.005-.003c.86-.516 1.788-1.071 3.59-1.071 1.801 0 2.729.555 3.588 1.071l.005.003c.804.483 1.542.926 3.069.926 1.48 0 2.22-.416 2.996-.881V10a3.014 3.014 0 0 1 6.029 0h-1.029a1.986 1.986 0 1 0-3.971 0v5.01h6.972V10Zm-6.972 5.99v5.02h6.972v-5.02h-6.972Zm0 6v4.557c.657-.31 1.462-.547 2.642-.547 1.803 0 2.732.555 3.593 1.071l.004.003c.243.145.479.287.733.414V21.99h-6.972ZM7.07 32.926C6.266 32.443 5.527 32 4 32v-1c1.801 0 2.73.555 3.589 1.071l.004.003c.805.483 1.543.926 3.07.926 1.528 0 2.267-.443 3.07-.926l.005-.003c.86-.516 1.788-1.071 3.59-1.071 1.801 0 2.729.555 3.588 1.071l.005.003c.804.483 1.542.926 3.069.926 1.528 0 2.267-.443 3.071-.926l.005-.003c.86-.516 1.788-1.071 3.59-1.071 1.804 0 2.733.555 3.594 1.071l.004.003c.805.483 1.545.926 3.074.926 1.53 0 2.27-.443 3.075-.926l.004-.003C41.268 31.555 42.197 31 44 31v1c-1.53 0-2.269.443-3.074.926l-.005.003c-.86.516-1.79 1.071-3.593 1.071s-2.732-.555-3.593-1.071l-.004-.003c-.805-.483-1.545-.926-3.074-.926s-2.267.443-3.072.926l-.005.003c-.86.516-1.788 1.071-3.59 1.071-1.802 0-2.729-.555-3.589-1.071l-.004-.003c-.804-.483-1.542-.926-3.069-.926-1.528 0-2.266.443-3.07.926l-.005.003c-.86.516-1.788 1.071-3.59 1.071-1.801 0-2.729-.555-3.589-1.071l-.004-.003ZM4 37.001c1.527 0 2.266.443 3.07.925l.004.003c.86.516 1.788 1.072 3.59 1.072 1.801 0 2.729-.556 3.589-1.072l.005-.003c.804-.482 1.542-.925 3.07-.925 1.527 0 2.265.443 3.069.925l.004.003c.86.516 1.787 1.072 3.588 1.072 1.803 0 2.73-.556 3.591-1.072l.005-.003c.805-.482 1.543-.925 3.072-.925 1.53 0 2.269.443 3.074.926l.004.002c.861.517 1.79 1.072 3.593 1.072 1.804 0 2.732-.555 3.593-1.072l.005-.002C41.73 37.444 42.47 37 44 37v-1c-1.803 0-2.732.555-3.593 1.07l-.004.003c-.806.483-1.545.927-3.075.927-1.53 0-2.269-.444-3.074-.927l-.004-.002C33.389 36.555 32.46 36 30.657 36s-2.73.556-3.591 1.072l-.005.002c-.804.483-1.543.927-3.072.927-1.526 0-2.264-.444-3.068-.926l-.005-.003C20.056 36.556 19.13 36 17.328 36c-1.802 0-2.73.556-3.59 1.072l-.004.002c-.804.483-1.543.927-3.07.927-1.528 0-2.266-.444-3.07-.926l-.005-.003C6.729 36.556 5.801 36 4 36v1Z" fill="#000"/></svg>