<svg class="color-immutable" xmlns="http://www.w3.org/2000/svg" width="16" height="16" fill="none" viewBox="0 0 16 16"><rect width="16" height="16" fill="#EB0000" rx="2"/><path fill="#fff" fill-rule="evenodd" d="M8.559 10.646a2.7 2.7 0 0 1-.709.104 2.7 2.7 0 0 1-.791-.13A2.74 2.74 0 0 1 5.1 8c0-1.239.83-2.278 1.959-2.62.252-.076.514-.13.791-.13.247 0 .481.043.709.105A2.745 2.745 0 0 1 10.6 8c0 1.27-.869 2.331-2.041 2.646m0-6.824V0h-1.5v3.83A4.25 4.25 0 0 0 3.6 8a4.25 4.25 0 0 0 3.459 4.17V16h1.5v-3.821C10.565 11.839 12.1 10.101 12.1 8c0-2.1-1.535-3.838-3.541-4.178" clip-rule="evenodd"/></svg>