<?xml version="1.0" encoding="utf-8"?>
<!-- Generator: Adobe Illustrator 24.2.0, SVG Export Plug-In . SVG Version: 6.00 Build 0)  -->
<svg version="1.0" id="Ebene_3" xmlns="http://www.w3.org/2000/svg" xmlns:xlink="http://www.w3.org/1999/xlink" x="0px" y="0px"
	 viewBox="0 0 24 24" enable-background="new 0 0 24 24" xml:space="preserve">
<g id="SVG_x5F_24x24pt">
	<path id="backgroundRed" fill="#9B2423" d="M0,22.5v-21C0,0.675,0.675,0,1.5,0h21C23.325,0,24,0.675,24,1.5v21
		c0,0.825-0.675,1.5-1.5,1.5h-21C0.675,24,0,23.325,0,22.5z"/>
	<g id="content">
		<path fill="#FFFFFF" d="M9.283,6.539V5.178l0.634-0.022l0.633-0.212v-0.89l-0.61-0.258L9.025,3.816V3H7.245v0.656H6.33
			L4.245,5.508c0,0-0.236,0.164-0.352,1.078c-0.117,0.914,0,1.382,0,1.382l0.751-0.022L4.69,6.796l0.938-0.959l1.312-0.51v1.211
			c-0.015,0-0.03,0.002-0.047,0.002C5.978,6.564,5.112,7.265,5.112,8.391V21h6.046V8.391C11.158,7.57,10.314,6.539,9.283,6.539z
			 M10.478,12.561H5.792V9.773h4.686V12.561z"/>
		<path fill="#FFFFFF" d="M20.101,12.082V9.798c0,0-0.517-0.131-1.055-0.814c-0.448-0.571-1.11-2.42-1.11-2.42
			s-0.578,1.913,0.186,3.375C18.985,11.596,20.101,12.082,20.101,12.082z"/>
		<path fill="#FFFFFF" d="M15.61,9.109c0.219,0.882,0.648,2.468,1.584,3.301c1.459,1.297,2.942,0.69,2.942,0.69
			s-1.12-0.398-1.77-1.515c-0.653-1.117-1.032-2.642-1.817-3.328c-1.083-0.952-1.936-0.597-1.936-0.597S15.36,8.095,15.61,9.109z"/>
		<path fill="#FFFFFF" d="M15.247,11.017c0,0-0.49,1.717,1.055,3.475c1.747,1.987,3.799,2.119,3.799,2.119v-2.285
			c0,0-1.352-0.123-2.61-0.977C15.799,12.201,15.247,11.017,15.247,11.017z"/>
		<path fill="#FFFFFF" d="M17.625,18.35c1.765,0.242,2.476-0.682,2.476-0.682s-0.796-0.075-1.843-0.737
			c-0.757-0.48-1.813-2.036-3.031-2.036c-1.402,0-1.644,0.541-1.644,0.541s0.652,0.129,1.26,0.585
			C15.718,16.678,16.18,18.151,17.625,18.35z"/>
		<path fill="#FFFFFF" d="M17.796,18.974c-1.235-0.115-2.647-1.227-2.647-1.227s0.006,1.116,0.96,2.188
			c0.955,1.071,2.122,1.056,2.506,1.064c0.349,0.009,1.487-0.022,1.487-0.022l-0.024-2.188
			C20.078,18.789,19.029,19.09,17.796,18.974z"/>
	</g>
</g>
</svg>
