<svg class="color-immutable" xmlns="http://www.w3.org/2000/svg" width="59" height="20" fill="none" viewBox="0 0 59 20"><path fill="#E84E10" fill-rule="evenodd" d="M2 0a2 2 0 0 0-2 2v16a2 2 0 0 0 2 2h55a2 2 0 0 0 2-2V2a2 2 0 0 0-2-2z" clip-rule="evenodd"/><path fill="#000" d="M14.153 4.17v2.142H7.98v2.476h5.657v1.991H7.98v2.849h6.284v2.142H5.45V4.17zM25.311 4.17l-3.856 11.6h-2.88l-3.8-11.6h2.65l2.61 8.688 2.65-8.688zM33.327 4.17v1.967q-.094.104-.563.643-.651.746-1.293 1.88a13 13 0 0 0-1 2.167q-.754 2.166-.913 4.943h-2.396q.024-1.309.453-2.904a19 19 0 0 1 1.198-3.19Q29.9 7.423 31.018 6.32h-5.554V4.17z"/></svg>