<?xml version="1.0" encoding="utf-8"?>
<!-- Generator: Adobe Illustrator 24.2.0, SVG Export Plug-In . SVG Version: 6.00 Build 0)  -->
<svg version="1.0" id="Ebene_1" xmlns="http://www.w3.org/2000/svg" xmlns:xlink="http://www.w3.org/1999/xlink" x="0px" y="0px"
	 viewBox="0 0 24 24" enable-background="new 0 0 24 24" xml:space="preserve">
<g id="SVG_x5F_24x24pt">
	<path id="backgroundBlue" fill="#2D327D" d="M0,22.5v-21C0,0.675,0.675,0,1.5,0h21C23.325,0,24,0.675,24,1.5v21
		c0,0.825-0.675,1.5-1.5,1.5h-21C0.675,24,0,23.325,0,22.5z"/>
	<g id="content">
		<path fill="#FFFFFF" d="M5.58,13.736l-2.25,2.25C3.119,16.197,3,16.483,3,16.782v2.644C3,19.632,3.168,19.8,3.375,19.8H3.75
			v-0.431c0-1.242,1.008-2.25,2.25-2.25c1.242,0,2.25,1.008,2.25,2.25V19.8h7.463v-0.431c0-1.242,1.008-2.25,2.25-2.25
			c1.242,0,2.25,1.008,2.25,2.25V19.8h0.412l0,0c0.207,0,0.375-0.168,0.375-0.375v-2.338c0-0.195-0.149-0.358-0.344-0.374
			l-4.387-0.364l-2.614-2.614c-0.211-0.211-0.497-0.329-0.795-0.329H6.375C6.077,13.406,5.791,13.525,5.58,13.736L5.58,13.736z
			 M10.085,14.494L10.085,14.494c0-0.207,0.168-0.375,0.375-0.375h2.362c0.1,0,0.195,0.04,0.265,0.11l1.793,1.794
			c0.042,0.042,0.066,0.099,0.066,0.159c0,0.124-0.101,0.225-0.225,0.225h-4.259c-0.207,0-0.375-0.167-0.375-0.374L10.085,14.494
			L10.085,14.494z M4.513,16.406c-0.124,0-0.225-0.101-0.225-0.225c0-0.06,0.024-0.117,0.066-0.159l1.793-1.794
			c0.07-0.07,0.166-0.11,0.265-0.11h2.585c0.207,0,0.375,0.168,0.375,0.375v1.537c0,0.207-0.168,0.375-0.375,0.375H4.513
			L4.513,16.406z"/>
		<path fill-rule="evenodd" clip-rule="evenodd" fill="#FFFFFF" d="M5.984,20.336c-0.518,0-0.937-0.42-0.937-0.937
			c0-0.518,0.42-0.937,0.937-0.937s0.937,0.42,0.937,0.937C6.921,19.916,6.501,20.336,5.984,20.336L5.984,20.336z M6.005,17.678
			c-0.942,0-1.706,0.765-1.706,1.706c0,0.942,0.765,1.706,1.706,1.706c0.942,0,1.706-0.764,1.706-1.706
			C7.711,18.443,6.946,17.678,6.005,17.678L6.005,17.678z"/>
		<path fill-rule="evenodd" clip-rule="evenodd" fill="#FFFFFF" d="M17.961,20.336c-0.518,0-0.938-0.42-0.938-0.937
			c0-0.518,0.42-0.937,0.938-0.937c0.517,0,0.937,0.42,0.937,0.937C18.898,19.916,18.478,20.336,17.961,20.336L17.961,20.336z
			 M17.961,17.692c-0.942,0-1.706,0.765-1.706,1.706c0,0.942,0.764,1.706,1.706,1.706c0.942,0,1.706-0.764,1.706-1.706
			C19.667,18.457,18.903,17.692,17.961,17.692L17.961,17.692z"/>
		<g>
			<path fill="#FFFFFF" d="M5.213,4.381C5.197,4.614,5.119,4.813,4.98,4.978C4.797,5.194,4.539,5.303,4.204,5.303
				c-0.356,0-0.633-0.126-0.831-0.377C3.205,4.711,3.12,4.444,3.12,4.123c0-0.336,0.1-0.617,0.301-0.841
				C3.622,3.058,3.89,2.946,4.223,2.946c0.311,0,0.561,0.103,0.751,0.308c0.135,0.145,0.21,0.311,0.225,0.5H4.713
				C4.687,3.627,4.63,3.528,4.543,3.459C4.456,3.39,4.345,3.355,4.212,3.355c-0.213,0-0.373,0.09-0.478,0.269
				C3.655,3.761,3.615,3.928,3.615,4.126c0,0.203,0.042,0.372,0.125,0.508c0.106,0.173,0.262,0.26,0.469,0.26
				c0.148,0,0.265-0.044,0.353-0.131C4.65,4.675,4.704,4.548,4.724,4.381H5.213z"/>
			<path fill="#FFFFFF" d="M7.01,5.249H6.555C6.535,5.183,6.525,5.127,6.525,5.081c-0.139,0.143-0.319,0.214-0.54,0.214
				c-0.172,0-0.307-0.04-0.403-0.12C5.472,5.083,5.416,4.954,5.416,4.789c0-0.21,0.095-0.356,0.285-0.437
				c0.077-0.033,0.218-0.063,0.425-0.091c0.177-0.024,0.288-0.046,0.331-0.068C6.5,4.171,6.522,4.126,6.522,4.06
				c0-0.147-0.097-0.22-0.292-0.22c-0.104,0-0.179,0.018-0.227,0.055C5.955,3.932,5.924,3.996,5.909,4.087H5.487
				C5.5,3.901,5.571,3.76,5.698,3.665C5.825,3.57,6.006,3.523,6.241,3.523c0.259,0,0.451,0.053,0.575,0.158
				C6.873,3.731,6.912,3.783,6.931,3.84C6.95,3.896,6.959,3.985,6.959,4.107c0,0.026-0.002,0.138-0.005,0.338
				C6.952,4.648,6.951,4.764,6.951,4.793c0,0.122,0.004,0.211,0.011,0.268C6.969,5.119,6.985,5.181,7.01,5.249z M6.519,4.438
				C6.462,4.474,6.357,4.502,6.205,4.523C6.099,4.539,6.022,4.56,5.975,4.586c-0.067,0.036-0.1,0.097-0.1,0.183
				c0,0.07,0.022,0.124,0.066,0.163C5.985,4.971,6.046,4.99,6.125,4.99c0.131,0,0.237-0.046,0.318-0.138
				C6.472,4.82,6.492,4.787,6.503,4.753c0.011-0.034,0.016-0.08,0.016-0.136V4.438z"/>
			<path fill="#FFFFFF" d="M8.346,3.541v0.432c-0.072-0.013-0.13-0.02-0.174-0.02c-0.166,0-0.288,0.07-0.366,0.209
				C7.762,4.241,7.74,4.371,7.74,4.553v0.695H7.294v-1.68h0.425v0.306C7.84,3.648,8.016,3.534,8.246,3.534
				C8.275,3.534,8.308,3.536,8.346,3.541z"/>
			<path fill="#FFFFFF" d="M11.113,3.666h-0.468c-0.009-0.11-0.05-0.194-0.122-0.251c-0.072-0.058-0.174-0.087-0.304-0.087
				c-0.116,0-0.206,0.023-0.27,0.068C9.886,3.442,9.854,3.506,9.854,3.588c0,0.074,0.031,0.127,0.092,0.16
				c0.059,0.033,0.21,0.079,0.452,0.138c0.255,0.064,0.432,0.128,0.531,0.192c0.181,0.119,0.272,0.285,0.272,0.497
				c0,0.233-0.091,0.416-0.274,0.551c-0.161,0.118-0.379,0.177-0.654,0.177c-0.306,0-0.543-0.07-0.712-0.209
				C9.392,4.954,9.305,4.755,9.298,4.498h0.489c0.007,0.125,0.039,0.218,0.097,0.278c0.09,0.096,0.226,0.145,0.408,0.145
				c0.123,0,0.22-0.024,0.292-0.072c0.081-0.055,0.122-0.131,0.122-0.226c0-0.095-0.057-0.165-0.171-0.209
				c-0.063-0.025-0.21-0.069-0.443-0.134C9.947,4.24,9.833,4.202,9.751,4.166C9.669,4.13,9.603,4.09,9.554,4.046
				C9.439,3.943,9.382,3.802,9.382,3.621c0-0.216,0.09-0.388,0.269-0.514C9.803,3,10.002,2.946,10.246,2.946
				c0.214,0,0.394,0.043,0.538,0.128C10.992,3.196,11.102,3.393,11.113,3.666z"/>
			<path fill="#FFFFFF" d="M11.941,3v0.8c0.049-0.088,0.119-0.157,0.21-0.207c0.091-0.05,0.191-0.075,0.301-0.075
				c0.225,0,0.386,0.079,0.483,0.238c0.056,0.092,0.085,0.234,0.085,0.425v1.067h-0.445V4.261c0-0.123-0.017-0.208-0.051-0.255
				c-0.05-0.07-0.129-0.105-0.235-0.105c-0.14,0-0.241,0.062-0.301,0.185c-0.018,0.038-0.031,0.079-0.037,0.125
				c-0.006,0.045-0.009,0.117-0.009,0.217v0.821h-0.446V3H11.941z"/>
			<path fill="#FFFFFF" d="M14.882,5.249h-0.455c-0.019-0.066-0.029-0.122-0.029-0.168c-0.139,0.143-0.319,0.214-0.54,0.214
				c-0.172,0-0.307-0.04-0.403-0.12c-0.111-0.092-0.166-0.221-0.166-0.386c0-0.21,0.095-0.356,0.285-0.437
				c0.077-0.033,0.218-0.063,0.425-0.091c0.177-0.024,0.288-0.046,0.331-0.068c0.044-0.022,0.065-0.066,0.065-0.133
				c0-0.147-0.097-0.22-0.292-0.22c-0.104,0-0.179,0.018-0.227,0.055c-0.048,0.037-0.079,0.101-0.095,0.192h-0.421
				c0.013-0.187,0.084-0.327,0.211-0.422c0.127-0.095,0.308-0.142,0.543-0.142c0.259,0,0.451,0.053,0.575,0.158
				c0.057,0.049,0.096,0.102,0.115,0.158c0.019,0.056,0.028,0.146,0.028,0.268c0,0.026-0.002,0.138-0.005,0.338
				c-0.002,0.202-0.003,0.318-0.003,0.348c0,0.122,0.004,0.211,0.011,0.268C14.841,5.119,14.857,5.181,14.882,5.249z M14.391,4.438
				c-0.057,0.036-0.162,0.064-0.314,0.085c-0.107,0.016-0.184,0.037-0.231,0.063c-0.067,0.036-0.1,0.097-0.1,0.183
				c0,0.07,0.022,0.124,0.066,0.163c0.044,0.039,0.106,0.058,0.185,0.058c0.131,0,0.237-0.046,0.318-0.138
				c0.029-0.032,0.048-0.065,0.059-0.099c0.011-0.034,0.016-0.08,0.016-0.136V4.438z"/>
			<path fill="#FFFFFF" d="M16.218,3.541v0.432c-0.072-0.013-0.13-0.02-0.174-0.02c-0.166,0-0.288,0.07-0.366,0.209
				c-0.044,0.078-0.066,0.208-0.066,0.391v0.695h-0.446v-1.68h0.425v0.306c0.121-0.228,0.297-0.341,0.528-0.341
				C16.147,3.534,16.18,3.536,16.218,3.541z"/>
			<path fill="#FFFFFF" d="M16.875,3v0.401h-0.446V3H16.875z M16.875,3.572v1.677h-0.446V3.572H16.875z"/>
			<path fill="#FFFFFF" d="M17.655,3.574v0.235c0.052-0.072,0.101-0.125,0.146-0.158c0.111-0.086,0.244-0.129,0.4-0.129
				c0.137,0,0.254,0.035,0.349,0.105c0.076,0.055,0.129,0.125,0.159,0.21c0.03,0.085,0.045,0.204,0.045,0.358v1.055H18.31V4.287
				c0-0.108-0.009-0.187-0.028-0.237c-0.017-0.044-0.047-0.079-0.089-0.105c-0.048-0.028-0.103-0.042-0.165-0.042
				c-0.068,0-0.129,0.016-0.185,0.049c-0.055,0.033-0.096,0.077-0.123,0.134c-0.03,0.064-0.045,0.163-0.045,0.297v0.864H17.23V3.574
				H17.655z"/>
			<path fill="#FFFFFF" d="M20.671,3.569v1.48c0,0.131-0.008,0.236-0.025,0.315c-0.016,0.078-0.045,0.15-0.085,0.215
				c-0.129,0.205-0.361,0.308-0.695,0.308c-0.466,0-0.72-0.176-0.764-0.528h0.449c0.031,0.14,0.139,0.211,0.325,0.211
				c0.142,0,0.24-0.04,0.297-0.12c0.044-0.064,0.066-0.166,0.066-0.308l0.002-0.208c-0.115,0.176-0.281,0.265-0.498,0.265
				c-0.21,0-0.378-0.074-0.503-0.221c-0.127-0.15-0.191-0.352-0.191-0.606c0-0.254,0.064-0.458,0.191-0.612
				c0.132-0.159,0.306-0.238,0.521-0.238c0.112,0,0.205,0.021,0.28,0.063c0.075,0.042,0.144,0.112,0.206,0.211V3.569H20.671z
				 M19.86,3.886c-0.125,0-0.22,0.052-0.285,0.157c-0.052,0.084-0.078,0.191-0.078,0.32c0,0.164,0.038,0.289,0.114,0.374
				c0.066,0.076,0.151,0.114,0.257,0.114c0.133,0,0.233-0.056,0.3-0.168c0.051-0.086,0.077-0.195,0.077-0.326
				c0-0.158-0.039-0.28-0.118-0.366C20.062,3.921,19.973,3.886,19.86,3.886z"/>
		</g>
	</g>
</g>
</svg>
