<svg xmlns="http://www.w3.org/2000/svg" width="16" height="16" fill="none" viewBox="0 0 16 16"><path fill="#000" fill-rule="evenodd" d="M5.231 3c-.643 0-1.23.578-1.23 1.375V7h8V4.375C12 3.578 11.411 3 10.77 3H5.23M7 2H5.231c-1.27 0-2.23 1.103-2.23 2.375L3 12.5v.5h1.146l-.728 1.295.872.49L5.293 13h5.417l1.018 1.788.869-.495L11.861 13H13V4.375C13 3.103 12.04 2 10.77 2H9V1H7v1m5 10H4V8h8zm-1.994-3C9.456 9 9 9.444 9 10c0 .558.457 1 1.006 1 .55 0 1.007-.442 1.007-1 0-.556-.456-1-1.007-1M5 10c0-.556.456-1 1.006-1s1.007.444 1.007 1c0 .558-.457 1-1.007 1S5 10.558 5 10" clip-rule="evenodd"/></svg>