<svg width="36" height="36" viewBox="0 0 36 36" fill="none" xmlns="http://www.w3.org/2000/svg"><path fill-rule="evenodd" clip-rule="evenodd" d="m16.25 10.793 3.647-3.647.707.708-4.5 4.5-.354.353-.353-.353-4.5-4.5.707-.708 3.646 3.647V3h1v7.793Zm6.706 1.457h6.809v7.5h4.424l-.257.677-3.976 10.5-.122.323H6.265v-.5l-.015-15v-.5h15.206l1.362-2.723.138-.277Zm5.809 7.5v-6.5h-5.191l-1.362 2.724-.138.276H7.25l.012 11.953 3.315-8.141.127-.312h18.061ZM7.508 30.25h21.635l3.598-9.5H11.376l-3.868 9.5Z" fill="#000"/></svg>