<svg xmlns="http://www.w3.org/2000/svg" width="36" height="36" fill="none" viewBox="0 0 36 36"><path fill="#000" fill-rule="evenodd" d="M18 5.75A12.214 12.214 0 0 0 5.75 18c0 6.792 5.457 12.25 12.25 12.25S30.25 24.792 30.25 18c0-6.793-5.457-12.25-12.25-12.25M4.75 18c0-7.345 5.904-13.25 13.25-13.25S31.25 10.655 31.25 18 25.346 31.25 18 31.25A13.215 13.215 0 0 1 4.75 18m11.936 8.987h2.595v-2.5h-2.595zM13.467 11.37q-.794 1.227-.878 3.459h2.067q.25-3.939 3.46-3.939 1.547 0 2.341.997.66.817.66 2.018 0 .648-.228 1.274-.275.733-1.165 1.645-1.38 1.418-1.784 1.933a3.9 3.9 0 0 0-.618 1.166q-.3.89-.324 2.727h2.041q0-1.035.12-1.681.11-.65.379-1.088.27-.439.955-1.1 1.55-1.513 1.958-2.077.912-1.238.913-2.955-.001-2.078-1.346-3.351-1.442-1.381-3.878-1.381-1.515 0-2.728.612a4.9 4.9 0 0 0-1.945 1.741" clip-rule="evenodd"/></svg>