<svg xmlns="http://www.w3.org/2000/svg" width="24" height="24" fill="none" viewBox="0 0 24 24"><path fill="#000" fill-rule="evenodd" d="M6.918 4.007c2.276-.38 4.141.831 5.082 1.753.94-.922 2.807-2.132 5.082-1.753C20.372 4.555 22 7.309 22 10c0 1.863-.94 3.593-1.386 4.412.271.285.63.699.886 1.158.176.318.325.696.336 1.096.011.421-.132.837-.482 1.188-.735.734-1.641.499-2.203.218a4 4 0 0 1-.67-.428q-.096.071-.218.157c-.35.244-.852.567-1.468.892C15.571 19.336 13.863 20 12 20s-3.571-.663-4.795-1.308a14 14 0 0 1-1.687-1.048c-.17.133-.402.294-.67.428-.56.281-1.467.516-2.202-.218a1.58 1.58 0 0 1-.482-1.188c.011-.4.16-.778.336-1.096.255-.46.615-.873.886-1.158C2.94 13.592 2 11.862 2 10c0-2.69 1.627-5.445 4.918-5.993m11.936 12.64-.001-.001-.322-.322-.35.292h-.001l-.005.004-.022.018-.094.073a10 10 0 0 1-.369.27 13 13 0 0 1-1.36.826C15.179 18.414 13.637 19 12 19s-3.179-.587-4.33-1.192c-.571-.301-1.038-.602-1.36-.827a10 10 0 0 1-.463-.343l-.022-.018-.004-.004H5.82l-.35-.292-.323.322-.001.001-.009.008-.04.037a3.4 3.4 0 0 1-.696.486c-.438.219-.782.234-1.047-.032a.58.58 0 0 1-.19-.453c.005-.177.075-.393.21-.638.274-.492.724-.946.98-1.201l.254-.255-.16-.323a15 15 0 0 0-.2-.376C3.79 13.05 3 11.583 3 10c0-2.31 1.373-4.555 4.082-5.007 2.146-.357 3.916 1.055 4.528 1.82L12 7.3l.39-.488c.612-.764 2.382-2.176 4.528-1.819C19.628 5.445 21 7.691 21 10c0 1.582-.79 3.05-1.249 3.9q-.117.216-.198.376l-.161.323.254.255c.256.255.706.709.98 1.201q.203.37.21.638a.58.58 0 0 1-.19.453c-.265.266-.61.251-1.047.032a3.1 3.1 0 0 1-.736-.523zM6.777 8.416c.636-.424 1.146-.43 1.508-.315a1.4 1.4 0 0 1 .562.345l-2.68 2.68A3.7 3.7 0 0 1 6 10.064c0-.668.212-1.27.777-1.647m3.17-.14c-.224-.449-.703-.918-1.357-1.127-.68-.218-1.503-.141-2.367.435C5.288 8.207 5 9.188 5 10.063c0 .862.275 1.701.571 2.194l.33.55.453-.453 3.5-3.5.254-.255zm7.83-.692c-.864-.576-1.688-.653-2.367-.435-.654.21-1.133.678-1.357 1.127l-.161.323.254.255 3.5 3.5.453.452.33-.549c.296-.493.571-1.332.57-2.194 0-.875-.287-1.856-1.222-2.479m.057 3.543-2.68-2.681a1.4 1.4 0 0 1 .56-.345c.363-.116.873-.109 1.509.315.565.377.777.98.777 1.646 0 .378-.07.75-.166 1.065m-5.505-.503-.33-.288-.328.288-4 3.5-.291.254.173.346C7.967 15.552 9.403 17 12 17s4.033-1.448 4.447-2.276l.173-.346-.29-.254zM12 16c-1.821 0-2.888-.835-3.344-1.408L12 11.664l3.345 2.928C14.89 15.165 13.822 16 12 16" clip-rule="evenodd"/></svg>