<svg xmlns="http://www.w3.org/2000/svg" width="24" height="24" fill="none" viewBox="0 0 24 24"><path fill="#000" d="M11.9 9c1.739 0 3 1.656 3 3.5 0 .854-.274 1.665-.737 2.292 2.269 1.059 3.737 3.76 3.737 6.708v.5h-12v-.5c0-2.972 1.486-5.58 3.748-6.69A3.88 3.88 0 0 1 8.9 12.5c0-1.844 1.262-3.5 3-3.5m1.477 6.55a2.655 2.655 0 0 1-2.946.007C8.514 16.313 7.08 18.4 6.917 21h9.967c-.165-2.624-1.61-4.773-3.507-5.45M6.4 17H4.738l-.874 2.186-.927-.372 1-2.5.125-.314H6.4zm13.464-.686 1 2.5-.928.372L19.063 17H17.4v-1h2.34zm2.13-13.732-2 12-.07.418H15.9v-1h3.176L20.91 3H3.063l1.282 11H8v1H3.455l-.052-.442-1.4-12L1.938 2H22.09zM11.9 10c-1.023 0-2 1.03-2 2.5s.977 2.5 2 2.5 2-1.03 2-2.5-.977-2.5-2-2.5m2.288-5H15.4v1h-.742l.47 1H16.4v1h-.8l.47 1h1.33v1h-.859l.47 1h1.39v1h-.919l.37.787-.904.426-.57-1.213H15.9v-1h.007l-.47-1H14.9V9h.066l-.47-1H9l-.412 1H8.9v1h-.724l-.411 1H7.9v1h-.547l-.49 1.19-.925-.38.333-.81h-.87v-1h1.283l.412-1H6.4V9h1.107l.412-1H7.4V7h.931l.411-1H8.4V5h.754l.284-.69.924.38-.128.31h2.849l-.135-.287.904-.426zM9.412 7h4.613l-.47-1h-3.73z"/></svg>