<svg xmlns="http://www.w3.org/2000/svg" width="24" height="24" viewBox="0 0 24 24">
  <path fill="none" stroke="#000" d="M11.5,19.5 L5.5,19.5 L3.5,11.5 L13.5,11.5 L11.5,19.5 Z M12.75,14.5 L9,14.5 M17.5,3 L17.5,12.5 M16.5,17 L16.5,19.5 M18.5,16 L18.5,19.5 M4.5,11.5 C4.5,10.396 5.396,9.5 6.5,9.5 C7.604,9.5 8.5,10.396 8.5,11.5 M11.5,8.5 C11.5,9.052 11.052,9.5 10.5,9.5 C9.948,9.5 9.5,9.052 9.5,8.5 C9.5,7.948 9.948,7.5 10.5,7.5 C11.052,7.5 11.5,7.948 11.5,8.5 Z M6.5,7 C6.5,7.276 6.276,7.5 6,7.5 C5.724,7.5 5.5,7.276 5.5,7 C5.5,6.724 5.724,6.5 6,6.5 C6.276,6.5 6.5,6.724 6.5,7 Z M17.5,12.5 C15.843,12.5 14.5,13.843 14.5,15.5 L14.5,19.5 L20.5,19.5 L20.5,15.5 C20.5,13.843 19.157,12.5 17.5,12.5 Z"/>
</svg>
