<svg xmlns="http://www.w3.org/2000/svg" width="36" height="36" fill="none" viewBox="0 0 36 36"><path fill="#000" fill-rule="evenodd" d="M5.25 6.25h-.36l-.114.342-1.5 4.5-.22.658h.194v.252a2.75 2.75 0 0 0 1.5 2.45V29.75h16V14.452a2.75 2.75 0 0 0 1.5-2.45v-.252h.194l-.22-.658-1.5-4.5-.114-.342H5.25m16 5.5h-3.5v.252a1.75 1.75 0 1 0 3.5 0zm-4.5 0h-3.5v.252a1.75 1.75 0 1 0 3.5 0zm-4.5 0h-3.5v.252a1.75 1.75 0 1 0 3.5 0zm-4.5 0h-3.5v.252a1.75 1.75 0 1 0 3.5 0zm-3.306-1 1.166-3.5h14.28l1.166 3.5zM19.5 14.752q.127 0 .25-.012v14.01h-14V14.74q.123.011.25.011c.93 0 1.752-.461 2.25-1.168a2.75 2.75 0 0 0 2.25 1.168c.93 0 1.752-.461 2.25-1.168A2.75 2.75 0 0 0 15 14.751c.93 0 1.752-.461 2.25-1.168a2.75 2.75 0 0 0 2.25 1.168m4.04 4.998h2.21V18.5a2 2 0 1 1 4 0v1.25h2.21l.038.459.75 9 .046.541H22.707l.045-.541.75-9zm5.21 0V18.5a1 1 0 0 0-2 0v1.25zm-4.29 1-.666 8h7.913l-.667-8z" clip-rule="evenodd"/></svg>