<svg class="color-immutable" xmlns="http://www.w3.org/2000/svg" width="59" height="20" fill="none" viewBox="0 0 59 20"><g clip-path="url(#a)"><path stroke="#FFDE15" d="M2 .5h55A1.5 1.5 0 0 1 58.5 2v16a1.5 1.5 0 0 1-1.5 1.5H2A1.5 1.5 0 0 1 .5 18V2A1.5 1.5 0 0 1 2 .5Z"/><path fill="#FFDE15" d="M4.16 4.235h5.6q1.662 0 2.547.522.735.428 1.124 1.14.387.712.387 1.605 0 1.012-.49 1.764-.483.752-1.353 1.076a1.95 1.95 0 0 1 1.203.854q.276.42.371.878.095.459.245 2.097.111 1.202.34 1.495l.111.134h-2.634a2 2 0 0 1-.197-.625q-.056-.38-.15-1.756-.095-1.226-.602-1.693-.498-.474-1.709-.474h-2.27V15.8H4.16zm2.523 1.986V9.4h2.413q1.162 0 1.637-.333.601-.418.601-1.265 0-.824-.514-1.203T9.2 6.22zM24.647 4.235v2.136h-6.154V8.84h5.64v1.986h-5.64v2.84h6.265V15.8H15.97V4.235zM36.251 4.235V15.8h-2.539l-4.84-7.879.03 7.879h-2.428V4.235h2.571l4.81 7.863-.032-7.863zM39.716 9.59q-.807-.276-1.242-.91-.427-.632-.427-1.534 0-1.502 1.234-2.396 1.092-.792 2.595-.792 1.709 0 2.792.942 1.028.885 1.028 2.19 0 .91-.435 1.56-.435.648-1.234.94.626.182 1.02.467 1.1.799 1.1 2.334 0 1.764-1.353 2.808-1.139.878-2.926.878-1.938 0-3.085-.965-1.195-1.005-1.195-2.634 0-1.527 1.06-2.365a2.9 2.9 0 0 1 1.068-.522m2.128-3.836q-.76 0-1.226.427-.467.42-.467 1.108 0 .72.467 1.155.474.426 1.265.427.791 0 1.25-.427.459-.428.459-1.163 0-.72-.467-1.123-.459-.405-1.281-.404m-.016 4.707q-.855 0-1.4.53-.538.522-.538 1.344 0 .847.546 1.377.553.53 1.432.53.996 0 1.495-.586.482-.56.482-1.297 0-.839-.553-1.376-.531-.522-1.464-.522"/></g><defs><clipPath id="a"><path fill="#fff" d="M0 0h59v20H0z"/></clipPath></defs></svg>