<svg class="color-immutable" xmlns="http://www.w3.org/2000/svg" width="59" height="20" fill="none" viewBox="0 0 59 20"><g clip-path="url(#a)"><path fill="#EB0000" fill-rule="evenodd" d="M2 0a2 2 0 0 0-2 2v16a2 2 0 0 0 2 2h55a2 2 0 0 0 2-2V2a2 2 0 0 0-2-2z" clip-rule="evenodd"/><path fill="#fff" d="M9.22 4.2h4.057L8.259 15.8H4.186zM15.948 4.2h14.395l-1.49 3.445h-10.28l-2.042 4.71h10.285l-1.49 3.445H10.93zM36.538 12.896h2.183q.27 1.344 1.558 1.344.727 0 1.179-.49.459-.498.704-1.543a10 10 0 0 0 .23-1.51q-.531.743-1.092 1.06-.554.308-1.353.308-1.273 0-2.215-.744a3.54 3.54 0 0 1-1.028-1.352 4.4 4.4 0 0 1-.364-1.804q0-1.953 1.337-3.164 1.147-1.044 2.753-1.044.989 0 1.827.443a3.96 3.96 0 0 1 1.408 1.258q1.005 1.447 1.005 4.066 0 2.42-.887 4.129-1.155 2.222-3.496 2.222-1.558 0-2.578-.862-1.014-.862-1.171-2.317m3.844-6.985q-.743 0-1.258.609-.514.616-.514 1.566 0 .768.372 1.36.507.816 1.424.815.831 0 1.329-.664.466-.625.467-1.487 0-.91-.483-1.543a1.6 1.6 0 0 0-1.337-.656M53.402 4.234v1.962q-.094.103-.561.64-.65.743-1.29 1.875-.641 1.124-.996 2.16-.752 2.16-.91 4.928h-2.389q.024-1.305.451-2.896.435-1.59 1.194-3.18 1.084-2.245 2.2-3.345h-5.459V4.234z"/></g><defs><clipPath id="a"><path fill="#fff" d="M0 0h59v20H0z"/></clipPath></defs></svg>