<svg xmlns="http://www.w3.org/2000/svg" width="48" height="48" fill="none" viewBox="0 0 48 48"><path fill="#000" fill-rule="evenodd" d="M3 24C3 12.401 12.401 3 24 3s21 9.401 21 21-9.401 21-21 21S3 35.599 3 24M24 2C11.85 2 2 11.85 2 24s9.85 22 22 22 22-9.85 22-22S36.15 2 24 2m8.224 13.553-.382-.191-.249.347-9.718 13.606-5.598-3.731-.47-.314-.254.506-1 2-.198.395.368.245 7.5 5 .401.268.282-.392 11.5-16 .343-.477-.525-.262zM22.407 30.29l9.751-13.653 1.093.547-10.875 15.131-6.731-4.487.549-1.099 5.529 3.686.402.269z" clip-rule="evenodd"/></svg>