<svg xmlns="http://www.w3.org/2000/svg" width="36" height="36" version="1.1" viewBox="0 0 36 36">
  <path fill="none" fill-rule="evenodd" stroke="#000" stroke-width="1" d="M32.25,12.0396 L32.25,32.2896 L3.75,32.2896 L3.75,12.0396 M32.25,9.75 L3.75,9.75 L3.75,5.2965 C3.75,4.887 3.9135,4.4925 4.203,4.203 C4.494,3.912 4.887,3.75 5.2965,3.75 L30.7035,3.75 C31.113,3.75 31.506,3.912 31.797,4.203 C32.0865,4.4925 32.25,4.887 32.25,5.2965 L32.25,9.75 Z M21,9.75 L24,3.75 M12,9.75 L15,3.75 M14.25,16.5 L22.5,21 L14.25,25.5 L14.25,16.5 Z"/>
</svg>
