<svg class="color-immutable" width="19" height="16" viewBox="0 0 19 16" fill="none" xmlns="http://www.w3.org/2000/svg"><path fill-rule="evenodd" clip-rule="evenodd" d="M2.5 3C3.327 3 4 2.327 4 1.5S3.327 0 2.5 0 1 .673 1 1.5 1.673 3 2.5 3ZM0 4v6h1v6h3v-6h1V4H0ZM9.504 3c.827 0 1.5-.673 1.5-1.5S10.33 0 9.504 0s-1.5.673-1.5 1.5.673 1.5 1.5 1.5ZM7.004 4v6h1v6h3v-6h1V4h-5Z" fill="#fff"/><mask id="a" fill="#fff"><path fill-rule="evenodd" clip-rule="evenodd" d="M16.508 3c.827 0 1.5-.673 1.5-1.5s-.673-1.5-1.5-1.5-1.5.673-1.5 1.5.673 1.5 1.5 1.5Z"/></mask><path d="M16.508 4c1.379 0 2.5-1.12 2.5-2.5h-2c0 .275-.226.5-.5.5v2Zm2.5-2.5c0-1.38-1.121-2.5-2.5-2.5v2c.274 0 .5.225.5.5h2Zm-2.5-2.5c-1.38 0-2.5 1.12-2.5 2.5h2c0-.275.225-.5.5-.5v-2Zm-2.5 2.5c0 1.38 1.12 2.5 2.5 2.5V2a.502.502 0 0 1-.5-.5h-2Z" fill="#fff" mask="url(#a)"/><path d="M15.5 10v-.5h-1v-5h4v5h-1v6h-2V10Z" stroke="#fff"/></svg>