<?xml version="1.0" encoding="utf-8"?>
<!-- Generator: Adobe Illustrator 24.2.0, SVG Export Plug-In . SVG Version: 6.00 Build 0)  -->
<svg version="1.0" id="Ebene_1" xmlns="http://www.w3.org/2000/svg" xmlns:xlink="http://www.w3.org/1999/xlink" x="0px" y="0px"
	 viewBox="0 0 24 24" enable-background="new 0 0 24 24" xml:space="preserve">
<g id="SVG_x5F_24x24pt">
	<path id="backgroundBlue" fill="#2D327D" d="M0,22.5v-21C0,0.675,0.675,0,1.5,0h21C23.325,0,24,0.675,24,1.5v21
		c0,0.825-0.675,1.5-1.5,1.5h-21C0.675,24,0,23.325,0,22.5z"/>
	<g id="content_1_">
		<g>
			<path fill="#FFFFFF" d="M17.56,7.508V10h-4.097v11h-2.944V10H6.44V7.508H17.56z"/>
		</g>
		<g>
			<path fill="#FFFFFF" d="M5.213,4.381C5.197,4.614,5.119,4.813,4.98,4.978C4.797,5.194,4.539,5.303,4.204,5.303
				c-0.356,0-0.633-0.126-0.831-0.377C3.205,4.711,3.12,4.444,3.12,4.123c0-0.336,0.1-0.617,0.301-0.841
				C3.622,3.058,3.89,2.946,4.223,2.946c0.311,0,0.561,0.103,0.751,0.308c0.135,0.145,0.21,0.311,0.225,0.5H4.713
				C4.687,3.626,4.63,3.528,4.543,3.459S4.345,3.355,4.212,3.355c-0.213,0-0.373,0.09-0.478,0.269
				C3.655,3.761,3.615,3.928,3.615,4.126c0,0.203,0.042,0.372,0.125,0.508c0.106,0.173,0.262,0.26,0.469,0.26
				c0.148,0,0.265-0.044,0.353-0.131C4.65,4.675,4.704,4.548,4.724,4.381H5.213z"/>
			<path fill="#FFFFFF" d="M6.308,3.523c0.244,0,0.443,0.081,0.598,0.243c0.153,0.16,0.229,0.373,0.229,0.64
				c0,0.276-0.082,0.496-0.245,0.66C6.739,5.218,6.54,5.295,6.295,5.295c-0.261,0-0.47-0.085-0.624-0.255
				C5.522,4.877,5.449,4.667,5.449,4.409c0-0.254,0.072-0.461,0.215-0.62C5.823,3.612,6.038,3.523,6.308,3.523z M6.285,3.871
				c-0.118,0-0.212,0.048-0.281,0.143C5.933,4.11,5.898,4.242,5.898,4.409c0,0.173,0.035,0.306,0.105,0.398
				c0.072,0.093,0.17,0.14,0.294,0.14c0.116,0,0.208-0.043,0.275-0.128c0.077-0.094,0.115-0.231,0.115-0.411
				c0-0.168-0.034-0.299-0.102-0.392C6.515,3.919,6.415,3.871,6.285,3.871z"/>
			<path fill="#FFFFFF" d="M8.474,3.541v0.432C8.402,3.96,8.344,3.954,8.3,3.954c-0.166,0-0.288,0.07-0.366,0.209
				C7.89,4.241,7.868,4.371,7.868,4.553v0.695H7.422v-1.68h0.425v0.306c0.121-0.228,0.297-0.341,0.528-0.341
				C8.403,3.534,8.436,3.536,8.474,3.541z"/>
			<path fill="#FFFFFF" d="M10.072,4.06H9.654C9.646,4.002,9.63,3.959,9.606,3.929C9.56,3.87,9.474,3.84,9.349,3.84
				c-0.079,0-0.14,0.014-0.183,0.043C9.123,3.912,9.102,3.952,9.102,4.004c0,0.055,0.024,0.096,0.072,0.122S9.33,4.182,9.5,4.217
				c0.216,0.044,0.372,0.099,0.468,0.165c0.113,0.077,0.169,0.194,0.169,0.351c0,0.179-0.07,0.318-0.209,0.417
				C9.79,5.246,9.608,5.295,9.382,5.295c-0.281,0-0.487-0.069-0.618-0.208C8.675,4.993,8.626,4.864,8.616,4.701h0.428
				c0.008,0.076,0.028,0.133,0.058,0.172c0.057,0.07,0.152,0.105,0.285,0.105c0.092,0,0.166-0.019,0.22-0.056
				C9.66,4.884,9.688,4.834,9.688,4.77c0-0.057-0.023-0.1-0.07-0.128c-0.047-0.028-0.145-0.06-0.296-0.095
				c-0.146-0.034-0.249-0.06-0.309-0.079C8.952,4.449,8.898,4.426,8.849,4.4C8.787,4.364,8.738,4.314,8.703,4.249
				C8.668,4.184,8.651,4.113,8.651,4.034c0-0.174,0.072-0.307,0.217-0.398C8.986,3.56,9.15,3.523,9.36,3.523
				c0.278,0,0.477,0.071,0.598,0.212C10.024,3.812,10.062,3.92,10.072,4.06z"/>
			<path fill="#FFFFFF" d="M10.852,3v0.401h-0.446V3H10.852z M10.852,3.572v1.677h-0.446V3.572H10.852z"/>
			<path fill="#FFFFFF" d="M12.727,5.249h-0.455c-0.019-0.066-0.029-0.122-0.029-0.168c-0.139,0.143-0.319,0.214-0.54,0.214
				c-0.172,0-0.307-0.04-0.403-0.12c-0.111-0.092-0.166-0.221-0.166-0.386c0-0.21,0.095-0.356,0.285-0.437
				c0.077-0.033,0.218-0.063,0.425-0.091c0.177-0.024,0.288-0.046,0.331-0.068s0.065-0.066,0.065-0.133
				c0-0.147-0.097-0.22-0.292-0.22c-0.104,0-0.179,0.018-0.227,0.055s-0.079,0.101-0.095,0.192h-0.421
				c0.013-0.187,0.084-0.327,0.211-0.422s0.308-0.142,0.543-0.142c0.259,0,0.451,0.053,0.575,0.158
				c0.057,0.049,0.096,0.102,0.115,0.158s0.028,0.146,0.028,0.268c0,0.026-0.002,0.138-0.005,0.338
				c-0.002,0.202-0.003,0.318-0.003,0.348c0,0.122,0.004,0.211,0.011,0.268C12.686,5.119,12.702,5.181,12.727,5.249z M12.236,4.438
				c-0.057,0.036-0.162,0.064-0.314,0.085c-0.107,0.016-0.184,0.037-0.231,0.063c-0.067,0.036-0.1,0.097-0.1,0.183
				c0,0.07,0.022,0.124,0.066,0.163c0.044,0.039,0.106,0.058,0.185,0.058c0.131,0,0.237-0.046,0.318-0.138
				c0.029-0.032,0.048-0.065,0.059-0.099c0.011-0.034,0.016-0.08,0.016-0.136V4.438z"/>
		</g>
	</g>
</g>
</svg>
