<svg xmlns="http://www.w3.org/2000/svg" width="36" height="36" fill="none" viewBox="0 0 36 36"><path fill="#000" fill-rule="evenodd" d="M7.75 9.25h25v13h-3v4.5H3.25v-14.5h4.5v-3m24 12h-2v-9h-21v-2h23zm-27.5-8v12.5h24.5v-12.5zm13.58 7.736q0 .825-1.024.95V20.03q.516.16.626.228.398.234.399.729m-2.539-3.243q0-.763.927-.845v1.69q-.518-.128-.723-.314-.204-.187-.204-.531m1.515.98v-1.811q.83.108.85.991h1.315q-.019-.933-.573-1.455-.56-.521-1.592-.574v-.875h-.588v.875q-.669.044-1.072.223a2 2 0 0 0-.87.711 1.85 1.85 0 0 0-.305 1.046q-.001.53.22.901.217.372.688.644.37.211 1.34.484v2.054q-1.048-.112-1.039-1.268h-1.378q.01 1.174.814 1.821.579.461 1.602.52V24h.588v-.986q.645-.032 1.07-.206.424-.172.774-.546.55-.582.55-1.441 0-.847-.535-1.335-.431-.395-1.475-.666-.316-.077-.384-.098" clip-rule="evenodd"/></svg>