<?xml version="1.0" encoding="utf-8"?>
<!-- Generator: Adobe Illustrator 24.2.0, SVG Export Plug-In . SVG Version: 6.00 Build 0)  -->
<svg version="1.0" id="Ebene_1" xmlns="http://www.w3.org/2000/svg" xmlns:xlink="http://www.w3.org/1999/xlink" x="0px" y="0px"
	 viewBox="0 0 24 24" enable-background="new 0 0 24 24" xml:space="preserve">
<g id="SVG_x5F_24x24pt">
	<path id="backgroundBlue" fill="#2D327D" d="M0,22.5v-21C0,0.675,0.675,0,1.5,0h21C23.325,0,24,0.675,24,1.5v21
		c0,0.825-0.675,1.5-1.5,1.5h-21C0.675,24,0,23.325,0,22.5z"/>
	<g id="content">
		<path fill="#FFFFFF" d="M15.035,6.71c0,0.771-0.625,1.396-1.396,1.396c-0.771,0-1.396-0.625-1.396-1.396
			c0-0.771,0.625-1.395,1.396-1.395C14.41,5.314,15.035,5.939,15.035,6.71L15.035,6.71z"/>
		<path fill="#FFFFFF" d="M16.568,12.15l-0.978-0.978H14.05l1.716,1.716c0.096,0.12,0.242,0.197,0.407,0.197
			c0.29,0,0.552-0.262,0.552-0.552c0-0.149-0.063-0.283-0.163-0.379L16.568,12.15z"/>
		<rect x="8.665" y="14.945" fill="#FFFFFF" width="0.627" height="0.635"/>
		<path fill="#FFFFFF" d="M21.05,19.973l-4.393-4.393h3.524c0.414,0,0.751-0.344,0.751-0.767v-11.1c0-0.423-0.337-0.767-0.751-0.767
			H4.022L3.708,2.631L2.648,3.692l0.307,0.307v10.814c0,0.423,0.337,0.767,0.751,0.767h3.079v-0.635H3.705
			c-0.064,0-0.116-0.059-0.116-0.133v-3.825h3.609l0.378-0.375H3.589V4.634l5.136,5.136c-0.782,0.782-1.574,1.574-1.613,1.613
			c-0.078,0.078-0.138,0.182-0.138,0.301c0,0.119,0,8.615,0,8.615c0,0.415,0.336,0.75,0.75,0.75c0.414,0,0.75-0.335,0.75-0.75
			v-6.987l1.007,0.999v3.521c0,0.415,0.336,0.75,0.75,0.75c0.414,0,0.75-0.335,0.75-0.75l-0.002-3.788c0,0,0.029-0.244-0.141-0.414
			l-1.158-1.152l0.862-0.891l3.358,3.358h-2.73c0,0.196,0,0.412,0,0.635h0.02h3.344l5.454,5.454L21.05,19.973z M12.525,8.106
			l-0.007,0.007c-0.254-0.246-0.64-0.404-1.073-0.404c-0.491,0-0.921,0.203-1.168,0.508c0,0-0.197,0.197-0.492,0.492L4.657,3.58
			h15.524c0.064,0,0.116,0.06,0.116,0.132v6.901H11.82l-0.065,0.065l-0.17-0.17l0.885-0.916l0.826,0.826h1.54L12.525,8.106z
			 M12.065,10.988h8.232v3.825c0,0.073-0.052,0.133-0.116,0.133h-4.159L12.065,10.988z"/>
		<polygon fill="#EB0000" points="3.708,2.631 2.648,3.692 19.99,21.034 21.05,19.973 3.708,2.631 		"/>
	</g>
</g>
</svg>
