<svg class="color-immutable" xmlns="http://www.w3.org/2000/svg" width="59" height="20" fill="none" viewBox="0 0 59 20"><path fill="#E84E10" fill-rule="evenodd" d="M2 0a2 2 0 0 0-2 2v16a2 2 0 0 0 2 2h55a2 2 0 0 0 2-2V2a2 2 0 0 0-2-2z" clip-rule="evenodd"/><path fill="#000" d="M14.153 4.17v2.142H7.98v2.476h5.657v1.991H7.98v2.849h6.284v2.142H5.45V4.17zM25.311 4.17l-3.856 11.6h-2.88l-3.8-11.6h2.65l2.61 8.688 2.65-8.688zM33.327 4.17v1.968q-.094.103-.563.642-.651.747-1.293 1.88a13 13 0 0 0-1 2.167q-.754 2.166-.913 4.943h-2.396q.024-1.309.453-2.904.435-1.594 1.198-3.19Q29.9 7.423 31.018 6.32h-5.554V4.17zM34.306 7.844q.039-1.429.706-2.397 1.079-1.555 3.245-1.555 1.665 0 2.69.85 1.103.92 1.103 2.38 0 .872-.437 1.507-.428.626-1.166.849.936.214 1.476.952.547.738.547 1.786 0 1.72-1.27 2.816-1.173 1.016-2.967 1.016-1.944 0-3.086-1.119-1.135-1.12-1.135-3.023v-.15h2.23q0 1.07.507 1.658.509.579 1.436.579.93 0 1.429-.548.46-.516.46-1.23 0-.856-.587-1.356-.484-.413-1.492-.413-.285 0-.563.032V8.772q.206.016.396.016 2 0 2-1.484 0-.651-.436-1.047-.437-.405-1.15-.405-.819 0-1.262.508-.445.507-.477 1.484z"/></svg>