<?xml version="1.0" encoding="utf-8"?>
<!-- Generator: Adobe Illustrator 25.1.0, SVG Export Plug-In . SVG Version: 6.00 Build 0)  -->
<svg version="1.0" xmlns="http://www.w3.org/2000/svg" xmlns:xlink="http://www.w3.org/1999/xlink" x="0px" y="0px"
	 viewBox="0 0 24 24" enable-background="new 0 0 24 24" xml:space="preserve">
<g id="SVG_x5F_24x24pt">
	<path id="backgroundBlue" fill="#2D327D" d="M0,22.5v-21C0,0.675,0.675,0,1.5,0h21C23.325,0,24,0.675,24,1.5v21
		c0,0.825-0.675,1.5-1.5,1.5h-21C0.675,24,0,23.325,0,22.5z"/>
	<g id="content">
		<rect x="3" y="20.7" fill-rule="evenodd" clip-rule="evenodd" fill="#FFFFFF" width="18" height="0.3"/>
		<path fill-rule="evenodd" clip-rule="evenodd" fill="#FFFFFF" d="M20.625,15.75h-3.809l-0.771-2.475h3.568
			c0.268,0,0.488-0.219,0.488-0.487c0-0.268-0.219-0.488-0.488-0.488h-3.871l-1.566-5.025h-1.35l2.467,9.525h0.001
			c0.113,0.39,0.473,0.675,0.9,0.675h4.432c0.206,0,0.375-0.169,0.375-0.375v-0.975C21,15.919,20.831,15.75,20.625,15.75z"/>
		<path fill-rule="evenodd" clip-rule="evenodd" fill="#FFFFFF" d="M15,5.925c0.158-0.166,0.15-0.245,0.15-0.397V3.375
			C15.15,3.169,14.981,3,14.775,3H13.2c-0.206,0-0.375,0.169-0.375,0.375v3.45h1.35L15,5.925z"/>
		<path fill-rule="evenodd" clip-rule="evenodd" fill="#FFFFFF" d="M5.468,16.8c0.113,0.39,0.473,0.675,0.9,0.675H10.8
			c0.206,0,0.375-0.169,0.375-0.375v-0.975c0-0.206-0.169-0.375-0.375-0.375H6.991L6.22,13.275h3.568
			c0.268,0,0.487-0.219,0.487-0.487c0-0.268-0.219-0.488-0.487-0.488H5.916L4.35,7.275H3L5.468,16.8L5.468,16.8z"/>
		<path fill-rule="evenodd" clip-rule="evenodd" fill="#FFFFFF" d="M5.175,5.925c0.158-0.166,0.15-0.245,0.15-0.397V3.375
			C5.325,3.169,5.156,3,4.95,3H3.375C3.169,3,3,3.169,3,3.375v3.45h1.35L5.175,5.925z"/>
	</g>
</g>
</svg>
