<?xml version="1.0" encoding="utf-8"?>
<!-- Generator: Adobe Illustrator 24.2.0, SVG Export Plug-In . SVG Version: 6.00 Build 0)  -->
<svg version="1.0" id="Ebene_1" xmlns="http://www.w3.org/2000/svg" xmlns:xlink="http://www.w3.org/1999/xlink" x="0px" y="0px"
	 viewBox="0 0 24 24" enable-background="new 0 0 24 24" xml:space="preserve">
<g id="SVG_x5F_24x24pt">
	<path id="backgroundBlue" fill="#2D327D" d="M0,22.5v-21C0,0.675,0.675,0,1.5,0h21C23.325,0,24,0.675,24,1.5v21
		c0,0.825-0.675,1.5-1.5,1.5h-21C0.675,24,0,23.325,0,22.5z"/>
	<g id="content_1_">
		<g>
			<path fill="#FFFFFF" d="M7.427,11.781c0.031-1.107,0.305-2.036,0.821-2.787c0.837-1.206,2.095-1.809,3.774-1.809
				c1.292,0,2.335,0.329,3.128,0.987c0.855,0.714,1.283,1.637,1.283,2.769c0,0.677-0.168,1.26-0.503,1.749
				c-0.335,0.489-0.789,0.82-1.361,0.992c0.726,0.166,1.3,0.535,1.721,1.107c0.421,0.572,0.632,1.264,0.632,2.076
				c0,1.335-0.492,2.427-1.477,3.276c-0.911,0.788-2.061,1.181-3.451,1.181c-1.507,0-2.703-0.434-3.585-1.301
				c-0.883-0.867-1.324-2.04-1.324-3.516c0-0.031,0-0.089,0-0.175h2.593c0,0.831,0.197,1.472,0.591,1.924
				c0.394,0.452,0.951,0.678,1.67,0.678c0.72,0,1.273-0.212,1.661-0.637c0.357-0.4,0.535-0.877,0.535-1.43
				c0-0.664-0.228-1.19-0.683-1.578c-0.375-0.32-0.954-0.48-1.735-0.48c-0.221,0-0.44,0.012-0.655,0.037V12.86
				c0.16,0.012,0.314,0.018,0.461,0.018c1.55,0,2.326-0.575,2.326-1.726c0-0.504-0.169-0.912-0.508-1.223
				c-0.338-0.311-0.784-0.466-1.338-0.466c-0.634,0-1.123,0.197-1.467,0.591c-0.345,0.394-0.529,0.969-0.554,1.726H7.427z"/>
		</g>
		<g id="Gleis">
			<path fill="#FFFFFF" d="M5.096,4.037v1.212H4.782L4.733,4.992C4.566,5.199,4.342,5.303,4.06,5.303
				c-0.344,0-0.615-0.127-0.814-0.381C3.082,4.709,2.999,4.447,2.999,4.135c0-0.354,0.108-0.643,0.323-0.869
				c0.202-0.213,0.463-0.32,0.783-0.32c0.295,0,0.536,0.095,0.721,0.286C4.965,3.376,5.044,3.545,5.065,3.74H4.589
				C4.565,3.619,4.51,3.524,4.424,3.457C4.339,3.389,4.23,3.355,4.099,3.355c-0.199,0-0.353,0.077-0.461,0.231
				C3.542,3.72,3.494,3.902,3.494,4.13c0,0.224,0.045,0.401,0.134,0.532C3.738,4.824,3.9,4.904,4.114,4.904
				c0.155,0,0.282-0.047,0.381-0.14c0.099-0.093,0.151-0.216,0.156-0.368h-0.5v-0.36H5.096z"/>
			<path fill="#FFFFFF" d="M5.903,3v2.249H5.457V3H5.903z"/>
			<path fill="#FFFFFF" d="M7.775,4.726C7.751,4.82,7.709,4.909,7.647,4.992C7.5,5.194,7.287,5.295,7.01,5.295
				c-0.25,0-0.451-0.079-0.601-0.237C6.335,4.981,6.279,4.888,6.24,4.78C6.198,4.664,6.177,4.543,6.177,4.417
				c0-0.244,0.07-0.449,0.211-0.615c0.157-0.186,0.36-0.278,0.609-0.278c0.201,0,0.372,0.062,0.514,0.186
				c0.102,0.089,0.175,0.199,0.221,0.33s0.069,0.295,0.069,0.493h-1.17c0.004,0.082,0.017,0.15,0.038,0.205
				c0.06,0.147,0.175,0.22,0.345,0.22c0.083,0,0.151-0.018,0.203-0.055c0.052-0.036,0.095-0.095,0.129-0.176H7.775z M7.346,4.232
				C7.338,4.151,7.319,4.084,7.29,4.031C7.262,3.978,7.221,3.937,7.168,3.906C7.115,3.875,7.058,3.86,6.995,3.86
				c-0.099,0-0.181,0.033-0.246,0.1C6.684,4.026,6.646,4.117,6.634,4.232H7.346z"/>
			<path fill="#FFFFFF" d="M8.524,3v0.401H8.078V3H8.524z M8.524,3.572v1.677H8.078V3.572H8.524z"/>
			<path fill="#FFFFFF" d="M10.248,4.06H9.83C9.822,4.002,9.806,3.959,9.782,3.929C9.736,3.87,9.65,3.84,9.525,3.84
				c-0.079,0-0.14,0.014-0.183,0.043C9.299,3.912,9.278,3.952,9.278,4.004c0,0.055,0.024,0.096,0.072,0.122s0.157,0.056,0.327,0.091
				c0.216,0.044,0.372,0.099,0.468,0.165c0.113,0.077,0.169,0.194,0.169,0.351c0,0.179-0.07,0.318-0.209,0.417
				C9.966,5.246,9.784,5.295,9.557,5.295c-0.281,0-0.487-0.069-0.618-0.208C8.851,4.993,8.802,4.864,8.792,4.701h0.428
				c0.008,0.076,0.028,0.133,0.058,0.172c0.057,0.07,0.152,0.105,0.285,0.105c0.092,0,0.166-0.019,0.22-0.056
				C9.836,4.884,9.864,4.834,9.864,4.77c0-0.057-0.023-0.1-0.07-0.128c-0.047-0.028-0.145-0.06-0.296-0.095
				c-0.146-0.034-0.249-0.06-0.309-0.079C9.128,4.449,9.074,4.426,9.025,4.4C8.963,4.364,8.914,4.314,8.879,4.249
				C8.844,4.184,8.827,4.113,8.827,4.034c0-0.174,0.072-0.307,0.217-0.398C9.162,3.56,9.326,3.523,9.536,3.523
				c0.278,0,0.477,0.071,0.598,0.212C10.2,3.812,10.238,3.92,10.248,4.06z"/>
		</g>
	</g>
</g>
</svg>
