<svg class="color-immutable" xmlns="http://www.w3.org/2000/svg" width="59" height="20" fill="none" viewBox="0 0 59 20"><g clip-path="url(#a)"><path fill="#EB0000" fill-rule="evenodd" d="M2 0a2 2 0 0 0-2 2v16a2 2 0 0 0 2 2h55a2 2 0 0 0 2-2V2a2 2 0 0 0-2-2z" clip-rule="evenodd"/><path fill="#fff" d="M44.67 13.742v2.057h-8.33q0-.942.3-1.796.31-.855.863-1.471.427-.475.997-.926.577-.45 2.286-1.653.83-.578 1.162-1.076.333-.498.333-1.155 0-.76-.451-1.226-.444-.474-1.171-.474-1.788 0-1.843 2.57h-2.223V8.34q0-2.103 1.179-3.259 1.146-1.123 2.966-1.123 1.614 0 2.697.918 1.18.996 1.18 2.681 0 1.472-.942 2.531-.309.348-.578.562-.268.205-1.416 1.005-1.091.759-1.566 1.162a6.4 6.4 0 0 0-.87.926zM49.574 3.957q1.32 0 2.325.807.997.807 1.448 2.484.34 1.281.34 2.784 0 2.492-.886 4.098-.522.933-1.368 1.44a3.56 3.56 0 0 1-1.875.505q-1.416 0-2.42-.854-1.788-1.518-1.788-5.189 0-2.61.933-4.192a3.77 3.77 0 0 1 1.384-1.393 3.8 3.8 0 0 1 1.907-.49m-.087 1.954q-1.14 0-1.55 1.313-.325 1.044-.325 2.927 0 1.661.332 2.665.427 1.305 1.582 1.306.957 0 1.424-1.013t.467-3.093q0-1.772-.332-2.792-.428-1.313-1.598-1.313M9.251 4.2h4.07L8.286 15.8H4.2zM26.069 12.366c.367 0 .7-.217.849-.553L30.22 4.2H16.038l-5.035 11.6h4.052l3.812-8.69h6.014l-1.205 2.775-5.244-.019 4.231 5.934h4.613l-3.134-3.434z"/></g><defs><clipPath id="a"><path fill="#fff" d="M0 0h59v20H0z"/></clipPath></defs></svg>