<svg xmlns="http://www.w3.org/2000/svg" width="24" height="24" fill="none" viewBox="0 0 24 24"><path fill="#000" fill-rule="evenodd" d="m11.5 3.5.317-.387-.317-.26-.317.26zm7.78 4.223.048-.498h-.011l-.027-.003-.097-.007a11.43 11.43 0 0 0-1.553.021c-.793.066-1.794.232-2.763.629-.272-1.274-.952-2.382-1.582-3.19a11.5 11.5 0 0 0-1.344-1.446l-.096-.084-.026-.022-.008-.006-.002-.002-.001-.001-.318.386c-.317-.387-.317-.386-.318-.386l-.003.003-.008.006-.026.022-.096.084a11.475 11.475 0 0 0-1.345 1.446c-.629.808-1.31 1.916-1.581 3.19-.97-.397-1.97-.563-2.763-.629a11.4 11.4 0 0 0-1.553-.021l-.097.007-.027.002-.008.001h-.003l.049.498-.05-.498-.408.04-.04.41.498.048-.498-.049v.005l-.002.011-.003.038-.009.137a11.451 11.451 0 0 0 .095 2.127c.165 1.174.57 2.645 1.554 3.796a8 8 0 0 0-1.715 1.362l-.01.01-.004.004v.002h-.001l.372.334-.372-.334-.3.334.3.333.372-.333-.372.334.002.003.006.006.019.02.068.072q.088.092.252.244c.215.2.527.466.912.732C5.15 17.437 6.25 18 7.5 18s2.35-.562 3.113-1.089q.209-.145.387-.285V21h1v-4.374q.178.141.387.285C13.15 17.437 14.25 18 15.5 18s2.35-.562 3.113-1.089a8.3 8.3 0 0 0 1.164-.976q.045-.046.068-.072l.019-.02.006-.006.001-.002.001-.001-.372-.334.372.333.3-.333-.3-.334-.372.334.372-.334-.001-.002-.003-.003-.01-.011-.036-.038-.13-.132a7.969 7.969 0 0 0-1.55-1.192c.983-1.151 1.39-2.622 1.554-3.796a11.4 11.4 0 0 0 .095-2.127l-.01-.137-.002-.038-.001-.01v-.005zm0 0 .048-.498.409.04.04.41zm-1.558.51c.438-.036.813-.04 1.081-.034l.002.164c.002.377-.016.902-.099 1.49-.167 1.19-.586 2.565-1.548 3.527a4 4 0 0 1-.177.167l-.575.512.701.317a6.5 6.5 0 0 1 1.68 1.124 7 7 0 0 1-.743.588c-.686.474-1.585.912-2.544.912s-1.858-.438-2.544-.912a7.3 7.3 0 0 1-1.017-.851l-.053-.056-.012-.012-.002-.003-.372-.416-.372.416-.002.002-.012.013-.053.056q-.072.076-.215.209c-.19.175-.464.409-.802.643-.686.473-1.585.91-2.544.91s-1.858-.437-2.544-.91a7 7 0 0 1-.743-.59q.096-.087.214-.185c.363-.303.871-.67 1.466-.938l.701-.317-.575-.512a4 4 0 0 1-.177-.167c-.962-.962-1.38-2.337-1.548-3.527A10.5 10.5 0 0 1 4.197 8.2c.268-.006.643-.002 1.08.034.898.074 2.022.284 3.004.81l.67.358.064-.757c.11-1.286.789-2.47 1.479-3.355A10.5 10.5 0 0 1 11.5 4.174q.04.037.082.08c.249.243.583.597.924 1.035.69.886 1.37 2.069 1.479 3.355l.064.757.67-.358c.982-.526 2.106-.736 3.004-.81" clip-rule="evenodd"/></svg>