<svg class="color-immutable" xmlns="http://www.w3.org/2000/svg" width="59" height="20" fill="none" viewBox="0 0 59 20"><g fill="#EB0000" clip-path="url(#a)"><path d="M57.208 1c.439 0 .795.358.795.8v16.4c0 .442-.356.8-.795.8H1.792a.8.8 0 0 1-.795-.8V1.8c0-.442.356-.8.795-.8zm0-1H1.792C.803 0 0 .806 0 1.8v16.4c0 .994.803 1.8 1.792 1.8h55.416c.99 0 1.792-.806 1.792-1.8V1.8c0-.994-.803-1.8-1.792-1.8"/><path d="M4.16 4.234h5.6q1.662 0 2.547.522.735.427 1.124 1.139.387.712.387 1.606 0 1.013-.49 1.764-.483.751-1.353 1.076a1.95 1.95 0 0 1 1.203.854q.276.42.371.878t.245 2.096q.111 1.203.34 1.495l.111.135h-2.634a2 2 0 0 1-.197-.625q-.056-.38-.15-1.756-.095-1.227-.602-1.693-.498-.475-1.709-.475h-2.27V15.8H4.16zm2.523 1.985V9.4h2.413q1.162 0 1.637-.332.601-.42.601-1.266 0-.822-.514-1.202T9.2 6.219zM24.647 4.234V6.37h-6.154v2.468h5.64v1.985h-5.64v2.84h6.265v2.136H15.97V4.234zM25.945 7.896q.039-1.423.703-2.389 1.076-1.55 3.236-1.55 1.66 0 2.681.846 1.1.918 1.1 2.373 0 .87-.435 1.503a2.1 2.1 0 0 1-1.163.847q.934.213 1.471.949.546.736.546 1.78 0 1.716-1.266 2.808-1.17 1.012-2.958 1.012-1.938 0-3.077-1.115-1.131-1.115-1.131-3.014v-.15h2.223q0 1.068.506 1.653.506.578 1.432.578t1.423-.546a1.78 1.78 0 0 0 .46-1.226q0-.854-.586-1.353-.483-.411-1.487-.411-.285 0-.562.032V8.822q.206.015.396.016 1.992 0 1.993-1.48 0-.648-.435-1.044-.435-.403-1.147-.403-.814 0-1.258.506-.443.506-.474 1.48zM34.915 12.896h2.183q.27 1.344 1.558 1.344.727 0 1.179-.49.459-.498.704-1.543.158-.664.23-1.51-.53.743-1.093 1.06-.554.308-1.352.308-1.274 0-2.215-.744a3.54 3.54 0 0 1-1.028-1.352 4.4 4.4 0 0 1-.364-1.804q0-1.953 1.337-3.164 1.147-1.044 2.752-1.044.99 0 1.828.443a3.96 3.96 0 0 1 1.408 1.258q1.005 1.447 1.004 4.066 0 2.42-.886 4.129-1.155 2.222-3.496 2.222-1.558 0-2.579-.862-1.012-.862-1.17-2.317m3.844-6.985q-.744 0-1.258.609-.514.616-.514 1.566 0 .768.372 1.36.506.816 1.424.815.83 0 1.329-.664.465-.625.466-1.487 0-.91-.482-1.543a1.6 1.6 0 0 0-1.337-.656"/></g><defs><clipPath id="a"><path fill="#fff" d="M0 0h59v20H0z"/></clipPath></defs></svg>