<svg xmlns="http://www.w3.org/2000/svg" width="24" height="24" version="1.1" viewBox="0 0 24 24">
  <path fill="none" fill-rule="evenodd" stroke="#000" stroke-width="1" d="M2.5,16.5 L20.5,16.5 L20.5,3.5 L2.5,3.5 L2.5,16.5 Z M7,19.4997 L16,19.4997 M10.5,16.4997 L10.5,19.4997 M12.5,16.4997 L12.5,19.4997 M10.5,12.9997 C10.5,13.8287 10.052,14.4997 9.5,14.4997 C8.948,14.4997 8.5,13.8287 8.5,12.9997 C8.5,12.1717 8.948,11.4997 9.5,11.4997 C10.052,11.4997 10.5,12.1717 10.5,12.9997 Z M14.5,6.9997 C14.5,7.8287 14.053,8.4997 13.5,8.4997 C12.948,8.4997 12.5,7.8287 12.5,6.9997 C12.5,6.1717 12.948,5.4997 13.5,5.4997 C14.053,5.4997 14.5,6.1717 14.5,6.9997 Z M5.5,8.9997 L5.5,4.9997 M9.5,8.9997 L9.5,4.9997 M13.5,14.9997 L13.5,10.9997 M17.5,14.9997 L17.5,10.9997 M5.5,14.9997 L5.5,10.9997 M17.5,8.9997 L17.5,4.9997"/>
</svg>
