<svg class="color-immutable" xmlns="http://www.w3.org/2000/svg" width="59" height="20" fill="none" viewBox="0 0 59 20"><g clip-path="url(#a)"><path stroke="#fff" d="M2 .5h55A1.5 1.5 0 0 1 58.5 2v16a1.5 1.5 0 0 1-1.5 1.5H2A1.5 1.5 0 0 1 .5 18V2A1.5 1.5 0 0 1 2 .5Z"/><path fill="#fff" d="M4.08 4.224h5.704q1.692 0 2.594.532.749.435 1.144 1.16t.395 1.636q0 1.03-.5 1.796-.491.765-1.377 1.096.78.194 1.224.87.282.428.379.894.096.467.25 2.135.112 1.225.346 1.523l.113.137h-2.683a2 2 0 0 1-.202-.636q-.056-.387-.152-1.79-.098-1.248-.613-1.723-.507-.483-1.74-.484H6.65v4.633H4.08zm2.57 2.022v3.24h2.457q1.184 0 1.668-.34.612-.427.612-1.288 0-.838-.524-1.225t-1.651-.387zM16.092 4.224h5.301q1.709 0 2.546.427.79.403 1.193 1.168.338.645.338 1.37 0 .806-.41 1.434-.412.629-1.193.991.676.226 1.015.475 1.143.839 1.144 2.441 0 .951-.427 1.709-.42.757-1.209 1.216-.934.548-2.521.548h-5.777zm2.57 2.022v2.748h2.353q.82 0 1.208-.194.717-.346.717-1.192 0-.717-.451-1.04-.45-.322-1.474-.322zm0 4.504v3.23h2.602q1.12 0 1.571-.314.597-.426.597-1.297 0-1.038-.806-1.418-.443-.201-1.49-.201zM27.154 13.046h2.223q.274 1.37 1.588 1.37.741 0 1.2-.5.467-.507.717-1.57.161-.678.234-1.54-.54.758-1.112 1.08-.564.314-1.378.314-1.297 0-2.256-.757a3.6 3.6 0 0 1-1.047-1.378 4.5 4.5 0 0 1-.37-1.837q0-1.989 1.361-3.222 1.168-1.064 2.804-1.064 1.006 0 1.86.451t1.435 1.281q1.023 1.475 1.023 4.141 0 2.466-.902 4.206-1.177 2.265-3.561 2.264-1.587 0-2.627-.878-1.031-.88-1.192-2.36m3.915-7.114q-.757 0-1.28.62-.524.63-.524 1.596 0 .781.378 1.385.517.83 1.45.83.846 0 1.354-.676.475-.638.475-1.515 0-.927-.491-1.571a1.64 1.64 0 0 0-1.362-.669M44.62 13.908v2.095h-8.483q0-.96.306-1.829.315-.87.878-1.498.435-.484 1.015-.943.589-.459 2.329-1.684.846-.588 1.184-1.096a2.07 2.07 0 0 0 .339-1.176q0-.774-.46-1.249-.45-.483-1.192-.483-1.821 0-1.877 2.618h-2.264v-.257q0-2.144 1.2-3.32 1.168-1.144 3.022-1.144 1.642 0 2.747.935 1.2 1.015 1.2 2.73 0 1.5-.959 2.579a5 5 0 0 1-.588.572q-.273.21-1.442 1.023-1.112.773-1.595 1.185a6.5 6.5 0 0 0-.886.942z"/></g><defs><clipPath id="a"><path fill="#fff" d="M0 0h59v20H0z"/></clipPath></defs></svg>