<?xml version="1.0" encoding="utf-8"?>
<!-- Generator: Adobe Illustrator 24.2.0, SVG Export Plug-In . SVG Version: 6.00 Build 0)  -->
<svg version="1.0" id="Ebene_3" xmlns="http://www.w3.org/2000/svg" xmlns:xlink="http://www.w3.org/1999/xlink" x="0px" y="0px"
	 viewBox="0 0 24 24" enable-background="new 0 0 24 24" xml:space="preserve">
<g id="SVG_x5F_24x24pt">
	<path id="backgroundBlue" fill="#2D327D" d="M0,22.5v-21C0,0.675,0.675,0,1.5,0h21C23.325,0,24,0.675,24,1.5v21
		c0,0.825-0.675,1.5-1.5,1.5h-21C0.675,24,0,23.325,0,22.5z"/>
	<g id="content">
		<path fill="#FFFFFF" d="M21,12c0,4.971-4.029,9-9,9s-9-4.029-9-9c0-4.971,4.029-9,9-9S21,7.029,21,12z"/>
		<path fill="#EB0000" d="M12,3c-4.971,0-9,4.029-9,9c0,4.971,4.029,9,9,9s9-4.029,9-9C21,7.029,16.971,3,12,3z M12,18.75
			c-3.728,0-6.75-3.022-6.75-6.75c0-3.728,3.022-6.75,6.75-6.75s6.75,3.022,6.75,6.75C18.75,15.728,15.728,18.75,12,18.75z"/>
		<g>
			<path d="M16.826,8.25H7.174c-0.275,0-0.498,0.224-0.498,0.498c0,0.275,0.223,0.498,0.498,0.498h3.452v8.382
				c0,0.285,0.23,0.516,0.515,0.516c0.285,0,0.516-0.23,0.516-0.516V13.21h0.687v4.418c0,0.285,0.232,0.516,0.516,0.516
				c0.284,0,0.514-0.23,0.514-0.516V9.247h3.453c0.274,0,0.498-0.223,0.498-0.498C17.324,8.474,17.1,8.25,16.826,8.25L16.826,8.25z"
				/>
			<path d="M12,7.781c0.569,0,1.032-0.461,1.032-1.031c0-0.569-0.463-1.032-1.032-1.032c-0.569,0-1.031,0.463-1.031,1.032
				C10.969,7.321,11.431,7.781,12,7.781L12,7.781z"/>
		</g>
	</g>
</g>
</svg>
