<svg class="color-immutable" xmlns="http://www.w3.org/2000/svg" width="59" height="20" fill="none" viewBox="0 0 59 20"><g clip-path="url(#a)"><path fill="#EB0000" fill-rule="evenodd" d="M2 0a2 2 0 0 0-2 2v16a2 2 0 0 0 2 2h55a2 2 0 0 0 2-2V2a2 2 0 0 0-2-2z" clip-rule="evenodd"/><path fill="#fff" d="M9.22 4.2h4.057L8.259 15.8H4.186zM15.948 4.2h14.395l-1.49 3.445h-10.28l-2.042 4.71h10.285l-1.49 3.445H10.93zM44.092 4.234V6.29h-4.659l-.498 2.602q.838-.886 2.143-.886 1.282 0 2.231.688 1.408 1.036 1.408 3.149 0 2.072-1.503 3.282-1.17.95-2.8.95-1.836 0-2.95-.982-1.116-.988-1.18-2.665h2.271q.056.609.395 1.036.53.672 1.472.672.909 0 1.44-.656.514-.641.514-1.558 0-.997-.538-1.59-.538-.602-1.432-.602-1.092 0-1.7.981l-2.065-.031 1.1-6.447zM53.79 11.203v1.954h-1.456v2.642H50.08v-2.642h-4.825v-2.168l4.944-6.755h2.136v6.969zm-3.662.024V6.922l-2.975 4.304z"/></g><defs><clipPath id="a"><path fill="#fff" d="M0 0h59v20H0z"/></clipPath></defs></svg>