<svg xmlns="http://www.w3.org/2000/svg" width="36" height="36" version="1.1" viewBox="0 0 36 36">
  <path fill="none" fill-rule="evenodd" stroke="#000" stroke-width="1" d="M12.1347,4.8369 L10.7202,8.8059 C10.4127,9.6684 10.8477,10.5954 11.6787,10.9614 C17.7552,13.6374 22.5882,18.6474 25.0617,24.8844 C25.3992,25.7364 26.3007,26.2044 27.1632,25.9194 L31.1307,24.6039 C31.9917,24.3174 32.4732,23.3604 32.1477,22.5039 C28.9437,14.0874 22.4397,7.3494 14.2392,3.8694 C13.4037,3.5154 12.4422,3.9759 12.1347,4.8369 Z M18.75,22.5 C18.75,23.742 17.7435,24.75 16.5,24.75 C15.2565,24.75 14.25,23.742 14.25,22.5 C14.25,21.258 15.2565,20.25 16.5,20.25 C17.7435,20.25 18.75,21.258 18.75,22.5 Z M11.23605,10.68315 L3.80805,30.94215 C3.53805,31.71015 4.25955,32.45565 5.02305,32.19915 L25.36305,25.39065 M9.67815,14.93115 C10.62315,15.37065 11.27865,16.33665 11.27865,17.45715 C11.27865,18.99015 10.05015,20.23365 8.53215,20.23365 C8.26965,20.23365 8.01465,20.19765 7.77315,20.12715 M8.3811,31.0752 C8.2716,30.7947 8.2131,30.4872 8.21457186,30.1692 C8.2221,28.8282 9.3021,27.7467 10.6281,27.7557 C11.7321,27.7617 12.6591,28.5222 12.9306,29.5512"/>
</svg>
