<?xml version="1.0" encoding="utf-8"?>
<!-- Generator: Adobe Illustrator 24.2.0, SVG Export Plug-In . SVG Version: 6.00 Build 0)  -->
<svg version="1.0" id="Ebene_1" xmlns="http://www.w3.org/2000/svg" xmlns:xlink="http://www.w3.org/1999/xlink" x="0px" y="0px"
	 viewBox="0 0 24 24" enable-background="new 0 0 24 24" xml:space="preserve">
<g id="SVG_x5F_24x24pt">
	<path id="backgroundBlue" fill="#2D327D" d="M0,22.5v-21C0,0.675,0.675,0,1.5,0h21C23.325,0,24,0.675,24,1.5v21
		c0,0.825-0.675,1.5-1.5,1.5h-21C0.675,24,0,23.325,0,22.5z"/>
	<g id="content">
		<path fill="#FFFFFF" d="M10.907,4.978c-0.538,0-0.975-0.437-0.975-0.975s0.437-0.975,0.975-0.975c0.538,0,0.975,0.437,0.975,0.975
			S11.446,4.978,10.907,4.978L10.907,4.978z"/>
		<path fill="#FFFFFF" d="M14.668,7.405c-0.538,0-0.975-0.437-0.975-0.975c0-0.538,0.437-0.975,0.975-0.975
			c0.538,0,0.975,0.437,0.975,0.975C15.643,6.968,15.206,7.405,14.668,7.405L14.668,7.405z"/>
		<path fill="#FFFFFF" d="M18.429,7.943c0.538,0,0.975,0.437,0.975,0.975c0,0.538-0.437,0.975-0.975,0.975
			c-0.538,0-0.975-0.437-0.975-0.975C17.454,8.38,17.891,7.943,18.429,7.943L18.429,7.943z"/>
		<path fill="#FFFFFF" d="M12.849,8.382c0.025,0.066,0.038,0.136,0.038,0.207c0,0.321-0.26,0.581-0.581,0.581
			c-0.241,0-0.457-0.149-0.543-0.374l-0.699-1.834l-0.35,0.134l0.314,0.824L9.75,7.079V6.443c0-0.629,0.511-1.14,1.14-1.14
			c0.473,0,0.897,0.292,1.065,0.734L12.849,8.382L12.849,8.382z"/>
		<path fill="#FFFFFF" d="M16.599,10.852c0.025,0.066,0.038,0.136,0.038,0.207c0,0.321-0.26,0.581-0.581,0.581
			c-0.241,0-0.457-0.149-0.543-0.374l-0.699-1.833l-0.35,0.134l0.314,0.824L13.5,9.549V8.913c0-0.629,0.511-1.14,1.14-1.14
			c0.473,0,0.897,0.292,1.065,0.734L16.599,10.852L16.599,10.852z"/>
		<path fill="#FFFFFF" d="M17.25,12.019v-0.636c0-0.629,0.511-1.14,1.14-1.14c0.473,0,0.897,0.292,1.065,0.734l0.894,2.345
			c0.025,0.066,0.038,0.136,0.038,0.207c0,0.321-0.26,0.581-0.581,0.581c-0.241,0-0.457-0.149-0.543-0.374l-0.699-1.833l-0.35,0.134
			l0.314,0.824L17.25,12.019L17.25,12.019z"/>
		<path fill="#FFFFFF" d="M5.625,12.75C4.176,12.75,3,11.574,3,10.125C3,8.676,4.176,7.5,5.625,7.5h2.996
			c0.22,0,0.435,0.064,0.619,0.186L21,15.432V21L8.475,12.75H5.625L5.625,12.75z"/>
	</g>
</g>
</svg>
