<svg xmlns="http://www.w3.org/2000/svg" width="16" height="16" fill="none" viewBox="0 0 16 16"><path fill="#000" fill-rule="evenodd" d="M8.5 2.02v5.834l3.132 4.922q.127-.096.247-.199A6 6 0 0 0 8.5 2.02m2.289 11.294q-.31.162-.639.29l.359.933a7.016 7.016 0 0 0 2.017-1.197 7 7 0 0 0-5.44-12.28l.13.99q.141-.018.284-.03v6.126l.078.122zM3.739 2.446a7 7 0 0 1 1.581-.915l.383.924a6 6 0 0 0-1.355.784zM1.53 5.32c.236-.569.545-1.1.915-1.582l.793.61a6 6 0 0 0-.784 1.355zM1 8q0-.464.06-.914l.99.13a6 6 0 0 0 0 1.568l-.99.13Q1 8.464 1 8m1.446 4.262a7 7 0 0 1-.915-1.582l.924-.383c.202.487.467.942.784 1.355zm2.874 2.207a7 7 0 0 1-1.582-.915l.61-.793c.413.317.868.582 1.355.784zm3.904.424a7 7 0 0 1-2.138.048l.13-.992a6 6 0 0 0 1.834-.04z" clip-rule="evenodd"/></svg>