<?xml version="1.0" encoding="utf-8"?>
<!-- Generator: Adobe Illustrator 24.2.0, SVG Export Plug-In . SVG Version: 6.00 Build 0)  -->
<svg version="1.0" id="Ebene_1" xmlns="http://www.w3.org/2000/svg" xmlns:xlink="http://www.w3.org/1999/xlink" x="0px" y="0px"
	 viewBox="0 0 24 24" enable-background="new 0 0 24 24" xml:space="preserve">
<g id="SVG_x5F_24x24pt">
	<path id="backgroundBlue" fill="#2D327D" d="M0,22.5v-21C0,0.675,0.675,0,1.5,0h21C23.325,0,24,0.675,24,1.5v21
		c0,0.825-0.675,1.5-1.5,1.5h-21C0.675,24,0,23.325,0,22.5z"/>
	<g id="content_1_">
		<g>
			<path fill="#FFFFFF" d="M7.372,17.613h2.547c0.209,1.046,0.815,1.569,1.818,1.569c0.566,0,1.026-0.192,1.38-0.577
				c0.354-0.384,0.626-0.983,0.817-1.795c0.123-0.517,0.212-1.104,0.268-1.763c-0.412,0.578-0.835,0.989-1.269,1.232
				c-0.434,0.243-0.961,0.365-1.583,0.365c-0.991,0-1.852-0.289-2.584-0.867c-0.511-0.406-0.909-0.932-1.195-1.578
				c-0.286-0.646-0.429-1.347-0.429-2.104c0-1.52,0.52-2.75,1.56-3.691c0.892-0.812,1.962-1.218,3.212-1.218
				c0.769,0,1.48,0.172,2.132,0.517c0.652,0.345,1.2,0.834,1.643,1.467c0.781,1.126,1.172,2.707,1.172,4.743
				c0,1.883-0.345,3.488-1.034,4.817c-0.898,1.729-2.258,2.593-4.079,2.593c-1.212,0-2.213-0.335-3.004-1.006
				C7.952,19.647,7.495,18.745,7.372,17.613z M11.857,9.464c-0.578,0-1.067,0.237-1.467,0.711c-0.4,0.48-0.6,1.089-0.6,1.827
				c0,0.597,0.144,1.126,0.434,1.587c0.394,0.634,0.947,0.951,1.661,0.951c0.646,0,1.163-0.258,1.55-0.775
				c0.363-0.486,0.544-1.064,0.544-1.735c0-0.707-0.188-1.307-0.563-1.8C13.023,9.72,12.503,9.464,11.857,9.464z"/>
		</g>
		<g>
			<path fill="#FFFFFF" d="M5.036,3L4.288,5.249H3.73L2.993,3h0.514l0.506,1.684L4.527,3H5.036z"/>
			<path fill="#FFFFFF" d="M5.874,3.523c0.244,0,0.443,0.081,0.598,0.243c0.153,0.16,0.229,0.373,0.229,0.64
				c0,0.276-0.082,0.496-0.245,0.66C6.304,5.218,6.105,5.295,5.86,5.295c-0.261,0-0.47-0.085-0.624-0.255
				C5.088,4.877,5.014,4.667,5.014,4.409c0-0.254,0.072-0.461,0.215-0.62C5.389,3.612,5.603,3.523,5.874,3.523z M5.851,3.871
				c-0.118,0-0.212,0.048-0.281,0.143C5.499,4.11,5.463,4.242,5.463,4.409c0,0.173,0.035,0.306,0.105,0.398
				c0.072,0.093,0.17,0.14,0.294,0.14c0.116,0,0.208-0.043,0.275-0.128c0.077-0.094,0.115-0.231,0.115-0.411
				c0-0.168-0.034-0.299-0.102-0.392C6.08,3.919,5.98,3.871,5.851,3.871z"/>
			<path fill="#FFFFFF" d="M7.449,3v0.401H7.003V3H7.449z M7.449,3.572v1.677H7.003V3.572H7.449z"/>
			<path fill="#FFFFFF" d="M9.321,4.726C9.297,4.82,9.255,4.909,9.193,4.992c-0.148,0.202-0.36,0.303-0.637,0.303
				c-0.25,0-0.451-0.079-0.601-0.237c-0.074-0.077-0.13-0.17-0.169-0.278C7.744,4.664,7.723,4.543,7.723,4.417
				c0-0.244,0.07-0.449,0.211-0.615c0.157-0.186,0.36-0.278,0.609-0.278c0.201,0,0.372,0.062,0.514,0.186
				c0.102,0.089,0.175,0.199,0.221,0.33s0.069,0.295,0.069,0.493h-1.17c0.004,0.082,0.017,0.15,0.038,0.205
				c0.06,0.147,0.175,0.22,0.345,0.22c0.083,0,0.151-0.018,0.203-0.055c0.052-0.036,0.095-0.095,0.129-0.176H9.321z M8.892,4.232
				C8.884,4.151,8.865,4.084,8.836,4.031C8.808,3.978,8.767,3.937,8.714,3.906C8.661,3.875,8.604,3.86,8.541,3.86
				c-0.099,0-0.181,0.033-0.246,0.1C8.23,4.026,8.192,4.117,8.18,4.232H8.892z"/>
		</g>
	</g>
</g>
</svg>
