<svg class="color-immutable" xmlns="http://www.w3.org/2000/svg" width="59" height="20" fill="none" viewBox="0 0 59 20"><g clip-path="url(#a)"><path fill="#EB0000" fill-rule="evenodd" d="M2 0a2 2 0 0 0-2 2v16a2 2 0 0 0 2 2h55a2 2 0 0 0 2-2V2a2 2 0 0 0-2-2z" clip-rule="evenodd"/><path fill="#fff" d="M9.22 4.2h4.057L8.259 15.8H4.186zM15.948 4.2h14.395l-1.49 3.445h-10.28l-2.042 4.71h10.285l-1.49 3.445H10.93zM44.385 4.234v1.962a46 46 0 0 0-.562.64q-.648.743-1.29 1.875-.64 1.124-.996 2.16-.75 2.16-.91 4.928h-2.389q.025-1.305.451-2.896.435-1.59 1.195-3.18 1.083-2.245 2.199-3.345h-5.458V4.234zM53.49 7.121h-2.2q-.308-1.337-1.518-1.337-1.282 0-1.82 1.574-.22.642-.356 1.938.523-.703 1.108-1.012.593-.309 1.423-.309 1.63 0 2.619 1.155.94 1.092.941 2.737 0 1.955-1.265 3.14-1.14 1.068-2.737 1.068-2.05 0-3.188-1.542-1.14-1.55-1.14-4.319 0-2.958 1.219-4.635 1.179-1.622 3.22-1.622 1.921 0 2.942 1.29.585.743.751 1.874m-3.916 2.65q-.83 0-1.321.696-.443.617-.443 1.471 0 .847.45 1.48.492.704 1.345.704.831 0 1.337-.673.475-.633.475-1.495 0-.847-.427-1.447-.522-.736-1.416-.736"/></g><defs><clipPath id="a"><path fill="#fff" d="M0 0h59v20H0z"/></clipPath></defs></svg>