<svg xmlns="http://www.w3.org/2000/svg" width="36" height="36" fill="none" viewBox="0 0 36 36"><path fill="#000" fill-rule="evenodd" d="m18 3.733.38.441c5.636 6.557 6.957 13.434 6.866 18.669a29 29 0 0 1-.073 1.6c2.312 1.47 3.367 4.174 2.868 6.73l-.184.938-.666-.686a5.44 5.44 0 0 0-2.95-1.553 22 22 0 0 1-.355 1.157 15 15 0 0 1-.224.616l-.014.034-.004.01-.001.002v.001l-.462-.192.46.193-.278.668-.526-.498c-2.437-2.309-4.83-2.295-6.63-1.727a8.7 8.7 0 0 0-2.217 1.088 8 8 0 0 0-.78.596l-.038.035-.008.007v.001h-.001l-.526.498-.28-.668.462-.193-.461.192-.002-.003-.004-.01-.014-.034-.05-.129a15 15 0 0 1-.174-.486 22 22 0 0 1-.356-1.158 5.44 5.44 0 0 0-2.95 1.552l-.665.687-.184-.939c-.499-2.554.556-5.259 2.868-6.728a29 29 0 0 1-.073-1.601c-.091-5.235 1.23-12.112 6.867-18.669zm6.49 25.168c.985.188 1.895.59 2.67 1.17a5.48 5.48 0 0 0-2.094-4.481 28 28 0 0 1-.575 3.31m-13.556-3.31c.145 1.274.358 2.392.575 3.31a6.5 6.5 0 0 0-2.67 1.17 5.48 5.48 0 0 1 2.095-4.48m2.113 5.077q.17-.127.382-.272a9.7 9.7 0 0 1 2.478-1.213c1.943-.614 4.496-.644 7.055 1.457.133-.397.306-.96.482-1.667a27.6 27.6 0 0 0 .802-6.148c.067-3.82-.645-8.545-3.36-13.364a5.68 5.68 0 0 1-5.773 0c-2.714 4.82-3.426 9.545-3.359 13.364a27.6 27.6 0 0 0 .802 6.148c.18.723.357 1.297.491 1.695m2.573-22.07a4.68 4.68 0 0 0 4.76 0A29 29 0 0 0 18 5.276a29 29 0 0 0-2.38 3.323M18 14.75a1.75 1.75 0 1 0 0 3.5 1.75 1.75 0 0 0 0-3.5m-2.75 1.75a2.75 2.75 0 1 1 5.5 0 2.75 2.75 0 0 1-5.5 0" clip-rule="evenodd"/></svg>