<svg class="color-immutable" xmlns="http://www.w3.org/2000/svg" width="59" height="20" fill="none" viewBox="0 0 59 20"><g clip-path="url(#a)"><path stroke="#fff" d="M2 .5h55A1.5 1.5 0 0 1 58.5 2v16a1.5 1.5 0 0 1-1.5 1.5H2A1.5 1.5 0 0 1 .5 18V2A1.5 1.5 0 0 1 2 .5Z"/><path fill="#fff" d="M12.877 7.71h-2.449q-.072-.863-.644-1.314-.564-.459-1.587-.459-.91 0-1.418.363-.5.355-.5.999 0 .58.483.838.468.258 2.37.725 2.005.5 2.779 1.007 1.425.934 1.426 2.602 0 1.829-1.434 2.884-1.266.927-3.424.927-2.401 0-3.73-1.096T3.37 12.068h2.562q.056.984.507 1.459.71.757 2.135.757.967 0 1.531-.379.636-.434.636-1.184t-.894-1.096q-.49-.193-2.32-.7-1.144-.315-1.789-.597-.644-.282-1.031-.628-.903-.806-.902-2.224 0-1.7 1.41-2.69 1.2-.847 3.118-.847 1.683 0 2.82.669 1.635.96 1.723 3.102M14.263 13.043h2.224q.274 1.37 1.587 1.37.741 0 1.2-.5.468-.507.717-1.57.162-.678.234-1.54-.54.758-1.112 1.08-.564.315-1.377.314-1.297 0-2.256-.757a3.6 3.6 0 0 1-1.048-1.378 4.5 4.5 0 0 1-.37-1.837q0-1.989 1.361-3.222 1.17-1.065 2.804-1.064 1.007 0 1.861.451t1.434 1.281q1.023 1.475 1.023 4.142 0 2.465-.902 4.205-1.176 2.264-3.561 2.264-1.587 0-2.626-.878-1.032-.88-1.193-2.36M18.18 5.93q-.758 0-1.281.62-.525.63-.524 1.596 0 .78.379 1.386.515.83 1.45.83.846 0 1.353-.677.476-.638.476-1.515 0-.927-.492-1.571a1.64 1.64 0 0 0-1.361-.669M23.496 7.951q.04-1.449.717-2.433Q25.31 3.94 27.508 3.94q1.692 0 2.732.862 1.12.935 1.12 2.417 0 .886-.444 1.531a2.14 2.14 0 0 1-1.184.862q.95.217 1.499.967.555.75.555 1.813 0 1.747-1.289 2.86-1.192 1.03-3.013 1.031-1.973 0-3.134-1.136-1.152-1.135-1.152-3.07v-.153h2.264q0 1.088.515 1.684.516.588 1.459.588t1.45-.556q.468-.524.467-1.248 0-.87-.596-1.378-.491-.42-1.515-.419-.29 0-.572.032V8.894q.21.015.403.016 2.03 0 2.03-1.506 0-.66-.443-1.064-.442-.41-1.168-.41-.83 0-1.28.515-.453.516-.484 1.506z"/></g><defs><clipPath id="a"><path fill="#fff" d="M0 0h59v20H0z"/></clipPath></defs></svg>