<?xml version="1.0" encoding="utf-8"?>
<!-- Generator: Adobe Illustrator 26.0.3, SVG Export Plug-In . SVG Version: 6.00 Build 0)  -->
<svg version="1.0" xmlns="http://www.w3.org/2000/svg" xmlns:xlink="http://www.w3.org/1999/xlink" x="0px" y="0px"
	 viewBox="0 0 24 24" enable-background="new 0 0 24 24" xml:space="preserve">
<g id="SVG_x5F_24x24pt">
	<path id="backgroundBlue" fill="#2D327D" d="M0,22.5v-21C0,0.675,0.675,0,1.5,0h21C23.325,0,24,0.675,24,1.5v21
		c0,0.825-0.675,1.5-1.5,1.5h-21C0.675,24,0,23.325,0,22.5z"/>
	<g id="content">
		<polygon fill="#FFFFFF" points="19.8,14.1 19.8,17.1 4.2,17.1 4.2,14.1 3,14.1 3,21 4.2,21 4.2,18.6 19.8,18.6 19.8,21 21,21 
			21,14.1 		"/>
		<path fill="#FFFFFF" d="M18.9,16.5h-8.4c-0.166,0-0.3-0.134-0.3-0.3v-0.9c0-0.663,0.537-1.2,1.2-1.2h7.5
			c0.166,0,0.3,0.134,0.3,0.3v1.8C19.2,16.366,19.066,16.5,18.9,16.5z"/>
		<path fill="#FFFFFF" d="M9.3,16.5H5.1c-0.166,0-0.3-0.134-0.3-0.3v-1.8c0-0.166,0.134-0.3,0.3-0.3h3.3c0.663,0,1.2,0.537,1.2,1.2
			v0.9C9.6,16.366,9.466,16.5,9.3,16.5z"/>
	</g>
</g>
</svg>
