<svg xmlns="http://www.w3.org/2000/svg" width="27" height="16" fill="none" viewBox="0 0 27 16"><path fill="#000" fill-rule="evenodd" d="M8.302 3.133c1.019 0 2.08.291 2.9.698l.66-2.23C10.722 1.155 9.462 1 8.241 1 5.56 1 3.04 2.24 3.04 5.092c0 1.978 1.433 2.755 2.726 3.456 1.065.577 2.036 1.103 2.036 2.206 0 1.454-1.321 2.114-2.662 2.114-1.2 0-2.34-.447-3.42-.932L1 14.244c1.26.446 2.64.756 3.98.756 3.061 0 5.742-1.202 5.742-4.518 0-2.138-1.537-3.017-2.865-3.776-1.009-.577-1.896-1.084-1.896-2.022 0-1.163 1.34-1.551 2.341-1.551m8.82 9.502H15.82l2.001-9.27h.96c2.52 0 4.221 1.145 4.221 3.26 0 3.722-1.84 6.01-5.88 6.01m2.56-11.402H15.48l-2.94 13.534h4.701c7.041 0 8.682-4.615 8.682-7.756 0-4.693-3.32-5.778-6.242-5.778" clip-rule="evenodd"/></svg>