<svg width="24" height="24" viewBox="0 0 24 24" fill="none" xmlns="http://www.w3.org/2000/svg"><path fill-rule="evenodd" clip-rule="evenodd" d="M13 6.5A4.5 4.5 0 0 1 17.5 2c.663 0 1.285.151 1.846.403l.66.298-.511.512L17 5.708V7h1.293l2.494-2.494.512-.511.298.658C21.85 5.215 22 5.838 22 6.5a4.5 4.5 0 0 1-4.5 4.5c-.538 0-1.048-.1-1.52-.272l-5.25 5.25c.172.474.27.985.27 1.522A4.5 4.5 0 0 1 6.5 22c-.663 0-1.285-.15-1.846-.404l-.659-.298.511-.511L7 18.293V17H5.707l-2.493 2.494-.512.511-.298-.659A4.464 4.464 0 0 1 2 17.5 4.5 4.5 0 0 1 6.5 13c.537 0 1.048.099 1.522.271l5.25-5.25A4.421 4.421 0 0 1 13 6.502ZM17.5 3A3.5 3.5 0 0 0 14 6.5c0 .51.115.991.316 1.434l.142.315-.244.245-5.72 5.719-.244.245-.315-.143A3.468 3.468 0 0 0 6.5 14 3.5 3.5 0 0 0 3 17.5c0 .246.027.485.077.716l2.07-2.07.146-.146H8v2.707l-.146.147-2.07 2.07A3.5 3.5 0 0 0 10 17.5c0-.51-.115-.993-.315-1.436l-.142-.315.244-.244 5.72-5.72.244-.243.314.141c.444.2.926.316 1.435.316a3.5 3.5 0 0 0 3.424-4.216l-2.07 2.07-.147.146H16V5.293l.146-.146 2.07-2.07A3.387 3.387 0 0 0 17.5 3Z" fill="#000"/></svg>