<?xml version="1.0" encoding="utf-8"?>
<!-- Generator: Adobe Illustrator 27.8.1, SVG Export Plug-In . SVG Version: 6.00 Build 0)  -->
<svg version="1.0" id="Ebene_1" xmlns="http://www.w3.org/2000/svg" xmlns:xlink="http://www.w3.org/1999/xlink" x="0px" y="0px"
	 viewBox="0 0 24 24" enable-background="new 0 0 24 24" xml:space="preserve">
<g id="SVG_x5F_24x24pt">
	<path id="backgroundBlue" fill="#2D327D" d="M0,22.5v-21C0,0.675,0.675,0,1.5,0h21C23.325,0,24,0.675,24,1.5v21
		c0,0.825-0.675,1.5-1.5,1.5h-21C0.675,24,0,23.325,0,22.5z"/>
	<g id="content">
		<path fill="#FFFFFF" d="M5.435,4.484c0-0.828,0.672-1.5,1.5-1.5c0.827,0,1.499,0.672,1.499,1.5c0,0.828-0.672,1.5-1.499,1.5
			C6.107,5.984,5.435,5.312,5.435,4.484L5.435,4.484z"/>
		<polygon fill="#FFFFFF" points="18.895,20.88 18.645,21.129 10.743,13.227 10.993,12.977 18.895,20.88 		"/>
		<path fill="#FFFFFF" d="M10.701,12.086l-0.003,0.002c0.072,0.072,0.129,0.162,0.157,0.268c0.085,0.32-0.104,0.649-0.424,0.734
			c-0.215,0.057-0.431-0.011-0.578-0.157H9.852l-1.117-1.117V10.12L10.701,12.086L10.701,12.086z"/>
		<path fill="#FFFFFF" d="M10.182,16.516"/>
		<path fill="#FFFFFF" d="M4.772,20.621c-0.207,0.359-0.666,0.481-1.024,0.274c-0.359-0.207-0.482-0.666-0.275-1.024l1.962-3.398
			V7.899c0-0.828,0.672-1.5,1.5-1.5c0.827,0,1.499,0.672,1.499,1.5v5.591c0,0,1.554,2.69,1.632,2.827
			c0.079,0.137,0.115,0.271,0.115,0.429c0,0.158,0,0,0,0v3.499c0,0.415-0.336,0.751-0.75,0.751c-0.414,0-0.75-0.336-0.75-0.751
			v-3.326l-1.747-3.026v2.982L4.772,20.621L4.772,20.621z"/>
	</g>
</g>
</svg>
