<svg xmlns="http://www.w3.org/2000/svg" width="24" height="24" fill="none" viewBox="0 0 24 24"><path fill="#000" fill-rule="evenodd" d="M6.293 8 2.896 4.604l.708-.707L7 7.293V4h1v5H3V8zm5.207 2A2.48 2.48 0 0 0 9 12.5c0 1.398 1.102 2.5 2.5 2.5s2.5-1.102 2.5-2.5-1.102-2.5-2.5-2.5M8 12.5C8 10.55 9.55 9 11.5 9s3.5 1.55 3.5 3.5-1.55 3.5-3.5 3.5S8 14.45 8 12.5m7-4V4h1v3.293l3.396-3.396.708.707L16.707 8H20v1h-5zm0 7.5h5v1h-3.293l3.397 3.396-.707.707L16 17.707V21h-1v-5M3 16h5v5H7v-3.293l-3.396 3.396-.708-.707L6.293 17H3z" clip-rule="evenodd"/></svg>