<svg xmlns="http://www.w3.org/2000/svg" width="24" height="24" viewBox="0 0 24 24">
  <g fill="none" fill-rule="evenodd">
    <path fill="#000" d="M10.993,18.993 L12,18.993 L11.999,19.993 L12.993,19.993 L12.993,18.994 L14.001,18.994 L14.001,20.994 L12.999,20.993 L13,21.001 L11.992,21.001 L11.991,20 L10.992,20.001 L10.992,18.993 L8.993,18.993 L8.993,17.993 L6.992,17.993 L6.992,18.993 L8,18.993 L7.999,19.992 L9.993,19.993 L9.993,20.993 L7.993,20.993 L7.992,20 L6.999,20 L7,21.001 L5.992,21.001 L5.992,19.993 L6.991,19.993 L6.992,18.993 L4.992,18.993 L4.992,18 L3.992,18.001 L3.992,16.993 L2.992,16.993 L2.992,15.993 L4.991,15.992 L4.992,14.993 L5.992,14.992 L5.992,13.993 L4,13.993 L4,15.001 L2.992,15.001 L2.992,13.993 L3.992,13.993 L3.992,12.993 L4.991,12.992 L4.992,11.992 L5.992,11.991 L5.992,10.993 L7.992,10.993 L7.992,11.991 L9,11.992 L8.999,12.992 L9.993,12.993 L9.993,11.993 L10.991,11.992 L10.992,10.992 L11.991,10.991 L11.992,9.992 L14.001,9.993 L14.001,11.993 L12.993,11.993 L12.993,10.999 L11.999,10.999 L12,12 L11.992,11.999 L11.993,12.993 L13,12.993 L12.999,13.993 L13.993,13.994 L13.993,14.994 L11.999,14.993 L11.999,15.992 L13.993,15.993 L13.993,16.993 L12.994,16.993 L12.994,17.993 L10.993,17.993 L10.993,18.993 Z M4,18.994 L3.999,19.993 L5,19.993 L5,21.001 L3.992,21.001 L3.991,20.993 L2.992,20.994 L2.992,18.994 L4,18.994 Z M10.993,16.993 L11.992,16.993 L11.991,16 L10.992,16 L10.993,16.993 Z M9.992,13.992 L6.992,13.992 L6.992,16.992 L9.992,16.992 L9.992,13.992 Z M9,14.993 L9,16.001 L7.992,16.001 L7.992,14.993 L9,14.993 Z M10.992,14.992 L11.991,14.992 L11.992,12.993 L10.992,12.992 L10.992,14.992 Z M7.991,11.992 L5.999,11.992 L5.999,12.992 L7.991,12.992 L7.991,11.992 Z M5,9.992 L5,11 L3.999,10.999 L4,11.993 L2.992,11.993 L2.992,9.993 L5,9.992 Z M9.993,9.993 L9.993,10.993 L7.993,10.993 L7.993,9.993 L9.993,9.993 Z M5.992,17.992 L5.992,16 L4.992,16 L4.992,16.993 L5,16.993 L4.999,17.992 L5.992,17.992 Z"/>
    <path stroke="#000" d="M17.4991,8.0008 C17.4991,8.8298 16.8271,9.5008 15.9991,9.5008 C15.1701,9.5008 14.4991,8.8298 14.4991,8.0008 C14.4991,7.1718 15.1701,6.5008 15.9991,6.5008 C16.8271,6.5008 17.4991,7.1718 17.4991,8.0008 Z M14.9796,14.558 L16.0046,16.176 L19.8916,10.041 C20.2536,9.405 20.4856,8.744 20.4926,8.007 C20.4926,5.522 18.4776,3.507 15.9926,3.507 C13.5066,3.507 11.4926,5.522 11.4926,8.007 C11.5056,8.354 11.5596,8.676 11.6476,8.981"/>
  </g>
</svg>
