<?xml version="1.0" encoding="utf-8"?>
<!-- Generator: Adobe Illustrator 29.0.0, SVG Export Plug-In . SVG Version: 9.03 Build 54978)  -->
<svg version="1.0" id="Ebene_1" xmlns="http://www.w3.org/2000/svg" xmlns:xlink="http://www.w3.org/1999/xlink" x="0px" y="0px"
	 viewBox="0 0 24 24" enable-background="new 0 0 24 24" xml:space="preserve">
<g id="SVG_x5F_24x24pt">
	<path id="backgroundBlue" fill="#2D327D" d="M0,22.5v-21C0,0.675,0.675,0,1.5,0h21C23.325,0,24,0.675,24,1.5v21
		c0,0.825-0.675,1.5-1.5,1.5h-21C0.675,24,0,23.325,0,22.5z"/>
	<g id="content">
		<g>
			<path fill="#FFFFFF" d="M6.608,7.51h6.072c1.304,0,2.276,0.163,2.916,0.489c0.603,0.308,1.058,0.754,1.366,1.338
				c0.258,0.492,0.388,1.015,0.388,1.569c0,0.615-0.157,1.163-0.471,1.643c-0.314,0.48-0.769,0.858-1.366,1.135
				c0.517,0.172,0.904,0.354,1.163,0.544c0.873,0.64,1.31,1.572,1.31,2.796c0,0.726-0.161,1.378-0.484,1.956
				c-0.323,0.578-0.786,1.043-1.389,1.394c-0.714,0.418-1.677,0.628-2.889,0.628H6.608V7.51z M9.552,9.826v3.147h2.695
				c0.628,0,1.089-0.074,1.384-0.221c0.547-0.264,0.821-0.72,0.821-1.366c0-0.547-0.172-0.944-0.517-1.19
				c-0.345-0.246-0.908-0.369-1.689-0.369H9.552z M9.552,14.985v3.701h2.981c0.855,0,1.455-0.12,1.8-0.36
				c0.455-0.326,0.683-0.821,0.683-1.486c0-0.794-0.308-1.335-0.923-1.624c-0.338-0.154-0.908-0.231-1.707-0.231H9.552z"/>
		</g>
		<g>
			<path fill="#FFFFFF" d="M4.812,3.666H4.344c-0.009-0.11-0.05-0.194-0.122-0.251S4.049,3.328,3.918,3.328
				c-0.116,0-0.206,0.023-0.27,0.068C3.584,3.442,3.552,3.506,3.552,3.588c0,0.074,0.031,0.127,0.092,0.16
				c0.059,0.033,0.21,0.079,0.452,0.138c0.255,0.064,0.432,0.128,0.531,0.192C4.809,4.197,4.9,4.363,4.9,4.575
				c0,0.233-0.091,0.416-0.274,0.551C4.465,5.244,4.247,5.303,3.972,5.303c-0.306,0-0.543-0.07-0.712-0.209
				C3.091,4.954,3.003,4.755,2.997,4.498h0.489c0.007,0.125,0.039,0.218,0.097,0.278c0.09,0.096,0.226,0.145,0.408,0.145
				c0.123,0,0.22-0.024,0.292-0.072c0.081-0.055,0.122-0.131,0.122-0.226S4.348,4.458,4.234,4.413
				C4.171,4.389,4.023,4.344,3.791,4.28C3.645,4.24,3.531,4.202,3.449,4.166S3.302,4.09,3.252,4.046
				C3.138,3.943,3.08,3.802,3.08,3.621c0-0.216,0.09-0.388,0.269-0.514C3.502,3,3.701,2.946,3.945,2.946
				c0.214,0,0.394,0.043,0.538,0.128C4.691,3.196,4.801,3.393,4.812,3.666z"/>
			<path fill="#FFFFFF" d="M6.696,4.726C6.673,4.82,6.63,4.909,6.569,4.992c-0.148,0.202-0.36,0.303-0.637,0.303
				c-0.25,0-0.451-0.079-0.601-0.237C5.257,4.981,5.2,4.888,5.161,4.78C5.119,4.664,5.098,4.543,5.098,4.417
				c0-0.244,0.07-0.449,0.211-0.615c0.157-0.186,0.36-0.278,0.609-0.278c0.201,0,0.372,0.062,0.514,0.186
				c0.102,0.089,0.175,0.199,0.221,0.33s0.069,0.295,0.069,0.493h-1.17c0.004,0.082,0.017,0.15,0.038,0.205
				c0.06,0.147,0.175,0.22,0.345,0.22c0.083,0,0.151-0.018,0.203-0.055C6.19,4.865,6.233,4.807,6.267,4.726H6.696z M6.267,4.232
				C6.259,4.151,6.24,4.084,6.212,4.031C6.183,3.978,6.142,3.937,6.089,3.906C6.037,3.875,5.979,3.86,5.916,3.86
				c-0.099,0-0.181,0.033-0.246,0.1C5.606,4.026,5.567,4.117,5.555,4.232H6.267z"/>
			<path fill="#FFFFFF" d="M8.546,4.604C8.525,4.771,8.469,4.911,8.379,5.023C8.233,5.204,8.028,5.295,7.762,5.295
				c-0.273,0-0.485-0.093-0.637-0.28C6.997,4.856,6.933,4.66,6.933,4.426c0-0.289,0.086-0.517,0.257-0.684
				c0.15-0.146,0.343-0.218,0.58-0.218c0.218,0,0.396,0.057,0.532,0.17c0.136,0.113,0.214,0.268,0.234,0.465H8.097
				C8.081,4.069,8.045,4,7.988,3.951C7.932,3.901,7.861,3.877,7.774,3.877c-0.124,0-0.22,0.047-0.288,0.141
				C7.418,4.111,7.384,4.243,7.384,4.412c0,0.15,0.027,0.27,0.082,0.361c0.067,0.112,0.167,0.168,0.3,0.168
				c0.197,0,0.312-0.112,0.346-0.337H8.546z"/>
			<path fill="#FFFFFF" d="M9.708,3.566v0.315H9.374V4.67c0,0.094,0.009,0.154,0.026,0.18c0.026,0.037,0.083,0.055,0.172,0.055
				c0.035,0,0.08-0.003,0.135-0.008v0.357c-0.1,0.011-0.193,0.017-0.277,0.017c-0.127,0-0.224-0.014-0.291-0.043
				c-0.104-0.046-0.168-0.13-0.194-0.252c-0.011-0.052-0.017-0.16-0.017-0.325V3.881H8.657V3.566h0.272V3.172h0.445v0.394H9.708z"/>
			<path fill="#FFFFFF" d="M11.44,4.726c-0.024,0.094-0.066,0.183-0.128,0.266c-0.148,0.202-0.36,0.303-0.637,0.303
				c-0.25,0-0.451-0.079-0.601-0.237C10,4.981,9.944,4.888,9.905,4.78C9.863,4.664,9.842,4.543,9.842,4.417
				c0-0.244,0.07-0.449,0.211-0.615c0.157-0.186,0.36-0.278,0.609-0.278c0.201,0,0.372,0.062,0.514,0.186
				c0.102,0.089,0.175,0.199,0.221,0.33s0.069,0.295,0.069,0.493h-1.17c0.004,0.082,0.017,0.15,0.038,0.205
				c0.06,0.147,0.175,0.22,0.345,0.22c0.083,0,0.151-0.018,0.203-0.055c0.052-0.036,0.095-0.095,0.129-0.176H11.44z M11.011,4.232
				c-0.008-0.081-0.027-0.148-0.055-0.201c-0.029-0.052-0.069-0.094-0.122-0.125S10.722,3.86,10.66,3.86
				c-0.099,0-0.181,0.033-0.246,0.1c-0.065,0.067-0.103,0.157-0.115,0.272H11.011z"/>
			<path fill="#FFFFFF" d="M13.258,3.569v1.68h-0.425V5.004c-0.128,0.194-0.308,0.291-0.538,0.291c-0.201,0-0.353-0.067-0.455-0.201
				c-0.039-0.052-0.067-0.114-0.084-0.185c-0.017-0.071-0.025-0.163-0.025-0.277V3.569h0.446v0.924c0,0.096,0.003,0.165,0.008,0.205
				c0.006,0.04,0.017,0.074,0.035,0.102c0.047,0.075,0.128,0.112,0.241,0.112c0.14,0,0.243-0.062,0.306-0.186
				c0.031-0.06,0.046-0.17,0.046-0.328V3.569H13.258z"/>
			<path fill="#FFFFFF" d="M14.647,3.541v0.432c-0.072-0.013-0.13-0.02-0.174-0.02c-0.166,0-0.288,0.07-0.366,0.209
				c-0.044,0.078-0.066,0.208-0.066,0.391v0.695h-0.446v-1.68h0.425v0.306c0.121-0.228,0.297-0.341,0.528-0.341
				C14.575,3.534,14.609,3.536,14.647,3.541z"/>
		</g>
	</g>
</g>
</svg>
