<?xml version="1.0" encoding="utf-8"?>
<!-- Generator: Adobe Illustrator 24.2.0, SVG Export Plug-In . SVG Version: 6.00 Build 0)  -->
<svg version="1.0" id="Ebene_1" xmlns="http://www.w3.org/2000/svg" xmlns:xlink="http://www.w3.org/1999/xlink" x="0px" y="0px"
	 viewBox="0 0 24 24" enable-background="new 0 0 24 24" xml:space="preserve">
<g id="SVG_x5F_24x24pt">
	<path id="backgroundBlue" fill="#2D327D" d="M0,22.5v-21C0,0.675,0.675,0,1.5,0h21C23.325,0,24,0.675,24,1.5v21
		c0,0.825-0.675,1.5-1.5,1.5h-21C0.675,24,0,23.325,0,22.5z"/>
	<g id="content">
		<path fill="#FFFFFF" d="M6.246,5.627c-0.725,0-1.312-0.588-1.312-1.313c0-0.725,0.588-1.313,1.312-1.313
			c0.725,0,1.312,0.588,1.312,1.313C7.558,5.039,6.971,5.627,6.246,5.627L6.246,5.627z"/>
		<polygon fill="#FFFFFF" points="20.999,21 6.674,21 6.674,20.337 20.999,18 20.999,21 		"/>
		<path fill="#FFFFFF" d="M4.949,16.21V8.513l-0.824,1.05v2.813c0,0.269-0.219,0.488-0.488,0.488c-0.269,0-0.488-0.218-0.488-0.488
			V9.181c0-0.168,0.056-0.331,0.16-0.463L4.895,6.7c0.284-0.362,0.719-0.573,1.179-0.573c0.828,0,1.5,0.672,1.5,1.5v5.046
			l1.542,1.543c0.141,0.14,0.22,0.331,0.22,0.53v3.91c0,0.383-0.311,0.694-0.693,0.694c-0.383,0-0.694-0.311-0.694-0.694v-3.434
			l-1.5-1.5v2.502c0,0.148-0.044,0.293-0.126,0.416l-2.376,3.676c-0.128,0.198-0.347,0.317-0.583,0.317
			c-0.383,0-0.693-0.311-0.693-0.694c0-0.133,0.039-0.264,0.111-0.376L4.949,16.21L4.949,16.21z"/>
		<path fill="#FFFFFF" d="M9.28,11.545c-0.059,0-0.117-0.01-0.172-0.03L8.211,11.19v-1.077l1.241,0.449
			c0.2,0.072,0.334,0.263,0.334,0.476C9.787,11.318,9.56,11.545,9.28,11.545L9.28,11.545z"/>
	</g>
</g>
</svg>
