<svg xmlns="http://www.w3.org/2000/svg" width="14" height="16" fill="none" viewBox="0 0 14 16"><path fill="#000" d="M6.5 3.5a1.25 1.25 0 1 0 0-2.5 1.25 1.25 0 0 0 0 2.5"/><path fill="#000" fill-rule="evenodd" d="m13.007 14.447.011.011-1.036 1.084-2.092-2A4.7 4.7 0 0 1 6.5 15c-2.62 0-4.75-2.13-4.75-4.75a4.7 4.7 0 0 1 1.302-3.249L.482 4.542 1.517 3.46l11.488 10.988zM4 7.907l1 .957V9.5c0 .83.67 1.5 1.5 1.5h.733l1.585 1.516A3.23 3.23 0 0 1 6.5 13.5c-1.79 0-3.25-1.46-3.25-3.25 0-.78.29-1.49.75-2.05z" clip-rule="evenodd"/><path fill="#000" d="M5.236 4.941 8 7.585V5.75c0-.83-.67-1.5-1.5-1.5-.532 0-.998.275-1.264.691M8.956 8.5l3.515 3.362-.981-2.702a.99.99 0 0 0-.94-.66z"/></svg>