<svg class="color-immutable" width="59" height="20" viewBox="0 0 59 20" fill="none" xmlns="http://www.w3.org/2000/svg"><g clip-path="url(#a)"><path fill-rule="evenodd" clip-rule="evenodd" d="M2 0a2 2 0 0 0-2 2v16a2 2 0 0 0 2 2h55a2 2 0 0 0 2-2V2a2 2 0 0 0-2-2H2Z" fill="#EB0000"/><path d="M9.22 4.2h4.057L8.259 15.8H4.186L9.22 4.2ZM15.948 4.2h14.395l-1.49 3.445h-10.28l-2.042 4.71h10.285l-1.49 3.445H10.93l5.017-11.6ZM42.289 4.234v11.565h-2.31v-7.57h-2.721V6.552c.564-.016 1.023-.074 1.376-.174.359-.1.686-.264.98-.49.428-.328.716-.879.863-1.654h1.812ZM45.556 12.896h2.183c.179.896.698 1.344 1.558 1.344.485 0 .878-.163 1.179-.49.306-.332.54-.847.704-1.543.105-.443.181-.946.229-1.51-.353.495-.717.849-1.092 1.06-.369.205-.82.308-1.352.308-.85 0-1.588-.248-2.215-.744a3.542 3.542 0 0 1-1.028-1.352 4.444 4.444 0 0 1-.364-1.804c0-1.302.445-2.357 1.337-3.164.764-.696 1.682-1.044 2.752-1.044.66 0 1.268.148 1.828.443a3.961 3.961 0 0 1 1.407 1.258c.67.965 1.005 2.32 1.005 4.066 0 1.613-.295 2.99-.886 4.129-.77 1.482-1.935 2.222-3.496 2.222-1.039 0-1.898-.287-2.579-.862-.675-.575-1.065-1.347-1.17-2.317ZM49.4 5.91c-.496 0-.915.203-1.258.609-.343.411-.514.933-.514 1.566 0 .512.124.965.372 1.36.337.544.812.815 1.423.815.554 0 .997-.221 1.33-.664.31-.417.466-.912.466-1.487 0-.607-.16-1.12-.482-1.543a1.606 1.606 0 0 0-1.337-.656Z" fill="#fff"/></g><defs><clipPath id="a"><path fill="#fff" d="M0 0h59v20H0z"/></clipPath></defs></svg>