<svg xmlns="http://www.w3.org/2000/svg" width="48" height="48" fill="none" viewBox="0 0 48 48"><path fill="#000" fill-rule="evenodd" d="M37 9.5V8.293l-.854.853-7.882 7.883-13.797 1.97a14 14 0 0 1-4.416-.759c-1.51-.578-2.737-1.49-3.002-3.063l-.033-.237-.496.06-.497.052q.015.151.04.296a9.2 9.2 0 0 0 1.267 3.447 9 9 0 0 0 2.24 2.598l.008.005.006.005A8.26 8.26 0 0 0 14 22.987V39h7.015L21 38.485v-.006l-.001-.022v-.032l-.002-.056-.003-.34c0-.294.004-.715.022-1.221.036-1.014.129-2.36.353-3.703.226-1.35.58-2.657 1.116-3.617.534-.956 1.191-1.475 2.018-1.488H30v11h5V23.707l1.5-1.5.646.647.07.07h.002a1.82 1.82 0 0 0 2.564 0h.002l.07-.07 2-2 .008-.01a1.95 1.95 0 0 0 0-2.689l-.009-.009L37 13.293zM22.32 28.012c-.742.082-1.341.592-1.835 1.476-.537.96-.89 2.266-1.116 3.617a29 29 0 0 0-.353 3.703c-.018.49-.022.9-.022 1.192h1c0-.303.004-.725.022-1.228a30 30 0 0 1 .367-3.832c.233-1.392.61-2.831 1.229-3.94a5 5 0 0 1 .707-.988M17.993 38c0-.303.004-.725.022-1.228a30 30 0 0 1 .367-3.832c.233-1.392.61-2.831 1.229-3.94.62-1.111 1.545-1.981 2.881-2H33v11h1V23.707l-5.677-5.677-13.752 1.965-.037.005h-.038a15 15 0 0 1-4.779-.817l.163-.473-.178.467c-.47-.18-.94-.398-1.38-.669a8 8 0 0 0 1.86 2.094A7.26 7.26 0 0 0 14.498 22l.502-.002V38zm11.213-20.5 5.293 5.293.779-.779-5.28-5.306zm6.94 3.646-.161.161-5.28-5.306L36 10.707v3l.146.147 4.996 4.995a.95.95 0 0 1 0 1.302l-1.996 1.995-.068.07h-.001a.82.82 0 0 1-1.154 0l-.07-.07-1-1-.353-.353zM32 38V28h-1v10zm4.5-22a1.5 1.5 0 1 0 0 3 1.5 1.5 0 0 0 0-3m-.354 1.146a.5.5 0 1 1 .708.708.5.5 0 0 1-.708-.708" clip-rule="evenodd"/></svg>