<svg xmlns="http://www.w3.org/2000/svg" width="48" height="48" version="1.1" viewBox="0 0 48 48">
  <path fill="none" fill-rule="evenodd" stroke="#000" stroke-width="1" d="M37.5,6.5 C39.709,6.5 41.5,9.187 41.5,12.5 C41.5,15.813 39.709,18.5 37.5,18.5 C35.291,18.5 33.5,15.813 33.5,12.5 C33.5,9.187 35.291,6.5 37.5,6.5 Z M9.5,15 L9.5,6 M27.5,23 L24.5,23 L24.5,41.5 C24.5,42.053 24.052,42.5 23.5,42.5 C22.948,42.5 22.5,42.053 22.5,41.5 L22.5,6.5 C25.262,6.5 27.5,8.648 27.5,13 L27.5,23 Z M13.5,6 L13.5,16.517 C13.5,17.612 12.612,18.5 11.517,18.5 L11.5,18.5 L11.5,41.5 C11.5,42.053 11.052,42.5 10.5,42.5 C9.948,42.5 9.5,42.053 9.5,41.5 L9.5,18.5 L9.483,18.5 C8.388,18.5 7.5,17.612 7.5,16.517 L7.5,6 M11.5,15 L11.5,6 M38.5,18 L38.5,41.5 C38.5,42.053 38.053,42.5 37.5,42.5 C36.947,42.5 36.5,42.053 36.5,41.5 L36.5,18 M9.5,18.5 L11.5,18.5"/>
</svg>
