<svg xmlns="http://www.w3.org/2000/svg" width="24" height="24" fill="none" viewBox="0 0 24 24"><path fill="#000" fill-rule="evenodd" d="M9 5.5a2.5 2.5 0 1 1 5 0V7H9zM8 8v2h1V8h5v2h1V8h2.037l.923 12H5.04l.923-12zm0-1V5.5a3.5 3.5 0 1 1 7 0V7h2.963l.035.462 1 13 .042.538H3.96l.041-.538 1-13L5.037 7H8m3 10v-5h1v5zm.5-7q-.299 0-.587.038l.13.991a3.5 3.5 0 0 1 .915 0l.129-.991A5 5 0 0 0 11.5 10m2.74.93a4.5 4.5 0 0 0-1.017-.588l-.384.923q.429.178.791.458zm-4.463-.588c-.366.151-.707.35-1.017.588l.61.793q.362-.28.79-.458zm5.881 2.435a4.5 4.5 0 0 0-.588-1.017l-.793.61c.185.24.34.506.458.79zM7.93 11.76c-.238.31-.437.651-.588 1.017l.923.383c.118-.284.273-.55.458-.79zM16 14.5q0-.299-.038-.587l-.992.129a3.5 3.5 0 0 1 0 .915l.992.13Q16 14.798 16 14.5m-8.962-.587a4.5 4.5 0 0 0 0 1.174l.992-.13a3.5 3.5 0 0 1 0-.915zm8.032 3.326q.358-.465.588-1.017l-.923-.383q-.179.428-.458.791zm-7.728-1.017c.151.366.35.708.588 1.017l.793-.609a3.5 3.5 0 0 1-.458-.79zm5.88 2.436a4.5 4.5 0 0 0 1.018-.588l-.61-.793a3.5 3.5 0 0 1-.79.457zM8.76 18.07a4.5 4.5 0 0 0 1.017.588l.383-.924a3.5 3.5 0 0 1-.79-.457zm2.153.892a4.5 4.5 0 0 0 1.174 0l-.13-.992a3.5 3.5 0 0 1-.915 0z" clip-rule="evenodd"/></svg>