<svg xmlns="http://www.w3.org/2000/svg" width="36" height="36" version="1.1" viewBox="0 0 36 36">
  <path fill="none" fill-rule="evenodd" stroke="#000" stroke-width="1" d="M24.75,32.2488 L24.75,18.7488 L17.25,15.7488 L9.75,18.7488 L9.75,32.2488 M21.75,17.54835 L21.75,12.74835 C21.75,10.26285 19.7355,8.24835 17.25,8.24835 C14.7645,8.24835 12.75,10.26285 12.75,12.74835 L12.75,17.54835 M12.75,12.7488 L21.75,12.7488 M3,32.2488 L31.5,32.2488 M9.75,20.2488 L24.75,20.2488 M21.7515,32.24955 L21.75,23.24955 M12.75,32.2488 L12.75,23.2488 M17.25,5.24805 L20.25,5.24805 L20.25,3.74805 L17.25,3.74805 L17.25,8.24805 M18.75,32.2488 L18.747,27.7488 C18.747,26.9208 18.0765,26.2488 17.2485,26.2488 C16.419,26.2488 15.7485,26.9208 15.7485,27.7488 L15.75,32.2488 M5.25,32.24805 L5.25,23.24805 L29.25,23.24805 L29.25,32.24805"/>
</svg>
