<svg xmlns="http://www.w3.org/2000/svg" width="24" height="24" fill="none" viewBox="0 0 24 24"><path fill="#000" fill-rule="evenodd" d="M11.796 3.097 11 2.512v5.294l-2.342-.78L8 6.806V10.5a3.5 3.5 0 0 0 3.5 3.5c1.964 0 3.325-1.596 3.496-3.439a3 3 0 0 0 .025-.2c.013-.134.028-.325.033-.56a8.6 8.6 0 0 0-.17-1.877c-.304-1.5-1.107-3.372-3.088-4.827m2.212 7.316-.001.005-.003.018-.002.02C13.872 11.906 12.844 13 11.5 13A2.5 2.5 0 0 1 9 10.5V8.194l2.342.78.658.22V4.578c1.163 1.142 1.682 2.45 1.903 3.545.134.66.16 1.242.15 1.657a6 6 0 0 1-.041.604zM9.5 15h-.61l.12.598 1 5 .08.402h2.82l.08-.402 1-5 .12-.598H9.5m1.41 5-.8-4h2.78l-.8 4z" clip-rule="evenodd"/></svg>