<svg xmlns="http://www.w3.org/2000/svg" width="16" height="16" fill="none" viewBox="0 0 16 16"><path fill="#000" d="M4 10.5c0 .766.597 1.637 1.5 2.36.436.349.915.639 1.367.84.459.203.855.3 1.133.3.277 0 .673-.097 1.132-.3.452-.201.93-.491 1.367-.84.903-.723 1.5-1.594 1.5-2.36v-3h1v3c0 1.234-.902 2.363-1.875 3.14-.5.401-1.053.736-1.585.973-.525.234-1.067.387-1.54.387-.472 0-1.014-.153-1.539-.387a7.4 7.4 0 0 1-1.585-.972C3.902 12.863 3 11.734 3 10.5v-3h1zm6.158 1.475h-.005q-.005.003-.014.005l-.05.017-.181.058c-.152.047-.36.111-.583.175-.224.064-.47.13-.694.18-.212.047-.447.09-.631.09a3 3 0 0 1-.632-.09c-.225-.05-.47-.116-.694-.18a23 23 0 0 1-.583-.175l-.181-.058-.05-.017-.014-.004-.003-.001h-.002l.317-.95v.001h.004l.058.02.172.056c.146.046.345.107.558.168.213.06.437.12.634.164q.316.068.416.066.1.002.415-.066c.197-.044.42-.103.634-.164.213-.061.412-.122.558-.168l.172-.056.058-.02h.004zM6 8.75a.75.75 0 1 1 0 1.5.75.75 0 0 1 0-1.5m4 0a.75.75 0 1 1 0 1.5.75.75 0 0 1 0-1.5M8.09 1.008l5.5 1 .566.103-.182.547-1 3L12.86 6h-1.162q-.082.078-.202.187c-.22.195-.53.455-.89.717a7.7 7.7 0 0 1-1.214.736C8.961 7.843 8.478 8 8 8c-.479 0-.962-.157-1.393-.36a7.7 7.7 0 0 1-1.214-.736c-.36-.262-.67-.523-.89-.717q-.12-.11-.202-.187H3.14l-.114-.342-1-3-.182-.547.567-.103 5.5-1L8 .992zM5.98 6.096c.328.239.691.47 1.052.64.365.171.695.264.967.264.27 0 .6-.093.966-.265.36-.17.724-.4 1.052-.64q.066-.047.128-.095H5.854zM3.156 2.889 3.86 5h8.28l.702-2.111L8 2.008zM8 2.75a.75.75 0 1 1 0 1.5.75.75 0 0 1 0-1.5"/></svg>