<svg xmlns="http://www.w3.org/2000/svg" width="24" height="24" fill="none" viewBox="0 0 24 24"><path fill="#000" fill-rule="evenodd" d="M5.5 2H5v7h1c0 .384.144.735.382 1H2v1h20v-1h-5.382c.238-.265.382-.616.382-1h2.238l-.274-.686L18 5.904V4h-1V2h-3v2h-3V2H5.5m8.882 8A1.5 1.5 0 0 1 14 9h-1c0 .384-.144.735-.382 1zm-4 0A1.5 1.5 0 0 1 10 9H9c0 .384-.144.735-.382 1zM15 9h1a.5.5 0 0 1-1 0m-3 0h-1a.5.5 0 0 0 1 0M7 9h1a.5.5 0 1 1-1 0m8-5h1V3h-1zm-9 .5V3h4v2h7v1.096l.036.09L17.762 8H6zM9 21v-4c0-1.665 1.342-3 3-3s3 1.335 3 3v4zm-1 0v-4c0-2.219 1.792-4 4-4s4 1.781 4 4v4h2v-4c0-2.219 1.792-4 4-4v1c-1.658 0-3 1.335-3 3v4h3v1H2v-1h3v-4c0-1.665-1.342-3-3-3v-1c2.208 0 4 1.781 4 4v4z" clip-rule="evenodd"/></svg>