<svg xmlns="http://www.w3.org/2000/svg" width="24" height="24" viewBox="0 0 24 24">
  <path fill="none" stroke="#000" d="M12.5,9.0002 L12.5,6.0002 M11,7.5002 L14,7.5002 M18.5,11.4997 C18.5,9.7997 19.8,8.4997 21.5,8.4997 L21.5,4.4997 L17,4.4997 L2.5,4.4997 L2.5,18.4997 L21.5,18.4997 L21.5,14.4997 C19.8,14.4997 18.5,13.1997 18.5,11.4997 Z M16.5,7.0002 L16.5,6.0002 M16.5,9.0002 L16.5,8.0002 M16.5,11.0002 L16.5,10.0002 M16.5,13.0002 L16.5,12.0002 M16.5,14.9997 L16.5,13.9997 M16.5,16.9997 L16.5,15.9997 M13.5,13.9997 L13.5,10.9997 M12,12.5002 L15,12.5002 M7.5,11.4997 C7.5,10.3177 8.022,9.2667 8.838,8.5337 C8.725,8.5237 8.616,8.4997 8.5,8.4997 C6.291,8.4997 4.5,10.2907 4.5,12.4997 C4.5,14.7087 6.291,16.4997 8.5,16.4997 C9.527,16.4997 10.454,16.1027 11.162,15.4657 C9.114,15.2917 7.5,13.5937 7.5,11.4997 Z"/>
</svg>
