<?xml version="1.0" encoding="utf-8"?>
<!-- Generator: Adobe Illustrator 28.0.0, SVG Export Plug-In . SVG Version: 6.00 Build 0)  -->
<svg version="1.0" xmlns="http://www.w3.org/2000/svg" xmlns:xlink="http://www.w3.org/1999/xlink" x="0px" y="0px"
	 viewBox="0 0 24 24" enable-background="new 0 0 24 24" xml:space="preserve">
<g id="SVG_x5F_24x24pt">
	<path id="backgroundBlue" fill="#2D327D" d="M0,22.5v-21C0,0.675,0.675,0,1.5,0h21C23.325,0,24,0.675,24,1.5v21
		c0,0.825-0.675,1.5-1.5,1.5h-21C0.675,24,0,23.325,0,22.5z"/>
	<g id="content">
		<circle fill="#FFFFFF" cx="12" cy="12" r="3"/>
		<path fill="#FFFFFF" d="M19.8,6.75h-3.525l-0.347-0.494c0,0,0,0,0,0l-0.708-1.007C15.155,5.156,15.043,5.1,14.921,5.1H12H9.079
			c-0.121,0-0.234,0.056-0.299,0.149L8.072,6.256c0,0,0,0,0,0L7.725,6.75H4.2C3.537,6.75,3,7.287,3,7.95v8.1
			c0,0.663,0.537,1.2,1.2,1.2h15.6c0.663,0,1.2-0.537,1.2-1.2v-8.1C21,7.287,20.463,6.75,19.8,6.75z M5.475,9.15
			c-0.414,0-0.75-0.336-0.75-0.75c0-0.414,0.336-0.75,0.75-0.75c0.414,0,0.75,0.336,0.75,0.75C6.225,8.814,5.889,9.15,5.475,9.15z
			 M12,16.05c-2.237,0-4.05-1.813-4.05-4.05S9.763,7.95,12,7.95s4.05,1.813,4.05,4.05S14.237,16.05,12,16.05z"/>
		<path fill="#FFFFFF" d="M19.875,5.85c0-0.083-0.034-0.158-0.088-0.212c-0.055-0.054-0.13-0.088-0.212-0.088h-1.95
			c-0.166,0-0.3,0.134-0.3,0.3v0.3h2.55V5.85z"/>
		<polygon fill="#EB0000" points="3.708,2.631 2.648,3.692 19.99,21.034 21.05,19.973 3.708,2.631 		"/>
	</g>
</g>
</svg>
