<svg class="color-immutable" xmlns="http://www.w3.org/2000/svg" width="59" height="20" fill="none" viewBox="0 0 59 20"><path fill="#EB0000" fill-rule="evenodd" d="M2 0a2 2 0 0 0-2 2v16a2 2 0 0 0 2 2h55a2 2 0 0 0 2-2V2a2 2 0 0 0-2-2z" clip-rule="evenodd"/><path fill="#fff" d="M36.608 7.898a4.34 4.34 0 0 1 .702-2.39q1.073-1.55 3.224-1.55 1.656 0 2.673.847a2.95 2.95 0 0 1 1.096 2.373 2.6 2.6 0 0 1-.43 1.499 2.1 2.1 0 0 1-1.163.85c.59.123 1.114.461 1.47.95.37.518.559 1.143.54 1.78a3.55 3.55 0 0 1-1.261 2.807q-1.166 1.013-2.948 1.013-1.932 0-3.063-1.116-1.131-1.115-1.131-3.013v-.15h2.215q0 1.067.504 1.649c.364.4.889.613 1.427.581q.922 0 1.42-.546c.301-.335.465-.774.457-1.226a1.69 1.69 0 0 0-.584-1.352q-.48-.412-1.482-.412-.28 0-.56.032v-1.7q.205.015.395.015 1.986 0 1.986-1.48a1.36 1.36 0 0 0-.433-1.047 1.62 1.62 0 0 0-1.143-.4 1.57 1.57 0 0 0-1.254.506q-.441.507-.473 1.48z"/><path fill="#fff" fill-rule="evenodd" d="M51.256 7.123h2.191a3.9 3.9 0 0 0-.749-1.875q-1.017-1.29-2.932-1.29a3.75 3.75 0 0 0-3.209 1.622q-1.214 1.677-1.214 4.635 0 2.769 1.135 4.315t3.177 1.547a3.84 3.84 0 0 0 2.728-1.068q1.261-1.187 1.261-3.14a4.05 4.05 0 0 0-.938-2.737 3.26 3.26 0 0 0-2.61-1.155 3 3 0 0 0-1.414.308c-.44.25-.82.596-1.108 1.013.05-.657.169-1.307.355-1.938q.536-1.574 1.813-1.574 1.206 0 1.514 1.337m-3.028 3.345a1.53 1.53 0 0 1 1.317-.696 1.64 1.64 0 0 1 1.411.736c.291.425.44.932.426 1.448a2.43 2.43 0 0 1-.473 1.495 1.59 1.59 0 0 1-1.332.672 1.55 1.55 0 0 1-1.34-.704 2.5 2.5 0 0 1-.45-1.48 2.46 2.46 0 0 1 .441-1.47" clip-rule="evenodd"/><path fill="#fff" d="M9.22 4.2h4.056L8.258 15.8H4.185zM25.98 12.366a.93.93 0 0 0 .847-.553L30.119 4.2H15.984l-5.018 11.6h4.038l3.8-8.69h5.993l-1.201 2.775-5.226-.019 4.217 5.934h4.597l-3.124-3.434z"/></svg>