<svg xmlns="http://www.w3.org/2000/svg" width="36" height="36" version="1.1" viewBox="0 0 36 36">
  <path fill="none" fill-rule="evenodd" stroke="#000" stroke-width="1" d="M8.25,32.25 L32.25,24.75 L32.25,32.25 L8.25,32.25 Z M6.75,23.25 L6.75,33 M11.25,31.3125 L11.25,26.25 L9.75,23.25 M9.75,15.75 L9.75,23.25 L6.75,23.25 L6.75,15.75 M3.75,22.5 L3.75,18.75 L6.75,15.75 L9.75,15.75 L11.25,18.75 L13.5,21.75 M8.25,12.75 C7.4505,12.75 6.75,12.0495 6.75,11.25 C6.75,10.4505 7.4505,9.75 8.25,9.75 C9.0495,9.75 9.75,10.4505 9.75,11.25 C9.75,12.0495 9.0495,12.75 8.25,12.75 Z"/>
</svg>
