<svg class="color-immutable" width="59" height="20" viewBox="0 0 59 20" fill="none" xmlns="http://www.w3.org/2000/svg"><g clip-path="url(#a)" fill="#fff"><path d="M57.208 1c.439 0 .795.358.795.8v16.4c0 .442-.356.8-.795.8H1.792a.798.798 0 0 1-.795-.8V1.8c0-.442.356-.8.795-.8h55.416Zm0-1H1.792C.803 0 0 .806 0 1.8v16.4c0 .994.803 1.8 1.792 1.8h55.416c.99 0 1.792-.806 1.792-1.8V1.8c0-.994-.803-1.8-1.792-1.8Z"/><path d="M4.16 4.234h5.6c1.108 0 1.957.174 2.547.522.49.285.865.664 1.124 1.139.258.475.387 1.01.387 1.606 0 .675-.163 1.263-.49 1.764-.322.5-.773.86-1.353 1.075a1.95 1.95 0 0 1 1.203.855c.184.28.308.572.371.878.064.306.145 1.004.245 2.096.074.802.188 1.3.34 1.495l.111.135h-2.634a1.982 1.982 0 0 1-.197-.625c-.037-.253-.087-.839-.15-1.756-.064-.818-.264-1.382-.602-1.693-.332-.317-.902-.475-1.708-.475h-2.27V15.8H4.16V4.234Zm2.523 1.985V9.4h2.413c.775 0 1.32-.11 1.637-.332.401-.28.601-.701.601-1.266 0-.548-.17-.949-.514-1.202-.342-.253-.883-.38-1.621-.38H6.683ZM24.647 4.234V6.37h-6.154v2.468h5.64v1.985h-5.64v2.84h6.265v2.136H15.97V4.234h8.677ZM25.945 7.896c.026-.949.26-1.745.704-2.389.717-1.033 1.795-1.55 3.235-1.55 1.107 0 2.001.282 2.681.846.733.612 1.1 1.403 1.1 2.373 0 .58-.145 1.082-.435 1.503a2.1 2.1 0 0 1-1.163.847c.622.142 1.113.459 1.471.949.364.49.546 1.084.546 1.78 0 1.144-.422 2.08-1.266 2.808-.78.675-1.766 1.012-2.958 1.012-1.292 0-2.318-.371-3.077-1.115-.754-.744-1.131-1.748-1.131-3.014v-.15h2.223c0 .712.168 1.263.506 1.653.337.385.815.578 1.432.578s1.091-.182 1.423-.546a1.78 1.78 0 0 0 .46-1.226c0-.57-.196-1.02-.586-1.353-.322-.274-.817-.411-1.487-.411-.19 0-.377.01-.562.032V8.822c.137.01.27.016.396.016 1.329 0 1.993-.493 1.993-1.48 0-.432-.145-.78-.435-1.044-.29-.269-.672-.403-1.147-.403-.543 0-.962.169-1.258.506-.295.338-.453.83-.474 1.48h-2.191ZM36.726 9.59c-.538-.186-.952-.489-1.242-.91-.285-.422-.427-.934-.427-1.535 0-1.002.411-1.801 1.234-2.397.728-.527 1.593-.791 2.595-.791 1.139 0 2.07.314 2.792.941.685.591 1.028 1.321 1.028 2.191 0 .607-.145 1.126-.435 1.559-.29.432-.701.746-1.234.941.417.121.757.277 1.02.467.733.532 1.1 1.31 1.1 2.333 0 1.176-.45 2.112-1.353 2.808-.759.586-1.735.878-2.926.878-1.292 0-2.32-.321-3.085-.965-.797-.67-1.195-1.547-1.195-2.634 0-1.018.354-1.806 1.06-2.365a2.925 2.925 0 0 1 1.068-.522Zm2.128-3.837c-.506 0-.915.142-1.226.427-.311.28-.467.648-.467 1.107 0 .48.156.865.467 1.155.316.285.738.427 1.266.427.527 0 .943-.142 1.25-.427.305-.285.458-.672.458-1.163 0-.48-.155-.854-.467-1.123-.305-.269-.733-.403-1.281-.403Zm-.016 4.706c-.57 0-1.036.177-1.4.53-.359.348-.538.796-.538 1.345 0 .564.182 1.023.546 1.376.37.354.846.53 1.432.53.664 0 1.162-.195 1.495-.585.321-.374.482-.807.482-1.297 0-.56-.184-1.018-.553-1.377-.354-.348-.842-.522-1.464-.522Z"/></g><defs><clipPath id="a"><path fill="#fff" d="M0 0h59v20H0z"/></clipPath></defs></svg>