<svg class="color-immutable" xmlns="http://www.w3.org/2000/svg" width="59" height="20" fill="none" viewBox="0 0 59 20"><g clip-path="url(#a)"><path stroke="#000" d="M2 .5h55A1.5 1.5 0 0 1 58.5 2v16a1.5 1.5 0 0 1-1.5 1.5H2A1.5 1.5 0 0 1 .5 18V2A1.5 1.5 0 0 1 2 .5Z"/><path fill="#000" d="M12.877 7.713h-2.449q-.072-.862-.644-1.314-.564-.459-1.587-.459-.91 0-1.418.363-.5.355-.5.999 0 .58.483.838.468.258 2.37.725 2.005.499 2.779 1.007 1.425.934 1.426 2.602 0 1.829-1.434 2.884-1.266.927-3.424.927-2.401 0-3.73-1.096-1.33-1.095-1.378-3.118h2.562q.056.984.507 1.459.71.756 2.135.757.967 0 1.531-.379.636-.435.636-1.184 0-.75-.894-1.096-.49-.193-2.32-.7-1.144-.315-1.789-.597-.644-.282-1.031-.628-.903-.806-.902-2.224 0-1.7 1.41-2.69 1.2-.847 3.118-.847 1.683 0 2.82.669 1.635.959 1.723 3.102M23.19 13.828v2.175h-8.33V4.224h2.57v9.604zM32.036 4.224v1.998q-.096.105-.572.653-.66.757-1.313 1.91a13 13 0 0 0-1.015 2.199q-.766 2.199-.927 5.019h-2.433q.024-1.33.46-2.949.442-1.62 1.216-3.239 1.104-2.287 2.24-3.408h-5.56V4.224zM33.277 7.954q.04-1.449.717-2.433 1.096-1.578 3.295-1.579 1.692 0 2.731.862 1.12.935 1.12 2.417 0 .886-.443 1.531a2.14 2.14 0 0 1-1.184.862q.95.217 1.498.967.555.75.556 1.813 0 1.747-1.289 2.86-1.193 1.03-3.013 1.03-1.974 0-3.134-1.135-1.152-1.135-1.152-3.07v-.153h2.264q0 1.088.515 1.684.516.588 1.459.588.942 0 1.45-.556.467-.524.467-1.248 0-.87-.596-1.378-.492-.42-1.515-.42-.29 0-.572.033V8.897q.21.015.403.016 2.03 0 2.03-1.507 0-.66-.443-1.063-.443-.41-1.168-.41-.83 0-1.281.515t-.483 1.506z"/></g><defs><clipPath id="a"><path fill="#fff" d="M0 0h59v20H0z"/></clipPath></defs></svg>