<svg xmlns="http://www.w3.org/2000/svg" width="36" height="36" fill="none" viewBox="0 0 36 36"><path fill="#000" fill-rule="evenodd" d="m18.172 1.78-.173-.063-.173.063-14.25 5.25-1.273.47 1.273.469 14.25 5.25.173.063.173-.063 14.25-5.25 1.273-.47-1.273-.469zm-.173 10.437L5.195 7.499 18 2.782 30.803 7.5zm.174 10.564L18 22.717l-.173.064-14.25 5.25-1.274.469 1.274.469 14.25 5.25.173.064.173-.064 14.25-5.25 1.273-.47-1.273-.468zM18 33.217 5.196 28.5 18 23.783 30.804 28.5zm-7.75-18.873 3.422 3.473.712-.702-4.278-4.341-.357-.362-.356.363-4.264 4.344.713.7 3.408-3.47v6.65h1zm16.5 7.31 3.41-3.475.713.7-4.263 4.345-.356.363-.357-.362-4.28-4.34.713-.703 3.42 3.47V15h1z" clip-rule="evenodd"/></svg>