<?xml version="1.0" encoding="utf-8"?>
<!-- Generator: Adobe Illustrator 24.2.0, SVG Export Plug-In . SVG Version: 6.00 Build 0)  -->
<svg version="1.0" id="_x3C_Ebene_x3E_" xmlns="http://www.w3.org/2000/svg" xmlns:xlink="http://www.w3.org/1999/xlink" x="0px"
	 y="0px" viewBox="0 0 24 24" enable-background="new 0 0 24 24" xml:space="preserve">
<g id="SVG_x5F_24x24pt">
	<path id="backgroundBlue" fill="#2D327D" d="M0,22.5v-21C0,0.675,0.675,0,1.5,0h21C23.325,0,24,0.675,24,1.5v21
		c0,0.825-0.675,1.5-1.5,1.5h-21C0.675,24,0,23.325,0,22.5z"/>
	<g id="content">
		<path fill="#FFFFFF" d="M2.244,19.233l8.908-15.429c0.182-0.302,0.477-0.518,0.846-0.519c0.358-0.001,0.669,0.227,0.847,0.521
			l8.907,15.429c0.171,0.308,0.21,0.672,0.027,0.992c-0.178,0.31-0.531,0.466-0.874,0.473H3.09
			c-0.352-0.007-0.687-0.154-0.872-0.473C2.037,19.917,2.079,19.534,2.244,19.233L2.244,19.233z"/>
		<g>
			<path fill="#EB0000" d="M11.998,4.739L20.52,19.5l-17.044,0L11.998,4.739 M12.001,3.285c-0.001,0-0.002,0-0.003,0
				c-0.369,0.001-0.665,0.217-0.846,0.519L2.244,19.233c-0.165,0.301-0.207,0.684-0.027,0.994c0.185,0.319,0.52,0.467,0.872,0.473
				h17.815c0.344-0.008,0.696-0.163,0.874-0.473c0.184-0.32,0.144-0.684-0.027-0.992L12.845,3.806
				C12.668,3.512,12.358,3.285,12.001,3.285L12.001,3.285z"/>
		</g>
		<g>
			<path d="M8.594,14.483v1.102c0,0.064-0.052,0.116-0.116,0.116c-0.064,0-0.116-0.052-0.116-0.116v-0.94H8.261v2.513
				c0,0.092-0.075,0.166-0.166,0.166c-0.092,0-0.166-0.075-0.166-0.166v-1.462H7.822v1.462c0,0.092-0.075,0.166-0.167,0.166
				c-0.092,0-0.166-0.075-0.166-0.166v-2.513H7.388v0.94c0,0.064-0.052,0.116-0.116,0.116c-0.064,0-0.116-0.052-0.116-0.116l0,0
				v-1.102c0-0.179,0.145-0.325,0.325-0.325h0.788C8.448,14.158,8.594,14.304,8.594,14.483L8.594,14.483z"/>
			<path d="M7.557,13.75c0-0.179,0.146-0.325,0.325-0.325c0.179,0,0.325,0.146,0.325,0.325c0,0.179-0.146,0.325-0.325,0.325
				C7.703,14.075,7.557,13.929,7.557,13.75L7.557,13.75z"/>
		</g>
		<g>
			<polygon fill="#EB0000" points="9,17.625 10.875,17.625 11.25,17.625 11.25,18 11.25,19.125 10.875,19.125 10.875,18 9,18 			"/>
			<rect x="5.625" y="17.625" transform="matrix(-1 -4.500323e-11 4.500323e-11 -1 14.625 35.625)" width="3.375" height="0.375"/>
		</g>
		<g>
			<polygon fill="#EB0000" points="11.25,12 11.25,12.159 11.091,12 			"/>
			<polygon fill="#EB0000" points="10.75,12 11.25,12.5 11.25,12.659 10.591,12 			"/>
			<polygon fill="#EB0000" points="10.25,12 11.25,13 11.25,13.159 10.091,12 			"/>
			<polygon fill="#EB0000" points="9.25,12 11.25,14 11.25,14.159 9.091,12 			"/>
			<polygon fill="#EB0000" points="9,12.25 11.25,14.5 11.25,14.659 9,12.409 			"/>
			<polygon fill="#EB0000" points="9,12.75 11.25,15 11.25,15.159 9,12.909 			"/>
			<polygon fill="#EB0000" points="9,13.25 11.25,15.5 11.25,15.659 9,13.409 			"/>
			<polygon fill="#EB0000" points="9,13.75 11.25,16 11.25,16.159 9,13.909 			"/>
			<polygon fill="#EB0000" points="9,14.25 11.25,16.5 11.25,16.659 9,14.409 			"/>
			<polygon fill="#EB0000" points="9,14.75 11.25,17 11.25,17.159 9,14.909 			"/>
			<polygon fill="#EB0000" points="9,15.25 11,17.25 10.841,17.25 9,15.409 			"/>
			<polygon fill="#EB0000" points="9,15.75 10.5,17.25 10.341,17.25 9,15.909 			"/>
			<polygon fill="#EB0000" points="9,16.25 10,17.25 9.841,17.25 9,16.409 			"/>
			<polygon fill="#EB0000" points="9,16.75 9.5,17.25 9.341,17.25 9,16.909 			"/>
			<polygon fill="#EB0000" points="9.75,12 11.25,13.5 11.25,13.659 9.591,12 			"/>
		</g>
		<rect x="12.375" y="18.525" transform="matrix(-1 -4.365587e-11 4.365587e-11 -1 25.125 37.65)" width="0.375" height="0.6"/>
		<rect x="15" y="18.525" transform="matrix(-1 -4.608104e-11 4.608104e-11 -1 30.375 37.65)" width="0.375" height="0.6"/>
		<path d="M11.625,12.9v4.575c0,0.082,0.03,0.21,0.067,0.284l0.241,0.482c0.037,0.074,0.135,0.134,0.217,0.134h3.45
			c0.082,0,0.18-0.06,0.217-0.134l0.241-0.482c0.037-0.074,0.067-0.202,0.067-0.284V12.9c0-0.083-0.048-0.198-0.106-0.256
			l-0.538-0.538C15.423,12.048,15.307,12,15.225,12h-2.7c-0.082,0-0.198,0.048-0.256,0.106l-0.538,0.538
			C11.673,12.702,11.625,12.817,11.625,12.9z M14.25,12.75H13.5v-0.3h0.75V12.75z M15,16.2h0.75v0.3H15V16.2z M12,16.2h0.75v0.3H12
			V16.2z M12,13.125h3.75V15H12V13.125z"/>
		<path d="M12.881,10.875h1.987c0.072,0,0.131,0.059,0.131,0.131c0,0.072-0.059,0.131-0.131,0.131h-0.862v0.713h-0.263v-0.713
			h-0.862c-0.072,0-0.131-0.059-0.131-0.131C12.75,10.934,12.809,10.875,12.881,10.875z"/>
	</g>
</g>
</svg>
