<svg xmlns="http://www.w3.org/2000/svg" width="48" height="48" fill="none" viewBox="0 0 48 48"><path fill="#000" fill-rule="evenodd" d="M26 2v10h-1V2zm8.916 2.277-4 6-.832-.554 4-6zm-14 5.446-4-6-.832.554 4 6zm14.04 2.1a1.5 1.5 0 0 0-1.062.44l-8.478 8.478-.002.003-3.558 3.607-.856.868v-7.706a1.55 1.55 0 0 0-1.595-1.463h-.015c-.415 0-.704.144-.932.392q-.366.398-.584 1.233v.001l-3.577 13.877 9.64 9.64q.1-.037.234-.089c.37-.145.912-.383 1.585-.748 1.347-.732 3.218-1.977 5.282-4.021a2731 2731 0 0 1 4.811-4.755l.149-.146.033-.032.007-.007a1.5 1.5 0 0 0 0-2.13 1.5 1.5 0 0 0-2.115 0l-1.41 1.409-.707-.708 2.12-2.12a1.5 1.5 0 0 0-.487-2.448 1.5 1.5 0 0 0-1.636.326l-2.12 2.12-.707-.708 2.83-2.83a1.501 1.501 0 0 0-1.93-2.285l-2.31 2.331-.026-.025-.687.686-.707-.707 2.83-2.83q.116-.114.243-.213l6.796-6.855.004-.004a1.5 1.5 0 0 0 0-2.138l-.003-.003a1.5 1.5 0 0 0-1.06-.44M33.017 24.29l.038-.087a2.5 2.5 0 0 0-1.941-3.43l5.608-5.658a2.5 2.5 0 0 0 0-3.559 2.5 2.5 0 0 0-3.536.001l-8.48 8.48-.003.003L22 22.78v-5.305a2.55 2.55 0 0 0-2.617-2.426c-.692.002-1.245.263-1.661.716-.401.436-.651 1.025-.816 1.658v.001l-3.46 13.42a1.1 1.1 0 0 0-1.158.255l-1.98 1.98a1.1 1.1 0 0 0 0 1.556l10.466 10.465a1.1 1.1 0 0 0 1.555 0l1.98-1.98a1.1 1.1 0 0 0 .273-1.104 15 15 0 0 0 1.652-.783c1.423-.773 3.372-2.073 5.508-4.189a2886 2886 0 0 1 4.808-4.751l.147-.145.032-.032.008-.007.002-.002.003-.003a2.5 2.5 0 0 0-1.606-4.272l.04-.09a2.5 2.5 0 0 0-2.158-3.454m-19.832 7.567-.05-.049a.1.1 0 0 0-.14 0l-1.98 1.98a.1.1 0 0 0 0 .142L21.48 44.394a.1.1 0 0 0 .141 0l1.98-1.98a.1.1 0 0 0 .029-.084l-.03.009-.206-.206-10.01-10.07-.2-.202z" clip-rule="evenodd"/></svg>