<svg xmlns="http://www.w3.org/2000/svg" width="24" height="24" fill="none" viewBox="0 0 24 24"><path fill="#000" fill-rule="evenodd" d="M6.01 4h6.697l.146.147 5 5 .147.146V20H6v-.5l.009-15zm.999 1L7 19h10v-9h-5V5zM13 5.708 16.293 9H13zM9.81 16.433l.963-1.43h-.726l-.602.962-.595-.962h-.767l.976 1.43L8 18h.749l.668-1.042.656 1.042h.787zm6.194-.542h-.624a.46.46 0 0 0-.163-.336q-.145-.116-.405-.115-.232 0-.36.09a.3.3 0 0 0-.128.256q0 .15.123.212.12.067.603.186.51.127.708.256a.75.75 0 0 1 .362.662q0 .465-.365.734-.322.238-.871.237-.611 0-.949-.28-.339-.278-.351-.793h.651q.015.25.13.371.18.194.543.192a.7.7 0 0 0 .39-.096.35.35 0 0 0 .162-.3q0-.191-.227-.28a8 8 0 0 0-.591-.178 4 4 0 0 1-.455-.152 1 1 0 0 1-.263-.16q-.23-.206-.23-.567 0-.43.36-.683.305-.217.793-.217.429 0 .718.17.415.245.439.791m-2.72 2.11v-.554h-1.468v-2.444h-.654V18z" clip-rule="evenodd"/></svg>