<svg xmlns="http://www.w3.org/2000/svg" width="36" height="36" fill="none" viewBox="0 0 36 36"><path fill="#000" fill-rule="evenodd" d="M9.263 6.25h9.694l.146.147 7.5 7.5.147.146v15.708H9.25v-.5l.013-22.5zm1 1-.013 21.5h15.5v-14h-7.5v-7.5zm8.987.708 5.793 5.793H19.25zm-6.273 16.649v-1.274h.823q.405 0 .582.123.246.167.246.504t-.213.509q-.17.137-.562.138zm.834-2.105h-1.815V27h.98v-1.62h1.009q.39 0 .652-.076.266-.075.471-.248.486-.4.486-1.107 0-.792-.586-1.188a1.4 1.4 0 0 0-.476-.2 3.6 3.6 0 0 0-.721-.058m3.303.831v2.837h.756q.349 0 .555-.07a.86.86 0 0 0 .359-.236q.357-.386.357-1.134 0-.689-.33-1.043-.33-.353-.978-.354zm-.98-.83h1.817q.506.001.869.116.361.117.637.37.675.615.674 1.706 0 1.158-.636 1.788-.279.28-.63.398-.352.119-.893.118h-1.839zm7.84.83v-.83h-3.166V27h.981v-1.851h1.902v-.773H21.79v-1.042z" clip-rule="evenodd"/></svg>