<svg class="color-immutable" width="59" height="20" viewBox="0 0 59 20" fill="none" xmlns="http://www.w3.org/2000/svg"><g clip-path="url(#a)"><path d="M.5 2A1.5 1.5 0 0 1 2 .5h55A1.5 1.5 0 0 1 58.5 2v16a1.5 1.5 0 0 1-1.5 1.5H2A1.5 1.5 0 0 1 .5 18V2Z" stroke="#000"/><path d="M12.877 7.71h-2.449c-.048-.575-.263-1.013-.644-1.314-.376-.306-.905-.459-1.587-.459-.607 0-1.08.121-1.418.363-.333.236-.5.57-.5.999 0 .387.161.666.483.838.312.172 1.102.413 2.37.725 1.337.333 2.263.669 2.779 1.007.95.623 1.426 1.49 1.426 2.602 0 1.22-.478 2.18-1.434 2.884-.844.618-1.985.927-3.424.927-1.601 0-2.844-.365-3.73-1.096-.887-.73-1.346-1.77-1.378-3.118h2.562c.037.656.206 1.142.507 1.459.473.505 1.185.757 2.135.757.645 0 1.155-.126 1.531-.379.424-.29.636-.684.636-1.184 0-.5-.298-.865-.894-1.096-.327-.129-1.1-.362-2.32-.7-.763-.21-1.359-.409-1.789-.597-.43-.188-.773-.397-1.031-.628-.602-.537-.902-1.279-.902-2.224 0-1.133.47-2.03 1.41-2.69.8-.565 1.84-.847 3.118-.847 1.122 0 2.062.223 2.82.669 1.09.64 1.664 1.673 1.723 3.102ZM14.263 13.043h2.224c.182.913.712 1.37 1.587 1.37.494 0 .894-.167 1.2-.5.312-.338.551-.862.717-1.57.108-.452.186-.965.234-1.54-.36.505-.73.865-1.112 1.08-.376.21-.835.314-1.377.314-.865 0-1.617-.252-2.256-.757a3.607 3.607 0 0 1-1.048-1.378 4.527 4.527 0 0 1-.37-1.837c0-1.326.454-2.4 1.361-3.222.78-.71 1.714-1.064 2.804-1.064.671 0 1.292.15 1.861.451.57.301 1.047.728 1.434 1.281.682.983 1.023 2.364 1.023 4.141 0 1.644-.3 3.046-.902 4.206-.784 1.51-1.971 2.264-3.561 2.264-1.058 0-1.934-.293-2.626-.878-.688-.586-1.085-1.373-1.193-2.36ZM18.18 5.93c-.505 0-.932.207-1.281.62-.35.42-.524.951-.524 1.596 0 .52.126.983.379 1.386.343.553.827.83 1.45.83.564 0 1.015-.226 1.353-.677.317-.425.476-.93.476-1.515 0-.618-.164-1.141-.492-1.571a1.636 1.636 0 0 0-1.361-.669ZM31.835 11.32v1.99h-1.483V16h-2.296v-2.69h-4.914v-2.208l5.035-6.88h2.175v7.097h1.483Zm-3.73.023V6.96l-3.03 4.383h3.03Z" fill="#000"/></g><defs><clipPath id="a"><path fill="#fff" d="M0 0h59v20H0z"/></clipPath></defs></svg>