<svg xmlns="http://www.w3.org/2000/svg" width="48" height="48" version="1.1" viewBox="0 0 48 48">
  <path fill="none" fill-rule="evenodd" stroke="#000" stroke-width="1" d="M11.9985,23.4987 L5.9985,23.4987 M15.5146,15.0134 L11.2716,10.7704 M24.001,11.4987 L24.001,5.4987 M38.5,43.4997 L9.5,43.4997 L10.5,37.4997 L37.5,37.4997 L38.5,43.4997 Z M14.5,37.2497 L14.5,23.9997 C14.5,18.7537 18.753,14.4997 24,14.4997 C29.247,14.4997 33.5,18.7537 33.5,23.9997 L33.5,37.2497 M26.499,37.4997 L26.5,30.0047 L26.5,30.0007 C26.5,28.6197 25.381,27.5007 24,27.5007 C22.62,27.5007 21.501,28.6197 21.5,29.9997 L21.501,37.4997 M24,17.4997 C20.41,17.4997 17.5,20.4097 17.5,23.9997 M36.001,23.5007 L42.001,23.5007 M32.4863,15.0144 L36.7293,10.7724"/>
</svg>
