<?xml version="1.0" encoding="utf-8"?>
<!-- Generator: Adobe Illustrator 24.2.0, SVG Export Plug-In . SVG Version: 6.00 Build 0)  -->
<svg version="1.0" id="Ebene_1" xmlns="http://www.w3.org/2000/svg" xmlns:xlink="http://www.w3.org/1999/xlink" x="0px" y="0px"
	 viewBox="0 0 24 24" enable-background="new 0 0 24 24" xml:space="preserve">
<g id="SVG_x5F_24x24pt">
	<path id="backgroundBlue" fill="#2D327D" d="M0,22.5v-21C0,0.675,0.675,0,1.5,0h21C23.325,0,24,0.675,24,1.5v21
		c0,0.825-0.675,1.5-1.5,1.5h-21C0.675,24,0,23.325,0,22.5z"/>
	<g id="content">
		<polygon fill="#FFFFFF" points="11.285,14.856 8.283,11.854 8.283,13.73 12.036,17.484 15.79,13.73 15.79,11.854 12.787,14.856 
			12.787,7.724 11.285,7.724 11.285,14.856 		"/>
		<polygon fill="#FFFFFF" points="21,21 3,21 3,19.5 21,19.5 21,21 		"/>
		<path fill="#FFFFFF" d="M5.717,3v2.249H5.251L5.268,3.54L4.701,5.249H4.315L3.738,3.588l0.017,1.661H3.289V3h0.698l0.529,1.617
			L5.025,3H5.717z"/>
		<path fill="#FFFFFF" d="M7.625,5.249H7.169C7.15,5.183,7.14,5.127,7.14,5.081C7.001,5.224,6.821,5.295,6.6,5.295
			c-0.172,0-0.307-0.04-0.403-0.12C6.087,5.083,6.031,4.954,6.031,4.789c0-0.21,0.095-0.356,0.285-0.437
			C6.393,4.319,6.534,4.289,6.74,4.261c0.177-0.024,0.288-0.046,0.331-0.068C7.115,4.171,7.137,4.126,7.137,4.06
			c0-0.147-0.097-0.22-0.292-0.22c-0.104,0-0.179,0.018-0.227,0.055C6.57,3.932,6.539,3.996,6.523,4.087H6.102
			C6.115,3.901,6.186,3.76,6.313,3.665C6.44,3.57,6.621,3.523,6.856,3.523c0.259,0,0.451,0.053,0.575,0.158
			C7.488,3.731,7.526,3.783,7.545,3.84c0.019,0.056,0.028,0.146,0.028,0.268c0,0.026-0.002,0.138-0.005,0.338
			C7.567,4.648,7.566,4.764,7.566,4.793c0,0.122,0.004,0.211,0.011,0.268C7.584,5.119,7.6,5.181,7.625,5.249z M7.134,4.438
			C7.077,4.474,6.972,4.502,6.82,4.523C6.714,4.539,6.637,4.56,6.59,4.586c-0.067,0.036-0.1,0.097-0.1,0.183
			c0,0.07,0.022,0.124,0.066,0.163S6.661,4.99,6.74,4.99c0.131,0,0.237-0.046,0.318-0.138C7.087,4.82,7.107,4.787,7.118,4.753
			c0.011-0.034,0.016-0.08,0.016-0.136V4.438z"/>
		<path fill="#FFFFFF" d="M9.427,3.569l-0.538,0.78l0.606,0.9H8.98L8.634,4.704L8.295,5.249H7.788L8.38,4.36L7.84,3.569h0.512
			L8.644,4.02l0.285-0.451H9.427z"/>
		<path fill="#FFFFFF" d="M10.204,4.749v0.5H9.693v-0.5H10.204z"/>
		<path fill="#FFFFFF" d="M12.948,4.861v0.388h-1.62c0-0.119,0.019-0.232,0.058-0.338c0.039-0.107,0.095-0.199,0.168-0.277
			c0.055-0.059,0.12-0.117,0.194-0.173c0.074-0.056,0.222-0.16,0.445-0.311c0.108-0.074,0.183-0.142,0.226-0.204
			c0.043-0.062,0.065-0.134,0.065-0.216c0-0.095-0.029-0.173-0.087-0.231c-0.058-0.059-0.134-0.088-0.228-0.088
			c-0.232,0-0.351,0.161-0.358,0.483h-0.432c0-0.021,0-0.036,0-0.048c0-0.264,0.076-0.468,0.229-0.612
			c0.149-0.142,0.341-0.212,0.578-0.212c0.207,0,0.381,0.057,0.523,0.172c0.153,0.125,0.229,0.293,0.229,0.504
			c0,0.185-0.061,0.344-0.183,0.477c-0.04,0.043-0.077,0.078-0.112,0.105c-0.034,0.027-0.126,0.09-0.276,0.189
			c-0.144,0.097-0.245,0.171-0.305,0.22c-0.06,0.049-0.116,0.107-0.168,0.174H12.948z"/>
		<path fill="#FFFFFF" d="M13.9,3.02c0.171,0,0.322,0.05,0.452,0.151c0.13,0.1,0.224,0.255,0.281,0.463
			c0.044,0.16,0.066,0.333,0.066,0.52c0,0.318-0.057,0.573-0.172,0.766c-0.071,0.118-0.16,0.208-0.268,0.27
			s-0.229,0.093-0.363,0.093c-0.184,0-0.34-0.053-0.471-0.16c-0.232-0.189-0.348-0.511-0.348-0.967c0-0.328,0.06-0.589,0.181-0.783
			c0.071-0.114,0.161-0.201,0.272-0.261S13.765,3.02,13.9,3.02z M13.883,3.385c-0.147,0-0.247,0.082-0.301,0.246
			c-0.042,0.127-0.063,0.309-0.063,0.546c0,0.208,0.022,0.374,0.065,0.497c0.055,0.163,0.158,0.245,0.308,0.245
			c0.124,0,0.216-0.063,0.277-0.188s0.091-0.318,0.091-0.578c0-0.219-0.022-0.394-0.065-0.523
			C14.138,3.466,14.035,3.385,13.883,3.385z"/>
		<path fill="#FFFFFF" d="M17.851,3L16.97,3.889l0.964,1.36h-0.62L16.632,4.24l-0.283,0.283v0.726h-0.491V3h0.491v0.931L17.23,3
			H17.851z"/>
		<path fill="#FFFFFF" d="M19.656,3.569v1.48c0,0.131-0.008,0.236-0.025,0.315c-0.016,0.078-0.045,0.15-0.085,0.215
			c-0.129,0.205-0.361,0.308-0.695,0.308c-0.466,0-0.72-0.176-0.764-0.528h0.449c0.031,0.14,0.139,0.211,0.325,0.211
			c0.142,0,0.24-0.04,0.297-0.12c0.044-0.064,0.066-0.166,0.066-0.308l0.002-0.208c-0.115,0.176-0.281,0.265-0.498,0.265
			c-0.21,0-0.378-0.074-0.503-0.221c-0.127-0.15-0.191-0.352-0.191-0.606s0.064-0.458,0.191-0.612
			c0.132-0.159,0.306-0.238,0.521-0.238c0.112,0,0.205,0.021,0.28,0.063c0.075,0.042,0.144,0.112,0.206,0.211V3.569H19.656z
			 M18.845,3.886c-0.125,0-0.22,0.052-0.285,0.157c-0.052,0.084-0.078,0.191-0.078,0.32c0,0.164,0.038,0.289,0.114,0.374
			c0.066,0.076,0.151,0.114,0.257,0.114c0.133,0,0.233-0.056,0.3-0.168c0.051-0.086,0.077-0.195,0.077-0.326
			c0-0.158-0.039-0.28-0.118-0.366C19.046,3.921,18.958,3.886,18.845,3.886z"/>
	</g>
</g>
</svg>
