<svg class="color-immutable" xmlns="http://www.w3.org/2000/svg" width="59" height="20" fill="none" viewBox="0 0 59 20"><g clip-path="url(#a)"><path fill="#EB0000" fill-rule="evenodd" d="M2 0a2 2 0 0 0-2 2v16a2 2 0 0 0 2 2h55a2 2 0 0 0 2-2V2a2 2 0 0 0-2-2z" clip-rule="evenodd"/><path fill="#fff" d="M9.388 4.2h4.042L8.43 15.8h-4.06zM26.092 12.366a.92.92 0 0 0 .843-.553L30.216 4.2H16.13l-5.001 11.6h4.025l3.786-8.69h5.973l-1.197 2.775-5.209-.019L22.71 15.8h4.582l-3.114-3.434zM44.385 4.234v1.962a46 46 0 0 0-.562.64q-.648.743-1.29 1.875-.64 1.124-.996 2.16-.75 2.16-.91 4.928h-2.389q.025-1.305.451-2.896.435-1.59 1.195-3.18 1.083-2.245 2.199-3.345h-5.458V4.234zM53.402 4.234v1.962q-.094.103-.561.64-.65.743-1.29 1.875-.64 1.124-.996 2.16-.751 2.16-.91 4.928h-2.389q.024-1.305.451-2.896.435-1.59 1.194-3.18 1.084-2.245 2.2-3.345h-5.459V4.234z"/></g><defs><clipPath id="a"><path fill="#fff" d="M0 0h59v20H0z"/></clipPath></defs></svg>