<svg xmlns="http://www.w3.org/2000/svg" width="24" height="24" fill="none" viewBox="0 0 24 24"><path fill="#000" fill-rule="evenodd" d="M9 6c.016-.553.472-1 1.037-1h2.926c.565 0 1.02.447 1.037 1zM8 6c.016-1.11.924-2 2.037-2h2.926c1.113 0 2.02.89 2.037 2h3.97A2.03 2.03 0 0 1 21 8.03v10.69c0 1.12-.908 2.03-2.03 2.03H4.03A2.03 2.03 0 0 1 2 18.72V8.03A2.03 2.03 0 0 1 4.03 6zM3 8.03C3 7.46 3.46 7 4.03 7h14.94C19.54 7 20 7.46 20 8.03V11h-6v-.733C14 9.567 13.434 9 12.734 9h-2.468C9.566 9 9 9.567 9 10.267V11H3zM9 12H3v6.72c0 .568.46 1.03 1.03 1.03h14.94c.57 0 1.03-.461 1.03-1.03V12h-6v.733c0 .7-.567 1.266-1.266 1.266h-2.468C9.566 14 9 13.433 9 12.734zm4 0v.733c0 .147-.12.266-.266.266h-2.468a.266.266 0 0 1-.266-.266V12zm0-1h-3v-.733c0-.149.12-.267.266-.267h2.468c.146 0 .266.118.266.267z" clip-rule="evenodd"/></svg>