<svg xmlns="http://www.w3.org/2000/svg" width="24" height="24" fill="none" viewBox="0 0 24 24"><path fill="#000" fill-rule="evenodd" d="M10.598 3.109A9 9 0 0 1 12 3a8.96 8.96 0 0 1 4.218 1.048l-.571.373a3.8 3.8 0 0 0-.841.805l-.56.77-.003.004H11.7a.97.97 0 0 0-.711.304L9.203 8.09l-.01.008-.01.007-1.898 1.07c-.79.444-.624 1.581.21 1.833l.004.002 1.74.51.01.002.01.003a1 1 0 0 0 .469.013l3.743-.755a.3.3 0 0 1 .053 0l.378.093.01.002c.034.008.098.08.098.132v2.29c0 .281.119.536.296.713l.008.007 4.276 4.11a9 9 0 0 1-2.25 1.756l-.315-2.285-.001-.01-.002-.01a.97.97 0 0 0-.288-.554l-1.87-1.87-.75-.75a1 1 0 0 0-1.158-.184h-.002l-.944.478v-.691c0-.556-.444-1-1-1H4.8c-.364 0-.699.2-.876.515l-.004.007-.552 1.023A9 9 0 0 1 3 12a8.99 8.99 0 0 1 3.746-7.308l1.012.624a.5.5 0 0 0 .262.074h1.6a.5.5 0 0 0 .484-.375zm8.633 14.25A8.96 8.96 0 0 0 21 12a8.99 8.99 0 0 0-3.839-7.374l-.968.632a2.8 2.8 0 0 0-.579.556l-.557.766a1 1 0 0 1-.817.42h-2.533l-.004.003-1.81 1.81-.013.014-.015.012-.325-.38.325.38v.001l-.002.001-.004.004-.012.01-.04.032c-.02.015-.075.058-.138.092l-1.893 1.066-.002.001v.001h.001l.009.004 1.725.506.013.002 3.77-.76.013-.002.014-.002q.178-.024.353-.001l.028.003.029.007.405.099c.503.115.876.601.876 1.107v2.292l.003.003zm-4.195.392.358 2.587A9 9 0 0 1 12 21a9 9 0 0 1-8.164-5.207l.96-1.779.004-.004h5.21v.69c0 .724.768 1.243 1.447.895l.947-.478.004-.002.749.748 1.877 1.878zm-5.534-14.4a9 9 0 0 0-1.814.747l.474.292h1.071zM12 2C6.477 2 2 6.477 2 12s4.477 10 10 10 10-4.477 10-10S17.523 2 12 2" clip-rule="evenodd"/></svg>