<svg xmlns="http://www.w3.org/2000/svg" width="36" height="36" fill="none" viewBox="0 0 36 36"><path fill="#000" fill-rule="evenodd" d="M24.75 7.25a1 1 0 0 0-1 1v7.268a2 2 0 0 1 1-.268c.364 0 .706.097 1 .268V8.25a1 1 0 0 0-1-1m0 9a1 1 0 0 0-1 1v4h2v-4a1 1 0 0 0-1-1m2-8v20h-4v-20a2 2 0 1 1 4 0m5 9a1 1 0 1 0-2 0v4h2zm0 5h-2v5h2zm-8 5v-5h2v5zm6-11.732a2 2 0 0 1 1-.268c.364 0 .706.097 1 .268V8.25a1 1 0 1 0-2 0zm3 1.732v-9a2 2 0 1 0-4 0v20h4v-11m-28.5 1v-4a2.5 2.5 0 0 1 2.5-2.5h7.5a2.5 2.5 0 0 1 2.5 2.5v4zm-1 .5v-4.5a3.5 3.5 0 0 1 3.5-3.5h2.94L8.065 7.5H6v-1h9v1h-2.069l-1.62 3.25h2.939a3.5 3.5 0 0 1 3.5 3.5v11h-4.066l1.498 2.25H18v1h-2.152l.318.477-.832.555-.687-1.032H6.353l-.687 1.032-.832-.555.318-.477H3v-1h2.818l1.498-2.25H3.25v-6.5m10.73 8.75-1.498-2.25H8.518L7.019 27.5zm-2.166-20L10.5 10.135 9.184 7.5zM4.25 19.25v5h12.5v-5zM6 21.5v1h1.5v-1zm7.5 1v-1H15v1z" clip-rule="evenodd"/></svg>