<?xml version="1.0" encoding="utf-8"?>
<!-- Generator: Adobe Illustrator 29.0.1, SVG Export Plug-In . SVG Version: 9.03 Build 54978)  -->
<svg version="1.0" xmlns="http://www.w3.org/2000/svg" xmlns:xlink="http://www.w3.org/1999/xlink" x="0px" y="0px"
	 viewBox="0 0 24 24" enable-background="new 0 0 24 24" xml:space="preserve">
<g id="SVG_x5F_24x24pt">
	<path id="backgroundBlue" fill="#2D327D" d="M0,22.5v-21C0,0.675,0.675,0,1.5,0h21C23.325,0,24,0.675,24,1.5v21
		c0,0.825-0.675,1.5-1.5,1.5h-21C0.675,24,0,23.325,0,22.5z"/>
	<g id="content">
		<g>
			<path fill="#FFFFFF" d="M17.468,7.508V9.75l-7.318,8.758h7.558V21H6.292v-2.362L13.546,10H6.791V7.508H17.468z"/>
		</g>
		<g>
			<path fill="#FFFFFF" d="M4.886,3.666H4.418c-0.009-0.11-0.05-0.194-0.122-0.251S4.122,3.328,3.992,3.328
				c-0.116,0-0.206,0.023-0.27,0.068C3.658,3.442,3.626,3.506,3.626,3.588c0,0.074,0.031,0.127,0.092,0.16
				C3.778,3.78,3.929,3.826,4.17,3.886c0.255,0.064,0.432,0.128,0.531,0.192c0.181,0.119,0.272,0.285,0.272,0.497
				c0,0.233-0.091,0.416-0.274,0.551C4.539,5.244,4.321,5.303,4.046,5.303c-0.306,0-0.543-0.07-0.712-0.209
				C3.165,4.954,3.077,4.755,3.071,4.498H3.56c0.007,0.125,0.039,0.218,0.097,0.278c0.09,0.096,0.226,0.145,0.408,0.145
				c0.123,0,0.22-0.024,0.292-0.072c0.081-0.055,0.122-0.131,0.122-0.226S4.421,4.458,4.307,4.413
				C4.245,4.389,4.097,4.344,3.864,4.28C3.719,4.24,3.605,4.202,3.523,4.166S3.375,4.09,3.326,4.046
				C3.211,3.943,3.154,3.802,3.154,3.621c0-0.216,0.09-0.388,0.269-0.514C3.576,3,3.774,2.946,4.018,2.946
				c0.214,0,0.394,0.043,0.538,0.128C4.765,3.196,4.874,3.393,4.886,3.666z"/>
			<path fill="#FFFFFF" d="M6.139,3.566v0.315H5.805V4.67c0,0.094,0.009,0.154,0.026,0.18c0.026,0.037,0.083,0.055,0.172,0.055
				c0.035,0,0.08-0.003,0.135-0.008v0.357c-0.1,0.011-0.193,0.017-0.277,0.017c-0.127,0-0.224-0.014-0.291-0.043
				c-0.104-0.046-0.168-0.13-0.194-0.252c-0.011-0.052-0.017-0.16-0.017-0.325V3.881H5.089V3.566h0.272V3.172h0.445v0.394H6.139z"/>
			<path fill="#FFFFFF" d="M7.145,3.523c0.244,0,0.443,0.081,0.598,0.243c0.153,0.16,0.229,0.373,0.229,0.64
				c0,0.276-0.082,0.496-0.245,0.66C7.575,5.218,7.376,5.295,7.131,5.295c-0.261,0-0.47-0.085-0.624-0.255
				C6.359,4.877,6.285,4.667,6.285,4.409c0-0.254,0.072-0.461,0.215-0.62C6.66,3.612,6.874,3.523,7.145,3.523z M7.122,3.871
				c-0.118,0-0.212,0.048-0.281,0.143C6.77,4.11,6.734,4.242,6.734,4.409c0,0.173,0.035,0.306,0.105,0.398
				c0.072,0.093,0.17,0.14,0.294,0.14c0.116,0,0.208-0.043,0.275-0.128c0.077-0.094,0.115-0.231,0.115-0.411
				c0-0.168-0.034-0.299-0.102-0.392C7.351,3.919,7.251,3.871,7.122,3.871z"/>
			<path fill="#FFFFFF" d="M8.685,3.572v0.212c0.122-0.175,0.292-0.263,0.509-0.263c0.216,0,0.391,0.083,0.524,0.249
				c0.133,0.164,0.2,0.38,0.2,0.649c0,0.251-0.059,0.456-0.177,0.614C9.61,5.211,9.433,5.299,9.209,5.299
				c-0.215,0-0.383-0.087-0.503-0.26v0.817H8.26V3.572H8.685z M9.074,3.904c-0.117,0-0.21,0.045-0.28,0.135
				c-0.07,0.089-0.105,0.215-0.105,0.377c0,0.167,0.036,0.296,0.109,0.386c0.07,0.087,0.165,0.131,0.286,0.131
				c0.119,0,0.212-0.043,0.278-0.129c0.071-0.092,0.106-0.218,0.106-0.377c0-0.167-0.036-0.297-0.108-0.391
				C9.295,3.948,9.199,3.904,9.074,3.904z"/>
		</g>
	</g>
</g>
</svg>
