<svg xmlns="http://www.w3.org/2000/svg" width="36" height="36" fill="none" viewBox="0 0 36 36"><path fill="#000" fill-rule="evenodd" d="M6.3 4.8c-.339.34-.55.899-.55 1.805v5.646H19.5v1H5.75v6.499H12v1H8.75v3h-4v-12h-1.5v-2.5h1.5V6.605c0-1.042.242-1.91.843-2.512.602-.601 1.47-.843 2.512-.843H18.75c1.043 0 1.937.242 2.57.83.642.596.93 1.464.93 2.525V9h-1V6.605c0-.887-.238-1.446-.61-1.792-.378-.352-.984-.563-1.89-.563H8.105c-.906 0-1.466.211-1.805.55m-.55 15.95h2v2h-2zm-1-10.5v.5h-.5v-.5zm13.25-4H9v1h9zm10.146.896-22.5 22.5.708.708 22.5-22.5zM24.75 18.25h-.5v7h6.881l.438 1.228.01.028.014.027c.1.202.157.425.157.677 0 .856-.683 1.54-1.51 1.54H15v1h4.786a3.5 3.5 0 0 0 1.02 2H15v1h18v-1h-7.306a3.5 3.5 0 0 0 1.02-2h3.526c1.393 0 2.51-1.146 2.51-2.54 0-.397-.088-.764-.249-1.095l-2.809-7.875a6.64 6.64 0 0 0-3.697-3.97l-.39.92a5.64 5.64 0 0 1 3.024 3.06zm-1.5 13.5a2.51 2.51 0 0 0 2.45-2h-4.9a2.51 2.51 0 0 0 2.45 2m5.74-12.5 1.784 5H25.25v-5zm-6.74 5.5V18h-1v6.25H15v1h7.25zM9 15.25a1.251 1.251 0 0 0 0 2.5 1.25 1.25 0 0 0 0-2.5m-.25 1.25c0-.138.113-.25.25-.25s.25.112.25.25a.25.25 0 0 1-.5 0" clip-rule="evenodd"/></svg>