<svg class="color-immutable" width="59" height="20" viewBox="0 0 59 20" fill="none" xmlns="http://www.w3.org/2000/svg"><path fill-rule="evenodd" clip-rule="evenodd" d="M2 0a2 2 0 0 0-2 2v16a2 2 0 0 0 2 2h55a2 2 0 0 0 2-2V2a2 2 0 0 0-2-2H2Z" fill="#F27E00"/><path d="M14.153 4.17v2.142H7.98v2.476h5.657v1.991H7.98v2.849h6.284v2.142H5.45V4.17h8.704ZM25.311 4.17l-3.856 11.6h-2.88l-3.8-11.6h2.65l2.61 8.688 2.65-8.688h2.626ZM33.327 4.17v1.967c-.063.07-.25.283-.563.643-.434.497-.865 1.124-1.293 1.88a12.773 12.773 0 0 0-1 2.167c-.503 1.444-.807 3.092-.913 4.943h-2.396c.016-.873.167-1.84.453-2.904a19.09 19.09 0 0 1 1.198-3.19c.724-1.502 1.46-2.62 2.205-3.356h-5.554V4.17h7.863ZM42.518 11.16v1.96h-1.46v2.65h-2.261v-2.65h-5v-2.174l5.119-6.776h2.142v6.99h1.46Zm-3.674.024V6.867l-3.142 4.317h3.142Z" fill="#000"/></svg>