<svg width="24" height="24" viewBox="0 0 24 24" fill="none" xmlns="http://www.w3.org/2000/svg"><path fill-rule="evenodd" clip-rule="evenodd" d="m13.268 5.248.4.353 1.329 1.173 3.634 1.41.445.173-.152.453-.5 1.487.889.268.244-.462.276-.524.47.36 1.342 1.025.185.142.011.232.158 3.269.026.537-.538-.013-.967-.025.166 1.431.084.726-.707-.184-3.263-.852-1.397 2.962-.361.766-.496-.686-1.795-2.483-1.405 1.52-.126.137-.185.02-3.157.355-.233.026-.169-.162-1.965-1.88-.62.36-.06.035-.068.017-2.14.544-.832.212.227-.828 1.08-3.954.03-.115.08-.088 2.397-2.657-.388-.133-.897-.309.762-.566 2.44-1.813.255-.19.28.152.565.305 3.41-.93.91-1.175.326-.42ZM6.44 9.558l.205.07.716.246-.507.562-2.823 3.13-.823 3.012 1.24-.316.885-.514.326-.19.272.26 2.068 1.98 2.74-.307 1.692-1.832.414-.45.358.496 1.657 2.292 1.213-2.572.177-.376.401.105 2.957.772-.148-1.277-.066-.572.576.015 1.005.025-.121-2.499-.689-.526-.16.304-.192.365-.394-.12-1.777-.536-.493-.149.164-.488.511-1.524-3.272-1.27-.083-.032-.067-.06-.996-.879-.687.886-.102.132-.162.044-3.764 1.026-.193.053-.176-.095-.46-.249L6.44 9.557Z" fill="#000"/></svg>