<?xml version="1.0" encoding="utf-8"?>
<!-- Generator: Adobe Illustrator 24.2.0, SVG Export Plug-In . SVG Version: 6.00 Build 0)  -->
<svg version="1.0" id="WLAN" xmlns="http://www.w3.org/2000/svg" xmlns:xlink="http://www.w3.org/1999/xlink" x="0px" y="0px"
	 viewBox="0 0 24 24" enable-background="new 0 0 24 24" xml:space="preserve">
<g id="SVG_x5F_24x24pt">
	<path id="backgroundBlue" fill="#2D327D" d="M0,22.5v-21C0,0.675,0.675,0,1.5,0h21C23.325,0,24,0.675,24,1.5v21
		c0,0.825-0.675,1.5-1.5,1.5h-21C0.675,24,0,23.325,0,22.5z"/>
	<g id="content">
		<path fill="#FFFFFF" d="M13.5,19.5c0,0.829-0.671,1.5-1.5,1.5c-0.828,0-1.5-0.671-1.5-1.5c0-0.828,0.672-1.5,1.5-1.5
			C12.829,18,13.5,18.671,13.5,19.5z"/>
		<path fill="#FFFFFF" d="M15.819,15.776c-1.039-0.973-2.394-1.508-3.82-1.508c-1.43,0-2.778,0.535-3.818,1.507l1.425,1.432
			c0.658-0.594,1.499-0.923,2.392-0.923c0.891,0,1.736,0.329,2.395,0.924L15.819,15.776z"/>
		<path fill="#FFFFFF" d="M19.541,12.079l0.161-0.144l1.27-1.276c-2.307-2.532-5.583-3.984-9.009-3.984
			c-3.387,0-6.633,1.423-8.935,3.905l1.422,1.429C6.375,9.9,9.11,8.691,11.963,8.691C14.851,8.691,17.613,9.926,19.541,12.079z"/>
		<path fill="#FFFFFF" d="M18.334,13.115c-1.67-1.714-3.903-2.658-6.3-2.658c-2.402,0-4.713,0.995-6.369,2.731l1.422,1.429
			c1.279-1.363,3.077-2.144,4.947-2.144c1.857,0,3.588,0.735,4.878,2.07L18.334,13.115z"/>
	</g>
</g>
</svg>
