<svg xmlns="http://www.w3.org/2000/svg" width="36" height="36" fill="none" viewBox="0 0 36 36"><path fill="#000" fill-rule="evenodd" d="M15.75 4.75h-.5v3h-9v23.5h14.5v-3h9V4.75h-14m4.5 3h-4v-2h12.5v21.5h-8v-6.5H27v-1h-6.25v-2H27v-1h-6.25v-9zm-.5 20v2.5H7.25V8.75h12.5zm7.212-20.353v6.104h-1.218V9.505h-1.439V8.62q.449-.011.73-.092.282-.08.517-.258.338-.261.453-.873zm-8.978 8.017V16.5h-4.396q0-.497.162-.948.16-.45.453-.777.224-.25.528-.487.301-.24 1.203-.873.44-.306.613-.569a1.06 1.06 0 0 0 .177-.609q0-.4-.237-.65a.82.82 0 0 0-.62-.247q-.943 0-.973 1.356h-1.171v-.133q0-1.111.62-1.72.606-.593 1.567-.593.852 0 1.423.484.621.526.621 1.416 0 .775-.496 1.335-.162.184-.305.294-.141.111-.747.533-.575.401-.825.613a3.3 3.3 0 0 0-.46.49zM18 20.75H9v-1h9zm-9 3h9v-1H9z" clip-rule="evenodd"/></svg>