<svg xmlns="http://www.w3.org/2000/svg" width="24" height="24" fill="none" viewBox="0 0 24 24"><path fill="#000" fill-rule="evenodd" d="M4.06 5.67C3.318 6.082 3 6.573 3 7s.317.917 1.06 1.33C4.789 8.736 5.827 9 7 9s2.212-.265 2.94-.67C10.682 7.918 11 7.427 11 7s-.317-.917-1.06-1.33C9.211 5.264 8.173 5 7 5s-2.212.265-2.94.67M12 7c0-.954-.69-1.713-1.575-2.205C9.523 4.295 8.31 4 7 4s-2.523.294-3.425.795C2.69 5.287 2 6.045 2 7v12c0 .954.69 1.713 1.575 2.205.902.5 2.114.795 3.425.795 1.167 0 2.314-.098 3.224-.553l-.448-.894C9.091 20.896 8.148 21 7 21c-1.174 0-2.212-.265-2.94-.67C3.318 19.918 3 19.427 3 19v-1.177q.267.21.575.382C4.477 18.705 5.69 19 7 19c1.167 0 2.314-.098 3.224-.553l-.448-.894C9.091 17.896 8.148 18 7 18c-1.174 0-2.212-.265-2.94-.67C3.318 16.918 3 16.427 3 16v-1.177q.267.21.575.382C4.477 15.705 5.69 16 7 16c1.167 0 2.314-.098 3.224-.553l-.448-.894C9.091 14.896 8.148 15 7 15c-1.174 0-2.212-.265-2.94-.67C3.318 13.918 3 13.427 3 13v-1.177q.267.21.575.382C4.477 12.705 5.69 13 7 13c1.167 0 2.314-.098 3.224-.553l-.448-.894C9.091 11.896 8.148 12 7 12c-1.174 0-2.212-.265-2.94-.67C3.318 10.918 3 10.427 3 10V8.823q.267.21.575.382C4.477 9.705 5.69 10 7 10s2.523-.294 3.425-.795q.308-.17.575-.382V10h1zm1.06 4.67c-.743.413-1.06.904-1.06 1.33s.317.917 1.06 1.33c.728.405 1.766.67 2.94.67s2.212-.265 2.94-.67c.743-.413 1.06-.904 1.06-1.33s-.317-.917-1.06-1.33c-.728-.405-1.766-.67-2.94-.67s-2.212.265-2.94.67m6.365 3.535q.308-.17.575-.382V16c0 .426-.317.917-1.06 1.33-.728.405-1.766.67-2.94.67s-2.212-.265-2.94-.67C12.318 16.918 12 16.427 12 16v-1.177q.267.21.575.382c.902.5 2.114.795 3.425.795s2.523-.294 3.425-.795M21 13v6c0 .954-.69 1.713-1.575 2.205-.902.5-2.114.795-3.425.795s-2.523-.294-3.425-.795C11.69 20.713 11 19.955 11 19v-6c0-.954.69-1.713 1.575-2.205.902-.5 2.114-.795 3.425-.795s2.523.294 3.425.795C20.31 11.287 21 12.045 21 13m-1.575 5.205q.308-.17.575-.382V19c0 .426-.317.917-1.06 1.33-.728.405-1.766.67-2.94.67s-2.212-.265-2.94-.67C12.318 19.918 12 19.427 12 19v-1.177q.267.21.575.382c.902.5 2.114.795 3.425.795s2.523-.294 3.425-.795" clip-rule="evenodd"/></svg>