<svg xmlns="http://www.w3.org/2000/svg" width="24" height="24" fill="none" viewBox="0 0 24 24"><path fill="#000" fill-rule="evenodd" d="M6.01 4h6.697l.146.147 5 5 .147.146V20H6v-.5l.009-15zm.999 1L7 19h10v-9h-5V5zM13 5.708 16.293 9H13zM8.668 16.405v-.849h.561q.274 0 .396.082.167.11.167.336 0 .224-.145.338-.117.092-.382.093zm.567-1.403H8V18h.668v-1.08h.687q.263 0 .443-.05a.9.9 0 0 0 .321-.166q.33-.268.331-.738 0-.53-.4-.792a1 1 0 0 0-.324-.135 2.6 2.6 0 0 0-.49-.037m2.249.554v.85h.597q.265-.001.382-.094.145-.114.145-.338 0-.226-.167-.336-.121-.082-.396-.082zm-.668-.554h1.235q.312 0 .491.037a1 1 0 0 1 .324.135q.4.263.4.792 0 .47-.331.738a.9.9 0 0 1-.321.165q-.18.05-.443.05h-.687V18h-.668zm5.184.555v-.554h-2.523v.554h.925V18h.668v-2.444z" clip-rule="evenodd"/></svg>