<svg class="color-immutable" xmlns="http://www.w3.org/2000/svg" width="59" height="20" fill="none" viewBox="0 0 59 20"><g clip-path="url(#a)"><path stroke="#000" d="M2 .5h55A1.5 1.5 0 0 1 58.5 2v16a1.5 1.5 0 0 1-1.5 1.5H2A1.5 1.5 0 0 1 .5 18V2A1.5 1.5 0 0 1 2 .5Z"/><path fill="#000" d="M4.069 4.224h5.704q1.692 0 2.594.531.749.435 1.144 1.16.395.727.395 1.636 0 1.032-.5 1.797-.491.765-1.377 1.095.78.195 1.224.87.282.427.379.895.097.467.25 2.135.112 1.224.346 1.523l.113.137h-2.683a2 2 0 0 1-.201-.637q-.058-.387-.154-1.788-.096-1.25-.612-1.725-.507-.483-1.74-.483H6.639v4.633h-2.57zm2.57 2.022v3.239h2.457q1.184 0 1.668-.339.612-.426.612-1.289 0-.837-.524-1.224t-1.651-.387zM23.743 13.908v2.095h-8.484q0-.96.306-1.83.315-.87.879-1.498a8 8 0 0 1 1.015-.943q.588-.459 2.328-1.683.846-.588 1.184-1.096a2.07 2.07 0 0 0 .339-1.176q0-.774-.46-1.25-.45-.482-1.192-.482-1.821 0-1.877 2.618h-2.264v-.258q0-2.143 1.2-3.32 1.169-1.143 3.022-1.143 1.643 0 2.747.934 1.2 1.015 1.2 2.732 0 1.498-.958 2.578-.315.354-.588.572-.275.21-1.442 1.023-1.112.773-1.596 1.184a6.5 6.5 0 0 0-.886.943zM28.738 3.942q1.346 0 2.369.822 1.015.82 1.474 2.53.346 1.305.346 2.835 0 2.538-.902 4.174-.531.95-1.394 1.466a3.6 3.6 0 0 1-1.91.516q-1.44 0-2.464-.87-1.821-1.547-1.821-5.286 0-2.659.95-4.27a3.84 3.84 0 0 1 1.41-1.418 3.86 3.86 0 0 1 1.942-.5m-.089 1.99q-1.16 0-1.579 1.337-.33 1.065-.33 2.981 0 1.692.338 2.715.436 1.33 1.612 1.33.975 0 1.45-1.032.475-1.03.475-3.15 0-1.804-.338-2.844-.435-1.337-1.628-1.337"/></g><defs><clipPath id="a"><path fill="#fff" d="M0 0h59v20H0z"/></clipPath></defs></svg>