<?xml version="1.0" encoding="utf-8"?>
<!-- Generator: Adobe Illustrator 24.2.0, SVG Export Plug-In . SVG Version: 6.00 Build 0)  -->
<svg version="1.0" id="Ebene_1" xmlns="http://www.w3.org/2000/svg" xmlns:xlink="http://www.w3.org/1999/xlink" x="0px" y="0px"
	 viewBox="0 0 24 24" enable-background="new 0 0 24 24" xml:space="preserve">
<g id="SVG_x5F_24x24pt">
	<path id="backgroundBlue" fill="#2D327D" d="M0,22.5v-21C0,0.675,0.675,0,1.5,0h21C23.325,0,24,0.675,24,1.5v21
		c0,0.825-0.675,1.5-1.5,1.5h-21C0.675,24,0,23.325,0,22.5z"/>
	<g id="content">
		<polygon fill="#FFFFFF" points="16.229,16.684 8.069,16.684 8.069,2.884 16.229,2.884 16.229,16.684 		"/>
		<path fill="#FFFFFF" d="M3.149,3.034v13.5h4.5v-13.5H3.149 M6.749,12.784c0,0.33-0.27,0.6-0.6,0.6h-1.5c-0.33,0-0.6-0.27-0.6-0.6
			v-7.8c0-0.33,0.27-0.6,0.6-0.6h1.5c0.33,0,0.6,0.27,0.6,0.6V12.784L6.749,12.784z"/>
		<path fill="#FFFFFF" d="M9.773,17.246c0,0.994-0.806,1.8-1.8,1.8H4.154l1.349-1.237h-0.9l-1.574,1.574l1.574,1.574h0.9
			l-1.349-1.237l3.819,0c1.367,0,2.475-1.108,2.475-2.475H9.773L9.773,17.246z"/>
		<path fill="#FFFFFF" d="M16.649,3.034v13.5h4.5v-13.5H16.649 M17.549,4.984c0-0.33,0.27-0.6,0.6-0.6h1.5c0.33,0,0.6,0.27,0.6,0.6
			v7.8c0,0.33-0.27,0.6-0.6,0.6h-1.5c-0.33,0-0.6-0.27-0.6-0.6V4.984L17.549,4.984z"/>
		<path fill="#FFFFFF" d="M14.525,17.246c0,0.994,0.806,1.8,1.8,1.8h3.819l-1.349-1.237h0.899l1.575,1.574l-1.575,1.574h-0.899
			l1.349-1.237l-3.819,0c-1.367,0-2.475-1.108-2.475-2.475H14.525L14.525,17.246z"/>
	</g>
</g>
</svg>
