<svg xmlns="http://www.w3.org/2000/svg" width="36" height="36" version="1.1" viewBox="0 0 36 36">
  <path fill="none" fill-rule="evenodd" stroke="#000" stroke-width="1" d="M6.75,32.24955 L15,32.24955 M10.24515,28.49955 L13.49265,26.62455 M7.5,25.75455 L9.375,22.50705 M3.75,24.74955 L3.75,20.99955 M30.75,29.65245 L26.625,22.50645 M32.25,24.74955 L32.25,20.99955 M25.75485,28.49955 L22.50735,26.62455 M24.75,32.24955 L21,32.24955 M21.75,14.24955 L30,14.24955 M17.25,11.65245 L13.125,4.50645 M17.25,16.8483 L13.125,23.9928 M25.24515,10.49955 L28.49265,8.62455 M22.5,7.75455 L24.375,4.50705 M18.75,6.74955 L18.75,2.99955 M12.25485,10.49955 L9.00735,8.62455 M11.25,14.24955 L7.5,14.24955 M12.25485,17.99955 L9.00735,19.87455 M18.75,21.74955 L18.75,25.49955 M22.5,20.7447 L24.375,23.9922 M25.24515,17.99955 L28.49265,19.87455 M26.25,14.24955 C26.25,18.41355 22.914,21.74955 18.75,21.74955 C14.586,21.74955 11.25,18.41355 11.25,14.24955 C11.25,10.08555 14.586,6.74955 18.75,6.74955 C22.914,6.74955 26.25,10.08555 26.25,14.24955 Z M21.75,14.24955 C21.75,15.93255 20.433,17.24955 18.75,17.24955 C17.067,17.24955 15.75,15.93255 15.75,14.24955 C15.75,12.56655 17.067,11.24955 18.75,11.24955 C20.433,11.24955 21.75,12.56655 21.75,14.24955 Z M33,24.78765 C32.997,24.78765 32.994,24.78615 32.991,24.78615 C32.748,24.76065 32.5005,24.75015 32.25,24.75015 C28.086,24.75015 24.75,28.08465 24.75,32.25015 C24.75,32.50665 24.7995,32.74965 24.825,33.00015 M33,29.35215 C32.76,29.29215 32.5125,29.25015 32.25,29.25015 C30.567,29.25015 29.25,30.56715 29.25,32.25015 C29.25,32.51115 29.2905,32.75865 29.352,33.00015 M11.1753,32.99955 C11.2008,32.74905 11.2503,32.50755 11.2503,32.24955 C11.2503,28.08555 7.9143,24.74955 3.7503,24.74955 C3.4923,24.74955 3.2508,24.79905 3.0003,24.82455 M6.64815,32.99955 C6.70815,32.75955 6.75015,32.51205 6.75015,32.24955 C6.75015,30.56655 5.43315,29.24955 3.75015,29.24955 C3.48915,29.24955 3.24015,29.29155 3.00015,29.35155"/>
</svg>
