<svg xmlns="http://www.w3.org/2000/svg" width="24" height="24" fill="none" viewBox="0 0 24 24"><path fill="#000" fill-rule="evenodd" d="M5.464 3.464C5.184 3.744 5 4.215 5 5v4h14V5c0-.785-.183-1.256-.464-1.536C18.256 3.184 17.785 3 17 3H7c-.785 0-1.256.183-1.536.464M5 14v-4h14v4zM4.757 2.757C5.3 2.214 6.079 2 7 2h10c.921 0 1.7.214 2.243.757S20 4.079 20 5v2h1v2h-1v8h-3.999v-2H8v2H4V9H3V7h1V5c0-.921.214-1.7.757-2.243M17 15H19v1h-1.999zM5 16v-1h2v1zM17 4H7v1h10zM7 11a1 1 0 1 0 0 2 1 1 0 0 0 0-2m9 1a1 1 0 1 1 2 0 1 1 0 0 1-2 0M5.977 20l1.017-.994-.7-.715L4.4 20.143l-.366.359.368.357 1.896 1.842.696-.717-1.013-.985H10v-1zm12.047.99-1.017.995.7.715 1.893-1.852.367-.359-.368-.357-1.897-1.842-.697.717 1.013.984H14v1z" clip-rule="evenodd"/></svg>