<svg class="color-immutable" width="59" height="20" viewBox="0 0 59 20" fill="none" xmlns="http://www.w3.org/2000/svg"><g clip-path="url(#a)"><path d="M.5 2A1.5 1.5 0 0 1 2 .5h55A1.5 1.5 0 0 1 58.5 2v16a1.5 1.5 0 0 1-1.5 1.5H2A1.5 1.5 0 0 1 .5 18V2Z" stroke="#000"/><path d="M12.877 7.71h-2.449c-.048-.575-.263-1.013-.644-1.314-.376-.306-.905-.459-1.587-.459-.607 0-1.08.121-1.418.363-.333.236-.5.57-.5.999 0 .387.161.666.483.838.312.172 1.102.413 2.37.725 1.337.333 2.263.669 2.779 1.007.95.623 1.426 1.49 1.426 2.602 0 1.22-.478 2.18-1.434 2.884-.844.618-1.985.927-3.424.927-1.601 0-2.844-.365-3.73-1.096-.887-.73-1.346-1.77-1.378-3.118h2.562c.037.656.206 1.142.507 1.459.473.505 1.185.757 2.135.757.645 0 1.155-.126 1.531-.379.424-.29.636-.684.636-1.184 0-.5-.298-.865-.894-1.096-.327-.129-1.1-.362-2.32-.7-.763-.21-1.359-.409-1.789-.597-.43-.188-.773-.397-1.031-.628-.602-.537-.902-1.279-.902-2.224 0-1.133.47-2.03 1.41-2.69.8-.565 1.84-.847 3.118-.847 1.122 0 2.062.223 2.82.669 1.09.64 1.664 1.673 1.723 3.102ZM21.957 4.221v2.095h-4.745l-.508 2.65c.57-.601 1.297-.902 2.184-.902.87 0 1.627.234 2.272.701.956.704 1.434 1.773 1.434 3.207 0 1.407-.51 2.521-1.531 3.343-.795.645-1.746.967-2.852.967-1.246 0-2.248-.333-3.005-.999-.758-.671-1.158-1.576-1.2-2.715h2.312c.037.413.171.765.402 1.055.36.457.86.685 1.499.685.618 0 1.106-.223 1.466-.669.35-.435.524-.964.524-1.587 0-.676-.183-1.216-.548-1.62-.365-.407-.851-.611-1.458-.611-.741 0-1.319.333-1.732.999l-2.103-.033 1.12-6.566h6.47ZM31.835 11.32v1.99h-1.483V16h-2.296v-2.69h-4.914v-2.208l5.035-6.88h2.175v7.097h1.483Zm-3.73.023V6.96l-3.03 4.383h3.03Z" fill="#000"/></g><defs><clipPath id="a"><path fill="#fff" d="M0 0h59v20H0z"/></clipPath></defs></svg>