<svg xmlns="http://www.w3.org/2000/svg" width="36" height="36" version="1.1" viewBox="0 0 36 36">
  <path fill="none" fill-rule="evenodd" stroke="#000" stroke-width="1" d="M18.75,15.75 C20.406,15.75 21.75,17.094 21.75,18.75 C21.75,20.406 20.406,21.75 18.75,21.75 C17.094,21.75 15.75,20.406 15.75,18.75 C15.75,17.094 17.094,15.75 18.75,15.75 Z M29.25,17.25 C30.0795,17.25 30.75,17.922 30.75,18.75 C30.75,19.5795 30.0795,20.25 29.25,20.25 C28.4205,20.25 27.75,19.5795 27.75,18.75 C27.75,17.922 28.4205,17.25 29.25,17.25 Z M18.75,27.75 C19.5795,27.75 20.25,28.4205 20.25,29.25 C20.25,30.0795 19.5795,30.75 18.75,30.75 C17.922,30.75 17.25,30.0795 17.25,29.25 C17.25,28.4205 17.922,27.75 18.75,27.75 Z M8.25,17.25 C9.078,17.25 9.75,17.922 9.75,18.75 C9.75,19.5795 9.078,20.25 8.25,20.25 C7.422,20.25 6.75,19.5795 6.75,18.75 C6.75,17.922 7.422,17.25 8.25,17.25 Z M18.75,6.75 C19.5795,6.75 20.25,7.422 20.25,8.25 C20.25,9.078 19.5795,9.75 18.75,9.75 C17.922,9.75 17.25,9.078 17.25,8.25 C17.25,7.422 17.922,6.75 18.75,6.75 Z M9.3105,19.8105 L17.6895,28.1895 M17.6895,9.3105 L9.3105,17.6895 M28.1895,17.6895 L19.8105,9.3105 M19.8105,28.1895 L28.1895,19.8105 M18.75,15.75 L18.75,9.75 M15.75,18.7485 L9.75,18.7485 M18.7485,21.7485 L18.7485,27.7485 M21.7485,18.75 L27.7485,18.75"/>
</svg>
