<svg class="color-immutable" xmlns="http://www.w3.org/2000/svg" width="59" height="20" fill="none" viewBox="0 0 59 20"><path fill="#E84E10" fill-rule="evenodd" d="M2 0a2 2 0 0 0-2 2v16a2 2 0 0 0 2 2h55a2 2 0 0 0 2-2V2a2 2 0 0 0-2-2z" clip-rule="evenodd"/><path fill="#000" d="M14.153 4.17v2.142H7.98v2.476h5.657v1.991H7.98v2.849h6.284v2.142H5.45V4.17zM25.311 4.17l-3.856 11.6h-2.88l-3.8-11.6h2.65l2.61 8.688 2.65-8.688zM33.613 13.707v2.063h-8.355q0-.945.301-1.801a4.4 4.4 0 0 1 .865-1.476 8 8 0 0 1 1-.928q.579-.453 2.293-1.659.833-.578 1.167-1.079a2.04 2.04 0 0 0 .333-1.158q0-.762-.452-1.23-.445-.476-1.175-.476-1.793 0-1.849 2.579h-2.23v-.254q0-2.11 1.183-3.27 1.15-1.126 2.976-1.126 1.618 0 2.705.92 1.182 1 1.182 2.69 0 1.476-.944 2.54-.31.348-.579.563-.27.206-1.42 1.007-1.095.762-1.571 1.167a6.4 6.4 0 0 0-.873.928zM42.415 13.707v2.063H34.06q0-.945.301-1.801a4.4 4.4 0 0 1 .865-1.476 8 8 0 0 1 1-.928q.579-.453 2.293-1.659.833-.578 1.166-1.079a2.04 2.04 0 0 0 .333-1.158q0-.762-.452-1.23-.444-.476-1.174-.476-1.794 0-1.849 2.579h-2.23v-.254q0-2.11 1.183-3.27 1.15-1.126 2.975-1.126 1.62 0 2.706.92 1.182 1 1.182 2.69 0 1.476-.944 2.54-.31.348-.58.563-.27.206-1.42 1.007-1.095.762-1.57 1.167a6.4 6.4 0 0 0-.873.928z"/></svg>