<svg class="color-immutable" xmlns="http://www.w3.org/2000/svg" width="59" height="20" fill="none" viewBox="0 0 59 20"><path fill="#EB0000" fill-rule="evenodd" d="M2 0a2 2 0 0 0-2 2v16a2 2 0 0 0 2 2h55a2 2 0 0 0 2-2V2a2 2 0 0 0-2-2z" clip-rule="evenodd"/><path fill="#fff" fill-rule="evenodd" d="M9.22 4.2h4.056L8.258 15.8H4.185zM25.98 12.366a.93.93 0 0 0 .847-.554L30.119 4.2H15.984l-5.018 11.6h4.038l3.8-8.69h5.993l-1.201 2.775-5.226-.02 4.217 5.935h4.597l-3.124-3.434zM44.1 4.236v2.059h-4.65L38.955 8.9q.836-.887 2.139-.887 1.278 0 2.225.689 1.405 1.037 1.405 3.152 0 2.075-1.5 3.286-1.168.95-2.793.95-1.831 0-2.944-.985-1.113-.986-1.176-2.665h2.265q.055.61.395 1.037.528.674 1.467.673.907 0 1.437-.657.513-.641.513-1.56 0-.997-.537-1.596-.537-.597-1.428-.597-1.09 0-1.697.982l-2.06-.032 1.097-6.454zM49.561 9.78q-.828 0-1.318.696-.442.618-.442 1.473 0 .848.45 1.48.49.705 1.342.705.828 0 1.334-.673.473-.633.473-1.496 0-.847-.426-1.45-.52-.736-1.413-.736m3.907-2.654h-2.194q-.307-1.338-1.516-1.338-1.278 0-1.815 1.576-.22.64-.355 1.94.52-.705 1.11-1.014.586-.309 1.416-.309 1.625 0 2.612 1.156.94 1.095.94 2.74 0 1.958-1.263 3.144-1.137 1.07-2.731 1.07-2.044 0-3.181-1.549-1.136-1.548-1.136-4.32 0-2.96 1.215-4.64 1.176-1.623 3.212-1.624 1.919 0 2.936 1.291.585.744.75 1.877" clip-rule="evenodd"/></svg>