<svg xmlns="http://www.w3.org/2000/svg" width="24" height="24" fill="none" viewBox="0 0 24 24"><path fill="#000" fill-rule="evenodd" d="M12 3a9 9 0 0 0-9 9 9 9 0 0 0 9 9 9 9 0 0 0 9-9 9 9 0 0 0-9-9M2 12C2 6.477 6.477 2 12 2s10 4.477 10 10-4.477 10-10 10S2 17.523 2 12m10.435 4.084q.822-.005 1.346-.512.523-.506.523-1.3 0-.813-.453-1.284-.452-.47-1.416-.649zm-.778-8.466q-.687.02-1.076.29-.695.48-.695 1.388 0 .708.433 1.118.431.411 1.338.566zm-3.151 6.2h1.203q0 2.154 1.948 2.266V12.17q-1.083-.183-1.827-.658-1.133-.715-1.133-2.116 0-1.197.803-1.951.805-.755 2.157-.819V5.36h.778v1.266q1.346.109 2.039.793.75.738.736 1.94h-1.19q-.112-1.677-1.585-1.734v3.548q.893.226 1.236.346.344.12.64.311 1.183.765 1.183 2.33 0 1.615-1.317 2.457-.63.404-1.742.468v1.558h-.778v-1.558q-1.593-.1-2.365-.95-.794-.878-.786-2.315M8.8 4.67a8.01 8.01 0 0 0-4.499 5.197l.964.267A7.01 7.01 0 0 1 9.2 5.587z" clip-rule="evenodd"/></svg>