<?xml version="1.0" encoding="utf-8"?>
<!-- Generator: Adobe Illustrator 24.2.0, SVG Export Plug-In . SVG Version: 6.00 Build 0)  -->
<svg version="1.0" xmlns="http://www.w3.org/2000/svg" xmlns:xlink="http://www.w3.org/1999/xlink" x="0px" y="0px"
	 viewBox="0 0 24 24" enable-background="new 0 0 24 24" xml:space="preserve">
<g id="SVG_x5F_24x24pt">
	<path id="backgroundGreen" fill="#237F52" d="M0,22.5v-21C0,0.675,0.675,0,1.5,0h21C23.325,0,24,0.675,24,1.5v21
		c0,0.825-0.675,1.5-1.5,1.5h-21C0.675,24,0,23.325,0,22.5z"/>
	<g id="content">
		<polygon fill="#FFFFFF" points="5.877,16.307 7.81,14.374 7.81,15.582 5.393,17.999 2.976,15.582 2.976,14.374 4.91,16.307 
			4.91,11.715 5.877,11.715 		"/>
		<path fill="#FFFFFF" d="M19.83,3v2.886h0.002c0,0.408-0.33,0.738-0.738,0.738h-0.089h-1.553h-5.815H9.723
			c-0.408,0-0.738-0.331-0.738-0.738h0.002L8.99,3.002L7.827,3v3.624v5.193c0.001,1.002,0.775,1.818,1.756,1.894v-1.17
			c-0.338-0.068-0.593-0.366-0.593-0.724V8.524c0-0.406,0.331-0.736,0.738-0.737H19.1c0.405,0,0.736,0.331,0.736,0.737v3.293
			c0,0.363-0.263,0.663-0.606,0.725v1.169c0.988-0.068,1.769-0.888,1.77-1.895V6.624V3H19.83z"/>
		<g>
			<path fill="#FFFFFF" d="M18.17,11.222c-0.432,0-0.782,0.35-0.782,0.782v2.044h-0.313v-2.99c0-0.432-0.35-0.782-0.782-0.782
				c-0.432,0-0.782,0.35-0.782,0.782v2.379h-0.314v-3.003c0-0.432-0.35-0.782-0.782-0.782c-0.432,0-0.783,0.35-0.783,0.782v2.359
				h-0.313V10.77c0-0.432-0.35-0.782-0.782-0.782c-0.432,0-0.782,0.35-0.782,0.782v3.929h-0.314l-0.001,0.001v-2.01
				c0-0.497-0.312-0.939-0.781-1.104c-0.062-0.022-0.128-0.033-0.195-0.033c-0.322,0-0.585,0.263-0.585,0.585v3.775l-0.002,0.002
				c0,0.391,0.081,0.794,0.211,1.108c0.13,0.314,1.377,3.326,1.377,3.326l6.49-0.001l0.801-1.942
				c0.132-0.346,0.198-0.713,0.198-1.106c0-0.054,0-5.295,0-5.295C18.952,11.572,18.602,11.222,18.17,11.222z"/>
		</g>
	</g>
</g>
</svg>
