<svg xmlns="http://www.w3.org/2000/svg" width="36" height="36" fill="none" viewBox="0 0 36 36"><path fill="#000" fill-rule="evenodd" d="M29.75 28.75H33v1H3.001v-1h3.285a3.5 3.5 0 0 1 2.964-2.965v-8.821a3.5 3.5 0 0 1-3-3.464h1a2.5 2.5 0 0 0 2 2.45v-4.986a3.5 3.5 0 0 1-3-3.464h1a2.5 2.5 0 0 0 2 2.45v-3.2h1v6.2a2.5 2.5 0 0 0 2-2.45h1a3.5 3.5 0 0 1-3 3.464v4.985a2.5 2.5 0 0 0 2-2.449h1a3.5 3.5 0 0 1-3 3.464v5.821a3.5 3.5 0 0 1 2.964 2.965h5.036V6.25h11.5zm-20-2c-1.21 0-2.219.859-2.45 2h4.9a2.5 2.5 0 0 0-2.45-2m9.5 2h9.5V7.25h-9.5zm7.75-9.5h-1.5v-1H27z" clip-rule="evenodd"/></svg>