<svg xmlns="http://www.w3.org/2000/svg" width="24" height="24" fill="none" viewBox="0 0 24 24"><path fill="#000" d="M9.397 10.725H8.151q-.036-.438-.325-.67-.289-.231-.81-.231-.462 0-.72.182a.59.59 0 0 0-.255.51q0 .295.246.426.237.131 1.205.369 1.02.254 1.414.513.726.475.725 1.324 0 .93-.73 1.466-.642.472-1.74.472-1.223 0-1.898-.558-.677-.556-.701-1.586h1.303q.029.5.258.742.36.385 1.086.385.492 0 .78-.192a.69.69 0 0 0 .323-.603q0-.38-.456-.557-.25-.098-1.18-.357a7 7 0 0 1-.91-.303 2 2 0 0 1-.524-.32q-.459-.41-.459-1.13 0-.865.717-1.37.61-.43 1.586-.43.857 0 1.435.34.831.489.876 1.578M13.307 8.95l-2.775 7.533h-1.09l2.787-7.532zM19.05 8.95v5.992h-1.316l-2.508-4.082.016 4.082h-1.258V8.951h1.332l2.492 4.073-.016-4.073z"/><path stroke="#000" stroke-miterlimit="10" d="M12 21.5a9.5 9.5 0 1 0 0-19 9.5 9.5 0 0 0 0 19Z"/></svg>