<svg xmlns="http://www.w3.org/2000/svg" width="48" height="48" fill="none" viewBox="0 0 48 48"><path fill="#000" fill-rule="evenodd" d="M24.55 6.03c-9.774 0-17.5 7.726-17.5 17.5 0 7.54 4.599 13.855 11.177 16.353l-.354.934C10.91 38.176 6.05 31.492 6.05 23.53c0-10.326 8.174-18.5 18.5-18.5s18.5 8.174 18.5 18.5c0 .883-.061 1.755-.174 2.596l-.991-.132c.107-.8.165-1.627.165-2.464 0-9.774-7.726-17.5-17.5-17.5m-6 11c-.826 0-1.5.674-1.5 1.5s.674 1.5 1.5 1.5 1.5-.674 1.5-1.5-.674-1.5-1.5-1.5m-.5 1.5c0-.274.226-.5.5-.5s.5.226.5.5-.226.5-.5.5a.503.503 0 0 1-.5-.5m12.5-1.5c-.826 0-1.5.674-1.5 1.5s.674 1.5 1.5 1.5 1.5-.674 1.5-1.5-.674-1.5-1.5-1.5m-.5 1.5c0-.274.226-.5.5-.5s.5.226.5.5-.226.5-.5.5a.503.503 0 0 1-.5-.5m8.94 9.995c.809-.545 1.911-.351 2.518.463.63.853.459 2.054-.363 2.686l-.166.127-5.399 3.842-.258.183.056.312.35 1.97c.374 2.083-.847 4.221-2.736 4.56l-7.953 1.435c-1.237-3.235-4.28-5.762-6.731-7.231-1.038-.629-1.113-2.138-.156-2.864h.002a1.64 1.64 0 0 1 1.471-.27l.008.003 7.87 2.24.222.063.193-.128 11.07-7.39zm3.321-.134c-.913-1.225-2.61-1.55-3.88-.696l-10.876 7.26-7.644-2.175a2.63 2.63 0 0 0-2.363.432c-1.522 1.153-1.398 3.524.243 4.516h.002c2.485 1.49 5.429 4.01 6.442 7.098l.136.413.428-.077 8.37-1.51c2.57-.46 3.989-3.243 3.543-5.72l-.294-1.658 5.322-3.787.21-.15v-.035a2.947 2.947 0 0 0 .362-3.909zM24.434 31.86c-3.137-.095-5.9-1.612-7.754-3.927l.78-.626c1.686 2.105 4.182 3.468 7.005 3.553h.002c2.824.095 5.406-1.098 7.224-3.087l.003-.003.164-.177-.612-.65.728-.686 1.94 2.06-.728.686-.64-.68-.118.126c-2.002 2.19-4.86 3.516-7.994 3.41" clip-rule="evenodd"/></svg>