<svg xmlns="http://www.w3.org/2000/svg" width="36" height="36" fill="none" viewBox="0 0 36 36"><path fill="#000" fill-rule="evenodd" d="M11.75 6v7.25H4.5v-1h5.543L4.52 6.73l.708-.707 5.521 5.521V6zm5.5 8.75c-2.235 0-4 1.766-4 4s1.765 4 4 4 4-1.765 4-4c0-2.234-1.765-4-4-4m-5 4c0-2.787 2.213-5 5-5s5 2.213 5 5-2.213 5-5 5-5-2.212-5-5m10.5-6V6h1v5.543l5.521-5.521.708.707-5.522 5.522H30v1h-7.25zm0 11.5H30v1h-5.543l5.522 5.521-.708.707-5.521-5.521V31.5h-1v-7.25m-18.25 0h7.25v7.25h-1v-5.543l-5.521 5.521-.708-.707 5.522-5.521H4.5z" clip-rule="evenodd"/></svg>