<svg class="color-immutable" xmlns="http://www.w3.org/2000/svg" width="59" height="20" fill="none" viewBox="0 0 59 20"><g clip-path="url(#a)"><path stroke="#fff" d="M2 .5h55A1.5 1.5 0 0 1 58.5 2v16a1.5 1.5 0 0 1-1.5 1.5H2A1.5 1.5 0 0 1 .5 18V2A1.5 1.5 0 0 1 2 .5Z"/><path fill="#fff" d="M4.069 4.224h5.704q1.692 0 2.594.532.749.434 1.144 1.16.395.725.395 1.635 0 1.032-.5 1.797-.491.765-1.377 1.096.78.192 1.224.87.282.426.379.894.097.467.25 2.135.112 1.224.346 1.523l.113.137h-2.683a2 2 0 0 1-.201-.637q-.058-.387-.154-1.788-.096-1.25-.612-1.724-.507-.484-1.74-.484H6.639v4.633h-2.57zm2.57 2.022v3.239h2.457q1.184 0 1.668-.339.612-.426.612-1.289 0-.837-.524-1.224t-1.651-.387zM24.436 13.827v2.176h-8.33V4.223h2.57v9.604zM33.677 11.322v1.99h-1.483v2.69h-2.296v-2.69h-4.914v-2.208l5.035-6.88h2.175v7.098zm-3.73.024V6.963l-3.03 4.383zM34.474 13.046h2.224q.275 1.37 1.587 1.37.741 0 1.2-.5.468-.507.718-1.571.16-.676.233-1.539-.54.758-1.111 1.08-.565.315-1.378.314-1.297 0-2.256-.757a3.6 3.6 0 0 1-1.047-1.378 4.5 4.5 0 0 1-.371-1.837q0-1.99 1.361-3.223 1.17-1.063 2.804-1.063 1.008 0 1.861.451.855.45 1.434 1.281 1.024 1.474 1.024 4.141 0 2.466-.903 4.206-1.175 2.264-3.56 2.264-1.588 0-2.627-.879-1.032-.878-1.193-2.36m3.916-7.114q-.758 0-1.281.62-.525.629-.524 1.595 0 .782.379 1.386.516.83 1.45.83.846 0 1.354-.677.474-.636.475-1.514 0-.927-.492-1.571a1.64 1.64 0 0 0-1.361-.67"/></g><defs><clipPath id="a"><path fill="#fff" d="M0 0h59v20H0z"/></clipPath></defs></svg>