<svg class="color-immutable" xmlns="http://www.w3.org/2000/svg" width="59" height="20" fill="none" viewBox="0 0 59 20"><g clip-path="url(#a)"><path stroke="#000" d="M2 .5h55A1.5 1.5 0 0 1 58.5 2v16a1.5 1.5 0 0 1-1.5 1.5H2A1.5 1.5 0 0 1 .5 18V2A1.5 1.5 0 0 1 2 .5Z"/><path fill="#000" d="M4.069 4.224h5.704q1.692 0 2.594.531.749.435 1.144 1.16.395.727.395 1.636 0 1.032-.5 1.797-.491.765-1.377 1.095.78.195 1.224.87.282.427.379.895.097.467.25 2.135.112 1.224.346 1.523l.113.137h-2.683a2 2 0 0 1-.201-.637q-.058-.387-.154-1.788-.096-1.25-.612-1.725-.507-.483-1.74-.483H6.639v4.633h-2.57zm2.57 2.022v3.239h2.457q1.184 0 1.668-.339.612-.426.612-1.289 0-.837-.524-1.224t-1.651-.387zM21.318 4.224v11.779h-2.353v-7.71h-2.771V6.583q.862-.024 1.402-.177.547-.152.999-.5.653-.499.878-1.683zM32.726 7.164h-2.24q-.315-1.36-1.547-1.361-1.305 0-1.853 1.603-.224.653-.362 1.974.531-.717 1.128-1.031.604-.315 1.45-.314 1.659 0 2.667 1.176.959 1.112.959 2.787 0 1.99-1.29 3.199-1.16 1.088-2.787 1.088-2.087 0-3.247-1.572-1.16-1.578-1.16-4.398 0-3.014 1.24-4.722 1.2-1.65 3.28-1.651 1.957 0 2.997 1.313.596.757.765 1.91m-3.988 2.7q-.846 0-1.345.708-.452.63-.452 1.499 0 .862.46 1.507.5.717 1.37.717.845 0 1.36-.685.484-.644.484-1.523 0-.862-.435-1.474-.531-.75-1.442-.75"/></g><defs><clipPath id="a"><path fill="#fff" d="M0 0h59v20H0z"/></clipPath></defs></svg>