<svg xmlns="http://www.w3.org/2000/svg" width="24" height="24" fill="none" viewBox="0 0 24 24"><path fill="#000" fill-rule="evenodd" d="M2 4h7V3H2zm9 0h4V3h-4zm4 3h-4V6h4zm2 0h5V6h-5zm5-3h-5V3h5zM2 7h7V6H2zm7 3H2V9h7zm-7 3h7v-1H2zm7 3H2v-1h7zm-7 3h7v-1H2zm14.499-8c-2.49-.005-4.494 1.643-4.498 4.001l-1-.002c.006-3.038 2.595-5.005 5.5-4.999 1.052.002 2.188.354 3.163.925.485.284.943.63 1.336 1.026V11h1v3h-3v-1h1.598a5.3 5.3 0 0 0-1.44-1.212c-.85-.498-1.814-.786-2.659-.788M11 17h3v1h-1.697c.809 1.24 2.486 2 4.197 2 2.493 0 4.5-1.648 4.5-4.004h1C22 19.036 19.403 21 16.5 21c-1.636 0-3.376-.615-4.5-1.78v.784h-1V17" clip-rule="evenodd"/></svg>