<svg xmlns="http://www.w3.org/2000/svg" width="26" height="16" fill="none" viewBox="0 0 26 16"><path fill="#000" d="M24.298 7.158q.65-.771.728-1.857h-1.522q-.096.78-.507 1.187-.408.407-1.096.407-.967 0-1.46-.81-.387-.63-.387-1.578 0-.924.368-1.56.494-.837 1.488-.838.622 0 1.03.326.405.32.53.914h1.508a2.5 2.5 0 0 0-.699-1.555q-.885-.957-2.335-.957-1.555 0-2.493 1.043-.938 1.047-.938 2.617 0 1.498.79 2.498.922 1.172 2.583 1.172 1.56 0 2.412-1.01M16.345 8l1.895-6.996H16.72l-1.14 5.101-1.23-5.1h-1.444l-1.23 5.138-1.125-5.139H9.014L10.881 8h1.55l1.172-4.996L14.814 8zM6.968 2.25a1.25 1.25 0 1 1-2.5 0 1.25 1.25 0 0 1 2.5 0M10.196 13.38 9.334 11H5.707c-.822 0-1.486-.67-1.486-1.5V5.75c0-.83.664-1.5 1.486-1.5.823 0 1.487.67 1.487 1.5V8.5H9.72c.416 0 .793.26.931.66l1.289 3.58a.935.935 0 0 1-.873 1.26.94.94 0 0 1-.872-.62"/><path fill="#000" d="m9.205 13.38-.614-1.7c-.525 1.07-1.615 1.82-2.884 1.82-1.774 0-3.22-1.46-3.22-3.25 0-.78.287-1.49.743-2.05V6.23A4.74 4.74 0 0 0 1 10.25C1 12.87 3.11 15 5.707 15c1.397 0 2.636-.63 3.498-1.61z"/></svg>