<svg xmlns="http://www.w3.org/2000/svg" width="24" height="24" version="1.1" viewBox="0 0 24 24">
  <path fill="none" fill-rule="evenodd" stroke="#000" stroke-width="1" d="M11.001,12.5 C10.173,12.5 9.501,11.829 9.501,11 M3.5,6.5 L2,6.5 M20.5,8.5 L3.5,8.5 M4.5,18.501 C4.5,19.054 4.948,19.501 5.5,19.501 L7.5,19.501 C8.052,19.501 8.5,19.054 8.5,18.501 L9.5,10.5 L19.5,10.5 L20.5,8.5 L20.501,6.5 C20.501,5.948 20.054,5.5 19.501,5.5 L4.5,5.5 C3.948,5.5 3.5,5.948 3.5,6.5 L3.5,9.501 C3.5,10.053 3.948,10.501 4.5,10.501 L5.5,10.5 L4.5,18.501 Z M9,14.4995 L9,14.4995 C8.947,14.4995 12.899,15.4135 13.45,10.4995 M20.5,6.5 L21.5,6.5 L21.5,7.5 L20.5,7.5 M19.5,4 L19.5,5.5"/>
</svg>
