<svg xmlns="http://www.w3.org/2000/svg" width="24" height="24" version="1.1" viewBox="0 0 24 24">
  <path fill="none" fill-rule="evenodd" stroke="#000" stroke-width="1" d="M15.5,21 C19.013,19.605 21.5,16.01 21.5,12 C21.5,6.753 17.247,2.5 12,2.5 C6.753,2.5 2.5,6.753 2.5,12 C2.5,17.247 6.753,21.5 12,21.5 M19,21.5 L15.5,21.5 L15.5,18 M12.915,7.5 L12.222,8.346 L9.646,9.01 L9.141,8.751 L7.471,9.924 L8.226,10.169 L6.239,12.252 L5.5,14.812 L6.964,14.459 L7.61,14.103 L9.142,15.488 L11.301,15.259 L12.546,13.985 L14.019,15.912 L15.096,13.752 L17.602,14.371 L17.444,13.075 L18.5,13.101 L18.392,10.985 L17.474,10.322 L17.175,10.856 L15.96,10.51 L16.414,9.231 L13.87,8.297 L12.915,7.5 Z"/>
</svg>
