<svg xmlns="http://www.w3.org/2000/svg" width="36" height="36" fill="none" viewBox="0 0 36 36"><path fill="#000" fill-rule="evenodd" d="M20.25 7.5a2.25 2.25 0 1 1-4.5 0 2.25 2.25 0 0 1 4.5 0m0 10.5a2.25 2.25 0 1 1-4.5 0 2.25 2.25 0 0 1 4.5 0M18 30.75a2.249 2.249 0 1 0 0-4.5 2.25 2.25 0 1 0 0 4.5" clip-rule="evenodd"/><path fill="#000" d="M18 10.25a2.75 2.75 0 0 0 2.75-2.75h-1A1.75 1.75 0 0 1 18 9.25zM15.25 7.5A2.75 2.75 0 0 0 18 10.25v-1a1.75 1.75 0 0 1-1.75-1.75zM18 4.75c-1.52 0-2.75 1.23-2.75 2.75h1c0-.967.783-1.75 1.75-1.75zm2.75 2.75c0-1.52-1.23-2.75-2.75-2.75v1c.967 0 1.75.783 1.75 1.75zM18 20.75A2.75 2.75 0 0 0 20.75 18h-1A1.75 1.75 0 0 1 18 19.75zM15.25 18A2.75 2.75 0 0 0 18 20.75v-1A1.75 1.75 0 0 1 16.25 18zM18 15.25c-1.52 0-2.75 1.23-2.75 2.75h1c0-.967.783-1.75 1.75-1.75zM20.75 18c0-1.52-1.23-2.75-2.75-2.75v1c.967 0 1.75.783 1.75 1.75zm-1 10.5c0 .967-.783 1.75-1.75 1.75v1c1.52 0 2.75-1.23 2.75-2.75zM18 26.75c.967 0 1.75.784 1.75 1.75h1A2.75 2.75 0 0 0 18 25.75zm-1.75 1.75c0-.966.783-1.75 1.75-1.75v-1a2.75 2.75 0 0 0-2.75 2.75zM18 30.25c-.967 0-1.75-.783-1.75-1.75h-1c0 1.52 1.23 2.75 2.75 2.75z"/></svg>