<svg xmlns="http://www.w3.org/2000/svg" width="24" height="24" fill="none" viewBox="0 0 24 24"><path fill="#000" fill-rule="evenodd" d="M12.5 5h2.48V4h-6v1h2.52v1.013c-1.355.076-2.452.463-3.33 1.07-.981.676-1.658 1.605-2.123 2.607C5.123 11.68 5 14.022 5 15.5v.5h14.002L19 15.498c-.005-1.476-.128-3.82-1.05-5.807-.465-1.002-1.14-1.931-2.12-2.608-.878-.607-1.975-.994-3.33-1.07zM6.006 15h11.988c-.035-1.42-.216-3.304-.951-4.889-.41-.881-.982-1.653-1.781-2.206C14.465 7.355 13.412 7 12 7s-2.465.355-3.263.905c-.8.553-1.374 1.325-1.783 2.207-.736 1.584-.918 3.469-.948 4.888M20 18H4v1h16z" clip-rule="evenodd"/></svg>