<svg xmlns="http://www.w3.org/2000/svg" width="36" height="36" fill="none" viewBox="0 0 36 36"><path fill="#000" fill-rule="evenodd" d="M17.5 6v2.25h1V6zm5.979 1.337-1.053 1.93.878.48 1.053-1.931zM18 11.75A6.22 6.22 0 0 0 11.75 18c0 2.304 1.332 4.363 3.235 5.5h6.044c1.872-.99 3.221-3.175 3.221-5.5A6.22 6.22 0 0 0 18 11.75M10.75 18c0 2.387 1.217 4.514 3 5.87v3.635l.335.117 2.665.933v1.195h2.5v-1.195l2.665-.933.335-.117v-3.59c1.8-1.299 3-3.548 3-5.915A7.22 7.22 0 0 0 18 10.75 7.22 7.22 0 0 0 10.75 18m4 6.5v2.295l2.665.933.335.117v.905h.5v-.905l.335-.117 2.665-.933V24.5zM26.1 12.55l1.924-1.062.483.876-1.924 1.062zm1.649 5.95 2.25.006.002-1-2.25-.006zm.296 6.01-1.948-1.04.47-.882 1.949 1.04zM7.82 24.484l1.965-1.17-.512-.859-1.965 1.17zm.43-5.985H6v-1h2.25zm-.856-6.095 1.922 1.236.54-.84-1.92-1.237zm5.302-2.65-1.063-1.933.876-.482 1.064 1.933z" clip-rule="evenodd"/></svg>