<svg class="color-immutable" xmlns="http://www.w3.org/2000/svg" width="59" height="20" fill="none" viewBox="0 0 59 20"><path fill="#EB0000" fill-rule="evenodd" d="M2 0a2 2 0 0 0-2 2v16a2 2 0 0 0 2 2h55a2 2 0 0 0 2-2V2a2 2 0 0 0-2-2z" clip-rule="evenodd"/><path fill="#fff" fill-rule="evenodd" d="M7.002 9.378h.745q1.913 0 2.554-.24a2.1 2.1 0 0 0 1.009-.769q.369-.528.368-1.16 0-.426-.188-.697a1.07 1.07 0 0 0-.528-.397q-.34-.124-1.518-.124h-1.73zm-1.338 6.423H3.246L5.705 4.06h4.772q1.273 0 2.014.3t1.173.993.433 1.654q0 .89-.345 1.73t-.844 1.345a3.6 3.6 0 0 1-1.077.765q-.578.26-1.554.396-.57.08-2.13.08H6.601zM13.602 15.8l2.45-11.739h8.705l-.408 1.962h-6.286l-.56 2.667h6.077l-.408 1.962h-6.078l-.737 3.187h6.83l-.416 1.962z" clip-rule="evenodd"/><path fill="#fff" d="M44.42 4.23v1.967q-.096.104-.564.643-.65.746-1.293 1.88a13 13 0 0 0-1 2.167q-.753 2.166-.912 4.943h-2.396q.023-1.309.452-2.904.435-1.595 1.198-3.19 1.087-2.252 2.206-3.356h-5.475V4.23zM53.75 13.767v2.063h-8.354q0-.945.301-1.801a4.4 4.4 0 0 1 .865-1.476 8 8 0 0 1 1-.928q.579-.453 2.293-1.659.833-.58 1.166-1.079a2.04 2.04 0 0 0 .334-1.158q0-.762-.453-1.23-.444-.476-1.174-.476-1.793 0-1.849 2.579h-2.23v-.254q0-2.11 1.183-3.27 1.15-1.125 2.975-1.126 1.62 0 2.706.92 1.182 1 1.182 2.69 0 1.476-.944 2.54-.31.348-.58.563-.268.206-1.42 1.007-1.095.762-1.57 1.167-.469.405-.873.928z"/></svg>