<svg xmlns="http://www.w3.org/2000/svg" width="24" height="24" fill="none" viewBox="0 0 24 24"><path fill="#000" fill-rule="evenodd" d="M17 4h2.293l-3.647 3.646.708.707L20 4.706V7h1V3h-4zM2 10h.52V9H2zm1.563 0h1.041V9H3.563zm2.083 0h1.042V9H5.646zm2.083 0h1.042V9H7.729zm2.084 0h1.041V9H9.813zm2.083 0h1.041V9h-1.041zm2.083 0H14v.021h1v-1.02h-1.02zM14 11.063v1.041h1v-1.041zm0 2.083v1.042h1v-1.042zm0 2.083v1.042h1v-1.042zm0 2.084v1.041h1v-1.041zm0 2.083v1.042h1v-1.042zm0 2.083V22h1v-.52z" clip-rule="evenodd"/></svg>