<svg class="color-immutable" width="59" height="20" viewBox="0 0 59 20" fill="none" xmlns="http://www.w3.org/2000/svg"><path d="M1.792 0h55.416C58.197 0 59 .806 59 1.8v16.4c0 .994-.801 1.8-1.792 1.8H1.792A1.797 1.797 0 0 1 0 18.2V1.8C0 .806.803 0 1.792 0Z" fill="#000"/><path d="M12.8 7.661h-2.405c-.047-.564-.258-.994-.633-1.289-.369-.3-.888-.45-1.558-.45-.596 0-1.06.118-1.392.355-.327.232-.49.56-.49.981 0 .38.158.654.474.823.306.168 1.081.406 2.326.712 1.313.327 2.223.656 2.729.988.933.612 1.4 1.464 1.4 2.555 0 1.197-.47 2.141-1.408 2.832-.828.607-1.949.91-3.362.91-1.571 0-2.792-.359-3.662-1.076-.87-.717-1.321-1.738-1.353-3.061h2.515c.037.643.203 1.12.499 1.432.464.495 1.163.743 2.096.743.633 0 1.134-.124 1.503-.372.416-.284.625-.672.625-1.162 0-.49-.293-.85-.878-1.076-.322-.127-1.081-.356-2.278-.688-.75-.206-1.335-.401-1.756-.586-.422-.184-.76-.39-1.013-.617-.59-.527-.886-1.255-.886-2.183 0-1.113.462-1.993 1.384-2.642.786-.554 1.807-.83 3.062-.83 1.102 0 2.025.218 2.768.656 1.07.628 1.635 1.643 1.693 3.045ZM24.515 4.236v11.565h-2.54l-4.84-7.879.031 7.879h-2.428V4.236h2.57l4.81 7.863-.031-7.863h2.428ZM34.015 4.236v1.962c-.063.069-.25.282-.562.64-.432.496-.862 1.121-1.289 1.875-.427.75-.76 1.47-.997 2.16-.5 1.44-.804 3.082-.91 4.928H27.87c.016-.87.166-1.835.45-2.895.29-1.06.689-2.12 1.195-3.18.723-1.498 1.456-2.613 2.2-3.346h-5.459V4.236h7.76ZM43.033 4.236v1.962c-.064.069-.25.282-.562.64-.432.496-.862 1.121-1.29 1.875-.426.75-.759 1.47-.996 2.16-.501 1.44-.804 3.082-.91 4.928h-2.389c.016-.87.166-1.835.451-2.895.29-1.06.688-2.12 1.195-3.18.722-1.498 1.455-2.613 2.199-3.346h-5.458V4.236h7.76Z" fill="#FFDE15"/></svg>