<svg xmlns="http://www.w3.org/2000/svg" width="36" height="36" fill="none" viewBox="0 0 36 36"><path fill="#000" fill-rule="evenodd" d="M11.25 6.25h-.39l-.095.379-1.444 5.777-2.795 1.397-.241.12-.032.269L4.905 25.65A6 6 0 0 0 4.75 27a5.71 5.71 0 0 0 5.75 5.75 5.71 5.71 0 0 0 5.75-5.846V15.079a4.8 4.8 0 0 1 1.75-.323c.62 0 1.21.114 1.75.323l.002 11.788-.002.133a5.71 5.71 0 0 0 5.75 5.75A5.71 5.71 0 0 0 31.252 27q-.002-.7-.156-1.35l-1.348-11.458-.032-.268-.24-.121-2.795-1.397-1.444-5.777-.095-.379h-5.39v.5L19.75 12h1l.001-4.75h3.61l1.405 5.621.056.223.206.103 2.759 1.38 1.009 8.578a5.73 5.73 0 0 0-4.296-1.898 5.72 5.72 0 0 0-4.749 2.476v-8.121a4.71 4.71 0 0 1 2 3.888h1c0-3.208-2.545-5.744-5.751-5.744s-5.75 2.536-5.75 5.744h1c0-1.624.784-3.036 2-3.888v8.123a5.72 5.72 0 0 0-4.75-2.477 5.73 5.73 0 0 0-4.294 1.896l1.009-8.577 2.759-1.38.205-.103.056-.223L11.64 7.25h3.61v4.806h1V6.25h-5M20.75 27h.002v-.122c.062-2.595 2.133-4.62 4.748-4.62 2.25 0 4.098 1.499 4.61 3.57l.141 1.2A4.71 4.71 0 0 1 25.5 31.75 4.71 4.71 0 0 1 20.75 27m-5.5 0v-.088c-.045-2.612-2.123-4.654-4.75-4.654-2.25 0-4.097 1.498-4.609 3.57l-.14 1.2A4.71 4.71 0 0 0 10.5 31.75 4.71 4.71 0 0 0 15.252 27zm8.5.002c0-.98.77-1.749 1.75-1.749v-1a2.73 2.73 0 0 0-2.75 2.749zm-16 .001a2.73 2.73 0 0 1 2.749-2.75v1a1.73 1.73 0 0 0-1.749 1.75z" clip-rule="evenodd"/></svg>