<svg xmlns="http://www.w3.org/2000/svg" width="24" height="24" fill="none" viewBox="0 0 24 24"><path fill="#000" d="M7.5 1.506A2.494 2.494 0 0 1 8 6.443v10.113a2.495 2.495 0 1 1-1 0V6.443a2.494 2.494 0 0 1 .5-4.937m7.495 6.298-3.102.835a9.4 9.4 0 0 1 5.094 7.915 2.495 2.495 0 1 1-1 .005 8.4 8.4 0 0 0-4.629-7.072l.845 3.152-.966.259-1.279-4.774.482-.13 4.295-1.157zM7.5 17.494a1.506 1.506 0 1 0 0 3.012 1.506 1.506 0 0 0 0-3.012m9 0a1.506 1.506 0 1 0 0 3.012 1.506 1.506 0 0 0 0-3.012m-9-15a1.506 1.506 0 1 0 0 3.012 1.506 1.506 0 0 0 0-3.012"/></svg>