<svg xmlns="http://www.w3.org/2000/svg" width="24" height="24" version="1.1" viewBox="0 0 24 24">
  <path fill="none" fill-rule="evenodd" stroke="#000" stroke-width="1" d="M11.5,6.9997 C11.5,8.3807 9.485,9.4997 7,9.4997 C4.515,9.4997 2.5,8.3807 2.5,6.9997 C2.5,5.6187 4.515,4.4997 7,4.4997 C9.485,4.4997 11.5,5.6187 11.5,6.9997 Z M2.5,9.9997 C2.5,11.3807 4.515,12.4997 7,12.4997 C8.158,12.4997 9.203,12.3987 10,11.9997 M2.5,12.9997 C2.5,14.3807 4.515,15.4997 7,15.4997 C8.158,15.4997 9.203,15.3987 10,14.9997 M2.5,15.9997 C2.5,17.3807 4.515,18.4997 7,18.4997 C8.158,18.4997 9.203,18.3987 10,17.9997 M10,20.9997 C9.203,21.3987 8.158,21.4997 7,21.4997 C4.515,21.4997 2.5,20.3807 2.5,18.9997 L2.5,6.9997 M20.5,12.9997 C20.5,14.3807 18.485,15.4997 16,15.4997 C13.515,15.4997 11.5,14.3807 11.5,12.9997 C11.5,11.6187 13.515,10.4997 16,10.4997 C18.485,10.4997 20.5,11.6187 20.5,12.9997 Z M20.5,15.9997 C20.5,17.3807 18.485,18.4997 16,18.4997 C13.515,18.4997 11.5,17.3807 11.5,15.9997 M20.5,18.9997 C20.5,20.3807 18.485,21.4997 16,21.4997 C13.515,21.4997 11.5,20.3807 11.5,18.9997 M11.5,18.9997 L11.5,12.9997 M20.5,12.9997 L20.5,18.9997 M11.5,9.9997 L11.5,6.9997"/>
</svg>
