<svg xmlns="http://www.w3.org/2000/svg" width="16" height="16" fill="none" viewBox="0 0 16 16"><path fill="#000" d="m13.685 5.036 1.161.464-1.16.463-1.687.675V9.5c0 .357-.217.617-.425.78a2.7 2.7 0 0 1-.793.401c-.606.203-1.413.32-2.281.32-.87 0-1.676-.117-2.282-.32a2.7 2.7 0 0 1-.793-.4C5.217 10.117 5 9.857 5 9.5V6.637l-1-.4V9.88l.568 1.147h-.001l.629 1.248.365.724H1.438l.365-.724.628-1.248L3 9.88V5.837L2.153 5.5l1.161-.464L8.5 2.96zM3.328 11.472l-.002.002L3.06 12h.877l-.265-.525-.002-.002-.171-.346zM11 7.038l-2.315.926-.185.075-.186-.075L6 7.038v2.414c.008.01.02.025.044.044.09.07.25.155.492.236.479.16 1.173.269 1.964.269s1.484-.11 1.963-.27c.242-.08.403-.165.492-.235q.033-.03.044-.044zm-6.156-1.54.841.337L8.5 6.96l2.814-1.125.84-.336L8.5 4.038z"/></svg>