<svg xmlns="http://www.w3.org/2000/svg" width="24" height="24" fill="none" viewBox="0 0 24 24"><path fill="#000" d="M6.5 6.5h-2v-1H3a.52.52 0 0 0-.3.072.4.4 0 0 0-.128.152.7.7 0 0 0-.071.268l-.001.014V20c0 .163.04.251.072.3a.4.4 0 0 0 .152.128.7.7 0 0 0 .268.071l.014.001h6.988l.014-.001a.7.7 0 0 0 .268-.071.4.4 0 0 0 .152-.127A.52.52 0 0 0 10.5 20v-2.5h1V20c0 .337-.086.624-.24.855a1.4 1.4 0 0 1-.536.467 1.7 1.7 0 0 1-.646.175q-.03.002-.05.002l-.017.001H10L10 21v.5H3V21l-.001.5h-.01l-.017-.001q-.02 0-.05-.002a1.728 1.728 0 0 1-.646-.175 1.4 1.4 0 0 1-.536-.466A1.5 1.5 0 0 1 1.5 20V6H2l-.5-.001v-.01l.001-.017q0-.02.002-.05a1.8 1.8 0 0 1 .175-.646c.092-.184.238-.383.467-.536.231-.154.518-.24.855-.24h3.5zm15 7h-8.293L10.5 16.207V13.5h-3v-12h14zm-13-1h3v1.293l1.293-1.293H20.5v-10h-12zm8-3h-6v-1h6zm2-2h-8v-1h8zm0-2h-8v-1h8z"/></svg>