<svg xmlns="http://www.w3.org/2000/svg" width="48" height="48" fill="none" viewBox="0 0 48 48"><path fill="#000" fill-rule="evenodd" d="M19 5.47c0-.204.203-.46.57-.46h7.86c.367 0 .57.256.57.46v1.604q-4.5-.148-9 0zm10 0v1.64q5.102.207 10.178.793l1.38.16.442.052V12h-2.03l-2.041 32.531-.03.469H10.1l-.029-.469L8.031 12H6V8.115l.442-.052 1.38-.16c3.384-.39 6.78-.655 10.178-.792V5.47c0-.856.756-1.46 1.57-1.46h7.86c.814 0 1.57.604 1.57 1.46M9.032 12h28.936l-.126 2H9.158zm.189 3 1.63 26H36.15l1.63-26zm1.693 27h25.172l-.126 2H11.04zM7.938 8.897 7 9.005V11h33V9.005l-.937-.108a135.5 135.5 0 0 0-31.125 0m25.563 8.08-1 22 .999.046 1-22zm-20.001 0 1 22-1 .046-1-22zm15 0-1 22 1 .046 1-22zm-10 0 1 22-1 .046-1-22zM23 17v22h1V17z" clip-rule="evenodd"/></svg>