<svg class="color-immutable" xmlns="http://www.w3.org/2000/svg" width="16" height="16" fill="none" viewBox="0 0 16 16"><rect width="16" height="16" fill="#EB0000" rx="2"/><path fill="#fff" d="M7.135 3.584a1.054 1.054 0 0 1 1.049.93l.007.127v4.602l2.525 1.852 1.069-1.07c.347-.347.967-.294 1.378.117l.838.837v3.169H7.663l1.426-1.902c.087-.116.264-.264.394-.329l.584-.292c.075-.037.17-.098.256-.163L8.136 9.858a.396.396 0 0 1-.737-.2v-.342l-1.206-.883.294-.44.912.67V6.148L5.901 8.396l-.032.045.713 2.377.01.034v.002l.004.024.002.008q.002.007.003.016l.002.016.001.009.001.023.001.002v2.667a.528.528 0 0 1-1.055 0v-2.562l-.764-2.544-1.758 5.273a.528.528 0 1 1-1.002-.334L4.02 7.476l.003-.006q.045-.128.121-.246l1.898-2.847H4.964l-1.158 1.65.55.403-.295.44-.558-.41a.396.396 0 0 1-.643-.462l.004-.007-.111-.08a.265.265 0 0 1 .312-.427l.103.075 1.265-1.806a.4.4 0 0 1 .325-.169zM8.72 2a1.056 1.056 0 1 1-.002 2.113A1.056 1.056 0 0 1 8.72 2"/></svg>