<?xml version="1.0" encoding="utf-8"?>
<!-- Generator: Adobe Illustrator 24.2.0, SVG Export Plug-In . SVG Version: 6.00 Build 0)  -->
<svg version="1.0" id="Ebene_1" xmlns="http://www.w3.org/2000/svg" xmlns:xlink="http://www.w3.org/1999/xlink" x="0px" y="0px"
	 viewBox="0 0 24 24" enable-background="new 0 0 24 24" xml:space="preserve">
<g id="SVG_x5F_24x24pt">
	<path id="backgroundBlue" fill="#2D327D" d="M0,22.5v-21C0,0.675,0.675,0,1.5,0h21C23.325,0,24,0.675,24,1.5v21
		c0,0.825-0.675,1.5-1.5,1.5h-21C0.675,24,0,23.325,0,22.5z"/>
	<g id="content">
		<path fill="#FFFFFF" d="M10.015,11.795l-1.811,0.633c-0.039,0.015-0.082,0.021-0.124,0.021c-0.125,0-0.241-0.062-0.311-0.166
			L7.363,11.68c-0.033-0.05-0.05-0.109-0.05-0.167c0-0.166,0.134-0.301,0.299-0.301h2.304c0.166,0,0.301,0.135,0.301,0.301
			C10.217,11.64,10.135,11.754,10.015,11.795L10.015,11.795z"/>
		<path fill="#FFFFFF" d="M16.351,11.812h-2.626v-0.6h2.626c0.165,0,0.299,0.134,0.299,0.3
			C16.65,11.678,16.516,11.812,16.351,11.812L16.351,11.812z"/>
		<path fill="#FFFFFF" d="M16.35,12.787h-0.375c-0.165,0-0.3-0.134-0.3-0.3c0-0.166,0.135-0.3,0.3-0.3h0.375
			c0.165,0,0.299,0.134,0.299,0.3C16.65,12.653,16.516,12.787,16.35,12.787L16.35,12.787z"/>
		<path fill="#FFFFFF" d="M21.05,19.973l-0.645-0.645C20.781,18.751,21,18.064,21,17.325c0-2.03-1.646-3.676-3.675-3.676
			c-0.584,0-1.16,0.139-1.68,0.407l-0.72-1.156h-0.948L3.708,2.631L2.648,3.692l9.208,9.208h-2.78l-0.72,1.156
			c-0.519-0.267-1.096-0.407-1.681-0.407C4.646,13.649,3,15.295,3,17.325C3,19.353,4.646,21,6.675,21
			c1.899,0,3.486-1.447,3.659-3.338h0.782c0.161,0.343,0.505,0.563,0.884,0.563c0.537,0,0.974-0.437,0.974-0.975
			c0-0.219-0.073-0.431-0.209-0.602l1.141-1.696l0.35,0.35c-0.391,0.593-0.607,1.294-0.607,2.023c0,2.028,1.646,3.675,3.674,3.675
			c0.747,0,1.442-0.224,2.023-0.608l0.642,0.642L21.05,19.973z M15.963,14.567c0.424-0.209,0.889-0.318,1.362-0.318
			c1.697,0,3.076,1.377,3.076,3.075c0,0.573-0.157,1.109-0.431,1.568l-3.482-3.482L15.963,14.567z M6.675,20.4
			c-1.697,0-3.074-1.378-3.074-3.075c0-1.698,1.377-3.075,3.074-3.075c0.473,0,0.939,0.109,1.363,0.318l-1.343,2.158
			c-0.005-0.001-0.013-0.001-0.019-0.001c-0.331,0-0.599,0.269-0.599,0.601c0,0.33,0.268,0.6,0.599,0.6
			c0.199,0,0.384-0.098,0.496-0.263h2.561C9.56,19.22,8.243,20.4,6.675,20.4z M7.192,17.062l1.355-2.177
			c0.685,0.526,1.118,1.316,1.192,2.177H7.192z M11.043,17.062h-0.702c-0.077-1.069-0.616-2.051-1.476-2.69l0.404-0.648l1.965,2.923
			C11.138,16.768,11.073,16.911,11.043,17.062z M12.269,16.312c-0.087-0.025-0.177-0.037-0.267-0.037
			c-0.092,0-0.182,0.012-0.269,0.037L9.84,13.5h2.615l1.019,1.019L12.269,16.312z M17.325,20.4c-1.697,0-3.075-1.378-3.075-3.075
			c0-0.567,0.158-1.114,0.443-1.588l4.221,4.221C18.45,20.238,17.906,20.4,17.325,20.4z"/>
		<polygon fill="#EB0000" points="3.708,2.631 2.648,3.692 19.99,21.034 21.05,19.973 3.708,2.631 		"/>
	</g>
</g>
</svg>
