<svg xmlns="http://www.w3.org/2000/svg" width="48" height="48" fill="none" viewBox="0 0 48 48"><path fill="#000" fill-rule="evenodd" d="M22.889 2.337a2 2 0 1 1 1.97 3.47l2.716 3.584 1.978-1.728a1.5 1.5 0 0 1-.524-.87 1.5 1.5 0 1 1 2.375.904l2.042 2.042 2.236-2.982A1.5 1.5 0 1 1 37 6.914v11.072A17.04 17.04 0 0 1 24.001 46H24A17.04 17.04 0 0 1 11 17.986V6.914a1.5 1.5 0 1 1 1.318-.157l2.236 2.982 2.042-2.042a1.498 1.498 0 0 1 .07-2.444 1.5 1.5 0 0 1 1.775 2.415l1.985 1.767 2.719-3.627a2.002 2.002 0 0 1-.256-3.47M12 8v10h24V8l-2.1 2.8-.346.461-.407-.407-2.67-2.67-2.648 2.313-.404.352-.323-.427-3.1-4.091L20.9 10.47l-.326.435-.406-.361-2.648-2.357-2.666 2.667-.408.407-.346-.461zm-.537 11A16.04 16.04 0 0 0 24 45a16.04 16.04 0 0 0 12.537-26H11.463M24 3a1 1 0 1 0 0 2 1 1 0 0 0 0-2M11.222 5.084a.5.5 0 1 1 .556.832.5.5 0 0 1-.556-.832M17.5 6a.5.5 0 1 0 0 1 .5.5 0 0 0 0-1m0 18a1.5 1.5 0 1 0 0 3 1.5 1.5 0 0 0 0-3m-.278 1.084a.5.5 0 1 1 .556.83.5.5 0 0 1-.556-.83m-1.605 9.237a10.29 10.29 0 0 0 15.766 0l-.766-.642a9.29 9.29 0 0 1-14.234 0zm14.05-10.068a1.5 1.5 0 1 1 1.667 2.495 1.5 1.5 0 0 1-1.667-2.495M30.5 25a.5.5 0 1 0 0 1 .5.5 0 0 0 0-1m6-20a.5.5 0 1 0 0 1 .5.5 0 0 0 0-1m-6.278 1.084a.5.5 0 1 1 .556.832.5.5 0 0 1-.556-.832" clip-rule="evenodd"/></svg>