<svg class="color-immutable" width="59" height="20" viewBox="0 0 59 20" fill="none" xmlns="http://www.w3.org/2000/svg"><g clip-path="url(#a)"><path fill-rule="evenodd" clip-rule="evenodd" d="M2 0a2 2 0 0 0-2 2v16a2 2 0 0 0 2 2h55a2 2 0 0 0 2-2V2a2 2 0 0 0-2-2H2Z" fill="#EB0000"/><path d="M9.388 4.2h4.042L8.43 15.8h-4.06L9.389 4.2ZM26.092 12.366a.922.922 0 0 0 .843-.553L30.216 4.2H16.13l-5.001 11.6h4.025l3.786-8.69h5.973l-1.197 2.775-5.209-.019L22.71 15.8h4.582l-3.114-3.434h1.915ZM44.472 7.121h-2.2c-.205-.891-.711-1.337-1.518-1.337-.854 0-1.46.525-1.82 1.574-.147.428-.266 1.074-.355 1.938.348-.469.717-.806 1.107-1.012.396-.206.87-.309 1.424-.309 1.086 0 1.959.385 2.618 1.155.628.728.941 1.64.941 2.737 0 1.303-.421 2.35-1.265 3.14-.76.712-1.672 1.068-2.737 1.068-1.366 0-2.428-.514-3.188-1.542-.76-1.034-1.139-2.473-1.139-4.319 0-1.972.406-3.517 1.218-4.635.786-1.081 1.86-1.622 3.22-1.622 1.281 0 2.262.43 2.942 1.29.39.495.641 1.12.752 1.874Zm-3.916 2.65c-.553 0-.994.232-1.32.696-.296.411-.444.902-.444 1.471 0 .565.15 1.058.451 1.48.327.469.775.704 1.345.704.554 0 1-.224 1.337-.673.316-.422.474-.92.474-1.495 0-.564-.142-1.047-.427-1.447-.348-.49-.82-.736-1.416-.736ZM45.555 12.896h2.184c.179.896.698 1.344 1.558 1.344.485 0 .878-.163 1.178-.49.306-.332.541-.847.704-1.543.106-.443.182-.946.23-1.51-.353.495-.717.849-1.092 1.06-.369.205-.82.308-1.352.308-.85 0-1.588-.248-2.215-.744A3.543 3.543 0 0 1 45.72 9.97a4.446 4.446 0 0 1-.363-1.804c0-1.302.445-2.357 1.337-3.164.764-.696 1.682-1.044 2.752-1.044.66 0 1.268.148 1.828.443a3.962 3.962 0 0 1 1.407 1.258c.67.965 1.005 2.32 1.005 4.066 0 1.613-.295 2.99-.886 4.129-.77 1.482-1.935 2.222-3.496 2.222-1.039 0-1.899-.287-2.579-.862-.675-.575-1.065-1.347-1.17-2.317ZM49.4 5.91c-.496 0-.915.203-1.258.609-.343.411-.514.933-.514 1.566 0 .512.124.965.372 1.36.337.544.812.815 1.423.815.554 0 .997-.221 1.33-.664.31-.417.466-.912.466-1.487 0-.607-.16-1.12-.482-1.543a1.606 1.606 0 0 0-1.337-.656Z" fill="#fff"/></g><defs><clipPath id="a"><path fill="#fff" d="M0 0h59v20H0z"/></clipPath></defs></svg>