<?xml version="1.0" encoding="utf-8"?>
<!-- Generator: Adobe Illustrator 24.2.0, SVG Export Plug-In . SVG Version: 6.00 Build 0)  -->
<svg version="1.0" id="Ebene_1" xmlns="http://www.w3.org/2000/svg" xmlns:xlink="http://www.w3.org/1999/xlink" x="0px" y="0px"
	 viewBox="0 0 24 24" enable-background="new 0 0 24 24" xml:space="preserve">
<g id="SVG_x5F_24x24pt">
	<path id="backgroundBlue" fill="#2D327D" d="M0,22.5v-21C0,0.675,0.675,0,1.5,0h21C23.325,0,24,0.675,24,1.5v21
		c0,0.825-0.675,1.5-1.5,1.5h-21C0.675,24,0,23.325,0,22.5z"/>
	<g id="content">
		<path fill="#FFFFFF" d="M13.796,20.094l-0.414-9.063c-0.021-0.464-0.403-0.83-0.868-0.83h-1.958v-0.54
			c0-1.193-0.967-2.16-2.16-2.16c-1.193,0-2.16,0.967-2.16,2.16v0.54H4.279c-0.465,0-0.848,0.366-0.868,0.83l-0.413,9.063
			c-0.011,0.237,0.076,0.467,0.24,0.639c0.164,0.171,0.39,0.268,0.627,0.268h9.063c0.237,0,0.463-0.097,0.627-0.268
			C13.72,20.562,13.807,20.331,13.796,20.094 M7.452,9.661c0-0.522,0.423-0.945,0.945-0.945c0.522,0,0.945,0.423,0.945,0.945v0.54
			h-1.89V9.661z M4.791,19.246l0.337-7.29h1.109v1.147c0,0.335,0.272,0.607,0.607,0.607c0.336,0,0.608-0.272,0.608-0.607v-1.147
			h1.89v1.147c0,0.335,0.272,0.607,0.607,0.607c0.335,0,0.607-0.272,0.607-0.607v-1.147h1.109l0.337,7.29H4.791z"/>
		<path fill="#FFFFFF" d="M4.961,3.666H4.493c-0.009-0.11-0.05-0.194-0.122-0.251C4.299,3.357,4.197,3.328,4.067,3.328
			c-0.116,0-0.206,0.023-0.27,0.068C3.733,3.442,3.701,3.506,3.701,3.588c0,0.074,0.031,0.127,0.092,0.16
			c0.059,0.033,0.21,0.079,0.452,0.138C4.501,3.95,4.678,4.014,4.776,4.078c0.181,0.119,0.272,0.285,0.272,0.497
			c0,0.233-0.091,0.416-0.274,0.551C4.614,5.244,4.396,5.303,4.121,5.303c-0.306,0-0.543-0.07-0.712-0.209
			C3.24,4.954,3.152,4.755,3.146,4.498h0.489c0.007,0.125,0.039,0.218,0.097,0.278c0.09,0.096,0.226,0.145,0.408,0.145
			c0.123,0,0.22-0.024,0.292-0.072c0.081-0.055,0.122-0.131,0.122-0.226S4.496,4.458,4.382,4.413C4.32,4.389,4.172,4.344,3.939,4.28
			C3.794,4.24,3.68,4.202,3.598,4.166S3.45,4.09,3.401,4.046C3.286,3.943,3.229,3.802,3.229,3.621c0-0.216,0.09-0.388,0.269-0.514
			C3.651,3,3.849,2.946,4.093,2.946c0.214,0,0.394,0.043,0.538,0.128C4.84,3.196,4.949,3.393,4.961,3.666z"/>
		<path fill="#FFFFFF" d="M5.788,3v0.8c0.049-0.088,0.119-0.157,0.21-0.207c0.091-0.05,0.191-0.075,0.301-0.075
			c0.225,0,0.386,0.079,0.483,0.238c0.056,0.092,0.085,0.234,0.085,0.425v1.067H6.422V4.261c0-0.123-0.017-0.208-0.051-0.255
			c-0.05-0.07-0.129-0.105-0.235-0.105c-0.14,0-0.241,0.062-0.301,0.185C5.816,4.124,5.804,4.165,5.797,4.21
			C5.791,4.256,5.788,4.328,5.788,4.427v0.821H5.342V3H5.788z"/>
		<path fill="#FFFFFF" d="M8.015,3.523c0.244,0,0.443,0.081,0.598,0.243c0.153,0.16,0.229,0.373,0.229,0.64
			c0,0.276-0.082,0.496-0.245,0.66C8.445,5.218,8.247,5.295,8.001,5.295c-0.261,0-0.47-0.085-0.624-0.255
			C7.229,4.877,7.156,4.667,7.156,4.409c0-0.254,0.072-0.461,0.215-0.62C7.53,3.612,7.745,3.523,8.015,3.523z M7.992,3.871
			c-0.118,0-0.212,0.048-0.281,0.143C7.64,4.11,7.605,4.242,7.605,4.409c0,0.173,0.035,0.306,0.105,0.398
			c0.072,0.093,0.17,0.14,0.294,0.14c0.116,0,0.208-0.043,0.275-0.128c0.077-0.094,0.115-0.231,0.115-0.411
			c0-0.168-0.034-0.299-0.102-0.392C8.221,3.919,8.121,3.871,7.992,3.871z"/>
		<path fill="#FFFFFF" d="M9.555,3.572v0.212c0.122-0.175,0.292-0.263,0.509-0.263c0.216,0,0.391,0.083,0.524,0.249
			c0.133,0.164,0.2,0.38,0.2,0.649c0,0.251-0.059,0.456-0.177,0.614c-0.131,0.177-0.309,0.266-0.532,0.266
			c-0.215,0-0.383-0.087-0.503-0.26v0.817H9.13V3.572H9.555z M9.944,3.904c-0.117,0-0.21,0.045-0.28,0.135
			C9.594,4.129,9.56,4.255,9.56,4.417c0,0.167,0.036,0.296,0.109,0.386c0.07,0.087,0.165,0.131,0.286,0.131
			c0.119,0,0.212-0.043,0.278-0.129c0.071-0.092,0.106-0.218,0.106-0.377c0-0.167-0.036-0.297-0.108-0.391
			C10.165,3.948,10.069,3.904,9.944,3.904z"/>
		<path fill="#FFFFFF" d="M11.479,3.572v0.212c0.122-0.175,0.292-0.263,0.509-0.263c0.216,0,0.391,0.083,0.524,0.249
			c0.133,0.164,0.2,0.38,0.2,0.649c0,0.251-0.059,0.456-0.177,0.614c-0.131,0.177-0.309,0.266-0.532,0.266
			c-0.215,0-0.383-0.087-0.503-0.26v0.817h-0.446V3.572H11.479z M11.868,3.904c-0.117,0-0.21,0.045-0.28,0.135
			c-0.07,0.089-0.105,0.215-0.105,0.377c0,0.167,0.036,0.296,0.109,0.386c0.07,0.087,0.165,0.131,0.286,0.131
			c0.119,0,0.212-0.043,0.278-0.129c0.071-0.092,0.106-0.218,0.106-0.377c0-0.167-0.036-0.297-0.108-0.391
			C12.089,3.948,11.993,3.904,11.868,3.904z"/>
		<path fill="#FFFFFF" d="M13.439,3v0.401h-0.446V3H13.439z M13.439,3.572v1.677h-0.446V3.572H13.439z"/>
		<path fill="#FFFFFF" d="M14.218,3.574v0.235c0.052-0.072,0.101-0.125,0.146-0.158c0.111-0.086,0.244-0.129,0.4-0.129
			c0.137,0,0.254,0.035,0.349,0.105c0.076,0.055,0.129,0.125,0.159,0.21c0.03,0.085,0.045,0.204,0.045,0.358v1.055h-0.445V4.287
			c0-0.108-0.009-0.187-0.028-0.237c-0.017-0.044-0.047-0.079-0.089-0.105c-0.048-0.028-0.103-0.042-0.165-0.042
			c-0.068,0-0.129,0.016-0.185,0.049c-0.055,0.033-0.096,0.077-0.123,0.134c-0.03,0.064-0.045,0.163-0.045,0.297v0.864h-0.446V3.574
			H14.218z"/>
		<path fill="#FFFFFF" d="M17.235,3.569v1.48c0,0.131-0.008,0.236-0.025,0.315c-0.016,0.079-0.045,0.15-0.085,0.215
			c-0.129,0.205-0.361,0.308-0.695,0.308c-0.466,0-0.72-0.176-0.764-0.528h0.449c0.031,0.14,0.139,0.211,0.325,0.211
			c0.142,0,0.24-0.04,0.297-0.12c0.044-0.064,0.066-0.166,0.066-0.308l0.002-0.208c-0.115,0.176-0.281,0.265-0.498,0.265
			c-0.21,0-0.378-0.074-0.503-0.221c-0.127-0.15-0.191-0.352-0.191-0.606c0-0.254,0.064-0.458,0.191-0.612
			c0.132-0.159,0.306-0.238,0.521-0.238c0.112,0,0.205,0.021,0.28,0.063c0.075,0.042,0.144,0.112,0.206,0.211V3.569H17.235z
			 M16.424,3.886c-0.125,0-0.22,0.052-0.285,0.157c-0.052,0.084-0.078,0.191-0.078,0.32c0,0.164,0.038,0.289,0.114,0.374
			c0.066,0.076,0.151,0.114,0.257,0.114c0.133,0,0.233-0.056,0.3-0.168c0.051-0.086,0.077-0.195,0.077-0.326
			c0-0.158-0.039-0.28-0.118-0.366C16.626,3.921,16.537,3.886,16.424,3.886z"/>
	</g>
</g>
</svg>
