<svg xmlns="http://www.w3.org/2000/svg" width="30" height="16" fill="none" viewBox="0 0 30 16"><path fill="#000" fill-rule="evenodd" d="M24.413 12.33v.115q0 1.056-.797 1.806-.8.75-1.926.749-1.108-.001-1.896-.74-.788-.741-.788-1.776v-.154h-1.964v.115q.002 1.056-.802 1.806-.805.75-1.94.749-1.117-.001-1.91-.74-.794-.74-.793-1.774v-.156H9.633v.115q0 1.056-.796 1.806Q8.038 15 6.91 15a2.7 2.7 0 0 1-1.886-.73q-.797-.73-.797-1.784l-.02-.156H1V9.013h5.055V5.422H1.017V3.027H9.66v3.42H20.05V1h2.598v5.448h4.097l1.964 5.882z" clip-rule="evenodd"/></svg>