<svg xmlns="http://www.w3.org/2000/svg" width="36" height="36" fill="none" viewBox="0 0 36 36"><path fill="#000" fill-rule="evenodd" d="M8.252 4.25c-.553 0-1.002.449-1.002 1.002v4.5c0 .551.447.998.998.998h4.002v-6.5zm4.998 0v6.5h9.5v-6.5zm10.5 0v6.5h4a1 1 0 0 0 1-1v-4.5a1 1 0 0 0-1-1zM6.25 5.252c0-1.106.896-2.002 2.002-2.002H27.75a2 2 0 0 1 2 2v4.5a2 2 0 0 1-2 2h-1v11h.376c.683.011 1.697.223 2.554.839.881.633 1.57 1.677 1.57 3.261v4.5c0 .373-.15.73-.414.992a1.4 1.4 0 0 1-.994.408H6.158c-.372 0-.73-.146-.994-.408a1.4 1.4 0 0 1-.414-.992v-4.5c0-1.089.436-2.132 1.212-2.9a4.15 4.15 0 0 1 2.92-1.2h.368v-11H8.248A2 2 0 0 1 6.25 9.752zm4 6.498v3.06a10.5 10.5 0 0 0 3.431 2.504c1.205.548 2.501.86 3.819.924V16.5h1v1.738a10.4 10.4 0 0 0 3.819-.924 10.5 10.5 0 0 0 3.431-2.504v-3.06zm15.5 4.476a11.438 11.438 0 0 1-7.25 3.013V21h-1v-1.76a11.4 11.4 0 0 1-4.233-1.016 11.5 11.5 0 0 1-3.017-1.998V31.75h15.5zm1 15.524h3.092c.11 0 .214-.043.29-.119a.4.4 0 0 0 .118-.281v-4.5c0-1.249-.522-1.996-1.154-2.45-.654-.47-1.455-.64-1.982-.65h-.364zm-17.5 0v-8h-.368c-.832 0-1.63.328-2.216.91a3.08 3.08 0 0 0-.916 2.19v4.5c0 .105.042.206.118.281s.18.119.29.119z" clip-rule="evenodd"/></svg>