<?xml version="1.0" encoding="utf-8"?>
<!-- Generator: Adobe Illustrator 29.0.0, SVG Export Plug-In . SVG Version: 9.03 Build 54978)  -->
<svg version="1.0" id="Ebene_1" xmlns="http://www.w3.org/2000/svg" xmlns:xlink="http://www.w3.org/1999/xlink" x="0px" y="0px"
	 viewBox="0 0 24 24" enable-background="new 0 0 24 24" xml:space="preserve">
<g id="SVG_x5F_24x24pt">
	<path id="backgroundBlue" fill="#2D327D" d="M0,22.5v-21C0,0.675,0.675,0,1.5,0h21C23.325,0,24,0.675,24,1.5v21
		c0,0.825-0.675,1.5-1.5,1.5h-21C0.675,24,0,23.325,0,22.5z"/>
	<g id="content">
		<g>
			<path fill="#FFFFFF" d="M17.701,7.51v13.492h-2.962L9.091,11.81l0.037,9.192H6.294V7.51h2.999l5.611,9.173L14.868,7.51H17.701z"
				/>
		</g>
		<g id="Sektor">
			<path fill="#FFFFFF" d="M4.812,3.666H4.344c-0.009-0.11-0.05-0.194-0.122-0.251S4.049,3.328,3.918,3.328
				c-0.116,0-0.206,0.023-0.27,0.068C3.584,3.442,3.552,3.506,3.552,3.588c0,0.074,0.031,0.127,0.092,0.16
				c0.059,0.033,0.21,0.079,0.452,0.138c0.255,0.064,0.432,0.128,0.531,0.192C4.809,4.197,4.9,4.363,4.9,4.575
				c0,0.233-0.091,0.416-0.274,0.551C4.465,5.244,4.247,5.303,3.972,5.303c-0.306,0-0.543-0.07-0.712-0.209
				C3.091,4.954,3.003,4.755,2.997,4.498h0.489c0.007,0.125,0.039,0.218,0.097,0.278c0.09,0.096,0.226,0.145,0.408,0.145
				c0.123,0,0.22-0.024,0.292-0.072c0.081-0.055,0.122-0.131,0.122-0.226S4.348,4.458,4.234,4.413
				C4.171,4.389,4.023,4.344,3.791,4.28C3.645,4.24,3.531,4.202,3.449,4.166S3.302,4.09,3.252,4.046
				C3.138,3.943,3.08,3.802,3.08,3.621c0-0.216,0.09-0.388,0.269-0.514C3.502,3,3.701,2.946,3.945,2.946
				c0.214,0,0.394,0.043,0.538,0.128C4.691,3.196,4.801,3.393,4.812,3.666z"/>
			<path fill="#FFFFFF" d="M6.696,4.726C6.673,4.82,6.63,4.909,6.569,4.992c-0.148,0.202-0.36,0.303-0.637,0.303
				c-0.25,0-0.451-0.079-0.601-0.237C5.257,4.981,5.2,4.888,5.161,4.78C5.119,4.664,5.098,4.543,5.098,4.417
				c0-0.244,0.07-0.449,0.211-0.615c0.157-0.186,0.36-0.278,0.609-0.278c0.201,0,0.372,0.062,0.514,0.186
				c0.102,0.089,0.175,0.199,0.221,0.33s0.069,0.295,0.069,0.493h-1.17c0.004,0.082,0.017,0.15,0.038,0.205
				c0.06,0.147,0.175,0.22,0.345,0.22c0.083,0,0.151-0.018,0.203-0.055C6.19,4.865,6.233,4.807,6.267,4.726H6.696z M6.267,4.232
				C6.259,4.151,6.24,4.084,6.212,4.031C6.183,3.978,6.142,3.937,6.089,3.906C6.037,3.875,5.979,3.86,5.916,3.86
				c-0.099,0-0.181,0.033-0.246,0.1C5.606,4.026,5.567,4.117,5.555,4.232H6.267z"/>
			<path fill="#FFFFFF" d="M8.573,3.569l-0.614,0.62l0.684,1.06H8.102L7.653,4.506L7.47,4.68v0.569H7.024V3H7.47v1.167l0.572-0.598
				H8.573z"/>
			<path fill="#FFFFFF" d="M9.763,3.566v0.315H9.429V4.67c0,0.094,0.009,0.154,0.026,0.18c0.026,0.037,0.083,0.055,0.172,0.055
				c0.035,0,0.08-0.003,0.135-0.008v0.357c-0.1,0.011-0.193,0.017-0.277,0.017c-0.127,0-0.224-0.014-0.291-0.043
				c-0.104-0.046-0.168-0.13-0.194-0.252C8.99,4.924,8.985,4.816,8.985,4.652V3.881H8.713V3.566h0.272V3.172h0.445v0.394H9.763z"/>
			<path fill="#FFFFFF" d="M10.769,3.523c0.244,0,0.443,0.081,0.598,0.243c0.153,0.16,0.229,0.373,0.229,0.64
				c0,0.276-0.082,0.496-0.245,0.66C11.199,5.218,11,5.295,10.755,5.295c-0.261,0-0.47-0.085-0.624-0.255
				C9.983,4.877,9.909,4.667,9.909,4.409c0-0.254,0.072-0.461,0.215-0.62C10.284,3.612,10.498,3.523,10.769,3.523z M10.746,3.871
				c-0.118,0-0.212,0.048-0.281,0.143c-0.071,0.096-0.106,0.228-0.106,0.395c0,0.173,0.035,0.306,0.105,0.398
				c0.072,0.093,0.17,0.14,0.294,0.14c0.116,0,0.208-0.043,0.275-0.128c0.077-0.094,0.115-0.231,0.115-0.411
				c0-0.168-0.034-0.299-0.102-0.392C10.975,3.919,10.875,3.871,10.746,3.871z"/>
			<path fill="#FFFFFF" d="M12.935,3.541v0.432c-0.072-0.013-0.13-0.02-0.174-0.02c-0.166,0-0.288,0.07-0.366,0.209
				c-0.044,0.078-0.066,0.208-0.066,0.391v0.695h-0.446v-1.68h0.425v0.306c0.121-0.228,0.297-0.341,0.528-0.341
				C12.863,3.534,12.897,3.536,12.935,3.541z"/>
		</g>
	</g>
</g>
</svg>
