<?xml version="1.0" encoding="utf-8"?>
<!-- Generator: Adobe Illustrator 24.2.0, SVG Export Plug-In . SVG Version: 6.00 Build 0)  -->
<svg version="1.0" id="Ebene_1" xmlns="http://www.w3.org/2000/svg" xmlns:xlink="http://www.w3.org/1999/xlink" x="0px" y="0px"
	 viewBox="0 0 24 24" enable-background="new 0 0 24 24" xml:space="preserve">
<g id="SVG_x5F_24x24pt">
	<path id="backgroundBlue" fill="#2D327D" d="M0,22.5v-21C0,0.675,0.675,0,1.5,0h21C23.325,0,24,0.675,24,1.5v21
		c0,0.825-0.675,1.5-1.5,1.5h-21C0.675,24,0,23.325,0,22.5z"/>
	<g id="content">
		<path fill="#FFFFFF" d="M17.753,5.627c0.725,0,1.312-0.588,1.312-1.313c0-0.725-0.588-1.313-1.312-1.313
			c-0.725,0-1.312,0.588-1.312,1.313C16.441,5.039,17.029,5.627,17.753,5.627L17.753,5.627z"/>
		<polygon fill="#FFFFFF" points="3,21 17.325,21 17.325,20.337 3,18 3,21 		"/>
		<path fill="#FFFFFF" d="M19.05,16.21V8.513l0.824,1.05v2.813c0,0.269,0.219,0.488,0.488,0.488c0.269,0,0.488-0.218,0.488-0.488
			V9.181c0-0.168-0.056-0.331-0.16-0.463L19.104,6.7c-0.284-0.362-0.719-0.573-1.179-0.573c-0.828,0-1.5,0.672-1.5,1.5v5.046
			l-1.542,1.543c-0.141,0.14-0.22,0.331-0.22,0.53v3.91c0,0.383,0.311,0.694,0.693,0.694c0.383,0,0.693-0.311,0.693-0.694v-3.434
			l1.5-1.5v2.502c0,0.148,0.044,0.293,0.126,0.416l2.376,3.676c0.128,0.198,0.347,0.317,0.583,0.317
			c0.383,0,0.693-0.311,0.693-0.694c0-0.133-0.039-0.264-0.111-0.376L19.05,16.21L19.05,16.21z"/>
		<path fill="#FFFFFF" d="M14.719,11.545c0.059,0,0.117-0.01,0.172-0.03l0.897-0.325v-1.077l-1.241,0.449
			c-0.2,0.072-0.334,0.263-0.334,0.476C14.212,11.318,14.439,11.545,14.719,11.545L14.719,11.545z"/>
	</g>
</g>
</svg>
