<?xml version="1.0" encoding="utf-8"?>
<!-- Generator: Adobe Illustrator 24.2.0, SVG Export Plug-In . SVG Version: 6.00 Build 0)  -->
<svg version="1.0" id="Ebene_1" xmlns="http://www.w3.org/2000/svg" xmlns:xlink="http://www.w3.org/1999/xlink" x="0px" y="0px"
	 viewBox="0 0 24 24" enable-background="new 0 0 24 24" xml:space="preserve">
<g id="SVG_x5F_24x24pt">
	<path id="backgroundBlue" fill="#2D327D" d="M0,22.5v-21C0,0.675,0.675,0,1.5,0h21C23.325,0,24,0.675,24,1.5v21
		c0,0.825-0.675,1.5-1.5,1.5h-21C0.675,24,0,23.325,0,22.5z"/>
	<g id="content">
		<path fill="#FFFFFF" d="M9.612,18.811c0,1.314,1.065,2.379,2.379,2.379c1.314,0,2.379-1.065,2.379-2.379v-2.379H9.612V18.811
			L9.612,18.811z"/>
		<path fill="#FFFFFF" d="M21.192,20.131l-6.661-6.661l0.719-2.979c0.073-0.303,0.077-0.62,0.01-0.924l-1.218-5.612
			c-0.145-0.666-0.734-1.141-1.415-1.141h-1.272c-0.682,0-1.271,0.475-1.415,1.141L9.063,8.001L3.851,2.789L2.79,3.85l5.915,5.915
			c-0.033,0.362,0.009,0.729,0.227,1.14c0.324,0.611,1.023,1.927,1.023,1.927l3.027,1.211l7.149,7.149L21.192,20.131z"/>
		<polygon fill="#EB0000" points="3.851,2.789 2.79,3.85 20.132,21.192 21.192,20.131 3.851,2.789 		"/>
	</g>
</g>
</svg>
