<?xml version="1.0" encoding="utf-8"?>
<!-- Generator: Adobe Illustrator 24.2.0, SVG Export Plug-In . SVG Version: 6.00 Build 0)  -->
<svg version="1.0" id="Ebene_1" xmlns="http://www.w3.org/2000/svg" xmlns:xlink="http://www.w3.org/1999/xlink" x="0px" y="0px"
	 viewBox="0 0 24 24" enable-background="new 0 0 24 24" xml:space="preserve">
<g id="SVG_x5F_24x24pt">
	<path id="backgroundBlue" fill="#2D327D" d="M0,22.5v-21C0,0.675,0.675,0,1.5,0h21C23.325,0,24,0.675,24,1.5v21
		c0,0.825-0.675,1.5-1.5,1.5h-21C0.675,24,0,23.325,0,22.5z"/>
	<g id="content">
		<path fill="#FFFFFF" d="M5.25,18.534c0-0.776-0.63-1.406-1.406-1.406c-0.304,0-0.6,0.099-0.844,0.281v2.25
			c0.243,0.183,0.54,0.281,0.844,0.281C4.62,19.94,5.25,19.31,5.25,18.534L5.25,18.534z"/>
		<path fill="#FFFFFF" d="M20.671,10.136L20.671,10.136l-2.251-2.25c-0.211-0.211-0.497-0.33-0.796-0.33h-6.484
			c-0.298,0-0.584,0.119-0.795,0.33l0,0L7.732,10.5l-4.388,0.364C3.149,10.88,3,11.042,3,11.237v2.338
			c0,0.207,0.168,0.375,0.375,0.375h0.412v-0.431c0-1.242,1.008-2.25,2.25-2.25c1.242,0,2.25,1.008,2.25,2.25l0,0v0.431h7.462
			v-0.431c0-1.242,1.008-2.25,2.25-2.25c1.242,0,2.25,1.008,2.25,2.25v0.431h0.375c0.207,0,0.375-0.168,0.375-0.375v-2.643
			C21,10.633,20.882,10.347,20.671,10.136L20.671,10.136z M13.913,10.182c-0.001,0.207-0.168,0.374-0.375,0.374H9.278
			c-0.124,0-0.225-0.101-0.225-0.225c0-0.06,0.023-0.117,0.066-0.159l1.793-1.794l0,0c0.07-0.07,0.166-0.11,0.265-0.11h2.36
			c0.207,0,0.375,0.168,0.375,0.375V10.182L13.913,10.182z M19.487,10.556h-4.485c-0.207,0-0.375-0.168-0.375-0.375V8.644
			c0-0.207,0.168-0.375,0.375-0.375h2.585c0.099,0,0.195,0.04,0.265,0.11l1.793,1.794c0.042,0.042,0.066,0.099,0.066,0.159
			C19.712,10.456,19.611,10.556,19.487,10.556L19.487,10.556z"/>
		<polygon fill="#FFFFFF" points="3,15.6 21,15.6 21,16.763 3,16.763 3,15.6 		"/>
		<polygon fill="#FFFFFF" points="3,20.288 21,20.288 21,21 3,21 3,20.288 		"/>
		<path fill="#FFFFFF" d="M8.811,18.528c0-0.776-0.63-1.406-1.406-1.406c-0.776,0-1.406,0.63-1.406,1.406
			c0,0.776,0.63,1.406,1.406,1.406C8.181,19.935,8.811,19.305,8.811,18.528L8.811,18.528z"/>
		<path fill="#FFFFFF" d="M16.081,18.528c0-0.776-0.63-1.406-1.406-1.406c-0.776,0-1.406,0.63-1.406,1.406
			c0,0.776,0.63,1.406,1.406,1.406C15.451,19.935,16.081,19.305,16.081,18.528L16.081,18.528z"/>
		<path fill="#FFFFFF" d="M19.688,18.528c0-0.776-0.63-1.406-1.406-1.406c-0.776,0-1.406,0.63-1.406,1.406
			c0,0.776,0.63,1.406,1.406,1.406C19.058,19.935,19.688,19.305,19.688,18.528L19.688,18.528z"/>
		<path fill="#FFFFFF" d="M19.706,13.511c0-0.942-0.765-1.706-1.706-1.706c-0.942,0-1.706,0.764-1.706,1.706
			c0,0.942,0.764,1.706,1.706,1.706C18.942,15.217,19.706,14.452,19.706,13.511L19.706,13.511z M17.063,13.511
			c0-0.518,0.42-0.938,0.938-0.938c0.517,0,0.937,0.42,0.937,0.938c0,0.517-0.42,0.937-0.937,0.937
			C17.483,14.448,17.063,14.028,17.063,13.511L17.063,13.511z"/>
		<path fill="#FFFFFF" d="M7.758,13.511c0-0.942-0.765-1.706-1.706-1.706c-0.942,0-1.706,0.764-1.706,1.706
			c0,0.942,0.764,1.706,1.706,1.706C6.994,15.217,7.758,14.452,7.758,13.511L7.758,13.511z M5.115,13.511
			c0-0.518,0.42-0.938,0.937-0.938c0.518,0,0.937,0.42,0.937,0.938c0,0.517-0.42,0.937-0.937,0.937
			C5.534,14.448,5.115,14.028,5.115,13.511L5.115,13.511z"/>
	</g>
</g>
</svg>
