<svg xmlns="http://www.w3.org/2000/svg" width="36" height="36" fill="none" viewBox="0 0 36 36"><path fill="#000" d="M14.096 16.088h-1.869q-.056-.659-.488-1.005-.433-.347-1.214-.347-.694 0-1.08.273a.89.89 0 0 0-.383.765q0 .444.369.64.355.196 1.807.553 1.53.38 2.121.769 1.088.713 1.087 1.985 0 1.396-1.094 2.2-.964.708-2.612.708-1.832 0-2.846-.836-1.015-.835-1.052-2.38h1.956q.042.75.387 1.113.54.578 1.628.578.739 0 1.17-.288a1.04 1.04 0 0 0 .484-.904q0-.572-.682-.837-.375-.147-1.77-.534a10.4 10.4 0 0 1-1.365-.455 3 3 0 0 1-.787-.48q-.689-.615-.688-1.696-.001-1.298 1.075-2.054.915-.645 2.379-.645 1.286 0 2.152.51 1.248.732 1.315 2.367M19.96 13.426l-4.162 11.299h-1.634l4.18-11.3zM28.575 13.426v8.987h-1.973l-3.764-6.123.025 6.123h-1.886v-8.987h1.998l3.736 6.11-.023-6.11z"/><path stroke="#000" stroke-miterlimit="10" d="M18 32.25c7.87 0 14.25-6.38 14.25-14.25S25.87 3.75 18 3.75 3.75 10.13 3.75 18 10.13 32.25 18 32.25Z"/></svg>