<svg xmlns="http://www.w3.org/2000/svg" width="36" height="36" fill="none" viewBox="0 0 36 36"><path fill="#000" fill-rule="evenodd" d="M24.75 7.75h-.5v16.5h-3v1.5h-2v-1.5H3v1h15.25v2H3v1h9.25v.25a2.75 2.75 0 1 0 5.5 0v-.25h1.5v-1.5h2v1.5h1.5v.25a2.75 2.75 0 1 0 5.5 0v-.25H33v-1H22.25v-2H33v-1h-7.75V8.75H33v-1zm-1 20.75v-.25h3.5v.25a1.75 1.75 0 1 1-3.5 0m-10.5 0v-.25h3.5v.25a1.75 1.75 0 1 1-3.5 0M3.006 8.75h3.25v12.5h-3.25v1H9.55a2.75 2.75 0 0 0 4.9 0h3.3v-.5h-.5.5v-6.058l-.013-.056c-.317-1.356-1.02-2.903-1.695-4.101-.34-.602-.68-1.13-.974-1.514a4 4 0 0 0-.422-.484 1.4 1.4 0 0 0-.225-.175.7.7 0 0 0-.368-.112H7.256v-1.5h-4.25zM9.25 21q0 .127.011.25H7.256v-11h3.494v6h6v5h-2.011q.01-.123.011-.25A2.754 2.754 0 0 0 12 18.25 2.754 2.754 0 0 0 9.25 21m7.346-5.75c-.332-1.08-.88-2.256-1.425-3.224a13 13 0 0 0-.897-1.399 3 3 0 0 0-.33-.377H11.75v5zm-4.596 4A1.75 1.75 0 1 0 13.75 21c0-.962-.785-1.75-1.75-1.75" clip-rule="evenodd"/></svg>