<svg xmlns="http://www.w3.org/2000/svg" width="36" height="36" fill="none" viewBox="0 0 36 36"><path fill="#000" d="M33 8.75h-7.75v15.5H33v1H22.25v2H33v1h-4.75v.25a2.75 2.75 0 1 1-5.5 0v-.25h-1.5v-1.5h-2v1.5h-1.5v.25a2.75 2.75 0 1 1-5.5 0v-.25H3v-1h15.25v-2H3v-1h16.25v1.5h2v-1.5h3V7.75H33zM13.25 28.5a1.75 1.75 0 1 0 3.5 0v-.25h-3.5zm10.5 0a1.75 1.75 0 1 0 3.5 0v-.25h-3.5zM7.256 9.25h6.797c.165 0 .296.068.368.112.082.05.158.113.225.175.133.125.277.293.422.483.294.385.635.914.974 1.515.676 1.199 1.379 2.745 1.695 4.102l.013.055v6.558h-3.303c-.455.89-1.38 1.5-2.447 1.5a2.75 2.75 0 0 1-2.447-1.5H3.006v-1h3.25V8.75h-3.25v-1h4.25zm4.744 10A1.75 1.75 0 1 0 13.75 21c0-.962-.785-1.75-1.75-1.75m-4.744 2h2.007a2.754 2.754 0 0 1 2.737-3 2.754 2.754 0 0 1 2.737 3h2.013v-5h-6v-6H7.256zm4.494-6h4.843c-.332-1.079-.877-2.256-1.422-3.224a13 13 0 0 0-.898-1.399 3 3 0 0 0-.311-.36l-.02-.017H11.75z"/></svg>