<svg class="color-immutable" xmlns="http://www.w3.org/2000/svg" width="59" height="20" fill="none" viewBox="0 0 59 20"><path fill="#EB0000" fill-rule="evenodd" d="M2 0a2 2 0 0 0-2 2v16a2 2 0 0 0 2 2h55a2 2 0 0 0 2-2V2a2 2 0 0 0-2-2z" clip-rule="evenodd"/><path fill="#fff" d="M44.665 13.743V15.8h-8.301a5.3 5.3 0 0 1 .303-1.796 4.4 4.4 0 0 1 .856-1.47q.459-.507.997-.926.572-.451 2.274-1.654c.448-.285.84-.65 1.16-1.075.223-.343.338-.746.33-1.155.02-.453-.14-.896-.445-1.23a1.54 1.54 0 0 0-1.17-.471q-1.781 0-1.838 2.57h-2.215v-.252q0-2.105 1.175-3.26 1.143-1.122 2.956-1.122a4 4 0 0 1 2.688.917q1.175.997 1.175 2.682a3.7 3.7 0 0 1-.938 2.53q-.262.306-.576.558-.268.21-1.41 1.009-1.089.76-1.558 1.163a6.2 6.2 0 0 0-.87.925zM53.36 4.235v1.962q-.094.103-.56.64c-.488.58-.918 1.207-1.284 1.872a13 13 0 0 0-.993 2.163 18.2 18.2 0 0 0-.907 4.928h-2.38c.032-.98.184-1.952.452-2.895a19 19 0 0 1 1.187-3.18q1.08-2.247 2.191-3.346h-5.439V4.235zM9.22 4.2h4.056L8.258 15.8H4.185zM25.98 12.366a.93.93 0 0 0 .847-.553L30.119 4.2H15.984l-5.018 11.6h4.038l3.8-8.69h5.993l-1.201 2.775-5.226-.019 4.217 5.934h4.597l-3.124-3.434z"/></svg>