<svg class="color-immutable" xmlns="http://www.w3.org/2000/svg" width="59" height="20" fill="none" viewBox="0 0 59 20"><path fill="#000" d="M1.792 0h55.416C58.197 0 59 .806 59 1.8v16.4c0 .994-.801 1.8-1.792 1.8H1.792A1.797 1.797 0 0 1 0 18.2V1.8C0 .806.803 0 1.792 0"/><path fill="#FFDE15" d="M12.8 7.661h-2.405q-.07-.846-.633-1.289-.553-.45-1.558-.45-.894 0-1.392.355-.49.349-.49.981 0 .57.474.823.459.252 2.326.712 1.97.49 2.729.988 1.4.918 1.4 2.555 0 1.796-1.408 2.832-1.242.91-3.362.91-2.357 0-3.662-1.076t-1.353-3.061h2.515q.055.964.499 1.432.696.743 2.096.743.95 0 1.503-.372.624-.427.625-1.162 0-.736-.878-1.076-.483-.19-2.278-.688-1.125-.309-1.756-.586-.633-.276-1.013-.617-.886-.79-.886-2.183 0-1.669 1.384-2.642 1.18-.83 3.062-.83 1.653 0 2.768.656 1.606.942 1.693 3.045M24.515 4.236v11.565h-2.54l-4.84-7.879.031 7.879h-2.428V4.236h2.57l4.81 7.863-.031-7.863zM27.98 9.592q-.807-.277-1.242-.91-.427-.633-.427-1.535 0-1.502 1.233-2.397 1.092-.79 2.595-.79 1.71 0 2.792.94 1.029.887 1.029 2.192 0 .91-.435 1.558-.435.649-1.234.941.624.182 1.02.467 1.1.799 1.1 2.334 0 1.764-1.353 2.808-1.14.878-2.927.878-1.938 0-3.085-.965-1.194-1.005-1.194-2.634 0-1.527 1.06-2.365a2.9 2.9 0 0 1 1.068-.523m2.127-3.837q-.76 0-1.226.427-.466.42-.466 1.108 0 .72.466 1.155.476.427 1.266.427t1.25-.427q.459-.428.459-1.163 0-.72-.467-1.123-.459-.404-1.282-.404m-.015 4.707q-.855 0-1.4.53-.539.522-.538 1.344 0 .847.545 1.377.555.53 1.432.53.997 0 1.495-.586.483-.56.483-1.297 0-.839-.554-1.376-.53-.522-1.463-.522M39.204 3.96q1.32 0 2.326.806.997.807 1.447 2.484.34 1.282.34 2.784 0 2.492-.886 4.098-.522.933-1.368 1.44a3.56 3.56 0 0 1-1.875.506q-1.416 0-2.42-.854-1.788-1.52-1.788-5.19 0-2.61.934-4.192a3.77 3.77 0 0 1 1.384-1.392 3.8 3.8 0 0 1 1.906-.49m-.087 1.953q-1.14 0-1.55 1.313-.325 1.044-.325 2.927 0 1.662.333 2.666.426 1.305 1.582 1.305.956 0 1.424-1.013.465-1.012.466-3.092 0-1.772-.332-2.793-.428-1.313-1.598-1.313"/></svg>