<?xml version="1.0" encoding="utf-8"?>
<!-- Generator: Adobe Illustrator 24.2.0, SVG Export Plug-In . SVG Version: 6.00 Build 0)  -->
<svg version="1.0" id="Ebene_1" xmlns="http://www.w3.org/2000/svg" xmlns:xlink="http://www.w3.org/1999/xlink" x="0px" y="0px"
	 viewBox="0 0 24 24" enable-background="new 0 0 24 24" xml:space="preserve">
<g id="SVG_x5F_24x24pt">
	<path id="backgroundBlue" fill="#2D327D" d="M0,22.5v-21C0,0.675,0.675,0,1.5,0h21C23.325,0,24,0.675,24,1.5v21
		c0,0.825-0.675,1.5-1.5,1.5h-21C0.675,24,0,23.325,0,22.5z"/>
	<g id="content">
		<path fill="#FFFFFF" d="M10.42,4.186c-0.065-0.065-0.102-0.153-0.102-0.245c0-0.192,0.155-0.347,0.347-0.347
			c0.092,0,0.18,0.036,0.245,0.102l3.881,3.881h3.086c0.552,0,1.04,0.361,1.202,0.89l1.894,6.203C20.991,14.726,21,14.785,21,14.844
			v2.706c0,0.207-0.168,0.375-0.375,0.375H3.001v-4.425h3.637c0.207,0,0.375-0.168,0.375-0.375v-4.5
			c0-0.207-0.168-0.375-0.375-0.375H3.001V7.576h10.81L10.42,4.186L10.42,4.186z M17.25,14.626c0,0.207,0.168,0.375,0.375,0.375
			h2.218c0.207,0,0.375-0.168,0.375-0.375c0-0.037-0.006-0.074-0.016-0.109l-1.814-5.942l0,0c-0.072-0.237-0.291-0.398-0.538-0.398
			h-0.037c-0.311,0-0.562,0.252-0.562,0.562V14.626L17.25,14.626z M15.432,14.513c0,0.31,0.252,0.562,0.562,0.562
			c0.311,0,0.563-0.252,0.563-0.562V8.739c0-0.311-0.252-0.562-0.563-0.562c-0.31,0-0.562,0.252-0.562,0.562V14.513L15.432,14.513z
			 M12.938,8.626c0-0.207-0.168-0.375-0.375-0.375h-4.5c-0.207,0-0.375,0.168-0.375,0.375v4.5c0,0.207,0.168,0.375,0.375,0.375h4.5
			c0.207,0,0.375-0.168,0.375-0.375V8.626L12.938,8.626z M13.613,8.739v5.774c0,0.31,0.252,0.562,0.562,0.562
			c0.311,0,0.562-0.252,0.562-0.562V8.739c0-0.311-0.252-0.562-0.562-0.562C13.865,8.176,13.613,8.428,13.613,8.739L13.613,8.739z"
			/>
		<path fill="#FFFFFF" d="M12.349,18.675h3.779c-0.311,0.77-1.059,1.275-1.89,1.275C13.408,19.95,12.66,19.446,12.349,18.675
			L12.349,18.675z"/>
		<path fill="#FFFFFF" d="M7.849,18.675L7.849,18.675h3.78c-0.311,0.77-1.059,1.275-1.89,1.275
			C8.908,19.95,8.16,19.446,7.849,18.675L7.849,18.675z"/>
		<polygon fill="#FFFFFF" points="21,20.325 3,20.325 3,21 21,21 21,20.325 		"/>
		<polygon fill="#FFFFFF" points="21,3 3,3 3,3.375 21,3.375 21,3 		"/>
	</g>
</g>
</svg>
