<svg xmlns="http://www.w3.org/2000/svg" width="24" height="24" viewBox="0 0 24 24">
  <path fill="none" stroke="#000" d="M21.5,6.5002 L21.5,9.5002 C21.5,13.5002 5.5,13.5002 5.5,9.5002 L5.5,6.5002 M5.5,6.5002 C5.5,2.5002 21.5,2.5882 21.5,6.5002 C21.5,10.4122 5.5,10.5002 5.5,6.5002 Z M18.5,9.5002 L18.5,11.9012 L18.5,9.5002 L18.5,8.8642 L18.5,9.5002 Z M13.5,10.5002 L13.5,12.5002 L13.5,10.5002 L13.5,9.4672 L13.5,10.5002 Z M8.5,10.5002 L8.5,11.9022 L8.5,10.5002 L8.5,8.8872 L8.5,10.5002 Z M18.5,11.9016 L18.5,13.4996 C18.5,17.4996 2.5,17.4996 2.5,13.4996 L2.5,10.5006 M17.2168,12.1926 C13.4188,14.3186 2.4998,13.8046 2.4998,10.5006 C2.4998,9.3926 3.7258,8.5986 5.4998,8.1116 M15.5,13.4997 L15.5,15.9017 L15.5,13.4997 L15.5,12.8637 L15.5,13.4997 Z M10.5,13.4665 L10.5,16.4995 L10.5,13.4665 M5.5,14.4997 L5.5,15.9017 L5.5,14.4997 L5.5,12.8877 L5.5,14.4997 Z M21.5,14.4997 L21.5,17.4997 C21.5,21.4997 5.5,21.4997 5.5,17.4997 L5.5,15.9017 M18.5,12.136 C20.273,12.627 21.5,13.417 21.5,14.5 C21.5,17.75 10.456,18.361 6.719,16.18 M18.5,17.4997 L18.5,19.9017 L18.5,17.4997 L18.5,16.8637 L18.5,17.4997 Z M13.5,18.4997 L13.5,20.4997 L13.5,18.4997 L13.5,17.4997 L13.5,18.4997 Z M8.5,18.4997 L8.5,19.9017 L8.5,18.4997 L8.5,16.8877 L8.5,18.4997 Z"/>
</svg>
