<svg class="color-immutable" xmlns="http://www.w3.org/2000/svg" width="59" height="20" fill="none" viewBox="0 0 59 20"><g clip-path="url(#a)"><path stroke="#000" d="M2 .5h55A1.5 1.5 0 0 1 58.5 2v16a1.5 1.5 0 0 1-1.5 1.5H2A1.5 1.5 0 0 1 .5 18V2A1.5 1.5 0 0 1 2 .5Z"/><path fill="#000" d="M4.069 4.224h5.704q1.692 0 2.594.531.749.435 1.144 1.16.395.727.395 1.636 0 1.032-.5 1.797-.491.765-1.377 1.095.78.195 1.224.87.282.427.379.895.097.467.25 2.135.112 1.224.346 1.523l.113.137h-2.683a2 2 0 0 1-.201-.637q-.058-.387-.154-1.788-.096-1.25-.612-1.725-.507-.483-1.74-.483H6.639v4.633h-2.57zm2.57 2.022v3.239h2.457q1.184 0 1.668-.339.612-.426.612-1.289 0-.837-.524-1.224t-1.651-.387z"/></g><defs><clipPath id="a"><path fill="#fff" d="M0 0h59v20H0z"/></clipPath></defs></svg>