<svg xmlns="http://www.w3.org/2000/svg" width="36" height="36" fill="none" viewBox="0 0 36 36"><path fill="#000" fill-rule="evenodd" d="M3.25 6.25h29.5v7h-.5c-2.274 0-4 1.726-4 4s1.726 4 4 4h.5v7H3.25v-22m1 1v20h27.5v-5.023c-2.578-.24-4.5-2.32-4.5-4.977s1.922-4.738 4.5-4.977V7.25H4.25m6.246 2.996a1.75 1.75 0 1 0 0 3.5 1.75 1.75 0 0 0 0-3.5m-2.75 1.75a2.75 2.75 0 1 1 5.5 0 2.75 2.75 0 0 1-5.5 0M14.75 22.5a1.75 1.75 0 1 1 3.5 0 1.75 1.75 0 0 1-3.5 0m1.75-2.75a2.75 2.75 0 1 0 0 5.5 2.75 2.75 0 0 0 0-5.5m4.104-8.897-13.5 13.5-.708-.707 13.5-13.5zM24.25 7.5v.487h1V7.5zm0 1.462v.975h1v-.975zm0 1.95v.975h1v-.975zm0 1.95v.975h1v-.975zm0 1.95v.975h1v-.975zm0 1.95v.975h1v-.975zm0 1.95v.975h1v-.975zm0 1.95v.975h1v-.975zm0 1.95v.975h1v-.975zm0 1.95v.975h1v-.975zm0 1.95V27h1v-.488z" clip-rule="evenodd"/></svg>