<svg class="color-immutable" width="59" height="20" viewBox="0 0 59 20" fill="none" xmlns="http://www.w3.org/2000/svg"><path fill-rule="evenodd" clip-rule="evenodd" d="M2 0a2 2 0 0 0-2 2v16a2 2 0 0 0 2 2h55a2 2 0 0 0 2-2V2a2 2 0 0 0-2-2H2Z" fill="#EB0000"/><path d="M44.632 13.743V15.8h-8.301c-.003-.612.1-1.22.303-1.796a4.379 4.379 0 0 1 .856-1.47 7.95 7.95 0 0 1 .997-.926c.381-.301 1.14-.852 2.274-1.654.448-.286.84-.65 1.16-1.076.223-.342.339-.745.33-1.154.02-.453-.14-.896-.445-1.23a1.537 1.537 0 0 0-1.17-.471c-1.189 0-1.8.857-1.837 2.57h-2.216v-.252c0-1.403.392-2.49 1.175-3.26.762-.748 1.747-1.122 2.956-1.122a4.009 4.009 0 0 1 2.689.917c.782.665 1.174 1.558 1.174 2.682a3.69 3.69 0 0 1-.938 2.53 4.4 4.4 0 0 1-.576.558c-.178.14-.649.476-1.41 1.009-.726.506-1.245.894-1.558 1.163a6.22 6.22 0 0 0-.87.925h5.407ZM9.22 4.2h4.057L8.259 15.8H4.186L9.22 4.2ZM15.948 4.2h14.395l-1.49 3.445h-10.28l-2.042 4.71h10.285l-1.49 3.445H10.93l5.017-11.6Z" fill="#fff"/></svg>