<svg xmlns="http://www.w3.org/2000/svg" width="48" height="48" fill="none" viewBox="0 0 48 48"><path fill="#000" fill-rule="evenodd" d="M38.354 39.06 45 45.708l.707-.707-43-43L2 2.707l4.354 4.354v8.293h.5-.5v.039l.005.082a2.958 2.958 0 0 0 .298 1.102c.154.31.394.634.763.88.26.174.57.298.934.358v22.539h.5-.5v.027a1.4 1.4 0 0 0 .022.211c.021.127.064.303.155.485.092.184.239.384.467.536.232.155.518.24.856.24s.623-.085.855-.24c.229-.152.375-.352.467-.536a1.7 1.7 0 0 0 .177-.696v-.026l-.5-.001h.5v-22.54c.364-.059.674-.183.934-.357.37-.246.61-.57.764-.88a3 3 0 0 0 .302-1.184v-.038l-.5-.001h.5V14.06l8 8v18.293h.5-.5v.011l.001.016.003.051a1.732 1.732 0 0 0 .175.645c.091.184.238.384.466.536.232.155.518.24.856.24s.623-.085.855-.24c.229-.152.375-.352.467-.536a1.7 1.7 0 0 0 .176-.677l.001-.019v-.026l-.5-.001h.5V25.06l11 11v4.293h.5-.5v.011l.001.016.003.051a1.732 1.732 0 0 0 .175.645c.092.184.238.384.466.536.232.155.518.24.856.24s.623-.085.855-.24c.228-.152.375-.352.467-.536a1.7 1.7 0 0 0 .177-.696v-.026l-.5-.001h.5zm-16 1.289V23.061l1 1v16.288l-.001.012a.7.7 0 0 1-.072.269.4.4 0 0 1-.127.151.52.52 0 0 1-.3.073.52.52 0 0 1-.301-.073.4.4 0 0 1-.127-.151.7.7 0 0 1-.072-.27zm15 0v-2.288l-1-1v3.3l.008.067c.01.06.03.134.064.202a.4.4 0 0 0 .127.151c.05.033.138.073.3.073.163 0 .252-.04.301-.073a.4.4 0 0 0 .127-.151.7.7 0 0 0 .072-.27zm-27-22.495v22.495l-.001.012a.7.7 0 0 1-.072.269.4.4 0 0 1-.127.151.52.52 0 0 1-.3.073.52.52 0 0 1-.301-.073.4.4 0 0 1-.127-.151.7.7 0 0 1-.072-.27V17.855zm-2-8.793-1-1v7.298q0 .014.002.045a1.958 1.958 0 0 0 .195.726c.095.19.23.366.424.495.19.127.466.229.879.229h2c.412 0 .688-.102.879-.229.193-.129.328-.304.423-.495a2 2 0 0 0 .197-.77V13.06l-1-1v1.793h-1V11.06l-1-1v3.793h-1zm4 .793v-5h1v5zm-4-4v-1h1v1zm2 2v-3h1v3zm28 9.635v17.365h-1v-17.04a3.2 3.2 0 0 1-1 0v15.04h-1V17.489c-.684-.345-1.277-.914-1.745-1.616-.786-1.178-1.255-2.778-1.255-4.52s.47-3.34 1.255-4.52c.784-1.175 1.92-1.98 3.245-1.98 1.323 0 2.46.805 3.244 1.98.786 1.18 1.256 2.779 1.256 4.52 0 1.742-.47 3.342-1.256 4.52-.467.702-1.06 1.27-1.744 1.616m-16.5-12.635h-.5v14h1V5.88c1.68.182 2.657 1.28 3.24 2.447a8 8 0 0 1 .624 1.778 8 8 0 0 1 .132.745l.004.03v10.474h-1.5v1h2.5V10.83l-.002-.023-.498.046.498-.046v-.002l-.001-.005-.002-.015-.003-.027-.003-.026-.025-.19a9 9 0 0 0-.125-.66 9 9 0 0 0-.705-2.003c-.736-1.473-2.126-3.026-4.634-3.026m11.5 6.5c0-1.572.425-2.973 1.087-3.966.664-.996 1.527-1.534 2.413-1.534s1.748.538 2.412 1.534c.662.993 1.088 2.394 1.088 3.966s-.426 2.972-1.088 3.965c-.664.996-1.527 1.535-2.412 1.535-.886 0-1.749-.539-2.413-1.535-.662-.993-1.087-2.394-1.087-3.965" clip-rule="evenodd"/></svg>