<svg xmlns="http://www.w3.org/2000/svg" width="36" height="36" fill="none" viewBox="0 0 36 36"><path fill="#000" fill-rule="evenodd" d="M18.493 4.25C10.589 4.237 4.264 10.399 4.25 18.003l-1-.002c.016-8.183 6.816-14.765 15.244-14.75 5.514.01 10.562 2.807 13.256 7.404V6h1v7.25H25.5v-1h5.96l-.055-.119c-2.333-4.847-7.351-7.87-12.912-7.88M31.75 18c-.03 7.616-6.306 13.78-14.186 13.752-5.5-.02-10.627-3.184-12.97-7.99l-.005-.011H10.5v-1H3.25V30h1v-4.771c2.71 4.575 7.842 7.501 13.31 7.522 8.414.03 15.157-6.561 15.19-14.748zm-18.041.578v.07h-1.097l-.544 1.253h1.753q.882 5.649 5.445 5.649 1.938 0 3.444-.747.104-.053.566-.314v-2.011q-1.641.888-2.318 1.132-.675.241-1.548.242-1.056 0-1.815-.485-.73-.464-1.25-1.525a7.5 7.5 0 0 1-.616-1.941h4.799l.562-1.253h-5.505v-.004q-.01-.29-.01-.43 0-.283.02-.84h6.05l.564-1.252h-6.44a8 8 0 0 1 .319-1.252q.901-2.738 3.25-2.738 1.28 0 2.511.698.506.293 1.427.898l.727-1.636q-2.08-1.607-4.635-1.607-3.619 0-4.983 3.728-.327.889-.502 1.91h-1.27l-.545 1.252h1.672l-.01.072q-.022.564-.021.717z" clip-rule="evenodd"/></svg>