<svg class="color-immutable" xmlns="http://www.w3.org/2000/svg" width="59" height="20" fill="none" viewBox="0 0 59 20"><path fill="#000" d="M1.792 0h55.416C58.197 0 59 .806 59 1.8v16.4c0 .994-.801 1.8-1.792 1.8H1.792A1.797 1.797 0 0 1 0 18.2V1.8C0 .806.803 0 1.792 0"/><path fill="#FFDE15" d="M12.8 7.661h-2.405q-.07-.846-.633-1.289-.553-.45-1.558-.45-.894 0-1.392.355-.49.349-.49.981 0 .57.474.823.459.252 2.326.712 1.97.49 2.729.988 1.4.918 1.4 2.555 0 1.796-1.408 2.832-1.242.91-3.362.91-2.357 0-3.662-1.076t-1.353-3.061h2.515q.055.964.499 1.432.696.743 2.096.743.95 0 1.503-.372.624-.427.625-1.162 0-.736-.878-1.076-.483-.19-2.278-.688-1.125-.309-1.756-.586-.633-.276-1.013-.617-.886-.79-.886-2.183 0-1.669 1.384-2.642 1.18-.83 3.062-.83 1.653 0 2.768.656 1.606.942 1.693 3.045M24.515 4.236v11.565h-2.54l-4.84-7.879.031 7.879h-2.428V4.236h2.57l4.81 7.863-.031-7.863zM34.102 7.124h-2.199q-.309-1.338-1.519-1.337-1.28 0-1.82 1.574-.22.64-.355 1.938.522-.705 1.107-1.013.593-.308 1.424-.308 1.63 0 2.619 1.155.94 1.091.94 2.737 0 1.953-1.265 3.14-1.139 1.068-2.737 1.068-2.049 0-3.187-1.543-1.14-1.55-1.14-4.319 0-2.958 1.219-4.635 1.178-1.622 3.219-1.622 1.922 0 2.943 1.29.585.743.751 1.875m-3.915 2.65q-.831 0-1.322.696-.442.616-.442 1.47 0 .847.45 1.48.491.704 1.345.704.831 0 1.337-.672.474-.633.475-1.495 0-.847-.428-1.448-.522-.736-1.416-.736M35.233 7.899q.04-1.424.704-2.39 1.076-1.55 3.236-1.55 1.66 0 2.681.847 1.1.918 1.1 2.373 0 .87-.436 1.503a2.1 2.1 0 0 1-1.162.846q.933.214 1.47.95.547.735.547 1.78 0 1.716-1.266 2.807-1.17 1.013-2.958 1.013-1.938 0-3.077-1.115-1.131-1.116-1.132-3.014v-.15h2.223q0 1.067.507 1.653.506.577 1.431.577.926 0 1.424-.546a1.78 1.78 0 0 0 .459-1.226q0-.854-.586-1.352-.482-.412-1.487-.412-.285 0-.561.032v-1.7q.206.015.395.015 1.995 0 1.994-1.48 0-.648-.435-1.043-.436-.405-1.147-.404-.815 0-1.258.507-.443.505-.475 1.479z"/></svg>