<svg xmlns="http://www.w3.org/2000/svg" width="16" height="16" fill="none" viewBox="0 0 16 16"><path fill="#000" fill-rule="evenodd" d="M12 13h-2v-1h2v-2h1v2h2v1h-2v2h-1zM9.463 7.562a2.65 2.65 0 0 1-2.929-.002c-2.162.87-3.376 2.974-3.52 5.44H9v1H2v-.5c0-2.816 1.241-5.467 3.748-6.685A3.9 3.9 0 0 1 5 4.5C5 2.656 6.262 1 8 1s3 1.656 3 3.5c0 .864-.277 1.686-.75 2.317a6.2 6.2 0 0 1 1.974 1.512l-.755.656a5.2 5.2 0 0 0-2.006-1.423M6 4.5C6 3.03 6.977 2 8 2s2 1.03 2 2.5S9.023 7 8 7 6 5.97 6 4.5" clip-rule="evenodd"/></svg>