<?xml version="1.0" encoding="utf-8"?>
<!-- Generator: Adobe Illustrator 25.3.1, SVG Export Plug-In . SVG Version: 6.00 Build 0)  -->
<svg version="1.1" xmlns="http://www.w3.org/2000/svg" xmlns:xlink="http://www.w3.org/1999/xlink" x="0px" y="0px" width="750px"
	 height="1334px" viewBox="0 0 750 1334" style="enable-background:new 0 0 750 1334;" xml:space="preserve">
<style type="text/css">
	.st0{fill:#ECF7FF;}
	.st1{fill:#DCF2FF;}
	.st2{clip-path:url(#SVGID_2_);fill:#FFFFFF;}
	.st3{clip-path:url(#SVGID_2_);fill:#E8E8E8;}
	.st4{clip-path:url(#SVGID_2_);fill:#CEECFD;}
	.st5{clip-path:url(#SVGID_2_);fill:#CCCCCC;}
	.st6{clip-path:url(#SVGID_2_);fill:#706F6F;}
	.st7{clip-path:url(#SVGID_2_);fill:#ABA728;}
	.st8{clip-path:url(#SVGID_2_);fill:#D1D137;}
	.st9{clip-path:url(#SVGID_2_);fill:#949494;}
	.st10{clip-path:url(#SVGID_2_);fill:#5E5E5E;}
	.st11{clip-path:url(#SVGID_2_);fill:#ECF7FF;}
	.st12{clip-path:url(#SVGID_2_);fill:#F2EF7C;}
	.st13{clip-path:url(#SVGID_2_);fill:#203809;}
	.st14{clip-path:url(#SVGID_4_);fill:#EAE654;}
	.st15{clip-path:url(#SVGID_4_);fill:#D1D137;}
	.st16{clip-path:url(#SVGID_4_);fill:#FFFFFF;}
	.st17{clip-path:url(#SVGID_4_);fill:#CEECFD;}
	.st18{clip-path:url(#SVGID_4_);fill:#AAC654;}
	.st19{clip-path:url(#SVGID_4_);fill:#B3D2F0;}
	.st20{clip-path:url(#SVGID_4_);fill:#C9E8FC;}
	.st21{clip-path:url(#SVGID_4_);fill:#92AD46;}
	.st22{clip-path:url(#SVGID_4_);fill:#CCCCCC;}
	.st23{clip-path:url(#SVGID_4_);fill:#29490D;}
	.st24{clip-path:url(#SVGID_4_);fill:#7D9A28;}
	.st25{clip-path:url(#SVGID_4_);fill:#5D838C;}
	.st26{clip-path:url(#SVGID_4_);fill:#E8E8E8;}
	.st27{clip-path:url(#SVGID_4_);fill:#AC1E22;}
	.st28{clip-path:url(#SVGID_4_);fill:#EB0000;}
	.st29{clip-path:url(#SVGID_6_);fill:#203809;}
	.st30{clip-path:url(#SVGID_6_);fill:#29490D;}
	.st31{fill:#5C9FCE;}
	.st32{fill:#AC6165;}
	.st33{fill:#7299A5;}
	.st34{fill:#EB0000;}
	.st35{fill:#263A40;}
	.st36{fill:#86A1A9;}
	.st37{fill:#C8A59A;}
	.st38{fill:#AE8376;}
	.st39{fill:#E1F2ED;}
	.st40{fill:#7E726A;}
	.st41{fill:#FFFDEA;}
	.st42{opacity:0.2;fill:#E5E5E5;}
	.st43{fill:#101C50;}
	.st44{fill:#374B8E;}
	.st45{fill:#445495;}
	.st46{fill:#FFFFFF;}
	.st47{fill:#E5E5E5;}
	.st48{fill:#767676;}
	.st49{fill:#444444;}
	.st50{fill:#D2D2D2;}
	.st51{fill:#CAD1E5;}
	.st52{opacity:0.2;}
	.st53{fill:#1D1D1B;}
	.st54{opacity:0.1;}
	.st55{fill:#BDBDBD;}
	.st56{fill:#F1B186;}
	.st57{fill:#E1F4EE;}
	.st58{fill:#5F333A;}
	.st59{fill:#0F1B42;}
	.st60{fill:#050E28;}
	.st61{fill:#7A88BC;}
	.st62{fill:#DDA47F;}
	.st63{fill:#4A2930;}
	.st64{fill:#282827;}
	.st65{fill:#263238;}
	.st66{fill:#EEEEEE;}
	.st67{fill:#CCCBCB;}
	.st68{fill:#808080;}
	.st69{fill:#E84E10;}
	.st70{fill:#0079C7;}
	.st71{fill:#F27E00;}
	.st72{fill:#AC1E22;}
	.st73{fill:#8B3024;}
	.st74{fill:#F6F6F6;}
	.st75{fill:#FCBB00;}
	.st76{fill:#B3D2F0;}
	.st77{fill:#3E201D;}
	.st78{fill:#2C2C33;}
	.st79{fill:#B11921;}
	.st80{fill:#DF0C1D;}
	.st81{fill:#DEF1FC;}
	.st82{fill:#75AAD3;}
	.st83{fill:#E78E53;}
	.st84{opacity:0.48;}
	.st85{fill:#5D3F3A;}
	.st86{fill:#D1E7F9;}
	.st87{fill:#7A7A7A;}
	.st88{fill:#2A2A2B;}
	.st89{fill:#3C3C3B;}
	.st90{fill:#E52431;}
	.st91{fill:#060606;}
	.st92{fill:#F4B673;}
	.st93{fill:#F5C591;}
	.st94{fill:#B72533;}
	.st95{fill:#737373;}
	.st96{fill:#DBAC96;}
	.st97{fill:#E7BCA6;}
	.st98{fill:#CC9787;}
	.st99{fill:#D5A18D;}
	.st100{opacity:0.59;}
	.st101{fill:#BD887D;}
	.st102{fill:#ECD7CB;}
	.st103{fill:#F4BF98;}
	.st104{fill:#EDB288;}
	.st105{clip-path:url(#SVGID_10_);}
	.st106{clip-path:url(#SVGID_12_);fill:#474848;}
	.st107{clip-path:url(#SVGID_12_);}
	.st108{clip-path:url(#SVGID_14_);fill:#212121;}
	.st109{clip-path:url(#SVGID_16_);fill:#EB0000;}
	.st110{clip-path:url(#SVGID_16_);fill:#FFFFFF;}
	.st111{clip-path:url(#SVGID_18_);}
	.st112{clip-path:url(#SVGID_20_);fill:#474848;}
	.st113{clip-path:url(#SVGID_20_);}
	.st114{clip-path:url(#SVGID_22_);fill:#212121;}
	.st115{clip-path:url(#SVGID_24_);fill:url(#SVGID_25_);}
	.st116{clip-path:url(#SVGID_27_);fill:#EB0000;}
	.st117{clip-path:url(#SVGID_29_);}
	.st118{clip-path:url(#SVGID_31_);}
	.st119{clip-path:url(#SVGID_33_);fill:#929292;}
	.st120{clip-path:url(#SVGID_33_);}
	.st121{clip-path:url(#SVGID_33_);fill:none;stroke:#B3B3B3;stroke-width:2;stroke-miterlimit:10;}
	.st122{clip-path:url(#SVGID_33_);fill:#DFDFDF;}
	.st123{clip-path:url(#SVGID_35_);fill:url(#SVGID_36_);}
	.st124{clip-path:url(#SVGID_38_);fill:#DFDFDF;}
	.st125{clip-path:url(#SVGID_38_);fill:#EB0000;}
	.st126{clip-path:url(#SVGID_40_);fill:url(#SVGID_41_);}
	.st127{clip-path:url(#SVGID_43_);}
	.st128{clip-path:url(#SVGID_43_);fill:#0C0C0C;}
	.st129{clip-path:url(#SVGID_43_);fill:none;stroke:#B3B3B3;stroke-miterlimit:10;}
	.st130{filter:url(#Adobe_OpacityMaskFilter);}
	.st131{enable-background:new    ;}
	.st132{filter:url(#Adobe_OpacityMaskFilter_1_);}
	.st133{clip-path:url(#SVGID_43_);mask:url(#SVGID_44_);}
	.st134{clip-path:url(#SVGID_46_);fill:url(#SVGID_47_);}
	.st135{opacity:0.2;clip-path:url(#SVGID_43_);}
	.st136{clip-path:url(#SVGID_49_);}
	.st137{clip-path:url(#SVGID_51_);fill:url(#SVGID_52_);}
	.st138{clip-path:url(#SVGID_43_);fill:#808080;}
</style>
<g id="myway">
</g>
<g id="hintergrund">
	<g>
		<rect x="-278.2" y="-707.1" class="st31" width="1488.7" height="1482.9"/>
	</g>
	<g>
		
			<rect x="-864.9" y="564" transform="matrix(-1 4.491262e-07 -4.491262e-07 -1 15.8661 1145.6964)" class="st32" width="1745.7" height="17.7"/>
	</g>
	<g>
		
			<rect x="-367.9" y="581.2" transform="matrix(-1 -2.356708e-06 2.356708e-06 -1 842.1326 1913.1588)" class="st33" width="1578" height="750.8"/>
	</g>
</g>
<g id="fenster">
	<g id="stadt_1_">
	</g>
	<g>
		<rect x="276.4" y="-545.7" class="st41" width="385.4" height="978.1"/>
	</g>
	<g>
		<rect x="681.2" y="-543.7" class="st41" width="385.4" height="976.1"/>
	</g>
</g>
<g id="licht">
	<polygon class="st42" points="-403.8,-276.7 323.6,-276.7 637.2,577.6 -752.6,560.7 	"/>
	<polygon class="st42" points="1067.4,-545.8 277.6,-547.2 -181.8,235.5 -559.1,581.8 -703,639.3 656.6,639.3 853.1,581.8 
		1067.2,432.4 	"/>
</g>
<g id="büro_1_">
</g>
<g id="laptop">
</g>
<g id="code">
</g>
<g id="schalter">
	<g>
		<g>
			<g>
				<path class="st76" d="M69.2,191.6c-6.8,11.1-9.3,26.6-12.3,39.3c-2.4,9.9-4.1,20.1-6.1,30.1c-1.4,7.2-3.3,14-5.4,21
					c-1,3.4-0.2,5.1,0.2,8.6c3.4,1.5,10.9,5.6,14.9,4.6c4.5-1.1,6.8-8.5,8.9-13c4.8-10.5,6.7-22.3,10.9-32.8"/>
			</g>
			<g>
				<path class="st77" d="M136.4,114c1.4,6.1,7.5,9.9,10,15.6c4.5,10,4,20.9,4.6,31.6c0.5,8.4,1.1,17.4-1,25.6
					c-0.5,1.8-0.7,3.3-1.8,4.8c-12.5,1.2-20.6,14.9-32.3,18.9c-17.3,5.9-27-15.6-30.7-28.9c-2-6.9-1.6-15.5-1.8-22.7
					c-0.1-5.2-1.2-10.5-0.4-15.6c1-6.6,3.5-12.9,6.3-18.9c6.1-12.8,23.7-19.4,37.2-16.2c-0.3,0.9-0.8,1.6-1.5,2.3"/>
			</g>
			<g>
				<path class="st77" d="M93.2,158.1c3.6,4.6,9.4,11.5,10.7,17.3c-3.5-0.7-7.7-4.9-9.7-7.9"/>
			</g>
			<g>
				<path class="st78" d="M85.8,291c-2.2-1.9,1.2-11.7,0.3-14.4c-4.1-12.4-10-22.3-10.6-35.8c-0.3-6.3,0.1-10.7-2.2-16.5
					c-3.2-7.7-5.6-15.6-5.7-24.1c-0.1-6.2-0.6-10.6,5.1-13.6c2.7-1.5,6.3-2.3,9.3-3.5l52.4-5.3l24.8,4.9c0.3-0.5,0.5-0.7,0.6-1.3
					c4.8,3,11.9,5.5,16,9.6c-1.3,5-3.5,8.3-5.1,13.5c-3.1,9.7-4.7,18.6-5.6,28.7c-1.9,18.9-0.8,40.4-7.3,58.5"/>
			</g>
			<g>
				<path class="st76" d="M126.7,176.2c5.3-0.4,10.9,0.3,14.2,3l-1.6,14.2c0.4,6.6-11.3,19.1-15.9,24.8c-0.9,1.1-1.8,2.2-2.6,3.3
					c-2,2.5-4.1,4.9-6.5,6.9c-8.4-11.6-15.5-22.2-19.9-36C89.1,175.8,115.6,177,126.7,176.2z"/>
			</g>
			<g>
				<path class="st62" d="M103.5,166.1c-0.1,3.5,2.7,12.9-3.7,13.9c-3.9,0.6,6.4,11,8.3,14.8c1.5,3,4.3,6.6,4.9,10.3
					c0.8,4.6-0.7,9.3,1.8,12.5c1.1-3.8,1.3-8.2,2.1-12.1c1.1-5.6,4.6-8,8.5-12.6c3-3.4,13.9-14.8,10-12.6c-1.1,0.6-4.7-6.8-1-17.5"
					/>
			</g>
			<g>
				<g>
					<polygon class="st79" points="107.6,200.7 113.2,206.3 108.7,207.5 104.6,203.5 					"/>
				</g>
				<g>
					<g>
						<g>
							<path class="st80" d="M110.2,212.3l9.3-0.1l1.2,9.6c0,0-6.5,7.8-6.5,7.1c0-0.7-4.9-7.1-4.9-7.1L110.2,212.3z"/>
						</g>
						<g>
							<g>
								<path class="st76" d="M121.7,198.1c1.7,1.9,4.1,2.8,6.3,4c1.5,0.8,3,1.8,4.6,2.6c1.6,0.8,3.3-0.9,3.7-2.7
									c0.3-1.6-0.4-4.3-0.6-6c-0.1-1-0.3-5.4-1.2-6"/>
							</g>
						</g>
						<g>
							<g>
								<path class="st76" d="M108.5,197.7c-2,1.6-3.7,1.6-6.1,2.4c-1.6,0.5-1.8,2-3.5,2c-0.8,0-2.2-2.2-2.2-4
									c0-1.7-1.3-3.9-0.7-5.5c0.3-1,1.3-5.3,2.3-5.7"/>
							</g>
						</g>
						<g>
							<path class="st79" d="M119.5,214.1c0,0-9.8,0.5-9.6,0.1c0.3-0.4-0.1-2,0.4-2s9.4,0.2,9.4,0.2"/>
						</g>
					</g>
					<g>
						<path class="st81" d="M123.6,199.4l0.1-0.4c4.4-4.8,7.4-7.4,11.7-11.9l1,15.5c-0.1,0.7-1.2,3-1.5,3.5c-0.4,0.8-5-2.5-6.4-3.3
							C127.8,202.6,123,199.8,123.6,199.4z"/>
					</g>
					<g>
						<polygon class="st79" points="123.7,199.8 117.6,206.4 121,206.9 126.7,202.2 						"/>
					</g>
					<g>
						<path class="st82" d="M123.7,199.7c-1.1,0.7-2.7,1.4-3.6,2.3c-0.8,0.8-1,2.1-1.7,3c2-1.3,3.9-3.3,5.7-4.9"/>
					</g>
					<g>
						<path class="st82" d="M113.2,205.7c-0.7-0.8-2.9-3.6-4.1-3.7c0.2,0.8,2.8,3.9,3.3,4.1"/>
					</g>
					<g>
						<path class="st80" d="M120.7,211.5L120.7,211.5c0,0.5-0.6,0.9-1.3,0.9h-8.8c-0.6,0-1.2-0.3-1.3-0.7l-1-3.9
							c-0.1-0.5,0.4-1,1.2-1c0,0,1.9-0.9,5.2-0.9c3.3,0,5.1,0.6,5.1,0.6c0.8,0,1.4,0.4,1.4,0.9L120.7,211.5
							C120.7,211.4,120.7,211.5,120.7,211.5z"/>
					</g>
					<g>
						<polyline class="st82" points="106.7,205.3 101.6,209.4 100.6,207.2 105.6,204.3 						"/>
					</g>
					<g>
						<path class="st81" d="M109.3,201.6l-0.1-0.4c-4.2-5-7-7.7-11.2-12.3l-1.6,15.5c0.1,0.7,1.1,3,1.3,3.6c0.4,0.8,5.1-2.3,6.5-3
							C104.9,204.6,109.8,202,109.3,201.6z"/>
					</g>
				</g>
			</g>
			<g>
				<path class="st56" d="M99.1,115.1c-1.5,7.2-7,13.6-8.1,21.5c-1,6.9-1.2,16.1,0.7,22.7c3.3,11.8,10,19.5,22.3,18.9
					c12.4-0.6,17.2-7,22-17.8c7.4-16.7,16.9-45-4.8-54C119.9,101.6,107,105.1,99.1,115.1z"/>
			</g>
			<g>
				<path class="st83" d="M128.4,114.1c-6.1,7.7-21.5,4.8-29.9,12.2c-6.7,5.9-6.3,10.8-8.3,18.3c-1.7-4.6-1.5-2.7-0.3-7.4
					c1.4-5.6,3.9-11.6,8.4-15.7c5.6-5.2,13.6-5.2,20.5-6.2c3.1-0.5,7.1-3.4,9.3-3.5"/>
			</g>
			<g class="st84">
				<path class="st83" d="M127.8,113.5c0,5.4,0.3,10.2,2.9,15.1c2.1,4.2,5.1,7.9,6.7,12.3c1.7,4.7,3,13.3,1,18.1
					c2.5-8.8,2.6-21.4-2.4-29.2c-3.3-5.1-7.7-10.6-6.8-17.2"/>
			</g>
			<g>
				<g>
					<path class="st85" d="M126.3,138C126.3,138,126.3,138,126.3,138C126.3,138,126.3,138,126.3,138L126.3,138z"/>
				</g>
			</g>
			<g>
				<path class="st62" d="M129.3,121.8c-15,6.5-22.2,10.8-34.9,18.9c-8.3,5.3-1.5,12-3.5,21.2c-1.7-5.7-0.9-12.7,0.3-18.5
					c1.4-6.9,2.7-14.6,7.1-19.6c5.6-6.5,13.6-6.4,20.5-7.6c3.1-0.6,7.1-4.2,9.3-4.3"/>
			</g>
			<g>
				<path class="st76" d="M127.7,274.5c11.1-0.6,22.3-0.7,33.3-2.2c5.5-0.8,11.2-2.4,16.8-2.2c0.2-11.1-9.2-29.4-11.1-39.8
					c-1.2-6.3,0.4-14.5,2.3-20.7c1.9-6.2,3-13.3,6.6-19.1l1.6,0.7c6.7,5.1,9.9,17.2,12.4,24.8c3.6,10.6,6.1,20.2,7.8,31.4
					c2.1,14.4,2.9,30,1.8,43.9c-12,2-26.1,2-38.4,1.4c-10.9-0.5-22.4-0.7-33-0.3C126.1,286.4,127.4,281,127.7,274.5z"/>
			</g>
			<g>
				<path class="st56" d="M128,276.3c-0.6-1.1-5.3-2.7-7.2-3.4c-2.3-0.8-4.7-1.7-7.2-1.2c-5.3,1.1-9.3,7-13,10.4
					c-1.7,1.5-6.8,6.6-3.3,8.9c2.7,1.7,9.8-4.9,11.5-6.8c-0.8,0.6-12,6-7.7,8.2c3.1,1.5,10.3-4.6,12.4-6.6c-1.4,0.5-7.1,4.1-4.8,6.4
					c1.5,1.6,5.5-1.4,6.8-2.1c0.7-0.4,1.6-1.1,2.3-1.2c1.4-0.3,1.2,0.1,2.6,0.8c2,1,4.6,1.8,6.6,2"/>
			</g>
			<g>
				<path class="st86" d="M125.2,274.7c2.4,3.6,3,6.7,2.6,10.2c-0.3,2.7-1.7,4.6-1.8,7.2c3.2,0.2,7.3,1,10.5,0.6
					c0.9-0.1,3-0.1,3.7-0.6c1.3-0.8,1.2-3.7,1.4-5.3c0.4-3.8-0.1-7.4-1.4-10.9c-1-2.5-2.3-2.8-5-2.9c-2.7-0.1-7.4,0.2-11.4,0.6"/>
			</g>
			<g>
				<path class="st46" d="M102.3,159.2c3.9,0.6,7.7,1.2,11.7,1.4c0.8,2.7-5.7,2.1-7,2.1c-1.3,0-2.9,0.1-4-0.5
					c-1.3-0.7-0.3-2-1.3-2.6"/>
			</g>
			<g>
				<path class="st85" d="M127.7,109.2c0.6,15,2.2,30.7,4.5,45.6c1,6.5,3,12.7,4.3,19.2c0.8,4.2,0.9,13.4,3.8,16.3
					c0.8-14,3-28.1,3.5-42.1c0.4-11.2-1.6-22.3-2.2-33.4"/>
			</g>
			<g>
				<g>
					<path class="st85" d="M129.6,103.9c-0.7,7.3-3.6,10.6,0.5,17.3c2.6,4.3,6.2,7.6,7.8,12.6c4.4,13.7-1.5,27.7-2.2,41.5
						c-0.5,9.8,0.4,18.6,0.9,28.3c0.3,6.7-1.7,12.3-3.8,18.4c-1.6,4.8-4.6,10.4-4.1,15.6c0.7,6.5,3.2,3.1,6.9,1
						c2.6,9.5,14.8,5.9,19.9,0c7-8.3,5.6-22,5.2-32c-0.6-15.1-0.9-30.3-0.8-45.2c0-15.7-0.5-32.8-9.8-46.2
						c-6.2-8.8-9.2-10.5-18.8-12.7"/>
				</g>
				<g>
					<g>
						<path class="st85" d="M127.3,113.1c-3,4.3-13.5,10.9-18.3,12.2c-8.3,2.2-12.2,7.5-13.7,12c-3.5,10.6-3.4,15.6-1.7,27.3
							c2,13.7,5.8,20.8,3.7,35.2c-1.4,9.3-4.2,18.6-2.6,28c0.6,3.6,4.6,11.1,0.3,13.6c-1.5-0.7-2.8-1.8-3.8-3.2
							c-5.6,5.2-12.7-21.2-12.8-24.6c-0.6-15.4,3.7-29.6,2-45.2c-1.4-12.8-0.9-27.2,5.1-38.8c4.6-9,10-19.8,19.2-24.6
							c4.6-2.5,9.4-3.5,14.7-3.7c1.9-0.1,6.3-1.7,8.3-1.5c3.2,0.3,7.2,1.4,9.7,3.6"/>
					</g>
				</g>
			</g>
			<g>
				<polygon class="st82" points="126.7,202 127.8,202.7 133.4,206.1 131.4,208.6 125.4,203.4 				"/>
			</g>
		</g>
		<g>
			<g>
				<g>
					<path class="st89" d="M272.5,343.9l235.6,0V233.3l-228.9,0c-3.7,0-6.7,3-6.7,6.7V343.9z"/>
				</g>
				<g>
					<rect x="-367.5" y="336.1" class="st90" width="876.7" height="239.5"/>
				</g>
				<g>
					<path class="st91" d="M340.1,337.4l-471.7,0c-1,0-1.8-0.8-1.8-1.8v-23.7l475.2,0v23.7C341.9,336.6,341.1,337.4,340.1,337.4z"/>
				</g>
				<g>
					<path class="st92" d="M349.2,319.5l-488.6,0c-1.7,0-3.1-1.4-3.1-3.1v-22.4l494.7,0v22.4C352.2,318.2,350.9,319.5,349.2,319.5z"
						/>
				</g>
				<g>
					<rect x="-142.4" y="294.1" class="st93" width="494.9" height="7.4"/>
				</g>
				<g>
					<g>
						<circle class="st94" cx="-0.9" cy="475" r="3.7"/>
					</g>
					<g>
						<circle class="st94" cx="11.8" cy="475" r="3.7"/>
					</g>
					<g>
						<circle class="st94" cx="24.5" cy="475" r="3.7"/>
					</g>
					<g>
						<circle class="st94" cx="37.2" cy="475" r="3.7"/>
					</g>
					<g>
						<circle class="st94" cx="49.8" cy="475" r="3.7"/>
					</g>
					<g>
						<circle class="st94" cx="62.5" cy="475" r="3.7"/>
					</g>
					<g>
						<circle class="st94" cx="75.2" cy="475" r="3.7"/>
					</g>
					<g>
						<circle class="st94" cx="87.9" cy="475" r="3.7"/>
					</g>
					<g>
						<circle class="st94" cx="100.6" cy="475" r="3.7"/>
					</g>
					<g>
						<circle class="st94" cx="113.3" cy="475" r="3.7"/>
					</g>
					<g>
						<circle class="st94" cx="125.9" cy="475" r="3.7"/>
					</g>
					<g>
						<circle class="st94" cx="138.6" cy="475" r="3.7"/>
					</g>
					<g>
						<circle class="st94" cx="151.3" cy="475" r="3.7"/>
					</g>
					<g>
						<circle class="st94" cx="164" cy="475" r="3.7"/>
					</g>
					<g>
						<circle class="st94" cx="176.7" cy="475" r="3.7"/>
					</g>
					<g>
						<circle class="st94" cx="189.3" cy="475" r="3.7"/>
					</g>
					<g>
						<circle class="st94" cx="202" cy="475" r="3.7"/>
					</g>
					<g>
						<circle class="st94" cx="214.7" cy="475" r="3.7"/>
					</g>
					<g>
						<circle class="st94" cx="227.4" cy="475" r="3.7"/>
					</g>
					<g>
						<circle class="st94" cx="240.1" cy="475" r="3.7"/>
					</g>
					<g>
						<circle class="st94" cx="252.8" cy="475" r="3.7"/>
					</g>
					<g>
						<circle class="st94" cx="265.4" cy="475" r="3.7"/>
					</g>
					<g>
						<circle class="st94" cx="278.1" cy="475" r="3.7"/>
					</g>
					<g>
						<circle class="st94" cx="290.8" cy="475" r="3.7"/>
					</g>
					<g>
						<circle class="st94" cx="303.5" cy="475" r="3.7"/>
					</g>
					<g>
						<circle class="st94" cx="316.2" cy="475" r="3.7"/>
					</g>
					<g>
						<circle class="st94" cx="328.9" cy="475" r="3.7"/>
					</g>
					<g>
						<circle class="st94" cx="341.5" cy="475" r="3.7"/>
					</g>
					<g>
						<circle class="st94" cx="354.2" cy="475" r="3.7"/>
					</g>
					<g>
						<circle class="st94" cx="366.9" cy="475" r="3.7"/>
					</g>
					<g>
						<circle class="st94" cx="379.6" cy="475" r="3.7"/>
					</g>
					<g>
						<circle class="st94" cx="392.3" cy="475" r="3.7"/>
					</g>
					<g>
						<circle class="st94" cx="404.9" cy="475" r="3.7"/>
					</g>
					<g>
						<circle class="st94" cx="417.6" cy="475" r="3.7"/>
					</g>
					<g>
						<circle class="st94" cx="430.3" cy="475" r="3.7"/>
					</g>
				</g>
				<g>
					<g>
						<circle class="st94" cx="-0.9" cy="488.3" r="3.7"/>
					</g>
					<g>
						<circle class="st94" cx="11.8" cy="488.3" r="3.7"/>
					</g>
					<g>
						<circle class="st94" cx="24.5" cy="488.3" r="3.7"/>
					</g>
					<g>
						<circle class="st94" cx="37.2" cy="488.3" r="3.7"/>
					</g>
					<g>
						<circle class="st94" cx="49.8" cy="488.3" r="3.7"/>
					</g>
					<g>
						<circle class="st94" cx="62.5" cy="488.3" r="3.7"/>
					</g>
					<g>
						<circle class="st94" cx="75.2" cy="488.3" r="3.7"/>
					</g>
					<g>
						<circle class="st94" cx="87.9" cy="488.3" r="3.7"/>
					</g>
					<g>
						<circle class="st94" cx="100.6" cy="488.3" r="3.7"/>
					</g>
					<g>
						<circle class="st94" cx="113.3" cy="488.3" r="3.7"/>
					</g>
					<g>
						<circle class="st94" cx="125.9" cy="488.3" r="3.7"/>
					</g>
					<g>
						<circle class="st94" cx="138.6" cy="488.3" r="3.7"/>
					</g>
					<g>
						<circle class="st94" cx="151.3" cy="488.3" r="3.7"/>
					</g>
					<g>
						<circle class="st94" cx="164" cy="488.3" r="3.7"/>
					</g>
					<g>
						<circle class="st94" cx="176.7" cy="488.3" r="3.7"/>
					</g>
					<g>
						<circle class="st94" cx="189.3" cy="488.3" r="3.7"/>
					</g>
					<g>
						<circle class="st94" cx="202" cy="488.3" r="3.7"/>
					</g>
					<g>
						<circle class="st94" cx="214.7" cy="488.3" r="3.7"/>
					</g>
					<g>
						<circle class="st94" cx="227.4" cy="488.3" r="3.7"/>
					</g>
					<g>
						<circle class="st94" cx="240.1" cy="488.3" r="3.7"/>
					</g>
					<g>
						<circle class="st94" cx="252.8" cy="488.3" r="3.7"/>
					</g>
					<g>
						<circle class="st94" cx="265.4" cy="488.3" r="3.7"/>
					</g>
					<g>
						<circle class="st94" cx="278.1" cy="488.3" r="3.7"/>
					</g>
					<g>
						<circle class="st94" cx="290.8" cy="488.3" r="3.7"/>
					</g>
					<g>
						<circle class="st94" cx="303.5" cy="488.3" r="3.7"/>
					</g>
					<g>
						<circle class="st94" cx="316.2" cy="488.3" r="3.7"/>
					</g>
					<g>
						<circle class="st94" cx="328.9" cy="488.3" r="3.7"/>
					</g>
					<g>
						<circle class="st94" cx="341.5" cy="488.3" r="3.7"/>
					</g>
					<g>
						<circle class="st94" cx="354.2" cy="488.3" r="3.7"/>
					</g>
					<g>
						<circle class="st94" cx="366.9" cy="488.3" r="3.7"/>
					</g>
					<g>
						<circle class="st94" cx="379.6" cy="488.3" r="3.7"/>
					</g>
					<g>
						<circle class="st94" cx="392.3" cy="488.3" r="3.7"/>
					</g>
					<g>
						<circle class="st94" cx="404.9" cy="488.3" r="3.7"/>
					</g>
					<g>
						<circle class="st94" cx="417.6" cy="488.3" r="3.7"/>
					</g>
					<g>
						<circle class="st94" cx="430.3" cy="488.3" r="3.7"/>
					</g>
				</g>
				<g>
					<g>
						<circle class="st94" cx="-0.9" cy="501.7" r="3.7"/>
					</g>
					<g>
						<circle class="st94" cx="11.8" cy="501.7" r="3.7"/>
					</g>
					<g>
						<circle class="st94" cx="24.5" cy="501.7" r="3.7"/>
					</g>
					<g>
						<circle class="st94" cx="37.2" cy="501.7" r="3.7"/>
					</g>
					<g>
						<circle class="st94" cx="49.8" cy="501.7" r="3.7"/>
					</g>
					<g>
						<circle class="st94" cx="62.5" cy="501.7" r="3.7"/>
					</g>
					<g>
						<circle class="st94" cx="75.2" cy="501.7" r="3.7"/>
					</g>
					<g>
						<circle class="st94" cx="87.9" cy="501.7" r="3.7"/>
					</g>
					<g>
						<circle class="st94" cx="100.6" cy="501.7" r="3.7"/>
					</g>
					<g>
						<circle class="st94" cx="113.3" cy="501.7" r="3.7"/>
					</g>
					<g>
						<circle class="st94" cx="125.9" cy="501.7" r="3.7"/>
					</g>
					<g>
						<circle class="st94" cx="138.6" cy="501.7" r="3.7"/>
					</g>
					<g>
						<circle class="st94" cx="151.3" cy="501.7" r="3.7"/>
					</g>
					<g>
						<circle class="st94" cx="164" cy="501.7" r="3.7"/>
					</g>
					<g>
						<circle class="st94" cx="176.7" cy="501.7" r="3.7"/>
					</g>
					<g>
						<circle class="st94" cx="189.3" cy="501.7" r="3.7"/>
					</g>
					<g>
						<circle class="st94" cx="202" cy="501.7" r="3.7"/>
					</g>
					<g>
						<circle class="st94" cx="214.7" cy="501.7" r="3.7"/>
					</g>
					<g>
						<circle class="st94" cx="227.4" cy="501.7" r="3.7"/>
					</g>
					<g>
						<circle class="st94" cx="240.1" cy="501.7" r="3.7"/>
					</g>
					<g>
						<circle class="st94" cx="252.8" cy="501.7" r="3.7"/>
					</g>
					<g>
						<circle class="st94" cx="265.4" cy="501.7" r="3.7"/>
					</g>
					<g>
						<circle class="st94" cx="278.1" cy="501.7" r="3.7"/>
					</g>
					<g>
						<circle class="st94" cx="290.8" cy="501.7" r="3.7"/>
					</g>
					<g>
						<circle class="st94" cx="303.5" cy="501.7" r="3.7"/>
					</g>
					<g>
						<circle class="st94" cx="316.2" cy="501.7" r="3.7"/>
					</g>
					<g>
						<circle class="st94" cx="328.9" cy="501.7" r="3.7"/>
					</g>
					<g>
						<circle class="st94" cx="341.5" cy="501.7" r="3.7"/>
					</g>
					<g>
						<circle class="st94" cx="354.2" cy="501.7" r="3.7"/>
					</g>
					<g>
						<circle class="st94" cx="366.9" cy="501.7" r="3.7"/>
					</g>
					<g>
						<circle class="st94" cx="379.6" cy="501.7" r="3.7"/>
					</g>
					<g>
						<circle class="st94" cx="392.3" cy="501.7" r="3.7"/>
					</g>
					<g>
						<circle class="st94" cx="404.9" cy="501.7" r="3.7"/>
					</g>
					<g>
						<circle class="st94" cx="417.6" cy="501.7" r="3.7"/>
					</g>
					<g>
						<circle class="st94" cx="430.3" cy="501.7" r="3.7"/>
					</g>
				</g>
				<g>
					<g>
						<circle class="st94" cx="-0.9" cy="515.1" r="3.7"/>
					</g>
					<g>
						<circle class="st94" cx="11.8" cy="515.1" r="3.7"/>
					</g>
					<g>
						<circle class="st94" cx="24.5" cy="515.1" r="3.7"/>
					</g>
					<g>
						<circle class="st94" cx="37.2" cy="515.1" r="3.7"/>
					</g>
					<g>
						<circle class="st94" cx="49.8" cy="515.1" r="3.7"/>
					</g>
					<g>
						<circle class="st94" cx="62.5" cy="515.1" r="3.7"/>
					</g>
					<g>
						<circle class="st94" cx="75.2" cy="515.1" r="3.7"/>
					</g>
					<g>
						<circle class="st94" cx="87.9" cy="515.1" r="3.7"/>
					</g>
					<g>
						<circle class="st94" cx="100.6" cy="515.1" r="3.7"/>
					</g>
					<g>
						<circle class="st94" cx="113.3" cy="515.1" r="3.7"/>
					</g>
					<g>
						<circle class="st94" cx="125.9" cy="515.1" r="3.7"/>
					</g>
					<g>
						<circle class="st94" cx="138.6" cy="515.1" r="3.7"/>
					</g>
					<g>
						<circle class="st94" cx="151.3" cy="515.1" r="3.7"/>
					</g>
					<g>
						<circle class="st94" cx="164" cy="515.1" r="3.7"/>
					</g>
					<g>
						<circle class="st94" cx="176.7" cy="515.1" r="3.7"/>
					</g>
					<g>
						<circle class="st94" cx="189.3" cy="515.1" r="3.7"/>
					</g>
					<g>
						<circle class="st94" cx="202" cy="515.1" r="3.7"/>
					</g>
					<g>
						<circle class="st94" cx="214.7" cy="515.1" r="3.7"/>
					</g>
					<g>
						<circle class="st94" cx="227.4" cy="515.1" r="3.7"/>
					</g>
					<g>
						<circle class="st94" cx="240.1" cy="515.1" r="3.7"/>
					</g>
					<g>
						<circle class="st94" cx="252.8" cy="515.1" r="3.7"/>
					</g>
					<g>
						<circle class="st94" cx="265.4" cy="515.1" r="3.7"/>
					</g>
					<g>
						<circle class="st94" cx="278.1" cy="515.1" r="3.7"/>
					</g>
					<g>
						<circle class="st94" cx="290.8" cy="515.1" r="3.7"/>
					</g>
					<g>
						<circle class="st94" cx="303.5" cy="515.1" r="3.7"/>
					</g>
					<g>
						<circle class="st94" cx="316.2" cy="515.1" r="3.7"/>
					</g>
					<g>
						<circle class="st94" cx="328.9" cy="515.1" r="3.7"/>
					</g>
					<g>
						<circle class="st94" cx="341.5" cy="515.1" r="3.7"/>
					</g>
					<g>
						<circle class="st94" cx="354.2" cy="515.1" r="3.7"/>
					</g>
					<g>
						<circle class="st94" cx="366.9" cy="515.1" r="3.7"/>
					</g>
					<g>
						<circle class="st94" cx="379.6" cy="515.1" r="3.7"/>
					</g>
					<g>
						<circle class="st94" cx="392.3" cy="515.1" r="3.7"/>
					</g>
					<g>
						<circle class="st94" cx="404.9" cy="515.1" r="3.7"/>
					</g>
					<g>
						<circle class="st94" cx="417.6" cy="515.1" r="3.7"/>
					</g>
					<g>
						<circle class="st94" cx="430.3" cy="515.1" r="3.7"/>
					</g>
				</g>
				<g>
					<rect x="-367.8" y="575.7" class="st53" width="878.1" height="11.5"/>
				</g>
				<g>
					<rect x="-341.2" y="584.7" class="st89" width="827.2" height="57.3"/>
				</g>
			</g>
		</g>
	</g>
</g>
<g id="hand">
	<g>
		<path class="st103" d="M-206.9,1510.2c1.2-1.2,215.8-290.5,227.8-318.3S42.6,1037.6,63.1,999c20.5-38.6,28.9-121.8,36.2-148.3
			c7.2-26.5,14.5-26.5,26.5-50.6s6-79.6,8.4-94c2.4-14.5,26.5-13.3,37.4-7.2c10.8,6,28.9,22.9,32.5,51.8c3.6,28.9-6,53-2.4,89.2
			c3.6,36.2-8.4,75.9-10.8,83.2s-10.8,21.7-10.8,21.7s367.7-129,384.6-133.8c16.9-4.8,53-3.6,54.2,21.7c1.2,25.3-2.4,31.3-20.5,38.6
			s-48.2,26.5-48.2,26.5l-3.6,48.2l-64.1,262c0,0-25.1,18.9-39.6,27.3s-18.1,9.6-24.1,13.3c-6,3.6-13.3,9.6-18.1,15.7
			c-4.8,6-31.3,38.6-48.2,49.4s-51.8,57.9-71.1,65.1c-19.3,7.2-68.7,39.8-80.8,51.8c-12.1,12.1-36.2,26.5-44.6,31.3
			s-38.6,38.6-38.6,38.6l-9.6,20.5h-327.9L-206.9,1510.2z"/>
	</g>
	<g>
		<path class="st104" d="M180.1,944.8c0,0,3.6,30.1,6,45.8c2.4,15.7,14.5,71.1,14.5,71.1l0.6-124.3L180.1,944.8z"/>
	</g>
	<g>
		<path class="st104" d="M223.5,1214.8c0,0,6,12.1,3.6,16.9s-18.1,42.2-15.7,41c2.4-1.2,22.9-42.2,25.3-36.2
			c2.4,6-15.7,66.3-13.3,62.7c2.4-3.6,19.3-68.7,28.9-69.9c9.6-1.2,24.1,0,26.5,15.7c2.4,15.7,8.4,62.7,8.4,56.7
			c0-6-15.7-62.7,0-67.5s28.9,18.1,30.1,24.1s-3.6-27.7,3.6-31.3c7.2-3.6,27.7,12.1,27.7,12.1s24.1,50.6,22.9,56.7
			c-1.2,6-8.4-33.8-12.1-45.8c-3.6-12.1-9.6-18.1-2.4-20.5c7.2-2.4,7.2-2.4,14.5-2.4c7.2,0,12.1,2.4,14.5,4.8
			c2.4,2.4,2.4-1.2,3.6-3.6c1.2-2.4,9.6-2.4,16.9-3.6s24.1-1.2,26.5,3.6c2.4,4.8,1.2,13.3,2.4,10.8c1.2-2.4,10.8-10.8,19.3-12.1
			c8.4-1.2,16.9-10.8,16.9-10.8l14.5-12.1H223.5V1214.8z"/>
	</g>
	<g>
		<path class="st103" d="M550.2,1111.1c0,0-7.2,19.3-2.4,32.5s1.2,28.2,1.2,32.5c0,8.4,1.2,10.8,1.2,10.8s10.8-4.8,26.5-14.5
			s32.5-22.9,31.3-39.8c-1.2-16.9,1.2-22.9-13.3-25.3C580.3,1105.1,550.2,1111.1,550.2,1111.1z"/>
	</g>
	<g>
		<path class="st103" d="M550.2,1034c0,0-11.3,20.1-11.1,29.9c0.2,9.8,2.6,35.2,13.5,40s30.1,7.2,38.6,0c8.4-7.2,9.6-4.8,9.6-20.5
			c0-15.7,6-21.7-3.6-31.3c-9.6-9.6-13.3-9.6-19.3-15.7S561,1027.9,550.2,1034z"/>
	</g>
	<g>
		<path class="st103" d="M550.2,941.1v13.3c0,0-9.6,18.1-4.8,39.8s3.6,31.3,16.9,33.8c13.3,2.4,37.4-8.4,42.2-14.5
			c4.8-6,15.7-26.5,8.4-36.2c-7.2-9.6-19.3-19.3-28.9-24.1s-4.8-2.4-14.5-7.2C559.8,941.1,550.2,941.1,550.2,941.1z"/>
	</g>
	<g>
		<path class="st104" d="M591.2,1158.8c-7.6,2.5-15.8,4.1-23.8,3c-1.6-0.2-3.2-0.5-4.6-1.3c-1.1-0.6-2.1-1.5-2.8-2.6
			c-1.6-2.2-2.3-5-2.7-7.7c-0.5-3.1-0.6-6.2-0.8-9.3c-0.1-1.9-0.4-3.7-1.5-5.4c-0.8-1.3-1.9-2.4-2.9-3.6c-1-1.3-1.7-2.6-2.1-4.2
			c-0.4-1.8-0.8-3.6-1-5.4c-0.4-3.8-0.3-7.6,0.5-11.3c0,0,0-0.1,0.1-0.1c-0.4,0.1-0.6,0.1-0.6,0.1s-7.2,19.3-2.4,32.5
			s1.2,28.2,1.2,32.5c0,8.4,1.2,10.8,1.2,10.8s10.8-4.8,26.5-14.5c7.2-4.4,14.6-9.6,20.4-15.5
			C594.3,1157.7,592.8,1158.3,591.2,1158.8z"/>
	</g>
	<g>
		<path class="st104" d="M591.1,1094.6c-4.5,0.9-9.2,1.6-13.8,1.5c-4.2-0.1-8.2-0.8-12.3-1.8c-3-0.7-6.3-1.6-8.9-3.4
			c-1.9-1.3-3.1-3.2-3.8-5.4c-0.4-1.4-0.7-2.8-1-4.2c-0.2-1-0.3-1.9-0.6-2.9c-0.3-0.9-0.7-1.7-1.1-2.5c-0.9-1.5-1.9-2.9-2.3-4.5
			c-0.6-2.1-0.4-4.5-0.3-6.7c0.2-4.1,0.4-8.3,0.3-12.4c0-3.7-0.1-7.4,0.4-11.1c0.3-2.5,0.8-5.2,2-7.5c-0.2,0.1-0.5,0.2-0.7,0.4
			c0,0-11.3,20.1-11.1,29.9c0.2,9.8,2.6,35.2,13.5,40c10.8,4.8,30.1,7.2,38.6,0c6.2-5.3,8.5-5.4,9.3-11.3
			C596.6,1093.4,593.9,1094.1,591.1,1094.6z"/>
	</g>
	<g>
		<path class="st104" d="M597.3,1015.1c-2.4,0.7-4.7,1.7-7.2,2.1c-4,0.7-8.3,0.6-12.2-0.2c-2.1-0.4-4.1-1.1-6-1.8
			c-2.2-0.9-4.3-2.1-6.7-2.4c-2.3-0.3-4.7,0-6.9-0.6c-0.9-0.2-1.7-0.6-2.4-1.2c-0.6-0.5-1-1.1-1.5-1.8c-1-1.5-1.6-3.2-2.1-4.9
			c-0.5-1.5-0.9-3.1-1.2-4.7c-0.9-5-0.8-10.1-0.7-15.2c0-2.6,0.1-5.1,0-7.7c-0.1-2.5-0.3-5-0.5-7.5c-0.4-4.8-0.9-9.7-0.8-14.6
			c-0.7,1.3-9.4,18.8-4.8,39.7c4.8,21.7,3.6,31.3,16.9,33.8c13.2,2.4,37.2-8.4,42.1-14.4C601,1013.9,598.9,1014.6,597.3,1015.1z"/>
	</g>
	<g>
		<path class="st104" d="M-70.7,1390.8c9.6-3.6,88-73.5,92.8-115.7s48.2-132.6,54.2-139.8c6-7.2-30.1,48.2,16.9,77.2
			s78.4,37.4,78.4,37.4s-68.7,49.4-65.1,67.5s-8.4,50.6,10.8,88s36.2,68.7,27.7,53c-8.4-15.7-73.5-85.6-82-85.6s13.3,53,19.3,66.3
			c6,13.3,20.5,59.1,13.3,39.8c-7.2-19.3-88-130.2-107.3-113.3C-30.9,1382.4-70.7,1390.8-70.7,1390.8z"/>
	</g>
</g>
<g id="smartphone">
	<g>
		<g>
			<defs>
				<rect id="SVGID_9_" x="198.3" y="486.7" width="353.4" height="725.3"/>
			</defs>
			<clipPath id="SVGID_2_">
				<use xlink:href="#SVGID_9_"  style="overflow:visible;"/>
			</clipPath>
			<g style="clip-path:url(#SVGID_2_);">
				<defs>
					<rect id="SVGID_11_" x="198.3" y="486.7" width="353.4" height="725.3"/>
				</defs>
				<clipPath id="SVGID_4_">
					<use xlink:href="#SVGID_11_"  style="overflow:visible;"/>
				</clipPath>
				<path style="clip-path:url(#SVGID_4_);fill:#474848;" d="M510.2,486.8L510.2,486.8c-0.7,0-1.5-0.1-2.3-0.1H242
					c-0.8,0-1.5,0-2.2,0.1h0c-23.1,1.2-41.4,20.3-41.4,43.6v637.9c0,22.9,17.8,41.8,40.2,43.6c0.4,0,0.8,0.1,1.2,0.1
					c0.7,0,1.5,0.1,2.3,0.1H508c0.8,0,1.5,0,2.3-0.1c0.4,0,0.8,0,1.2-0.1c22.5-1.8,40.3-20.6,40.3-43.6V530.4
					C551.7,507.1,533.3,488,510.2,486.8 M541.9,1157.1c0,20-15.6,36.9-35.5,38.5c-0.4,0-0.7,0.1-1.1,0.1c-0.7,0-1.3,0.1-2,0.1H246.7
					c-0.7,0-1.4,0-2-0.1c-0.4,0-0.7,0-1-0.1c-19.9-1.6-35.5-18.5-35.5-38.5V541.7c0-20.5,16-37.4,36.5-38.5h0l0.1,0c0.7,0,1.3,0,2,0
					h256.6c0.7,0,1.3,0,2,0l0.1,0c20.5,1.1,36.6,18,36.6,38.5V1157.1z"/>
				<path style="clip-path:url(#SVGID_4_);" d="M509.9,494.2l-0.2,0c-0.6,0-1.2,0-1.8,0H242c-0.6,0-1.2,0-1.8,0l-0.2,0H240
					c-19.2,1.1-34.3,17-34.3,36.3v637.9c0,18.8,14.7,34.7,33.5,36.2c0.3,0,0.6,0,0.9,0.1l0.1,0c0.6,0,1.3,0,1.9,0H508
					c0.6,0,1.3,0,1.9,0l0.1,0c0.3,0,0.6,0,0.9-0.1c18.7-1.5,33.4-17.4,33.4-36.2V530.4C544.3,511.1,529.2,495.2,509.9,494.2
					 M534.6,1168.3c0,13.8-10.8,25.5-24.5,26.6c-0.1,0-0.3,0-0.4,0l-0.1,0l-0.1,0l-0.1,0l-0.1,0l-0.1,0c-0.4,0-0.9,0-1.3,0H242
					c-0.5,0-0.9,0-1.4,0l-0.1,0l-0.1,0l-0.1,0l-0.1,0l-0.1,0c-0.1,0-0.2,0-0.4,0c-13.8-1.1-24.5-12.7-24.5-26.6V530.4
					c0-14,10.9-25.7,24.9-26.6h0.2l0.4,0c0.4,0,0.8,0,1.2,0H508c0.4,0,0.8,0,1.2,0l0.1,0l0.1,0c14.1,0.7,25.2,12.4,25.2,26.6V1168.3
					z"/>
				<path style="clip-path:url(#SVGID_4_);" d="M465.4,503.8v3.5c0,11.7-9.5,21.2-21.2,21.2H305.8c-11.7,0-21.2-9.5-21.2-21.2v-3.5
					H465.4z"/>
				<path style="clip-path:url(#SVGID_4_);" d="M465.4,503.8v3.5c0,11.7-9.5,21.2-21.2,21.2H305.8c-11.7,0-21.2-9.5-21.2-21.2v-3.5
					H465.4z"/>
			</g>
			<g style="clip-path:url(#SVGID_2_);">
				<defs>
					<path id="SVGID_13_" d="M353,506.7c-0.2,0-0.4,0.2-0.4,0.4v3.7c0,0.2,0.2,0.4,0.4,0.4h41.7c0.2,0,0.4-0.2,0.4-0.4V507
						c0-0.2-0.2-0.4-0.4-0.4H353z"/>
				</defs>
				<use xlink:href="#SVGID_13_"  style="overflow:visible;fill:#212121;"/>
				<clipPath id="SVGID_6_">
					<use xlink:href="#SVGID_13_"  style="overflow:visible;"/>
				</clipPath>
				<rect x="352.7" y="506.7" style="clip-path:url(#SVGID_6_);fill:#212121;" width="42.4" height="4.5"/>
			</g>
			<g style="clip-path:url(#SVGID_2_);">
				<defs>
					<rect id="SVGID_15_" x="198.3" y="486.7" width="353.4" height="725.3"/>
				</defs>
				<clipPath id="SVGID_8_">
					<use xlink:href="#SVGID_15_"  style="overflow:visible;"/>
				</clipPath>
				<path style="clip-path:url(#SVGID_8_);fill:#EB0000;" d="M509.7,503.8h-0.2l-0.4,0c-0.4,0-0.8,0-1.2,0h-38.4
					c-2.2,0.1-4,1.8-4.2,4c0,0.1,0,0.3,0,0.5v0.1c-0.5,11.2-9.8,20.2-21.2,20.2h-65.5h-7.4h-65.5c-11.4,0-20.6-8.9-21.2-20.2v-0.1
					c0-0.2,0-0.3,0-0.5c-0.2-2.2-2-3.9-4.2-4H242c-0.4,0-0.7,0-1.2,0l-0.4,0h-0.2c-14,0.9-24.9,12.5-24.9,26.6v637.9
					c0,13.8,10.8,25.5,24.5,26.6c0.1,0,0.2,0,0.4,0h0.1l0.1,0h0.2l0.1,0c0.5,0,0.9,0,1.4,0h129.3h7.4H508c0.5,0,0.9,0,1.4,0l0.1,0
					h0.2l0.1,0h0.1c0.1,0,0.2,0,0.4,0c13.7-1.1,24.5-12.8,24.5-26.6V530.4C534.6,516.3,523.7,504.7,509.7,503.8"/>
				<polygon style="clip-path:url(#SVGID_8_);fill:#FFFFFF;" points="384.3,827 397.5,827 419.8,849.2 397.3,871.6 384.3,871.6 
					401.5,854.7 380.2,854.7 380.2,871.6 369.8,871.6 369.8,854.7 348.4,854.7 365.5,871.7 352.5,871.7 330.2,849.5 352.7,827 
					365.7,827 348.7,844.1 369.8,844.1 369.8,827 380.2,827 380.2,844.1 401.6,844.1 				"/>
			</g>
		</g>
	</g>
</g>
<g id="ipad">
</g>
</svg>
