<svg class="color-immutable" width="59" height="20" viewBox="0 0 59 20" fill="none" xmlns="http://www.w3.org/2000/svg"><g clip-path="url(#a)"><path d="M.5 2A1.5 1.5 0 0 1 2 .5h55A1.5 1.5 0 0 1 58.5 2v16a1.5 1.5 0 0 1-1.5 1.5H2A1.5 1.5 0 0 1 .5 18V2Z" stroke="#000"/><path d="M12.877 7.71h-2.449c-.048-.575-.263-1.013-.644-1.314-.376-.306-.905-.459-1.587-.459-.607 0-1.08.121-1.418.363-.333.236-.5.57-.5.999 0 .387.161.666.483.838.312.172 1.102.413 2.37.725 1.337.333 2.263.669 2.779 1.007.95.623 1.426 1.49 1.426 2.602 0 1.22-.478 2.18-1.434 2.884-.844.618-1.985.927-3.424.927-1.601 0-2.844-.365-3.73-1.096-.887-.73-1.346-1.77-1.378-3.118h2.562c.037.656.206 1.142.507 1.459.473.505 1.185.757 2.135.757.645 0 1.155-.126 1.531-.379.424-.29.636-.684.636-1.184 0-.5-.298-.865-.894-1.096-.327-.129-1.1-.362-2.32-.7-.763-.21-1.359-.409-1.789-.597-.43-.188-.773-.397-1.031-.628-.602-.537-.902-1.279-.902-2.224 0-1.133.47-2.03 1.41-2.69.8-.565 1.84-.847 3.118-.847 1.122 0 2.062.223 2.82.669 1.09.64 1.664 1.673 1.723 3.102ZM22.344 7.162h-2.24c-.21-.908-.725-1.362-1.547-1.362-.87 0-1.487.535-1.853 1.604-.15.435-.27 1.093-.362 1.973.354-.478.73-.821 1.128-1.03.403-.21.886-.315 1.45-.315 1.106 0 1.995.392 2.667 1.176.639.741.958 1.67.958 2.788 0 1.326-.43 2.393-1.289 3.198-.773.725-1.702 1.088-2.787 1.088-1.391 0-2.474-.524-3.247-1.571-.774-1.053-1.16-2.52-1.16-4.399 0-2.009.413-3.583 1.24-4.721.8-1.101 1.894-1.652 3.28-1.652 1.305 0 2.304.438 2.997 1.313.397.505.652 1.142.765 1.91ZM18.356 9.86c-.564 0-1.013.236-1.346.709-.3.419-.45.918-.45 1.498 0 .575.152 1.077.459 1.507.333.478.79.717 1.37.717.563 0 1.017-.228 1.36-.685.323-.43.484-.937.484-1.522 0-.575-.145-1.067-.435-1.475-.354-.5-.835-.75-1.442-.75ZM23.448 13.043h2.223c.183.913.712 1.37 1.588 1.37.494 0 .894-.167 1.2-.5.311-.338.55-.862.717-1.57.107-.452.185-.965.234-1.54-.36.505-.73.865-1.112 1.08-.376.21-.835.314-1.378.314-.865 0-1.617-.252-2.256-.757a3.609 3.609 0 0 1-1.047-1.378 4.529 4.529 0 0 1-.37-1.837c0-1.326.453-2.4 1.36-3.222.78-.71 1.714-1.064 2.805-1.064.671 0 1.291.15 1.86.451.57.301 1.048.728 1.435 1.281.682.983 1.023 2.364 1.023 4.141 0 1.644-.3 3.046-.902 4.206-.784 1.51-1.972 2.264-3.561 2.264-1.058 0-1.934-.293-2.627-.878-.687-.586-1.085-1.373-1.192-2.36Zm3.915-7.114c-.505 0-.932.207-1.28.62-.35.42-.524.951-.524 1.596 0 .52.126.983.378 1.386.344.553.827.83 1.45.83.564 0 1.016-.226 1.354-.677.317-.425.475-.93.475-1.515 0-.618-.164-1.141-.491-1.571a1.636 1.636 0 0 0-1.362-.669Z" fill="#000"/></g><defs><clipPath id="a"><path fill="#fff" d="M0 0h59v20H0z"/></clipPath></defs></svg>