<?xml version="1.0" encoding="utf-8"?>
<!-- Generator: Adobe Illustrator 24.2.0, SVG Export Plug-In . SVG Version: 6.00 Build 0)  -->
<svg version="1.0" xmlns="http://www.w3.org/2000/svg" xmlns:xlink="http://www.w3.org/1999/xlink" x="0px" y="0px"
	 viewBox="0 0 24 24" enable-background="new 0 0 24 24" xml:space="preserve">
<g id="SVG_x5F_24x24pt">
	<path id="backgroundBlue" fill="#2D327D" d="M0,22.5v-21C0,0.675,0.675,0,1.5,0h21C23.325,0,24,0.675,24,1.5v21
		c0,0.825-0.675,1.5-1.5,1.5h-21C0.675,24,0,23.325,0,22.5z"/>
	<g id="content">
		<path fill="#FFFFFF" d="M20.394,15.593c-0.559-3.552-1.93-9.705-1.93-9.705c-0.118-0.546-0.797-1.137-1.449-1.137H3v0.846v0.05
			h3.169c0.211,0,0.381,0.171,0.381,0.381v4.214c0,0.211-0.171,0.381-0.381,0.381H3v1.522h11.069c0.205,0,0.37,0.166,0.37,0.37
			s-0.166,0.37-0.37,0.37H3v0.68h11.069c0.205,0,0.37,0.166,0.37,0.37s-0.166,0.37-0.37,0.37H3v4.877h2.987
			c0.386,0,0.642-0.177,0.642-0.644c0-1.73,1.552-3.129,3.24-3.129c1.827,0,3.17,1.461,3.24,3.129c0,0.4,0.211,0.644,0.649,0.644
			h5.993c0.374,0,0.677-0.303,0.677-0.677c0,0,0-2.249,0-2.454C20.429,15.849,20.405,15.667,20.394,15.593z M14.254,10.624H7.909
			c-0.253,0-0.458-0.205-0.458-0.458V6.105c0-0.253,0.205-0.458,0.458-0.458h4.204c0.308,0,0.479,0.245,0.597,0.458l1.904,3.835
			C14.779,10.349,14.507,10.624,14.254,10.624z M18.733,14.861l-0.044,0.009c-0.29,0.062-0.587-0.073-0.731-0.333L13.82,6.266
			c-0.022-0.039-0.037-0.081-0.047-0.124c-0.052-0.243,0.114-0.534,0.346-0.534l2.744,0.01c0.397,0,0.614,0.224,0.727,0.634
			l1.662,7.808C19.33,14.425,19.097,14.783,18.733,14.861z"/>
		<path fill="#FFFFFF" d="M21.631,9.959l-0.274-1.974l-0.004-0.024c-0.082-0.393-0.21-0.834-0.548-1.124
			c-0.284-0.244-0.671-0.353-1.253-0.353H19.11l0.14,0.741h0.303c0.509,0,0.684,0.099,0.771,0.174
			c0.131,0.113,0.225,0.329,0.303,0.701l0.272,1.961c0.026,0.185,0.184,0.32,0.366,0.32c0.017,0,0.034-0.001,0.051-0.004
			C21.518,10.349,21.66,10.162,21.631,9.959z"/>
		<path fill="#FFFFFF" d="M9.87,21c-1.295,0-2.348-1.054-2.348-2.349c0-1.295,1.054-2.348,2.348-2.348
			c1.295,0,2.349,1.053,2.349,2.348C12.218,19.946,11.165,21,9.87,21z M9.87,17.393c-0.67,0-1.215,0.545-1.215,1.215
			c0,0.67,0.545,1.215,1.215,1.215c0.67,0,1.216-0.545,1.216-1.215C11.085,17.938,10.54,17.393,9.87,17.393z"/>
	</g>
</g>
</svg>
