<?xml version="1.0" encoding="utf-8"?>
<!-- Generator: Adobe Illustrator 26.5.0, SVG Export Plug-In . SVG Version: 6.00 Build 0)  -->
<svg version="1.0" xmlns="http://www.w3.org/2000/svg" xmlns:xlink="http://www.w3.org/1999/xlink" x="0px" y="0px"
	 viewBox="0 0 24 24" enable-background="new 0 0 24 24" xml:space="preserve">
<g id="SVG_x5F_24x24pt">
	<path id="backgroundBlue" fill="#2D327D" d="M0,22.5v-21C0,0.675,0.675,0,1.5,0h21C23.325,0,24,0.675,24,1.5v21
		c0,0.825-0.675,1.5-1.5,1.5h-21C0.675,24,0,23.325,0,22.5z"/>
	<g id="content_1_">
		<path fill="#FFFFFF" d="M20.182,13.273c-0.002-0.002-5.532-2.594-5.532-2.594c-0.613-0.36-1.032-1.015-1.06-1.771V7.196
			c0-0.876-0.717-1.594-1.593-1.594c-0.877,0-1.593,0.717-1.593,1.594v0.067c0,0.032,0.026,0.059,0.059,0.059h0.765
			c0.032,0,0.059-0.026,0.059-0.059V7.196c0-0.392,0.318-0.71,0.71-0.71c0.391,0,0.71,0.318,0.71,0.71v5.184
			c0,0.393-0.318,0.711-0.711,0.711c-0.392,0-0.71-0.318-0.71-0.711c0-0.004,0.001-0.009,0.001-0.013V8.852
			c0-0.032-0.026-0.059-0.059-0.059h-0.766c-0.032,0-0.059,0.027-0.059,0.059v0.056l-0.001,0.001
			c-0.028,0.756-0.447,1.411-1.061,1.771c0,0-5.543,2.592-5.545,2.594C3.319,13.51,2.99,14.002,2.99,14.572
			c0,0.801,0.65,1.45,1.45,1.45h15.099c0.801,0,1.451-0.649,1.451-1.45C20.989,14.002,20.66,13.51,20.182,13.273z M20.132,14.572
			c0,0.324-0.265,0.589-0.589,0.589H4.449c-0.324,0-0.589-0.265-0.589-0.589l0,0c0-0.324,0.265-0.589,0.589-0.589h15.094
			C19.867,13.983,20.132,14.248,20.132,14.572L20.132,14.572z"/>
	</g>
</g>
</svg>
