<svg xmlns="http://www.w3.org/2000/svg" width="24" height="24" fill="none" viewBox="0 0 24 24"><path fill="#000" fill-rule="evenodd" d="M6.1 4.099h6.566l.118.117 5 5 .117.118V19.9H6.1V4.1M6.9 4.9v14.198H17.1V9.897H12.1V4.901zm6 .567 3.628 3.627H12.9zm2.1 6.433h-6V11.1h6zm0 2H9v-.802h6.002zm-5.457 1.815c.216-.12.505-.185.803-.04l.003.002a.63.63 0 0 1 .307.359c.044.12.057.248.061.357.008.204-.018.445-.04.649l-.004.037a7 7 0 0 0-.033.377 5 5 0 0 0 .353-.403l.08-.099c.13-.16.27-.334.4-.47.08-.084.17-.17.269-.236a.7.7 0 0 1 .416-.135h.005a.86.86 0 0 1 .408.116.72.72 0 0 1 .275.299c.105.21.106.447.098.604l-.013.178.089-.077.048-.043a4 4 0 0 1 .382-.315c.169-.119.38-.234.633-.273h.002c.407-.061.736.154.92.31.19.164.314.34.337.377l-.683.42q.005.008-.003-.003a1.2 1.2 0 0 0-.172-.184c-.126-.107-.222-.136-.28-.127a.7.7 0 0 0-.292.136 4 4 0 0 0-.305.253l-.055.049a2 2 0 0 1-.446.324.74.74 0 0 1-.709-.008.55.55 0 0 1-.258-.342 1 1 0 0 1-.027-.277c.001-.078.009-.16.015-.231l.001-.011q.01-.104.015-.194a1 1 0 0 0-.001-.143q-.037.032-.09.086c-.104.11-.217.25-.346.41q-.045.054-.09.112a4.6 4.6 0 0 1-.522.568 1.3 1.3 0 0 1-.328.214.7.7 0 0 1-.477.031.6.6 0 0 1-.366-.33 1 1 0 0 1-.083-.362 4 4 0 0 1 .035-.684v-.002l.001-.005a5 5 0 0 0 .04-.563c-.068.043-.15.122-.237.232a2.8 2.8 0 0 0-.295.469l-.016.032-.004.008L9 17l-.363-.17v-.002l.002-.004.007-.013a3 3 0 0 1 .105-.2c.07-.123.172-.289.299-.45.123-.154.289-.33.493-.445m.746 2.657.12-.382zm1.92-1.47-.004.001z" clip-rule="evenodd"/></svg>