<?xml version="1.0" encoding="utf-8"?>
<!-- Generator: Adobe Illustrator 26.5.0, SVG Export Plug-In . SVG Version: 6.00 Build 0)  -->
<svg version="1.0" xmlns="http://www.w3.org/2000/svg" xmlns:xlink="http://www.w3.org/1999/xlink" x="0px" y="0px"
	 viewBox="0 0 24 24" enable-background="new 0 0 24 24" xml:space="preserve">
<g id="SVG_x5F_24x24pt">
	<path id="backgroundBlue" fill="#2D327D" d="M0,22.5v-21C0,0.675,0.675,0,1.5,0h21C23.325,0,24,0.675,24,1.5v21
		c0,0.825-0.675,1.5-1.5,1.5h-21C0.675,24,0,23.325,0,22.5z"/>
	<g id="content">
		<path fill="#FFFFFF" d="M5.636,18.739c-0.096,0-0.192-0.037-0.265-0.11c-0.146-0.146-0.146-0.384,0-0.53l1.591-1.591
			c0.146-0.146,0.384-0.146,0.53,0c0.146,0.146,0.146,0.384,0,0.53l-1.591,1.591C5.828,18.702,5.732,18.739,5.636,18.739z"/>
		<path fill="#FFFFFF" d="M18.364,18.739c-0.096,0-0.192-0.037-0.265-0.11l-1.591-1.591c-0.146-0.146-0.146-0.384,0-0.53
			c0.146-0.146,0.384-0.146,0.53,0l1.591,1.591c0.146,0.146,0.146,0.384,0,0.53C18.556,18.702,18.46,18.739,18.364,18.739z"/>
		<path fill="#FFFFFF" d="M5.25,12.375H3c-0.207,0-0.375-0.168-0.375-0.375S2.793,11.625,3,11.625h2.25
			c0.207,0,0.375,0.168,0.375,0.375S5.457,12.375,5.25,12.375z"/>
		<path fill="#FFFFFF" d="M21,12.375h-2.25c-0.207,0-0.375-0.168-0.375-0.375s0.168-0.375,0.375-0.375H21
			c0.207,0,0.375,0.168,0.375,0.375S21.207,12.375,21,12.375z"/>
		<path fill="#FFFFFF" d="M12,21.375c-0.207,0-0.375-0.168-0.375-0.375v-2.25c0-0.207,0.168-0.375,0.375-0.375
			s0.375,0.168,0.375,0.375V21C12.375,21.207,12.207,21.375,12,21.375z"/>
		<path fill="#FFFFFF" d="M14.474,7.181V6.75H9.526v0.431c0,0.61-0.253,1.189-0.687,1.618c-0.872,0.861-1.394,2.074-1.334,3.409
			c0.104,2.307,1.973,4.179,4.28,4.287C14.368,16.616,16.5,14.557,16.5,12c0-1.257-0.516-2.393-1.346-3.209
			C14.721,8.366,14.474,7.787,14.474,7.181z"/>
		<path fill="#FFFFFF" d="M14.475,6V3.75c0-0.414-0.336-0.75-0.75-0.75h-3.45c-0.414,0-0.75,0.336-0.75,0.75V6H14.475z"/>
	</g>
</g>
</svg>
