<svg xmlns="http://www.w3.org/2000/svg" width="24" height="24" fill="none" viewBox="0 0 24 24"><path fill="#000" fill-rule="evenodd" d="M3.531 3A.531.531 0 0 0 3 3.531V6h4.691l1.5-3zm10.16 3H8.809l1.5-3h4.882zm2.618-3-1.5 3H21V3.531A.53.53 0 0 0 20.469 3zm-13.86-.552A1.53 1.53 0 0 1 3.53 2H20.47A1.53 1.53 0 0 1 22 3.531V7H2V3.531c0-.406.161-.795.448-1.083M3 21.027v-13H2v14h20v-14h-1v13zM9.74 10.56 9 10.158v7.684l.74-.403 5.5-3 .804-.439-.805-.439zM13.955 14 10 16.158v-4.316z" clip-rule="evenodd"/></svg>