<svg xmlns="http://www.w3.org/2000/svg" width="36" height="36" fill="none" viewBox="0 0 36 36"><path fill="#000" fill-rule="evenodd" d="M11.25 3.25h-.5v4h3v3.5H3.682l.373.728 3.322 6.49-1.417.486a3.15 3.15 0 0 1-2.048 0l-.324.946c.875.3 1.821.3 2.696 0l2.128-.73a3.15 3.15 0 0 1 2.048 0l2.128.73.324-.946-2.128-.73a4.15 4.15 0 0 0-2.447-.076l-3.02-5.898H21v-1h-1.75v-3.5H24v-1H11.75v-2H25.5v-1zm7 7.5h-3.5v-3.5h3.5zM5.646 29.646l22.5-22.5.707.708-22.5 22.5zM24.25 18.25h4.371a5.61 5.61 0 0 0-3.033-3.069l.385-.923a6.61 6.61 0 0 1 3.707 3.97l2.817 7.882c.155.326.253.695.253 1.095 0 1.4-1.12 2.545-2.516 2.545h-3.52a3.5 3.5 0 0 1-1.015 2H33v1H15v-1h5.801a3.5 3.5 0 0 1-1.015-2H15v-1h15.234c.83 0 1.516-.684 1.516-1.545 0-.24-.06-.469-.164-.682l-.012-.025-.01-.026-.436-1.222H24.25v-7m1.45 11.5a2.5 2.5 0 0 1-2.45 2 2.5 2.5 0 0 1-2.45-2zm5.07-5.5-1.787-5H25.25v5zM22.25 18v7.25H15v-1h6.25V18z" clip-rule="evenodd"/></svg>