<svg class="color-immutable" xmlns="http://www.w3.org/2000/svg" width="59" height="20" fill="none" viewBox="0 0 59 20"><g clip-path="url(#a)"><path fill="#EB0000" fill-rule="evenodd" d="M2 0a2 2 0 0 0-2 2v16a2 2 0 0 0 2 2h55a2 2 0 0 0 2-2V2a2 2 0 0 0-2-2z" clip-rule="evenodd"/><path fill="#fff" d="M9.388 4.2h4.042L8.43 15.8h-4.06zM26.092 12.366a.92.92 0 0 0 .843-.553L30.216 4.2H16.13l-5.001 11.6h4.025l3.786-8.69h5.973l-1.197 2.775-5.209-.019L22.71 15.8h4.582l-3.114-3.434zM44.092 4.234V6.29h-4.659l-.498 2.602q.838-.886 2.143-.886 1.282 0 2.231.688 1.408 1.036 1.408 3.149 0 2.072-1.503 3.282-1.17.95-2.8.95-1.836 0-2.95-.982-1.116-.988-1.18-2.665h2.271q.056.609.395 1.036.53.672 1.472.672.909 0 1.44-.656.514-.641.514-1.558 0-.997-.538-1.59-.538-.602-1.432-.602-1.092 0-1.7.981l-2.065-.031 1.1-6.447zM53.687 13.742v2.057h-8.33q0-.942.301-1.796.309-.855.862-1.471.427-.475.997-.926.578-.45 2.286-1.653.831-.578 1.163-1.076t.332-1.155q0-.76-.45-1.226-.444-.474-1.171-.474-1.788 0-1.843 2.57H45.61V8.34q0-2.103 1.178-3.259 1.148-1.123 2.967-1.123 1.614 0 2.697.918 1.179.996 1.179 2.681 0 1.472-.941 2.531-.31.348-.578.562-.27.205-1.416 1.005-1.092.759-1.566 1.162a6.4 6.4 0 0 0-.87.926z"/></g><defs><clipPath id="a"><path fill="#fff" d="M0 0h59v20H0z"/></clipPath></defs></svg>