<svg xmlns="http://www.w3.org/2000/svg" width="24" height="24" fill="none" viewBox="0 0 24 24"><path fill="#000" fill-rule="evenodd" d="M10.904 1.706 10.5 1.15l-.404.556-4 5.5L6 7.337V11h1v2.702l-2.558.301-.343.04-.084.336-1 4-.174.697.714-.08 1.446-.16L5 20.997h1l.001-2.272 6.001-.667-.002 2.94h1l.002-3.05 6.001-.668L19 20.998l1 .001.003-3.829 1.552-.172.445-.05v-5.009l-.558.065L14 12.88V11h1V7.337l-.096-.131zM13 11H8v2.585l5-.588zm-6-1V8h7v2zm3.5-7.15L7.482 7h6.036zm3.059 11.088L21 13.062v2.99l-1.552.173-7 .778-7.002.778-1.286.143.741-2.968 2.657-.312z" clip-rule="evenodd"/></svg>