<svg class="color-immutable" xmlns="http://www.w3.org/2000/svg" width="59" height="20" fill="none" viewBox="0 0 59 20"><path fill="#EB0000" fill-rule="evenodd" d="M2 0a2 2 0 0 0-2 2v16a2 2 0 0 0 2 2h55a2 2 0 0 0 2-2V2a2 2 0 0 0-2-2z" clip-rule="evenodd"/><path fill="#fff" fill-rule="evenodd" d="M38.737 12.897h-2.176c.068.898.49 1.732 1.17 2.318q1.014.862 2.567.862 2.333 0 3.484-2.223.884-1.708.883-4.13 0-2.617-1-4.065a3.95 3.95 0 0 0-1.404-1.257 3.8 3.8 0 0 0-1.821-.443 3.93 3.93 0 0 0-2.743 1.044q-1.333 1.21-1.333 3.164c-.006.62.12 1.235.367 1.803.225.528.575.993 1.02 1.353.629.496 1.409.76 2.208.743.47.015.936-.093 1.352-.312a3.5 3.5 0 0 0 1.084-1.056 10 10 0 0 1-.229 1.51q-.244 1.045-.697 1.54c-.302.329-.733.51-1.179.494q-1.285 0-1.553-1.345m.402-6.376a1.58 1.58 0 0 1 1.254-.609 1.6 1.6 0 0 1 1.332.657c.328.445.497.989.48 1.542a2.42 2.42 0 0 1-.464 1.487 1.648 1.648 0 0 1-2.744-.15c-.25-.409-.38-.88-.37-1.36a2.37 2.37 0 0 1 .512-1.567M51.863 4.765a3.6 3.6 0 0 0-2.318-.807 3.7 3.7 0 0 0-3.28 1.883q-.93 1.582-.93 4.192 0 3.67 1.782 5.19a3.78 3.78 0 0 0 4.285.347 3.8 3.8 0 0 0 1.36-1.44q.883-1.605.883-4.097a10.9 10.9 0 0 0-.34-2.784q-.449-1.677-1.442-2.484m-3.95 2.46q.41-1.313 1.546-1.313 1.166 0 1.592 1.313.33 1.02.331 2.792 0 2.08-.465 3.093t-1.42 1.013q-1.15 0-1.576-1.305a8.8 8.8 0 0 1-.33-2.666q-.001-1.882.322-2.927" clip-rule="evenodd"/><path fill="#fff" d="M9.22 4.2h4.056L8.258 15.8H4.185zM25.98 12.366a.93.93 0 0 0 .847-.553L30.119 4.2H15.984l-5.018 11.6h4.038l3.8-8.69h5.993l-1.201 2.775-5.226-.019 4.217 5.934h4.597l-3.124-3.434z"/></svg>