<svg xmlns="http://www.w3.org/2000/svg" width="24" height="24" fill="none" viewBox="0 0 24 24"><path fill="#000" fill-rule="evenodd" d="M5.5 2H5v20h15V2H5.5M6 21V3h13v18zm2-5h9v-1H8zm9 2H8v-1h9zm-8.88-5.988V7.015H7v4.997zm.985-4.997h2.07q.524 0 .823.063.3.063.542.224.67.437.67 1.32 0 .781-.554 1.23-.236.19-.537.275-.3.083-.744.083h-1.15v1.802h-1.12zm1.12.923v1.415h1q.445 0 .642-.154.242-.192.242-.564 0-.376-.281-.56-.204-.138-.663-.137zm6.07 4.074L18 7.015h-1.162l-1.172 3.742-1.154-3.742H13.34l1.68 4.997z" clip-rule="evenodd"/></svg>