<svg width="36" height="36" viewBox="0 0 36 36" fill="none" xmlns="http://www.w3.org/2000/svg"><path fill-rule="evenodd" clip-rule="evenodd" d="M17.562 4.422a4 4 0 0 1 4.625 1.828l.866-.5a5 5 0 1 0-7.199 6.595h.001l.117.084a4.997 4.997 0 0 0-3.444 3.317 5 5 0 0 0 1.9 5.599l4.41 3.127.003.001a3.998 3.998 0 0 1 .408 6.226 4 4 0 0 1-6.166-.949l-.866.5a5 5 0 1 0 7.199-6.595h-.001l-.117-.084a5.002 5.002 0 0 0 1.544-8.916l-4.41-3.127-.003-.001a4 4 0 0 1 1.133-7.105Zm.572 18.325a4 4 0 0 0 2.134-7.274l-.003-.001-3.13-2.219a4 4 0 0 0-2.133 7.274l.003.001 3.13 2.219Z" fill="#000"/></svg>