<svg xmlns="http://www.w3.org/2000/svg" width="48" height="48" version="1.1" viewBox="0 0 48 48">
  <path fill="none" fill-rule="evenodd" stroke="#000" stroke-width="1" d="M39.833,10.2197 C41.973,10.2197 42.398,14.4997 39.033,14.4997 L32.037,14.4997 C28.718,14.4997 28.839,10.2197 31.337,10.3197 C30.238,6.6367 35.136,4.9447 36.635,8.3277 C37.955,7.2517 40.065,8.2857 39.833,10.2197 Z M9.0005,34.0801 C5.7905,34.0801 5.1525,40.5001 10.1995,40.5001 L20.6945,40.5001 C25.6735,40.5001 25.4925,34.0801 21.7445,34.2281 C23.3935,28.7041 16.0465,26.1661 13.7975,31.2431 C11.8175,29.6281 8.6525,31.1801 9.0005,34.0801 Z M9.2852,32.2705 C7.3582,28.8075 9.0542,23.8245 13.5532,24.0025 C10.5292,13.8745 23.9972,9.2215 28.1202,18.5285 C31.7512,15.5675 37.5542,18.4125 36.9162,23.7295 C42.8012,23.7295 43.9712,35.4995 34.7172,35.4995 L24.0982,35.4995"/>
</svg>
