<svg xmlns="http://www.w3.org/2000/svg" width="36" height="36" version="1.1" viewBox="0 0 36 36">
  <path fill="none" fill-rule="evenodd" stroke="#000" stroke-width="1" d="M16.5015,18.75 C15.2595,18.75 14.2515,17.7435 14.2515,16.5 M5.25,9.75 L3,9.75 M30.75,12.75 L5.25,12.75 M6.75,27.7515 C6.75,28.581 7.422,29.2515 8.25,29.2515 L11.25,29.2515 C12.078,29.2515 12.75,28.581 12.75,27.7515 L14.25,15.75 L29.25,15.75 L30.75,12.75 L30.7515,9.75 C30.7515,8.922 30.081,8.25 29.2515,8.25 L6.75,8.25 C5.922,8.25 5.25,8.922 5.25,9.75 L5.25,14.2515 C5.25,15.0795 5.922,15.7515 6.75,15.7515 L8.25,15.75 L6.75,27.7515 Z M13.5,21.74925 L13.5,21.74925 C13.4205,21.74925 19.3485,23.12025 20.175,15.74925 M30.75,9.75 L32.25,9.75 L32.25,11.25 L30.75,11.25 M29.25,6 L29.25,8.25"/>
</svg>
