<?xml version="1.0" encoding="utf-8"?>
<!-- Generator: Adobe Illustrator 24.2.0, SVG Export Plug-In . SVG Version: 6.00 Build 0)  -->
<svg version="1.0" id="Ebene_1" xmlns="http://www.w3.org/2000/svg" xmlns:xlink="http://www.w3.org/1999/xlink" x="0px" y="0px"
	 viewBox="0 0 24 24" enable-background="new 0 0 24 24" xml:space="preserve">
<g id="SVG_x5F_24x24pt">
	<path id="backgroundBlue" fill="#2D327D" d="M0,22.5v-21C0,0.675,0.675,0,1.5,0h21C23.325,0,24,0.675,24,1.5v21
		c0,0.825-0.675,1.5-1.5,1.5h-21C0.675,24,0,23.325,0,22.5z"/>
	<g id="content">
		<polygon fill="#FFFFFF" points="12,11.644 12.75,11.644 12.75,13.144 12,13.144 12,11.644 		"/>
		<path fill="#FFFFFF" d="M5.58,13.736c0.211-0.211,0.497-0.329,0.796-0.329h6.484c0.298,0,0.584,0.118,0.795,0.329l2.614,2.614
			l4.387,0.364C20.851,16.73,21,16.892,21,17.087v2.338c0,0.207-0.168,0.375-0.375,0.375l0,0h-0.412v-0.431
			c0-1.242-1.008-2.25-2.25-2.25c-1.242,0-2.25,1.008-2.25,2.25V19.8H8.25v-0.431c0-1.242-1.008-2.25-2.25-2.25
			c-1.242,0-2.25,1.008-2.25,2.25V19.8H3.375C3.168,19.8,3,19.632,3,19.425v-2.643c0-0.298,0.119-0.585,0.33-0.796L5.58,13.736
			L5.58,13.736z M10.085,14.494l0.002,1.538c0,0.207,0.168,0.374,0.375,0.374h4.259c0.124,0,0.225-0.101,0.225-0.225
			c0-0.06-0.024-0.117-0.066-0.159l-1.793-1.794c-0.07-0.07-0.166-0.11-0.265-0.11H10.46C10.253,14.119,10.085,14.287,10.085,14.494
			L10.085,14.494L10.085,14.494z M4.513,16.406h4.485c0.207,0,0.375-0.168,0.375-0.375v-1.537c0-0.207-0.168-0.375-0.375-0.375
			H6.413c-0.099,0-0.195,0.04-0.265,0.11l-1.793,1.794c-0.042,0.042-0.066,0.099-0.066,0.159
			C4.288,16.305,4.389,16.406,4.513,16.406L4.513,16.406z"/>
		<path fill-rule="evenodd" clip-rule="evenodd" fill="#FFFFFF" d="M5.985,20.336c0.518,0,0.937-0.42,0.937-0.937
			c0-0.518-0.42-0.937-0.937-0.937c-0.518,0-0.937,0.42-0.937,0.937C5.048,19.916,5.467,20.336,5.985,20.336L5.985,20.336z
			 M6.006,17.678c0.942,0,1.706,0.765,1.706,1.706c0,0.942-0.765,1.706-1.706,1.706c-0.942,0-1.706-0.764-1.706-1.706
			C4.3,18.443,5.064,17.678,6.006,17.678L6.006,17.678z"/>
		<path fill-rule="evenodd" clip-rule="evenodd" fill="#FFFFFF" d="M17.962,20.336c0.517,0,0.937-0.42,0.937-0.937
			c0-0.518-0.42-0.937-0.937-0.937c-0.518,0-0.938,0.42-0.938,0.937C17.025,19.916,17.445,20.336,17.962,20.336L17.962,20.336z
			 M17.962,17.692c0.942,0,1.706,0.765,1.706,1.706c0,0.942-0.764,1.706-1.706,1.706c-0.942,0-1.706-0.764-1.706-1.706
			C16.256,18.457,17.021,17.692,17.962,17.692L17.962,17.692z"/>
		<g>
			<path fill="#FFFFFF" d="M4.853,3v0.415H4.17v1.833H3.68V3.415H3V3H4.853z"/>
			<path fill="#FFFFFF" d="M6.33,5.249H5.875C5.855,5.183,5.845,5.127,5.845,5.081c-0.139,0.143-0.319,0.214-0.54,0.214
				c-0.172,0-0.307-0.04-0.403-0.12C4.792,5.083,4.736,4.954,4.736,4.789c0-0.21,0.095-0.356,0.285-0.437
				c0.077-0.033,0.218-0.063,0.425-0.091c0.177-0.024,0.288-0.046,0.331-0.068C5.821,4.171,5.842,4.126,5.842,4.06
				c0-0.147-0.097-0.22-0.292-0.22c-0.104,0-0.179,0.018-0.227,0.055C5.276,3.932,5.244,3.996,5.229,4.087H4.807
				C4.821,3.901,4.891,3.76,5.018,3.665C5.145,3.57,5.326,3.523,5.561,3.523c0.259,0,0.451,0.053,0.575,0.158
				C6.194,3.731,6.232,3.783,6.251,3.84C6.27,3.896,6.279,3.985,6.279,4.107c0,0.026-0.002,0.138-0.005,0.338
				C6.273,4.648,6.272,4.764,6.272,4.793c0,0.122,0.004,0.211,0.011,0.268S6.305,5.181,6.33,5.249z M5.839,4.438
				C5.782,4.474,5.677,4.502,5.526,4.523C5.419,4.539,5.342,4.56,5.295,4.586c-0.067,0.036-0.1,0.097-0.1,0.183
				c0,0.07,0.022,0.124,0.066,0.163C5.305,4.971,5.367,4.99,5.446,4.99c0.131,0,0.237-0.046,0.318-0.138
				C5.793,4.82,5.812,4.787,5.823,4.753c0.011-0.034,0.016-0.08,0.016-0.136V4.438z"/>
			<path fill="#FFFFFF" d="M8.133,3.569l-0.538,0.78l0.606,0.9H7.685L7.339,4.704L7.001,5.249H6.493L7.085,4.36l-0.54-0.791h0.512
				L7.35,4.02l0.285-0.451H8.133z"/>
			<path fill="#FFFFFF" d="M8.822,3v0.401H8.376V3H8.822z M8.822,3.572v1.677H8.376V3.572H8.822z"/>
		</g>
	</g>
</g>
</svg>
