<svg xmlns="http://www.w3.org/2000/svg" width="36" height="36" fill="none" viewBox="0 0 36 36"><path fill="#000" fill-rule="evenodd" d="M5.97 8.285c-1.151.64-1.72 1.444-1.72 2.215s.569 1.575 1.72 2.215c1.134.63 2.735 1.035 4.53 1.035s3.396-.405 4.53-1.035c1.151-.64 1.72-1.444 1.72-2.215s-.569-1.575-1.72-2.215c-1.134-.63-2.735-1.035-4.53-1.035s-3.396.405-4.53 1.035M17.75 10.5c0-1.3-.942-2.371-2.234-3.089-1.31-.727-3.083-1.161-5.016-1.161s-3.707.434-5.016 1.161C4.192 8.13 3.25 9.201 3.25 10.5v18c0 1.3.942 2.371 2.234 3.089 1.31.727 3.083 1.161 5.016 1.161 1.746 0 3.416-.148 4.724-.803l-.448-.894c-1.084.542-2.549.697-4.276.697-1.795 0-3.396-.405-4.53-1.035-1.151-.64-1.72-1.444-1.72-2.215v-2.32c.347.345.768.65 1.234.909 1.31.727 3.083 1.161 5.016 1.161 1.746 0 3.416-.148 4.724-.803l-.448-.894c-1.084.542-2.549.697-4.276.697-1.795 0-3.396-.405-4.53-1.035-1.151-.64-1.72-1.444-1.72-2.215v-2.32c.347.345.768.65 1.234.909 1.31.727 3.083 1.161 5.016 1.161 1.746 0 3.416-.148 4.724-.803l-.448-.894c-1.084.542-2.549.697-4.276.697-1.795 0-3.396-.405-4.53-1.035-1.151-.64-1.72-1.444-1.72-2.215v-2.32c.347.345.768.65 1.234.909 1.31.727 3.083 1.161 5.016 1.161 1.746 0 3.416-.148 4.724-.803l-.448-.894c-1.084.542-2.549.697-4.276.697-1.795 0-3.396-.405-4.53-1.035-1.151-.64-1.72-1.444-1.72-2.215v-2.32c.347.345.768.65 1.234.909 1.31.727 3.083 1.161 5.016 1.161s3.707-.434 5.016-1.161a5.6 5.6 0 0 0 1.234-.91V15h1zm1.72 6.785c-1.151.64-1.72 1.444-1.72 2.215s.569 1.575 1.72 2.215c1.134.63 2.735 1.035 4.53 1.035s3.396-.405 4.53-1.035c1.151-.64 1.72-1.444 1.72-2.215s-.569-1.575-1.72-2.215c-1.134-.63-2.735-1.035-4.53-1.035s-3.396.405-4.53 1.035m9.546 5.304a5.6 5.6 0 0 0 1.234-.91V24c0 .771-.569 1.575-1.72 2.215-1.134.63-2.735 1.035-4.53 1.035s-3.396-.405-4.53-1.035c-1.151-.64-1.72-1.444-1.72-2.215v-2.32c.347.345.768.65 1.234.909 1.31.727 3.083 1.161 5.016 1.161s3.707-.434 5.016-1.161M31.25 19.5v9c0 1.3-.942 2.371-2.234 3.089-1.31.727-3.083 1.161-5.016 1.161s-3.707-.434-5.016-1.161c-1.292-.718-2.234-1.79-2.234-3.089v-9c0-1.3.942-2.371 2.234-3.089 1.31-.727 3.083-1.161 5.016-1.161s3.707.434 5.016 1.161c1.292.718 2.234 1.79 2.234 3.089m-2.234 7.589a5.6 5.6 0 0 0 1.234-.91V28.5c0 .771-.569 1.575-1.72 2.215-1.134.63-2.735 1.035-4.53 1.035s-3.396-.405-4.53-1.035c-1.151-.64-1.72-1.444-1.72-2.215v-2.32c.347.345.768.65 1.234.909 1.31.727 3.083 1.161 5.016 1.161s3.707-.434 5.016-1.161" clip-rule="evenodd"/></svg>