<?xml version="1.0" encoding="utf-8"?>
<!-- Generator: Adobe Illustrator 24.2.0, SVG Export Plug-In . SVG Version: 6.00 Build 0)  -->
<svg version="1.0" xmlns="http://www.w3.org/2000/svg" xmlns:xlink="http://www.w3.org/1999/xlink" x="0px" y="0px"
	 viewBox="0 0 24 24" enable-background="new 0 0 24 24" xml:space="preserve">
<g id="SVG_x5F_24x24pt">
	<path id="backgroundBlue" fill="#2D327D" d="M0,22.5v-21C0,0.675,0.675,0,1.5,0h21C23.325,0,24,0.675,24,1.5v21
		c0,0.825-0.675,1.5-1.5,1.5h-21C0.675,24,0,23.325,0,22.5z"/>
	<g id="content">
		<path fill="#FFFFFF" d="M19.407,14.279c0,0.44,0.356,0.796,0.796,0.796c0.44,0,0.796-0.357,0.796-0.796v-0.796h-1.593V14.279
			L19.407,14.279z"/>
		<path fill="#FFFFFF" d="M19.156,10.974c-0.05,0.223-0.104,0.417,0.024,0.658c0.109,0.204,0.342,0.645,0.342,0.645l1.444,0.578
			l0.328-1.361c0.025-0.102,0.026-0.207,0.003-0.309L20.89,9.307c-0.048-0.223-0.246-0.382-0.474-0.382h-0.426
			c-0.228,0-0.425,0.159-0.474,0.382L19.156,10.974L19.156,10.974z"/>
		<path fill="#FFFFFF" d="M16.593,14.279c0,0.44-0.356,0.796-0.796,0.796c-0.44,0-0.796-0.357-0.796-0.796v-0.796h1.593V14.279
			L16.593,14.279z"/>
		<path fill="#FFFFFF" d="M16.844,10.974c0.05,0.223,0.104,0.417-0.024,0.658c-0.109,0.204-0.342,0.645-0.342,0.645l-1.444,0.578
			l-0.328-1.361c-0.025-0.102-0.026-0.207-0.003-0.309l0.408-1.878c0.048-0.223,0.246-0.382,0.474-0.382h0.426
			c0.228,0,0.425,0.159,0.474,0.382L16.844,10.974L16.844,10.974z"/>
		<path fill="#FFFFFF" d="M6.657,20.279c0,0.44,0.356,0.796,0.796,0.796c0.44,0,0.796-0.357,0.796-0.796v-0.796H6.657V20.279
			L6.657,20.279z"/>
		<path fill="#FFFFFF" d="M6.406,16.974c-0.05,0.223-0.104,0.417,0.024,0.658c0.109,0.204,0.342,0.645,0.342,0.645l1.444,0.578
			l0.328-1.361c0.025-0.102,0.026-0.207,0.003-0.309L8.14,15.307c-0.048-0.223-0.246-0.382-0.474-0.382H7.241
			c-0.228,0-0.425,0.159-0.474,0.382L6.406,16.974L6.406,16.974z"/>
		<path fill="#FFFFFF" d="M4.593,14.279c0,0.44-0.356,0.796-0.796,0.796C3.357,15.075,3,14.718,3,14.279v-0.796h1.593V14.279
			L4.593,14.279z"/>
		<path fill="#FFFFFF" d="M4.844,10.974c0.05,0.223,0.104,0.417-0.024,0.658c-0.109,0.204-0.342,0.645-0.342,0.645l-1.444,0.578
			l-0.328-1.361c-0.025-0.102-0.026-0.207-0.003-0.309L3.11,9.307c0.048-0.223,0.246-0.382,0.474-0.382h0.426
			c0.228,0,0.425,0.159,0.474,0.382L4.844,10.974L4.844,10.974z"/>
		<path fill="#FFFFFF" d="M6.657,8.279c0,0.44,0.356,0.796,0.796,0.796c0.44,0,0.796-0.357,0.796-0.796V7.482H6.657V8.279
			L6.657,8.279z"/>
		<path fill="#FFFFFF" d="M6.406,4.974C6.355,5.197,6.302,5.392,6.43,5.633c0.109,0.204,0.342,0.645,0.342,0.645l1.444,0.578
			l0.328-1.361C8.569,5.393,8.57,5.287,8.548,5.185L8.14,3.307C8.092,3.084,7.895,2.925,7.667,2.925H7.241
			c-0.228,0-0.425,0.159-0.474,0.382L6.406,4.974L6.406,4.974z"/>
		<path fill="#FFFFFF" d="M12,21.112c-0.103,0-0.187-0.084-0.187-0.187V3.075c0-0.103,0.084-0.187,0.187-0.187
			c0.103,0,0.187,0.084,0.187,0.187v17.85C12.187,21.028,12.103,21.112,12,21.112z"/>
	</g>
</g>
</svg>
