<svg class="color-immutable" xmlns="http://www.w3.org/2000/svg" width="59" height="20" fill="none" viewBox="0 0 59 20"><g clip-path="url(#a)"><path fill="#EB0000" fill-rule="evenodd" d="M2 0a2 2 0 0 0-2 2v16a2 2 0 0 0 2 2h55a2 2 0 0 0 2-2V2a2 2 0 0 0-2-2z" clip-rule="evenodd"/><path fill="#fff" d="M9.22 4.2h4.057L8.259 15.8H4.186zM15.948 4.2h14.395l-1.49 3.445h-10.28l-2.042 4.71h10.285l-1.49 3.445H10.93zM44.385 4.234v1.962a46 46 0 0 0-.562.64q-.648.743-1.29 1.875-.64 1.124-.996 2.16-.75 2.16-.91 4.928h-2.389q.025-1.305.451-2.896.435-1.59 1.195-3.18 1.083-2.245 2.199-3.345h-5.458V4.234zM53.11 4.234V6.29h-4.66l-.498 2.602q.84-.886 2.144-.886 1.282 0 2.23.688 1.409 1.036 1.408 3.149 0 2.072-1.502 3.282-1.17.95-2.8.95-1.836 0-2.951-.982-1.116-.988-1.179-2.665h2.27q.056.609.396 1.036.53.672 1.471.672.91 0 1.44-.656.514-.641.514-1.558 0-.997-.538-1.59-.538-.602-1.431-.602-1.092 0-1.701.981l-2.065-.031 1.1-6.447z"/></g><defs><clipPath id="a"><path fill="#fff" d="M0 0h59v20H0z"/></clipPath></defs></svg>