<svg class="color-immutable" width="59" height="20" viewBox="0 0 59 20" fill="none" xmlns="http://www.w3.org/2000/svg"><g clip-path="url(#a)"><path fill-rule="evenodd" clip-rule="evenodd" d="M2 0a2 2 0 0 0-2 2v16a2 2 0 0 0 2 2h55a2 2 0 0 0 2-2V2a2 2 0 0 0-2-2H2Z" fill="#EB0000"/><path d="M9.22 4.2h4.057L8.259 15.8H4.186L9.22 4.2ZM15.948 4.2h14.395l-1.49 3.445h-10.28l-2.042 4.71h10.285l-1.49 3.445H10.93l5.017-11.6ZM44.385 4.234v1.962c-.063.068-.25.282-.562.64-.432.496-.862 1.12-1.29 1.875-.426.749-.759 1.469-.996 2.16-.5 1.44-.804 3.082-.91 4.928H38.24c.015-.87.166-1.836.45-2.896.29-1.06.689-2.12 1.195-3.18.722-1.497 1.455-2.612 2.199-3.345h-5.458V4.234h7.76ZM53.11 4.234V6.29h-4.66l-.498 2.602c.56-.59 1.274-.886 2.144-.886.854 0 1.598.23 2.23.688.94.691 1.409 1.74 1.409 3.149 0 1.381-.501 2.475-1.503 3.282-.78.633-1.714.95-2.8.95-1.224 0-2.208-.328-2.951-.982-.744-.659-1.137-1.547-1.179-2.665h2.27c.037.406.17.751.396 1.036.353.448.844.672 1.471.672.607 0 1.087-.218 1.44-.656.343-.427.514-.947.514-1.558 0-.665-.18-1.195-.538-1.59-.358-.401-.836-.602-1.431-.602-.728 0-1.295.327-1.701.981l-2.065-.031 1.1-6.447h6.352Z" fill="#fff"/></g><defs><clipPath id="a"><path fill="#fff" d="M0 0h59v20H0z"/></clipPath></defs></svg>