<svg class="color-immutable" xmlns="http://www.w3.org/2000/svg" width="59" height="20" fill="none" viewBox="0 0 59 20"><path fill="#EB0000" fill-rule="evenodd" d="M2 0a2 2 0 0 0-2 2v16a2 2 0 0 0 2 2h55a2 2 0 0 0 2-2V2a2 2 0 0 0-2-2z" clip-rule="evenodd"/><path fill="#fff" fill-rule="evenodd" d="M6.093 15.802h-2.39L6.133 4.2h5.152q1.329 0 2.07.273t1.194 1.001q.456.729.456 1.765 0 1.48-.887 2.442-.885.961-2.683 1.19.46.412.863 1.085.8 1.361 1.78 3.846h-2.564q-.308-.981-1.21-3.063-.492-1.124-1.045-1.511-.34-.23-1.187-.23h-.974zm1.37-6.545h1.266q1.923 0 2.552-.23.63-.228.985-.72.357-.49.356-1.028 0-.635-.514-.95-.317-.19-1.37-.19H8.112zM22.375 4.2h2.342l-1.464 7.028q-.585 2.793-1.535 3.783t-2.92.989q-1.67 0-2.501-.768-.831-.767-.831-2.09 0-.276.04-.616l2.207-.238a4.4 4.4 0 0 0-.047.578q0 .555.316.847.317.293.974.293.918 0 1.29-.539.276-.411.673-2.318zm4.538 11.602h-3.087l5.12-5.872-2.88-5.73h2.493l1.132 2.176q.055.12.775 1.607.048.08.103.214a82 82 0 0 1 1.623-1.931L34.02 4.2h3l-5.311 6.11 2.857 5.492h-2.691l-.87-1.749q-.681-1.384-.903-1.986-.309.466-1.59 1.93z" clip-rule="evenodd"/></svg>