<svg xmlns="http://www.w3.org/2000/svg" width="48" height="48" fill="none" viewBox="0 0 48 48"><path fill="#000" fill-rule="evenodd" d="M10.62 3C9.758 3 9 3.763 9 4.77v38.46c0 1.016.757 1.77 1.62 1.77h25.75c.862 0 1.62-.763 1.62-1.77V4.77c0-1.016-.757-1.77-1.62-1.77zM8 4.77C8 3.277 9.142 2 10.62 2h25.75c1.477 0 2.62 1.266 2.62 2.77v38.46c0 1.493-1.142 2.77-2.62 2.77H10.62C9.143 46 8 44.734 8 43.23zM12.5 6a.5.5 0 0 0-.5.5v10a.5.5 0 0 0 .5.5h22a.5.5 0 0 0 .5-.5v-10a.5.5 0 0 0-.5-.5zm-1.5.5A1.5 1.5 0 0 1 12.5 5h22A1.5 1.5 0 0 1 36 6.5v10a1.5 1.5 0 0 1-1.5 1.5h-22a1.5 1.5 0 0 1-1.5-1.5zm2 16a1.5 1.5 0 1 1 3 0 1.5 1.5 0 0 1-3 0m1.5-2.5a2.5 2.5 0 1 0 0 5 2.5 2.5 0 0 0 0-5m0 7a1.5 1.5 0 1 0 0 3 1.5 1.5 0 0 0 0-3M12 28.5a2.5 2.5 0 1 1 5 0 2.5 2.5 0 0 1-5 0m1 12a1.5 1.5 0 1 1 3 0 1.5 1.5 0 0 1-3 0m1.5-2.5a2.5 2.5 0 1 0 0 5 2.5 2.5 0 0 0 0-5m0-5a1.5 1.5 0 1 0 0 3 1.5 1.5 0 0 0 0-3M12 34.5a2.5 2.5 0 1 1 5 0 2.5 2.5 0 0 1-5 0m7-12a1.5 1.5 0 1 1 3 0 1.5 1.5 0 0 1-3 0m1.5-2.5a2.5 2.5 0 1 0 0 5 2.5 2.5 0 0 0 0-5m0 7a1.5 1.5 0 1 0 0 3 1.5 1.5 0 0 0 0-3M18 28.5a2.5 2.5 0 1 1 5 0 2.5 2.5 0 0 1-5 0m1 6a1.5 1.5 0 1 1 3 0 1.5 1.5 0 0 1-3 0m1.5-2.5a2.5 2.5 0 1 0 0 5 2.5 2.5 0 0 0 0-5m0 7a1.5 1.5 0 1 0 0 3 1.5 1.5 0 0 0 0-3M18 40.5a2.5 2.5 0 1 1 5 0 2.5 2.5 0 0 1-5 0m7-18a1.5 1.5 0 1 1 3 0 1.5 1.5 0 0 1-3 0m1.5-2.5a2.5 2.5 0 1 0 0 5 2.5 2.5 0 0 0 0-5m0 7a1.5 1.5 0 1 0 0 3 1.5 1.5 0 0 0 0-3M24 28.5a2.5 2.5 0 1 1 5 0 2.5 2.5 0 0 1-5 0m1 6a1.5 1.5 0 1 1 3 0 1.5 1.5 0 0 1-3 0m1.5-2.5a2.5 2.5 0 1 0 0 5 2.5 2.5 0 0 0 0-5m0 7a1.5 1.5 0 1 0 0 3 1.5 1.5 0 0 0 0-3M24 40.5a2.5 2.5 0 1 1 5 0 2.5 2.5 0 0 1-5 0m7-12a1.5 1.5 0 1 1 3 0 1.5 1.5 0 0 1-3 0m1.5-2.5a2.5 2.5 0 1 0 0 5 2.5 2.5 0 0 0 0-5m0-5a1.5 1.5 0 1 0 0 3 1.5 1.5 0 0 0 0-3M30 22.5a2.5 2.5 0 1 1 5 0 2.5 2.5 0 0 1-5 0m1 12a1.5 1.5 0 0 1 3 0v6a1.5 1.5 0 0 1-3 0zm1.5-2.5a2.5 2.5 0 0 0-2.5 2.5v6a2.5 2.5 0 0 0 5 0v-6a2.5 2.5 0 0 0-2.5-2.5" clip-rule="evenodd"/></svg>