<svg xmlns="http://www.w3.org/2000/svg" width="24" height="24" fill="none" viewBox="0 0 24 24"><path fill="#000" fill-rule="evenodd" d="M4 12c0-4.414 3.586-8 8-8s8 3.586 8 8c0 .278-.019.56-.047.839l.994.102c.032-.302.053-.62.053-.941 0-4.966-4.034-9-9-9s-9 4.034-9 9 4.034 9 9 9a8.96 8.96 0 0 0 4.014-.943l-.448-.894A7.96 7.96 0 0 1 12 20c-4.414 0-8-3.586-8-8m13.916-.777-.416.277-.416-.277.416-.624zm-.416.277-.416-.277-.002.003-.005.007-.018.028a13 13 0 0 0-.3.482c-.192.32-.45.77-.706 1.283C15.55 14.03 15 15.373 15 16.5c0 1.376 1.124 2.5 2.5 2.5s2.5-1.124 2.5-2.5c0-1.127-.55-2.47-1.053-3.474a19 19 0 0 0-1.006-1.765l-.018-.028-.005-.007-.001-.002v-.001zm0 .954c-.164.28-.358.63-.553 1.02C16.45 14.47 16 15.627 16 16.5c0 .824.676 1.5 1.5 1.5s1.5-.676 1.5-1.5c0-.873-.45-2.03-.947-3.026-.195-.39-.39-.74-.553-1.02M7.05 15.303C7.887 13.357 9.782 12 12.06 12c1.14 0 2.2.34 3.072.937l-.564.826A4.4 4.4 0 0 0 12.06 13a4.41 4.41 0 0 0-4.09 2.697zM8 9a1 1 0 1 1 2 0 1 1 0 0 1-2 0m7-1a1 1 0 1 0 0 2 1 1 0 0 0 0-2" clip-rule="evenodd"/></svg>