<svg class="color-immutable" xmlns="http://www.w3.org/2000/svg" width="19" height="16" fill="none" viewBox="0 0 19 16"><mask id="a" fill="#fff"><path fill-rule="evenodd" d="M2.5 3C3.327 3 4 2.327 4 1.5S3.327 0 2.5 0 1 .673 1 1.5 1.673 3 2.5 3" clip-rule="evenodd"/></mask><path fill="#fff" d="M2.5 4C3.88 4 5 2.88 5 1.5H3c0 .275-.225.5-.5.5zM5 1.5C5 .12 3.88-1 2.5-1v2c.275 0 .5.225.5.5zM2.5-1C1.12-1 0 .12 0 1.5h2c0-.275.225-.5.5-.5zM0 1.5C0 2.88 1.12 4 2.5 4V2a.5.5 0 0 1-.5-.5z" mask="url(#a)"/><mask id="b" fill="#fff"><path fill-rule="evenodd" d="M9.504 3c.827 0 1.5-.673 1.5-1.5S10.33 0 9.504 0s-1.5.673-1.5 1.5.673 1.5 1.5 1.5" clip-rule="evenodd"/></mask><path fill="#fff" d="M9.504 4c1.38 0 2.5-1.12 2.5-2.5h-2c0 .275-.225.5-.5.5zm2.5-2.5c0-1.38-1.12-2.5-2.5-2.5v2c.275 0 .5.225.5.5zM9.504-1c-1.38 0-2.5 1.12-2.5 2.5h2c0-.275.225-.5.5-.5zm-2.5 2.5c0 1.38 1.12 2.5 2.5 2.5V2a.5.5 0 0 1-.5-.5z" mask="url(#b)"/><mask id="c" fill="#fff"><path fill-rule="evenodd" d="M16.508 3c.827 0 1.5-.673 1.5-1.5s-.673-1.5-1.5-1.5-1.5.673-1.5 1.5.673 1.5 1.5 1.5" clip-rule="evenodd"/></mask><path fill="#fff" d="M16.508 4c1.379 0 2.5-1.12 2.5-2.5h-2c0 .275-.226.5-.5.5zm2.5-2.5c0-1.38-1.121-2.5-2.5-2.5v2c.274 0 .5.225.5.5zm-2.5-2.5c-1.38 0-2.5 1.12-2.5 2.5h2c0-.275.225-.5.5-.5zm-2.5 2.5c0 1.38 1.12 2.5 2.5 2.5V2a.5.5 0 0 1-.5-.5z" mask="url(#c)"/><path stroke="#fff" d="M4.5 4.5v5h-1v6h-2v-6h-1v-5zM11.504 4.5v5h-1v6h-2v-6h-1v-5zM18.5 4.5v5h-1v6h-2v-6h-1v-5z"/></svg>