<svg class="color-immutable" width="19" height="16" viewBox="0 0 19 16" fill="none" xmlns="http://www.w3.org/2000/svg"><mask id="a" fill="#fff"><path fill-rule="evenodd" clip-rule="evenodd" d="M2.5 3C3.327 3 4 2.327 4 1.5S3.327 0 2.5 0 1 .673 1 1.5 1.673 3 2.5 3Z"/></mask><path d="M2.5 4C3.88 4 5 2.88 5 1.5H3c0 .275-.225.5-.5.5v2ZM5 1.5C5 .12 3.88-1 2.5-1v2c.275 0 .5.225.5.5h2ZM2.5-1C1.12-1 0 .12 0 1.5h2c0-.275.225-.5.5-.5v-2ZM0 1.5C0 2.88 1.12 4 2.5 4V2a.502.502 0 0 1-.5-.5H0Z" fill="#fff" mask="url(#a)"/><mask id="b" fill="#fff"><path fill-rule="evenodd" clip-rule="evenodd" d="M9.504 3c.827 0 1.5-.673 1.5-1.5S10.33 0 9.504 0s-1.5.673-1.5 1.5.673 1.5 1.5 1.5Z"/></mask><path d="M9.504 4c1.38 0 2.5-1.12 2.5-2.5h-2c0 .275-.225.5-.5.5v2Zm2.5-2.5c0-1.38-1.12-2.5-2.5-2.5v2c.275 0 .5.225.5.5h2ZM9.504-1c-1.38 0-2.5 1.12-2.5 2.5h2c0-.275.225-.5.5-.5v-2Zm-2.5 2.5c0 1.38 1.12 2.5 2.5 2.5V2a.502.502 0 0 1-.5-.5h-2Z" fill="#fff" mask="url(#b)"/><mask id="c" fill="#fff"><path fill-rule="evenodd" clip-rule="evenodd" d="M16.508 3c.827 0 1.5-.673 1.5-1.5s-.673-1.5-1.5-1.5-1.5.673-1.5 1.5.673 1.5 1.5 1.5Z"/></mask><path d="M16.508 4c1.379 0 2.5-1.12 2.5-2.5h-2c0 .275-.226.5-.5.5v2Zm2.5-2.5c0-1.38-1.121-2.5-2.5-2.5v2c.274 0 .5.225.5.5h2Zm-2.5-2.5c-1.38 0-2.5 1.12-2.5 2.5h2c0-.275.225-.5.5-.5v-2Zm-2.5 2.5c0 1.38 1.12 2.5 2.5 2.5V2a.502.502 0 0 1-.5-.5h-2Z" fill="#fff" mask="url(#c)"/><path d="M1.5 10v-.5h-1v-5h4v5h-1v6h-2V10ZM8.504 10v-.5h-1v-5h4v5h-1v6h-2V10ZM15.5 10v-.5h-1v-5h4v5h-1v6h-2V10Z" stroke="#fff"/></svg>