<svg xmlns="http://www.w3.org/2000/svg" width="36" height="36" fill="none" viewBox="0 0 36 36"><path fill="#000" fill-rule="evenodd" d="M3 5.75h10.5v-1H3zm13.25 17.5c0-3.86 3.14-7 7-7s7 3.14 7 7c0 3.858-3.14 7-7 7s-7-3.142-7-7m7-8c-4.412 0-8 3.589-8 8s3.588 8 8 8 8-3.59 8-8-3.588-8-8-8m-.75-9.5h-6v-1h6zm-6 4.5h6v-1h-6zm16.5 0h-7.5v-1H33zm-7.5-4.5H33v-1h-7.5zm-12 4.5H3v-1h10.5zM3 14.75h10.5v-1H3zm7.5 4.5H3v-1h7.5zM3 23.75h7.5v-1H3zm7.5 4.5H3v-1h7.5zM22.75 18v5.75h5.75v-1h-4.75V18z" clip-rule="evenodd"/></svg>