<svg class="color-immutable" xmlns="http://www.w3.org/2000/svg" width="59" height="20" fill="none" viewBox="0 0 59 20"><path fill="#EB0000" fill-rule="evenodd" d="M2 0a2 2 0 0 0-2 2v16a2 2 0 0 0 2 2h55a2 2 0 0 0 2-2V2a2 2 0 0 0-2-2z" clip-rule="evenodd"/><path fill="#fff" d="M9.251 4.2h4.07L8.286 15.8H4.2zM26.069 12.366c.367 0 .7-.217.849-.553L30.22 4.2H16.038l-5.035 11.6h4.052l3.812-8.69h6.014l-1.205 2.775-5.244-.019 4.231 5.934h4.613l-3.134-3.434zM42.445 4.235v11.564h-2.31v-7.57h-2.7199999999999998V6.552q.846-.024 1.38-.174t.977-.49q.64-.49.862-1.654zM45.704 12.896h2.183q.27 1.345 1.559 1.345.727 0 1.182-.495t.7-1.538q.158-.665.23-1.511-.53.744-1.088 1.056t-1.357.312q-1.273 0-2.214-.743a3.5 3.5 0 0 1-1.025-1.353 4.4 4.4 0 0 1-.367-1.803q0-1.954 1.336-3.164 1.147-1.044 2.753-1.044.989 0 1.827.443a3.96 3.96 0 0 1 1.408 1.257q1.005 1.447 1.005 4.066 0 2.42-.886 4.129-1.155 2.223-3.497 2.223-1.558 0-2.574-.863-1.017-.861-1.175-2.317m3.844-6.985q-.743 0-1.257.61-.514.616-.514 1.566 0 .767.371 1.36.506.815 1.424.815.831 0 1.329-.665.467-.624.467-1.487 0-.909-.483-1.542a1.6 1.6 0 0 0-1.337-.657"/></svg>