<?xml version="1.0" encoding="utf-8"?>
<!-- Generator: Adobe Illustrator 24.2.0, SVG Export Plug-In . SVG Version: 6.00 Build 0)  -->
<svg version="1.0" id="Ebene_1" xmlns="http://www.w3.org/2000/svg" xmlns:xlink="http://www.w3.org/1999/xlink" x="0px" y="0px"
	 viewBox="0 0 24 24" enable-background="new 0 0 24 24" xml:space="preserve">
<g id="SVG_x5F_24x24pt">
	<path id="backgroundBlue" fill="#2D327D" d="M0,22.5v-21C0,0.675,0.675,0,1.5,0h21C23.325,0,24,0.675,24,1.5v21
		c0,0.825-0.675,1.5-1.5,1.5h-21C0.675,24,0,23.325,0,22.5z"/>
	<g id="content">
		<path fill="#FFFFFF" d="M7.126,16.5h-3.75C3.168,16.5,3,16.668,3,16.874V21h0.75v-3.749h3V21H7.5v-4.126
			C7.5,16.668,7.332,16.5,7.126,16.5L7.126,16.5z"/>
		<path fill="#FFFFFF" d="M9.851,14.9c-0.049-0.373-0.367-0.651-0.744-0.651H6.375v-2.644l1.338,1.979
			c0.118,0.175,0.316,0.281,0.528,0.281c0.352,0,0.637-0.285,0.637-0.637c0-0.127-0.038-0.253-0.109-0.357L6.017,8.799
			C5.71,8.344,5.198,8.073,4.65,8.073C3.739,8.073,3,8.812,3,9.724V15c0,0.413,0.336,0.75,0.75,0.75h4.664l0.611,4.589
			c0.051,0.383,0.376,0.668,0.762,0.668c0.424,0,0.769-0.345,0.769-0.769c0-0.033-0.002-0.068-0.007-0.101L9.851,14.9L9.851,14.9z"
			/>
		<path fill="#FFFFFF" d="M20.249,15.336h-2.306v-0.449c0-0.351-0.286-0.637-0.638-0.637h-1.462c-0.351,0-0.637,0.286-0.637,0.637
			v0.449h-2.306c-0.414,0-0.751,0.338-0.751,0.751v4.162c0,0.414,0.336,0.75,0.751,0.75h7.349C20.664,21,21,20.664,21,20.25v-4.162
			C21,15.674,20.664,15.336,20.249,15.336L20.249,15.336z M17.419,15.336h-1.687v-0.561h1.687V15.336L17.419,15.336z"/>
		<g>
			<path fill="#FFFFFF" d="M18.038,9.075c1.718,0,3.112-1.394,3.112-3.112c0-1.719-1.393-3.113-3.112-3.113
				c-1.719,0-3.113,1.394-3.113,3.113C14.925,7.681,16.319,9.075,18.038,9.075L18.038,9.075z M18.038,3.563
				c1.325,0,2.4,1.075,2.4,2.4c0,1.324-1.075,2.399-2.4,2.399c-1.325,0-2.401-1.075-2.401-2.399
				C15.637,4.638,16.713,3.563,18.038,3.563L18.038,3.563z"/>
			<path fill="#FFFFFF" d="M19.395,4.814C19.43,4.778,19.45,4.73,19.45,4.68c0-0.103-0.084-0.187-0.188-0.187
				c-0.05,0-0.097,0.02-0.133,0.055l-0.915,0.915l0.266,0.265L19.395,4.814L19.395,4.814z"/>
			<path fill="#FFFFFF" d="M17.951,6.259l0.264-0.266L16.77,4.548c-0.034-0.035-0.083-0.055-0.133-0.055
				c-0.103,0-0.187,0.084-0.187,0.187c0,0.05,0.02,0.097,0.055,0.134L17.951,6.259L17.951,6.259z"/>
		</g>
		<path fill="#FFFFFF" d="M4.5,7.575c0.827,0,1.5-0.673,1.5-1.5c0-0.828-0.672-1.5-1.5-1.5c-0.829,0-1.5,0.672-1.5,1.5
			C3,6.902,3.672,7.575,4.5,7.575L4.5,7.575z"/>
	</g>
</g>
</svg>
