<svg xmlns="http://www.w3.org/2000/svg" width="24" height="24" version="1.1" viewBox="0 0 24 24">
  <path fill="none" fill-rule="evenodd" stroke="#000" stroke-width="1" d="M11.9985,16.3857 C10.4985,16.3557 9.0615,15.7787 7.9695,14.7657 L11.9985,10.8037 L16.0285,14.7657 C14.9355,15.7787 13.4995,16.3557 11.9985,16.3857 Z M5.6665,10.1577 C5.6295,9.6487 5.7535,9.1397 6.0205,8.7007 C6.2885,8.2627 6.6865,7.9157 7.1615,7.7067 C7.8365,7.4787 8.7405,7.6287 9.8045,8.5587 L6.1115,12.1907 C5.8305,11.5477 5.6785,10.8577 5.6665,10.1577 Z M16.8365,7.7047 C17.3115,7.9127 17.7095,8.2607 17.9775,8.6987 C18.2445,9.1387 18.3685,9.6487 18.3305,10.1577 C18.3185,10.8577 18.1675,11.5477 17.8855,12.1907 L14.1935,8.5547 C14.5175,8.1947 14.9325,7.9247 15.3975,7.7767 C15.8625,7.6267 16.3585,7.6037 16.8365,7.7067 L16.8365,7.7047 Z M20.2485,14.5137 C21.0365,13.1917 21.4665,11.6917 21.4965,10.1577 C21.5365,8.9987 21.2085,7.8567 20.5585,6.8897 C19.9075,5.9217 18.9665,5.1787 17.8665,4.7607 C15.9325,4.1117 13.8245,4.6927 11.9985,6.3137 C10.1715,4.6927 8.0625,4.1117 6.1335,4.7617 C5.0335,5.1797 4.0925,5.9227 3.4415,6.8907 C2.7915,7.8577 2.4635,8.9997 2.5035,10.1587 C2.5335,11.6927 2.9635,13.1927 3.7515,14.5147 L2.9665,15.2867 C2.6755,15.5797 2.5125,15.9747 2.5155,16.3837 C2.5175,16.7937 2.6845,17.1867 2.9785,17.4767 C3.2735,17.7667 3.6735,17.9307 4.0895,17.9327 C4.5065,17.9347 4.9075,17.7757 5.2055,17.4887 L5.7255,16.9767 C7.4135,18.5737 9.6575,19.4767 11.9985,19.4997 C14.3415,19.4767 16.5865,18.5737 18.2745,16.9757 L18.7945,17.4877 C19.0935,17.7687 19.4925,17.9237 19.9065,17.9187 C20.3195,17.9137 20.7155,17.7507 21.0075,17.4627 C21.3005,17.1757 21.4665,16.7857 21.4715,16.3797 C21.4765,15.9727 21.3185,15.5797 21.0325,15.2857 L20.2485,14.5137 Z"/>
</svg>
