<svg xmlns="http://www.w3.org/2000/svg" width="48" height="48" fill="none" viewBox="0 0 48 48"><path fill="#000" fill-rule="evenodd" d="M14 28V6.475c.385.523.866.972 1.42 1.322 3.434 2.193 4.547 4.692 4.554 7.212.007 2.578-1.142 5.252-2.42 7.764l.892.454c1.279-2.515 2.536-5.38 2.528-8.22-.008-2.9-1.33-5.699-5.018-8.054l-.002-.001a4.2 4.2 0 0 1-1.524-1.683c-.152-.304-.265-.851-.338-1.38a13 13 0 0 1-.088-.849L14 2.988v-.016h-.004L13 3v22a5 5 0 1 0 1 3m-5-4a4 4 0 1 1 0 8 4 4 0 0 1 0-8m9 16a4 4 0 1 1 8 0 4 4 0 0 1-8 0m4-5c1.636 0 3.088.785 4 2V18.08l.413-.072 17-3 .587-.104V36a5 5 0 1 1-1-3V20.095l-16 2.823V40a5 5 0 1 1-5-5m5-13.096 16-2.823v-2.985l-16 2.823zM35 36a4 4 0 1 1 8 0 4 4 0 0 1-8 0" clip-rule="evenodd"/></svg>