<svg class="color-immutable" xmlns="http://www.w3.org/2000/svg" width="59" height="20" fill="none" viewBox="0 0 59 20"><g clip-path="url(#a)"><path fill="#000" d="M1.792 0h55.416C58.197 0 59 .806 59 1.8v16.4c0 .994-.801 1.8-1.792 1.8H1.792A1.797 1.797 0 0 1 0 18.2V1.8C0 .806.803 0 1.792 0"/><path fill="#FFDE15" d="M12.798 7.659h-2.405q-.07-.846-.633-1.29-.553-.45-1.558-.45-.894 0-1.392.356-.49.348-.49.98 0 .57.474.823.459.253 2.326.712 1.97.49 2.729.989 1.4.918 1.4 2.555 0 1.795-1.408 2.832-1.242.91-3.362.91Q6.122 16.074 4.817 15q-1.305-1.077-1.353-3.062h2.515q.055.966.499 1.432.696.744 2.096.744.95 0 1.503-.372.624-.428.625-1.163 0-.735-.878-1.076-.483-.19-2.278-.688-1.125-.307-1.756-.585-.633-.277-1.013-.617-.885-.791-.886-2.183 0-1.67 1.384-2.642 1.18-.831 3.062-.831 1.653 0 2.768.657 1.605.94 1.693 3.045M24.513 4.234v11.565h-2.54l-4.84-7.879.031 7.879h-2.428V4.234h2.57l4.81 7.863-.032-7.863zM31.917 4.234v11.565h-2.31v-7.57h-2.721V6.552q.846-.024 1.376-.174.538-.15.981-.49.641-.492.862-1.654zM36.995 9.59q-.807-.279-1.242-.91-.427-.633-.427-1.535 0-1.503 1.234-2.397 1.092-.79 2.595-.791 1.709 0 2.792.941 1.028.886 1.028 2.191 0 .91-.435 1.559t-1.234.941q.626.182 1.02.467 1.1.798 1.1 2.333 0 1.764-1.352 2.808-1.14.878-2.927.878-1.938 0-3.085-.965-1.195-1.004-1.195-2.634 0-1.527 1.06-2.365a2.9 2.9 0 0 1 1.068-.522m2.128-3.837q-.76 0-1.226.427-.467.42-.467 1.107 0 .72.467 1.155.474.427 1.266.427.79 0 1.25-.427.458-.427.458-1.163 0-.72-.467-1.123-.458-.403-1.281-.403m-.016 4.706q-.855 0-1.4.53-.537.522-.538 1.345 0 .846.546 1.376.554.53 1.432.53.997 0 1.495-.585.482-.562.482-1.297 0-.84-.553-1.377-.531-.522-1.464-.522"/></g><defs><clipPath id="a"><path fill="#fff" d="M0 0h59v20H0z"/></clipPath></defs></svg>