<svg class="color-immutable" width="59" height="20" viewBox="0 0 59 20" fill="none" xmlns="http://www.w3.org/2000/svg"><g clip-path="url(#a)"><path d="M1.792 0h55.416C58.197 0 59 .806 59 1.8v16.4c0 .994-.801 1.8-1.792 1.8H1.792A1.797 1.797 0 0 1 0 18.2V1.8C0 .806.803 0 1.792 0Z" fill="#000"/><path d="M12.798 7.659h-2.405c-.047-.564-.258-.994-.633-1.29-.369-.3-.888-.45-1.558-.45-.596 0-1.06.118-1.392.356-.327.232-.49.559-.49.98 0 .38.158.654.474.823.306.169 1.081.406 2.326.712 1.313.327 2.223.657 2.729.989.933.612 1.4 1.463 1.4 2.555 0 1.197-.47 2.14-1.408 2.832-.828.606-1.949.91-3.362.91-1.571 0-2.792-.36-3.662-1.076-.87-.718-1.321-1.738-1.353-3.062h2.515c.037.644.203 1.121.499 1.432.464.496 1.163.744 2.096.744.633 0 1.134-.124 1.503-.372.416-.285.625-.673.625-1.163s-.293-.849-.878-1.076c-.322-.126-1.081-.356-2.278-.688-.75-.205-1.335-.4-1.756-.585-.422-.185-.76-.39-1.013-.617-.59-.528-.886-1.255-.886-2.183 0-1.113.462-1.994 1.384-2.642.786-.554 1.807-.831 3.062-.831 1.102 0 2.025.219 2.768.657 1.07.627 1.635 1.642 1.693 3.045ZM24.513 4.234v11.565h-2.54l-4.84-7.879.031 7.879h-2.428V4.234h2.57l4.81 7.863-.032-7.863h2.429ZM31.917 4.234v11.565h-2.31v-7.57h-2.721V6.552c.564-.016 1.023-.074 1.376-.174.359-.1.686-.264.981-.49.427-.328.715-.879.862-1.654h1.812ZM36.995 9.59c-.538-.186-.952-.489-1.242-.91-.285-.422-.427-.934-.427-1.535 0-1.002.411-1.801 1.234-2.397.728-.527 1.593-.791 2.595-.791 1.139 0 2.07.314 2.792.941.685.591 1.028 1.321 1.028 2.191 0 .607-.145 1.126-.435 1.559-.29.432-.701.746-1.234.941.417.121.757.277 1.02.467.734.532 1.1 1.31 1.1 2.333 0 1.176-.45 2.112-1.352 2.808-.76.586-1.735.878-2.927.878-1.292 0-2.32-.321-3.085-.965-.796-.67-1.195-1.547-1.195-2.634 0-1.018.354-1.806 1.06-2.365a2.924 2.924 0 0 1 1.068-.522Zm2.128-3.837c-.506 0-.915.142-1.226.427-.311.28-.467.648-.467 1.107 0 .48.156.865.467 1.155.316.285.738.427 1.266.427.527 0 .944-.142 1.25-.427.305-.285.458-.672.458-1.163 0-.48-.155-.854-.467-1.123-.305-.269-.733-.403-1.281-.403Zm-.016 4.706c-.57 0-1.036.177-1.4.53-.358.348-.538.796-.538 1.345 0 .564.182 1.023.546 1.376.37.354.846.53 1.432.53.664 0 1.163-.195 1.495-.585.321-.374.482-.807.482-1.297 0-.56-.184-1.018-.553-1.377-.354-.348-.842-.522-1.464-.522Z" fill="#FFDE15"/></g><defs><clipPath id="a"><path fill="#fff" d="M0 0h59v20H0z"/></clipPath></defs></svg>