<svg class="color-immutable" width="59" height="20" viewBox="0 0 59 20" fill="none" xmlns="http://www.w3.org/2000/svg"><g clip-path="url(#a)"><path fill-rule="evenodd" clip-rule="evenodd" d="M2 0a2 2 0 0 0-2 2v16a2 2 0 0 0 2 2h55a2 2 0 0 0 2-2V2a2 2 0 0 0-2-2H2Z" fill="#EB0000"/><path d="M9.388 4.2h4.042L8.43 15.8h-4.06L9.389 4.2ZM26.092 12.366a.922.922 0 0 0 .843-.553L30.216 4.2H16.13l-5.001 11.6h4.025l3.786-8.69h5.973l-1.197 2.775-5.209-.019L22.71 15.8h4.582l-3.114-3.434h1.915ZM36.585 7.896c.027-.949.261-1.745.704-2.389.718-1.033 1.796-1.55 3.236-1.55 1.107 0 2 .282 2.681.846.733.612 1.1 1.403 1.1 2.373 0 .58-.145 1.082-.435 1.503a2.1 2.1 0 0 1-1.163.847c.622.142 1.113.459 1.471.949.364.49.546 1.084.546 1.78 0 1.144-.422 2.08-1.266 2.808-.78.675-1.766 1.012-2.958 1.012-1.292 0-2.318-.371-3.077-1.115-.754-.744-1.131-1.748-1.131-3.014v-.15h2.223c0 .712.168 1.263.506 1.653.337.385.815.578 1.431.578.617 0 1.092-.182 1.424-.546a1.78 1.78 0 0 0 .46-1.226c0-.57-.196-1.02-.586-1.353-.322-.274-.818-.411-1.487-.411-.19 0-.377.01-.562.032V8.822c.137.01.269.016.395.016 1.33 0 1.994-.493 1.994-1.48 0-.432-.145-.78-.435-1.044-.29-.269-.673-.403-1.147-.403-.543 0-.963.169-1.258.506-.295.338-.453.83-.474 1.48h-2.192ZM53.687 13.742v2.056h-8.33c0-.627.101-1.226.301-1.795.206-.57.493-1.06.863-1.471.284-.317.617-.625.996-.926.385-.3 1.147-.851 2.286-1.653.554-.385.942-.744 1.163-1.076.221-.332.332-.717.332-1.155 0-.506-.15-.915-.45-1.226-.296-.316-.686-.474-1.171-.474-1.192 0-1.806.857-1.843 2.57H45.61V8.34c0-1.402.393-2.489 1.178-3.259.765-.749 1.754-1.123 2.967-1.123 1.076 0 1.975.306 2.697.918.786.664 1.179 1.558 1.179 2.681 0 .981-.314 1.825-.941 2.531-.206.232-.399.42-.578.562-.18.137-.651.472-1.416 1.005-.728.506-1.25.893-1.566 1.162a6.348 6.348 0 0 0-.87.926h5.426Z" fill="#fff"/></g><defs><clipPath id="a"><path fill="#fff" d="M0 0h59v20H0z"/></clipPath></defs></svg>