<?xml version="1.0" encoding="utf-8"?>
<!-- Generator: Adobe Illustrator 24.2.0, SVG Export Plug-In . SVG Version: 6.00 Build 0)  -->
<svg version="1.0" id="Ebene_1" xmlns="http://www.w3.org/2000/svg" xmlns:xlink="http://www.w3.org/1999/xlink" x="0px" y="0px"
	 viewBox="0 0 24 24" enable-background="new 0 0 24 24" xml:space="preserve">
<g id="SVG_x5F_24x24pt">
	<path id="backgroundBlue" fill="#2D327D" d="M0,22.5v-21C0,0.675,0.675,0,1.5,0h21C23.325,0,24,0.675,24,1.5v21
		c0,0.825-0.675,1.5-1.5,1.5h-21C0.675,24,0,23.325,0,22.5z"/>
	<g id="content">
		<path fill="#FFFFFF" d="M5.58,13.736l-2.25,2.25C3.119,16.197,3,16.483,3,16.782v2.644C3,19.632,3.168,19.8,3.375,19.8H3.75
			v-0.431c0-1.242,1.008-2.25,2.25-2.25c1.242,0,2.25,1.008,2.25,2.25V19.8h7.463v-0.431c0-1.242,1.008-2.25,2.25-2.25
			c1.242,0,2.25,1.008,2.25,2.25V19.8h0.412l0,0c0.207,0,0.375-0.168,0.375-0.375v-2.338c0-0.195-0.149-0.358-0.344-0.374
			l-4.387-0.364l-2.614-2.614c-0.211-0.211-0.497-0.329-0.795-0.329H6.375C6.077,13.406,5.791,13.525,5.58,13.736L5.58,13.736z
			 M10.085,14.494L10.085,14.494c0-0.207,0.168-0.375,0.375-0.375h2.362c0.1,0,0.195,0.04,0.265,0.11l1.793,1.794
			c0.042,0.042,0.066,0.099,0.066,0.159c0,0.124-0.101,0.225-0.225,0.225h-4.259c-0.207,0-0.375-0.167-0.375-0.374L10.085,14.494
			L10.085,14.494z M4.513,16.406c-0.124,0-0.225-0.101-0.225-0.225c0-0.06,0.024-0.117,0.066-0.159l1.793-1.794
			c0.07-0.07,0.166-0.11,0.265-0.11h2.585c0.207,0,0.375,0.168,0.375,0.375v1.537c0,0.207-0.168,0.375-0.375,0.375H4.513
			L4.513,16.406z"/>
		<path fill-rule="evenodd" clip-rule="evenodd" fill="#FFFFFF" d="M5.984,20.336c-0.518,0-0.937-0.42-0.937-0.937
			c0-0.518,0.42-0.937,0.937-0.937s0.937,0.42,0.937,0.937C6.921,19.916,6.501,20.336,5.984,20.336L5.984,20.336z M6.005,17.678
			c-0.942,0-1.706,0.765-1.706,1.706c0,0.942,0.765,1.706,1.706,1.706c0.942,0,1.706-0.764,1.706-1.706
			C7.711,18.443,6.946,17.678,6.005,17.678L6.005,17.678z"/>
		<path fill-rule="evenodd" clip-rule="evenodd" fill="#FFFFFF" d="M17.961,20.336c-0.518,0-0.938-0.42-0.938-0.937
			c0-0.518,0.42-0.937,0.938-0.937c0.517,0,0.937,0.42,0.937,0.937C18.898,19.916,18.478,20.336,17.961,20.336L17.961,20.336z
			 M17.961,17.692c-0.942,0-1.706,0.765-1.706,1.706c0,0.942,0.764,1.706,1.706,1.706c0.942,0,1.706-0.764,1.706-1.706
			C19.667,18.457,18.903,17.692,17.961,17.692L17.961,17.692z"/>
	</g>
</g>
</svg>
