<svg xmlns="http://www.w3.org/2000/svg" width="24" height="24" version="1.1" viewBox="0 0 24 24">
  <path fill="none" fill-rule="evenodd" stroke="#000" stroke-width="1" d="M6.8525,7.8528 C6.6525,8.4618 6.4995,9.2698 6.4995,9.9998 L6.4995,15.9998 C6.4995,15.9998 6.4575,18.4998 3.9995,18.4998 L17.4995,18.4998 M17.5,14.9997 L17.5,10.0177 C17.5,7.1977 15.386,4.7267 12.573,4.5207 C11.09,4.4137 9.501,4.8567 8.5,5.4997 M13.5,4.6862 L13.5,3.5002 L10.5,3.5002 L10.5,4.6862 M9.5,18.4997 C9.5,19.8807 10.619,20.4997 12,20.4997 C13.381,20.4997 14.5,19.8807 14.5,18.4997 M4,5.0002 L19,20.0002"/>
</svg>
