<svg xmlns="http://www.w3.org/2000/svg" width="24" height="24" fill="none" viewBox="0 0 24 24"><path fill="#000" d="M15 20h-1v-3h-3.493l-.14.009c-.314.035-.54.177-.718.38-.217.249-.374.602-.478 1a5.7 5.7 0 0 0-.164 1.096 6 6 0 0 0-.009.462l.001.024v.006l-.998.046L8 20.02v-.011l-.001-.034-.002-.123c0-.103.002-.248.012-.422.02-.346.07-.817.195-1.296.125-.474.333-.994.693-1.404.375-.427.9-.72 1.596-.73H15zm-.065-14.748L16.9 8.694l.222.222 2.19-.88 1.66-.667L19.9 8.8l-1.24 1.654.975.975 2.156-.719L21 13.082V16h-4v4h-1v-5h4v-1.793l-3.854-3.853-.047-.047-.034-.059-1.71-2.992-1.927 1.542-.866 2.596 2.318 2.787-.77.638-2.495-3-.178-.214.088-.263.115-.342H8.18l-2.79 2.325L3.862 15H7v5H6v-4H2.139l.426-.748 2-3.5.045-.078.07-.058 3-2.5L7.82 9h3.153l.552-1.658.047-.14.116-.093 2.5-2 .457-.365zM16.5 12a.5.5 0 1 1 0 1 .5.5 0 0 1 0-1m1.392-2.315.053.053.081-.107z"/></svg>