<svg xmlns="http://www.w3.org/2000/svg" width="48" height="48" fill="none" viewBox="0 0 48 48"><path fill="#000" fill-rule="evenodd" d="M38 2c-1.495 0-2.87.628-3.55 1.638a3.4 3.4 0 0 0-.95-.138c-1.547 0-3 1.026-3 2.5 0 .788.432 1.45 1.046 1.893a1.4 1.4 0 0 0-.046.357c0 1.047.983 1.75 2 1.75s2-.703 2-1.75q0-.184-.043-.357a2.8 2.8 0 0 0 .406-.36A4.95 4.95 0 0 0 38 8c.785 0 1.516-.177 2.133-.47.559.607 1.425.97 2.367.97 1.547 0 3-1.026 3-2.5s-1.453-2.5-3-2.5q-.501.001-.953.134C40.866 2.626 39.493 2 38 2m-2.863 2.453C35.48 3.68 36.567 3 38 3c1.432 0 2.519.68 2.863 1.453l.206.462.459-.21c.283-.13.612-.205.972-.205 1.213 0 2 .774 2 1.5s-.787 1.5-2 1.5c-.837 0-1.501-.384-1.805-.874l-.261-.42-.423.256A3.9 3.9 0 0 1 38 7c-.784 0-1.481-.208-2.006-.534l-.42-.262-.266.418c-.16.25-.4.47-.702.62l-.5.25.304.47q.091.143.09.288c0 .333-.357.75-1 .75s-1-.417-1-.75c0-.083.03-.185.101-.306l.268-.457-.47-.242c-.585-.3-.899-.773-.899-1.245 0-.726.787-1.5 2-1.5.352 0 .685.082.983.21l.453.194zM24 8.827l.334.301 6.666 6V12h5v7.627l8.334 7.501.969.872H41v18H7V28H2.697l.969-.872 20-18zM8 45V28h32v17H29V33H19v12zm34.697-18-7.532-6.778-.165-.15V13h-3v4.373l-.834-.751L24 10.172 5.303 27zM28 45V34h-8v11zm4.5-12H32v5h5v-5h-4.5m.5 4v-3h3v3zm-22-4h5v5h-5v-5m1 1v3h3v-3zm14 6h-2v-1h2v-1h1v3h-1z" clip-rule="evenodd"/></svg>