<svg xmlns="http://www.w3.org/2000/svg" width="24" height="24" fill="none" viewBox="0 0 24 24"><path fill="#000" fill-rule="evenodd" d="M10 14h4v-4h-4zm-1 1h6V9H9zm2-2h2v-2h-2zM6.999 3.996H10v-1H6.999zm0 2.004V5h-2v1l1 .003v2h1v-1h2V6h2V5h-2v.002h-1v1h-1zm0 3H5V7H4V6H3v2h1v1h.999v1h2zm5-3.997h1v-2h-1v.998h-1v1h1zm8.001 2h1v-1h-1zm-2 5h1v-1h-1v.999h-2v1h2zm-14.001-8 2-.008v-1h-3v2.008h1zm14.001 9v2h1v-1h1v1h1v-2zm-5-8v2h1v-1l3-.002v-1h1v-1h-1v-.998h-1v1.998h-1v-.998h-1v1zm3 2v2h1v-.001h1v-1h-1v-.998zm1 14.002h1v-2h-1zm3-1.003h-1v1h1v.003h1v-2h-1zm0-14.999h1v-2h-1v-.002h-2v1h2zm0 10h-1v2.999h-1v1h2v-1h1v-1h-1zm0-2.999h1v-2h-1zm-3-5.003h2v-1h-2zm2 1v2.002h1v-1l1-.002v-1zm-8 13.001h2v-1h-2zm-1-13h1v.001h1v-2h-1v.998h-1zm0 11H9v1h1v.003h1v-2h-1zm5 .003h-1v2h1v-.003h1v-1h-1zm-7.001-4.003-2 .002v1h1v.998h2v-1h-1zm2.001 2h2v-1h-2zm6-6h2v-1h-2zm-13.001 7h1v-1h-1zm2-5H6v-1H4.999zm2-4h1v-1h-1zm7.001-1h1v-1h-1zm-10.001 4h1v-1h-1zm-1-1h1v-2h-1zm0 3h1v-2h-1zm2 4.001H7v-1H4.999zm0-4.001h-1v1l-1 .002v1h2zm2 5v.002h-1v1h1v.998h1v-1.998h1v-1h-2zm-3 0h-1v2h1v.003h2v-1h-2zm2-4.998h2v-1h-2zm0-2h2v-1h-2zM17 17.002h1v-1h-1zm-3 0h1v2h2v-1h-1v-1.998h1v-2h-1v1.998l-3 .002v1h-1v2h1v-1h1z" clip-rule="evenodd"/></svg>