<svg xmlns="http://www.w3.org/2000/svg" width="48" height="48" fill="none" viewBox="0 0 48 48"><path fill="#000" fill-rule="evenodd" d="M3 24C3 12.402 12.402 3 24 3s21 9.402 21 21-9.402 21-21 21S3 35.598 3 24M24 2C11.85 2 2 11.85 2 24s9.85 22 22 22 22-9.85 22-22S36.15 2 24 2m-6.13 12.33a9.6 9.6 0 0 0-1.1 4.77l1.34.02a8.7 8.7 0 0 1 .8-3.9 5.48 5.48 0 0 1 5.27-3 5.67 5.67 0 0 1 4.16 1.5 4.75 4.75 0 0 1 1.47 3.49 5.55 5.55 0 0 1-1.34 3.53 26 26 0 0 1-2.34 2.39A9.5 9.5 0 0 0 23.82 26a11 11 0 0 0-.46 3.81h1.37a12.4 12.4 0 0 1 .27-3c.124-.457.33-.888.61-1.27q.667-.825 1.45-1.54a30 30 0 0 0 2.72-2.75 6.52 6.52 0 0 0 1.45-4.12 5.76 5.76 0 0 0-1.74-4.2A7.1 7.1 0 0 0 24.22 11a7.86 7.86 0 0 0-3.75.88 6.4 6.4 0 0 0-2.6 2.45M24.77 37v-3.4H23.3V37z" clip-rule="evenodd"/></svg>