<svg xmlns="http://www.w3.org/2000/svg" width="48" height="48" fill="none" viewBox="0 0 48 48"><path fill="#000" fill-rule="evenodd" d="M3 17.5C3 9.492 9.492 3 17.5 3S32 9.492 32 17.5 25.508 32 17.5 32 3 25.508 3 17.5M17.5 2C8.94 2 2 8.94 2 17.5S8.94 33 17.5 33c4.1 0 7.829-1.592 10.6-4.192l3.869 3.868-.707.707-.353.353.353.354 11.324 11.324a2 2 0 1 0 2.828-2.828L34.09 31.262l-.353-.354-.354.354-.707.707-3.868-3.868C31.408 25.329 33 21.6 33 17.5 33 8.94 26.06 2 17.5 2m0 3C10.596 5 5 10.596 5 17.5S10.596 30 17.5 30 30 24.404 30 17.5 24.404 5 17.5 5M4 17.5C4 10.044 10.044 4 17.5 4S31 10.044 31 17.5 24.956 31 17.5 31 4 24.956 4 17.5m28.323 16.237 10.97 10.97a1 1 0 1 0 1.414-1.414l-10.97-10.97zM26 18H9v-1h17z" clip-rule="evenodd"/></svg>