<?xml version="1.0" encoding="utf-8"?>
<!-- Generator: Adobe Illustrator 25.0.0, SVG Export Plug-In . SVG Version: 6.00 Build 0)  -->
<svg version="1.0" xmlns="http://www.w3.org/2000/svg" xmlns:xlink="http://www.w3.org/1999/xlink" x="0px" y="0px"
	 viewBox="0 0 24 24" enable-background="new 0 0 24 24" xml:space="preserve">
<g id="SVG_x5F_24x24pt">
	<path id="backgroundBlue" fill="#2D327D" d="M0,22.5v-21C0,0.675,0.675,0,1.5,0h21C23.325,0,24,0.675,24,1.5v21
		c0,0.825-0.675,1.5-1.5,1.5h-21C0.675,24,0,23.325,0,22.5z"/>
	<g id="content">
		<path fill="#FFFFFF" d="M6.522,12.223l0.003,0.755c-0.002,0.165,0.135,0.295,0.3,0.297h0.102l0.514-1.349H6.825
			C6.66,11.925,6.523,12.058,6.522,12.223z"/>
		<path fill="#FFFFFF" d="M2.997,3h1.817C5.12,3,5.36,3.019,5.536,3.057C5.711,3.095,5.87,3.162,6.012,3.259
			C6.404,3.521,6.6,3.918,6.6,4.447c0,0.47-0.162,0.84-0.487,1.109C5.976,5.671,5.819,5.754,5.642,5.804
			c-0.177,0.05-0.394,0.076-0.653,0.076h-1.01v1.623H2.997V3z M3.979,3.831v1.275h0.878c0.261,0,0.449-0.046,0.563-0.139
			C5.562,4.853,5.633,4.683,5.633,4.46c0-0.226-0.082-0.394-0.246-0.505C5.268,3.873,5.073,3.831,4.805,3.831H3.979z"/>
		<path fill="#FFFFFF" d="M3,18.375C3,19.825,4.175,21,5.625,21s2.625-1.175,2.625-2.625c0-1.014-0.575-1.893-1.416-2.33l1.97-5.17
			h1.809c0.187,0,0.338-0.151,0.338-0.338c0-0.186-0.151-0.337-0.338-0.337H8.626v0.001c-0.121,0-0.236,0.072-0.282,0.192
			l-2.071,5.438c-0.207-0.053-0.424-0.081-0.648-0.081C4.175,15.75,3,16.925,3,18.375z M4.125,18.375c0-0.829,0.671-1.5,1.5-1.5
			c0.083,0,0.163,0.008,0.242,0.021l-0.523,1.372c-0.059,0.155,0.019,0.328,0.174,0.387c0.035,0.013,0.071,0.02,0.107,0.02
			c0.121,0,0.235-0.074,0.28-0.193l0.523-1.372c0.419,0.266,0.697,0.733,0.697,1.266c0,0.829-0.671,1.5-1.5,1.5
			S4.125,19.204,4.125,18.375z"/>
		<path fill="#FFFFFF" d="M15.75,13.35c0-0.373,0.302-0.675,0.675-0.675h3.825v0.675H15.75z"/>
		<path fill="#FFFFFF" d="M7.531,15.059c1.057,0.608,1.795,1.705,1.904,2.984v0.021c0,0.338,0.274,0.611,0.611,0.611h3.978l1.743,0
			C15.917,19.984,17.027,21,18.375,21C19.825,21,21,19.825,21,18.375c0-1.45-1.175-2.625-2.625-2.625
			c-1.348,0-2.458,1.017-2.607,2.325h-1.205c0.153-1.972,1.8-3.525,3.812-3.525h1.875v-0.9c0,0-5.294,0-6.825,0
			c-0.179,0-0.373-0.055-0.555-0.2c-0.14-0.11-1.282-1.001-1.774-1.386c-0.114-0.088-0.256-0.139-0.411-0.139H8.726L7.531,15.059z
			 M16.905,18.676l1.47,0c0.104,0,0.2-0.053,0.255-0.142c0.087-0.142,0.043-0.326-0.098-0.413c-0.048-0.03-0.103-0.045-0.158-0.046
			h-1.469c0.139-0.685,0.744-1.2,1.47-1.2c0.829,0,1.5,0.671,1.5,1.5s-0.671,1.5-1.5,1.5C17.649,19.875,17.044,19.36,16.905,18.676z
			"/>
	</g>
</g>
</svg>
