<svg xmlns="http://www.w3.org/2000/svg" width="24" height="24" version="1.1" viewBox="0 0 24 24">
  <path fill="none" fill-rule="evenodd" stroke="#000" stroke-width="1" d="M18.5,9.0059 C18.5,5.4129 15.59,2.4999 12,2.4999 C8.41,2.4999 5.5,5.4129 5.5,9.0059 C5.543,10.1219 5.874,11.0609 6.405,11.9459 L12.019,20.9999 L17.632,11.9459 C18.156,11.0269 18.491,10.0709 18.5,9.0059 Z M12.4683,9.3799 C12.4683,9.6389 12.2593,9.8489 12.0003,9.8489 C11.7413,9.8489 11.5313,9.6389 11.5313,9.3799 C11.5313,9.1209 11.7413,8.9119 12.0003,8.9119 C12.2593,8.9119 12.4683,9.1209 12.4683,9.3799 M12.4683,9.3799 C12.4683,9.6389 12.2593,9.8489 12.0003,9.8489 C11.7413,9.8489 11.5313,9.6389 11.5313,9.3799 C11.5313,9.1209 11.7413,8.9119 12.0003,8.9119 C12.2593,8.9119 12.4683,9.1209 12.4683,9.3799 Z M10.5,7.5 L8.5,7.5 L8.5,11.5 L15.5,11.5 L15.5,7.5 L13.5,7.5 L13,6.5 L11,6.5 L10.5,7.5 Z"/>
</svg>
