<svg xmlns="http://www.w3.org/2000/svg" width="36" height="36" fill="none" viewBox="0 0 36 36"><path fill="#000" fill-rule="evenodd" d="M8.25 3.25h-.5v10h1.5v.25a2 2 0 0 0 1.03 1.75H3v1h30v-1h-8.78a2 2 0 0 0 1.03-1.75v-.25h3.238l-.274-.686-1.464-3.66V6.25h-1.5v-3h-4v3h-5v-3h-8m14.03 12a2 2 0 0 1-1.03-1.75v-.25h-2v.25a2 2 0 0 1-1.03 1.75zm-6 0a2 2 0 0 1-1.03-1.75v-.25h-2v.25a2 2 0 0 1-1.03 1.75zm5.97-1.75v-.25h2v.25a1 1 0 1 1-2 0m-4-.25h-2v.25a1 1 0 1 0 2 0zm-8 .25v-.25h2v.25a1 1 0 1 1-2 0m12-7.25h2v-2h-2zm-13.5.5v-2.5h6.5v3h10.5v1.846l.036.09 1.226 3.064H8.75zm4.5 25V25.5A4.74 4.74 0 0 1 18 20.75a4.74 4.74 0 0 1 4.75 4.75v6.25zm-1 0V25.5c0-3.19 2.575-5.75 5.75-5.75s5.75 2.56 5.75 5.75v6.25h3.5V25.5c0-3.19 2.575-5.75 5.75-5.75v1a4.74 4.74 0 0 0-4.75 4.75v6.25H33v1H3v-1h4.75V25.5A4.74 4.74 0 0 0 3 20.75v-1c3.175 0 5.75 2.56 5.75 5.75v6.25z" clip-rule="evenodd"/></svg>