<?xml version="1.0" encoding="utf-8"?>
<!-- Generator: Adobe Illustrator 24.2.0, SVG Export Plug-In . SVG Version: 6.00 Build 0)  -->
<svg version="1.0" id="Ebene_1" xmlns="http://www.w3.org/2000/svg" xmlns:xlink="http://www.w3.org/1999/xlink" x="0px" y="0px"
	 viewBox="0 0 24 24" enable-background="new 0 0 24 24" xml:space="preserve">
<g id="SVG_x5F_24x24pt">
	<path id="backgroundBlue" fill="#2D327D" d="M0,22.5v-21C0,0.675,0.675,0,1.5,0h21C23.325,0,24,0.675,24,1.5v21
		c0,0.825-0.675,1.5-1.5,1.5h-21C0.675,24,0,23.325,0,22.5z"/>
	<g id="content_1_">
		<g>
			<path fill="#FFFFFF" d="M10.999,9.757v1.907c-0.062,0.067-0.244,0.274-0.546,0.623c-0.42,0.482-0.838,1.088-1.254,1.819
				c-0.415,0.731-0.738,1.432-0.969,2.103c-0.487,1.4-0.782,2.997-0.884,4.791H5.023c0.015-0.846,0.163-1.784,0.442-2.815
				c0.279-1.031,0.665-2.061,1.157-3.092c0.702-1.456,1.415-2.54,2.138-3.253H3.454V9.757H10.999z"/>
			<path fill="#FFFFFF" d="M12.917,18.178h2.123c0.174,0.872,0.679,1.307,1.515,1.307c0.472,0,0.855-0.16,1.15-0.481
				c0.295-0.32,0.522-0.819,0.681-1.496c0.102-0.431,0.177-0.92,0.223-1.469c-0.344,0.482-0.696,0.824-1.057,1.027
				c-0.361,0.203-0.801,0.304-1.319,0.304c-0.826,0-1.543-0.241-2.153-0.723c-0.426-0.338-0.758-0.777-0.996-1.315
				c-0.238-0.538-0.358-1.123-0.358-1.753c0-1.266,0.433-2.292,1.3-3.076c0.743-0.677,1.635-1.015,2.676-1.015
				c0.641,0,1.233,0.144,1.776,0.431c0.543,0.287,1,0.695,1.369,1.223c0.651,0.938,0.977,2.256,0.977,3.953
				c0,1.569-0.287,2.907-0.861,4.014c-0.749,1.441-1.882,2.161-3.399,2.161c-1.01,0-1.845-0.279-2.503-0.838
				C13.4,19.872,13.019,19.121,12.917,18.178z M16.654,11.387c-0.482,0-0.89,0.197-1.223,0.592c-0.333,0.4-0.5,0.908-0.5,1.523
				c0,0.497,0.12,0.938,0.361,1.323c0.328,0.528,0.789,0.792,1.384,0.792c0.538,0,0.969-0.215,1.292-0.646
				c0.302-0.405,0.454-0.887,0.454-1.446c0-0.59-0.156-1.089-0.469-1.5C17.626,11.6,17.193,11.387,16.654,11.387z"/>
		</g>
		<g id="Voie">
			<path fill="#FFFFFF" d="M5.036,3L4.288,5.249H3.73L2.993,3h0.514l0.506,1.684L4.527,3H5.036z"/>
			<path fill="#FFFFFF" d="M5.874,3.523c0.244,0,0.443,0.081,0.598,0.243c0.153,0.16,0.229,0.373,0.229,0.64
				c0,0.276-0.082,0.496-0.245,0.66C6.304,5.218,6.105,5.295,5.86,5.295c-0.261,0-0.47-0.085-0.624-0.255
				C5.088,4.877,5.014,4.667,5.014,4.409c0-0.254,0.072-0.461,0.215-0.62C5.389,3.612,5.603,3.523,5.874,3.523z M5.851,3.871
				c-0.118,0-0.212,0.048-0.281,0.143C5.499,4.11,5.463,4.242,5.463,4.409c0,0.173,0.035,0.306,0.105,0.398
				c0.072,0.093,0.17,0.14,0.294,0.14c0.116,0,0.208-0.043,0.275-0.128c0.077-0.094,0.115-0.231,0.115-0.411
				c0-0.168-0.034-0.299-0.102-0.392C6.08,3.919,5.98,3.871,5.851,3.871z"/>
			<path fill="#FFFFFF" d="M7.449,3v0.401H7.003V3H7.449z M7.449,3.572v1.677H7.003V3.572H7.449z"/>
			<path fill="#FFFFFF" d="M9.321,4.726C9.297,4.82,9.255,4.909,9.193,4.992c-0.148,0.202-0.36,0.303-0.637,0.303
				c-0.25,0-0.451-0.079-0.601-0.237c-0.074-0.077-0.13-0.17-0.169-0.278C7.744,4.664,7.723,4.543,7.723,4.417
				c0-0.244,0.07-0.449,0.211-0.615c0.157-0.186,0.36-0.278,0.609-0.278c0.201,0,0.372,0.062,0.514,0.186
				c0.102,0.089,0.175,0.199,0.221,0.33s0.069,0.295,0.069,0.493h-1.17c0.004,0.082,0.017,0.15,0.038,0.205
				c0.06,0.147,0.175,0.22,0.345,0.22c0.083,0,0.151-0.018,0.203-0.055c0.052-0.036,0.095-0.095,0.129-0.176H9.321z M8.892,4.232
				C8.884,4.151,8.865,4.084,8.836,4.031C8.808,3.978,8.767,3.937,8.714,3.906C8.661,3.875,8.604,3.86,8.541,3.86
				c-0.099,0-0.181,0.033-0.246,0.1C8.23,4.026,8.192,4.117,8.18,4.232H8.892z"/>
		</g>
	</g>
</g>
</svg>
