<svg xmlns="http://www.w3.org/2000/svg" width="48" height="48" fill="none" viewBox="0 0 48 48"><path fill="#000" fill-rule="evenodd" d="M24.5 11.499v-6h-1v6zm-12.875-1.082 4.243 4.243-.708.707-4.243-4.243zM5.998 22.999h6v1h-6zm4.078 14h3.923V24c0-5.521 4.477-10 10-10 5.524 0 10 4.479 10 10v13h3.924l.07.418 1 6 .097.583H8.91l.096-.583 1-6zm22.923 0V24a9 9 0 0 0-18 0v13H21v-7a3 3 0 0 1 6 .002v.004L26.999 37zm-11-7L22 37H26v-6.998A2 2 0 1 0 22 30m-11.076 8-.833 5h27.82l-.834-5zM24 17a7 7 0 0 0-7 7h1a6 6 0 0 1 6-6zm18 7.002h-6v-1h6zm-9.16-8.633 4.242-4.242-.707-.707-4.243 4.242z" clip-rule="evenodd"/></svg>