<svg xmlns="http://www.w3.org/2000/svg" width="30" height="16" fill="none" viewBox="0 0 30 16"><path fill="#000" d="M11.327 3.5a1.25 1.25 0 1 0 0-2.5 1.25 1.25 0 0 0 0 2.5M9.819 4.25a.75.75 0 0 0-.75.735l-1.499-.67a.75.75 0 0 0-.306-.065H4.235a.75.75 0 0 0-.665.404l-.843 1.62-1.36.81a.75.75 0 0 0 .767 1.289l1.344-.8-.005 1.842a.75.75 0 0 0 .43.681l.058.027v4.127a.75.75 0 0 0 1.5 0v-4.082h.5v4.082a.75.75 0 0 0 1.5 0v-4.102l.09-.038a.75.75 0 0 0 .463-.693v-3.26l1.05.469-.008 2.79a.75.75 0 0 0 .43.68l.058.027v4.127a.75.75 0 0 0 1.5 0v-4.082h.5v4.082a.75.75 0 0 0 1.5 0v-4.102l.091-.038a.75.75 0 0 0 .463-.693V6.622l1.041-.465v3.26a.75.75 0 0 0 .463.693l.09.038v4.102a.75.75 0 0 0 1.5 0v-4.082h.5v4.082a.75.75 0 0 0 1.5 0v-4.127l.058-.027a.75.75 0 0 0 .43-.68l-.005-1.844 1.344.8a.75.75 0 1 0 .768-1.288l-1.36-.81-.844-1.62a.75.75 0 0 0-.665-.404h-3.029a.75.75 0 0 0-.306.065l-1.486.664a.75.75 0 0 0-.75-.729zM6.993 2.25a1.25 1.25 0 1 1-2.5 0 1.25 1.25 0 0 1 2.5 0M16.91 3.5a1.25 1.25 0 1 1 0-2.5 1.25 1.25 0 0 1 0 2.5"/><path fill="#000" fill-rule="evenodd" d="M26.114 1h-3.5v6.996h1.577V5.244h1.419q.756 0 1.068.288.315.282.376 1.024.059.832.094 1.062.039.23.123.378h1.647l-.07-.081q-.143-.177-.212-.905-.095-.99-.153-1.268a1.5 1.5 0 0 0-.233-.531 1.22 1.22 0 0 0-.751-.517q.543-.196.845-.65.306-.456.307-1.068 0-.54-.243-.971a1.8 1.8 0 0 0-.702-.69Q27.152 1 26.114 1m-1.923 3.125V2.2h1.572q.692 0 1.014.23.321.23.321.727 0 .512-.376.766-.297.2-1.023.2z" clip-rule="evenodd"/></svg>