<svg xmlns="http://www.w3.org/2000/svg" width="48" height="48" viewBox="0 0 48 48">
  <path fill="none" stroke="#000" d="M45.0605,42.9395 L33.7365,31.6155 L31.6155,33.7365 L42.9395,45.0605 C43.5255,45.6465 44.4745,45.6465 45.0605,45.0605 C45.6465,44.4745 45.6465,43.5255 45.0605,42.9395 Z M30.5,17.5 C30.5,24.68 24.68,30.5 17.5,30.5 C10.32,30.5 4.5,24.68 4.5,17.5 C4.5,10.32 10.32,4.5 17.5,4.5 C24.68,4.5 30.5,10.32 30.5,17.5 Z M32.5,17.5 C32.5,25.784 25.784,32.5 17.5,32.5 C9.216,32.5 2.5,25.784 2.5,17.5 C2.5,9.216 9.216,2.5 17.5,2.5 C25.784,2.5 32.5,9.216 32.5,17.5 Z M9,17.5 L26,17.5 M28.1064,28.1064 L32.6754,32.6754 M17.5,9 L17.5,26"/>
</svg>
