<svg xmlns="http://www.w3.org/2000/svg" width="48" height="48" viewBox="0 0 48 48">
  <path fill="none" stroke="#000" d="M17.5,21.5 L17.5,43.5 L21,39 L24.5,43.5 L24.5,23.45 M24.5,36.5 L26,35 L29.5,39.5 L29.5,21.5 M23.5,3.5 C29.022,3.5 33.5,7.977 33.5,13.5 C33.5,19.023 29.022,23.5 23.5,23.5 C17.977,23.5 13.5,19.023 13.5,13.5 C13.5,7.977 17.977,3.5 23.5,3.5 Z M23.5,5.5 C27.918,5.5 31.5,9.082 31.5,13.5 C31.5,17.918 27.918,21.5 23.5,21.5 C19.082,21.5 15.5,17.918 15.5,13.5 C15.5,9.082 19.082,5.5 23.5,5.5 Z"/>
</svg>
