<svg xmlns="http://www.w3.org/2000/svg" width="24" height="24" fill="none" viewBox="0 0 24 24"><path fill="#000" fill-rule="evenodd" d="M2 7.5A2.5 2.5 0 0 1 4.5 5h15A2.5 2.5 0 0 1 22 7.5v10a2.5 2.5 0 0 1-2.5 2.5h-15A2.5 2.5 0 0 1 2 17.5zM4.5 6A1.5 1.5 0 0 0 3 7.5v10A1.5 1.5 0 0 0 4.5 19h15a1.5 1.5 0 0 0 1.5-1.5v-10A1.5 1.5 0 0 0 19.5 6zM8 12V7h-.9q-.11.502-.427.715a1.6 1.6 0 0 1-.485.212 3.2 3.2 0 0 1-.688.074v.726h1.354V12zm6.195 1.388q-.488-.387-1.215-.388-.82 0-1.335.476-.53.485-.53 1.375v.106h1q.026-1.086.83-1.085.327 0 .527.198a.7.7 0 0 1 .203.52.8.8 0 0 1-.15.487q-.15.21-.524.455-.767.507-1.025.698a3.4 3.4 0 0 0-.452.39 1.8 1.8 0 0 0-.385.621Q11 17.601 11 18h3.75v-.869h-2.443q.182-.221.393-.391t.704-.491q.516-.337.636-.426.123-.087.26-.235.425-.449.424-1.067-.001-.713-.53-1.133m-7.821 3.944 8-9-.748-.664-8 9z" clip-rule="evenodd"/></svg>