<svg xmlns="http://www.w3.org/2000/svg" width="36" height="36" version="1.1" viewBox="0 0 36 36">
  <path fill="none" fill-rule="evenodd" stroke="#000" stroke-width="1" d="M15,12.74805 L19.5,12.74805 M11.25,12.7467 L11.25,30.7482 C11.25,31.5777 11.922,32.2482 12.75,32.2482 L21.75,32.2482 C22.578,32.2482 23.25,31.5777 23.25,30.7482 L23.25,12.7482 C23.25,11.9202 22.5795,11.2482 21.75,11.2482 L12.75,11.2467 C11.922,11.2467 11.25,11.9187 11.25,12.7467 Z M9,12.16065 L4.62,13.75365 C3.939,14.00265 3.5835,14.74515 3.8265,15.41115 L9,29.62665 M25.5,29.62755 L30.6735,15.41205 C30.9165,14.74605 30.561,14.00355 29.88,13.75605 L25.5,12.16005 M25.5,2.99955 L27.75,6.74955 L24,8.99955 M10.5,8.99955 L6.75,6.74955 L9,2.99955 M6.75,6.74955 C10.059,5.74755 13.614,5.24955 17.25,5.24955 C20.865,5.24955 24.4575,5.75805 27.75,6.74955"/>
</svg>
