<svg class="color-immutable" xmlns="http://www.w3.org/2000/svg" width="59" height="20" fill="none" viewBox="0 0 59 20"><path fill="#E84E10" fill-rule="evenodd" d="M2 0a2 2 0 0 0-2 2v16a2 2 0 0 0 2 2h55a2 2 0 0 0 2-2V2a2 2 0 0 0-2-2z" clip-rule="evenodd"/><path fill="#000" d="M14.153 4.17v2.142H7.98v2.476h5.657v1.991H7.98v2.849h6.284v2.142H5.45V4.17zM25.311 4.17l-3.856 11.6h-2.88l-3.8-11.6h2.65l2.61 8.688 2.65-8.688zM33.613 13.707v2.063h-8.355q0-.945.301-1.801a4.4 4.4 0 0 1 .865-1.476 8 8 0 0 1 1-.928q.579-.453 2.293-1.659.833-.578 1.167-1.079a2.04 2.04 0 0 0 .333-1.158q0-.762-.452-1.23-.445-.476-1.175-.476-1.793 0-1.849 2.579h-2.23v-.254q0-2.11 1.183-3.27 1.15-1.126 2.976-1.126 1.618 0 2.705.92 1.182 1 1.182 2.69 0 1.476-.944 2.54-.31.348-.579.563-.27.206-1.42 1.007-1.095.762-1.571 1.167a6.4 6.4 0 0 0-.873.928zM36.075 9.541q-.81-.277-1.246-.912-.428-.634-.428-1.54 0-1.507 1.237-2.404 1.095-.793 2.603-.793 1.714 0 2.801.944 1.032.889 1.032 2.198 0 .913-.437 1.563-.435.651-1.238.944.627.183 1.024.468 1.103.802 1.103 2.341 0 1.77-1.357 2.817-1.143.88-2.936.88-1.944 0-3.094-.967-1.2-1.008-1.199-2.642 0-1.532 1.064-2.373.484-.373 1.07-.524m2.134-3.848q-.761 0-1.23.429-.468.42-.468 1.11 0 .723.468 1.159.477.428 1.27.428.794 0 1.254-.428.46-.429.46-1.167 0-.72-.468-1.126-.46-.405-1.286-.405m-.016 4.721q-.856 0-1.404.532-.54.524-.54 1.349 0 .849.548 1.38.555.532 1.436.532 1 0 1.5-.587.483-.564.484-1.301 0-.841-.556-1.381-.53-.524-1.468-.524"/></svg>