<svg xmlns="http://www.w3.org/2000/svg" width="48" height="48" fill="none" viewBox="0 0 48 48"><path fill="#000" fill-rule="evenodd" d="M22.013 3H26v.516l.002.069.007.25a406 406 0 0 0 .11 3.638c.06 1.747.137 3.581.213 4.527H28v4H26.87c.457 3.107 1.08 7.001 1.835 11h2.73l-.518.777-1.616 2.424v.012l.041.152c.864 2.98 2.733 6.686 4.405 9.67a106 106 0 0 0 3.049 5.093l.048.074.012.019.003.004v.002l-.418.273.419-.273.504.773h-8.382l-.04-.457a4.99 4.99 0 0 0-9.943 0L18.96 46h-8.413l.543-.785.411.285-.411-.285.004-.006.013-.019.053-.078.204-.302a86.212 86.212 0 0 0 3.076-4.972c1.726-3.02 3.57-6.719 4.228-9.677l-1.584-2.384-.515-.777h2.728a281 281 0 0 0 1.835-11h-1.13v-4h1.667c.077-.952.153-2.802.214-4.557a463 463 0 0 0 .11-3.629l.006-.242L22 3.51v-.021l.5.012-.5-.013zM19.49 31c-.418 1.581-1.111 3.307-1.91 5h2.559l1.666-5h-2.315m-2.395 6a67 67 0 0 1-1.788 3.334A87 87 0 0 1 12.438 45h5.62a5.99 5.99 0 0 1 11.823 0h5.648q-.196-.31-.452-.727a107 107 0 0 1-2.203-3.749A84 84 0 0 1 31.002 37zm13.418-1c-.813-1.702-1.54-3.43-2.026-5h-2.294l1.666 5zM25.119 7.507c.058 1.666.132 3.474.21 4.493h-2.658c.079-1.025.152-2.849.21-4.523A468 468 0 0 0 22.987 4h2.026c.018.706.056 2.069.106 3.507M22.142 16h3.716a284 284 0 0 0 1.828 11h-7.372a284 284 0 0 0 1.828-11m.718 15-1.666 5h5.612l-1.666-5zm5.376-1 .064-.094v-.007l.084-.126L29.566 28H18.432l1.183 1.78.15.22zM21 13v2h6v-2z" clip-rule="evenodd"/></svg>