<?xml version="1.0" encoding="utf-8"?>
<!-- Generator: Adobe Illustrator 24.2.0, SVG Export Plug-In . SVG Version: 6.00 Build 0)  -->
<svg version="1.0" xmlns="http://www.w3.org/2000/svg" xmlns:xlink="http://www.w3.org/1999/xlink" x="0px" y="0px"
	 viewBox="0 0 24 24" enable-background="new 0 0 24 24" xml:space="preserve">
<g id="SVG_x5F_24x24pt">
	<path id="backgroundBlue" fill="#2D327D" d="M0,22.5v-21C0,0.675,0.675,0,1.5,0h21C23.325,0,24,0.675,24,1.5v21
		c0,0.825-0.675,1.5-1.5,1.5h-21C0.675,24,0,23.325,0,22.5z"/>
	<g id="content">
		<path fill="#FFFFFF" d="M20.769,21.185H3.144c-0.102,0-0.185-0.083-0.185-0.185c0-0.102,0.083-0.185,0.185-0.185h17.625
			c0.102,0,0.185,0.083,0.185,0.185C20.955,21.102,20.872,21.185,20.769,21.185z"/>
		<path fill="#FFFFFF" d="M20.979,13.874c-0.168-0.304-0.38-0.581-0.628-0.823c-0.503-0.49-1.14-0.821-1.831-0.951l-5.759-1.015
			L9.426,3.379L7.961,3l-0.297,7.187l-2.666-0.47L4.436,7.69l-1.155-0.15l-0.393,3.29l4.646,2.658l11.115,1.96
			c0.54,0.095,1.093,0.084,1.629-0.031l-0.001,0.001c0.204-0.044,0.39-0.147,0.535-0.295C21.137,14.789,21.205,14.281,20.979,13.874
			z"/>
		<circle fill="#FFFFFF" cx="17.861" cy="16.179" r="0.501"/>
		<circle fill="#FFFFFF" cx="11.481" cy="15.012" r="0.543"/>
		<circle fill="#FFFFFF" cx="9.917" cy="14.736" r="0.543"/>
	</g>
</g>
</svg>
