<svg xmlns="http://www.w3.org/2000/svg" width="48" height="48" fill="none" viewBox="0 0 48 48"><path fill="#000" fill-rule="evenodd" d="m23.781 8.084-.277.416-.277-.416.277-.185zm12.887 17.952a20 20 0 0 1-1.98 2.204 12.9 12.9 0 0 1 4.181 2.914l.305.32-.278.341c-1.875 2.308-7.29 5.05-14.873 1.497l.012 6.687-1 .002-.012-6.706c-7.603 3.579-13.032.831-14.91-1.48l-.28-.342.306-.319a12.9 12.9 0 0 1 4.181-2.914 20 20 0 0 1-1.98-2.204c-1.19-1.562-2.145-3.411-2.334-5.49l-.032-.352.32-.148c1.946-.901 4.321-.905 6.157-.707a21 21 0 0 1 2.662.464c.376-3.732 1.673-6.496 2.979-8.4a15 15 0 0 1 2.134-2.496 11 11 0 0 1 .919-.766l.057-.04.017-.012.005-.003.002-.001.278.415.278-.416.002.002.005.003.016.012.058.04q.075.053.206.155c.175.136.42.338.713.61.585.545 1.36 1.369 2.134 2.497 1.306 1.904 2.603 4.668 2.98 8.4q.156-.038.346-.08c.578-.13 1.388-.284 2.315-.384 1.836-.198 4.211-.194 6.157.707l.32.148-.032.351c-.19 2.08-1.145 3.93-2.334 5.49m-3.848 3.852c.339-.276.695-.576 1.06-.9 1.47.574 2.809 1.435 3.941 2.53-1.867 1.913-6.783 4.162-13.8.683l-.003-1.443 5.763-3.842-.554-.832-5.211 3.474-.012-6.559-1 .002.012 6.573-5.235-3.49-.554.832 5.791 3.861.003 1.407c-7.035 3.503-11.963 1.25-13.834-.665a11.9 11.9 0 0 1 3.941-2.53q.55.485 1.06.9l.632-.776c-1.186-.967-2.563-2.211-3.684-3.683-1.048-1.376-1.856-2.928-2.093-4.618 1.64-.647 3.633-.659 5.3-.479a20 20 0 0 1 2.692.48q-.03.58-.031 1.187h1c0-4.64 1.462-7.918 2.912-10.031a14 14 0 0 1 1.99-2.33c.243-.225.448-.396.598-.515.15.119.355.29.597.515.54.502 1.264 1.27 1.99 2.33 1.45 2.113 2.913 5.391 2.913 10.031h1q0-.607-.031-1.186.2-.051.487-.116c.55-.123 1.323-.27 2.204-.365 1.668-.18 3.662-.168 5.3.48-.236 1.69-1.044 3.24-2.092 4.617-1.121 1.472-2.498 2.716-3.684 3.683z" clip-rule="evenodd"/></svg>