<svg xmlns="http://www.w3.org/2000/svg" width="36" height="36" fill="none" viewBox="0 0 36 36"><path fill="#000" fill-rule="evenodd" d="M22.501 4.25H17.75v2h12v26.5H6.25V6.25h4.5v-3h11.751zM7.25 31.75h21.5v-17H7.25zm19.5-3.5H9.25v-10h17.5zm-16.5-1h15.5v-8h-15.5zm-3-13.5h21.5v-6.5H7.25zm3.25-4.5a1.25 1.25 0 1 1 0 2.5 1.25 1.25 0 0 1 0-2.5m4.5 0a1.25 1.25 0 1 1 0 2.5 1.25 1.25 0 0 1 0-2.5m4.5 0a1.25 1.25 0 1 1 0 2.5 1.25 1.25 0 0 1 0-2.5m-9 1a.25.25 0 1 0 0 .5.25.25 0 0 0 0-.5m4.5 0a.25.25 0 1 0 0 .5.25.25 0 0 0 0-.5m4.5 0a.25.25 0 1 0 0 .5.25.25 0 0 0 0-.5m7.501 0h-4.5v-1h4.5zm-15.251-4h5v-2h-5z" clip-rule="evenodd"/></svg>