<svg class="color-immutable" xmlns="http://www.w3.org/2000/svg" width="59" height="20" fill="none" viewBox="0 0 59 20"><path fill="#EB0000" fill-rule="evenodd" d="M2 0a2 2 0 0 0-2 2v16a2 2 0 0 0 2 2h55a2 2 0 0 0 2-2V2a2 2 0 0 0-2-2z" clip-rule="evenodd"/><path fill="#fff" fill-rule="evenodd" d="M8.129 15.733a.9.9 0 0 0 .358.067h12.637l-4.078-3.507H9.184l1.792-1.776h7.931L20.7 8.741h-7.933l1.747-1.798h7.932l2.71-2.743H12.656a1.63 1.63 0 0 0-.852.202l-.222.18-.27.225-6.81 6.857a.8.8 0 0 0-.315.629.64.64 0 0 0 .248.517l.446.382 2.554 2.046.404.337c.077.083.18.138.291.158m15.282.022.334.045h11.942l3.495-3.507H24.686l5.265-5.35h12.726L45.366 4.2H27.309l-7.26 7.419q-.206.189-.369.415a.56.56 0 0 0-.057.281.65.65 0 0 0 .179.473l.338.27 2.42 2.09.313.292q.17.126.357.225z" clip-rule="evenodd"/></svg>