<svg xmlns="http://www.w3.org/2000/svg" width="24" height="24" fill="none" viewBox="0 0 24 24"><path fill="#000" fill-rule="evenodd" d="M3.5 5H3v14h14.299l.141-.263 3.5-6.5.128-.237-.128-.237-3.5-6.5L17.3 5H3.5M4 18V6h12.701l3.231 6-3.23 6zm4-9c0-.564.436-1 1-1s1 .436 1 1-.436 1-1 1-1-.436-1-1m1-2c-1.116 0-2 .884-2 2s.884 2 2 2 2-.884 2-2-.884-2-2-2m3 8c0-.564.436-1 1-1s1 .436 1 1-.436 1-1 1-1-.435-1-1m1-2c-1.116 0-2 .883-2 2s.884 2 2 2 2-.883 2-2-.884-2-2-2m-6.354 2.647 8-8 .708.707-8 8z" clip-rule="evenodd"/></svg>