<svg class="color-immutable" xmlns="http://www.w3.org/2000/svg" width="59" height="20" fill="none" viewBox="0 0 59 20"><g clip-path="url(#a)"><path stroke="#fff" d="M2 .5h55A1.5 1.5 0 0 1 58.5 2v16a1.5 1.5 0 0 1-1.5 1.5H2A1.5 1.5 0 0 1 .5 18V2A1.5 1.5 0 0 1 2 .5Z"/><path fill="#fff" d="M12.877 7.71h-2.449q-.072-.863-.644-1.314-.564-.459-1.587-.459-.91 0-1.418.363-.5.355-.5.999 0 .58.483.838.468.258 2.37.725 2.005.5 2.779 1.007 1.425.934 1.426 2.602 0 1.829-1.434 2.884-1.266.927-3.424.927-2.401 0-3.73-1.096T3.37 12.068h2.562q.056.984.507 1.459.71.757 2.135.757.967 0 1.531-.379.636-.434.636-1.184t-.894-1.096q-.49-.193-2.32-.7-1.144-.315-1.789-.597-.644-.282-1.031-.628-.903-.806-.902-2.224 0-1.7 1.41-2.69 1.2-.847 3.118-.847 1.683 0 2.82.669 1.635.96 1.723 3.102M22.545 13.905V16h-8.483q0-.96.306-1.829.315-.87.878-1.498.435-.484 1.015-.943.588-.459 2.329-1.684.845-.588 1.184-1.096a2.07 2.07 0 0 0 .338-1.176q0-.773-.459-1.249-.45-.483-1.192-.483-1.821 0-1.877 2.618H14.32v-.257q0-2.144 1.2-3.32 1.169-1.144 3.021-1.144 1.644 0 2.748.935 1.2 1.015 1.2 2.731 0 1.498-.959 2.578-.314.354-.588.572-.274.21-1.442 1.023-1.112.773-1.595 1.185a6.5 6.5 0 0 0-.886.942zM25.293 9.676q-.822-.282-1.265-.927-.435-.644-.435-1.563 0-1.53 1.257-2.441 1.111-.806 2.642-.806 1.74 0 2.844.959 1.048.902 1.048 2.232 0 .925-.444 1.587-.443.66-1.256.959.636.185 1.039.475 1.12.814 1.12 2.377 0 1.795-1.378 2.86-1.16.894-2.98.894-1.975 0-3.143-.983-1.216-1.023-1.216-2.683 0-1.555 1.08-2.409.491-.379 1.087-.531m2.167-3.908q-.774 0-1.249.435-.475.427-.475 1.128 0 .733.475 1.176.483.435 1.29.435.804 0 1.272-.435.468-.434.468-1.184 0-.733-.476-1.144-.466-.41-1.305-.41m-.016 4.794q-.87 0-1.426.54-.548.53-.548 1.37 0 .861.556 1.401.564.54 1.458.54 1.016 0 1.523-.596.49-.572.491-1.322 0-.854-.564-1.401-.54-.532-1.49-.532"/></g><defs><clipPath id="a"><path fill="#fff" d="M0 0h59v20H0z"/></clipPath></defs></svg>