<svg xmlns="http://www.w3.org/2000/svg" width="48" height="48" version="1.1" viewBox="0 0 48 48">
  <path fill="none" fill-rule="evenodd" stroke="#000" stroke-width="1" d="M36.5,14.5 L36.5,45.5 L11.5,45.5 L11.5,14.5 M11.5,31.5 L10.202,31.5 C8.69,31.5 7.24,32.101 6.17,33.17 C5.101,34.239 4.5,35.689 4.5,37.202 L4.5,44.074 C4.5,44.452 4.65,44.815 4.917,45.082 C5.185,45.35 5.547,45.5 5.926,45.5 L11.5,45.5 M31.5,15.498 L34.5,15.498 L34.5,2.498 L31.5,2.498 L31.5,15.498 Z M18.5,40.5 L29.5,40.5 M5.1875,34.4893 L11.5115,34.4893 M36.5,31.5 L37.798,31.5 C39.311,31.5 40.761,32.101 41.83,33.17 C42.899,34.239 43.5,35.689 43.5,37.202 L43.5,44.074 C43.5,44.452 43.35,44.815 43.082,45.082 C42.815,45.35 42.452,45.5 42.074,45.5 L36.5,45.5 M42.8242,34.4893 L36.5002,34.4893 M22.5,26.5 L25.5,26.5 L25.5,23.5 L22.5,23.5 L22.5,26.5 Z M29.5,45.5 L29.5,39.5 C29.5,38.947 29.053,38.5 28.5,38.5 L19.5,38.5 C18.948,38.5 18.5,38.947 18.5,39.5 L18.5,45.5 M13.5,15.498 L16.5,15.498 L16.5,2.498 L13.5,2.498 L13.5,15.498 Z M16.5,3.5 L31.5,3.5 M13.5,14.5 L6.5,14.5 C5.948,14.5 5.5,14.053 5.5,13.5 L5.5,4.5 C5.5,3.947 5.948,3.5 6.5,3.5 L13.5,3.5 M31.5,14.5 L16.5,14.5 M34.5,3.5 L41.5,3.5 C42.053,3.5 42.5,3.947 42.5,4.5 L42.5,13.5 C42.5,14.053 42.053,14.5 41.5,14.5 L34.5,14.5 M22.5,24.4316 C20.654,24.2646 18.845,23.7896 17.148,23.0246 C14.993,22.0516 13.07,20.6326 11.506,18.8606 M36.5059,18.8604 C34.9419,20.6324 33.0189,22.0514 30.8629,23.0244 C29.1629,23.7924 27.3509,24.2664 25.4999,24.4324 M23,23.5 L23,21.5 L25,21.5 L25,23.5 M25,26.5 L25,27.5 C25,28.053 24.552,28.5 24,28.5 C23.448,28.5 23,28.053 23,27.5 L23,26.5"/>
</svg>
