<svg xmlns="http://www.w3.org/2000/svg" width="24" height="24" fill="none" viewBox="0 0 24 24"><path fill="#000" fill-rule="evenodd" d="M16.311 9.934c.416.099.767.314 1.039.61.391.424.598.99.641 1.556.086 1.121-.468 2.43-1.815 2.875l-.313-.95c.803-.265 1.191-1.062 1.131-1.848-.03-.387-.168-.726-.38-.956-.201-.219-.49-.363-.895-.347l-.696.028.197-.669c.473-1.604-.33-2.707-1.373-3.088-1.05-.383-2.368-.047-3.006 1.41l-.266.607-.51-.421c-.965-.796-2.578-.055-2.396 1.474l.066.559h-.562c-.59 0-1.083.538-1.163 1.355-.077.78.27 1.57 1.126 1.862l-.323.946c-1.401-.478-1.909-1.785-1.798-2.906.092-.935.65-1.934 1.643-2.193.092-1.862 2.01-2.923 3.532-2.196.948-1.552 2.632-1.936 4-1.436 1.375.502 2.41 1.884 2.121 3.728m-5.285 7.065h.88v-.838h-.88zm-1.093-5.238q-.268.411-.297 1.161h.701q.086-1.321 1.173-1.322.527 0 .795.335.225.274.224.676 0 .218-.077.428-.095.246-.395.551-.47.476-.606.65-.136.171-.209.39-.103.298-.111.915h.693q0-.347.041-.565.037-.216.128-.365.093-.146.324-.368.526-.508.664-.696.31-.417.31-.992 0-.696-.456-1.124-.49-.463-1.316-.463-.514 0-.926.205a1.67 1.67 0 0 0-.66.584" clip-rule="evenodd"/></svg>