<svg xmlns="http://www.w3.org/2000/svg" width="16" height="16" fill="none" viewBox="0 0 16 16"><path fill="#000" fill-rule="evenodd" d="m9.646 4.146-.353.354.353.354 1.5 1.5.354.353.354-.353 1.5-1.5.353-.354-.354-.354-1.5-1.5-.353-.353-.354.353zM11.5 5.293l-.793-.793.793-.793.793.793zm-9.22 6.219-.129.13-.015.183-.134 1.634-.049.588.588-.049 1.634-.134.183-.015.13-.13 5.976-5.976.353-.353-.353-.354-1.5-1.5-.354-.354-.353.354zm.767 1.441.07-.864L8.61 6.597l.793.793-5.493 5.492z" clip-rule="evenodd"/></svg>