<svg xmlns="http://www.w3.org/2000/svg" width="36" height="36" fill="none" viewBox="0 0 36 36"><path fill="#000" fill-rule="evenodd" d="m28.5 5.11.354.354 3.181 3.183-.707.707-2.828-2.83-2.828 2.83-.707-.707 3.181-3.183zm-24.875.015h18.25v25.75H3.625V5.125m1 1v23.75h16.25V6.125zm21.047 20.523 2.828 2.828 2.828-2.828.707.707-3.181 3.181-.354.354-.353-.354-3.182-3.181zM12.75 8.75a1 1 0 1 0 0 2 1 1 0 0 0 0-2m-2 1a2 2 0 1 1 4 0 2 2 0 0 1-4 0m-1 4h-.5v8.5h1.5v6h4v-6h1.5v-8.5h-6.5m.5 7.5v-6.5h5v6.5h-1.5v6h-2v-6h-1.5" clip-rule="evenodd"/></svg>