<?xml version="1.0" encoding="utf-8"?>
<!-- Generator: Adobe Illustrator 24.2.0, SVG Export Plug-In . SVG Version: 6.00 Build 0)  -->
<svg version="1.0" id="Ebene_1" xmlns="http://www.w3.org/2000/svg" xmlns:xlink="http://www.w3.org/1999/xlink" x="0px" y="0px"
	 viewBox="0 0 24 24" enable-background="new 0 0 24 24" xml:space="preserve">
<g id="SVG_x5F_24x24pt">
	<path id="backgroundBlue" fill="#2D327D" d="M0,22.5v-21C0,0.675,0.675,0,1.5,0h21C23.325,0,24,0.675,24,1.5v21
		c0,0.825-0.675,1.5-1.5,1.5h-21C0.675,24,0,23.325,0,22.5z"/>
	<g id="content">
		<path fill="#FFFFFF" d="M21.096,9.624c0-1.242-1.007-2.251-2.249-2.251h-3.975V6.436c0-0.724-0.588-1.312-1.313-1.312h-2.925
			c-0.725,0-1.312,0.588-1.312,1.312v0.938h-0.87L3.708,2.631L2.648,3.692L6.33,7.374H5.346c-1.242,0-2.25,1.008-2.25,2.251v9.001
			c0,1.24,1.008,2.249,2.25,2.249h13.5c0.292,0,0.57-0.056,0.826-0.157l0.318,0.318l1.061-1.061l-0.245-0.245
			c0.184-0.326,0.29-0.702,0.29-1.103V9.624z M10.371,6.174h3.45v1.199h-3.45V6.174z"/>
		<polygon fill="#EB0000" points="3.708,2.631 2.648,3.692 19.99,21.034 21.05,19.973 3.708,2.631 		"/>
	</g>
</g>
</svg>
