<svg xmlns="http://www.w3.org/2000/svg" width="24" height="24" version="1.1" viewBox="0 0 24 24">
  <path fill="none" fill-rule="evenodd" stroke="#000" stroke-width="1" d="M8.8613,17.028 L4.1263,13.72 C3.6953,13.375 3.0663,13.443 2.7203,13.874 C2.3743,14.304 2.4433,14.934 2.8743,15.28 L8.7993,20.5 L12.7423,20.5 L13.7503,21.5 L21.2003,21.5 L16.1723,16.436 C15.0353,15.342 13.5883,14.528 12.1093,14.5 L10.0003,14.5 C8.0153,14.5 7.9683,17.5 10.0003,17.5 L12.0003,17.5 M5.5,9.4997 L21.5,9.4997 M14.7334,11.4997 L12.2664,11.4997 C11.8424,11.4997 11.5004,11.1567 11.5004,10.7337 L11.5004,8.2667 C11.5004,7.8437 11.8424,7.4997 12.2664,7.4997 L14.7334,7.4997 C15.1574,7.4997 15.5004,7.8437 15.5004,8.2667 L15.5004,10.7337 C15.5004,11.1567 15.1574,11.4997 14.7334,11.4997 Z M5.5,12.9997 L5.5,6.9997 C5.5,6.1717 6.171,5.4997 7,5.4997 L20,5.4997 C20.828,5.4997 21.5,6.1717 21.5,6.9997 L21.5,14.9997 C21.5,15.8287 20.828,16.4997 20,16.4997 L19.002,16.4997 M16.5,5.4997 L16.5,4.9997 C16.5,4.1717 15.828,3.4997 15,3.4997 L12,3.4997 C11.171,3.4997 10.5,4.1717 10.5,4.9997 L10.5,5.4997"/>
</svg>
