<svg xmlns="http://www.w3.org/2000/svg" width="24" height="24" fill="none" viewBox="0 0 24 24"><path fill="#000" fill-rule="evenodd" d="M6.512 5.572C6.15 5.88 6 6.188 6 6.5s.15.62.512.928c.369.315.926.599 1.644.835 1.433.47 3.375.71 5.343.704 1.967-.005 3.91-.255 5.344-.729.719-.237 1.277-.521 1.647-.833.364-.307.51-.607.51-.905 0-.297-.146-.598-.51-.905-.37-.312-.928-.595-1.647-.833-1.434-.474-3.377-.723-5.344-.729-1.968-.005-3.91.234-5.343.705-.718.236-1.275.52-1.644.834m-.649-.761C5.35 5.248 5 5.812 5 6.5v1.236c-.767.239-1.448.547-1.966.937C2.43 9.129 2 9.736 2 10.5V13.5c0 .687.35 1.253.862 1.692.506.433 1.198.771 1.98 1.032l.158.051V17.5c0 .687.35 1.253.862 1.692.506.433 1.198.771 1.98 1.032 1.567.523 3.625.776 5.658.776s4.09-.253 5.658-.776c.782-.26 1.474-.599 1.98-1.032.512-.44.862-1.005.862-1.692v-3c0-.756-.435-1.356-1.036-1.805a5.6 5.6 0 0 0-1.247-.677c.552-.226 1.04-.499 1.42-.826.513-.439.863-1.004.863-1.692v-3c0-.68-.354-1.238-.865-1.67-.506-.425-1.197-.76-1.978-1.017-1.566-.518-3.623-.774-5.656-.78-2.032-.005-4.09.24-5.657.755-.782.257-1.475.591-1.98 1.023m14.054 12.087A5.3 5.3 0 0 0 21 16.277V17.5c0 .312-.15.622-.513.933-.342.293-.845.56-1.487.788v-1.983q.49-.153.917-.34M18 17.505c-.763.171-1.593.294-2.445.37q-.766.068-1.555.086v2.033c1.432-.03 2.828-.192 4-.478zm-7.458.286c.79.1 1.62.157 2.458.172v2.031c-1.432-.03-2.828-.192-4-.478v-1.99c.492.11 1.01.197 1.542.265M8 17.262a7.6 7.6 0 0 1-1.457-.607A16 16 0 0 1 6 16.543v.957c0 .312.15.622.513.933.342.293.845.56 1.487.788v-1.959m7.467-.383a23.4 23.4 0 0 1-3.225.058c1.43-.105 2.798-.34 3.916-.713.782-.26 1.474-.599 1.98-1.032.512-.44.862-1.005.862-1.692v-.684c.564.198 1.027.428 1.366.68.455.34.634.677.634 1.004 0 .489-.42 1.015-1.485 1.483-1.024.45-2.462.755-4.048.896M3 10.519V10.5c0-.344.183-.688.635-1.028.339-.255.8-.485 1.365-.683v.71c0 .688.35 1.253.862 1.692.506.434 1.198.772 1.98 1.033 1.103.367 2.449.601 3.857.708-1.07.058-2.172.042-3.222-.048-1.575-.136-2.997-.436-4.01-.884-1.034-.459-1.457-.98-1.467-1.482m0 1.78v1.2c0 .313.15.623.513.933.342.293.845.56 1.487.789v-1.958a9 9 0 0 1-.937-.348A5.2 5.2 0 0 1 3 12.3m7 3.695c-1.432-.03-2.828-.192-4-.478v-1.99c.748.166 1.558.283 2.391.355.527.045 1.067.073 1.609.082zm1-2.033v2.033c1.432-.03 2.828-.192 4-.478v-2.012c-.517.117-1.062.21-1.622.282A23 23 0 0 1 11 13.96m6.487.471c-.342.293-.845.56-1.487.789v-1.983c.515-.161.984-.35 1.389-.57q.312-.057.611-.124v.956c0 .312-.15.622-.513.932M21 9.5V8.278c-.49.375-1.13.674-1.843.91l-.157.05v1.984c.642-.229 1.145-.496 1.487-.789.363-.31.513-.62.513-.933m-3 2.017c-1.172.286-2.568.447-4 .478V9.96c1.398-.031 2.787-.182 4-.455zm-9 0c1.172.286 2.568.447 4 .478V9.963c-1.397-.024-2.786-.168-4-.437v1.991m-1-.295c-.642-.229-1.145-.496-1.487-.789C6.15 10.123 6 9.813 6 9.5V8.3c.491.379 1.13.678 1.844.913l.156.05v1.959" clip-rule="evenodd"/></svg>