<svg xmlns="http://www.w3.org/2000/svg" width="48" height="48" version="1.1" viewBox="0 0 48 48">
  <path fill="none" fill-rule="evenodd" stroke="#000" stroke-width="1" d="M43.5,30.9609 C43.5,27.3929 40.813,24.4999 37.5,24.4999 C34.187,24.4999 31.5,27.3929 31.5,30.9609 C31.54,32.0679 31.846,33.0009 32.335,33.8809 L37.517,42.6899 L42.699,33.8809 C43.183,32.9679 43.491,32.0189 43.5,30.9609 Z M39.5,30.5 C39.5,31.593 38.614,32.5 37.521,32.5 C36.429,32.5 35.5,31.593 35.5,30.5 C35.5,29.407 36.407,28.5 37.5,28.5 C38.593,28.5 39.5,29.407 39.5,30.5 Z M32.5,24 L32.5,6.5 M23.5,38.5 L23.5,10.5 M14.5,34.5 L14.5,6.548 M5.5,30.5 C12.173,30.5 7.671,18.5 14.5,18.5 C18.058,18.5 17.991,24.5 23.5,24.5 C29.009,24.5 28.02,13.5 32.5,13.5 C36.98,13.5 37.207,19 41.5,19 M31,35 L23.5,38.5 L14.5,34.5 L5.5,38.5 L5.5,10.5 L14.5,6.5 L23.5,10.5 L32.5,6.5 L41.5,10.5 L41.5,23"/>
</svg>
