<svg width="24" height="24" viewBox="0 0 24 24" fill="none" xmlns="http://www.w3.org/2000/svg"><path fill-rule="evenodd" clip-rule="evenodd" d="M8 8h2v2H18.877l.104.363c.13.457.284 1.05.431 1.639A2.502 2.502 0 0 1 22 14.5c.001 1.379-1.12 2.5-2.499 2.5-1.38 0-2.5-1.121-2.5-2.5 0-1 .59-1.865 1.44-2.264a76.738 76.738 0 0 0-.227-.889 66.247 66.247 0 0 0-2.456 2.043 111.288 111.288 0 0 0-1.544 1.365l-.094.086-.025.022-.006.005-.001.002-.337-.37.336.37-.143.13H6.95a2.503 2.503 0 0 1-2.45 2C3.12 17 2 15.879 2 14.5a2.502 2.502 0 0 1 3.443-2.316L6 11.35V10H5V9h2v2.651l-.084.126-.642.963c.337.34.577.774.676 1.26H9V9H8V8Zm-2.086 6a1.5 1.5 0 0 0-.214-.399L5.434 14h.48Zm-1.045-.954A1.502 1.502 0 0 0 3 14.5c0 .827.673 1.5 1.5 1.5.652 0 1.208-.418 1.414-1H3.566l.518-.777.785-1.177Zm14.043 1.136c-.057-.244-.136-.573-.225-.942a1.5 1.5 0 1 0 .973-.232 160.871 160.871 0 0 1 .3 1.263l.02.086.005.022.002.006v.002l-.487.113-.487.113v-.002l-.002-.006-.005-.022-.02-.085-.074-.316ZM10 14h3.557a96.285 96.285 0 0 1 1.545-1.365A76.68 76.68 0 0 1 17.044 11H10v3Z" fill="#000"/></svg>