<svg xmlns="http://www.w3.org/2000/svg" width="24" height="24" fill="none" viewBox="0 0 24 24"><path fill="#000" fill-rule="evenodd" d="M8 8h2v2h8.877l.104.363c.13.457.284 1.05.431 1.639L19.5 12c1.379 0 2.5 1.121 2.5 2.5S20.879 17 19.5 17 17 15.879 17 14.5c0-1 .59-1.865 1.44-2.264a77 77 0 0 0-.227-.889 66 66 0 0 0-2.456 2.043 111 111 0 0 0-1.544 1.365l-.094.086-.025.022-.006.005-.001.002-.337-.37.336.37-.143.13H6.95a2.5 2.5 0 0 1-2.45 2C3.12 17 2 15.879 2 14.5a2.502 2.502 0 0 1 3.443-2.316L6 11.35V10H5V9h2v2.651l-.084.126-.642.963c.337.34.577.774.676 1.26H9V9H8zm-2.086 6a1.5 1.5 0 0 0-.214-.399L5.434 14zm-1.045-.954A1.502 1.502 0 0 0 3 14.5c0 .827.673 1.5 1.5 1.5.652 0 1.208-.418 1.414-1H3.566l.518-.777zm14.043 1.136c-.057-.244-.136-.573-.225-.942a1.5 1.5 0 1 0 .973-.232 161 161 0 0 1 .3 1.263l.02.086.005.022.002.006v.002l-.487.113-.487.113v-.002l-.002-.006-.005-.022-.02-.085zM10 14h3.557a96 96 0 0 1 1.545-1.365A77 77 0 0 1 17.044 11H10z" clip-rule="evenodd"/></svg>