<svg xmlns="http://www.w3.org/2000/svg" width="24" height="24" fill="none" viewBox="0 0 24 24"><path fill="#000" fill-rule="evenodd" d="M7 7a1 1 0 1 1 2 0 1 1 0 0 1-2 0m1-2a2 2 0 1 0 0 4 2 2 0 0 0 0-4M4.03 8.67l4 11 .12.33H16v-1H8.85L4.97 8.33zM9.31 10H9.3a1.447 1.447 0 0 0-1.351 1.937v.004l2.08 5.73.12.329h6.24a.5.5 0 0 1 .439.264L18.54 22.2l.917-.4-1.72-3.95-.005-.012-.006-.012A1.5 1.5 0 0 0 16.39 17h-.723l-3.75-2.812-1.21-3.214v-.004A1.51 1.51 0 0 0 9.31 10m-.005 1a.447.447 0 0 0-.414.601L10.85 17H14l-2.8-2.1-.117-.088-.051-.136-1.26-3.348A.51.51 0 0 0 9.306 11" clip-rule="evenodd"/></svg>