<svg xmlns="http://www.w3.org/2000/svg" width="24" height="24" fill="none" viewBox="0 0 24 24"><path fill="#000" d="m19.978 4.342 1 3 .219.658h-.243a2.75 2.75 0 0 1-.95 1.62V20h-17V9.621A2.75 2.75 0 0 1 2.05 8h-.24l.218-.658 1-3L3.143 4h16.72zm-3.976 4.734a2.744 2.744 0 0 1-4.5 0 2.744 2.744 0 0 1-4.5 0 2.74 2.74 0 0 1-2.999 1.067V19h9v-8h5v8h1v-8.858a2.744 2.744 0 0 1-3.001-1.065M14.003 19h3v-7h-3zm-2-3h-7v-5h7zm-6-1h5v-3h-5zM3.078 8a1.748 1.748 0 0 0 3.35 0zm4.5 0a1.748 1.748 0 0 0 3.35 0zm4.5 0a1.749 1.749 0 0 0 3.35 0zm4.5 0a1.749 1.749 0 0 0 3.35 0zM3.198 7h16.611l-.666-2H3.863z"/></svg>