<svg xmlns="http://www.w3.org/2000/svg" width="36" height="36" fill="none" viewBox="0 0 36 36"><path fill="#000" fill-rule="evenodd" d="M4.5 4.5V9H6V5.992h1.5v-1.5h-3zm0 7.494h3.002v-1.5H4.5zM15 7.5h-1.501v-1.5H15zm1.502 0h1.5v-3h-1.5zM8.999 4.496h4.5v1.5h-3v1.503h-3v-1.5H9V4.496m10.503 3h3v-1.5h1.5v1.5h1.5v-3h-3v1.498h-3zM6 25.5H4.5v-3H6zm-1.5-9.003H6V15h1.502v-1.5H6v1.497H4.5zM6 19.496H4.5v-1.502H6V16.5h1.502V18H6zM7.502 21H6v-1.5h1.502zm8.998 4.496h9v-9h-9zm1.5-1.502h6v-6h-6zm4.5-1.498h-3v-3h3zm-12.001-4.5h3v-1.499H15v-1.5h-1.501v1.499h-3zm10.503-2.999V15h-1.5v-.003h-1.5v-1.5h1.5V12h1.5v2.997m10.5 4.503h-1.5v1.497h-3v1.5h3V21h1.5zm-1.5-3h1.5V18h-1.5v1.497h-3v-1.5h3zm-13.503-3v-1.503h3.002v-1.5H15v.003h-.002V12h-1.5v1.5zm7.501 0h-1.5v-3H24v2.997h1.5v1.5H24zm6.002 12h1.5v-3h-1.5zM13.499 11.994H12V15h-1.5v-4.506h3zm4.502 19.508h1.502v-1.5h-1.501zm-6.003 0h-1.5v-3.003h1.5zM15 25.497h-1.5v.003H12V27h1.5v1.497h3.002v-1.5H15zm6.004 3h-3.001v-1.5h3.001zm8.999 3h1.5v-1.5h-1.5zm-18.003-9h-1.5v-1.5h1.5V19.5H15V21h-3.001zm-1.5 3h1.5V24H15v-1.5h-3.001v1.497h-1.5zm21.002-12h-1.5v-1.5h-1.5v-1.5h3v3M13.5 31.501H16.5v-1.5h-3.001zM30 28.497h-1.5V27h-1.5v2.997h1.5v1.5h-3v-3h-1.5v1.505h-1.5v1.5h-1.5v-3h1.5v-1.5l4.5-.005V24h1.5v2.997h1.5zm-3-11.997v-3l-1.5-.003v-1.5h3v3h1.5v1.5z" clip-rule="evenodd"/></svg>