<svg class="color-immutable" xmlns="http://www.w3.org/2000/svg" width="59" height="20" fill="none" viewBox="0 0 59 20"><path fill="#EB0000" fill-rule="evenodd" d="M2 0a2 2 0 0 0-2 2v16a2 2 0 0 0 2 2h55a2 2 0 0 0 2-2V2a2 2 0 0 0-2-2z" clip-rule="evenodd"/><path fill="#fff" fill-rule="evenodd" d="M6.756 9.447H7.5q1.914 0 2.555-.24a2.1 2.1 0 0 0 1.009-.769q.368-.528.368-1.16 0-.426-.188-.697a1.07 1.07 0 0 0-.529-.397q-.34-.124-1.517-.124h-1.73zM5.418 15.87H3L5.458 4.13h4.773q1.273 0 2.014.3t1.173.993.433 1.654q0 .89-.345 1.73-.344.84-.845 1.345a3.6 3.6 0 0 1-1.077.765q-.576.26-1.553.396-.57.08-2.13.08H6.355zM13.85 15.87l2.451-11.74h8.704l-.408 1.962h-6.286l-.56 2.667h6.077l-.408 1.962h-6.078l-.737 3.187h6.831l-.416 1.962z" clip-rule="evenodd"/></svg>