<svg xmlns="http://www.w3.org/2000/svg" width="24" height="24" fill="none" viewBox="0 0 24 24"><path fill="#000" fill-rule="evenodd" d="M11 4.5a.5.5 0 1 1 .998-.002A.5.5 0 0 1 11 4.5m1.888.57q.11-.266.112-.57a1.5 1.5 0 1 0-3 0q.002.305.112.57c-1.648.17-3.208.648-4.449 1.476C4.18 7.535 3.164 9.018 3.018 11H2v1h19v-1h-1.018c-.146-1.982-1.162-3.465-2.646-4.454-1.24-.828-2.8-1.307-4.448-1.476M11.5 6c-2.013 0-3.907.46-5.282 1.378-1.231.82-2.056 2.01-2.197 3.622h14.957c-.14-1.612-.965-2.801-2.196-3.622C15.407 6.46 13.512 6 11.5 6m-3.498 9.82L4.425 13.32a1.5 1.5 0 0 0-1.873 2.343l5.917 5.213.141.125h3.926l.862.855.146.145h8.857l-.846-.852-5.028-5.064-.008-.008c-1.188-1.144-2.75-2.045-4.4-2.076H10c-.633 0-1.145.244-1.496.635-.3.336-.464.76-.502 1.185M3.84 14.13l4.697 3.285-5.428-3.228a.5.5 0 0 1 .705-.077l.012.01zm4.697 3.285L3.11 14.187a.5.5 0 0 0 .078.703l.009.007.009.008L8.988 20h3.96l.146.145.862.855h6.043l-4.178-4.208c-1.083-1.041-2.413-1.766-3.717-1.792H10c-.36 0-.597.131-.75.302-.162.18-.254.434-.256.702s.086.518.243.695c.15.168.388.301.763.301h2v1h-2c-.613 0-1.113-.22-1.463-.585" clip-rule="evenodd"/></svg>