<svg class="color-immutable" xmlns="http://www.w3.org/2000/svg" width="59" height="20" fill="none" viewBox="0 0 59 20"><path fill="#EB0000" fill-rule="evenodd" d="M2 0a2 2 0 0 0-2 2v16a2 2 0 0 0 2 2h55a2 2 0 0 0 2-2V2a2 2 0 0 0-2-2z" clip-rule="evenodd"/><path fill="#fff" fill-rule="evenodd" d="m18.842 6.502.58-1.947q-.48-.166-.754-.24a8 8 0 0 0-.522-.126q-.51-.096-1.028-.141-.615-.058-1.111-.058a7.4 7.4 0 0 0-2.694.474 5.9 5.9 0 0 0-3.44 3.41 7.2 7.2 0 0 0-.481 2.67q0 2.595 1.475 4.11 1.36 1.33 3.88 1.33.587-.003 1.169-.083a16 16 0 0 0 1.268-.216l.365-2.23q-.571.341-1.202.55c-.374.112-.762.168-1.152.166a3.5 3.5 0 0 1-1.385-.266 2.9 2.9 0 0 1-1.06-.766 3.5 3.5 0 0 1-.68-1.197 4.7 4.7 0 0 1-.241-1.547 5 5 0 0 1 .332-1.855c.208-.541.524-1.033.928-1.448a4.15 4.15 0 0 1 1.418-.94 4.8 4.8 0 0 1 1.815-.332 5 5 0 0 1 1.26.15c.44.126.863.305 1.26.532M6.606 4.189l-2.42 11.612h2.42L9.044 4.19zm12.17 11.612L21.263 4.19h2.934l2.47 8.817h.034l1.89-8.817h2.172l-2.487 11.612h-2.984l-2.421-8.9h-.017l-1.857 8.9z" clip-rule="evenodd"/></svg>