<?xml version="1.0" encoding="utf-8"?>
<!-- Generator: Adobe Illustrator 24.2.0, SVG Export Plug-In . SVG Version: 6.00 Build 0)  -->
<svg version="1.0" id="Ebene_1" xmlns="http://www.w3.org/2000/svg" xmlns:xlink="http://www.w3.org/1999/xlink" x="0px" y="0px"
	 viewBox="0 0 24 24" enable-background="new 0 0 24 24" xml:space="preserve">
<g id="SVG_x5F_24x24pt">
	<path id="backgroundBlue" fill="#2D327D" d="M0,22.5v-21C0,0.675,0.675,0,1.5,0h21C23.325,0,24,0.675,24,1.5v21
		c0,0.825-0.675,1.5-1.5,1.5h-21C0.675,24,0,23.325,0,22.5z"/>
	<g id="content">
		<path fill="#FFFFFF" d="M20.655,16.714l-4.387-0.364l-2.614-2.614c-0.211-0.211-0.497-0.33-0.795-0.33H6.376
			c-0.298,0-0.584,0.119-0.795,0.33l-2.251,2.25C3.12,16.197,3,16.484,3,16.781v2.644C3,19.632,3.169,19.8,3.376,19.8h0.374v-0.431
			c0-1.242,1.009-2.251,2.25-2.251c1.242,0,2.25,1.008,2.25,2.251V19.8h7.462v-0.431c0-1.242,1.008-2.251,2.25-2.251
			c1.242,0,2.249,1.008,2.249,2.251V19.8h0.412c0.208,0,0.376-0.168,0.376-0.375v-2.338C21,16.892,20.85,16.73,20.655,16.714
			L20.655,16.714z M9.373,16.032c0,0.207-0.168,0.374-0.375,0.374H4.514c-0.125,0-0.225-0.1-0.225-0.225
			c0-0.059,0.024-0.117,0.065-0.159l1.794-1.794c0.071-0.07,0.166-0.11,0.266-0.11h2.584c0.207,0,0.375,0.169,0.375,0.376V16.032
			L9.373,16.032z M14.721,16.406h-4.259c-0.207,0-0.374-0.167-0.374-0.373l-0.003-1.537c0-0.001,0-0.001,0-0.001
			c0-0.207,0.168-0.376,0.375-0.376h2.361c0.1,0,0.195,0.04,0.266,0.11l1.794,1.794c0.041,0.042,0.066,0.099,0.066,0.159
			C14.947,16.306,14.846,16.406,14.721,16.406L14.721,16.406z"/>
		<path fill-rule="evenodd" clip-rule="evenodd" fill="#FFFFFF" d="M6.005,20.222c-0.517,0-0.937-0.42-0.937-0.938
			c0-0.518,0.42-0.938,0.937-0.938c0.518,0,0.937,0.42,0.937,0.938C6.942,19.802,6.522,20.222,6.005,20.222L6.005,20.222z
			 M6.005,17.578c-0.942,0-1.707,0.764-1.707,1.706c0,0.942,0.765,1.707,1.707,1.707c0.941,0,1.707-0.765,1.707-1.707
			C7.711,18.342,6.946,17.578,6.005,17.578L6.005,17.578z"/>
		<path fill-rule="evenodd" clip-rule="evenodd" fill="#FFFFFF" d="M17.966,20.222c-0.518,0-0.938-0.42-0.938-0.938
			c0-0.518,0.42-0.938,0.938-0.938c0.518,0,0.936,0.42,0.936,0.938C18.902,19.802,18.483,20.222,17.966,20.222L17.966,20.222z
			 M17.965,17.578c-0.942,0-1.707,0.764-1.707,1.706c0,0.942,0.765,1.707,1.707,1.707c0.942,0,1.707-0.765,1.707-1.707
			C19.671,18.342,18.907,17.578,17.965,17.578L17.965,17.578z"/>
		<g>
			<path fill="#FFFFFF" d="M4.901,3v2.249H4.407L3.466,3.717l0.006,1.532H3V3h0.5l0.935,1.529L4.429,3H4.901z"/>
			<path fill="#FFFFFF" d="M6.107,3.523c0.244,0,0.443,0.081,0.598,0.243c0.153,0.16,0.229,0.373,0.229,0.64
				c0,0.276-0.082,0.496-0.245,0.66C6.537,5.218,6.338,5.295,6.093,5.295c-0.261,0-0.47-0.085-0.624-0.255
				C5.321,4.877,5.247,4.667,5.247,4.409c0-0.254,0.072-0.461,0.215-0.62C5.621,3.612,5.836,3.523,6.107,3.523z M6.084,3.871
				c-0.118,0-0.212,0.048-0.281,0.143C5.732,4.11,5.696,4.242,5.696,4.409c0,0.173,0.035,0.306,0.105,0.398
				c0.072,0.093,0.17,0.14,0.294,0.14c0.116,0,0.208-0.043,0.275-0.128c0.077-0.094,0.115-0.231,0.115-0.411
				c0-0.168-0.034-0.299-0.102-0.392C6.313,3.919,6.213,3.871,6.084,3.871z"/>
			<path fill="#FFFFFF" d="M7.682,3v2.249H7.236V3H7.682z"/>
			<path fill="#FFFFFF" d="M9.554,4.726C9.53,4.82,9.488,4.909,9.426,4.992c-0.148,0.202-0.36,0.303-0.637,0.303
				c-0.25,0-0.451-0.079-0.601-0.237c-0.074-0.077-0.13-0.17-0.169-0.278C7.977,4.664,7.956,4.543,7.956,4.417
				c0-0.244,0.07-0.449,0.211-0.615c0.157-0.186,0.36-0.278,0.609-0.278c0.201,0,0.372,0.062,0.514,0.186
				c0.102,0.089,0.175,0.199,0.221,0.33C9.557,4.17,9.58,4.334,9.58,4.532h-1.17c0.004,0.082,0.017,0.15,0.038,0.205
				c0.06,0.147,0.175,0.22,0.345,0.22c0.083,0,0.151-0.018,0.203-0.055c0.052-0.036,0.095-0.095,0.129-0.176H9.554z M9.125,4.232
				C9.116,4.151,9.098,4.084,9.069,4.031C9.041,3.978,9,3.937,8.947,3.906C8.894,3.875,8.837,3.86,8.774,3.86
				c-0.099,0-0.181,0.033-0.246,0.1C8.463,4.026,8.425,4.117,8.413,4.232H9.125z"/>
			<path fill="#FFFFFF" d="M11.423,3.569v1.48c0,0.131-0.008,0.236-0.025,0.315c-0.016,0.078-0.045,0.15-0.085,0.215
				c-0.129,0.205-0.361,0.308-0.695,0.308c-0.466,0-0.72-0.176-0.764-0.528h0.449c0.031,0.14,0.139,0.211,0.325,0.211
				c0.142,0,0.24-0.04,0.297-0.12c0.044-0.064,0.066-0.166,0.066-0.308l0.002-0.208c-0.115,0.176-0.281,0.265-0.498,0.265
				c-0.21,0-0.378-0.074-0.503-0.221C9.863,4.827,9.8,4.625,9.8,4.37c0-0.254,0.064-0.458,0.191-0.612
				c0.132-0.159,0.306-0.238,0.521-0.238c0.112,0,0.205,0.021,0.28,0.063c0.075,0.042,0.144,0.112,0.206,0.211V3.569H11.423z
				 M10.612,3.886c-0.125,0-0.22,0.052-0.285,0.157c-0.052,0.084-0.078,0.191-0.078,0.32c0,0.164,0.038,0.289,0.114,0.374
				c0.066,0.076,0.151,0.114,0.257,0.114c0.133,0,0.233-0.056,0.3-0.168c0.051-0.086,0.077-0.195,0.077-0.326
				c0-0.158-0.039-0.28-0.118-0.366C10.813,3.921,10.725,3.886,10.612,3.886z"/>
			<path fill="#FFFFFF" d="M13.353,3.569v1.48c0,0.131-0.008,0.236-0.025,0.315c-0.016,0.078-0.045,0.15-0.085,0.215
				c-0.129,0.205-0.361,0.308-0.695,0.308c-0.466,0-0.72-0.176-0.764-0.528h0.449c0.031,0.14,0.139,0.211,0.325,0.211
				c0.142,0,0.24-0.04,0.297-0.12c0.044-0.064,0.066-0.166,0.066-0.308l0.002-0.208c-0.115,0.176-0.281,0.265-0.498,0.265
				c-0.21,0-0.378-0.074-0.503-0.221c-0.127-0.15-0.191-0.352-0.191-0.606c0-0.254,0.064-0.458,0.191-0.612
				c0.132-0.159,0.306-0.238,0.521-0.238c0.112,0,0.205,0.021,0.28,0.063c0.075,0.042,0.144,0.112,0.206,0.211V3.569H13.353z
				 M12.542,3.886c-0.125,0-0.22,0.052-0.285,0.157c-0.052,0.084-0.078,0.191-0.078,0.32c0,0.164,0.038,0.289,0.114,0.374
				c0.066,0.076,0.151,0.114,0.257,0.114c0.133,0,0.233-0.056,0.3-0.168c0.051-0.086,0.077-0.195,0.077-0.326
				c0-0.158-0.039-0.28-0.118-0.366C12.744,3.921,12.655,3.886,12.542,3.886z"/>
			<path fill="#FFFFFF" d="M14.167,3v0.401H13.72V3H14.167z M14.167,3.572v1.677H13.72V3.572H14.167z"/>
			<path fill="#FFFFFF" d="M15.328,3.523c0.244,0,0.443,0.081,0.598,0.243c0.153,0.16,0.229,0.373,0.229,0.64
				c0,0.276-0.082,0.496-0.245,0.66c-0.153,0.153-0.352,0.229-0.597,0.229c-0.261,0-0.47-0.085-0.624-0.255
				c-0.148-0.162-0.221-0.372-0.221-0.631c0-0.254,0.072-0.461,0.215-0.62C14.842,3.612,15.057,3.523,15.328,3.523z M15.305,3.871
				c-0.118,0-0.212,0.048-0.281,0.143c-0.071,0.096-0.106,0.228-0.106,0.395c0,0.173,0.035,0.306,0.105,0.398
				c0.072,0.093,0.17,0.14,0.294,0.14c0.116,0,0.208-0.043,0.275-0.128c0.077-0.094,0.115-0.231,0.115-0.411
				c0-0.168-0.034-0.299-0.102-0.392C15.534,3.919,15.434,3.871,15.305,3.871z"/>
		</g>
	</g>
</g>
</svg>
