<svg xmlns="http://www.w3.org/2000/svg" width="36" height="36" fill="none" viewBox="0 0 36 36"><path fill="#000" fill-rule="evenodd" d="M8.75 22.75h7.5v.5a6.5 6.5 0 0 1-6.5 6.5c-.34 0-.674-.03-1-.08v3.08h-5.5v-17.5h5.5zm24 10h-13V3.25h13zm-28.5-1h3.5v-15.5h-3.5zm16.5 0h11V4.25h-4.999v2.065A2 2 0 0 1 28.25 8.25v.5h-4v-.5c0-.932.638-1.713 1.501-1.935V4.25H20.75zm-12-3.093q.486.091 1 .093a5.5 5.5 0 0 0 5.477-5H8.75zM28.251 16.5h-1V15h1zm-3-1.5h-1v-1.5h1zm2.999-1.5h-1V12h1zM25.251 12h-1v-1.5h1zm.999-4.75a1 1 0 0 0-.865.5h1.73a1 1 0 0 0-.865-.5" clip-rule="evenodd"/></svg>