<svg class="color-immutable" xmlns="http://www.w3.org/2000/svg" width="59" height="20" fill="none" viewBox="0 0 59 20"><path fill="#EB0000" fill-rule="evenodd" d="M2 0a2 2 0 0 0-2 2v16a2 2 0 0 0 2 2h55a2 2 0 0 0 2-2V2a2 2 0 0 0-2-2z" clip-rule="evenodd"/><path fill="#fff" fill-rule="evenodd" d="m4.186 15.8 2.42-11.6h3.952q.9-.02 1.798.08c.508.058.999.22 1.443.474.383.225.694.554.899.95.207.406.313.857.307 1.313a2.7 2.7 0 0 1-.536 1.673 3.27 3.27 0 0 1-1.656 1.073 2.6 2.6 0 0 1 1.392.874c.327.4.504.903.5 1.42a3.66 3.66 0 0 1-.59 1.983 3.33 3.33 0 0 1-1.633 1.349q-1.041.411-2.847.411zm3.817-6.916h1.813a6.3 6.3 0 0 0 1.759-.174 1.47 1.47 0 0 0 1.072-1.416c.01-.266-.08-.526-.252-.728a1.26 1.26 0 0 0-.717-.38 10 10 0 0 0-1.254-.047H8.578zm1.246 5.049H6.954l.63-3.03h2.84q.993 0 1.42.375c.277.237.434.587.425.953-.003.325-.106.64-.296.902a1.64 1.64 0 0 1-.788.614q-.493.186-1.936.186M15.34 15.8l2.413-11.6h8.572l-.402 1.939h-6.19l-.553 2.635h5.986l-.402 1.938h-5.986l-.725 3.15h6.726l-.41 1.938zm9.096 0h3.076l1.593-1.804q.841-.924 1.585-1.93.22.6.899 1.985l.867 1.749h2.681l-2.847-5.491L37.582 4.2h-2.989l-1.822 2.065a81 81 0 0 0-1.616 1.93 2 2 0 0 0-.103-.213l-.773-1.606L29.153 4.2h-2.484l2.87 5.729z" clip-rule="evenodd"/></svg>