<svg xmlns="http://www.w3.org/2000/svg" width="16" height="16" fill="none" viewBox="0 0 16 16"><path fill="#000" d="M15 8a7 7 0 0 1-13 3.607V13.5H1V9h3.5v1H2.339A6.01 6.01 0 0 0 8 14a6 6 0 0 0 6-6zM8.5 5.08c.65 0 1.24.21 1.77.62l-.28.63c-.23-.16-.42-.27-.54-.35a1.9 1.9 0 0 0-.96-.27c-.6 0-1.01.35-1.24 1.06-.06.17-.1.34-.12.48h2.45l-.21.48h-2.3v.49h2.1l-.21.48H7.13c.05.27.12.52.23.75.13.27.29.47.48.59s.42.19.69.19c.22 0 .42-.03.59-.09s.47-.21.88-.44v.78q-.18.105-.21.12c-.38.19-.82.29-1.31.29-1.16 0-1.85-.73-2.07-2.18h-.67l.21-.48h.4v-.49h-.63l.21-.48h.48c.04-.26.11-.51.19-.74.35-.96.98-1.44 1.9-1.44M8 1a7 7 0 0 1 6 3.39V2.5h1V7h-3.5V6h2.161A6.01 6.01 0 0 0 8 2a6 6 0 0 0-6 6H1a7 7 0 0 1 7-7"/></svg>