<svg width="36" height="36" viewBox="0 0 36 36" fill="none" xmlns="http://www.w3.org/2000/svg"><path fill-rule="evenodd" clip-rule="evenodd" d="M17.25 3.25c-3.26 0-6.147.287-7.794.733l.261.966c1.521-.412 4.304-.699 7.533-.699 2.466 0 4.687.167 6.282.433.8.133 1.42.288 1.828.448.108.043.194.083.26.12a2.34 2.34 0 0 1-.26.118c-.408.16-1.027.315-1.828.449-1.595.266-3.816.432-6.282.432-2.156 0-4.124-.128-5.653-.337l-.136.99c1.583.218 3.598.347 5.79.347 2.503 0 4.782-.169 6.445-.446.828-.138 1.527-.306 2.03-.505l.024-.01v7.96c0 .26-.217.638-.94 1.057-.692.4-1.714.755-2.98 1.013l.2.98c.281-.058.554-.12.818-.187a4.002 4.002 0 0 1-.289.276l.656.755c.487-.423.89-.923 1.097-1.497.37-.146.705-.304 1-.475.79-.458 1.438-1.095 1.438-1.921v-9c0-.322-.196-.55-.367-.69a2.5 2.5 0 0 0-.657-.359c-.503-.198-1.202-.367-2.03-.505-1.664-.277-3.942-.446-6.446-.446Zm8.531 1.887-.002.003a.019.019 0 0 0 .003-.003Zm-20.927-.99 24 24-.707.706-2.653-2.652c-.354 1.072-.946 2.357-1.922 3.241-2.075 1.88-3.818 3.259-6.322 3.259-2.503 0-4.243-1.358-6.323-3.26-1.02-.925-1.622-2.295-1.967-3.38a13.195 13.195 0 0 1-.457-1.953l-.005-.032-.001-.01v-.003L8.992 24l-.497.062v-.008l-.743-6.825.994-.108.742 6.82v.003l.004.025.015.102c.015.09.037.223.07.388.066.332.173.79.335 1.298.328 1.031.862 2.197 1.686 2.944l.002.002c2.084 1.905 3.568 2.998 5.649 2.998 2.08 0 3.565-1.11 5.65-3 .935-.846 1.486-2.212 1.793-3.301l-5.57-5.57c-.588.1-1.209.17-1.873.17-1.77 0-3.398-.365-4.658-.984-1.145-.564-2.05-1.372-2.404-2.366-.611-.241-1.136-.521-1.54-.84-.512-.403-.898-.927-.898-1.56V8.457L4.146 4.853l.708-.707Zm6.773 12.963c.333.366.803.712 1.407 1.008 1.102.543 2.575.883 4.216.883.338 0 .666-.02.988-.056l-1.195-1.195c-2.023-.015-3.897-.249-5.416-.64ZM8.75 9.457l7.265 7.265c-1.945-.09-3.674-.393-4.97-.825-.786-.262-1.385-.562-1.778-.872-.399-.314-.517-.58-.517-.774V9.457Zm6.065 17.106c.625.35 1.477.687 2.435.687s1.81-.336 2.435-.686a6.182 6.182 0 0 0 .917-.63l.046-.04.01-.009.342.365.341.365v.001l-.003.002-.005.005-.018.016a5.6 5.6 0 0 1-.296.242c-.199.152-.486.354-.845.555-.714.4-1.737.814-2.924.814-1.187 0-2.21-.414-2.924-.814a7.206 7.206 0 0 1-1.077-.741 3.598 3.598 0 0 1-.064-.056l-.018-.016-.005-.005-.002-.002h-.001l.341-.366.341-.366.001.001.01.009.046.04a6.188 6.188 0 0 0 .917.63Zm11.544-5.768.388-3.566-.994-.108-.388 3.565.994.109Zm-7.047-6.603 1.538-1.441H18l-1.5-1.5V9H18v2.25h2.85L18.45 9h1.8l3 3-3.09 3.09-.848-.899ZM16.05 9.001l-.996.933L14.25 9h1.8Zm-1.8 12.749a1.125 1.125 0 1 0 0 2.25 1.125 1.125 0 0 0 0-2.25Zm4.875 1.125a1.125 1.125 0 1 1 2.25 0 1.125 1.125 0 0 1-2.25 0Z" fill="#000"/></svg>