<svg xmlns="http://www.w3.org/2000/svg" width="36" height="36" fill="none" viewBox="0 0 36 36"><path fill="#000" fill-rule="evenodd" d="M24.75 7.25c-.523 0-1 .477-1 1s.477 1 1 1 1-.477 1-1-.477-1-1-1m-2 1c0-1.076.924-2 2-2s2 .924 2 2-.924 2-2 2-2-.924-2-2m9.218 1.676-2.25 6-.273.727-.549-.55-2.339-2.339-1.251 6.256 4.221 2.814.223.148V30h-1v-6.482l-4.151-2.768H22.11l-1.386 4.158-.058.176-.159.095-7.5 4.5-.514-.858 7.341-4.405 1.432-4.295 1.339-6.694-4.732 1.183 1.358 4.753-.962.274-1.5-5.25-.142-.497.502-.125 6-1.5.06-.015h3.268l.147.146 2.45 2.451 1.978-5.273zm-9.483 9.824h1.855l1.3-6.5h-1.855zm-8.985-5v-1h-9v1zM6 18.25h7.5v1H6zm9-9H9v1h6z" clip-rule="evenodd"/></svg>