<?xml version="1.0" encoding="utf-8"?>
<!-- Generator: Adobe Illustrator 24.2.0, SVG Export Plug-In . SVG Version: 6.00 Build 0)  -->
<svg version="1.0" id="Ebene_1" xmlns="http://www.w3.org/2000/svg" xmlns:xlink="http://www.w3.org/1999/xlink" x="0px" y="0px"
	 viewBox="0 0 24 24" enable-background="new 0 0 24 24" xml:space="preserve">
<g id="SVG_x5F_24x24pt">
	<path id="backgroundBlue" fill="#2D327D" d="M0,22.5v-21C0,0.675,0.675,0,1.5,0h21C23.325,0,24,0.675,24,1.5v21
		c0,0.825-0.675,1.5-1.5,1.5h-21C0.675,24,0,23.325,0,22.5z"/>
	<g id="content">
		<g>
			<path fill="#FFFFFF" d="M10.015,11.795l-1.811,0.633c-0.039,0.015-0.082,0.021-0.124,0.021c-0.125,0-0.241-0.062-0.311-0.166
				L7.363,11.68c-0.033-0.05-0.05-0.109-0.05-0.167c0-0.166,0.134-0.301,0.299-0.301h2.304c0.166,0,0.301,0.135,0.301,0.301
				C10.217,11.64,10.135,11.754,10.015,11.795L10.015,11.795z"/>
			<path fill="#FFFFFF" d="M16.351,11.812h-2.626v-0.6h2.626c0.165,0,0.299,0.134,0.299,0.3
				C16.65,11.678,16.516,11.812,16.351,11.812L16.351,11.812z"/>
			<path fill="#FFFFFF" d="M16.35,12.787h-0.375c-0.165,0-0.3-0.134-0.3-0.3c0-0.166,0.135-0.3,0.3-0.3h0.375
				c0.165,0,0.299,0.134,0.299,0.3C16.65,12.653,16.516,12.787,16.35,12.787L16.35,12.787z"/>
			<path fill="#FFFFFF" d="M6.675,13.649C4.646,13.649,3,15.295,3,17.325C3,19.353,4.646,21,6.675,21
				c1.899,0,3.486-1.447,3.659-3.338h0.782c0.161,0.343,0.505,0.563,0.884,0.563c0.537,0,0.974-0.437,0.974-0.975
				c0-0.219-0.073-0.431-0.209-0.602l1.966-2.923l0.403,0.648c-0.935,0.695-1.485,1.788-1.485,2.952
				c0,2.028,1.646,3.675,3.674,3.675C19.354,21,21,19.353,21,17.325c0-2.03-1.646-3.676-3.675-3.676c-0.584,0-1.16,0.139-1.68,0.407
				l-0.72-1.156h-5.85l-0.72,1.156C7.836,13.789,7.26,13.649,6.675,13.649L6.675,13.649z M14.25,17.325
				c0-0.956,0.445-1.858,1.203-2.44l1.617,2.598c0.055,0.088,0.15,0.142,0.254,0.142c0.166,0,0.3-0.135,0.3-0.3
				c0-0.057-0.016-0.111-0.044-0.159l-1.617-2.599c0.424-0.209,0.889-0.318,1.362-0.318c1.697,0,3.076,1.377,3.076,3.075
				c0,1.697-1.378,3.075-3.076,3.075C15.628,20.4,14.25,19.022,14.25,17.325L14.25,17.325z M11.732,16.312L9.84,13.5h4.32
				l-1.891,2.812c-0.087-0.025-0.177-0.037-0.267-0.037C11.909,16.275,11.819,16.287,11.732,16.312L11.732,16.312z M10.341,17.062
				c-0.077-1.069-0.616-2.051-1.476-2.69l0.404-0.648l1.965,2.923c-0.096,0.121-0.161,0.264-0.19,0.415H10.341L10.341,17.062z
				 M8.547,14.885c0.685,0.526,1.118,1.316,1.192,2.177H7.192L8.547,14.885L8.547,14.885z M6.675,20.4
				c-1.697,0-3.074-1.378-3.074-3.075c0-1.698,1.377-3.075,3.074-3.075c0.473,0,0.939,0.109,1.363,0.318l-1.343,2.158
				c-0.005-0.001-0.013-0.001-0.019-0.001c-0.331,0-0.599,0.269-0.599,0.601c0,0.33,0.268,0.6,0.599,0.6
				c0.199,0,0.384-0.098,0.496-0.263h2.561C9.56,19.22,8.243,20.4,6.675,20.4L6.675,20.4z"/>
		</g>
		<g>
			<path fill="#FFFFFF" d="M4.901,3v2.249H4.407L3.466,3.717l0.006,1.532H3V3h0.5l0.935,1.529L4.429,3H4.901z"/>
			<path fill="#FFFFFF" d="M6.107,3.523c0.244,0,0.443,0.081,0.598,0.243c0.153,0.16,0.229,0.373,0.229,0.64
				c0,0.276-0.082,0.496-0.245,0.66C6.537,5.218,6.338,5.295,6.093,5.295c-0.261,0-0.47-0.085-0.624-0.255
				C5.321,4.877,5.247,4.667,5.247,4.409c0-0.254,0.072-0.461,0.215-0.62C5.621,3.612,5.836,3.523,6.107,3.523z M6.084,3.871
				c-0.118,0-0.212,0.048-0.281,0.143C5.732,4.11,5.696,4.242,5.696,4.409c0,0.173,0.035,0.306,0.105,0.398
				c0.072,0.093,0.17,0.14,0.294,0.14c0.116,0,0.208-0.043,0.275-0.128c0.077-0.094,0.115-0.231,0.115-0.411
				c0-0.168-0.034-0.299-0.102-0.392C6.313,3.919,6.213,3.871,6.084,3.871z"/>
			<path fill="#FFFFFF" d="M7.682,3v2.249H7.236V3H7.682z"/>
			<path fill="#FFFFFF" d="M9.554,4.726C9.53,4.82,9.488,4.909,9.426,4.992c-0.148,0.202-0.36,0.303-0.637,0.303
				c-0.25,0-0.451-0.079-0.601-0.237c-0.074-0.077-0.13-0.17-0.169-0.278C7.977,4.664,7.956,4.543,7.956,4.417
				c0-0.244,0.07-0.449,0.211-0.615c0.157-0.186,0.36-0.278,0.609-0.278c0.201,0,0.372,0.062,0.514,0.186
				c0.102,0.089,0.175,0.199,0.221,0.33C9.557,4.17,9.58,4.334,9.58,4.532h-1.17c0.004,0.082,0.017,0.15,0.038,0.205
				c0.06,0.147,0.175,0.22,0.345,0.22c0.083,0,0.151-0.018,0.203-0.055c0.052-0.036,0.095-0.095,0.129-0.176H9.554z M9.125,4.232
				C9.116,4.151,9.098,4.084,9.069,4.031C9.041,3.978,9,3.937,8.947,3.906C8.894,3.875,8.837,3.86,8.774,3.86
				c-0.099,0-0.181,0.033-0.246,0.1C8.463,4.026,8.425,4.117,8.413,4.232H9.125z"/>
			<path fill="#FFFFFF" d="M11.423,3.569v1.48c0,0.131-0.008,0.236-0.025,0.315c-0.016,0.078-0.045,0.15-0.085,0.215
				c-0.129,0.205-0.361,0.308-0.695,0.308c-0.466,0-0.72-0.176-0.764-0.528h0.449c0.031,0.14,0.139,0.211,0.325,0.211
				c0.142,0,0.24-0.04,0.297-0.12c0.044-0.064,0.066-0.166,0.066-0.308l0.002-0.208c-0.115,0.176-0.281,0.265-0.498,0.265
				c-0.21,0-0.378-0.074-0.503-0.221C9.863,4.827,9.8,4.625,9.8,4.37c0-0.254,0.064-0.458,0.191-0.612
				c0.132-0.159,0.306-0.238,0.521-0.238c0.112,0,0.205,0.021,0.28,0.063c0.075,0.042,0.144,0.112,0.206,0.211V3.569H11.423z
				 M10.612,3.886c-0.125,0-0.22,0.052-0.285,0.157c-0.052,0.084-0.078,0.191-0.078,0.32c0,0.164,0.038,0.289,0.114,0.374
				c0.066,0.076,0.151,0.114,0.257,0.114c0.133,0,0.233-0.056,0.3-0.168c0.051-0.086,0.077-0.195,0.077-0.326
				c0-0.158-0.039-0.28-0.118-0.366C10.813,3.921,10.725,3.886,10.612,3.886z"/>
			<path fill="#FFFFFF" d="M13.353,3.569v1.48c0,0.131-0.008,0.236-0.025,0.315c-0.016,0.078-0.045,0.15-0.085,0.215
				c-0.129,0.205-0.361,0.308-0.695,0.308c-0.466,0-0.72-0.176-0.764-0.528h0.449c0.031,0.14,0.139,0.211,0.325,0.211
				c0.142,0,0.24-0.04,0.297-0.12c0.044-0.064,0.066-0.166,0.066-0.308l0.002-0.208c-0.115,0.176-0.281,0.265-0.498,0.265
				c-0.21,0-0.378-0.074-0.503-0.221c-0.127-0.15-0.191-0.352-0.191-0.606c0-0.254,0.064-0.458,0.191-0.612
				c0.132-0.159,0.306-0.238,0.521-0.238c0.112,0,0.205,0.021,0.28,0.063c0.075,0.042,0.144,0.112,0.206,0.211V3.569H13.353z
				 M12.542,3.886c-0.125,0-0.22,0.052-0.285,0.157c-0.052,0.084-0.078,0.191-0.078,0.32c0,0.164,0.038,0.289,0.114,0.374
				c0.066,0.076,0.151,0.114,0.257,0.114c0.133,0,0.233-0.056,0.3-0.168c0.051-0.086,0.077-0.195,0.077-0.326
				c0-0.158-0.039-0.28-0.118-0.366C12.744,3.921,12.655,3.886,12.542,3.886z"/>
			<path fill="#FFFFFF" d="M14.167,3v0.401H13.72V3H14.167z M14.167,3.572v1.677H13.72V3.572H14.167z"/>
			<path fill="#FFFFFF" d="M15.328,3.523c0.244,0,0.443,0.081,0.598,0.243c0.153,0.16,0.229,0.373,0.229,0.64
				c0,0.276-0.082,0.496-0.245,0.66c-0.153,0.153-0.352,0.229-0.597,0.229c-0.261,0-0.47-0.085-0.624-0.255
				c-0.148-0.162-0.221-0.372-0.221-0.631c0-0.254,0.072-0.461,0.215-0.62C14.842,3.612,15.057,3.523,15.328,3.523z M15.305,3.871
				c-0.118,0-0.212,0.048-0.281,0.143c-0.071,0.096-0.106,0.228-0.106,0.395c0,0.173,0.035,0.306,0.105,0.398
				c0.072,0.093,0.17,0.14,0.294,0.14c0.116,0,0.208-0.043,0.275-0.128c0.077-0.094,0.115-0.231,0.115-0.411
				c0-0.168-0.034-0.299-0.102-0.392C15.534,3.919,15.434,3.871,15.305,3.871z"/>
		</g>
	</g>
</g>
</svg>
