<svg class="color-immutable" xmlns="http://www.w3.org/2000/svg" width="59" height="20" fill="none" viewBox="0 0 59 20"><path fill="#EB0000" fill-rule="evenodd" d="M2 0a2 2 0 0 0-2 2v16a2 2 0 0 0 2 2h55a2 2 0 0 0 2-2V2a2 2 0 0 0-2-2z" clip-rule="evenodd"/><path fill="#fff" d="M44.381 4.235v1.962q-.095.103-.56.64c-.488.58-.919 1.207-1.284 1.872-.397.688-.73 1.412-.994 2.163a18.2 18.2 0 0 0-.906 4.928h-2.381c.032-.98.185-1.952.453-2.895a19 19 0 0 1 1.187-3.18q1.08-2.247 2.191-3.346h-5.44V4.235z"/><path fill="#fff" fill-rule="evenodd" d="M51.863 4.765a3.6 3.6 0 0 0-2.318-.806 3.7 3.7 0 0 0-3.28 1.882q-.93 1.582-.93 4.193 0 3.67 1.782 5.189a3.78 3.78 0 0 0 4.285.348 3.8 3.8 0 0 0 1.36-1.44q.883-1.605.883-4.097a10.9 10.9 0 0 0-.34-2.785q-.45-1.677-1.442-2.484m-3.95 2.46q.411-1.313 1.545-1.313 1.167 0 1.593 1.313.33 1.02.33 2.793 0 2.08-.464 3.093-.465 1.012-1.42 1.012-1.15 0-1.576-1.305a8.8 8.8 0 0 1-.331-2.666q0-1.882.323-2.927" clip-rule="evenodd"/><path fill="#fff" d="M9.22 4.2h4.056L8.258 15.8H4.185zM25.98 12.366a.93.93 0 0 0 .847-.553L30.119 4.2H15.984l-5.018 11.6h4.038l3.8-8.69h5.993l-1.201 2.775-5.226-.019 4.217 5.934h4.597l-3.124-3.434z"/></svg>