<svg xmlns="http://www.w3.org/2000/svg" width="48" height="48" fill="none" viewBox="0 0 48 48"><path fill="#000" fill-rule="evenodd" d="M19.814 7.134A17.5 17.5 0 0 1 24.5 6.5c1.623 0 3.195.221 4.686.635L24.5 10.539zm-1.186.375a17.54 17.54 0 0 0-7.999 5.82l2.055 6.323 4.744 1.868L24 16.745v-5.333zm-8.722 6.83a17.4 17.4 0 0 0-2.89 8.9l4.677-3.4zM6.02 24.851l.005.345.013-.01C6.65 34.85 14.681 42.5 24.5 42.5c9.816 0 17.847-7.646 18.462-17.307l.014.01.004-.33Q43 24.438 43 24c0-10.217-8.283-18.5-18.5-18.5S6 13.783 6 24q0 .428.02.85m35.965-1.605a17.4 17.4 0 0 0-2.896-8.916l-1.791 5.51zm-3.62-9.926a17.54 17.54 0 0 0-7.992-5.81L25 11.411v5.333l6.572 4.775 4.734-1.867zm3.63 11.17-5.357-3.893-4.734 1.868-2.518 7.75 2.918 3.69h6.627a17.4 17.4 0 0 0 3.063-9.416m-3.806 10.414h-5.764l-1.782 5.488a17.54 17.54 0 0 0 7.546-5.488m-8.726 5.883 2.04-6.283-2.917-3.689h-8.17l-2.912 3.684 2.044 6.29c1.57.463 3.233.711 4.953.711 1.724 0 3.389-.25 4.962-.713m-11.095-.392L16.582 34.9h-5.774a17.54 17.54 0 0 0 7.56 5.496m-8.3-6.496a17.4 17.4 0 0 1-3.06-9.417l5.346-3.885 4.744 1.868 2.519 7.75-2.913 3.684zm8.02-11.622 2.45 7.538h7.926l2.45-7.538-6.413-4.659z" clip-rule="evenodd"/></svg>