<svg xmlns="http://www.w3.org/2000/svg" width="24" height="24" fill="none" viewBox="0 0 24 24"><path fill="#000" fill-rule="evenodd" d="M11.5 2h-.449l-.048.446a72.6 72.6 0 0 1-2.9 13.903 32 32 0 0 1-2.047 4.921l-.378.73H10.5v-.5a1.5 1.5 0 1 1 3 0v.5h4.83l-.388-.734c-1.865-3.524-3.104-8.216-3.877-12.057a85 85 0 0 1-1.01-6.246l-.044-.383-.01-.098-.003-.025V2.45l-.498.05.497-.05-.045-.45H11.5m.447 1h.106l.01.081A69 69 0 0 0 12.318 5h-.628q.142-.998.256-2m-.405 3a74 74 0 0 1-.959 5h2.84a85.174 85.174 0 0 1-.95-5zm2.111 6h-3.305a74 74 0 0 1-1.09 4h5.488a60 60 0 0 1-1.093-4m1.419 5h-6.13a33 33 0 0 1-1.632 4h2.24a2.5 2.5 0 0 1 4.9 0h2.236a34 34 0 0 1-1.614-4" clip-rule="evenodd"/></svg>