<svg class="color-immutable" xmlns="http://www.w3.org/2000/svg" width="59" height="20" fill="none" viewBox="0 0 59 20"><g clip-path="url(#a)"><path stroke="#FFDE15" d="M2 .5h55A1.5 1.5 0 0 1 58.5 2v16a1.5 1.5 0 0 1-1.5 1.5H2A1.5 1.5 0 0 1 .5 18V2A1.5 1.5 0 0 1 2 .5Z"/><path fill="#FFDE15" fill-rule="evenodd" d="M51.256 7.123h2.191a3.9 3.9 0 0 0-.748-1.875q-1.017-1.29-2.933-1.29a3.75 3.75 0 0 0-3.209 1.622q-1.215 1.677-1.214 4.635 0 2.77 1.135 4.316t3.178 1.546a3.84 3.84 0 0 0 2.727-1.068q1.261-1.187 1.261-3.14a4.05 4.05 0 0 0-.938-2.737 3.26 3.26 0 0 0-2.609-1.155 3 3 0 0 0-1.415.308c-.44.25-.82.596-1.108 1.013a9.3 9.3 0 0 1 .355-1.938q.536-1.575 1.813-1.574 1.206 0 1.514 1.337m-3.027 3.346a1.53 1.53 0 0 1 1.316-.697 1.64 1.64 0 0 1 1.411.736c.291.425.44.932.426 1.448a2.43 2.43 0 0 1-.473 1.495 1.59 1.59 0 0 1-1.332.672 1.55 1.55 0 0 1-1.34-.704 2.5 2.5 0 0 1-.45-1.48 2.46 2.46 0 0 1 .442-1.47" clip-rule="evenodd"/><path fill="#FFDE15" d="M32.918 4.2h4.042l.805 6.063L40.387 4.2h4.043l-5.001 11.6h-4.06l-.927-5.758-2.483 5.758H27.9zM26.092 12.366a.92.92 0 0 0 .843-.553L30.216 4.2H16.13l-5.001 11.6h4.024l3.786-8.69h5.974l-1.197 2.775-5.209-.019L22.71 15.8h4.582l-3.114-3.434zM9.388 4.2h4.042l-5 11.6H4.37z"/></g><defs><clipPath id="a"><path fill="#fff" d="M0 0h59v20H0z"/></clipPath></defs></svg>