<?xml version="1.0" encoding="utf-8"?>
<!-- Generator: Adobe Illustrator 29.0.0, SVG Export Plug-In . SVG Version: 9.03 Build 54978)  -->
<svg version="1.0" xmlns="http://www.w3.org/2000/svg" xmlns:xlink="http://www.w3.org/1999/xlink" x="0px" y="0px"
	 viewBox="0 0 24 24" enable-background="new 0 0 24 24" xml:space="preserve">
<g id="SVG_x5F_24x24pt">
	<path id="backgroundBlue" fill="#2D327D" d="M0,22.5v-21C0,0.675,0.675,0,1.5,0h21C23.325,0,24,0.675,24,1.5v21
		c0,0.825-0.675,1.5-1.5,1.5h-21C0.675,24,0,23.325,0,22.5z"/>
	<g id="content">
		<g>
			<path fill="#FFFFFF" d="M8.825,7.508V21H6.131v-8.832h-0.96h-0.96H3.279H2.956v-1.956c0.658-0.018,1.195-0.086,1.61-0.203
				c0.415-0.117,0.795-0.308,1.14-0.572C6.205,9.055,6.54,8.412,6.712,7.508H8.825z"/>
			<path fill="#FFFFFF" d="M13.541,13.756c-0.628-0.215-1.109-0.569-1.444-1.061c-0.335-0.492-0.503-1.089-0.503-1.79
				c0-1.169,0.48-2.101,1.44-2.796c0.849-0.615,1.858-0.923,3.027-0.923c1.329,0,2.415,0.366,3.258,1.098
				c0.8,0.689,1.2,1.541,1.2,2.556c0,0.708-0.169,1.314-0.508,1.818c-0.338,0.505-0.818,0.871-1.44,1.098
				c0.486,0.142,0.883,0.323,1.19,0.544c0.855,0.621,1.283,1.529,1.283,2.722c0,1.372-0.526,2.464-1.578,3.276
				c-0.886,0.683-2.024,1.024-3.415,1.024c-1.507,0-2.707-0.375-3.599-1.126c-0.929-0.781-1.394-1.806-1.394-3.073
				c0-1.187,0.412-2.107,1.237-2.759C12.671,14.076,13.086,13.873,13.541,13.756z M16.005,14.771c-0.664,0-1.207,0.205-1.629,0.614
				c-0.422,0.409-0.632,0.934-0.632,1.573c0,0.658,0.214,1.194,0.641,1.606c0.428,0.412,0.983,0.618,1.666,0.618
				c0.775,0,1.357-0.228,1.744-0.683c0.375-0.437,0.563-0.941,0.563-1.513c0-0.652-0.215-1.187-0.646-1.606
				C17.3,14.974,16.731,14.771,16.005,14.771z M16.024,9.28c-0.591,0-1.068,0.165-1.43,0.494c-0.363,0.329-0.544,0.761-0.544,1.297
				c0,0.56,0.183,1.008,0.549,1.343c0.366,0.335,0.857,0.503,1.472,0.503c0.615,0,1.101-0.166,1.458-0.498
				c0.357-0.332,0.535-0.784,0.535-1.357c0-0.56-0.18-0.997-0.54-1.31C17.163,9.437,16.663,9.28,16.024,9.28z"/>
		</g>
		<g>
			<path fill="#FFFFFF" d="M3.214,3h0.907c0.153,0,0.273,0.009,0.361,0.028C4.57,3.047,4.649,3.081,4.72,3.129
				C4.915,3.26,5.013,3.458,5.013,3.723c0,0.235-0.081,0.419-0.243,0.554C4.702,4.334,4.623,4.375,4.535,4.4
				C4.447,4.426,4.338,4.438,4.209,4.438H3.704v0.811H3.214V3z M3.704,3.415v0.637h0.438c0.13,0,0.224-0.023,0.281-0.069
				C4.495,3.925,4.53,3.841,4.53,3.729c0-0.113-0.041-0.197-0.123-0.252C4.348,3.436,4.251,3.415,4.117,3.415H3.704z"/>
			<path fill="#FFFFFF" d="M5.712,3v2.249H5.266V3H5.712z"/>
			<path fill="#FFFFFF" d="M7.587,5.249H7.131C7.112,5.183,7.102,5.127,7.102,5.081c-0.139,0.143-0.319,0.214-0.54,0.214
				c-0.172,0-0.307-0.04-0.403-0.12C6.048,5.083,5.993,4.954,5.993,4.789c0-0.21,0.095-0.356,0.285-0.437
				c0.077-0.033,0.218-0.063,0.425-0.091C6.88,4.238,6.99,4.215,7.034,4.193C7.077,4.171,7.099,4.126,7.099,4.06
				c0-0.147-0.097-0.22-0.292-0.22c-0.104,0-0.179,0.018-0.227,0.055C6.532,3.932,6.501,3.996,6.485,4.087H6.064
				C6.077,3.901,6.147,3.76,6.275,3.665C6.402,3.57,6.583,3.523,6.818,3.523c0.259,0,0.451,0.053,0.575,0.158
				C7.45,3.731,7.488,3.783,7.507,3.84c0.019,0.056,0.028,0.146,0.028,0.268c0,0.026-0.002,0.138-0.005,0.338
				C7.529,4.648,7.528,4.764,7.528,4.793c0,0.122,0.004,0.211,0.011,0.268C7.546,5.119,7.562,5.181,7.587,5.249z M7.096,4.438
				C7.039,4.474,6.934,4.502,6.782,4.523C6.676,4.539,6.599,4.56,6.551,4.586c-0.067,0.036-0.1,0.097-0.1,0.183
				c0,0.07,0.022,0.124,0.066,0.163C6.562,4.971,6.623,4.99,6.702,4.99c0.131,0,0.237-0.046,0.318-0.138
				C7.049,4.82,7.069,4.787,7.08,4.753c0.011-0.034,0.016-0.08,0.016-0.136V4.438z"/>
			<path fill="#FFFFFF" d="M8.785,3.566v0.315H8.451V4.67c0,0.094,0.009,0.154,0.026,0.18C8.503,4.887,8.56,4.906,8.649,4.906
				c0.035,0,0.08-0.003,0.135-0.008v0.357c-0.1,0.011-0.193,0.017-0.277,0.017c-0.127,0-0.224-0.014-0.291-0.043
				c-0.104-0.046-0.168-0.13-0.194-0.252c-0.011-0.052-0.017-0.16-0.017-0.325V3.881H7.734V3.566h0.272V3.172h0.445v0.394H8.785z"/>
			<path fill="#FFFFFF" d="M9.878,3.002v0.343C9.823,3.339,9.772,3.337,9.725,3.337c-0.078,0-0.13,0.011-0.157,0.034
				c-0.027,0.023-0.04,0.067-0.04,0.134v0.065h0.325v0.317h-0.32v1.363H9.088V3.886H8.822V3.569h0.266
				c0-0.119,0.007-0.205,0.022-0.258c0.056-0.213,0.235-0.32,0.535-0.32C9.693,2.991,9.771,2.994,9.878,3.002z"/>
			<path fill="#FFFFFF" d="M10.83,3.523c0.244,0,0.443,0.081,0.598,0.243c0.153,0.16,0.229,0.373,0.229,0.64
				c0,0.276-0.082,0.496-0.245,0.66c-0.153,0.153-0.352,0.229-0.597,0.229c-0.261,0-0.47-0.085-0.624-0.255
				c-0.148-0.162-0.221-0.372-0.221-0.631c0-0.254,0.072-0.461,0.215-0.62C10.345,3.612,10.56,3.523,10.83,3.523z M10.807,3.871
				c-0.118,0-0.212,0.048-0.281,0.143C10.455,4.11,10.42,4.242,10.42,4.409c0,0.173,0.035,0.306,0.105,0.398
				c0.072,0.093,0.17,0.14,0.294,0.14c0.116,0,0.208-0.043,0.275-0.128c0.077-0.094,0.115-0.231,0.115-0.411
				c0-0.168-0.034-0.299-0.102-0.392C11.036,3.919,10.937,3.871,10.807,3.871z"/>
			<path fill="#FFFFFF" d="M12.996,3.541v0.432c-0.072-0.013-0.13-0.02-0.174-0.02c-0.166,0-0.288,0.07-0.366,0.209
				c-0.044,0.078-0.066,0.208-0.066,0.391v0.695h-0.446v-1.68h0.425v0.306c0.121-0.228,0.297-0.341,0.528-0.341
				C12.925,3.534,12.958,3.536,12.996,3.541z"/>
			<path fill="#FFFFFF" d="M13.633,3.574v0.223c0.056-0.077,0.112-0.134,0.168-0.171c0.099-0.069,0.216-0.103,0.351-0.103
				c0.217,0,0.37,0.092,0.457,0.277c0.131-0.185,0.31-0.277,0.535-0.277c0.174,0,0.31,0.052,0.406,0.156s0.145,0.251,0.145,0.441
				v1.129h-0.446V4.25c0-0.108-0.012-0.183-0.035-0.226c-0.042-0.079-0.118-0.118-0.228-0.118c-0.133,0-0.226,0.056-0.278,0.169
				c-0.024,0.05-0.035,0.14-0.035,0.269v0.904h-0.445V4.232c0-0.099-0.012-0.171-0.035-0.215c-0.038-0.074-0.109-0.111-0.212-0.111
				c-0.064,0-0.121,0.016-0.171,0.048c-0.051,0.032-0.089,0.075-0.115,0.131s-0.038,0.142-0.038,0.26v0.904h-0.446V3.574H13.633z"/>
		</g>
	</g>
</g>
</svg>
