<svg xmlns="http://www.w3.org/2000/svg" width="36" height="36" fill="none" viewBox="0 0 36 36"><path fill="#000" fill-rule="evenodd" d="M5.25 7.25a1 1 0 0 0-1 1v7.5c0 2.04 1.11 3.868 2.75 4.817l.25.145v2.038h5v-2.038l.25-.145c1.64-.95 2.75-2.777 2.75-4.817v-7.5a1 1 0 1 0-2 0V15h-1v-2.25a1 1 0 0 0-2 0V15h-1v-2.25a1 1 0 1 0-2 0V15h-1V8.25a1 1 0 0 0-1-1m11 1v7.5a6.59 6.59 0 0 1-3 5.53v1.47h1.5v8.5h-10v-8.5h1.5v-1.47a6.59 6.59 0 0 1-3-5.53v-7.5a2 2 0 1 1 4 0v2.768a1.995 1.995 0 0 1 2.5.41 1.995 1.995 0 0 1 2.5-.41V8.25a2 2 0 1 1 4 0m12 14.25a1.75 1.75 0 1 1 3.5 0 1.75 1.75 0 0 1-3.5 0M30 19.75c.665 0 1.274.236 1.75.629V14.84l-8 1.334V24a2.75 2.75 0 1 1-1-2.121v-9.553l.418-.07 9-1.5.582-.096V22.5A2.75 2.75 0 1 1 30 19.75m-9 2.5a1.75 1.75 0 1 1 0 3.5 1.75 1.75 0 0 1 0-3.5m2.75-7.09 8-1.334V11.84l-8 1.334zm-18 15.09v-6.5h8v6.5z" clip-rule="evenodd"/></svg>