<svg xmlns="http://www.w3.org/2000/svg" width="24" height="24" version="1.1" viewBox="0 0 24 24">
  <path fill="none" fill-rule="evenodd" stroke="#000" stroke-width="1" d="M12.5,10.5 C13.604,10.5 14.5,11.396 14.5,12.5 C14.5,13.604 13.604,14.5 12.5,14.5 C11.396,14.5 10.5,13.604 10.5,12.5 C10.5,11.396 11.396,10.5 12.5,10.5 Z M19.5,11.5 C20.053,11.5 20.5,11.948 20.5,12.5 C20.5,13.053 20.053,13.5 19.5,13.5 C18.947,13.5 18.5,13.053 18.5,12.5 C18.5,11.948 18.947,11.5 19.5,11.5 Z M12.5,18.5 C13.053,18.5 13.5,18.947 13.5,19.5 C13.5,20.053 13.053,20.5 12.5,20.5 C11.948,20.5 11.5,20.053 11.5,19.5 C11.5,18.947 11.948,18.5 12.5,18.5 Z M5.5,11.5 C6.052,11.5 6.5,11.948 6.5,12.5 C6.5,13.053 6.052,13.5 5.5,13.5 C4.948,13.5 4.5,13.053 4.5,12.5 C4.5,11.948 4.948,11.5 5.5,11.5 Z M12.5,4.5 C13.053,4.5 13.5,4.948 13.5,5.5 C13.5,6.052 13.053,6.5 12.5,6.5 C11.948,6.5 11.5,6.052 11.5,5.5 C11.5,4.948 11.948,4.5 12.5,4.5 Z M6.207,13.207 L11.793,18.793 M11.793,6.207 L6.207,11.793 M18.793,11.793 L13.207,6.207 M13.207,18.793 L18.793,13.207 M12.5,10.5 L12.5,6.5 M10.5,12.499 L6.5,12.499 M12.499,14.499 L12.499,18.499 M14.499,12.5 L18.499,12.5"/>
</svg>
