<svg xmlns="http://www.w3.org/2000/svg" width="36" height="36" version="1.1" viewBox="0 0 36 36">
  <path fill="none" fill-rule="evenodd" stroke="#000" stroke-width="1" d="M26.25,26.25 L32.25,26.25 L32.25,11.25 L26.25,11.25 L26.25,26.25 Z M27.75,11.24775 L27.75,8.24775 L30.75,8.24775 L30.75,11.24775 M11.51955,21.91695 C9.74205,23.69445 6.86205,23.69445 5.08455,21.91695 C3.30705,20.13945 3.30705,17.25945 5.08455,15.48195 L15.48555,5.08245 C17.26155,3.30495 20.14305,3.30495 21.92055,5.08245 C23.69655,6.85845 23.69655,9.73995 21.92055,11.51595 L11.51955,21.91695 Z M14.25,20.25075 C13.8435,20.25075 13.449,20.29275 13.065,20.37075 L11.52,21.91725 C10.842,22.59375 10.002,23.00925 9.126,23.17125 C8.5815,24.07275 8.25,25.11975 8.25,26.25075 C8.25,29.56425 10.9365,32.25075 14.25,32.25075 C17.5635,32.25075 20.25,29.56425 20.25,26.25075 C20.25,22.93725 17.5635,20.25075 14.25,20.25075 Z M16.752,16.74825 L10.2525,10.24875 M25.5,32.25 L33,32.25 M29.25,8.24925 L29.2515,2.99925 M29.25,32.25 L29.2515,26.25 M26.25,23.25 L30,23.25 M26.25,20.25 L30,20.25 M26.25,17.25 L30,17.25 M26.25,14.24925 L30,14.24925 M8.2485,26.253 L20.2485,26.253"/>
</svg>
