<?xml version="1.0" encoding="utf-8"?>
<!-- Generator: Adobe Illustrator 24.2.0, SVG Export Plug-In . SVG Version: 6.00 Build 0)  -->
<svg version="1.0" id="Ebene_1" xmlns="http://www.w3.org/2000/svg" xmlns:xlink="http://www.w3.org/1999/xlink" x="0px" y="0px"
	 viewBox="0 0 24 24" enable-background="new 0 0 24 24" xml:space="preserve">
<g id="SVG_x5F_24x24pt">
	<path id="backgroundBlue" fill="#2D327D" d="M0,22.5v-21C0,0.675,0.675,0,1.5,0h21C23.325,0,24,0.675,24,1.5v21
		c0,0.825-0.675,1.5-1.5,1.5h-21C0.675,24,0,23.325,0,22.5z"/>
	<g id="content_1_">
		<g>
			<path fill="#FFFFFF" d="M10.999,9.757v1.907c-0.062,0.067-0.244,0.274-0.546,0.623c-0.42,0.482-0.838,1.088-1.254,1.819
				c-0.415,0.731-0.738,1.432-0.969,2.103c-0.487,1.4-0.782,2.997-0.884,4.791H5.023c0.015-0.846,0.163-1.784,0.442-2.815
				c0.279-1.031,0.665-2.061,1.157-3.092c0.702-1.456,1.415-2.54,2.138-3.253H3.454V9.757H10.999z"/>
			<path fill="#FFFFFF" d="M20.261,9.757v2h-4.53l-0.484,2.53c0.543-0.574,1.238-0.861,2.084-0.861c0.831,0,1.553,0.223,2.169,0.669
				c0.913,0.672,1.369,1.692,1.369,3.061c0,1.343-0.487,2.407-1.461,3.192c-0.759,0.615-1.666,0.923-2.722,0.923
				c-1.19,0-2.146-0.319-2.869-0.957c-0.723-0.638-1.105-1.501-1.146-2.588h2.207c0.036,0.395,0.164,0.731,0.385,1.007
				c0.343,0.436,0.82,0.654,1.43,0.654c0.59,0,1.056-0.213,1.4-0.638c0.333-0.415,0.5-0.92,0.5-1.515
				c0-0.646-0.174-1.162-0.523-1.55c-0.349-0.387-0.813-0.581-1.392-0.581c-0.708,0-1.259,0.318-1.653,0.954l-2.007-0.031
				l1.069-6.268H20.261z"/>
		</g>
		<g id="Voie">
			<path fill="#FFFFFF" d="M5.036,3L4.288,5.249H3.73L2.993,3h0.514l0.506,1.684L4.527,3H5.036z"/>
			<path fill="#FFFFFF" d="M5.874,3.523c0.244,0,0.443,0.081,0.598,0.243c0.153,0.16,0.229,0.373,0.229,0.64
				c0,0.276-0.082,0.496-0.245,0.66C6.304,5.218,6.105,5.295,5.86,5.295c-0.261,0-0.47-0.085-0.624-0.255
				C5.088,4.877,5.014,4.667,5.014,4.409c0-0.254,0.072-0.461,0.215-0.62C5.389,3.612,5.603,3.523,5.874,3.523z M5.851,3.871
				c-0.118,0-0.212,0.048-0.281,0.143C5.499,4.11,5.463,4.242,5.463,4.409c0,0.173,0.035,0.306,0.105,0.398
				c0.072,0.093,0.17,0.14,0.294,0.14c0.116,0,0.208-0.043,0.275-0.128c0.077-0.094,0.115-0.231,0.115-0.411
				c0-0.168-0.034-0.299-0.102-0.392C6.08,3.919,5.98,3.871,5.851,3.871z"/>
			<path fill="#FFFFFF" d="M7.449,3v0.401H7.003V3H7.449z M7.449,3.572v1.677H7.003V3.572H7.449z"/>
			<path fill="#FFFFFF" d="M9.321,4.726C9.297,4.82,9.255,4.909,9.193,4.992c-0.148,0.202-0.36,0.303-0.637,0.303
				c-0.25,0-0.451-0.079-0.601-0.237c-0.074-0.077-0.13-0.17-0.169-0.278C7.744,4.664,7.723,4.543,7.723,4.417
				c0-0.244,0.07-0.449,0.211-0.615c0.157-0.186,0.36-0.278,0.609-0.278c0.201,0,0.372,0.062,0.514,0.186
				c0.102,0.089,0.175,0.199,0.221,0.33s0.069,0.295,0.069,0.493h-1.17c0.004,0.082,0.017,0.15,0.038,0.205
				c0.06,0.147,0.175,0.22,0.345,0.22c0.083,0,0.151-0.018,0.203-0.055c0.052-0.036,0.095-0.095,0.129-0.176H9.321z M8.892,4.232
				C8.884,4.151,8.865,4.084,8.836,4.031C8.808,3.978,8.767,3.937,8.714,3.906C8.661,3.875,8.604,3.86,8.541,3.86
				c-0.099,0-0.181,0.033-0.246,0.1C8.23,4.026,8.192,4.117,8.18,4.232H8.892z"/>
		</g>
	</g>
</g>
</svg>
