<svg class="color-immutable" xmlns="http://www.w3.org/2000/svg" width="59" height="20" fill="none" viewBox="0 0 59 20"><g clip-path="url(#a)"><path fill="#EB0000" fill-rule="evenodd" d="M2 0a2 2 0 0 0-2 2v16a2 2 0 0 0 2 2h55a2 2 0 0 0 2-2V2a2 2 0 0 0-2-2z" clip-rule="evenodd"/><path fill="#fff" d="M9.22 4.2h4.057L8.259 15.8H4.186zM15.948 4.2h14.395l-1.49 3.445h-10.28l-2.042 4.71h10.285l-1.49 3.445H10.93zM44.472 7.121h-2.2q-.307-1.337-1.518-1.337-1.28 0-1.82 1.574-.221.642-.355 1.938.522-.703 1.107-1.012.593-.309 1.424-.309 1.63 0 2.618 1.155.942 1.092.941 2.737 0 1.955-1.265 3.14-1.14 1.068-2.737 1.068-2.048 0-3.188-1.542-1.14-1.55-1.139-4.319 0-2.958 1.218-4.635 1.18-1.622 3.22-1.622 1.922 0 2.942 1.29.585.743.752 1.874m-3.916 2.65q-.83 0-1.32.696-.444.617-.444 1.471 0 .847.451 1.48.49.704 1.345.704.831 0 1.337-.673.474-.633.474-1.495 0-.847-.427-1.447-.522-.736-1.416-.736M53.687 13.742v2.057h-8.33q0-.942.301-1.796.309-.855.862-1.471.427-.475.997-.926.578-.45 2.286-1.653.831-.578 1.163-1.076t.332-1.155q0-.76-.45-1.226-.444-.474-1.171-.474-1.788 0-1.843 2.57H45.61V8.34q0-2.103 1.178-3.259 1.148-1.123 2.967-1.123 1.613 0 2.697.918 1.179.996 1.179 2.681 0 1.472-.942 2.531-.308.348-.577.562-.27.205-1.416 1.005-1.092.759-1.566 1.162a6.4 6.4 0 0 0-.87.926z"/></g><defs><clipPath id="a"><path fill="#fff" d="M0 0h59v20H0z"/></clipPath></defs></svg>