<svg class="color-immutable" xmlns="http://www.w3.org/2000/svg" width="59" height="20" fill="none" viewBox="0 0 59 20"><path fill="#EB0000" fill-rule="evenodd" d="M2 0a2 2 0 0 0-2 2v16a2 2 0 0 0 2 2h55a2 2 0 0 0 2-2V2a2 2 0 0 0-2-2z" clip-rule="evenodd"/><path fill="#fff" d="M44.632 13.743V15.8h-8.301c-.003-.612.1-1.22.303-1.796a4.4 4.4 0 0 1 .856-1.471 8 8 0 0 1 .997-.925q.572-.451 2.274-1.654c.448-.286.84-.65 1.16-1.076.223-.342.339-.745.33-1.154.02-.453-.14-.896-.445-1.23a1.54 1.54 0 0 0-1.17-.471q-1.782 0-1.838 2.57h-2.215v-.252q0-2.105 1.175-3.26Q38.9 3.96 40.714 3.959a4 4 0 0 1 2.688.918q1.175.996 1.175 2.682a3.7 3.7 0 0 1-.938 2.53q-.262.306-.576.558-.268.21-1.41 1.009-1.089.76-1.558 1.163a6.2 6.2 0 0 0-.87.925zM51.239 4.235V15.8h-2.302V8.23h-2.712V6.553a5.8 5.8 0 0 0 1.375-.174c.353-.1.684-.266.974-.49q.639-.492.86-1.654zM9.22 4.2h4.057L8.259 15.8H4.186zM15.948 4.2h14.395l-1.49 3.445h-10.28l-2.042 4.71h10.285l-1.49 3.445H10.93z"/></svg>