<?xml version="1.0" encoding="utf-8"?>
<!-- Generator: Adobe Illustrator 24.2.0, SVG Export Plug-In . SVG Version: 6.00 Build 0)  -->
<svg version="1.0" id="Ebene_1" xmlns="http://www.w3.org/2000/svg" xmlns:xlink="http://www.w3.org/1999/xlink" x="0px" y="0px"
	 viewBox="0 0 24 24" enable-background="new 0 0 24 24" xml:space="preserve">
<g id="SVG_x5F_24x24pt">
	<path id="backgroundBlue" fill="#2D327D" d="M0,22.5v-21C0,0.675,0.675,0,1.5,0h21C23.325,0,24,0.675,24,1.5v21
		c0,0.825-0.675,1.5-1.5,1.5h-21C0.675,24,0,23.325,0,22.5z"/>
	<g id="content">
		<polygon fill="#FFFFFF" points="16.915,17.552 13.501,17.552 13.501,18.94 10.088,18.94 10.088,20.328 6.675,20.328 6.675,21.003 
			10.763,21.003 10.763,19.615 14.176,19.615 14.176,18.227 17.59,18.227 17.59,16.839 21.003,16.839 21.003,16.164 16.915,16.164 
			16.915,17.552 		"/>
		<path fill="#FFFFFF" d="M3.528,11.563c0.067,0,0.133-0.013,0.195-0.039l0.551-0.23v-1.098l-0.941,0.393
			c-0.188,0.079-0.311,0.263-0.311,0.467C3.022,11.336,3.249,11.563,3.528,11.563L3.528,11.563z"/>
		<path fill="#FFFFFF" d="M3.693,21.003c0.383,0,0.694-0.311,0.694-0.694v-3.282L6,14.251V16.6c0,0.138,0.038,0.273,0.109,0.39
			l1.593,2.616l0,0c0.126,0.207,0.351,0.333,0.593,0.333c0.383,0,0.694-0.311,0.694-0.694c0-0.127-0.035-0.252-0.101-0.361
			L7.5,16.606V8.391l0.75,1.088v2.747c0,0.29,0.235,0.525,0.525,0.525c0.29,0,0.525-0.235,0.525-0.525V9.319
			c0-0.152-0.046-0.301-0.133-0.426L7.61,6.634C7.33,6.228,6.868,5.986,6.375,5.986c-0.828,0-1.5,0.672-1.5,1.5v5.715L3.1,16.254
			l0,0c-0.066,0.115-0.102,0.245-0.102,0.377v3.678C2.999,20.692,3.31,21.003,3.693,21.003L3.693,21.003z"/>
		<path fill="#FFFFFF" d="M6.177,5.635c0.725,0,1.313-0.588,1.313-1.313c0-0.725-0.588-1.313-1.313-1.313
			c-0.725,0-1.313,0.588-1.313,1.313C4.865,5.047,5.453,5.635,6.177,5.635L6.177,5.635z"/>
	</g>
</g>
</svg>
