<?xml version="1.0" encoding="utf-8"?>
<!-- Generator: Adobe Illustrator 24.2.0, SVG Export Plug-In . SVG Version: 6.00 Build 0)  -->
<svg version="1.0" id="Ebene_1" xmlns="http://www.w3.org/2000/svg" xmlns:xlink="http://www.w3.org/1999/xlink" x="0px" y="0px"
	 viewBox="0 0 24 24" enable-background="new 0 0 24 24" xml:space="preserve">
<g id="SVG_x5F_24x24pt">
	<path id="backgroundBlue" fill="#2D327D" d="M0,22.5v-21C0,0.675,0.675,0,1.5,0h21C23.325,0,24,0.675,24,1.5v21
		c0,0.825-0.675,1.5-1.5,1.5h-21C0.675,24,0,23.325,0,22.5z"/>
	<g id="content">
		<path fill="#FFFFFF" d="M19.931,20.059V24H3.465c0-1.209,0.198-2.356,0.594-3.44c0.396-1.084,0.964-2.022,1.704-2.815
			c0.563-0.604,1.22-1.191,1.97-1.759c0.751-0.568,2.257-1.624,4.519-3.167c1.095-0.751,1.861-1.441,2.299-2.072
			c0.438-0.631,0.657-1.363,0.657-2.197c0-0.97-0.295-1.754-0.884-2.353c-0.589-0.599-1.363-0.899-2.322-0.899
			c-2.356,0-3.571,1.637-3.644,4.91H3.965c0-0.208,0-0.37,0-0.485c0-2.679,0.777-4.754,2.33-6.224
			c1.511-1.439,3.471-2.158,5.88-2.158c2.106,0,3.878,0.584,5.317,1.751c1.553,1.272,2.33,2.982,2.33,5.129
			c0,1.876-0.62,3.492-1.861,4.848c-0.407,0.438-0.785,0.792-1.134,1.063c-0.349,0.271-1.285,0.912-2.807,1.923
			c-1.46,0.991-2.494,1.736-3.104,2.236c-0.61,0.5-1.181,1.089-1.712,1.767H19.931z"/>
	</g>
</g>
</svg>
