<svg class="color-immutable" xmlns="http://www.w3.org/2000/svg" width="59" height="20" fill="none" viewBox="0 0 59 20"><path stroke="#FFDE15" d="M1.792.5h55.416c.71 0 1.292.58 1.292 1.3v16.4c0 .72-.58 1.3-1.292 1.3H1.792C1.082 19.5.5 18.92.5 18.2V1.8c0-.675.511-1.227 1.16-1.293z"/><path fill="#FFDE15" d="M12.8 7.661h-2.405q-.07-.846-.633-1.289-.553-.45-1.558-.45-.894 0-1.392.355-.49.349-.49.981 0 .57.474.823.459.252 2.326.712 1.97.49 2.729.988 1.4.918 1.4 2.555 0 1.796-1.408 2.832-1.242.91-3.362.91-2.357 0-3.662-1.076t-1.353-3.061H5.98q.055.964.499 1.432.696.743 2.096.743.95 0 1.503-.372.624-.427.625-1.162 0-.736-.878-1.076-.483-.19-2.278-.688-1.125-.309-1.756-.586-.633-.276-1.013-.617-.885-.79-.886-2.183 0-1.669 1.384-2.642 1.18-.83 3.062-.83 1.653 0 2.768.656 1.606.942 1.693 3.045M24.515 4.236v11.565h-2.54l-4.84-7.879.031 7.879h-2.428V4.236h2.57l4.81 7.863-.031-7.863zM34.102 7.124h-2.199q-.309-1.338-1.519-1.337-1.28 0-1.82 1.574-.22.64-.355 1.938.522-.705 1.107-1.013.593-.308 1.424-.308 1.63 0 2.618 1.155.942 1.091.942 2.737 0 1.953-1.266 3.14-1.14 1.068-2.737 1.068-2.049 0-3.188-1.543-1.139-1.55-1.139-4.319 0-2.958 1.219-4.635 1.177-1.622 3.219-1.622 1.922 0 2.942 1.29.585.743.752 1.875m-3.915 2.65q-.831 0-1.322.696-.442.616-.442 1.47 0 .847.45 1.48.491.704 1.345.704.831 0 1.337-.672.474-.633.474-1.495 0-.847-.427-1.448-.522-.736-1.416-.736M43.317 13.744v2.057h-8.33q0-.942.301-1.796.31-.855.863-1.47.427-.476.996-.926.577-.451 2.286-1.654.831-.577 1.163-1.075.333-.5.332-1.155 0-.76-.45-1.226-.444-.475-1.171-.475-1.788 0-1.843 2.57H35.24v-.252q0-2.105 1.179-3.26 1.146-1.123 2.966-1.123 1.614 0 2.697.918 1.179.997 1.179 2.682 0 1.47-.941 2.53-.309.349-.578.563-.27.205-1.416 1.004-1.091.76-1.566 1.163a6.4 6.4 0 0 0-.87.925z"/></svg>