<svg class="color-immutable" width="59" height="20" viewBox="0 0 59 20" fill="none" xmlns="http://www.w3.org/2000/svg"><g clip-path="url(#a)"><path d="M.5 2A1.5 1.5 0 0 1 2 .5h55A1.5 1.5 0 0 1 58.5 2v16a1.5 1.5 0 0 1-1.5 1.5H2A1.5 1.5 0 0 1 .5 18V2Z" stroke="#000"/><path d="M12.877 7.71h-2.449c-.048-.575-.263-1.013-.644-1.314-.376-.306-.905-.459-1.587-.459-.607 0-1.08.121-1.418.363-.333.236-.5.57-.5.999 0 .387.161.666.483.838.312.172 1.102.413 2.37.725 1.337.333 2.263.669 2.779 1.007.95.623 1.426 1.49 1.426 2.602 0 1.22-.478 2.18-1.434 2.884-.844.618-1.985.927-3.424.927-1.601 0-2.844-.365-3.73-1.096-.887-.73-1.346-1.77-1.378-3.118h2.562c.037.656.206 1.142.507 1.459.473.505 1.185.757 2.135.757.645 0 1.155-.126 1.531-.379.424-.29.636-.684.636-1.184 0-.5-.298-.865-.894-1.096-.327-.129-1.1-.362-2.32-.7-.763-.21-1.359-.409-1.789-.597-.43-.188-.773-.397-1.031-.628-.602-.537-.902-1.279-.902-2.224 0-1.133.47-2.03 1.41-2.69.8-.565 1.84-.847 3.118-.847 1.122 0 2.062.223 2.82.669 1.09.64 1.664 1.673 1.723 3.102ZM14.312 7.951c.026-.966.265-1.777.717-2.433.73-1.052 1.828-1.579 3.295-1.579 1.128 0 2.038.288 2.73.862.748.623 1.12 1.429 1.12 2.417 0 .591-.147 1.101-.442 1.531a2.14 2.14 0 0 1-1.185.862c.634.145 1.134.467 1.499.967.37.5.556 1.104.556 1.813 0 1.165-.43 2.118-1.29 2.86-.794.687-1.799 1.031-3.012 1.031-1.316 0-2.361-.379-3.135-1.136-.767-.757-1.152-1.78-1.152-3.07v-.153h2.264c0 .725.172 1.287.516 1.684.344.392.83.588 1.458.588.629 0 1.112-.185 1.45-.556.312-.349.468-.765.468-1.248 0-.58-.199-1.04-.596-1.378-.328-.28-.833-.419-1.515-.419-.194 0-.384.01-.572.032V8.894c.14.01.274.016.403.016 1.353 0 2.03-.502 2.03-1.506 0-.44-.148-.795-.443-1.064-.296-.274-.685-.41-1.168-.41-.554 0-.98.171-1.281.515-.301.344-.462.846-.484 1.506h-2.231ZM31.835 11.32v1.99h-1.483V16h-2.296v-2.69h-4.914v-2.208l5.035-6.88h2.175v7.097h1.483Zm-3.73.023V6.96l-3.03 4.383h3.03Z" fill="#000"/></g><defs><clipPath id="a"><path fill="#fff" d="M0 0h59v20H0z"/></clipPath></defs></svg>