<?xml version="1.0" encoding="utf-8"?>
<!-- Generator: Adobe Illustrator 24.2.0, SVG Export Plug-In . SVG Version: 6.00 Build 0)  -->
<svg version="1.0" id="Ebene_1" xmlns="http://www.w3.org/2000/svg" xmlns:xlink="http://www.w3.org/1999/xlink" x="0px" y="0px"
	 viewBox="0 0 24 24" enable-background="new 0 0 24 24" xml:space="preserve">
<g id="SVG_x5F_24x24pt">
	<path id="backgroundBlue" fill="#2D327D" d="M0,22.5v-21C0,0.675,0.675,0,1.5,0h21C23.325,0,24,0.675,24,1.5v21
		c0,0.825-0.675,1.5-1.5,1.5h-21C0.675,24,0,23.325,0,22.5z"/>
	<g id="content">
		<path fill="#FFFFFF" d="M4.032,16.795c0.421,0,0.763-0.341,0.763-0.763c0-0.421-0.342-0.763-0.763-0.763
			c-0.422,0-0.763,0.342-0.763,0.763C3.268,16.454,3.61,16.795,4.032,16.795L4.032,16.795z"/>
		<path fill="#FFFFFF" d="M9.59,16.795c0.422,0,0.763-0.341,0.763-0.763c0-0.421-0.342-0.763-0.763-0.763
			c-0.422,0-0.763,0.342-0.763,0.763C8.827,16.454,9.169,16.795,9.59,16.795L9.59,16.795z"/>
		<path fill="#FFFFFF" d="M3.994,8.674c0.421,0,0.763-0.342,0.763-0.763c0-0.422-0.342-0.763-0.763-0.763
			c-0.422,0-0.764,0.342-0.764,0.763C3.23,8.332,3.572,8.674,3.994,8.674L3.994,8.674z"/>
		<path fill="#FFFFFF" d="M9.567,8.674c0.421,0,0.763-0.342,0.763-0.763c0-0.422-0.342-0.763-0.763-0.763
			c-0.422,0-0.763,0.342-0.763,0.763C8.804,8.332,9.146,8.674,9.567,8.674L9.567,8.674z"/>
		<path fill="#FFFFFF" d="M7.842,21.171l0.639,0.427L4.955,3.879L4.951,3.88l-0.03-0.098c-0.038-0.116-0.08-0.169-0.205-0.376
			c-0.125-0.207-0.311-0.409-0.58-0.564c-0.269-0.156-0.62-0.198-0.62-0.198S3.369,2.737,3.43,2.771
			c0.06,0.034,0.615,0.427,0.746,0.625c0.131,0.198,0.241,0.589,0.241,0.589l0.071-0.013L4.42,3.986l1.508,7.571l-0.156,0.03
			l-0.189,0.167l-0.178,0.127l-0.101,0.334l-0.075,0.514l-0.553,0.81l-0.481,0.094l0.171,0.873l2.065-0.404"/>
		<path fill="#FFFFFF" d="M9.984,13.409l-0.17-0.872L9.333,12.63l-0.818-0.542l-0.263-0.449l-0.22-0.271l-0.213-0.051l-0.238-0.083
			l-0.126,0.025L5.948,3.69l0.001,0c0,0-0.039-0.407,0.008-0.639c0.047-0.233,0.413-0.804,0.456-0.86
			c0.043-0.054-0.129-0.086-0.129-0.086S5.975,2.276,5.784,2.521C5.593,2.767,5.497,3.024,5.459,3.262
			C5.42,3.501,5.403,3.566,5.411,3.688L5.419,3.8L5.417,3.8l3.527,17.72l0.426-0.647l-1.408-7.07L9.984,13.409L9.984,13.409z"/>
	</g>
</g>
</svg>
