<svg xmlns="http://www.w3.org/2000/svg" width="48" height="48" fill="none" viewBox="0 0 48 48"><path fill="#000" fill-rule="evenodd" d="m32.888 11.513.188-.043.168.094 12.5 7 .256.143v3.146l-.744-.417-12.332-6.905-30.312 6.956-.612.14v-3.025l.388-.09zM45 19.293l-12.076-6.762L3 19.398v.974l29.888-6.86.188-.043.168.095L45 20.147zM4 8c0-2.23 1.77-4 4-4s4 1.77 4 4-1.77 4-4 4-4-1.77-4-4m4-5C5.217 3 3 5.217 3 8s2.217 5 5 5a4.98 4.98 0 0 0 4.014-2h6.96l.146-.147 2.488-2.5L21.96 8l-.35-.353-2.489-2.5L18.974 5h-6.96A4.98 4.98 0 0 0 8 3m5 5a5 5 0 0 1-.409 2H14V8h1v2h1V8h1v2h1.558l1.99-2-1.99-2h-5.967A5 5 0 0 1 13 8m4.999 23a7 7 0 1 0 3.01.679l-2.544 6.503-.932-.364 2.545-6.504A7 7 0 0 0 18 31m2.445-.62a8 8 0 1 0 .931.365L22.84 27h9.344l1.919 4.012A8 8 0 0 0 38 46c4.42 0 8-3.58 8-8a8 8 0 0 0-10.995-7.42l-1.924-4.022 4.318-5.758.6-.8h-8v1h6l-3.75 5H22.158l-.125.318zm18.007 7.404-3.014-6.3A7 7 0 0 1 45 38c0 3.867-3.133 7-7 7a7 7 0 0 1-3.465-13.084l3.014 6.3zM19 23h5v-1h-5zM7.977 7C7.421 7 7 7.416 7 8.005c0 .585.417.995.977.995C8.557 9 9 8.57 9 8.005 9 7.436 8.553 7 7.977 7M6 8.005C6 6.882 6.851 6 7.977 6 9.083 6 10 6.862 10 8.005 10 9.152 9.08 10 7.977 10 6.855 10 6 9.132 6 8.005" clip-rule="evenodd"/></svg>