<svg class="color-immutable" xmlns="http://www.w3.org/2000/svg" width="59" height="20" fill="none" viewBox="0 0 59 20"><g clip-path="url(#a)"><path stroke="#000" d="M.5 2A1.5 1.5 0 0 1 2 .5h55A1.5 1.5 0 0 1 58.5 2v16a1.5 1.5 0 0 1-1.5 1.5H2A1.5 1.5 0 0 1 .5 18z"/><path fill="#000" d="M4.069 4.224h5.704q1.692 0 2.594.532.749.434 1.144 1.16.395.725.395 1.635 0 1.032-.5 1.797-.491.765-1.377 1.096.78.192 1.224.87.282.426.379.894.097.467.25 2.135.112 1.224.346 1.523l.113.137h-2.683a2 2 0 0 1-.201-.637q-.058-.387-.154-1.788-.096-1.25-.612-1.724-.507-.484-1.74-.484H6.639v4.633h-2.57zm2.57 2.022v3.239h2.457q1.184 0 1.668-.339.612-.426.612-1.289 0-.837-.524-1.224t-1.651-.387zM24.436 13.827v2.176h-8.33V4.223h2.57v9.604zM33.37 7.165h-2.24q-.313-1.362-1.546-1.362-1.305 0-1.853 1.603-.225.652-.363 1.974.532-.717 1.128-1.031.605-.315 1.45-.314 1.66 0 2.667 1.176.96 1.111.959 2.787 0 1.99-1.289 3.199-1.16 1.088-2.788 1.088-2.086 0-3.247-1.571-1.16-1.58-1.16-4.4 0-3.013 1.241-4.72 1.2-1.653 3.28-1.652 1.956 0 2.996 1.313.597.757.766 1.91m-3.987 2.699q-.846 0-1.346.708-.45.63-.451 1.499 0 .862.46 1.507.498.717 1.369.717.846 0 1.361-.685.484-.645.484-1.523 0-.862-.435-1.474-.532-.75-1.442-.75M38.567 3.942q1.346 0 2.369.822 1.014.821 1.474 2.53.347 1.305.347 2.835 0 2.538-.903 4.174-.531.95-1.394 1.466a3.6 3.6 0 0 1-1.909.516q-1.442 0-2.465-.87-1.821-1.547-1.821-5.286 0-2.658.95-4.27a3.84 3.84 0 0 1 1.41-1.418 3.86 3.86 0 0 1 1.942-.5m-.089 1.99q-1.16 0-1.579 1.337-.33 1.064-.33 2.981 0 1.692.338 2.715.436 1.33 1.612 1.33.975 0 1.45-1.032.475-1.03.475-3.15 0-1.804-.338-2.844-.435-1.337-1.628-1.337"/></g><defs><clipPath id="a"><path fill="#fff" d="M0 0h59v20H0z"/></clipPath></defs></svg>