<svg xmlns="http://www.w3.org/2000/svg" width="16" height="16" fill="none" viewBox="0 0 16 16"><path fill="#000" fill-rule="evenodd" d="M9.463 7.562a2.65 2.65 0 0 1-2.929-.002c-2.162.87-3.376 2.974-3.52 5.44h9.972c-.144-2.478-1.363-4.574-3.523-5.438m-3.715-.747A3.9 3.9 0 0 1 5 4.5C5 2.656 6.262 1 8 1s3 1.656 3 3.5c0 .864-.277 1.686-.75 2.317C12.753 8.028 14 10.67 14 13.5v.5H2v-.5c0-2.816 1.241-5.467 3.748-6.685M6 4.5C6 3.03 6.977 2 8 2s2 1.03 2 2.5S9.023 7 8 7 6 5.97 6 4.5" clip-rule="evenodd"/></svg>