<svg class="color-immutable" xmlns="http://www.w3.org/2000/svg" width="16" height="16" fill="none" viewBox="0 0 16 16"><rect width="16" height="16" fill="#EB0000" rx="2"/><path fill="#fff" fill-rule="evenodd" d="M10.4 11.265 8 8.865l-2.4 2.4-.865-.866L7.135 8l-2.4-2.4.865-.865 2.4 2.4 2.4-2.4.865.865-2.4 2.4 2.4 2.4z" clip-rule="evenodd"/><path fill="#fff" fill-rule="evenodd" d="M7.994 2A5.997 5.997 0 0 0 2 8c0 3.312 2.682 6 5.994 6A6.003 6.003 0 0 0 14 8c0-3.312-2.688-6-6.006-6M8 12.8A4.8 4.8 0 0 1 3.2 8c0-2.652 2.148-4.8 4.8-4.8s4.8 2.148 4.8 4.8-2.148 4.8-4.8 4.8" clip-rule="evenodd"/></svg>