<svg xmlns="http://www.w3.org/2000/svg" width="24" height="24" fill="none" viewBox="0 0 24 24"><path fill="#000" fill-rule="evenodd" d="M13.5 5a1.5 1.5 0 1 1-3 0 1.5 1.5 0 0 1 3 0m0 7a1.5 1.5 0 1 1-3 0 1.5 1.5 0 0 1 3 0M12 20.5a1.5 1.5 0 1 0 .001-2.999A1.5 1.5 0 0 0 12 20.5" clip-rule="evenodd"/><path fill="#000" d="M12 7a2 2 0 0 0 2-2h-1a1 1 0 0 1-1 1zm-2-2a2 2 0 0 0 2 2V6a1 1 0 0 1-1-1zm2-2a2 2 0 0 0-2 2h1a1 1 0 0 1 1-1zm2 2a2 2 0 0 0-2-2v1a1 1 0 0 1 1 1zm-2 9a2 2 0 0 0 2-2h-1a1 1 0 0 1-1 1zm-2-2a2 2 0 0 0 2 2v-1a1 1 0 0 1-1-1zm2-2a2 2 0 0 0-2 2h1a1 1 0 0 1 1-1zm2 2a2 2 0 0 0-2-2v1a1 1 0 0 1 1 1zm-1 7a1 1 0 0 1-1 1v1a2 2 0 0 0 2-2zm-1-1a1 1 0 0 1 1 1h1a2 2 0 0 0-2-2zm-1 1a1 1 0 0 1 1-1v-1a2 2 0 0 0-2 2zm1 1a1 1 0 0 1-1-1h-1a2 2 0 0 0 2 2z"/></svg>