<svg class="color-immutable" xmlns="http://www.w3.org/2000/svg" width="59" height="20" fill="none" viewBox="0 0 59 20"><g clip-path="url(#a)"><path stroke="#fff" d="M.5 2A1.5 1.5 0 0 1 2 .5h55A1.5 1.5 0 0 1 58.5 2v16a1.5 1.5 0 0 1-1.5 1.5H2A1.5 1.5 0 0 1 .5 18z"/><path fill="#fff" d="M4.069 4.224h5.704q1.692 0 2.594.532.749.434 1.144 1.16.395.725.395 1.635 0 1.032-.5 1.797-.491.765-1.377 1.096.78.192 1.224.87.282.426.379.894.097.467.25 2.135.112 1.224.346 1.523l.113.137h-2.683a2 2 0 0 1-.201-.637q-.058-.387-.154-1.788-.096-1.25-.612-1.724-.507-.484-1.74-.484H6.639v4.633h-2.57zm2.57 2.022v3.239h2.457q1.184 0 1.668-.339.612-.426.612-1.289 0-.837-.524-1.224t-1.651-.387zM24.436 13.827v2.176h-8.33V4.223h2.57v9.604zM25.338 7.954q.04-1.45.717-2.433 1.096-1.58 3.295-1.58 1.692 0 2.731.863 1.12.935 1.12 2.417 0 .886-.443 1.53a2.14 2.14 0 0 1-1.184.863q.95.217 1.498.967.556.75.556 1.812 0 1.75-1.289 2.86-1.192 1.032-3.013 1.032-1.973 0-3.134-1.136-1.152-1.136-1.152-3.07v-.153h2.264q0 1.087.516 1.684.515.588 1.458.588.942 0 1.45-.556.468-.523.467-1.249 0-.87-.596-1.377-.491-.42-1.515-.42-.29 0-.572.033V8.897q.21.015.403.016 2.03 0 2.03-1.507 0-.66-.443-1.063-.442-.411-1.168-.411-.83 0-1.28.516-.453.514-.484 1.506zM34.474 13.046h2.224q.275 1.37 1.587 1.37.741 0 1.2-.5.468-.507.718-1.571.16-.676.233-1.539-.54.758-1.111 1.08-.565.315-1.378.314-1.297 0-2.256-.757a3.6 3.6 0 0 1-1.047-1.378 4.5 4.5 0 0 1-.371-1.837q0-1.99 1.361-3.223 1.17-1.063 2.804-1.063 1.008 0 1.861.451.855.45 1.434 1.281 1.024 1.474 1.024 4.141 0 2.466-.903 4.206-1.175 2.264-3.56 2.264-1.588 0-2.627-.879-1.032-.878-1.193-2.36m3.916-7.114q-.758 0-1.281.62-.525.629-.524 1.595 0 .782.379 1.386.516.83 1.45.83.846 0 1.354-.677.474-.636.475-1.514 0-.927-.492-1.571a1.64 1.64 0 0 0-1.361-.67"/></g><defs><clipPath id="a"><path fill="#fff" d="M0 0h59v20H0z"/></clipPath></defs></svg>