<svg xmlns="http://www.w3.org/2000/svg" width="36" height="36" fill="none" viewBox="0 0 36 36"><path fill="#000" fill-rule="evenodd" d="M7.749 7.75h5.501v1.547q.267-.33.594-.585c.975-.759 2.237-.95 3.406-.95h7.5a2 2 0 0 1 1.725 3.013 1.999 1.999 0 0 1 1.098 3.488c.415.366.677.902.677 1.5 0 .597-.262 1.133-.677 1.5a2 2 0 0 1-1.323 3.5h-4.516l1.888 4.795.003.007q.125.335.125.698a2 2 0 0 1-3.42 1.408l-.007-.007-.007-.008-6.287-6.893H12.25v-.001H7.749V7.75m4.501 4.986v7.026H8.749V8.75h3.501zm1 7.027h1.22l.15.163 6.426 7.047a1 1 0 0 0 1.644-1.053l-2.155-5.474-.27-.683h5.985a1 1 0 1 0 0-2H24v-1h2.25a1 1 0 1 0 0-2H24v-1h2.25a1 1 0 1 0 0-2H24v-1h.75a1 1 0 0 0 0-2h-7.5c-1.093 0-2.08.184-2.79.738-.683.531-1.205 1.48-1.21 3.237z" clip-rule="evenodd"/></svg>