<svg xmlns="http://www.w3.org/2000/svg" width="36" height="36" viewBox="0 0 36 36">
  <path fill="none" stroke="#000" d="M6,3.75 C4.7565,3.75 3.75,4.7565 3.75,6 L3.75,32.25 L8.25,32.25 L8.25,6 C8.25,4.7565 7.2435,3.75 6,3.75 Z M13.5,3.75 C12.2565,3.75 11.25,4.7565 11.25,6 L11.25,32.25 L15.75,32.25 L15.75,6 C15.75,4.7565 14.7435,3.75 13.5,3.75 Z M31.5,33 L21,4.5 M19.5,30 L24,31.5 M11.25,23.25 L15.75,23.25 M3.75,23.25 L8.25,23.25 M21,33 L31.5,4.5 M28.5,31.5 L33,30 M3.75,16.5 C3.75,15.2565 4.7565,14.25 6,14.25 C7.2435,14.25 8.25,15.2565 8.25,16.5 M11.25,16.5 C11.25,15.2565 12.2565,14.25 13.5,14.25 C14.7435,14.25 15.75,15.2565 15.75,16.5 M21.9843,7.1718 L21.0003,7.5003 L22.5003,12.0003 L23.6253,11.6253 M30.5157,7.1718 L31.4997,7.5003 L29.9997,12.0003 L28.8747,11.6253"/>
</svg>
