<svg class="color-immutable" xmlns="http://www.w3.org/2000/svg" width="59" height="20" fill="none" viewBox="0 0 59 20"><path fill="#E84E10" fill-rule="evenodd" d="M2 0a2 2 0 0 0-2 2v16a2 2 0 0 0 2 2h55a2 2 0 0 0 2-2V2a2 2 0 0 0-2-2z" clip-rule="evenodd"/><path fill="#000" d="M14.153 4.17v2.142H7.98v2.476h5.657v1.991H7.98v2.849h6.284v2.142H5.45V4.17zM25.311 4.17l-3.856 11.6h-2.88l-3.8-11.6h2.65l2.61 8.688 2.65-8.688zM25.504 7.844q.04-1.429.706-2.397 1.08-1.555 3.245-1.555 1.667 0 2.69.85 1.103.92 1.103 2.38 0 .872-.436 1.507-.429.626-1.167.849.936.214 1.476.952.547.738.547 1.786 0 1.72-1.269 2.816-1.174 1.016-2.968 1.016-1.944 0-3.086-1.119-1.134-1.12-1.135-3.023v-.15h2.23q0 1.07.508 1.658.507.579 1.436.579t1.428-.548q.46-.516.46-1.23 0-.856-.587-1.356-.483-.413-1.492-.413-.285 0-.563.032V8.772q.207.016.397.016 2 0 2-1.484 0-.651-.437-1.047-.436-.405-1.15-.405-.818 0-1.262.508-.444.507-.476 1.484zM41.835 4.17v2.063h-4.673l-.5 2.61q.841-.888 2.15-.888 1.285 0 2.238.69 1.413 1.039 1.412 3.158 0 2.079-1.507 3.293-1.175.951-2.81.952-1.84 0-2.959-.984-1.119-.992-1.182-2.674h2.277q.056.61.397 1.04.531.674 1.476.674.913 0 1.444-.659.516-.643.516-1.563 0-1-.54-1.595-.54-.603-1.436-.603-1.095 0-1.706.984l-2.07-.031 1.102-6.467z"/></svg>