<svg xmlns="http://www.w3.org/2000/svg" width="24" height="24" fill="none" viewBox="0 0 24 24"><path fill="#000" fill-rule="evenodd" d="M2 4h20v5h-.5c-1.424 0-2.5 1.076-2.5 2.5s1.076 2.5 2.5 2.5h.5v5H2V4m1 1v13h13v-.465h1V18h4v-3.033c-1.727-.233-3-1.661-3-3.467s1.273-3.234 3-3.467V5h-4v.464h-1V5zM16 7.32v-.928h1v.928zm0 1.857V8.25h1v.928zm0 1.858v-.93h1v.93zm0 1.857v-.929h1v.929zm0 1.857v-.929h1v.929zm0 1.857v-.929h1v.929zm-6.53-9.78L9 5.548l-.47 1.28L7.55 9.5H3.6l1.083.887 1.923 1.573-1.074 2.864-.544 1.452 1.29-.86L9 13.6l2.723 1.815 1.268.845-.521-1.432-1.075-2.957 1.91-1.477 1.16-.895H10.45zm-1.1 3.345L9 8.452l.63 1.72.12.328h1.785l-1.04.804-.29.223.125.344.68 1.867-1.733-1.154L9 12.399l-.277.185-1.71 1.14.655-1.749.126-.335-.277-.227L6.4 10.5H8.25z" clip-rule="evenodd"/></svg>