<?xml version="1.0" encoding="utf-8"?>
<!-- Generator: Adobe Illustrator 24.2.0, SVG Export Plug-In . SVG Version: 6.00 Build 0)  -->
<svg version="1.0" id="Ebene_1" xmlns="http://www.w3.org/2000/svg" xmlns:xlink="http://www.w3.org/1999/xlink" x="0px" y="0px"
	 viewBox="0 0 24 24" enable-background="new 0 0 24 24" xml:space="preserve">
<g id="SVG_x5F_24x24pt">
	<path id="backgroundBlue" fill="#2D327D" d="M0,22.5v-21C0,0.675,0.675,0,1.5,0h21C23.325,0,24,0.675,24,1.5v21
		c0,0.825-0.675,1.5-1.5,1.5h-21C0.675,24,0,23.325,0,22.5z"/>
	<g id="content_1_">
		<g>
			<path fill="#FFFFFF" d="M11.273,19.002v2H3.175c0-0.61,0.099-1.192,0.296-1.746c0.197-0.554,0.475-1.031,0.834-1.43
				c0.277-0.308,0.601-0.608,0.973-0.9c0.372-0.292,1.111-0.828,2.219-1.607c0.538-0.374,0.915-0.723,1.13-1.046
				s0.323-0.697,0.323-1.123c0-0.492-0.145-0.891-0.435-1.196c-0.29-0.305-0.67-0.458-1.142-0.458c-1.159,0-1.756,0.833-1.792,2.499
				H3.421c0-0.108,0-0.19,0-0.246c0-1.364,0.382-2.42,1.146-3.168c0.743-0.728,1.705-1.092,2.884-1.092
				c1.046,0,1.92,0.297,2.622,0.892c0.764,0.646,1.146,1.515,1.146,2.607c0,0.954-0.305,1.774-0.915,2.461
				c-0.2,0.226-0.387,0.406-0.561,0.542c-0.174,0.136-0.633,0.463-1.377,0.981c-0.708,0.492-1.214,0.869-1.519,1.13
				c-0.305,0.261-0.588,0.561-0.85,0.9H11.273z"/>
			<path fill="#FFFFFF" d="M18.505,9.758v11.243H16.26v-7.36h-0.8h-0.8h-0.777h-0.269v-1.63c0.549-0.015,0.996-0.072,1.342-0.169
				c0.346-0.097,0.663-0.256,0.95-0.477c0.415-0.318,0.695-0.854,0.838-1.607H18.505z"/>
		</g>
		<g id="Gleis">
			<path fill="#FFFFFF" d="M5.096,4.037v1.212H4.782L4.733,4.992C4.566,5.199,4.342,5.303,4.06,5.303
				c-0.344,0-0.615-0.127-0.814-0.381C3.082,4.709,2.999,4.447,2.999,4.135c0-0.354,0.108-0.643,0.323-0.869
				c0.202-0.213,0.463-0.32,0.783-0.32c0.295,0,0.536,0.095,0.721,0.286C4.965,3.376,5.044,3.545,5.065,3.74H4.589
				C4.565,3.619,4.51,3.524,4.424,3.457C4.339,3.389,4.23,3.355,4.099,3.355c-0.199,0-0.353,0.077-0.461,0.231
				C3.542,3.72,3.494,3.902,3.494,4.13c0,0.224,0.045,0.401,0.134,0.532C3.738,4.824,3.9,4.904,4.114,4.904
				c0.155,0,0.282-0.047,0.381-0.14c0.099-0.093,0.151-0.216,0.156-0.368h-0.5v-0.36H5.096z"/>
			<path fill="#FFFFFF" d="M5.903,3v2.249H5.457V3H5.903z"/>
			<path fill="#FFFFFF" d="M7.775,4.726C7.751,4.82,7.709,4.909,7.647,4.992C7.5,5.194,7.287,5.295,7.01,5.295
				c-0.25,0-0.451-0.079-0.601-0.237C6.335,4.981,6.279,4.888,6.24,4.78C6.198,4.664,6.177,4.543,6.177,4.417
				c0-0.244,0.07-0.449,0.211-0.615c0.157-0.186,0.36-0.278,0.609-0.278c0.201,0,0.372,0.062,0.514,0.186
				c0.102,0.089,0.175,0.199,0.221,0.33s0.069,0.295,0.069,0.493h-1.17c0.004,0.082,0.017,0.15,0.038,0.205
				c0.06,0.147,0.175,0.22,0.345,0.22c0.083,0,0.151-0.018,0.203-0.055c0.052-0.036,0.095-0.095,0.129-0.176H7.775z M7.346,4.232
				C7.338,4.151,7.319,4.084,7.29,4.031C7.262,3.978,7.221,3.937,7.168,3.906C7.115,3.875,7.058,3.86,6.995,3.86
				c-0.099,0-0.181,0.033-0.246,0.1C6.684,4.026,6.646,4.117,6.634,4.232H7.346z"/>
			<path fill="#FFFFFF" d="M8.524,3v0.401H8.078V3H8.524z M8.524,3.572v1.677H8.078V3.572H8.524z"/>
			<path fill="#FFFFFF" d="M10.248,4.06H9.83C9.822,4.002,9.806,3.959,9.782,3.929C9.736,3.87,9.65,3.84,9.525,3.84
				c-0.079,0-0.14,0.014-0.183,0.043C9.299,3.912,9.278,3.952,9.278,4.004c0,0.055,0.024,0.096,0.072,0.122s0.157,0.056,0.327,0.091
				c0.216,0.044,0.372,0.099,0.468,0.165c0.113,0.077,0.169,0.194,0.169,0.351c0,0.179-0.07,0.318-0.209,0.417
				C9.966,5.246,9.784,5.295,9.557,5.295c-0.281,0-0.487-0.069-0.618-0.208C8.851,4.993,8.802,4.864,8.792,4.701h0.428
				c0.008,0.076,0.028,0.133,0.058,0.172c0.057,0.07,0.152,0.105,0.285,0.105c0.092,0,0.166-0.019,0.22-0.056
				C9.836,4.884,9.864,4.834,9.864,4.77c0-0.057-0.023-0.1-0.07-0.128c-0.047-0.028-0.145-0.06-0.296-0.095
				c-0.146-0.034-0.249-0.06-0.309-0.079C9.128,4.449,9.074,4.426,9.025,4.4C8.963,4.364,8.914,4.314,8.879,4.249
				C8.844,4.184,8.827,4.113,8.827,4.034c0-0.174,0.072-0.307,0.217-0.398C9.162,3.56,9.326,3.523,9.536,3.523
				c0.278,0,0.477,0.071,0.598,0.212C10.2,3.812,10.238,3.92,10.248,4.06z"/>
		</g>
	</g>
</g>
</svg>
