<svg xmlns="http://www.w3.org/2000/svg" width="48" height="48" version="1.1" viewBox="0 0 48 48">
  <path fill="none" fill-rule="evenodd" stroke="#000" stroke-width="1" d="M18.6772,22.4844 L18.2702,23.1844 L18.2752,23.3624 L19.0632,23.1204 L17.3362,20.2754 L15.7592,20.1874 L14.0512,20.8874 L13.1312,21.9834 L11.9522,22.0854 L10.9852,20.6554 L12.0722,18.9934 L13.3852,19.3174 L13.8552,17.5104 L17.0862,16.4694 L18.3982,15.4264 L20.7872,15.9994 L22.2132,14.5794 L24.5552,13.0054 L26.2372,11.1204 L24.2382,10.5824 L23.1082,9.7074 L22.6712,11.0524 L19.7432,13.0724 L18.6112,12.3984 L19.4742,9.7074 L17.5882,10.1234 L17.5492,9.9004 L19.1722,7.7894 L22.2332,6.1404 L27.0382,9.0704 L29.6622,8.4644 L28.8282,7.1834 L29.0522,4.4864 M6.7949,27.6387 L8.0939,26.0057 L10.6089,25.2167 L11.1339,23.7277 L13.0179,24.7797 L16.6149,25.0777 L15.8469,26.7057 L18.9129,28.1487 L19.9639,27.9327 L20.3579,27.1447 L22.8549,27.8887 L23.9999,27.9997 M7.707,9.7236 L11.837,9.5046 L14.562,7.7216 L16.978,3.2356 M40,40.5 L43,46 M27,46 L30,40.5 M43,42.5 L27,42.5 M44,44.5 L26,44.5 M38,27.5 L32,27.5 M43.2979,33.6406 L26.4159,33.6406 M40,20.5 L30,20.5 M43.5,40.5 L26.5,40.5 L26.5,27.77 C26.5,25.964 27.964,24.5 29.77,24.5 L40.23,24.5 C42.036,24.5 43.5,25.964 43.5,27.77 L43.5,40.5 Z M32.5,20.5 L35,24.5 M37.5,20.5 L35,24.5 M39.5,37 C39.5,36.724 39.276,36.5 39,36.5 C38.724,36.5 38.5,36.724 38.5,37 C38.5,37.276 38.724,37.5 39,37.5 C39.276,37.5 39.5,37.276 39.5,37 Z M31.5,37 C31.5,36.724 31.276,36.5 31,36.5 C30.724,36.5 30.5,36.724 30.5,37 C30.5,37.276 30.724,37.5 31,37.5 C31.276,37.5 31.5,37.276 31.5,37 Z M17.3359,20.2754 L19.0509,19.8924 L20.3169,21.5904 L20.8339,23.8834 L20.9649,23.8794 L21.8489,22.1374 L21.9709,22.1294 L23.0649,24.2774 L24.2379,24.2774 L24.9999,25.0004 M14.1587,15.5615 L16.7157,13.5425 L15.4367,12.5335 L13.4447,13.3875 L14.1237,14.1655 L13.5387,15.5755 L14.1587,15.5615 Z M11.6016,14.9561 L11.1646,14.3841 L11.8366,13.7451 L12.3426,14.3511 L11.6016,14.9561 Z M24.1484,36.2949 C23.2854,36.4299 22.4004,36.4999 21.5004,36.4999 C12.1114,36.4999 4.5004,28.8889 4.5004,19.4999 C4.5004,10.1109 12.1114,2.4999 21.5004,2.4999 C30.4014,2.4999 37.7064,9.3419 38.4394,18.0539"/>
</svg>
