<svg xmlns="http://www.w3.org/2000/svg" width="24" height="24" version="1.1" viewBox="0 0 24 24">
  <path fill="none" fill-rule="evenodd" stroke="#000" stroke-width="1" d="M12,8 C12,9.941 10.675,11.5 9,11.5 C7.325,11.5 6,9.941 6,8 C6,6.059 7.325,4.5 9,4.5 C10.675,4.5 12,6.059 12,8 Z M5.5,9.5 L4,9.5 C3.758,9.5 3.5,9.275 3.5,9 L3.5,7.006 C3.5,6.733 3.753,6.5 4,6.5 L5.5,6.5 L5.5,9.5 Z M9,9.5 L14,9.5 C14.293,9.5 14.5,9.321 14.5,9 L14.5,7 C14.5,6.718 14.345,6.5 14,6.5 L12.5,6.5 L12.5,9.5 M4.4868,6.438 C5.5748,1.106 12.6118,1.334 13.4208,6.459 M7.1025,10.7207 C4.2555,11.9727 2.4995,15.0317 2.4995,18.4997 L10.9995,18.4997 M12.8242,12 C12.2712,11.494 11.6372,11.053 10.8972,10.721 M12.5,19.5 L21.5,19.5 L21.5,13.5 L12.5,13.5 L12.5,19.5 Z M17.5,19.5 L17.5,21.5 M16.5,21.5 L16.5,19.5 M14,21.5 L20,21.5"/>
</svg>
