<svg xmlns="http://www.w3.org/2000/svg" width="36" height="36" version="1.1" viewBox="0 0 36 36">
  <path fill="none" fill-rule="evenodd" stroke="#1D1D1B" stroke-width="1" d="M20.25,18.0003 C20.25,16.7568 19.242,15.7503 18,15.7503 C16.758,15.7503 15.75,16.7568 15.75,18.0003 C15.75,19.2423 16.758,20.2503 18,20.2503 C19.242,20.2503 20.25,19.2423 20.25,18.0003 Z M18,12.7503 C13.995,12.7503 10.488,14.8488 8.4945,18.0003 C10.488,21.1518 13.995,23.2503 18,23.2503 M18,23.24955 C22.005,23.24955 25.512,21.15255 27.5055,17.99955 C25.512,14.84805 22.005,12.74955 18,12.74955 M3.75,28.49955 L3.75,23.24955 L9,23.24955 M4.5,23.24955 C6.5925,28.51905 11.985,32.24955 18,32.24955 C25.8705,32.24955 32.25,25.87005 32.25,17.99955 C32.25,10.12905 25.8705,3.74955 18,3.74955 C10.1295,3.74955 3.75,10.12905 3.75,17.99955"/>
</svg>
