<?xml version="1.0" encoding="utf-8"?>
<!-- Generator: Adobe Illustrator 24.2.0, SVG Export Plug-In . SVG Version: 6.00 Build 0)  -->
<svg version="1.0" id="_x3C_Ebene_x3E_" xmlns="http://www.w3.org/2000/svg" xmlns:xlink="http://www.w3.org/1999/xlink" x="0px"
	 y="0px" viewBox="0 0 24 24" enable-background="new 0 0 24 24" xml:space="preserve">
<g id="SVG_x5F_24x24pt">
	<path id="backgroundBlue" fill="#2D327D" d="M0,22.5v-21C0,0.675,0.675,0,1.5,0h21C23.325,0,24,0.675,24,1.5v21
		c0,0.825-0.675,1.5-1.5,1.5h-21C0.675,24,0,23.325,0,22.5z"/>
	<g id="content">
		<g>
			<path fill="#FFFFFF" d="M14.55,9.417V7.071c-0.555,0.101-0.977,0.587-0.977,1.173C13.573,8.829,13.995,9.316,14.55,9.417z"/>
		</g>
		<path fill="#FFFFFF" d="M7.39,16.415c-0.199,0.201-0.466,0.311-0.751,0.311H3.237c-0.081,0-0.16-0.01-0.237-0.028V21h6v-6.195
			L7.39,16.415z"/>
		<polygon fill="#FFFFFF" points="3.658,3 3,3 3,3.658 		"/>
		<path fill="#FFFFFF" d="M5.186,4.125H6.75c0.207,0,0.375,0.168,0.375,0.375v1.564L9,7.939V3H4.061L5.186,4.125z"/>
		<path fill="#FFFFFF" d="M7.435,11.218c0-0.236,0.092-0.457,0.258-0.621l0.922-0.922l-1.49-1.49v4.94
			c0,0.207-0.168,0.375-0.375,0.375H4.5c-0.207,0-0.375-0.168-0.375-0.375v-7.94L3,4.06V14.63c0.076-0.017,0.155-0.028,0.237-0.028
			h2.875l2.601-2.601c-0.122,0.062-0.258,0.095-0.399,0.095C7.829,12.096,7.435,11.702,7.435,11.218z"/>
		<g>
			<path fill="#FFFFFF" d="M10.877,9.816h0.656l-0.328,0.328l0.73,0.73l0.785,0.785l0.312-0.312v0.624l1.153,1.153l0.365,0.365
				v-0.886h-0.629V10.46c0-0.844-0.685-1.531-1.532-1.531H10.25c-0.075,0-0.149,0.015-0.219,0.041L10.877,9.816z"/>
		</g>
		<g>
			<path fill="#FFFFFF" d="M11.019,13.362l0.641-0.641l-1.059-1.059l-0.457-0.457l-3.847,3.847H3.237
				c-0.338,0-0.612,0.274-0.612,0.613c0,0.337,0.273,0.611,0.612,0.611h3.402c0.162,0,0.317-0.063,0.432-0.179l2.432-2.432
				l2.305,2.304v3.367c0,0.338,0.275,0.613,0.613,0.613c0.338,0,0.612-0.275,0.612-0.613v-3.707c0-0.163-0.063-0.318-0.179-0.434
				L11.019,13.362z"/>
		</g>
		<g>
			<path fill="#FFFFFF" d="M8.314,11.646c0.114,0,0.222-0.045,0.304-0.125l0.921-0.922L8.933,9.993l-0.922,0.922
				c-0.08,0.08-0.126,0.188-0.126,0.303C7.885,11.453,8.077,11.646,8.314,11.646z"/>
		</g>
		<polygon fill="#FFFFFF" points="15,16.06 15,21 19.94,21 		"/>
		<polygon fill="#FFFFFF" points="20.341,21 21,21 21,20.341 		"/>
		<path fill="#FFFFFF" d="M21,19.939V3h-6v10.939L21,19.939z M16.875,4.5c0-0.207,0.168-0.375,0.375-0.375h2.25
			c0.207,0,0.375,0.168,0.375,0.375v8.625c0,0.207-0.168,0.375-0.375,0.375h-2.25c-0.207,0-0.375-0.168-0.375-0.375V4.5z"/>
		<polygon fill="#EB0000" points="14.185,13.125 11.936,10.875 11.936,10.875 3.859,2.798 2.799,3.859 10.601,11.662 12.064,13.125 
			12.064,13.125 20.14,21.201 21.201,20.14 14.185,13.125 14.185,13.125 		"/>
	</g>
</g>
</svg>
