<svg xmlns="http://www.w3.org/2000/svg" width="36" height="36" fill="none" viewBox="0 0 36 36"><path fill="#000" fill-rule="evenodd" d="M3.25 3.25h29.5v2.957l-.146.147-1.354 1.353V32.75H4.75V7.707L3.396 6.354l-.146-.147V3.25m1 1v1.543l1.354 1.353.146.147V31.75h3.5v-18h17.498l.002.498.067 17.502h3.433V7.293l.147-.147 1.353-1.353V4.25zm21.567 27.5-.065-17H10.25v17h3.3a21 21 0 0 1-.275-.94c-.263-.981-.553-2.328-.65-3.777-.19-2.863.367-6.338 3.651-7.98l.702-.351.022.784.006.228c.03 1.13.068 2.586.247 3.91.096.707.229 1.357.413 1.889.189.542.412.905.65 1.1.12.097.282.134.61-.045.335-.185.714-.54 1.085-.972.364-.424.691-.885.93-1.245.117-.179.212-.33.277-.437l.075-.123.018-.031.005-.008v-.001l.542-.941.363 1.023-.471.167.471-.167v.002l.002.004.005.014.018.053q.024.068.065.196a19.486 19.486 0 0 1 .707 3.036c.132.903.202 1.904.099 2.849-.067.61-.207 1.217-.463 1.763zm-4.313 0h-6.901l-.028-.083a20 20 0 0 1-.334-1.117c-.253-.941-.526-2.22-.617-3.583-.167-2.506.285-5.126 2.4-6.604.03 1.025.084 2.253.238 3.395.1.74.244 1.463.46 2.083.212.61.512 1.179.961 1.546.569.465 1.219.334 1.724.057.495-.272.968-.738 1.363-1.196.309-.36.589-.738.816-1.067.151.56.325 1.3.443 2.102.125.856.184 1.765.094 2.595-.08.742-.277 1.384-.619 1.872" clip-rule="evenodd"/></svg>