<svg xmlns="http://www.w3.org/2000/svg" width="36" height="36" fill="none" viewBox="0 0 36 36"><path fill="#000" fill-rule="evenodd" d="M8.25 3.25h-.5v29.5h22V3.25H8.25m.5 28.5V4.25h20v27.5zm3.25-8h13.5v-1H12zm13.5 3H12v-1h13.5zm-13.321-8.732v-7.496H10.5v7.496zm1.479-7.496h3.105q.785 0 1.234.095.45.095.814.336 1.004.656 1.004 1.979 0 1.174-.832 1.845a2.2 2.2 0 0 1-.804.413q-.453.126-1.116.126h-1.726v2.702h-1.68zm1.679 1.384v2.123h1.5q.669 0 .963-.23.363-.288.363-.847 0-.564-.421-.84-.305-.206-.995-.206zm9.105 6.112L27 10.522h-1.743L23.5 16.136l-1.73-5.614H20.01l2.52 7.496z" clip-rule="evenodd"/></svg>