<svg class="color-immutable" xmlns="http://www.w3.org/2000/svg" width="59" height="20" fill="none" viewBox="0 0 59 20"><path fill="#EB0000" fill-rule="evenodd" d="M2 0a2 2 0 0 0-2 2v16a2 2 0 0 0 2 2h55a2 2 0 0 0 2-2V2a2 2 0 0 0-2-2z" clip-rule="evenodd"/><path fill="#fff" fill-rule="evenodd" d="M42.244 7.122h2.191a3.9 3.9 0 0 0-.749-1.874q-1.017-1.29-2.932-1.29a3.75 3.75 0 0 0-3.209 1.622q-1.214 1.677-1.214 4.635 0 2.769 1.135 4.315t3.177 1.547a3.84 3.84 0 0 0 2.728-1.068q1.26-1.187 1.261-3.14a4.05 4.05 0 0 0-.938-2.737 3.26 3.26 0 0 0-2.61-1.155 3 3 0 0 0-1.415.308c-.44.25-.819.596-1.107 1.013.05-.657.168-1.307.355-1.938q.536-1.575 1.813-1.574 1.206 0 1.514 1.336m-3.028 3.347a1.53 1.53 0 0 1 1.317-.697 1.64 1.64 0 0 1 1.411.736c.291.425.44.932.426 1.448a2.43 2.43 0 0 1-.473 1.495 1.59 1.59 0 0 1-1.333.672 1.55 1.55 0 0 1-1.34-.704 2.5 2.5 0 0 1-.45-1.48 2.46 2.46 0 0 1 .442-1.47" clip-rule="evenodd"/><path fill="#fff" d="M9.22 4.2h4.057L8.259 15.8H4.186zM15.948 4.2h14.395l-1.49 3.445h-10.28l-2.042 4.71h10.285l-1.49 3.445H10.93z"/></svg>