<svg xmlns="http://www.w3.org/2000/svg" width="48" height="48" fill="none" viewBox="0 0 48 48"><path fill="#000" fill-rule="evenodd" d="M19.688 17.77c2.274-4.45 6.74-5.558 10.325-4.263 1.86.672 3.49 1.992 4.455 3.826.89 1.693 1.195 3.795.625 6.18 1.558.106 2.787.814 3.625 1.858.944 1.176 1.372 2.75 1.266 4.312-.107 1.565-.754 3.149-1.997 4.342-1.25 1.2-3.069 1.975-5.464 1.975h-19.24c-2.425 0-4.223-.775-5.43-1.986-1.201-1.206-1.778-2.803-1.847-4.377-.068-1.572.366-3.157 1.23-4.36.775-1.078 1.902-1.856 3.306-2.016-.246-5.19 5.29-8.016 9.146-5.49m9.985-3.323c-3.279-1.184-7.39-.109-9.337 4.284l-.265.6-.508-.415c-3.28-2.675-8.568-.117-7.983 4.754l.067.56h-.563c-1.285 0-2.32.636-3.035 1.63-.72 1.003-1.103 2.362-1.044 3.733.06 1.367.559 2.713 1.556 3.715.992.995 2.52 1.692 4.722 1.692h19.24c2.168 0 3.73-.696 4.771-1.695 1.047-1.005 1.6-2.347 1.692-3.69.092-1.346-.281-2.664-1.047-3.618-.756-.941-1.914-1.556-3.473-1.494l-.698.027.2-.67c.721-2.418.451-4.472-.385-6.061-.838-1.595-2.265-2.758-3.91-3.352M15 32a1 1 0 1 1-.001 2 1 1 0 0 1 0-2m6 0a1 1 0 1 1-.001 2 1 1 0 0 1 0-2m10 0a1 1 0 1 1-.001 2 1 1 0 0 1 0-2m-21-1a1 1 0 1 1-.001 2 1 1 0 0 1 0-2m16 0a1 1 0 1 1-.001 2 1 1 0 0 1 0-2m-8-1a1 1 0 1 1-.001 2 1 1 0 0 1 0-2m-5-1a1 1 0 1 1-.001 2 1 1 0 0 1 0-2m9-1a1 1 0 1 1-.001 2 1 1 0 0 1 0-2m-6-1a1 1 0 1 1-.001 2 1 1 0 0 1 0-2m18 0a1 1 0 1 1-.001 2 1 1 0 0 1 0-2m-24-1a1 1 0 1 1-.001 2 1 1 0 0 1 0-2m17-1a1 1 0 1 1-.001 2 1 1 0 0 1 0-2m-13-1a1 1 0 1 1-.001 2 1 1 0 0 1 0-2m5 0a1 1 0 1 1-.001 2 1 1 0 0 1 0-2m3-3a1 1 0 1 1-.001 2 1 1 0 0 1 0-2m-7-1a1 1 0 1 1-.001 2 1 1 0 0 1 0-2m13-1a1 1 0 1 1-.001 2 1 1 0 0 1 0-2" clip-rule="evenodd"/></svg>