<svg xmlns="http://www.w3.org/2000/svg" width="36" height="36" fill="none" viewBox="0 0 36 36"><path fill="#000" fill-rule="evenodd" d="M23.75 8.203c0-2.205 1.795-4 4-4s4 1.795 4 4c0 1.208-.562 2.35-1.505 3.107l-.283.227.128.34c.105.277.16.572.16.873 0 1.378-1.122 2.5-2.5 2.5a2.504 2.504 0 0 1-2.5-2.5c0-.3.055-.595.16-.874l.128-.34-.283-.226a4 4 0 0 1-1.505-3.107m4-5c-2.758 0-5 2.243-5 5 0 1.402.601 2.725 1.615 3.66a3.504 3.504 0 0 0 3.385 4.387 3.504 3.504 0 0 0 3.385-4.387 4.99 4.99 0 0 0 1.615-3.66c0-2.757-2.242-5-5-5M3.25 18.25h29.5v5.5H3.25v-5.5m1 1v3.5h6.5v-3.5zm9.5 3.5h-2v-3.5h2zm1 0h14v-3.5h-14zm17 0h-2v-3.5h2z" clip-rule="evenodd"/></svg>