<svg width="36" height="36" viewBox="0 0 36 36" fill="none" xmlns="http://www.w3.org/2000/svg"><path fill-rule="evenodd" clip-rule="evenodd" d="M25.25 6.703c0-2.205 1.795-4 4-4s4 1.795 4 4c0 1.208-.562 2.35-1.505 3.107l-.283.227.128.34c.105.277.16.572.16.873 0 1.378-1.122 2.5-2.5 2.5a2.504 2.504 0 0 1-2.5-2.5c0-.3.055-.595.16-.874l.128-.34-.283-.226a3.995 3.995 0 0 1-1.505-3.107Zm4-5c-2.758 0-5 2.243-5 5 0 1.402.601 2.725 1.615 3.66a3.504 3.504 0 0 0 3.385 4.387 3.504 3.504 0 0 0 3.385-4.387 4.988 4.988 0 0 0 1.615-3.66c0-2.757-2.242-5-5-5Zm-26 15.047h29.875v5.5H3.25v-5.5Zm1 1v3.5h6.5v-3.5h-6.5Zm9.5 3.5h-2v-3.5h2v3.5Zm1 0h13.625v-3.5H14.75v3.5Zm17.375 0h-2.75v-3.5h2.75v3.5Z" fill="#000"/></svg>