<svg xmlns="http://www.w3.org/2000/svg" width="24" height="24" fill="none" viewBox="0 0 24 24"><path fill="#000" fill-rule="evenodd" d="M21.003 6H3V5h18.002zm0 13H3v-1h18.002zM6.958 11.162l3.136-3.164H7.883l-3.136 3.31v-3.31H3v8h1.746v-2.582l1.007-1.007 2.43 3.59h2.205zm2.39.942h1.541v-1.541h.884v1.541h1.547v.884h-1.547v1.542h-.884v-1.542H9.347zm6.344-.532v-2.2h1.74q.767 0 1.122.263.357.262.356.83 0 .588-.416.877-.329.23-1.133.23zm2.13-3.574h-3.876v8h1.746v-3.146h1.57q.838 0 1.185.326.348.325.414 1.173.066.953.106 1.215.042.264.134.433h1.822l-.076-.093q-.158-.203-.235-1.034-.104-1.134-.17-1.45a1.7 1.7 0 0 0-.257-.608 1.35 1.35 0 0 0-.832-.591q.601-.224.94-.744.335-.52.336-1.221 0-.618-.269-1.111a2 2 0 0 0-.777-.788q-.613-.36-1.762-.361" clip-rule="evenodd"/></svg>