<svg class="color-immutable" xmlns="http://www.w3.org/2000/svg" width="59" height="20" fill="none" viewBox="0 0 59 20"><path fill="#EB0000" fill-rule="evenodd" d="M2 0a2 2 0 0 0-2 2v16a2 2 0 0 0 2 2h55a2 2 0 0 0 2-2V2a2 2 0 0 0-2-2z" clip-rule="evenodd"/><path fill="#fff" d="M9.22 4.2h4.056L8.258 15.8H4.185zM25.98 12.366a.93.93 0 0 0 .847-.553L30.119 4.2H15.984l-5.018 11.6h4.038l3.8-8.69h5.993l-1.201 2.775-5.226-.019 4.217 5.934h4.597l-3.124-3.434z"/><path fill="#fff" fill-rule="evenodd" d="M41.218 11.228V6.925l-2.974 4.303zm3.663-.024v1.954h-1.456V15.8h-2.254v-2.642h-4.825v-2.167l4.944-6.756h2.135v6.97zM49.587 5.912q-1.14 0-1.55 1.313-.325 1.045-.325 2.927 0 1.662.333 2.666.427 1.305 1.582 1.305.957 0 1.423-1.012.468-1.013.467-3.094 0-1.77-.332-2.792-.428-1.313-1.598-1.313m.087-1.953q1.32 0 2.326.806.996.807 1.447 2.484.34 1.282.34 2.785 0 2.49-.886 4.097-.521.933-1.364 1.44a3.6 3.6 0 0 1-1.879.506q-1.415 0-2.42-.854-1.788-1.52-1.788-5.19 0-2.61.933-4.192a3.76 3.76 0 0 1 1.389-1.392 3.77 3.77 0 0 1 1.902-.49" clip-rule="evenodd"/></svg>