<svg xmlns="http://www.w3.org/2000/svg" width="36" height="36" version="1.1" viewBox="0 0 36 36">
  <path fill="none" fill-rule="evenodd" stroke="#000" stroke-width="1" d="M10.5,30.7503 L25.5,30.7503 M17.25,30.7503 L17.25,24.7503 M18.75,24.7503 L18.75,30.7503 M15.75,21.7503 L7.5,21.7503 M20.25,19.15245 L24.375,12.00795 M26.25,21.7503 L30,21.7503 M25.24515,18.0003 L28.49265,16.1253 M18.75,14.2503 L18.75,10.5003 M15,15.25515 L13.125,12.00765 M12.25485,18.0003 L9.00735,16.1253 M25.626,24.74955 C26.0235,23.83155 26.25,22.82055 26.25,21.74955 C26.25,17.58555 22.914,14.24955 18.75,14.24955 C14.586,14.24955 11.25,17.58555 11.25,21.74955 C11.25,22.82055 11.4765,23.83155 11.8755,24.74955 M15.75,21.7503 C15.75,20.0673 17.067,18.7503 18.75,18.7503 C20.433,18.7503 21.75,20.0673 21.75,21.7503 C21.75,23.4333 20.433,24.7503 18.75,24.7503 C17.067,24.7503 15.75,23.4333 15.75,21.7503 Z M3.75,24.75 L32.25,24.75 L32.25,8.25 L3.75,8.25 L3.75,24.75 Z"/>
</svg>
