<svg xmlns="http://www.w3.org/2000/svg" width="36" height="36" fill="none" viewBox="0 0 36 36"><path fill="#000" fill-rule="evenodd" d="M10.25 10.5a1.75 1.75 0 1 1 3.5 0 1.75 1.75 0 0 1-3.5 0M12 7.75a2.75 2.75 0 1 0 0 5.5 2.75 2.75 0 0 0 0-5.5m-5.72 5.17 6 16.5.12.33H24v-1H13.1L7.22 12.58zm7.685 2.33h-.015c-1.334.01-2.233 1.328-1.791 2.572v.004l3.12 8.595.12.329h9.186c.365 0 .711.206.882.538l2.575 5.912.916-.4-2.58-5.925-.005-.012-.006-.012a2 2 0 0 0-1.782-1.101h-1.168l-5.75-4.312-1.84-4.889v-.003a2.01 2.01 0 0 0-1.862-1.296m-.008 1a.92.92 0 0 0-.856 1.236v.002l3 8.262h5.649l-4.8-3.6-.117-.087-.051-.137-1.89-5.023a1.01 1.01 0 0 0-.934-.653" clip-rule="evenodd"/></svg>