<svg xmlns="http://www.w3.org/2000/svg" width="48" height="48" fill="none" viewBox="0 0 48 48"><path fill="#000" fill-rule="evenodd" d="M11.5 3h-.732l.266.682 9 23 .046.116A10 10 0 0 0 14 36c0 5.523 4.477 10 10 10s10-4.477 10-10c0-4.131-2.505-7.678-6.08-9.202l.046-.116 9-23L37.233 3h-8.074l-.124.318L24 16.183 18.966 3.318 18.84 3h-7.34M24 27a9 9 0 1 0 0 18 9 9 0 0 0 0-18M18.16 4l5.304 13.556-1.213 3.1L15.733 4zm-3.5 0 7.054 18.028-1.213 3.1L12.233 4zm9 22h-2.426l1.483-3.79 1.75-4.472L29.84 4h2.427zm1.074 0L33.34 4h2.427l-8.61 22zM17 36a7 7 0 1 1 14 0 7 7 0 0 1-14 0m7-8a8 8 0 1 0 0 16 8 8 0 0 0 0-16m0 3a5 5 0 0 0-5 5h-1a6 6 0 0 1 6-6z" clip-rule="evenodd"/></svg>