<svg xmlns="http://www.w3.org/2000/svg" width="36" height="36" fill="none" viewBox="0 0 36 36"><path fill="#000" fill-rule="evenodd" d="m25.804 7.699-5.609-2.805.447-.894 6.407 3.203.797.399-.756.472-4.927 3.08h5.463v1H11.31v6.407H4.903v7.008h14.651v1H9.672q.035.145.035.3a1.3 1.3 0 1 1-2.566-.3H3.903v-1.601H2v-1h1.903V17.56h6.406v-5.407H6.805v-1h13.471zm-3.783 10.862h.5v-4.204h-9.009v4.204h8.508m-.5-3.204v2.204h-7.009v-2.204zm5.761.9-.457-1.028-.456 1.028-6.407 14.414-.313.703h14.353l-.313-.703zm-.457 1.434 5.637 12.683H21.188zm-.5 10.78v-1.6h1v1.6zm1-3.203v-3.203h-1v3.203zM8.105 26.87a.3.3 0 1 1 .602 0 .3.3 0 0 1-.601 0" clip-rule="evenodd"/></svg>