<svg xmlns="http://www.w3.org/2000/svg" width="24" height="24" version="1.1" viewBox="0 0 24 24">
  <g fill="none" fill-rule="evenodd" stroke="none" stroke-width="1">
    <path stroke="#000" d="M5.5,21.5 L18.5,21.5 L18.5,2.5 L5.5,2.5 L5.5,21.5 Z M8,15.5 L16,15.5 M8,17.5 L16,17.5"/>
    <path fill="#000" d="M10.75,9.0444 C10.664,9.0934 10.569,9.1244 10.472,9.1374 C10.297,9.1614 10.121,9.1714 9.945,9.1684 L8.923,9.1684 L8.923,7.8434 L10.113,7.8434 C10.277,7.8394 10.44,7.8544 10.601,7.8884 C10.694,7.9114 10.781,7.9574 10.854,8.0214 C10.975,8.1464 11.038,8.3164 11.026,8.4894 C11.049,8.7124 10.941,8.9284 10.75,9.0444 L10.75,9.0444 Z M12.035,11.6964 C12.013,11.6714 11.937,11.5514 11.89,11.0344 L11.89,11.0354 C11.846,10.5614 11.817,10.3064 11.798,10.2064 C11.769,10.0764 11.715,9.9544 11.64,9.8454 C11.57,9.7374 11.478,9.6464 11.37,9.5784 C11.507,9.4914 11.626,9.3784 11.719,9.2464 C11.879,9.0064 11.96,8.7234 11.952,8.4354 C11.955,8.1924 11.899,7.9524 11.788,7.7364 C11.677,7.5274 11.512,7.3534 11.311,7.2314 C11.002,7.0644 10.653,6.9854 10.303,7.0024 L8,7.0024 L8,12.0134 L8.923,12.0134 L8.923,9.9714 L10.014,9.9714 C10.246,9.9494 10.479,9.9914 10.689,10.0914 C10.855,10.1994 10.956,10.4944 10.979,10.9434 C10.997,11.3224 11.013,11.5374 11.028,11.6364 C11.043,11.7484 11.083,11.8554 11.146,11.9494 L11.19,12.0134 L12.312,12.0134 L12.035,11.6964 Z M15.5352,7.002 L14.2772,10.756 L13.0252,7.002 L12.0142,7.002 L13.7682,11.914 L13.8052,12.014 L14.7242,12.014 L16.5172,7.002 L15.5352,7.002 Z"/>
  </g>
</svg>
