<svg class="color-immutable" xmlns="http://www.w3.org/2000/svg" width="59" height="20" fill="none" viewBox="0 0 59 20"><g clip-path="url(#a)"><path stroke="#fff" d="M2 .5h55A1.5 1.5 0 0 1 58.5 2v16a1.5 1.5 0 0 1-1.5 1.5H2A1.5 1.5 0 0 1 .5 18V2A1.5 1.5 0 0 1 2 .5Z"/><path fill="#fff" d="M4.069 4.224h5.704q1.692 0 2.594.532.749.434 1.144 1.16.395.725.395 1.635 0 1.032-.5 1.797-.491.765-1.377 1.096.78.192 1.224.87.282.426.379.894.097.467.25 2.135.112 1.224.346 1.523l.113.137h-2.683a2 2 0 0 1-.201-.637q-.058-.387-.154-1.788-.096-1.25-.612-1.724-.507-.484-1.74-.484H6.639v4.633h-2.57zm2.57 2.022v3.239h2.457q1.184 0 1.668-.339.612-.426.612-1.289 0-.837-.524-1.224t-1.651-.387zM23.155 4.224v2.095h-4.746l-.507 2.65q.855-.902 2.183-.902 1.306 0 2.272.7 1.434 1.056 1.434 3.207 0 2.111-1.53 3.344-1.192.966-2.853.967-1.869 0-3.005-1-1.136-1.006-1.2-2.714h2.312q.057.62.403 1.055.54.685 1.499.685.926 0 1.466-.669.524-.652.524-1.587 0-1.015-.548-1.62-.549-.612-1.459-.612-1.11 0-1.732 1l-2.103-.033 1.12-6.566zM24.645 13.046h2.224q.274 1.37 1.587 1.37.741 0 1.2-.5.468-.507.718-1.571.16-.676.233-1.539-.54.758-1.112 1.08-.564.315-1.377.314-1.297 0-2.256-.757a3.6 3.6 0 0 1-1.047-1.378 4.5 4.5 0 0 1-.371-1.837q0-1.99 1.361-3.223 1.17-1.063 2.804-1.063 1.007 0 1.861.451.855.45 1.434 1.281 1.023 1.474 1.024 4.141 0 2.466-.903 4.206-1.176 2.264-3.56 2.264-1.588 0-2.627-.879-1.031-.878-1.193-2.36m3.916-7.114q-.758 0-1.281.62-.524.629-.524 1.595 0 .782.379 1.386.515.83 1.45.83.846 0 1.354-.677.474-.636.475-1.514 0-.927-.492-1.571a1.64 1.64 0 0 0-1.361-.67"/></g><defs><clipPath id="a"><path fill="#fff" d="M0 0h59v20H0z"/></clipPath></defs></svg>