<svg class="color-immutable" xmlns="http://www.w3.org/2000/svg" width="59" height="20" fill="none" viewBox="0 0 59 20"><path fill="#EB0000" fill-rule="evenodd" d="M2 0a2 2 0 0 0-2 2v16a2 2 0 0 0 2 2h55a2 2 0 0 0 2-2V2a2 2 0 0 0-2-2z" clip-rule="evenodd"/><path fill="#fff" d="M9.251 4.2h4.07L8.286 15.8H4.2zM26.069 12.366c.367 0 .7-.217.849-.553L30.22 4.2H16.038l-5.035 11.6h4.052l3.812-8.69h6.014l-1.205 2.775-5.244-.019 4.231 5.934h4.613l-3.134-3.434zM42.445 4.235v11.564h-2.31v-7.57h-2.7199999999999998V6.552q.846-.024 1.38-.174t.977-.49q.64-.49.862-1.654zM47.516 9.59q-.806-.277-1.238-.91t-.431-1.535q0-1.502 1.233-2.396 1.092-.792 2.595-.791 1.709 0 2.792.941 1.028.885 1.028 2.191 0 .91-.435 1.558-.435.649-1.233.942.624.18 1.02.466 1.1.799 1.1 2.334 0 1.763-1.353 2.808-1.14.878-2.927.878-1.938 0-3.085-.965-1.194-1.005-1.194-2.634 0-1.527 1.06-2.365a2.9 2.9 0 0 1 1.068-.522m2.111.87q-.854 0-1.396.526-.54.525-.541 1.348 0 .847.55 1.377t1.427.53q.996 0 1.495-.586.483-.561.483-1.297 0-.839-.554-1.376-.53-.522-1.464-.522m.016-4.707q-.76 0-1.226.423-.466.424-.466 1.112 0 .72.47 1.15.471.432 1.262.432.79 0 1.25-.427.458-.428.458-1.163 0-.72-.462-1.123-.463-.404-1.286-.404"/></svg>