<svg xmlns="http://www.w3.org/2000/svg" width="36" height="36" fill="none" viewBox="0 0 36 36"><path fill="#000" fill-rule="evenodd" d="M6.25 3.25h23.5v29.5H6.25V3.25m1 1v27.5h21.5V4.25zM27 7.75h-7.5v1H27zm0 3h-7.5v1H27zm-7.5 3H27v1h-7.5zm6 6H9v1h16.5zm-16.5 3h16.5v1H9zm3.03 4.515h-3v1h3zm3 0h3v1h-3zm9 0h-3v1h3zM12.125 9c0-1.056.697-1.75 1.375-1.75s1.375.694 1.375 1.75-.697 1.75-1.375 1.75-1.375-.694-1.375-1.75M13.5 6.25c-1.393 0-2.375 1.32-2.375 2.75 0 .778.29 1.523.78 2.041a6.32 6.32 0 0 0-2.654 5.485l.998-.052a5.32 5.32 0 0 1 2.569-4.836q.32.11.682.112.346-.002.654-.102a5.35 5.35 0 0 1 2.597 4.83l.999.044a6.35 6.35 0 0 0-2.671-5.464c.499-.519.796-1.272.796-2.058 0-1.43-.982-2.75-2.375-2.75" clip-rule="evenodd"/></svg>