<svg xmlns="http://www.w3.org/2000/svg" width="16" height="16" fill="none" viewBox="0 0 16 16"><path fill="#000" fill-rule="evenodd" d="M7.5 3H9v-.5.5c.243 0 .556.105.914.33.352.22.709.532 1.03.883.32.35.594.726.784 1.063.2.357.272.607.272.724v3.5a.5.5 0 0 1-.166.334.5.5 0 0 1-.334.166H8.191l.362.723v.001l.002.004.008.015a8 8 0 0 1 .14.295c.09.197.212.47.333.773s.24.63.327.936c.09.313.137.573.137.753 0 .167-.04.24-.061.267-.019.024-.047.045-.1.055-.128.026-.338-.028-.485-.176-.226-.225-.96-1.078-1.77-2.137-.78-1.02-1.598-2.19-2.084-3.129V4c0-.236.08-.389.203-.507q.208-.2.636-.325C6.41 3.003 7.09 3 7.5 3M5 2.427c.183-.095.375-.166.561-.22C6.28 2 7.087 2 7.484 2H9c.507 0 1.007.207 1.445.483.446.28.87.655 1.236 1.054.367.4.687.837.919 1.25.221.392.4.83.4 1.213v3.5c0 .413-.201.783-.459 1.041S11.913 11 11.5 11H9.78q.09.204.184.44c.129.32.26.682.36 1.032.098.343.176.708.176 1.028 0 .333-.084.635-.267.874a1.15 1.15 0 0 1-.697.429c-.497.1-1.037-.097-1.39-.45-.274-.274-1.04-1.17-1.856-2.237C5.545 11.142 4.73 9.988 4.197 9H2V2h3zM4 4V3H3v5h1z" clip-rule="evenodd"/></svg>