<svg xmlns="http://www.w3.org/2000/svg" width="48" height="48" version="1.1" viewBox="0 0 48 48">
  <path fill="none" fill-rule="evenodd" stroke="#000" stroke-width="1" d="M4.439,17.9238 C9.358,12.7448 16.293,9.4998 24,9.4998 C31.707,9.4998 38.642,12.7448 43.561,17.9238 M43.5605,17.9238 C38.6415,12.7448 31.7065,9.4998 23.9995,9.4998 C16.2935,9.4998 9.3585,12.7448 4.4385,17.9238 M8.7861,22.0518 C12.6121,18.0248 18.0061,15.4998 24.0001,15.4998 C29.9941,15.4998 35.3881,18.0248 39.2141,22.0518 M39.2139,22.0518 C35.3879,18.0248 29.9939,15.4998 23.9999,15.4998 C18.0059,15.4998 12.6119,18.0248 8.7859,22.0518 M13.1426,26.1895 C15.8756,23.3115 19.7296,21.5065 24.0116,21.5065 C28.2886,21.5065 32.1376,23.3055 34.8706,26.1775 M34.8701,26.1777 C32.1381,23.3057 28.2881,21.5067 24.0121,21.5067 C19.7291,21.5067 15.8761,23.3117 13.1421,26.1897 M17.4878,30.3154 C19.1278,28.5884 21.4308,27.5004 23.9998,27.5004 C26.5698,27.5004 28.8718,28.5884 30.5128,30.3154 M30.5127,30.3154 C28.8717,28.5884 26.5697,27.5004 23.9997,27.5004 C21.4307,27.5004 19.1277,28.5884 17.4877,30.3154 M27,36.5 C27,38.157 25.657,39.5 24,39.5 C22.343,39.5 21,38.157 21,36.5 C21,34.843 22.343,33.5 24,33.5 C25.657,33.5 27,34.843 27,36.5 Z"/>
</svg>
