<svg class="color-immutable" xmlns="http://www.w3.org/2000/svg" width="59" height="20" fill="none" viewBox="0 0 59 20"><g clip-path="url(#a)"><path stroke="#000" d="M2 .5h55A1.5 1.5 0 0 1 58.5 2v16a1.5 1.5 0 0 1-1.5 1.5H2A1.5 1.5 0 0 1 .5 18V2A1.5 1.5 0 0 1 2 .5Z"/><path fill="#000" d="M12.877 7.713h-2.449q-.072-.862-.644-1.314-.564-.459-1.587-.459-.91 0-1.418.363-.5.355-.5.999 0 .58.483.838.468.258 2.37.725 2.005.499 2.779 1.007 1.425.934 1.426 2.602 0 1.829-1.434 2.884-1.266.927-3.424.927-2.401 0-3.73-1.096-1.33-1.095-1.378-3.118h2.562q.056.984.507 1.459.71.756 2.135.757.967 0 1.531-.379.636-.435.636-1.184 0-.75-.894-1.096-.49-.193-2.32-.7-1.144-.315-1.789-.597-.644-.282-1.031-.628-.903-.806-.902-2.224 0-1.7 1.41-2.69 1.2-.847 3.118-.847 1.683 0 2.82.669 1.635.959 1.723 3.102M23.19 13.828v2.175h-8.33V4.224h2.57v9.604zM31.738 4.224V6.32h-4.745l-.508 2.65q.854-.902 2.184-.902 1.305 0 2.271.701 1.434 1.055 1.434 3.207 0 2.11-1.53 3.343-1.193.967-2.852.967-1.87 0-3.005-1-1.137-1.005-1.2-2.714h2.311q.057.62.403 1.055.54.685 1.499.685.926 0 1.466-.669.525-.653.524-1.587 0-1.015-.548-1.62-.547-.611-1.458-.612-1.113 0-1.733 1l-2.102-.033 1.12-6.566zM41.616 11.322v1.99h-1.483v2.69h-2.296v-2.69h-4.915v-2.207l5.036-6.88h2.175v7.097zm-3.73.024V6.963l-3.03 4.383z"/></g><defs><clipPath id="a"><path fill="#fff" d="M0 0h59v20H0z"/></clipPath></defs></svg>