<svg xmlns="http://www.w3.org/2000/svg" width="24" height="24" fill="none" viewBox="0 0 24 24"><path fill="#000" fill-rule="evenodd" d="M4 5.5a1.5 1.5 0 1 1 3 0 1.5 1.5 0 0 1-3 0M5.5 3a2.5 2.5 0 1 0 0 5 2.5 2.5 0 0 0 0-5m11.441 3.265-.317-.596-.478.477-5.693 5.694L6.8 9.1l-.423-.317-.293.44-3 4.5.832.554 2.707-4.06L10.2 12.9l.347.26.306-.306 5.523-5.523 3.683 6.904.882-.47zM5.301 19.362C5.761 19.14 6.305 19 7.003 19s1.24.14 1.701.362c.443.212.793.492 1.098.736l.014.012c.318.253.589.468.92.627.322.154.717.263 1.27.263.552 0 .946-.11 1.267-.263.332-.16.602-.373.92-.627l.015-.012c.304-.244.654-.524 1.096-.736.46-.221 1.004-.362 1.701-.362s1.24.14 1.7.362c.441.212.791.493 1.095.736l.015.012c.317.254.587.468.919.627.32.154.714.263 1.266.263v1c-.697 0-1.24-.14-1.7-.362-.441-.212-.791-.493-1.095-.736l-.015-.012c-.317-.254-.587-.468-.919-.627-.32-.154-.714-.263-1.266-.263s-.947.11-1.268.263c-.331.16-.602.373-.92.627l-.014.012c-.304.244-.655.524-1.097.736-.46.221-1.003.362-1.7.362s-1.241-.14-1.702-.362c-.442-.212-.793-.492-1.097-.736l-.015-.012c-.318-.253-.588-.468-.92-.627C7.95 20.11 7.556 20 7.002 20c-.552 0-.947.11-1.268.263-.332.16-.603.373-.92.627l-.015.012c-.304.244-.655.524-1.098.736C3.241 21.86 2.698 22 2 22v-1c.553 0 .948-.11 1.269-.263.332-.16.602-.373.92-.627l.015-.012c.304-.244.655-.524 1.097-.736M7.003 15c-.698 0-1.241.14-1.702.362-.442.212-.793.492-1.097.736l-.015.012c-.318.253-.588.468-.92.627C2.948 16.89 2.553 17 2 17v1c.698 0 1.241-.14 1.701-.362.443-.212.794-.492 1.098-.736l.015-.012c.317-.253.588-.468.92-.627.321-.154.716-.263 1.269-.263s.947.11 1.269.263c.332.16.602.373.92.627l.015.012c.304.244.655.524 1.097.736.46.221 1.004.362 1.702.362.697 0 1.24-.14 1.7-.362.442-.212.793-.492 1.097-.736l.015-.012c.317-.254.588-.468.92-.627.32-.154.715-.263 1.267-.263s.946.11 1.266.263c.332.16.602.373.919.627l.015.012c.304.243.654.524 1.096.736.46.221 1.002.362 1.699.362v-1c-.552 0-.946-.11-1.266-.263-.332-.16-.602-.373-.919-.627l-.015-.012c-.304-.243-.654-.524-1.096-.736-.46-.221-1.002-.362-1.699-.362s-1.24.14-1.7.362c-.443.212-.793.492-1.097.736l-.015.012c-.318.254-.588.468-.92.627-.32.154-.715.263-1.267.263-.553 0-.948-.11-1.27-.263-.331-.16-.602-.373-.92-.627l-.014-.012c-.305-.244-.655-.524-1.098-.736C8.244 15.14 7.701 15 7.003 15" clip-rule="evenodd"/></svg>