<svg xmlns="http://www.w3.org/2000/svg" width="36" height="36" fill="none" viewBox="0 0 36 36"><path fill="#000" fill-rule="evenodd" d="M18 4.75c-1.221 0-1.942.427-2.341.945-.15.194-.245.39-.304.555H12.25v1.5h-6v25h23.5v-25h-6v-1.5h-3.105a2 2 0 0 0-.304-.555c-.4-.518-1.12-.945-2.341-.945m5.75 4v1.5h-11.5v-1.5h-5v23h21.5v-23zm-7.498-1.992-.003.02-.02.472H13.25v2h9.5v-2h-2.98l-.02-.473-.002-.02a1.037 1.037 0 0 0-.2-.453c-.178-.23-.582-.554-1.548-.554s-1.37.323-1.55.555a1.04 1.04 0 0 0-.198.453M10.5 13.75v1h15v-1zm15 4.5v1h-15v-1zm-15 4.5v1h15v-1zm7.5 5.5h-7.5v-1H18z" clip-rule="evenodd"/></svg>