<svg xmlns="http://www.w3.org/2000/svg" width="48" height="48" fill="none" viewBox="0 0 48 48"><path fill="#000" d="M5.003 37.955Q5.242 38 5.5 38h.487v1H5.5q-.35-.001-.68-.062l.092-.492zM7.935 39H6.96v-1h.974zm1.947 0h-.974v-1h.974zm1.947 0h-.974v-1h.974zm1.947 0h-.973v-1h.973zm1.948 0h-.974v-1h.974zm1.947 0h-.974v-1h.974zm1.947 0h-.973v-1h.973zm1.947 0h-.973v-1h.973zm1.948 0h-.974v-1h.974zm1.948 0h-.974v-1h.974zm1.947 0h-.973v-1h.973zm1.947 0h-.973v-1h.973zm1.948 0h-.974v-1h.974zm1.947 0h-.974v-1h.974zm1.947 0h-.973v-1h.973zm1.947 0h-.973v-1h.974zm1.948 0h-.974v-1h.974zm1.947 0h-.974v-1h.974zm2.049-.554.092.492q-.33.061-.68.062h-.487v-1h.487q.258 0 .497-.045zm-39.68-1.54c.18.273.413.506.687.686l-.55.836a3.4 3.4 0 0 1-.973-.974zm42.02.548a3.4 3.4 0 0 1-.974.974l-.549-.836c.274-.18.507-.413.687-.687zM3 35.5q0 .258.045.497l-.491.09-.491.093A3.7 3.7 0 0 1 2 35.5V35h1zm43 0q-.001.35-.062.68l-.492-.092-.49-.09q.044-.24.044-.498V35h1zM3 34H2v-1h1zm43 0h-1v-1h1zm-21-1H6v-1h19zM3 32H2v-1h1zm43 0h-1v-1h1zM3 30H2v-1h1zm43 0h-1v-1h1zm-15-1H6v-1h25zM3 28H2v-1h1zm43 0h-1v-1h1zM3 26H2v-1h1zm43 0h-1v-1h1zm-21-1H6v-1h19zM3 24H2v-1h1zm43 0h-1v-1h1zM3 22H2v-1h1zm43 0h-1v-1h1zm-26-1H6v-1h14zM3 20H2v-1h1zm37-5h2v3h-2v2h-3v-2h-2v-3h2v-2h3zm6 5h-1v-1h1zm-8-4h-2v1h2v2h1v-2h2v-1h-2v-2h-1zM3 18H2v-1h1zm43 0h-1v-1h1zM3 16H2v-1h1zm43 0h-1v-1h1zM2.554 12.912l.49.09Q3 13.243 3 13.5v.5H2v-.5q0-.35.063-.68zm43.384-.092q.061.33.062.68v.5h-1v-.5q0-.258-.045-.497l.491-.09zM4.094 11.408c-.274.18-.507.413-.687.687l-.836-.55c.255-.387.586-.718.974-.973zm40.36-.836c.387.255.718.586.973.974l-.836.549a2.4 2.4 0 0 0-.687-.687zM5.986 11H5.5q-.258 0-.497.045l-.09-.491-.093-.492q.33-.061.68-.062h.487zM42.5 10q.35 0 .68.063l-.092.49-.09.492A2.7 2.7 0 0 0 42.5 11h-.487v-1zM7.935 11H6.96v-1h.974zm1.947 0h-.974v-1h.974zm1.947 0h-.974v-1h.974zm1.947 0h-.973v-1h.973zm1.948 0h-.974v-1h.974zm1.947 0h-.974v-1h.974zm1.947 0h-.973v-1h.973zm1.947 0h-.973v-1h.973zm1.948 0h-.974v-1h.974zm1.948 0h-.974v-1h.974zm1.947 0h-.973v-1h.973zm1.947 0h-.973v-1h.973zm1.948 0h-.974v-1h.974zm1.947 0h-.974v-1h.974zm1.947 0h-.973v-1h.973zm1.947 0h-.973v-1h.974zm1.948 0h-.974v-1h.974zm1.947 0h-.974v-1h.974z"/></svg>