<svg width="48" height="48" viewBox="0 0 48 48" fill="none" xmlns="http://www.w3.org/2000/svg"><path fill-rule="evenodd" clip-rule="evenodd" d="M19.727 3.347c.375-.07.752-.13 1.133-.178l.105.99.994-.105-.104-.989c.379-.03.76-.05 1.145-.059V7h1V3.006c.384.01.766.03 1.145.06l-.104.988.994.105.105-.99c.38.049.758.108 1.133.178l-.208.975.978.208.208-.976c.373.088.743.187 1.108.296l-.31.95.952.31.309-.952c.362.128.719.265 1.071.412l-.406.913.914.406.405-.912c.346.164.687.338 1.022.521L31.317 8.96l.866.5 1.5-2.597.498-.864c.327.2.648.409.962.626l-.586.805.81.588.584-.805c.304.233.6.473.89.722l-.665.74.743.668.666-.739c.278.263.548.534.81.812l-.738.665.669.743.74-.665c.248.29.488.586.72.89l-.805.585.588.809.806-.586c.218.315.426.635.626.962l-.864.498-2.598 1.5.5.866 2.599-1.5.864-.499c.183.335.357.676.521 1.021l-.912.406.407.914.912-.406c.147.352.284.709.412 1.07l-.95.31.308.95.95-.308c.11.365.208.735.297 1.108l-.977.208.208.978.976-.207c.07.374.129.751.178 1.132l-.99.105.104.994.989-.104c.03.379.05.76.059 1.145H40v1H43.994c-.01.385-.029.766-.059 1.145l-.989-.104-.105.995.99.104c-.048.381-.108.759-.177 1.133l-.976-.208-.208.979.977.207c-.089.374-.188.743-.297 1.108l-.95-.309-.31.951.952.31c-.128.36-.265.718-.411 1.07l-.913-.407-.407.914.912.406c-.164.346-.338.687-.521 1.022l-.864-.499-2.598-1.5-.5.866 2.597 1.5.864.499c-.2.326-.408.647-.625.96l-.807-.585-.587.81.805.584c-.233.304-.473.6-.722.89l-.739-.665-.67.744.74.665c-.263.277-.533.548-.811.81l-.666-.738-.743.67.666.738c-.29.249-.587.49-.89.722l-.586-.806-.809.588.586.806a20.47 20.47 0 0 1-.962.626l-.498-.863-1.5-2.598-.866.5 1.5 2.598.499.864c-.335.183-.676.357-1.022.521l-.405-.912-.914.406.406.914c-.352.146-.71.284-1.07.41l-.31-.95-.951.309.31.95c-.366.11-.735.208-1.109.297l-.208-.978-.978.208.208.977c-.375.07-.752.129-1.133.178l-.105-.991-.994.104.104.99c-.379.03-.76.05-1.145.06V40h-1V43.994a20.72 20.72 0 0 1-1.145-.059l.104-.99-.994-.104-.105.99a20.472 20.472 0 0 1-1.133-.177l.208-.977-.978-.208-.208.978a20.284 20.284 0 0 1-1.108-.296l.308-.952-.95-.308-.31.95a20.23 20.23 0 0 1-1.07-.41l.406-.914-.913-.407-.406.913a20.415 20.415 0 0 1-1.022-.521l.499-.864 1.5-2.598-.866-.5-1.5 2.598-.498.863c-.327-.2-.648-.408-.962-.626l.585-.806-.809-.587-.584.805c-.304-.233-.601-.473-.89-.722l.665-.739-.743-.669-.666.739a20.566 20.566 0 0 1-.81-.811l.739-.665-.67-.744-.739.666a20.62 20.62 0 0 1-.722-.89l.805-.585-.588-.81-.806.585a20.507 20.507 0 0 1-.625-.96l.863-.499 2.598-1.5-.5-.866-2.598 1.5-.864.5a20.395 20.395 0 0 1-.521-1.023l.913-.406-.407-.914-.914.407a20.351 20.351 0 0 1-.41-1.07l.95-.31-.309-.95-.95.308a20.345 20.345 0 0 1-.297-1.108l.977-.207-.208-.979-.976.208c-.07-.374-.129-.752-.178-1.133l.992-.104-.105-.995-.99.104c-.03-.378-.05-.76-.059-1.145H7v-1H3.006c.01-.384.029-.766.06-1.145l.989.104.105-.994-.992-.105c.05-.38.109-.758.178-1.132l.976.207.208-.978-.977-.208c.089-.373.188-.743.296-1.108l.952.309.308-.952-.95-.308c.127-.362.264-.72.41-1.071l.914.406.407-.914-.913-.406c.164-.345.338-.686.521-1.02l.864.498 2.598 1.5.5-.866-2.598-1.5L6 12.82c.2-.327.408-.647.626-.962l.805.586.588-.809-.805-.585c.232-.304.473-.6.722-.89l.74.665.669-.743-.74-.666c.263-.277.534-.548.811-.81l.666.738.743-.669-.666-.739c.29-.249.587-.49.89-.722l.585.805.81-.588-.586-.805c.314-.217.635-.426.962-.626l.498.864 1.5 2.597.866-.5-1.999-3.462c.335-.183.676-.356 1.022-.521l.406.912.913-.407-.406-.912c.352-.147.709-.284 1.07-.412l.31.95.95-.308-.308-.95c.365-.109.735-.208 1.108-.296l.208.976.978-.208-.208-.975ZM23.5 2C11.626 2 2 11.625 2 23.5 2 35.374 11.626 45 23.5 45S45 35.374 45 23.5C45 11.625 35.374 2 23.5 2Zm.5 7v14h9v1H23V9h1Z" fill="#000"/></svg>