<svg xmlns="http://www.w3.org/2000/svg" width="48" height="48" fill="none" viewBox="0 0 48 48"><path fill="#000" fill-rule="evenodd" d="M19.727 3.347q.562-.105 1.133-.178l.105.99.994-.105-.104-.989q.568-.045 1.145-.059V7h1V3.006q.576.015 1.145.06l-.104.988.994.105.105-.99q.57.073 1.133.178l-.208.975.978.208.208-.976q.56.132 1.108.296l-.31.95.952.31.309-.952q.543.192 1.071.412l-.406.913.914.406.405-.912q.52.246 1.022.521L31.317 8.96l.866.5 1.5-2.597.498-.864q.49.3.962.626l-.586.805.81.588.584-.805q.456.349.89.722l-.665.74.743.668.666-.739q.417.395.81.812l-.738.665.669.743.74-.665q.372.434.72.89l-.805.585.588.809.806-.586q.327.472.626.962l-.864.498-2.598 1.5.5.866 2.599-1.5.864-.499q.275.503.521 1.021l-.912.406.407.914.912-.406q.22.528.412 1.07l-.95.31.308.95.95-.308q.164.548.297 1.108l-.977.208.208.978.976-.207q.105.56.178 1.132l-.99.105.104.994.989-.104q.045.568.059 1.145H40v1h3.994q-.015.577-.059 1.145l-.989-.104-.105.995.99.104q-.073.572-.177 1.133l-.976-.208-.208.979.977.207q-.133.56-.297 1.108l-.95-.309-.31.951.952.31q-.192.541-.411 1.07l-.913-.407-.407.914.912.406q-.246.52-.521 1.022l-.864-.499-2.598-1.5-.5.866 2.597 1.5.864.499q-.3.49-.625.96l-.807-.585-.587.81.805.584q-.349.456-.722.89l-.739-.665-.67.744.74.665q-.394.416-.811.81l-.666-.738-.743.67.666.738q-.435.374-.89.722l-.586-.806-.809.588.586.806a21 21 0 0 1-.962.626l-.498-.863-1.5-2.598-.866.5 1.5 2.598.499.864q-.503.275-1.022.521l-.405-.912-.914.406.406.914q-.529.22-1.07.41l-.31-.95-.951.309.31.95q-.548.164-1.109.297l-.208-.978-.978.208.208.977q-.562.105-1.133.178l-.105-.991-.994.104.104.99q-.568.045-1.145.06V40h-1v3.994a21 21 0 0 1-1.145-.059l.104-.99-.994-.104-.105.99a21 21 0 0 1-1.133-.177l.208-.977-.978-.208-.208.978a20 20 0 0 1-1.108-.296l.308-.952-.95-.308-.31.95a20 20 0 0 1-1.07-.41l.406-.914-.913-.407-.406.913a20 20 0 0 1-1.022-.521l.499-.864 1.5-2.598-.866-.5-1.5 2.598-.498.863q-.49-.3-.962-.626l.585-.806-.809-.587-.584.805q-.456-.349-.89-.722l.665-.739-.743-.669-.666.739a21 21 0 0 1-.81-.811l.739-.665-.67-.744-.739.666a21 21 0 0 1-.722-.89l.805-.585-.588-.81-.806.585a21 21 0 0 1-.625-.96l.863-.499 2.598-1.5-.5-.866-2.598 1.5-.864.5a20 20 0 0 1-.521-1.023l.913-.406-.407-.914-.914.407a20 20 0 0 1-.41-1.07l.95-.31-.309-.95-.95.308a20 20 0 0 1-.297-1.108l.977-.207-.208-.979-.976.208q-.105-.561-.178-1.133l.992-.104-.105-.995-.99.104Q3.02 24.578 3.006 24H7v-1H3.006q.014-.576.06-1.145l.989.104.105-.994-.992-.105q.075-.57.178-1.132l.976.207.208-.978-.977-.208q.134-.56.296-1.108l.952.309.308-.952-.95-.308q.19-.544.41-1.071l.914.406.407-.914-.913-.406q.246-.518.521-1.02l.864.498 2.598 1.5.5-.866-2.598-1.5L6 12.82q.3-.49.626-.962l.805.586.588-.809-.805-.585q.348-.455.722-.89l.74.665.669-.743-.74-.666Q9 9 9.415 8.605l.666.738.743-.669-.666-.739q.435-.374.89-.722l.585.805.81-.588-.586-.805q.471-.326.962-.626l.498.864 1.5 2.597.866-.5-1.999-3.462q.503-.274 1.022-.521l.406.912.913-.407-.406-.912q.528-.22 1.07-.412l.31.95.95-.308-.308-.95q.548-.164 1.108-.296l.208.976.978-.208zM23.5 2C11.626 2 2 11.625 2 23.5S11.626 45 23.5 45 45 35.374 45 23.5 35.374 2 23.5 2m.5 7v14h9v1H23V9z" clip-rule="evenodd"/></svg>