<svg class="color-immutable" width="59" height="20" viewBox="0 0 59 20" fill="none" xmlns="http://www.w3.org/2000/svg"><g clip-path="url(#a)"><path fill-rule="evenodd" clip-rule="evenodd" d="M2 0a2 2 0 0 0-2 2v16a2 2 0 0 0 2 2h55a2 2 0 0 0 2-2V2a2 2 0 0 0-2-2H2Z" fill="#EB0000"/><path d="M9.388 4.2h4.042l-5 11.6H4.37L9.388 4.2ZM26.092 12.366a.922.922 0 0 0 .843-.553L30.216 4.2H16.13l-5.001 11.6h4.025l3.786-8.69h5.973l-1.197 2.775-5.209-.019L22.71 15.8h4.582l-3.114-3.434h1.915ZM44.772 11.203v1.954h-1.455v2.642h-2.255v-2.643h-4.825V10.99l4.944-6.755h2.136v6.969h1.455Zm-3.662.024V6.922l-2.974 4.303h2.974ZM51.306 4.234v11.565h-2.31v-7.57h-2.721V6.552c.565-.016 1.023-.074 1.377-.174.358-.1.685-.264.98-.49.428-.328.715-.879.863-1.654h1.811Z" fill="#fff"/></g><defs><clipPath id="a"><path fill="#fff" d="M0 0h59v20H0z"/></clipPath></defs></svg>