<svg class="color-immutable" xmlns="http://www.w3.org/2000/svg" width="59" height="20" fill="none" viewBox="0 0 59 20"><g clip-path="url(#a)"><path stroke="#fff" d="M2 .5h55A1.5 1.5 0 0 1 58.5 2v16a1.5 1.5 0 0 1-1.5 1.5H2A1.5 1.5 0 0 1 .5 18V2A1.5 1.5 0 0 1 2 .5Z"/><path fill="#fff" d="M4.08 4.224h5.704q1.692 0 2.594.532.749.435 1.144 1.16t.395 1.636q0 1.03-.5 1.796-.491.765-1.377 1.096.78.194 1.224.87.282.428.379.894.096.467.25 2.135.112 1.225.346 1.523l.113.137h-2.683a2 2 0 0 1-.202-.636q-.056-.387-.152-1.79-.098-1.248-.613-1.723-.507-.483-1.74-.484H6.65v4.633H4.08zm2.57 2.022v3.24h2.457q1.184 0 1.668-.34.612-.427.612-1.288 0-.838-.524-1.225t-1.651-.387zM16.092 4.224h5.301q1.709 0 2.546.427.79.403 1.193 1.168.338.645.338 1.37 0 .806-.41 1.434-.412.629-1.193.991.676.226 1.015.475 1.143.839 1.144 2.441 0 .951-.427 1.709-.42.757-1.209 1.216-.934.548-2.521.548h-5.777zm2.57 2.022v2.748h2.353q.82 0 1.208-.194.717-.346.717-1.192 0-.717-.451-1.04-.45-.322-1.474-.322zm0 4.504v3.23h2.602q1.12 0 1.571-.314.597-.426.597-1.297 0-1.038-.806-1.418-.443-.201-1.49-.201zM27.202 7.954q.04-1.449.717-2.433 1.095-1.578 3.295-1.579 1.692 0 2.732.862 1.12.935 1.12 2.417 0 .886-.444 1.531a2.14 2.14 0 0 1-1.184.862q.95.217 1.499.967.555.75.555 1.813 0 1.747-1.289 2.86-1.192 1.03-3.013 1.03-1.974 0-3.134-1.135-1.152-1.135-1.152-3.07v-.153h2.264q0 1.088.516 1.684.515.588 1.458.588.942 0 1.45-.556.468-.524.467-1.248 0-.87-.596-1.378-.491-.42-1.515-.42-.29 0-.572.033V8.897q.21.015.403.016 2.03 0 2.03-1.507 0-.66-.442-1.063-.444-.41-1.169-.41-.83 0-1.28.515-.453.515-.484 1.506zM38.183 9.678q-.822-.282-1.264-.926-.435-.644-.436-1.563 0-1.53 1.257-2.441 1.111-.806 2.643-.806 1.74 0 2.844.959 1.047.901 1.047 2.232 0 .926-.443 1.587t-1.257.958q.637.186 1.04.476 1.12.814 1.12 2.377 0 1.795-1.378 2.86-1.16.894-2.981.894-1.974 0-3.142-.983-1.217-1.023-1.217-2.683 0-1.555 1.08-2.409.491-.378 1.087-.532m2.168-3.907q-.773 0-1.25.435-.474.427-.474 1.128 0 .733.475 1.176.483.435 1.289.435t1.273-.435.467-1.184q0-.733-.475-1.144-.468-.411-1.305-.411m-.017 4.794q-.87 0-1.426.54-.547.53-.547 1.37 0 .861.556 1.401.563.54 1.458.54 1.014 0 1.523-.596.49-.572.49-1.322 0-.853-.563-1.402-.54-.531-1.49-.531"/></g><defs><clipPath id="a"><path fill="#fff" d="M0 0h59v20H0z"/></clipPath></defs></svg>