<svg class="color-immutable" xmlns="http://www.w3.org/2000/svg" width="59" height="20" fill="none" viewBox="0 0 59 20"><g clip-path="url(#a)"><path fill="#EB0000" fill-rule="evenodd" d="M2 0a2 2 0 0 0-2 2v16a2 2 0 0 0 2 2h55a2 2 0 0 0 2-2V2a2 2 0 0 0-2-2z" clip-rule="evenodd"/><path fill="#fff" d="M9.22 4.2h4.057L8.259 15.8H4.186zM15.948 4.2h14.395l-1.49 3.445h-10.28l-2.042 4.71h10.285l-1.49 3.445H10.93zM44.472 7.121h-2.2q-.307-1.337-1.518-1.337-1.28 0-1.82 1.574-.221.642-.355 1.938.522-.703 1.107-1.012.593-.309 1.424-.309 1.63 0 2.618 1.155.942 1.092.941 2.737 0 1.955-1.265 3.14-1.14 1.068-2.737 1.068-2.048 0-3.188-1.542-1.14-1.55-1.139-4.319 0-2.958 1.218-4.635 1.18-1.622 3.22-1.622 1.922 0 2.942 1.29.585.743.752 1.874m-3.916 2.65q-.83 0-1.32.696-.444.617-.444 1.471 0 .847.451 1.48.49.704 1.345.704.831 0 1.337-.673.474-.633.474-1.495 0-.847-.427-1.447-.522-.736-1.416-.736M45.555 12.896h2.184q.268 1.344 1.558 1.344.728 0 1.178-.49.46-.498.704-1.543.158-.664.23-1.51-.53.743-1.092 1.06-.554.308-1.352.308-1.275 0-2.215-.744A3.54 3.54 0 0 1 45.72 9.97a4.45 4.45 0 0 1-.363-1.804q0-1.953 1.337-3.164 1.146-1.044 2.752-1.044.989 0 1.828.443a3.96 3.96 0 0 1 1.407 1.258q1.005 1.447 1.005 4.066 0 2.42-.886 4.129-1.155 2.222-3.496 2.222-1.559 0-2.579-.862-1.013-.862-1.17-2.317M49.4 5.91q-.744 0-1.258.609-.514.616-.514 1.566 0 .768.372 1.36.506.816 1.423.815.83 0 1.33-.664.466-.625.466-1.487 0-.91-.482-1.543a1.6 1.6 0 0 0-1.337-.656"/></g><defs><clipPath id="a"><path fill="#fff" d="M0 0h59v20H0z"/></clipPath></defs></svg>