<svg xmlns="http://www.w3.org/2000/svg" width="36" height="36" fill="none" viewBox="0 0 36 36"><path fill="#000" fill-rule="evenodd" d="M18.075 5.795c-6.773 0-12.25 5.476-12.265 12.25 0 4.034 1.959 7.609 4.959 9.844l-.598.802c-3.24-2.415-5.36-6.28-5.36-10.646v-.001c.015-7.325 5.938-13.249 13.264-13.249 7.327 0 13.25 5.94 13.25 13.25h-1c0-6.76-5.476-12.25-12.25-12.25m-4.75 7.75a.25.25 0 1 1 .5 0 .25.25 0 0 1-.5 0m.25-1.25a1.25 1.25 0 1 0 0 2.5 1.25 1.25 0 0 0 0-2.5m9 1a.25.25 0 1 0 0 .5.25.25 0 0 0 0-.5m-1.25.25a1.25 1.25 0 1 1 2.5 0 1.25 1.25 0 0 1-2.5 0m1.625 4.592 1.223.342a6.86 6.86 0 0 1-6.098 3.64c-2.896 0-5.301-1.717-6.366-4.196l-.918.394c1.215 2.83 3.97 4.803 7.284 4.803 3.14 0 5.78-1.771 7.081-4.366l1.44.402.269-.962-3.645-1.02zm5.453 3.144a1.225 1.225 0 0 1 1.662.289 1.223 1.223 0 0 1-.244 1.714l-.2.15v.016l-3.79 2.835-.249.185.056.305.27 1.47a2.49 2.49 0 0 1-2.01 2.897h-.002l-5.498.992c-.456-1.1-1.239-2.064-2.104-2.874-.973-.911-2.08-1.653-3.023-2.197a1.085 1.085 0 0 1-.089-1.806c.28-.207.628-.27.96-.176l5.667 1.664.223.065.194-.128 8.175-5.4zm2.461-.312a2.226 2.226 0 0 0-3.015-.52h-.001l-7.98 5.27-5.447-1.599-.005-.001a2.1 2.1 0 0 0-1.828.334c-1.202.887-1.106 2.722.18 3.474l.002.001c.902.52 1.94 1.219 2.841 2.062.904.846 1.643 1.813 1.99 2.866l.135.413.428-.077 5.908-1.065a3.49 3.49 0 0 0 2.82-4.062l-.214-1.165 3.742-2.8.2-.15v-.033a2.225 2.225 0 0 0 .246-2.946z" clip-rule="evenodd"/></svg>