<svg xmlns="http://www.w3.org/2000/svg" width="36" height="36" fill="none" viewBox="0 0 36 36"><path fill="#000" fill-rule="evenodd" d="M17.25 3.25H16.8l-.048.446a109 109 0 0 1-4.36 20.903 48.3 48.3 0 0 1-3.087 7.421l-.378.73H15.5v-.5a2.5 2.5 0 0 1 5 0v.5h6.58l-.388-.734c-2.815-5.32-4.68-12.386-5.84-18.153a127 127 0 0 1-1.237-7.244 104 104 0 0 1-.362-2.87l-.004-.038-.001-.009V3.7l-.498.05.497-.05-.045-.45H17.25m.448 1h.604l.04.342a104 104 0 0 0 .427 3.158h-1.52q.252-1.745.449-3.5m-.6 4.5a110 110 0 0 1-1.537 8h4.885c-.208-.921-.399-1.821-.574-2.69a128 128 0 0 1-.95-5.31zm3.58 9h-5.353a110 110 0 0 1-1.777 6.5h8.913a89 89 0 0 1-1.784-6.5m2.11 7.5h-9.555a49 49 0 0 1-2.67 6.5h3.973a3.5 3.5 0 0 1 6.928 0h3.967c-1.004-2.01-1.881-4.224-2.644-6.5" clip-rule="evenodd"/></svg>