<?xml version="1.0" encoding="utf-8"?>
<!-- Generator: Adobe Illustrator 24.2.0, SVG Export Plug-In . SVG Version: 6.00 Build 0)  -->
<svg version="1.0" id="Ebene_1" xmlns="http://www.w3.org/2000/svg" xmlns:xlink="http://www.w3.org/1999/xlink" x="0px" y="0px"
	 viewBox="0 0 24 24" enable-background="new 0 0 24 24" xml:space="preserve">
<g id="SVG_x5F_24x24pt">
	<path id="backgroundBlue" fill="#2D327D" d="M0,22.5v-21C0,0.675,0.675,0,1.5,0h21C23.325,0,24,0.675,24,1.5v21
		c0,0.825-0.675,1.5-1.5,1.5h-21C0.675,24,0,23.325,0,22.5z"/>
	<g id="content">
		<path fill="#FFFFFF" d="M12,7.812c-2.311,0-4.187,1.876-4.187,4.187c0,2.311,1.876,4.187,4.187,4.187
			c2.311,0,4.187-1.876,4.187-4.187C16.187,9.688,14.311,7.812,12,7.812L12,7.812z"/>
		<polygon fill="#FFFFFF" points="7.559,17.248 7.425,20.343 8.501,19.266 8.501,15.498 4.733,15.498 3.657,16.575 6.752,16.44 
			2.865,20.327 3.672,21.134 7.559,17.248 		"/>
		<polygon fill="#FFFFFF" points="3.657,7.424 4.733,8.501 8.501,8.501 8.501,4.733 7.425,3.656 7.559,6.751 3.672,2.865 
			2.865,3.672 6.752,7.559 3.657,7.424 		"/>
		<polygon fill="#FFFFFF" points="20.343,16.575 19.267,15.498 15.499,15.498 15.499,19.266 16.575,20.343 16.441,17.248 
			20.328,21.134 21.135,20.327 17.248,16.44 20.343,16.575 		"/>
		<polygon fill="#FFFFFF" points="16.441,6.751 16.575,3.656 15.499,4.733 15.499,8.501 19.267,8.501 20.343,7.424 17.248,7.559 
			21.135,3.672 20.328,2.865 16.441,6.751 		"/>
	</g>
</g>
</svg>
