<svg class="color-immutable" xmlns="http://www.w3.org/2000/svg" width="59" height="20" fill="none" viewBox="0 0 59 20"><g clip-path="url(#a)"><path fill="#EB0000" fill-rule="evenodd" d="M2 0a2 2 0 0 0-2 2v16a2 2 0 0 0 2 2h55a2 2 0 0 0 2-2V2a2 2 0 0 0-2-2z" clip-rule="evenodd"/><path fill="#fff" d="M9.22 4.2h4.057L8.259 15.8H4.186zM15.948 4.2h14.395l-1.49 3.445h-10.28l-2.042 4.71h10.285l-1.49 3.445H10.93zM36.585 7.896q.04-1.423.704-2.389 1.077-1.55 3.236-1.55 1.66 0 2.681.846 1.1.918 1.1 2.373 0 .87-.435 1.503a2.1 2.1 0 0 1-1.163.847q.934.213 1.471.949.546.736.546 1.78 0 1.716-1.266 2.808-1.17 1.012-2.958 1.012-1.938 0-3.077-1.115-1.131-1.115-1.131-3.014v-.15h2.223q0 1.068.506 1.653.506.578 1.431.578.926 0 1.424-.546a1.78 1.78 0 0 0 .46-1.226q0-.854-.586-1.353-.483-.411-1.487-.411-.285 0-.562.032V8.822q.206.015.395.016 1.995 0 1.994-1.48 0-.648-.435-1.044-.436-.403-1.147-.403-.815 0-1.258.506t-.474 1.48zM51.306 4.234v11.565h-2.31v-7.57h-2.721V6.552q.847-.024 1.377-.174.537-.15.98-.49.642-.492.863-1.654z"/></g><defs><clipPath id="a"><path fill="#fff" d="M0 0h59v20H0z"/></clipPath></defs></svg>