<svg class="color-immutable" width="59" height="20" viewBox="0 0 59 20" fill="none" xmlns="http://www.w3.org/2000/svg"><path fill-rule="evenodd" clip-rule="evenodd" d="M2 0a2 2 0 0 0-2 2v16a2 2 0 0 0 2 2h55a2 2 0 0 0 2-2V2a2 2 0 0 0-2-2H2Z" fill="#EB0000"/><path fill-rule="evenodd" clip-rule="evenodd" d="M38.737 12.897H36.56c.068.898.49 1.732 1.17 2.317.676.575 1.531.863 2.567.863 1.555 0 2.717-.741 3.484-2.223.589-1.14.883-2.515.883-4.13 0-1.745-.334-3.1-1.001-4.065a3.957 3.957 0 0 0-1.403-1.258 3.828 3.828 0 0 0-1.821-.443 3.926 3.926 0 0 0-2.744 1.044c-.888.807-1.332 1.862-1.332 3.164-.006.62.12 1.235.367 1.804.224.528.575.992 1.02 1.353.628.496 1.409.76 2.208.743a2.72 2.72 0 0 0 1.352-.312 3.502 3.502 0 0 0 1.084-1.056 10.33 10.33 0 0 1-.229 1.51c-.163.697-.395 1.21-.698 1.54-.302.329-.732.51-1.178.494-.857 0-1.374-.449-1.553-1.345Zm.402-6.376a1.58 1.58 0 0 1 1.253-.609 1.598 1.598 0 0 1 1.333.657c.328.445.497.989.48 1.542a2.421 2.421 0 0 1-.465 1.487 1.648 1.648 0 0 1-2.743-.15c-.25-.409-.38-.88-.37-1.36a2.369 2.369 0 0 1 .512-1.567Z" fill="#fff"/><path d="M53.069 4.235v2.057h-4.643l-.497 2.602a2.808 2.808 0 0 1 2.136-.886 3.678 3.678 0 0 1 2.224.688c.935.691 1.403 1.74 1.403 3.149 0 1.381-.5 2.475-1.498 3.282a4.283 4.283 0 0 1-2.79.95c-1.22 0-2.2-.329-2.941-.985-.741-.657-1.133-1.544-1.175-2.662h2.263c.025.377.162.738.394 1.036a1.917 1.917 0 0 0 2.9.016c.348-.443.53-.995.513-1.558.03-.58-.162-1.15-.536-1.594a1.824 1.824 0 0 0-1.427-.597 1.895 1.895 0 0 0-1.695.98l-2.057-.031 1.096-6.447h6.33ZM9.22 4.2h4.056L8.258 15.8H4.185L9.22 4.2ZM25.98 12.366a.925.925 0 0 0 .847-.553L30.119 4.2H15.984l-5.018 11.6h4.038l3.8-8.69h5.993l-1.201 2.775-5.226-.019 4.216 5.934h4.598l-3.124-3.434h1.92Z" fill="#fff"/></svg>