<svg class="color-immutable" xmlns="http://www.w3.org/2000/svg" width="59" height="20" fill="none" viewBox="0 0 59 20"><g clip-path="url(#a)"><path fill="#000" fill-rule="evenodd" d="M2 0a2 2 0 0 0-2 2v16a2 2 0 0 0 2 2h55a2 2 0 0 0 2-2V2a2 2 0 0 0-2-2z" clip-rule="evenodd"/><path fill="#FFDE15" d="M4.16 4.235h5.6q1.662 0 2.547.522.735.428 1.124 1.14.387.712.387 1.605 0 1.012-.49 1.764-.483.752-1.353 1.076a1.95 1.95 0 0 1 1.203.854q.276.42.371.878.095.459.245 2.097.111 1.202.34 1.495l.111.134h-2.634a2 2 0 0 1-.197-.625q-.056-.38-.15-1.756-.095-1.226-.602-1.693-.499-.474-1.708-.474h-2.27V15.8H4.16zm2.523 1.986V9.4h2.413q1.162 0 1.637-.333.601-.418.601-1.265.001-.824-.514-1.203-.514-.38-1.621-.38zM24.647 4.235v2.136h-6.154V8.84h5.64v1.986h-5.64v2.84h6.265V15.8H15.97V4.235zM36.252 4.235V15.8h-2.54l-4.84-7.879.03 7.879h-2.428V4.235h2.571l4.81 7.863-.032-7.863zM45.839 7.123h-2.2q-.307-1.338-1.518-1.337-1.281 0-1.82 1.574-.221.64-.355 1.938.522-.704 1.107-1.013.593-.308 1.424-.308 1.63 0 2.618 1.155.941 1.091.941 2.737 0 1.953-1.265 3.14-1.14 1.068-2.737 1.068-2.05 0-3.188-1.543-1.14-1.55-1.14-4.319 0-2.958 1.22-4.635 1.178-1.622 3.218-1.622 1.923 0 2.943 1.29.584.743.752 1.875m-3.916 2.65q-.831 0-1.32.696-.444.616-.444 1.47 0 .847.451 1.48.49.704 1.345.704.83 0 1.337-.672.474-.633.474-1.495 0-.847-.427-1.448-.522-.736-1.416-.736"/></g><defs><clipPath id="a"><path fill="#fff" d="M0 0h59v20H0z"/></clipPath></defs></svg>