<svg class="color-immutable" xmlns="http://www.w3.org/2000/svg" width="59" height="20" fill="none" viewBox="0 0 59 20"><g clip-path="url(#a)"><path fill="#EB0000" fill-rule="evenodd" d="M2 0a2 2 0 0 0-2 2v16a2 2 0 0 0 2 2h55a2 2 0 0 0 2-2V2a2 2 0 0 0-2-2z" clip-rule="evenodd"/><path fill="#fff" d="M9.22 4.2h4.057L8.259 15.8H4.186zM15.948 4.2h14.395l-1.49 3.445h-10.28l-2.042 4.71h10.285l-1.49 3.445H10.93zM44.67 13.742v2.057h-8.33q0-.942.3-1.796.31-.855.863-1.471.427-.475.997-.926.577-.45 2.286-1.653.83-.578 1.162-1.076.333-.498.333-1.155 0-.76-.451-1.226-.444-.474-1.171-.474-1.788 0-1.843 2.57h-2.223V8.34q0-2.103 1.179-3.259 1.146-1.123 2.966-1.123 1.614 0 2.697.918 1.18.996 1.18 2.681 0 1.472-.942 2.531-.309.348-.578.562-.268.205-1.416 1.005-1.091.759-1.566 1.162a6.4 6.4 0 0 0-.87.926zM47.367 9.59q-.807-.279-1.242-.91-.427-.633-.427-1.535 0-1.503 1.234-2.397 1.09-.79 2.594-.791 1.71 0 2.793.941 1.028.886 1.028 2.191 0 .91-.435 1.559t-1.234.941q.625.182 1.02.467 1.1.798 1.1 2.333 0 1.764-1.353 2.808-1.14.878-2.927.878-1.938 0-3.085-.965-1.194-1.004-1.194-2.634 0-1.527 1.06-2.365a2.9 2.9 0 0 1 1.068-.522m2.128-3.837q-.76 0-1.226.427-.467.42-.467 1.107 0 .72.467 1.155.474.427 1.265.427t1.25-.427.459-1.163q0-.72-.467-1.123-.459-.403-1.281-.403m-.016 4.706q-.855 0-1.4.53-.538.522-.538 1.345 0 .846.546 1.376.553.53 1.431.53.997 0 1.495-.585.483-.562.483-1.297 0-.84-.554-1.377-.529-.522-1.463-.522"/></g><defs><clipPath id="a"><path fill="#fff" d="M0 0h59v20H0z"/></clipPath></defs></svg>