<?xml version="1.0" encoding="utf-8"?>
<!-- Generator: Adobe Illustrator 24.2.0, SVG Export Plug-In . SVG Version: 6.00 Build 0)  -->
<svg version="1.0" id="Ebene_1" xmlns="http://www.w3.org/2000/svg" xmlns:xlink="http://www.w3.org/1999/xlink" x="0px" y="0px"
	 viewBox="0 0 24 24" enable-background="new 0 0 24 24" xml:space="preserve">
<g id="SVG_x5F_24x24pt">
	<path id="backgroundBlue" fill="#2D327D" d="M0,22.5v-21C0,0.675,0.675,0,1.5,0h21C23.325,0,24,0.675,24,1.5v21
		c0,0.825-0.675,1.5-1.5,1.5h-21C0.675,24,0,23.325,0,22.5z"/>
	<g id="content">
		<path fill="#FFFFFF" d="M17.625,8.25H21V7.5H5.926l0,0c-0.611,0-1.145,0.41-1.304,1l-1.576,5.869C3.015,14.483,3,14.601,3,14.719
			v3.806c0,0.331,0.269,0.6,0.6,0.6h6.976c0.331,0,0.6-0.269,0.6-0.6c0-0.004,0-0.007,0-0.011l0,0
			c-0.001-0.021-0.001-0.043-0.001-0.064c0-1.904,1.546-3.45,3.45-3.45c1.904,0,3.45,1.546,3.45,3.45c0,0.021,0,0.043-0.001,0.064
			l0,0c0,0.004,0,0.007,0,0.011c0,0.331,0.269,0.6,0.6,0.6H21V13.5h-3.375c-0.207,0-0.375-0.168-0.375-0.375v-4.5
			C17.25,8.418,17.418,8.25,17.625,8.25L17.625,8.25z M6.562,14.625C6.562,14.832,6.395,15,6.187,15H4.142
			c-0.207,0-0.375-0.168-0.375-0.375c0-0.033,0.004-0.066,0.013-0.097l1.586-5.908c0.07-0.262,0.308-0.444,0.58-0.444h0.017
			c0.331,0,0.6,0.269,0.6,0.6V14.625L6.562,14.625z M8.512,14.475c0,0.331-0.269,0.6-0.6,0.6c-0.331,0-0.6-0.269-0.6-0.6v-5.7
			c0-0.331,0.269-0.6,0.6-0.6c0.331,0,0.6,0.269,0.6,0.6V14.475L8.512,14.475z M10.463,14.475c0,0.331-0.269,0.6-0.6,0.6
			c-0.331,0-0.6-0.269-0.6-0.6v-5.7c0-0.331,0.269-0.6,0.6-0.6c0.331,0,0.6,0.269,0.6,0.6V14.475L10.463,14.475z M16.5,13.125
			c0,0.207-0.168,0.375-0.375,0.375h-4.537c-0.207,0-0.375-0.168-0.375-0.375v-4.5c0-0.207,0.168-0.375,0.375-0.375h4.537
			c0.207,0,0.375,0.168,0.375,0.375V13.125L16.5,13.125z"/>
		<path fill="#FFFFFF" d="M14.648,15.847c-1.449,0-2.625,1.176-2.625,2.625c0,1.449,1.176,2.625,2.625,2.625
			s2.625-1.176,2.625-2.625C17.273,17.023,16.097,15.847,14.648,15.847L14.648,15.847z M14.648,19.916c-0.828,0-1.5-0.672-1.5-1.5
			c0-0.828,0.672-1.5,1.5-1.5c0.828,0,1.5,0.672,1.5,1.5C16.148,19.244,15.476,19.916,14.648,19.916L14.648,19.916z"/>
	</g>
</g>
</svg>
