<svg xmlns="http://www.w3.org/2000/svg" width="16" height="16" fill="none" viewBox="0 0 16 16"><path fill="#000" fill-rule="evenodd" d="M7.5 2.02a6 6 0 0 0-.885.14l-.23-.973A7 7 0 0 1 8 1c1.6 0 3.075.537 4.254 1.44l.008.006a6.994 6.994 0 0 1 2.207 2.874q.151.366.262.752l-.961.275-.034-.114-5.484 3.199-.752.439V2.02m1 0v6.11l4.858-2.834a6.037 6.037 0 0 0-1.705-2.056l-.015-.012A5.97 5.97 0 0 0 8.5 2.021m-2.797.435a6 6 0 0 0-1.355.784l-.61-.793a7 7 0 0 1 1.582-.915zM3.24 4.348a6 6 0 0 0-.784 1.355l-.924-.383c.236-.569.545-1.1.915-1.582zM14 8a6 6 0 0 0-.05-.784l.99-.13a7 7 0 0 1 0 1.828l-.99-.13Q14 8.4 14 8M2.05 7.216Q2 7.6 2 8H1q0-.464.06-.914zm10.71 4.436c.318-.413.583-.868.785-1.355l.924.383c-.236.569-.545 1.1-.915 1.582zm-2.463 1.893a6 6 0 0 0 1.355-.784l.61.793a7 7 0 0 1-1.582.915zM8 14q.4 0 .784-.05l.13.99Q8.464 15 8 15zm-4-2.707 1.646-1.647.708.708L4.707 12l1.647 1.646-.708.708L4 12.707l-1.646 1.647-.708-.708L3.293 12l-1.647-1.646.708-.708z" clip-rule="evenodd"/></svg>