<svg xmlns="http://www.w3.org/2000/svg" width="24" height="24" fill="none" viewBox="0 0 24 24"><path fill="#000" fill-rule="evenodd" d="M16.99 2.98a4.01 4.01 0 0 0-4.01 4.01v.017a3.7 3.7 0 0 0 .563 1.832l.005.009 3.03 4.78.422.666.423-.666 3.03-4.78.007-.012.007-.012c.307-.548.522-1.14.533-1.825V6.99a4.01 4.01 0 0 0-4.01-4.01m-2.594 5.337a2.7 2.7 0 0 1-.416-1.335 3.01 3.01 0 0 1 3.01-3.002A3.01 3.01 0 0 1 20 6.986c-.008.468-.151.892-.4 1.338L17 12.426zM15.99 6.98c0-.554.446-1 1-1 .553 0 1 .446 1 1s-.447 1-1 1c-.554 0-1-.446-1-1m1-2c-1.107 0-2 .894-2 2s.893 2 2 2 2-.894 2-2-.894-2-2-2m-9.471.04c-.557 0-1 .444-1 1s.443 1 1 1 1-.444 1-1-.444-1-1-1m-.5 3v6h5v5h1v-6h-5v-5zm-1.527 2.484A4.52 4.52 0 0 0 3.02 14.52c0 2.476 2.023 4.5 4.5 4.5a4.53 4.53 0 0 0 4.071-2.586l-.903-.428A3.53 3.53 0 0 1 7.52 18.02a3.51 3.51 0 0 1-3.5-3.5 3.52 3.52 0 0 1 1.926-3.124z" clip-rule="evenodd"/></svg>