<svg xmlns="http://www.w3.org/2000/svg" width="48" height="48" version="1.1" viewBox="0 0 48 48">
  <path fill="none" fill-rule="evenodd" stroke="#000" stroke-width="1" d="M25.4775,28.7495 C21.2215,32.6185 9.9855,37.8605 6.9215,37.4985 C2.6515,36.9935 2.7985,32.4995 6.2035,31.6545 C8.0835,31.1875 17.9405,27.7285 21.1955,24.7495 M7.1846,31.3677 C4.6726,27.5077 3.4996,23.1487 3.4996,19.8397 C3.4996,14.2857 7.3386,6.4997 17.1526,6.4997 C29.6546,6.4997 30.5666,16.8947 30.5666,18.5907 C30.5666,20.6057 30.1376,22.5497 29.0016,24.4047 M37.7461,35.187 C34.4561,38.375 29.9031,40.499 23.9561,40.499 C18.8911,40.499 14.8481,38.86 11.7391,36.405 M24.8691,8.3472 C27.3821,7.0162 30.4531,6.4992 32.8101,6.4992 C38.3931,6.4992 44.5001,9.7472 44.5001,19.1902 C44.5001,22.5802 43.5251,26.6202 41.4621,30.2672 M12.9292,29.2495 C9.1822,25.5905 9.1822,19.9295 9.1822,19.9295 C9.1822,16.7535 11.0242,12.3005 17.1792,12.3005 C23.3332,12.3005 24.5922,16.0495 24.6812,18.5465 C24.8942,24.5115 38.5222,29.3805 42.6962,30.6755 C46.2252,31.7705 45.4052,36.4285 41.7362,36.2635 C38.5122,36.1175 18.8532,28.4585 18.8532,18.9735 C18.8532,16.4885 19.4282,14.4495 20.3762,12.7935 M31.8721,32.6372 C29.8481,33.8042 27.0451,34.7402 23.8281,34.7402 C21.6531,34.7402 19.4251,34.3572 17.8281,33.6892 M29.1289,12.8354 C29.1289,12.8354 30.7909,12.2114 32.8579,12.2114 C34.9249,12.2114 38.7429,13.0594 38.7429,18.7694 C38.7429,21.4114 37.7269,25.0124 35.8829,28.1364 M17.75,9.4995 C17.75,9.6375 17.638,9.7495 17.5,9.7495 C17.362,9.7495 17.25,9.6375 17.25,9.4995 C17.25,9.3615 17.362,9.2495 17.5,9.2495 C17.638,9.2495 17.75,9.3615 17.75,9.4995 Z M24.75,12.4995 C24.75,12.6375 24.638,12.7495 24.5,12.7495 C24.362,12.7495 24.25,12.6375 24.25,12.4995 C24.25,12.3615 24.362,12.2495 24.5,12.2495 C24.638,12.2495 24.75,12.3615 24.75,12.4995 Z M27.75,18.4995 C27.75,18.6375 27.638,18.7495 27.5,18.7495 C27.362,18.7495 27.25,18.6375 27.25,18.4995 C27.25,18.3615 27.362,18.2495 27.5,18.2495 C27.638,18.2495 27.75,18.3615 27.75,18.4995 Z M21.75,18.4995 C21.75,18.6375 21.638,18.7495 21.5,18.7495 C21.362,18.7495 21.25,18.6375 21.25,18.4995 C21.25,18.3615 21.362,18.2495 21.5,18.2495 C21.638,18.2495 21.75,18.3615 21.75,18.4995 Z M7.75,15.4995 C7.75,15.6375 7.638,15.7495 7.5,15.7495 C7.362,15.7495 7.25,15.6375 7.25,15.4995 C7.25,15.3615 7.362,15.2495 7.5,15.2495 C7.638,15.2495 7.75,15.3615 7.75,15.4995 Z M6.75,24.4995 C6.75,24.6375 6.638,24.7495 6.5,24.7495 C6.362,24.7495 6.25,24.6375 6.25,24.4995 C6.25,24.3615 6.362,24.2495 6.5,24.2495 C6.638,24.2495 6.75,24.3615 6.75,24.4995 Z M13.5,33.2495 C13.5,33.3875 13.388,33.4995 13.25,33.4995 C13.112,33.4995 13,33.3875 13,33.2495 C13,33.1115 13.112,32.9995 13.25,32.9995 C13.388,32.9995 13.5,33.1115 13.5,33.2495 Z M6.5,34.2495 C6.5,34.3875 6.388,34.4995 6.25,34.4995 C6.112,34.4995 6,34.3875 6,34.2495 C6,34.1115 6.112,33.9995 6.25,33.9995 C6.388,33.9995 6.5,34.1115 6.5,34.2495 Z M18.75,29.4995 C18.75,29.6375 18.638,29.7495 18.5,29.7495 C18.362,29.7495 18.25,29.6375 18.25,29.4995 C18.25,29.3615 18.362,29.2495 18.5,29.2495 C18.638,29.2495 18.75,29.3615 18.75,29.4995 Z M24.75,24.4995 C24.75,24.6375 24.638,24.7495 24.5,24.7495 C24.362,24.7495 24.25,24.6375 24.25,24.4995 C24.25,24.3615 24.362,24.2495 24.5,24.2495 C24.638,24.2495 24.75,24.3615 24.75,24.4995 Z M29.75,28.4995 C29.75,28.6375 29.638,28.7495 29.5,28.7495 C29.362,28.7495 29.25,28.6375 29.25,28.4995 C29.25,28.3615 29.362,28.2495 29.5,28.2495 C29.638,28.2495 29.75,28.3615 29.75,28.4995 Z M19.75,36.4995 C19.75,36.6375 19.638,36.7495 19.5,36.7495 C19.362,36.7495 19.25,36.6375 19.25,36.4995 C19.25,36.3615 19.362,36.2495 19.5,36.2495 C19.638,36.2495 19.75,36.3615 19.75,36.4995 Z M30.75,9.4995 C30.75,9.6375 30.638,9.7495 30.5,9.7495 C30.362,9.7495 30.25,9.6375 30.25,9.4995 C30.25,9.3615 30.362,9.2495 30.5,9.2495 C30.638,9.2495 30.75,9.3615 30.75,9.4995 Z M37.75,10.4995 C37.75,10.6375 37.638,10.7495 37.5,10.7495 C37.362,10.7495 37.25,10.6375 37.25,10.4995 C37.25,10.3615 37.362,10.2495 37.5,10.2495 C37.638,10.2495 37.75,10.3615 37.75,10.4995 Z M40.75,15.4995 C40.75,15.6375 40.638,15.7495 40.5,15.7495 C40.362,15.7495 40.25,15.6375 40.25,15.4995 C40.25,15.3615 40.362,15.2495 40.5,15.2495 C40.638,15.2495 40.75,15.3615 40.75,15.4995 Z M41.75,21.4995 C41.75,21.6375 41.638,21.7495 41.5,21.7495 C41.362,21.7495 41.25,21.6375 41.25,21.4995 C41.25,21.3615 41.362,21.2495 41.5,21.2495 C41.638,21.2495 41.75,21.3615 41.75,21.4995 Z M40.75,26.4995 C40.75,26.6375 40.638,26.7495 40.5,26.7495 C40.362,26.7495 40.25,26.6375 40.25,26.4995 C40.25,26.3615 40.362,26.2495 40.5,26.2495 C40.638,26.2495 40.75,26.3615 40.75,26.4995 Z M36.75,30.4995 C36.75,30.6375 36.638,30.7495 36.5,30.7495 C36.362,30.7495 36.25,30.6375 36.25,30.4995 C36.25,30.3615 36.362,30.2495 36.5,30.2495 C36.638,30.2495 36.75,30.3615 36.75,30.4995 Z M40.75,33.4995 C40.75,33.6385 40.639,33.7495 40.5,33.7495 C40.362,33.7495 40.25,33.6385 40.25,33.4995 C40.25,33.3615 40.362,33.2495 40.5,33.2495 C40.639,33.2495 40.75,33.3615 40.75,33.4995 Z M26.75,37.4995 C26.75,37.6375 26.638,37.7495 26.5,37.7495 C26.362,37.7495 26.25,37.6375 26.25,37.4995 C26.25,37.3615 26.362,37.2495 26.5,37.2495 C26.638,37.2495 26.75,37.3615 26.75,37.4995 Z M32.75,36.4995 C32.75,36.6375 32.638,36.7495 32.5,36.7495 C32.362,36.7495 32.25,36.6375 32.25,36.4995 C32.25,36.3615 32.362,36.2495 32.5,36.2495 C32.638,36.2495 32.75,36.3615 32.75,36.4995 Z"/>
</svg>
