<svg class="color-immutable" xmlns="http://www.w3.org/2000/svg" width="59" height="20" fill="none" viewBox="0 0 59 20"><g clip-path="url(#a)"><path stroke="#fff" d="M2 .5h55A1.5 1.5 0 0 1 58.5 2v16a1.5 1.5 0 0 1-1.5 1.5H2A1.5 1.5 0 0 1 .5 18V2A1.5 1.5 0 0 1 2 .5Z"/><path fill="#fff" d="M4.069 4.224h5.704q1.692 0 2.594.531.749.435 1.144 1.16.395.727.395 1.636 0 1.032-.5 1.797-.491.765-1.377 1.095.78.195 1.224.87.282.427.379.895.097.467.25 2.135.112 1.224.346 1.523l.113.137h-2.683a2 2 0 0 1-.201-.637q-.058-.387-.154-1.788-.096-1.25-.612-1.725-.507-.483-1.74-.483H6.639v4.633h-2.57zm2.57 2.022v3.239h2.457q1.184 0 1.668-.339.612-.426.612-1.289 0-.837-.524-1.224t-1.651-.387zM24.436 13.827v2.176h-8.33V4.223h2.57v9.604zM25.29 13.046h2.223q.274 1.37 1.588 1.37.741 0 1.2-.5.467-.507.717-1.571.16-.677.234-1.539-.54.758-1.112 1.08-.564.314-1.378.314-1.297 0-2.256-.757a3.6 3.6 0 0 1-1.047-1.378 4.5 4.5 0 0 1-.37-1.837q0-1.99 1.361-3.223 1.168-1.063 2.804-1.063 1.006 0 1.86.45.855.453 1.435 1.282 1.023 1.474 1.023 4.141 0 2.466-.902 4.206-1.178 2.264-3.561 2.264-1.588 0-2.627-.879-1.031-.878-1.192-2.36m3.915-7.114q-.758 0-1.28.62-.525.629-.524 1.595 0 .782.378 1.386.516.83 1.45.83.847 0 1.354-.677.475-.636.475-1.514 0-.927-.491-1.572a1.64 1.64 0 0 0-1.362-.668"/></g><defs><clipPath id="a"><path fill="#fff" d="M0 0h59v20H0z"/></clipPath></defs></svg>