<svg xmlns="http://www.w3.org/2000/svg" width="24" height="24" version="1.1" viewBox="0 0 24 24">
  <path fill="none" fill-rule="evenodd" stroke="#000" stroke-width="1" d="M18.5,15.9997 C18.5,12.7297 16.852,9.7477 13.912,8.6967 M10.084,8.697 C8.091,9.416 6.693,11.023 6,12.996 M12,2.4997 C13.657,2.4997 15,4.0667 15,5.9997 C15,7.9327 13.657,9.4997 12,9.4997 C10.343,9.4997 9,7.9327 9,5.9997 C9,4.0667 10.343,2.4997 12,2.4997 Z M8.8613,17.028 L4.1263,13.72 C3.6953,13.375 3.0663,13.443 2.7203,13.874 C2.3743,14.304 2.4433,14.934 2.8743,15.28 L8.7993,20.5 L12.7423,20.5 L13.7503,21.5 L21.2003,21.5 L16.1723,16.436 C15.0353,15.342 13.5883,14.528 12.1093,14.5 L10.0003,14.5 C8.0153,14.5 7.9683,17.5 10.0003,17.5 L12.0003,17.5"/>
</svg>
