<svg xmlns="http://www.w3.org/2000/svg" width="24" height="24" fill="none" viewBox="0 0 24 24"><path fill="#000" fill-rule="evenodd" d="M3 4V2h1v13.325l1-1.527V13h.523l1.31-2H5v-1h2.488L8 9.22V8H5V7h3V5H5V4h3V2h1v2h1v1H9v2h.454L11 4.64V4h.42l1.162-1.774.836.548L4 17.149V19H3v-2H2v-1h1v-2H2v-1h1v-2H2v-1h1V8H2V7h1V5H2V4zm13.631 1-1.406 2H12v1h5V7h-.552l1.406-2H19V4h-.443l.852-1.212-.818-.576L17.334 4H14v1zm-5.599 8 .785-1.123.82.572-.385.551H13v1h-1.446l-1.397 2H11v1H9.459L9 17.657V19H8v-1.657l.09-.13.15-.213H6v-1h2.938l1.396-2H8v-1zm4.33-3a.355.355 0 0 0-.355.355v10.29c0 .196.159.355.354.355h5.291a.355.355 0 0 0 .355-.355v-10.29a.355.355 0 0 0-.355-.355H19.5v1h-3v-1zm-1.355.355c0-.748.606-1.355 1.354-1.355h5.291c.748 0 1.355.607 1.355 1.355v10.29c0 .749-.607 1.355-1.355 1.355h-5.29a1.355 1.355 0 0 1-1.355-1.355z" clip-rule="evenodd"/></svg>