<svg xmlns="http://www.w3.org/2000/svg" width="36" height="36" fill="none" viewBox="0 0 36 36"><path fill="#000" fill-rule="evenodd" d="M11.25 2.506a3.494 3.494 0 0 1 .5 6.952v15.583a3.495 3.495 0 1 1-1 0V9.458a3.494 3.494 0 0 1 .5-6.952m11.048 8.475.13.483-5.286 1.423 2.303 1.152a10.5 10.5 0 0 1 5.805 9.392v1.61a3.495 3.495 0 1 1-1 0v-1.61a9.5 9.5 0 0 0-5.252-8.497l-2.345-1.173 1.41 5.262-.965.258-1.725-6.436-.13-.483.484-.13 6.441-1.735zM11.25 25.994a2.506 2.506 0 1 0 0 5.012 2.506 2.506 0 0 0 0-5.012m13.5 0a2.506 2.506 0 1 0 0 5.012 2.506 2.506 0 0 0 0-5.012m-13.5-22.5a2.506 2.506 0 1 0 0 5.012 2.506 2.506 0 0 0 0-5.012" clip-rule="evenodd"/></svg>