<?xml version="1.0" encoding="utf-8"?>
<!-- Generator: Adobe Illustrator 24.2.0, SVG Export Plug-In . SVG Version: 6.00 Build 0)  -->
<svg version="1.0" xmlns="http://www.w3.org/2000/svg" xmlns:xlink="http://www.w3.org/1999/xlink" x="0px" y="0px"
	 viewBox="0 0 24 24" enable-background="new 0 0 24 24" xml:space="preserve">
<g id="SVG_x5F_24x24pt">
	<path id="backgroundBlue" fill="#2D327D" d="M0,22.5v-21C0,0.675,0.675,0,1.5,0h21C23.325,0,24,0.675,24,1.5v21
		c0,0.825-0.675,1.5-1.5,1.5h-21C0.675,24,0,23.325,0,22.5z"/>
	<g id="content">
		<path fill="#FFFFFF" d="M21,12.004c0-2.03-0.844-3.865-2.2-5.175c-0.14-0.135-0.361-0.138-0.507-0.009L18.293,6.82
			c-0.164,0.144-0.17,0.398-0.013,0.55c1.214,1.173,1.97,2.817,1.97,4.634c0,1.814-0.754,3.454-1.963,4.627
			c-0.156,0.152-0.15,0.404,0.013,0.549L18.3,17.18c0.146,0.129,0.368,0.127,0.508-0.009C20.159,15.862,21,14.029,21,12.004z"/>
		<path fill="#FFFFFF" d="M18.6,12.005c0-1.518-0.648-2.887-1.681-3.846c-0.142-0.132-0.361-0.138-0.507-0.009v0
			c-0.168,0.148-0.167,0.407-0.003,0.559c0.886,0.822,1.441,1.995,1.441,3.296c0,1.296-0.551,2.465-1.431,3.287
			c-0.163,0.152-0.163,0.41,0.004,0.558l0,0c0.146,0.129,0.365,0.124,0.508-0.009C17.957,14.882,18.6,13.517,18.6,12.005z"/>
		<path fill="#FFFFFF" d="M16.2,12.006c0-1.014-0.45-1.924-1.16-2.543c-0.141-0.123-0.352-0.122-0.493,0.002l-0.001,0.001
			c-0.171,0.151-0.165,0.415,0.007,0.566c0.549,0.481,0.897,1.188,0.897,1.974c0,0.78-0.342,1.482-0.885,1.963
			c-0.17,0.151-0.175,0.413-0.006,0.564l0.001,0.001c0.141,0.125,0.354,0.126,0.495,0.001C15.757,13.917,16.2,13.012,16.2,12.006z"
			/>
		<path fill="#FFFFFF" d="M3.478,9.526c-0.127,0-0.248,0.05-0.338,0.14C3.05,9.755,3,9.877,3,10.004v3.992
			c0,0.264,0.214,0.478,0.478,0.478h2.447V9.526L3.478,9.526z"/>
		<path fill="#FFFFFF" d="M10.799,6.251c-0.172-0.077-0.372-0.047-0.513,0.078L6.675,9.526v4.948l3.611,3.196
			c0.089,0.079,0.203,0.12,0.317,0.12c0.067,0,0.133-0.014,0.196-0.042c0.172-0.077,0.282-0.248,0.282-0.436V6.688
			C11.081,6.499,10.97,6.329,10.799,6.251z"/>
	</g>
</g>
</svg>
