<svg xmlns="http://www.w3.org/2000/svg" width="36" height="36" fill="none" viewBox="0 0 36 36"><path fill="#000" fill-rule="evenodd" d="M16.506 3.25a2.75 2.75 0 0 0-2.75 2.748l-.003.359A7.25 7.25 0 0 0 7.75 13.5v19.25h20.5V13.5a7.25 7.25 0 0 0-5.996-7.142l-.004-.361A2.75 2.75 0 0 0 19.5 3.25zm4.747 3.004-.003-.248V6a1.75 1.75 0 0 0-1.75-1.75h-2.994A1.75 1.75 0 0 0 14.756 6v.004l-.002.25q.123-.004.246-.004h6q.127 0 .253.004M8.75 13.5A6.25 6.25 0 0 1 15 7.25h6a6.25 6.25 0 0 1 6.25 6.25v18.25H8.75zm4.756 7.25a1.75 1.75 0 0 0-1.75 1.75h-.006v6.25h12.5V22.5a1.75 1.75 0 0 0-1.75-1.75zM25.25 22.5v7.25h-14.5V22.5h.006a2.75 2.75 0 0 1 2.75-2.75H22.5a2.75 2.75 0 0 1 2.75 2.75m-5.5 1.25H13.5v-1h9v1h-1.75v1.75h-1z" clip-rule="evenodd"/></svg>