<svg xmlns="http://www.w3.org/2000/svg" width="24" height="24" fill="none" viewBox="0 0 24 24"><path fill="#000" fill-rule="evenodd" d="M2 2h20v20H2V2m1 1v18h18V3zm5 11.5V10h1v4h4v5h-1v-4H8zm-3.5.7c0-1.485.805-2.77 2.093-3.355l.414.91C6.095 13.17 5.5 14.085 5.5 15.2c0 1.524 1.276 2.8 2.8 2.8 1.082 0 2.03-.667 2.561-1.64l.878.48C11.069 18.066 9.818 19 8.3 19c-2.076 0-3.8-1.724-3.8-3.8m4-8.2a1 1 0 1 0 0 2 1 1 0 0 0 0-2m4.911-1.579c.282-.28.665-.421 1.079-.421h3c.908 0 1.5.757 1.5 1.5v.505h.224v.25l.001 1v.25h-.225V11h-.001v.496h-2V11h-2v.5h-2V8.505h-.218v-1.5h.219V6.5c0-.414.14-.797.421-1.079m.707.708c-.068.068-.128.185-.128.371V8h4V6.5c0-.257-.208-.5-.5-.5h-3c-.187 0-.303.06-.372.129M17.99 9h-4v1h4z" clip-rule="evenodd"/></svg>