<?xml version="1.0" encoding="utf-8"?>
<!-- Generator: Adobe Illustrator 24.2.0, SVG Export Plug-In . SVG Version: 6.00 Build 0)  -->
<svg version="1.0" id="Ebene_1" xmlns="http://www.w3.org/2000/svg" xmlns:xlink="http://www.w3.org/1999/xlink" x="0px" y="0px"
	 viewBox="0 0 24 24" enable-background="new 0 0 24 24" xml:space="preserve">
<g id="SVG_x5F_24x24pt">
	<path id="backgroundBlue" fill="#2D327D" d="M0,22.5v-21C0,0.675,0.675,0,1.5,0h21C23.325,0,24,0.675,24,1.5v21
		c0,0.825-0.675,1.5-1.5,1.5h-21C0.675,24,0,23.325,0,22.5z"/>
	<g id="content">
		<path fill="#FFFFFF" d="M5.531,9.657C5.591,9.717,5.673,9.75,5.757,9.75c0.175,0,0.319-0.143,0.319-0.319
			c0-0.084-0.033-0.166-0.093-0.226L5.646,8.87L5.78,8.734l0.917,0.917C6.761,9.715,6.847,9.75,6.936,9.75
			c0.187,0,0.338-0.15,0.338-0.338c0-0.089-0.036-0.175-0.099-0.239L6.258,8.257l0.136-0.135l1.529,1.529
			C7.985,9.715,8.071,9.75,8.16,9.75c0.187,0,0.338-0.15,0.338-0.338c0-0.089-0.036-0.175-0.098-0.239L6.87,7.644l0.136-0.135
			l2.136,2.137C9.208,9.713,9.299,9.75,9.394,9.75c0.196,0,0.356-0.16,0.356-0.357c0-0.094-0.038-0.185-0.105-0.252L6.63,6.126
			C6.566,6.063,6.531,5.976,6.531,5.887c0-0.187,0.151-0.338,0.337-0.338h1.194c0.249,0,0.451-0.201,0.451-0.449
			c0-0.022-0.001-0.044-0.005-0.064C8.495,4.943,8.416,4.875,8.322,4.875H3V7.5h0.374L5.531,9.657L5.531,9.657z"/>
		<path fill="#FFFFFF" d="M14.25,18.45V13.2c0-0.621-0.504-1.125-1.125-1.125H10.5V11.4c0-0.497-0.403-0.9-0.899-0.9H7.65
			c-0.496,0-0.899,0.403-0.899,0.9v0.675H4.125C3.503,12.075,3,12.579,3,13.2v5.25c0,0.621,0.503,1.125,1.125,1.125h9
			C13.746,19.575,14.25,19.071,14.25,18.45L14.25,18.45z M7.425,11.175h2.401v0.9H7.425V11.175L7.425,11.175z M11.438,16.312
			c0,0.166-0.135,0.301-0.301,0.301H9.113c-0.166,0-0.3-0.135-0.3-0.301v-2.598c0-0.08,0.032-0.155,0.087-0.212h0.001l0.621-0.622
			c0.036-0.036,0.084-0.056,0.134-0.056h0.281V13.2h0.374v-0.375h0.282c0.049,0,0.098,0.02,0.132,0.056l0.623,0.622
			c0.057,0.057,0.088,0.132,0.088,0.212V16.312L11.438,16.312z"/>
		<polygon fill="#FFFFFF" points="9.75,20.325 21,20.325 21,21 9.75,21 9.75,20.325 		"/>
	</g>
</g>
</svg>
