<svg class="color-immutable" xmlns="http://www.w3.org/2000/svg" width="59" height="20" fill="none" viewBox="0 0 59 20"><path fill="#EB0000" fill-rule="evenodd" d="M2 0a2 2 0 0 0-2 2v16a2 2 0 0 0 2 2h55a2 2 0 0 0 2-2V2a2 2 0 0 0-2-2z" clip-rule="evenodd"/><path fill="#fff" fill-rule="evenodd" d="M38.704 12.897h-2.176c.068.898.49 1.732 1.17 2.318q1.014.861 2.567.862 2.333 0 3.484-2.223.883-1.708.883-4.129 0-2.617-1.001-4.066a3.96 3.96 0 0 0-1.403-1.258 3.8 3.8 0 0 0-1.822-.443 3.93 3.93 0 0 0-2.743 1.045q-1.332 1.21-1.332 3.164c-.006.62.119 1.235.367 1.803a3.41 3.41 0 0 0 3.228 2.096 2.7 2.7 0 0 0 1.352-.312 3.5 3.5 0 0 0 1.084-1.056 10 10 0 0 1-.229 1.51q-.245 1.045-.698 1.54c-.302.329-.732.51-1.178.494q-1.286 0-1.553-1.345m.402-6.376a1.58 1.58 0 0 1 1.253-.609 1.6 1.6 0 0 1 1.333.657c.328.445.497.989.48 1.542a2.42 2.42 0 0 1-.465 1.487 1.648 1.648 0 0 1-2.743-.15c-.25-.408-.38-.88-.37-1.36a2.37 2.37 0 0 1 .512-1.567" clip-rule="evenodd"/><path fill="#fff" d="M9.22 4.2h4.057L8.259 15.8H4.186zM15.948 4.2h14.395l-1.49 3.445h-10.28l-2.042 4.71h10.285l-1.49 3.445H10.93z"/></svg>