<?xml version="1.0" encoding="utf-8"?>
<!-- Generator: Adobe Illustrator 24.2.0, SVG Export Plug-In . SVG Version: 6.00 Build 0)  -->
<svg version="1.0" id="Ebene_1" xmlns="http://www.w3.org/2000/svg" xmlns:xlink="http://www.w3.org/1999/xlink" x="0px" y="0px"
	 viewBox="0 0 24 24" enable-background="new 0 0 24 24" xml:space="preserve">
<g id="SVG_x5F_24x24pt">
	<path id="backgroundBlue" fill="#2D327D" d="M0,22.5v-21C0,0.675,0.675,0,1.5,0h21C23.325,0,24,0.675,24,1.5v21
		c0,0.825-0.675,1.5-1.5,1.5h-21C0.675,24,0,23.325,0,22.5z"/>
	<g id="content">
		<path fill="#FFFFFF" d="M18.749,7.5h-4.011V6.6c0-0.745-0.606-1.35-1.351-1.35h-2.775c-0.745,0-1.35,0.605-1.35,1.35V7.5H5.25
			c-1.242,0-2.251,1.007-2.251,2.25v9c0,1.242,1.009,2.25,2.251,2.25h13.499c1.243,0,2.251-1.007,2.251-2.25v-9
			C21.001,8.508,19.993,7.5,18.749,7.5L18.749,7.5z M13.688,7.5h-3.376V6.3h3.376V7.5L13.688,7.5z"/>
		<path fill="#EB0000" d="M9.772,8.925c-2.919,0-5.287,2.292-5.287,5.211c0,2.919,2.368,5.364,5.287,5.364
			c2.919,0,5.288-2.445,5.288-5.364C15.06,11.217,12.691,8.925,9.772,8.925L9.772,8.925z M9.772,18.095
			c-2.09,0-3.788-1.697-3.788-3.788c0-2.09,1.697-3.787,3.788-3.787c2.09,0,3.787,1.697,3.787,3.787
			C13.559,16.398,11.862,18.095,9.772,18.095L9.772,18.095z"/>
		<path d="M7.725,14.85h4.125c0.311,0,0.563-0.252,0.563-0.563c0-0.31-0.252-0.563-0.563-0.563H7.725
			c-0.311,0-0.562,0.252-0.562,0.563C7.163,14.598,7.414,14.85,7.725,14.85L7.725,14.85z"/>
		<g id="Zoll">
			<path d="M9.413,12.306v0.174l-0.568,0.679h0.586v0.193H8.546v-0.183l0.563-0.67H8.585v-0.193H9.413z"/>
			<path d="M9.919,12.549c0.114,0,0.206,0.038,0.279,0.113c0.071,0.074,0.107,0.174,0.107,0.298c0,0.128-0.038,0.231-0.114,0.307
				c-0.071,0.071-0.164,0.107-0.278,0.107c-0.122,0-0.219-0.04-0.291-0.119c-0.069-0.075-0.103-0.173-0.103-0.294
				c0-0.118,0.033-0.215,0.1-0.289C9.693,12.591,9.793,12.549,9.919,12.549z M9.908,12.711c-0.055,0-0.099,0.022-0.131,0.067
				c-0.033,0.045-0.049,0.106-0.049,0.184c0,0.081,0.016,0.142,0.049,0.185c0.033,0.043,0.079,0.065,0.137,0.065
				c0.054,0,0.097-0.02,0.128-0.059c0.036-0.044,0.054-0.108,0.054-0.191c0-0.078-0.016-0.139-0.047-0.183
				C10.015,12.734,9.968,12.711,9.908,12.711z"/>
			<path d="M10.652,12.306v1.047h-0.208v-1.047H10.652z"/>
			<path d="M11.03,12.306v1.047h-0.208v-1.047H11.03z"/>
		</g>
	</g>
</g>
</svg>
