<svg xmlns="http://www.w3.org/2000/svg" width="36" height="36" fill="none" viewBox="0 0 36 36"><path fill="#000" fill-rule="evenodd" d="M9.14 5.369a2 2 0 0 1-.26-.119q.1-.054.26-.119c.408-.16 1.027-.315 1.829-.448 1.594-.266 3.815-.433 6.281-.433s4.687.167 6.281.433c.802.133 1.42.288 1.828.448q.162.064.26.12a2 2 0 0 1-.26.118c-.407.16-1.027.315-1.828.449-1.594.266-3.815.432-6.281.432s-4.687-.166-6.281-.432c-.801-.134-1.42-.288-1.828-.449m16.586.93.024-.01v7.962c0 .194-.118.46-.517.774-.393.31-.992.61-1.778.872-1.565.522-3.76.853-6.205.853s-4.64-.331-6.205-.853c-.786-.262-1.385-.562-1.778-.872-.399-.314-.517-.58-.517-.774V6.29l.024.01c.504.198 1.203.366 2.03.504 1.664.277 3.942.446 6.446.446s4.782-.169 6.446-.446c.827-.138 1.526-.306 2.03-.505m1.024 7.952v-9c0-.322-.196-.551-.367-.69a2.5 2.5 0 0 0-.657-.36c-.504-.198-1.203-.367-2.03-.505-1.664-.277-3.943-.446-6.446-.446-2.504 0-4.782.17-6.446.446-.827.138-1.526.307-2.03.505a2.5 2.5 0 0 0-.657.36c-.17.139-.367.368-.367.69v9c0 .633.386 1.156.898 1.56.404.318.929.598 1.54.839.354.994 1.259 1.802 2.404 2.366 1.26.62 2.888.985 4.658.985s3.398-.366 4.658-.985c1.144-.564 2.049-1.372 2.403-2.365.611-.242 1.137-.522 1.541-.84.512-.404.898-.928.898-1.56m-13.716 3.867c-.604-.296-1.074-.642-1.407-1.008 1.57.404 3.521.64 5.623.64 2.101 0 4.052-.236 5.622-.64-.332.366-.803.712-1.406 1.008-1.102.543-2.575.883-4.216.883s-3.114-.34-4.216-.883M25.779 5.14l.003-.003zm-17.058 0-.003-.003zm.026 11.981.742 6.82v.003l.004.025.015.102c.015.09.037.223.07.388.066.332.173.79.335 1.298.328 1.031.862 2.197 1.686 2.944 2.088 1.89 3.57 3 5.651 3s3.565-1.11 5.65-3c.825-.747 1.359-1.913 1.687-2.944a12 12 0 0 0 .42-1.788l.004-.025v-.003l.742-6.82.994.108-.742 6.825-.001.008-.483-.06.483.06v.005l-.002.009-.005.032-.018.12q-.023.155-.076.427c-.072.358-.187.854-.363 1.405-.345 1.086-.947 2.456-1.968 3.382-2.075 1.88-3.818 3.258-6.322 3.258s-4.246-1.378-6.322-3.258c-1.021-.926-1.623-2.296-1.968-3.382a13 13 0 0 1-.457-1.951l-.005-.033-.001-.01v-.003L8.991 24l-.496.062v-.008l-.743-6.825zM17.25 27.25c-.958 0-1.81-.336-2.435-.686a6 6 0 0 1-.917-.63l-.046-.04-.01-.009-.342.365-.341.365v.001l.003.002.005.005.018.016.064.056q.082.07.232.186c.199.152.486.354.845.555.714.4 1.737.814 2.924.814s2.21-.414 2.924-.814a7 7 0 0 0 1.077-.741l.064-.056.018-.016.005-.005.002-.002h.001L21 26.25l-.341-.366-.001.001-.01.009-.046.04a6.19 6.19 0 0 1-.917.63c-.625.35-1.477.686-2.435.686m3.601-16L18.45 9h1.8l3 3-3 3h-1.8l2.401-2.25H18V15h-1.5v-2.25h-2.85l2.4 2.25h-1.8l-3-3 3-3h1.8l-2.4 2.25h2.85V9H18v2.25zm-5.55 11.55c0-.6-.45-1.2-1.2-1.2s-1.2.45-1.2 1.2c0 .6.45 1.2 1.2 1.2s1.2-.45 1.2-1.2m6 0c0-.6-.45-1.2-1.2-1.2s-1.2.45-1.2 1.2c0 .6.45 1.2 1.2 1.2s1.2-.45 1.2-1.2" clip-rule="evenodd"/></svg>