<svg xmlns="http://www.w3.org/2000/svg" width="36" height="36" fill="none" viewBox="0 0 36 36"><path fill="#000" fill-rule="evenodd" d="M4.5 6.5V3h1v21.206l2.264-3.456H7.5v-1h.92l2.293-3.5H7.5v-1h3.868l.882-1.347V11.75H7.5v-1h4.75V7.5H7.5v-1h4.75V3h1v3.5H15v1h-1.75v3.25h1.066l2.293-3.5H16.5v-1h.764l1.818-2.774.836.548-14.25 21.75-.168-.11V28.5h-1v-3H3v-1h1.5V21H3v-1h1.5v-3.5H3v-1h1.5V12H3v-1h1.5V7.5H3v-1zm8.75 5.25v.627l.41-.627zM25.252 7.5l-2.284 3.25H18v1h7.5v-1h-1.31l2.285-3.25H28.5v-1h-1.322l1.731-2.462-.818-.576L25.955 6.5H21v1zM16.68 19.75l1.251-1.792.82.573-.851 1.219H19.5v1h-2.3l-2.444 3.5H16.5v1h-2.442l-.808 1.157V28.5h-1v-2.407l.09-.13.498-.713H9v-1h4.537l2.444-3.5H12v-1zm6.363-5a.78.78 0 0 0-.782.782v15.436c0 .432.35.782.782.782h7.936c.432 0 .782-.35.782-.782V15.532a.78.78 0 0 0-.782-.782zm-1.782.782c0-.984.798-1.782 1.782-1.782h7.936c.984 0 1.782.798 1.782 1.782v15.436c0 .984-.798 1.782-1.782 1.782h-7.936a1.78 1.78 0 0 1-1.782-1.782zm3.49.718h4.5v-1h-4.5z" clip-rule="evenodd"/></svg>