<svg xmlns="http://www.w3.org/2000/svg" width="36" height="36" fill="none" viewBox="0 0 36 36"><path fill="#000" fill-rule="evenodd" d="M25.5 5.749h4.043l-5.897 5.896.708.707 5.896-5.896v4.043h1v-5.75H25.5zM3 14.75h.52v-1H3zm1.563 0h1.041v-1H4.563zm2.083 0h1.042v-1H6.646zm2.083 0h1.042v-1H8.729zm2.084 0h1.041v-1h-1.041zm2.083 0h1.041v-1h-1.041zm2.083 0h1.042v-1h-1.042zm2.084 0h1.041v-1h-1.041zm2.083 0h1.041v-1h-1.041zm2.083 0h.021v.021h1v-1.02h-1.02zm.021 1.063v1.042h1v-1.042zm0 2.083v1.042h1v-1.042zm0 2.084v1.041h1V19.98zm0 2.083v1.042h1v-1.042zm0 2.083v1.042h1v-1.042zm0 2.084v1.041h1V26.23zm0 2.083v1.042h1v-1.042zm0 2.083v1.042h1v-1.042zm0 2.084V33h1v-.52z" clip-rule="evenodd"/></svg>