<svg xmlns="http://www.w3.org/2000/svg" width="48" height="48" fill="none" viewBox="0 0 48 48"><path fill="#000" fill-rule="evenodd" d="m20 5.989.104.022 9.5 2 .396.083V8.5c0 8.15-3.746 15.223-9.69 19.893l-.31.243-.308-.243C13.747 23.723 10 16.651 10 8.5v-.406l.397-.083 9.5-2zm-8.996 2.916c.12 7.517 3.559 14.045 8.997 18.455 5.438-4.41 8.877-10.938 8.996-18.455L20 7.011zm8.867 9.931 5-5.5-.74-.672-4.648 5.112-2.629-2.63-.707.708 3 3 .37.37zm-3.163 13.552-8.662-5.851a2.49 2.49 0 0 0-3.496.401 2.5 2.5 0 0 0 .381 3.507l12.245 10.436.14.119h7.977l1.854 1.854.146.146h16.689l-1.179-.898-10.652-8.114-.315-.26C29.841 32.08 27.411 30.07 23.73 30H19.5c-.878 0-1.583.29-2.07.768a2.42 2.42 0 0 0-.722 1.62m-9.237-5.034 9.664 6.53a2.4 2.4 0 0 0 .294.348c.488.478 1.193.768 2.071.768h4v-1h-4c-.651 0-1.093-.21-1.37-.482a1.42 1.42 0 0 1-.425-1.018c0-.373.143-.742.424-1.018.277-.272.72-.482 1.371-.482h4.216c3.32.065 5.502 1.865 7.523 3.532l.284.234.007.006.008.006L41.018 42h-13.31l-1.854-1.853-.146-.147h-8.023L5.575 29.68l-.006-.005-.006-.005a1.5 1.5 0 0 1-.233-2.107l.002-.002a1.49 1.49 0 0 1 2.106-.231l.016.013zM20.099 8.01 20 7.99l-.098.02-7.5 1.5-.445.089.046.451c.622 6.13 3.467 11.75 7.65 15.809l.348.338.348-.339c4.182-4.069 7.027-9.677 7.649-15.808l.046-.451-.445-.09zM20 24.796A24.82 24.82 0 0 1 13.048 10.4L20 9.01l6.953 1.39c-.668 5.543-3.226 10.618-6.953 14.396" clip-rule="evenodd"/></svg>