<svg class="color-immutable" xmlns="http://www.w3.org/2000/svg" width="59" height="20" fill="none" viewBox="0 0 59 20"><path fill="#E84E10" fill-rule="evenodd" d="M2 0a2 2 0 0 0-2 2v16a2 2 0 0 0 2 2h55a2 2 0 0 0 2-2V2a2 2 0 0 0-2-2z" clip-rule="evenodd"/><path fill="#000" d="M14.153 4.17v2.142H7.98v2.476h5.657v1.991H7.98v2.849h6.284v2.142H5.45V4.17zM25.311 4.17l-3.856 11.6h-2.88l-3.8-11.6h2.65l2.61 8.688 2.65-8.688zM25.504 7.843q.04-1.427.706-2.396 1.08-1.555 3.245-1.555 1.667 0 2.69.849 1.103.92 1.103 2.38 0 .873-.436 1.508-.429.626-1.167.849.936.214 1.476.952.547.738.547 1.785 0 1.722-1.269 2.817-1.174 1.016-2.968 1.016-1.944 0-3.086-1.119-1.134-1.12-1.135-3.023v-.15h2.23q0 1.07.508 1.658.507.579 1.436.579t1.428-.548q.46-.516.46-1.23 0-.856-.587-1.357-.483-.412-1.492-.412-.285 0-.563.032V8.772q.207.015.397.016 2 0 2-1.484 0-.65-.437-1.048-.436-.404-1.15-.404-.818 0-1.262.508t-.476 1.483zM42.415 13.707v2.063H34.06q0-.945.301-1.801a4.4 4.4 0 0 1 .865-1.476 8 8 0 0 1 1-.928q.579-.453 2.293-1.659.833-.578 1.166-1.079a2.04 2.04 0 0 0 .333-1.158q0-.762-.452-1.23-.444-.476-1.174-.476-1.794 0-1.849 2.579h-2.23v-.254q0-2.11 1.183-3.27 1.15-1.126 2.975-1.126 1.62 0 2.706.92 1.182 1 1.182 2.69 0 1.476-.944 2.54-.31.348-.58.563-.27.206-1.42 1.007-1.095.762-1.57 1.167a6.4 6.4 0 0 0-.873.928z"/></svg>