<svg xmlns="http://www.w3.org/2000/svg" width="24" height="24" fill="none" viewBox="0 0 24 24"><path fill="#000" fill-rule="evenodd" d="M4 2h16v20H4V2m1 1v18h14V3zm13 2h-5v1h5zm0 2h-5v1h5zm-5 2h5v1h-5zm4 4H6v1h11zM6 15h11v1H6zm2.02 3.01h-2v1h2zm2 0h2v1h-2zm6 0h-2v1h2zM8.25 6c0-.642.417-1 .75-1s.75.358.75 1S9.333 7 9 7s-.75-.358-.75-1M9 4c-1.048 0-1.75.985-1.75 2 0 .486.161.966.444 1.333a4.38 4.38 0 0 0-1.693 3.693l.998-.052A3.38 3.38 0 0 1 8.567 7.94a1.6 1.6 0 0 0 .846.005A3.4 3.4 0 0 1 11 10.978l.999.044a4.4 4.4 0 0 0-1.703-3.677c.288-.369.453-.853.453-1.345 0-1.015-.702-2-1.75-2" clip-rule="evenodd"/></svg>