<svg class="color-immutable" xmlns="http://www.w3.org/2000/svg" width="59" height="20" fill="none" viewBox="0 0 59 20"><g clip-path="url(#a)"><path fill="#EB0000" fill-rule="evenodd" d="M2 0a2 2 0 0 0-2 2v16a2 2 0 0 0 2 2h55a2 2 0 0 0 2-2V2a2 2 0 0 0-2-2z" clip-rule="evenodd"/><path fill="#fff" d="M9.22 4.2h4.057L8.259 15.8H4.186zM15.948 4.2h14.395l-1.49 3.445h-10.28l-2.042 4.71h10.285l-1.49 3.445H10.93zM38.35 9.59q-.808-.279-1.243-.91-.426-.633-.427-1.535 0-1.503 1.234-2.397 1.092-.79 2.595-.791 1.709 0 2.792.941 1.028.886 1.028 2.191 0 .91-.435 1.559t-1.234.941q.625.182 1.02.467 1.1.798 1.1 2.333 0 1.764-1.352 2.808-1.14.878-2.927.878-1.938 0-3.085-.965-1.194-1.004-1.195-2.634 0-1.527 1.06-2.365a2.9 2.9 0 0 1 1.068-.522m2.127-3.837q-.76 0-1.226.427-.467.42-.467 1.107 0 .72.467 1.155.474.427 1.266.427.79 0 1.25-.427.458-.427.458-1.163 0-.72-.467-1.123-.458-.403-1.28-.403m-.016 4.706q-.854 0-1.4.53-.537.522-.538 1.345 0 .846.546 1.376.554.53 1.432.53.996 0 1.495-.585.482-.562.482-1.297 0-.84-.553-1.377-.53-.522-1.464-.522M53.402 4.234v1.962q-.094.103-.561.64-.65.743-1.29 1.875-.641 1.124-.996 2.16-.752 2.16-.91 4.928h-2.389q.024-1.305.451-2.896.435-1.59 1.194-3.18 1.084-2.245 2.2-3.345h-5.459V4.234z"/></g><defs><clipPath id="a"><path fill="#fff" d="M0 0h59v20H0z"/></clipPath></defs></svg>