<svg xmlns="http://www.w3.org/2000/svg" width="18" height="16" fill="none" viewBox="0 0 18 16"><path fill="#000" d="M13.937 2.5a1.5 1.5 0 1 1-3 0 1.5 1.5 0 0 1 3 0M1.478 3.551a.75.75 0 0 1 .971.427L5.763 12.5h5.487a.75.75 0 0 1 0 1.5H4.737L1.05 4.522a.75.75 0 0 1 .427-.971"/><path fill="#000" d="M13.087 6.015 10.53 10h2.7l.178.395q.034.06.055.123l1.534 3.423a.75.75 0 0 1-1.361.628l-1.357-3.052H9.086c-1.622 0-2.14-1.321-1.156-2.935l.371-.607.21-.345.335-.548.99-1.61c.207-.339.578-.517.95-.494h5.313a.52.52 0 1 1 0 1.037z"/><path fill="#000" d="M15.745 6.534h.692v8.48h-.692z"/></svg>