<svg xmlns="http://www.w3.org/2000/svg" width="36" height="36" fill="none" viewBox="0 0 36 36"><path fill="#000" fill-rule="evenodd" d="M18 6.262a8.75 8.75 0 0 0-8.75 8.75v.02c.06 1.51.509 2.78 1.22 3.965l.007.01 7.125 11.249.422.667.422-.667 7.125-11.249.007-.01.005-.01c.694-1.216 1.154-2.512 1.167-3.97v-.005A8.75 8.75 0 0 0 18 6.262m-6.675 12.215c-.635-1.058-1.022-2.163-1.075-3.475a7.75 7.75 0 0 1 15.5.008c-.011 1.237-.398 2.362-1.03 3.472l-6.696 10.572zm4.923 1.328v-3.7h2.29q1.282 0 1.683.173 1.03.43 1.03 1.709-.001 1.136-.764 1.566-.448.252-1.741.252zm0-4.82v-3.268h2.374q1.004 0 1.346.136.41.164.634.554.229.388.229.933-.001.546-.263.955-.262.41-.702.554-.44.136-1.366.136zm2.556-4.474h-3.805v10.501h4.394q1.068 0 1.721-.38 1.391-.821 1.392-2.695 0-1.429-.996-2.176-.293-.223-.822-.381a2.2 2.2 0 0 0 1.026-.876q.372-.596.372-1.365 0-.725-.34-1.34a2.34 2.34 0 0 0-.923-.937q-.634-.351-2.019-.351" clip-rule="evenodd"/></svg>