<svg xmlns="http://www.w3.org/2000/svg" width="36" height="36" fill="none" viewBox="0 0 36 36"><path fill="#000" fill-rule="evenodd" d="M9.263 6.25h9.694l.146.147 7.5 7.5.147.146v15.708H9.25v-.5l.013-22.5zm1 1-.013 21.5h15.5v-14h-7.5v-7.5zm8.987.708 5.793 5.793H19.25zm-4.536 16.691 1.446-2.145h-1.09l-.903 1.443-.893-1.443h-1.15l1.464 2.145L12 27.001h1.123l1.002-1.563.984 1.563h1.182zm9.292-.812h-.936q-.027-.329-.245-.504-.217-.174-.607-.172-.35-.002-.54.135a.44.44 0 0 0-.192.384q0 .221.184.318.18.1.905.279.766.19 1.062.384.542.356.543.993 0 .698-.548 1.1-.481.358-1.306.356-.916 0-1.424-.42-.508-.417-.526-1.19h.976q.022.374.195.557.27.29.815.288.368.002.585-.144a.52.52 0 0 0 .243-.451q0-.285-.34-.419-.189-.074-.887-.267a6 6 0 0 1-.683-.228 1.5 1.5 0 0 1-.394-.24q-.345-.308-.345-.85 0-.646.54-1.025.457-.325 1.19-.325.642 0 1.076.255.624.367.659 1.186m-4.081 3.165v-.831h-2.2v-3.666h-.982v4.497z" clip-rule="evenodd"/></svg>