<svg width="48" height="48" viewBox="0 0 48 48" fill="none" xmlns="http://www.w3.org/2000/svg"><path fill-rule="evenodd" clip-rule="evenodd" d="m4.146 2.388.483.13 11.592 3.105.57.153-.245.537-.385.847 2.086.559.57.153-.244.537-1.26 2.768-.175.386-.41-.11-2.246-.602-.455.999-.175.385-.41-.11L8 10.668V15H2v-1h5v-3.6L2.818 9.278l-.483-.13.13-.483 1.552-5.795.13-.483Zm9.357 8.2.244-.537 1.26-2.768.385-.847L4.854 3.612l-1.295 4.83 9.734 2.608.21-.461Zm1.399-.66 1.677.45.84-1.846-1.678-.45-.84 1.846Zm17.986 1.585.188-.043.168.094 12.5 7 .256.143v3.146l-.744-.417-12.332-6.905-30.312 6.956-.612.14v-3.025l.388-.09 30.5-7ZM45 19.293l-12.076-6.762L3 19.398v.974l29.888-6.86.188-.042.168.094L45 20.147v-.854ZM36.999 20h-7v1h6l-3.75 5H22.158l-.125.318-1.59 4.063a8 8 0 1 0 .931.365L22.84 27h9.344l1.919 4.012A8 8 0 0 0 38 46c4.42 0 8-3.58 8-8a8 8 0 0 0-10.995-7.42l-1.924-4.022 4.318-5.758.6-.8h-1Zm-2.464 11.916 3.014 6.3.902-.432-3.014-6.3A7 7 0 0 1 45 38c0 3.867-3.133 7-7 7a7 7 0 0 1-3.465-13.084Zm-17.002 5.902 2.545-6.504a7 7 0 1 0 .931.365l-2.544 6.503-.932-.364ZM24 23h-5v-1h5v1Z" fill="#000"/></svg>