<svg class="color-immutable" xmlns="http://www.w3.org/2000/svg" width="59" height="20" fill="none" viewBox="0 0 59 20"><g fill="#EB0000" clip-path="url(#a)"><path d="M57.208 1c.439 0 .795.358.795.8v16.4c0 .442-.356.8-.795.8H1.792a.8.8 0 0 1-.795-.8V1.8c0-.442.356-.8.795-.8zm0-1H1.792C.803 0 0 .806 0 1.8v16.4c0 .994.803 1.8 1.792 1.8h55.416c.99 0 1.792-.806 1.792-1.8V1.8c0-.994-.803-1.8-1.792-1.8"/><path d="M4.16 4.234h5.6q1.662 0 2.547.522.735.427 1.124 1.139.387.712.387 1.606 0 1.013-.49 1.764-.483.751-1.353 1.076a1.95 1.95 0 0 1 1.203.854q.276.42.371.878t.245 2.096q.111 1.203.34 1.495l.111.135h-2.634a2 2 0 0 1-.197-.625q-.056-.38-.15-1.756-.095-1.227-.602-1.693-.498-.475-1.709-.475h-2.27V15.8H4.16zm2.523 1.985V9.4h2.413q1.162 0 1.637-.332.601-.42.601-1.266 0-.822-.514-1.202T9.2 6.219zM24.647 4.234V6.37h-6.154v2.468h5.64v1.985h-5.64v2.84h6.265v2.136H15.97V4.234zM33.83 7.121h-2.198q-.309-1.337-1.519-1.337-1.28 0-1.82 1.574-.22.642-.355 1.938.522-.703 1.107-1.012.594-.309 1.424-.309 1.63 0 2.618 1.155.942 1.092.942 2.737 0 1.955-1.266 3.14-1.14 1.068-2.737 1.068-2.049 0-3.188-1.542-1.139-1.55-1.139-4.319 0-2.958 1.218-4.635 1.18-1.622 3.22-1.622 1.922 0 2.942 1.29.585.743.752 1.874m-3.915 2.65q-.83 0-1.32.696-.444.617-.444 1.471 0 .847.451 1.48.491.704 1.345.704.831 0 1.337-.673.474-.633.474-1.495 0-.847-.427-1.447-.522-.736-1.416-.736"/></g><defs><clipPath id="a"><path fill="#fff" d="M0 0h59v20H0z"/></clipPath></defs></svg>