<svg xmlns="http://www.w3.org/2000/svg" width="24" height="24" fill="none" viewBox="0 0 24 24"><path fill="#000" fill-rule="evenodd" d="M4 4.5c0-.257.243-.5.5-.5s.5.243.5.5-.243.5-.5.5a.527.527 0 0 1-.5-.5M4.5 3C3.69 3 3 3.69 3 4.5S3.69 6 4.5 6 6 5.31 6 4.5 5.31 3 4.5 3m-2 4.004H2v8h1V21h1v-5.996h1V21h1v-5.996h1v-8H2.5m.5 7v-6h3v6zM10 21v-2.996H8.448l.054-.55.5-5 .045-.45h4.906l.045.45.5 5 .055.55H13V21h-1v-2.996h-1V21zm7 0v-2.996h-1.553l.056-.55.5-5 .044-.45h4.906l.044.45.5 5 .055.55H20V21h-1v-2.996h-1V21zm-.448-3.996h3.896l-.4-4h-3.095zM18 9.5c0-.257.243-.5.5-.5s.5.243.5.5-.243.5-.5.5a.527.527 0 0 1-.5-.5m.5-1.5c-.81 0-1.5.69-1.5 1.5s.69 1.5 1.5 1.5 1.5-.69 1.5-1.5S19.31 8 18.5 8m-8.948 9.004h3.896l-.4-4H9.952zM11 9.5c0-.257.243-.5.5-.5s.5.243.5.5-.243.5-.5.5a.527.527 0 0 1-.5-.5m.5-1.5c-.81 0-1.5.69-1.5 1.5s.69 1.5 1.5 1.5 1.5-.69 1.5-1.5S12.31 8 11.5 8" clip-rule="evenodd"/></svg>