<svg xmlns="http://www.w3.org/2000/svg" width="48" height="48" version="1.1" viewBox="0 0 48 48">
  <path fill="none" fill-rule="evenodd" stroke="#000" stroke-width="1" d="M2,39.4902 L46,39.4902 M6,35.4902 L2,35.4902 M7,35.4902 L12.988,35.4902 L14.984,35.4902 L37.954,35.4902 C40.465,35.4902 42.5,33.4532 42.5,30.9392 C42.5,29.3882 41.644,27.9642 40.274,27.2382 L19.065,15.9992 C17.196,15.0092 15.114,14.4902 12.999,14.4902 L10.592,14.4902 L6,14.4902 M2,14.4902 L5,14.4902 M6,31.4668 L4,31.4668 M12,31.4668 L8,31.4668 M42.4121,31.4668 L20.4421,31.4668 L12.9791,31.4668 M19.8335,16.4141 L19.4805,16.9131 C18.1705,18.7661 18.7235,21.4761 20.7895,22.4111 C20.8045,22.4181 20.8195,22.4251 20.8355,22.4321 L25.2735,24.3791 C26.9565,25.1181 28.7745,25.4991 30.6125,25.4991 L36.9915,25.4991 M5,25.4902 L11.62,25.4902 L13.318,25.4902 C14.699,25.4902 15.818,24.3712 15.818,22.9902 C15.818,21.6102 14.699,20.4902 13.318,20.4902 L12.376,20.4902 L9.78,20.4902 L3,20.4902 M2,25.4902 L4,25.4902 M7.4258,14.4746 L9.4258,11.9746 L4.4258,9.4746 M2.4258,10.1807 C2.4258,10.1807 2.8838,9.4757 3.4258,9.4747 L7.4258,9.4747 C8.0338,9.4707 8.4258,10.1807 8.4258,10.1807 M7.5,22.9902 L7.5,25.4902 L7.5,22.9902 L7.5,20.4902 L7.5,22.9902 Z M18.5,35.5 C18.5,37.709 16.709,39.5 14.5,39.5 C12.291,39.5 10.5,37.709 10.5,35.5 M29.501,35.5 C29.501,37.709 27.71,39.5 25.501,39.5 C23.292,39.5 21.501,37.709 21.501,35.5 M29.0498,37.3086 L36.9998,37.3086 L36.3268,35.4906 M3.9976,37.3086 L10.9516,37.3086 M18.0488,37.3086 L21.9518,37.3086"/>
</svg>
