<svg class="color-immutable" xmlns="http://www.w3.org/2000/svg" width="59" height="20" fill="none" viewBox="0 0 59 20"><path fill="#E84E10" fill-rule="evenodd" d="M2 0a2 2 0 0 0-2 2v16a2 2 0 0 0 2 2h55a2 2 0 0 0 2-2V2a2 2 0 0 0-2-2z" clip-rule="evenodd"/><path fill="#000" d="M14.153 4.17v2.142H7.98v2.476h5.657v1.991H7.98v2.849h6.284v2.142H5.45V4.17zM25.311 4.17l-3.856 11.6h-2.88l-3.8-11.6h2.65l2.61 8.688 2.65-8.688zM31.225 4.17v11.6h-2.317V8.177h-2.73V6.495q.849-.024 1.38-.175.54-.15.985-.492.643-.491.865-1.658zM42.129 4.17v1.967q-.095.104-.563.643-.65.746-1.294 1.88a13 13 0 0 0-1 2.167q-.753 2.166-.912 4.943h-2.396q.023-1.309.452-2.904.436-1.594 1.198-3.19 1.087-2.253 2.206-3.356h-5.554V4.17z"/></svg>