<svg xmlns="http://www.w3.org/2000/svg" width="48" height="48" version="1.1" viewBox="0 0 48 48">
  <path fill="none" fill-rule="evenodd" stroke="#000" stroke-width="1" d="M31.5,16 C31.5,20.143 28.143,23.5 24,23.5 C19.858,23.5 16.5,20.143 16.5,16 C16.5,11.857 19.858,8.5 24,8.5 C28.143,8.5 31.5,11.857 31.5,16 Z M35.5,16.0029 C35.5,9.6499 30.352,4.4999 24,4.4999 C17.649,4.4999 12.5,9.6499 12.5,16.0029 C12.577,17.9759 13.162,19.6349 14.101,21.2009 L24.033,36.9999 L33.965,21.2009 C34.892,19.5759 35.483,17.8869 35.5,16.0029 Z M17.0171,30.5918 C9.6791,31.4838 4.5001,33.7368 4.5001,36.3418 C4.5001,39.7168 13.1861,42.4998 24.0001,42.4998 C34.8131,42.4998 43.5001,39.7168 43.5001,36.3418 C43.5001,33.7398 38.3371,31.4898 31.0171,30.5958"/>
</svg>
