<?xml version="1.0" encoding="utf-8"?>
<!-- Generator: Adobe Illustrator 24.2.0, SVG Export Plug-In . SVG Version: 6.00 Build 0)  -->
<svg version="1.0" id="Ebene_1" xmlns="http://www.w3.org/2000/svg" xmlns:xlink="http://www.w3.org/1999/xlink" x="0px" y="0px"
	 viewBox="0 0 24 24" enable-background="new 0 0 24 24" xml:space="preserve">
<g id="SVG_x5F_24x24pt">
	<path id="backgroundBlue" fill="#2D327D" d="M0,22.5v-21C0,0.675,0.675,0,1.5,0h21C23.325,0,24,0.675,24,1.5v21
		c0,0.825-0.675,1.5-1.5,1.5h-21C0.675,24,0,23.325,0,22.5z"/>
	<g id="content">
		<path fill="#FFFFFF" d="M20.25,8.25H21V7.5h-5.662c-0.207,0-0.375,0.168-0.375,0.375c0,0.207,0.168,0.375,0.375,0.375h0.525
			l-0.375,2.251h-4.612v2.25h1.313L11.813,15H2.776l2.25,4.267l1.606-0.339c0.287-0.037,0.577-0.059,0.868-0.066
			c0.291,0.006,0.581,0.029,0.868,0.066l2.52,0.532c0.366,0.076,0.739,0.114,1.112,0.115c0.373-0.001,0.746-0.039,1.111-0.115
			l2.52-0.532c0.289-0.037,0.579-0.059,0.869-0.066c0.29,0.006,0.58,0.029,0.869,0.066l2.519,0.532
			c0.367,0.076,0.739,0.114,1.113,0.115V15h-0.75c-0.207,0-0.375-0.168-0.375-0.375v-1.5c0-0.206,0.168-0.374,0.375-0.374H21v-2.25
			h-0.75c-0.207,0-0.375-0.169-0.375-0.376v-1.5C19.875,8.418,20.043,8.25,20.25,8.25L20.25,8.25z M15.525,14.625
			c0,0.206-0.168,0.375-0.374,0.375H12.94c-0.207,0-0.375-0.169-0.375-0.375c0-0.02,0.003-0.041,0.006-0.061l0.25-1.5
			c0.031-0.181,0.187-0.313,0.37-0.313h1.961c0.206,0,0.374,0.168,0.374,0.374V14.625L15.525,14.625z M19.201,14.625
			c0,0.206-0.168,0.375-0.375,0.375h-2.25c-0.207,0-0.375-0.169-0.375-0.375v-1.5c0-0.206,0.168-0.374,0.375-0.374h2.25
			c0.207,0,0.375,0.168,0.375,0.374V14.625L19.201,14.625z M19.201,10.125c0,0.207-0.168,0.376-0.375,0.376h-2.211
			c-0.206,0-0.374-0.169-0.374-0.376c0-0.021,0.001-0.041,0.005-0.062l0.25-1.499c0.031-0.18,0.187-0.313,0.371-0.313h1.96
			c0.207,0,0.375,0.168,0.375,0.375V10.125L19.201,10.125z"/>
		<path fill="#FFFFFF" d="M17.25,19.632c-0.25-0.032-0.5-0.05-0.751-0.056c-0.251,0.006-0.502,0.024-0.75,0.056l-2.492,0.525
			c-0.414,0.087-0.835,0.13-1.258,0.131c-0.423-0.001-0.843-0.044-1.258-0.131L8.25,19.632C8,19.6,7.75,19.582,7.499,19.576
			c-0.251,0.006-0.501,0.024-0.75,0.056l-2.493,0.525C3.843,20.245,3.423,20.287,3,20.288V21c0.471-0.001,0.941-0.048,1.403-0.145
			l2.464-0.52c0.21-0.025,0.421-0.041,0.633-0.047c0.212,0.007,0.423,0.022,0.634,0.047l2.463,0.52
			c0.462,0.097,0.932,0.144,1.404,0.145c0.472-0.001,0.942-0.048,1.404-0.145l2.464-0.52c0.209-0.025,0.421-0.041,0.633-0.047
			c0.212,0.007,0.423,0.022,0.634,0.047l2.463,0.52C20.058,20.952,20.528,20.999,21,21v-0.712c-0.423-0.001-0.844-0.044-1.259-0.131
			L17.25,19.632L17.25,19.632z"/>
	</g>
</g>
</svg>
