<svg xmlns="http://www.w3.org/2000/svg" width="36" height="36" fill="none" viewBox="0 0 36 36"><path fill="#000" fill-rule="evenodd" d="M17.75 8.25a1 1 0 1 1 2 0 1 1 0 0 1-2 0m1-2a2 2 0 0 0-1.723 3.016l-7.761 7.76a2 2 0 1 0 0 3.446l7.76 7.762a2 2 0 1 0 3.446 0l7.762-7.761a2 2 0 1 0 0-3.446l-7.76-7.761A2 2 0 0 0 18.75 6.25m8.563 13h-5.098a3.5 3.5 0 0 1-2.966 2.965v5.098q.277.072.517.214l7.76-7.761a2 2 0 0 1-.213-.516m0-1h-5.098a3.5 3.5 0 0 0-2.965-2.965v-5.098q.276-.072.516-.214l7.76 7.761a2 2 0 0 0-.213.516m-12.028 1a3.5 3.5 0 0 0 2.964 2.965v5.098q-.276.072-.515.214l-7.76-7.761q.141-.24.213-.517zm-5.098-1h5.099a3.5 3.5 0 0 1 2.964-2.965v-5.098a2 2 0 0 1-.516-.214l-7.761 7.76q.142.24.214.516m8.563-2a2.5 2.5 0 1 0 0 5 2.5 2.5 0 0 0 0-5m10.5 1.5a1 1 0 1 0 0 2 1 1 0 0 0 0-2m-11.5 11.5a1 1 0 1 1 2 0 1 1 0 0 1-2 0m-9.5-11.5a1 1 0 1 0 0 2 1 1 0 0 0 0-2" clip-rule="evenodd"/></svg>