<svg class="color-immutable" xmlns="http://www.w3.org/2000/svg" width="59" height="20" fill="none" viewBox="0 0 59 20"><g fill="#EB0000" clip-path="url(#a)"><path d="M57.208 1c.439 0 .795.358.795.8v16.4c0 .442-.356.8-.795.8H1.792a.8.8 0 0 1-.795-.8V1.8c0-.442.356-.8.795-.8zm0-1H1.792C.803 0 0 .806 0 1.8v16.4c0 .994.803 1.8 1.792 1.8h55.416c.99 0 1.792-.806 1.792-1.8V1.8c0-.994-.803-1.8-1.792-1.8"/><path d="M4.16 4.234h5.6q1.662 0 2.547.522.735.427 1.124 1.139.387.712.387 1.606 0 1.013-.49 1.764-.483.751-1.353 1.076a1.95 1.95 0 0 1 1.203.854q.276.42.371.878t.245 2.096q.111 1.203.34 1.495l.111.135h-2.634a2 2 0 0 1-.197-.625q-.056-.38-.15-1.756-.095-1.227-.602-1.693-.498-.475-1.709-.475h-2.27V15.8H4.16zm2.523 1.985V9.4h2.413q1.162 0 1.637-.332.601-.42.601-1.266 0-.822-.514-1.202T9.2 6.219zM24.647 4.234V6.37h-6.154v2.468h5.64v1.985h-5.64v2.84h6.265v2.136H15.97V4.234zM33.451 4.234V6.29h-4.659l-.498 2.602q.838-.886 2.143-.886 1.282 0 2.231.688 1.408 1.036 1.408 3.149 0 2.072-1.503 3.282-1.17.95-2.8.95-1.835 0-2.95-.982-1.116-.988-1.18-2.665h2.271q.055.609.396 1.036.53.672 1.47.672.91 0 1.44-.656.515-.641.515-1.558 0-.997-.538-1.59-.538-.602-1.432-.602-1.092 0-1.7.981L26 10.681l1.1-6.447zM34.915 12.896h2.183q.27 1.344 1.558 1.344.727 0 1.179-.49.459-.498.704-1.543.158-.664.23-1.51-.53.743-1.093 1.06-.554.308-1.352.308-1.274 0-2.215-.744a3.54 3.54 0 0 1-1.028-1.352 4.4 4.4 0 0 1-.364-1.804q0-1.953 1.337-3.164 1.147-1.044 2.752-1.044.99 0 1.828.443a3.96 3.96 0 0 1 1.408 1.258q1.005 1.447 1.004 4.066 0 2.42-.886 4.129-1.155 2.222-3.496 2.222-1.558 0-2.579-.862-1.012-.862-1.17-2.317m3.844-6.985q-.744 0-1.258.609-.514.616-.514 1.566 0 .768.372 1.36.506.816 1.424.815.83 0 1.329-.664.465-.625.466-1.487 0-.91-.482-1.543a1.6 1.6 0 0 0-1.337-.656"/></g><defs><clipPath id="a"><path fill="#fff" d="M0 0h59v20H0z"/></clipPath></defs></svg>