<svg xmlns="http://www.w3.org/2000/svg" width="36" height="36" fill="none" viewBox="0 0 36 36"><path fill="#000" fill-rule="evenodd" d="M12 3.25h2.75v3h13.377l.104.363c.21.734.46 1.705.695 2.652q.16-.015.324-.015c1.93 0 3.5 1.57 3.5 3.5s-1.57 3.5-3.5 3.5c-1.931 0-3.5-1.57-3.5-3.5 0-1.473.913-2.736 2.204-3.252-.163-.656-.333-1.32-.49-1.906-1.268.975-2.755 2.231-3.992 3.305a170 170 0 0 0-2.32 2.05l-.142.129-.036.033-.01.008-.002.002-.337-.369.336.37-.143.13H10.215a3.505 3.505 0 0 1-3.465 3c-1.931 0-3.5-1.57-3.5-3.5a3.503 3.503 0 0 1 5.005-3.16L9.25 8.1V5.75H7.5v-1h2.75v3.651l-.084.126-1.08 1.62a3.5 3.5 0 0 1 1.128 2.103h3.536v-8H12zm-2.8 10a2.505 2.505 0 0 1-2.45 2 2.503 2.503 0 0 1-2.5-2.5 2.503 2.503 0 0 1 3.443-2.315l-1.359 2.038-.518.777H9.2m-.676-2.26-.84 1.26H9.2a2.5 2.5 0 0 0-.676-1.26m20.726-.74-.08.001.036.15a260 260 0 0 1 .49 2.062l.03.129.008.034.002.008.001.002v.001l-.487.113-.487.113v-.003l-.003-.008-.007-.034-.03-.128a253 253 0 0 0-.49-2.053l-.037-.154a2.5 2.5 0 0 0-1.446 2.267c0 1.378 1.121 2.5 2.5 2.5 1.378 0 2.5-1.122 2.5-2.5s-1.122-2.5-2.5-2.5m-14.5 2h5.682l.05-.045.532-.477c.452-.404 1.084-.963 1.802-1.587a105 105 0 0 1 3.461-2.891H14.75zm10.75 9h3.902l-.478.765-1.715 2.744.727 1.247a3.503 3.503 0 0 1 4.814 3.244c0 1.93-1.57 3.5-3.5 3.5-1.931 0-3.5-1.57-3.5-3.5 0-1.108.517-2.098 1.323-2.74l-.735-1.26H22.11l-.29.872a3.5 3.5 0 0 1 1.93 3.128c0 1.93-1.57 3.5-3.5 3.5a3.505 3.505 0 0 1-3.464-3H13.25v1.5h-4.8a2.75 2.75 0 0 1-5.194-1.43H3.25v-7.07h4.435l.14.12 5.25 4.5.175.15v1.23h3.536a3.505 3.505 0 0 1 4.085-2.945l.405-1.213.114-.342h4.958l1.25-2H25.5zM4.25 27.879V23.75h3.065l4.935 4.23v2.27H8.739q.01-.124.011-.25a2.75 2.75 0 0 0-4.5-2.121m24.198-.997 1.234 2.116-.864.504-1.234-2.115a2.5 2.5 0 0 0-.834 1.863c0 1.378 1.121 2.5 2.5 2.5 1.378 0 2.5-1.122 2.5-2.5a2.503 2.503 0 0 0-3.302-2.368M22.75 29.25c0-.924-.504-1.732-1.251-2.165l-.775 2.323-.114.342H17.8c.233 1.14 1.243 2 2.45 2 1.378 0 2.5-1.122 2.5-2.5m-2.5-2.5c-1.207 0-2.217.86-2.45 2h2.09l.66-1.982a3 3 0 0 0-.3-.018m2.25-3h-3v-1h3zM4.25 30a1.75 1.75 0 1 1 3.5 0 1.75 1.75 0 0 1-3.5 0" clip-rule="evenodd"/></svg>