<?xml version="1.0" encoding="utf-8"?>
<!-- Generator: Adobe Illustrator 24.2.0, SVG Export Plug-In . SVG Version: 6.00 Build 0)  -->
<svg version="1.0" id="Ebene_1" xmlns="http://www.w3.org/2000/svg" xmlns:xlink="http://www.w3.org/1999/xlink" x="0px" y="0px"
	 viewBox="0 0 24 24" enable-background="new 0 0 24 24" xml:space="preserve">
<g id="SVG_x5F_24x24pt">
	<path id="backgroundBlue" fill="#2D327D" d="M0,22.5v-21C0,0.675,0.675,0,1.5,0h21C23.325,0,24,0.675,24,1.5v21
		c0,0.825-0.675,1.5-1.5,1.5h-21C0.675,24,0,23.325,0,22.5z"/>
	<g id="content">
		<path fill="#FFFFFF" d="M3.375,17.145c0.031,0,0.061-0.004,0.091-0.011l0,0l17.25-4.312C20.883,12.779,21,12.629,21,12.457V3.847
			c0-0.455-0.369-0.825-0.825-0.825c-0.069,0-0.137,0.009-0.204,0.026l0,0l-16.35,4.17C3.256,7.311,3,7.64,3,8.017v8.753
			C3,16.977,3.168,17.145,3.375,17.145L3.375,17.145z M16.688,5.025c0-0.207,0.168-0.375,0.375-0.375h2.812
			c0.207,0,0.375,0.168,0.375,0.375v4.5c0,0.207-0.168,0.375-0.375,0.375h-2.812c-0.207,0-0.375-0.168-0.375-0.375V5.025
			L16.688,5.025z M12.375,6.127c0-0.207,0.168-0.375,0.375-0.375h2.812c0.207,0,0.375,0.168,0.375,0.375v4.5
			c0,0.207-0.168,0.375-0.375,0.375H12.75c-0.207,0-0.375-0.168-0.375-0.375V6.127L12.375,6.127z M8.062,7.225
			c0-0.207,0.168-0.375,0.375-0.375h2.813c0.207,0,0.375,0.168,0.375,0.375v4.5c0,0.207-0.168,0.375-0.375,0.375H8.438
			c-0.207,0-0.375-0.168-0.375-0.375V7.225L8.062,7.225z M3.75,8.325c0-0.207,0.168-0.375,0.375-0.375h2.812
			c0.207,0,0.375,0.168,0.375,0.375v4.5c0,0.207-0.168,0.375-0.375,0.375H4.125c-0.207,0-0.375-0.168-0.375-0.375V8.325L3.75,8.325z
			"/>
		<polygon fill="#FFFFFF" points="21,15.727 3,20.227 3,21 21,16.5 21,15.727 		"/>
		<path fill="#FFFFFF" d="M7.179,17.399c0,0.6,0.487,1.088,1.088,1.088c0.6,0,1.088-0.487,1.088-1.088
			c0-0.6-0.487-1.088-1.088-1.088C7.666,16.311,7.179,16.798,7.179,17.399L7.179,17.399z"/>
		<path fill="#FFFFFF" d="M4.473,18.131c0,0.6,0.487,1.088,1.088,1.088c0.6,0,1.088-0.487,1.088-1.088
			c0-0.6-0.487-1.087-1.088-1.087C4.961,17.044,4.473,17.531,4.473,18.131L4.473,18.131z"/>
		<path fill="#FFFFFF" d="M14.618,15.538c0,0.6,0.487,1.088,1.088,1.088c0.6,0,1.087-0.487,1.087-1.088
			c0-0.6-0.487-1.088-1.087-1.088C15.105,14.45,14.618,14.938,14.618,15.538L14.618,15.538z"/>
		<path fill="#FFFFFF" d="M17.38,14.861c0,0.6,0.487,1.088,1.088,1.088c0.6,0,1.087-0.487,1.087-1.088
			c0-0.6-0.487-1.087-1.087-1.087C17.867,13.774,17.38,14.261,17.38,14.861L17.38,14.861z"/>
	</g>
</g>
</svg>
