<?xml version="1.0" encoding="utf-8"?>
<!-- Generator: Adobe Illustrator 29.6.1, SVG Export Plug-In . SVG Version: 9.03 Build 0)  -->
<svg version="1.0" xmlns="http://www.w3.org/2000/svg" xmlns:xlink="http://www.w3.org/1999/xlink" x="0px" y="0px"
	 viewBox="0 0 24 24" enable-background="new 0 0 24 24" xml:space="preserve">
<g id="SVG_x5F_24x24pt">
	<path id="backgroundBlue" fill="#2D327D" d="M0,22.5v-21C0,0.675,0.675,0,1.5,0h21C23.325,0,24,0.675,24,1.5v21
		c0,0.825-0.675,1.5-1.5,1.5h-21C0.675,24,0,23.325,0,22.5z"/>
	<g id="content">
		<polygon fill="#FFFFFF" points="20.995,15.746 2.996,20.996 2.996,20.223 20.995,14.973 		"/>
		<path fill="#FFFFFF" d="M11.986,15.868L11.986,15.868l-3.625,1.07c0.516,0.651,1.376,0.923,2.173,0.688
			C11.331,17.391,11.905,16.696,11.986,15.868L11.986,15.868z"/>
		<path fill="#FFFFFF" d="M16.209,14.633L16.209,14.633l-3.625,1.07c0.516,0.651,1.376,0.923,2.173,0.688
			C15.554,16.155,16.129,15.46,16.209,14.633L16.209,14.633z"/>
		<path fill="#FFFFFF" d="M18.27,10.011L16.708,4.06c-0.217-0.827-1.073-1.312-1.894-1.073L3.001,6.423v0.828L6.21,6.318
			c0.17-0.05,0.34,0.078,0.34,0.255v6.734c0,0.169-0.112,0.318-0.274,0.365l-3.275,0.947v3.101l14.62-4.27
			c0.306-0.09,0.523-0.361,0.544-0.679l0.151-2.273C18.328,10.334,18.312,10.17,18.27,10.011z M11.832,11.779
			c0,0.169-0.112,0.318-0.274,0.365l-3.909,1.131c-0.17,0.049-0.34-0.078-0.34-0.256V6.283c0-0.169,0.112-0.318,0.274-0.365
			l3.909-1.137c0.17-0.05,0.34,0.078,0.34,0.255V11.779z M16.645,10.673l-3.714,1.074c-0.17,0.049-0.34-0.078-0.34-0.256V4.747
			c0-0.169,0.112-0.318,0.274-0.365l2.067-0.601c0.408-0.119,0.834,0.12,0.945,0.529l1.42,5.2
			C17.434,10.011,17.143,10.529,16.645,10.673z"/>
	</g>
</g>
</svg>
