<?xml version="1.0" encoding="utf-8"?>
<!-- Generator: Adobe Illustrator 24.2.0, SVG Export Plug-In . SVG Version: 6.00 Build 0)  -->
<svg version="1.0" id="Ebene_3" xmlns="http://www.w3.org/2000/svg" xmlns:xlink="http://www.w3.org/1999/xlink" x="0px" y="0px"
	 viewBox="0 0 24 24" enable-background="new 0 0 24 24" xml:space="preserve">
<g id="SVG_x5F_24x24pt">
	<path id="backgroundBlue" fill="#2D327D" d="M0,22.5v-21C0,0.675,0.675,0,1.5,0h21C23.325,0,24,0.675,24,1.5v21
		c0,0.825-0.675,1.5-1.5,1.5h-21C0.675,24,0,23.325,0,22.5z"/>
	<g id="content">
		<path id="Hand_1_" fill="#FFFFFF" d="M3.261,16.182l-0.003,0.001c-0.177,0.419-0.254,0.886-0.257,1.282
			c-0.003,0.395,0,3.535,0,3.535l7.821,0c0.084-0.188,0.316-0.61,0.565-1.144c-0.2,0.089-0.428,0.141-0.674,0.148
			c-0.018,0-0.037,0.001-0.055,0.001c-0.3,0-0.61-0.069-0.896-0.199l-3.509-1.595c-0.504-0.229-0.892-0.627-1.064-1.093
			c-0.133-0.359-0.124-0.734,0.025-1.054l1.587-3.412l0.872-1.876c0.165-0.505,0.021-1.064-0.377-1.427
			C7.24,9.297,7.175,9.255,7.102,9.224C6.757,9.078,6.357,9.241,6.211,9.587L3.261,16.182z"/>
		<g id="Finger_3_">
			<path fill="#FFFFFF" d="M12.516,20.967c-0.445-0.005-0.801-0.369-0.796-0.814c0.005-0.445,0.37-0.803,0.815-0.797l1.478,0
				c0.444-0.005,0.809,0.351,0.815,0.796c0.005,0.444-0.351,0.81-0.796,0.814L12.516,20.967z"/>
		</g>
		<g id="Finger_2_">
			<path fill="#FFFFFF" d="M13.434,19.002c-0.445-0.005-0.801-0.369-0.796-0.814c0.005-0.445,0.37-0.802,0.815-0.797l1.478,0
				c0.444-0.005,0.809,0.351,0.815,0.796c0.005,0.444-0.351,0.81-0.796,0.814L13.434,19.002z"/>
		</g>
		<g id="Finger_1_">
			<path fill="#FFFFFF" d="M14.342,17.048c-0.445-0.005-0.801-0.369-0.796-0.814c0.005-0.445,0.37-0.803,0.815-0.797l1.478,0
				c0.444-0.005,0.809,0.351,0.815,0.796c0.005,0.444-0.351,0.81-0.796,0.814H14.342z"/>
		</g>
		<g id="Finger">
			<path fill="#FFFFFF" d="M15.245,15.153c-0.445-0.005-0.801-0.37-0.796-0.814c0.005-0.445,0.37-0.803,0.815-0.797l1.478,0
				c0.444-0.005,0.809,0.351,0.815,0.796c0.005,0.444-0.351,0.81-0.796,0.815L15.245,15.153z"/>
		</g>
		<path id="Händy" fill="#FFFFFF" d="M16.51,7.822c-0.163-0.321-0.455-0.59-0.823-0.757l-3.51-1.595
			c-0.241-0.11-0.502-0.168-0.752-0.168L11.38,5.303c-0.494,0.014-0.892,0.243-1.065,0.614L5.528,16.21
			c-0.111,0.239-0.116,0.512-0.014,0.788c0.14,0.379,0.462,0.706,0.882,0.897l3.509,1.595c0.241,0.109,0.501,0.167,0.752,0.167
			l0.045-0.001c0.495-0.014,0.893-0.243,1.065-0.613L16.555,8.75C16.687,8.468,16.671,8.139,16.51,7.822z M9.198,17.75
			c-0.119,0.247-0.421,0.349-0.673,0.229c-0.252-0.121-0.359-0.418-0.24-0.665c0.12-0.247,0.42-0.349,0.672-0.229
			C9.21,17.205,9.317,17.502,9.198,17.75z M11.572,17.342l-4.618-2.077l4.022-8.721l4.618,2.076L11.572,17.342z"/>
		<g id="Ergaenzungstext">
			<path fill="#FFFFFF" d="M4.961,3.666H4.493c-0.009-0.11-0.05-0.194-0.122-0.251C4.299,3.357,4.197,3.328,4.067,3.328
				c-0.116,0-0.206,0.023-0.27,0.068S3.701,3.506,3.701,3.588c0,0.074,0.031,0.127,0.092,0.16c0.059,0.033,0.21,0.079,0.452,0.138
				C4.501,3.95,4.678,4.014,4.776,4.078c0.181,0.119,0.272,0.285,0.272,0.497c0,0.233-0.091,0.416-0.274,0.551
				C4.614,5.244,4.396,5.303,4.121,5.303c-0.306,0-0.543-0.07-0.712-0.209C3.24,4.954,3.152,4.755,3.146,4.498h0.489
				c0.007,0.125,0.039,0.218,0.097,0.278c0.09,0.096,0.226,0.145,0.408,0.145c0.123,0,0.22-0.024,0.292-0.072
				c0.081-0.055,0.122-0.131,0.122-0.226S4.496,4.458,4.382,4.414C4.32,4.389,4.172,4.344,3.939,4.28
				C3.794,4.24,3.68,4.202,3.598,4.166S3.45,4.09,3.401,4.046C3.286,3.943,3.229,3.802,3.229,3.621c0-0.216,0.09-0.388,0.269-0.514
				C3.651,3,3.849,2.946,4.093,2.946c0.214,0,0.394,0.043,0.538,0.128C4.84,3.196,4.949,3.393,4.961,3.666z"/>
			<path fill="#FFFFFF" d="M6.367,2.946c0.299,0,0.551,0.098,0.754,0.295c0.224,0.217,0.335,0.512,0.335,0.883
				c0,0.32-0.085,0.585-0.254,0.795c-0.207,0.255-0.49,0.383-0.849,0.383c-0.367,0-0.655-0.131-0.864-0.392
				C5.323,4.703,5.241,4.442,5.241,4.127c0-0.373,0.107-0.664,0.321-0.872C5.773,3.049,6.041,2.946,6.367,2.946z M6.342,3.355
				c-0.18,0-0.326,0.069-0.437,0.206C5.792,3.7,5.736,3.886,5.736,4.121c0,0.243,0.055,0.432,0.166,0.568
				C5.954,4.753,6.02,4.804,6.1,4.84c0.08,0.036,0.165,0.054,0.255,0.054c0.179,0,0.321-0.063,0.425-0.188
				C6.9,4.562,6.96,4.367,6.96,4.12c0-0.234-0.055-0.42-0.165-0.558C6.687,3.424,6.536,3.355,6.342,3.355z"/>
			<path fill="#FFFFFF" d="M9.458,3.666H8.99c-0.009-0.11-0.05-0.194-0.122-0.251C8.796,3.357,8.695,3.328,8.564,3.328
				c-0.116,0-0.206,0.023-0.27,0.068C8.23,3.442,8.198,3.506,8.198,3.588c0,0.074,0.031,0.127,0.092,0.16
				C8.35,3.78,8.501,3.826,8.743,3.886C8.998,3.95,9.175,4.014,9.273,4.078c0.181,0.119,0.272,0.285,0.272,0.497
				c0,0.233-0.091,0.416-0.274,0.551C9.111,5.244,8.893,5.303,8.618,5.303c-0.306,0-0.543-0.07-0.712-0.209
				C7.737,4.954,7.649,4.755,7.643,4.498h0.489c0.007,0.125,0.039,0.218,0.097,0.278c0.09,0.096,0.226,0.145,0.408,0.145
				c0.123,0,0.22-0.024,0.292-0.072C9.01,4.793,9.05,4.718,9.05,4.623S8.994,4.458,8.88,4.414C8.817,4.389,8.67,4.344,8.437,4.28
				C8.291,4.24,8.177,4.202,8.095,4.166S7.948,4.09,7.898,4.046C7.784,3.943,7.726,3.802,7.726,3.621
				c0-0.216,0.09-0.388,0.269-0.514C8.148,3,8.347,2.946,8.591,2.946c0.214,0,0.394,0.043,0.538,0.128
				C9.337,3.196,9.447,3.393,9.458,3.666z"/>
		</g>
	</g>
</g>
</svg>
