<svg class="color-immutable" xmlns="http://www.w3.org/2000/svg" width="59" height="20" fill="none" viewBox="0 0 59 20"><g clip-path="url(#a)"><path stroke="#000" d="M2 .5h55A1.5 1.5 0 0 1 58.5 2v16a1.5 1.5 0 0 1-1.5 1.5H2A1.5 1.5 0 0 1 .5 18V2A1.5 1.5 0 0 1 2 .5Z"/><path fill="#000" d="M12.877 7.713h-2.449q-.072-.862-.644-1.314-.564-.459-1.587-.459-.91 0-1.418.363-.5.355-.5.999 0 .58.483.838.468.258 2.37.725 2.005.499 2.779 1.007 1.425.934 1.426 2.602 0 1.829-1.434 2.884-1.266.927-3.424.927-2.401 0-3.73-1.096-1.33-1.095-1.378-3.118h2.562q.056.984.507 1.459.71.756 2.135.757.967 0 1.531-.379.636-.435.636-1.184 0-.75-.894-1.096-.49-.193-2.32-.7-1.144-.315-1.789-.597-.644-.282-1.031-.628-.903-.806-.902-2.224 0-1.7 1.41-2.69 1.2-.847 3.118-.847 1.683 0 2.82.669 1.635.959 1.723 3.102M23.19 13.828v2.175h-8.33V4.224h2.57v9.604zM25.889 9.678q-.822-.282-1.265-.926-.435-.644-.435-1.563 0-1.53 1.257-2.441 1.112-.806 2.642-.806 1.74 0 2.844.959 1.048.901 1.048 2.232 0 .926-.443 1.587-.444.66-1.257.958.636.186 1.04.476 1.119.814 1.119 2.377 0 1.795-1.378 2.86-1.16.894-2.98.894-1.975 0-3.143-.983-1.215-1.023-1.216-2.683 0-1.555 1.08-2.409.491-.378 1.087-.532m2.167-3.907q-.773 0-1.249.435-.474.427-.475 1.128 0 .733.475 1.176.484.435 1.29.435.805 0 1.272-.435.468-.435.468-1.184 0-.733-.476-1.144-.466-.411-1.305-.411m-.016 4.794q-.87 0-1.426.54-.548.53-.548 1.37 0 .861.556 1.401.564.54 1.458.54 1.016 0 1.523-.596.492-.572.491-1.322 0-.853-.564-1.402-.54-.531-1.49-.531M35.074 9.678q-.822-.282-1.265-.926-.435-.644-.435-1.563 0-1.53 1.256-2.441 1.112-.806 2.643-.806 1.74 0 2.844.959 1.047.901 1.047 2.232 0 .926-.443 1.587t-1.257.958q.637.186 1.04.476 1.12.814 1.12 2.377 0 1.795-1.378 2.86-1.16.894-2.981.894-1.974 0-3.142-.983-1.217-1.023-1.217-2.683 0-1.555 1.08-2.409.492-.378 1.088-.532m2.167-3.907q-.773 0-1.25.435-.474.427-.474 1.128 0 .733.475 1.176.483.435 1.289.435t1.273-.435.467-1.184q0-.733-.475-1.144-.468-.411-1.305-.411m-.016 4.794q-.87 0-1.426.54-.548.53-.548 1.37 0 .861.556 1.401.564.54 1.458.54 1.015 0 1.523-.596.49-.572.491-1.322 0-.853-.564-1.402-.54-.531-1.49-.531"/></g><defs><clipPath id="a"><path fill="#fff" d="M0 0h59v20H0z"/></clipPath></defs></svg>