<svg xmlns="http://www.w3.org/2000/svg" width="24" height="24" version="1.1" viewBox="0 0 24 24">
  <path fill="none" fill-rule="evenodd" stroke="#000" stroke-width="1" d="M2,21.5 L6.5,21.5 L6.5,18.5 L10.5,18.5 L10.5,15.5 L14.5,15.5 L14.5,12.5 L18.5,12.5 L18.5,9.5 L22,9.5 M8.5,11.5 L8.5,14.5 L7.5,18.5 M11.5,15.5 L11.5,13 L10.5,11.5 M10.5,6.5 L10.5,11.5 L8.5,11.5 L8.5,6.479 M6.5,11 L6.5,8.5 L8.5,6.5 L10.5,6.5 L11.5,8.5 L13,10.5 M9.5,4.5 C8.967,4.5 8.5,4.033 8.5,3.5 C8.5,2.967 8.967,2.5 9.5,2.5 C10.033,2.5 10.5,2.967 10.5,3.5 C10.5,4.033 10.033,4.5 9.5,4.5 Z"/>
</svg>
