<?xml version="1.0" encoding="utf-8"?>
<!-- Generator: Adobe Illustrator 24.2.0, SVG Export Plug-In . SVG Version: 6.00 Build 0)  -->
<svg version="1.0" xmlns="http://www.w3.org/2000/svg" xmlns:xlink="http://www.w3.org/1999/xlink" x="0px" y="0px"
	 viewBox="0 0 24 24" enable-background="new 0 0 24 24" xml:space="preserve">
<g id="SVG_x5F_24x24pt">
	<path id="backgroundGreen" fill="#237F52" d="M0,22.5v-21C0,0.675,0.675,0,1.5,0h21C23.325,0,24,0.675,24,1.5v21
		c0,0.825-0.675,1.5-1.5,1.5h-21C0.675,24,0,23.325,0,22.5z"/>
	<g id="content">
		<g>
			<path fill="#FFFFFF" d="M14.924,5.25c0.56,0,1.013,0.453,1.013,1.013c0,0.559-0.454,1.013-1.013,1.013
				c-0.558,0-1.012-0.454-1.012-1.013C13.913,5.703,14.366,5.25,14.924,5.25z"/>
		</g>
		<g>
			<path fill="#FFFFFF" d="M7.779,12l4.403-4.404h-1.029L9.709,9.043C9.64,9.111,9.548,9.149,9.451,9.149
				c-0.201,0-0.364-0.163-0.364-0.363c0-0.097,0.038-0.189,0.107-0.257l1.532-1.532c0.097-0.097,0.23-0.153,0.367-0.153h1.815
				c0.718,0,1.3,0.582,1.3,1.299v1.818h1.48c0.216,0,0.39,0.174,0.39,0.389c0,0.216-0.174,0.39-0.39,0.39h-1.844
				c-0.215,0-0.39-0.174-0.39-0.39V8.896l-1.708,1.709l1.556,1.556c0.098,0.099,0.152,0.23,0.152,0.369v3.145
				c0,0.287-0.232,0.52-0.519,0.52c-0.287,0-0.52-0.233-0.52-0.52v-2.857l-1.956-1.955L9.322,12H7.779z"/>
		</g>
		<polygon fill="#FFFFFF" points="13.125,11.586 12.281,10.742 12.281,10.467 13.125,9.623 		"/>
		<path fill="#FFFFFF" d="M13.125,3v3.578c-0.071-0.01-0.143-0.015-0.216-0.015h-0.627V3.844H3.844v8.438h7.638l0.653,0.653v0.191H3
			V3H13.125z"/>
		<path fill="#FFFFFF" d="M20.587,3.002c-0.195,0.02-0.337,0.195-0.337,0.391v0.92h-4.5c-0.002,0-0.003-0.001-0.003-0.003V3.395
			c0-0.197-0.143-0.375-0.339-0.394c-0.222-0.021-0.411,0.155-0.411,0.373v1.597c0.284,0.016,0.544,0.122,0.75,0.292V4.69
			c0-0.002,0.001-0.003,0.003-0.003h4.5v2.625h-4.5c-0.002,0-0.003-0.001-0.003-0.003V7.261c-0.206,0.17-0.466,0.276-0.75,0.292
			v2.127h0.691c0.02,0,0.04,0.001,0.059,0.003V7.69c0-0.002,0.001-0.003,0.003-0.003h4.5v2.625h-3.893
			c0.001,0.013,0.002,0.025,0.002,0.038c0,0.123-0.034,0.238-0.092,0.337h3.983v2.625h-4.5c-0.002,0-0.003-0.001-0.003-0.003v-2.291
			c-0.019,0.002-0.039,0.003-0.059,0.003h-0.691v9.583c0,0.197,0.143,0.375,0.339,0.394c0.222,0.021,0.411-0.155,0.411-0.373V19.69
			c0-0.002,0.001-0.003,0.003-0.003h4.5v0.92c0,0.196,0.142,0.371,0.337,0.391C20.81,21.021,21,20.844,21,20.625V3.375
			C21,3.156,20.81,2.979,20.587,3.002z M20.25,19.312h-4.5c-0.002,0-0.003-0.001-0.003-0.003V16.69c0-0.002,0.001-0.003,0.003-0.003
			h4.5V19.312z M20.25,16.312h-4.5c-0.002,0-0.003-0.001-0.003-0.003V13.69c0-0.002,0.001-0.003,0.003-0.003h4.5V16.312z"/>
	</g>
</g>
</svg>
