<svg class="color-immutable" xmlns="http://www.w3.org/2000/svg" width="59" height="20" fill="none" viewBox="0 0 59 20"><g clip-path="url(#a)"><path fill="#000" d="M1.792 0h55.416C58.197 0 59 .806 59 1.8v16.4c0 .994-.801 1.8-1.792 1.8H1.792A1.797 1.797 0 0 1 0 18.2V1.8C0 .806.803 0 1.792 0"/><path fill="#FFDE15" d="M12.798 7.659h-2.405q-.07-.846-.633-1.29-.553-.45-1.558-.45-.894 0-1.392.356-.49.348-.49.98 0 .57.474.823.459.253 2.326.712 1.97.49 2.729.989 1.4.918 1.4 2.555 0 1.795-1.408 2.832-1.242.91-3.362.91Q6.122 16.074 4.817 15q-1.305-1.077-1.353-3.062h2.515q.055.966.499 1.432.696.744 2.096.744.95 0 1.503-.372.624-.428.625-1.163 0-.735-.878-1.076-.483-.19-2.278-.688-1.125-.307-1.756-.585-.633-.277-1.013-.617-.885-.791-.886-2.183 0-1.67 1.384-2.642 1.18-.831 3.062-.831 1.653 0 2.768.657 1.605.94 1.693 3.045M24.513 4.234v11.565h-2.54l-4.84-7.879.031 7.879h-2.428V4.234h2.57l4.81 7.863-.032-7.863zM31.917 4.234v11.565h-2.31v-7.57h-2.721V6.552q.846-.024 1.376-.174.538-.15.981-.49.641-.492.862-1.654zM42.738 4.234V6.29h-4.66l-.498 2.602q.84-.886 2.144-.886 1.282 0 2.23.688 1.41 1.036 1.409 3.149 0 2.072-1.503 3.282-1.17.95-2.8.95-1.836 0-2.95-.982-1.116-.988-1.18-2.665h2.27q.057.609.396 1.036.53.672 1.472.672.909 0 1.44-.656.513-.641.513-1.558 0-.997-.538-1.59-.537-.602-1.431-.602-1.092 0-1.7.981l-2.065-.031 1.1-6.447z"/></g><defs><clipPath id="a"><path fill="#fff" d="M0 0h59v20H0z"/></clipPath></defs></svg>