<svg xmlns="http://www.w3.org/2000/svg" width="36" height="36" fill="none" viewBox="0 0 36 36"><path fill="#000" d="M22.5 22.75a2.75 2.75 0 1 1 0 5.5 2.75 2.75 0 0 1 0-5.5m0 1a1.75 1.75 0 1 0 0 3.5 1.75 1.75 0 0 0 0-3.5M6.75 19.5a3.75 3.75 0 1 1 0 7.5 3.75 3.75 0 0 1 0-7.5m23-1.5c0 1.982-.596 3.39-1.209 4.309a6 6 0 0 1-.846 1.011 4 4 0 0 1-.377.318l-.027.018-.008.006-.004.002v.002s-.002 0-.279-.416l-.277-.416.01-.007.055-.042q.077-.06.22-.191c.187-.177.443-.454.701-.84.512-.769 1.041-1.986 1.041-3.754zm-11.437-5.64c1.986 1.589 2.965 3.762 3.45 5.506.243.875.365 1.653.425 2.213a12 12 0 0 1 .061.85l.001.05V21h-1v-.01l-.001-.038q0-.053-.006-.159c-.007-.14-.02-.348-.049-.607a13 13 0 0 0-.394-2.052c-.453-1.63-1.35-3.583-3.113-4.993zM9 12.75l.276.415-.008.008-.056.042q-.077.06-.22.191a5 5 0 0 0-.701.84C7.779 15.015 7.25 16.232 7.25 18h-1c0-1.982.596-3.39 1.209-4.309.305-.457.611-.79.846-1.011a4 4 0 0 1 .377-.318q.016-.012.027-.018l.008-.006.004-.002v-.002c.002.002.02.028.279.416M29.25 9a3.75 3.75 0 1 1 0 7.5 3.75 3.75 0 0 1 0-7.5M13.5 7.75a2.75 2.75 0 1 1 0 5.5 2.75 2.75 0 0 1 0-5.5m0 1a1.75 1.75 0 1 0 0 3.5 1.75 1.75 0 0 0 0-3.5"/></svg>