<svg xmlns="http://www.w3.org/2000/svg" width="24" height="24" fill="none" viewBox="0 0 24 24"><path fill="#000" fill-rule="evenodd" d="M13.006 2.999 13 5.062l-.001.388.376.097a1.5 1.5 0 0 1 .856 2.31l-1.496-.798-.235-.126-.235.126-.702.374A1.5 1.5 0 0 1 11.5 7h-1c0 .32.06.627.17.909L4.876 11H3v10h19V11h-1.875l-5.007-2.67A2.5 2.5 0 0 0 14 4.71L14.006 3zm.262 5.477-.768-.41-.335.18a1.5 1.5 0 0 0 1.103.23m-2.052.275A2.5 2.5 0 0 0 13 9.5c.516 0 .995-.156 1.393-.424L18 11H7zM4 20v-8h2v8zm3 0h2v-8H7zm5 0h-2v-8h2zm1 0h2v-8h-2zm5 0h-2v-8h2zm1 0h2v-8h-2z" clip-rule="evenodd"/></svg>