<svg xmlns="http://www.w3.org/2000/svg" width="24" height="24" fill="none" viewBox="0 0 24 24"><path fill="#000" fill-rule="evenodd" d="m21.354 20.647-18-18L3 3l-.354.354.354.353V6h1V4.707l3 3V10h1V8.707L9.29 9.998h-.292v1H7v1h2v-1H10v-.29l1 1V17h5.293l1 1-2.292.001v1h-1v2h1v-1h1v-1.003h1v2h2v-1h-1v-1.29l2 2v.29h.29l.355.356zM15.293 16l-1.003-1.003H13v-1.29l-1-1V16zM3 7.996h2.001v-1H3zM10 5H9V4h1zm1.001 0h1V3h-1zm4-.002h-2v-1h2v-1h2v2h-1v-1h-1zM3 17h1v-2H3zm1-6.002H3v-1h1V9h1.001v1H4zm-1 2h1V12h1.001v-1H4v.996H3zM4 14h1.001v-1H4zm17.001-1h-1v.998h-2v1h2V14h1zm-1-2h1v1h-1v.998h-2v-1h2zM15 9h1v.998h1v-1h-1V7h-1zm6.001 8h-1v-2h1zm-7.999 4.001h-1.001v-1h1.001zm-6.003 0h1V19H7zm2-4.003h1l.002 1h1v1H9V18H8v-1h1zm3.002 2h2.001v-1h-2.001zm-5.002-4h1V14H10v-1H8v.998H7zm1 2H7v-1h1V15H10v1H8zm12.002-8h1v-2h-2v1h1zm-9 12.003H8.998v-1H11zm7-10V9l-1-.003v-1h2v2h1v1zm-3.005.995H16V13l1 1v-3.003h-3.003zM13 9.998h-.002L12 9v-.002h1V8h1v2h-1zM11 8v-.001h2v-1h-3zM7 3.998V4L6 3v-.002h3v1z" clip-rule="evenodd"/></svg>