<svg xmlns="http://www.w3.org/2000/svg" width="24" height="24" version="1.1" viewBox="0 0 24 24">
  <path fill="none" fill-rule="evenodd" stroke="#000" stroke-width="1" d="M20.5,11.5 C20.5,10.948 20.053,10.5 19.5,10.5 L4.497,10.501 C3.945,10.501 3.497,10.949 3.497,11.501 L3.5,17.5 L20.501,17.5 L20.501,11.5 M5.5,17.5005 L5.5,13.5005 L8.5,13.5005 L8.5,17.5005 M10.5,15.5 L18.501,15.5 L18.501,13.5 L10.5,13.5 L10.5,15.5 Z M4.5918,17.4995 C4.5358,17.6565 4.4998,17.8235 4.4998,17.9995 C4.4998,18.8285 5.1718,19.4995 5.9998,19.4995 C6.8288,19.4995 7.4998,18.8285 7.4998,17.9995 C7.4998,17.8235 7.4638,17.6565 7.4078,17.4995 M16.5918,17.4995 C16.5358,17.6565 16.4998,17.8235 16.4998,17.9995 C16.4998,18.8285 17.1718,19.4995 17.9998,19.4995 C18.8278,19.4995 19.4998,18.8285 19.4998,17.9995 C19.4998,17.8235 19.4638,17.6565 19.4078,17.4995 M2,16.5 L3.5,16.5 M20.5,16.5 L22,16.5"/>
</svg>
