<?xml version="1.0" encoding="utf-8"?>
<!-- Generator: Adobe Illustrator 24.2.0, SVG Export Plug-In . SVG Version: 6.00 Build 0)  -->
<svg version="1.0" id="Ebene_1" xmlns="http://www.w3.org/2000/svg" xmlns:xlink="http://www.w3.org/1999/xlink" x="0px" y="0px"
	 viewBox="0 0 24 24" enable-background="new 0 0 24 24" xml:space="preserve">
<g id="SVG_x5F_24x24pt">
	<path id="backgroundBlue" fill="#2D327D" d="M0,22.5v-21C0,0.675,0.675,0,1.5,0h21C23.325,0,24,0.675,24,1.5v21
		c0,0.825-0.675,1.5-1.5,1.5h-21C0.675,24,0,23.325,0,22.5z"/>
	<g id="content">
		<path fill="#FFFFFF" d="M15.375,14.787v-2.49c0-0.642-0.521-1.163-1.162-1.163c-0.175,0-0.348,0.04-0.506,0.116l-2.143,1.036
			l1.133,0.744l1.452-0.702l0.147,0.304l-1.27,0.614L15.375,14.787L15.375,14.787z"/>
		<path fill="#FFFFFF" d="M11.25,12.08V9.59c0-0.642-0.521-1.162-1.163-1.162c-0.175,0-0.348,0.04-0.506,0.116L7.439,9.579
			l1.133,0.744l1.452-0.702l0.147,0.304l-1.27,0.614L11.25,12.08L11.25,12.08z"/>
		<path fill="#FFFFFF" d="M18.375,21C19.824,21,21,19.824,21,18.375c0-1.449-1.176-2.625-2.625-2.625h-2.564
			c-0.219,0-0.434-0.064-0.617-0.184L3,7.563v5.562L15,21H18.375L18.375,21z"/>
		<path fill="#FFFFFF" d="M7.125,9.373v-2.49c0-0.642-0.521-1.162-1.163-1.162c-0.175,0-0.348,0.04-0.506,0.116L3.314,6.872
			l1.133,0.744l1.452-0.702l0.147,0.304l-1.27,0.614L7.125,9.373L7.125,9.373z"/>
		<path fill="#FFFFFF" d="M6.942,4.488c0-0.538-0.437-0.975-0.975-0.975c-0.538,0-0.975,0.437-0.975,0.975
			c0,0.538,0.437,0.975,0.975,0.975C6.505,5.463,6.942,5.027,6.942,4.488L6.942,4.488z"/>
		<path fill="#FFFFFF" d="M11.066,7.158c0-0.538-0.437-0.975-0.975-0.975c-0.538,0-0.975,0.437-0.975,0.975
			c0,0.538,0.437,0.975,0.975,0.975C10.63,8.133,11.066,7.696,11.066,7.158L11.066,7.158z"/>
		<path fill="#FFFFFF" d="M15.191,9.828c0-0.538-0.437-0.975-0.975-0.975s-0.975,0.437-0.975,0.975c0,0.538,0.437,0.975,0.975,0.975
			S15.191,10.366,15.191,9.828L15.191,9.828z"/>
	</g>
</g>
</svg>
