<svg xmlns="http://www.w3.org/2000/svg" width="24" height="24" viewBox="0 0 24 24">
  <path fill="none" stroke="#000" d="M17.5,8.0146 C17.5,4.9766 15.037,2.5146 12,2.5146 C8.962,2.5146 6.5,4.9766 6.5,8.0146 C6.537,8.9576 6.816,9.7516 7.266,10.5006 L12.016,17.9986 L16.766,10.5006 C17.209,9.7236 17.492,8.9156 17.5,8.0146 Z M8.8018,15.6748 C5.1188,16.0918 2.4998,17.2068 2.4998,18.4998 C2.4998,20.1438 6.7318,21.4998 11.9998,21.4998 C17.2688,21.4998 21.4998,20.1438 21.4998,18.4998 C21.4998,17.2168 18.9198,16.1088 15.2818,15.6848 M13.5,6.5 L15.5,6.5 M13.5,8.5 L15.5,8.5 M10.5,7.5 L8,7.5 M13.5,9.5 L13.5,5.5 L12.498,5.501 C11.394,5.501 10.5,6.396 10.5,7.5 C10.5,8.604 11.396,9.5 12.5,9.5 L13.5,9.5 Z"/>
</svg>
