<svg xmlns="http://www.w3.org/2000/svg" width="36" height="36" version="1.1" viewBox="0 0 36 36">
  <path fill="none" fill-rule="evenodd" stroke="#000" stroke-width="1" d="M27.75,13.50885 C27.75,8.11935 23.385,3.74985 18,3.74985 C12.615,3.74985 8.25,8.11935 8.25,13.50885 C8.3145,15.18285 8.811,16.59135 9.6075,17.91885 L18.0285,31.49985 L26.448,17.91885 C27.234,16.54035 27.7365,15.10635 27.75,13.50885 Z M18.70245,14.06985 C18.70245,14.45835 18.38895,14.77335 18.00045,14.77335 C17.61195,14.77335 17.29695,14.45835 17.29695,14.06985 C17.29695,13.68135 17.61195,13.36785 18.00045,13.36785 C18.38895,13.36785 18.70245,13.68135 18.70245,14.06985 M18.70245,14.06985 C18.70245,14.45835 18.38895,14.77335 18.00045,14.77335 C17.61195,14.77335 17.29695,14.45835 17.29695,14.06985 C17.29695,13.68135 17.61195,13.36785 18.00045,13.36785 C18.38895,13.36785 18.70245,13.68135 18.70245,14.06985 Z M15.75,11.25 L12.75,11.25 L12.75,17.25 L23.25,17.25 L23.25,11.25 L20.25,11.25 L19.5,9.75 L16.5,9.75 L15.75,11.25 Z"/>
</svg>
