<svg xmlns="http://www.w3.org/2000/svg" width="24" height="24" fill="none" viewBox="0 0 24 24"><path fill="#000" fill-rule="evenodd" d="M1.994 9.497A5.483 5.483 0 0 1 7.5 4c1.59 0 3.005.673 4.003 1.739A5.44 5.44 0 0 1 15.5 4 5.477 5.477 0 0 1 21 9.497c0 .996-.261 1.93-.72 2.736-.166.29-.618.87-.795 1.085l-.015.019-.017.017-7.6 7.6-.353.353-.353-.353-7.61-7.61-.007-.008a5.6 5.6 0 0 1-.87-1.203M7.5 5a4.483 4.483 0 0 0-4.506 4.497c0 .785.198 1.52.544 2.158q.298.552.71.985l7.252 7.253 7.228-7.23c.189-.23.57-.726.682-.925.376-.657.59-1.421.59-2.24A4.477 4.477 0 0 0 15.5 5a4.45 4.45 0 0 0-3.595 1.815l-.401.54-.402-.54A4.47 4.47 0 0 0 7.5 5M1.994 9.497c0 .955.24 1.854.666 2.636z" clip-rule="evenodd"/></svg>