<svg xmlns="http://www.w3.org/2000/svg" width="36" height="36" fill="none" viewBox="0 0 36 36"><path fill="#000" fill-rule="evenodd" d="M5.75 6.75c0-.523.477-1 1-1s1 .477 1 1-.477 1-1 1-1-.477-1-1m1-2c-1.076 0-2 .924-2 2s.924 2 2 2 2-.924 2-2-.924-2-2-2m-3 6.006h-.5v11.5H4.5V31.5h1v-9.244h2V31.5h1v-9.244h1.75v-11.5h-6.5m.5 10.5v-9.5h5v9.5zm11 10.244v-4.744h-2.303l.056-.55.75-7.5.044-.45h6.906l.044.45.75 7.5.055.55H19.25V31.5h-1v-4.744h-2V31.5zm10.5 0v-4.744h-2.302l.055-.55.75-7.5.044-.45h6.906l.044.45.75 7.5.056.55H29.75V31.5h-1v-4.744h-2V31.5zm-.547-12.244-.65 6.5h6.395l-.65-6.5zm1.547-5.006c0-.523.477-1 1-1s1 .477 1 1-.477 1-1 1-1-.477-1-1m1-2c-1.076 0-2 .924-2 2s.924 2 2 2 2-.924 2-2-.924-2-2-2m-13.047 7.006-.65 6.5h6.395l-.65-6.5zm1.547-5.006c0-.523.477-1 1-1s1 .477 1 1-.477 1-1 1-1-.477-1-1m1-2c-1.076 0-2 .924-2 2s.924 2 2 2 2-.924 2-2-.924-2-2-2" clip-rule="evenodd"/></svg>