<svg width="36" height="36" viewBox="0 0 36 36" fill="none" xmlns="http://www.w3.org/2000/svg"><path fill-rule="evenodd" clip-rule="evenodd" d="M9.75 6.25h-.5v23.5h17.5V14.043l-.146-.146-7.5-7.5-.147-.147H9.75Zm.5 22.5V7.25h8v7.5h7.5v14h-15.5Zm14.793-15L19.25 7.959v5.793h5.793ZM12.25 7.989V7.5h1v.488h-1Zm0 1.95v-.975h1v.975h-1Zm0 1.95v-.975h1v.975h-1Zm0 1.95v-.975h1v.975h-1Zm0 1.95v-.975h1v.975h-1Zm0 1.95v-.975h1v.975h-1Zm0 1.95v-.975h1v.975h-1Zm0 1.95v-.975h1v.975h-1Zm0 1.95v-.975h1v.975h-1Zm0 1.95v-.975h1v.975h-1Zm0 1.462v-.487h1V27h-1Zm1.5-18v.488h1V9h-1Zm0 1.463v.975h1v-.975h-1Zm0 1.95v.975h1v-.975h-1Zm0 1.95v.975h1v-.975h-1Zm0 1.95v.975h1v-.975h-1Zm0 1.95v.975h1v-.975h-1Zm0 1.95v.975h1v-.975h-1Zm0 1.95v.975h1v-.975h-1Zm0 1.95v.975h1v-.975h-1Zm0 1.95v.975h1v-.975h-1Zm0 1.95v.487h1v-.487h-1Z" fill="#000"/></svg>