<svg xmlns="http://www.w3.org/2000/svg" width="36" height="36" fill="none" viewBox="0 0 36 36"><path fill="#000" fill-rule="evenodd" d="M9.75 6.25h-.5v23.5h17.5V14.043l-.146-.146-7.5-7.5-.147-.147H9.75m.5 22.5V7.25h8v7.5h7.5v14zm14.793-15L19.25 7.959v5.793zM12.25 7.989V7.5h1v.488zm0 1.95v-.975h1v.975zm0 1.95v-.975h1v.975zm0 1.95v-.975h1v.975zm0 1.95v-.975h1v.975zm0 1.95v-.975h1v.975zm0 1.95v-.975h1v.975zm0 1.95v-.975h1v.975zm0 1.95v-.975h1v.975zm0 1.95v-.975h1v.975zm0 1.462v-.487h1V27zm1.5-18v.488h1V9zm0 1.463v.975h1v-.975zm0 1.95v.975h1v-.975zm0 1.95v.975h1v-.975zm0 1.95v.975h1v-.975zm0 1.95v.975h1v-.975zm0 1.95v.975h1v-.975zm0 1.95v.975h1v-.975zm0 1.95v.975h1v-.975zm0 1.95v.975h1v-.975zm0 1.95v.487h1v-.487z" clip-rule="evenodd"/></svg>