<svg xmlns="http://www.w3.org/2000/svg" width="24" height="24" version="1.1" viewBox="0 0 24 24">
  <g fill="none" fill-rule="evenodd" stroke="none" stroke-width="1">
    <path stroke="#000" d="M5.5,21.5 L19.5,21.5 L19.5,2.5 L5.5,2.5 L5.5,21.5 Z M8,15.5 L17,15.5 M8,17.5 L17,17.5"/>
    <path fill="#000" d="M10.2246,7.9375 L10.2246,9.3525 L11.2246,9.3525 C11.5216,9.3525 11.7356,9.3015 11.8666,9.1985 C12.0286,9.0715 12.1086,8.8835 12.1086,8.6345 C12.1086,8.3845 12.0146,8.1975 11.8286,8.0745 C11.6926,7.9825 11.4716,7.9375 11.1646,7.9375 L10.2246,7.9375 Z M9.1056,7.0145 L11.1756,7.0145 C11.5236,7.0145 11.7986,7.0355 11.9976,7.0785 C12.1986,7.1205 12.3786,7.1945 12.5396,7.3015 C12.9866,7.5935 13.2096,8.0335 13.2096,8.6215 C13.2096,9.1435 13.0256,9.5535 12.6556,9.8515 C12.4986,9.9795 12.3196,10.0705 12.1196,10.1265 C11.9186,10.1825 11.6706,10.2105 11.3756,10.2105 L10.2246,10.2105 L10.2246,12.0115 L9.1056,12.0115 L9.1056,7.0145 Z M18,7.0146 L16.295,12.0116 L15.021,12.0116 L13.341,7.0146 L14.513,7.0146 L15.666,10.7576 L16.838,7.0146 L18,7.0146 Z M7,12.012 L8.119,12.012 L8.119,7.015 L7,7.015 L7,12.012 Z"/>
  </g>
</svg>
