<svg xmlns="http://www.w3.org/2000/svg" width="36" height="36" version="1.1" viewBox="0 0 36 36">
  <path fill="none" fill-rule="evenodd" stroke="#000" stroke-width="1" d="M27.75,29.25 L27.75,30 C27.75,31.242 26.742,32.25 25.5,32.25 C24.258,32.25 23.25,31.242 23.25,30 L23.25,29.25 M29.25,29.25 L6.75,29.25 L6.75,27.75 L6.75,26.25 L29.25,26.25 L29.25,29.25 Z M3.75,30 L3.75,25.5 M3.75,27.75 L6.75,27.75 M32.25,25.5 L32.25,30 M32.25,27.75 L29.25,27.75 M12.75,29.25 L12.75,30 C12.75,31.242 11.742,32.25 10.5,32.25 C9.258,32.25 8.25,31.242 8.25,30 L8.25,29.25 M19.79445,6.75 L18.43545,8.409 L13.38345,9.7125 L12.39045,9.204 L9.11595,11.5035 L10.59645,11.985 L6.69945,16.0725 L5.25045,21.0915 L8.12145,20.4015 L9.38895,19.701 L12.39195,22.419 L16.62945,21.969 L19.07145,19.47 L21.96045,23.25 L24.07245,19.0125 L28.98945,20.2275 L28.68045,17.6865 L30.75045,17.736 L30.53745,13.5855 L28.73595,12.285 L28.14945,13.3335 L25.76745,12.654 L26.65695,10.146 L21.66945,8.3145 L19.79445,6.75 Z"/>
</svg>
