<svg class="color-immutable" width="59" height="20" viewBox="0 0 59 20" fill="none" xmlns="http://www.w3.org/2000/svg"><path d="M1.792 0h55.416C58.197 0 59 .806 59 1.8v16.4c0 .994-.801 1.8-1.792 1.8H1.792A1.797 1.797 0 0 1 0 18.2V1.8C0 .806.803 0 1.792 0Z" fill="#000"/><path d="M12.8 7.661h-2.405c-.047-.564-.258-.994-.633-1.289-.369-.3-.888-.45-1.558-.45-.596 0-1.06.118-1.392.355-.327.232-.49.56-.49.981 0 .38.158.654.474.823.306.168 1.081.406 2.326.712 1.313.327 2.223.656 2.729.988.933.612 1.4 1.464 1.4 2.555 0 1.197-.47 2.141-1.408 2.832-.828.607-1.949.91-3.362.91-1.571 0-2.792-.359-3.662-1.076-.87-.717-1.321-1.738-1.353-3.061h2.515c.037.643.203 1.12.499 1.432.464.495 1.163.743 2.096.743.633 0 1.134-.124 1.503-.372.416-.284.625-.672.625-1.162 0-.49-.293-.85-.878-1.076-.322-.127-1.081-.356-2.278-.688-.75-.206-1.335-.401-1.756-.586-.422-.184-.76-.39-1.013-.617-.59-.527-.886-1.255-.886-2.183 0-1.113.462-1.993 1.384-2.642.786-.554 1.807-.83 3.062-.83 1.102 0 2.025.218 2.768.656 1.07.628 1.635 1.643 1.693 3.045ZM24.515 4.236v11.565h-2.54l-4.84-7.879.031 7.879h-2.428V4.236h2.57l4.81 7.863-.031-7.863h2.428ZM26.216 7.899c.026-.95.26-1.746.704-2.39.717-1.033 1.795-1.55 3.235-1.55 1.107 0 2.001.283 2.681.847.733.612 1.1 1.403 1.1 2.373 0 .58-.145 1.081-.435 1.503a2.1 2.1 0 0 1-1.163.846c.622.143 1.113.459 1.471.95.364.49.546 1.083.546 1.78 0 1.144-.422 2.08-1.265 2.807-.78.675-1.767 1.013-2.959 1.013-1.292 0-2.317-.372-3.077-1.115-.754-.744-1.131-1.749-1.131-3.014v-.15h2.223c0 .711.168 1.262.506 1.653.337.385.815.577 1.432.577s1.091-.182 1.424-.546a1.78 1.78 0 0 0 .458-1.226c0-.57-.195-1.02-.585-1.352-.322-.275-.817-.412-1.487-.412-.19 0-.377.01-.562.032v-1.7c.137.01.27.015.396.015 1.329 0 1.993-.493 1.993-1.48 0-.432-.145-.78-.435-1.043-.29-.27-.672-.404-1.147-.404-.543 0-.962.169-1.258.507-.295.337-.453.83-.474 1.479h-2.191ZM36.997 9.591c-.538-.184-.952-.487-1.242-.91-.285-.421-.427-.933-.427-1.534 0-1.002.411-1.8 1.234-2.397.728-.527 1.593-.79 2.595-.79 1.139 0 2.07.313 2.792.94.686.591 1.028 1.322 1.028 2.192 0 .606-.145 1.126-.435 1.558-.29.433-.701.746-1.234.941.417.122.757.277 1.02.467.734.533 1.1 1.31 1.1 2.334 0 1.176-.45 2.112-1.352 2.808-.76.585-1.736.878-2.927.878-1.292 0-2.32-.322-3.085-.965-.797-.67-1.195-1.548-1.195-2.634 0-1.018.354-1.806 1.06-2.365a2.924 2.924 0 0 1 1.068-.523Zm2.128-3.836c-.506 0-.915.142-1.226.427-.311.28-.467.649-.467 1.108 0 .48.156.864.467 1.155.316.284.738.427 1.265.427.528 0 .944-.143 1.25-.427.306-.285.46-.673.46-1.163 0-.48-.156-.855-.468-1.123-.305-.27-.733-.404-1.281-.404Zm-.016 4.707c-.57 0-1.036.176-1.4.53-.359.348-.538.796-.538 1.344 0 .565.182 1.023.546 1.377.37.353.846.53 1.432.53.664 0 1.163-.195 1.495-.586.321-.374.482-.806.482-1.297 0-.559-.184-1.018-.553-1.376-.354-.348-.842-.522-1.464-.522Z" fill="#FFDE15"/></svg>