<svg class="color-immutable" xmlns="http://www.w3.org/2000/svg" width="59" height="20" fill="none" viewBox="0 0 59 20"><path fill="#000" d="M1.792 0h55.416C58.197 0 59 .806 59 1.8v16.4c0 .994-.801 1.8-1.792 1.8H1.792A1.797 1.797 0 0 1 0 18.2V1.8C0 .806.803 0 1.792 0"/><path fill="#FFDE15" d="M12.8 7.661h-2.405q-.07-.846-.633-1.289-.553-.45-1.558-.45-.894 0-1.392.355-.49.349-.49.981 0 .57.474.823.459.252 2.326.712 1.97.49 2.729.988 1.4.918 1.4 2.555 0 1.796-1.408 2.832-1.242.91-3.362.91-2.357 0-3.662-1.076t-1.353-3.061h2.515q.055.964.499 1.432.696.743 2.096.743.95 0 1.503-.372.624-.427.625-1.162 0-.736-.878-1.076-.483-.19-2.278-.688-1.125-.309-1.756-.586-.633-.276-1.013-.617-.886-.79-.886-2.183 0-1.669 1.384-2.642 1.18-.83 3.062-.83 1.653 0 2.768.656 1.606.942 1.693 3.045M24.515 4.236v11.565h-2.54l-4.84-7.879.031 7.879h-2.428V4.236h2.57l4.81 7.863-.031-7.863zM26.216 7.899q.038-1.424.704-2.39 1.075-1.55 3.235-1.55 1.66 0 2.681.847 1.1.918 1.1 2.373 0 .87-.435 1.503a2.1 2.1 0 0 1-1.163.846q.933.214 1.471.95.546.735.546 1.78 0 1.716-1.265 2.807-1.17 1.013-2.959 1.013-1.938 0-3.077-1.115-1.131-1.116-1.131-3.014v-.15h2.223q0 1.067.506 1.653.506.577 1.432.577t1.424-.546a1.78 1.78 0 0 0 .458-1.226q0-.854-.585-1.352-.482-.412-1.487-.412-.285 0-.562.032v-1.7q.206.015.396.015 1.993 0 1.993-1.48 0-.648-.435-1.043-.435-.405-1.147-.404-.814 0-1.258.507-.442.505-.474 1.479zM36.997 9.592q-.807-.277-1.242-.91-.427-.633-.427-1.535 0-1.502 1.234-2.397 1.092-.79 2.595-.79 1.709 0 2.792.94 1.029.887 1.028 2.192 0 .91-.435 1.558-.435.649-1.234.941.625.182 1.02.467 1.1.799 1.1 2.334 0 1.764-1.352 2.808-1.14.878-2.927.878-1.938 0-3.085-.965-1.195-1.005-1.195-2.634 0-1.527 1.06-2.365a2.9 2.9 0 0 1 1.068-.523m2.128-3.837q-.76 0-1.226.427-.467.42-.467 1.108 0 .72.467 1.155.474.427 1.265.427t1.25-.427q.46-.428.46-1.163 0-.72-.468-1.123-.458-.404-1.281-.404m-.016 4.707q-.855 0-1.4.53-.538.522-.538 1.344 0 .847.546 1.377.554.53 1.432.53.996 0 1.495-.586.482-.56.482-1.297 0-.839-.553-1.376-.531-.522-1.464-.522"/></svg>