<svg xmlns="http://www.w3.org/2000/svg" width="16" height="16" fill="none" viewBox="0 0 16 16"><path fill="#000" fill-rule="evenodd" d="M13.646 14.354 12.293 13H9.947c-.09.405-.29.742-.568.995a2 2 0 0 1-1.346.505c-.475 0-.978-.16-1.369-.496-.291-.25-.51-.59-.608-1.004H2.5v-1c.323 0 .703-.058.99-.256.253-.174.51-.508.51-1.244V6.813h.5H4v-.02a2 2 0 0 1 .01-.18 4.467 4.467 0 0 1 .393-1.502L1.646 2.353l.708-.708 12 12zM7.116 13a.9.9 0 0 0 .2.246c.19.164.455.254.717.254a1 1 0 0 0 .673-.245.8.8 0 0 0 .19-.255h-1.78M5.173 5.88l6.12 6.12H4.61c.245-.378.39-.872.39-1.5V6.789l.007-.096a3.616 3.616 0 0 1 .166-.813M6.68 4.22C7.027 4.087 7.459 4 8 4c1.574 0 2.284.657 2.63 1.252A2.8 2.8 0 0 1 11 6.486V9.5h1v-3h-.5.5v-.018a2 2 0 0 0-.009-.152 3.82 3.82 0 0 0-.497-1.582C11.066 4.014 10.301 3.321 9 3.085V2H7v1.093q-.365.072-.681.196z" clip-rule="evenodd"/></svg>