<svg class="color-immutable" xmlns="http://www.w3.org/2000/svg" width="59" height="20" fill="none" viewBox="0 0 59 20"><path fill="#EB0000" fill-rule="evenodd" d="M2 0a2 2 0 0 0-2 2v16a2 2 0 0 0 2 2h55a2 2 0 0 0 2-2V2a2 2 0 0 0-2-2z" clip-rule="evenodd"/><path fill="#fff" fill-rule="evenodd" d="M23.193 6.66a7 7 0 0 0-.654-.349 7 7 0 0 0-.902-.307 5.9 5.9 0 0 0-1.573-.174q-2.055 0-3.361 1.362-1.308 1.362-1.308 3.472 0 1.644.927 2.575.927.93 2.583.93c.302.014.605-.026.894-.116l.645-3.074h-2.45l.38-1.827h4.686l-1.324 6.33q-.332.115-.596.19-.266.075-.894.2a9 9 0 0 1-1.672.124q-2.733 0-4.165-1.337t-1.432-3.862q0-3.123 1.896-4.96 1.896-1.835 5.108-1.835.984-.005 1.953.166a13 13 0 0 1 1.838.482zM4.583 4.201h8.924l-.38 1.828H9.864l-2.103 9.768H5.345L7.447 6.03H4.186zm23.13 0h-2.318l1.523 11.596h2.765L36.14 4.201h-2.517l-4.834 9.021z" clip-rule="evenodd"/></svg>