<svg xmlns="http://www.w3.org/2000/svg" width="36" height="36" fill="none" viewBox="0 0 36 36"><path fill="#000" fill-rule="evenodd" d="m12.02 4.364-.175-.622-.558.327c-.06.035-.163.09-.299.162-.612.325-1.884 1.002-2.805 1.784-.68.58-1.16 1.048-1.524 1.555-.368.514-.6 1.044-.818 1.72-.252.782-.333 1.672-.355 2.435-.015.519-.002 1.024.007 1.388l.006.301C4.993 14.829 4.75 16.436 4.75 18c0 7.318 5.932 13.25 13.25 13.25S31.25 25.318 31.25 18 25.318 4.75 18 4.75v1c6.765 0 12.25 5.485 12.25 12.25S24.765 30.25 18 30.25 5.75 24.765 5.75 18c0-1.396.207-2.813.625-4.058.431-.077 1.08-.197 1.735-.368a10 10 0 0 0 1.22-.393c.376-.152.745-.343 1.018-.586q.042-.038.109-.092c.44-.367 1.578-1.315 1.936-3.263.157-.85.12-1.858.022-2.738-.1-.886-.267-1.685-.394-2.138M8.832 6.777c.745-.633 1.72-1.175 2.374-1.527.079.382.16.856.216 1.363.095.843.12 1.737-.01 2.446-.293 1.583-1.177 2.326-1.605 2.684l-.123.105c-.148.132-.394.27-.729.407-.327.133-.707.25-1.096.351-.49.128-.977.226-1.37.3a21 21 0 0 1-.002-1.152c.02-.73.098-1.51.307-2.157.2-.62.392-1.044.679-1.444.291-.407.697-.813 1.36-1.376M17.5 23.721v3.28h1v-3.28a4.25 4.25 0 0 0 3.75-4.22v-2.75h-1.5V13.5h-1v3.25h-3.5V13.5h-1v3.25h-1.5v2.75a4.25 4.25 0 0 0 3.75 4.22m-2.75-4.22v-1.75h6.5v1.75a3.25 3.25 0 0 1-6.5 0" clip-rule="evenodd"/></svg>