<svg class="color-immutable" xmlns="http://www.w3.org/2000/svg" width="59" height="20" fill="none" viewBox="0 0 59 20"><g clip-path="url(#a)"><path stroke="#fff" d="M2 .5h55A1.5 1.5 0 0 1 58.5 2v16a1.5 1.5 0 0 1-1.5 1.5H2A1.5 1.5 0 0 1 .5 18V2A1.5 1.5 0 0 1 2 .5Z"/><path fill="#fff" d="M12.877 7.71h-2.449q-.072-.863-.644-1.314-.564-.459-1.587-.459-.91 0-1.418.363-.5.355-.5.999 0 .58.483.838.468.258 2.37.725 2.005.5 2.779 1.007 1.425.934 1.426 2.602 0 1.829-1.434 2.884-1.266.927-3.424.927-2.401 0-3.73-1.096T3.37 12.068h2.562q.056.984.507 1.459.71.757 2.135.757.967 0 1.531-.379.636-.434.636-1.184t-.894-1.096q-.49-.193-2.32-.7-1.144-.315-1.789-.597-.644-.282-1.031-.628-.903-.806-.902-2.224 0-1.7 1.41-2.69 1.2-.847 3.118-.847 1.683 0 2.82.669 1.635.96 1.723 3.102M22.344 7.162h-2.24Q19.79 5.8 18.557 5.8q-1.305 0-1.853 1.604-.224.653-.362 1.973.531-.717 1.128-1.03.604-.315 1.45-.315 1.659 0 2.667 1.176.958 1.111.958 2.788 0 1.99-1.289 3.198-1.16 1.088-2.787 1.088-2.087 0-3.247-1.571-1.16-1.58-1.16-4.399 0-3.014 1.24-4.721 1.2-1.652 3.28-1.652 1.957 0 2.997 1.313.595.758.765 1.91M18.356 9.86q-.846 0-1.346.709-.45.628-.45 1.498 0 .862.459 1.507.5.717 1.37.717.845 0 1.36-.685.484-.645.484-1.522 0-.863-.435-1.475-.531-.75-1.442-.75"/></g><defs><clipPath id="a"><path fill="#fff" d="M0 0h59v20H0z"/></clipPath></defs></svg>