<?xml version="1.0" encoding="utf-8"?>
<!-- Generator: Adobe Illustrator 24.2.0, SVG Export Plug-In . SVG Version: 6.00 Build 0)  -->
<svg version="1.0" id="Ebene_1" xmlns="http://www.w3.org/2000/svg" xmlns:xlink="http://www.w3.org/1999/xlink" x="0px" y="0px"
	 viewBox="0 0 24 24" enable-background="new 0 0 24 24" xml:space="preserve">
<g id="SVG_x5F_24x24pt">
	<path id="backgroundBlue" fill="#2D327D" d="M0,22.5v-21C0,0.675,0.675,0,1.5,0h21C23.325,0,24,0.675,24,1.5v21
		c0,0.825-0.675,1.5-1.5,1.5h-21C0.675,24,0,23.325,0,22.5z"/>
	<g id="content">
		<path fill="#FFFFFF" d="M19.875,9l-1.313,2.055l-4.688-0.18L15,3h-1.845l-2.635,7.875H4.125C3.504,10.875,3,11.379,3,12
			c0,0.621,0.504,1.125,1.125,1.125l0,0h6.395L13.155,21H15l-1.125-7.875l4.688-0.18L19.875,15H21l-0.75-3L21,9H19.875L19.875,9z"/>
	</g>
</g>
</svg>
