<svg class="color-immutable" xmlns="http://www.w3.org/2000/svg" width="59" height="20" fill="none" viewBox="0 0 59 20"><path fill="#E84E10" fill-rule="evenodd" d="M2 0a2 2 0 0 0-2 2v16a2 2 0 0 0 2 2h55a2 2 0 0 0 2-2V2a2 2 0 0 0-2-2z" clip-rule="evenodd"/><path fill="#000" d="M14.153 4.17v2.142H7.98v2.476h5.657v1.991H7.98v2.849h6.284v2.142H5.45V4.17zM25.311 4.17l-3.856 11.6h-2.88l-3.8-11.6h2.65l2.61 8.688 2.65-8.688zM33.415 7.066h-2.206q-.309-1.341-1.524-1.341-1.285 0-1.825 1.579-.222.642-.357 1.944.525-.706 1.111-1.016.595-.31 1.428-.31 1.635 0 2.627 1.16.945 1.094.944 2.745 0 1.959-1.27 3.15-1.142 1.07-2.745 1.07-2.055 0-3.197-1.546-1.143-1.555-1.143-4.333 0-2.967 1.222-4.65 1.182-1.626 3.23-1.626 1.927 0 2.95 1.293.588.747.755 1.88m-3.928 2.658q-.833 0-1.325.698-.444.62-.444 1.476 0 .848.452 1.484.491.706 1.349.706.833 0 1.34-.674.477-.635.477-1.5 0-.849-.429-1.452-.523-.738-1.42-.738M42.415 13.707v2.063H34.06q0-.945.301-1.801a4.4 4.4 0 0 1 .865-1.476 8 8 0 0 1 1-.928q.579-.452 2.293-1.659.833-.578 1.166-1.079a2.04 2.04 0 0 0 .333-1.158q0-.762-.452-1.23-.444-.476-1.174-.476-1.794 0-1.849 2.579h-2.23v-.254q0-2.11 1.183-3.27 1.15-1.125 2.975-1.126 1.62 0 2.706.92 1.182 1 1.182 2.69 0 1.475-.944 2.54-.31.348-.58.563-.27.206-1.42 1.007-1.095.762-1.57 1.167-.47.405-.873.928z"/></svg>