<svg xmlns="http://www.w3.org/2000/svg" width="24" height="24" fill="none" viewBox="0 0 24 24"><path fill="#000" fill-rule="evenodd" d="M9.5 2H9v1H3v19h18V3h-6V2H9.5m.5 1.5V3h4v1h-4zM9 4H4v17h16V4h-5v1H9V4m2.305 12.783h1.266v-1.219h-1.266zm-1.57-7.617q-.386.597-.427 1.688h1.007q.123-1.922 1.688-1.922.756 0 1.143.486.322.399.322.984 0 .316-.112.621-.134.358-.568.803-.674.692-.87.944a1.9 1.9 0 0 0-.302.568q-.146.433-.158 1.33h.996q0-.504.06-.82.051-.316.183-.531.132-.213.466-.536.756-.738.955-1.013.445-.604.445-1.442 0-1.014-.656-1.635-.703-.673-1.892-.673-.74 0-1.33.298-.591.3-.95.85" clip-rule="evenodd"/></svg>