<svg class="color-immutable" xmlns="http://www.w3.org/2000/svg" width="59" height="20" fill="none" viewBox="0 0 59 20"><g clip-path="url(#a)"><path stroke="#fff" d="M2 .5h55A1.5 1.5 0 0 1 58.5 2v16a1.5 1.5 0 0 1-1.5 1.5H2A1.5 1.5 0 0 1 .5 18V2A1.5 1.5 0 0 1 2 .5Z"/><path fill="#fff" d="M4.08 4.224h5.704q1.692 0 2.594.532.749.435 1.144 1.16t.395 1.636q0 1.03-.5 1.796-.491.765-1.377 1.096.78.194 1.224.87.282.428.379.894.096.467.25 2.135.112 1.225.346 1.523l.113.137h-2.683a2 2 0 0 1-.202-.636q-.056-.387-.152-1.79-.098-1.248-.613-1.723-.507-.483-1.74-.484H6.65v4.633H4.08zm2.57 2.022v3.24h2.457q1.184 0 1.668-.34.612-.427.612-1.288 0-.838-.524-1.225t-1.651-.387zM16.092 4.224h5.301q1.709 0 2.546.427.79.403 1.193 1.168.338.645.338 1.37 0 .806-.41 1.434-.412.629-1.193.991.676.226 1.015.475 1.143.839 1.144 2.441 0 .951-.427 1.709-.42.757-1.209 1.216-.934.548-2.521.548h-5.777zm2.57 2.022v2.748h2.353q.82 0 1.208-.194.717-.346.717-1.192 0-.717-.451-1.04-.45-.322-1.474-.322zm0 4.504v3.23h2.602q1.12 0 1.571-.314.597-.426.597-1.297 0-1.038-.806-1.418-.443-.201-1.49-.201zM33.011 4.224v11.779h-2.353v-7.71h-2.771V6.585q.862-.024 1.402-.178.548-.153.999-.499.653-.5.878-1.684zM40.431 3.942q1.346 0 2.369.822 1.015.822 1.474 2.53.347 1.305.347 2.836 0 2.537-.903 4.173-.531.95-1.394 1.466a3.6 3.6 0 0 1-1.909.516q-1.442 0-2.465-.87-1.821-1.547-1.821-5.285 0-2.66.95-4.27a3.84 3.84 0 0 1 1.41-1.418 3.86 3.86 0 0 1 1.942-.5m-.088 1.99q-1.16 0-1.58 1.338-.33 1.063-.33 2.98 0 1.692.339 2.716.435 1.329 1.61 1.329.975 0 1.451-1.031.475-1.032.475-3.15 0-1.806-.338-2.844-.435-1.338-1.627-1.338"/></g><defs><clipPath id="a"><path fill="#fff" d="M0 0h59v20H0z"/></clipPath></defs></svg>