<svg xmlns="http://www.w3.org/2000/svg" width="24" height="24" version="1.1" viewBox="0 0 24 24">
  <path fill="none" fill-rule="evenodd" stroke="#000" stroke-width="1" d="M8.0898,3.2246 L7.1468,5.8706 C6.9418,6.4456 7.2318,7.0636 7.7858,7.3076 C11.8368,9.0916 15.0588,12.4316 16.7078,16.5896 C16.9328,17.1576 17.5338,17.4696 18.1088,17.2796 L20.7538,16.4026 C21.3278,16.2116 21.6488,15.5736 21.4318,15.0026 C19.2958,9.3916 14.9598,4.8996 9.4928,2.5796 C8.9358,2.3436 8.2948,2.6506 8.0898,3.2246 Z M12.5,15 C12.5,15.828 11.829,16.5 11,16.5 C10.171,16.5 9.5,15.828 9.5,15 C9.5,14.172 10.171,13.5 11,13.5 C11.829,13.5 12.5,14.172 12.5,15 Z M7.4907,7.1221 L2.5387,20.6281 C2.3587,21.1401 2.8397,21.6371 3.3487,21.4661 L16.9087,16.9271 M6.4521,9.9541 C7.0821,10.2471 7.5191,10.8911 7.5191,11.6381 C7.5191,12.6601 6.7001,13.4891 5.6881,13.4891 C5.5131,13.4891 5.3431,13.4651 5.1821,13.4181 M5.5874,20.7168 C5.5144,20.5298 5.4754,20.3248 5.47638124,20.1128 C5.4814,19.2188 6.2014,18.4978 7.0854,18.5038 C7.8214,18.5078 8.4394,19.0148 8.6204,19.7008"/>
</svg>
