<?xml version="1.0" encoding="utf-8"?>
<!-- Generator: Adobe Illustrator 24.3.0, SVG Export Plug-In . SVG Version: 6.00 Build 0)  -->
<svg version="1.0" xmlns="http://www.w3.org/2000/svg" xmlns:xlink="http://www.w3.org/1999/xlink" x="0px" y="0px"
	 viewBox="0 0 24 24" enable-background="new 0 0 24 24" xml:space="preserve">
<g id="SVG_x5F_24x24pt">
	<path id="backgroundBlue" fill="#2D327D" d="M0,22.5v-21C0,0.675,0.675,0,1.5,0h21C23.325,0,24,0.675,24,1.5v21
		c0,0.825-0.675,1.5-1.5,1.5h-21C0.675,24,0,23.325,0,22.5z"/>
	<g id="content">
		<path fill="#FFFFFF" d="M6.6,13.5c0,0.571,0.206,1.095,0.549,1.5c0.426,0.505,1.063,0.825,1.776,0.825
			c0.712,0,1.35-0.32,1.776-0.825c0.343-0.405,0.549-0.929,0.549-1.5c0-1.284-1.041-2.325-2.325-2.325S6.6,12.216,6.6,13.5z
			 M7.725,13.5c0-0.663,0.537-1.2,1.2-1.2s1.2,0.537,1.2,1.2c0,0.663-0.537,1.2-1.2,1.2S7.725,14.163,7.725,13.5z"/>
		<rect x="12.374" y="12.6" fill="#FFFFFF" width="8.625" height="1.5"/>
		<path fill="#FFFFFF" d="M2.999,8.175L3,13.725C3,13.932,3.168,14.1,3.375,14.1h1.95c0.207,0,0.375-0.168,0.375-0.375V13.5v-0.011
			c0.006-1.776,1.447-3.214,3.225-3.214c0.915,0,1.741,0.381,2.327,0.992L11.249,4.35H5.026c-0.611,0-1.146,0.41-1.304,1
			L3.046,7.825C3.015,7.939,2.999,8.057,2.999,8.175z M8.999,5.025c0.207,0,0.375,0.168,0.375,0.375v2.175
			c0,0.207-0.168,0.375-0.375,0.375h-4.8c-0.207,0-0.375-0.168-0.375-0.375c0-0.033,0.004-0.065,0.013-0.097L4.373,5.47
			C4.444,5.207,4.679,5.025,4.95,5.025H8.999z"/>
		<polygon fill="#FFFFFF" points="21,16.2 3,16.2 3,17.325 21,17.325 21,16.2 		"/>
		<polygon fill="#FFFFFF" points="3,20.325 21,20.325 21,21 3,21 3,20.325 		"/>
		<path fill="#FFFFFF" d="M4.498,18.787c0-0.6,0.487-1.086,1.088-1.086c0.6,0,1.087,0.487,1.087,1.086
			c0,0.601-0.487,1.088-1.087,1.088C4.985,19.875,4.498,19.388,4.498,18.787L4.498,18.787z"/>
		<path fill="#FFFFFF" d="M7.422,18.787c0-0.6,0.488-1.086,1.088-1.086c0.6,0,1.088,0.487,1.088,1.086
			c0,0.601-0.488,1.088-1.088,1.088C7.91,19.875,7.422,19.388,7.422,18.787L7.422,18.787z"/>
		<path fill="#FFFFFF" d="M14.398,18.787c0-0.6,0.487-1.086,1.088-1.086c0.6,0,1.087,0.487,1.087,1.086
			c0,0.601-0.487,1.088-1.087,1.088C14.885,19.875,14.398,19.388,14.398,18.787L14.398,18.787z"/>
		<path fill="#FFFFFF" d="M17.322,18.787c0-0.6,0.488-1.086,1.088-1.086c0.6,0,1.088,0.487,1.088,1.086
			c0,0.601-0.488,1.088-1.088,1.088C17.81,19.875,17.322,19.388,17.322,18.787L17.322,18.787z"/>
		<path fill="#FFFFFF" d="M21,7.275h-5.7c-0.207,0-0.375-0.168-0.375-0.375s0.168-0.375,0.375-0.375H21v-0.75h-5.7
			c-0.207,0-0.375-0.168-0.375-0.375s0.168-0.375,0.375-0.375H21L21,3h-8.25c-0.207,0-0.375,0.168-0.375,0.375
			c0,2.625,0,8.475,0,8.475L21,11.846L21,7.275z"/>
	</g>
</g>
</svg>
