<?xml version="1.0" encoding="utf-8"?>
<!-- Generator: Adobe Illustrator 24.2.0, SVG Export Plug-In . SVG Version: 6.00 Build 0)  -->
<svg version="1.0" id="Ebene_1" xmlns="http://www.w3.org/2000/svg" xmlns:xlink="http://www.w3.org/1999/xlink" x="0px" y="0px"
	 viewBox="0 0 24 24" enable-background="new 0 0 24 24" xml:space="preserve">
<g id="SVG_x5F_24x24pt">
	<path id="backgroundBlue" fill="#2D327D" d="M0,22.5v-21C0,0.675,0.675,0,1.5,0h21C23.325,0,24,0.675,24,1.5v21
		c0,0.825-0.675,1.5-1.5,1.5h-21C0.675,24,0,23.325,0,22.5z"/>
	<g id="content">
		<path fill="#FFFFFF" d="M13.582,4.186c0.065-0.065,0.102-0.153,0.102-0.245c0-0.192-0.155-0.347-0.347-0.347
			c-0.092,0-0.18,0.036-0.245,0.102L9.21,7.576H6.124c-0.553,0-1.04,0.361-1.202,0.89l-1.894,6.203
			c-0.017,0.057-0.026,0.116-0.026,0.175v2.706c0,0.207,0.168,0.375,0.375,0.375h17.624v-4.425h-3.637
			c-0.207,0-0.375-0.168-0.375-0.375v-4.5c0-0.207,0.168-0.375,0.375-0.375h3.637V7.576h-10.81L13.582,4.186L13.582,4.186z
			 M6.752,14.626c0,0.207-0.168,0.375-0.375,0.375H4.159c-0.207,0-0.375-0.168-0.375-0.375c0-0.037,0.006-0.074,0.016-0.109
			l1.814-5.942l0,0c0.072-0.237,0.291-0.398,0.538-0.398H6.19c0.311,0,0.562,0.252,0.562,0.562V14.626L6.752,14.626z M8.571,14.513
			c0,0.31-0.252,0.562-0.562,0.562c-0.311,0-0.562-0.252-0.562-0.562V8.739c0-0.311,0.252-0.562,0.562-0.562
			c0.31,0,0.562,0.252,0.562,0.562V14.513L8.571,14.513z M11.064,8.626c0-0.207,0.168-0.375,0.375-0.375h4.5
			c0.207,0,0.375,0.168,0.375,0.375v4.5c0,0.207-0.168,0.375-0.375,0.375h-4.5c-0.207,0-0.375-0.168-0.375-0.375V8.626L11.064,8.626
			z M10.389,8.739v5.774c0,0.31-0.252,0.562-0.562,0.562c-0.311,0-0.562-0.252-0.562-0.562V8.739c0-0.311,0.252-0.562,0.562-0.562
			C10.137,8.176,10.389,8.428,10.389,8.739L10.389,8.739z"/>
		<path fill="#FFFFFF" d="M11.653,18.675H7.874c0.311,0.77,1.059,1.275,1.89,1.275C10.595,19.95,11.342,19.446,11.653,18.675
			L11.653,18.675z"/>
		<path fill="#FFFFFF" d="M16.153,18.675L16.153,18.675h-3.78c0.311,0.77,1.059,1.275,1.89,1.275
			C15.094,19.95,15.842,19.446,16.153,18.675L16.153,18.675z"/>
		<polygon fill="#FFFFFF" points="3,20.325 21,20.325 21,21 3,21 3,20.325 		"/>
		<polygon fill="#FFFFFF" points="3,3 21,3 21,3.338 3,3.338 3,3 		"/>
	</g>
</g>
</svg>
