<svg xmlns="http://www.w3.org/2000/svg" width="24" height="24" fill="none" viewBox="0 0 24 24"><path fill="#000" fill-rule="evenodd" d="M9.974 6.342 9.86 6H2v11.5A1.5 1.5 0 0 0 3.5 19h4A1.5 1.5 0 0 0 9 17.5a1.5 1.5 0 0 0 1.5 1.5h10a1.5 1.5 0 0 0 1.5-1.5v-2a3.5 3.5 0 0 0-3.5-3.5h-2.372l-1.508-.822-1.94-1.059-1.768-.964zM21 17.5V17H10v.5a.5.5 0 0 0 .5.5h10a.5.5 0 0 0 .5-.5m0-1.5v-.5a2.5 2.5 0 0 0-2.5-2.5h-2.627l-.112-.061-1.29-.704-1.117 1.118-.708-.706.91-.91-1.027-.56-1.175 1.176-.708-.706.968-.97-1.025-.559-1.235 1.236-.708-.707 1.282-1.282L9.14 7H3v9zM3 17v.5a.5.5 0 0 0 .5.5h4a.5.5 0 0 0 .5-.5V17z" clip-rule="evenodd"/></svg>