<svg class="color-immutable" width="59" height="20" viewBox="0 0 59 20" fill="none" xmlns="http://www.w3.org/2000/svg"><path fill-rule="evenodd" clip-rule="evenodd" d="M2 0a2 2 0 0 0-2 2v16a2 2 0 0 0 2 2h55a2 2 0 0 0 2-2V2a2 2 0 0 0-2-2H2Z" fill="#F27E00"/><path d="M14.153 4.17v2.142H7.98v2.476h5.657v1.991H7.98v2.849h6.284v2.142H5.45V4.17h8.704ZM25.311 4.17l-3.856 11.6h-2.88l-3.8-11.6h2.65l2.61 8.688 2.65-8.688h2.626ZM33.613 13.707v2.063h-8.355c0-.63.1-1.23.301-1.801a4.438 4.438 0 0 1 .865-1.476 8.124 8.124 0 0 1 1-.928c.386-.302 1.15-.855 2.293-1.659.556-.386.944-.745 1.167-1.079a2.04 2.04 0 0 0 .333-1.158c0-.508-.151-.918-.452-1.23-.297-.317-.688-.476-1.175-.476-1.195 0-1.811.86-1.849 2.579h-2.23v-.254c0-1.407.395-2.497 1.183-3.27.767-.75 1.759-1.126 2.976-1.126 1.079 0 1.98.307 2.705.92.788.667 1.182 1.563 1.182 2.69 0 .984-.314 1.83-.944 2.54-.206.232-.4.42-.579.563-.18.137-.653.473-1.42 1.007-.73.508-1.254.897-1.571 1.167a6.37 6.37 0 0 0-.873.928h5.443ZM38.289 3.892c.883 0 1.66.27 2.332.81.667.539 1.151 1.37 1.453 2.49.227.858.34 1.789.34 2.794 0 1.666-.296 3.036-.888 4.11-.35.624-.807 1.105-1.373 1.444a3.567 3.567 0 0 1-1.88.508c-.947 0-1.756-.286-2.428-.857-1.196-1.016-1.793-2.75-1.793-5.205 0-1.746.312-3.148.936-4.206a3.782 3.782 0 0 1 1.389-1.396 3.8 3.8 0 0 1 1.912-.492Zm-.088 1.96c-.761 0-1.28.439-1.555 1.317-.217.698-.325 1.677-.325 2.936 0 1.11.111 2.002.333 2.674.286.873.815 1.309 1.587 1.309.64 0 1.116-.339 1.428-1.016.312-.677.469-1.711.469-3.102 0-1.185-.112-2.119-.334-2.801-.285-.878-.82-1.317-1.603-1.317Z" fill="#000"/></svg>