<svg class="color-immutable" xmlns="http://www.w3.org/2000/svg" width="59" height="20" fill="none" viewBox="0 0 59 20"><path fill="#E84E10" fill-rule="evenodd" d="M2 0a2 2 0 0 0-2 2v16a2 2 0 0 0 2 2h55a2 2 0 0 0 2-2V2a2 2 0 0 0-2-2z" clip-rule="evenodd"/><path fill="#000" d="M14.153 4.17v2.142H7.98v2.476h5.657v1.991H7.98v2.849h6.284v2.142H5.45V4.17zM25.311 4.17l-3.856 11.6h-2.88l-3.8-11.6h2.65l2.61 8.688 2.65-8.688zM33.613 13.707v2.063h-8.355q0-.945.301-1.801a4.4 4.4 0 0 1 .865-1.476 8 8 0 0 1 1-.928q.579-.453 2.293-1.659.833-.578 1.167-1.079a2.04 2.04 0 0 0 .333-1.158q0-.762-.452-1.23-.445-.476-1.175-.476-1.793 0-1.849 2.579h-2.23v-.254q0-2.11 1.183-3.27 1.15-1.126 2.976-1.126 1.618 0 2.705.92 1.182 1 1.182 2.69 0 1.476-.944 2.54-.31.348-.579.563-.27.206-1.42 1.007-1.095.762-1.571 1.167a6.4 6.4 0 0 0-.873.928zM38.289 3.892q1.324 0 2.332.81 1 .81 1.453 2.49.34 1.287.34 2.794 0 2.499-.888 4.11-.524.936-1.373 1.444a3.57 3.57 0 0 1-1.88.508q-1.42 0-2.428-.857-1.793-1.523-1.793-5.205 0-2.619.936-4.206a3.8 3.8 0 0 1 1.388-1.396 3.8 3.8 0 0 1 1.913-.492m-.088 1.96q-1.142 0-1.555 1.317-.325 1.047-.325 2.936 0 1.665.333 2.674.429 1.31 1.587 1.309.96 0 1.428-1.016.468-1.015.468-3.102 0-1.778-.333-2.801-.428-1.317-1.603-1.317"/></svg>