<svg class="color-immutable" xmlns="http://www.w3.org/2000/svg" width="59" height="20" fill="none" viewBox="0 0 59 20"><path fill="#EB0000" fill-rule="evenodd" d="M2 0a2 2 0 0 0-2 2v16a2 2 0 0 0 2 2h55a2 2 0 0 0 2-2V2a2 2 0 0 0-2-2z" clip-rule="evenodd"/><path fill="#fff" d="M42.292 4.235V15.8H39.99V8.23h-2.712V6.553a5.8 5.8 0 0 0 1.376-.174c.353-.1.683-.266.974-.49q.638-.49.859-1.654zM53.36 4.235v1.962q-.094.103-.56.64c-.488.58-.918 1.207-1.284 1.872a13 13 0 0 0-.993 2.163 18.2 18.2 0 0 0-.907 4.928h-2.38c.032-.98.184-1.952.452-2.895a19 19 0 0 1 1.187-3.18q1.08-2.247 2.191-3.346h-5.439V4.235zM9.22 4.2h4.056L8.258 15.8H4.185zM25.98 12.366a.93.93 0 0 0 .847-.553L30.119 4.2H15.984l-5.018 11.6h4.038l3.8-8.69h5.993l-1.201 2.775-5.226-.019 4.217 5.934h4.597l-3.124-3.434z"/></svg>