<svg xmlns="http://www.w3.org/2000/svg" width="24" height="24" viewBox="0 0 24 24">
  <path fill="none" stroke="#000" d="M9.5,6.5 L2.5,6.5 L2.5,2.5 L11.5,2.5 L9.5,6.5 Z M16,17.5 L21.5,17.5 L21.5,21.5 L2.5,21.5 L2.5,2.5 M2.5,17.5 L9,17.5 M13.5,17.5 C13.5,18.053 13.053,18.5 12.5,18.5 C11.948,18.5 11.5,18.053 11.5,17.5 C11.5,16.947 11.948,16.5 12.5,16.5 C13.053,16.5 13.5,16.947 13.5,17.5 Z M9.5,12.5 C9.5,13.604 8.604,14.5 7.5,14.5 C6.396,14.5 5.5,13.604 5.5,12.5 C5.5,11.396 6.396,10.5 7.5,10.5 C8.604,10.5 9.5,11.396 9.5,12.5 Z M9.5,6.5 L9.5,8.5 C14.471,8.5 18.5,12.529 18.5,17.5 M8.9141,13.9141 L11.7931,16.7931 M19.666,13.2676 L20.008,14.2076 M18.7764,11.5669 L19.2764,12.4329 M17.6055,10.0464 L18.2485,10.8124 M16.1875,8.752 L16.9545,9.395"/>
</svg>
