<?xml version="1.0" encoding="utf-8"?>
<!-- Generator: Adobe Illustrator 24.2.0, SVG Export Plug-In . SVG Version: 6.00 Build 0)  -->
<svg version="1.0" id="Ebene_1" xmlns="http://www.w3.org/2000/svg" xmlns:xlink="http://www.w3.org/1999/xlink" x="0px" y="0px"
	 viewBox="0 0 24 24" enable-background="new 0 0 24 24" xml:space="preserve">
<g id="SVG_x5F_24x24pt">
	<path id="backgroundBlue" fill="#2D327D" d="M0,22.5v-21C0,0.675,0.675,0,1.5,0h21C23.325,0,24,0.675,24,1.5v21
		c0,0.825-0.675,1.5-1.5,1.5h-21C0.675,24,0,23.325,0,22.5z"/>
	<g id="content_1_">
		<g>
			<path fill="#FFFFFF" d="M16.628,10.876h-2.566c-0.24-1.04-0.831-1.56-1.772-1.56c-0.997,0-1.704,0.612-2.123,1.836
				c-0.172,0.498-0.311,1.252-0.415,2.261c0.406-0.547,0.838-0.941,1.297-1.181c0.458-0.24,1.01-0.36,1.656-0.36
				c1.267,0,2.286,0.449,3.055,1.347c0.732,0.849,1.098,1.913,1.098,3.193c0,1.52-0.492,2.741-1.477,3.664
				c-0.886,0.831-1.95,1.246-3.193,1.246c-1.593,0-2.833-0.601-3.719-1.804c-0.886-1.203-1.329-2.881-1.329-5.034
				c0-2.301,0.474-4.104,1.421-5.408c0.917-1.261,2.169-1.892,3.756-1.892c1.495,0,2.639,0.501,3.433,1.504
				C16.207,9.268,16.499,9.997,16.628,10.876z M12.06,13.968c-0.646,0-1.16,0.271-1.541,0.812c-0.345,0.48-0.517,1.052-0.517,1.717
				c0,0.658,0.175,1.234,0.526,1.726c0.381,0.548,0.904,0.821,1.569,0.821c0.646,0,1.166-0.261,1.56-0.784
				c0.369-0.492,0.554-1.074,0.554-1.744c0-0.658-0.166-1.221-0.498-1.689C13.306,14.254,12.755,13.968,12.06,13.968z"/>
		</g>
		<g>
			<path fill="#FFFFFF" d="M5.036,3L4.288,5.249H3.73L2.993,3h0.514l0.506,1.684L4.527,3H5.036z"/>
			<path fill="#FFFFFF" d="M5.874,3.523c0.244,0,0.443,0.081,0.598,0.243c0.153,0.16,0.229,0.373,0.229,0.64
				c0,0.276-0.082,0.496-0.245,0.66C6.304,5.218,6.105,5.295,5.86,5.295c-0.261,0-0.47-0.085-0.624-0.255
				C5.088,4.877,5.014,4.667,5.014,4.409c0-0.254,0.072-0.461,0.215-0.62C5.389,3.612,5.603,3.523,5.874,3.523z M5.851,3.871
				c-0.118,0-0.212,0.048-0.281,0.143C5.499,4.11,5.463,4.242,5.463,4.409c0,0.173,0.035,0.306,0.105,0.398
				c0.072,0.093,0.17,0.14,0.294,0.14c0.116,0,0.208-0.043,0.275-0.128c0.077-0.094,0.115-0.231,0.115-0.411
				c0-0.168-0.034-0.299-0.102-0.392C6.08,3.919,5.98,3.871,5.851,3.871z"/>
			<path fill="#FFFFFF" d="M7.449,3v0.401H7.003V3H7.449z M7.449,3.572v1.677H7.003V3.572H7.449z"/>
			<path fill="#FFFFFF" d="M9.321,4.726C9.297,4.82,9.255,4.909,9.193,4.992c-0.148,0.202-0.36,0.303-0.637,0.303
				c-0.25,0-0.451-0.079-0.601-0.237c-0.074-0.077-0.13-0.17-0.169-0.278C7.744,4.664,7.723,4.543,7.723,4.417
				c0-0.244,0.07-0.449,0.211-0.615c0.157-0.186,0.36-0.278,0.609-0.278c0.201,0,0.372,0.062,0.514,0.186
				c0.102,0.089,0.175,0.199,0.221,0.33s0.069,0.295,0.069,0.493h-1.17c0.004,0.082,0.017,0.15,0.038,0.205
				c0.06,0.147,0.175,0.22,0.345,0.22c0.083,0,0.151-0.018,0.203-0.055c0.052-0.036,0.095-0.095,0.129-0.176H9.321z M8.892,4.232
				C8.884,4.151,8.865,4.084,8.836,4.031C8.808,3.978,8.767,3.937,8.714,3.906C8.661,3.875,8.604,3.86,8.541,3.86
				c-0.099,0-0.181,0.033-0.246,0.1C8.23,4.026,8.192,4.117,8.18,4.232H8.892z"/>
		</g>
	</g>
</g>
</svg>
