<svg xmlns="http://www.w3.org/2000/svg" width="36" height="36" fill="none" viewBox="0 0 36 36"><path fill="#000" fill-rule="evenodd" d="M5.25 7.75h-.5v14.5h4.5v4.082l.854-.853 3.228-3.229h.418v4.5h8.918l3.228 3.229.854.853V26.75h4.5v-14.5h-7.5v-4.5H5.25m18.5 5.5v3.5h4.75v1h-4.75v2H27v1h-3.25v1.5h-9v3.5h8.332l.147.146 2.521 2.522V25.75h4.5v-12.5zm-18 8V8.75h17v12.5h-9.832l-.147.146-2.521 2.522V21.25h-4.5m7.492-2.308h1.266v-1.218h-1.266zm-1.569-7.617q-.387.6-.427 1.688h1.006q.124-1.922 1.688-1.922.756 0 1.143.486.322.4.322.986 0 .315-.11.62-.135.357-.57.803-.673.691-.87.944a1.8 1.8 0 0 0-.3.568q-.146.432-.16 1.33h.996q0-.505.059-.821.054-.315.184-.53.132-.212.467-.537.756-.739.955-1.012.444-.604.444-1.442 0-1.013-.655-1.635-.704-.673-1.893-.673-.738 0-1.33.298-.593.3-.949.85" clip-rule="evenodd"/></svg>