<?xml version="1.0" encoding="utf-8"?>
<!-- Generator: Adobe Illustrator 25.3.1, SVG Export Plug-In . SVG Version: 6.00 Build 0)  -->
<svg version="1.0" id="_x3C_Ebene_x3E_" xmlns="http://www.w3.org/2000/svg" xmlns:xlink="http://www.w3.org/1999/xlink" x="0px"
	 y="0px" viewBox="0 0 24 24" enable-background="new 0 0 24 24" xml:space="preserve">
<g id="SVG_x5F_24x24pt">
	<path id="backgroundBlue" fill="#2D327D" d="M0,22.5v-21C0,0.675,0.675,0,1.5,0h21C23.325,0,24,0.675,24,1.5v21
		c0,0.825-0.675,1.5-1.5,1.5h-21C0.675,24,0,23.325,0,22.5z"/>
	<g id="content">
		<g>
			<circle fill="#FFFFFF" cx="13.93" cy="3.885" r="0.902"/>
		</g>
		<g>
			<circle fill="#FFFFFF" cx="11.981" cy="6.66" r="0.902"/>
		</g>
		<g>
			<circle fill="#FFFFFF" cx="14.684" cy="9.81" r="0.902"/>
		</g>
		<g>
			
				<rect x="5.391" y="16.18" transform="matrix(0.7071 -0.7071 0.7071 0.7071 -11.2134 10.0133)" fill="#FFFFFF" width="2.179" height="4.725"/>
		</g>
		<g>
			<path fill="#FFFFFF" d="M17.707,14.005l-1.442,1.442c0,0,0,0.001,0,0.001c0.002,0.018,0.004,0.037,0.006,0.056
				c0.003,0.031,0.005,0.063,0.005,0.095c0,0.663-0.537,1.2-1.2,1.2h-3.45v-0.375h3.45c0.456,0,0.825-0.369,0.825-0.825
				c0-0.455-0.371-0.823-0.825-0.825h-2.302c-0.464,0-0.759-0.135-1.036-0.275c-0.016-0.008-0.032-0.016-0.048-0.024l-0.059-0.03
				c-0.03-0.016-0.061-0.03-0.091-0.045c-0.534-0.269-1.126-0.32-1.723-0.32c-1.033,0-1.797,0.312-2.519,1.044l-1.087,1.082
				l2.601,2.601L9.315,18.3l5.764-0.005c0.435,0,0.827-0.164,1.126-0.434l0.641-0.631l2.904-2.904l0.097-0.097
				C20.094,13.906,18.646,13.066,17.707,14.005z"/>
		</g>
		<g>
			<path fill="#FFFFFF" d="M9.815,13.705c0.582,0,1.262,0.043,1.892,0.361c0.01,0.004,0.02,0.009,0.029,0.014
				c0.022,0.011,0.044,0.022,0.066,0.033l0.056,0.029l0.047,0.023c0.262,0.133,0.492,0.235,0.866,0.235h2.304
				c0.237,0.001,0.458,0.071,0.644,0.19c0.134-0.143,0.233-0.322,0.28-0.526c0.148-0.627-0.241-1.255-0.868-1.403
				c-0.252-0.059-0.503-0.032-0.725,0.063c-0.092-0.503-0.532-0.886-1.063-0.886c-0.038,0-0.076,0.002-0.113,0.006
				c-0.139-0.485-0.528-0.884-1.054-1.008c-0.775-0.182-1.551,0.298-1.734,1.072c-0.012,0.053-0.02,0.106-0.026,0.159
				c-0.07-0.012-0.141-0.02-0.214-0.02c-0.674,0-1.221,0.547-1.221,1.221c0,0.175,0.037,0.34,0.104,0.49
				C9.316,13.723,9.559,13.705,9.815,13.705z"/>
		</g>
	</g>
</g>
</svg>
