<svg xmlns="http://www.w3.org/2000/svg" width="36" height="36" fill="none" viewBox="0 0 36 36"><path fill="#000" fill-rule="evenodd" d="M26.75 8.25V7.043l-.854.853-5.882 5.883L9.712 15.25h-.025q-.06 0-.178-.004c-.156-.005-.38-.016-.65-.041a10 10 0 0 1-1.963-.371c-.712-.217-1.381-.536-1.866-.992-.471-.443-.78-1.025-.78-1.828h-1c0 1.103.44 1.941 1.095 2.557.64.601 1.47.979 2.26 1.22.792.241 1.578.355 2.161.41q.274.025.484.035V30h1V16.184l10.07-1.439.166-.024.118-.117 5.146-5.147v2l.146.147 4.147 4.146-2.293 2.293-1.146-1.147-.354-.353-.354.353-1.5 1.5-.146.147V30h1V18.957l1-1 1.146 1.147.354.353.354-.353 3-3 .353-.354-.353-.354-4.354-4.353zm-11 13h-.007c-1.066.014-1.793.71-2.27 1.564-.475.85-.76 1.946-.935 2.995a23 23 0 0 0-.276 2.89 25 25 0 0 0-.014 1.217l.002.072v.026l.5-.014.5-.016v-.02l-.002-.065-.002-.253c0-.22.002-.534.015-.912a22 22 0 0 1 .263-2.76c.169-1.008.43-1.971.822-2.672.39-.697.85-1.043 1.408-1.052h5.496V30h1v-8.75h-6.5m9-8.25a1.25 1.25 0 1 0 0 2.501 1.25 1.25 0 0 0 0-2.5m-.25 1.25a.25.25 0 1 1 .5 0 .25.25 0 0 1-.5 0" clip-rule="evenodd"/></svg>